<?xml version="1.0" encoding="UTF-8" standalone="no"?>
<!-- Created with Inkscape (http://www.inkscape.org/) -->

<svg
   width="101.6mm"
   height="128.5mm"
   viewBox="0 0 101.6 128.5"
   version="1.1"
   id="svg827"
   inkscape:version="1.1.1 (3bf5ae0d25, 2021-09-20)"
   sodipodi:docname="wavbank_mc_front_panel.svg"
   xmlns:inkscape="http://www.inkscape.org/namespaces/inkscape"
   xmlns:sodipodi="http://sodipodi.sourceforge.net/DTD/sodipodi-0.dtd"
   xmlns="http://www.w3.org/2000/svg"
   xmlns:svg="http://www.w3.org/2000/svg">
  <sodipodi:namedview
     id="namedview829"
     pagecolor="#ffffff"
     bordercolor="#666666"
     borderopacity="1.0"
     inkscape:pageshadow="2"
     inkscape:pageopacity="0.0"
     inkscape:pagecheckerboard="0"
     inkscape:document-units="mm"
     showgrid="false"
     inkscape:zoom="1.5554293"
     inkscape:cx="216.66044"
     inkscape:cy="258.44955"
     inkscape:window-width="3840"
     inkscape:window-height="2066"
     inkscape:window-x="2869"
     inkscape:window-y="-11"
     inkscape:window-maximized="1"
     inkscape:current-layer="layer1" />
  <defs
     id="defs824">
    <rect
       x="82.292394"
       y="118.29532"
       width="173.58552"
       height="70.720026"
       id="rect2335" />
  </defs>
  <g
     inkscape:label="Layer 1"
     inkscape:groupmode="layer"
     id="layer1">
    <rect
       style="fill:#f3ede7;fill-opacity:0.437159;fill-rule:evenodd;stroke-width:0;stroke-linejoin:round"
       id="rect843"
       width="101.6"
       height="128.5"
       x="0"
       y="0" />
    <g
       aria-label="wavbank_mc"
       transform="scale(0.26458333)"
       id="text2333"
       style="font-size:16px;line-height:1.25;font-family:'Share Tech Mono';-inkscape-font-specification:'Share Tech Mono, Normal';letter-spacing:0px;word-spacing:0px;white-space:pre;shape-inside:url(#rect2335)">
      <path
         d="m 86.644969,128.84325 -0.864,4.016 h -1.488 l -1.44,-8 h 1.36 l 0.912,6.352 1.056,-4.912 h 1.04 l 0.96,4.912 0.912,-6.352 h 1.28 l -1.424,8 h -1.536 z"
         id="path3211" />
      <path
         d="m 97.604953,132.85925 q -0.208,0 -0.464,-0.128 -0.24,-0.128 -0.416,-0.352 -0.368,0.48 -0.976,0.48 h -1.424 q -1.216,0 -1.776,-0.48 -0.544,-0.496 -0.544,-1.68 v -0.32 q 0,-2.48 2.336,-2.48 h 1.984 v -0.8 q 0,-0.496 -0.304,-0.768 -0.304,-0.272 -0.896,-0.272 h -2.48 v -1.2 h 2.32 q 1.392,0 2.048,0.608 0.672,0.608 0.672,1.952 v 3.84 q 0,0.24 0.176,0.368 0.192,0.112 0.624,0.112 v 1.12 z m -2.016,-1.2 q 0.48,0 0.608,-0.224 0.128,-0.224 0.128,-0.576 v -1.76 h -2 q -0.416,0 -0.688,0.272 -0.272,0.272 -0.272,0.688 v 0.8 q 0,0.416 0.192,0.608 0.192,0.192 0.608,0.192 z"
         id="path3213" />
      <path
         d="m 100.59694,124.85925 h 1.472 l 1.872,6.896 1.824,-6.896 h 1.424 l -2.304,8 h -1.968 z"
         id="path3215" />
      <path
         d="m 115.46092,130.29925 q 0,1.344 -0.672,1.952 -0.656,0.608 -2.048,0.608 h -3.136 v -11.2 h 1.36 v 3.52 q 0.48,-0.32 1.2,-0.32 h 0.576 q 1.408,0 2.064,0.608 0.656,0.592 0.656,1.952 z m -3.456,-4.24 q -0.528,0 -0.784,0.288 -0.256,0.272 -0.256,0.592 v 4.72 h 1.936 q 0.592,0 0.896,-0.272 0.304,-0.272 0.304,-0.768 v -3.52 q 0,-0.496 -0.304,-0.768 -0.304,-0.272 -0.896,-0.272 z"
         id="path3217" />
      <path
         d="m 123.52491,132.85925 q -0.208,0 -0.464,-0.128 -0.24,-0.128 -0.416,-0.352 -0.368,0.48 -0.976,0.48 h -1.424 q -1.216,0 -1.776,-0.48 -0.544,-0.496 -0.544,-1.68 v -0.32 q 0,-2.48 2.336,-2.48 h 1.984 v -0.8 q 0,-0.496 -0.304,-0.768 -0.304,-0.272 -0.896,-0.272 h -2.48 v -1.2 h 2.32 q 1.392,0 2.048,0.608 0.672,0.608 0.672,1.952 v 3.84 q 0,0.24 0.176,0.368 0.192,0.112 0.624,0.112 v 1.12 z m -2.016,-1.2 q 0.48,0 0.608,-0.224 0.128,-0.224 0.128,-0.576 v -1.76 h -2 q -0.416,0 -0.688,0.272 -0.272,0.272 -0.272,0.688 v 0.8 q 0,0.416 0.192,0.608 0.192,0.192 0.608,0.192 z"
         id="path3219" />
      <path
         d="m 128.16489,124.85925 v 0.384 q 0.496,-0.384 1.28,-0.384 h 0.736 q 1.296,0 1.92,0.608 0.64,0.608 0.64,1.952 v 5.44 h -1.36 v -5.76 q 0,-0.48 -0.288,-0.752 -0.272,-0.288 -0.752,-0.288 h -1.056 q -0.528,0 -0.784,0.288 -0.256,0.272 -0.256,0.592 v 5.92 h -1.36 v -8 z"
         id="path3221" />
      <path
         d="m 137.02887,129.43525 v 3.424 h -1.36 v -11.2 h 1.36 v 6.048 l 2.512,-2.848 h 1.712 l -2.784,3.152 3.008,4.848 h -1.68 l -2.352,-3.904 z"
         id="path3223" />
      <path
         d="m 151.12486,134.37925 v 1.2 h -8.064 v -1.2 z"
         id="path3225" />
      <path
         d="m 153.30084,124.85925 v 0.368 q 0.416,-0.368 0.992,-0.368 h 0.096 q 1.12,0 1.584,0.64 0.528,-0.64 1.392,-0.64 h 0.096 q 0.976,0 1.44,0.496 0.464,0.496 0.464,1.76 v 5.744 h -1.28 v -5.76 q 0,-0.656 -0.144,-0.912 -0.128,-0.256 -0.608,-0.256 h -0.096 q -0.48,0 -0.672,0.336 -0.176,0.32 -0.192,0.72 v 5.872 h -1.28 v -5.76 q 0,-0.672 -0.16,-0.912 -0.16,-0.256 -0.576,-0.256 h -0.096 q -0.48,0 -0.672,0.288 -0.192,0.272 -0.208,0.624 v 6.016 h -1.28 v -8 z"
         id="path3227" />
      <path
         d="m 164.69283,132.85925 q -1.408,0 -2.064,-0.592 -0.656,-0.608 -0.656,-1.968 v -2.88 q 0,-1.344 0.656,-1.952 0.672,-0.608 2.064,-0.608 h 2.064 v 1.2 h -2.224 q -0.592,0 -0.896,0.272 -0.304,0.272 -0.304,0.768 v 3.52 q 0,0.496 0.304,0.768 0.304,0.272 0.896,0.272 h 2.224 v 1.2 z"
         id="path3229" />
    </g>
  </g>
</svg>
