<?xml version="1.0" encoding="utf-8"?>
<!-- Generator: Adobe Illustrator 26.1.0, SVG Export Plug-In . SVG Version: 6.00 Build 0)  -->
<svg version="1.1" id="Ebene_2" xmlns="http://www.w3.org/2000/svg" xmlns:xlink="http://www.w3.org/1999/xlink" x="0px" y="0px"
	 viewBox="0 0 244.8 364.252" style="enable-background:new 0 0 244.8 364.252;" xml:space="preserve">
<style type="text/css">
	.st0{fill:#F3EDE7;}
	.st1{opacity:0.15;fill:#FFFFFF;}
	.st2{fill:#1C2729;}
</style>
<g>
	<path class="st0" d="M103.78,12.448l-1.128-8.007c-0.022-0.168,0.068-0.202,0.169-0.202h0.35c0.124,0,0.191,0.034,0.203,0.18
		l0.745,6.098c0.011,0.067,0.101,0.067,0.113,0l0.744-6.098c0.011-0.146,0.079-0.18,0.203-0.18h0.35
		c0.102,0,0.192,0.034,0.169,0.202l-1.128,8.007c-0.022,0.157-0.079,0.213-0.191,0.213h-0.406
		C103.859,12.661,103.803,12.605,103.78,12.448z"/>
	<path class="st0" d="M107.334,5.878c0-1.033,0.462-1.696,1.331-1.696c0.88,0,1.342,0.663,1.342,1.696v5.144
		c0,1.033-0.462,1.696-1.342,1.696c-0.868,0-1.331-0.663-1.331-1.696V5.878z M108.665,12.032c0.485,0,0.62-0.393,0.62-1.224V6.091
		c0-0.831-0.135-1.224-0.62-1.224c-0.474,0-0.609,0.393-0.609,1.224v4.717C108.056,11.639,108.191,12.032,108.665,12.032z"/>
	<path class="st0" d="M111.826,12.493l0.97-3.976c0.011-0.045,0.011-0.09,0-0.135l-0.97-3.976c-0.022-0.101,0.045-0.168,0.112-0.168
		h0.451c0.079,0,0.146,0.067,0.169,0.168l0.598,2.695c0.012,0.056,0.079,0.056,0.091,0l0.598-2.695
		c0.022-0.101,0.09-0.168,0.169-0.168h0.439c0.079,0,0.136,0.067,0.113,0.168l-0.959,3.976c-0.011,0.045-0.022,0.09-0.011,0.135
		l0.97,3.976c0.022,0.101-0.034,0.168-0.113,0.168h-0.439c-0.079,0-0.158-0.067-0.181-0.168l-0.586-2.684
		c-0.012-0.056-0.079-0.056-0.091,0l-0.598,2.684c-0.022,0.101-0.09,0.168-0.169,0.168h-0.451
		C111.871,12.661,111.803,12.594,111.826,12.493z"/>
	<path class="st0" d="M116.271,5.878c0-1.033,0.462-1.696,1.33-1.696c0.88,0,1.319,0.674,1.319,1.696v0.887
		c0,0.101-0.067,0.168-0.169,0.168h-0.361c-0.102,0-0.169-0.067-0.169-0.168V6.091c0-0.831-0.146-1.224-0.62-1.224
		s-0.608,0.393-0.608,1.224v4.717c0,0.831,0.135,1.224,0.608,1.224s0.62-0.393,0.62-1.224V9.292c0-0.101-0.067-0.168-0.169-0.168
		h-0.282c-0.102,0-0.169-0.056-0.169-0.168V8.618c0-0.101,0.067-0.168,0.169-0.168h0.981c0.102,0,0.169,0.067,0.169,0.168v2.403
		c0,1.022-0.439,1.696-1.319,1.696c-0.868,0-1.33-0.663-1.33-1.696V5.878z"/>
	<path class="st0" d="M121.145,4.407c0-0.101,0.057-0.168,0.169-0.168h0.384c0.102,0,0.169,0.067,0.169,0.168v7.435
		c0,0.101,0.067,0.168,0.169,0.168h0.925c0.102,0,0.169,0.067,0.169,0.168v0.314c0,0.101-0.067,0.168-0.169,0.168h-1.646
		c-0.102,0-0.169-0.067-0.169-0.168V4.407z"/>
	<path class="st0" d="M125.038,12.493V4.407c0-0.101,0.057-0.168,0.169-0.168h0.384c0.102,0,0.169,0.067,0.169,0.168v8.086
		c0,0.101-0.057,0.168-0.169,0.168h-0.384C125.105,12.661,125.038,12.594,125.038,12.493z"/>
	<path class="st0" d="M127.667,4.407c0-0.101,0.067-0.168,0.169-0.168h1.95c0.102,0,0.17,0.056,0.17,0.168v0.348
		c0,0.101-0.068,0.168-0.17,0.168h-0.462c-0.102,0-0.169,0.067-0.169,0.168v7.401c0,0.101-0.057,0.168-0.169,0.168h-0.372
		c-0.102,0-0.17-0.067-0.17-0.168V5.092c0-0.101-0.067-0.168-0.169-0.168h-0.439c-0.102,0-0.169-0.056-0.169-0.168V4.407z"/>
	<path class="st0" d="M131.752,5.878c0-1.033,0.462-1.696,1.33-1.696c0.88,0,1.342,0.674,1.342,1.696v0.887
		c0,0.101-0.067,0.168-0.169,0.168h-0.384c-0.102,0-0.169-0.067-0.169-0.168V6.091c0-0.831-0.146-1.224-0.62-1.224
		s-0.608,0.393-0.608,1.224v4.717c0,0.831,0.135,1.224,0.608,1.224s0.62-0.393,0.62-1.224v-0.674c0-0.101,0.067-0.168,0.169-0.168
		h0.384c0.102,0,0.169,0.067,0.169,0.168v0.887c0,1.022-0.462,1.696-1.342,1.696c-0.868,0-1.33-0.663-1.33-1.696V5.878z"/>
	<path class="st0" d="M136.603,12.493V4.407c0-0.101,0.057-0.168,0.169-0.168h0.384c0.102,0,0.169,0.067,0.169,0.168v3.481
		c0,0.101,0.067,0.168,0.169,0.168h1.015c0.102,0,0.181-0.067,0.181-0.168V4.407c0-0.101,0.057-0.168,0.169-0.168h0.373
		c0.101,0,0.169,0.067,0.169,0.168v8.086c0,0.101-0.057,0.168-0.169,0.168h-0.373c-0.101,0-0.169-0.067-0.169-0.168V8.91
		c0-0.101-0.079-0.168-0.181-0.168h-1.015c-0.102,0-0.169,0.067-0.169,0.168v3.583c0,0.101-0.057,0.168-0.169,0.168h-0.384
		C136.67,12.661,136.603,12.594,136.603,12.493z"/>
</g>
<path class="st0" d="M98.229,3.5l-6.214-0.496c-0.115-0.009-0.216,0.074-0.229,0.189l-0.252,2.174l1.058,0.32l-1.834,2.955
	l-1.834-2.955l1.058-0.32L89.73,3.192c-0.013-0.115-0.115-0.198-0.229-0.189L83.27,3.5c-0.196,0.016-0.364,0.148-0.425,0.336
	l-1.043,3.223C81.749,7.221,81.785,7.4,81.897,7.53l5.492,6.364c0.092,0.107,0.227,0.169,0.368,0.169h5.986
	c0.141,0,0.276-0.062,0.368-0.169l5.494-6.364c0.112-0.13,0.148-0.308,0.095-0.471l-1.046-3.222
	C98.593,3.648,98.426,3.515,98.229,3.5z M92.773,12.107h-4.045c-0.15,0-0.293-0.07-0.385-0.189l-3.828-4.953
	c-0.083-0.107-0.118-0.245-0.096-0.379l0.158-0.97c0.023-0.141,0.16-0.232,0.298-0.198l0.953,0.234
	c0.131,0.032,0.243,0.118,0.309,0.236l2.789,5.011c0.043,0.077,0.124,0.125,0.213,0.125h3.237c0.088,0,0.17-0.048,0.213-0.126
	l2.772-5.009c0.066-0.119,0.179-0.205,0.311-0.238l0.952-0.232c0.138-0.034,0.275,0.057,0.298,0.198l0.159,0.967
	c0.022,0.134-0.013,0.272-0.096,0.379l-3.829,4.953C93.065,12.037,92.923,12.107,92.773,12.107z"/>
<g>
	<polygon class="st0" points="147.941,8.14 146.964,8.14 146.964,6.382 146.196,6.382 146.196,10.58 146.964,10.58 146.964,8.817 
		147.941,8.817 147.941,10.58 148.709,10.58 148.709,6.382 147.941,6.382 	"/>
	<path class="st0" d="M150.522,6.382l-0.894,4.198h0.797l0.168-0.899h0.966l0.174,0.899h0.815l-0.894-4.198H150.522z M150.726,9.015
		l0.336-1.829h0.03l0.336,1.829H150.726z"/>
	<polygon class="st0" points="155.556,7.048 155.556,6.382 153.427,6.382 153.427,7.06 154.686,7.06 153.366,9.92 153.366,10.58 
		155.604,10.58 155.604,9.908 154.236,9.908 	"/>
	<path class="st0" d="M158.207,9.159c0,0.63-0.096,0.774-0.426,0.774h-0.048c-0.33,0-0.426-0.144-0.426-0.774V6.382h-0.773v2.771
		c0,1.193,0.324,1.487,1.188,1.487h0.072c0.863,0,1.187-0.294,1.187-1.487V6.382h-0.773V9.159z"/>
	<polygon class="st0" points="161.873,9.033 161.837,9.033 161.291,6.382 160.038,6.382 160.038,10.58 160.775,10.58 160.775,7.288 
		160.806,7.288 161.513,10.58 162.143,10.58 162.845,7.288 162.88,7.288 162.88,10.58 163.618,10.58 163.618,6.382 162.425,6.382 	
		"/>
	<rect x="164.712" y="6.382" class="st0" width="0.768" height="4.198"/>
	<g>
		<rect x="173.892" y="8.304" class="st0" width="0.845" height="0.559"/>
		<rect x="172.625" y="8.304" class="st0" width="0.845" height="0.559"/>
		<rect x="173.892" y="7.38" class="st0" width="0.845" height="0.535"/>
		<path class="st0" d="M182.716,3.88h-39.037c-0.306,0-0.555,0.248-0.555,0.555v8.018c0,0.306,0.248,0.555,0.555,0.555h39.037
			c0.306,0,0.555-0.248,0.555-0.555V4.435C183.271,4.128,183.022,3.88,182.716,3.88z M174.712,5.703l0.447,0.17
			c0.099,0.049,0.083,0.089-0.05,0.122c-0.133,0.292-0.29,0.575-0.472,0.851l-0.422-0.219C174.414,6.318,174.579,6.01,174.712,5.703
			z M173.42,5.727c0.199,0.211,0.381,0.462,0.547,0.754l-0.447,0.292c-0.149-0.308-0.315-0.567-0.497-0.778L173.42,5.727z
			 M172.352,5.824c0.199,0.211,0.373,0.454,0.522,0.729l-0.447,0.267c-0.166-0.308-0.323-0.551-0.472-0.729L172.352,5.824z
			 M167.958,12.453h-24.28V4.435h24.28V12.453z M171.631,10.515c-0.033,0.486-0.232,0.729-0.596,0.729h-0.646l-0.05-0.462h0.571
			c0.149,0,0.232-0.105,0.249-0.316l0.099-1.386h-0.82l-0.025,0.243l-0.472,0l0.174-2.066h1.093V6.408h-1.317V5.946h1.814v1.993
			h-0.497V7.72h-0.646l-0.075,0.899h1.267L171.631,10.515z M175.582,10.175h-1.689v1.07h-0.422v-1.07h-1.565V9.713h1.565V9.252
			h-0.646h-0.621V6.991h2.956v2.261h-1.267v0.462h1.689V10.175z M181.643,9.64c-0.348-0.194-0.662-0.356-0.944-0.486l0,0
			c-0.166,0.729-0.489,1.353-0.969,1.872l-0.522-0.292c0.513-0.47,0.853-1.053,1.019-1.75c-0.58-0.211-1.168-0.357-1.764-0.438
			c-0.447,0.94-0.745,1.483-0.894,1.629c-0.199,0.194-0.431,0.292-0.696,0.292c-0.199,0-0.364-0.065-0.497-0.195
			c-0.149-0.146-0.224-0.365-0.224-0.656c0-0.34,0.166-0.672,0.497-0.997c0.364-0.357,0.853-0.535,1.466-0.535
			c0.199-0.502,0.381-0.972,0.547-1.41c-0.464,0.113-0.927,0.219-1.391,0.316l-0.224-0.486c0.547-0.065,1.068-0.154,1.565-0.267
			l0.298-0.122l0.422,0.316c0.166,0.097,0.158,0.17-0.024,0.219c-0.215,0.373-0.447,0.859-0.696,1.458
			c0.53,0.065,1.093,0.194,1.689,0.389c0.033-0.389,0.041-0.867,0.024-1.434l0.472,0.097c0.182,0.032,0.199,0.097,0.05,0.195
			c0,0.535-0.017,0.972-0.05,1.313c0.315,0.113,0.679,0.275,1.093,0.486L181.643,9.64z"/>
		<rect x="172.625" y="7.38" class="st0" width="0.845" height="0.535"/>
		<path class="st0" d="M176.625,9.616c0,0.097,0.033,0.178,0.099,0.243c0.05,0.049,0.124,0.073,0.224,0.073
			c0.149,0,0.282-0.089,0.398-0.267c0.099-0.146,0.298-0.519,0.596-1.118c-0.381,0-0.687,0.113-0.919,0.34
			C176.757,9.146,176.625,9.389,176.625,9.616z"/>
	</g>
</g>
<g>
	<path class="st0" d="M204.404,50.228c-2.793-2.793-4.188-6.45-4.188-10.111c0-3.66,1.395-7.318,4.188-10.111
		c0.117-0.117,0.117-0.307,0-0.424c-0.117-0.117-0.307-0.117-0.424,0c-2.909,2.908-4.364,6.723-4.364,10.535
		c0,3.812,1.455,7.626,4.364,10.535c0.117,0.117,0.307,0.117,0.424,0C204.521,50.535,204.521,50.346,204.404,50.228L204.404,50.228z
		"/>
	<path class="st0" d="M224.625,30.007c2.792,2.793,4.188,6.45,4.188,10.111c0,3.66-1.395,7.318-4.188,10.111
		c-0.117,0.117-0.117,0.307,0,0.424c0.117,0.117,0.307,0.117,0.424,0c2.908-2.908,4.364-6.723,4.364-10.535
		c0-3.812-1.455-7.626-4.364-10.535c-0.117-0.117-0.307-0.117-0.424,0C224.507,29.7,224.507,29.89,224.625,30.007L224.625,30.007z"
		/>
	<path class="st0" d="M204.404,98.909c-2.793-2.793-4.188-6.45-4.188-10.111c0-3.66,1.395-7.318,4.188-10.11
		c0.117-0.117,0.117-0.307,0-0.424c-0.117-0.117-0.307-0.117-0.424,0c-2.909,2.908-4.364,6.723-4.364,10.535
		c0,3.812,1.455,7.626,4.364,10.535c0.117,0.117,0.307,0.117,0.424,0C204.521,99.216,204.521,99.026,204.404,98.909L204.404,98.909z
		"/>
	<path class="st0" d="M224.625,78.688c2.792,2.793,4.188,6.45,4.188,10.111c0,3.66-1.395,7.318-4.188,10.111
		c-0.117,0.117-0.117,0.307,0,0.424c0.117,0.117,0.307,0.117,0.424,0c2.908-2.908,4.364-6.723,4.364-10.535
		c0-3.812-1.455-7.626-4.364-10.535c-0.117-0.117-0.307-0.117-0.424,0C224.507,78.38,224.507,78.57,224.625,78.688L224.625,78.688z"
		/>
	<path class="st0" d="M203.413,21.875c-1.583,0-2.213-0.686-2.213-2.304v-0.434c0-1.618,0.63-2.304,2.213-2.304h0.161
		c1.345,0,1.94,0.532,2.164,1.646h-1.113c-0.141-0.504-0.477-0.701-1.086-0.701h-0.091c-0.974,0-1.148,0.54-1.148,1.429v0.294
		c0,0.89,0.175,1.429,1.148,1.429h0.091c0.609,0,0.945-0.196,1.086-0.7h1.113c-0.224,1.113-0.819,1.646-2.164,1.646H203.413z"/>
	<polygon class="st0" points="210.477,21.806 207.066,21.806 207.066,16.903 208.151,16.903 208.151,20.867 210.477,20.867 	"/>
	<path class="st0" d="M213.738,21.875c-1.59,0-2.29-0.686-2.29-2.304v-0.427c0-1.618,0.7-2.311,2.29-2.311h0.091
		c1.576,0,2.283,0.693,2.283,2.311v0.427c0,1.618-0.707,2.304-2.283,2.304H213.738z M213.843,20.93
		c0.967-0.014,1.17-0.525,1.17-1.429v-0.294c0-0.889-0.203-1.429-1.17-1.429h-0.118c-0.974,0-1.177,0.54-1.177,1.429v0.294
		c0,0.89,0.203,1.429,1.177,1.429H213.843z"/>
	<path class="st0" d="M219.632,21.875c-1.582,0-2.213-0.686-2.213-2.304v-0.434c0-1.618,0.631-2.304,2.213-2.304h0.161
		c1.345,0,1.94,0.532,2.165,1.646h-1.114c-0.14-0.504-0.476-0.701-1.085-0.701h-0.092c-0.974,0-1.148,0.54-1.148,1.429v0.294
		c0,0.89,0.175,1.429,1.148,1.429h0.092c0.609,0,0.945-0.196,1.085-0.7h1.114c-0.225,1.113-0.82,1.646-2.165,1.646H219.632z"/>
	<polygon class="st0" points="224.37,21.806 223.285,21.806 223.285,16.903 224.37,16.903 224.37,18.99 224.412,18.99 
		226.465,16.903 227.823,16.903 225.869,18.857 227.879,21.806 226.556,21.806 225.092,19.648 225.043,19.648 224.37,20.328 	"/>
</g>
<g>
	<path class="st0" d="M207.355,66.533h-0.521v1.45h0.556c0.345,0,0.485-0.07,0.485-0.651v-0.14
		C207.876,66.603,207.729,66.533,207.355,66.533z"/>
	<path class="st0" d="M223.41,63.779h-17.791c-2.372,0-4.295,1.923-4.295,4.295s1.923,4.295,4.295,4.295h17.791
		c2.372,0,4.295-1.923,4.295-4.295S225.782,63.779,223.41,63.779z M208.776,67.17c0,0.792-0.189,1.008-0.569,1.106v0.035
		c0.38,0.084,0.569,0.238,0.569,1.121v1.247h-0.9v-1.303c0-0.602-0.134-0.672-0.514-0.672h-0.527v1.975h-0.9v-4.903h1.513
		c0.936,0,1.329,0.21,1.329,1.303V67.17z M212.307,66.561h-1.386v1.268h1.386v0.792h-1.386v1.274h1.386v0.785h-2.286v-4.903h2.286
		V66.561z M216.231,69.299c0,1.121-0.464,1.45-1.364,1.45h-0.07c-0.443,0-0.788-0.098-1.021-0.301s-0.358-0.575-0.38-1.1h0.922
		c0.028,0.553,0.211,0.658,0.514,0.658c0.358,0,0.499-0.133,0.499-0.63v-0.119c0-0.441-0.092-0.581-0.492-0.637l-0.352-0.042
		c-0.774-0.098-1.062-0.42-1.062-1.352v-0.077c0-1.093,0.408-1.443,1.337-1.443h0.084c0.887,0,1.337,0.35,1.365,1.443h-0.915
		c-0.028-0.582-0.169-0.693-0.499-0.693c-0.338,0-0.465,0.14-0.465,0.623v0.098c0,0.427,0.092,0.582,0.492,0.63l0.353,0.042
		c0.773,0.098,1.055,0.42,1.055,1.352V69.299z M219.677,66.561h-1.386v1.268h1.386v0.792h-1.386v1.274h1.386v0.785h-2.286v-4.903
		h2.286V66.561z M223.37,66.575h-0.914v4.104h-0.908v-4.104h-0.893v-0.799h2.715V66.575z"/>
</g>
<path d="M181.812,347.398H19.418c-1.331,0-2.41-1.079-2.41-2.41V19.418c0-1.331,1.079-2.41,2.41-2.41h162.394
	c1.331,0,2.41,1.079,2.41,2.41v325.57C184.222,346.319,183.143,347.398,181.812,347.398z"/>
<path class="st1" d="M181.812,347.416H19.418c-1.331,0-2.41-1.079-2.41-2.41v0.583c0,1.331,1.079,2.41,2.41,2.41h162.394
	c1.331,0,2.41-1.079,2.41-2.41v-0.583C184.222,346.337,183.143,347.416,181.812,347.416z"/>
<path class="st2" d="M181.529,345.701H19.701c-0.504,0-0.912-0.409-0.912-0.912V19.749c0-0.504,0.409-0.912,0.912-0.912h161.827
	c0.504,0,0.912,0.409,0.912,0.912v325.039C182.441,345.292,182.033,345.701,181.529,345.701z"/>
</svg>
