<?xml version="1.0" encoding="UTF-8" standalone="no"?>
<!-- Generator: Adobe Illustrator 26.0.3, SVG Export Plug-In . SVG Version: 6.00 Build 0)  -->

<svg
   version="1.1"
   id="Ebene_1"
   x="0px"
   y="0px"
   viewBox="0 0 43.2 364.252"
   xml:space="preserve"
   sodipodi:docname="looper_panel.svg"
   inkscape:version="1.3.2 (091e20e, 2023-11-25, custom)"
   width="15.24mm"
   height="128.60001mm"
   xmlns:inkscape="http://www.inkscape.org/namespaces/inkscape"
   xmlns:sodipodi="http://sodipodi.sourceforge.net/DTD/sodipodi-0.dtd"
   xmlns:xlink="http://www.w3.org/1999/xlink"
   xmlns="http://www.w3.org/2000/svg"
   xmlns:svg="http://www.w3.org/2000/svg"><defs
   id="defs65">
	
	

	
	
	
<linearGradient
   inkscape:collect="always"
   xlink:href="#swatch1"
   id="linearGradient1"
   x1="5.6843419e-14"
   y1="182.12599"
   x2="288.00003"
   y2="182.12599"
   gradientUnits="userSpaceOnUse"
   gradientTransform="translate(0,-0.14173151)" /><linearGradient
   id="swatch1"
   inkscape:swatch="solid"
   inkscape:label="LIght Panel Background"><stop
     style="stop-color:#e7e7e7;stop-opacity:1;"
     offset="0"
     id="stop1" /></linearGradient></defs><sodipodi:namedview
   id="namedview63"
   pagecolor="#ffffff"
   bordercolor="#666666"
   borderopacity="1.0"
   inkscape:pageshadow="2"
   inkscape:pageopacity="0.0"
   inkscape:pagecheckerboard="0"
   showgrid="false"
   inkscape:zoom="5.1200001"
   inkscape:cx="96.582029"
   inkscape:cy="318.65234"
   inkscape:window-width="3840"
   inkscape:window-height="2054"
   inkscape:window-x="2869"
   inkscape:window-y="-11"
   inkscape:window-maximized="1"
   inkscape:current-layer="Ebene_1"
   units="px"
   inkscape:document-units="mm"
   inkscape:showpageshadow="2"
   inkscape:deskcolor="#d1d1d1" />
<style
   type="text/css"
   id="style2">
	.st0{fill:#F3EDE7;}
	.st1{fill:#1C2729;}
</style>
<rect
   style="fill:url(#linearGradient1);fill-opacity:1;stroke-width:0.72567"
   id="rect350"
   width="43.200001"
   height="364.25198"
   x="0"
   y="-0.14173172" />
<path
   class="st0"
   d="M 30.495,24.805 H 12.704 c -2.372,0 -4.295,1.923 -4.295,4.295 0,2.372 1.923,4.295 4.295,4.295 h 17.791 c 2.372,0 4.295,-1.923 4.295,-4.295 0,-2.372 -1.922,-4.295 -4.295,-4.295 z m -14.633,3.391 c 0,0.792 -0.189,1.008 -0.569,1.106 v 0.035 c 0.38,0.084 0.569,0.238 0.569,1.121 v 1.247 h -0.9 v -1.303 c 0,-0.602 -0.134,-0.672 -0.514,-0.672 h -0.527 v 1.975 h -0.9 v -4.903 h 1.513 c 0.936,0 1.329,0.21 1.329,1.303 v 0.091 z m 3.531,-0.609 h -1.386 v 1.268 h 1.386 v 0.792 h -1.386 v 1.274 h 1.386 v 0.785 h -2.286 v -4.903 h 2.286 z m 3.925,2.738 c 0,1.121 -0.465,1.45 -1.365,1.45 h -0.07 c -0.443,0 -0.788,-0.098 -1.02,-0.301 -0.232,-0.203 -0.359,-0.575 -0.38,-1.1 h 0.921 c 0.028,0.553 0.211,0.658 0.514,0.658 0.358,0 0.499,-0.133 0.499,-0.63 v -0.119 c 0,-0.441 -0.091,-0.581 -0.492,-0.637 L 21.573,29.604 C 20.8,29.506 20.511,29.184 20.511,28.252 v -0.077 c 0,-1.093 0.408,-1.443 1.337,-1.443 h 0.084 c 0.887,0 1.337,0.35 1.365,1.443 h -0.915 c -0.027,-0.582 -0.168,-0.693 -0.499,-0.693 -0.338,0 -0.464,0.14 -0.464,0.623 v 0.098 c 0,0.427 0.091,0.582 0.492,0.63 l 0.352,0.042 c 0.774,0.098 1.056,0.42 1.056,1.352 v 0.098 z m 3.445,-2.738 h -1.386 v 1.268 h 1.386 v 0.792 h -1.386 v 1.274 h 1.386 v 0.785 h -2.286 v -4.903 h 2.286 z m 3.692,0.014 h -0.914 v 4.104 H 28.633 V 27.601 H 27.74 v -0.799 h 2.715 z"
   id="path24"
   style="fill:#0c1117;fill-opacity:1" /><path
   class="st0"
   d="m 14.442,27.559 h -0.521 v 1.45 h 0.556 c 0.345,0 0.485,-0.07 0.485,-0.651 v -0.14 c 0,-0.589 -0.147,-0.659 -0.52,-0.659 z"
   id="path26"
   style="fill:#0c1117;fill-opacity:1" />
<path
   class="st0"
   d="m 4.89,18.800473 h 33.42 c 0.138,0 0.25,-0.112 0.25,-0.25 0,-0.138 -0.112,-0.25 -0.25,-0.25 H 4.89 c -0.138,0 -0.25,0.112 -0.25,0.25 0,0.138 0.112,0.25 0.25,0.25"
   id="path30"
   style="fill:#0c1117;fill-opacity:1" /><path
   class="st0"
   d="M 11.406,60.106 C 8.613,57.313 7.218,53.656 7.218,49.995 c 0,-3.66 1.395,-7.318 4.188,-10.111 0.117,-0.117 0.117,-0.307 0,-0.424 -0.117,-0.117 -0.307,-0.117 -0.424,0 -2.909,2.908 -4.364,6.723 -4.364,10.535 0,3.812 1.455,7.626 4.364,10.535 0.117,0.117 0.307,0.117 0.424,0 0.118,-0.117 0.118,-0.307 0,-0.424 z"
   id="path32"
   style="fill:#0c1117;fill-opacity:1" /><path
   class="st0"
   d="m 31.627,39.885 c 2.793,2.793 4.188,6.45 4.188,10.111 0,3.66 -1.395,7.318 -4.188,10.111 -0.117,0.117 -0.117,0.307 0,0.424 0.117,0.117 0.307,0.117 0.424,0 2.909,-2.908 4.364,-6.723 4.364,-10.535 0,-3.812 -1.455,-7.626 -4.364,-10.535 -0.117,-0.117 -0.307,-0.117 -0.424,0 -0.117,0.117 -0.117,0.307 0,0.424 z"
   id="path34"
   style="fill:#0c1117;fill-opacity:1" />



<g
   id="g1"
   transform="translate(0,-343.3089)"><g
     id="g54"
     style="fill:#0c1117;fill-opacity:1">
	<path
   class="st0"
   d="M 14.119,354.407 H 12.31 v -4.197 h 0.771 v 3.52 h 1.037 v 0.677 z"
   id="path42"
   style="fill:#0c1117;fill-opacity:1" />
	<path
   class="st0"
   d="m 16.169,354.467 c -0.887,0 -1.248,-0.348 -1.248,-1.559 v -1.193 c 0,-1.218 0.361,-1.565 1.248,-1.565 h 0.066 c 0.892,0 1.247,0.348 1.247,1.565 v 1.193 c 0,1.211 -0.355,1.559 -1.247,1.559 z m 0.054,-0.654 c 0.199,0 0.325,-0.06 0.386,-0.186 0.066,-0.126 0.097,-0.348 0.097,-0.666 v -1.301 c 0,-0.324 -0.03,-0.546 -0.097,-0.666 -0.061,-0.126 -0.187,-0.186 -0.386,-0.186 h -0.042 c -0.199,0 -0.325,0.06 -0.392,0.186 -0.061,0.12 -0.091,0.342 -0.091,0.666 v 1.301 c 0,0.318 0.03,0.54 0.091,0.666 0.066,0.126 0.192,0.186 0.392,0.186 z"
   id="path44"
   style="fill:#0c1117;fill-opacity:1" />
	<path
   class="st0"
   d="m 19.743,354.467 c -0.886,0 -1.247,-0.348 -1.247,-1.559 v -1.193 c 0,-1.218 0.361,-1.565 1.247,-1.565 h 0.066 c 0.892,0 1.247,0.348 1.247,1.565 v 1.193 c 0,1.211 -0.355,1.559 -1.247,1.559 z m 0.055,-0.654 c 0.198,0 0.325,-0.06 0.386,-0.186 0.066,-0.126 0.096,-0.348 0.096,-0.666 v -1.301 c 0,-0.324 -0.029,-0.546 -0.096,-0.666 -0.061,-0.126 -0.188,-0.186 -0.386,-0.186 h -0.042 c -0.199,0 -0.326,0.06 -0.393,0.186 -0.06,0.12 -0.09,0.342 -0.09,0.666 v 1.301 c 0,0.318 0.03,0.54 0.09,0.666 0.066,0.126 0.193,0.186 0.393,0.186 z"
   id="path46"
   style="fill:#0c1117;fill-opacity:1" />
	<path
   class="st0"
   d="m 22.884,354.407 h -0.771 v -4.197 h 1.296 c 0.802,0 1.139,0.18 1.139,1.283 v 0.239 c 0,1.08 -0.349,1.283 -1.139,1.283 h -0.524 v 1.392 z m 0,-3.555 v 1.535 h 0.458 c 0.319,0 0.434,-0.084 0.434,-0.624 v -0.288 c 0,-0.546 -0.12,-0.623 -0.434,-0.623 z"
   id="path48"
   style="fill:#0c1117;fill-opacity:1" />
	<path
   class="st0"
   d="m 27.507,354.407 h -1.959 v -4.197 h 1.959 v 0.671 H 26.32 v 1.086 h 1.188 v 0.678 H 26.32 v 1.091 h 1.188 v 0.671 z"
   id="path50"
   style="fill:#0c1117;fill-opacity:1" />
	<path
   class="st0"
   d="m 29.316,354.407 h -0.771 v -4.197 h 1.296 c 0.802,0 1.139,0.18 1.139,1.115 v 0.078 c 0,0.677 -0.162,0.863 -0.487,0.947 v 0.029 c 0.325,0.072 0.487,0.204 0.487,0.96 v 1.067 h -0.771 v -1.115 c 0,-0.516 -0.114,-0.576 -0.439,-0.576 h -0.452 v 1.692 z m 0,-3.55 v 1.241 h 0.477 c 0.295,0 0.415,-0.061 0.415,-0.558 v -0.12 c 0,-0.504 -0.126,-0.563 -0.445,-0.563 z"
   id="path52"
   style="fill:#0c1117;fill-opacity:1" />
</g><g
     id="g60"
     style="fill:#0c1117;fill-opacity:1">
	<g
   id="g58"
   style="fill:#0c1117;fill-opacity:1">
		<path
   class="st0"
   d="m 35.009,353.586 c -0.113,0 -0.204,0.092 -0.204,0.205 v 2.672 H 8.396 v -1.507 h 1.313 l -1.518,-2.63 -1.518,2.63 h 1.313 v 1.712 c 0,0.113 0.092,0.204 0.204,0.204 h 26.818 c 0.113,0 0.204,-0.092 0.204,-0.204 v -2.876 c 10e-4,-0.114 -0.09,-0.206 -0.203,-0.206 z M 8.191,351.119 c 0.113,0 0.205,-0.092 0.205,-0.205 v -2.672 h 26.409 v 1.452 h -1.314 l 1.518,2.63 1.518,-2.63 h -1.314 v -1.657 c 0,-0.113 -0.091,-0.204 -0.204,-0.204 H 8.191 c -0.113,0 -0.204,0.092 -0.204,0.204 v 2.876 c 0,0.115 0.091,0.206 0.204,0.206 z"
   id="path56"
   style="fill:#0c1117;fill-opacity:1" />
	</g>
</g></g>
<rect
   style="fill:#d2d2d3;fill-opacity:1;stroke:none;stroke-width:0.283465"
   id="rect2"
   width="33.550571"
   height="86.518112"
   x="4.8247147"
   y="-358.58929"
   rx="4.5000005"
   ry="4.5"
   transform="scale(1,-1)" /><path
   class="st0"
   d="m 27.8265,313.81724 h 1.513 v -0.938 h -4.097 v 0.938 h 1.492 v 3.964 h 1.093 v -3.964 z m -5.789,4.034 c 1.513,0 2.094,-0.518 2.094,-2.031 v -2.942 h -1.106 v 2.879 c 0,0.847 -0.238,1.121 -0.96,1.121 h -0.154 c -0.722,0 -0.959,-0.266 -0.959,-1.121 v -2.879 h -1.107 v 2.942 c 0,1.513 0.575,2.031 2.094,2.031 z m -5.901,-0.945 c -0.973,0 -1.176,-0.539 -1.176,-1.429 v -0.294 c 0,-0.889 0.203,-1.429 1.176,-1.429 h 0.119 c 0.967,0 1.17,0.54 1.17,1.429 v 0.294 c 0,0.903 -0.203,1.415 -1.17,1.429 z m 0.105,0.945 c 1.576,0 2.283,-0.686 2.283,-2.304 v -0.427 c 0,-1.618 -0.708,-2.311 -2.283,-2.311 h -0.091 c -1.59,0 -2.29,0.693 -2.29,2.311 v 0.427 c 0,1.618 0.7,2.304 2.29,2.304 z"
   id="path46-6"
   style="fill:#0c1218;fill-opacity:1;stroke:none" /></svg>
