<?xml version="1.0" encoding="utf-8"?>
<!-- Generator: Adobe Illustrator 26.0.3, SVG Export Plug-In . SVG Version: 6.00 Build 0)  -->
<svg version="1.1" id="Ebene_1" xmlns="http://www.w3.org/2000/svg" xmlns:xlink="http://www.w3.org/1999/xlink" x="0px" y="0px"
	 viewBox="0 0 43.2 364.252" style="enable-background:new 0 0 43.2 364.252;" xml:space="preserve">
<style type="text/css">
	.st0{fill:#F3EDE7;}
	.st1{fill:#1C2729;}
</style>
<g>
	<path class="st0" d="M6.316,12.365L5.312,5.239c-0.021-0.15,0.061-0.18,0.15-0.18h0.312c0.11,0,0.171,0.03,0.181,0.16l0.663,5.427
		c0.01,0.06,0.09,0.06,0.1,0L7.38,5.219c0.01-0.13,0.07-0.16,0.181-0.16h0.312c0.09,0,0.17,0.03,0.15,0.18l-1.004,7.126
		c-0.021,0.14-0.07,0.19-0.171,0.19H6.487C6.386,12.555,6.336,12.505,6.316,12.365z"/>
	<path class="st0" d="M9.481,6.519c0-0.919,0.412-1.509,1.186-1.509c0.783,0,1.194,0.59,1.194,1.509v4.578
		c0,0.919-0.411,1.509-1.194,1.509c-0.773,0-1.186-0.589-1.186-1.509V6.519z M10.666,11.996c0.432,0,0.552-0.35,0.552-1.089V6.708
		c0-0.74-0.12-1.089-0.552-1.089c-0.422,0-0.543,0.35-0.543,1.089v4.198C10.123,11.646,10.244,11.996,10.666,11.996z"/>
	<path class="st0" d="M13.48,12.405l0.863-3.538c0.01-0.04,0.01-0.08,0-0.12L13.48,5.209c-0.021-0.09,0.04-0.15,0.101-0.15h0.401
		c0.07,0,0.13,0.06,0.15,0.15l0.532,2.399c0.01,0.05,0.07,0.05,0.08,0l0.532-2.399c0.021-0.09,0.08-0.15,0.15-0.15h0.392
		c0.07,0,0.121,0.06,0.101,0.15l-0.854,3.538c-0.01,0.04-0.02,0.08-0.01,0.12l0.863,3.538c0.021,0.09-0.03,0.15-0.101,0.15h-0.392
		c-0.07,0-0.141-0.06-0.16-0.15l-0.522-2.389c-0.01-0.05-0.07-0.05-0.08,0l-0.532,2.389c-0.021,0.09-0.08,0.15-0.15,0.15H13.58
		C13.52,12.555,13.459,12.495,13.48,12.405z"/>
	<path class="st0" d="M17.438,6.519c0-0.919,0.412-1.509,1.186-1.509c0.783,0,1.174,0.6,1.174,1.509v0.79
		c0,0.09-0.06,0.15-0.15,0.15h-0.321c-0.09,0-0.15-0.06-0.15-0.15v-0.6c0-0.74-0.131-1.089-0.552-1.089
		c-0.422,0-0.543,0.35-0.543,1.089v4.198c0,0.739,0.121,1.089,0.543,1.089c0.421,0,0.552-0.35,0.552-1.089v-1.35
		c0-0.09-0.061-0.15-0.15-0.15h-0.251c-0.091,0-0.15-0.05-0.15-0.15v-0.3c0-0.09,0.06-0.15,0.15-0.15h0.873
		c0.091,0,0.15,0.06,0.15,0.15v2.139c0,0.909-0.391,1.509-1.174,1.509c-0.773,0-1.186-0.589-1.186-1.509V6.519z"/>
	<path class="st0" d="M21.778,5.209c0-0.09,0.051-0.15,0.151-0.15h0.341c0.091,0,0.15,0.06,0.15,0.15v6.617
		c0,0.09,0.061,0.15,0.151,0.15h0.823c0.09,0,0.15,0.06,0.15,0.15v0.28c0,0.09-0.061,0.15-0.15,0.15h-1.466
		c-0.091,0-0.151-0.06-0.151-0.15V5.209z"/>
	<path class="st0" d="M25.243,12.405V5.209c0-0.09,0.051-0.15,0.151-0.15h0.341c0.091,0,0.15,0.06,0.15,0.15v7.196
		c0,0.09-0.05,0.15-0.15,0.15h-0.341C25.304,12.555,25.243,12.495,25.243,12.405z"/>
	<path class="st0" d="M27.585,5.209c0-0.09,0.061-0.15,0.15-0.15h1.737c0.09,0,0.15,0.05,0.15,0.15v0.31
		c0,0.09-0.061,0.15-0.15,0.15h-0.412c-0.09,0-0.15,0.06-0.15,0.15v6.586c0,0.09-0.05,0.15-0.15,0.15h-0.331
		c-0.091,0-0.151-0.06-0.151-0.15V5.819c0-0.09-0.06-0.15-0.15-0.15h-0.392c-0.09,0-0.15-0.05-0.15-0.15V5.209z"/>
	<path class="st0" d="M31.222,6.519c0-0.919,0.411-1.509,1.185-1.509c0.783,0,1.194,0.6,1.194,1.509v0.79
		c0,0.09-0.06,0.15-0.15,0.15H33.11c-0.091,0-0.151-0.06-0.151-0.15v-0.6c0-0.74-0.13-1.089-0.552-1.089s-0.542,0.35-0.542,1.089
		v4.198c0,0.739,0.12,1.089,0.542,1.089s0.552-0.35,0.552-1.089v-0.6c0-0.09,0.061-0.15,0.151-0.15h0.341
		c0.091,0,0.15,0.06,0.15,0.15v0.79c0,0.909-0.411,1.509-1.194,1.509c-0.773,0-1.185-0.589-1.185-1.509V6.519z"/>
	<path class="st0" d="M35.541,12.405V5.209c0-0.09,0.051-0.15,0.151-0.15h0.341c0.091,0,0.15,0.06,0.15,0.15v3.099
		c0,0.09,0.061,0.15,0.151,0.15h0.903c0.091,0,0.16-0.06,0.16-0.15V5.209c0-0.09,0.051-0.15,0.151-0.15h0.331
		c0.091,0,0.15,0.06,0.15,0.15v7.196c0,0.09-0.05,0.15-0.15,0.15H37.55c-0.091,0-0.151-0.06-0.151-0.15V9.217
		c0-0.09-0.069-0.15-0.16-0.15h-0.903c-0.091,0-0.151,0.06-0.151,0.15v3.188c0,0.09-0.05,0.15-0.15,0.15h-0.341
		C35.602,12.555,35.541,12.495,35.541,12.405z"/>
</g>
<g>
	<path class="st0" d="M30.495,47.305H12.704c-2.372,0-4.295,1.923-4.295,4.295s1.923,4.295,4.295,4.295h17.791
		c2.372,0,4.295-1.923,4.295-4.295S32.868,47.305,30.495,47.305z M15.862,50.696c0,0.792-0.189,1.008-0.569,1.106v0.035
		c0.38,0.084,0.569,0.238,0.569,1.121v1.247h-0.9v-1.303c0-0.602-0.134-0.672-0.514-0.672h-0.527v1.975h-0.9v-4.903h1.513
		c0.936,0,1.329,0.21,1.329,1.303V50.696z M19.393,50.087h-1.386v1.268h1.386v0.792h-1.386v1.274h1.386v0.785h-2.286v-4.903h2.286
		V50.087z M23.318,52.825c0,1.121-0.465,1.45-1.365,1.45h-0.07c-0.443,0-0.788-0.098-1.02-0.301c-0.232-0.203-0.359-0.575-0.38-1.1
		h0.921c0.028,0.553,0.211,0.658,0.514,0.658c0.358,0,0.499-0.133,0.499-0.63v-0.119c0-0.441-0.091-0.581-0.492-0.637l-0.352-0.042
		c-0.773-0.098-1.062-0.42-1.062-1.352v-0.077c0-1.093,0.408-1.443,1.337-1.443h0.084c0.887,0,1.337,0.35,1.365,1.443h-0.915
		c-0.027-0.582-0.168-0.693-0.499-0.693c-0.338,0-0.464,0.14-0.464,0.623v0.098c0,0.427,0.091,0.582,0.492,0.63l0.352,0.042
		c0.774,0.098,1.056,0.42,1.056,1.352V52.825z M26.763,50.087h-1.386v1.268h1.386v0.792h-1.386v1.274h1.386v0.785h-2.286v-4.903
		h2.286V50.087z M30.455,50.101h-0.914v4.104h-0.908v-4.104H27.74v-0.799h2.715V50.101z"/>
	<path class="st0" d="M14.442,50.059h-0.521v1.45h0.556c0.345,0,0.485-0.07,0.485-0.651v-0.14
		C14.962,50.129,14.815,50.059,14.442,50.059z"/>
</g>
<g>
	<path class="st0" d="M4.89,17.128h33.42c0.138,0,0.25-0.112,0.25-0.25c0-0.138-0.112-0.25-0.25-0.25H4.89
		c-0.138,0-0.25,0.112-0.25,0.25C4.64,17.016,4.752,17.128,4.89,17.128"/>
	<path class="st0" d="M11.406,82.606c-2.793-2.793-4.188-6.45-4.188-10.111c0-3.66,1.395-7.318,4.188-10.111
		c0.117-0.117,0.117-0.307,0-0.424c-0.117-0.117-0.307-0.117-0.424,0c-2.909,2.908-4.364,6.723-4.364,10.535
		c0,3.812,1.455,7.626,4.364,10.535c0.117,0.117,0.307,0.117,0.424,0C11.524,82.913,11.524,82.723,11.406,82.606L11.406,82.606z"/>
	<path class="st0" d="M31.627,62.385c2.793,2.793,4.188,6.45,4.188,10.111c0,3.66-1.395,7.318-4.188,10.111
		c-0.117,0.117-0.117,0.307,0,0.424c0.117,0.117,0.307,0.117,0.424,0c2.909-2.908,4.364-6.723,4.364-10.535
		c0-3.812-1.455-7.626-4.364-10.535c-0.117-0.117-0.307-0.117-0.424,0C31.51,62.078,31.51,62.268,31.627,62.385L31.627,62.385z"/>
</g>
<path d="M36.166,269.865H7.034c-1.114,0-2.016-0.903-2.016-2.016V95.566c0-1.114,0.903-2.016,2.016-2.016h29.132
	c1.114,0,2.016,0.903,2.016,2.016v172.282C38.183,268.962,37.28,269.865,36.166,269.865z"/>
<path class="st1" d="M35.691,268.873H7.509c-0.828,0-1.5-0.672-1.5-1.5V96.042c0-0.828,0.672-1.5,1.5-1.5h28.181
	c0.828,0,1.5,0.672,1.5,1.5v171.331C37.191,268.201,36.519,268.873,35.691,268.873z"/>
<g>
	<path class="st0" d="M14.119,354.407h-1.809v-4.197h0.771v3.52h1.037V354.407z"/>
	<path class="st0" d="M16.169,354.467c-0.887,0-1.248-0.348-1.248-1.559v-1.193c0-1.218,0.361-1.565,1.248-1.565h0.066
		c0.892,0,1.247,0.348,1.247,1.565v1.193c0,1.211-0.355,1.559-1.247,1.559H16.169z M16.223,353.813c0.199,0,0.325-0.06,0.386-0.186
		c0.066-0.126,0.097-0.348,0.097-0.666v-1.301c0-0.324-0.03-0.546-0.097-0.666c-0.061-0.126-0.187-0.186-0.386-0.186h-0.042
		c-0.199,0-0.325,0.06-0.392,0.186c-0.061,0.12-0.091,0.342-0.091,0.666v1.301c0,0.318,0.03,0.54,0.091,0.666
		c0.066,0.126,0.192,0.186,0.392,0.186H16.223z"/>
	<path class="st0" d="M19.743,354.467c-0.886,0-1.247-0.348-1.247-1.559v-1.193c0-1.218,0.361-1.565,1.247-1.565h0.066
		c0.892,0,1.247,0.348,1.247,1.565v1.193c0,1.211-0.355,1.559-1.247,1.559H19.743z M19.798,353.813c0.198,0,0.325-0.06,0.386-0.186
		c0.066-0.126,0.096-0.348,0.096-0.666v-1.301c0-0.324-0.029-0.546-0.096-0.666c-0.061-0.126-0.188-0.186-0.386-0.186h-0.042
		c-0.199,0-0.326,0.06-0.393,0.186c-0.06,0.12-0.09,0.342-0.09,0.666v1.301c0,0.318,0.03,0.54,0.09,0.666
		c0.066,0.126,0.193,0.186,0.393,0.186H19.798z"/>
	<path class="st0" d="M22.884,354.407h-0.771v-4.197h1.296c0.802,0,1.139,0.18,1.139,1.283v0.239c0,1.08-0.349,1.283-1.139,1.283
		h-0.524V354.407z M22.884,350.852v1.535h0.458c0.319,0,0.434-0.084,0.434-0.624v-0.288c0-0.546-0.12-0.623-0.434-0.623H22.884z"/>
	<path class="st0" d="M27.507,354.407h-1.959v-4.197h1.959v0.671H26.32v1.086h1.188v0.678H26.32v1.091h1.188V354.407z"/>
	<path class="st0" d="M29.316,354.407h-0.771v-4.197h1.296c0.802,0,1.139,0.18,1.139,1.115v0.078c0,0.677-0.162,0.863-0.487,0.947
		v0.029c0.325,0.072,0.487,0.204,0.487,0.96v1.067h-0.771v-1.115c0-0.516-0.114-0.576-0.439-0.576h-0.452V354.407z M29.316,350.857
		v1.241h0.477c0.295,0,0.415-0.061,0.415-0.558v-0.12c0-0.504-0.126-0.563-0.445-0.563H29.316z"/>
</g>
<g>
	<g>
		<path class="st0" d="M35.009,353.586c-0.113,0-0.204,0.092-0.204,0.205v2.672H8.396v-1.507h1.313l-1.518-2.63l-1.518,2.63h1.313
			v1.712c0,0.113,0.092,0.204,0.204,0.204h26.818c0.113,0,0.204-0.092,0.204-0.204v-2.876
			C35.213,353.678,35.122,353.586,35.009,353.586z M8.191,351.119c0.113,0,0.205-0.092,0.205-0.205v-2.672h26.409v1.452h-1.314
			l1.518,2.63l1.518-2.63h-1.314v-1.657c0-0.113-0.091-0.204-0.204-0.204H8.191c-0.113,0-0.204,0.092-0.204,0.204v2.876
			C7.987,351.028,8.078,351.119,8.191,351.119z"/>
	</g>
</g>
</svg>
