<?xml version="1.0" encoding="UTF-8" standalone="no"?>
<!-- Generator: Adobe Illustrator 26.1.0, SVG Export Plug-In . SVG Version: 6.00 Build 0)  -->

<svg
   version="1.1"
   id="Ebene_1"
   x="0px"
   y="0px"
   width="81.28000mm"
   height="128.50000mm"
   viewBox="0 0 230.4 364.252"
   style="enable-background:new 0 0 230.4 364.252;"
   xml:space="preserve"
   sodipodi:docname="typography.svg"
   inkscape:version="1.1.1 (3bf5ae0d25, 2021-09-20)"
   xmlns:inkscape="http://www.inkscape.org/namespaces/inkscape"
   xmlns:sodipodi="http://sodipodi.sourceforge.net/DTD/sodipodi-0.dtd"
   xmlns="http://www.w3.org/2000/svg"
   xmlns:svg="http://www.w3.org/2000/svg"><defs
   id="defs93"><rect
     x="224.22618"
     y="356.4016"
     width="68.595508"
     height="26.848134"
     id="rect8371" /><rect
     x="237.20769"
     y="263.0232"
     width="46.467924"
     height="27.733237"
     id="rect2823" /></defs><sodipodi:namedview
   id="namedview91"
   pagecolor="#ffffff"
   bordercolor="#666666"
   borderopacity="1.0"
   inkscape:pageshadow="2"
   inkscape:pageopacity="0.0"
   inkscape:pagecheckerboard="0"
   showgrid="false"
   inkscape:zoom="8"
   inkscape:cx="300.875"
   inkscape:cy="208.125"
   inkscape:window-width="3840"
   inkscape:window-height="2066"
   inkscape:window-x="2869"
   inkscape:window-y="-11"
   inkscape:window-maximized="1"
   inkscape:current-layer="Ebene_1"
   inkscape:document-units="mm" />
<style
   type="text/css"
   id="style2">
	.st0{fill:#F3EDE7;}
	.st1{fill:#FFFFFF;}
	.st2{fill:#1C2729;}
</style>
<path
   class="st0"
   d="m 93.984,120.304 c 0.059,-0.243 0.11,-0.488 0.156,-0.736 l -2.488,-0.566 c 0.113,-0.648 0.176,-1.313 0.175,-1.993 0,-1.421 -0.259,-2.781 -0.73,-4.038 l 2.38,-0.935 c -0.089,-0.235 -0.184,-0.467 -0.285,-0.696 l -2.384,0.936 c -0.84,-1.86 -2.158,-3.455 -3.8,-4.631 l 1.446,-2.117 c -0.204,-0.145 -0.412,-0.285 -0.624,-0.42 l -1.447,2.118 c -1.664,-1.035 -3.61,-1.656 -5.697,-1.723 v -2.566 c -0.125,-0.003 -0.25,-0.009 -0.376,-0.009 -0.126,0 -0.251,0.006 -0.376,0.009 v 2.566 c -2.087,0.067 -4.033,0.688 -5.697,1.723 l -1.447,-2.118 c -0.212,0.135 -0.42,0.275 -0.624,0.42 l 1.446,2.117 c -1.641,1.176 -2.96,2.772 -3.8,4.631 l -2.384,-0.936 c -0.101,0.229 -0.196,0.461 -0.285,0.696 l 2.38,0.935 c -0.471,1.257 -0.73,2.617 -0.73,4.038 0,0.68 0.062,1.345 0.175,1.993 l -2.488,0.566 c 0.046,0.248 0.098,0.493 0.156,0.736 l 2.485,-0.565 c 0.5,2.054 1.549,3.893 2.984,5.349 l -1.731,1.865 c 0.178,0.177 0.361,0.348 0.548,0.516 l 2.351,-2.532 -0.551,-0.512 -0.003,0.003 c -1.872,-1.915 -3.026,-4.529 -3.026,-7.419 0,-2.933 1.188,-5.584 3.109,-7.507 1.923,-1.922 4.574,-3.109 7.507,-3.109 2.933,0 5.584,1.188 7.507,3.109 1.922,1.923 3.109,4.574 3.109,7.507 0,2.889 -1.154,5.504 -3.026,7.419 l -0.003,-0.003 -0.551,0.512 2.35,2.532 c 0.187,-0.167 0.37,-0.339 0.548,-0.516 l -1.731,-1.865 c 1.435,-1.456 2.484,-3.295 2.984,-5.349 z"
   id="path4"
   style="fill-opacity:1;fill:#0c1218;stroke:none" /><path
   class="st0"
   d="m 65.804,126.652 c -0.479,0 -0.634,-0.21 -0.634,-1.093 v -1.632 c 0,-0.883 0.155,-1.1 0.634,-1.1 0.471,0 0.626,0.217 0.626,1.1 v 1.632 c 0,0.883 -0.148,1.093 -0.626,1.093 z m 0.042,0.61 c 0.887,0 1.287,-0.371 1.287,-1.758 v -1.521 c 0,-1.4 -0.394,-1.765 -1.287,-1.765 h -0.085 c -0.886,0 -1.287,0.364 -1.287,1.765 v 1.521 c 0,1.387 0.401,1.758 1.287,1.758 z"
   id="path6"
   style="fill-opacity:1;fill:#0c1218;stroke:none" /><polygon
   class="st0"
   points="96.039,122.289 95.174,122.289 94.386,122.688 94.386,123.431 95.308,122.912 95.343,122.912 95.343,126.575 94.33,126.575 94.33,127.191 96.933,127.191 96.933,126.575 96.039,126.575 "
   id="polygon8"
   style="fill-opacity:1;fill:#0c1218;stroke:none" /><path
   class="st0"
   d="m 93.984,187.145 c 0.059,-0.243 0.11,-0.488 0.156,-0.736 l -2.488,-0.566 c 0.113,-0.648 0.176,-1.313 0.175,-1.993 0,-1.421 -0.259,-2.781 -0.73,-4.038 l 2.38,-0.935 c -0.089,-0.235 -0.184,-0.467 -0.285,-0.696 l -2.384,0.936 c -0.84,-1.86 -2.158,-3.455 -3.8,-4.631 l 1.446,-2.117 c -0.204,-0.145 -0.412,-0.285 -0.624,-0.42 l -1.447,2.118 c -1.664,-1.035 -3.61,-1.656 -5.697,-1.723 v -2.566 c -0.125,-0.003 -0.25,-0.009 -0.376,-0.009 -0.126,0 -0.251,0.006 -0.376,0.009 v 2.566 c -2.087,0.067 -4.033,0.688 -5.697,1.723 l -1.447,-2.118 c -0.212,0.134 -0.42,0.274 -0.624,0.42 l 1.446,2.117 c -1.641,1.176 -2.96,2.772 -3.8,4.631 l -2.384,-0.936 c -0.101,0.229 -0.196,0.461 -0.285,0.696 l 2.38,0.935 c -0.471,1.257 -0.73,2.617 -0.73,4.038 0,0.68 0.062,1.345 0.175,1.993 l -2.488,0.566 c 0.046,0.248 0.098,0.493 0.156,0.736 l 2.485,-0.565 c 0.5,2.054 1.549,3.893 2.984,5.349 l -1.731,1.865 c 0.178,0.177 0.361,0.348 0.548,0.516 l 2.351,-2.532 -0.551,-0.512 -0.003,0.003 c -1.872,-1.915 -3.026,-4.529 -3.026,-7.419 0,-2.933 1.188,-5.584 3.109,-7.507 1.923,-1.922 4.574,-3.109 7.507,-3.109 2.933,0 5.584,1.188 7.507,3.109 1.922,1.923 3.109,4.574 3.109,7.507 0,2.889 -1.154,5.504 -3.026,7.419 l -0.003,-0.003 -0.551,0.512 2.35,2.532 c 0.187,-0.167 0.37,-0.339 0.548,-0.516 l -1.731,-1.865 c 1.435,-1.456 2.484,-3.295 2.984,-5.349 z"
   id="path10"
   style="fill-opacity:1;fill:#0c1218;stroke:none" /><path
   class="st0"
   d="m 65.804,193.493 c -0.479,0 -0.634,-0.21 -0.634,-1.093 v -1.632 c 0,-0.883 0.155,-1.1 0.634,-1.1 0.471,0 0.626,0.217 0.626,1.1 v 1.632 c 0,0.883 -0.148,1.093 -0.626,1.093 z m 0.042,0.61 c 0.887,0 1.287,-0.371 1.287,-1.758 v -1.521 c 0,-1.4 -0.394,-1.765 -1.287,-1.765 h -0.085 c -0.886,0 -1.287,0.364 -1.287,1.765 v 1.521 c 0,1.387 0.401,1.758 1.287,1.758 z"
   id="path12"
   style="fill-opacity:1;fill:#0c1218;stroke:none" /><polygon
   class="st0"
   points="96.039,189.13 95.174,189.13 94.386,189.528 94.386,190.271 95.308,189.753 95.343,189.753 95.343,193.416 94.33,193.416 94.33,194.032 96.933,194.032 96.933,193.416 96.039,193.416 "
   id="polygon14"
   style="fill-opacity:1;fill:#0c1218;stroke:none" /><path
   class="st0"
   d="m 93.984,254.207 c 0.059,-0.243 0.11,-0.488 0.156,-0.736 l -2.488,-0.566 c 0.113,-0.648 0.176,-1.313 0.175,-1.993 0,-1.421 -0.259,-2.781 -0.73,-4.038 l 2.38,-0.935 c -0.089,-0.235 -0.184,-0.467 -0.285,-0.696 l -2.384,0.936 c -0.84,-1.86 -2.158,-3.455 -3.8,-4.631 l 1.446,-2.117 c -0.204,-0.145 -0.412,-0.285 -0.624,-0.42 l -1.447,2.118 c -1.664,-1.035 -3.61,-1.656 -5.697,-1.723 v -2.566 c -0.125,-0.003 -0.25,-0.009 -0.376,-0.009 -0.126,0 -0.251,0.006 -0.376,0.009 v 2.566 c -2.087,0.067 -4.033,0.688 -5.697,1.723 l -1.447,-2.118 c -0.212,0.134 -0.42,0.274 -0.624,0.42 l 1.446,2.117 c -1.641,1.176 -2.96,2.772 -3.8,4.631 l -2.384,-0.936 c -0.101,0.229 -0.196,0.461 -0.285,0.696 l 2.38,0.935 c -0.471,1.257 -0.73,2.617 -0.73,4.038 0,0.68 0.062,1.345 0.175,1.993 l -2.488,0.566 c 0.046,0.248 0.098,0.493 0.156,0.736 l 2.485,-0.565 c 0.5,2.054 1.549,3.893 2.984,5.349 l -1.731,1.865 c 0.178,0.177 0.361,0.348 0.548,0.516 l 2.351,-2.532 -0.551,-0.512 -0.003,0.003 c -1.872,-1.915 -3.026,-4.529 -3.026,-7.419 0,-2.933 1.188,-5.584 3.109,-7.507 1.923,-1.922 4.574,-3.109 7.507,-3.109 2.933,0 5.584,1.188 7.507,3.109 1.922,1.923 3.109,4.574 3.109,7.507 0,2.889 -1.154,5.503 -3.026,7.419 l -0.003,-0.003 -0.551,0.512 2.35,2.532 c 0.187,-0.167 0.37,-0.339 0.548,-0.516 l -1.731,-1.865 c 1.435,-1.456 2.484,-3.295 2.984,-5.349 z"
   id="path16"
   style="fill-opacity:1;fill:#0c1218;stroke:none" /><path
   class="st0"
   d="m 65.804,260.556 c -0.479,0 -0.634,-0.21 -0.634,-1.093 v -1.632 c 0,-0.883 0.155,-1.1 0.634,-1.1 0.471,0 0.626,0.217 0.626,1.1 v 1.632 c 0,0.883 -0.148,1.093 -0.626,1.093 z m 0.042,0.609 c 0.887,0 1.287,-0.371 1.287,-1.758 v -1.521 c 0,-1.4 -0.394,-1.765 -1.287,-1.765 h -0.085 c -0.886,0 -1.287,0.364 -1.287,1.765 v 1.521 c 0,1.387 0.401,1.758 1.287,1.758 z"
   id="path18"
   style="fill-opacity:1;fill:#0c1218;stroke:none" /><polygon
   class="st0"
   points="96.039,256.192 95.174,256.192 94.386,256.591 94.386,257.334 95.308,256.815 95.343,256.815 95.343,260.479 94.33,260.479 94.33,261.095 96.933,261.095 96.933,260.479 96.039,260.479 "
   id="polygon20"
   style="fill-opacity:1;fill:#0c1218;stroke:none" /><path
   class="st0"
   d="m 30.582,127.335 c -2.793,-2.793 -4.188,-6.45 -4.188,-10.111 0,-3.66 1.395,-7.318 4.188,-10.111 0.117,-0.117 0.117,-0.307 0,-0.424 -0.117,-0.117 -0.307,-0.117 -0.424,0 -2.909,2.908 -4.364,6.723 -4.364,10.535 0,3.812 1.455,7.626 4.364,10.535 0.117,0.117 0.307,0.117 0.424,0 0.117,-0.116 0.117,-0.306 0,-0.424 z"
   id="path28"
   style="fill-opacity:1;fill:#0c1218;stroke:none" /><path
   class="st0"
   d="m 50.803,107.114 c 2.793,2.793 4.188,6.45 4.188,10.111 0,3.66 -1.395,7.318 -4.188,10.111 -0.117,0.117 -0.117,0.307 0,0.424 0.117,0.117 0.307,0.117 0.424,0 2.909,-2.908 4.364,-6.723 4.364,-10.535 0,-3.812 -1.455,-7.626 -4.364,-10.535 -0.117,-0.117 -0.307,-0.117 -0.424,0 -0.118,0.117 -0.118,0.307 0,0.424 z"
   id="path30"
   style="fill-opacity:1;fill:#0c1218;stroke:none" /><path
   class="st0"
   d="m 178.606,127.147 c -2.793,-2.793 -4.188,-6.45 -4.188,-10.111 0,-3.66 1.395,-7.318 4.188,-10.11 0.117,-0.117 0.117,-0.307 0,-0.424 -0.117,-0.117 -0.307,-0.117 -0.424,0 -2.909,2.908 -4.364,6.723 -4.364,10.535 0,3.812 1.455,7.626 4.364,10.535 0.117,0.117 0.307,0.117 0.424,0 0.118,-0.118 0.118,-0.308 0,-0.425 z"
   id="path32"
   style="fill-opacity:1;fill:#0c1218;stroke:none" /><path
   class="st0"
   d="m 198.828,106.926 c 2.792,2.793 4.188,6.45 4.188,10.111 0,3.66 -1.395,7.318 -4.188,10.111 -0.117,0.117 -0.117,0.307 0,0.424 0.117,0.117 0.307,0.117 0.424,0 2.908,-2.908 4.364,-6.723 4.364,-10.535 0,-3.812 -1.455,-7.626 -4.364,-10.535 -0.117,-0.117 -0.307,-0.117 -0.424,0 -0.118,0.117 -0.118,0.307 0,0.424 z"
   id="path34"
   style="fill-opacity:1;fill:#0c1218;stroke:none" /><path
   class="st0"
   d="m 30.582,194.113 c -2.793,-2.793 -4.188,-6.45 -4.188,-10.111 0,-3.66 1.395,-7.318 4.188,-10.111 0.117,-0.117 0.117,-0.307 0,-0.424 -0.117,-0.117 -0.307,-0.117 -0.424,0 -2.909,2.908 -4.364,6.723 -4.364,10.535 0,3.812 1.455,7.626 4.364,10.535 0.117,0.117 0.307,0.117 0.424,0 0.117,-0.117 0.117,-0.306 0,-0.424 z"
   id="path36"
   style="fill-opacity:1;fill:#0c1218;stroke:none" /><path
   class="st0"
   d="m 50.803,173.892 c 2.793,2.793 4.188,6.45 4.188,10.11 0,3.66 -1.395,7.318 -4.188,10.111 -0.117,0.117 -0.117,0.307 0,0.424 0.117,0.117 0.307,0.117 0.424,0 2.909,-2.908 4.364,-6.723 4.364,-10.535 0,-3.812 -1.455,-7.626 -4.364,-10.535 -0.117,-0.117 -0.307,-0.117 -0.424,0 -0.118,0.118 -0.118,0.308 0,0.425 z"
   id="path38"
   style="fill-opacity:1;fill:#0c1218;stroke:none" /><path
   class="st0"
   d="m 30.582,261.186 c -2.793,-2.793 -4.188,-6.45 -4.188,-10.111 0,-3.66 1.395,-7.318 4.188,-10.111 0.117,-0.117 0.117,-0.307 0,-0.424 -0.117,-0.117 -0.307,-0.117 -0.424,0 -2.909,2.908 -4.364,6.723 -4.364,10.535 0,3.812 1.455,7.626 4.364,10.535 0.117,0.117 0.307,0.117 0.424,0 0.117,-0.117 0.117,-0.307 0,-0.424 z"
   id="path40"
   style="fill-opacity:1;fill:#0c1218;stroke:none" /><path
   class="st0"
   d="m 50.803,240.965 c 2.793,2.793 4.188,6.45 4.188,10.111 0,3.66 -1.395,7.318 -4.188,10.11 -0.117,0.117 -0.117,0.307 0,0.424 0.117,0.117 0.307,0.117 0.424,0 2.909,-2.908 4.364,-6.723 4.364,-10.535 0,-3.812 -1.455,-7.626 -4.364,-10.535 -0.117,-0.117 -0.307,-0.117 -0.424,0 -0.118,0.118 -0.118,0.308 0,0.425 z"
   id="path42"
   style="fill-opacity:1;fill:#0c1218;stroke:none" /><path
   class="st0"
   d="m 30.582,328.731 c -2.793,-2.793 -4.188,-6.45 -4.188,-10.111 0,-3.66 1.395,-7.318 4.188,-10.11 0.117,-0.117 0.117,-0.307 0,-0.424 -0.117,-0.117 -0.307,-0.117 -0.424,0 -2.909,2.908 -4.364,6.723 -4.364,10.535 0,3.812 1.455,7.626 4.364,10.535 0.117,0.117 0.307,0.117 0.424,0 0.117,-0.118 0.117,-0.308 0,-0.425 z"
   id="path44"
   style="fill-opacity:1;fill:#0c1218;stroke:none" /><path
   class="st0"
   d="m 50.803,308.51 c 2.793,2.793 4.188,6.45 4.188,10.11 0,3.66 -1.395,7.318 -4.188,10.111 -0.117,0.117 -0.117,0.307 0,0.424 0.117,0.117 0.307,0.117 0.424,0 2.909,-2.908 4.364,-6.723 4.364,-10.535 0,-3.812 -1.455,-7.626 -4.364,-10.535 -0.117,-0.117 -0.307,-0.117 -0.424,0 -0.118,0.118 -0.118,0.308 0,0.425 z"
   id="path46"
   style="fill-opacity:1;fill:#0c1218;stroke:none" /><path
   d="M 211.125,77.926 H 19.203 c -1.331,0 -2.41,-1.079 -2.41,-2.41 V 35.958 c 0,-1.331 1.079,-2.41 2.41,-2.41 h 191.922 c 1.331,0 2.41,1.079 2.41,2.41 v 39.558 c 0,1.331 -1.079,2.41 -2.41,2.41"
   id="path48"
   style="stroke:none" /><path
   class="st1"
   d="m 213.535,75.534 c 0,1.331 -1.079,2.41 -2.41,2.41 H 19.203 c -1.331,0 -2.41,-1.079 -2.41,-2.41 v 0.583 c 0,1.331 1.079,2.41 2.41,2.41 h 191.922 c 1.331,0 2.41,-1.079 2.41,-2.41 v -0.583"
   id="path50"
   style="stroke:none" /><path
   class="st2"
   d="M 210.841,76.229 H 19.487 c -0.504,0 -0.912,-0.409 -0.912,-0.912 V 36.289 c 0,-0.504 0.409,-0.912 0.912,-0.912 h 191.355 c 0.504,0 0.912,0.409 0.912,0.912 v 39.028 c 0,0.503 -0.409,0.912 -0.913,0.912 z"
   id="path52"
   style="fill-opacity:1;fill:#1c2729;stroke:none" /><path
   class="st0"
   d="m 124.47,13.417 h 0.384 c 0.112,0 0.169,-0.067 0.169,-0.168 V 9.667 c 0,-0.101 0.067,-0.168 0.169,-0.168 h 1.015 c 0.102,0 0.181,0.067 0.181,0.168 v 3.583 c 0,0.101 0.068,0.168 0.169,0.168 h 0.373 c 0.112,0 0.169,-0.067 0.169,-0.168 V 5.163 c 0,-0.101 -0.068,-0.168 -0.169,-0.168 h -0.373 c -0.112,0 -0.169,0.067 -0.169,0.168 v 3.481 c 0,0.101 -0.079,0.168 -0.181,0.168 h -1.015 c -0.102,0 -0.169,-0.067 -0.169,-0.168 V 5.163 c 0,-0.101 -0.067,-0.168 -0.169,-0.168 h -0.384 c -0.112,0 -0.169,0.067 -0.169,0.168 v 8.086 c 0,0.101 0.068,0.168 0.169,0.168 z m -5.019,-1.639 c 0,1.033 0.462,1.696 1.33,1.696 0.88,0 1.342,-0.674 1.342,-1.696 v -0.887 c 0,-0.101 -0.067,-0.168 -0.169,-0.168 h -0.384 c -0.102,0 -0.169,0.067 -0.169,0.168 v 0.674 c 0,0.831 -0.146,1.224 -0.62,1.224 -0.474,0 -0.608,-0.393 -0.608,-1.224 V 6.848 c 0,-0.831 0.135,-1.224 0.608,-1.224 0.473,0 0.62,0.393 0.62,1.224 v 0.674 c 0,0.101 0.067,0.168 0.169,0.168 h 0.384 c 0.102,0 0.169,-0.067 0.169,-0.168 V 6.634 c 0,-1.022 -0.462,-1.696 -1.342,-1.696 -0.868,0 -1.33,0.663 -1.33,1.696 z m -4.085,-6.267 c 0,0.112 0.067,0.168 0.169,0.168 h 0.439 c 0.102,0 0.169,0.067 0.169,0.168 v 7.401 c 0,0.101 0.068,0.168 0.17,0.168 h 0.372 c 0.112,0 0.169,-0.067 0.169,-0.168 v -7.4 c 0,-0.101 0.067,-0.168 0.169,-0.168 h 0.462 c 0.102,0 0.17,-0.067 0.17,-0.168 V 5.163 c 0,-0.112 -0.068,-0.168 -0.17,-0.168 h -1.95 c -0.102,0 -0.169,0.067 -0.169,0.168 z m -2.46,7.906 h 0.384 c 0.112,0 0.169,-0.067 0.169,-0.168 V 5.163 c 0,-0.101 -0.067,-0.168 -0.169,-0.168 h -0.384 c -0.112,0 -0.169,0.067 -0.169,0.168 v 8.086 c 0,0.101 0.067,0.168 0.169,0.168 z m -4.062,-0.168 c 0,0.101 0.067,0.168 0.169,0.168 h 1.646 c 0.102,0 0.169,-0.067 0.169,-0.168 v -0.314 c 0,-0.101 -0.067,-0.168 -0.169,-0.168 h -0.925 c -0.102,0 -0.169,-0.067 -0.169,-0.168 V 5.163 c 0,-0.101 -0.067,-0.168 -0.169,-0.168 h -0.384 c -0.112,0 -0.169,0.067 -0.169,0.168 v 8.086 z m -4.874,-1.471 c 0,1.033 0.462,1.696 1.33,1.696 0.88,0 1.319,-0.674 1.319,-1.696 V 9.375 c 0,-0.101 -0.067,-0.168 -0.169,-0.168 h -0.981 c -0.102,0 -0.169,0.067 -0.169,0.168 v 0.337 c 0,0.112 0.067,0.168 0.169,0.168 h 0.282 c 0.102,0 0.169,0.067 0.169,0.168 v 1.516 c 0,0.831 -0.146,1.224 -0.62,1.224 -0.474,0 -0.608,-0.393 -0.608,-1.224 V 6.848 c 0,-0.831 0.135,-1.224 0.608,-1.224 0.473,0 0.62,0.393 0.62,1.224 v 0.674 c 0,0.101 0.067,0.168 0.169,0.168 h 0.361 c 0.102,0 0.169,-0.067 0.169,-0.168 V 6.634 c 0,-1.022 -0.439,-1.696 -1.319,-1.696 -0.868,0 -1.33,0.663 -1.33,1.696 z m -4.333,1.639 h 0.451 c 0.079,0 0.146,-0.067 0.169,-0.168 l 0.598,-2.684 h 0.091 l 0.586,2.684 c 0.022,0.101 0.102,0.168 0.181,0.168 h 0.439 c 0.079,0 0.136,-0.067 0.113,-0.168 l -0.97,-3.976 0.011,-0.135 0.959,-3.976 c 0.022,-0.101 -0.034,-0.168 -0.113,-0.168 h -0.439 c -0.079,0 -0.146,0.067 -0.169,0.168 l -0.598,2.695 h -0.091 l -0.598,-2.695 c -0.022,-0.101 -0.09,-0.168 -0.169,-0.168 h -0.451 c -0.067,0 -0.135,0.067 -0.112,0.168 l 0.97,3.976 v 0.135 l -0.97,3.976 c -0.023,0.101 0.045,0.168 0.112,0.168 z M 95.755,11.564 V 6.848 c 0,-0.831 0.135,-1.224 0.609,-1.224 0.485,0 0.62,0.393 0.62,1.224 v 4.717 c 0,0.831 -0.135,1.224 -0.62,1.224 -0.473,0 -0.609,-0.393 -0.609,-1.225 z m -0.721,0.214 c 0,1.033 0.462,1.696 1.331,1.696 0.88,0 1.342,-0.663 1.342,-1.696 V 6.634 c 0,-1.033 -0.462,-1.696 -1.342,-1.696 -0.868,0 -1.331,0.663 -1.331,1.696 z m -3.363,1.639 h 0.406 c 0.113,0 0.169,-0.056 0.191,-0.213 L 93.396,5.197 C 93.418,5.029 93.328,4.995 93.227,4.995 h -0.35 c -0.124,0 -0.191,0.034 -0.203,0.18 L 91.93,11.273 H 91.817 L 91.072,5.175 C 91.061,5.029 90.993,4.995 90.869,4.995 h -0.35 c -0.102,0 -0.192,0.034 -0.169,0.202 l 1.128,8.007 c 0.024,0.157 0.08,0.213 0.193,0.213 z"
   id="path54"
   style="fill-opacity:1;fill:#0c1218;stroke:none" /><path
   class="st0"
   d="m 6.297,18.86 h 217.806 c 0.138,0 0.249,-0.112 0.249,-0.249 0,-0.138 -0.111,-0.249 -0.249,-0.249 H 6.297 c -0.138,0 -0.249,0.112 -0.249,0.249 0,0.138 0.111,0.249 0.249,0.249"
   id="path56"
   style="fill-opacity:1;fill:#0c1218;stroke:none" /><path
   class="st0"
   d="m 160.612,5.199 v 8.018 H 131.087 V 5.199 h 29.525 m 0.499,-0.5 h -0.5 -29.525 -0.5 v 0.5 8.018 0.5 h 0.5 29.525 0.5 v -0.5 -8.018 z"
   id="path58"
   style="fill-opacity:1;fill:#0c1218;stroke:none" /><path
   class="st0"
   d="m 156.973,7.967 c 0.318,0 0.444,0.06 0.444,0.563 v 0.12 c 0,0.498 -0.12,0.558 -0.414,0.558 h -0.474 V 7.967 Z m -0.443,1.859 h 0.449 c 0.324,0 0.438,0.06 0.438,0.576 v 1.115 h 0.768 V 10.45 c 0,-0.756 -0.162,-0.888 -0.486,-0.959 V 9.46 c 0.324,-0.084 0.486,-0.27 0.486,-0.948 V 8.435 c 0,-0.935 -0.336,-1.115 -1.134,-1.115 h -1.289 v 4.198 h 0.768 z m -1.802,1.019 h -1.181 V 9.754 h 1.181 V 9.077 h -1.181 V 7.991 h 1.181 V 7.319 h -1.948 v 4.198 h 1.948 z m -3.629,-2.842 h 0.779 V 7.319 h -2.314 v 0.684 h 0.762 v 3.514 h 0.773 z m -3.336,0.12 0.336,1.829 h -0.702 l 0.336,-1.829 z m 0.564,-0.804 h -1.133 l -0.894,4.198 h 0.797 l 0.168,-0.899 h 0.966 l 0.174,0.899 h 0.815 z m -2.887,3.526 h -1.181 V 9.754 h 1.181 V 9.077 h -1.181 V 7.991 h 1.181 V 7.319 h -1.948 v 4.198 h 1.948 z m -4.146,-2.884 c 0.312,0 0.433,0.078 0.433,0.624 v 0.288 c 0,0.54 -0.114,0.624 -0.433,0.624 h -0.455 V 7.961 Z m -0.455,2.165 h 0.521 c 0.785,0 1.134,-0.204 1.134,-1.283 v -0.24 c 0,-1.103 -0.336,-1.283 -1.134,-1.283 h -1.289 v 4.198 h 0.768 z m -1.8,0.719 h -1.181 V 9.754 h 1.181 V 9.077 h -1.181 V 7.991 h 1.181 V 7.319 h -1.948 v 4.198 h 1.948 z m -4.224,-2.878 c 0.318,0 0.444,0.06 0.444,0.563 v 0.12 c 0,0.498 -0.12,0.558 -0.414,0.558 h -0.474 V 7.967 Z m -0.443,1.859 h 0.449 c 0.324,0 0.438,0.06 0.438,0.576 v 1.115 h 0.768 V 10.45 c 0,-0.756 -0.162,-0.888 -0.486,-0.959 V 9.46 c 0.324,-0.084 0.486,-0.27 0.486,-0.948 V 8.435 c 0,-0.935 -0.336,-1.115 -1.134,-1.115 h -1.289 v 4.198 h 0.768 z"
   id="path60"
   style="fill-opacity:1;fill:#0c1218;stroke:none" /><path
   class="st0"
   d="M 85.928,4.256 79.714,3.76 C 79.6,3.752 79.499,3.835 79.485,3.95 l -0.252,2.174 1.058,0.32 -1.834,2.955 -1.834,-2.955 1.058,-0.32 -0.254,-2.176 C 77.414,3.833 77.312,3.75 77.198,3.759 l -6.23,0.497 C 70.772,4.272 70.604,4.404 70.543,4.592 L 69.5,7.815 c -0.053,0.163 -0.017,0.342 0.095,0.471 l 5.492,6.364 c 0.092,0.107 0.227,0.169 0.368,0.169 h 5.986 c 0.141,0 0.276,-0.062 0.368,-0.169 l 5.494,-6.364 c 0.112,-0.13 0.148,-0.308 0.095,-0.471 L 86.352,4.593 C 86.292,4.404 86.124,4.272 85.928,4.256 Z m -5.456,8.608 h -4.045 c -0.15,0 -0.293,-0.07 -0.385,-0.189 L 72.214,7.722 C 72.131,7.615 72.096,7.477 72.118,7.343 l 0.158,-0.97 c 0.023,-0.141 0.16,-0.232 0.298,-0.198 l 0.953,0.234 c 0.131,0.032 0.243,0.118 0.309,0.236 l 2.789,5.011 0.213,0.125 h 3.237 l 0.213,-0.126 2.772,-5.009 c 0.066,-0.119 0.179,-0.205 0.311,-0.238 l 0.952,-0.232 c 0.138,-0.034 0.275,0.057 0.298,0.198 l 0.159,0.967 c 0.022,0.134 -0.013,0.272 -0.096,0.379 l -3.829,4.953 c -0.091,0.121 -0.233,0.191 -0.383,0.191 z"
   id="path62"
   style="fill-opacity:1;fill:#0c1218;stroke:none" /><path
   class="st0"
   d="m 131.055,85.174 h -1.898 l -1.94,3.425 h -0.063 l -1.926,-3.425 h -2.059 l 2.865,4.903 h 2.157 z m -9.222,0 h -1.737 v 4.903 h 1.737 z m -6.972,1.219 c 1.646,0 1.884,0.273 1.884,1.226 v 0.028 c 0,0.952 -0.238,1.211 -1.884,1.211 h -1.499 v -2.465 z m 3.656,1.149 c 0,-1.793 -0.819,-2.368 -3.257,-2.368 h -3.635 v 4.903 h 3.705 c 2.437,0 3.187,-0.574 3.187,-2.367 z"
   id="path64"
   style="fill-opacity:1;fill:#0c1218;stroke:none" /><path
   class="st0"
   d="m 134.094,90.145 h 7.304 c 1.498,0 2.851,0.606 3.833,1.588 0.981,0.982 1.587,2.335 1.588,3.833 v 43.955 c 0,1.498 -0.606,2.851 -1.588,3.833 -0.982,0.981 -2.335,1.587 -3.833,1.588 H 22.788 c -1.498,0 -2.851,-0.606 -3.833,-1.588 -0.981,-0.982 -1.587,-2.335 -1.588,-3.833 V 95.565 c 0,-1.498 0.606,-2.851 1.588,-3.833 0.982,-0.981 2.335,-1.587 3.833,-1.588 h 85.223 c 0.137,0 0.249,-0.111 0.249,-0.249 0,-0.137 -0.111,-0.249 -0.249,-0.249 H 22.788 c -3.269,0 -5.918,2.65 -5.918,5.918 v 43.955 c 0,3.269 2.65,5.918 5.918,5.918 h 118.61 c 3.269,0 5.918,-2.65 5.918,-5.918 V 95.565 c 0,-3.269 -2.65,-5.918 -5.918,-5.918 h -7.304 c -0.137,0 -0.249,0.111 -0.249,0.249 0,0.138 0.111,0.249 0.249,0.249 z"
   id="path66"
   style="fill-opacity:1;fill:#0c1218;stroke:none" /><path
   class="st0"
   d="m 134.415,219.001 h -1.898 l -1.94,3.425 h -0.063 l -1.926,-3.425 h -2.059 l 2.865,4.903 h 2.157 z m -11.671,1.037 0.995,1.737 h -2.059 l 1.001,-1.737 z m 1.33,-1.037 h -2.661 l -2.865,4.903 h 1.919 l 0.553,-0.974 h 3.376 l 0.561,0.974 h 1.982 z m -5.534,0 h -1.751 l -1.113,3.432 h -0.063 l -1.345,-3.432 h -1.94 l -1.331,3.432 h -0.063 l -1.135,-3.432 h -1.926 l 1.786,4.903 h 2.276 l 1.338,-3.194 1.261,3.194 h 2.234 z"
   id="path68"
   style="fill-opacity:1;fill:#0c1218;stroke:none" /><path
   class="st0"
   d="m 136.094,223.972 h 5.304 c 1.498,0 2.851,0.606 3.833,1.588 0.981,0.982 1.587,2.335 1.588,3.833 v 43.955 c 0,1.498 -0.606,2.851 -1.588,3.833 -0.982,0.981 -2.335,1.587 -3.833,1.588 H 22.788 c -1.498,0 -2.851,-0.606 -3.833,-1.588 -0.981,-0.982 -1.587,-2.335 -1.588,-3.833 v -43.955 c 0,-1.498 0.606,-2.851 1.588,-3.833 0.982,-0.981 2.335,-1.587 3.833,-1.588 h 84.223 c 0.137,0 0.249,-0.111 0.249,-0.249 0,-0.137 -0.111,-0.249 -0.249,-0.249 H 22.788 c -3.269,0 -5.918,2.65 -5.918,5.918 v 43.955 c 0,3.269 2.65,5.918 5.918,5.918 h 118.61 c 3.269,0 5.918,-2.65 5.918,-5.918 v -43.955 c 0,-3.269 -2.65,-5.918 -5.918,-5.918 h -5.304 c -0.137,0 -0.249,0.111 -0.249,0.249 0,0.137 0.111,0.249 0.249,0.249 z"
   id="path70"
   style="fill-opacity:1;fill:#0c1218;stroke:none" /><path
   class="st0"
   d="m 138.628,286.679 h -1.737 v 1.807 h -3.537 v -1.807 h -1.737 v 4.903 h 1.737 v -1.814 h 3.537 v 1.814 h 1.737 z m -11.761,4.972 c 2.101,0 3.026,-0.469 3.194,-1.856 h -1.779 c -0.154,0.498 -0.483,0.638 -1.695,0.638 h -0.168 c -1.485,0 -1.73,-0.315 -1.73,-1.219 v -0.161 c 0,-0.917 0.245,-1.226 1.73,-1.226 h 0.168 c 1.211,0 1.541,0.14 1.695,0.637 h 1.779 c -0.168,-1.387 -1.093,-1.856 -3.194,-1.856 h -0.728 c -2.333,0 -3.222,0.567 -3.222,2.367 v 0.308 c 0,1.8 0.89,2.367 3.222,2.367 h 0.728 z m -7.281,-3.662 h 2.255 v -1.31 h -6.248 v 1.31 h 2.255 v 3.593 h 1.737 v -3.593 z m -5.398,-1.31 h -1.737 v 4.903 h 1.737 z m -5.836,1.155 c 0.784,0 0.945,0.14 0.945,0.567 v 0.063 c 0,0.42 -0.147,0.561 -0.938,0.561 h -2.36 v -1.191 z m -2.353,2.354 h 2.62 c 1.765,0 2.416,-0.519 2.416,-1.688 v -0.098 c 0,-1.317 -0.686,-1.723 -2.416,-1.723 h -4.356 v 4.903 H 106 v -1.394 z"
   id="path72"
   style="fill-opacity:1;fill:#0c1218;stroke:none" /><path
   class="st0"
   d="m 140.762,291.65 h 0.636 c 1.498,0 2.851,0.606 3.833,1.588 0.981,0.982 1.587,2.335 1.588,3.833 v 43.955 c 0,1.498 -0.606,2.851 -1.588,3.833 -0.982,0.981 -2.335,1.587 -3.833,1.588 H 22.788 c -1.498,0 -2.851,-0.606 -3.833,-1.588 -0.981,-0.982 -1.587,-2.335 -1.588,-3.833 V 297.07 c 0,-1.498 0.606,-2.851 1.588,-3.833 0.982,-0.981 2.335,-1.587 3.833,-1.588 h 79.042 c 0.137,0 0.249,-0.111 0.249,-0.249 0,-0.137 -0.111,-0.249 -0.249,-0.249 H 22.788 c -3.269,0 -5.918,2.65 -5.918,5.918 v 43.955 c 0,3.269 2.65,5.918 5.918,5.918 h 118.61 c 3.269,0 5.918,-2.65 5.918,-5.918 V 297.07 c 0,-3.269 -2.65,-5.918 -5.918,-5.918 h -0.636 c -0.137,0 -0.249,0.111 -0.249,0.249 0,0.137 0.112,0.249 0.249,0.249 z"
   id="path74"
   style="fill-opacity:1;fill:#0c1218;stroke:none" /><path
   class="st0"
   d="m 130.169,156.983 c 2.255,0 3.222,-0.35 3.222,-1.695 v -0.056 c 0,-0.903 -0.462,-1.239 -2.143,-1.31 L 129,153.852 c -0.498,-0.021 -0.609,-0.126 -0.609,-0.35 v -0.014 c 0,-0.308 0.259,-0.434 1.457,-0.434 1.037,0 1.457,0.098 1.59,0.434 h 1.87 c -0.259,-1.338 -1.59,-1.548 -3.201,-1.548 h -0.35 c -2.22,0 -3.138,0.364 -3.138,1.597 v 0.07 c 0,0.931 0.476,1.295 2.143,1.352 l 2.27,0.077 c 0.483,0.021 0.609,0.119 0.609,0.343 v 0.035 c -0.014,0.364 -0.357,0.456 -1.597,0.456 -1.163,0 -1.59,-0.07 -1.73,-0.371 h -1.863 c 0.245,1.289 1.59,1.484 3.222,1.484 z m -8.918,-1.218 c -1.583,0 -1.821,-0.322 -1.821,-1.219 v -0.161 c 0,-0.911 0.238,-1.226 1.821,-1.226 h 0.231 c 1.583,0 1.828,0.315 1.828,1.226 v 0.161 c 0,0.896 -0.245,1.219 -1.828,1.219 z m 0.49,1.218 c 2.416,0 3.341,-0.567 3.341,-2.367 v -0.308 c 0,-1.8 -0.925,-2.367 -3.341,-2.367 h -0.75 c -2.417,0 -3.334,0.567 -3.334,2.367 v 0.308 c 0,1.8 0.917,2.367 3.334,2.367 z m -8.029,-3.817 c 0.784,0 0.945,0.14 0.945,0.567 v 0.063 c 0,0.42 -0.147,0.561 -0.938,0.561 h -2.36 v -1.191 z m -2.353,2.354 h 2.62 c 1.765,0 2.416,-0.519 2.416,-1.688 v -0.098 c 0,-1.317 -0.686,-1.723 -2.416,-1.723 h -4.356 v 4.903 h 1.737 v -1.394 z"
   id="path76"
   style="fill-opacity:1;fill:#0c1218;stroke:none" /><path
   class="st0"
   d="m 136.094,156.981 h 5.304 c 1.498,0 2.851,0.606 3.833,1.588 0.981,0.982 1.587,2.335 1.588,3.833 v 43.955 c 0,1.498 -0.606,2.851 -1.588,3.833 -0.982,0.981 -2.335,1.587 -3.833,1.588 H 22.788 c -1.498,0 -2.851,-0.606 -3.833,-1.588 -0.981,-0.982 -1.587,-2.335 -1.588,-3.833 v -43.955 c 0,-1.498 0.606,-2.851 1.588,-3.833 0.982,-0.981 2.335,-1.587 3.833,-1.588 h 84.223 c 0.137,0 0.249,-0.111 0.249,-0.249 0,-0.137 -0.111,-0.249 -0.249,-0.249 H 22.788 c -3.269,0 -5.918,2.65 -5.918,5.918 v 43.955 c 0,3.269 2.65,5.918 5.918,5.918 h 118.61 c 3.269,0 5.918,-2.65 5.918,-5.918 v -43.955 c 0,-3.269 -2.65,-5.918 -5.918,-5.918 h -5.304 c -0.137,0 -0.249,0.111 -0.249,0.249 0,0.138 0.111,0.249 0.249,0.249 z"
   id="path78"
   style="fill-opacity:1;fill:#0c1218;stroke:none" /><path
   class="st0"
   d="m 202.076,251.68 c 1.576,0 2.262,-0.686 2.262,-2.304 v -0.637 h -2.452 v 0.903 h 1.359 c 0,0.785 -0.238,1.1 -1.121,1.1 h -0.154 c -0.973,0 -1.176,-0.525 -1.176,-1.421 v -0.309 c 0,-0.889 0.203,-1.429 1.176,-1.429 h 0.119 c 0.588,0 0.938,0.168 1.058,0.553 h 1.142 c -0.217,-1.057 -0.952,-1.499 -2.213,-1.499 h -0.091 c -1.59,0 -2.29,0.693 -2.29,2.311 v 0.427 c 0,1.618 0.7,2.304 2.29,2.304 h 0.091 z m -5.747,-4.069 c 0.616,0 0.812,0.154 0.812,0.651 v 0.042 c 0,0.469 -0.196,0.623 -0.701,0.623 h -1.324 v -1.316 z m -1.212,2.213 h 1.205 c 0.645,0 0.82,0.119 0.82,0.672 v 1.114 h 1.085 v -1.184 c 0,-0.854 -0.231,-1.03 -0.75,-1.114 v -0.049 c 0.525,-0.084 0.75,-0.406 0.75,-1.135 v -0.126 c 0,-0.953 -0.448,-1.296 -1.667,-1.296 h -2.528 v 4.903 h 1.085 z m -3.927,-2.178 h 1.513 v -0.938 h -4.097 v 0.938 h 1.492 v 3.964 h 1.093 v -3.964 z"
   id="path80"
   style="fill-opacity:1;fill:#0c1218;stroke:none" /><path
   class="st0"
   d="m 206.30383,162.29495 h -1.093 v 1.975 h -2.262 v -1.975 h -1.085 v 4.903 h 1.085 v -1.989 h 2.262 v 1.989 h 1.093 z m -7.281,0.939 h 1.513 v -0.938 h -4.097 v 0.938 h 1.492 v 3.964 h 1.093 v -3.964 z m -6.098,3.089 c -0.973,0 -1.176,-0.539 -1.176,-1.429 v -0.294 c 0,-0.889 0.203,-1.429 1.176,-1.429 h 0.119 c 0.967,0 1.17,0.54 1.17,1.429 v 0.294 c 0,0.903 -0.203,1.415 -1.17,1.429 z m 0.106,0.945 c 1.576,0 2.283,-0.686 2.283,-2.304 v -0.427 c 0,-1.618 -0.708,-2.311 -2.283,-2.311 h -0.091 c -1.59,0 -2.29,0.693 -2.29,2.311 v 0.427 c 0,1.618 0.7,2.304 2.29,2.304 z m -6.217,-0.945 c -0.973,0 -1.176,-0.539 -1.176,-1.429 v -0.294 c 0,-0.889 0.203,-1.429 1.176,-1.429 h 0.119 c 0.967,0 1.17,0.54 1.17,1.429 v 0.294 c 0,0.903 -0.203,1.415 -1.17,1.429 z m 0.106,0.945 c 1.576,0 2.283,-0.686 2.283,-2.304 v -0.427 c 0,-1.618 -0.708,-2.311 -2.283,-2.311 h -0.091 c -1.59,0 -2.29,0.693 -2.29,2.311 v 0.427 c 0,1.618 0.7,2.304 2.29,2.304 z m -3.904,-4.973 h -1.751 l -1.177,3.306 h -0.049 l -1.156,-3.306 h -1.856 v 4.903 h 1.064 v -3.887 h 0.042 l 1.394,3.887 h 0.966 l 1.408,-3.887 h 0.042 v 3.887 h 1.072 v -4.903 z m -9.473,4.973 c 1.239,0 2.045,-0.427 2.045,-1.583 v -0.063 c 0,-0.89 -0.518,-1.296 -1.604,-1.345 l -0.665,-0.021 c -0.638,-0.028 -0.799,-0.182 -0.799,-0.54 v -0.035 c 0,-0.413 0.266,-0.574 0.875,-0.574 0.533,0 0.89,0.119 0.995,0.588 h 1.142 c -0.084,-0.987 -0.91,-1.471 -2.073,-1.471 h -0.084 c -1.31,0 -1.961,0.518 -1.961,1.548 v 0.049 c 0,0.875 0.532,1.289 1.604,1.338 l 0.672,0.028 c 0.623,0.028 0.798,0.182 0.798,0.54 v 0.063 c 0,0.441 -0.329,0.595 -0.98,0.595 -0.462,0 -0.938,-0.063 -1.037,-0.539 h -1.142 c 0.112,1.037 0.945,1.421 2.15,1.421 h 0.064 z"
   id="path82"
   style="fill:#0c1218;fill-opacity:1;stroke:none" /><path
   class="st0"
   d="m 205.605,294.837 h -1.156 l -1.317,3.705 h -0.042 l -1.303,-3.705 h -1.226 l 1.793,4.903 h 1.457 z m -7.848,0.911 0.693,1.961 h -1.436 l 0.693,-1.961 z m 0.812,-0.911 h -1.639 l -1.793,4.903 h 1.163 l 0.399,-1.121 h 2.066 l 0.399,1.121 h 1.205 z m -3.89,0 h -1.093 l -0.784,3.733 h -0.049 l -1.001,-3.733 h -1.198 l -1.008,3.733 h -0.042 l -0.792,-3.733 h -1.163 l 1.163,4.903 h 1.478 l 0.932,-3.348 0.917,3.348 h 1.478 z"
   id="path86"
   style="fill-opacity:1;fill:#0c1218;stroke:none" />
<path
   class="st0"
   d="m 65.730067,319.13551 h -8.022951 c -0.02464,0 -0.04467,0.112 -0.04467,0.25 0,0.138 0.02002,0.25 0.04467,0.25 h 8.022951 c 0.02464,0 0.04467,-0.112 0.04467,-0.25 0,-0.138 -0.02003,-0.25 -0.04467,-0.25"
   id="path16-2"
   style="fill:#000000;fill-opacity:0.95274;stroke:none;stroke-width:1" /><path
   class="st0"
   d="m 102.41662,319.13551 h -7.361775 c -0.02261,0 -0.04099,0.112 -0.04099,0.25 0,0.138 0.01837,0.25 0.04099,0.25 h 7.361775 c 0.0227,0 0.041,-0.112 0.041,-0.25 0,-0.138 -0.0183,-0.25 -0.041,-0.25"
   id="path16-2-6"
   style="fill:#000000;fill-opacity:0.95274;stroke:none;stroke-width:0.999995" /><g
   id="g41307"
   transform="translate(-12.576495,-16.22275)"><path
     class="st0"
     d="M 101.70187,331.06326 H 83.910871 c -2.372,0 -4.295,1.923 -4.295,4.295 v 0 c 0,2.372 1.923,4.295 4.295,4.295 h 17.790999 c 2.372,0 4.295,-1.923 4.295,-4.295 v 0 c 0,-2.372 -1.923,-4.295 -4.295,-4.295 z"
     id="path36-3"
     style="fill:#0c1218;fill-opacity:1;stroke:none"
     sodipodi:nodetypes="sssssssss" /><g
     aria-label="1V/OCT"
     id="text29687"
     style="font-size:8px;line-height:1.25;font-family:'Pilat Condensed';-inkscape-font-specification:'Pilat Condensed, ';letter-spacing:0px;word-spacing:0px;stroke-width:0.899688"
     transform="matrix(0.83362267,0,0,0.83362267,14.70313,55.719838)"><path
       d="m 86.087408,332.62702 h -1.16 l -0.872,0.432 v 1.032 l 1.008,-0.568 h 0.04 v 4.704 h 0.984 z"
       style="fill:#ffffff;stroke-width:0.899688"
       id="path39468" /><path
       d="m 90.351401,332.62702 h -1.064 l -0.816,4.432 h -0.04 l -0.816,-4.432 h -1.096 l 1.192,5.6 h 1.448 z"
       style="fill:#ffffff;stroke-width:0.899688"
       id="path39470" /><path
       d="m 90.127379,339.02702 2.392,-6.4 h -0.608 l -2.392,6.4 z"
       style="fill:#ffffff;stroke-width:0.899688"
       id="path39472" /><path
       d="m 94.423349,338.30702 c 1.184,0 1.656,-0.464 1.656,-2.08 v -1.592 c 0,-1.624 -0.472,-2.088 -1.656,-2.088 h -0.088 c -1.176,0 -1.656,0.464 -1.656,2.088 v 1.592 c 0,1.616 0.48,2.08 1.656,2.08 z m -0.072,-0.872 c -0.264,0 -0.432,-0.08 -0.52,-0.248 -0.08,-0.168 -0.12,-0.464 -0.12,-0.888 v -1.736 c 0,-0.432 0.04,-0.728 0.12,-0.888 0.088,-0.168 0.256,-0.248 0.52,-0.248 h 0.056 c 0.264,0 0.432,0.08 0.512,0.248 0.088,0.16 0.128,0.456 0.128,0.888 v 1.736 c 0,0.424 -0.04,0.72 -0.128,0.888 -0.08,0.168 -0.248,0.248 -0.512,0.248 z"
       style="fill:#ffffff;stroke-width:0.899688"
       id="path39474" /><path
       d="m 98.367334,338.30702 c 1.088,0 1.528,-0.424 1.608,-1.88 h -1.032 c -0.048,0.832 -0.216,1.008 -0.608,1.008 h -0.048 c -0.264,0 -0.432,-0.08 -0.512,-0.248 -0.08,-0.168 -0.12,-0.464 -0.12,-0.888 v -1.736 c 0,-0.864 0.112,-1.136 0.632,-1.136 h 0.048 c 0.392,0 0.56,0.168 0.608,1 h 1.032 c -0.08,-1.456 -0.52,-1.88 -1.608,-1.88 h -0.12 c -1.176,0 -1.624,0.48 -1.624,2.08 v 1.6 c 0,1.6 0.448,2.08 1.624,2.08 z"
       style="fill:#ffffff;stroke-width:0.899688"
       id="path39476" /><path
       d="m 102.28731,333.53902 h 1.04 v -0.912 h -3.088 v 0.912 h 1.016 v 4.688 h 1.032 z"
       style="fill:#ffffff;stroke-width:0.899688"
       id="path39478" /></g></g><g
   aria-label="CLOCK"
   id="text5209"
   style="font-size:7px;line-height:1.25;font-family:Pilat;-inkscape-font-specification:Pilat;letter-spacing:0px;word-spacing:0px;fill:#0c1218;stroke-width:0.75"><path
     d="m 179.43966,98.23465 c 1.344,0 1.939,-0.532 2.163,-1.645 h -1.113 c -0.14,0.504 -0.476,0.7 -1.085,0.7 h -0.091 c -0.973,0 -1.148,-0.539 -1.148,-1.428 v -0.294 c 0,-0.889 0.175,-1.428 1.148,-1.428 h 0.091 c 0.609,0 0.945,0.196 1.085,0.7 h 1.113 c -0.224,-1.113 -0.819,-1.645 -2.163,-1.645 h -0.161 c -1.582,0 -2.212,0.686 -2.212,2.303 v 0.434 c 0,1.617 0.63,2.303 2.212,2.303 z"
     id="path7097" /><path
     d="m 185.64165,97.22665 h -2.324 v -3.962 h -1.085 v 4.9 h 3.409 z"
     id="path7099" /><path
     d="m 188.29464,98.23465 c 1.575,0 2.282,-0.686 2.282,-2.303 v -0.427 c 0,-1.617 -0.707,-2.31 -2.282,-2.31 h -0.091 c -1.589,0 -2.289,0.693 -2.289,2.31 v 0.427 c 0,1.617 0.7,2.303 2.289,2.303 z m -0.105,-0.945 c -0.973,0 -1.176,-0.539 -1.176,-1.428 v -0.294 c 0,-0.889 0.203,-1.428 1.176,-1.428 h 0.119 c 0.966,0 1.169,0.539 1.169,1.428 v 0.294 c 0,0.903 -0.203,1.414 -1.169,1.428 z"
     id="path7101" /><path
     d="m 193.55863,98.23465 c 1.344,0 1.939,-0.532 2.163,-1.645 h -1.113 c -0.14,0.504 -0.476,0.7 -1.085,0.7 h -0.091 c -0.973,0 -1.148,-0.539 -1.148,-1.428 v -0.294 c 0,-0.889 0.175,-1.428 1.148,-1.428 h 0.091 c 0.609,0 0.945,0.196 1.085,0.7 h 1.113 c -0.224,-1.113 -0.819,-1.645 -2.163,-1.645 h -0.161 c -1.582,0 -2.212,0.686 -2.212,2.303 v 0.434 c 0,1.617 0.63,2.303 2.212,2.303 z"
     id="path7103" /><path
     d="m 197.43663,96.68765 0.672,-0.679 h 0.049 l 1.463,2.156 h 1.323 l -2.009,-2.947 1.953,-1.953 h -1.358 l -2.051,2.086 h -0.042 v -2.086 h -1.085 v 4.9 h 1.085 z"
     id="path7105" /></g></svg>
