<?xml version="1.0" encoding="UTF-8" standalone="no"?>
<!-- Generator: Adobe Illustrator 26.1.0, SVG Export Plug-In . SVG Version: 6.00 Build 0)  -->

<svg
   version="1.1"
   id="Ebene_2"
   x="0px"
   y="0px"
   width="30.48mm"
   height="128.5mm"
   viewBox="0 0 86.4 364.252"
   style="enable-background:new 0 0 86.4 364.252;"
   xml:space="preserve"
   sodipodi:docname="typography.svg"
   inkscape:version="1.2.1 (9c6d41e410, 2022-07-14)"
   xmlns:inkscape="http://www.inkscape.org/namespaces/inkscape"
   xmlns:sodipodi="http://sodipodi.sourceforge.net/DTD/sodipodi-0.dtd"
   xmlns="http://www.w3.org/2000/svg"
   xmlns:svg="http://www.w3.org/2000/svg"><defs
   id="defs95"><rect
     x="19.879332"
     y="-22.435991"
     width="112.49302"
     height="36.523707"
     id="rect685" /><rect
     x="-36.732413"
     y="10.383168"
     width="117.71069"
     height="41.532672"
     id="rect448" /><rect
     x="14.388861"
     y="141.2322"
     width="41.912169"
     height="34.385688"
     id="rect2241" /><rect
     x="6.4672466"
     y="325.13561"
     width="83.865584"
     height="46.731072"
     id="rect1463" /><rect
     x="125.58976"
     y="98.677665"
     width="166.47944"
     height="105.14491"
     id="rect2657" /><rect
     x="25.451745"
     y="15.750875"
     width="101.70267"
     height="39.533652"
     id="rect384" /><rect
     x="125.58976"
     y="98.677666"
     width="166.47945"
     height="105.14491"
     id="rect2657-5" /><rect
     x="125.58976"
     y="98.677666"
     width="166.47945"
     height="105.14491"
     id="rect2657-5-5" /><rect
     x="125.58976"
     y="98.677666"
     width="166.47945"
     height="105.14491"
     id="rect2657-5-58" /><rect
     x="125.58976"
     y="98.677666"
     width="166.47945"
     height="105.14491"
     id="rect2657-5-2" /><rect
     x="125.58976"
     y="98.677666"
     width="166.47945"
     height="105.14491"
     id="rect2657-5-2-9" /><rect
     x="125.58976"
     y="98.677666"
     width="166.47945"
     height="105.14491"
     id="rect2657-5-2-3" /><rect
     x="125.58976"
     y="98.677666"
     width="166.47945"
     height="105.14491"
     id="rect2657-5-2-3-1" /><rect
     x="125.58976"
     y="98.677666"
     width="166.47945"
     height="105.14491"
     id="rect2657-5-2-3-2" /><rect
     x="125.58976"
     y="98.677666"
     width="166.47945"
     height="105.14491"
     id="rect2657-5-4" /><rect
     x="14.388861"
     y="141.23219"
     width="41.91217"
     height="34.385689"
     id="rect2241-5" /><rect
     x="-36.732414"
     y="10.383168"
     width="117.71069"
     height="41.532673"
     id="rect448-2" /></defs><sodipodi:namedview
   id="namedview93"
   pagecolor="#ffffff"
   bordercolor="#666666"
   borderopacity="1.0"
   inkscape:pageshadow="2"
   inkscape:pageopacity="0.0"
   inkscape:pagecheckerboard="0"
   showgrid="false"
   inkscape:zoom="13.55215"
   inkscape:cx="91.719766"
   inkscape:cy="39.993655"
   inkscape:window-width="3840"
   inkscape:window-height="2066"
   inkscape:window-x="2869"
   inkscape:window-y="-11"
   inkscape:window-maximized="1"
   inkscape:current-layer="Ebene_2"
   inkscape:showpageshadow="2"
   inkscape:deskcolor="#d1d1d1"
   inkscape:document-units="mm"
   showguides="true"><sodipodi:guide
     position="80.471369,366.73129"
     orientation="1,0"
     id="guide1332"
     inkscape:locked="false" /><sodipodi:guide
     position="8.7130087,168.31554"
     orientation="1,0"
     id="guide1356"
     inkscape:locked="false" /></sodipodi:namedview>
<style
   type="text/css"
   id="style2">
	.st0{fill:#F3EDE7;}
	.st1{opacity:0.3;fill:#FBFAF8;}
</style>
<path
   class="st0"
   d="m 79.570579,5.167 v 8.018 H 26.463026 V 5.167 h 53.107553 m 0,-0.5 H 26.463026 c -0.276,0 -0.5,0.224 -0.5,0.5 v 8.018 c 0,0.276 0.224,0.5 0.5,0.5 h 53.107553 c 0.276,0 0.5,-0.224 0.5,-0.5 V 5.167 c 0,-0.276 -0.224,-0.5 -0.5,-0.5 z"
   id="path4"
   style="fill:#f4eee9;fill-opacity:1;stroke:none"
   sodipodi:nodetypes="cccccsssssssss" /><path
   class="st0"
   d="m 22.211026,4.265 -6.214,-0.495 c -0.115,-0.009 -0.216,0.074 -0.229,0.189 l -0.252,2.174 1.058,0.32 -1.834,2.955 -1.834,-2.955 1.058,-0.32 -0.254,-2.176 c -0.013,-0.115 -0.115,-0.198 -0.229,-0.189 L 7.2510264,4.265 c -0.196,0.016 -0.363,0.149 -0.424,0.336 l -1.043,3.223 c -0.053,0.163 -0.017,0.342 0.095,0.471 l 5.4919996,6.364 c 0.092,0.107 0.227,0.169 0.368,0.169 h 5.986 c 0.141,0 0.276,-0.062 0.368,-0.169 l 5.494,-6.364 c 0.112,-0.13 0.148,-0.308 0.095,-0.471 l -1.046,-3.222 c -0.061,-0.189 -0.229,-0.321 -0.425,-0.337 z m -5.457,8.608 h -4.045 c -0.15,0 -0.293,-0.07 -0.385,-0.189 L 8.4970264,7.73 c -0.083,-0.107 -0.118,-0.244 -0.096,-0.378 l 0.158,-0.97 c 0.023,-0.141 0.16,-0.232 0.298,-0.198 L 9.810026,6.418 c 0.131,0.032 0.243,0.118 0.309,0.236 l 2.789,5.011 0.213,0.125 h 3.237 l 0.213,-0.126 2.772,-5.009 c 0.066,-0.119 0.179,-0.205 0.311,-0.238 l 0.952,-0.232 c 0.138,-0.034 0.275,0.057 0.298,0.198 l 0.159,0.967 c 0.022,0.134 -0.013,0.272 -0.096,0.379 l -3.829,4.953 c -0.091,0.121 -0.233,0.191 -0.384,0.191 z"
   id="path28"
   style="fill:#f4eee9;fill-opacity:1;stroke:none" /><path
   class="st0"
   d="m 6.332,18.941 h 73.735 c 0.138,0 0.25,-0.112 0.25,-0.25 0,-0.138 -0.112,-0.25 -0.25,-0.25 H 6.332 c -0.138,0 -0.25,0.112 -0.25,0.25 0,0.138 0.112,0.25 0.25,0.25"
   id="path30"
   style="stroke:none;fill-opacity:1;fill:#f4eee9" /><g
   id="g2737"
   transform="translate(18.568915,-51.397335)"><path
     class="st0"
     d="m 34.272,122.344 c -2.793,-2.793 -4.188,-6.45 -4.188,-10.111 0,-3.66 1.395,-7.318 4.188,-10.111 0.117,-0.117 0.117,-0.307 0,-0.424 -0.117,-0.117 -0.307,-0.117 -0.424,0 -2.909,2.908 -4.364,6.723 -4.364,10.535 0,3.812 1.455,7.626 4.364,10.535 0.117,0.117 0.307,0.117 0.424,0 0.118,-0.117 0.118,-0.307 0,-0.424 z"
     id="path52"
     style="fill:#f4eee9;fill-opacity:1;stroke:none" /><path
     class="st0"
     d="m 54.493,102.123 c 2.793,2.793 4.188,6.45 4.188,10.111 0,3.66 -1.395,7.318 -4.188,10.111 -0.117,0.117 -0.117,0.307 0,0.424 0.117,0.117 0.307,0.117 0.424,0 2.909,-2.908 4.364,-6.723 4.364,-10.535 0,-3.812 -1.455,-7.626 -4.364,-10.535 -0.117,-0.117 -0.307,-0.117 -0.424,0 -0.117,0.117 -0.117,0.307 0,0.424 z"
     id="path54"
     style="fill:#f4eee9;fill-opacity:1;stroke:none" /></g><g
   id="g2733"
   transform="translate(-14.052834,3.8400002)"><path
     class="st0"
     d="m 28.558,67.107 c -2.793,-2.793 -4.188,-6.45 -4.188,-10.111 0,-3.66 1.395,-7.318 4.188,-10.111 0.117,-0.117 0.117,-0.307 0,-0.424 -0.117,-0.117 -0.307,-0.117 -0.424,0 -2.909,2.908 -4.364,6.723 -4.364,10.535 0,3.812 1.455,7.626 4.364,10.535 0.117,0.117 0.307,0.117 0.424,0 0.117,-0.117 0.117,-0.306 0,-0.424 z"
     id="path68"
     style="fill:#f4eee9;fill-opacity:1;stroke:none" /><path
     class="st0"
     d="m 48.779,46.886 c 2.793,2.793 4.188,6.45 4.188,10.111 0,3.66 -1.395,7.318 -4.188,10.111 -0.117,0.117 -0.117,0.307 0,0.424 0.117,0.117 0.307,0.117 0.424,0 2.909,-2.908 4.364,-6.723 4.364,-10.535 0,-3.812 -1.455,-7.626 -4.364,-10.535 -0.117,-0.117 -0.307,-0.117 -0.424,0 -0.117,0.117 -0.117,0.307 0,0.424 z"
     id="path70"
     style="fill:#f4eee9;fill-opacity:1;stroke:none" /></g>
<g
   aria-label="CLOCK"
   transform="matrix(0.96000004,0,0,0.96000004,-109.91808,-58.700679)"
   id="text2655"
   style="font-size:7.29167px;line-height:1.25;font-family:Pilat;-inkscape-font-specification:Pilat;letter-spacing:0.9px;word-spacing:0px;white-space:pre;shape-inside:url(#rect2657);display:inline;fill:#f4eee9"><path
     d="m 128.37526,105.13086 c 1.4,0 2.01979,-0.55416 2.25313,-1.71354 h -1.15938 c -0.14583,0.525 -0.49583,0.72917 -1.13021,0.72917 h -0.0948 c -1.01354,0 -1.19583,-0.56146 -1.19583,-1.4875 v -0.30625 c 0,-0.92605 0.18229,-1.4875 1.19583,-1.4875 h 0.0948 c 0.63438,0 0.98438,0.20416 1.13021,0.72916 h 1.15938 c -0.23334,-1.15937 -0.85313,-1.71354 -2.25313,-1.71354 h -0.16771 c -1.64791,0 -2.30416,0.71458 -2.30416,2.39896 v 0.45208 c 0,1.68438 0.65625,2.39896 2.30416,2.39896 z"
     id="path3276" /><path
     d="m 135.73568,104.08086 h -2.42083 v -4.127083 h -1.13021 v 5.104173 h 3.55104 z"
     id="path3278" /><path
     d="m 139.39922,105.13086 c 1.64063,0 2.37709,-0.71458 2.37709,-2.39896 v -0.44479 c 0,-1.68437 -0.73646,-2.40625 -2.37709,-2.40625 h -0.0948 c -1.65521,0 -2.38437,0.72188 -2.38437,2.40625 v 0.44479 c 0,1.68438 0.72916,2.39896 2.38437,2.39896 z m -0.10937,-0.98437 c -1.01354,0 -1.225,-0.56146 -1.225,-1.4875 v -0.30625 c 0,-0.92605 0.21146,-1.4875 1.225,-1.4875 h 0.12396 c 1.00625,0 1.21771,0.56145 1.21771,1.4875 v 0.30625 c 0,0.94062 -0.21146,1.47291 -1.21771,1.4875 z"
     id="path3280" /><path
     d="m 145.78256,105.13086 c 1.4,0 2.01979,-0.55416 2.25313,-1.71354 h -1.15938 c -0.14583,0.525 -0.49583,0.72917 -1.13021,0.72917 h -0.0948 c -1.01354,0 -1.19583,-0.56146 -1.19583,-1.4875 v -0.30625 c 0,-0.92605 0.18229,-1.4875 1.19583,-1.4875 h 0.0948 c 0.63438,0 0.98438,0.20416 1.13021,0.72916 h 1.15938 c -0.23334,-1.15937 -0.85313,-1.71354 -2.25313,-1.71354 h -0.16771 c -1.64792,0 -2.30417,0.71458 -2.30417,2.39896 v 0.45208 c 0,1.68438 0.65625,2.39896 2.30417,2.39896 z"
     id="path3282" /><path
     d="m 150.72215,103.5194 0.7,-0.70729 h 0.051 l 1.52396,2.24584 h 1.37812 l -2.09271,-3.0698 2.03438,-2.034373 h -1.41458 l -2.13646,2.172913 h -0.0437 v -2.172913 h -1.13021 v 5.104173 h 1.13021 z"
     id="path3284" /></g><g
   aria-label="RESET"
   transform="matrix(0.96000004,0,0,0.96000004,-70.763347,-58.700708)"
   id="text2655-8"
   style="font-size:7.29167px;line-height:1.25;font-family:Pilat;-inkscape-font-specification:Pilat;letter-spacing:0.9px;word-spacing:0px;white-space:pre;shape-inside:url(#rect2657-5);display:inline;fill:#f4eee9"><path
     d="m 127.12109,103.19857 h 1.25417 c 0.67084,0 0.85313,0.12396 0.85313,0.7 v 1.15938 h 1.13021 v -1.2323 c 0,-0.88958 -0.24063,-1.07187 -0.78021,-1.15937 v -0.051 c 0.54687,-0.0875 0.78021,-0.42292 0.78021,-1.18125 v -0.13125 c 0,-0.99167 -0.46667,-1.348963 -1.73542,-1.348963 h -2.63229 v 5.104173 h 1.1302 z m 1.26146,-2.30417 c 0.64167,0 0.84584,0.16042 0.84584,0.67813 v 0.0438 c 0,0.48854 -0.20417,0.64896 -0.72917,0.64896 h -1.37813 v -1.37084 z"
     id="path3265" /><path
     d="m 135.80131,104.11003 h -2.66875 v -1.1375 h 2.66875 v -0.94063 h -2.66875 v -1.13021 h 2.66875 v -0.947913 h -3.79896 v 5.104173 h 3.79896 z"
     id="path3267" /><path
     d="m 139.54506,105.13086 c 1.29062,0 2.12917,-0.44479 2.12917,-1.64792 v -0.0656 c 0,-0.92604 -0.53959,-1.34896 -1.6698,-1.4 l -0.6927,-0.0219 c -0.66355,-0.0292 -0.83125,-0.18958 -0.83125,-0.56145 v -0.0365 c 0,-0.43021 0.27708,-0.59792 0.91145,-0.59792 0.55417,0 0.92605,0.12396 1.03542,0.6125 h 1.18854 c -0.0875,-1.02812 -0.94791,-1.53125 -2.15833,-1.53125 h -0.0875 c -1.36354,0 -2.04167,0.53958 -2.04167,1.61146 v 0.051 c 0,0.91146 0.55417,1.34167 1.66979,1.39271 l 0.7,0.0292 c 0.64896,0.0292 0.83125,0.18958 0.83125,0.56145 v 0.0656 c 0,0.45938 -0.3427,0.61979 -1.02083,0.61979 -0.48125,0 -0.97708,-0.0656 -1.07917,-0.56146 h -1.18854 c 0.11667,1.07917 0.98438,1.48021 2.23854,1.48021 z"
     id="path3269" /><path
     d="m 147.00027,104.11003 h -2.66875 v -1.1375 h 2.66875 v -0.94063 h -2.66875 v -1.13021 h 2.66875 v -0.947913 h -3.79896 v 5.104173 h 3.79896 z"
     id="path3271" /><path
     d="m 151.00652,100.93086 h 1.575 v -0.977083 h -4.26563 v 0.977083 h 1.55313 v 4.12709 h 1.1375 z"
     id="path3273" /></g><g
   aria-label="DRUM RANDOMIZER"
   transform="matrix(0.96000004,0,0,0.96000004,9.0030463,27.549312)"
   id="text683"
   style="font-size:6.25px;line-height:1.25;font-family:Pilat;-inkscape-font-specification:Pilat;letter-spacing:0.6px;word-spacing:0px;white-space:pre;shape-inside:url(#rect685)"><path
     d="m 22.716406,-19.710547 c 0,-1.25625 -0.3875,-1.63125 -1.30625,-1.63125 h -1.275 v 4.375 h 1.275 c 0.91875,0 1.30625,-0.375 1.30625,-1.625 z m -1.31875,-0.95625 c 0.4,0 0.5125,0.225 0.5125,0.9 v 1.23125 c 0,0.66875 -0.11875,0.89375 -0.5125,0.89375 h -0.4625 v -3.025 z"
     style="font-family:'Pilat Condensed';-inkscape-font-specification:'Pilat Condensed, ';fill:#f4eee9"
     id="path2889" /><path
     d="m 24.597655,-18.729297 h 0.46875 c 0.3375,0 0.45625,0.0625 0.45625,0.6 v 1.1625 h 0.8 v -1.1125 c 0,-0.7875 -0.16875,-0.925 -0.50625,-1 v -0.03125 c 0.3375,-0.0875 0.50625,-0.28125 0.50625,-0.9875 v -0.08125 c 0,-0.975 -0.35,-1.1625 -1.18125,-1.1625 h -1.34375 v 4.375 h 0.8 z m 0.4625,-1.9375 c 0.33125,0 0.4625,0.0625 0.4625,0.5875 v 0.125 c 0,0.51875 -0.125,0.58125 -0.43125,0.58125 h -0.49375 v -1.29375 z"
     style="font-family:'Pilat Condensed';-inkscape-font-specification:'Pilat Condensed, ';fill:#f4eee9"
     id="path2891" /><path
     d="m 28.68516,-16.904297 c 0.9,0 1.2375,-0.30625 1.2375,-1.55 v -2.8875 h -0.80625 v 2.89375 c 0,0.65625 -0.1,0.80625 -0.44375,0.80625 h -0.05 c -0.34375,0 -0.44375,-0.15 -0.44375,-0.80625 v -2.89375 h -0.80625 v 2.8875 c 0,1.24375 0.3375,1.55 1.2375,1.55 z"
     style="font-family:'Pilat Condensed';-inkscape-font-specification:'Pilat Condensed, ';fill:#f4eee9"
     id="path2893" /><path
     d="m 34.728911,-21.341797 h -1.24375 l -0.575,2.7625 h -0.0375 l -0.56875,-2.7625 h -1.30625 v 4.375 h 0.76875 v -3.43125 h 0.03125 l 0.7375,3.43125 h 0.65625 l 0.73125,-3.43125 h 0.0375 v 3.43125 h 0.76875 z"
     style="font-family:'Pilat Condensed';-inkscape-font-specification:'Pilat Condensed, ';fill:#f4eee9"
     id="path2895" /><path
     d="m 38.153916,-18.729297 h 0.46875 c 0.3375,0 0.45625,0.0625 0.45625,0.6 v 1.1625 h 0.8 v -1.1125 c 0,-0.7875 -0.16875,-0.925 -0.50625,-1 v -0.03125 c 0.3375,-0.0875 0.50625,-0.28125 0.50625,-0.9875 v -0.08125 c 0,-0.975 -0.35,-1.1625 -1.18125,-1.1625 h -1.34375 v 4.375 h 0.8 z m 0.4625,-1.9375 c 0.33125,0 0.4625,0.0625 0.4625,0.5875 v 0.125 c 0,0.51875 -0.125,0.58125 -0.43125,0.58125 h -0.49375 v -1.29375 z"
     style="font-family:'Pilat Condensed';-inkscape-font-specification:'Pilat Condensed, ';fill:#f4eee9"
     id="path2897" /><path
     d="m 42.891422,-21.341797 h -1.18125 l -0.93125,4.375 h 0.83125 l 0.175,-0.9375 h 1.00625 l 0.18125,0.9375 h 0.85 z m -0.5875,0.8375 0.35,1.90625 h -0.73125 l 0.35,-1.90625 z"
     style="font-family:'Pilat Condensed';-inkscape-font-specification:'Pilat Condensed, ';fill:#f4eee9"
     id="path2899" /><path
     d="m 47.541419,-21.341797 h -0.7375 v 2.95625 h -0.03125 l -0.9625,-2.95625 h -1.05625 v 4.375 h 0.7375 v -2.95625 h 0.03125 l 0.9625,2.95625 h 1.05625 z"
     style="font-family:'Pilat Condensed';-inkscape-font-specification:'Pilat Condensed, ';fill:#f4eee9"
     id="path2901" /><path
     d="m 51.235169,-19.710547 c 0,-1.25625 -0.3875,-1.63125 -1.30625,-1.63125 h -1.275 v 4.375 h 1.275 c 0.91875,0 1.30625,-0.375 1.30625,-1.625 z m -1.31875,-0.95625 c 0.4,0 0.5125,0.225 0.5125,0.9 v 1.23125 c 0,0.66875 -0.11875,0.89375 -0.5125,0.89375 h -0.4625 v -3.025 z"
     style="font-family:'Pilat Condensed';-inkscape-font-specification:'Pilat Condensed, ';fill:#f4eee9"
     id="path2903" /><path
     d="m 53.635169,-16.904297 c 0.925,0 1.29375,-0.3625 1.29375,-1.625 v -1.24375 c 0,-1.26875 -0.36875,-1.63125 -1.29375,-1.63125 h -0.06875 c -0.91875,0 -1.29375,0.3625 -1.29375,1.63125 v 1.24375 c 0,1.2625 0.375,1.625 1.29375,1.625 z m -0.05625,-0.68125 c -0.20625,0 -0.3375,-0.0625 -0.40625,-0.19375 -0.0625,-0.13125 -0.09375,-0.3625 -0.09375,-0.69375 v -1.35625 c 0,-0.3375 0.03125,-0.56875 0.09375,-0.69375 0.06875,-0.13125 0.2,-0.19375 0.40625,-0.19375 h 0.04375 c 0.20625,0 0.3375,0.0625 0.4,0.19375 0.06875,0.125 0.1,0.35625 0.1,0.69375 v 1.35625 c 0,0.33125 -0.03125,0.5625 -0.1,0.69375 -0.0625,0.13125 -0.19375,0.19375 -0.4,0.19375 z"
     style="font-family:'Pilat Condensed';-inkscape-font-specification:'Pilat Condensed, ';fill:#f4eee9"
     id="path2905" /><path
     d="m 59.728917,-21.341797 h -1.24375 l -0.575,2.7625 h -0.0375 l -0.56875,-2.7625 h -1.30625 v 4.375 h 0.76875 v -3.43125 h 0.03125 l 0.7375,3.43125 h 0.65625 l 0.73125,-3.43125 h 0.0375 v 3.43125 h 0.76875 z"
     style="font-family:'Pilat Condensed';-inkscape-font-specification:'Pilat Condensed, ';fill:#f4eee9"
     id="path2907" /><path
     d="m 61.641425,-21.341797 h -0.8 v 4.375 h 0.8 z"
     style="font-family:'Pilat Condensed';-inkscape-font-specification:'Pilat Condensed, ';fill:#f4eee9"
     id="path2909" /><path
     d="m 64.978915,-17.666797 h -1.425 l 1.375,-2.98125 v -0.69375 h -2.21875 v 0.70625 h 1.3125 l -1.375,2.98125 v 0.6875 h 2.33125 z"
     style="font-family:'Pilat Condensed';-inkscape-font-specification:'Pilat Condensed, ';fill:#f4eee9"
     id="path2911" /><path
     d="m 67.98517,-17.666797 h -1.23125 v -1.1375 h 1.23125 v -0.70625 h -1.23125 v -1.13125 h 1.23125 v -0.7 h -2.03125 v 4.375 h 2.03125 z"
     style="font-family:'Pilat Condensed';-inkscape-font-specification:'Pilat Condensed, ';fill:#f4eee9"
     id="path2913" /><path
     d="m 69.835165,-18.729297 h 0.46875 c 0.3375,0 0.45625,0.0625 0.45625,0.6 v 1.1625 h 0.8 v -1.1125 c 0,-0.7875 -0.16875,-0.925 -0.50625,-1 v -0.03125 c 0.3375,-0.0875 0.50625,-0.28125 0.50625,-0.9875 v -0.08125 c 0,-0.975 -0.35,-1.1625 -1.18125,-1.1625 h -1.34375 v 4.375 h 0.8 z m 0.4625,-1.9375 c 0.33125,0 0.4625,0.0625 0.4625,0.5875 v 0.125 c 0,0.51875 -0.125,0.58125 -0.43125,0.58125 h -0.49375 v -1.29375 z"
     style="font-family:'Pilat Condensed';-inkscape-font-specification:'Pilat Condensed, ';fill:#f4eee9"
     id="path2915" /></g></svg>
