<?xml version="1.0" encoding="UTF-8" standalone="no"?>
<!-- Generator: Adobe Illustrator 26.0.3, SVG Export Plug-In . SVG Version: 6.00 Build 0)  -->

<svg
   version="1.1"
   id="Ebene_1"
   x="0px"
   y="0px"
   viewBox="0 0 144 364.252"
   style="enable-background:new 0 0 144 364.252;"
   xml:space="preserve"
   width="50.8mm"
   height="128.6mm"
   sodipodi:docname="wav_bank_typography.svg"
   inkscape:version="1.1.1 (3bf5ae0d25, 2021-09-20)"
   xmlns:inkscape="http://www.inkscape.org/namespaces/inkscape"
   xmlns:sodipodi="http://sodipodi.sourceforge.net/DTD/sodipodi-0.dtd"
   xmlns="http://www.w3.org/2000/svg"
   xmlns:svg="http://www.w3.org/2000/svg"><defs
   id="defs121" /><sodipodi:namedview
   id="namedview119"
   pagecolor="#ffffff"
   bordercolor="#666666"
   borderopacity="1.0"
   inkscape:pageshadow="2"
   inkscape:pageopacity="0.0"
   inkscape:pagecheckerboard="0"
   inkscape:document-units="mm"
   showgrid="false"
   inkscape:zoom="5.0801991"
   inkscape:cx="222.62907"
   inkscape:cy="173.02472"
   inkscape:window-width="3840"
   inkscape:window-height="2066"
   inkscape:window-x="2869"
   inkscape:window-y="-11"
   inkscape:window-maximized="1"
   inkscape:current-layer="g116" />
<style
   type="text/css"
   id="style2">
	.st0{fill:#F3EDE7;}
	.st1{fill:#FFFFFF;}
	.st2{fill:#1C2729;}
</style>
<g
   id="g116"
   style="fill:#f3eee8;fill-opacity:1">
	<path
   class="st0"
   d="M66.796,13.3l-1.128-8.007c-0.022-0.168,0.068-0.202,0.169-0.202h0.35c0.124,0,0.191,0.034,0.203,0.18   l0.745,6.098h0.113l0.744-6.098c0.011-0.146,0.079-0.18,0.203-0.18h0.35c0.102,0,0.192,0.034,0.169,0.202L67.585,13.3   c-0.022,0.157-0.079,0.213-0.191,0.213h-0.406C66.875,13.513,66.819,13.457,66.796,13.3z"
   id="path4"
   style="fill:#f3eee8;fill-opacity:1" />
	<path
   class="st0"
   d="M70.351,6.73c0-1.033,0.462-1.696,1.331-1.696c0.88,0,1.342,0.663,1.342,1.696v5.144   c0,1.033-0.462,1.696-1.342,1.696c-0.868,0-1.331-0.663-1.331-1.696V6.73z M71.681,12.884c0.485,0,0.62-0.393,0.62-1.224V6.943   c0-0.831-0.135-1.224-0.62-1.224c-0.474,0-0.609,0.393-0.609,1.224v4.717C71.072,12.491,71.208,12.884,71.681,12.884z"
   id="path6"
   style="fill:#f3eee8;fill-opacity:1" />
	<path
   class="st0"
   d="M74.842,13.345l0.97-3.976V9.234l-0.97-3.976c-0.022-0.101,0.045-0.168,0.112-0.168h0.451   c0.079,0,0.146,0.067,0.169,0.168l0.598,2.695h0.091l0.598-2.695c0.022-0.101,0.09-0.168,0.169-0.168h0.439   c0.079,0,0.136,0.067,0.113,0.168l-0.959,3.976l-0.011,0.135l0.97,3.976c0.022,0.101-0.034,0.168-0.113,0.168h-0.439   c-0.079,0-0.158-0.067-0.181-0.168l-0.586-2.684h-0.091l-0.598,2.684c-0.022,0.101-0.09,0.168-0.169,0.168h-0.451   C74.887,13.513,74.819,13.446,74.842,13.345z"
   id="path8"
   style="fill:#f3eee8;fill-opacity:1" />
	<path
   class="st0"
   d="M79.287,6.73c0-1.033,0.462-1.696,1.33-1.696c0.88,0,1.319,0.674,1.319,1.696v0.887   c0,0.101-0.067,0.168-0.169,0.168h-0.361c-0.102,0-0.169-0.067-0.169-0.168V6.943c0-0.831-0.146-1.224-0.62-1.224   s-0.608,0.393-0.608,1.224v4.717c0,0.831,0.135,1.224,0.608,1.224s0.62-0.393,0.62-1.224v-1.516c0-0.101-0.067-0.168-0.169-0.168   h-0.282c-0.102,0-0.169-0.056-0.169-0.168V9.47c0-0.101,0.067-0.168,0.169-0.168h0.981c0.102,0,0.169,0.067,0.169,0.168v2.403   c0,1.022-0.439,1.696-1.319,1.696c-0.868,0-1.33-0.663-1.33-1.696V6.73z"
   id="path10"
   style="fill:#f3eee8;fill-opacity:1" />
	<path
   class="st0"
   d="M84.16,5.259c0-0.101,0.057-0.168,0.169-0.168h0.384c0.102,0,0.169,0.067,0.169,0.168v7.435   c0,0.101,0.067,0.168,0.169,0.168h0.925c0.102,0,0.169,0.067,0.169,0.168v0.314c0,0.101-0.067,0.168-0.169,0.168h-1.646   c-0.102,0-0.169-0.067-0.169-0.168V5.259z"
   id="path12"
   style="fill:#f3eee8;fill-opacity:1" />
	<path
   class="st0"
   d="M88.053,13.345V5.259c0-0.101,0.057-0.168,0.169-0.168h0.384c0.102,0,0.169,0.067,0.169,0.168v8.086   c0,0.101-0.057,0.168-0.169,0.168h-0.384C88.12,13.513,88.053,13.446,88.053,13.345z"
   id="path14"
   style="fill:#f3eee8;fill-opacity:1" />
	<path
   class="st0"
   d="M90.683,5.259c0-0.101,0.067-0.168,0.169-0.168h1.95c0.102,0,0.17,0.056,0.17,0.168v0.348   c0,0.101-0.068,0.168-0.17,0.168H92.34c-0.102,0-0.169,0.067-0.169,0.168v7.401c0,0.101-0.057,0.168-0.169,0.168H91.63   c-0.102,0-0.17-0.067-0.17-0.168V5.944c0-0.101-0.067-0.168-0.169-0.168h-0.439c-0.102,0-0.169-0.056-0.169-0.168V5.259z"
   id="path16"
   style="fill:#f3eee8;fill-opacity:1" />
	<path
   class="st0"
   d="M94.767,6.73c0-1.033,0.462-1.696,1.33-1.696c0.88,0,1.342,0.674,1.342,1.696v0.887   c0,0.101-0.067,0.168-0.169,0.168h-0.384c-0.101,0-0.169-0.067-0.169-0.168V6.943c0-0.831-0.146-1.224-0.62-1.224   s-0.608,0.393-0.608,1.224v4.717c0,0.831,0.135,1.224,0.608,1.224s0.62-0.393,0.62-1.224v-0.674c0-0.101,0.068-0.168,0.169-0.168   h0.384c0.102,0,0.169,0.067,0.169,0.168v0.887c0,1.022-0.462,1.696-1.342,1.696c-0.868,0-1.33-0.663-1.33-1.696V6.73z"
   id="path18"
   style="fill:#f3eee8;fill-opacity:1" />
	<path
   class="st0"
   d="M99.618,13.345V5.259c0-0.101,0.057-0.168,0.169-0.168h0.384c0.102,0,0.169,0.067,0.169,0.168V8.74   c0,0.101,0.067,0.168,0.169,0.168h1.015c0.102,0,0.181-0.067,0.181-0.168V5.259c0-0.101,0.057-0.168,0.169-0.168h0.373   c0.101,0,0.169,0.067,0.169,0.168v8.086c0,0.101-0.057,0.168-0.169,0.168h-0.373c-0.101,0-0.169-0.067-0.169-0.168V9.762   c0-0.101-0.079-0.168-0.181-0.168h-1.015c-0.102,0-0.169,0.067-0.169,0.168v3.583c0,0.101-0.057,0.168-0.169,0.168h-0.384   C99.686,13.513,99.618,13.446,99.618,13.345z"
   id="path20"
   style="fill:#f3eee8;fill-opacity:1" />
	<path
   class="st0"
   d="M36.671,174.959c-2.793-2.793-4.188-6.45-4.188-10.111c0-3.66,1.395-7.318,4.188-10.111   c0.117-0.117,0.117-0.307,0-0.424c-0.117-0.117-0.307-0.117-0.424,0c-2.909,2.908-4.364,6.723-4.364,10.535   c0,3.812,1.455,7.626,4.364,10.535c0.117,0.117,0.307,0.117,0.424,0C36.788,175.266,36.788,175.076,36.671,174.959L36.671,174.959z   "
   id="path22"
   style="fill:#f3eee8;fill-opacity:1" />
	<path
   class="st0"
   d="M56.892,154.738c2.793,2.793,4.188,6.45,4.188,10.111c0,3.66-1.395,7.318-4.188,10.111   c-0.117,0.117-0.117,0.307,0,0.424c0.117,0.117,0.307,0.117,0.424,0c2.909-2.908,4.364-6.723,4.364-10.535   c0-3.812-1.455-7.626-4.364-10.535c-0.117-0.117-0.307-0.117-0.424,0C56.775,154.431,56.775,154.621,56.892,154.738L56.892,154.738   z"
   id="path24"
   style="fill:#f3eee8;fill-opacity:1" />
	<path
   class="st0"
   d="M36.671,228.652c-2.793-2.793-4.188-6.45-4.188-10.111c0-3.66,1.395-7.318,4.188-10.11   c0.117-0.117,0.117-0.307,0-0.424c-0.117-0.117-0.307-0.117-0.424,0c-2.909,2.908-4.364,6.723-4.364,10.535   c0,3.812,1.455,7.626,4.364,10.535c0.117,0.117,0.307,0.117,0.424,0C36.788,228.959,36.788,228.77,36.671,228.652L36.671,228.652z"
   id="path26"
   style="fill:#f3eee8;fill-opacity:1" />
	<path
   class="st0"
   d="M56.892,208.431c2.793,2.793,4.188,6.45,4.188,10.111c0,3.66-1.395,7.318-4.188,10.111   c-0.117,0.117-0.117,0.307,0,0.424c0.117,0.117,0.307,0.117,0.424,0c2.909-2.908,4.364-6.723,4.364-10.535   c0-3.812-1.455-7.626-4.364-10.535c-0.117-0.117-0.307-0.117-0.424,0C56.775,208.124,56.775,208.314,56.892,208.431L56.892,208.431   z"
   id="path28"
   style="fill:#f3eee8;fill-opacity:1" />
	<path
   class="st0"
   d="M36.671,282.546c-2.793-2.793-4.188-6.45-4.188-10.111c0-3.66,1.395-7.318,4.188-10.11   c0.117-0.117,0.117-0.307,0-0.424c-0.117-0.117-0.307-0.117-0.424,0c-2.909,2.908-4.364,6.723-4.364,10.535   c0,3.812,1.455,7.626,4.364,10.535c0.117,0.117,0.307,0.117,0.424,0C36.788,282.853,36.788,282.663,36.671,282.546L36.671,282.546z   "
   id="path30"
   style="fill:#f3eee8;fill-opacity:1" />
	<path
   class="st0"
   d="M56.892,262.325c2.793,2.793,4.188,6.45,4.188,10.11c0,3.66-1.395,7.318-4.188,10.111   c-0.117,0.117-0.117,0.307,0,0.424c0.117,0.117,0.307,0.117,0.424,0c2.909-2.908,4.364-6.723,4.364-10.535   c0-3.812-1.455-7.626-4.364-10.535c-0.117-0.117-0.307-0.117-0.424,0C56.775,262.018,56.775,262.208,56.892,262.325L56.892,262.325   z"
   id="path32"
   style="fill:#f3eee8;fill-opacity:1" />
	<path
   d="M134.928,235.225H95.812c-1.331,0-2.41-1.079-2.41-2.41V36.738c0-1.331,1.079-2.41,2.41-2.41h39.117   c1.331,0,2.41,1.079,2.41,2.41v196.077C137.339,234.146,136.26,235.225,134.928,235.225"
   id="path34"
   style="fill:#000000;fill-opacity:1" />
	
	<path
   class="st2"
   d="M134.645,233.528h-38.55c-0.504,0-0.912-0.409-0.912-0.912V37.07c0-0.504,0.409-0.912,0.912-0.912h38.55   c0.504,0,0.912,0.409,0.912,0.912v195.546C135.558,233.12,135.149,233.528,134.645,233.528z"
   id="path38"
   style="fill:#1c2729;fill-opacity:1" />
	<path
   class="st0"
   d="M60.474,133.938c0.058-0.243,0.11-0.488,0.156-0.736l-2.488-0.565c0.113-0.648,0.176-1.313,0.175-1.993   c0-1.421-0.259-2.781-0.73-4.038l2.38-0.935c-0.089-0.235-0.184-0.467-0.285-0.696l-2.384,0.936c-0.84-1.86-2.158-3.455-3.8-4.631   l1.446-2.117c-0.204-0.145-0.412-0.285-0.624-0.42l-1.447,2.118c-1.664-1.035-3.61-1.656-5.697-1.723v-2.566   c-0.125-0.003-0.25-0.009-0.376-0.009c-0.126,0-0.251,0.006-0.376,0.009v2.566c-2.087,0.067-4.033,0.688-5.697,1.723l-1.447-2.118   c-0.212,0.135-0.42,0.275-0.624,0.42l1.446,2.117c-1.641,1.176-2.96,2.772-3.8,4.631l-2.384-0.936   c-0.101,0.229-0.196,0.461-0.285,0.696l2.38,0.935c-0.471,1.257-0.73,2.617-0.73,4.038c0,0.68,0.062,1.345,0.175,1.993   l-2.488,0.565c0.046,0.248,0.098,0.493,0.156,0.736l2.485-0.565c0.5,2.054,1.549,3.893,2.984,5.349l-1.731,1.865   c0.178,0.177,0.361,0.348,0.548,0.516l2.351-2.532l-0.551-0.512l-0.003,0.003c-1.872-1.915-3.026-4.529-3.026-7.419   c0-2.933,1.188-5.584,3.109-7.507c1.923-1.922,4.574-3.109,7.507-3.109c2.933,0,5.584,1.188,7.507,3.109   c1.922,1.923,3.109,4.574,3.109,7.507c0,2.889-1.154,5.503-3.026,7.419l-0.003-0.003l-0.551,0.512l2.35,2.532   c0.187-0.167,0.37-0.339,0.548-0.516l-1.731-1.865c1.435-1.456,2.484-3.295,2.984-5.349L60.474,133.938z"
   id="path40"
   style="fill:#f3eee8;fill-opacity:1" />
	<path
   class="st0"
   d="M32.251,140.896c-0.886,0-1.287-0.371-1.287-1.758v-1.521c0-1.4,0.401-1.765,1.287-1.765h0.085   c0.894,0,1.287,0.364,1.287,1.765v1.521c0,1.387-0.4,1.758-1.287,1.758H32.251z M32.92,139.193v-1.632c0-0.883-0.155-1.1-0.626-1.1   c-0.479,0-0.634,0.217-0.634,1.1v1.632c0,0.883,0.155,1.093,0.634,1.093S32.92,140.076,32.92,139.193z"
   id="path42"
   style="fill:#f3eee8;fill-opacity:1" />
	<polygon
   class="st0"
   points="63.423,140.825 60.82,140.825 60.82,140.209 61.833,140.209 61.833,136.546 61.798,136.546   60.876,137.064 60.876,136.321 61.664,135.923 62.529,135.923 62.529,140.209 63.423,140.209  "
   id="polygon44"
   style="fill:#f3eee8;fill-opacity:1" />
	<polygon
   class="st0"
   points="41.033,200.161 39.94,200.161 39.94,196.197 38.449,196.197 38.449,195.259 42.546,195.259   42.546,196.197 41.033,196.197  "
   id="polygon46"
   style="fill:#f3eee8;fill-opacity:1" />
	<path
   class="st0"
   d="M44.959,200.161h-1.085v-4.902h2.528c1.219,0,1.667,0.343,1.667,1.296v0.126c0,0.729-0.224,1.051-0.75,1.135   v0.049c0.518,0.084,0.75,0.259,0.75,1.113v1.184h-1.085v-1.113c0-0.554-0.175-0.673-0.82-0.673h-1.205V200.161z M44.959,196.162   v1.316h1.324c0.504,0,0.701-0.153,0.701-0.623v-0.042c0-0.497-0.196-0.651-0.812-0.651H44.959z"
   id="path48"
   style="fill:#f3eee8;fill-opacity:1" />
	<path
   class="st0"
   d="M51.827,200.231c-1.59,0-2.29-0.687-2.29-2.305V197.5c0-1.618,0.7-2.312,2.29-2.312h0.091   c1.261,0,1.996,0.441,2.213,1.499H52.99c-0.119-0.385-0.469-0.554-1.058-0.554h-0.119c-0.973,0-1.176,0.54-1.176,1.429v0.309   c0,0.896,0.203,1.422,1.176,1.422h0.154c0.882,0,1.121-0.315,1.121-1.1h-1.359v-0.903h2.452v0.637c0,1.618-0.687,2.305-2.262,2.305   H51.827z"
   id="path50"
   style="fill:#f3eee8;fill-opacity:1" />
	<polygon
   class="st0"
   points="42.044,35.115 39.811,35.115 38.55,31.921 37.212,35.115 34.936,35.115 33.15,30.212 35.076,30.212   36.21,33.644 36.273,33.644 37.604,30.212 39.544,30.212 40.889,33.644 40.952,33.644 42.065,30.212 43.816,30.212  "
   id="polygon52"
   style="fill:#f3eee8;fill-opacity:1" />
	<path
   class="st0"
   d="M52.215,35.115h-1.982l-0.561-0.974h-3.376l-0.553,0.974h-1.919l2.865-4.903h2.661L52.215,35.115z    M47.957,31.249l-1.001,1.737h2.059l-0.995-1.737H47.957z"
   id="path54"
   style="fill:#f3eee8;fill-opacity:1" />
	<polygon
   class="st0"
   points="56.827,35.115 54.669,35.115 51.805,30.212 53.864,30.212 55.79,33.637 55.853,33.637 57.793,30.212   59.691,30.212  "
   id="polygon56"
   style="fill:#f3eee8;fill-opacity:1" />
	<path
   class="st0"
   d="M35.681,254.034h-1.085v-4.903h2.514c1.198,0,1.681,0.421,1.681,1.576v0.21c0,1.064-0.483,1.562-1.681,1.562   h-1.429V254.034z M35.681,250.021v1.569h1.261c0.595,0,0.764-0.21,0.764-0.75v-0.069c0-0.554-0.182-0.75-0.771-0.75H35.681z"
   id="path58"
   style="fill:#f3eee8;fill-opacity:1" />
	<rect
   x="40.154"
   y="249.131"
   class="st0"
   width="1.085"
   height="4.903"
   id="rect60"
   style="fill:#f3eee8;fill-opacity:1" />
	<polygon
   class="st0"
   points="45.153,254.034 44.06,254.034 44.06,250.069 42.568,250.069 42.568,249.131 46.666,249.131   46.666,250.069 45.153,250.069  "
   id="polygon62"
   style="fill:#f3eee8;fill-opacity:1" />
	<path
   class="st0"
   d="M49.997,254.104c-1.583,0-2.213-0.686-2.213-2.304v-0.435c0-1.617,0.63-2.304,2.213-2.304h0.161   c1.345,0,1.94,0.532,2.165,1.646h-1.114c-0.14-0.504-0.477-0.7-1.085-0.7h-0.091c-0.974,0-1.148,0.539-1.148,1.429v0.294   c0,0.89,0.175,1.429,1.148,1.429h0.091c0.609,0,0.945-0.196,1.085-0.7h1.114c-0.224,1.113-0.82,1.646-2.165,1.646H49.997z"
   id="path64"
   style="fill:#f3eee8;fill-opacity:1" />
	<polygon
   class="st0"
   points="58.23,254.034 57.137,254.034 57.137,252.045 54.875,252.045 54.875,254.034 53.79,254.034   53.79,249.131 54.875,249.131 54.875,251.106 57.137,251.106 57.137,249.131 58.23,249.131  "
   id="polygon66"
   style="fill:#f3eee8;fill-opacity:1" />
	<polygon
   class="st0"
   points="108.489,254.034 105.078,254.034 105.078,249.132 106.164,249.132 106.164,253.096 108.489,253.096   "
   id="polygon68"
   style="fill:#f3eee8;fill-opacity:1" />
	<path
   class="st0"
   d="M111.891,254.104c-1.59,0-2.29-0.687-2.29-2.305v-0.427c0-1.618,0.7-2.312,2.29-2.312h0.091   c1.576,0,2.283,0.693,2.283,2.312v0.427c0,1.618-0.707,2.305-2.283,2.305H111.891z M111.995,253.159   c0.967-0.015,1.17-0.525,1.17-1.429v-0.295c0-0.889-0.203-1.429-1.17-1.429h-0.118c-0.974,0-1.177,0.54-1.177,1.429v0.295   c0,0.89,0.203,1.429,1.177,1.429H111.995z"
   id="path70"
   style="fill:#f3eee8;fill-opacity:1" />
	<path
   class="st0"
   d="M118.001,254.104c-1.59,0-2.29-0.687-2.29-2.305v-0.427c0-1.618,0.7-2.312,2.29-2.312h0.092   c1.575,0,2.283,0.693,2.283,2.312v0.427c0,1.618-0.708,2.305-2.283,2.305H118.001z M118.106,253.159   c0.967-0.015,1.17-0.525,1.17-1.429v-0.295c0-0.889-0.203-1.429-1.17-1.429h-0.119c-0.974,0-1.177,0.54-1.177,1.429v0.295   c0,0.89,0.203,1.429,1.177,1.429H118.106z"
   id="path72"
   style="fill:#f3eee8;fill-opacity:1" />
	<path
   class="st0"
   d="M122.992,254.034h-1.086v-4.902h2.515c1.197,0,1.681,0.42,1.681,1.576v0.21c0,1.064-0.483,1.562-1.681,1.562   h-1.429V254.034z M122.992,250.021v1.568h1.261c0.595,0,0.764-0.21,0.764-0.749v-0.07c0-0.553-0.183-0.749-0.771-0.749H122.992z"
   id="path74"
   style="fill:#f3eee8;fill-opacity:1" />
	<path
   class="st0"
   d="M63.107,317.175c-1.59,0-2.29-0.687-2.29-2.305v-0.427c0-1.618,0.7-2.312,2.29-2.312h0.091   c1.576,0,2.283,0.693,2.283,2.312v0.427c0,1.618-0.708,2.305-2.283,2.305H63.107z M63.212,316.229   c0.967-0.015,1.17-0.525,1.17-1.429v-0.295c0-0.889-0.203-1.429-1.17-1.429h-0.119c-0.974,0-1.177,0.54-1.177,1.429v0.295   c0,0.89,0.203,1.429,1.177,1.429H63.212z"
   id="path76"
   style="fill:#f3eee8;fill-opacity:1" />
	<path
   class="st0"
   d="M69.036,317.175c-1.52,0-2.094-0.519-2.094-2.031v-2.941h1.107v2.879c0,0.854,0.238,1.12,0.959,1.12h0.154   c0.722,0,0.96-0.273,0.96-1.12v-2.879h1.106v2.941c0,1.513-0.582,2.031-2.094,2.031H69.036z"
   id="path78"
   style="fill:#f3eee8;fill-opacity:1" />
	<polygon
   class="st0"
   points="75.063,317.104 73.971,317.104 73.971,313.141 72.479,313.141 72.479,312.202 76.576,312.202   76.576,313.141 75.063,313.141  "
   id="polygon80"
   style="fill:#f3eee8;fill-opacity:1" />
	<polygon
   class="st0"
   points="83.583,317.104 80.172,317.104 80.172,312.202 81.258,312.202 81.258,316.166 83.583,316.166  "
   id="polygon82"
   style="fill:#f3eee8;fill-opacity:1" />
	<path
   class="st0"
   d="M105.908,317.175c-1.59,0-2.29-0.687-2.29-2.305v-0.427c0-1.618,0.7-2.312,2.29-2.312h0.091   c1.576,0,2.283,0.693,2.283,2.312v0.427c0,1.618-0.707,2.305-2.283,2.305H105.908z M106.013,316.229   c0.967-0.015,1.17-0.525,1.17-1.429v-0.295c0-0.889-0.203-1.429-1.17-1.429h-0.118c-0.974,0-1.177,0.54-1.177,1.429v0.295   c0,0.89,0.203,1.429,1.177,1.429H106.013z"
   id="path84"
   style="fill:#f3eee8;fill-opacity:1" />
	<path
   class="st0"
   d="M111.837,317.175c-1.52,0-2.095-0.519-2.095-2.031v-2.941h1.107v2.879c0,0.854,0.237,1.12,0.959,1.12h0.154   c0.722,0,0.96-0.273,0.96-1.12v-2.879h1.106v2.941c0,1.513-0.582,2.031-2.095,2.031H111.837z"
   id="path86"
   style="fill:#f3eee8;fill-opacity:1" />
	<polygon
   class="st0"
   points="117.864,317.104 116.771,317.104 116.771,313.141 115.279,313.141 115.279,312.202 119.377,312.202   119.377,313.141 117.864,313.141  "
   id="polygon88"
   style="fill:#f3eee8;fill-opacity:1" />
	<path
   class="st0"
   d="M124.059,317.104h-1.086v-4.902h2.528c1.219,0,1.667,0.343,1.667,1.296v0.126c0,0.729-0.224,1.051-0.749,1.135   v0.049c0.518,0.084,0.749,0.259,0.749,1.113v1.184h-1.085v-1.113c0-0.554-0.176-0.673-0.82-0.673h-1.204V317.104z M124.059,313.105   v1.316h1.323c0.505,0,0.701-0.153,0.701-0.623v-0.042c0-0.497-0.196-0.651-0.812-0.651H124.059z"
   id="path90"
   style="fill:#f3eee8;fill-opacity:1" />
	<path
   class="st0"
   d="M61.969,35.183h16.962c1.498,0,2.851,0.606,3.833,1.588c0.981,0.982,1.587,2.335,1.588,3.833v139.958   c0,1.498-0.606,2.851-1.588,3.833c-0.982,0.981-2.335,1.587-3.833,1.588H14.672c-1.498,0-2.851-0.606-3.833-1.588   c-0.981-0.982-1.587-2.335-1.588-3.833V40.603c0-1.498,0.606-2.851,1.588-3.833c0.982-0.981,2.335-1.587,3.833-1.588h16.613   c0.137,0,0.249-0.111,0.249-0.249c0-0.137-0.111-0.249-0.249-0.249l-16.613,0c-3.269,0-5.918,2.65-5.918,5.918v139.958   c0,3.269,2.65,5.918,5.918,5.918h64.259c3.269,0,5.918-2.65,5.918-5.918V40.603c0-3.269-2.65-5.918-5.918-5.918H61.969   c-0.137,0-0.249,0.111-0.249,0.249C61.72,35.071,61.832,35.183,61.969,35.183L61.969,35.183z"
   id="path92"
   style="fill:#f3eee8;fill-opacity:1" />
	<path
   class="st0"
   d="M5.386,18.956h133.228c0.138,0,0.249-0.112,0.249-0.249c0-0.138-0.111-0.249-0.249-0.249H5.386   c-0.138,0-0.249,0.112-0.249,0.249C5.137,18.844,5.248,18.956,5.386,18.956"
   id="path94"
   style="fill:#f3eee8;fill-opacity:1" />
	<path
   class="st0"
   d="M138.049,5.294v8.018h-31.646V5.294H138.049 M138.049,4.795h-31.646c-0.276,0-0.5,0.224-0.5,0.5v8.018   c0,0.276,0.224,0.5,0.5,0.5h31.646c0.276,0,0.5-0.224,0.5-0.5V5.294C138.549,5.018,138.325,4.795,138.049,4.795z"
   id="path96"
   style="fill:#f3eee8;fill-opacity:1" />
	<polygon
   class="st0"
   points="112.381,11.613 111.35,11.613 110.894,8.884 110.42,11.613 109.383,11.613 108.747,7.415   109.544,7.415 109.928,10.689 109.958,10.689 110.485,7.415 111.302,7.415 111.823,10.689 111.859,10.689 112.243,7.415   113.011,7.415  "
   id="polygon98"
   style="fill:#f3eee8;fill-opacity:1" />
	<path
   class="st0"
   d="M116.383,11.613h-0.815l-0.174-0.899h-0.966l-0.168,0.899h-0.797l0.894-4.198h1.133L116.383,11.613z    M114.896,8.219l-0.336,1.829h0.702l-0.336-1.829H114.896z"
   id="path100"
   style="fill:#f3eee8;fill-opacity:1" />
	<polygon
   class="st0"
   points="118.712,11.613 117.627,11.613 116.733,7.415 117.555,7.415 118.166,10.737 118.196,10.737   118.808,7.415 119.605,7.415  "
   id="polygon102"
   style="fill:#f3eee8;fill-opacity:1" />
	<path
   class="st0"
   d="M124.43,10.498c0,0.917-0.336,1.115-1.122,1.115h-1.307V7.415h1.283c0.798,0,1.127,0.186,1.127,1.091v0.042   c0,0.534-0.168,0.798-0.497,0.87v0.03c0.354,0.072,0.516,0.33,0.516,0.959V10.498z M122.769,8.063V9.16h0.455   c0.3,0,0.42-0.048,0.42-0.528V8.608c0-0.486-0.12-0.545-0.432-0.545H122.769z M122.769,9.76v1.211h0.443   c0.324,0,0.45-0.06,0.45-0.552v-0.12c0-0.498-0.126-0.54-0.45-0.54H122.769z"
   id="path104"
   style="fill:#f3eee8;fill-opacity:1" />
	<path
   class="st0"
   d="M128.19,11.613h-0.815l-0.174-0.899h-0.966l-0.168,0.899h-0.797l0.894-4.198h1.133L128.19,11.613z    M126.703,8.219l-0.336,1.829h0.702l-0.336-1.829H126.703z"
   id="path106"
   style="fill:#f3eee8;fill-opacity:1" />
	<polygon
   class="st0"
   points="131.784,11.613 130.771,11.613 129.848,8.776 129.817,8.776 129.817,11.613 129.11,11.613   129.11,7.415 130.124,7.415 131.047,10.251 131.077,10.251 131.077,7.415 131.784,7.415  "
   id="polygon108"
   style="fill:#f3eee8;fill-opacity:1" />
	<polygon
   class="st0"
   points="133.646,11.613 132.879,11.613 132.879,7.415 133.646,7.415 133.646,9.274 133.67,9.274   134.666,7.415 135.529,7.415 134.54,9.124 135.56,11.613 134.689,11.613 134,9.916 133.97,9.916 133.646,10.474  "
   id="polygon110"
   style="fill:#f3eee8;fill-opacity:1" />
	<path
   class="st0"
   d="M61.245,4.352l-6.214-0.496c-0.115-0.009-0.216,0.074-0.229,0.189L54.55,6.22l1.058,0.32l-1.834,2.955   L51.941,6.54l1.058-0.32l-0.254-2.176c-0.013-0.115-0.115-0.198-0.229-0.189l-6.23,0.497C46.09,4.368,45.922,4.5,45.861,4.688   l-1.043,3.223c-0.053,0.163-0.017,0.342,0.095,0.471l5.492,6.364c0.092,0.107,0.227,0.169,0.368,0.169h5.986   c0.141,0,0.276-0.062,0.368-0.169l5.494-6.364c0.112-0.13,0.148-0.308,0.095-0.471L61.67,4.688   C61.609,4.5,61.441,4.367,61.245,4.352z M55.789,12.96h-4.045c-0.15,0-0.293-0.07-0.385-0.189l-3.828-4.953   c-0.083-0.107-0.118-0.245-0.096-0.379l0.158-0.97c0.023-0.141,0.16-0.232,0.298-0.198l0.953,0.234   c0.131,0.032,0.243,0.118,0.309,0.236l2.789,5.011l0.213,0.125h3.237l0.213-0.126l2.772-5.009c0.066-0.119,0.179-0.205,0.311-0.238   l0.952-0.232c0.138-0.034,0.275,0.057,0.298,0.198l0.159,0.967c0.022,0.134-0.013,0.272-0.096,0.379l-3.829,4.953   C56.081,12.89,55.939,12.96,55.789,12.96z"
   id="path112"
   style="fill:#f3eee8;fill-opacity:1" />
	<path
   class="st1"
   d="M17.008,74.172"
   id="path114"
   style="fill:#f3eee8;fill-opacity:1" />
</g>
</svg>
