<?xml version="1.0" encoding="UTF-8" standalone="no"?>
<svg
   xmlns:dc="http://purl.org/dc/elements/1.1/"
   xmlns:cc="http://creativecommons.org/ns#"
   xmlns:rdf="http://www.w3.org/1999/02/22-rdf-syntax-ns#"
   xmlns:svg="http://www.w3.org/2000/svg"
   xmlns="http://www.w3.org/2000/svg"
   xmlns:sodipodi="http://sodipodi.sourceforge.net/DTD/sodipodi-0.dtd"
   xmlns:inkscape="http://www.inkscape.org/namespaces/inkscape"
   sodipodi:docname="autobreak_front_panel.svg"
   inkscape:version="1.0 (4035a4fb49, 2020-05-01)"
   id="svg11003"
   version="1.1"
   viewBox="0 0 40.64 128.5"
   height="128.5mm"
   width="40.639999mm">
  <defs
     id="defs10997" />
  <sodipodi:namedview
     inkscape:document-rotation="0"
     showborder="true"
     inkscape:guide-bbox="true"
     showguides="true"
     units="mm"
     inkscape:window-maximized="1"
     inkscape:window-y="-11"
     inkscape:window-x="2869"
     inkscape:window-height="2066"
     inkscape:window-width="3840"
     fit-margin-bottom="0"
     fit-margin-right="0"
     fit-margin-left="0"
     fit-margin-top="0"
     showgrid="false"
     inkscape:current-layer="layer1"
     inkscape:document-units="mm"
     inkscape:cy="341.38115"
     inkscape:cx="68.755661"
     inkscape:zoom="5.6568545"
     inkscape:pageshadow="2"
     inkscape:pageopacity="0.0"
     borderopacity="1.0"
     bordercolor="#666666"
     pagecolor="#ffffff"
     id="base">
    <sodipodi:guide
       inkscape:color="rgb(0,0,255)"
       inkscape:label=""
       inkscape:locked="false"
       id="guide3123"
       orientation="1,0"
       position="30.121001,86.434965" />
    <sodipodi:guide
       inkscape:color="rgb(0,0,255)"
       inkscape:label=""
       inkscape:locked="false"
       id="guide910"
       orientation="1,0"
       position="189.89,138.25853" />
    <sodipodi:guide
       inkscape:color="rgb(0,0,255)"
       inkscape:label=""
       inkscape:locked="false"
       id="guide1648"
       orientation="-1,0"
       position="10,91.977466" />
    <sodipodi:guide
       inkscape:locked="false"
       id="guide868"
       orientation="0,1"
       position="17.065625,12.336198" />
    <sodipodi:guide
       inkscape:color="rgb(0,0,255)"
       inkscape:label=""
       inkscape:locked="false"
       id="guide882"
       orientation="0,1"
       position="65.484374,72.500003" />
    <sodipodi:guide
       inkscape:color="rgb(0,0,255)"
       inkscape:locked="false"
       inkscape:label=""
       id="guide904"
       orientation="0,1"
       position="-29.840643,100.5" />
    <sodipodi:guide
       inkscape:color="rgb(0,0,255)"
       inkscape:locked="false"
       inkscape:label=""
       id="guide906"
       orientation="0,1"
       position="55.939512,78.500003" />
  </sodipodi:namedview>
  <metadata
     id="metadata11000">
    <rdf:RDF>
      <cc:Work
         rdf:about="">
        <dc:format>image/svg+xml</dc:format>
        <dc:type
           rdf:resource="http://purl.org/dc/dcmitype/StillImage" />
        <dc:title />
      </cc:Work>
    </rdf:RDF>
  </metadata>
  <g
     style="display:inline"
     transform="translate(-64.792954,-47.169623)"
     id="layer1"
     inkscape:groupmode="layer"
     inkscape:label="Panel Layer">
    <path
       style="fill:#e6e6e6;fill-opacity:1;fill-rule:nonzero;stroke:none;stroke-width:0.70737505"
       d="M 65.007928,47.153083 H 105.64792 V 175.65308 H 65.007928 Z m 0,0"
       id="path33429"
       inkscape:connector-curvature="0" />
    <text
       id="text110"
       y="55.359463"
       x="77.210922"
       style="font-style:normal;font-weight:normal;font-size:4.58611px;line-height:1.25;font-family:sans-serif;letter-spacing:0px;word-spacing:0px;fill:#000000;fill-opacity:1;stroke:none;stroke-width:0.264583"
       xml:space="preserve" />
    <g
       transform="translate(-34.650526,-18.350027)"
       id="g890">
      <g
         id="text913"
         style="font-style:normal;font-variant:normal;font-weight:normal;font-stretch:normal;font-size:3.52778px;line-height:1.25;font-family:'Share Tech Mono';-inkscape-font-specification:'Share Tech Mono';letter-spacing:0px;word-spacing:0px;fill:#000000;fill-opacity:1;stroke:none;stroke-width:0.264583"
         aria-label="SAMPLE">
        <path
           inkscape:connector-curvature="0"
           id="path915"
           style="stroke-width:0.264583"
           d="m 105.30938,127.90037 q 0,0.29986 -0.1658,0.45155 -0.16228,0.14817 -0.4692,0.14817 h -0.50094 v -0.26811 h 0.53622 q 0.13053,0 0.21167,-0.0776 0.0811,-0.0776 0.0811,-0.18697 v -0.36689 q 0,-0.10584 -0.0564,-0.16934 -0.0529,-0.067 -0.16228,-0.067 h -0.10583 q -0.26105,0 -0.41275,-0.1517 -0.15169,-0.15522 -0.15169,-0.44803 v -0.13405 q 0,-0.29986 0.16227,-0.44803 0.16581,-0.15169 0.47273,-0.15169 h 0.50447 v 0.26811 h -0.53975 q -0.13053,0 -0.21167,0.0776 -0.0811,0.0776 -0.0811,0.18697 v 0.26811 q 0,0.10936 0.0706,0.18345 0.0706,0.0705 0.18344,0.0705 h 0.10584 q 0.25047,0 0.38805,0.14464 0.14111,0.14464 0.14111,0.43745 z" />
        <path
           inkscape:connector-curvature="0"
           id="path917"
           style="stroke-width:0.264583"
           d="m 106.27269,127.87567 -0.13759,0.62442 h -0.31397 l 0.5962,-2.46944 h 0.40569 l 0.58561,2.46944 h -0.31397 l -0.13406,-0.62442 z m 0.63147,-0.26458 -0.28928,-1.34761 -0.28575,1.34761 z" />
        <path
           inkscape:connector-curvature="0"
           id="path919"
           style="stroke-width:0.264583"
           d="m 108.65769,127.67106 h -0.29281 l -0.34572,-1.38641 v 2.21544 h -0.26811 v -2.46944 h 0.49036 l 0.28222,1.26294 0.28575,-1.26294 h 0.47625 v 2.46944 h -0.27517 v -2.21544 z" />
        <path
           inkscape:connector-curvature="0"
           id="path921"
           style="stroke-width:0.264583"
           d="m 111.05679,126.98315 q 0,0.28575 -0.15169,0.42333 -0.15169,0.13406 -0.44803,0.13406 h -0.36689 v 0.95955 h -0.30691 v -2.46944 h 0.66675 q 0.29986,0 0.45155,0.13405 0.15522,0.13053 0.15522,0.41628 z m -0.30691,-0.43392 q 0,-0.13406 -0.0635,-0.19403 -0.06,-0.06 -0.19403,-0.06 h -0.40217 v 0.98072 h 0.40217 q 0.13406,0 0.19403,-0.06 0.0635,-0.0635 0.0635,-0.19756 z" />
        <path
           inkscape:connector-curvature="0"
           id="path923"
           style="stroke-width:0.264583"
           d="m 112.08007,126.03065 v 2.20133 h 0.78669 v 0.26811 h -1.09361 v -2.46944 z" />
        <path
           inkscape:connector-curvature="0"
           id="path925"
           style="stroke-width:0.264583"
           d="m 114.81079,126.03065 v 0.25752 h -0.87136 v 0.80787 h 0.78317 v 0.25752 h -0.78317 v 0.889 h 0.87136 v 0.25753 h -1.17828 v -2.46944 z" />
      </g>
    </g>
    <g
       transform="translate(-45.718353,0.2786297)"
       id="text939"
       style="font-style:normal;font-variant:normal;font-weight:normal;font-stretch:normal;font-size:3.88055563px;line-height:1.25;font-family:'Sitka Subheading';-inkscape-font-specification:'Sitka Subheading';letter-spacing:0px;word-spacing:0px;display:inline;fill:#999999;fill-opacity:1;stroke:none;stroke-width:0.26458332"
       aria-label="voxglitch">
      <path
         inkscape:connector-curvature="0"
         id="path941"
         style="font-size:2.82222223px;fill:#999999;stroke-width:0.26458332"
         d="m 139.18399,173.2094 q -0.01,-0.0251 -0.0289,-0.0389 -0.0176,-0.0138 -0.0426,-0.0226 l -0.0953,-0.0389 v -0.0778 h 0.58451 v 0.0778 l -0.18438,0.0539 0.29727,0.70116 0.059,0.17811 h 0.0138 l 0.3324,-0.85293 -0.17435,-0.0803 v -0.0778 h 0.47915 v 0.0778 l -0.0991,0.0615 q -0.0251,0.0125 -0.0439,0.0263 -0.0188,0.0138 -0.0289,0.0364 l -0.34369,0.83914 -0.13672,0.27344 h -0.10787 z" />
      <path
         inkscape:connector-curvature="0"
         id="path943"
         style="font-size:2.82222223px;fill:#999999;stroke-width:0.26458332"
         d="m 141.14323,174.36588 q -0.14048,0 -0.25588,-0.0477 -0.11539,-0.0477 -0.19818,-0.13547 -0.0815,-0.0891 -0.12669,-0.21574 -0.0439,-0.12669 -0.0439,-0.28348 0,-0.1455 0.0439,-0.27093 0.0452,-0.12544 0.12669,-0.21826 0.0828,-0.0928 0.20069,-0.1455 0.11791,-0.0539 0.26592,-0.0539 0.16055,0 0.2772,0.0564 0.11791,0.0564 0.19442,0.15052 0.0778,0.0941 0.1154,0.21825 0.0376,0.12292 0.0376,0.25839 0,0.14299 -0.0439,0.26843 -0.0439,0.12543 -0.12669,0.2195 -0.0815,0.0928 -0.19943,0.14676 -0.11791,0.0527 -0.26718,0.0527 z m 0.0188,-0.11791 q 0.10536,0 0.17435,-0.0514 0.0702,-0.0514 0.11038,-0.13045 0.0414,-0.0803 0.0577,-0.17561 0.0163,-0.0966 0.0163,-0.18564 0,-0.10912 -0.0213,-0.21449 -0.0201,-0.10661 -0.0665,-0.19065 -0.0451,-0.084 -0.1179,-0.13547 -0.0727,-0.0514 -0.17686,-0.0514 -0.0702,0 -0.12418,0.0238 -0.0527,0.0238 -0.0928,0.064 -0.0401,0.0401 -0.0677,0.0941 -0.0263,0.0527 -0.0439,0.11289 -0.0163,0.0602 -0.0238,0.12292 -0.006,0.0627 -0.006,0.12167 0,0.0665 0.008,0.13672 0.008,0.069 0.0251,0.13547 0.0188,0.0652 0.0477,0.12418 0.0289,0.059 0.0715,0.10285 0.0426,0.0439 0.0991,0.0702 0.0577,0.0263 0.1317,0.0263 z" />
      <path
         inkscape:connector-curvature="0"
         id="path945"
         style="font-size:2.82222223px;fill:#999999;stroke-width:0.26458332"
         d="m 141.90933,174.25424 0.11163,-0.0464 q 0.0263,-0.01 0.0502,-0.0289 0.0251,-0.0201 0.0389,-0.0364 l 0.35622,-0.44152 -0.3487,-0.48793 q -0.0151,-0.0226 -0.0351,-0.0389 -0.0201,-0.0176 -0.0489,-0.0263 l -0.11289,-0.0389 v -0.0778 h 0.57198 v 0.0778 l -0.13422,0.0514 0.19568,0.28096 0.069,0.12418 h 0.009 l 0.29351,-0.3926 -0.11916,-0.064 v -0.0778 h 0.44277 v 0.0778 l -0.11163,0.0477 q -0.0263,0.01 -0.0502,0.0289 -0.0226,0.0188 -0.0376,0.0364 l -0.34243,0.42396 0.36125,0.50549 q 0.0163,0.0226 0.0364,0.0401 0.0213,0.0163 0.0489,0.0251 l 0.10913,0.0376 v 0.079 h -0.57197 v -0.079 l 0.13672,-0.0502 -0.20947,-0.29978 -0.069,-0.12292 h -0.009 l -0.30605,0.41016 0.11916,0.0627 v 0.079 h -0.44403 z" />
      <path
         inkscape:connector-curvature="0"
         id="path947"
         style="font-size:2.82222223px;fill:#999999;stroke-width:0.26458332"
         d="m 143.66884,174.29815 q -0.0326,-0.01 -0.069,-0.0289 -0.0351,-0.0188 -0.0652,-0.0477 -0.0301,-0.0289 -0.0502,-0.0677 -0.0188,-0.0401 -0.0188,-0.0916 0,-0.0577 0.0213,-0.10034 0.0226,-0.0439 0.0564,-0.074 0.0339,-0.0314 0.0753,-0.0502 0.0414,-0.0188 0.079,-0.0276 v -0.009 q -0.0389,-0.0226 -0.0778,-0.0539 -0.0389,-0.0326 -0.0702,-0.0765 -0.0301,-0.0439 -0.0502,-0.10035 -0.0188,-0.0577 -0.0188,-0.13045 0,-0.0928 0.0364,-0.17435 0.0376,-0.0815 0.10536,-0.14174 0.0677,-0.0602 0.16306,-0.0941 0.0953,-0.0351 0.21198,-0.0351 0.0753,0 0.14299,0.01 0.0677,0.01 0.13045,0.0263 h 0.44027 l -0.0151,0.15428 -0.3324,-0.0426 v 0.008 q 0.0301,0.0326 0.0539,0.0652 0.0238,0.0326 0.0401,0.069 0.0176,0.0351 0.0263,0.0753 0.009,0.0389 0.009,0.0853 0,0.0928 -0.0351,0.17184 -0.0339,0.079 -0.0991,0.13798 -0.0652,0.0577 -0.16056,0.0903 -0.0941,0.0326 -0.21574,0.0326 -0.0314,0 -0.064,-0.003 -0.0314,-0.004 -0.0602,-0.008 -0.0289,-0.005 -0.0539,-0.0113 -0.0238,-0.006 -0.0401,-0.0126 -0.0188,0.004 -0.0376,0.0151 -0.0176,0.0113 -0.0326,0.0289 -0.0151,0.0163 -0.0251,0.0389 -0.009,0.0226 -0.009,0.0489 0,0.0263 0.009,0.0502 0.009,0.0226 0.0238,0.0401 0.0151,0.0176 0.0339,0.0301 0.0201,0.0113 0.0414,0.0151 h 0.44278 q 0.12543,0 0.20947,0.0301 0.0853,0.0301 0.13672,0.079 0.0527,0.0489 0.074,0.10912 0.0226,0.059 0.0226,0.11791 0,0.10913 -0.0539,0.19944 -0.0527,0.0916 -0.14551,0.15679 -0.0928,0.0665 -0.21825,0.10285 -0.12543,0.0364 -0.26968,0.0364 -0.12417,0 -0.22954,-0.0213 -0.10411,-0.0213 -0.18062,-0.064 -0.0765,-0.0414 -0.12041,-0.10285 -0.0427,-0.0615 -0.0427,-0.14174 0,-0.0652 0.0226,-0.1154 0.0238,-0.0502 0.0615,-0.0878 0.0376,-0.0364 0.0865,-0.0615 0.0502,-0.0251 0.10536,-0.0401 z m 0.31985,-0.52055 q 0.064,0 0.11289,-0.0238 0.0489,-0.0238 0.0815,-0.069 0.0326,-0.0451 0.0489,-0.10912 0.0176,-0.0652 0.0176,-0.14676 0,-0.079 -0.0188,-0.14048 -0.0188,-0.0615 -0.0539,-0.10411 -0.0339,-0.0427 -0.0828,-0.064 -0.0477,-0.0226 -0.10661,-0.0226 -0.0577,0 -0.10411,0.0213 -0.0464,0.0213 -0.0803,0.064 -0.0339,0.0414 -0.0527,0.10411 -0.0176,0.0615 -0.0176,0.143 0,0.0828 0.0176,0.14801 0.0188,0.064 0.0514,0.10912 0.0339,0.0439 0.0815,0.0677 0.0477,0.0226 0.10536,0.0226 z m -0.21449,0.5356 q -0.0238,0.006 -0.0502,0.0238 -0.0263,0.0176 -0.0477,0.0464 -0.0213,0.0289 -0.0351,0.069 -0.0138,0.0414 -0.0138,0.0941 0,0.0527 0.0188,0.0941 0.0188,0.0414 0.0502,0.0715 0.0326,0.0301 0.074,0.0502 0.0414,0.0201 0.0853,0.0326 0.0439,0.0125 0.0866,0.0176 0.0439,0.005 0.0803,0.005 0.0778,0 0.15428,-0.0163 0.0778,-0.0151 0.13797,-0.0514 0.0615,-0.0351 0.0991,-0.0916 0.0376,-0.0552 0.0376,-0.13422 0,-0.0364 -0.0151,-0.074 -0.0138,-0.0376 -0.0451,-0.0677 -0.0301,-0.0301 -0.0803,-0.0489 -0.0489,-0.0201 -0.11665,-0.0201 z" />
      <path
         inkscape:connector-curvature="0"
         id="path949"
         style="font-size:2.82222223px;fill:#999999;stroke-width:0.26458332"
         d="m 144.83179,174.25424 0.16933,-0.0439 q 0.0238,-0.006 0.0376,-0.0213 0.0151,-0.0163 0.0151,-0.0427 v -1.4826 q 0,-0.0289 -0.0163,-0.0464 -0.0163,-0.0188 -0.0464,-0.0288 l -0.16557,-0.0615 v -0.0702 l 0.46535,-0.0477 v 1.73723 q 0,0.0263 0.015,0.0427 0.0163,0.0163 0.0376,0.0213 l 0.16056,0.0439 v 0.079 h -0.67232 z" />
      <path
         inkscape:connector-curvature="0"
         id="path951"
         style="font-size:2.82222223px;fill:#999999;stroke-width:0.26458332"
         d="m 145.98401,172.74655 q -0.0351,0 -0.0665,-0.0113 -0.0301,-0.0125 -0.0539,-0.0326 -0.0226,-0.0201 -0.0364,-0.0489 -0.0138,-0.0301 -0.0138,-0.0665 0,-0.0364 0.0138,-0.0665 0.0138,-0.0301 0.0364,-0.0502 0.0238,-0.0213 0.0539,-0.0326 0.0314,-0.0113 0.0665,-0.0113 0.0376,0 0.0702,0.0113 0.0326,0.01 0.0552,0.0301 0.0238,0.0201 0.0364,0.0489 0.0138,0.0276 0.0138,0.064 0,0.0376 -0.0138,0.0677 -0.0125,0.0301 -0.0364,0.0527 -0.0238,0.0213 -0.0564,0.0339 -0.0326,0.0113 -0.069,0.0113 z m -0.32612,1.50769 0.1731,-0.0439 q 0.0238,-0.006 0.0389,-0.0213 0.0151,-0.0163 0.0151,-0.0427 v -0.85795 q 0,-0.0289 -0.0163,-0.0464 -0.0163,-0.0188 -0.0477,-0.0289 l -0.1593,-0.0552 v -0.0702 l 0.45908,-0.074 v 1.13265 q 0,0.0263 0.0151,0.0427 0.0163,0.0163 0.0376,0.0213 l 0.16683,0.0439 v 0.079 h -0.68235 z" />
      <path
         inkscape:connector-curvature="0"
         id="path953"
         style="font-size:2.82222223px;fill:#999999;stroke-width:0.26458332"
         d="m 146.65956,173.16299 h -0.20947 v -0.0966 q 0.0514,-0.01 0.0928,-0.0188 0.0426,-0.009 0.0727,-0.0276 0.0301,-0.0201 0.0477,-0.0552 0.0188,-0.0351 0.0226,-0.0966 l 0.01,-0.17435 0.20069,-0.0389 v 0.38005 h 0.46034 l -0.0188,0.12795 h -0.44152 v 0.87049 q 0,0.0414 0.0263,0.0703 0.0264,0.0288 0.064,0.0477 0.0389,0.0188 0.0803,0.0276 0.0414,0.008 0.0728,0.008 0.0213,0 0.0477,-0.004 0.0276,-0.005 0.0527,-0.01 0.0251,-0.006 0.0464,-0.0138 0.0226,-0.008 0.0339,-0.0126 h 0.0326 v 0.0891 q -0.0176,0.0113 -0.0539,0.0314 -0.0351,0.0201 -0.0828,0.0401 -0.0464,0.0201 -0.10286,0.0339 -0.0552,0.0151 -0.11163,0.0151 -0.0703,0 -0.13296,-0.0176 -0.0615,-0.0176 -0.10787,-0.0502 -0.0464,-0.0326 -0.074,-0.0803 -0.0276,-0.0489 -0.0276,-0.11164 z" />
      <path
         inkscape:connector-curvature="0"
         id="path955"
         style="font-size:2.82222223px;fill:#999999;stroke-width:0.26458332"
         d="m 148.58823,174.02345 v 0.12418 q -0.0427,0.0376 -0.0966,0.0765 -0.0527,0.0376 -0.11666,0.069 -0.0627,0.0314 -0.13546,0.0502 -0.0728,0.0201 -0.15428,0.0201 -0.13547,0 -0.2446,-0.0502 -0.10912,-0.0502 -0.18564,-0.13798 -0.0765,-0.089 -0.1179,-0.20821 -0.0401,-0.11917 -0.0401,-0.25839 0,-0.10035 0.0238,-0.19192 0.0251,-0.0916 0.0702,-0.17058 0.0452,-0.079 0.10787,-0.143 0.064,-0.0652 0.14049,-0.11038 0.0778,-0.0451 0.16682,-0.0702 0.0891,-0.0251 0.18564,-0.0251 0.074,0 0.13045,0.0125 0.0577,0.0113 0.10035,0.0276 0.0439,0.0151 0.074,0.0326 0.0314,0.0163 0.0552,0.0263 l -0.0201,0.23455 h -0.0464 q -0.0477,-0.0301 -0.0953,-0.0615 -0.0464,-0.0326 -0.0978,-0.0577 -0.0502,-0.0263 -0.10787,-0.0426 -0.0577,-0.0176 -0.1292,-0.0176 -0.0226,0 -0.0489,0.006 -0.0263,0.005 -0.0527,0.0163 -0.0263,0.0113 -0.0489,0.0263 -0.0226,0.0151 -0.0389,0.0339 -0.0201,0.0226 -0.0414,0.0565 -0.0201,0.0326 -0.0376,0.0828 -0.0163,0.0489 -0.0276,0.1154 -0.01,0.0665 -0.01,0.15553 0,0.12795 0.0276,0.22829 0.0276,0.10035 0.0828,0.17059 0.0552,0.0702 0.13672,0.10787 0.0815,0.0364 0.1894,0.0364 0.0602,0 0.11414,-0.0176 0.0552,-0.0176 0.10286,-0.0414 0.0477,-0.0251 0.0865,-0.0539 0.0401,-0.0289 0.069,-0.0514 z" />
      <path
         inkscape:connector-curvature="0"
         id="path957"
         style="font-size:2.82222223px;fill:#999999;stroke-width:0.26458332"
         d="m 148.74492,174.25424 0.14551,-0.0439 q 0.0263,-0.008 0.0389,-0.0226 0.0138,-0.0151 0.0138,-0.0414 v -1.4826 q 0,-0.0289 -0.0163,-0.0464 -0.0163,-0.0176 -0.0464,-0.0288 l -0.14425,-0.0615 v -0.0702 l 0.44278,-0.0477 v 0.73879 0.0677 q 0.0552,-0.0727 0.10787,-0.1154 0.0539,-0.0439 0.10536,-0.0665 0.0527,-0.0238 0.10286,-0.0314 0.0514,-0.008 0.1016,-0.008 0.0865,0 0.16181,0.0263 0.0765,0.0251 0.13295,0.079 0.0577,0.0539 0.0903,0.13923 0.0326,0.0853 0.0326,0.2032 v 0.6974 q 0,0.0314 0.0151,0.0477 0.0151,0.0163 0.0364,0.0226 l 0.13296,0.0439 v 0.079 h -0.60458 v -0.079 l 0.13296,-0.0439 q 0.0213,-0.006 0.0364,-0.0226 0.0151,-0.0163 0.0151,-0.0477 v -0.59956 q 0,-0.0878 -0.0113,-0.15554 -0.01,-0.069 -0.0414,-0.11665 -0.0314,-0.0489 -0.0878,-0.074 -0.0552,-0.0251 -0.1455,-0.0251 -0.0414,0 -0.084,0.006 -0.0426,0.006 -0.084,0.0213 -0.0414,0.0151 -0.079,0.0401 -0.0376,0.0251 -0.0665,0.0615 v 0.84792 q 0,0.0263 0.0138,0.0414 0.0151,0.0151 0.0389,0.0226 l 0.11791,0.0439 v 0.079 h -0.60459 z" />
    </g>
    <g
       id="text884"
       style="font-style:normal;font-variant:normal;font-weight:normal;font-stretch:normal;font-size:3.88055563px;line-height:1.25;font-family:'Share Tech Mono';-inkscape-font-specification:'Share Tech Mono';letter-spacing:0px;word-spacing:0px;display:inline;fill:#000000;fill-opacity:1;stroke:none;stroke-width:0.26458332"
       aria-label="AUTOBREAK"
       transform="translate(-2.5400015,1.587163)">
      <g
         transform="translate(0,-1.586942)"
         id="g1706">
        <path
           inkscape:connector-curvature="0"
           d="m 76.598485,55.052441 -0.192617,0.874183 h -0.439561 l 0.834672,-3.457222 h 0.567972 l 0.819856,3.457222 h -0.439561 l -0.187678,-0.874183 z m 0.884061,-0.370417 -0.404989,-1.886655 -0.40005,1.886655 z"
           style="font-size:4.93889px;stroke-width:0.264583"
           id="path886" />
        <path
           inkscape:connector-curvature="0"
           d="m 80.688193,55.087013 q 0,0.419806 -0.232127,0.632178 -0.227189,0.207433 -0.656873,0.207433 h -0.123472 q -0.429683,0 -0.661811,-0.207433 -0.227189,-0.212372 -0.227189,-0.632178 v -2.617611 h 0.429683 v 2.71145 q 0,0.153106 0.113595,0.261761 0.113594,0.108656 0.296333,0.108656 h 0.22225 q 0.182739,0 0.296334,-0.108656 0.113594,-0.108655 0.113594,-0.261761 v -2.71145 h 0.429683 z"
           style="font-size:4.93889px;stroke-width:0.264583"
           id="path888" />
        <path
           inkscape:connector-curvature="0"
           d="m 82.184986,55.926624 v -3.081866 h -0.785284 v -0.375356 h 2.00025 v 0.375356 h -0.785283 v 3.081866 z"
           style="font-size:4.93889px;stroke-width:0.264583"
           id="path890" />
        <path
           inkscape:connector-curvature="0"
           d="m 86.052445,55.087013 q 0,0.419806 -0.232128,0.632178 -0.227189,0.207433 -0.656872,0.207433 h -0.197556 q -0.429683,0 -0.661811,-0.207433 -0.227189,-0.212372 -0.227189,-0.632178 v -1.778 q 0,-0.419805 0.227189,-0.627239 0.232128,-0.212372 0.661811,-0.212372 h 0.197556 q 0.429683,0 0.656872,0.212372 0.232128,0.207434 0.232128,0.627239 z m -0.429684,-1.871839 q 0,-0.153105 -0.113594,-0.261761 -0.113595,-0.108655 -0.296333,-0.108655 H 84.9165 q -0.182739,0 -0.296333,0.108655 -0.113595,0.108656 -0.113595,0.261761 v 1.965678 q 0,0.153106 0.113595,0.261761 0.113594,0.108656 0.296333,0.108656 h 0.296334 q 0.182738,0 0.296333,-0.108656 0.113594,-0.108655 0.113594,-0.261761 z"
           style="font-size:4.93889px;stroke-width:0.264583"
           id="path892" />
        <path
           inkscape:connector-curvature="0"
           d="m 88.640731,55.14628 q 0,0.424744 -0.197555,0.602544 -0.192617,0.1778 -0.642056,0.1778 h -0.987778 v -3.457222 h 0.928511 q 0.439561,0 0.642056,0.1778 0.207433,0.1778 0.207433,0.592667 v 0.281516 q 0,0.380295 -0.271639,0.572911 0.321028,0.1778 0.321028,0.607484 z m -0.479072,-1.950861 q 0,-0.187678 -0.0889,-0.271639 -0.08396,-0.08396 -0.271639,-0.08396 h -0.558095 v 1.091494 h 0.558095 q 0.153106,0 0.256822,-0.09878 0.103717,-0.09878 0.103717,-0.261761 z m 0.04939,1.461911 q 0,-0.162984 -0.09878,-0.256822 -0.09878,-0.09878 -0.261761,-0.09878 h -0.607484 v 1.254478 h 0.602545 q 0.187678,0 0.276578,-0.08396 0.0889,-0.0889 0.0889,-0.276578 z"
           style="font-size:4.93889px;stroke-width:0.264583"
           id="path894" />
        <path
           inkscape:connector-curvature="0"
           d="m 89.831312,54.494346 v 1.432278 h -0.429683 v -3.457222 h 0.928511 q 0.419805,0 0.632177,0.187678 0.217312,0.182739 0.217312,0.582789 v 0.474133 q 0,0.558094 -0.4445,0.696383 l 0.686505,1.516239 H 90.95244 l -0.637117,-1.432278 z m 0.918633,-1.298927 q 0,-0.187678 -0.0889,-0.271639 -0.08396,-0.08396 -0.271639,-0.08396 h -0.558094 v 1.284111 h 0.558094 q 0.187678,0 0.271639,-0.08396 0.0889,-0.0889 0.0889,-0.276578 z"
           style="font-size:4.93889px;stroke-width:0.264583"
           id="path896" />
        <path
           inkscape:connector-curvature="0"
           d="m 93.876571,52.469402 v 0.360539 h -1.219905 v 1.131005 h 1.096433 v 0.360539 h -1.096433 v 1.2446 h 1.219905 v 0.360539 h -1.649588 v -3.457222 z"
           style="font-size:4.93889px;stroke-width:0.264583"
           id="path899-0" />
        <path
           inkscape:connector-curvature="0"
           d="m 95.235074,55.052441 -0.192617,0.874183 h -0.439561 l 0.834672,-3.457222 h 0.567972 l 0.819856,3.457222 h -0.439561 l -0.187678,-0.874183 z m 0.884061,-0.370417 -0.404989,-1.886655 -0.40005,1.886655 z"
           style="font-size:4.93889px;stroke-width:0.264583"
           id="path901" />
        <path
           inkscape:connector-curvature="0"
           d="m 97.87275,54.652391 v 1.274233 h -0.429684 v -3.457222 h 0.429684 v 1.491544 l 0.938389,-1.491544 h 0.469194 l -0.953205,1.526117 1.012472,1.931105 h -0.493889 l -0.785283,-1.55575 z"
           style="font-size:4.93889px;stroke-width:0.264583"
           id="path903" />
      </g>
    </g>
    <g
       transform="translate(19.05909,-19.988554)"
       id="text1663"
       style="font-style:normal;font-variant:normal;font-weight:normal;font-stretch:normal;font-size:3.52778px;line-height:1.25;font-family:'Share Tech Mono';-inkscape-font-specification:'Share Tech Mono';letter-spacing:0px;word-spacing:0px;fill:#000000;fill-opacity:1;stroke:none;stroke-width:0.264583"
       aria-label="RESET">
      <path
         inkscape:connector-curvature="0"
         id="path889"
         style="font-size:3.52778px;stroke-width:0.264583"
         d="m 71.62087,85.189568 v 1.023056 h -0.306917 v -2.469445 h 0.663223 q 0.299861,0 0.451555,0.134056 0.155222,0.130528 0.155222,0.416278 v 0.338666 q 0,0.398639 -0.3175,0.497417 l 0.490361,1.083028 h -0.335138 l -0.455084,-1.023056 z m 0.656167,-0.927805 q 0,-0.134056 -0.0635,-0.194028 -0.05997,-0.05997 -0.194028,-0.05997 H 71.62087 v 0.917222 h 0.398639 q 0.134055,0 0.194028,-0.05997 0.0635,-0.0635 0.0635,-0.197556 z" />
      <path
         inkscape:connector-curvature="0"
         id="path891"
         style="font-size:3.52778px;stroke-width:0.264583"
         d="m 74.51034,83.743179 v 0.257528 h -0.871361 v 0.807861 h 0.783167 v 0.257528 h -0.783167 v 0.889 h 0.871361 v 0.257528 h -1.178277 v -2.469445 z" />
      <path
         inkscape:connector-curvature="0"
         id="path893"
         style="font-size:3.52778px;stroke-width:0.264583"
         d="m 76.419089,85.612901 q 0,0.299861 -0.165806,0.451556 -0.162278,0.148167 -0.469194,0.148167 h -0.500945 v -0.268112 h 0.536222 q 0.130528,0 0.211667,-0.07761 0.08114,-0.07761 0.08114,-0.186972 v -0.36689 q 0,-0.105833 -0.05644,-0.169333 -0.05292,-0.06703 -0.162278,-0.06703 h -0.105834 q -0.261055,0 -0.41275,-0.151694 -0.151694,-0.155222 -0.151694,-0.448028 v -0.134056 q 0,-0.299861 0.162278,-0.448027 0.165805,-0.151695 0.472722,-0.151695 h 0.504472 v 0.268111 h -0.53975 q -0.130528,0 -0.211666,0.07761 -0.08114,0.07761 -0.08114,0.186973 v 0.268111 q 0,0.109361 0.07055,0.183444 0.07056,0.07056 0.183445,0.07056 h 0.105833 q 0.250472,0 0.388056,0.144639 0.141111,0.144639 0.141111,0.437444 z" />
      <path
         inkscape:connector-curvature="0"
         id="path895"
         style="font-size:3.52778px;stroke-width:0.264583"
         d="m 78.313726,83.743179 v 0.257528 h -0.871361 v 0.807861 h 0.783166 v 0.257528 h -0.783166 v 0.889 h 0.871361 v 0.257528 h -1.178278 v -2.469445 z" />
      <path
         inkscape:connector-curvature="0"
         id="path897"
         style="font-size:3.52778px;stroke-width:0.264583"
         d="M 79.471057,86.212624 V 84.01129 h -0.560916 v -0.268111 h 1.42875 v 0.268111 h -0.560917 v 2.201334 z" />
    </g>
    <g
       transform="translate(-20.145096,-5.648129)"
       id="text872"
       style="font-style:normal;font-variant:normal;font-weight:normal;font-stretch:normal;font-size:3.52778px;line-height:1.25;font-family:'Share Tech Mono';-inkscape-font-specification:'Share Tech Mono';letter-spacing:0px;word-spacing:0px;fill:#000000;fill-opacity:1;stroke:none;stroke-width:0.264583"
       aria-label="SEQUENCE">
      <path
         inkscape:connector-curvature="0"
         id="path904"
         style="stroke-width:0.264583"
         d="m 88.883961,93.235475 q 0,0.299861 -0.165806,0.451556 -0.162278,0.148166 -0.469194,0.148166 h -0.500945 v -0.268111 h 0.536222 q 0.130528,0 0.211667,-0.07761 0.08114,-0.07761 0.08114,-0.186972 v -0.366889 q 0,-0.105833 -0.05644,-0.169333 -0.05292,-0.06703 -0.162277,-0.06703 h -0.105834 q -0.261055,0 -0.41275,-0.151694 Q 87.68805,92.392335 87.68805,92.09953 v -0.134056 q 0,-0.299861 0.162278,-0.448027 0.165805,-0.151695 0.472722,-0.151695 h 0.504472 v 0.268111 h -0.53975 q -0.130528,0 -0.211667,0.07761 -0.08114,0.07761 -0.08114,0.186973 v 0.268111 q 0,0.109361 0.07055,0.183444 0.07056,0.07056 0.183445,0.07056 h 0.105833 q 0.250472,0 0.388055,0.144638 0.141112,0.144639 0.141112,0.437445 z" />
      <path
         inkscape:connector-curvature="0"
         id="path906"
         style="stroke-width:0.264583"
         d="m 90.778598,91.365753 v 0.257528 h -0.871362 v 0.807861 h 0.783167 v 0.257528 h -0.783167 v 0.889 h 0.871362 v 0.257527 H 89.60032 v -2.469444 z" />
      <path
         inkscape:connector-curvature="0"
         id="path908"
         style="stroke-width:0.264583"
         d="m 92.500374,93.771697 q -0.137584,0.0635 -0.338667,0.0635 h -0.141111 q -0.306917,0 -0.472722,-0.148166 -0.162278,-0.151695 -0.162278,-0.451556 v -1.27 q 0,-0.299861 0.162278,-0.448027 0.165805,-0.151695 0.472722,-0.151695 h 0.141111 q 0.306917,0 0.469194,0.151695 0.165806,0.148166 0.165806,0.448027 v 1.27 q 0,0.208139 -0.08114,0.34925 l 0.257528,0.257528 -0.201084,0.201083 z m -0.01058,-1.873249 q 0,-0.109362 -0.08114,-0.186973 -0.08114,-0.07761 -0.211666,-0.07761 h -0.211667 q -0.130528,0 -0.211667,0.07761 -0.08114,0.07761 -0.08114,0.186973 v 1.404055 q 0,0.109361 0.08114,0.186972 0.08114,0.07761 0.211667,0.07761 h 0.211667 q 0.130527,0 0.211666,-0.07761 0.08114,-0.07761 0.08114,-0.186972 z" />
      <path
         inkscape:connector-curvature="0"
         id="path910"
         style="stroke-width:0.264583"
         d="m 94.670178,93.235475 q 0,0.299861 -0.165806,0.451556 -0.162278,0.148166 -0.469194,0.148166 h -0.08819 q -0.306917,0 -0.472722,-0.148166 -0.162278,-0.151695 -0.162278,-0.451556 V 91.365753 H 93.6189 v 1.93675 q 0,0.109361 0.08114,0.186972 0.08114,0.07761 0.211666,0.07761 h 0.15875 q 0.130528,0 0.211667,-0.07761 0.08114,-0.07761 0.08114,-0.186972 v -1.93675 h 0.306917 z" />
      <path
         inkscape:connector-curvature="0"
         id="path912"
         style="stroke-width:0.264583"
         d="m 96.483675,91.365753 v 0.257528 h -0.871361 v 0.807861 h 0.783167 v 0.257528 h -0.783167 v 0.889 h 0.871361 v 0.257527 h -1.178277 v -2.469444 z" />
      <path
         inkscape:connector-curvature="0"
         id="path914"
         style="stroke-width:0.264583"
         d="m 97.408173,93.835197 h -0.28575 v -2.469444 h 0.500945 l 0.557389,2.208389 v -2.208389 h 0.28575 v 2.469444 h -0.504472 l -0.553862,-2.208388 z" />
      <path
         inkscape:connector-curvature="0"
         id="path916"
         style="stroke-width:0.264583"
         d="m 99.76495,93.835197 q -0.306917,0 -0.472722,-0.148166 -0.162278,-0.151695 -0.162278,-0.451556 v -1.27 q 0,-0.299861 0.162278,-0.448027 0.165805,-0.151695 0.472722,-0.151695 h 0.50094 v 0.268111 h -0.536218 q -0.130527,0 -0.211666,0.07761 -0.08114,0.07761 -0.08114,0.186973 v 1.404055 q 0,0.109361 0.08114,0.186972 0.08114,0.07761 0.211666,0.07761 h 0.536218 v 0.268111 z" />
      <path
         inkscape:connector-curvature="0"
         id="path918"
         style="stroke-width:0.264583"
         d="m 102.18875,91.365753 v 0.257528 h -0.87136 v 0.807861 h 0.78317 v 0.257528 h -0.78317 v 0.889 h 0.87136 v 0.257527 h -1.17827 v -2.469444 z" />
    </g>
    <g
       transform="translate(-20.108333,-1.023552)"
       id="text876"
       style="font-style:normal;font-variant:normal;font-weight:normal;font-stretch:normal;font-size:3.52778px;line-height:1.25;font-family:'Share Tech Mono';-inkscape-font-specification:'Share Tech Mono';letter-spacing:0px;word-spacing:0px;fill:#000000;fill-opacity:1;stroke:none;stroke-width:0.264583"
       aria-label="CLOCK IN">
      <g
         style="font-size:4.9389px;line-height:1.25;font-family:'Share Tech Mono';-inkscape-font-specification:'Share Tech Mono';letter-spacing:0px;word-spacing:0px;stroke-width:0.0700042"
         id="text1714" />
      <g
         style="font-style:normal;font-variant:normal;font-weight:normal;font-stretch:normal;font-size:3.52778px;line-height:1.25;font-family:'Share Tech Mono';-inkscape-font-specification:'Share Tech Mono, Normal';font-variant-ligatures:normal;font-variant-caps:normal;font-variant-numeric:normal;font-variant-east-asian:normal;letter-spacing:0px;word-spacing:0px;stroke-width:0.0700042"
         id="text1718"
         aria-label="CLOCK">
        <path
           id="path3636"
           style="font-style:normal;font-variant:normal;font-weight:normal;font-stretch:normal;font-size:3.52778px;font-family:'Share Tech Mono';-inkscape-font-specification:'Share Tech Mono, Normal';font-variant-ligatures:normal;font-variant-caps:normal;font-variant-numeric:normal;font-variant-east-asian:normal;stroke-width:0.0700042"
           d="m 91.114286,67.24762 q -0.306917,0 -0.472723,-0.148167 -0.162278,-0.151695 -0.162278,-0.451556 v -1.270001 q 0,-0.299861 0.162278,-0.448028 0.165806,-0.151694 0.472723,-0.151694 h 0.500944 v 0.268111 h -0.536222 q -0.130528,0 -0.211667,0.07761 -0.08114,0.07761 -0.08114,0.186972 v 1.404057 q 0,0.109361 0.08114,0.186972 0.08114,0.07761 0.211667,0.07761 h 0.536222 v 0.268112 z" />
        <path
           id="path3638"
           style="font-style:normal;font-variant:normal;font-weight:normal;font-stretch:normal;font-size:3.52778px;font-family:'Share Tech Mono';-inkscape-font-specification:'Share Tech Mono, Normal';font-variant-ligatures:normal;font-variant-caps:normal;font-variant-numeric:normal;font-variant-east-asian:normal;stroke-width:0.0700042"
           d="m 92.709063,64.778174 v 2.201334 h 0.786695 v 0.268112 h -1.093612 v -2.469446 z" />
        <path
           id="path3640"
           style="font-style:normal;font-variant:normal;font-weight:normal;font-stretch:normal;font-size:3.52778px;font-family:'Share Tech Mono';-inkscape-font-specification:'Share Tech Mono, Normal';font-variant-ligatures:normal;font-variant-caps:normal;font-variant-numeric:normal;font-variant-east-asian:normal;stroke-width:0.0700042"
           d="m 95.556202,66.647897 q 0,0.299861 -0.165806,0.451556 -0.162278,0.148167 -0.469195,0.148167 H 94.78009 q -0.306917,0 -0.472723,-0.148167 -0.162277,-0.151695 -0.162277,-0.451556 v -1.270001 q 0,-0.299861 0.162277,-0.448028 0.165806,-0.151694 0.472723,-0.151694 h 0.141111 q 0.306917,0 0.469195,0.151694 0.165806,0.148167 0.165806,0.448028 z m -0.306917,-1.337029 q 0,-0.109361 -0.08114,-0.186972 -0.08114,-0.07761 -0.211667,-0.07761 h -0.211667 q -0.130528,0 -0.211667,0.07761 -0.08114,0.07761 -0.08114,0.186972 v 1.404057 q 0,0.109361 0.08114,0.186972 0.08114,0.07761 0.211667,0.07761 h 0.211667 q 0.130528,0 0.211667,-0.07761 0.08114,-0.07761 0.08114,-0.186972 z" />
        <path
           id="path3642"
           style="font-style:normal;font-variant:normal;font-weight:normal;font-stretch:normal;font-size:3.52778px;font-family:'Share Tech Mono';-inkscape-font-specification:'Share Tech Mono, Normal';font-variant-ligatures:normal;font-variant-caps:normal;font-variant-numeric:normal;font-variant-east-asian:normal;stroke-width:0.0700042"
           d="m 96.819367,67.24762 q -0.306916,0 -0.472722,-0.148167 -0.162278,-0.151695 -0.162278,-0.451556 v -1.270001 q 0,-0.299861 0.162278,-0.448028 0.165806,-0.151694 0.472722,-0.151694 h 0.500945 v 0.268111 H 96.78409 q -0.130528,0 -0.211667,0.07761 -0.08114,0.07761 -0.08114,0.186972 v 1.404057 q 0,0.109361 0.08114,0.186972 0.08114,0.07761 0.211667,0.07761 h 0.536222 v 0.268112 z" />
        <path
           id="path3644"
           style="font-style:normal;font-variant:normal;font-weight:normal;font-stretch:normal;font-size:3.52778px;font-family:'Share Tech Mono';-inkscape-font-specification:'Share Tech Mono, Normal';font-variant-ligatures:normal;font-variant-caps:normal;font-variant-numeric:normal;font-variant-east-asian:normal;stroke-width:0.0700042"
           d="M 98.2942,66.337452 V 67.24762 H 97.987283 V 64.778174 H 98.2942 v 1.065389 l 0.670278,-1.065389 h 0.335139 l -0.680861,1.090084 0.723195,1.379362 h -0.352778 l -0.560917,-1.111251 z" />
      </g>
      <g
         style="font-size:3.88056px;line-height:1.25;font-family:'Share Tech Mono';-inkscape-font-specification:'Share Tech Mono, Normal';letter-spacing:0px;word-spacing:0px;stroke-width:0.0700042"
         id="text3629" />
      <g
         style="font-size:3.88056px;line-height:1.25;font-family:'Share Tech Mono';-inkscape-font-specification:'Share Tech Mono, Normal';letter-spacing:0px;word-spacing:0px;stroke-width:0.0700042"
         id="text3633" />
    </g>
    <path
       style="display:inline;fill:#000000;fill-opacity:1;fill-rule:nonzero;stroke:none;stroke-width:0.58547413"
       d="m 101.11289,140.26395 c 0,-1.17114 -0.58092,-2.13096 -1.293699,-2.13096 h -9.932553 c -0.710997,0 -1.293684,0.95982 -1.293684,2.13096 v 25.92671 c 0,1.17114 0.582687,2.13096 1.293684,2.13096 h 9.932553 c 0.712779,0 1.293699,-0.95982 1.293699,-2.13096 z m 0,0"
       id="path36629"
       inkscape:connector-curvature="0" />
    <g
       id="text884-5"
       style="font-style:normal;font-variant:normal;font-weight:normal;font-stretch:normal;font-size:3.52777767px;line-height:1.25;font-family:'Share Tech Mono';-inkscape-font-specification:'Share Tech Mono';letter-spacing:0px;word-spacing:0px;display:inline;fill:#ffffff;fill-opacity:1;stroke:none;stroke-width:0.26458332"
       aria-label="OUT"
       transform="translate(-4.1610563,-3.1914583e-4)">
      <path
         id="path886-5"
         style="fill:#ffffff;stroke-width:0.26458332"
         d="m 97.814328,142.72488 q 0,0.29986 -0.165805,0.45155 -0.162278,0.14817 -0.469195,0.14817 h -0.141111 q -0.306916,0 -0.472722,-0.14817 -0.162278,-0.15169 -0.162278,-0.45155 v -1.27 q 0,-0.29986 0.162278,-0.44803 0.165806,-0.15169 0.472722,-0.15169 h 0.141111 q 0.306917,0 0.469195,0.15169 0.165805,0.14817 0.165805,0.44803 z m -0.306916,-1.33703 q 0,-0.10936 -0.08114,-0.18697 -0.08114,-0.0776 -0.211667,-0.0776 H 97.00294 q -0.130528,0 -0.211667,0.0776 -0.08114,0.0776 -0.08114,0.18697 v 1.40406 q 0,0.10936 0.08114,0.18697 0.08114,0.0776 0.211667,0.0776 h 0.211666 q 0.130528,0 0.211667,-0.0776 0.08114,-0.0776 0.08114,-0.18697 z"
         inkscape:connector-curvature="0" />
      <path
         id="path888-0"
         style="fill:#ffffff;stroke-width:0.26458332"
         d="m 99.687799,142.72488 q 0,0.29986 -0.165806,0.45155 -0.162278,0.14817 -0.469194,0.14817 h -0.08819 q -0.306916,0 -0.472722,-0.14817 -0.162278,-0.15169 -0.162278,-0.45155 v -1.86972 h 0.306917 v 1.93675 q 0,0.10936 0.08114,0.18697 0.08114,0.0776 0.211667,0.0776 h 0.15875 q 0.130527,0 0.211666,-0.0776 0.08114,-0.0776 0.08114,-0.18697 v -1.93675 h 0.306917 z"
         inkscape:connector-curvature="0" />
      <path
         id="path890-8"
         style="fill:#ffffff;stroke-width:0.26458332"
         d="m 100.75694,143.3246 v -2.20133 h -0.56092 v -0.26811 h 1.42875 v 0.26811 h -0.56092 v 2.20133 z"
         inkscape:connector-curvature="0" />
    </g>
    <g
       style="font-size:3.52777px;line-height:1.25;font-family:'Share Tech Mono';-inkscape-font-specification:'Share Tech Mono, Normal';letter-spacing:0px;word-spacing:0px;stroke-width:0.264583"
       id="text3651"
       aria-label="RATCHET">
      <path
         id="path3725"
         style="stroke-width:0.264583"
         d="m 88.789868,87.164012 v 1.023053 h -0.306916 v -2.469439 h 0.66322 q 0.299861,0 0.451555,0.134055 0.155222,0.130528 0.155222,0.416277 v 0.338666 q 0,0.398638 -0.317499,0.497416 l 0.49036,1.083025 h -0.335139 l -0.455082,-1.023053 z m 0.656165,-0.927804 q 0,-0.134055 -0.0635,-0.194027 -0.05997,-0.05997 -0.194027,-0.05997 h -0.398638 v 0.91722 h 0.398638 q 0.134055,0 0.194027,-0.05997 0.0635,-0.0635 0.0635,-0.197555 z" />
      <path
         id="path3727"
         style="stroke-width:0.264583"
         d="m 90.748,87.56265 -0.137583,0.624415 h -0.313971 l 0.596193,-2.469439 h 0.405694 l 0.585609,2.469439 H 91.569971 L 91.435916,87.56265 Z m 0.631471,-0.264583 -0.289277,-1.347608 -0.285749,1.347608 z" />
      <path
         id="path3729"
         style="stroke-width:0.264583"
         d="m 92.836661,88.187065 v -2.201328 h -0.560916 v -0.268111 h 1.428747 v 0.268111 h -0.560915 v 2.201328 z" />
      <path
         id="path3731"
         style="stroke-width:0.264583"
         d="m 94.960599,88.187065 q -0.306916,0 -0.472721,-0.148166 Q 94.3256,87.887205 94.3256,87.587344 v -1.269997 q 0,-0.29986 0.162278,-0.448027 0.165805,-0.151694 0.472721,-0.151694 h 0.500943 v 0.268111 h -0.536221 q -0.130527,0 -0.211666,0.07761 -0.08114,0.07761 -0.08114,0.186971 v 1.404053 q 0,0.109361 0.08114,0.186972 0.08114,0.07761 0.211666,0.07761 h 0.536221 v 0.26811 z" />
      <path
         id="path3733"
         style="stroke-width:0.264583"
         d="m 96.4319,87.051123 v 1.135942 H 96.124984 V 85.717626 H 96.4319 v 1.072442 h 0.72672 v -1.072442 h 0.306916 v 2.469439 H 97.15862 v -1.135942 z" />
      <path
         id="path3735"
         style="stroke-width:0.264583"
         d="m 99.286086,85.717626 v 0.257527 h -0.871359 v 0.80786 h 0.783165 v 0.257527 h -0.783165 v 0.888998 h 0.871359 v 0.257527 h -1.178275 v -2.469439 z" />
      <path
         id="path3737"
         style="stroke-width:0.264583"
         d="M 100.44342,88.187065 V 85.985737 H 99.8825 v -0.268111 h 1.42875 v 0.268111 h -0.56092 v 2.201328 z" />
    </g>
    <path
       style="display:inline;fill:none;stroke:#000000;stroke-width:0.123628px;stroke-linecap:butt;stroke-linejoin:miter;stroke-opacity:1"
       d="m 74.796769,127.70521 c 0,-3.71349 0,-3.75476 0,-3.75476"
       id="path27-1-3"
       inkscape:connector-curvature="0" />
    <path
       style="display:inline;fill:none;stroke:#000000;stroke-width:0.12147px;stroke-linecap:butt;stroke-linejoin:miter;stroke-opacity:1"
       d="m 74.793689,140.64779 c 0,-3.58499 0,-3.62483 0,-3.62483"
       id="path27-1-3-3"
       inkscape:connector-curvature="0" />
  </g>
</svg>
