<?xml version="1.0" encoding="UTF-8" standalone="no"?>
<svg
   xmlns:dc="http://purl.org/dc/elements/1.1/"
   xmlns:cc="http://creativecommons.org/ns#"
   xmlns:rdf="http://www.w3.org/1999/02/22-rdf-syntax-ns#"
   xmlns:svg="http://www.w3.org/2000/svg"
   xmlns="http://www.w3.org/2000/svg"
   xmlns:sodipodi="http://sodipodi.sourceforge.net/DTD/sodipodi-0.dtd"
   xmlns:inkscape="http://www.inkscape.org/namespaces/inkscape"
   width="101.6mm"
   height="128.5mm"
   viewBox="0 0 101.6 128.5"
   version="1.1"
   id="svg11003"
   inkscape:version="1.0 (4035a4fb49, 2020-05-01)"
   sodipodi:docname="bytebeat_front_panel.svg">
  <defs
     id="defs10997">
    <rect
       id="rect1075"
       height="39.528126"
       width="47.360416"
       y="114.30764"
       x="110.56587" />
  </defs>
  <sodipodi:namedview
     inkscape:lockguides="true"
     id="base"
     pagecolor="#ffffff"
     bordercolor="#666666"
     borderopacity="1.0"
     inkscape:pageopacity="0.0"
     inkscape:pageshadow="2"
     inkscape:zoom="2.8284271"
     inkscape:cx="238.40443"
     inkscape:cy="303.37967"
     inkscape:document-units="mm"
     inkscape:current-layer="layer1"
     showgrid="false"
     fit-margin-top="0"
     fit-margin-left="0"
     fit-margin-right="0"
     fit-margin-bottom="0"
     inkscape:window-width="3840"
     inkscape:window-height="2066"
     inkscape:window-x="2869"
     inkscape:window-y="-11"
     inkscape:window-maximized="1"
     units="mm"
     showguides="true"
     inkscape:guide-bbox="true"
     showborder="true"
     inkscape:document-rotation="0">
    <sodipodi:guide
       inkscape:color="rgb(0,0,255)"
       inkscape:locked="true"
       inkscape:label="c8"
       id="guide2283"
       orientation="-1,0"
       position="50.800001,128.5" />
    <sodipodi:guide
       inkscape:color="rgb(0,0,255)"
       inkscape:locked="true"
       inkscape:label="c4"
       id="guide2285"
       orientation="-1,0"
       position="25.4,128.5" />
    <sodipodi:guide
       inkscape:color="rgb(0,0,255)"
       inkscape:locked="true"
       inkscape:label="c12"
       id="guide2287"
       orientation="-1,0"
       position="76.200001,128.5" />
    <sodipodi:guide
       inkscape:color="rgb(0,0,255)"
       inkscape:locked="true"
       inkscape:label="c2"
       id="guide2289"
       orientation="-1,0"
       position="12.7,128.5" />
    <sodipodi:guide
       inkscape:color="rgb(0,0,255)"
       inkscape:locked="true"
       inkscape:label="c6"
       id="guide2291"
       orientation="-1,0"
       position="38.1,128.5" />
    <sodipodi:guide
       inkscape:color="rgb(0,0,255)"
       inkscape:locked="true"
       inkscape:label="c10"
       id="guide2293"
       orientation="-1,0"
       position="63.500001,128.5" />
    <sodipodi:guide
       inkscape:color="rgb(0,0,255)"
       inkscape:locked="true"
       inkscape:label="14"
       id="guide2295"
       orientation="-1,0"
       position="88.900001,128.5" />
    <sodipodi:guide
       inkscape:color="rgb(0,0,255)"
       inkscape:locked="true"
       inkscape:label="c1"
       id="guide2297"
       orientation="-1,0"
       position="6.3500001,128.5" />
    <sodipodi:guide
       inkscape:color="rgb(0,0,255)"
       inkscape:locked="true"
       inkscape:label="c3"
       id="guide2299"
       orientation="-1,0"
       position="19.05,128.5" />
    <sodipodi:guide
       inkscape:color="rgb(0,0,255)"
       inkscape:locked="true"
       inkscape:label="c5"
       id="guide2301"
       orientation="-1,0"
       position="31.75,128.5" />
    <sodipodi:guide
       inkscape:color="rgb(0,0,255)"
       inkscape:locked="true"
       inkscape:label="c7"
       id="guide2303"
       orientation="-1,0"
       position="44.45,128.5" />
    <sodipodi:guide
       inkscape:color="rgb(0,0,255)"
       inkscape:locked="true"
       inkscape:label="c9"
       id="guide2305"
       orientation="-1,0"
       position="57.150001,128.5" />
    <sodipodi:guide
       inkscape:color="rgb(0,0,255)"
       inkscape:locked="true"
       inkscape:label="c11"
       id="guide2307"
       orientation="-1,0"
       position="69.850001,128.5" />
    <sodipodi:guide
       inkscape:color="rgb(0,0,255)"
       inkscape:locked="true"
       inkscape:label="c13"
       id="guide2309"
       orientation="-1,0"
       position="82.550001,128.5" />
    <sodipodi:guide
       inkscape:color="rgb(0,0,255)"
       inkscape:locked="true"
       inkscape:label="15"
       id="guide2311"
       orientation="-1,0"
       position="95.250001,128.5" />
    <sodipodi:guide
       inkscape:color="rgb(0,0,255)"
       inkscape:locked="true"
       inkscape:label="r1"
       id="guide2313"
       orientation="0,1"
       position="0,120.46875" />
    <sodipodi:guide
       inkscape:color="rgb(0,0,255)"
       inkscape:locked="true"
       inkscape:label="r2"
       id="guide2315"
       orientation="0,1"
       position="0,112.4375" />
    <sodipodi:guide
       inkscape:color="rgb(0,0,255)"
       inkscape:locked="true"
       inkscape:label="r3"
       id="guide2317"
       orientation="0,1"
       position="0,104.40625" />
    <sodipodi:guide
       inkscape:color="rgb(0,0,255)"
       inkscape:locked="true"
       inkscape:label="r4"
       id="guide2319"
       orientation="0,1"
       position="0,96.375001" />
    <sodipodi:guide
       inkscape:color="rgb(0,0,255)"
       inkscape:locked="true"
       inkscape:label="r5"
       id="guide2321"
       orientation="0,1"
       position="0,88.343751" />
    <sodipodi:guide
       inkscape:color="rgb(0,0,255)"
       inkscape:locked="true"
       inkscape:label="r6"
       id="guide2323"
       orientation="0,1"
       position="0,80.312001" />
    <sodipodi:guide
       inkscape:color="rgb(0,0,255)"
       inkscape:locked="true"
       inkscape:label="r7"
       id="guide2325"
       orientation="0,1"
       position="0,72.281251" />
    <sodipodi:guide
       inkscape:color="rgb(0,0,255)"
       inkscape:locked="true"
       inkscape:label="r8"
       id="guide2327"
       orientation="0,1"
       position="0,64.250001" />
    <sodipodi:guide
       inkscape:color="rgb(0,0,255)"
       inkscape:locked="true"
       inkscape:label="r9"
       id="guide2329"
       orientation="0,1"
       position="0,56.218751" />
    <sodipodi:guide
       inkscape:color="rgb(0,0,255)"
       inkscape:locked="true"
       inkscape:label="r10"
       id="guide2331"
       orientation="0,1"
       position="0,48.188001" />
    <sodipodi:guide
       inkscape:color="rgb(0,0,255)"
       inkscape:locked="true"
       inkscape:label="r11"
       id="guide2333"
       orientation="0,1"
       position="0,40.15625" />
    <sodipodi:guide
       inkscape:color="rgb(0,0,255)"
       inkscape:locked="true"
       inkscape:label="r12"
       id="guide2335"
       orientation="0,1"
       position="0,32.125" />
    <sodipodi:guide
       inkscape:color="rgb(0,0,255)"
       inkscape:locked="true"
       inkscape:label="r13"
       id="guide2337"
       orientation="0,1"
       position="0,24.09375" />
    <sodipodi:guide
       inkscape:color="rgb(0,0,255)"
       inkscape:locked="true"
       inkscape:label="r14"
       id="guide2339"
       orientation="0,1"
       position="0,16.0625" />
    <sodipodi:guide
       inkscape:color="rgb(0,0,255)"
       inkscape:locked="true"
       inkscape:label="r15"
       id="guide2341"
       orientation="0,1"
       position="0,8.0312501" />
  </sodipodi:namedview>
  <metadata
     id="metadata11000">
    <rdf:RDF>
      <cc:Work
         rdf:about="">
        <dc:format>image/svg+xml</dc:format>
        <dc:type
           rdf:resource="http://purl.org/dc/dcmitype/StillImage" />
        <dc:title />
      </cc:Work>
    </rdf:RDF>
  </metadata>
  <g
     inkscape:label="Panel Layer"
     inkscape:groupmode="layer"
     id="layer1"
     transform="translate(-64.792954,-47.169623)"
     style="display:inline">
    <path
       inkscape:connector-curvature="0"
       id="path33429"
       d="M 64.792955,47.169618 H 166.39296 V 175.66962 H 64.792955 Z m 0,0"
       style="fill:#e6e6e6;fill-opacity:1;fill-rule:nonzero;stroke:none;stroke-width:0.46019"
       sodipodi:insensitive="true" />
    <text
       xml:space="preserve"
       style="font-style:normal;font-weight:normal;font-size:4.58611px;line-height:1.25;font-family:sans-serif;letter-spacing:0px;word-spacing:0px;fill:#000000;fill-opacity:1;stroke:none;stroke-width:0.264583"
       x="75.943253"
       y="53.772301"
       id="text110" />
    <g
       aria-label="voxglitch"
       style="font-style:normal;font-variant:normal;font-weight:normal;font-stretch:normal;font-size:3.88056px;line-height:1.25;font-family:'Sitka Subheading';-inkscape-font-specification:'Sitka Subheading';letter-spacing:0px;word-spacing:0px;fill:#999999;fill-opacity:1;stroke:none;stroke-width:0.264583"
       id="text939"
       transform="translate(15.320752,0.11235302)">
      <path
         d="m 139.18399,173.2094 q -0.01,-0.0251 -0.0289,-0.0389 -0.0176,-0.0138 -0.0426,-0.0226 l -0.0953,-0.0389 v -0.0778 h 0.58451 v 0.0778 l -0.18438,0.0539 0.29727,0.70116 0.059,0.17811 h 0.0138 l 0.3324,-0.85293 -0.17435,-0.0803 v -0.0778 h 0.47915 v 0.0778 l -0.0991,0.0615 q -0.0251,0.0125 -0.0439,0.0263 -0.0188,0.0138 -0.0289,0.0364 l -0.34369,0.83914 -0.13672,0.27344 h -0.10787 z"
         style="font-size:2.82222px;fill:#999999;stroke-width:0.264583"
         id="path941"
         inkscape:connector-curvature="0" />
      <path
         d="m 141.14323,174.36588 q -0.14048,0 -0.25588,-0.0477 -0.11539,-0.0477 -0.19818,-0.13547 -0.0815,-0.0891 -0.12669,-0.21574 -0.0439,-0.12669 -0.0439,-0.28348 0,-0.1455 0.0439,-0.27093 0.0452,-0.12544 0.12669,-0.21826 0.0828,-0.0928 0.20069,-0.1455 0.11791,-0.0539 0.26592,-0.0539 0.16055,0 0.2772,0.0564 0.11791,0.0564 0.19442,0.15052 0.0778,0.0941 0.1154,0.21825 0.0376,0.12292 0.0376,0.25839 0,0.14299 -0.0439,0.26843 -0.0439,0.12543 -0.12669,0.2195 -0.0815,0.0928 -0.19943,0.14676 -0.11791,0.0527 -0.26718,0.0527 z m 0.0188,-0.11791 q 0.10536,0 0.17435,-0.0514 0.0702,-0.0514 0.11038,-0.13045 0.0414,-0.0803 0.0577,-0.17561 0.0163,-0.0966 0.0163,-0.18564 0,-0.10912 -0.0213,-0.21449 -0.0201,-0.10661 -0.0665,-0.19065 -0.0451,-0.084 -0.1179,-0.13547 -0.0727,-0.0514 -0.17686,-0.0514 -0.0702,0 -0.12418,0.0238 -0.0527,0.0238 -0.0928,0.064 -0.0401,0.0401 -0.0677,0.0941 -0.0263,0.0527 -0.0439,0.11289 -0.0163,0.0602 -0.0238,0.12292 -0.006,0.0627 -0.006,0.12167 0,0.0665 0.008,0.13672 0.008,0.069 0.0251,0.13547 0.0188,0.0652 0.0477,0.12418 0.0289,0.059 0.0715,0.10285 0.0426,0.0439 0.0991,0.0702 0.0577,0.0263 0.1317,0.0263 z"
         style="font-size:2.82222px;fill:#999999;stroke-width:0.264583"
         id="path943"
         inkscape:connector-curvature="0" />
      <path
         d="m 141.90933,174.25424 0.11163,-0.0464 q 0.0263,-0.01 0.0502,-0.0289 0.0251,-0.0201 0.0389,-0.0364 l 0.35622,-0.44152 -0.3487,-0.48793 q -0.0151,-0.0226 -0.0351,-0.0389 -0.0201,-0.0176 -0.0489,-0.0263 l -0.11289,-0.0389 v -0.0778 h 0.57198 v 0.0778 l -0.13422,0.0514 0.19568,0.28096 0.069,0.12418 h 0.009 l 0.29351,-0.3926 -0.11916,-0.064 v -0.0778 h 0.44277 v 0.0778 l -0.11163,0.0477 q -0.0263,0.01 -0.0502,0.0289 -0.0226,0.0188 -0.0376,0.0364 l -0.34243,0.42396 0.36125,0.50549 q 0.0163,0.0226 0.0364,0.0401 0.0213,0.0163 0.0489,0.0251 l 0.10913,0.0376 v 0.079 h -0.57197 v -0.079 l 0.13672,-0.0502 -0.20947,-0.29978 -0.069,-0.12292 h -0.009 l -0.30605,0.41016 0.11916,0.0627 v 0.079 h -0.44403 z"
         style="font-size:2.82222px;fill:#999999;stroke-width:0.264583"
         id="path945"
         inkscape:connector-curvature="0" />
      <path
         d="m 143.66884,174.29815 q -0.0326,-0.01 -0.069,-0.0289 -0.0351,-0.0188 -0.0652,-0.0477 -0.0301,-0.0289 -0.0502,-0.0677 -0.0188,-0.0401 -0.0188,-0.0916 0,-0.0577 0.0213,-0.10034 0.0226,-0.0439 0.0564,-0.074 0.0339,-0.0314 0.0753,-0.0502 0.0414,-0.0188 0.079,-0.0276 v -0.009 q -0.0389,-0.0226 -0.0778,-0.0539 -0.0389,-0.0326 -0.0702,-0.0765 -0.0301,-0.0439 -0.0502,-0.10035 -0.0188,-0.0577 -0.0188,-0.13045 0,-0.0928 0.0364,-0.17435 0.0376,-0.0815 0.10536,-0.14174 0.0677,-0.0602 0.16306,-0.0941 0.0953,-0.0351 0.21198,-0.0351 0.0753,0 0.14299,0.01 0.0677,0.01 0.13045,0.0263 h 0.44027 l -0.0151,0.15428 -0.3324,-0.0426 v 0.008 q 0.0301,0.0326 0.0539,0.0652 0.0238,0.0326 0.0401,0.069 0.0176,0.0351 0.0263,0.0753 0.009,0.0389 0.009,0.0853 0,0.0928 -0.0351,0.17184 -0.0339,0.079 -0.0991,0.13798 -0.0652,0.0577 -0.16056,0.0903 -0.0941,0.0326 -0.21574,0.0326 -0.0314,0 -0.064,-0.003 -0.0314,-0.004 -0.0602,-0.008 -0.0289,-0.005 -0.0539,-0.0113 -0.0238,-0.006 -0.0401,-0.0126 -0.0188,0.004 -0.0376,0.0151 -0.0176,0.0113 -0.0326,0.0289 -0.0151,0.0163 -0.0251,0.0389 -0.009,0.0226 -0.009,0.0489 0,0.0263 0.009,0.0502 0.009,0.0226 0.0238,0.0401 0.0151,0.0176 0.0339,0.0301 0.0201,0.0113 0.0414,0.0151 h 0.44278 q 0.12543,0 0.20947,0.0301 0.0853,0.0301 0.13672,0.079 0.0527,0.0489 0.074,0.10912 0.0226,0.059 0.0226,0.11791 0,0.10913 -0.0539,0.19944 -0.0527,0.0916 -0.14551,0.15679 -0.0928,0.0665 -0.21825,0.10285 -0.12543,0.0364 -0.26968,0.0364 -0.12417,0 -0.22954,-0.0213 -0.10411,-0.0213 -0.18062,-0.064 -0.0765,-0.0414 -0.12041,-0.10285 -0.0427,-0.0615 -0.0427,-0.14174 0,-0.0652 0.0226,-0.1154 0.0238,-0.0502 0.0615,-0.0878 0.0376,-0.0364 0.0865,-0.0615 0.0502,-0.0251 0.10536,-0.0401 z m 0.31985,-0.52055 q 0.064,0 0.11289,-0.0238 0.0489,-0.0238 0.0815,-0.069 0.0326,-0.0451 0.0489,-0.10912 0.0176,-0.0652 0.0176,-0.14676 0,-0.079 -0.0188,-0.14048 -0.0188,-0.0615 -0.0539,-0.10411 -0.0339,-0.0427 -0.0828,-0.064 -0.0477,-0.0226 -0.10661,-0.0226 -0.0577,0 -0.10411,0.0213 -0.0464,0.0213 -0.0803,0.064 -0.0339,0.0414 -0.0527,0.10411 -0.0176,0.0615 -0.0176,0.143 0,0.0828 0.0176,0.14801 0.0188,0.064 0.0514,0.10912 0.0339,0.0439 0.0815,0.0677 0.0477,0.0226 0.10536,0.0226 z m -0.21449,0.5356 q -0.0238,0.006 -0.0502,0.0238 -0.0263,0.0176 -0.0477,0.0464 -0.0213,0.0289 -0.0351,0.069 -0.0138,0.0414 -0.0138,0.0941 0,0.0527 0.0188,0.0941 0.0188,0.0414 0.0502,0.0715 0.0326,0.0301 0.074,0.0502 0.0414,0.0201 0.0853,0.0326 0.0439,0.0125 0.0866,0.0176 0.0439,0.005 0.0803,0.005 0.0778,0 0.15428,-0.0163 0.0778,-0.0151 0.13797,-0.0514 0.0615,-0.0351 0.0991,-0.0916 0.0376,-0.0552 0.0376,-0.13422 0,-0.0364 -0.0151,-0.074 -0.0138,-0.0376 -0.0451,-0.0677 -0.0301,-0.0301 -0.0803,-0.0489 -0.0489,-0.0201 -0.11665,-0.0201 z"
         style="font-size:2.82222px;fill:#999999;stroke-width:0.264583"
         id="path947"
         inkscape:connector-curvature="0" />
      <path
         d="m 144.83179,174.25424 0.16933,-0.0439 q 0.0238,-0.006 0.0376,-0.0213 0.0151,-0.0163 0.0151,-0.0427 v -1.4826 q 0,-0.0289 -0.0163,-0.0464 -0.0163,-0.0188 -0.0464,-0.0288 l -0.16557,-0.0615 v -0.0702 l 0.46535,-0.0477 v 1.73723 q 0,0.0263 0.015,0.0427 0.0163,0.0163 0.0376,0.0213 l 0.16056,0.0439 v 0.079 h -0.67232 z"
         style="font-size:2.82222px;fill:#999999;stroke-width:0.264583"
         id="path949"
         inkscape:connector-curvature="0" />
      <path
         d="m 145.98401,172.74655 q -0.0351,0 -0.0665,-0.0113 -0.0301,-0.0125 -0.0539,-0.0326 -0.0226,-0.0201 -0.0364,-0.0489 -0.0138,-0.0301 -0.0138,-0.0665 0,-0.0364 0.0138,-0.0665 0.0138,-0.0301 0.0364,-0.0502 0.0238,-0.0213 0.0539,-0.0326 0.0314,-0.0113 0.0665,-0.0113 0.0376,0 0.0702,0.0113 0.0326,0.01 0.0552,0.0301 0.0238,0.0201 0.0364,0.0489 0.0138,0.0276 0.0138,0.064 0,0.0376 -0.0138,0.0677 -0.0125,0.0301 -0.0364,0.0527 -0.0238,0.0213 -0.0564,0.0339 -0.0326,0.0113 -0.069,0.0113 z m -0.32612,1.50769 0.1731,-0.0439 q 0.0238,-0.006 0.0389,-0.0213 0.0151,-0.0163 0.0151,-0.0427 v -0.85795 q 0,-0.0289 -0.0163,-0.0464 -0.0163,-0.0188 -0.0477,-0.0289 l -0.1593,-0.0552 v -0.0702 l 0.45908,-0.074 v 1.13265 q 0,0.0263 0.0151,0.0427 0.0163,0.0163 0.0376,0.0213 l 0.16683,0.0439 v 0.079 h -0.68235 z"
         style="font-size:2.82222px;fill:#999999;stroke-width:0.264583"
         id="path951"
         inkscape:connector-curvature="0" />
      <path
         d="m 146.65956,173.16299 h -0.20947 v -0.0966 q 0.0514,-0.01 0.0928,-0.0188 0.0426,-0.009 0.0727,-0.0276 0.0301,-0.0201 0.0477,-0.0552 0.0188,-0.0351 0.0226,-0.0966 l 0.01,-0.17435 0.20069,-0.0389 v 0.38005 h 0.46034 l -0.0188,0.12795 h -0.44152 v 0.87049 q 0,0.0414 0.0263,0.0703 0.0264,0.0288 0.064,0.0477 0.0389,0.0188 0.0803,0.0276 0.0414,0.008 0.0728,0.008 0.0213,0 0.0477,-0.004 0.0276,-0.005 0.0527,-0.01 0.0251,-0.006 0.0464,-0.0138 0.0226,-0.008 0.0339,-0.0126 h 0.0326 v 0.0891 q -0.0176,0.0113 -0.0539,0.0314 -0.0351,0.0201 -0.0828,0.0401 -0.0464,0.0201 -0.10286,0.0339 -0.0552,0.0151 -0.11163,0.0151 -0.0703,0 -0.13296,-0.0176 -0.0615,-0.0176 -0.10787,-0.0502 -0.0464,-0.0326 -0.074,-0.0803 -0.0276,-0.0489 -0.0276,-0.11164 z"
         style="font-size:2.82222px;fill:#999999;stroke-width:0.264583"
         id="path953"
         inkscape:connector-curvature="0" />
      <path
         d="m 148.58823,174.02345 v 0.12418 q -0.0427,0.0376 -0.0966,0.0765 -0.0527,0.0376 -0.11666,0.069 -0.0627,0.0314 -0.13546,0.0502 -0.0728,0.0201 -0.15428,0.0201 -0.13547,0 -0.2446,-0.0502 -0.10912,-0.0502 -0.18564,-0.13798 -0.0765,-0.089 -0.1179,-0.20821 -0.0401,-0.11917 -0.0401,-0.25839 0,-0.10035 0.0238,-0.19192 0.0251,-0.0916 0.0702,-0.17058 0.0452,-0.079 0.10787,-0.143 0.064,-0.0652 0.14049,-0.11038 0.0778,-0.0451 0.16682,-0.0702 0.0891,-0.0251 0.18564,-0.0251 0.074,0 0.13045,0.0125 0.0577,0.0113 0.10035,0.0276 0.0439,0.0151 0.074,0.0326 0.0314,0.0163 0.0552,0.0263 l -0.0201,0.23455 h -0.0464 q -0.0477,-0.0301 -0.0953,-0.0615 -0.0464,-0.0326 -0.0978,-0.0577 -0.0502,-0.0263 -0.10787,-0.0426 -0.0577,-0.0176 -0.1292,-0.0176 -0.0226,0 -0.0489,0.006 -0.0263,0.005 -0.0527,0.0163 -0.0263,0.0113 -0.0489,0.0263 -0.0226,0.0151 -0.0389,0.0339 -0.0201,0.0226 -0.0414,0.0565 -0.0201,0.0326 -0.0376,0.0828 -0.0163,0.0489 -0.0276,0.1154 -0.01,0.0665 -0.01,0.15553 0,0.12795 0.0276,0.22829 0.0276,0.10035 0.0828,0.17059 0.0552,0.0702 0.13672,0.10787 0.0815,0.0364 0.1894,0.0364 0.0602,0 0.11414,-0.0176 0.0552,-0.0176 0.10286,-0.0414 0.0477,-0.0251 0.0865,-0.0539 0.0401,-0.0289 0.069,-0.0514 z"
         style="font-size:2.82222px;fill:#999999;stroke-width:0.264583"
         id="path955"
         inkscape:connector-curvature="0" />
      <path
         d="m 148.74492,174.25424 0.14551,-0.0439 q 0.0263,-0.008 0.0389,-0.0226 0.0138,-0.0151 0.0138,-0.0414 v -1.4826 q 0,-0.0289 -0.0163,-0.0464 -0.0163,-0.0176 -0.0464,-0.0288 l -0.14425,-0.0615 v -0.0702 l 0.44278,-0.0477 v 0.73879 0.0677 q 0.0552,-0.0727 0.10787,-0.1154 0.0539,-0.0439 0.10536,-0.0665 0.0527,-0.0238 0.10286,-0.0314 0.0514,-0.008 0.1016,-0.008 0.0865,0 0.16181,0.0263 0.0765,0.0251 0.13295,0.079 0.0577,0.0539 0.0903,0.13923 0.0326,0.0853 0.0326,0.2032 v 0.6974 q 0,0.0314 0.0151,0.0477 0.0151,0.0163 0.0364,0.0226 l 0.13296,0.0439 v 0.079 h -0.60458 v -0.079 l 0.13296,-0.0439 q 0.0213,-0.006 0.0364,-0.0226 0.0151,-0.0163 0.0151,-0.0477 v -0.59956 q 0,-0.0878 -0.0113,-0.15554 -0.01,-0.069 -0.0414,-0.11665 -0.0314,-0.0489 -0.0878,-0.074 -0.0552,-0.0251 -0.1455,-0.0251 -0.0414,0 -0.084,0.006 -0.0426,0.006 -0.084,0.0213 -0.0414,0.0151 -0.079,0.0401 -0.0376,0.0251 -0.0665,0.0615 v 0.84792 q 0,0.0263 0.0138,0.0414 0.0151,0.0151 0.0389,0.0226 l 0.11791,0.0439 v 0.079 h -0.60459 z"
         style="font-size:2.82222px;fill:#999999;stroke-width:0.264583"
         id="path957"
         inkscape:connector-curvature="0" />
    </g>
    <text
       xml:space="preserve"
       style="font-style:normal;font-variant:normal;font-weight:normal;font-stretch:normal;font-size:3.88056px;line-height:1.25;font-family:'Share Tech Mono';-inkscape-font-specification:'Share Tech Mono';letter-spacing:0px;word-spacing:0px;fill:#000000;fill-opacity:1;stroke:none;stroke-width:0.264583"
       x="110.48083"
       y="98.467987"
       id="text2911" />
    <text
       xml:space="preserve"
       style="font-style:normal;font-variant:normal;font-weight:normal;font-stretch:normal;font-size:3.88056px;line-height:1.25;font-family:'Share Tech Mono';-inkscape-font-specification:'Share Tech Mono';letter-spacing:0px;word-spacing:0px;fill:#000000;fill-opacity:1;stroke:none;stroke-width:0.264583"
       x="101.74013"
       y="99.554665"
       id="text2915" />
    <g
       aria-label="LENGTH"
       style="font-style:normal;font-variant:normal;font-weight:normal;font-stretch:normal;font-size:3.52778px;line-height:1.25;font-family:'Share Tech Mono';-inkscape-font-specification:'Share Tech Mono';letter-spacing:0px;word-spacing:0px;fill:#000046;fill-opacity:1;stroke:none;stroke-width:0.264583"
       id="text2919"
       transform="translate(-1.405896,4.2215415)" />
    <g
       transform="translate(12.700001)"
       style="font-size:4.93889px;line-height:1.25;font-family:'Share Tech Mono';-inkscape-font-specification:'Share Tech Mono, Normal';letter-spacing:0px;word-spacing:0px;stroke-width:0.264583"
       id="text981"
       aria-label="BYTEBEAT">
      <path
         id="path983"
         style="font-size:4.93889px;stroke-width:0.264583"
         d="m 94.448641,55.146501 q 0,0.424744 -0.197555,0.602545 -0.192617,0.1778 -0.642056,0.1778 h -0.987778 v -3.457223 h 0.928511 q 0.439562,0 0.642056,0.1778 0.207434,0.1778 0.207434,0.592666 v 0.281517 q 0,0.380295 -0.271639,0.572911 0.321027,0.1778 0.321027,0.607484 z m -0.479072,-1.950862 q 0,-0.187677 -0.0889,-0.271639 -0.08396,-0.08396 -0.271639,-0.08396 h -0.558094 v 1.091495 h 0.558094 q 0.153106,0 0.256822,-0.09878 0.103717,-0.09878 0.103717,-0.261761 z m 0.04939,1.461912 q 0,-0.162984 -0.09878,-0.256822 -0.09878,-0.09878 -0.261761,-0.09878 h -0.607483 v 1.254478 h 0.602544 q 0.187678,0 0.276578,-0.08396 0.0889,-0.0889 0.0889,-0.276578 z" />
      <path
         id="path985"
         style="font-size:4.93889px;stroke-width:0.264583"
         d="m 95.965189,55.926846 v -1.60514 l -0.884061,-1.852083 h 0.474134 l 0.651933,1.437217 0.651934,-1.437217 h 0.449439 l -0.898878,1.852083 v 1.60514 z" />
      <path
         id="path987"
         style="font-size:4.93889px;stroke-width:0.264583"
         d="m 98.642377,55.926846 v -3.081868 h -0.785284 v -0.375355 h 2.00025 v 0.375355 H 99.07206 v 3.081868 z" />
      <path
         id="path989"
         style="font-size:4.93889px;stroke-width:0.264583"
         d="m 102.34685,52.469623 v 0.360539 h -1.2199 v 1.131005 h 1.09643 v 0.360539 h -1.09643 v 1.244601 h 1.2199 v 0.360539 h -1.64959 v -3.457223 z" />
      <path
         id="path991"
         style="font-size:4.93889px;stroke-width:0.264583"
         d="m 105.09812,55.146501 q 0,0.424744 -0.19755,0.602545 -0.19262,0.1778 -0.64206,0.1778 h -0.98778 v -3.457223 h 0.92852 q 0.43956,0 0.64205,0.1778 0.20743,0.1778 0.20743,0.592666 v 0.281517 q 0,0.380295 -0.27163,0.572911 0.32102,0.1778 0.32102,0.607484 z m -0.47907,-1.950862 q 0,-0.187677 -0.0889,-0.271639 -0.084,-0.08396 -0.27164,-0.08396 h -0.55809 v 1.091495 h 0.55809 q 0.15311,0 0.25682,-0.09878 0.10372,-0.09878 0.10372,-0.261761 z m 0.0494,1.461912 q 0,-0.162984 -0.0988,-0.256822 -0.0988,-0.09878 -0.26176,-0.09878 h -0.60748 v 1.254478 h 0.60254 q 0.18768,0 0.27658,-0.08396 0.0889,-0.0889 0.0889,-0.276578 z" />
      <path
         id="path993"
         style="font-size:4.93889px;stroke-width:0.264583"
         d="m 107.67159,52.469623 v 0.360539 h -1.2199 v 1.131005 h 1.09643 v 0.360539 h -1.09643 v 1.244601 h 1.2199 v 0.360539 H 106.022 v -3.457223 z" />
      <path
         id="path995"
         style="font-size:4.93889px;stroke-width:0.264583"
         d="m 109.0301,55.052662 -0.19262,0.874184 h -0.43956 l 0.83467,-3.457223 h 0.56797 l 0.81986,3.457223 h -0.43956 l -0.18768,-0.874184 z m 0.88406,-0.370417 -0.40499,-1.886656 -0.40005,1.886656 z" />
      <path
         id="path997"
         style="font-size:4.93889px;stroke-width:0.264583"
         d="m 111.95423,55.926846 v -3.081868 h -0.78528 v -0.375355 h 2.00025 v 0.375355 h -0.78529 v 3.081868 z" />
    </g>
    <g
       id="g3157">
      <path
         style="display:inline;opacity:1;fill:#e6e6e6;fill-opacity:1;stroke:#000000;stroke-width:0.3;stroke-linecap:butt;stroke-linejoin:miter;stroke-miterlimit:4;stroke-dasharray:none;stroke-opacity:0.362319"
         d="m 115.59297,77.307711 c -10e-6,4.7366 -2e-5,4.78922 -2e-5,4.78922"
         id="path27-1-2-2-3-7-9-1-5-5-6-0-8"
         inkscape:connector-curvature="0" />
      <path
         inkscape:connector-curvature="0"
         id="path27-1-2-2-3-7-9-1-5-5-6-0-8-6"
         d="m 134.64297,77.307712 c -1e-5,4.736599 -2e-5,4.78922 -2e-5,4.78922"
         style="display:inline;opacity:1;fill:#e6e6e6;fill-opacity:1;stroke:#000000;stroke-width:0.3;stroke-linecap:butt;stroke-linejoin:miter;stroke-miterlimit:4;stroke-dasharray:none;stroke-opacity:0.362319" />
      <path
         style="display:inline;opacity:1;fill:#e6e6e6;fill-opacity:1;stroke:#000000;stroke-width:0.3;stroke-linecap:butt;stroke-linejoin:miter;stroke-miterlimit:4;stroke-dasharray:none;stroke-opacity:0.362319"
         d="m 153.69295,77.307712 c -1e-5,4.736599 -2e-5,4.78922 -2e-5,4.78922"
         id="path27-1-2-2-3-7-9-1-5-5-6-0-8-6-7"
         inkscape:connector-curvature="0" />
    </g>
    <g
       style="font-style:normal;font-variant:normal;font-weight:normal;font-stretch:normal;font-size:3.175px;line-height:1.25;font-family:'Share Tech Mono';-inkscape-font-specification:'Share Tech Mono, Normal';font-variant-ligatures:normal;font-variant-caps:normal;font-variant-numeric:normal;font-variant-east-asian:normal;letter-spacing:0px;word-spacing:0px;display:inline;stroke-width:0.264583"
       id="text3218-2"
       aria-label="PARAMETERS"
       transform="translate(0,-40.202197)">
      <path
         id="path3357"
         style="font-style:normal;font-variant:normal;font-weight:normal;font-stretch:normal;font-size:3.52778px;font-family:'Share Tech Mono';-inkscape-font-specification:'Share Tech Mono, Normal';font-variant-ligatures:normal;font-variant-caps:normal;font-variant-numeric:normal;font-variant-east-asian:normal;stroke-width:0.264583"
         d="m 110.4733,101.90832 q 0,0.28575 -0.15169,0.42333 -0.1517,0.13406 -0.44803,0.13406 h -0.36689 v 0.95955 h -0.30692 v -2.46944 h 0.66675 q 0.29986,0 0.45156,0.13405 0.15522,0.13053 0.15522,0.41628 z m -0.30692,-0.43392 q 0,-0.13406 -0.0635,-0.19403 -0.06,-0.06 -0.19403,-0.06 h -0.40216 v 0.98072 h 0.40216 q 0.13406,0 0.19403,-0.06 0.0635,-0.0635 0.0635,-0.19756 z" />
      <path
         id="path3359"
         style="font-style:normal;font-variant:normal;font-weight:normal;font-stretch:normal;font-size:3.52778px;font-family:'Share Tech Mono';-inkscape-font-specification:'Share Tech Mono, Normal';font-variant-ligatures:normal;font-variant-caps:normal;font-variant-numeric:normal;font-variant-east-asian:normal;stroke-width:0.264583"
         d="m 111.39427,102.80085 -0.13758,0.62441 h -0.31398 l 0.5962,-2.46944 h 0.40569 l 0.58562,2.46944 h -0.31398 l -0.13405,-0.62441 z m 0.63147,-0.26459 -0.28927,-1.34761 -0.28575,1.34761 z" />
      <path
         id="path3361"
         style="font-style:normal;font-variant:normal;font-weight:normal;font-stretch:normal;font-size:3.52778px;font-family:'Share Tech Mono';-inkscape-font-specification:'Share Tech Mono, Normal';font-variant-ligatures:normal;font-variant-caps:normal;font-variant-numeric:normal;font-variant-east-asian:normal;stroke-width:0.264583"
         d="m 113.23952,102.40221 v 1.02305 h -0.30692 v -2.46944 h 0.66323 q 0.29986,0 0.45155,0.13405 0.15522,0.13053 0.15522,0.41628 v 0.33867 q 0,0.39864 -0.3175,0.49741 l 0.49037,1.08303 h -0.33514 l -0.45509,-1.02305 z m 0.65617,-0.92781 q 0,-0.13406 -0.0635,-0.19403 -0.06,-0.06 -0.19403,-0.06 h -0.39864 v 0.91722 h 0.39864 q 0.13405,0 0.19403,-0.06 0.0635,-0.0635 0.0635,-0.19756 z" />
      <path
         id="path3363"
         style="font-style:normal;font-variant:normal;font-weight:normal;font-stretch:normal;font-size:3.52778px;font-family:'Share Tech Mono';-inkscape-font-specification:'Share Tech Mono, Normal';font-variant-ligatures:normal;font-variant-caps:normal;font-variant-numeric:normal;font-variant-east-asian:normal;stroke-width:0.264583"
         d="m 115.19766,102.80085 -0.13758,0.62441 h -0.31398 l 0.5962,-2.46944 h 0.40569 l 0.58561,2.46944 h -0.31397 l -0.13405,-0.62441 z m 0.63147,-0.26459 -0.28928,-1.34761 -0.28575,1.34761 z" />
      <path
         id="path3365"
         style="font-style:normal;font-variant:normal;font-weight:normal;font-stretch:normal;font-size:3.52778px;font-family:'Share Tech Mono';-inkscape-font-specification:'Share Tech Mono, Normal';font-variant-ligatures:normal;font-variant-caps:normal;font-variant-numeric:normal;font-variant-east-asian:normal;stroke-width:0.264583"
         d="m 117.58266,102.59623 h -0.29281 l -0.34572,-1.38641 v 2.21544 h -0.26811 v -2.46944 h 0.49036 l 0.28222,1.26294 0.28575,-1.26294 h 0.47625 v 2.46944 h -0.27516 v -2.21544 z" />
      <path
         id="path3367"
         style="font-style:normal;font-variant:normal;font-weight:normal;font-stretch:normal;font-size:3.52778px;font-family:'Share Tech Mono';-inkscape-font-specification:'Share Tech Mono, Normal';font-variant-ligatures:normal;font-variant-caps:normal;font-variant-numeric:normal;font-variant-east-asian:normal;stroke-width:0.264583"
         d="m 119.93238,100.95582 v 0.25752 h -0.87136 v 0.80787 h 0.78317 v 0.25752 h -0.78317 v 0.889 h 0.87136 v 0.25753 h -1.17828 v -2.46944 z" />
      <path
         id="path3369"
         style="font-style:normal;font-variant:normal;font-weight:normal;font-stretch:normal;font-size:3.52778px;font-family:'Share Tech Mono';-inkscape-font-specification:'Share Tech Mono, Normal';font-variant-ligatures:normal;font-variant-caps:normal;font-variant-numeric:normal;font-variant-east-asian:normal;stroke-width:0.264583"
         d="m 121.08971,103.42526 v -2.20133 h -0.56091 v -0.26811 h 1.42875 v 0.26811 h -0.56092 v 2.20133 z" />
      <path
         id="path3371"
         style="font-style:normal;font-variant:normal;font-weight:normal;font-stretch:normal;font-size:3.52778px;font-family:'Share Tech Mono';-inkscape-font-specification:'Share Tech Mono, Normal';font-variant-ligatures:normal;font-variant-caps:normal;font-variant-numeric:normal;font-variant-east-asian:normal;stroke-width:0.264583"
         d="m 123.73577,100.95582 v 0.25752 h -0.87136 v 0.80787 h 0.78316 v 0.25752 h -0.78316 v 0.889 h 0.87136 v 0.25753 h -1.17828 v -2.46944 z" />
      <path
         id="path3373"
         style="font-style:normal;font-variant:normal;font-weight:normal;font-stretch:normal;font-size:3.52778px;font-family:'Share Tech Mono';-inkscape-font-specification:'Share Tech Mono, Normal';font-variant-ligatures:normal;font-variant-caps:normal;font-variant-numeric:normal;font-variant-east-asian:normal;stroke-width:0.264583"
         d="m 124.64968,102.40221 v 1.02305 h -0.30691 v -2.46944 h 0.66322 q 0.29986,0 0.45156,0.13405 0.15522,0.13053 0.15522,0.41628 v 0.33867 q 0,0.39864 -0.3175,0.49741 l 0.49036,1.08303 h -0.33514 l -0.45508,-1.02305 z m 0.65617,-0.92781 q 0,-0.13406 -0.0635,-0.19403 -0.06,-0.06 -0.19403,-0.06 h -0.39864 v 0.91722 h 0.39864 q 0.13406,0 0.19403,-0.06 0.0635,-0.0635 0.0635,-0.19756 z" />
      <path
         id="path3375"
         style="font-style:normal;font-variant:normal;font-weight:normal;font-stretch:normal;font-size:3.52778px;font-family:'Share Tech Mono';-inkscape-font-specification:'Share Tech Mono, Normal';font-variant-ligatures:normal;font-variant-caps:normal;font-variant-numeric:normal;font-variant-east-asian:normal;stroke-width:0.264583"
         d="m 127.54621,102.82554 q 0,0.29986 -0.1658,0.45156 -0.16228,0.14816 -0.4692,0.14816 h -0.50094 v -0.26811 h 0.53622 q 0.13053,0 0.21167,-0.0776 0.0811,-0.0776 0.0811,-0.18697 v -0.36689 q 0,-0.10583 -0.0564,-0.16933 -0.0529,-0.067 -0.16228,-0.067 h -0.10583 q -0.26106,0 -0.41275,-0.1517 -0.1517,-0.15522 -0.1517,-0.44803 v -0.13405 q 0,-0.29986 0.16228,-0.44803 0.16581,-0.15169 0.47273,-0.15169 h 0.50447 v 0.26811 h -0.53975 q -0.13053,0 -0.21167,0.0776 -0.0811,0.0776 -0.0811,0.18697 v 0.26811 q 0,0.10936 0.0706,0.18345 0.0705,0.0705 0.18344,0.0705 h 0.10584 q 0.25047,0 0.38805,0.14464 0.14111,0.14464 0.14111,0.43745 z" />
    </g>
    <g
       transform="translate(0,5.540995)"
       style="font-style:normal;font-variant:normal;font-weight:normal;font-stretch:normal;font-size:3.175px;line-height:1.25;font-family:'Share Tech Mono';-inkscape-font-specification:'Share Tech Mono, Normal';font-variant-ligatures:normal;font-variant-caps:normal;font-variant-numeric:normal;font-variant-east-asian:normal;letter-spacing:0px;word-spacing:0px;display:inline;stroke-width:0.264583"
       id="text3218-2-9"
       aria-label="EQUATION">
      <path
         id="path3317"
         style="font-style:normal;font-variant:normal;font-weight:normal;font-stretch:normal;font-size:3.52778px;font-family:'Share Tech Mono';-inkscape-font-specification:'Share Tech Mono, Normal';font-variant-ligatures:normal;font-variant-caps:normal;font-variant-numeric:normal;font-variant-east-asian:normal;stroke-width:0.264583"
         d="m 77.763236,55.212629 v 0.257528 h -0.871362 v 0.807862 h 0.783167 v 0.257528 h -0.783167 v 0.889001 h 0.871362 v 0.257528 h -1.178279 v -2.469447 z" />
      <path
         id="path3319"
         style="font-style:normal;font-variant:normal;font-weight:normal;font-stretch:normal;font-size:3.52778px;font-family:'Share Tech Mono';-inkscape-font-specification:'Share Tech Mono, Normal';font-variant-ligatures:normal;font-variant-caps:normal;font-variant-numeric:normal;font-variant-east-asian:normal;stroke-width:0.264583"
         d="m 79.485013,57.618575 q -0.137584,0.0635 -0.338667,0.0635 h -0.141111 q -0.306917,0 -0.472723,-0.148167 -0.162278,-0.151695 -0.162278,-0.451556 v -1.270001 q 0,-0.299861 0.162278,-0.448028 0.165806,-0.151695 0.472723,-0.151695 h 0.141111 q 0.306917,0 0.469195,0.151695 0.165805,0.148167 0.165805,0.448028 v 1.270001 q 0,0.208139 -0.08114,0.34925 l 0.257528,0.257528 -0.201083,0.201084 z m -0.01058,-1.873251 q 0,-0.109361 -0.08114,-0.186972 -0.08114,-0.07761 -0.211667,-0.07761 h -0.211667 q -0.130528,0 -0.211667,0.07761 -0.08114,0.07761 -0.08114,0.186972 v 1.404057 q 0,0.109361 0.08114,0.186972 0.08114,0.07761 0.211667,0.07761 h 0.211667 q 0.130528,0 0.211667,-0.07761 0.08114,-0.07761 0.08114,-0.186972 z" />
      <path
         id="path3321"
         style="font-style:normal;font-variant:normal;font-weight:normal;font-stretch:normal;font-size:3.52778px;font-family:'Share Tech Mono';-inkscape-font-specification:'Share Tech Mono, Normal';font-variant-ligatures:normal;font-variant-caps:normal;font-variant-numeric:normal;font-variant-east-asian:normal;stroke-width:0.264583"
         d="m 81.654818,57.082353 q 0,0.299861 -0.165806,0.451556 -0.162278,0.148167 -0.469194,0.148167 h -0.08819 q -0.306917,0 -0.472722,-0.148167 -0.162278,-0.151695 -0.162278,-0.451556 v -1.869724 h 0.306917 v 1.936752 q 0,0.109361 0.08114,0.186972 0.08114,0.07761 0.211666,0.07761 h 0.15875 q 0.130528,0 0.211667,-0.07761 0.08114,-0.07761 0.08114,-0.186972 v -1.936752 h 0.306917 z" />
      <path
         id="path3323"
         style="font-style:normal;font-variant:normal;font-weight:normal;font-stretch:normal;font-size:3.52778px;font-family:'Share Tech Mono';-inkscape-font-specification:'Share Tech Mono, Normal';font-variant-ligatures:normal;font-variant-caps:normal;font-variant-numeric:normal;font-variant-east-asian:normal;stroke-width:0.264583"
         d="M 82.536984,57.057658 82.3994,57.682076 h -0.313972 l 0.596195,-2.469447 h 0.405694 l 0.585612,2.469447 h -0.313973 l -0.134055,-0.624418 z m 0.631472,-0.264583 -0.289278,-1.347612 -0.28575,1.347612 z" />
      <path
         id="path3325"
         style="font-style:normal;font-variant:normal;font-weight:normal;font-stretch:normal;font-size:3.52778px;font-family:'Share Tech Mono';-inkscape-font-specification:'Share Tech Mono, Normal';font-variant-ligatures:normal;font-variant-caps:normal;font-variant-numeric:normal;font-variant-east-asian:normal;stroke-width:0.264583"
         d="m 84.62565,57.682076 v -2.201335 h -0.560917 v -0.268112 h 1.428751 v 0.268112 h -0.560917 v 2.201335 z" />
      <path
         id="path3327"
         style="font-style:normal;font-variant:normal;font-weight:normal;font-stretch:normal;font-size:3.52778px;font-family:'Share Tech Mono';-inkscape-font-specification:'Share Tech Mono, Normal';font-variant-ligatures:normal;font-variant-caps:normal;font-variant-numeric:normal;font-variant-east-asian:normal;stroke-width:0.264583"
         d="m 86.527344,57.424548 v -1.954391 h -0.317501 v -0.257528 h 0.941918 v 0.257528 h -0.3175 v 1.954391 h 0.3175 v 0.257528 h -0.941918 v -0.257528 z" />
      <path
         id="path3329"
         style="font-style:normal;font-variant:normal;font-weight:normal;font-stretch:normal;font-size:3.52778px;font-family:'Share Tech Mono';-inkscape-font-specification:'Share Tech Mono, Normal';font-variant-ligatures:normal;font-variant-caps:normal;font-variant-numeric:normal;font-variant-east-asian:normal;stroke-width:0.264583"
         d="m 89.289816,57.082353 q 0,0.299861 -0.165805,0.451556 -0.162278,0.148167 -0.469195,0.148167 h -0.141111 q -0.306917,0 -0.472723,-0.148167 -0.162278,-0.151695 -0.162278,-0.451556 v -1.270001 q 0,-0.299861 0.162278,-0.448028 0.165806,-0.151695 0.472723,-0.151695 h 0.141111 q 0.306917,0 0.469195,0.151695 0.165805,0.148167 0.165805,0.448028 z m -0.306917,-1.337029 q 0,-0.109361 -0.08114,-0.186972 -0.08114,-0.07761 -0.211666,-0.07761 h -0.211667 q -0.130528,0 -0.211667,0.07761 -0.08114,0.07761 -0.08114,0.186972 v 1.404057 q 0,0.109361 0.08114,0.186972 0.08114,0.07761 0.211667,0.07761 h 0.211667 q 0.130528,0 0.211666,-0.07761 0.08114,-0.07761 0.08114,-0.186972 z" />
      <path
         id="path3331"
         style="font-style:normal;font-variant:normal;font-weight:normal;font-stretch:normal;font-size:3.52778px;font-family:'Share Tech Mono';-inkscape-font-specification:'Share Tech Mono, Normal';font-variant-ligatures:normal;font-variant-caps:normal;font-variant-numeric:normal;font-variant-east-asian:normal;stroke-width:0.264583"
         d="m 90.097898,57.682076 h -0.28575 v -2.469447 h 0.500944 l 0.55739,2.208391 v -2.208391 h 0.28575 v 2.469447 h -0.504473 l -0.553861,-2.208391 z" />
    </g>
    <g
       style="font-size:3.52777px;line-height:1.25;font-family:'Share Tech Mono';-inkscape-font-specification:'Share Tech Mono, Normal';letter-spacing:0px;word-spacing:0px;stroke-width:0.264583"
       id="text3380"
       aria-label="RATE">
      <path
         id="path3382"
         style="stroke-width:0.264583"
         d="m 80.647152,94.33359 v 1.023054 h -0.306916 v -2.469439 h 0.663221 q 0.29986,0 0.451554,0.134055 0.155222,0.130527 0.155222,0.416277 v 0.338666 q 0,0.398638 -0.317499,0.497415 l 0.49036,1.083026 H 81.447956 L 80.992874,94.33359 Z m 0.656165,-0.927803 q 0,-0.134055 -0.0635,-0.194028 -0.05997,-0.05997 -0.194028,-0.05997 h -0.398638 v 0.917221 h 0.398638 q 0.134055,0 0.194028,-0.05997 0.0635,-0.0635 0.0635,-0.197556 z" />
      <path
         id="path3384"
         style="stroke-width:0.264583"
         d="m 82.605285,94.732228 -0.137583,0.624416 H 82.15373 l 0.596194,-2.469439 h 0.405693 l 0.58561,2.469439 H 83.427255 L 83.2932,94.732228 Z m 0.631471,-0.264582 -0.289277,-1.347609 -0.28575,1.347609 z" />
      <path
         id="path3386"
         style="stroke-width:0.264583"
         d="M 84.693945,95.356644 V 93.155315 H 84.13303 v -0.26811 h 1.428747 v 0.26811 h -0.560916 v 2.201329 z" />
      <path
         id="path3388"
         style="stroke-width:0.264583"
         d="m 87.339993,92.887205 v 0.257527 h -0.871359 v 0.807859 h 0.783165 v 0.257527 h -0.783165 v 0.888998 h 0.871359 v 0.257528 h -1.178275 v -2.469439 z" />
    </g>
    <path
       inkscape:connector-curvature="0"
       id="path36629"
       d="m 159.93133,154.22748 c 0,-0.4857 -0.58092,-0.88376 -1.2937,-0.88376 h -9.93261 c -0.711,0 -1.29369,0.39806 -1.29369,0.88376 v 10.75248 c 0,0.4857 0.58269,0.88376 1.29369,0.88376 h 9.93261 c 0.71278,0 1.2937,-0.39806 1.2937,-0.88376 z m 0,0"
       style="display:inline;fill:#000000;fill-opacity:1;fill-rule:nonzero;stroke:none;stroke-width:0.45562" />
    <path
       inkscape:connector-curvature="0"
       id="path27-1-3-1"
       d="M 83.842949,74.96879 C 96.403388,87.18884 96.542948,87.324624 96.542948,87.324624"
       style="display:inline;opacity:1;fill:none;stroke:#000000;stroke-width:0.140039px;stroke-linecap:butt;stroke-linejoin:miter;stroke-opacity:1" />
    <path
       style="display:inline;opacity:1;fill:none;stroke:#000000;stroke-width:0.140039px;stroke-linecap:butt;stroke-linejoin:miter;stroke-opacity:1"
       d="m 83.842951,103.38837 c 12.560434,7.94299 12.7,8.03125 12.7,8.03125"
       id="path27-1-3-1-5"
       inkscape:connector-curvature="0" />
  </g>
</svg>
