<?xml version="1.0" encoding="UTF-8" standalone="no"?>
<svg
   xmlns:dc="http://purl.org/dc/elements/1.1/"
   xmlns:cc="http://creativecommons.org/ns#"
   xmlns:rdf="http://www.w3.org/1999/02/22-rdf-syntax-ns#"
   xmlns:svg="http://www.w3.org/2000/svg"
   xmlns="http://www.w3.org/2000/svg"
   xmlns:sodipodi="http://sodipodi.sourceforge.net/DTD/sodipodi-0.dtd"
   xmlns:inkscape="http://www.inkscape.org/namespaces/inkscape"
   sodipodi:docname="samplerx8_front_panel.svg"
   inkscape:version="1.0 (4035a4fb49, 2020-05-01)"
   id="svg11003"
   version="1.1"
   viewBox="0 0 76.199996 128.5"
   height="128.5mm"
   width="76.199997mm">
  <defs
     id="defs10997" />
  <sodipodi:namedview
     inkscape:document-rotation="0"
     showborder="true"
     inkscape:guide-bbox="true"
     showguides="true"
     units="mm"
     inkscape:window-maximized="1"
     inkscape:window-y="-11"
     inkscape:window-x="2869"
     inkscape:window-height="2066"
     inkscape:window-width="3840"
     fit-margin-bottom="0"
     fit-margin-right="0"
     fit-margin-left="0"
     fit-margin-top="0"
     showgrid="false"
     inkscape:current-layer="layer1"
     inkscape:document-units="mm"
     inkscape:cy="138.27135"
     inkscape:cx="209.09963"
     inkscape:zoom="4"
     inkscape:pageshadow="2"
     inkscape:pageopacity="0.0"
     borderopacity="1.0"
     bordercolor="#666666"
     pagecolor="#ffffff"
     id="base">
    <sodipodi:guide
       inkscape:color="rgb(0,0,255)"
       inkscape:label=""
       inkscape:locked="false"
       id="guide873"
       orientation="0,1"
       position="62.392648,19.939" />
    <sodipodi:guide
       inkscape:locked="false"
       id="guide1667"
       orientation="-1,0"
       position="30.66,100.49334"
       inkscape:label=""
       inkscape:color="rgb(0,0,255)" />
    <sodipodi:guide
       position="36.899925,7.7366079"
       orientation="0,-1"
       id="guide1598" />
    <sodipodi:guide
       position="47.823999,21.089798"
       orientation="-1,0"
       id="guide1600"
       inkscape:label=""
       inkscape:locked="false"
       inkscape:color="rgb(0,0,255)" />
    <sodipodi:guide
       position="40.659999,91.836311"
       orientation="-1,0"
       id="guide1673"
       inkscape:label=""
       inkscape:locked="false"
       inkscape:color="rgb(0,0,255)" />
    <sodipodi:guide
       position="8.4189899,105.30101"
       orientation="0,-1"
       id="guide1697" />
    <sodipodi:guide
       inkscape:color="rgb(0,0,255)"
       inkscape:locked="false"
       inkscape:label=""
       id="guide969"
       orientation="-1,0"
       position="20.66,137.5738" />
  </sodipodi:namedview>
  <metadata
     id="metadata11000">
    <rdf:RDF>
      <cc:Work
         rdf:about="">
        <dc:format>image/svg+xml</dc:format>
        <dc:type
           rdf:resource="http://purl.org/dc/dcmitype/StillImage" />
        <dc:title></dc:title>
      </cc:Work>
    </rdf:RDF>
  </metadata>
  <g
     style="display:inline"
     transform="translate(-64.792954,-47.169623)"
     id="layer1"
     inkscape:groupmode="layer"
     inkscape:label="Panel Layer">
    <path
       style="fill:#e6e6e6;fill-opacity:1;fill-rule:nonzero;stroke:none;stroke-width:0.46019"
       d="M 64.792951,47.169618 H 140.99295 V 175.66962 H 64.792951 Z m 0,0"
       id="path33429"
       inkscape:connector-curvature="0" />
    <text
       id="text110"
       y="53.772301"
       x="75.943253"
       style="font-style:normal;font-weight:normal;font-size:4.58611px;line-height:1.25;font-family:sans-serif;letter-spacing:0px;word-spacing:0px;fill:#000000;fill-opacity:1;stroke:none;stroke-width:0.264583"
       xml:space="preserve" />
    <g
       transform="translate(-10.079248,0.11235302)"
       id="text939"
       style="font-style:normal;font-variant:normal;font-weight:normal;font-stretch:normal;font-size:3.88056px;line-height:1.25;font-family:'Sitka Subheading';-inkscape-font-specification:'Sitka Subheading';letter-spacing:0px;word-spacing:0px;fill:#999999;fill-opacity:1;stroke:none;stroke-width:0.264583"
       aria-label="voxglitch">
      <path
         inkscape:connector-curvature="0"
         id="path941"
         style="font-size:2.82222px;fill:#999999;stroke-width:0.264583"
         d="m 139.18399,173.2094 q -0.01,-0.0251 -0.0289,-0.0389 -0.0176,-0.0138 -0.0426,-0.0226 l -0.0953,-0.0389 v -0.0778 h 0.58451 v 0.0778 l -0.18438,0.0539 0.29727,0.70116 0.059,0.17811 h 0.0138 l 0.3324,-0.85293 -0.17435,-0.0803 v -0.0778 h 0.47915 v 0.0778 l -0.0991,0.0615 q -0.0251,0.0125 -0.0439,0.0263 -0.0188,0.0138 -0.0289,0.0364 l -0.34369,0.83914 -0.13672,0.27344 h -0.10787 z" />
      <path
         inkscape:connector-curvature="0"
         id="path943"
         style="font-size:2.82222px;fill:#999999;stroke-width:0.264583"
         d="m 141.14323,174.36588 q -0.14048,0 -0.25588,-0.0477 -0.11539,-0.0477 -0.19818,-0.13547 -0.0815,-0.0891 -0.12669,-0.21574 -0.0439,-0.12669 -0.0439,-0.28348 0,-0.1455 0.0439,-0.27093 0.0452,-0.12544 0.12669,-0.21826 0.0828,-0.0928 0.20069,-0.1455 0.11791,-0.0539 0.26592,-0.0539 0.16055,0 0.2772,0.0564 0.11791,0.0564 0.19442,0.15052 0.0778,0.0941 0.1154,0.21825 0.0376,0.12292 0.0376,0.25839 0,0.14299 -0.0439,0.26843 -0.0439,0.12543 -0.12669,0.2195 -0.0815,0.0928 -0.19943,0.14676 -0.11791,0.0527 -0.26718,0.0527 z m 0.0188,-0.11791 q 0.10536,0 0.17435,-0.0514 0.0702,-0.0514 0.11038,-0.13045 0.0414,-0.0803 0.0577,-0.17561 0.0163,-0.0966 0.0163,-0.18564 0,-0.10912 -0.0213,-0.21449 -0.0201,-0.10661 -0.0665,-0.19065 -0.0451,-0.084 -0.1179,-0.13547 -0.0727,-0.0514 -0.17686,-0.0514 -0.0702,0 -0.12418,0.0238 -0.0527,0.0238 -0.0928,0.064 -0.0401,0.0401 -0.0677,0.0941 -0.0263,0.0527 -0.0439,0.11289 -0.0163,0.0602 -0.0238,0.12292 -0.006,0.0627 -0.006,0.12167 0,0.0665 0.008,0.13672 0.008,0.069 0.0251,0.13547 0.0188,0.0652 0.0477,0.12418 0.0289,0.059 0.0715,0.10285 0.0426,0.0439 0.0991,0.0702 0.0577,0.0263 0.1317,0.0263 z" />
      <path
         inkscape:connector-curvature="0"
         id="path945"
         style="font-size:2.82222px;fill:#999999;stroke-width:0.264583"
         d="m 141.90933,174.25424 0.11163,-0.0464 q 0.0263,-0.01 0.0502,-0.0289 0.0251,-0.0201 0.0389,-0.0364 l 0.35622,-0.44152 -0.3487,-0.48793 q -0.0151,-0.0226 -0.0351,-0.0389 -0.0201,-0.0176 -0.0489,-0.0263 l -0.11289,-0.0389 v -0.0778 h 0.57198 v 0.0778 l -0.13422,0.0514 0.19568,0.28096 0.069,0.12418 h 0.009 l 0.29351,-0.3926 -0.11916,-0.064 v -0.0778 h 0.44277 v 0.0778 l -0.11163,0.0477 q -0.0263,0.01 -0.0502,0.0289 -0.0226,0.0188 -0.0376,0.0364 l -0.34243,0.42396 0.36125,0.50549 q 0.0163,0.0226 0.0364,0.0401 0.0213,0.0163 0.0489,0.0251 l 0.10913,0.0376 v 0.079 h -0.57197 v -0.079 l 0.13672,-0.0502 -0.20947,-0.29978 -0.069,-0.12292 h -0.009 l -0.30605,0.41016 0.11916,0.0627 v 0.079 h -0.44403 z" />
      <path
         inkscape:connector-curvature="0"
         id="path947"
         style="font-size:2.82222px;fill:#999999;stroke-width:0.264583"
         d="m 143.66884,174.29815 q -0.0326,-0.01 -0.069,-0.0289 -0.0351,-0.0188 -0.0652,-0.0477 -0.0301,-0.0289 -0.0502,-0.0677 -0.0188,-0.0401 -0.0188,-0.0916 0,-0.0577 0.0213,-0.10034 0.0226,-0.0439 0.0564,-0.074 0.0339,-0.0314 0.0753,-0.0502 0.0414,-0.0188 0.079,-0.0276 v -0.009 q -0.0389,-0.0226 -0.0778,-0.0539 -0.0389,-0.0326 -0.0702,-0.0765 -0.0301,-0.0439 -0.0502,-0.10035 -0.0188,-0.0577 -0.0188,-0.13045 0,-0.0928 0.0364,-0.17435 0.0376,-0.0815 0.10536,-0.14174 0.0677,-0.0602 0.16306,-0.0941 0.0953,-0.0351 0.21198,-0.0351 0.0753,0 0.14299,0.01 0.0677,0.01 0.13045,0.0263 h 0.44027 l -0.0151,0.15428 -0.3324,-0.0426 v 0.008 q 0.0301,0.0326 0.0539,0.0652 0.0238,0.0326 0.0401,0.069 0.0176,0.0351 0.0263,0.0753 0.009,0.0389 0.009,0.0853 0,0.0928 -0.0351,0.17184 -0.0339,0.079 -0.0991,0.13798 -0.0652,0.0577 -0.16056,0.0903 -0.0941,0.0326 -0.21574,0.0326 -0.0314,0 -0.064,-0.003 -0.0314,-0.004 -0.0602,-0.008 -0.0289,-0.005 -0.0539,-0.0113 -0.0238,-0.006 -0.0401,-0.0126 -0.0188,0.004 -0.0376,0.0151 -0.0176,0.0113 -0.0326,0.0289 -0.0151,0.0163 -0.0251,0.0389 -0.009,0.0226 -0.009,0.0489 0,0.0263 0.009,0.0502 0.009,0.0226 0.0238,0.0401 0.0151,0.0176 0.0339,0.0301 0.0201,0.0113 0.0414,0.0151 h 0.44278 q 0.12543,0 0.20947,0.0301 0.0853,0.0301 0.13672,0.079 0.0527,0.0489 0.074,0.10912 0.0226,0.059 0.0226,0.11791 0,0.10913 -0.0539,0.19944 -0.0527,0.0916 -0.14551,0.15679 -0.0928,0.0665 -0.21825,0.10285 -0.12543,0.0364 -0.26968,0.0364 -0.12417,0 -0.22954,-0.0213 -0.10411,-0.0213 -0.18062,-0.064 -0.0765,-0.0414 -0.12041,-0.10285 -0.0427,-0.0615 -0.0427,-0.14174 0,-0.0652 0.0226,-0.1154 0.0238,-0.0502 0.0615,-0.0878 0.0376,-0.0364 0.0865,-0.0615 0.0502,-0.0251 0.10536,-0.0401 z m 0.31985,-0.52055 q 0.064,0 0.11289,-0.0238 0.0489,-0.0238 0.0815,-0.069 0.0326,-0.0451 0.0489,-0.10912 0.0176,-0.0652 0.0176,-0.14676 0,-0.079 -0.0188,-0.14048 -0.0188,-0.0615 -0.0539,-0.10411 -0.0339,-0.0427 -0.0828,-0.064 -0.0477,-0.0226 -0.10661,-0.0226 -0.0577,0 -0.10411,0.0213 -0.0464,0.0213 -0.0803,0.064 -0.0339,0.0414 -0.0527,0.10411 -0.0176,0.0615 -0.0176,0.143 0,0.0828 0.0176,0.14801 0.0188,0.064 0.0514,0.10912 0.0339,0.0439 0.0815,0.0677 0.0477,0.0226 0.10536,0.0226 z m -0.21449,0.5356 q -0.0238,0.006 -0.0502,0.0238 -0.0263,0.0176 -0.0477,0.0464 -0.0213,0.0289 -0.0351,0.069 -0.0138,0.0414 -0.0138,0.0941 0,0.0527 0.0188,0.0941 0.0188,0.0414 0.0502,0.0715 0.0326,0.0301 0.074,0.0502 0.0414,0.0201 0.0853,0.0326 0.0439,0.0125 0.0866,0.0176 0.0439,0.005 0.0803,0.005 0.0778,0 0.15428,-0.0163 0.0778,-0.0151 0.13797,-0.0514 0.0615,-0.0351 0.0991,-0.0916 0.0376,-0.0552 0.0376,-0.13422 0,-0.0364 -0.0151,-0.074 -0.0138,-0.0376 -0.0451,-0.0677 -0.0301,-0.0301 -0.0803,-0.0489 -0.0489,-0.0201 -0.11665,-0.0201 z" />
      <path
         inkscape:connector-curvature="0"
         id="path949"
         style="font-size:2.82222px;fill:#999999;stroke-width:0.264583"
         d="m 144.83179,174.25424 0.16933,-0.0439 q 0.0238,-0.006 0.0376,-0.0213 0.0151,-0.0163 0.0151,-0.0427 v -1.4826 q 0,-0.0289 -0.0163,-0.0464 -0.0163,-0.0188 -0.0464,-0.0288 l -0.16557,-0.0615 v -0.0702 l 0.46535,-0.0477 v 1.73723 q 0,0.0263 0.015,0.0427 0.0163,0.0163 0.0376,0.0213 l 0.16056,0.0439 v 0.079 h -0.67232 z" />
      <path
         inkscape:connector-curvature="0"
         id="path951"
         style="font-size:2.82222px;fill:#999999;stroke-width:0.264583"
         d="m 145.98401,172.74655 q -0.0351,0 -0.0665,-0.0113 -0.0301,-0.0125 -0.0539,-0.0326 -0.0226,-0.0201 -0.0364,-0.0489 -0.0138,-0.0301 -0.0138,-0.0665 0,-0.0364 0.0138,-0.0665 0.0138,-0.0301 0.0364,-0.0502 0.0238,-0.0213 0.0539,-0.0326 0.0314,-0.0113 0.0665,-0.0113 0.0376,0 0.0702,0.0113 0.0326,0.01 0.0552,0.0301 0.0238,0.0201 0.0364,0.0489 0.0138,0.0276 0.0138,0.064 0,0.0376 -0.0138,0.0677 -0.0125,0.0301 -0.0364,0.0527 -0.0238,0.0213 -0.0564,0.0339 -0.0326,0.0113 -0.069,0.0113 z m -0.32612,1.50769 0.1731,-0.0439 q 0.0238,-0.006 0.0389,-0.0213 0.0151,-0.0163 0.0151,-0.0427 v -0.85795 q 0,-0.0289 -0.0163,-0.0464 -0.0163,-0.0188 -0.0477,-0.0289 l -0.1593,-0.0552 v -0.0702 l 0.45908,-0.074 v 1.13265 q 0,0.0263 0.0151,0.0427 0.0163,0.0163 0.0376,0.0213 l 0.16683,0.0439 v 0.079 h -0.68235 z" />
      <path
         inkscape:connector-curvature="0"
         id="path953"
         style="font-size:2.82222px;fill:#999999;stroke-width:0.264583"
         d="m 146.65956,173.16299 h -0.20947 v -0.0966 q 0.0514,-0.01 0.0928,-0.0188 0.0426,-0.009 0.0727,-0.0276 0.0301,-0.0201 0.0477,-0.0552 0.0188,-0.0351 0.0226,-0.0966 l 0.01,-0.17435 0.20069,-0.0389 v 0.38005 h 0.46034 l -0.0188,0.12795 h -0.44152 v 0.87049 q 0,0.0414 0.0263,0.0703 0.0264,0.0288 0.064,0.0477 0.0389,0.0188 0.0803,0.0276 0.0414,0.008 0.0728,0.008 0.0213,0 0.0477,-0.004 0.0276,-0.005 0.0527,-0.01 0.0251,-0.006 0.0464,-0.0138 0.0226,-0.008 0.0339,-0.0126 h 0.0326 v 0.0891 q -0.0176,0.0113 -0.0539,0.0314 -0.0351,0.0201 -0.0828,0.0401 -0.0464,0.0201 -0.10286,0.0339 -0.0552,0.0151 -0.11163,0.0151 -0.0703,0 -0.13296,-0.0176 -0.0615,-0.0176 -0.10787,-0.0502 -0.0464,-0.0326 -0.074,-0.0803 -0.0276,-0.0489 -0.0276,-0.11164 z" />
      <path
         inkscape:connector-curvature="0"
         id="path955"
         style="font-size:2.82222px;fill:#999999;stroke-width:0.264583"
         d="m 148.58823,174.02345 v 0.12418 q -0.0427,0.0376 -0.0966,0.0765 -0.0527,0.0376 -0.11666,0.069 -0.0627,0.0314 -0.13546,0.0502 -0.0728,0.0201 -0.15428,0.0201 -0.13547,0 -0.2446,-0.0502 -0.10912,-0.0502 -0.18564,-0.13798 -0.0765,-0.089 -0.1179,-0.20821 -0.0401,-0.11917 -0.0401,-0.25839 0,-0.10035 0.0238,-0.19192 0.0251,-0.0916 0.0702,-0.17058 0.0452,-0.079 0.10787,-0.143 0.064,-0.0652 0.14049,-0.11038 0.0778,-0.0451 0.16682,-0.0702 0.0891,-0.0251 0.18564,-0.0251 0.074,0 0.13045,0.0125 0.0577,0.0113 0.10035,0.0276 0.0439,0.0151 0.074,0.0326 0.0314,0.0163 0.0552,0.0263 l -0.0201,0.23455 h -0.0464 q -0.0477,-0.0301 -0.0953,-0.0615 -0.0464,-0.0326 -0.0978,-0.0577 -0.0502,-0.0263 -0.10787,-0.0426 -0.0577,-0.0176 -0.1292,-0.0176 -0.0226,0 -0.0489,0.006 -0.0263,0.005 -0.0527,0.0163 -0.0263,0.0113 -0.0489,0.0263 -0.0226,0.0151 -0.0389,0.0339 -0.0201,0.0226 -0.0414,0.0565 -0.0201,0.0326 -0.0376,0.0828 -0.0163,0.0489 -0.0276,0.1154 -0.01,0.0665 -0.01,0.15553 0,0.12795 0.0276,0.22829 0.0276,0.10035 0.0828,0.17059 0.0552,0.0702 0.13672,0.10787 0.0815,0.0364 0.1894,0.0364 0.0602,0 0.11414,-0.0176 0.0552,-0.0176 0.10286,-0.0414 0.0477,-0.0251 0.0865,-0.0539 0.0401,-0.0289 0.069,-0.0514 z" />
      <path
         inkscape:connector-curvature="0"
         id="path957"
         style="font-size:2.82222px;fill:#999999;stroke-width:0.264583"
         d="m 148.74492,174.25424 0.14551,-0.0439 q 0.0263,-0.008 0.0389,-0.0226 0.0138,-0.0151 0.0138,-0.0414 v -1.4826 q 0,-0.0289 -0.0163,-0.0464 -0.0163,-0.0176 -0.0464,-0.0288 l -0.14425,-0.0615 v -0.0702 l 0.44278,-0.0477 v 0.73879 0.0677 q 0.0552,-0.0727 0.10787,-0.1154 0.0539,-0.0439 0.10536,-0.0665 0.0527,-0.0238 0.10286,-0.0314 0.0514,-0.008 0.1016,-0.008 0.0865,0 0.16181,0.0263 0.0765,0.0251 0.13295,0.079 0.0577,0.0539 0.0903,0.13923 0.0326,0.0853 0.0326,0.2032 v 0.6974 q 0,0.0314 0.0151,0.0477 0.0151,0.0163 0.0364,0.0226 l 0.13296,0.0439 v 0.079 h -0.60458 v -0.079 l 0.13296,-0.0439 q 0.0213,-0.006 0.0364,-0.0226 0.0151,-0.0163 0.0151,-0.0477 v -0.59956 q 0,-0.0878 -0.0113,-0.15554 -0.01,-0.069 -0.0414,-0.11665 -0.0314,-0.0489 -0.0878,-0.074 -0.0552,-0.0251 -0.1455,-0.0251 -0.0414,0 -0.084,0.006 -0.0426,0.006 -0.084,0.0213 -0.0414,0.0151 -0.079,0.0401 -0.0376,0.0251 -0.0665,0.0615 v 0.84792 q 0,0.0263 0.0138,0.0414 0.0151,0.0151 0.0389,0.0226 l 0.11791,0.0439 v 0.079 h -0.60459 z" />
    </g>
    <text
       id="text2911"
       y="98.467987"
       x="110.48083"
       style="font-style:normal;font-variant:normal;font-weight:normal;font-stretch:normal;font-size:3.88056px;line-height:1.25;font-family:'Share Tech Mono';-inkscape-font-specification:'Share Tech Mono';letter-spacing:0px;word-spacing:0px;fill:#000000;fill-opacity:1;stroke:none;stroke-width:0.264583"
       xml:space="preserve" />
    <text
       id="text2915"
       y="99.554665"
       x="101.74013"
       style="font-style:normal;font-variant:normal;font-weight:normal;font-stretch:normal;font-size:3.88056px;line-height:1.25;font-family:'Share Tech Mono';-inkscape-font-specification:'Share Tech Mono';letter-spacing:0px;word-spacing:0px;fill:#000000;fill-opacity:1;stroke:none;stroke-width:0.264583"
       xml:space="preserve" />
    <g
       transform="translate(-1.405896,4.2215415)"
       id="text2919"
       style="font-style:normal;font-variant:normal;font-weight:normal;font-stretch:normal;font-size:3.52778px;line-height:1.25;font-family:'Share Tech Mono';-inkscape-font-specification:'Share Tech Mono';letter-spacing:0px;word-spacing:0px;fill:#000046;fill-opacity:1;stroke:none;stroke-width:0.264583"
       aria-label="LENGTH" />
    <path
       inkscape:connector-curvature="0"
       id="path1505"
       style="font-style:normal;font-variant:normal;font-weight:normal;font-stretch:normal;font-size:3.52778px;line-height:1.25;font-family:'Share Tech Mono';-inkscape-font-specification:'Share Tech Mono';letter-spacing:0px;word-spacing:0px;display:inline;fill:#000000;fill-opacity:1;stroke:none;stroke-width:0.264583"
       d="m 72.090861,70.318547 v -2.20133 h -0.560907 v -0.26811 h 1.428744 v 0.26811 h -0.560917 v 2.20133 z" />
    <path
       inkscape:connector-curvature="0"
       id="path1507"
       style="font-style:normal;font-variant:normal;font-weight:normal;font-stretch:normal;font-size:3.52778px;line-height:1.25;font-family:'Share Tech Mono';-inkscape-font-specification:'Share Tech Mono';letter-spacing:0px;word-spacing:0px;display:inline;fill:#000000;fill-opacity:1;stroke:none;stroke-width:0.264583"
       d="m 73.749132,69.295497 v 1.02305 h -0.306917 v -2.46944 h 0.663224 q 0.29986,0 0.45155,0.13405 0.155217,0.13053 0.155217,0.41628 v 0.33867 q 0,0.39864 -0.317497,0.49741 l 0.490367,1.08303 h -0.335137 l -0.455087,-1.02305 z m 0.656167,-0.92781 q 0,-0.13405 -0.0635,-0.19403 -0.06,-0.06 -0.19403,-0.06 h -0.398637 v 0.91722 h 0.398637 q 0.13406,0 0.19403,-0.06 0.0635,-0.0635 0.0635,-0.19755 z" />
    <path
       inkscape:connector-curvature="0"
       id="path1509"
       style="font-style:normal;font-variant:normal;font-weight:normal;font-stretch:normal;font-size:3.52778px;line-height:1.25;font-family:'Share Tech Mono';-inkscape-font-specification:'Share Tech Mono';letter-spacing:0px;word-spacing:0px;display:inline;fill:#000000;fill-opacity:1;stroke:none;stroke-width:0.264583"
       d="m 76.06356,70.318547 q -0.30691,0 -0.472717,-0.14816 -0.16228,-0.1517 -0.16228,-0.45156 v -1.27 q 0,-0.29986 0.16228,-0.44803 0.165807,-0.15169 0.472717,-0.15169 h 0.497417 v 0.26811 H 76.02829 q -0.13053,0 -0.21167,0.0776 -0.0811,0.0776 -0.0811,0.18697 v 1.40406 q 0,0.10936 0.0811,0.18697 0.0811,0.0776 0.21167,0.0776 h 0.345717 v -0.76553 H 76.06709 v -0.26458 h 0.599717 v 1.29822 z" />
    <g
       transform="translate(7.619991)"
       id="text856"
       style="font-style:normal;font-variant:normal;font-weight:normal;font-stretch:normal;font-size:4.93889px;line-height:1.25;font-family:'Share Tech Mono';-inkscape-font-specification:'Share Tech Mono';letter-spacing:0px;word-spacing:0px;fill:#000000;fill-opacity:1;stroke:none;stroke-width:0.264583"
       aria-label="SAMPERx8">
      <g
         id="text886"
         style="font-style:normal;font-variant:normal;font-weight:normal;font-stretch:normal;font-size:4.93889px;line-height:1.25;font-family:'Share Tech Mono';-inkscape-font-specification:'Share Tech Mono';letter-spacing:0px;word-spacing:0px;fill:#000000;fill-opacity:1;stroke:none;stroke-width:0.0700043"
         aria-label="SAMPLERx8">
        <path
           id="path888"
           style="font-size:4.93889px;stroke-width:0.0700043"
           d="m 80.343572,55.087013 q 0,0.419806 -0.232128,0.632178 -0.227189,0.207433 -0.656872,0.207433 H 78.75325 v -0.375355 h 0.750711 q 0.182739,0 0.296333,-0.108656 0.113595,-0.108655 0.113595,-0.261761 v -0.513644 q 0,-0.148167 -0.07902,-0.237067 -0.07408,-0.09384 -0.227188,-0.09384 h -0.148167 q -0.365478,0 -0.57785,-0.212372 -0.212372,-0.217311 -0.212372,-0.627239 v -0.187678 q 0,-0.419805 0.227189,-0.627239 0.232127,-0.212372 0.661811,-0.212372 h 0.706261 v 0.375356 H 79.5089 q -0.182739,0 -0.296334,0.108655 -0.113594,0.108656 -0.113594,0.261761 v 0.375356 q 0,0.153105 0.09878,0.256822 0.09878,0.09878 0.256822,0.09878 h 0.148167 q 0.350661,0 0.543278,0.202494 0.197555,0.202495 0.197555,0.612422 z" />
        <path
           id="path890"
           style="font-size:4.93889px;stroke-width:0.0700043"
           d="m 81.692198,55.052441 -0.192617,0.874183 H 81.06002 l 0.834672,-3.457222 h 0.567972 l 0.819856,3.457222 h -0.439561 l -0.187678,-0.874183 z m 0.884061,-0.370417 -0.404989,-1.886655 -0.40005,1.886655 z" />
        <path
           id="path892"
           style="font-size:4.93889px;stroke-width:0.0700043"
           d="m 85.031195,54.765985 h -0.409927 l -0.484012,-1.940983 v 3.101622 h -0.375355 v -3.457222 h 0.686505 l 0.395112,1.768122 0.40005,-1.768122 h 0.66675 v 3.457222 h -0.385234 v -3.101622 z" />
        <path
           id="path894"
           style="font-size:4.93889px;stroke-width:0.0700043"
           d="m 88.389949,53.802902 q 0,0.40005 -0.212372,0.592667 -0.212373,0.187677 -0.627239,0.187677 h -0.513645 v 1.343378 H 86.60701 v -3.457222 h 0.93345 q 0.419806,0 0.632178,0.187678 0.217311,0.182739 0.217311,0.582789 z m -0.429683,-0.607483 q 0,-0.187678 -0.0889,-0.271639 -0.08396,-0.08396 -0.271639,-0.08396 h -0.563034 v 1.373011 h 0.563034 q 0.187677,0 0.271639,-0.08396 0.0889,-0.0889 0.0889,-0.276578 z" />
        <path
           id="path896"
           style="font-size:4.93889px;stroke-width:0.0700043"
           d="m 89.822535,52.469402 v 3.081867 h 1.101372 v 0.375355 h -1.531055 v -3.457222 z" />
        <path
           id="path898"
           style="font-size:4.93889px;stroke-width:0.0700043"
           d="m 93.645544,52.469402 v 0.360539 h -1.219906 v 1.131005 h 1.096434 v 0.360539 h -1.096434 v 1.2446 h 1.219906 v 0.360539 h -1.649589 v -3.457222 z" />
        <path
           id="path900"
           style="font-size:4.93889px;stroke-width:0.0700043"
           d="m 94.925026,54.494346 v 1.432278 h -0.429684 v -3.457222 h 0.928511 q 0.419806,0 0.632178,0.187678 0.217311,0.182739 0.217311,0.582789 v 0.474133 q 0,0.558094 -0.4445,0.696383 l 0.686506,1.516239 h -0.469195 l -0.637116,-1.432278 z m 0.918633,-1.298927 q 0,-0.187678 -0.0889,-0.271639 -0.08396,-0.08396 -0.271639,-0.08396 h -0.558094 v 1.284111 h 0.558094 q 0.187678,0 0.271639,-0.08396 0.0889,-0.0889 0.0889,-0.276578 z" />
        <path
           id="path902"
           style="font-size:4.93889px;stroke-width:0.0700043"
           d="m 97.597272,55.926624 h -0.464255 l 0.770466,-1.274233 -0.7112,-1.195211 h 0.48895 l 0.469195,0.829733 0.479072,-0.829733 h 0.459317 l -0.721078,1.175455 0.785283,1.293989 h -0.493889 l -0.518583,-0.93345 z" />
        <path
           id="path904"
           style="font-size:4.93889px;stroke-width:0.0700043"
           d="m 101.71662,55.14628 q 0,0.409928 -0.19756,0.597605 -0.19756,0.182739 -0.64206,0.182739 h -0.13828 q -0.4445,0 -0.64206,-0.182739 -0.197556,-0.187677 -0.197556,-0.597605 v -0.414867 q 0,-0.429683 0.321026,-0.607483 -0.261759,-0.182739 -0.261759,-0.572911 v -0.31115 q 0,-0.395111 0.207429,-0.582789 0.20744,-0.187678 0.59267,-0.187678 h 0.0988 q 0.38523,0 0.59267,0.187678 0.20743,0.187678 0.20743,0.582789 v 0.31115 q 0,0.390172 -0.26176,0.572911 0.32103,0.1778 0.32103,0.607483 z m -1.01742,-2.306461 q -0.16792,0.0049 -0.242,0.09384 -0.0691,0.08396 -0.0691,0.261761 v 0.404989 q 0,0.158044 0.0889,0.256822 0.0938,0.09384 0.23213,0.103716 h 0.16792 q 0.15311,0 0.25189,-0.09878 0.0988,-0.09878 0.0988,-0.261761 v -0.404989 q 0,-0.187678 -0.084,-0.271639 -0.079,-0.08396 -0.2667,-0.08396 z m 0.58773,1.847144 q 0,-0.162983 -0.0988,-0.256822 -0.0988,-0.09878 -0.26176,-0.09878 h -0.23706 q -0.16299,0 -0.26176,0.09878 -0.0988,0.09384 -0.0988,0.256822 v 0.508706 q 0,0.182739 0.079,0.271639 0.079,0.0889 0.24694,0.0889 h 0.2667 q 0.18768,0 0.27658,-0.08396 0.0889,-0.0889 0.0889,-0.276578 z" />
      </g>
    </g>
    <g
       transform="translate(21.557248,-3.535747)"
       id="text877"
       style="font-style:normal;font-variant:normal;font-weight:normal;font-stretch:normal;font-size:3.88056px;line-height:1.25;font-family:'Share Tech Mono';-inkscape-font-specification:'Share Tech Mono';letter-spacing:0px;word-spacing:0px;fill:#000000;fill-opacity:1;stroke:none;stroke-width:0.264583"
       aria-label="OUTPUTS">
      <g
         aria-label="OUTPUTS"
         id="text1701"
         style="font-size:3.52778px;line-height:1.25;font-family:'Share Tech Mono';-inkscape-font-specification:'Share Tech Mono';letter-spacing:0px;word-spacing:0px;stroke-width:0.0700042">
        <path
           d="m 98.203268,70.36226 q 0,0.299861 -0.165805,0.451556 -0.162278,0.148167 -0.469195,0.148167 h -0.141111 q -0.306917,0 -0.472723,-0.148167 -0.162278,-0.151695 -0.162278,-0.451556 v -1.270001 q 0,-0.299861 0.162278,-0.448028 0.165806,-0.151694 0.472723,-0.151694 h 0.141111 q 0.306917,0 0.469195,0.151694 0.165805,0.148167 0.165805,0.448028 z m -0.306916,-1.337029 q 0,-0.109361 -0.08114,-0.186972 -0.08114,-0.07761 -0.211667,-0.07761 h -0.211667 q -0.130528,0 -0.211667,0.07761 -0.08114,0.07761 -0.08114,0.186972 v 1.404057 q 0,0.109361 0.08114,0.186972 0.08114,0.07761 0.211667,0.07761 h 0.211667 q 0.130528,0 0.211667,-0.07761 0.08114,-0.07761 0.08114,-0.186972 z"
           style="font-size:3.52778px;stroke-width:0.0700042"
           id="path1703" />
        <path
           d="m 100.07674,70.36226 q 0,0.299861 -0.165806,0.451556 -0.162277,0.148167 -0.469194,0.148167 h -0.08819 q -0.306917,0 -0.472722,-0.148167 Q 98.71855,70.662121 98.71855,70.36226 v -1.869723 h 0.306917 v 1.936751 q 0,0.109361 0.08114,0.186972 0.08114,0.07761 0.211666,0.07761 h 0.158751 q 0.130527,0 0.211666,-0.07761 0.08114,-0.07761 0.08114,-0.186972 v -1.936751 h 0.30692 z"
           style="font-size:3.52778px;stroke-width:0.0700042"
           id="path1705" />
        <path
           d="m 101.14588,70.961983 v -2.201335 h -0.56092 v -0.268111 h 1.42875 v 0.268111 h -0.56092 v 2.201335 z"
           style="font-size:3.52778px;stroke-width:0.0700042"
           id="path1707" />
        <path
           d="m 103.84132,69.445037 q 0,0.28575 -0.15169,0.423334 -0.1517,0.134056 -0.44803,0.134056 h -0.36689 v 0.959556 h -0.30692 v -2.469446 h 0.66675 q 0.29987,0 0.45156,0.134055 0.15522,0.130528 0.15522,0.416278 z m -0.30691,-0.433917 q 0,-0.134055 -0.0635,-0.194028 -0.06,-0.05997 -0.19403,-0.05997 h -0.40217 v 0.980723 h 0.40217 q 0.13405,0 0.19403,-0.05997 0.0635,-0.0635 0.0635,-0.197556 z"
           style="font-size:3.52778px;stroke-width:0.0700042"
           id="path1709" />
        <path
           d="m 105.78182,70.36226 q 0,0.299861 -0.1658,0.451556 -0.16228,0.148167 -0.4692,0.148167 h -0.0882 q -0.30692,0 -0.47273,-0.148167 -0.16227,-0.151695 -0.16227,-0.451556 v -1.869723 h 0.30691 v 1.936751 q 0,0.109361 0.0811,0.186972 0.0811,0.07761 0.21167,0.07761 h 0.15875 q 0.13053,0 0.21167,-0.07761 0.0811,-0.07761 0.0811,-0.186972 v -1.936751 h 0.30691 z"
           style="font-size:3.52778px;stroke-width:0.0700042"
           id="path1711" />
        <path
           d="m 106.85096,70.961983 v -2.201335 h -0.56092 v -0.268111 h 1.42875 v 0.268111 h -0.56091 v 2.201335 z"
           style="font-size:3.52778px;stroke-width:0.0700042"
           id="path1713" />
        <path
           d="m 109.50407,70.36226 q 0,0.299861 -0.1658,0.451556 -0.16228,0.148167 -0.4692,0.148167 h -0.50094 v -0.268112 h 0.53622 q 0.13053,0 0.21167,-0.07761 0.0811,-0.07761 0.0811,-0.186972 V 70.0624 q 0,-0.105834 -0.0564,-0.169334 -0.0529,-0.06703 -0.16228,-0.06703 h -0.10583 q -0.26106,0 -0.41275,-0.151695 -0.1517,-0.155222 -0.1517,-0.448028 v -0.134056 q 0,-0.299861 0.16228,-0.448028 0.16581,-0.151694 0.47272,-0.151694 h 0.50448 v 0.268111 h -0.53975 q -0.13053,0 -0.21167,0.07761 -0.0811,0.07761 -0.0811,0.186972 v 0.268112 q 0,0.109361 0.0706,0.183444 0.0705,0.07056 0.18344,0.07056 h 0.10583 q 0.25048,0 0.38806,0.144639 0.14111,0.144639 0.14111,0.437445 z"
           style="font-size:3.52778px;stroke-width:0.0700042"
           id="path1715" />
      </g>
    </g>
    <path
       inkscape:connector-curvature="0"
       id="path27-1-2-2-3-7-9-3-2-0-8"
       d="m 75.451286,77.199615 c 36.754584,0 37.163004,0 37.163004,0"
       style="display:inline;fill:#b3b3b3;fill-opacity:1;stroke:#b4b4b4;stroke-width:0.140039px;stroke-linecap:butt;stroke-linejoin:miter;stroke-opacity:1" />
    <path
       inkscape:connector-curvature="0"
       id="path27-1-2-2-3-7-9-3-2-0-8-6"
       d="m 75.451286,87.40533 c 36.754084,0 37.162474,0 37.162474,0"
       style="display:inline;fill:#b3b3b3;fill-opacity:1;stroke:#b4b4b4;stroke-width:0.140039px;stroke-linecap:butt;stroke-linejoin:miter;stroke-opacity:1" />
    <path
       inkscape:connector-curvature="0"
       id="path27-1-2-2-3-7-9-3-2-0-8-7"
       d="m 75.451286,97.611051 c 36.754084,0 37.162474,0 37.162474,0"
       style="display:inline;fill:#b3b3b3;fill-opacity:1;stroke:#b4b4b4;stroke-width:0.140039px;stroke-linecap:butt;stroke-linejoin:miter;stroke-opacity:1" />
    <path
       inkscape:connector-curvature="0"
       id="path27-1-2-2-3-7-9-3-2-0-8-5"
       d="m 75.451286,107.81677 c 36.754084,0 37.162474,0 37.162474,0"
       style="display:inline;fill:#b3b3b3;fill-opacity:1;stroke:#b4b4b4;stroke-width:0.140039px;stroke-linecap:butt;stroke-linejoin:miter;stroke-opacity:1" />
    <path
       inkscape:connector-curvature="0"
       id="path27-1-2-2-3-7-9-3-2-0-8-9"
       d="m 75.451286,118.02249 c 36.754084,0 37.162474,0 37.162474,0"
       style="display:inline;fill:#b3b3b3;fill-opacity:1;stroke:#b4b4b4;stroke-width:0.140039px;stroke-linecap:butt;stroke-linejoin:miter;stroke-opacity:1" />
    <path
       inkscape:connector-curvature="0"
       id="path27-1-2-2-3-7-9-3-2-0-8-8"
       d="m 75.451286,128.2282 c 36.754084,0 37.162474,0 37.162474,0"
       style="display:inline;fill:#b3b3b3;fill-opacity:1;stroke:#b4b4b4;stroke-width:0.140039px;stroke-linecap:butt;stroke-linejoin:miter;stroke-opacity:1" />
    <path
       inkscape:connector-curvature="0"
       id="path27-1-2-2-3-7-9-3-2-0-8-80"
       d="m 75.451286,138.43392 c 36.754084,0 37.162474,0 37.162474,0"
       style="display:inline;fill:#b3b3b3;fill-opacity:1;stroke:#b4b4b4;stroke-width:0.140039px;stroke-linecap:butt;stroke-linejoin:miter;stroke-opacity:1" />
    <path
       inkscape:connector-curvature="0"
       id="path27-1-2-2-3-7-9-3-2-0-8-82"
       d="m 75.451286,148.63964 c 36.754084,0 37.162474,0 37.162474,0"
       style="display:inline;fill:#b3b3b3;fill-opacity:1;stroke:#b4b4b4;stroke-width:0.140039px;stroke-linecap:butt;stroke-linejoin:miter;stroke-opacity:1" />
    <path
       style="display:inline;fill:#333333;fill-opacity:1;stroke:#808080;stroke-width:0.140039px;stroke-linecap:butt;stroke-linejoin:miter;stroke-opacity:1"
       d="m 112.61695,155.80043 c 23.91131,0 24.177,0 24.177,0"
       id="path27-1-2-2-3-7-9-3-2-0-8-82-3"
       inkscape:connector-curvature="0" />
    <path
       id="rect1645-3"
       style="display:inline;fill:#000000;fill-opacity:0.201005;stroke:none;stroke-width:0.068;stroke-miterlimit:4;stroke-dasharray:none;stroke-opacity:1"
       d="m 113.70681,70.389394 c -0.60373,0 -1.08986,0.459158 -1.08986,1.029395 v 84.311651 h 24.17682 V 71.418789 c 0,-0.570237 -0.48611,-1.029395 -1.08985,-1.029395 z" />
    <path
       d="m 112.61695,155.73044 v 11.17347 c 0,0.57023 0.48612,1.02888 1.08985,1.02888 h 21.99711 c 0.60374,0 1.08986,-0.45865 1.08986,-1.02888 v -11.17347 z"
       style="display:inline;fill:#000000;fill-opacity:0.36;stroke:none;stroke-width:0.068;stroke-miterlimit:4;stroke-dasharray:none;stroke-opacity:1"
       id="rect1645-8-1" />
    <g
       aria-label="VOL"
       id="text1677"
       style="font-size:3.52778px;line-height:1.25;font-family:'Share Tech Mono';-inkscape-font-specification:'Share Tech Mono';letter-spacing:0px;word-spacing:0px;stroke-width:0.264583"
       transform="translate(10.160002,3.7041668)">
      <path
         d="m 82.740952,64.144621 h 0.310444 l 0.423334,2.159001 0.455084,-2.159001 h 0.303389 l -0.553862,2.469446 h -0.419806 z"
         style="font-size:3.52778px;stroke-width:0.264583"
         id="path1683" />
      <path
         d="m 86.103147,66.014344 q 0,0.299862 -0.165806,0.451556 -0.162278,0.148167 -0.469195,0.148167 h -0.141111 q -0.306917,0 -0.472723,-0.148167 -0.162277,-0.151694 -0.162277,-0.451556 v -1.27 q 0,-0.299862 0.162277,-0.448028 0.165806,-0.151695 0.472723,-0.151695 h 0.141111 q 0.306917,0 0.469195,0.151695 0.165806,0.148166 0.165806,0.448028 z M 85.79623,64.677316 q 0,-0.109361 -0.08114,-0.186973 -0.08114,-0.07761 -0.211667,-0.07761 h -0.211667 q -0.130528,0 -0.211667,0.07761 -0.08114,0.07761 -0.08114,0.186973 v 1.404056 q 0,0.109361 0.08114,0.186973 0.08114,0.07761 0.211667,0.07761 h 0.211667 q 0.130528,0 0.211667,-0.07761 0.08114,-0.07761 0.08114,-0.186973 z"
         style="font-size:3.52778px;stroke-width:0.264583"
         id="path1685" />
      <path
         d="m 87.059395,64.144621 v 2.201335 h 0.786695 v 0.268111 h -1.093611 v -2.469446 z"
         style="font-size:3.52778px;stroke-width:0.264583"
         id="path1687" />
    </g>
    <g
       aria-label="PAN"
       id="text1681"
       style="font-size:3.52778px;line-height:1.25;font-family:'Share Tech Mono';-inkscape-font-specification:'Share Tech Mono';letter-spacing:0px;word-spacing:0px;stroke-width:0.264583"
       transform="translate(10.160002,3.7041668)">
      <path
         d="m 94.016482,65.097122 q 0,0.28575 -0.151695,0.423333 -0.151694,0.134056 -0.448028,0.134056 H 93.04987 v 0.959556 h -0.306917 v -2.469446 h 0.666751 q 0.299861,0 0.451556,0.134056 0.155222,0.130528 0.155222,0.416278 z m -0.306917,-0.433917 q 0,-0.134056 -0.0635,-0.194028 -0.05997,-0.05997 -0.194028,-0.05997 H 93.04987 v 0.980722 h 0.402167 q 0.134056,0 0.194028,-0.05997 0.0635,-0.0635 0.0635,-0.197556 z"
         style="font-size:3.52778px;stroke-width:0.264583"
         id="path1690" />
      <path
         d="m 94.937453,65.98965 -0.137583,0.624417 h -0.313973 l 0.596195,-2.469446 h 0.405695 l 0.585611,2.469446 H 95.759426 L 95.62537,65.98965 Z m 0.631473,-0.264583 -0.289278,-1.347612 -0.28575,1.347612 z"
         style="font-size:3.52778px;stroke-width:0.264583"
         id="path1692" />
      <path
         d="m 96.793286,66.614067 h -0.28575 v -2.469446 h 0.500944 l 0.55739,2.20839 v -2.20839 h 0.28575 v 2.469446 h -0.504473 l -0.553861,-2.20839 z"
         style="font-size:3.52778px;stroke-width:0.264583"
         id="path1694" />
    </g>
    <g
       style="font-size:3.52778px;line-height:1.25;font-family:'Share Tech Mono';-inkscape-font-specification:'Share Tech Mono';letter-spacing:0px;word-spacing:0px;stroke-width:0.264583"
       id="text973"
       aria-label="POS">
      <path
         id="path975"
         style="font-size:3.52778px;stroke-width:0.264583"
         d="m 84.226481,68.801124 q 0,0.28575 -0.151694,0.423334 -0.151695,0.134055 -0.448029,0.134055 h -0.366889 v 0.959556 h -0.306917 v -2.469446 h 0.666751 q 0.299861,0 0.451556,0.134056 0.155222,0.130528 0.155222,0.416278 z m -0.306917,-0.433917 q 0,-0.134056 -0.0635,-0.194028 -0.05997,-0.05997 -0.194028,-0.05997 h -0.402167 v 0.980723 h 0.402167 q 0.134056,0 0.194028,-0.05997 0.0635,-0.0635 0.0635,-0.197556 z" />
      <path
         id="path977"
         style="font-size:3.52778px;stroke-width:0.264583"
         d="m 86.195203,69.718347 q 0,0.299861 -0.165806,0.451556 -0.162278,0.148166 -0.469195,0.148166 h -0.141111 q -0.306917,0 -0.472722,-0.148166 -0.162278,-0.151695 -0.162278,-0.451556 v -1.270001 q 0,-0.299861 0.162278,-0.448028 0.165805,-0.151695 0.472722,-0.151695 h 0.141111 q 0.306917,0 0.469195,0.151695 0.165806,0.148167 0.165806,0.448028 z m -0.306917,-1.337029 q 0,-0.109361 -0.08114,-0.186972 -0.08114,-0.07761 -0.211667,-0.07761 h -0.211667 q -0.130527,0 -0.211666,0.07761 -0.08114,0.07761 -0.08114,0.186972 v 1.404057 q 0,0.109361 0.08114,0.186972 0.08114,0.07761 0.211666,0.07761 h 0.211667 q 0.130528,0 0.211667,-0.07761 0.08114,-0.07761 0.08114,-0.186972 z" />
      <path
         id="path979"
         style="font-size:3.52778px;stroke-width:0.264583"
         d="m 87.987536,69.718347 q 0,0.299861 -0.165806,0.451556 -0.162278,0.148166 -0.469195,0.148166 H 86.85159 v -0.268111 h 0.536223 q 0.130528,0 0.211667,-0.07761 0.08114,-0.07761 0.08114,-0.186972 v -0.366889 q 0,-0.105834 -0.05644,-0.169334 -0.05292,-0.06703 -0.162278,-0.06703 h -0.105833 q -0.261056,0 -0.41275,-0.151694 -0.151695,-0.155223 -0.151695,-0.448028 v -0.134056 q 0,-0.299861 0.162278,-0.448028 0.165806,-0.151695 0.472723,-0.151695 h 0.504472 v 0.268112 h -0.53975 q -0.130528,0 -0.211667,0.07761 -0.08114,0.07761 -0.08114,0.186972 v 0.268111 q 0,0.109362 0.07056,0.183445 0.07055,0.07056 0.183444,0.07056 h 0.105834 q 0.250472,0 0.388055,0.144639 0.141112,0.144639 0.141112,0.437444 z" />
    </g>
  </g>
</svg>
