<?xml version="1.0" encoding="UTF-8" standalone="no"?>
<svg
   width="182.88mm"
   height="128.5mm"
   viewBox="0 0 182.88001 128.5"
   version="1.1"
   id="svg11003"
   inkscape:version="1.1.1 (3bf5ae0d25, 2021-09-20)"
   sodipodi:docname="digital_sequencer_xp_front_panel.svg"
   xmlns:inkscape="http://www.inkscape.org/namespaces/inkscape"
   xmlns:sodipodi="http://sodipodi.sourceforge.net/DTD/sodipodi-0.dtd"
   xmlns="http://www.w3.org/2000/svg"
   xmlns:svg="http://www.w3.org/2000/svg"
   xmlns:rdf="http://www.w3.org/1999/02/22-rdf-syntax-ns#"
   xmlns:cc="http://creativecommons.org/ns#"
   xmlns:dc="http://purl.org/dc/elements/1.1/">
  <defs
     id="defs10997">
    <rect
       x="421.43564"
       y="-0.35355339"
       width="190.84781"
       height="21.92031"
       id="rect16414" />
    <rect
       x="114.74999"
       y="389.12496"
       width="109.12499"
       height="31.499997"
       id="rect6561" />
    <rect
       x="105.99999"
       y="383.12496"
       width="50.749995"
       height="23.429689"
       id="rect3711" />
    <rect
       id="rect928"
       height="7.6706347"
       width="25.72469"
       y="152.12636"
       x="84.437262" />
    <rect
       x="114.74999"
       y="389.12497"
       width="109.12499"
       height="31.499996"
       id="rect6561-3" />
    <rect
       x="114.74999"
       y="389.12497"
       width="109.12499"
       height="31.499996"
       id="rect6561-3-6" />
  </defs>
  <sodipodi:namedview
     id="base"
     pagecolor="#ffffff"
     bordercolor="#666666"
     borderopacity="1.0"
     inkscape:pageopacity="0.0"
     inkscape:pageshadow="2"
     inkscape:zoom="2"
     inkscape:cx="300.5"
     inkscape:cy="273"
     inkscape:document-units="mm"
     inkscape:current-layer="layer1"
     showgrid="false"
     fit-margin-top="0"
     fit-margin-left="0"
     fit-margin-right="0"
     fit-margin-bottom="0"
     inkscape:window-width="3840"
     inkscape:window-height="2066"
     inkscape:window-x="2869"
     inkscape:window-y="-11"
     inkscape:window-maximized="1"
     units="mm"
     showguides="true"
     inkscape:guide-bbox="true"
     showborder="false"
     inkscape:document-rotation="0"
     inkscape:pagecheckerboard="0">
    <sodipodi:guide
       position="24.544001,45.508333"
       orientation="-1,0"
       id="guide912"
       inkscape:locked="false"
       inkscape:label=""
       inkscape:color="rgb(0,0,255)" />
    <sodipodi:guide
       position="24.544001,7.7390623"
       orientation="1,0"
       id="guide923"
       inkscape:locked="false"
       inkscape:label=""
       inkscape:color="rgb(0,0,255)" />
    <sodipodi:guide
       position="129,148.96041"
       orientation="1,0"
       id="guide925"
       inkscape:locked="false"
       inkscape:label=""
       inkscape:color="rgb(0,0,255)" />
    <sodipodi:guide
       position="118,5.8208329"
       orientation="1,0"
       id="guide894"
       inkscape:locked="false"
       inkscape:label=""
       inkscape:color="rgb(0,0,255)" />
    <sodipodi:guide
       position="140,-15.528358"
       orientation="1,0"
       id="guide911"
       inkscape:locked="false"
       inkscape:label=""
       inkscape:color="rgb(0,0,255)" />
    <sodipodi:guide
       position="151,-11.038231"
       orientation="1,0"
       id="guide913"
       inkscape:locked="false"
       inkscape:label=""
       inkscape:color="rgb(0,0,255)" />
    <sodipodi:guide
       position="195.36735,2.7296426"
       orientation="1,0"
       id="guide915"
       inkscape:locked="false"
       inkscape:label=""
       inkscape:color="rgb(0,0,255)" />
    <sodipodi:guide
       position="170.06359,30.980042"
       orientation="1,0"
       id="guide917"
       inkscape:locked="false"
       inkscape:label=""
       inkscape:color="rgb(0,0,255)" />
    <sodipodi:guide
       position="10,14.312282"
       orientation="1,0"
       id="guide967"
       inkscape:locked="false"
       inkscape:label=""
       inkscape:color="rgb(0,0,255)" />
    <sodipodi:guide
       position="91.439589,132.75627"
       orientation="1,0"
       id="guide1100"
       inkscape:locked="false"
       inkscape:label=""
       inkscape:color="rgb(0,0,255)" />
    <sodipodi:guide
       id="guide933"
       orientation="0,1"
       position="165.1372,20.932416"
       inkscape:label=""
       inkscape:locked="false"
       inkscape:color="rgb(0,0,255)" />
    <sodipodi:guide
       id="guide926"
       orientation="0,-1"
       position="164.67004,9.8467888" />
    <sodipodi:guide
       position="176.58663,33.985882"
       orientation="1,0"
       id="guide1635" />
    <sodipodi:guide
       position="192.51744,15.3895"
       orientation="0,1"
       id="guide1639"
       inkscape:label=""
       inkscape:locked="false"
       inkscape:color="rgb(0,0,255)" />
    <sodipodi:guide
       position="39.088001,28.619802"
       orientation="-1,0"
       id="guide10809"
       inkscape:label=""
       inkscape:locked="false"
       inkscape:color="rgb(0,0,255)" />
    <sodipodi:guide
       position="53.632002,30.09137"
       orientation="-1,0"
       id="guide11961"
       inkscape:label=""
       inkscape:locked="false"
       inkscape:color="rgb(0,0,255)" />
    <sodipodi:guide
       position="-23.292538,13.607"
       orientation="0,1"
       id="guide13579"
       inkscape:label=""
       inkscape:locked="false"
       inkscape:color="rgb(46,194,126)" />
  </sodipodi:namedview>
  <metadata
     id="metadata11000">
    <rdf:RDF>
      <cc:Work
         rdf:about="">
        <dc:format>image/svg+xml</dc:format>
        <dc:type
           rdf:resource="http://purl.org/dc/dcmitype/StillImage" />
      </cc:Work>
    </rdf:RDF>
  </metadata>
  <g
     inkscape:label="Panel Layer"
     inkscape:groupmode="layer"
     id="layer1"
     transform="translate(-64.792954,-47.169623)"
     style="display:inline">
    <path
       inkscape:connector-curvature="0"
       id="path33429"
       d="M 64.792954,47.169621 H 247.67295 V 175.66962 H 64.792954 Z m 0,0"
       style="fill:#e6e6e6;fill-opacity:1;fill-rule:nonzero;stroke:none;stroke-width:0.671075" />
    <text
       xml:space="preserve"
       style="font-style:normal;font-weight:normal;font-size:4.58611px;line-height:1.25;font-family:sans-serif;letter-spacing:0px;word-spacing:0px;fill:#000000;fill-opacity:1;stroke:none;stroke-width:0.264583"
       x="75.943253"
       y="53.772301"
       id="text110" />
    <rect
       style="display:inline;fill:#28282a;fill-opacity:1;stroke-width:0.463517"
       id="rect438-7"
       width="171.02382"
       height="91.041397"
       x="70.356651"
       y="-144.2867"
       ry="1.0515879"
       transform="scale(1,-1)"
       rx="1.0897758" />
    <g
       aria-label="STEP"
       style="font-style:normal;font-variant:normal;font-weight:normal;font-stretch:normal;font-size:3.88056px;line-height:1.25;font-family:'Share Tech Mono';-inkscape-font-specification:'Share Tech Mono';letter-spacing:0px;word-spacing:0px;fill:#000000;fill-opacity:1;stroke:none;stroke-width:0.264583"
       id="text897"
       transform="translate(-24.399097,0.48310967)">
      <path
         d="m 96.803395,154.05599 q 0,0.32985 -0.182387,0.49671 -0.178505,0.16298 -0.516113,0.16298 h -0.551039 v -0.29492 H 96.1437 q 0.143581,0 0.232833,-0.0854 0.08925,-0.0854 0.08925,-0.20567 v -0.40358 q 0,-0.11642 -0.06209,-0.18627 -0.05821,-0.0737 -0.178505,-0.0737 h -0.116417 q -0.287161,0 -0.454025,-0.16686 -0.166864,-0.17074 -0.166864,-0.49283 v -0.14746 q 0,-0.32985 0.178506,-0.49283 0.182386,-0.16687 0.519994,-0.16687 h 0.55492 v 0.29493 h -0.593725 q -0.143581,0 -0.232834,0.0854 -0.08925,0.0854 -0.08925,0.20567 v 0.29492 q 0,0.1203 0.07761,0.20179 0.07761,0.0776 0.201789,0.0776 h 0.116416 q 0.27552,0 0.426861,0.1591 0.155223,0.15911 0.155223,0.48119 z"
         style="stroke-width:0.264583"
         id="path899"
         inkscape:connector-curvature="0" />
      <path
         d="m 98.068698,154.71568 v -2.42146 H 97.45169 v -0.29493 h 1.571625 v 0.29493 h -0.617008 v 2.42146 z"
         style="stroke-width:0.264583"
         id="path901"
         inkscape:connector-curvature="0" />
      <path
         d="m 100.97936,151.99929 v 0.28328 h -0.9585 v 0.88865 h 0.86148 v 0.28328 h -0.86148 v 0.9779 h 0.9585 v 0.28328 h -1.296108 v -2.71639 z"
         style="stroke-width:0.264583"
         id="path903"
         inkscape:connector-curvature="0" />
      <path
         d="m 103.12555,153.04704 q 0,0.31433 -0.16687,0.46567 -0.16686,0.14746 -0.49283,0.14746 h -0.40357 v 1.05551 h -0.33761 v -2.71639 h 0.73342 q 0.32985,0 0.49671,0.14747 0.17075,0.14358 0.17075,0.4579 z m -0.33761,-0.4773 q 0,-0.14747 -0.0699,-0.21343 -0.066,-0.066 -0.21343,-0.066 h -0.44238 v 1.07879 h 0.44238 q 0.14746,0 0.21343,-0.066 0.0699,-0.0699 0.0699,-0.21731 z"
         style="stroke-width:0.264583"
         id="path905"
         inkscape:connector-curvature="0" />
    </g>
    <g
       aria-label="GATE"
       style="font-style:normal;font-variant:normal;font-weight:normal;font-stretch:normal;font-size:3.88056px;line-height:1.25;font-family:'Share Tech Mono';-inkscape-font-specification:'Share Tech Mono';letter-spacing:0px;word-spacing:0px;fill:#000000;fill-opacity:1;stroke:none;stroke-width:0.264583"
       id="text888"
       transform="translate(41.06655,0.40352303)">
      <path
         d="m 177.93403,166.78113 q -0.33761,0 -0.51999,-0.16299 -0.17851,-0.16686 -0.17851,-0.49671 v -1.397 q 0,-0.32984 0.17851,-0.49283 0.18238,-0.16686 0.51999,-0.16686 h 0.54716 v 0.29492 h -0.58597 q -0.14358,0 -0.23283,0.0854 -0.0892,0.0854 -0.0892,0.20567 v 1.54446 q 0,0.1203 0.0892,0.20567 0.0893,0.0854 0.23283,0.0854 h 0.3803 v -0.84208 h -0.33761 v -0.29105 h 0.6597 v 1.42805 z"
         style="stroke-width:0.264583"
         id="path902"
         inkscape:connector-curvature="0" />
      <path
         d="m 179.63396,166.09427 -0.15135,0.68686 h -0.34536 l 0.65581,-2.71639 h 0.44626 l 0.64418,2.71639 h -0.34537 l -0.14747,-0.68686 z m 0.69462,-0.29104 -0.31821,-1.48237 -0.31432,1.48237 z"
         style="stroke-width:0.264583"
         id="path904"
         inkscape:connector-curvature="0" />
      <path
         d="m 181.93149,166.78113 v -2.42147 h -0.61701 v -0.29492 h 1.57162 v 0.29492 h -0.617 v 2.42147 z"
         style="stroke-width:0.264583"
         id="path906"
         inkscape:connector-curvature="0" />
      <path
         d="m 184.84215,164.06474 v 0.28328 h -0.9585 v 0.88865 h 0.86148 v 0.28328 h -0.86148 v 0.9779 h 0.9585 v 0.28328 h -1.29611 v -2.71639 z"
         style="stroke-width:0.264583"
         id="path908"
         inkscape:connector-curvature="0" />
    </g>
    <g
       aria-label="CV"
       style="font-style:normal;font-variant:normal;font-weight:normal;font-stretch:normal;font-size:3.88056px;line-height:1.25;font-family:'Share Tech Mono';-inkscape-font-specification:'Share Tech Mono';letter-spacing:0px;word-spacing:0px;fill:#000000;fill-opacity:1;stroke:none;stroke-width:0.264583"
       id="text892"
       transform="translate(41.06655,0.40352303)">
      <path
         d="m 182.00036,155.69359 q -0.33761,0 -0.52,-0.16299 -0.1785,-0.16686 -0.1785,-0.49671 v -1.397 q 0,-0.32984 0.1785,-0.49283 0.18239,-0.16686 0.52,-0.16686 h 0.55104 v 0.29492 h -0.58985 q -0.14358,0 -0.23283,0.0854 -0.0893,0.0854 -0.0893,0.20567 v 1.54446 q 0,0.1203 0.0893,0.20567 0.0892,0.0854 0.23283,0.0854 h 0.58985 v 0.29492 z"
         style="stroke-width:0.264583"
         id="path896"
         inkscape:connector-curvature="0" />
      <path
         d="m 183.18805,152.9772 h 0.34149 l 0.46566,2.3749 0.5006,-2.3749 h 0.33372 l -0.60924,2.71639 h -0.46179 z"
         style="stroke-width:0.264583"
         id="path898"
         inkscape:connector-curvature="0" />
    </g>
    <text
       xml:space="preserve"
       style="font-style:normal;font-variant:normal;font-weight:normal;font-stretch:normal;font-size:5.64444px;line-height:1.25;font-family:'Share Tech Mono';-inkscape-font-specification:'Share Tech Mono';letter-spacing:0px;word-spacing:0px;fill:#000000;fill-opacity:1;stroke:none;stroke-width:0.264583"
       x="102.58486"
       y="166.4789"
       id="text1606" />
    <text
       xml:space="preserve"
       style="font-style:normal;font-variant:normal;font-weight:normal;font-stretch:normal;font-size:3.88056px;line-height:1.25;font-family:'Share Tech Mono';-inkscape-font-specification:'Share Tech Mono';letter-spacing:0px;word-spacing:0px;fill:#000000;fill-opacity:1;stroke:none;stroke-width:0.264583"
       x="102.58486"
       y="166.4789"
       id="text1610" />
    <rect
       style="fill:#dcdcdc;fill-opacity:1;stroke-width:0.269982;stroke-linejoin:round;stroke-opacity:0.130919"
       id="rect198"
       width="79.820953"
       height="23.502487"
       x="130.38043"
       y="148.55046" />
    <g
       aria-label="LENGTH"
       transform="matrix(0.26458333,0,0,0.26458333,52.654752,48.710666)"
       id="text6559"
       style="font-size:14.6667px;line-height:1.25;font-family:'Share Tech Mono';-inkscape-font-specification:'Share Tech Mono, Normal';letter-spacing:0px;word-spacing:0px;white-space:pre;shape-inside:url(#rect6561)">
      <path
         d="m 117.71267,392.20898 v 9.15202 h 3.27068 v 1.11467 h -4.54668 v -10.26669 z"
         style="font-size:14.6667px;line-height:1.25;font-family:'Share Tech Mono';-inkscape-font-specification:'Share Tech Mono, Normal';letter-spacing:0px;word-spacing:0px;white-space:pre;shape-inside:url(#rect6561)"
         id="path13235" />
      <path
         d="m 129.07935,392.20898 v 1.07067 h -3.62267 v 3.35867 h 3.256 v 1.07067 h -3.256 v 3.69601 h 3.62267 v 1.07067 h -4.89868 v -10.26669 z"
         style="font-size:14.6667px;line-height:1.25;font-family:'Share Tech Mono';-inkscape-font-specification:'Share Tech Mono, Normal';letter-spacing:0px;word-spacing:0px;white-space:pre;shape-inside:url(#rect6561)"
         id="path13237" />
      <path
         d="m 132.93668,402.47567 h -1.188 v -10.26669 h 2.08267 l 2.31734,9.18135 v -9.18135 h 1.188 v 10.26669 h -2.09734 l -2.30267,-9.18136 z"
         style="font-size:14.6667px;line-height:1.25;font-family:'Share Tech Mono';-inkscape-font-specification:'Share Tech Mono, Normal';letter-spacing:0px;word-spacing:0px;white-space:pre;shape-inside:url(#rect6561)"
         id="path13239" />
      <path
         d="m 142.52869,402.47567 q -1.27601,0 -1.96534,-0.616 -0.67467,-0.63067 -0.67467,-1.87734 v -5.28001 q 0,-1.24667 0.67467,-1.86268 0.68933,-0.63066 1.96534,-0.63066 h 2.068 v 1.11467 h -2.21467 q -0.54267,0 -0.88,0.32266 -0.33734,0.32267 -0.33734,0.77734 v 5.83734 q 0,0.45467 0.33734,0.77734 0.33733,0.32267 0.88,0.32267 h 1.43734 v -3.18268 h -1.27601 v -1.1 h 2.49334 v 5.39735 z"
         style="font-size:14.6667px;line-height:1.25;font-family:'Share Tech Mono';-inkscape-font-specification:'Share Tech Mono, Normal';letter-spacing:0px;word-spacing:0px;white-space:pre;shape-inside:url(#rect6561)"
         id="path13241" />
      <path
         d="m 149.74469,402.47567 v -9.15202 h -2.33201 v -1.11467 h 5.94002 v 1.11467 h -2.33201 v 9.15202 z"
         style="font-size:14.6667px;line-height:1.25;font-family:'Share Tech Mono';-inkscape-font-specification:'Share Tech Mono, Normal';letter-spacing:0px;word-spacing:0px;white-space:pre;shape-inside:url(#rect6561)"
         id="path13243" />
      <path
         d="m 156.79936,397.75299 v 4.72268 h -1.27601 v -10.26669 h 1.27601 v 4.45867 h 3.02134 v -4.45867 h 1.276 v 10.26669 h -1.276 v -4.72268 z"
         style="font-size:14.6667px;line-height:1.25;font-family:'Share Tech Mono';-inkscape-font-specification:'Share Tech Mono, Normal';letter-spacing:0px;word-spacing:0px;white-space:pre;shape-inside:url(#rect6561)"
         id="path13245" />
    </g>
    <g
       aria-label="RESET"
       transform="matrix(0.26458333,0,0,0.26458333,68.298377,48.710666)"
       id="text6559-7"
       style="font-size:14.6667px;line-height:1.25;font-family:'Share Tech Mono';-inkscape-font-specification:'Share Tech Mono, Normal';letter-spacing:0px;word-spacing:0px;white-space:pre;shape-inside:url(#rect6561-3);display:inline">
      <path
         d="m 117.05267,398.22232 v 4.25335 h -1.276 v -10.26669 h 2.75734 q 1.24667,0 1.87734,0.55733 0.64533,0.54267 0.64533,1.73067 v 1.408 q 0,1.65734 -1.32,2.06801 l 2.03867,4.50268 h -1.39334 l -1.892,-4.25335 z m 2.72801,-3.85734 q 0,-0.55733 -0.264,-0.80667 -0.24934,-0.24933 -0.80667,-0.24933 h -1.65734 v 3.81334 h 1.65734 q 0.55733,0 0.80667,-0.24933 0.264,-0.264 0.264,-0.82134 z"
         id="path13266" />
      <path
         d="m 129.07935,392.20898 v 1.07067 h -3.62267 v 3.35867 h 3.256 v 1.07067 h -3.256 v 3.69601 h 3.62267 v 1.07067 h -4.89868 v -10.26669 z"
         id="path13268" />
      <path
         d="m 137.02869,399.98233 q 0,1.24667 -0.68934,1.87734 -0.67466,0.616 -1.95067,0.616 h -2.08267 V 401.361 h 2.22934 q 0.54267,0 0.88,-0.32267 0.33734,-0.32267 0.33734,-0.77734 v -1.52533 q 0,-0.44 -0.23467,-0.704 -0.22,-0.27867 -0.67467,-0.27867 h -0.44 q -1.08534,0 -1.71601,-0.63067 -0.63066,-0.64533 -0.63066,-1.86267 v -0.55733 q 0,-1.24667 0.67467,-1.86268 0.68933,-0.63066 1.96533,-0.63066 h 2.09734 v 1.11467 h -2.244 q -0.54267,0 -0.88001,0.32266 -0.33733,0.32267 -0.33733,0.77734 v 1.11467 q 0,0.45467 0.29333,0.76267 0.29334,0.29333 0.76267,0.29333 h 0.44 q 1.04134,0 1.61334,0.60133 0.58667,0.60134 0.58667,1.81868 z"
         id="path13270" />
      <path
         d="m 144.91936,392.20898 v 1.07067 h -3.62268 v 3.35867 h 3.25601 v 1.07067 h -3.25601 v 3.69601 h 3.62268 v 1.07067 h -4.89868 v -10.26669 z"
         id="path13272" />
      <path
         d="m 149.74469,402.47567 v -9.15202 h -2.33201 v -1.11467 h 5.94002 v 1.11467 h -2.33201 v 9.15202 z"
         id="path13274" />
    </g>
    <circle
       style="display:inline;fill:#8aaec5;stroke-width:0.264999;stroke-linejoin:round;stroke-opacity:0.130919"
       id="path1043"
       cx="74.787415"
       cy="162.06963"
       r="5" />
    <circle
       style="display:inline;fill:#8aaec5;stroke-width:0.264999;stroke-linejoin:round;stroke-opacity:0.130919"
       id="path1043-6"
       cx="89.334953"
       cy="162.06963"
       r="5" />
    <g
       aria-label="DIGITAL SEQUENCER XP"
       transform="matrix(0.26458333,0,0,0.26458333,25.701168,48.418371)"
       id="text16412"
       style="font-size:13.3333px;line-height:1.25;font-family:'Share Tech Mono';-inkscape-font-specification:'Share Tech Mono, Normal';letter-spacing:0px;word-spacing:0px;white-space:pre;shape-inside:url(#rect16414)">
      <path
         d="m 427.5422,9.6767341 q 0,1.1466639 -0.53333,1.6266629 -0.52,0.479998 -1.73333,0.479998 h -2.74666 V 2.4500857 h 2.58666 q 1.19999,0 1.81333,0.4933321 0.61333,0.4799988 0.61333,1.5866626 z m -1.16,-5.2666534 q 0,-0.4399989 -0.26666,-0.6933315 -0.26667,-0.266666 -0.70667,-0.266666 h -1.72 v 7.3333148 h 1.70667 q 0.50666,0 0.74666,-0.226666 0.24,-0.24 0.24,-0.7466649 z"
         style="fill:#888888"
         id="path30571" />
      <path
         d="M 431.64884,10.810065 V 3.4234166 h -1.2 V 2.4500857 h 3.56 v 0.9733309 h -1.2 v 7.3866484 h 1.2 v 0.97333 h -3.56 v -0.97333 z"
         style="fill:#888888"
         id="path30573" />
      <path
         d="m 439.48881,11.783395 q -1.16,0 -1.78666,-0.559998 -0.61334,-0.573332 -0.61334,-1.7066625 V 4.7167466 q 0,-1.1333304 0.61334,-1.693329 0.62666,-0.5733319 1.78666,-0.5733319 h 1.87999 v 1.0133308 h -2.01332 q -0.49334,0 -0.8,0.2933326 -0.30667,0.2933325 -0.30667,0.7066648 v 5.3066533 q 0,0.4133318 0.30667,0.7066648 0.30666,0.293333 0.8,0.293333 h 1.30666 V 7.8767386 h -1.16 V 6.8767412 h 2.26666 v 4.9066538 z"
         style="fill:#888888"
         id="path30575" />
      <path
         d="M 446.04878,10.810065 V 3.4234166 h -1.2 V 2.4500857 h 3.55999 v 0.9733309 h -1.19999 v 7.3866484 h 1.19999 v 0.97333 h -3.55999 v -0.97333 z"
         style="fill:#888888"
         id="path30577" />
      <path
         d="M 453.24875,11.783395 V 3.4634165 h -2.12 V 2.4500857 h 5.39999 v 1.0133308 h -2.12 v 8.3199785 z"
         style="fill:#888888"
         id="path30579" />
      <path
         d="m 459.74205,9.4234014 -0.52,2.3599936 h -1.18666 l 2.25333,-9.3333093 h 1.53333 l 2.21332,9.3333093 h -1.18666 l -0.50667,-2.3599936 z m 2.38666,-0.9999975 -1.09333,-5.0933204 -1.08,5.0933204 z"
         style="fill:#888888"
         id="path30581" />
      <path
         d="m 467.32869,2.4500857 v 8.3199793 h 2.97332 v 1.01333 h -4.13332 V 2.4500857 Z"
         style="fill:#888888"
         id="path30583" />
      <path
         d="m 484.88862,9.5167345 q 0,1.1333305 -0.62667,1.7066625 -0.61333,0.559998 -1.77333,0.559998 h -1.89333 v -1.01333 h 2.02666 q 0.49334,0 0.8,-0.293333 0.30667,-0.293333 0.30667,-0.7066648 V 8.383404 q 0,-0.399999 -0.21333,-0.6399984 -0.2,-0.2533326 -0.61334,-0.2533326 h -0.39999 q -0.98667,0 -1.56,-0.5733319 -0.57333,-0.5866652 -0.57333,-1.6933291 V 4.7167466 q 0,-1.1333304 0.61333,-1.693329 0.62666,-0.5733319 1.78666,-0.5733319 h 1.90666 v 1.0133308 h -2.03999 q -0.49333,0 -0.8,0.2933326 -0.30667,0.2933325 -0.30667,0.7066648 v 1.0133308 q 0,0.4133323 0.26667,0.6933316 0.26667,0.266666 0.69333,0.266666 h 0.4 q 0.94667,0 1.46666,0.5466653 0.53334,0.5466653 0.53334,1.6533291 z"
         style="fill:#888888"
         id="path30585" />
      <path
         d="m 492.06192,2.4500857 v 0.9733309 h -3.29333 v 3.0533256 h 2.96 v 0.9733309 h -2.96 v 3.3599919 h 3.29333 v 0.97333 H 487.6086 V 2.4500857 Z"
         style="fill:#888888"
         id="path30587" />
      <path
         d="m 498.58189,11.543396 q -0.52,0.239999 -1.28,0.239999 h -0.53333 q -1.16,0 -1.78666,-0.559998 -0.61333,-0.573332 -0.61333,-1.7066625 V 4.7167466 q 0,-1.1333304 0.61333,-1.693329 0.62666,-0.5733319 1.78666,-0.5733319 h 0.53333 q 1.16,0 1.77333,0.5733319 0.62666,0.5599986 0.62666,1.693329 v 4.7999879 q 0,0.7866645 -0.30666,1.3199965 l 0.97333,0.973331 -0.76,0.759998 z m -0.04,-7.0799821 q 0,-0.4133323 -0.30667,-0.7066648 -0.30666,-0.2933326 -0.8,-0.2933326 h -0.79999 q -0.49334,0 -0.8,0.2933326 -0.30667,0.2933325 -0.30667,0.7066648 v 5.3066533 q 0,0.4133318 0.30667,0.7066648 0.30666,0.293333 0.8,0.293333 h 0.79999 q 0.49334,0 0.8,-0.293333 0.30667,-0.293333 0.30667,-0.7066648 z"
         style="fill:#888888"
         id="path30589" />
      <path
         d="m 506.79518,9.5167345 q 0,1.1333305 -0.62666,1.7066625 -0.61333,0.559998 -1.77333,0.559998 h -0.33333 q -1.16,0 -1.78666,-0.559998 -0.61334,-0.573332 -0.61334,-1.7066625 V 2.4500857 h 1.16 v 7.3199815 q 0,0.4133318 0.30667,0.7066648 0.30666,0.293333 0.8,0.293333 h 0.59999 q 0.49334,0 0.8,-0.293333 0.30667,-0.293333 0.30667,-0.7066648 V 2.4500857 h 1.15999 z"
         style="fill:#888888"
         id="path30591" />
      <path
         d="m 513.66183,2.4500857 v 0.9733309 h -3.29333 v 3.0533256 h 2.95999 v 0.9733309 h -2.95999 v 3.3599919 h 3.29333 v 0.97333 H 509.2085 V 2.4500857 Z"
         style="fill:#888888"
         id="path30593" />
      <path
         d="m 517.16847,11.783395 h -1.08 V 2.4500857 h 1.89333 l 2.10666,8.3466453 V 2.4500857 h 1.08 v 9.3333093 h -1.90666 l -2.09333,-8.3466451 z"
         style="fill:#888888"
         id="path30595" />
      <path
         d="m 526.08843,11.783395 q -1.16,0 -1.78666,-0.559998 -0.61333,-0.573332 -0.61333,-1.7066625 V 4.7167466 q 0,-1.1333304 0.61333,-1.693329 0.62666,-0.5733319 1.78666,-0.5733319 h 1.89333 v 1.0133308 h -2.02666 q -0.49333,0 -0.8,0.2933326 -0.30667,0.2933325 -0.30667,0.7066648 v 5.3066533 q 0,0.4133318 0.30667,0.7066648 0.30667,0.293333 0.8,0.293333 h 2.02666 v 1.01333 z"
         style="fill:#888888"
         id="path30597" />
      <path
         d="m 535.26173,2.4500857 v 0.9733309 h -3.29332 v 3.0533256 h 2.95999 v 0.9733309 h -2.95999 v 3.3599919 h 3.29332 v 0.97333 h -4.45332 V 2.4500857 Z"
         style="fill:#888888"
         id="path30599" />
      <path
         d="m 538.72838,7.9167385 v 3.8666565 h -1.16 V 2.4500857 h 2.50666 q 1.13333,0 1.70666,0.5066654 0.58667,0.4933321 0.58667,1.5733293 v 1.2799968 q 0,1.5066629 -1.2,1.8799952 l 1.85333,4.0933226 h -1.26667 l -1.71999,-3.8666565 z m 2.47999,-3.5066578 q 0,-0.5066654 -0.24,-0.7333314 -0.22667,-0.2266661 -0.73333,-0.2266661 h -1.50666 v 3.4666579 h 1.50666 q 0.50666,0 0.73333,-0.2266661 0.24,-0.2399994 0.24,-0.7466648 z"
         style="fill:#888888"
         id="path30601" />
      <path
         d="m 552.96832,11.783395 h -1.25333 l 2.31999,-4.826654 -2.10666,-4.5066553 h 1.26666 l 1.46667,3.159992 1.51999,-3.159992 h 1.24 l -2.16,4.493322 2.29333,4.8399873 h -1.30666 l -1.6,-3.5066574 z"
         style="fill:#888888"
         id="path30603" />
      <path
         d="m 564.24827,6.0500766 q 0,1.0799973 -0.57333,1.5999959 -0.57333,0.5066654 -1.69333,0.5066654 h -1.38666 v 3.6266571 h -1.16 V 2.4500857 h 2.52 q 1.13333,0 1.70666,0.5066654 0.58666,0.4933321 0.58666,1.5733293 z m -1.15999,-1.6399959 q 0,-0.5066654 -0.24,-0.7333314 -0.22667,-0.2266661 -0.73333,-0.2266661 h -1.52 v 3.7066573 h 1.52 q 0.50666,0 0.73333,-0.2266661 0.24,-0.2399994 0.24,-0.7466648 z"
         style="fill:#888888"
         id="path30605" />
    </g>
    <rect
       style="fill:#8aaec5;fill-opacity:1;stroke-width:0.262809;stroke-linejoin:round;stroke-opacity:0.130919"
       id="rect30853"
       width="12.52"
       height="23.406"
       x="228.85995"
       y="148.56963"
       ry="1.3096207"
       rx="1.3096207" />
  </g>
</svg>
