<?xml version="1.0" encoding="UTF-8" standalone="no"?>
<!-- Created with Inkscape (http://www.inkscape.org/) -->

<svg
   xmlns:dc="http://purl.org/dc/elements/1.1/"
   xmlns:cc="http://creativecommons.org/ns#"
   xmlns:rdf="http://www.w3.org/1999/02/22-rdf-syntax-ns#"
   xmlns:svg="http://www.w3.org/2000/svg"
   xmlns="http://www.w3.org/2000/svg"
   xmlns:sodipodi="http://sodipodi.sourceforge.net/DTD/sodipodi-0.dtd"
   xmlns:inkscape="http://www.inkscape.org/namespaces/inkscape"
   width="45.720001mm"
   height="128.5mm"
   viewBox="0 0 45.720001 128.5"
   version="1.1"
   id="svg11003"
   inkscape:version="0.92.4 (5da689c313, 2019-01-14)"
   sodipodi:docname="explore_front_panel.svg">
  <defs
     id="defs10997" />
  <sodipodi:namedview
     id="base"
     pagecolor="#ffffff"
     bordercolor="#666666"
     borderopacity="1.0"
     inkscape:pageopacity="0.0"
     inkscape:pageshadow="2"
     inkscape:zoom="1.979899"
     inkscape:cx="151.99319"
     inkscape:cy="269.04467"
     inkscape:document-units="mm"
     inkscape:current-layer="layer1"
     showgrid="false"
     fit-margin-top="0"
     fit-margin-left="0"
     fit-margin-right="0"
     fit-margin-bottom="0"
     inkscape:window-width="1920"
     inkscape:window-height="1137"
     inkscape:window-x="1912"
     inkscape:window-y="-8"
     inkscape:window-maximized="1"
     units="mm"
     showguides="true"
     inkscape:guide-bbox="true">
    <sodipodi:guide
       position="17.840241,83.788998"
       orientation="0,1"
       id="guide887"
       inkscape:locked="false"
       inkscape:label=""
       inkscape:color="rgb(0,0,255)" />
    <sodipodi:guide
       position="-1.0022607,112.38684"
       orientation="0,1"
       id="guide902"
       inkscape:locked="false" />
    <sodipodi:guide
       position="0,125.61668"
       orientation="1,0"
       id="guide905"
       inkscape:locked="false" />
    <sodipodi:guide
       position="13.18192,71.744607"
       orientation="1,0"
       id="guide907"
       inkscape:locked="false"
       inkscape:label=""
       inkscape:color="rgb(0,0,255)" />
    <sodipodi:guide
       position="34.236375,25.767346"
       orientation="1,0"
       id="guide854"
       inkscape:locked="false" />
    <sodipodi:guide
       position="-14.363095,101.86458"
       orientation="0,1"
       id="guide1520"
       inkscape:locked="false" />
    <sodipodi:guide
       position="-0.46772168,92.107762"
       orientation="0,1"
       id="guide1522"
       inkscape:locked="false" />
    <sodipodi:guide
       position="37.041667,107.25075"
       orientation="0,1"
       id="guide1524"
       inkscape:locked="false" />
    <sodipodi:guide
       position="20.505209,19.276786"
       orientation="0,1"
       id="guide5229"
       inkscape:locked="false" />
  </sodipodi:namedview>
  <metadata
     id="metadata11000">
    <rdf:RDF>
      <cc:Work
         rdf:about="">
        <dc:format>image/svg+xml</dc:format>
        <dc:type
           rdf:resource="http://purl.org/dc/dcmitype/StillImage" />
        <dc:title />
      </cc:Work>
    </rdf:RDF>
  </metadata>
  <g
     inkscape:label="Panel Layer"
     inkscape:groupmode="layer"
     id="layer1"
     transform="translate(-64.792954,-47.169623)"
     style="display:inline">
    <path
       inkscape:connector-curvature="0"
       id="path33429"
       d="M 64.792954,47.169629 H 110.51295 V 175.66963 H 64.792954 Z m 0,0"
       style="fill:#e6e6e6;fill-opacity:1;fill-rule:nonzero;stroke:none;stroke-width:0.33553743" />
    <path
       inkscape:connector-curvature="0"
       id="path36629"
       d="m 105.27397,151.33008 c 0,-0.70925 -0.58092,-1.29052 -1.2937,-1.29052 h -9.932574 c -0.710997,0 -1.293684,0.58127 -1.293684,1.29052 v 15.70134 c 0,0.70925 0.582687,1.29052 1.293684,1.29052 h 9.932574 c 0.71278,0 1.2937,-0.58127 1.2937,-1.29052 z m 0,0"
       style="fill:#000000;fill-opacity:1;fill-rule:nonzero;stroke:none;stroke-width:0.45561951" />
    <text
       xml:space="preserve"
       style="font-style:normal;font-weight:normal;font-size:4.58611107px;line-height:1.25;font-family:sans-serif;letter-spacing:0px;word-spacing:0px;fill:#000000;fill-opacity:1;stroke:none;stroke-width:0.26458332"
       x="75.943253"
       y="53.772301"
       id="text110"><tspan
         sodipodi:role="line"
         id="tspan108"
         x="75.943253"
         y="57.956348"
         style="font-size:4.58611107px;stroke-width:0.26458332" /></text>
    <g
       id="flowRoot27"
       style="font-style:normal;font-variant:normal;font-weight:normal;font-stretch:normal;font-size:40px;line-height:1.25;font-family:Corbel;-inkscape-font-specification:Corbel;letter-spacing:0px;word-spacing:0px;fill:#000000;fill-opacity:1;stroke:none;stroke-width:0.26458332"
       transform="matrix(0.26458333,0,0,0.26458333,62.426841,47.434064)" />
    <g
       id="text37"
       style="font-style:normal;font-variant:normal;font-weight:normal;font-stretch:normal;font-size:10.58333302px;line-height:1.25;font-family:Gabriola;-inkscape-font-specification:Gabriola;letter-spacing:0px;word-spacing:0px;fill:#000000;fill-opacity:1;stroke:none;stroke-width:0.07000434"
       transform="translate(-2.3661125,0.264441)" />
    <text
       id="text892"
       y="86.278252"
       x="74.846405"
       style="font-style:normal;font-variant:normal;font-weight:normal;font-stretch:normal;font-size:4.93888903px;line-height:1.25;font-family:'Share Tech Mono';-inkscape-font-specification:'Share Tech Mono';letter-spacing:0px;word-spacing:0px;fill:#000000;fill-opacity:1;stroke:none;stroke-width:0.07000434"
       xml:space="preserve"><tspan
         style="font-size:4.93888903px;stroke-width:0.07000434"
         y="90.773979"
         x="74.846405"
         id="tspan890"
         sodipodi:role="line" /></text>
    <g
       id="g885"
       transform="translate(-28.908996,4.674551)">
      <path
         d="m 103.72648,148.75794 q 0,0.28575 -0.15169,0.42334 -0.1517,0.13405 -0.44803,0.13405 h -0.36689 v 0.95956 h -0.30692 v -2.46945 h 0.66675 q 0.29986,0 0.45156,0.13406 0.15522,0.13053 0.15522,0.41628 z m -0.30692,-0.43391 q 0,-0.13406 -0.0635,-0.19403 -0.06,-0.06 -0.19402,-0.06 h -0.40217 v 0.98072 h 0.40217 q 0.13405,0 0.19402,-0.06 0.0635,-0.0635 0.0635,-0.19756 z"
         style="font-style:normal;font-variant:normal;font-weight:normal;font-stretch:normal;font-size:3.52777767px;line-height:1.25;font-family:'Share Tech Mono';-inkscape-font-specification:'Share Tech Mono';letter-spacing:0px;word-spacing:0px;fill:#000000;fill-opacity:1;stroke:none;stroke-width:0.26458332"
         id="path305"
         inkscape:connector-curvature="0" />
      <path
         d="m 104.83442,150.01736 v -1.95439 h -0.3175 v -0.25753 h 0.94192 v 0.25753 h -0.3175 v 1.95439 h 0.3175 v 0.25753 h -0.94192 v -0.25753 z"
         style="font-style:normal;font-variant:normal;font-weight:normal;font-stretch:normal;font-size:3.52777767px;line-height:1.25;font-family:'Share Tech Mono';-inkscape-font-specification:'Share Tech Mono';letter-spacing:0px;word-spacing:0px;fill:#000000;fill-opacity:1;stroke:none;stroke-width:0.26458332"
         id="path307"
         inkscape:connector-curvature="0" />
      <path
         d="m 106.73612,150.27489 v -2.20133 h -0.56092 v -0.26812 h 1.42875 v 0.26812 h -0.56092 v 2.20133 z"
         style="font-style:normal;font-variant:normal;font-weight:normal;font-stretch:normal;font-size:3.52777767px;line-height:1.25;font-family:'Share Tech Mono';-inkscape-font-specification:'Share Tech Mono';letter-spacing:0px;word-spacing:0px;fill:#000000;fill-opacity:1;stroke:none;stroke-width:0.26458332"
         id="path309"
         inkscape:connector-curvature="0" />
      <path
         d="m 108.86006,150.27489 q -0.30692,0 -0.47272,-0.14817 -0.16228,-0.15169 -0.16228,-0.45155 v -1.27 q 0,-0.29986 0.16228,-0.44803 0.1658,-0.1517 0.47272,-0.1517 h 0.50094 v 0.26812 h -0.53622 q -0.13053,0 -0.21167,0.0776 -0.0811,0.0776 -0.0811,0.18697 v 1.40405 q 0,0.10937 0.0811,0.18698 0.0811,0.0776 0.21167,0.0776 h 0.53622 v 0.26811 z"
         style="font-style:normal;font-variant:normal;font-weight:normal;font-stretch:normal;font-size:3.52777767px;line-height:1.25;font-family:'Share Tech Mono';-inkscape-font-specification:'Share Tech Mono';letter-spacing:0px;word-spacing:0px;fill:#000000;fill-opacity:1;stroke:none;stroke-width:0.26458332"
         id="path311"
         inkscape:connector-curvature="0" />
      <path
         d="m 110.33136,149.13894 v 1.13595 h -0.30691 v -2.46945 h 0.30691 v 1.07245 h 0.72672 v -1.07245 h 0.30692 v 2.46945 h -0.30692 v -1.13595 z"
         style="font-style:normal;font-variant:normal;font-weight:normal;font-stretch:normal;font-size:3.52777767px;line-height:1.25;font-family:'Share Tech Mono';-inkscape-font-specification:'Share Tech Mono';letter-spacing:0px;word-spacing:0px;fill:#000000;fill-opacity:1;stroke:none;stroke-width:0.26458332"
         id="path313"
         inkscape:connector-curvature="0" />
    </g>
    <rect
       style="fill:#28282a;fill-opacity:1;stroke-width:0.1390565"
       id="rect438"
       width="12.52"
       height="80.071693"
       x="92.750198"
       y="-143.41794"
       ry="1.2566768"
       transform="scale(1,-1)" />
    <path
       inkscape:connector-curvature="0"
       id="path2137"
       style="font-style:normal;font-variant:normal;font-weight:normal;font-stretch:normal;font-size:3.52777767px;line-height:1.25;font-family:'Share Tech Mono';-inkscape-font-specification:'Share Tech Mono';letter-spacing:0px;word-spacing:0px;fill:#ffffff;fill-opacity:1;stroke:none;stroke-width:0.26458332"
       d="m 97.122874,153.41982 -0.22225,1.00189 h -0.42332 l -0.11994,-2.46945 h 0.26105 l 0.10583,2.20486 0.2928,-1.16416 h 0.21872 l 0.29986,1.16416 0.10936,-2.20486 h 0.24342 l -0.11994,2.46945 h -0.4445 z" />
    <path
       inkscape:connector-curvature="0"
       id="path2139"
       style="font-style:normal;font-variant:normal;font-weight:normal;font-stretch:normal;font-size:3.52777767px;line-height:1.25;font-family:'Share Tech Mono';-inkscape-font-specification:'Share Tech Mono';letter-spacing:0px;word-spacing:0px;fill:#ffffff;fill-opacity:1;stroke:none;stroke-width:0.26458332"
       d="m 98.689419,153.79729 -0.13759,0.62442 h -0.313955 l 0.596185,-2.46945 h 0.405697 l 0.585607,2.46945 h -0.31397 l -0.134057,-0.62442 z m 0.631477,-0.26458 -0.28928,-1.34761 -0.285757,1.34761 z" />
    <path
       inkscape:connector-curvature="0"
       id="path2141"
       style="font-style:normal;font-variant:normal;font-weight:normal;font-stretch:normal;font-size:3.52777767px;line-height:1.25;font-family:'Share Tech Mono';-inkscape-font-specification:'Share Tech Mono';letter-spacing:0px;word-spacing:0px;fill:#ffffff;fill-opacity:1;stroke:none;stroke-width:0.26458332"
       d="m 100.17836,151.95226 h 0.31044 l 0.42334,2.159 0.45508,-2.159 h 0.30339 l -0.55386,2.46945 h -0.41981 z" />
    <path
       d="m 76.029614,65.743404 v -2.20133 h -0.56091 v -0.26811 h 1.42875 v 0.26811 h -0.56092 v 2.20133 z"
       style="font-style:normal;font-variant:normal;font-weight:normal;font-stretch:normal;font-size:3.52777767px;line-height:1.25;font-family:'Share Tech Mono';-inkscape-font-specification:'Share Tech Mono';letter-spacing:0px;word-spacing:0px;fill:#000000;fill-opacity:1;stroke:none;stroke-width:0.26458332"
       id="path1505"
       inkscape:connector-curvature="0" />
    <path
       d="m 77.687894,64.720354 v 1.02305 h -0.30692 v -2.46944 h 0.66323 q 0.29986,0 0.45155,0.13405 0.15522,0.13053 0.15522,0.41628 v 0.33867 q 0,0.39864 -0.3175,0.49741 l 0.49037,1.08303 h -0.33514 l -0.45509,-1.02305 z m 0.65617,-0.92781 q 0,-0.13405 -0.0635,-0.19403 -0.06,-0.06 -0.19403,-0.06 h -0.39864 v 0.91722 h 0.39864 q 0.13406,0 0.19403,-0.06 0.0635,-0.0635 0.0635,-0.19755 z"
       style="font-style:normal;font-variant:normal;font-weight:normal;font-stretch:normal;font-size:3.52777767px;line-height:1.25;font-family:'Share Tech Mono';-inkscape-font-specification:'Share Tech Mono';letter-spacing:0px;word-spacing:0px;fill:#000000;fill-opacity:1;stroke:none;stroke-width:0.26458332"
       id="path1507"
       inkscape:connector-curvature="0" />
    <path
       d="m 80.002334,65.743404 q -0.30691,0 -0.47272,-0.14816 -0.16228,-0.1517 -0.16228,-0.45156 v -1.27 q 0,-0.29986 0.16228,-0.44803 0.16581,-0.15169 0.47272,-0.15169 h 0.49742 v 0.26811 h -0.53269 q -0.13053,0 -0.21167,0.0776 -0.0811,0.0776 -0.0811,0.18697 v 1.40406 q 0,0.10936 0.0811,0.18697 0.0811,0.0776 0.21167,0.0776 h 0.34572 v -0.76553 h -0.30692 v -0.26458 h 0.59972 v 1.29822 z"
       style="font-style:normal;font-variant:normal;font-weight:normal;font-stretch:normal;font-size:3.52777767px;line-height:1.25;font-family:'Share Tech Mono';-inkscape-font-specification:'Share Tech Mono';letter-spacing:0px;word-spacing:0px;fill:#000000;fill-opacity:1;stroke:none;stroke-width:0.26458332"
       id="path1509"
       inkscape:connector-curvature="0" />
    <path
       style="display:inline;fill:none;stroke:#000000;stroke-width:0.12362757px;stroke-linecap:butt;stroke-linejoin:miter;stroke-opacity:1"
       d="m 77.977954,102.74213 c 0,-3.713484 0,-3.754754 0,-3.754754"
       id="path27-1-3"
       inkscape:connector-curvature="0" />
    <path
       style="display:inline;fill:none;stroke:#000000;stroke-width:0.12146974px;stroke-linecap:butt;stroke-linejoin:miter;stroke-opacity:1"
       d="m 77.974874,114.89742 c 0,-3.58499 0,-3.62483 0,-3.62483"
       id="path27-1-3-3"
       inkscape:connector-curvature="0" />
    <g
       aria-label="Explore"
       style="font-style:normal;font-variant:normal;font-weight:normal;font-stretch:normal;font-size:3.88055563px;line-height:1.25;font-family:'Share Tech Mono';-inkscape-font-specification:'Share Tech Mono';letter-spacing:0px;word-spacing:0px;fill:#000000;fill-opacity:1;stroke:none;stroke-width:0.26458332"
       id="text927">
      <path
         d="m 73.838671,52.414676 v 0.283281 h -0.958497 v 0.888647 h 0.861483 v 0.283281 h -0.861483 v 0.9779 h 0.958497 v 0.28328 h -1.296106 v -2.716389 z"
         style="stroke-width:0.26458332"
         id="path929" />
      <path
         d="m 74.851738,55.131065 h -0.364772 l 0.605367,-1.001183 -0.5588,-0.939094 h 0.384175 l 0.368653,0.651933 0.376413,-0.651933 h 0.360892 l -0.566561,0.923572 0.617008,1.016705 H 75.686058 L 75.278599,54.39764 Z"
         style="stroke-width:0.26458332"
         id="path931" />
      <path
         d="m 76.974645,53.190788 v 0.09313 q 0.120297,-0.09313 0.310444,-0.09313 h 0.1397 q 0.341489,0 0.500592,0.147461 0.159103,0.14358 0.159103,0.473427 v 0.6985 q 0,0.325967 -0.162984,0.473428 -0.159102,0.147461 -0.496711,0.147461 H 76.994048 V 55.79076 H 76.6642 v -2.599972 z m 0.271639,0.291041 q -0.128059,0 -0.190148,0.06985 -0.06209,0.06597 -0.06209,0.143581 v 1.144764 h 0.469547 q 0.14358,0 0.217311,-0.06597 0.07373,-0.06597 0.07373,-0.186266 v -0.853723 q 0,-0.120297 -0.07373,-0.186266 -0.07373,-0.06597 -0.217311,-0.06597 z"
         style="stroke-width:0.26458332"
         id="path933" />
      <path
         d="m 79.590382,55.131065 q -0.131939,0 -0.232833,-0.09313 -0.09701,-0.09313 -0.09701,-0.294922 v -2.037292 h -0.570442 v -0.291042 h 0.900289 v 2.308931 q 0,0.06209 0.03104,0.08925 0.03105,0.02716 0.104775,0.02716 h 0.516114 v 0.291041 z"
         style="stroke-width:0.26458332"
         id="path935" />
      <path
         d="m 82.279849,54.510176 q 0,0.325967 -0.162983,0.473428 -0.159103,0.147461 -0.496711,0.147461 h -0.128059 q -0.337608,0 -0.500591,-0.147461 -0.159103,-0.147461 -0.159103,-0.473428 v -0.6985 q 0,-0.325966 0.159103,-0.473427 0.162983,-0.147461 0.500591,-0.147461 h 0.128059 q 0.337608,0 0.496711,0.147461 0.162983,0.147461 0.162983,0.473427 z m -0.329847,-0.776111 q 0,-0.120297 -0.07373,-0.186266 -0.07373,-0.06597 -0.217311,-0.06597 h -0.205669 q -0.143581,0 -0.217311,0.06597 -0.07373,0.06597 -0.07373,0.186266 v 0.853723 q 0,0.120297 0.07373,0.186266 0.07373,0.06597 0.217311,0.06597 h 0.205669 q 0.143581,0 0.217311,-0.06597 0.07373,-0.06597 0.07373,-0.186266 z"
         style="stroke-width:0.26458332"
         id="path937" />
      <path
         d="m 83.273514,54.840024 v -1.358195 h -0.283281 v -0.291041 h 0.593725 v 0.104775 q 0.128059,-0.104775 0.310445,-0.104775 H 84.2941 v 0.310444 h -0.438503 q -0.124178,0 -0.186267,0.08149 -0.06209,0.07761 -0.06597,0.159102 v 1.098198 h 0.422981 v 0.291041 h -1.036109 v -0.291041 z"
         style="stroke-width:0.26458332"
         id="path939" />
      <path
         d="m 85.718507,55.131065 q -0.341489,0 -0.500592,-0.14358 -0.159102,-0.147461 -0.159102,-0.477309 v -0.6985 q 0,-0.333727 0.14358,-0.477308 0.143581,-0.14358 0.477308,-0.14358 h 0.182387 q 0.275519,0 0.415219,0.155222 0.143581,0.151341 0.143581,0.446264 v 0.504472 H 85.38866 v 0.291042 q 0,0.120297 0.07373,0.186266 0.07373,0.06597 0.217311,0.06597 h 0.617009 v 0.291041 z m 0.380294,-1.416402 q 0,-0.100895 -0.06597,-0.166864 -0.06597,-0.06597 -0.166864,-0.06597 h -0.225072 q -0.1397,0 -0.197908,0.06597 -0.05433,0.06209 -0.05433,0.186266 v 0.271639 h 0.710141 z"
         style="stroke-width:0.26458332"
         id="path941" />
    </g>
  </g>
</svg>
