<?xml version="1.0" encoding="UTF-8" standalone="no"?>
<!-- Created with Inkscape (http://www.inkscape.org/) -->

<svg
   xmlns:dc="http://purl.org/dc/elements/1.1/"
   xmlns:cc="http://creativecommons.org/ns#"
   xmlns:rdf="http://www.w3.org/1999/02/22-rdf-syntax-ns#"
   xmlns:svg="http://www.w3.org/2000/svg"
   xmlns="http://www.w3.org/2000/svg"
   xmlns:sodipodi="http://sodipodi.sourceforge.net/DTD/sodipodi-0.dtd"
   xmlns:inkscape="http://www.inkscape.org/namespaces/inkscape"
   width="86mm"
   height="128.5mm"
   viewBox="0 0 86 128.5"
   version="1.1"
   id="svg11003"
   inkscape:version="0.92.4 (5da689c313, 2019-01-14)"
   sodipodi:docname="ghosts_front_panel.svg">
  <defs
     id="defs10997" />
  <sodipodi:namedview
     id="base"
     pagecolor="#ffffff"
     bordercolor="#666666"
     borderopacity="1.0"
     inkscape:pageopacity="0.0"
     inkscape:pageshadow="2"
     inkscape:zoom="15.839192"
     inkscape:cx="251.82839"
     inkscape:cy="343.51012"
     inkscape:document-units="mm"
     inkscape:current-layer="layer1"
     showgrid="false"
     fit-margin-top="0"
     fit-margin-left="0"
     fit-margin-right="0"
     fit-margin-bottom="0"
     inkscape:window-width="1920"
     inkscape:window-height="1137"
     inkscape:window-x="1912"
     inkscape:window-y="-8"
     inkscape:window-maximized="1"
     units="mm"
     showguides="true"
     inkscape:guide-bbox="true"
     showborder="false">
    <sodipodi:guide
       position="67.421504,104.27418"
       orientation="1,0"
       id="guide946"
       inkscape:locked="false" />
    <sodipodi:guide
       position="96.8564,102.52604"
       orientation="0,1"
       id="guide950"
       inkscape:locked="false" />
    <sodipodi:guide
       position="84.49058,82.786738"
       orientation="0,1"
       id="guide952"
       inkscape:locked="false" />
    <sodipodi:guide
       position="91.40618,109.11279"
       orientation="0,1"
       id="guide954"
       inkscape:locked="false" />
    <sodipodi:guide
       position="89.769346,20.221727"
       orientation="0,1"
       id="guide998"
       inkscape:locked="false" />
    <sodipodi:guide
       position="109.04613,7.7485121"
       orientation="0,1"
       id="guide1000"
       inkscape:locked="false" />
    <sodipodi:guide
       position="57.641369,102.52604"
       orientation="1,0"
       id="guide1002"
       inkscape:locked="false" />
    <sodipodi:guide
       position="82.020834,82.786739"
       orientation="1,0"
       id="guide1004"
       inkscape:locked="false" />
    <sodipodi:guide
       position="21.103179,13.742978"
       orientation="0,1"
       id="guide1021"
       inkscape:locked="false" />
    <sodipodi:guide
       position="93.076614,25.457423"
       orientation="0,1"
       id="guide1023"
       inkscape:locked="false" />
    <sodipodi:guide
       position="16.136398,22.71791"
       orientation="1,0"
       id="guide1035"
       inkscape:locked="false" />
    <sodipodi:guide
       position="20.980658,25.457423"
       orientation="1,0"
       id="guide1037"
       inkscape:locked="false" />
  </sodipodi:namedview>
  <metadata
     id="metadata11000">
    <rdf:RDF>
      <cc:Work
         rdf:about="">
        <dc:format>image/svg+xml</dc:format>
        <dc:type
           rdf:resource="http://purl.org/dc/dcmitype/StillImage" />
        <dc:title />
      </cc:Work>
    </rdf:RDF>
  </metadata>
  <g
     inkscape:label="Panel Layer"
     inkscape:groupmode="layer"
     id="layer1"
     transform="translate(-64.792954,-47.169623)"
     style="display:inline">
    <path
       inkscape:connector-curvature="0"
       id="path33429"
       d="M 64.792954,47.169629 H 150.79295 V 175.66963 H 64.792954 Z m 0,0"
       style="fill:#e6e6e6;fill-opacity:1;fill-rule:nonzero;stroke:none;stroke-width:0.46018988" />
    <path
       inkscape:connector-curvature="0"
       id="path36629"
       d="m 124.13816,155.4479 c -0.93735,0 -1.70557,0.58092 -1.70557,1.2937 v 9.93261 c 0,0.71101 0.76822,1.29369 1.70557,1.29369 h 20.75117 c 0.93735,0 1.70557,-0.58269 1.70557,-1.29369 v -9.93261 c 0,-0.71278 -0.76823,-1.2937 -1.70557,-1.2937 z m 0,0"
       style="fill:#000000;fill-opacity:1;fill-rule:nonzero;stroke:none;stroke-width:0.5237875" />
    <text
       xml:space="preserve"
       style="font-style:normal;font-weight:normal;font-size:4.58611107px;line-height:1.25;font-family:sans-serif;letter-spacing:0px;word-spacing:0px;fill:#000000;fill-opacity:1;stroke:none;stroke-width:0.26458332"
       x="75.943253"
       y="53.772301"
       id="text110"><tspan
         sodipodi:role="line"
         id="tspan108"
         x="75.943253"
         y="57.956348"
         style="font-size:4.58611107px;stroke-width:0.26458332" /></text>
    <g
       aria-label="GHOSTS"
       style="font-style:normal;font-variant:normal;font-weight:normal;font-stretch:normal;font-size:3.88055563px;line-height:1.25;font-family:'Share Tech Mono';-inkscape-font-specification:'Share Tech Mono';letter-spacing:0px;word-spacing:0px;fill:#000000;fill-opacity:1;stroke:none;stroke-width:0.26458332"
       id="text2087">
      <path
         d="m 101.17407,55.926624 q -0.42968,0 -0.66181,-0.207433 -0.22719,-0.212372 -0.22719,-0.632178 v -1.778 q 0,-0.419805 0.22719,-0.627239 0.23213,-0.212372 0.66181,-0.212372 h 0.69638 v 0.375356 h -0.74577 q -0.18274,0 -0.29633,0.108655 -0.1136,0.108656 -0.1136,0.261761 v 1.965678 q 0,0.153106 0.1136,0.261761 0.11359,0.108656 0.29633,0.108656 h 0.48401 V 54.47953 h -0.42968 v -0.370417 h 0.83961 v 1.817511 z"
         style="font-size:4.93888903px;stroke-width:0.26458332"
         id="path2200"
         inkscape:connector-curvature="0" />
      <path
         d="m 103.30798,54.336302 v 1.590322 h -0.42968 v -3.457222 h 0.42968 v 1.501422 h 1.01741 v -1.501422 h 0.42968 v 3.457222 h -0.42968 v -1.590322 z"
         style="font-size:4.93888903px;stroke-width:0.26458332"
         id="path2202"
         inkscape:connector-curvature="0" />
      <path
         d="m 107.46683,55.087013 q 0,0.419806 -0.23212,0.632178 -0.22719,0.207433 -0.65688,0.207433 h -0.19755 q -0.42969,0 -0.66181,-0.207433 -0.22719,-0.212372 -0.22719,-0.632178 v -1.778 q 0,-0.419805 0.22719,-0.627239 0.23212,-0.212372 0.66181,-0.212372 h 0.19755 q 0.42969,0 0.65688,0.212372 0.23212,0.207434 0.23212,0.627239 z m -0.42968,-1.871839 q 0,-0.153105 -0.11359,-0.261761 -0.1136,-0.108655 -0.29634,-0.108655 h -0.29633 q -0.18274,0 -0.29633,0.108655 -0.1136,0.108656 -0.1136,0.261761 v 1.965678 q 0,0.153106 0.1136,0.261761 0.11359,0.108656 0.29633,0.108656 h 0.29633 q 0.18274,0 0.29634,-0.108656 0.11359,-0.108655 0.11359,-0.261761 z"
         style="font-size:4.93888903px;stroke-width:0.26458332"
         id="path2204"
         inkscape:connector-curvature="0" />
      <path
         d="m 109.9761,55.087013 q 0,0.419806 -0.23213,0.632178 -0.22719,0.207433 -0.65687,0.207433 h -0.70132 v -0.375355 h 0.75071 q 0.18274,0 0.29633,-0.108656 0.1136,-0.108655 0.1136,-0.261761 v -0.513644 q 0,-0.148167 -0.079,-0.237067 -0.0741,-0.09384 -0.22719,-0.09384 h -0.14816 q -0.36548,0 -0.57785,-0.212372 -0.21237,-0.217311 -0.21237,-0.627239 v -0.187678 q 0,-0.419805 0.22718,-0.627239 0.23213,-0.212372 0.66182,-0.212372 h 0.70626 v 0.375356 h -0.75565 q -0.18274,0 -0.29634,0.108655 -0.11359,0.108656 -0.11359,0.261761 v 0.375356 q 0,0.153105 0.0988,0.256822 0.0988,0.09878 0.25682,0.09878 h 0.14817 q 0.35066,0 0.54327,0.202494 0.19756,0.202495 0.19756,0.612422 z"
         style="font-size:4.93888903px;stroke-width:0.26458332"
         id="path2206"
         inkscape:connector-curvature="0" />
      <path
         d="m 111.58648,55.926624 v -3.081866 h -0.78528 v -0.375356 h 2.00025 v 0.375356 h -0.78528 v 3.081866 z"
         style="font-size:4.93888903px;stroke-width:0.26458332"
         id="path2208"
         inkscape:connector-curvature="0" />
      <path
         d="m 115.30084,55.087013 q 0,0.419806 -0.23213,0.632178 -0.22719,0.207433 -0.65687,0.207433 h -0.70132 v -0.375355 h 0.75071 q 0.18274,0 0.29633,-0.108656 0.11359,-0.108655 0.11359,-0.261761 v -0.513644 q 0,-0.148167 -0.079,-0.237067 -0.0741,-0.09384 -0.22719,-0.09384 h -0.14816 q -0.36548,0 -0.57785,-0.212372 -0.21238,-0.217311 -0.21238,-0.627239 v -0.187678 q 0,-0.419805 0.22719,-0.627239 0.23213,-0.212372 0.66181,-0.212372 h 0.70627 v 0.375356 h -0.75565 q -0.18274,0 -0.29634,0.108655 -0.11359,0.108656 -0.11359,0.261761 v 0.375356 q 0,0.153105 0.0988,0.256822 0.0988,0.09878 0.25682,0.09878 H 114.56 q 0.35067,0 0.54328,0.202494 0.19756,0.202495 0.19756,0.612422 z"
         style="font-size:4.93888903px;stroke-width:0.26458332"
         id="path2210"
         inkscape:connector-curvature="0" />
    </g>
    <g
       aria-label="voxglitch"
       style="font-style:normal;font-variant:normal;font-weight:normal;font-stretch:normal;font-size:3.88055563px;line-height:1.25;font-family:'Sitka Subheading';-inkscape-font-specification:'Sitka Subheading';letter-spacing:0px;word-spacing:0px;fill:#999999;fill-opacity:1;stroke:none;stroke-width:0.26458332"
       id="text939"
       transform="translate(-0.66006751,0.11235302)">
      <path
         d="m 139.18399,173.2094 q -0.01,-0.0251 -0.0289,-0.0389 -0.0176,-0.0138 -0.0426,-0.0226 l -0.0953,-0.0389 v -0.0778 h 0.58451 v 0.0778 l -0.18438,0.0539 0.29727,0.70116 0.059,0.17811 h 0.0138 l 0.3324,-0.85293 -0.17435,-0.0803 v -0.0778 h 0.47915 v 0.0778 l -0.0991,0.0615 q -0.0251,0.0125 -0.0439,0.0263 -0.0188,0.0138 -0.0289,0.0364 l -0.34369,0.83914 -0.13672,0.27344 h -0.10787 z"
         style="font-size:2.82222223px;fill:#999999;stroke-width:0.26458332"
         id="path941"
         inkscape:connector-curvature="0" />
      <path
         d="m 141.14323,174.36588 q -0.14048,0 -0.25588,-0.0477 -0.11539,-0.0477 -0.19818,-0.13547 -0.0815,-0.0891 -0.12669,-0.21574 -0.0439,-0.12669 -0.0439,-0.28348 0,-0.1455 0.0439,-0.27093 0.0452,-0.12544 0.12669,-0.21826 0.0828,-0.0928 0.20069,-0.1455 0.11791,-0.0539 0.26592,-0.0539 0.16055,0 0.2772,0.0564 0.11791,0.0564 0.19442,0.15052 0.0778,0.0941 0.1154,0.21825 0.0376,0.12292 0.0376,0.25839 0,0.14299 -0.0439,0.26843 -0.0439,0.12543 -0.12669,0.2195 -0.0815,0.0928 -0.19943,0.14676 -0.11791,0.0527 -0.26718,0.0527 z m 0.0188,-0.11791 q 0.10536,0 0.17435,-0.0514 0.0702,-0.0514 0.11038,-0.13045 0.0414,-0.0803 0.0577,-0.17561 0.0163,-0.0966 0.0163,-0.18564 0,-0.10912 -0.0213,-0.21449 -0.0201,-0.10661 -0.0665,-0.19065 -0.0451,-0.084 -0.1179,-0.13547 -0.0727,-0.0514 -0.17686,-0.0514 -0.0702,0 -0.12418,0.0238 -0.0527,0.0238 -0.0928,0.064 -0.0401,0.0401 -0.0677,0.0941 -0.0263,0.0527 -0.0439,0.11289 -0.0163,0.0602 -0.0238,0.12292 -0.006,0.0627 -0.006,0.12167 0,0.0665 0.008,0.13672 0.008,0.069 0.0251,0.13547 0.0188,0.0652 0.0477,0.12418 0.0289,0.059 0.0715,0.10285 0.0426,0.0439 0.0991,0.0702 0.0577,0.0263 0.1317,0.0263 z"
         style="font-size:2.82222223px;fill:#999999;stroke-width:0.26458332"
         id="path943"
         inkscape:connector-curvature="0" />
      <path
         d="m 141.90933,174.25424 0.11163,-0.0464 q 0.0263,-0.01 0.0502,-0.0289 0.0251,-0.0201 0.0389,-0.0364 l 0.35622,-0.44152 -0.3487,-0.48793 q -0.0151,-0.0226 -0.0351,-0.0389 -0.0201,-0.0176 -0.0489,-0.0263 l -0.11289,-0.0389 v -0.0778 h 0.57198 v 0.0778 l -0.13422,0.0514 0.19568,0.28096 0.069,0.12418 h 0.009 l 0.29351,-0.3926 -0.11916,-0.064 v -0.0778 h 0.44277 v 0.0778 l -0.11163,0.0477 q -0.0263,0.01 -0.0502,0.0289 -0.0226,0.0188 -0.0376,0.0364 l -0.34243,0.42396 0.36125,0.50549 q 0.0163,0.0226 0.0364,0.0401 0.0213,0.0163 0.0489,0.0251 l 0.10913,0.0376 v 0.079 h -0.57197 v -0.079 l 0.13672,-0.0502 -0.20947,-0.29978 -0.069,-0.12292 h -0.009 l -0.30605,0.41016 0.11916,0.0627 v 0.079 h -0.44403 z"
         style="font-size:2.82222223px;fill:#999999;stroke-width:0.26458332"
         id="path945"
         inkscape:connector-curvature="0" />
      <path
         d="m 143.66884,174.29815 q -0.0326,-0.01 -0.069,-0.0289 -0.0351,-0.0188 -0.0652,-0.0477 -0.0301,-0.0289 -0.0502,-0.0677 -0.0188,-0.0401 -0.0188,-0.0916 0,-0.0577 0.0213,-0.10034 0.0226,-0.0439 0.0564,-0.074 0.0339,-0.0314 0.0753,-0.0502 0.0414,-0.0188 0.079,-0.0276 v -0.009 q -0.0389,-0.0226 -0.0778,-0.0539 -0.0389,-0.0326 -0.0702,-0.0765 -0.0301,-0.0439 -0.0502,-0.10035 -0.0188,-0.0577 -0.0188,-0.13045 0,-0.0928 0.0364,-0.17435 0.0376,-0.0815 0.10536,-0.14174 0.0677,-0.0602 0.16306,-0.0941 0.0953,-0.0351 0.21198,-0.0351 0.0753,0 0.14299,0.01 0.0677,0.01 0.13045,0.0263 h 0.44027 l -0.0151,0.15428 -0.3324,-0.0426 v 0.008 q 0.0301,0.0326 0.0539,0.0652 0.0238,0.0326 0.0401,0.069 0.0176,0.0351 0.0263,0.0753 0.009,0.0389 0.009,0.0853 0,0.0928 -0.0351,0.17184 -0.0339,0.079 -0.0991,0.13798 -0.0652,0.0577 -0.16056,0.0903 -0.0941,0.0326 -0.21574,0.0326 -0.0314,0 -0.064,-0.003 -0.0314,-0.004 -0.0602,-0.008 -0.0289,-0.005 -0.0539,-0.0113 -0.0238,-0.006 -0.0401,-0.0126 -0.0188,0.004 -0.0376,0.0151 -0.0176,0.0113 -0.0326,0.0289 -0.0151,0.0163 -0.0251,0.0389 -0.009,0.0226 -0.009,0.0489 0,0.0263 0.009,0.0502 0.009,0.0226 0.0238,0.0401 0.0151,0.0176 0.0339,0.0301 0.0201,0.0113 0.0414,0.0151 h 0.44278 q 0.12543,0 0.20947,0.0301 0.0853,0.0301 0.13672,0.079 0.0527,0.0489 0.074,0.10912 0.0226,0.059 0.0226,0.11791 0,0.10913 -0.0539,0.19944 -0.0527,0.0916 -0.14551,0.15679 -0.0928,0.0665 -0.21825,0.10285 -0.12543,0.0364 -0.26968,0.0364 -0.12417,0 -0.22954,-0.0213 -0.10411,-0.0213 -0.18062,-0.064 -0.0765,-0.0414 -0.12041,-0.10285 -0.0427,-0.0615 -0.0427,-0.14174 0,-0.0652 0.0226,-0.1154 0.0238,-0.0502 0.0615,-0.0878 0.0376,-0.0364 0.0865,-0.0615 0.0502,-0.0251 0.10536,-0.0401 z m 0.31985,-0.52055 q 0.064,0 0.11289,-0.0238 0.0489,-0.0238 0.0815,-0.069 0.0326,-0.0451 0.0489,-0.10912 0.0176,-0.0652 0.0176,-0.14676 0,-0.079 -0.0188,-0.14048 -0.0188,-0.0615 -0.0539,-0.10411 -0.0339,-0.0427 -0.0828,-0.064 -0.0477,-0.0226 -0.10661,-0.0226 -0.0577,0 -0.10411,0.0213 -0.0464,0.0213 -0.0803,0.064 -0.0339,0.0414 -0.0527,0.10411 -0.0176,0.0615 -0.0176,0.143 0,0.0828 0.0176,0.14801 0.0188,0.064 0.0514,0.10912 0.0339,0.0439 0.0815,0.0677 0.0477,0.0226 0.10536,0.0226 z m -0.21449,0.5356 q -0.0238,0.006 -0.0502,0.0238 -0.0263,0.0176 -0.0477,0.0464 -0.0213,0.0289 -0.0351,0.069 -0.0138,0.0414 -0.0138,0.0941 0,0.0527 0.0188,0.0941 0.0188,0.0414 0.0502,0.0715 0.0326,0.0301 0.074,0.0502 0.0414,0.0201 0.0853,0.0326 0.0439,0.0125 0.0866,0.0176 0.0439,0.005 0.0803,0.005 0.0778,0 0.15428,-0.0163 0.0778,-0.0151 0.13797,-0.0514 0.0615,-0.0351 0.0991,-0.0916 0.0376,-0.0552 0.0376,-0.13422 0,-0.0364 -0.0151,-0.074 -0.0138,-0.0376 -0.0451,-0.0677 -0.0301,-0.0301 -0.0803,-0.0489 -0.0489,-0.0201 -0.11665,-0.0201 z"
         style="font-size:2.82222223px;fill:#999999;stroke-width:0.26458332"
         id="path947"
         inkscape:connector-curvature="0" />
      <path
         d="m 144.83179,174.25424 0.16933,-0.0439 q 0.0238,-0.006 0.0376,-0.0213 0.0151,-0.0163 0.0151,-0.0427 v -1.4826 q 0,-0.0289 -0.0163,-0.0464 -0.0163,-0.0188 -0.0464,-0.0288 l -0.16557,-0.0615 v -0.0702 l 0.46535,-0.0477 v 1.73723 q 0,0.0263 0.015,0.0427 0.0163,0.0163 0.0376,0.0213 l 0.16056,0.0439 v 0.079 h -0.67232 z"
         style="font-size:2.82222223px;fill:#999999;stroke-width:0.26458332"
         id="path949"
         inkscape:connector-curvature="0" />
      <path
         d="m 145.98401,172.74655 q -0.0351,0 -0.0665,-0.0113 -0.0301,-0.0125 -0.0539,-0.0326 -0.0226,-0.0201 -0.0364,-0.0489 -0.0138,-0.0301 -0.0138,-0.0665 0,-0.0364 0.0138,-0.0665 0.0138,-0.0301 0.0364,-0.0502 0.0238,-0.0213 0.0539,-0.0326 0.0314,-0.0113 0.0665,-0.0113 0.0376,0 0.0702,0.0113 0.0326,0.01 0.0552,0.0301 0.0238,0.0201 0.0364,0.0489 0.0138,0.0276 0.0138,0.064 0,0.0376 -0.0138,0.0677 -0.0125,0.0301 -0.0364,0.0527 -0.0238,0.0213 -0.0564,0.0339 -0.0326,0.0113 -0.069,0.0113 z m -0.32612,1.50769 0.1731,-0.0439 q 0.0238,-0.006 0.0389,-0.0213 0.0151,-0.0163 0.0151,-0.0427 v -0.85795 q 0,-0.0289 -0.0163,-0.0464 -0.0163,-0.0188 -0.0477,-0.0289 l -0.1593,-0.0552 v -0.0702 l 0.45908,-0.074 v 1.13265 q 0,0.0263 0.0151,0.0427 0.0163,0.0163 0.0376,0.0213 l 0.16683,0.0439 v 0.079 h -0.68235 z"
         style="font-size:2.82222223px;fill:#999999;stroke-width:0.26458332"
         id="path951"
         inkscape:connector-curvature="0" />
      <path
         d="m 146.65956,173.16299 h -0.20947 v -0.0966 q 0.0514,-0.01 0.0928,-0.0188 0.0426,-0.009 0.0727,-0.0276 0.0301,-0.0201 0.0477,-0.0552 0.0188,-0.0351 0.0226,-0.0966 l 0.01,-0.17435 0.20069,-0.0389 v 0.38005 h 0.46034 l -0.0188,0.12795 h -0.44152 v 0.87049 q 0,0.0414 0.0263,0.0703 0.0264,0.0288 0.064,0.0477 0.0389,0.0188 0.0803,0.0276 0.0414,0.008 0.0728,0.008 0.0213,0 0.0477,-0.004 0.0276,-0.005 0.0527,-0.01 0.0251,-0.006 0.0464,-0.0138 0.0226,-0.008 0.0339,-0.0126 h 0.0326 v 0.0891 q -0.0176,0.0113 -0.0539,0.0314 -0.0351,0.0201 -0.0828,0.0401 -0.0464,0.0201 -0.10286,0.0339 -0.0552,0.0151 -0.11163,0.0151 -0.0703,0 -0.13296,-0.0176 -0.0615,-0.0176 -0.10787,-0.0502 -0.0464,-0.0326 -0.074,-0.0803 -0.0276,-0.0489 -0.0276,-0.11164 z"
         style="font-size:2.82222223px;fill:#999999;stroke-width:0.26458332"
         id="path953"
         inkscape:connector-curvature="0" />
      <path
         d="m 148.58823,174.02345 v 0.12418 q -0.0427,0.0376 -0.0966,0.0765 -0.0527,0.0376 -0.11666,0.069 -0.0627,0.0314 -0.13546,0.0502 -0.0728,0.0201 -0.15428,0.0201 -0.13547,0 -0.2446,-0.0502 -0.10912,-0.0502 -0.18564,-0.13798 -0.0765,-0.089 -0.1179,-0.20821 -0.0401,-0.11917 -0.0401,-0.25839 0,-0.10035 0.0238,-0.19192 0.0251,-0.0916 0.0702,-0.17058 0.0452,-0.079 0.10787,-0.143 0.064,-0.0652 0.14049,-0.11038 0.0778,-0.0451 0.16682,-0.0702 0.0891,-0.0251 0.18564,-0.0251 0.074,0 0.13045,0.0125 0.0577,0.0113 0.10035,0.0276 0.0439,0.0151 0.074,0.0326 0.0314,0.0163 0.0552,0.0263 l -0.0201,0.23455 h -0.0464 q -0.0477,-0.0301 -0.0953,-0.0615 -0.0464,-0.0326 -0.0978,-0.0577 -0.0502,-0.0263 -0.10787,-0.0426 -0.0577,-0.0176 -0.1292,-0.0176 -0.0226,0 -0.0489,0.006 -0.0263,0.005 -0.0527,0.0163 -0.0263,0.0113 -0.0489,0.0263 -0.0226,0.0151 -0.0389,0.0339 -0.0201,0.0226 -0.0414,0.0565 -0.0201,0.0326 -0.0376,0.0828 -0.0163,0.0489 -0.0276,0.1154 -0.01,0.0665 -0.01,0.15553 0,0.12795 0.0276,0.22829 0.0276,0.10035 0.0828,0.17059 0.0552,0.0702 0.13672,0.10787 0.0815,0.0364 0.1894,0.0364 0.0602,0 0.11414,-0.0176 0.0552,-0.0176 0.10286,-0.0414 0.0477,-0.0251 0.0865,-0.0539 0.0401,-0.0289 0.069,-0.0514 z"
         style="font-size:2.82222223px;fill:#999999;stroke-width:0.26458332"
         id="path955"
         inkscape:connector-curvature="0" />
      <path
         d="m 148.74492,174.25424 0.14551,-0.0439 q 0.0263,-0.008 0.0389,-0.0226 0.0138,-0.0151 0.0138,-0.0414 v -1.4826 q 0,-0.0289 -0.0163,-0.0464 -0.0163,-0.0176 -0.0464,-0.0288 l -0.14425,-0.0615 v -0.0702 l 0.44278,-0.0477 v 0.73879 0.0677 q 0.0552,-0.0727 0.10787,-0.1154 0.0539,-0.0439 0.10536,-0.0665 0.0527,-0.0238 0.10286,-0.0314 0.0514,-0.008 0.1016,-0.008 0.0865,0 0.16181,0.0263 0.0765,0.0251 0.13295,0.079 0.0577,0.0539 0.0903,0.13923 0.0326,0.0853 0.0326,0.2032 v 0.6974 q 0,0.0314 0.0151,0.0477 0.0151,0.0163 0.0364,0.0226 l 0.13296,0.0439 v 0.079 h -0.60458 v -0.079 l 0.13296,-0.0439 q 0.0213,-0.006 0.0364,-0.0226 0.0151,-0.0163 0.0151,-0.0477 v -0.59956 q 0,-0.0878 -0.0113,-0.15554 -0.01,-0.069 -0.0414,-0.11665 -0.0314,-0.0489 -0.0878,-0.074 -0.0552,-0.0251 -0.1455,-0.0251 -0.0414,0 -0.084,0.006 -0.0426,0.006 -0.084,0.0213 -0.0414,0.0151 -0.079,0.0401 -0.0376,0.0251 -0.0665,0.0615 v 0.84792 q 0,0.0263 0.0138,0.0414 0.0151,0.0151 0.0389,0.0226 l 0.11791,0.0439 v 0.079 h -0.60459 z"
         style="font-size:2.82222223px;fill:#999999;stroke-width:0.26458332"
         id="path957"
         inkscape:connector-curvature="0" />
    </g>
    <text
       xml:space="preserve"
       style="font-style:normal;font-variant:normal;font-weight:normal;font-stretch:normal;font-size:3.88055563px;line-height:1.25;font-family:'Share Tech Mono';-inkscape-font-specification:'Share Tech Mono';letter-spacing:0px;word-spacing:0px;fill:#000000;fill-opacity:1;stroke:none;stroke-width:0.26458332"
       x="110.48083"
       y="98.467987"
       id="text2911"><tspan
         sodipodi:role="line"
         id="tspan2909"
         x="110.48083"
         y="102.00034"
         style="font-style:normal;font-variant:normal;font-weight:normal;font-stretch:normal;font-family:'Share Tech Mono';-inkscape-font-specification:'Share Tech Mono';stroke-width:0.26458332" /></text>
    <text
       xml:space="preserve"
       style="font-style:normal;font-variant:normal;font-weight:normal;font-stretch:normal;font-size:3.88055563px;line-height:1.25;font-family:'Share Tech Mono';-inkscape-font-specification:'Share Tech Mono';letter-spacing:0px;word-spacing:0px;fill:#000000;fill-opacity:1;stroke:none;stroke-width:0.26458332"
       x="101.74013"
       y="99.554665"
       id="text2915"><tspan
         sodipodi:role="line"
         id="tspan2913"
         x="101.74013"
         y="103.08702"
         style="font-style:normal;font-variant:normal;font-weight:normal;font-stretch:normal;font-family:'Share Tech Mono';-inkscape-font-specification:'Share Tech Mono';stroke-width:0.26458332" /></text>
    <g
       aria-label="LENGTH"
       style="font-style:normal;font-variant:normal;font-weight:normal;font-stretch:normal;font-size:3.52777767px;line-height:1.25;font-family:'Share Tech Mono';-inkscape-font-specification:'Share Tech Mono';letter-spacing:0px;word-spacing:0px;fill:#000046;fill-opacity:1;stroke:none;stroke-width:0.26458332"
       id="text2919"
       transform="translate(-1.405896,4.2215415)">
      <path
         d="m 103.10577,103.75884 v 2.20134 h 0.78669 v 0.26811 h -1.09361 v -2.46945 z"
         style="font-size:3.52777767px;fill:#000046;fill-opacity:1;stroke-width:0.26458332"
         id="path2977"
         inkscape:connector-curvature="0" />
      <path
         d="m 105.83649,103.75884 v 0.25753 h -0.87136 v 0.80786 h 0.78316 v 0.25753 h -0.78316 v 0.889 h 0.87136 v 0.25753 h -1.17828 v -2.46945 z"
         style="font-size:3.52777767px;fill:#000046;fill-opacity:1;stroke-width:0.26458332"
         id="path2979"
         inkscape:connector-curvature="0" />
      <path
         d="m 106.76099,106.22829 h -0.28575 v -2.46945 h 0.50094 l 0.55739,2.20839 v -2.20839 h 0.28575 v 2.46945 h -0.50447 l -0.55386,-2.20839 z"
         style="font-size:3.52777767px;fill:#000046;fill-opacity:1;stroke-width:0.26458332"
         id="path2981"
         inkscape:connector-curvature="0" />
      <path
         d="m 109.06485,106.22829 q -0.30692,0 -0.47273,-0.14817 -0.16227,-0.15169 -0.16227,-0.45156 v -1.27 q 0,-0.29986 0.16227,-0.44802 0.16581,-0.1517 0.47273,-0.1517 h 0.49741 v 0.26811 h -0.53269 q -0.13053,0 -0.21167,0.0776 -0.0811,0.0776 -0.0811,0.18698 v 1.40405 q 0,0.10936 0.0811,0.18697 0.0811,0.0776 0.21167,0.0776 h 0.34572 v -0.76553 h -0.30692 v -0.26459 h 0.59973 v 1.29823 z"
         style="font-size:3.52777767px;fill:#000046;fill-opacity:1;stroke-width:0.26458332"
         id="path2983"
         inkscape:connector-curvature="0" />
      <path
         d="m 110.79721,106.22829 v -2.20134 h -0.56092 v -0.26811 h 1.42875 v 0.26811 h -0.56092 v 2.20134 z"
         style="font-size:3.52777767px;fill:#000046;fill-opacity:1;stroke-width:0.26458332"
         id="path2985"
         inkscape:connector-curvature="0" />
      <path
         d="m 112.49076,105.09234 v 1.13595 h -0.30692 v -2.46945 h 0.30692 v 1.07245 h 0.72672 v -1.07245 h 0.30692 v 2.46945 h -0.30692 v -1.13595 z"
         style="font-size:3.52777767px;fill:#000046;fill-opacity:1;stroke-width:0.26458332"
         id="path2987"
         inkscape:connector-curvature="0" />
    </g>
    <g
       aria-label="PURGE"
       style="font-style:normal;font-variant:normal;font-weight:normal;font-stretch:normal;font-size:3.52777767px;line-height:1.25;font-family:'Share Tech Mono';-inkscape-font-specification:'Share Tech Mono';letter-spacing:0px;word-spacing:0px;fill:#000000;fill-opacity:1;stroke:none;stroke-width:0.26458332"
       id="text2927"
       transform="translate(52.3621,-5.782968)">
      <path
         d="m 71.654382,70.935647 q 0,0.28575 -0.151694,0.423333 -0.151695,0.134055 -0.448028,0.134055 h -0.366889 v 0.959556 h -0.306917 v -2.469444 h 0.66675 q 0.299862,0 0.451556,0.134055 0.155222,0.130528 0.155222,0.416278 z M 71.347466,70.50173 q 0,-0.134056 -0.0635,-0.194028 -0.05997,-0.05997 -0.194028,-0.05997 h -0.402167 v 0.980722 h 0.402167 q 0.134055,0 0.194028,-0.05997 0.0635,-0.0635 0.0635,-0.197556 z"
         style="font-size:3.52777767px;stroke-width:0.26458332"
         id="path929"
         inkscape:connector-curvature="0" />
      <path
         d="m 73.59488,71.852869 q 0,0.299861 -0.165805,0.451555 -0.162278,0.148167 -0.469195,0.148167 h -0.08819 q -0.306917,0 -0.472722,-0.148167 Q 72.23669,72.15273 72.23669,71.852869 v -1.869722 h 0.306917 v 1.93675 q 0,0.109361 0.08114,0.186972 0.08114,0.07761 0.211666,0.07761 h 0.15875 q 0.130528,0 0.211667,-0.07761 0.08114,-0.07761 0.08114,-0.186972 v -1.93675 h 0.306916 z"
         style="font-size:3.52777767px;stroke-width:0.26458332"
         id="path931"
         inkscape:connector-curvature="0" />
      <path
         d="m 74.420601,71.429535 v 1.023056 h -0.306917 v -2.469444 h 0.663222 q 0.299861,0 0.451556,0.134055 0.155222,0.130528 0.155222,0.416278 v 0.338667 q 0,0.398638 -0.3175,0.497416 l 0.490361,1.083028 h -0.335139 l -0.455083,-1.023056 z m 0.656166,-0.927805 q 0,-0.134056 -0.0635,-0.194028 -0.05997,-0.05997 -0.194027,-0.05997 h -0.398639 v 0.917222 h 0.398639 q 0.134055,0 0.194027,-0.05997 0.0635,-0.0635 0.0635,-0.197556 z"
         style="font-size:3.52777767px;stroke-width:0.26458332"
         id="path933"
         inkscape:connector-curvature="0" />
      <path
         d="m 76.735044,72.452591 q -0.306917,0 -0.472723,-0.148167 -0.162277,-0.151694 -0.162277,-0.451555 v -1.27 q 0,-0.299861 0.162277,-0.448028 0.165806,-0.151694 0.472723,-0.151694 h 0.497416 v 0.268111 h -0.532694 q -0.130528,0 -0.211667,0.07761 -0.08114,0.07761 -0.08114,0.186972 v 1.404056 q 0,0.109361 0.08114,0.186972 0.08114,0.07761 0.211667,0.07761 h 0.345722 V 71.41895 h -0.306917 v -0.264583 h 0.599723 v 1.298222 z"
         style="font-size:3.52777767px;stroke-width:0.26458332"
         id="path935"
         inkscape:connector-curvature="0" />
      <path
         d="m 79.211764,69.983147 v 0.257527 h -0.871361 v 0.807861 h 0.783166 v 0.257528 h -0.783166 v 0.889 h 0.871361 v 0.257528 h -1.178278 v -2.469444 z"
         style="font-size:3.52777767px;stroke-width:0.26458332"
         id="path937"
         inkscape:connector-curvature="0" />
    </g>
    <g
       aria-label="QUANTITY"
       style="font-style:normal;font-variant:normal;font-weight:normal;font-stretch:normal;font-size:3.52777767px;line-height:1.25;font-family:'Share Tech Mono';-inkscape-font-specification:'Share Tech Mono';letter-spacing:0px;word-spacing:0px;fill:#000000;fill-opacity:1;stroke:none;stroke-width:0.26458332"
       id="text2939"
       transform="translate(-1.4754308,4.2215292)">
      <path
         d="m 101.9443,128.07561 q -0.13759,0.0635 -0.33867,0.0635 h -0.14111 q -0.30692,0 -0.47272,-0.14816 -0.16228,-0.1517 -0.16228,-0.45156 v -1.27 q 0,-0.29986 0.16228,-0.44803 0.1658,-0.15169 0.47272,-0.15169 h 0.14111 q 0.30692,0 0.46919,0.15169 0.16581,0.14817 0.16581,0.44803 v 1.27 q 0,0.20814 -0.0811,0.34925 l 0.25753,0.25753 -0.20109,0.20108 z m -0.0106,-1.87325 q 0,-0.10936 -0.0811,-0.18697 -0.0811,-0.0776 -0.21166,-0.0776 h -0.21167 q -0.13053,0 -0.21167,0.0776 -0.0811,0.0776 -0.0811,0.18697 v 1.40406 q 0,0.10936 0.0811,0.18697 0.0811,0.0776 0.21167,0.0776 h 0.21167 q 0.13052,0 0.21166,-0.0776 0.0811,-0.0776 0.0811,-0.18697 z"
         style="font-size:3.52777767px;stroke-width:0.26458332"
         id="path2990"
         inkscape:connector-curvature="0" />
      <path
         d="m 104.1141,127.53939 q 0,0.29986 -0.16581,0.45156 -0.16227,0.14816 -0.46919,0.14816 h -0.0882 q -0.30691,0 -0.47272,-0.14816 -0.16228,-0.1517 -0.16228,-0.45156 v -1.86972 h 0.30692 v 1.93675 q 0,0.10936 0.0811,0.18697 0.0811,0.0776 0.21167,0.0776 h 0.15875 q 0.13052,0 0.21166,-0.0776 0.0811,-0.0776 0.0811,-0.18697 v -1.93675 h 0.30692 z"
         style="font-size:3.52777767px;stroke-width:0.26458332"
         id="path2992"
         inkscape:connector-curvature="0" />
      <path
         d="m 104.99626,127.5147 -0.13758,0.62441 h -0.31397 l 0.59619,-2.46944 h 0.4057 l 0.58561,2.46944 h -0.31397 l -0.13406,-0.62441 z m 0.63148,-0.26459 -0.28928,-1.34761 -0.28575,1.34761 z"
         style="font-size:3.52777767px;stroke-width:0.26458332"
         id="path2994"
         inkscape:connector-curvature="0" />
      <path
         d="m 106.8521,128.13911 h -0.28575 v -2.46944 h 0.50094 l 0.55739,2.20839 v -2.20839 h 0.28575 v 2.46944 h -0.50447 l -0.55386,-2.20838 z"
         style="font-size:3.52777767px;stroke-width:0.26458332"
         id="path2996"
         inkscape:connector-curvature="0" />
      <path
         d="m 108.98662,128.13911 v -2.20133 h -0.56092 v -0.26811 h 1.42875 v 0.26811 h -0.56091 v 2.20133 z"
         style="font-size:3.52777767px;stroke-width:0.26458332"
         id="path2998"
         inkscape:connector-curvature="0" />
      <path
         d="m 110.88831,127.88159 v -1.95439 h -0.3175 v -0.25753 h 0.94192 v 0.25753 h -0.3175 v 1.95439 h 0.3175 v 0.25752 h -0.94192 v -0.25752 z"
         style="font-size:3.52777767px;stroke-width:0.26458332"
         id="path3000"
         inkscape:connector-curvature="0" />
      <path
         d="m 112.79001,128.13911 v -2.20133 h -0.56092 v -0.26811 h 1.42875 v 0.26811 h -0.56092 v 2.20133 z"
         style="font-size:3.52777767px;stroke-width:0.26458332"
         id="path3002"
         inkscape:connector-curvature="0" />
      <path
         d="m 114.68112,128.13911 v -1.14652 l -0.63148,-1.32292 h 0.33867 l 0.46567,1.02658 0.46566,-1.02658 h 0.32103 l -0.64205,1.32292 v 1.14652 z"
         style="font-size:3.52777767px;stroke-width:0.26458332"
         id="path3004"
         inkscape:connector-curvature="0" />
    </g>
    <g
       aria-label="SPAWN RATE"
       style="font-style:normal;font-variant:normal;font-weight:normal;font-stretch:normal;font-size:3.52777767px;line-height:1.25;font-family:'Share Tech Mono';-inkscape-font-specification:'Share Tech Mono';letter-spacing:0px;word-spacing:0px;fill:#000000;fill-opacity:1;stroke:none;stroke-width:0.26458332"
       id="text2943"
       transform="translate(-1.30917,4.2215415)">
      <path
         d="m 100.10804,149.86254 q 0,0.29986 -0.16581,0.45156 -0.162277,0.14817 -0.469194,0.14817 h -0.500945 v -0.26812 h 0.536223 q 0.130527,0 0.211666,-0.0776 0.08114,-0.0776 0.08114,-0.18697 v -0.36689 q 0,-0.10583 -0.05644,-0.16933 -0.05292,-0.067 -0.162278,-0.067 h -0.105833 q -0.261056,0 -0.41275,-0.15169 -0.151695,-0.15523 -0.151695,-0.44803 v -0.13406 q 0,-0.29986 0.162278,-0.44802 0.165806,-0.1517 0.472722,-0.1517 h 0.504476 v 0.26811 h -0.539754 q -0.130527,0 -0.211666,0.0776 -0.08114,0.0776 -0.08114,0.18698 v 0.26811 q 0,0.10936 0.07055,0.18344 0.07056,0.0706 0.183445,0.0706 h 0.105833 q 0.250472,0 0.388056,0.14464 0.141116,0.14463 0.141116,0.43744 z"
         style="font-size:3.52777767px;stroke-width:0.26458332"
         id="path3007"
         inkscape:connector-curvature="0" />
      <path
         d="m 102.05206,148.94532 q 0,0.28575 -0.15169,0.42333 -0.1517,0.13406 -0.44803,0.13406 h -0.36689 v 0.95956 h -0.30692 v -2.46945 h 0.66675 q 0.29987,0 0.45156,0.13406 0.15522,0.13052 0.15522,0.41627 z m -0.30691,-0.43392 q 0,-0.13405 -0.0635,-0.19402 -0.06,-0.06 -0.19403,-0.06 h -0.40217 v 0.98073 h 0.40217 q 0.13405,0 0.19403,-0.06 0.0635,-0.0635 0.0635,-0.19755 z"
         style="font-size:3.52777767px;stroke-width:0.26458332"
         id="path3009"
         inkscape:connector-curvature="0" />
      <path
         d="m 102.97303,149.83785 -0.13758,0.62442 h -0.31397 l 0.59619,-2.46945 h 0.4057 l 0.58561,2.46945 H 103.795 l -0.13405,-0.62442 z m 0.63147,-0.26458 -0.28927,-1.34762 -0.28575,1.34762 z"
         style="font-size:3.52777767px;stroke-width:0.26458332"
         id="path3011"
         inkscape:connector-curvature="0" />
      <path
         d="m 105.20986,149.46038 -0.22225,1.00189 h -0.42333 l -0.11994,-2.46945 h 0.26105 l 0.10584,2.20486 0.2928,-1.16416 h 0.21872 l 0.29986,1.16416 0.10937,-2.20486 h 0.24341 l -0.11994,2.46945 h -0.4445 z"
         style="font-size:3.52777767px;stroke-width:0.26458332"
         id="path3013"
         inkscape:connector-curvature="0" />
      <path
         d="m 106.73056,150.46227 h -0.28575 v -2.46945 h 0.50094 l 0.55739,2.20839 v -2.20839 h 0.28575 v 2.46945 h -0.50447 l -0.55386,-2.20839 z"
         style="font-size:3.52777767px;stroke-width:0.26458332"
         id="path3015"
         inkscape:connector-curvature="0" />
      <path
         d="m 110.52336,149.43921 v 1.02306 h -0.30692 v -2.46945 h 0.66322 q 0.29987,0 0.45156,0.13406 0.15522,0.13052 0.15522,0.41627 v 0.33867 q 0,0.39864 -0.3175,0.49742 l 0.49036,1.08303 h -0.33514 l -0.45508,-1.02306 z m 0.65617,-0.92781 q 0,-0.13405 -0.0635,-0.19402 -0.06,-0.06 -0.19403,-0.06 h -0.39864 v 0.91723 h 0.39864 q 0.13405,0 0.19403,-0.06 0.0635,-0.0635 0.0635,-0.19755 z"
         style="font-size:3.52777767px;stroke-width:0.26458332"
         id="path3017"
         inkscape:connector-curvature="0" />
      <path
         d="m 112.4815,149.83785 -0.13759,0.62442 h -0.31397 l 0.59619,-2.46945 h 0.4057 l 0.58561,2.46945 h -0.31397 l -0.13406,-0.62442 z m 0.63147,-0.26458 -0.28928,-1.34762 -0.28575,1.34762 z"
         style="font-size:3.52777767px;stroke-width:0.26458332"
         id="path3019"
         inkscape:connector-curvature="0" />
      <path
         d="m 114.57016,150.46227 v -2.20134 h -0.56092 v -0.26811 h 1.42875 v 0.26811 h -0.56091 v 2.20134 z"
         style="font-size:3.52777767px;stroke-width:0.26458332"
         id="path3021"
         inkscape:connector-curvature="0" />
      <path
         d="m 117.21621,147.99282 v 0.25753 h -0.87136 v 0.80786 h 0.78317 v 0.25753 h -0.78317 v 0.889 h 0.87136 v 0.25753 h -1.17827 v -2.46945 z"
         style="font-size:3.52777767px;stroke-width:0.26458332"
         id="path3023"
         inkscape:connector-curvature="0" />
    </g>
    <g
       aria-label="TRIM"
       style="font-style:normal;font-variant:normal;font-weight:normal;font-stretch:normal;font-size:3.52777767px;line-height:1.25;font-family:'Share Tech Mono';-inkscape-font-specification:'Share Tech Mono';letter-spacing:0px;word-spacing:0px;fill:#000000;fill-opacity:1;stroke:none;stroke-width:0.26458332"
       id="text2947"
       transform="translate(-7.488645,15.293459)">
      <path
         d="m 133.62108,136.11061 v -2.20133 h -0.56091 v -0.26811 h 1.42875 v 0.26811 H 133.928 v 2.20133 z"
         style="font-size:3.52777767px;stroke-width:0.26458332"
         id="path3026"
         inkscape:connector-curvature="0" />
      <path
         d="m 135.27936,135.08756 v 1.02305 h -0.30692 v -2.46944 h 0.66323 q 0.29986,0 0.45155,0.13405 0.15522,0.13053 0.15522,0.41628 v 0.33867 q 0,0.39864 -0.3175,0.49741 l 0.49036,1.08303 h -0.33513 l -0.45509,-1.02305 z m 0.65617,-0.92781 q 0,-0.13406 -0.0635,-0.19403 -0.06,-0.06 -0.19403,-0.06 h -0.39864 v 0.91722 h 0.39864 q 0.13405,0 0.19403,-0.06 0.0635,-0.0635 0.0635,-0.19756 z"
         style="font-size:3.52777767px;stroke-width:0.26458332"
         id="path3028"
         inkscape:connector-curvature="0" />
      <path
         d="m 137.42447,135.85308 v -1.95439 h -0.3175 v -0.25752 h 0.94192 v 0.25752 h -0.3175 v 1.95439 h 0.3175 v 0.25753 h -0.94192 v -0.25753 z"
         style="font-size:3.52777767px;stroke-width:0.26458332"
         id="path3030"
         inkscape:connector-curvature="0" />
      <path
         d="m 139.6225,135.28158 h -0.29281 l -0.34572,-1.38641 v 2.21544 h -0.26811 v -2.46944 h 0.49036 l 0.28222,1.26294 0.28575,-1.26294 h 0.47625 v 2.46944 h -0.27517 v -2.21544 z"
         style="font-size:3.52777767px;stroke-width:0.26458332"
         id="path3032"
         inkscape:connector-curvature="0" />
    </g>
    <g
       aria-label="JITTER"
       style="font-style:normal;font-variant:normal;font-weight:normal;font-stretch:normal;font-size:3.52777767px;line-height:1.25;font-family:'Share Tech Mono';-inkscape-font-specification:'Share Tech Mono';letter-spacing:0px;word-spacing:0px;fill:#000000;fill-opacity:1;stroke:none;stroke-width:0.26458332"
       id="text943"
       transform="translate(36.377847,14.117002)">
      <path
         d="m 86.416199,71.852899 q 0,0.299861 -0.165805,0.451556 -0.162278,0.148166 -0.469195,0.148166 H 85.410783 V 72.18451 h 0.405694 q 0.130528,0 0.211667,-0.07761 0.08114,-0.07761 0.08114,-0.186972 V 70.24776 H 85.54131 v -0.264583 h 0.874889 z"
         style="font-size:3.52777767px;stroke-width:0.26458332"
         id="path946"
         inkscape:connector-curvature="0" />
      <path
         d="m 87.668781,72.195094 v -1.954389 h -0.3175 v -0.257528 h 0.941917 v 0.257528 h -0.3175 v 1.954389 h 0.3175 v 0.257527 h -0.941917 v -0.257527 z"
         style="font-size:3.52777767px;stroke-width:0.26458332"
         id="path948"
         inkscape:connector-curvature="0" />
      <path
         d="m 89.570473,72.452621 v -2.201333 h -0.560916 v -0.268111 h 1.42875 v 0.268111 H 89.87739 v 2.201333 z"
         style="font-size:3.52777767px;stroke-width:0.26458332"
         id="path950"
         inkscape:connector-curvature="0" />
      <path
         d="M 91.472166,72.452621 V 70.251288 H 90.91125 V 69.983177 H 92.34 v 0.268111 h -0.560917 v 2.201333 z"
         style="font-size:3.52777767px;stroke-width:0.26458332"
         id="path952"
         inkscape:connector-curvature="0" />
      <path
         d="m 94.11822,69.983177 v 0.257528 h -0.871361 v 0.807861 h 0.783166 v 0.257528 h -0.783166 v 0.889 h 0.871361 v 0.257527 h -1.178278 v -2.469444 z"
         style="font-size:3.52777767px;stroke-width:0.26458332"
         id="path954"
         inkscape:connector-curvature="0" />
      <path
         d="m 95.032134,71.429566 v 1.023055 h -0.306916 v -2.469444 h 0.663222 q 0.299861,0 0.451556,0.134056 0.155222,0.130527 0.155222,0.416277 v 0.338667 q 0,0.398639 -0.3175,0.497417 l 0.490361,1.083027 H 95.83294 l -0.455083,-1.023055 z m 0.656167,-0.927806 q 0,-0.134055 -0.0635,-0.194027 -0.05997,-0.05997 -0.194028,-0.05997 h -0.398639 v 0.917223 h 0.398639 q 0.134056,0 0.194028,-0.05997 0.0635,-0.0635 0.0635,-0.197555 z"
         style="font-size:3.52777767px;stroke-width:0.26458332"
         id="path956"
         inkscape:connector-curvature="0" />
    </g>
    <g
       aria-label="POSITION"
       style="font-style:normal;font-variant:normal;font-weight:normal;font-stretch:normal;font-size:3.52777767px;line-height:1.25;font-family:'Share Tech Mono';-inkscape-font-specification:'Share Tech Mono';letter-spacing:0px;word-spacing:0px;fill:#000000;fill-opacity:1;stroke:none;stroke-width:0.26458332"
       id="text1271"
       transform="translate(-1.8)">
      <path
         d="m 102.51373,65.006676 q 0,0.28575 -0.15169,0.423334 -0.15169,0.134055 -0.44803,0.134055 h -0.36689 v 0.959556 h -0.30691 v -2.469445 h 0.66675 q 0.29986,0 0.45155,0.134056 0.15522,0.130528 0.15522,0.416278 z m -0.30691,-0.433916 q 0,-0.134056 -0.0635,-0.194028 -0.06,-0.05997 -0.19403,-0.05997 h -0.40217 v 0.980722 h 0.40217 q 0.13406,0 0.19403,-0.05997 0.0635,-0.0635 0.0635,-0.197556 z"
         style="stroke-width:0.26458332"
         id="path1315"
         inkscape:connector-curvature="0" />
      <path
         d="m 104.48245,65.923898 q 0,0.299862 -0.1658,0.451556 -0.16228,0.148167 -0.4692,0.148167 h -0.14111 q -0.30691,0 -0.47272,-0.148167 -0.16228,-0.151694 -0.16228,-0.451556 v -1.27 q 0,-0.299861 0.16228,-0.448027 0.16581,-0.151695 0.47272,-0.151695 h 0.14111 q 0.30692,0 0.4692,0.151695 0.1658,0.148166 0.1658,0.448027 z m -0.30691,-1.337027 q 0,-0.109361 -0.0811,-0.186973 -0.0811,-0.07761 -0.21167,-0.07761 h -0.21166 q -0.13053,0 -0.21167,0.07761 -0.0811,0.07761 -0.0811,0.186973 v 1.404055 q 0,0.109361 0.0811,0.186972 0.0811,0.07761 0.21167,0.07761 h 0.21166 q 0.13053,0 0.21167,-0.07761 0.0811,-0.07761 0.0811,-0.186972 z"
         style="stroke-width:0.26458332"
         id="path1317"
         inkscape:connector-curvature="0" />
      <path
         d="m 106.27479,65.923898 q 0,0.299862 -0.16581,0.451556 -0.16228,0.148167 -0.46919,0.148167 h -0.50095 V 66.25551 h 0.53622 q 0.13053,0 0.21167,-0.07761 0.0811,-0.07761 0.0811,-0.186972 v -0.366889 q 0,-0.105833 -0.0564,-0.169333 -0.0529,-0.06703 -0.16228,-0.06703 h -0.10584 q -0.26105,0 -0.41275,-0.151694 -0.15169,-0.155222 -0.15169,-0.448028 v -0.134056 q 0,-0.299861 0.16228,-0.448027 0.1658,-0.151695 0.47272,-0.151695 h 0.50447 v 0.268111 h -0.53975 q -0.13053,0 -0.21166,0.07761 -0.0811,0.07761 -0.0811,0.186973 v 0.268111 q 0,0.109361 0.0705,0.183444 0.0706,0.07056 0.18345,0.07056 h 0.10583 q 0.25047,0 0.38806,0.144639 0.14111,0.144639 0.14111,0.437444 z"
         style="stroke-width:0.26458332"
         id="path1319"
         inkscape:connector-curvature="0" />
      <path
         d="m 107.42506,66.266093 v -1.954389 h -0.3175 v -0.257528 h 0.94192 v 0.257528 h -0.3175 v 1.954389 h 0.3175 v 0.257528 h -0.94192 v -0.257528 z"
         style="stroke-width:0.26458332"
         id="path1321"
         inkscape:connector-curvature="0" />
      <path
         d="m 109.32675,66.523621 v -2.201334 h -0.56091 v -0.268111 h 1.42875 v 0.268111 h -0.56092 v 2.201334 z"
         style="stroke-width:0.26458332"
         id="path1323"
         inkscape:connector-curvature="0" />
      <path
         d="m 111.22845,66.266093 v -1.954389 h -0.3175 v -0.257528 h 0.94191 v 0.257528 h -0.3175 v 1.954389 h 0.3175 v 0.257528 h -0.94191 v -0.257528 z"
         style="stroke-width:0.26458332"
         id="path1325"
         inkscape:connector-curvature="0" />
      <path
         d="m 113.99092,65.923898 q 0,0.299862 -0.16581,0.451556 -0.16227,0.148167 -0.46919,0.148167 h -0.14111 q -0.30692,0 -0.47272,-0.148167 -0.16228,-0.151694 -0.16228,-0.451556 v -1.27 q 0,-0.299861 0.16228,-0.448027 0.1658,-0.151695 0.47272,-0.151695 h 0.14111 q 0.30692,0 0.46919,0.151695 0.16581,0.148166 0.16581,0.448027 z M 113.684,64.586871 q 0,-0.109361 -0.0811,-0.186973 -0.0811,-0.07761 -0.21166,-0.07761 h -0.21167 q -0.13053,0 -0.21167,0.07761 -0.0811,0.07761 -0.0811,0.186973 v 1.404055 q 0,0.109361 0.0811,0.186972 0.0811,0.07761 0.21167,0.07761 h 0.21167 q 0.13052,0 0.21166,-0.07761 0.0811,-0.07761 0.0811,-0.186972 z"
         style="stroke-width:0.26458332"
         id="path1327"
         inkscape:connector-curvature="0" />
      <path
         d="m 114.799,66.523621 h -0.28575 v -2.469445 h 0.50094 l 0.55739,2.208389 v -2.208389 h 0.28575 v 2.469445 h -0.50447 L 114.799,64.315232 Z"
         style="stroke-width:0.26458332"
         id="path1329"
         inkscape:connector-curvature="0" />
    </g>
    <g
       aria-label="PITCH"
       transform="matrix(0.26458333,0,0,0.26458333,122.39375,58.070333)"
       style="font-style:normal;font-variant:normal;font-weight:normal;font-stretch:normal;font-size:13.33333302px;line-height:1.25;font-family:'Share Tech Mono';-inkscape-font-specification:'Share Tech Mono';letter-spacing:0px;word-spacing:0px;fill:#000000;fill-opacity:1;stroke:none"
       id="flowRoot1275">
      <path
         d="m -71.264011,109.22587 q 0,1.08 -0.573333,1.6 -0.573333,0.50667 -1.693333,0.50667 h -1.386667 v 3.62667 h -1.16 v -9.33334 h 2.52 q 1.133333,0 1.706667,0.50667 0.586666,0.49333 0.586666,1.57333 z m -1.16,-1.64 q 0,-0.50666 -0.24,-0.73333 -0.226666,-0.22667 -0.733333,-0.22667 h -1.52 v 3.70667 h 1.52 q 0.506667,0 0.733333,-0.22667 0.24,-0.24 0.24,-0.74666 z"
         id="path1901"
         inkscape:connector-curvature="0" />
      <path
         d="m -67.07651,113.98587 v -7.38666 h -1.2 v -0.97334 h 3.559999 v 0.97334 h -1.2 v 7.38666 h 1.2 v 0.97334 h -3.559999 v -0.97334 z"
         id="path1903"
         inkscape:connector-curvature="0" />
      <path
         d="m -59.88901,114.95921 v -8.32 h -2.12 v -1.01334 h 5.399999 v 1.01334 h -2.12 v 8.32 z"
         id="path1905"
         inkscape:connector-curvature="0" />
      <path
         d="m -51.861511,114.95921 q -1.159999,0 -1.786666,-0.56 -0.613333,-0.57334 -0.613333,-1.70667 v -4.8 q 0,-1.13333 0.613333,-1.69333 0.626667,-0.57334 1.786666,-0.57334 h 1.893334 v 1.01334 h -2.026667 q -0.493333,0 -0.8,0.29333 -0.306666,0.29333 -0.306666,0.70667 v 5.30666 q 0,0.41334 0.306666,0.70667 0.306667,0.29333 0.8,0.29333 h 2.026667 v 1.01334 z"
         id="path1907"
         inkscape:connector-curvature="0" />
      <path
         d="m -46.300677,110.66587 v 4.29334 h -1.16 v -9.33334 h 1.16 v 4.05334 h 2.746666 v -4.05334 h 1.16 v 9.33334 h -1.16 v -4.29334 z"
         id="path1909"
         inkscape:connector-curvature="0" />
    </g>
    <g
       id="g1786"
       style="fill:none;fill-opacity:1;stroke:#000000;stroke-opacity:1">
      <path
         inkscape:connector-curvature="0"
         id="path27-1-2-2-3-7"
         d="m 95.079908,161.9336 c 4.765053,0 4.818,0 4.818,0"
         style="display:inline;fill:none;stroke:#000000;stroke-width:0.14003873px;stroke-linecap:butt;stroke-linejoin:miter;stroke-opacity:1;fill-opacity:1" />
      <path
         inkscape:connector-curvature="0"
         id="path27-1-2-8-6"
         d="m 80.929352,161.9266 c 4.791024,0 4.84426,0 4.84426,0"
         style="display:inline;fill:none;stroke:#000000;stroke-width:0.14042297px;stroke-linecap:butt;stroke-linejoin:miter;stroke-opacity:1;fill-opacity:1" />
    </g>
    <path
       style="display:inline;fill:none;fill-opacity:1;stroke:#000000;stroke-width:0.14003873px;stroke-linecap:butt;stroke-linejoin:miter;stroke-opacity:1"
       d="m 95.079908,139.7156 c 4.765053,0 4.818,0 4.818,0"
       id="path27-1-2-2-3-7-9"
       inkscape:connector-curvature="0" />
    <path
       style="display:inline;fill:none;fill-opacity:1;stroke:#000000;stroke-width:0.14042297px;stroke-linecap:butt;stroke-linejoin:miter;stroke-opacity:1"
       d="m 80.929352,139.7086 c 4.791024,0 4.84426,0 4.84426,0"
       id="path27-1-2-8-6-8"
       inkscape:connector-curvature="0" />
    <g
       id="g1786-9-4"
       style="display:inline;fill:none;fill-opacity:1;stroke:#000000;stroke-opacity:1"
       transform="translate(1.4583335e-8,-44.181996)">
      <path
         inkscape:connector-curvature="0"
         id="path27-1-2-2-3-7-9-3"
         d="m 95.079908,161.9336 c 4.765053,0 4.818,0 4.818,0"
         style="display:inline;fill:none;fill-opacity:1;stroke:#000000;stroke-width:0.14003873px;stroke-linecap:butt;stroke-linejoin:miter;stroke-opacity:1" />
      <path
         inkscape:connector-curvature="0"
         id="path27-1-2-8-6-8-7"
         d="m 80.929352,161.9266 c 4.791024,0 4.84426,0 4.84426,0"
         style="display:inline;fill:none;fill-opacity:1;stroke:#000000;stroke-width:0.14042297px;stroke-linecap:butt;stroke-linejoin:miter;stroke-opacity:1" />
    </g>
    <g
       id="g1786-9-4-1"
       style="display:inline;fill:none;fill-opacity:1;stroke:#000000;stroke-opacity:1"
       transform="translate(1.4583335e-8,-66.125996)">
      <path
         inkscape:connector-curvature="0"
         id="path27-1-2-2-3-7-9-3-2"
         d="m 95.079908,161.9336 c 4.765053,0 4.818,0 4.818,0"
         style="display:inline;fill:none;fill-opacity:1;stroke:#000000;stroke-width:0.14003873px;stroke-linecap:butt;stroke-linejoin:miter;stroke-opacity:1" />
      <path
         inkscape:connector-curvature="0"
         id="path27-1-2-8-6-8-7-1"
         d="m 80.929352,161.9266 c 4.791024,0 4.84426,0 4.84426,0"
         style="display:inline;fill:none;fill-opacity:1;stroke:#000000;stroke-width:0.14042297px;stroke-linecap:butt;stroke-linejoin:miter;stroke-opacity:1" />
    </g>
    <path
       style="display:inline;fill:none;fill-opacity:1;stroke:#000000;stroke-width:0.14003873px;stroke-linecap:butt;stroke-linejoin:miter;stroke-opacity:1"
       d="m 95.079908,73.844604 c 4.765053,0 4.818,0 4.818,0"
       id="path27-1-2-2-3-7-9-3-2-0"
       inkscape:connector-curvature="0" />
    <path
       style="display:inline;fill:none;fill-opacity:1;stroke:#000000;stroke-width:0.14042297px;stroke-linecap:butt;stroke-linejoin:miter;stroke-opacity:1"
       d="m 80.929352,73.837604 c 4.791024,0 4.84426,0 4.84426,0"
       id="path27-1-2-8-6-8-7-1-4"
       inkscape:connector-curvature="0" />
    <path
       style="display:inline;fill:none;fill-opacity:1;stroke:#000000;stroke-width:0.14003873px;stroke-linecap:butt;stroke-linejoin:miter;stroke-opacity:1"
       d="m 134.10494,150.2122 c 1.51163,0 1.52842,0 1.52842,0"
       id="path27-1-2-2-3-7-9-5"
       inkscape:connector-curvature="0" />
    <path
       style="display:inline;fill:none;fill-opacity:1;stroke:#000000;stroke-width:0.14003873px;stroke-linecap:butt;stroke-linejoin:miter;stroke-opacity:1"
       d="m 132.21446,73.143584 c 4.42496,0 4.47413,0 4.47413,0"
       id="path27-1-2-2-3-7-9-3-2-0-8"
       inkscape:connector-curvature="0" />
    <path
       style="display:inline;fill:none;fill-opacity:1;stroke:#000000;stroke-width:0.14003873px;stroke-linecap:butt;stroke-linejoin:miter;stroke-opacity:1"
       d="m 132.21446,92.882886 c 4.458,0 4.50754,0 4.50754,0"
       id="path27-1-2-2-3-7-9-3-2-0-8-2"
       inkscape:connector-curvature="0" />
  </g>
</svg>
