<?xml version="1.0" encoding="UTF-8" standalone="no"?>
<!-- Created with Inkscape (http://www.inkscape.org/) -->

<svg
   xmlns:dc="http://purl.org/dc/elements/1.1/"
   xmlns:cc="http://creativecommons.org/ns#"
   xmlns:rdf="http://www.w3.org/1999/02/22-rdf-syntax-ns#"
   xmlns:svg="http://www.w3.org/2000/svg"
   xmlns="http://www.w3.org/2000/svg"
   xmlns:sodipodi="http://sodipodi.sourceforge.net/DTD/sodipodi-0.dtd"
   xmlns:inkscape="http://www.inkscape.org/namespaces/inkscape"
   width="86mm"
   height="128.5mm"
   viewBox="0 0 86 128.5"
   version="1.1"
   id="svg11003"
   inkscape:version="0.92.4 (5da689c313, 2019-01-14)"
   sodipodi:docname="ghosts_front_panel.svg">
  <defs
     id="defs10997" />
  <sodipodi:namedview
     id="base"
     pagecolor="#ffffff"
     bordercolor="#666666"
     borderopacity="1.0"
     inkscape:pageopacity="0.0"
     inkscape:pageshadow="2"
     inkscape:zoom="1.979899"
     inkscape:cx="81.707152"
     inkscape:cy="330.8967"
     inkscape:document-units="mm"
     inkscape:current-layer="layer1"
     showgrid="false"
     fit-margin-top="0"
     fit-margin-left="0"
     fit-margin-right="0"
     fit-margin-bottom="0"
     inkscape:window-width="1920"
     inkscape:window-height="1017"
     inkscape:window-x="-8"
     inkscape:window-y="-8"
     inkscape:window-maximized="1"
     units="mm"
     showguides="true"
     inkscape:guide-bbox="true"
     showborder="false">
    <sodipodi:guide
       position="71.803666,26.328404"
       orientation="1,0"
       id="guide64"
       inkscape:locked="false" />
    <sodipodi:guide
       position="43.331073,29.967596"
       orientation="1,0"
       id="guide904"
       inkscape:locked="false" />
    <sodipodi:guide
       position="40.668818,69.726027"
       orientation="0,1"
       id="guide887"
       inkscape:locked="false" />
    <sodipodi:guide
       position="71.809571,13.607143"
       orientation="0,1"
       id="guide1474"
       inkscape:locked="false" />
    <sodipodi:guide
       position="34.076865,91.807085"
       orientation="0,1"
       id="guide2089"
       inkscape:locked="false" />
    <sodipodi:guide
       position="49.184152,47.625001"
       orientation="0,1"
       id="guide2099"
       inkscape:locked="false" />
    <sodipodi:guide
       position="51.883698,25.457423"
       orientation="0,1"
       id="guide2127"
       inkscape:locked="false" />
    <sodipodi:guide
       position="87.123513,34.584822"
       orientation="0,1"
       id="guide914"
       inkscape:locked="false" />
  </sodipodi:namedview>
  <metadata
     id="metadata11000">
    <rdf:RDF>
      <cc:Work
         rdf:about="">
        <dc:format>image/svg+xml</dc:format>
        <dc:type
           rdf:resource="http://purl.org/dc/dcmitype/StillImage" />
        <dc:title />
      </cc:Work>
    </rdf:RDF>
  </metadata>
  <g
     inkscape:label="Panel Layer"
     inkscape:groupmode="layer"
     id="layer1"
     transform="translate(-64.792954,-47.169623)"
     style="display:inline">
    <path
       inkscape:connector-curvature="0"
       id="path33429"
       d="M 64.792954,47.169629 H 150.79295 V 175.66963 H 64.792954 Z m 0,0"
       style="fill:#e6e6e6;fill-opacity:1;fill-rule:nonzero;stroke:none;stroke-width:0.46018988" />
    <path
       inkscape:connector-curvature="0"
       id="path36629"
       d="m 142.84504,151.33008 c 0,-0.70925 -0.58092,-1.29052 -1.2937,-1.29052 h -9.93261 c -0.711,0 -1.29369,0.58127 -1.29369,1.29052 v 15.70134 c 0,0.70925 0.58269,1.29052 1.29369,1.29052 h 9.93261 c 0.71278,0 1.2937,-0.58127 1.2937,-1.29052 z m 0,0"
       style="fill:#000000;fill-opacity:1;fill-rule:nonzero;stroke:none;stroke-width:0.45561951" />
    <text
       xml:space="preserve"
       style="font-style:normal;font-weight:normal;font-size:4.58611107px;line-height:1.25;font-family:sans-serif;letter-spacing:0px;word-spacing:0px;fill:#000000;fill-opacity:1;stroke:none;stroke-width:0.26458332"
       x="75.943253"
       y="53.772301"
       id="text110"><tspan
         sodipodi:role="line"
         id="tspan108"
         x="75.943253"
         y="57.956348"
         style="font-size:4.58611107px;stroke-width:0.26458332" /></text>
    <path
       style="display:inline;fill:none;stroke:#000000;stroke-width:0.14003912px;stroke-linecap:butt;stroke-linejoin:miter;stroke-opacity:1"
       d="m 80.962951,115.31798 c 4.764867,0 4.817812,0 4.817812,0"
       id="path27-1"
       inkscape:connector-curvature="0" />
    <path
       style="display:inline;fill:none;stroke:#000000;stroke-width:0.14003873px;stroke-linecap:butt;stroke-linejoin:miter;stroke-opacity:1"
       d="m 95.079908,115.33667 c 4.765053,0 4.818,0 4.818,0"
       id="path27-1-8"
       inkscape:connector-curvature="0" />
    <path
       style="display:inline;fill:none;stroke:#000000;stroke-width:0.14003912px;stroke-linecap:butt;stroke-linejoin:miter;stroke-opacity:1"
       d="m 80.962951,115.31798 c 4.764867,0 4.817812,0 4.817812,0"
       id="path27-1-3"
       inkscape:connector-curvature="0" />
    <path
       style="display:inline;fill:none;stroke:#000000;stroke-width:0.14003873px;stroke-linecap:butt;stroke-linejoin:miter;stroke-opacity:1"
       d="m 95.079908,115.33667 c 4.765053,0 4.818,0 4.818,0"
       id="path27-1-8-9"
       inkscape:connector-curvature="0" />
    <path
       style="display:inline;fill:none;stroke:#000000;stroke-width:0.14003912px;stroke-linecap:butt;stroke-linejoin:miter;stroke-opacity:1"
       d="m 80.962951,137.28189 c 4.764867,0 4.817812,0 4.817812,0"
       id="path27-1-2"
       inkscape:connector-curvature="0" />
    <path
       style="display:inline;fill:none;stroke:#000000;stroke-width:0.14003873px;stroke-linecap:butt;stroke-linejoin:miter;stroke-opacity:1"
       d="m 95.079908,137.2996 c 4.765053,0 4.818,0 4.818,0"
       id="path27-1-2-2"
       inkscape:connector-curvature="0" />
    <path
       style="display:inline;fill:none;stroke:#000000;stroke-width:0.14003912px;stroke-linecap:butt;stroke-linejoin:miter;stroke-opacity:1"
       d="m 80.962951,137.28189 c 4.764867,0 4.817812,0 4.817812,0"
       id="path27-1-2-8"
       inkscape:connector-curvature="0" />
    <path
       style="display:inline;fill:none;stroke:#000000;stroke-width:0.14003873px;stroke-linecap:butt;stroke-linejoin:miter;stroke-opacity:1"
       d="m 95.079908,137.2996 c 4.765053,0 4.818,0 4.818,0"
       id="path27-1-2-2-3"
       inkscape:connector-curvature="0" />
    <g
       id="g900"
       transform="translate(1.0765043,22.02179)">
      <g
         aria-label="LENGTH"
         style="font-style:normal;font-variant:normal;font-weight:normal;font-stretch:normal;font-size:3.88055563px;line-height:1.25;font-family:'Share Tech Mono';-inkscape-font-specification:'Share Tech Mono';letter-spacing:0px;word-spacing:0px;fill:#000000;fill-opacity:1;stroke:none;stroke-width:0.26458332"
         id="text2093">
        <path
           d="m 101.47112,81.206646 v 2.421466 h 0.86536 v 0.294923 h -1.20297 v -2.716389 z"
           style="stroke-width:0.26458332"
           id="path2170" />
        <path
           d="m 104.47491,81.206646 v 0.28328 h -0.95849 v 0.888648 h 0.86148 v 0.28328 h -0.86148 v 0.9779 h 0.95849 v 0.283281 h -1.2961 v -2.716389 z"
           style="stroke-width:0.26458332"
           id="path2172" />
        <path
           d="m 105.49186,83.923035 h -0.31432 v -2.716389 h 0.55103 l 0.61313,2.429228 v -2.429228 h 0.31433 v 2.716389 h -0.55492 l -0.60925,-2.429228 z"
           style="stroke-width:0.26458332"
           id="path2174" />
        <path
           d="m 108.02611,83.923035 q -0.33761,0 -0.52,-0.162984 -0.1785,-0.166864 -0.1785,-0.496711 v -1.397 q 0,-0.329847 0.1785,-0.49283 0.18239,-0.166864 0.52,-0.166864 h 0.54715 v 0.294922 h -0.58596 q -0.14358,0 -0.23283,0.08537 -0.0893,0.08537 -0.0893,0.20567 v 1.544461 q 0,0.120297 0.0893,0.205669 0.0893,0.08537 0.23283,0.08537 h 0.3803 v -0.84208 h -0.33761 V 82.49499 h 0.65969 v 1.428045 z"
           style="stroke-width:0.26458332"
           id="path2176" />
        <path
           d="m 109.9317,83.923035 v -2.421467 h -0.61701 v -0.294922 h 1.57163 v 0.294922 h -0.61701 v 2.421467 z"
           style="stroke-width:0.26458332"
           id="path2178" />
        <path
           d="m 111.79461,82.673496 v 1.249539 H 111.457 v -2.716389 h 0.33761 v 1.179689 h 0.7994 v -1.179689 h 0.3376 v 2.716389 h -0.3376 v -1.249539 z"
           style="stroke-width:0.26458332"
           id="path2180" />
      </g>
    </g>
    <path
       style="display:inline;fill:none;stroke:#000000;stroke-width:0.14003912px;stroke-linecap:butt;stroke-linejoin:miter;stroke-opacity:1"
       d="m 80.962951,159.49987 c 4.764867,0 4.817812,0 4.817812,0"
       id="path27-1-2-8-6"
       inkscape:connector-curvature="0" />
    <path
       style="display:inline;fill:none;stroke:#000000;stroke-width:0.14003873px;stroke-linecap:butt;stroke-linejoin:miter;stroke-opacity:1"
       d="m 95.079908,159.49987 c 4.765053,0 4.818,0 4.818,0"
       id="path27-1-2-2-3-7"
       inkscape:connector-curvature="0" />
    <path
       inkscape:connector-curvature="0"
       id="path2137"
       style="font-style:normal;font-variant:normal;font-weight:normal;font-stretch:normal;font-size:3.52777767px;line-height:1.25;font-family:'Share Tech Mono';-inkscape-font-specification:'Share Tech Mono';letter-spacing:0px;word-spacing:0px;fill:#ffffff;fill-opacity:1;stroke:none;stroke-width:0.26458332"
       d="m 134.69393,153.41982 -0.22225,1.00189 h -0.42333 l -0.11994,-2.46945 h 0.26105 l 0.10583,2.20486 0.29281,-1.16416 h 0.21872 l 0.29986,1.16416 0.10936,-2.20486 h 0.24342 l -0.11994,2.46945 h -0.4445 z" />
    <path
       inkscape:connector-curvature="0"
       id="path2139"
       style="font-style:normal;font-variant:normal;font-weight:normal;font-stretch:normal;font-size:3.52777767px;line-height:1.25;font-family:'Share Tech Mono';-inkscape-font-specification:'Share Tech Mono';letter-spacing:0px;word-spacing:0px;fill:#ffffff;fill-opacity:1;stroke:none;stroke-width:0.26458332"
       d="m 136.26049,153.79729 -0.13759,0.62442 h -0.31397 l 0.5962,-2.46945 h 0.40569 l 0.58561,2.46945 h -0.31397 l -0.13406,-0.62442 z m 0.63147,-0.26458 -0.28928,-1.34761 -0.28575,1.34761 z" />
    <path
       inkscape:connector-curvature="0"
       id="path2141"
       style="font-style:normal;font-variant:normal;font-weight:normal;font-stretch:normal;font-size:3.52777767px;line-height:1.25;font-family:'Share Tech Mono';-inkscape-font-specification:'Share Tech Mono';letter-spacing:0px;word-spacing:0px;fill:#ffffff;fill-opacity:1;stroke:none;stroke-width:0.26458332"
       d="m 137.74943,151.95226 h 0.31044 l 0.42334,2.159 0.45508,-2.159 h 0.30339 l -0.55386,2.46945 h -0.41981 z" />
    <g
       aria-label="GHOSTS"
       style="font-style:normal;font-variant:normal;font-weight:normal;font-stretch:normal;font-size:3.88055563px;line-height:1.25;font-family:'Share Tech Mono';-inkscape-font-specification:'Share Tech Mono';letter-spacing:0px;word-spacing:0px;fill:#000000;fill-opacity:1;stroke:none;stroke-width:0.26458332"
       id="text2087">
      <path
         d="m 101.17407,55.926624 q -0.42968,0 -0.66181,-0.207433 -0.22719,-0.212372 -0.22719,-0.632178 v -1.778 q 0,-0.419805 0.22719,-0.627239 0.23213,-0.212372 0.66181,-0.212372 h 0.69638 v 0.375356 h -0.74577 q -0.18274,0 -0.29633,0.108655 -0.1136,0.108656 -0.1136,0.261761 v 1.965678 q 0,0.153106 0.1136,0.261761 0.11359,0.108656 0.29633,0.108656 h 0.48401 V 54.47953 h -0.42968 v -0.370417 h 0.83961 v 1.817511 z"
         style="font-size:4.93888903px;stroke-width:0.26458332"
         id="path2200" />
      <path
         d="m 103.30798,54.336302 v 1.590322 h -0.42968 v -3.457222 h 0.42968 v 1.501422 h 1.01741 v -1.501422 h 0.42968 v 3.457222 h -0.42968 v -1.590322 z"
         style="font-size:4.93888903px;stroke-width:0.26458332"
         id="path2202" />
      <path
         d="m 107.46683,55.087013 q 0,0.419806 -0.23212,0.632178 -0.22719,0.207433 -0.65688,0.207433 h -0.19755 q -0.42969,0 -0.66181,-0.207433 -0.22719,-0.212372 -0.22719,-0.632178 v -1.778 q 0,-0.419805 0.22719,-0.627239 0.23212,-0.212372 0.66181,-0.212372 h 0.19755 q 0.42969,0 0.65688,0.212372 0.23212,0.207434 0.23212,0.627239 z m -0.42968,-1.871839 q 0,-0.153105 -0.11359,-0.261761 -0.1136,-0.108655 -0.29634,-0.108655 h -0.29633 q -0.18274,0 -0.29633,0.108655 -0.1136,0.108656 -0.1136,0.261761 v 1.965678 q 0,0.153106 0.1136,0.261761 0.11359,0.108656 0.29633,0.108656 h 0.29633 q 0.18274,0 0.29634,-0.108656 0.11359,-0.108655 0.11359,-0.261761 z"
         style="font-size:4.93888903px;stroke-width:0.26458332"
         id="path2204" />
      <path
         d="m 109.9761,55.087013 q 0,0.419806 -0.23213,0.632178 -0.22719,0.207433 -0.65687,0.207433 h -0.70132 v -0.375355 h 0.75071 q 0.18274,0 0.29633,-0.108656 0.1136,-0.108655 0.1136,-0.261761 v -0.513644 q 0,-0.148167 -0.079,-0.237067 -0.0741,-0.09384 -0.22719,-0.09384 h -0.14816 q -0.36548,0 -0.57785,-0.212372 -0.21237,-0.217311 -0.21237,-0.627239 v -0.187678 q 0,-0.419805 0.22718,-0.627239 0.23213,-0.212372 0.66182,-0.212372 h 0.70626 v 0.375356 h -0.75565 q -0.18274,0 -0.29634,0.108655 -0.11359,0.108656 -0.11359,0.261761 v 0.375356 q 0,0.153105 0.0988,0.256822 0.0988,0.09878 0.25682,0.09878 h 0.14817 q 0.35066,0 0.54327,0.202494 0.19756,0.202495 0.19756,0.612422 z"
         style="font-size:4.93888903px;stroke-width:0.26458332"
         id="path2206" />
      <path
         d="m 111.58648,55.926624 v -3.081866 h -0.78528 v -0.375356 h 2.00025 v 0.375356 h -0.78528 v 3.081866 z"
         style="font-size:4.93888903px;stroke-width:0.26458332"
         id="path2208" />
      <path
         d="m 115.30084,55.087013 q 0,0.419806 -0.23213,0.632178 -0.22719,0.207433 -0.65687,0.207433 h -0.70132 v -0.375355 h 0.75071 q 0.18274,0 0.29633,-0.108656 0.11359,-0.108655 0.11359,-0.261761 v -0.513644 q 0,-0.148167 -0.079,-0.237067 -0.0741,-0.09384 -0.22719,-0.09384 h -0.14816 q -0.36548,0 -0.57785,-0.212372 -0.21238,-0.217311 -0.21238,-0.627239 v -0.187678 q 0,-0.419805 0.22719,-0.627239 0.23213,-0.212372 0.66181,-0.212372 h 0.70627 v 0.375356 h -0.75565 q -0.18274,0 -0.29634,0.108655 -0.11359,0.108656 -0.11359,0.261761 v 0.375356 q 0,0.153105 0.0988,0.256822 0.0988,0.09878 0.25682,0.09878 H 114.56 q 0.35067,0 0.54328,0.202494 0.19756,0.202495 0.19756,0.612422 z"
         style="font-size:4.93888903px;stroke-width:0.26458332"
         id="path2210" />
    </g>
    <g
       aria-label="POSITION"
       style="font-style:normal;font-variant:normal;font-weight:normal;font-stretch:normal;font-size:3.88055563px;line-height:1.25;font-family:'Share Tech Mono';-inkscape-font-specification:'Share Tech Mono';letter-spacing:0px;word-spacing:0px;fill:#000000;fill-opacity:1;stroke:none;stroke-width:0.26458332"
       id="text2097"
       transform="translate(27.41351,-16.740824)">
      <path
         d="m 101.52199,82.177202 q 0,0.314325 -0.16687,0.465666 -0.16686,0.147461 -0.49283,0.147461 h -0.40357 v 1.055511 h -0.33761 v -2.716388 h 0.73342 q 0.32985,0 0.49671,0.147461 0.17075,0.14358 0.17075,0.457905 z m -0.33761,-0.477309 q 0,-0.147461 -0.0699,-0.21343 -0.066,-0.06597 -0.21343,-0.06597 h -0.44238 v 1.078795 h 0.44238 q 0.14746,0 0.21343,-0.06597 0.0699,-0.06985 0.0699,-0.217311 z"
         style="stroke-width:0.26458332"
         id="path2183"
         inkscape:connector-curvature="0" />
      <path
         d="m 103.68758,83.186146 q 0,0.329847 -0.18238,0.496711 -0.17851,0.162983 -0.51612,0.162983 h -0.15522 q -0.33761,0 -0.52,-0.162983 -0.1785,-0.166864 -0.1785,-0.496711 v -1.397 q 0,-0.329847 0.1785,-0.492831 0.18239,-0.166863 0.52,-0.166863 h 0.15522 q 0.33761,0 0.51612,0.166863 0.18238,0.162984 0.18238,0.492831 z m -0.33761,-1.470731 q 0,-0.120297 -0.0892,-0.205669 -0.0893,-0.08537 -0.23283,-0.08537 h -0.23284 q -0.14358,0 -0.23283,0.08537 -0.0892,0.08537 -0.0892,0.205669 v 1.544462 q 0,0.120297 0.0892,0.205669 0.0893,0.08537 0.23283,0.08537 h 0.23284 q 0.14358,0 0.23283,-0.08537 0.0892,-0.08537 0.0892,-0.205669 z"
         style="stroke-width:0.26458332"
         id="path2185"
         inkscape:connector-curvature="0" />
      <path
         d="m 105.65915,83.186146 q 0,0.329847 -0.18239,0.496711 -0.17851,0.162983 -0.51611,0.162983 h -0.55104 v -0.294922 h 0.58984 q 0.14358,0 0.23283,-0.08537 0.0893,-0.08537 0.0893,-0.205669 v -0.403578 q 0,-0.116417 -0.0621,-0.186267 -0.0582,-0.07373 -0.17851,-0.07373 h -0.11641 q -0.28716,0 -0.45403,-0.166864 -0.16686,-0.170745 -0.16686,-0.492831 v -0.147461 q 0,-0.329847 0.1785,-0.492831 0.18239,-0.166863 0.52,-0.166863 h 0.55492 v 0.294922 h -0.59373 q -0.14358,0 -0.23283,0.08537 -0.0892,0.08537 -0.0892,0.205669 v 0.294923 q 0,0.120297 0.0776,0.201789 0.0776,0.07761 0.20179,0.07761 h 0.11641 q 0.27552,0 0.42686,0.159102 0.15523,0.159103 0.15523,0.481189 z"
         style="stroke-width:0.26458332"
         id="path2187"
         inkscape:connector-curvature="0" />
      <path
         d="m 106.92445,83.56256 v -2.149828 h -0.34925 v -0.28328 h 1.03611 v 0.28328 h -0.34925 v 2.149828 h 0.34925 v 0.28328 h -1.03611 v -0.28328 z"
         style="stroke-width:0.26458332"
         id="path2189"
         inkscape:connector-curvature="0" />
      <path
         d="m 109.01631,83.84584 v -2.421466 h -0.61701 v -0.294922 h 1.57163 v 0.294922 h -0.61701 v 2.421466 z"
         style="stroke-width:0.26458332"
         id="path2191"
         inkscape:connector-curvature="0" />
      <path
         d="m 111.10817,83.56256 v -2.149828 h -0.34925 v -0.28328 h 1.03611 v 0.28328 h -0.34925 v 2.149828 h 0.34925 v 0.28328 h -1.03611 v -0.28328 z"
         style="stroke-width:0.26458332"
         id="path2193"
         inkscape:connector-curvature="0" />
      <path
         d="m 114.14689,83.186146 q 0,0.329847 -0.18238,0.496711 -0.17851,0.162983 -0.51612,0.162983 h -0.15522 q -0.33761,0 -0.52,-0.162983 -0.1785,-0.166864 -0.1785,-0.496711 v -1.397 q 0,-0.329847 0.1785,-0.492831 0.18239,-0.166863 0.52,-0.166863 h 0.15522 q 0.33761,0 0.51612,0.166863 0.18238,0.162984 0.18238,0.492831 z m -0.33761,-1.470731 q 0,-0.120297 -0.0893,-0.205669 -0.0892,-0.08537 -0.23283,-0.08537 h -0.23284 q -0.14358,0 -0.23283,0.08537 -0.0892,0.08537 -0.0892,0.205669 v 1.544462 q 0,0.120297 0.0892,0.205669 0.0893,0.08537 0.23283,0.08537 h 0.23284 q 0.14358,0 0.23283,-0.08537 0.0893,-0.08537 0.0893,-0.205669 z"
         style="stroke-width:0.26458332"
         id="path2195"
         inkscape:connector-curvature="0" />
      <path
         d="m 115.03578,83.84584 h -0.31432 v -2.716388 h 0.55103 l 0.61313,2.429227 v -2.429227 h 0.31433 v 2.716388 h -0.55492 l -0.60925,-2.429227 z"
         style="stroke-width:0.26458332"
         id="path2197"
         inkscape:connector-curvature="0" />
    </g>
    <g
       aria-label="QUANTITY"
       style="font-style:normal;font-variant:normal;font-weight:normal;font-stretch:normal;font-size:3.88055563px;line-height:1.25;font-family:'Share Tech Mono';-inkscape-font-specification:'Share Tech Mono';letter-spacing:0px;word-spacing:0px;fill:#000000;fill-opacity:1;stroke:none;stroke-width:0.26458332"
       id="text2107">
      <path
         d="m 101.17693,127.97686 q -0.15134,0.0698 -0.37253,0.0698 h -0.15522 q -0.33761,0 -0.52,-0.16299 -0.178502,-0.16686 -0.178502,-0.49671 v -1.397 q 0,-0.32984 0.178502,-0.49283 0.18239,-0.16686 0.52,-0.16686 h 0.15522 q 0.33761,0 0.51611,0.16686 0.18239,0.16299 0.18239,0.49283 v 1.397 q 0,0.22896 -0.0892,0.38418 l 0.28328,0.28328 -0.22119,0.22119 z m -0.0116,-2.06058 q 0,-0.1203 -0.0892,-0.20567 -0.0893,-0.0854 -0.23283,-0.0854 h -0.23284 q -0.14358,0 -0.23283,0.0854 -0.0892,0.0854 -0.0892,0.20567 v 1.54446 q 0,0.1203 0.0892,0.20567 0.0893,0.0854 0.23283,0.0854 h 0.23284 q 0.14358,0 0.23283,-0.0854 0.0892,-0.0854 0.0892,-0.20567 z"
         style="stroke-width:0.26458332"
         id="path2153" />
      <path
         d="m 103.56372,127.38701 q 0,0.32985 -0.18239,0.49671 -0.1785,0.16299 -0.51611,0.16299 h -0.097 q -0.3376,0 -0.51999,-0.16299 -0.17851,-0.16686 -0.17851,-0.49671 v -2.05669 h 0.33761 v 2.13042 q 0,0.1203 0.0893,0.20567 0.0893,0.0854 0.23284,0.0854 h 0.17462 q 0.14358,0 0.23284,-0.0854 0.0893,-0.0854 0.0893,-0.20567 v -2.13042 h 0.33761 z"
         style="stroke-width:0.26458332"
         id="path2155" />
      <path
         d="m 104.5341,127.35985 -0.15134,0.68686 h -0.34537 l 0.65581,-2.71639 h 0.44627 l 0.64417,2.71639 h -0.34537 l -0.14746,-0.68686 z m 0.69462,-0.29104 -0.31821,-1.48238 -0.31432,1.48238 z"
         style="stroke-width:0.26458332"
         id="path2157" />
      <path
         d="m 106.57551,128.04671 h -0.31432 v -2.71639 h 0.55104 l 0.61313,2.42923 v -2.42923 h 0.31432 v 2.71639 h -0.55492 l -0.60925,-2.42923 z"
         style="stroke-width:0.26458332"
         id="path2159" />
      <path
         d="m 108.92349,128.04671 v -2.42147 h -0.61701 v -0.29492 h 1.57163 v 0.29492 h -0.61701 v 2.42147 z"
         style="stroke-width:0.26458332"
         id="path2161" />
      <path
         d="m 111.01535,127.76343 v -2.14983 h -0.34925 v -0.28328 h 1.03611 v 0.28328 h -0.34925 v 2.14983 h 0.34925 v 0.28328 h -1.03611 v -0.28328 z"
         style="stroke-width:0.26458332"
         id="path2163" />
      <path
         d="m 113.10722,128.04671 v -2.42147 h -0.61701 v -0.29492 h 1.57162 v 0.29492 h -0.617 v 2.42147 z"
         style="stroke-width:0.26458332"
         id="path2165" />
      <path
         d="m 115.18744,128.04671 v -1.26118 l -0.69462,-1.45521 h 0.37253 l 0.51223,1.12924 0.51224,-1.12924 h 0.35313 l -0.70626,1.45521 v 1.26118 z"
         style="stroke-width:0.26458332"
         id="path2167" />
    </g>
    <g
       aria-label="SPAWN RATE"
       style="font-style:normal;font-variant:normal;font-weight:normal;font-stretch:normal;font-size:3.88055563px;line-height:1.25;font-family:'Share Tech Mono';-inkscape-font-specification:'Share Tech Mono';letter-spacing:0px;word-spacing:0px;fill:#000000;fill-opacity:1;stroke:none;stroke-width:0.26458332"
       id="text2131">
      <path
         d="m 99.285946,149.52016 q 0,0.32985 -0.182386,0.49671 -0.178506,0.16299 -0.516114,0.16299 h -0.551039 v -0.29493 h 0.589845 q 0.14358,0 0.232833,-0.0854 0.08925,-0.0854 0.08925,-0.20567 v -0.40358 q 0,-0.11641 -0.06209,-0.18626 -0.05821,-0.0737 -0.178506,-0.0737 h -0.116416 q -0.287161,0 -0.454025,-0.16687 -0.166864,-0.17074 -0.166864,-0.49283 v -0.14746 q 0,-0.32985 0.178505,-0.49283 0.182386,-0.16686 0.519995,-0.16686 h 0.554919 v 0.29492 h -0.593725 q -0.14358,0 -0.232833,0.0854 -0.08925,0.0854 -0.08925,0.20567 v 0.29492 q 0,0.1203 0.07761,0.20179 0.07761,0.0776 0.201789,0.0776 h 0.116417 q 0.275519,0 0.426861,0.15911 0.155222,0.1591 0.155222,0.48118 z"
         style="stroke-width:0.26458332"
         id="path2133" />
      <path
         d="m 101.42437,148.51122 q 0,0.31432 -0.16686,0.46566 -0.16686,0.14746 -0.49283,0.14746 h -0.40358 v 1.05552 h -0.33761 v -2.71639 h 0.73343 q 0.32985,0 0.49671,0.14746 0.17074,0.14358 0.17074,0.4579 z m -0.3376,-0.47731 q 0,-0.14746 -0.0699,-0.21343 -0.066,-0.066 -0.21343,-0.066 h -0.44239 v 1.07879 h 0.44239 q 0.14746,0 0.21343,-0.066 0.0699,-0.0698 0.0699,-0.21731 z"
         style="stroke-width:0.26458332"
         id="path2135" />
      <path
         d="m 102.43744,149.493 -0.15134,0.68686 h -0.34537 l 0.65582,-2.71639 h 0.44626 l 0.64417,2.71639 h -0.34537 l -0.14746,-0.68686 z m 0.69462,-0.29104 -0.3182,-1.48238 -0.31433,1.48238 z"
         style="stroke-width:0.26458332"
         id="path2138" />
      <path
         d="m 104.89796,149.07778 -0.24448,1.10208 h -0.46566 l -0.13194,-2.71639 h 0.28716 l 0.11641,2.42534 0.32209,-1.28058 h 0.2406 l 0.32984,1.28058 0.1203,-2.42534 h 0.26776 l -0.13194,2.71639 h -0.48895 z"
         style="stroke-width:0.26458332"
         id="path2140" />
      <path
         d="m 106.57072,150.17986 h -0.31433 v -2.71639 h 0.55104 l 0.61313,2.42922 v -2.42922 h 0.31433 v 2.71639 h -0.55492 l -0.60925,-2.42923 z"
         style="stroke-width:0.26458332"
         id="path2142" />
      <path
         d="m 110.7428,149.05449 v 1.12537 h -0.33761 v -2.71639 h 0.72955 q 0.32985,0 0.49671,0.14746 0.17074,0.14358 0.17074,0.4579 v 0.37254 q 0,0.4385 -0.34925,0.54715 l 0.5394,1.19134 h -0.36865 l -0.50059,-1.12537 z m 0.72179,-1.02058 q 0,-0.14746 -0.0699,-0.21343 -0.066,-0.066 -0.21344,-0.066 h -0.4385 v 1.00894 h 0.4385 q 0.14747,0 0.21344,-0.066 0.0699,-0.0699 0.0699,-0.21731 z"
         style="stroke-width:0.26458332"
         id="path2144" />
      <path
         d="m 112.89675,149.493 -0.15134,0.68686 h -0.34537 l 0.65582,-2.71639 h 0.44626 l 0.64417,2.71639 h -0.34537 l -0.14746,-0.68686 z m 0.69462,-0.29104 -0.3182,-1.48238 -0.31433,1.48238 z"
         style="stroke-width:0.26458332"
         id="path2146" />
      <path
         d="m 115.19428,150.17986 v -2.42147 h -0.617 v -0.29492 h 1.57162 v 0.29492 h -0.61701 v 2.42147 z"
         style="stroke-width:0.26458332"
         id="path2148" />
      <path
         d="m 118.10494,147.46347 v 0.28328 h -0.95849 v 0.88864 h 0.86148 v 0.28328 h -0.86148 v 0.9779 h 0.95849 v 0.28329 h -1.2961 v -2.71639 z"
         style="stroke-width:0.26458332"
         id="path2150" />
    </g>
    <g
       aria-label="TRIM"
       style="font-style:normal;font-variant:normal;font-weight:normal;font-stretch:normal;font-size:3.88055563px;line-height:1.25;font-family:'Share Tech Mono';-inkscape-font-specification:'Share Tech Mono';letter-spacing:0px;word-spacing:0px;fill:#000000;fill-opacity:1;stroke:none;stroke-width:0.26458332"
       id="text912">
      <path
         d="m 133.27244,136.09703 v -2.42147 h -0.61701 v -0.29492 h 1.57162 v 0.29492 h -0.617 v 2.42147 z"
         style="stroke-width:0.26458332"
         id="path916" />
      <path
         d="m 135.09654,134.97167 v 1.12536 h -0.33761 v -2.71639 h 0.72955 q 0.32984,0 0.49671,0.14746 0.17074,0.14358 0.17074,0.45791 v 0.37253 q 0,0.4385 -0.34925,0.54716 l 0.5394,1.19133 h -0.36865 l -0.50059,-1.12536 z m 0.72178,-1.02059 q 0,-0.14746 -0.0699,-0.21343 -0.066,-0.066 -0.21343,-0.066 h -0.4385 v 1.00895 h 0.4385 q 0.14746,0 0.21343,-0.066 0.0699,-0.0698 0.0699,-0.21731 z"
         style="stroke-width:0.26458332"
         id="path918" />
      <path
         d="m 137.45616,135.81375 v -2.14983 h -0.34925 v -0.28328 h 1.03611 v 0.28328 h -0.34925 v 2.14983 h 0.34925 v 0.28328 h -1.03611 v -0.28328 z"
         style="stroke-width:0.26458332"
         id="path920" />
      <path
         d="m 139.87399,135.1851 h -0.32209 l -0.38029,-1.52506 v 2.43699 h -0.29492 v -2.71639 h 0.53939 l 0.31045,1.38924 0.31432,-1.38924 h 0.52388 v 2.71639 h -0.30268 v -2.43699 z"
         style="stroke-width:0.26458332"
         id="path922" />
    </g>
    <g
       aria-label="PURGE"
       style="font-style:normal;font-variant:normal;font-weight:normal;font-stretch:normal;font-size:3.88055563px;line-height:1.25;font-family:'Share Tech Mono';-inkscape-font-specification:'Share Tech Mono';letter-spacing:0px;word-spacing:0px;fill:#000000;fill-opacity:1;stroke:none;stroke-width:0.26458332"
       id="text891"
       transform="translate(1.5875,4.2333335)">
      <path
         d="m 75.095712,66.558633 q 0,0.314325 -0.166864,0.465667 -0.166864,0.147461 -0.492831,0.147461 h -0.403578 v 1.055511 h -0.337608 v -2.716389 h 0.733425 q 0.329847,0 0.496711,0.147461 0.170745,0.143581 0.170745,0.457906 z m -0.337609,-0.477308 q 0,-0.147461 -0.06985,-0.213431 -0.06597,-0.06597 -0.21343,-0.06597 h -0.442384 v 1.078794 h 0.442384 q 0.147461,0 0.21343,-0.06597 0.06985,-0.06985 0.06985,-0.217311 z"
         style="stroke-width:0.26458332"
         id="path893"
         inkscape:connector-curvature="0" />
      <path
         d="m 77.23026,67.567578 q 0,0.329847 -0.182386,0.496711 -0.178506,0.162983 -0.516114,0.162983 h -0.09701 q -0.337609,0 -0.519995,-0.162983 -0.178505,-0.166864 -0.178505,-0.496711 v -2.056695 h 0.337608 v 2.130425 q 0,0.120297 0.08925,0.20567 0.08925,0.08537 0.232833,0.08537 h 0.174625 q 0.143581,0 0.232834,-0.08537 0.08925,-0.08537 0.08925,-0.20567 v -2.130425 h 0.337609 z"
         style="stroke-width:0.26458332"
         id="path895"
         inkscape:connector-curvature="0" />
      <path
         d="m 78.138552,67.101911 v 1.125361 h -0.337608 v -2.716389 h 0.729544 q 0.329848,0 0.496711,0.147461 0.170745,0.143581 0.170745,0.457906 v 0.372533 q 0,0.438503 -0.34925,0.547158 l 0.539397,1.191331 h -0.368653 l -0.500591,-1.125361 z m 0.721784,-1.020586 q 0,-0.147461 -0.06985,-0.213431 -0.06597,-0.06597 -0.213431,-0.06597 h -0.438503 v 1.008944 h 0.438503 q 0.147461,0 0.213431,-0.06597 0.06985,-0.06985 0.06985,-0.217311 z"
         style="stroke-width:0.26458332"
         id="path897"
         inkscape:connector-curvature="0" />
      <path
         d="m 80.684439,68.227272 q -0.337608,0 -0.519994,-0.162983 -0.178506,-0.166864 -0.178506,-0.496711 v -1.397 q 0,-0.329848 0.178506,-0.492831 0.182386,-0.166864 0.519994,-0.166864 h 0.547159 v 0.294922 h -0.585964 q -0.143581,0 -0.232833,0.08537 -0.08925,0.08537 -0.08925,0.205669 v 1.544461 q 0,0.120297 0.08925,0.20567 0.08925,0.08537 0.232833,0.08537 h 0.380294 V 67.090269 H 80.68832 v -0.291041 h 0.659694 v 1.428044 z"
         style="stroke-width:0.26458332"
         id="path899"
         inkscape:connector-curvature="0" />
      <path
         d="m 83.408832,65.510883 v 0.283281 h -0.958498 v 0.888647 h 0.861484 v 0.28328 h -0.861484 v 0.9779 h 0.958498 v 0.283281 h -1.296106 v -2.716389 z"
         style="stroke-width:0.26458332"
         id="path901"
         inkscape:connector-curvature="0" />
    </g>
  </g>
</svg>
