<?xml version="1.0" encoding="UTF-8" standalone="no"?>
<!-- Created with Inkscape (http://www.inkscape.org/) -->

<svg
   xmlns:dc="http://purl.org/dc/elements/1.1/"
   xmlns:cc="http://creativecommons.org/ns#"
   xmlns:rdf="http://www.w3.org/1999/02/22-rdf-syntax-ns#"
   xmlns:svg="http://www.w3.org/2000/svg"
   xmlns="http://www.w3.org/2000/svg"
   xmlns:sodipodi="http://sodipodi.sourceforge.net/DTD/sodipodi-0.dtd"
   xmlns:inkscape="http://www.inkscape.org/namespaces/inkscape"
   width="30.48mm"
   height="128.5mm"
   viewBox="0 0 30.479999 128.5"
   version="1.1"
   id="svg11003"
   inkscape:version="0.92.4 (5da689c313, 2019-01-14)"
   sodipodi:docname="grain_engine_mk2_expander_front_panel.svg">
  <defs
     id="defs10997" />
  <sodipodi:namedview
     id="base"
     pagecolor="#ffffff"
     bordercolor="#666666"
     borderopacity="1.0"
     inkscape:pageopacity="0.0"
     inkscape:pageshadow="2"
     inkscape:zoom="1.979899"
     inkscape:cx="-30.45616"
     inkscape:cy="245.55066"
     inkscape:document-units="mm"
     inkscape:current-layer="layer1"
     showgrid="false"
     fit-margin-top="0"
     fit-margin-left="0"
     fit-margin-right="0"
     fit-margin-bottom="0"
     inkscape:window-width="1818"
     inkscape:window-height="1224"
     inkscape:window-x="397"
     inkscape:window-y="1018"
     inkscape:window-maximized="0"
     units="mm"
     showguides="true"
     inkscape:guide-bbox="true"
     showborder="true">
    <sodipodi:guide
       position="-17.907058,13.798"
       orientation="0,1"
       id="guide5385"
       inkscape:locked="false"
       inkscape:label=""
       inkscape:color="rgb(0,0,255)" />
    <sodipodi:guide
       position="9.8780001,86.996232"
       orientation="1,0"
       id="guide5387"
       inkscape:locked="false"
       inkscape:label=""
       inkscape:color="rgb(0,0,255)" />
    <sodipodi:guide
       position="20.602,98.756092"
       orientation="1,0"
       id="guide5389"
       inkscape:locked="false"
       inkscape:label=""
       inkscape:color="rgb(0,0,255)" />
  </sodipodi:namedview>
  <metadata
     id="metadata11000">
    <rdf:RDF>
      <cc:Work
         rdf:about="">
        <dc:format>image/svg+xml</dc:format>
        <dc:type
           rdf:resource="http://purl.org/dc/dcmitype/StillImage" />
        <dc:title></dc:title>
      </cc:Work>
    </rdf:RDF>
  </metadata>
  <g
     inkscape:label="Panel Layer"
     inkscape:groupmode="layer"
     id="layer1"
     transform="translate(-64.792954,-47.169623)"
     style="display:inline">
    <path
       inkscape:connector-curvature="0"
       id="path33429"
       d="m 64.792953,47.169618 h 30.48 V 175.66962 h -30.48 z m 0,0"
       style="fill:#e6e6e6;fill-opacity:1;fill-rule:nonzero;stroke:none;stroke-width:0.46018988" />
    <text
       xml:space="preserve"
       style="font-style:normal;font-weight:normal;font-size:4.58611107px;line-height:1.25;font-family:sans-serif;letter-spacing:0px;word-spacing:0px;fill:#000000;fill-opacity:1;stroke:none;stroke-width:0.26458332"
       x="75.943253"
       y="53.772301"
       id="text110"><tspan
         sodipodi:role="line"
         id="tspan108"
         x="75.943253"
         y="57.956348"
         style="font-size:4.58611107px;stroke-width:0.26458332" /></text>
    <g
       aria-label="voxglitch"
       style="font-style:normal;font-variant:normal;font-weight:normal;font-stretch:normal;font-size:3.88055563px;line-height:1.25;font-family:'Sitka Subheading';-inkscape-font-specification:'Sitka Subheading';letter-spacing:0px;word-spacing:0px;fill:#999999;fill-opacity:1;stroke:none;stroke-width:0.26458332"
       id="text939"
       transform="translate(-55.765767,0.32114899)">
      <path
         d="m 139.18399,173.2094 q -0.01,-0.0251 -0.0289,-0.0389 -0.0176,-0.0138 -0.0426,-0.0226 l -0.0953,-0.0389 v -0.0778 h 0.58451 v 0.0778 l -0.18438,0.0539 0.29727,0.70116 0.059,0.17811 h 0.0138 l 0.3324,-0.85293 -0.17435,-0.0803 v -0.0778 h 0.47915 v 0.0778 l -0.0991,0.0615 q -0.0251,0.0125 -0.0439,0.0263 -0.0188,0.0138 -0.0289,0.0364 l -0.34369,0.83914 -0.13672,0.27344 h -0.10787 z"
         style="font-size:2.82222223px;fill:#999999;stroke-width:0.26458332"
         id="path941"
         inkscape:connector-curvature="0" />
      <path
         d="m 141.14323,174.36588 q -0.14048,0 -0.25588,-0.0477 -0.11539,-0.0477 -0.19818,-0.13547 -0.0815,-0.0891 -0.12669,-0.21574 -0.0439,-0.12669 -0.0439,-0.28348 0,-0.1455 0.0439,-0.27093 0.0452,-0.12544 0.12669,-0.21826 0.0828,-0.0928 0.20069,-0.1455 0.11791,-0.0539 0.26592,-0.0539 0.16055,0 0.2772,0.0564 0.11791,0.0564 0.19442,0.15052 0.0778,0.0941 0.1154,0.21825 0.0376,0.12292 0.0376,0.25839 0,0.14299 -0.0439,0.26843 -0.0439,0.12543 -0.12669,0.2195 -0.0815,0.0928 -0.19943,0.14676 -0.11791,0.0527 -0.26718,0.0527 z m 0.0188,-0.11791 q 0.10536,0 0.17435,-0.0514 0.0702,-0.0514 0.11038,-0.13045 0.0414,-0.0803 0.0577,-0.17561 0.0163,-0.0966 0.0163,-0.18564 0,-0.10912 -0.0213,-0.21449 -0.0201,-0.10661 -0.0665,-0.19065 -0.0451,-0.084 -0.1179,-0.13547 -0.0727,-0.0514 -0.17686,-0.0514 -0.0702,0 -0.12418,0.0238 -0.0527,0.0238 -0.0928,0.064 -0.0401,0.0401 -0.0677,0.0941 -0.0263,0.0527 -0.0439,0.11289 -0.0163,0.0602 -0.0238,0.12292 -0.006,0.0627 -0.006,0.12167 0,0.0665 0.008,0.13672 0.008,0.069 0.0251,0.13547 0.0188,0.0652 0.0477,0.12418 0.0289,0.059 0.0715,0.10285 0.0426,0.0439 0.0991,0.0702 0.0577,0.0263 0.1317,0.0263 z"
         style="font-size:2.82222223px;fill:#999999;stroke-width:0.26458332"
         id="path943"
         inkscape:connector-curvature="0" />
      <path
         d="m 141.90933,174.25424 0.11163,-0.0464 q 0.0263,-0.01 0.0502,-0.0289 0.0251,-0.0201 0.0389,-0.0364 l 0.35622,-0.44152 -0.3487,-0.48793 q -0.0151,-0.0226 -0.0351,-0.0389 -0.0201,-0.0176 -0.0489,-0.0263 l -0.11289,-0.0389 v -0.0778 h 0.57198 v 0.0778 l -0.13422,0.0514 0.19568,0.28096 0.069,0.12418 h 0.009 l 0.29351,-0.3926 -0.11916,-0.064 v -0.0778 h 0.44277 v 0.0778 l -0.11163,0.0477 q -0.0263,0.01 -0.0502,0.0289 -0.0226,0.0188 -0.0376,0.0364 l -0.34243,0.42396 0.36125,0.50549 q 0.0163,0.0226 0.0364,0.0401 0.0213,0.0163 0.0489,0.0251 l 0.10913,0.0376 v 0.079 h -0.57197 v -0.079 l 0.13672,-0.0502 -0.20947,-0.29978 -0.069,-0.12292 h -0.009 l -0.30605,0.41016 0.11916,0.0627 v 0.079 h -0.44403 z"
         style="font-size:2.82222223px;fill:#999999;stroke-width:0.26458332"
         id="path945"
         inkscape:connector-curvature="0" />
      <path
         d="m 143.66884,174.29815 q -0.0326,-0.01 -0.069,-0.0289 -0.0351,-0.0188 -0.0652,-0.0477 -0.0301,-0.0289 -0.0502,-0.0677 -0.0188,-0.0401 -0.0188,-0.0916 0,-0.0577 0.0213,-0.10034 0.0226,-0.0439 0.0564,-0.074 0.0339,-0.0314 0.0753,-0.0502 0.0414,-0.0188 0.079,-0.0276 v -0.009 q -0.0389,-0.0226 -0.0778,-0.0539 -0.0389,-0.0326 -0.0702,-0.0765 -0.0301,-0.0439 -0.0502,-0.10035 -0.0188,-0.0577 -0.0188,-0.13045 0,-0.0928 0.0364,-0.17435 0.0376,-0.0815 0.10536,-0.14174 0.0677,-0.0602 0.16306,-0.0941 0.0953,-0.0351 0.21198,-0.0351 0.0753,0 0.14299,0.01 0.0677,0.01 0.13045,0.0263 h 0.44027 l -0.0151,0.15428 -0.3324,-0.0426 v 0.008 q 0.0301,0.0326 0.0539,0.0652 0.0238,0.0326 0.0401,0.069 0.0176,0.0351 0.0263,0.0753 0.009,0.0389 0.009,0.0853 0,0.0928 -0.0351,0.17184 -0.0339,0.079 -0.0991,0.13798 -0.0652,0.0577 -0.16056,0.0903 -0.0941,0.0326 -0.21574,0.0326 -0.0314,0 -0.064,-0.003 -0.0314,-0.004 -0.0602,-0.008 -0.0289,-0.005 -0.0539,-0.0113 -0.0238,-0.006 -0.0401,-0.0126 -0.0188,0.004 -0.0376,0.0151 -0.0176,0.0113 -0.0326,0.0289 -0.0151,0.0163 -0.0251,0.0389 -0.009,0.0226 -0.009,0.0489 0,0.0263 0.009,0.0502 0.009,0.0226 0.0238,0.0401 0.0151,0.0176 0.0339,0.0301 0.0201,0.0113 0.0414,0.0151 h 0.44278 q 0.12543,0 0.20947,0.0301 0.0853,0.0301 0.13672,0.079 0.0527,0.0489 0.074,0.10912 0.0226,0.059 0.0226,0.11791 0,0.10913 -0.0539,0.19944 -0.0527,0.0916 -0.14551,0.15679 -0.0928,0.0665 -0.21825,0.10285 -0.12543,0.0364 -0.26968,0.0364 -0.12417,0 -0.22954,-0.0213 -0.10411,-0.0213 -0.18062,-0.064 -0.0765,-0.0414 -0.12041,-0.10285 -0.0427,-0.0615 -0.0427,-0.14174 0,-0.0652 0.0226,-0.1154 0.0238,-0.0502 0.0615,-0.0878 0.0376,-0.0364 0.0865,-0.0615 0.0502,-0.0251 0.10536,-0.0401 z m 0.31985,-0.52055 q 0.064,0 0.11289,-0.0238 0.0489,-0.0238 0.0815,-0.069 0.0326,-0.0451 0.0489,-0.10912 0.0176,-0.0652 0.0176,-0.14676 0,-0.079 -0.0188,-0.14048 -0.0188,-0.0615 -0.0539,-0.10411 -0.0339,-0.0427 -0.0828,-0.064 -0.0477,-0.0226 -0.10661,-0.0226 -0.0577,0 -0.10411,0.0213 -0.0464,0.0213 -0.0803,0.064 -0.0339,0.0414 -0.0527,0.10411 -0.0176,0.0615 -0.0176,0.143 0,0.0828 0.0176,0.14801 0.0188,0.064 0.0514,0.10912 0.0339,0.0439 0.0815,0.0677 0.0477,0.0226 0.10536,0.0226 z m -0.21449,0.5356 q -0.0238,0.006 -0.0502,0.0238 -0.0263,0.0176 -0.0477,0.0464 -0.0213,0.0289 -0.0351,0.069 -0.0138,0.0414 -0.0138,0.0941 0,0.0527 0.0188,0.0941 0.0188,0.0414 0.0502,0.0715 0.0326,0.0301 0.074,0.0502 0.0414,0.0201 0.0853,0.0326 0.0439,0.0125 0.0866,0.0176 0.0439,0.005 0.0803,0.005 0.0778,0 0.15428,-0.0163 0.0778,-0.0151 0.13797,-0.0514 0.0615,-0.0351 0.0991,-0.0916 0.0376,-0.0552 0.0376,-0.13422 0,-0.0364 -0.0151,-0.074 -0.0138,-0.0376 -0.0451,-0.0677 -0.0301,-0.0301 -0.0803,-0.0489 -0.0489,-0.0201 -0.11665,-0.0201 z"
         style="font-size:2.82222223px;fill:#999999;stroke-width:0.26458332"
         id="path947"
         inkscape:connector-curvature="0" />
      <path
         d="m 144.83179,174.25424 0.16933,-0.0439 q 0.0238,-0.006 0.0376,-0.0213 0.0151,-0.0163 0.0151,-0.0427 v -1.4826 q 0,-0.0289 -0.0163,-0.0464 -0.0163,-0.0188 -0.0464,-0.0288 l -0.16557,-0.0615 v -0.0702 l 0.46535,-0.0477 v 1.73723 q 0,0.0263 0.015,0.0427 0.0163,0.0163 0.0376,0.0213 l 0.16056,0.0439 v 0.079 h -0.67232 z"
         style="font-size:2.82222223px;fill:#999999;stroke-width:0.26458332"
         id="path949"
         inkscape:connector-curvature="0" />
      <path
         d="m 145.98401,172.74655 q -0.0351,0 -0.0665,-0.0113 -0.0301,-0.0125 -0.0539,-0.0326 -0.0226,-0.0201 -0.0364,-0.0489 -0.0138,-0.0301 -0.0138,-0.0665 0,-0.0364 0.0138,-0.0665 0.0138,-0.0301 0.0364,-0.0502 0.0238,-0.0213 0.0539,-0.0326 0.0314,-0.0113 0.0665,-0.0113 0.0376,0 0.0702,0.0113 0.0326,0.01 0.0552,0.0301 0.0238,0.0201 0.0364,0.0489 0.0138,0.0276 0.0138,0.064 0,0.0376 -0.0138,0.0677 -0.0125,0.0301 -0.0364,0.0527 -0.0238,0.0213 -0.0564,0.0339 -0.0326,0.0113 -0.069,0.0113 z m -0.32612,1.50769 0.1731,-0.0439 q 0.0238,-0.006 0.0389,-0.0213 0.0151,-0.0163 0.0151,-0.0427 v -0.85795 q 0,-0.0289 -0.0163,-0.0464 -0.0163,-0.0188 -0.0477,-0.0289 l -0.1593,-0.0552 v -0.0702 l 0.45908,-0.074 v 1.13265 q 0,0.0263 0.0151,0.0427 0.0163,0.0163 0.0376,0.0213 l 0.16683,0.0439 v 0.079 h -0.68235 z"
         style="font-size:2.82222223px;fill:#999999;stroke-width:0.26458332"
         id="path951"
         inkscape:connector-curvature="0" />
      <path
         d="m 146.65956,173.16299 h -0.20947 v -0.0966 q 0.0514,-0.01 0.0928,-0.0188 0.0426,-0.009 0.0727,-0.0276 0.0301,-0.0201 0.0477,-0.0552 0.0188,-0.0351 0.0226,-0.0966 l 0.01,-0.17435 0.20069,-0.0389 v 0.38005 h 0.46034 l -0.0188,0.12795 h -0.44152 v 0.87049 q 0,0.0414 0.0263,0.0703 0.0264,0.0288 0.064,0.0477 0.0389,0.0188 0.0803,0.0276 0.0414,0.008 0.0728,0.008 0.0213,0 0.0477,-0.004 0.0276,-0.005 0.0527,-0.01 0.0251,-0.006 0.0464,-0.0138 0.0226,-0.008 0.0339,-0.0126 h 0.0326 v 0.0891 q -0.0176,0.0113 -0.0539,0.0314 -0.0351,0.0201 -0.0828,0.0401 -0.0464,0.0201 -0.10286,0.0339 -0.0552,0.0151 -0.11163,0.0151 -0.0703,0 -0.13296,-0.0176 -0.0615,-0.0176 -0.10787,-0.0502 -0.0464,-0.0326 -0.074,-0.0803 -0.0276,-0.0489 -0.0276,-0.11164 z"
         style="font-size:2.82222223px;fill:#999999;stroke-width:0.26458332"
         id="path953"
         inkscape:connector-curvature="0" />
      <path
         d="m 148.58823,174.02345 v 0.12418 q -0.0427,0.0376 -0.0966,0.0765 -0.0527,0.0376 -0.11666,0.069 -0.0627,0.0314 -0.13546,0.0502 -0.0728,0.0201 -0.15428,0.0201 -0.13547,0 -0.2446,-0.0502 -0.10912,-0.0502 -0.18564,-0.13798 -0.0765,-0.089 -0.1179,-0.20821 -0.0401,-0.11917 -0.0401,-0.25839 0,-0.10035 0.0238,-0.19192 0.0251,-0.0916 0.0702,-0.17058 0.0452,-0.079 0.10787,-0.143 0.064,-0.0652 0.14049,-0.11038 0.0778,-0.0451 0.16682,-0.0702 0.0891,-0.0251 0.18564,-0.0251 0.074,0 0.13045,0.0125 0.0577,0.0113 0.10035,0.0276 0.0439,0.0151 0.074,0.0326 0.0314,0.0163 0.0552,0.0263 l -0.0201,0.23455 h -0.0464 q -0.0477,-0.0301 -0.0953,-0.0615 -0.0464,-0.0326 -0.0978,-0.0577 -0.0502,-0.0263 -0.10787,-0.0426 -0.0577,-0.0176 -0.1292,-0.0176 -0.0226,0 -0.0489,0.006 -0.0263,0.005 -0.0527,0.0163 -0.0263,0.0113 -0.0489,0.0263 -0.0226,0.0151 -0.0389,0.0339 -0.0201,0.0226 -0.0414,0.0565 -0.0201,0.0326 -0.0376,0.0828 -0.0163,0.0489 -0.0276,0.1154 -0.01,0.0665 -0.01,0.15553 0,0.12795 0.0276,0.22829 0.0276,0.10035 0.0828,0.17059 0.0552,0.0702 0.13672,0.10787 0.0815,0.0364 0.1894,0.0364 0.0602,0 0.11414,-0.0176 0.0552,-0.0176 0.10286,-0.0414 0.0477,-0.0251 0.0865,-0.0539 0.0401,-0.0289 0.069,-0.0514 z"
         style="font-size:2.82222223px;fill:#999999;stroke-width:0.26458332"
         id="path955"
         inkscape:connector-curvature="0" />
      <path
         d="m 148.74492,174.25424 0.14551,-0.0439 q 0.0263,-0.008 0.0389,-0.0226 0.0138,-0.0151 0.0138,-0.0414 v -1.4826 q 0,-0.0289 -0.0163,-0.0464 -0.0163,-0.0176 -0.0464,-0.0288 l -0.14425,-0.0615 v -0.0702 l 0.44278,-0.0477 v 0.73879 0.0677 q 0.0552,-0.0727 0.10787,-0.1154 0.0539,-0.0439 0.10536,-0.0665 0.0527,-0.0238 0.10286,-0.0314 0.0514,-0.008 0.1016,-0.008 0.0865,0 0.16181,0.0263 0.0765,0.0251 0.13295,0.079 0.0577,0.0539 0.0903,0.13923 0.0326,0.0853 0.0326,0.2032 v 0.6974 q 0,0.0314 0.0151,0.0477 0.0151,0.0163 0.0364,0.0226 l 0.13296,0.0439 v 0.079 h -0.60458 v -0.079 l 0.13296,-0.0439 q 0.0213,-0.006 0.0364,-0.0226 0.0151,-0.0163 0.0151,-0.0477 v -0.59956 q 0,-0.0878 -0.0113,-0.15554 -0.01,-0.069 -0.0414,-0.11665 -0.0314,-0.0489 -0.0878,-0.074 -0.0552,-0.0251 -0.1455,-0.0251 -0.0414,0 -0.084,0.006 -0.0426,0.006 -0.084,0.0213 -0.0414,0.0151 -0.079,0.0401 -0.0376,0.0251 -0.0665,0.0615 v 0.84792 q 0,0.0263 0.0138,0.0414 0.0151,0.0151 0.0389,0.0226 l 0.11791,0.0439 v 0.079 h -0.60459 z"
         style="font-size:2.82222223px;fill:#999999;stroke-width:0.26458332"
         id="path957"
         inkscape:connector-curvature="0" />
    </g>
    <text
       xml:space="preserve"
       style="font-style:normal;font-variant:normal;font-weight:normal;font-stretch:normal;font-size:3.88055563px;line-height:1.25;font-family:'Share Tech Mono';-inkscape-font-specification:'Share Tech Mono';letter-spacing:0px;word-spacing:0px;fill:#000000;fill-opacity:1;stroke:none;stroke-width:0.26458332"
       x="110.48083"
       y="98.467987"
       id="text2911"><tspan
         sodipodi:role="line"
         id="tspan2909"
         x="110.48083"
         y="102.00034"
         style="font-style:normal;font-variant:normal;font-weight:normal;font-stretch:normal;font-family:'Share Tech Mono';-inkscape-font-specification:'Share Tech Mono';stroke-width:0.26458332" /></text>
    <text
       xml:space="preserve"
       style="font-style:normal;font-variant:normal;font-weight:normal;font-stretch:normal;font-size:3.88055563px;line-height:1.25;font-family:'Share Tech Mono';-inkscape-font-specification:'Share Tech Mono';letter-spacing:0px;word-spacing:0px;fill:#000000;fill-opacity:1;stroke:none;stroke-width:0.26458332"
       x="101.74013"
       y="99.554665"
       id="text2915"><tspan
         sodipodi:role="line"
         id="tspan2913"
         x="101.74013"
         y="103.08702"
         style="font-style:normal;font-variant:normal;font-weight:normal;font-stretch:normal;font-family:'Share Tech Mono';-inkscape-font-specification:'Share Tech Mono';stroke-width:0.26458332" /></text>
    <g
       aria-label="LENGTH"
       style="font-style:normal;font-variant:normal;font-weight:normal;font-stretch:normal;font-size:3.52777767px;line-height:1.25;font-family:'Share Tech Mono';-inkscape-font-specification:'Share Tech Mono';letter-spacing:0px;word-spacing:0px;fill:#000046;fill-opacity:1;stroke:none;stroke-width:0.26458332"
       id="text2919"
       transform="translate(-1.405896,4.2215415)" />
    <g
       aria-label="SAMPERx8"
       style="font-style:normal;font-variant:normal;font-weight:normal;font-stretch:normal;font-size:4.93888903px;line-height:1.25;font-family:'Share Tech Mono';-inkscape-font-specification:'Share Tech Mono';letter-spacing:0px;word-spacing:0px;fill:#000000;fill-opacity:1;stroke:none;stroke-width:0.26458332"
       id="text856" />
    <g
       aria-label="INPUTS"
       style="font-style:normal;font-variant:normal;font-weight:normal;font-stretch:normal;font-size:3.52777767px;line-height:1.25;font-family:'Share Tech Mono';-inkscape-font-specification:'Share Tech Mono';letter-spacing:0px;word-spacing:0px;display:inline;fill:#000000;fill-opacity:1;stroke:none;stroke-width:0.26458332"
       id="text864">
      <path
         d="m 81.257346,68.671618 v -1.954389 h -0.3175 v -0.257528 h 0.941916 v 0.257528 h -0.3175 v 1.954389 h 0.3175 v 0.257528 h -0.941916 v -0.257528 z"
         style="stroke-width:0.26458332"
         id="path918"
         inkscape:connector-curvature="0" />
      <path
         d="m 82.926205,68.929146 h -0.28575 v -2.469445 h 0.500944 l 0.557389,2.208389 v -2.208389 h 0.28575 v 2.469445 h -0.504472 l -0.553861,-2.208389 z"
         style="stroke-width:0.26458332"
         id="path920"
         inkscape:connector-curvature="0" />
      <path
         d="m 85.854481,67.412201 q 0,0.28575 -0.151695,0.423334 -0.151694,0.134055 -0.448027,0.134055 H 84.88787 v 0.959556 h -0.306917 v -2.469445 h 0.66675 q 0.299861,0 0.451556,0.134056 0.155222,0.130528 0.155222,0.416278 z m -0.306917,-0.433916 q 0,-0.134056 -0.0635,-0.194028 -0.05997,-0.05997 -0.194028,-0.05997 H 84.88787 v 0.980722 h 0.402166 q 0.134056,0 0.194028,-0.05997 0.0635,-0.0635 0.0635,-0.197556 z"
         style="stroke-width:0.26458332"
         id="path922"
         inkscape:connector-curvature="0" />
      <path
         d="m 87.794979,68.329424 q 0,0.299861 -0.165805,0.451555 -0.162278,0.148167 -0.469195,0.148167 h -0.08819 q -0.306917,0 -0.472722,-0.148167 -0.162278,-0.151694 -0.162278,-0.451555 v -1.869723 h 0.306916 v 1.93675 q 0,0.109361 0.08114,0.186973 0.08114,0.07761 0.211667,0.07761 h 0.15875 q 0.130528,0 0.211667,-0.07761 0.08114,-0.07761 0.08114,-0.186973 v -1.93675 h 0.306916 z"
         style="stroke-width:0.26458332"
         id="path924"
         inkscape:connector-curvature="0" />
      <path
         d="m 88.864116,68.929146 v -2.201333 h -0.560917 v -0.268112 h 1.42875 v 0.268112 h -0.560916 v 2.201333 z"
         style="stroke-width:0.26458332"
         id="path926"
         inkscape:connector-curvature="0" />
      <path
         d="m 91.517225,68.329424 q 0,0.299861 -0.165805,0.451555 -0.162278,0.148167 -0.469195,0.148167 h -0.500944 v -0.268111 h 0.536222 q 0.130528,0 0.211667,-0.07761 0.08114,-0.07761 0.08114,-0.186973 v -0.366888 q 0,-0.105834 -0.05644,-0.169334 -0.05292,-0.06703 -0.162278,-0.06703 h -0.105833 q -0.261056,0 -0.41275,-0.151694 -0.151695,-0.155222 -0.151695,-0.448028 v -0.134055 q 0,-0.299861 0.162278,-0.448028 0.165806,-0.151695 0.472722,-0.151695 h 0.504473 v 0.268112 h -0.53975 q -0.130528,0 -0.211667,0.07761 -0.08114,0.07761 -0.08114,0.186972 v 0.268111 q 0,0.109361 0.07056,0.183444 0.07055,0.07056 0.183444,0.07056 h 0.105833 q 0.250473,0 0.388056,0.144639 0.141111,0.144639 0.141111,0.437444 z"
         style="stroke-width:0.26458332"
         id="path928"
         inkscape:connector-curvature="0" />
    </g>
    <g
       aria-label="STOP REC"
       style="font-style:normal;font-variant:normal;font-weight:normal;font-stretch:normal;font-size:2.82222223px;line-height:1.25;font-family:'Share Tech Mono';-inkscape-font-specification:'Share Tech Mono';letter-spacing:0px;word-spacing:0px;fill:#000000;fill-opacity:1;stroke:none;stroke-width:0.26458332"
       id="text873">
      <path
         d="m 92.078144,108.0391 q 0,0.26987 -0.149225,0.4064 -0.14605,0.13335 -0.422275,0.13335 h -0.45085 v -0.2413 h 0.4826 q 0.117475,0 0.1905,-0.0698 0.07303,-0.0699 0.07303,-0.16828 v -0.3302 q 0,-0.0953 -0.0508,-0.1524 -0.04762,-0.0603 -0.14605,-0.0603 h -0.09525 q -0.23495,0 -0.371475,-0.13653 -0.136525,-0.1397 -0.136525,-0.40322 v -0.12065 q 0,-0.26988 0.14605,-0.40323 0.149225,-0.13652 0.42545,-0.13652 h 0.454025 v 0.2413 h -0.485775 q -0.117475,0 -0.1905,0.0699 -0.07303,0.0699 -0.07303,0.16827 v 0.2413 q 0,0.0984 0.0635,0.1651 0.0635,0.0635 0.1651,0.0635 h 0.09525 q 0.225425,0 0.34925,0.13018 0.127,0.13017 0.127,0.3937 z"
         style="font-size:3.17499995px;stroke-width:0.26458332"
         id="path900"
         inkscape:connector-curvature="0" />
      <path
         d="m 93.113392,108.57885 v -1.9812 h -0.504825 v -0.2413 h 1.285875 v 0.2413 h -0.504825 v 1.9812 z"
         style="font-size:3.17499995px;stroke-width:0.26458332"
         id="path902"
         inkscape:connector-curvature="0" />
      <path
         d="m 95.599615,108.0391 q 0,0.26987 -0.149225,0.4064 -0.14605,0.13335 -0.422275,0.13335 h -0.127 q -0.276225,0 -0.42545,-0.13335 -0.14605,-0.13653 -0.14605,-0.4064 v -1.143 q 0,-0.26988 0.14605,-0.40323 0.149225,-0.13652 0.42545,-0.13652 h 0.127 q 0.276225,0 0.422275,0.13652 0.149225,0.13335 0.149225,0.40323 z m -0.276225,-1.20333 q 0,-0.0984 -0.07303,-0.16827 -0.07303,-0.0699 -0.1905,-0.0699 h -0.1905 q -0.117475,0 -0.1905,0.0699 -0.07303,0.0699 -0.07303,0.16827 v 1.26365 q 0,0.0984 0.07303,0.16828 0.07303,0.0698 0.1905,0.0698 h 0.1905 q 0.117475,0 0.1905,-0.0698 0.07303,-0.0699 0.07303,-0.16828 z"
         style="font-size:3.17499995px;stroke-width:0.26458332"
         id="path904"
         inkscape:connector-curvature="0" />
      <path
         d="m 97.250814,107.2136 q 0,0.25717 -0.136525,0.381 -0.136525,0.12065 -0.403225,0.12065 h -0.3302 v 0.8636 h -0.276225 v -2.2225 h 0.600075 q 0.269875,0 0.4064,0.12065 0.1397,0.11747 0.1397,0.37465 z m -0.276225,-0.39053 q 0,-0.12065 -0.05715,-0.17462 -0.05398,-0.054 -0.174625,-0.054 h -0.36195 v 0.88265 h 0.36195 q 0.12065,0 0.174625,-0.054 0.05715,-0.0572 0.05715,-0.1778 z"
         style="font-size:3.17499995px;stroke-width:0.26458332"
         id="path906"
         inkscape:connector-curvature="0" />
      <path
         d="m 99.740411,107.6581 v 0.92075 h -0.276225 v -2.2225 h 0.596904 q 0.26987,0 0.4064,0.12065 0.1397,0.11747 0.1397,0.37465 v 0.3048 q 0,0.35877 -0.28575,0.44767 l 0.44132,0.97473 h -0.30162 l -0.40958,-0.92075 z m 0.590549,-0.83503 q 0,-0.12065 -0.0572,-0.17462 -0.054,-0.054 -0.17462,-0.054 h -0.358779 v 0.8255 h 0.358779 q 0.12065,0 0.17462,-0.054 0.0572,-0.0571 0.0572,-0.1778 z"
         style="font-size:3.17499995px;stroke-width:0.26458332"
         id="path908"
         inkscape:connector-curvature="0" />
      <path
         d="m 102.34093,106.35635 v 0.23177 h -0.78422 v 0.72708 h 0.70485 v 0.23177 h -0.70485 v 0.8001 h 0.78422 v 0.23178 h -1.06045 v -2.2225 z"
         style="font-size:3.17499995px;stroke-width:0.26458332"
         id="path910"
         inkscape:connector-curvature="0" />
      <path
         d="m 103.58256,108.57885 q -0.27623,0 -0.42545,-0.13335 -0.14605,-0.13653 -0.14605,-0.4064 v -1.143 q 0,-0.26988 0.14605,-0.40323 0.14922,-0.13652 0.42545,-0.13652 h 0.45085 v 0.2413 h -0.4826 q -0.11748,0 -0.1905,0.0699 -0.073,0.0699 -0.073,0.16827 v 1.26365 q 0,0.0984 0.073,0.16828 0.073,0.0698 0.1905,0.0698 h 0.4826 v 0.2413 z"
         style="font-size:3.17499995px;stroke-width:0.26458332"
         id="path912"
         inkscape:connector-curvature="0" />
    </g>
    <g
       aria-label="START REC"
       style="font-style:normal;font-variant:normal;font-weight:normal;font-stretch:normal;font-size:2.82222223px;line-height:1.25;font-family:'Share Tech Mono';-inkscape-font-specification:'Share Tech Mono';letter-spacing:0px;word-spacing:0px;fill:#000000;fill-opacity:1;stroke:none;stroke-width:0.26458332"
       id="text877">
      <path
         d="m 91.983653,97.928237 q 0,0.269875 -0.149225,0.4064 -0.14605,0.13335 -0.422275,0.13335 h -0.45085 v -0.2413 h 0.4826 q 0.117475,0 0.1905,-0.06985 0.07302,-0.06985 0.07302,-0.168275 v -0.3302 q 0,-0.09525 -0.0508,-0.1524 -0.04762,-0.06032 -0.14605,-0.06032 h -0.09525 q -0.23495,0 -0.371475,-0.136525 -0.136525,-0.1397 -0.136525,-0.403225 v -0.12065 q 0,-0.269875 0.14605,-0.403225 0.149225,-0.136525 0.42545,-0.136525 h 0.454025 v 0.2413 h -0.485775 q -0.117475,0 -0.1905,0.06985 -0.07303,0.06985 -0.07303,0.168275 v 0.2413 q 0,0.09843 0.0635,0.1651 0.0635,0.0635 0.1651,0.0635 h 0.09525 q 0.225425,0 0.34925,0.130175 0.127,0.130175 0.127,0.3937 z"
         style="font-size:3.17499995px;stroke-width:0.26458332"
         id="path883"
         inkscape:connector-curvature="0" />
      <path
         d="m 93.018902,98.467987 v -1.9812 h -0.504825 v -0.2413 h 1.285875 v 0.2413 h -0.504825 v 1.9812 z"
         style="font-size:3.17499995px;stroke-width:0.26458332"
         id="path885"
         inkscape:connector-curvature="0" />
      <path
         d="m 94.56215,97.906012 -0.123825,0.561975 H 94.15575 l 0.536575,-2.2225 h 0.365125 l 0.52705,2.2225 h -0.282575 l -0.12065,-0.561975 z m 0.568325,-0.238125 -0.26035,-1.21285 -0.257175,1.21285 z"
         style="font-size:3.17499995px;stroke-width:0.26458332"
         id="path887"
         inkscape:connector-curvature="0" />
      <path
         d="m 96.222874,97.547237 v 0.92075 h -0.276225 v -2.2225 h 0.5969 q 0.269875,0 0.4064,0.12065 0.1397,0.117475 0.1397,0.37465 v 0.3048 q 0,0.358775 -0.28575,0.447675 l 0.441325,0.974725 h -0.301625 l -0.409575,-0.92075 z m 0.59055,-0.835025 q 0,-0.12065 -0.05715,-0.174625 -0.05398,-0.05398 -0.174625,-0.05398 h -0.358775 v 0.8255 h 0.358775 q 0.12065,0 0.174625,-0.05397 0.05715,-0.05715 0.05715,-0.1778 z"
         style="font-size:3.17499995px;stroke-width:0.26458332"
         id="path889"
         inkscape:connector-curvature="0" />
      <path
         d="m 98.153472,98.467987 v -1.9812 h -0.504825 v -0.2413 h 1.285875 v 0.2413 h -0.504825 v 1.9812 z"
         style="font-size:3.17499995px;stroke-width:0.26458332"
         id="path891"
         inkscape:connector-curvature="0" />
      <path
         d="m 101.35744,97.547237 v 0.92075 h -0.27622 v -2.2225 h 0.5969 q 0.26987,0 0.4064,0.12065 0.1397,0.117475 0.1397,0.37465 v 0.3048 q 0,0.358775 -0.28575,0.447675 l 0.44132,0.974725 h -0.30162 l -0.40958,-0.92075 z m 0.59055,-0.835025 q 0,-0.12065 -0.0572,-0.174625 -0.054,-0.05398 -0.17462,-0.05398 h -0.35878 v 0.8255 h 0.35878 q 0.12065,0 0.17462,-0.05397 0.0572,-0.05715 0.0572,-0.1778 z"
         style="font-size:3.17499995px;stroke-width:0.26458332"
         id="path893"
         inkscape:connector-curvature="0" />
      <path
         d="m 103.95797,96.245487 v 0.231775 h -0.78423 v 0.727075 h 0.70485 v 0.231775 h -0.70485 v 0.8001 h 0.78423 v 0.231775 h -1.06045 v -2.2225 z"
         style="font-size:3.17499995px;stroke-width:0.26458332"
         id="path895"
         inkscape:connector-curvature="0" />
      <path
         d="m 105.19959,98.467987 q -0.27622,0 -0.42545,-0.13335 -0.14605,-0.136525 -0.14605,-0.4064 v -1.143 q 0,-0.269875 0.14605,-0.403225 0.14923,-0.136525 0.42545,-0.136525 h 0.45085 v 0.2413 h -0.4826 q -0.11747,0 -0.1905,0.06985 -0.073,0.06985 -0.073,0.168275 v 1.26365 q 0,0.09842 0.073,0.168275 0.073,0.06985 0.1905,0.06985 h 0.4826 v 0.2413 z"
         style="font-size:3.17499995px;stroke-width:0.26458332"
         id="path897"
         inkscape:connector-curvature="0" />
    </g>
    <g
       aria-label="SAMPLE"
       style="font-style:normal;font-variant:normal;font-weight:normal;font-stretch:normal;font-size:3.52777767px;line-height:1.25;font-family:'Share Tech Mono';-inkscape-font-specification:'Share Tech Mono';letter-spacing:0px;word-spacing:0px;fill:#000000;fill-opacity:1;stroke:none;stroke-width:0.26458332"
       id="text932">
      <path
         d="m 91.758144,123.75852 q 0,0.26988 -0.149225,0.4064 -0.14605,0.13335 -0.422275,0.13335 h -0.45085 v -0.2413 h 0.4826 q 0.117475,0 0.1905,-0.0699 0.07303,-0.0699 0.07303,-0.16827 v -0.3302 q 0,-0.0953 -0.0508,-0.1524 -0.04762,-0.0603 -0.14605,-0.0603 h -0.09525 q -0.23495,0 -0.371475,-0.13652 -0.136525,-0.1397 -0.136525,-0.40323 v -0.12065 q 0,-0.26987 0.14605,-0.40322 0.149225,-0.13653 0.42545,-0.13653 h 0.454025 v 0.2413 h -0.485775 q -0.117475,0 -0.1905,0.0699 -0.07303,0.0699 -0.07303,0.16828 v 0.2413 q 0,0.0984 0.0635,0.1651 0.0635,0.0635 0.1651,0.0635 h 0.09525 q 0.225425,0 0.34925,0.13017 0.127,0.13018 0.127,0.3937 z"
         style="font-size:3.17499995px;stroke-width:0.26458332"
         id="path934"
         inkscape:connector-curvature="0" />
      <path
         d="m 92.625117,123.7363 -0.123825,0.56197 h -0.282575 l 0.536575,-2.2225 h 0.365125 l 0.52705,2.2225 h -0.282575 l -0.12065,-0.56197 z m 0.568325,-0.23813 -0.26035,-1.21285 -0.257175,1.21285 z"
         style="font-size:3.17499995px;stroke-width:0.26458332"
         id="path936"
         inkscape:connector-curvature="0" />
      <path
         d="m 94.771616,123.55215 h -0.263525 l -0.31115,-1.24778 v 1.9939 h -0.2413 v -2.2225 h 0.441325 l 0.254,1.13665 0.257175,-1.13665 h 0.428625 v 2.2225 h -0.24765 v -1.9939 z"
         style="font-size:3.17499995px;stroke-width:0.26458332"
         id="path938"
         inkscape:connector-curvature="0" />
      <path
         d="m 96.930814,122.93302 q 0,0.25718 -0.136525,0.381 -0.136525,0.12065 -0.403225,0.12065 h -0.3302 v 0.8636 h -0.276225 v -2.2225 h 0.600075 q 0.269875,0 0.4064,0.12065 0.1397,0.11748 0.1397,0.37465 z m -0.276225,-0.39052 q 0,-0.12065 -0.05715,-0.17463 -0.05397,-0.054 -0.174625,-0.054 h -0.36195 v 0.88265 h 0.36195 q 0.12065,0 0.174625,-0.054 0.05715,-0.0572 0.05715,-0.1778 z"
         style="font-size:3.17499995px;stroke-width:0.26458332"
         id="path940"
         inkscape:connector-curvature="0" />
      <path
         d="m 97.851762,122.07577 v 1.9812 h 0.708025 v 0.2413 h -0.98425 v -2.2225 z"
         style="font-size:3.17499995px;stroke-width:0.26458332"
         id="path942"
         inkscape:connector-curvature="0" />
      <path
         d="m 100.30941,122.07577 v 0.23178 h -0.784224 v 0.72707 h 0.704854 v 0.23178 h -0.704854 v 0.8001 h 0.784224 v 0.23177 h -1.060449 v -2.2225 z"
         style="font-size:3.17499995px;stroke-width:0.26458332"
         id="path944"
         inkscape:connector-curvature="0" />
    </g>
    <g
       aria-label="THROUGH"
       style="font-style:normal;font-variant:normal;font-weight:normal;font-stretch:normal;font-size:3.52777767px;line-height:1.25;font-family:'Share Tech Mono';-inkscape-font-specification:'Share Tech Mono';letter-spacing:0px;word-spacing:0px;fill:#000000;fill-opacity:1;stroke:none;stroke-width:0.26458332"
       id="text949"
       transform="translate(2.9731904,-0.92469858)">
      <path
         d="m 78.632712,141.25867 v -2.20134 h -0.560917 v -0.26811 h 1.42875 v 0.26811 h -0.560917 v 2.20134 z"
         style="stroke-width:0.26458332"
         id="path979"
         inkscape:connector-curvature="0" />
      <path
         d="m 80.326265,140.12272 v 1.13595 h -0.306916 v -2.46945 h 0.306916 v 1.07245 h 0.726723 v -1.07245 h 0.306916 v 2.46945 h -0.306916 v -1.13595 z"
         style="stroke-width:0.26458332"
         id="path981"
         inkscape:connector-curvature="0" />
      <path
         d="m 82.19268,140.23561 v 1.02306 h -0.306916 v -2.46945 h 0.663222 q 0.299861,0 0.451555,0.13406 0.155223,0.13053 0.155223,0.41628 v 0.33866 q 0,0.39864 -0.3175,0.49742 l 0.490361,1.08303 h -0.335139 l -0.455083,-1.02306 z m 0.656167,-0.9278 q 0,-0.13406 -0.0635,-0.19403 -0.05997,-0.06 -0.194028,-0.06 H 82.19268 v 0.91722 h 0.398639 q 0.134056,0 0.194028,-0.06 0.0635,-0.0635 0.0635,-0.19756 z"
         style="stroke-width:0.26458332"
         id="path983"
         inkscape:connector-curvature="0" />
      <path
         d="m 85.198568,140.65894 q 0,0.29987 -0.165806,0.45156 -0.162278,0.14817 -0.469194,0.14817 h -0.141111 q -0.306917,0 -0.472723,-0.14817 -0.162277,-0.15169 -0.162277,-0.45156 v -1.27 q 0,-0.29986 0.162277,-0.44802 0.165806,-0.1517 0.472723,-0.1517 h 0.141111 q 0.306916,0 0.469194,0.1517 0.165806,0.14816 0.165806,0.44802 z m -0.306917,-1.33702 q 0,-0.10936 -0.08114,-0.18698 -0.08114,-0.0776 -0.211667,-0.0776 h -0.211666 q -0.130528,0 -0.211667,0.0776 -0.08114,0.0776 -0.08114,0.18698 v 1.40405 q 0,0.10936 0.08114,0.18697 0.08114,0.0776 0.211667,0.0776 h 0.211666 q 0.130528,0 0.211667,-0.0776 0.08114,-0.0776 0.08114,-0.18697 z"
         style="stroke-width:0.26458332"
         id="path985"
         inkscape:connector-curvature="0" />
      <path
         d="m 87.072038,140.65894 q 0,0.29987 -0.165806,0.45156 -0.162278,0.14817 -0.469194,0.14817 h -0.08819 q -0.306916,0 -0.472722,-0.14817 -0.162278,-0.15169 -0.162278,-0.45156 v -1.86972 h 0.306917 v 1.93675 q 0,0.10936 0.08114,0.18697 0.08114,0.0776 0.211667,0.0776 h 0.15875 q 0.130527,0 0.211666,-0.0776 0.08114,-0.0776 0.08114,-0.18697 v -1.93675 h 0.306917 z"
         style="stroke-width:0.26458332"
         id="path987"
         inkscape:connector-curvature="0" />
      <path
         d="m 88.310508,141.25867 q -0.306917,0 -0.472722,-0.14817 -0.162278,-0.15169 -0.162278,-0.45156 v -1.27 q 0,-0.29986 0.162278,-0.44802 0.165805,-0.1517 0.472722,-0.1517 h 0.497417 v 0.26811 H 88.27523 q -0.130528,0 -0.211666,0.0776 -0.08114,0.0776 -0.08114,0.18698 v 1.40405 q 0,0.10936 0.08114,0.18697 0.08114,0.0776 0.211666,0.0776 h 0.345722 V 140.225 h -0.306916 v -0.26459 h 0.599722 v 1.29823 z"
         style="stroke-width:0.26458332"
         id="path989"
         inkscape:connector-curvature="0" />
      <path
         d="m 89.834729,140.12272 v 1.13595 h -0.306917 v -2.46945 h 0.306917 v 1.07245 h 0.726722 v -1.07245 h 0.306917 v 2.46945 h -0.306917 v -1.13595 z"
         style="stroke-width:0.26458332"
         id="path991"
         inkscape:connector-curvature="0" />
    </g>
    <text
       xml:space="preserve"
       style="font-style:normal;font-variant:normal;font-weight:normal;font-stretch:normal;font-size:3.52777767px;line-height:1.25;font-family:'Share Tech Mono';-inkscape-font-specification:'Share Tech Mono';letter-spacing:0px;word-spacing:0px;fill:#000000;fill-opacity:1;stroke:none;stroke-width:0.26458332"
       x="81.564117"
       y="139.65506"
       id="text953"><tspan
         sodipodi:role="line"
         id="tspan951"
         x="81.564117"
         y="139.65506"
         style="stroke-width:0.26458332"> </tspan></text>
    <path
       inkscape:connector-curvature="0"
       id="path36629"
       d="m 69.657368,155.44762 c -0.93735,0 -1.70557,0.58092 -1.70557,1.2937 v 9.93261 c 0,0.71101 0.76822,1.29369 1.70557,1.29369 h 20.75117 c 0.93735,0 1.70557,-0.58269 1.70557,-1.29369 v -9.93261 c 0,-0.71278 -0.76823,-1.2937 -1.70557,-1.2937 z m 0,0"
       style="display:inline;fill:#000000;fill-opacity:1;fill-rule:nonzero;stroke:none;stroke-width:0.5237875" />
  </g>
</svg>
