<?xml version="1.0" encoding="UTF-8" standalone="no"?>
<!-- Created with Inkscape (http://www.inkscape.org/) -->

<svg
   width="71.120003mm"
   height="128.5mm"
   viewBox="0 0 71.120003 128.5"
   version="1.1"
   id="svg11003"
   inkscape:version="1.2.1 (9c6d41e410, 2022-07-14)"
   sodipodi:docname="inner_front_panel.svg"
   xmlns:inkscape="http://www.inkscape.org/namespaces/inkscape"
   xmlns:sodipodi="http://sodipodi.sourceforge.net/DTD/sodipodi-0.dtd"
   xmlns="http://www.w3.org/2000/svg"
   xmlns:svg="http://www.w3.org/2000/svg"
   xmlns:rdf="http://www.w3.org/1999/02/22-rdf-syntax-ns#"
   xmlns:cc="http://creativecommons.org/ns#"
   xmlns:dc="http://purl.org/dc/elements/1.1/">
  <defs
     id="defs10997">
    <rect
       x="13.571429"
       y="65.357143"
       width="183.57143"
       height="64.642857"
       id="rect949" />
    <rect
       x="13.571429"
       y="65.35714"
       width="183.57143"
       height="64.64286"
       id="rect949-1" />
    <rect
       x="13.571429"
       y="65.35714"
       width="183.57143"
       height="64.64286"
       id="rect949-7" />
    <rect
       x="13.571429"
       y="65.35714"
       width="183.57143"
       height="64.64286"
       id="rect949-7-3" />
    <rect
       x="13.571429"
       y="65.35714"
       width="183.57143"
       height="64.64286"
       id="rect949-7-3-9" />
    <rect
       x="13.571429"
       y="65.35714"
       width="183.57143"
       height="64.64286"
       id="rect949-7-3-9-8" />
    <rect
       x="13.571429"
       y="65.35714"
       width="183.57143"
       height="64.64286"
       id="rect949-7-2" />
    <rect
       x="13.571429"
       y="65.35714"
       width="183.57143"
       height="64.64286"
       id="rect949-7-2-3" />
    <rect
       x="13.571429"
       y="65.35714"
       width="183.57143"
       height="64.64286"
       id="rect949-7-2-3-0" />
    <rect
       x="13.571429"
       y="65.35714"
       width="183.57143"
       height="64.64286"
       id="rect949-7-2-3-0-5" />
  </defs>
  <sodipodi:namedview
     id="base"
     pagecolor="#ffffff"
     bordercolor="#666666"
     borderopacity="1.0"
     inkscape:pageopacity="0.0"
     inkscape:pageshadow="2"
     inkscape:zoom="3.959798"
     inkscape:cx="202.03051"
     inkscape:cy="147.48227"
     inkscape:document-units="mm"
     inkscape:current-layer="layer1"
     showgrid="false"
     fit-margin-top="0"
     fit-margin-left="0"
     fit-margin-right="0"
     fit-margin-bottom="0"
     inkscape:window-width="3840"
     inkscape:window-height="2066"
     inkscape:window-x="2869"
     inkscape:window-y="-11"
     inkscape:window-maximized="1"
     units="mm"
     showguides="true"
     inkscape:guide-bbox="true"
     showborder="true"
     inkscape:snap-nodes="false"
     inkscape:snap-others="false"
     inkscape:snap-global="false"
     inkscape:showpageshadow="2"
     inkscape:pagecheckerboard="0"
     inkscape:deskcolor="#d1d1d1">
    <sodipodi:guide
       position="14.94,143.61905"
       orientation="-1,0"
       id="guide1067"
       inkscape:locked="false"
       inkscape:label=""
       inkscape:color="rgb(0,134,229)" />
    <sodipodi:guide
       position="34.940001,159.58476"
       orientation="-1,0"
       id="guide1069"
       inkscape:locked="false"
       inkscape:label=""
       inkscape:color="rgb(0,134,229)" />
    <sodipodi:guide
       position="54.940001,114.83238"
       orientation="-1,0"
       id="guide1203"
       inkscape:locked="false"
       inkscape:label=""
       inkscape:color="rgb(0,134,229)" />
    <sodipodi:guide
       position="-51.486804,108.5"
       orientation="0,1"
       id="guide1313"
       inkscape:locked="false"
       inkscape:label=""
       inkscape:color="rgb(0,134,229)" />
    <sodipodi:guide
       position="-2.6513138,88.500001"
       orientation="0,1"
       id="guide1315"
       inkscape:locked="false"
       inkscape:label=""
       inkscape:color="rgb(0,134,229)" />
    <sodipodi:guide
       position="-8.0394677,68.500001"
       orientation="0,1"
       id="guide1317"
       inkscape:locked="false"
       inkscape:label=""
       inkscape:color="rgb(0,134,229)" />
    <sodipodi:guide
       position="93.25429,48.500001"
       orientation="0,1"
       id="guide1319"
       inkscape:locked="false"
       inkscape:label=""
       inkscape:color="rgb(0,134,229)" />
  </sodipodi:namedview>
  <metadata
     id="metadata11000">
    <rdf:RDF>
      <cc:Work
         rdf:about="">
        <dc:format>image/svg+xml</dc:format>
        <dc:type
           rdf:resource="http://purl.org/dc/dcmitype/StillImage" />
      </cc:Work>
    </rdf:RDF>
  </metadata>
  <g
     inkscape:label="Panel Layer"
     inkscape:groupmode="layer"
     id="layer1"
     transform="translate(-64.792954,-47.169623)"
     style="display:inline">
    <path
       inkscape:connector-curvature="0"
       id="path33429"
       d="M 64.792956,47.169629 H 135.91296 V 175.66963 H 64.792956 Z m 0,0"
       style="fill:#e6e6e6;fill-opacity:1;fill-rule:nonzero;stroke:none;stroke-width:0.46019" />
    <text
       xml:space="preserve"
       style="font-style:normal;font-weight:normal;font-size:4.58611px;line-height:1.25;font-family:sans-serif;letter-spacing:0px;word-spacing:0px;fill:#000000;fill-opacity:1;stroke:none;stroke-width:0.264583"
       x="75.943253"
       y="53.772301"
       id="text110" />
    <text
       xml:space="preserve"
       style="font-style:normal;font-variant:normal;font-weight:normal;font-stretch:normal;font-size:3.88056px;line-height:1.25;font-family:'Share Tech Mono';-inkscape-font-specification:'Share Tech Mono';letter-spacing:0px;word-spacing:0px;fill:#000000;fill-opacity:1;stroke:none;stroke-width:0.264583"
       x="110.48083"
       y="98.467987"
       id="text2911" />
    <text
       xml:space="preserve"
       style="font-style:normal;font-variant:normal;font-weight:normal;font-stretch:normal;font-size:3.88056px;line-height:1.25;font-family:'Share Tech Mono';-inkscape-font-specification:'Share Tech Mono';letter-spacing:0px;word-spacing:0px;fill:#000000;fill-opacity:1;stroke:none;stroke-width:0.264583"
       x="101.74013"
       y="99.554665"
       id="text2915" />
    <g
       aria-label="Pitch"
       transform="matrix(0.33866667,0,0,0.33866667,71.370668,36.669349)"
       id="text947"
       style="font-size:9.375px;line-height:1.25;font-family:Pilat;-inkscape-font-specification:Pilat;letter-spacing:0px;word-spacing:0px;white-space:pre;shape-inside:url(#rect949)">
      <path
         d="m 15.541016,71.479297 h 1.9125 c 1.603125,0 2.25,-0.665625 2.25,-2.090625 v -0.28125 c 0,-1.546875 -0.646875,-2.109375 -2.25,-2.109375 h -3.365625 v 6.5625 h 1.453125 z m 1.678125,-3.290625 c 0.7875,0 1.03125,0.2625 1.03125,1.003125 v 0.09375 c 0,0.721875 -0.225,1.003125 -1.021875,1.003125 h -1.6875 v -2.1 z"
         id="path1321" />
      <path
         d="m 20.247264,66.998047 v 1.021875 h 1.321875 v -1.021875 z m 0,1.59375 v 4.96875 h 1.321875 v -4.96875 z"
         id="path1323" />
      <path
         d="m 25.225393,72.491797 h -0.271875 c -0.61875,0 -0.778125,-0.13125 -0.778125,-0.80625 v -2.015625 h 1.05 v -1.078125 h -1.05 v -1.59375 h -1.321875 v 1.59375 h -0.834375 v 1.078125 h 0.834375 v 2.3625 c 0,1.06875 0.35625,1.528125 1.678125,1.528125 h 0.69375 z"
         id="path1325" />
      <path
         d="m 28.047257,73.654297 c 1.265625,0 1.96875,-0.6 2.165625,-1.725 h -1.3125 c -0.15,0.478125 -0.45,0.58125 -0.909375,0.58125 -0.6,0 -0.975,-0.271875 -0.975,-1.340625 v -0.1875 c 0,-1.06875 0.375,-1.340625 0.975,-1.340625 0.459375,0 0.759375,0.103125 0.909375,0.58125 h 1.3125 c -0.196875,-1.125 -0.9,-1.725 -2.165625,-1.725 h -0.09375 c -1.33125,0 -2.259375,0.646875 -2.259375,2.475 v 0.20625 c 0,1.828125 0.928125,2.475 2.259375,2.475 z"
         id="path1327" />
      <path
         d="m 35.303509,70.298047 c 0,-1.36875 -0.69375,-1.8 -1.771875,-1.8 -0.815625,0 -1.228125,0.31875 -1.415625,0.890625 h -0.05625 v -2.390625 h -1.321875 v 6.5625 h 1.321875 v -2.7375 c 0,-0.909375 0.328125,-1.171875 0.99375,-1.171875 0.3,0 0.525,0.06562 0.684375,0.1875 0.159375,0.121875 0.24375,0.39375 0.24375,0.815625 v 2.90625 h 1.321875 z"
         id="path1329" />
    </g>
    <g
       aria-label="Param1"
       transform="matrix(0.33866667,0,0,0.33866667,89.687549,36.669349)"
       id="text947-0"
       style="font-size:9.375px;line-height:1.25;font-family:Pilat;-inkscape-font-specification:Pilat;letter-spacing:0px;word-spacing:0px;white-space:pre;shape-inside:url(#rect949-7);display:inline">
      <path
         d="m 15.541016,71.479297 h 1.9125 c 1.603125,0 2.25,-0.665625 2.25,-2.090625 v -0.28125 c 0,-1.546875 -0.646875,-2.109375 -2.25,-2.109375 h -3.365625 v 6.5625 h 1.453125 z m 1.678125,-3.290625 c 0.7875,0 1.03125,0.2625 1.03125,1.003125 v 0.09375 c 0,0.721875 -0.225,1.003125 -1.021875,1.003125 h -1.6875 v -2.1 z"
         id="path1332" />
      <path
         d="m 24.616016,70.457422 c 0,-1.565625 -0.73125,-1.959375 -2.19375,-1.959375 h -0.075 c -1.321875,0 -1.978125,0.4875 -2.203125,1.5375 h 1.303125 c 0.1125,-0.403125 0.384375,-0.553125 0.91875,-0.553125 0.3,0 0.525,0.04687 0.684375,0.15 0.159375,0.103125 0.24375,0.328125 0.24375,0.69375 v 0.15 l -1.621875,0.08437 c -1.2,0.06562 -1.66875,0.571875 -1.66875,1.51875 v 0.04687 c 0,1.078125 0.703125,1.528125 1.7625,1.528125 0.909375,0 1.284375,-0.28125 1.5,-0.69375 h 0.04687 v 0.6 h 1.303125 z m -3.28125,1.575 c 0,-0.421875 0.196875,-0.590625 0.69375,-0.61875 l 1.265625,-0.06563 v 0.384375 c 0,0.628125 -0.309375,1.0125 -1.10625,1.0125 -0.496875,0 -0.853125,-0.196875 -0.853125,-0.65625 z"
         id="path1334" />
      <path
         d="m 28.094134,68.591797 c -0.825,0 -1.2375,0.225 -1.415625,0.778125 h -0.05625 v -0.778125 h -1.321875 v 4.96875 h 1.321875 v -2.55 c 0,-0.946875 0.375,-1.2 1.246875,-1.2 h 0.440625 v -1.21875 z"
         id="path1336" />
      <path
         d="m 33.072252,70.457422 c 0,-1.565625 -0.73125,-1.959375 -2.19375,-1.959375 h -0.075 c -1.321875,0 -1.978125,0.4875 -2.203125,1.5375 h 1.303125 c 0.1125,-0.403125 0.384375,-0.553125 0.91875,-0.553125 0.3,0 0.525,0.04687 0.684375,0.15 0.159375,0.103125 0.24375,0.328125 0.24375,0.69375 v 0.15 l -1.621875,0.08437 c -1.2,0.06562 -1.66875,0.571875 -1.66875,1.51875 v 0.04687 c 0,1.078125 0.703125,1.528125 1.7625,1.528125 0.909375,0 1.284375,-0.28125 1.5,-0.69375 h 0.04687 v 0.6 h 1.303125 z m -3.28125,1.575 c 0,-0.421875 0.196875,-0.590625 0.69375,-0.61875 l 1.265625,-0.06563 v 0.384375 c 0,0.628125 -0.309375,1.0125 -1.10625,1.0125 -0.496875,0 -0.853125,-0.196875 -0.853125,-0.65625 z"
         id="path1338" />
      <path
         d="m 41.35037,70.194922 c 0,-1.265625 -0.65625,-1.696875 -1.715625,-1.696875 -0.834375,0 -1.303125,0.3 -1.5,0.890625 h -0.0375 c -0.234375,-0.646875 -0.796875,-0.890625 -1.59375,-0.890625 -0.815625,0 -1.18125,0.31875 -1.36875,0.890625 h -0.05625 V 68.591797 H 33.75662 v 4.96875 h 1.321875 v -2.746875 c 0,-0.909375 0.309375,-1.1625 0.946875,-1.1625 0.5625,0 0.8625,0.159375 0.8625,1.003125 v 2.90625 h 1.33125 v -2.746875 c 0,-0.909375 0.3,-1.1625 0.9375,-1.1625 0.571875,0 0.871875,0.159375 0.871875,1.003125 v 2.90625 h 1.321875 z"
         id="path1340" />
      <path
         d="M 45.325365,66.998047 H 43.45974 l -1.425,0.84375 v 1.584375 l 1.8375,-1.246875 h 0.05625 v 5.38125 h 1.396875 z"
         id="path1342" />
    </g>
    <g
       aria-label="Param5"
       transform="matrix(0.33866667,0,0,0.33866667,109.40844,36.669349)"
       id="text947-0-5"
       style="font-size:9.375px;line-height:1.25;font-family:Pilat;-inkscape-font-specification:Pilat;letter-spacing:0px;word-spacing:0px;white-space:pre;shape-inside:url(#rect949-7-2);display:inline">
      <path
         d="m 15.541016,71.479297 h 1.9125 c 1.603125,0 2.25,-0.665625 2.25,-2.090625 v -0.28125 c 0,-1.546875 -0.646875,-2.109375 -2.25,-2.109375 h -3.365625 v 6.5625 h 1.453125 z m 1.678125,-3.290625 c 0.7875,0 1.03125,0.2625 1.03125,1.003125 v 0.09375 c 0,0.721875 -0.225,1.003125 -1.021875,1.003125 h -1.6875 v -2.1 z"
         id="path1345" />
      <path
         d="m 24.616016,70.457422 c 0,-1.565625 -0.73125,-1.959375 -2.19375,-1.959375 h -0.075 c -1.321875,0 -1.978125,0.4875 -2.203125,1.5375 h 1.303125 c 0.1125,-0.403125 0.384375,-0.553125 0.91875,-0.553125 0.3,0 0.525,0.04687 0.684375,0.15 0.159375,0.103125 0.24375,0.328125 0.24375,0.69375 v 0.15 l -1.621875,0.08437 c -1.2,0.06562 -1.66875,0.571875 -1.66875,1.51875 v 0.04687 c 0,1.078125 0.703125,1.528125 1.7625,1.528125 0.909375,0 1.284375,-0.28125 1.5,-0.69375 h 0.04687 v 0.6 h 1.303125 z m -3.28125,1.575 c 0,-0.421875 0.196875,-0.590625 0.69375,-0.61875 l 1.265625,-0.06563 v 0.384375 c 0,0.628125 -0.309375,1.0125 -1.10625,1.0125 -0.496875,0 -0.853125,-0.196875 -0.853125,-0.65625 z"
         id="path1347" />
      <path
         d="m 28.094134,68.591797 c -0.825,0 -1.2375,0.225 -1.415625,0.778125 h -0.05625 v -0.778125 h -1.321875 v 4.96875 h 1.321875 v -2.55 c 0,-0.946875 0.375,-1.2 1.246875,-1.2 h 0.440625 v -1.21875 z"
         id="path1349" />
      <path
         d="m 33.072252,70.457422 c 0,-1.565625 -0.73125,-1.959375 -2.19375,-1.959375 h -0.075 c -1.321875,0 -1.978125,0.4875 -2.203125,1.5375 h 1.303125 c 0.1125,-0.403125 0.384375,-0.553125 0.91875,-0.553125 0.3,0 0.525,0.04687 0.684375,0.15 0.159375,0.103125 0.24375,0.328125 0.24375,0.69375 v 0.15 l -1.621875,0.08437 c -1.2,0.06562 -1.66875,0.571875 -1.66875,1.51875 v 0.04687 c 0,1.078125 0.703125,1.528125 1.7625,1.528125 0.909375,0 1.284375,-0.28125 1.5,-0.69375 h 0.04687 v 0.6 h 1.303125 z m -3.28125,1.575 c 0,-0.421875 0.196875,-0.590625 0.69375,-0.61875 l 1.265625,-0.06563 v 0.384375 c 0,0.628125 -0.309375,1.0125 -1.10625,1.0125 -0.496875,0 -0.853125,-0.196875 -0.853125,-0.65625 z"
         id="path1351" />
      <path
         d="m 41.35037,70.194922 c 0,-1.265625 -0.65625,-1.696875 -1.715625,-1.696875 -0.834375,0 -1.303125,0.3 -1.5,0.890625 h -0.0375 c -0.234375,-0.646875 -0.796875,-0.890625 -1.59375,-0.890625 -0.815625,0 -1.18125,0.31875 -1.36875,0.890625 h -0.05625 V 68.591797 H 33.75662 v 4.96875 h 1.321875 v -2.746875 c 0,-0.909375 0.309375,-1.1625 0.946875,-1.1625 0.5625,0 0.8625,0.159375 0.8625,1.003125 v 2.90625 h 1.33125 v -2.746875 c 0,-0.909375 0.3,-1.1625 0.9375,-1.1625 0.571875,0 0.871875,0.159375 0.871875,1.003125 v 2.90625 h 1.321875 z"
         id="path1353" />
      <path
         d="m 44.80974,73.654297 c 1.5375,0 2.49375,-0.825 2.49375,-2.315625 v -0.075 c 0,-1.340625 -0.684375,-2.109375 -2.2125,-2.109375 -0.778125,0 -1.18125,0.159375 -1.453125,0.4875 h -0.06562 l 0.140625,-1.425 h 3.3375 v -1.21875 h -4.59375 l -0.3,3.834375 h 1.265625 c 0.196875,-0.403125 0.665625,-0.54375 1.2375,-0.54375 0.853125,0 1.246875,0.31875 1.246875,1.040625 v 0.075 c 0,0.703125 -0.39375,1.05 -1.171875,1.05 -0.646875,0 -1.125,-0.15 -1.265625,-0.721875 h -1.40625 c 0.15,1.378125 1.21875,1.921875 2.615625,1.921875 z"
         id="path1355" />
    </g>
    <g
       aria-label="Param6"
       transform="matrix(0.33866667,0,0,0.33866667,109.41638,56.432968)"
       id="text947-0-5-1"
       style="font-size:9.375px;line-height:1.25;font-family:Pilat;-inkscape-font-specification:Pilat;letter-spacing:0px;word-spacing:0px;white-space:pre;shape-inside:url(#rect949-7-2-3);display:inline">
      <path
         d="m 15.541016,71.479297 h 1.9125 c 1.603125,0 2.25,-0.665625 2.25,-2.090625 v -0.28125 c 0,-1.546875 -0.646875,-2.109375 -2.25,-2.109375 h -3.365625 v 6.5625 h 1.453125 z m 1.678125,-3.290625 c 0.7875,0 1.03125,0.2625 1.03125,1.003125 v 0.09375 c 0,0.721875 -0.225,1.003125 -1.021875,1.003125 h -1.6875 v -2.1 z"
         id="path1358" />
      <path
         d="m 24.616016,70.457422 c 0,-1.565625 -0.73125,-1.959375 -2.19375,-1.959375 h -0.075 c -1.321875,0 -1.978125,0.4875 -2.203125,1.5375 h 1.303125 c 0.1125,-0.403125 0.384375,-0.553125 0.91875,-0.553125 0.3,0 0.525,0.04687 0.684375,0.15 0.159375,0.103125 0.24375,0.328125 0.24375,0.69375 v 0.15 l -1.621875,0.08437 c -1.2,0.06562 -1.66875,0.571875 -1.66875,1.51875 v 0.04687 c 0,1.078125 0.703125,1.528125 1.7625,1.528125 0.909375,0 1.284375,-0.28125 1.5,-0.69375 h 0.04687 v 0.6 h 1.303125 z m -3.28125,1.575 c 0,-0.421875 0.196875,-0.590625 0.69375,-0.61875 l 1.265625,-0.06563 v 0.384375 c 0,0.628125 -0.309375,1.0125 -1.10625,1.0125 -0.496875,0 -0.853125,-0.196875 -0.853125,-0.65625 z"
         id="path1360" />
      <path
         d="m 28.094134,68.591797 c -0.825,0 -1.2375,0.225 -1.415625,0.778125 h -0.05625 v -0.778125 h -1.321875 v 4.96875 h 1.321875 v -2.55 c 0,-0.946875 0.375,-1.2 1.246875,-1.2 h 0.440625 v -1.21875 z"
         id="path1362" />
      <path
         d="m 33.072252,70.457422 c 0,-1.565625 -0.73125,-1.959375 -2.19375,-1.959375 h -0.075 c -1.321875,0 -1.978125,0.4875 -2.203125,1.5375 h 1.303125 c 0.1125,-0.403125 0.384375,-0.553125 0.91875,-0.553125 0.3,0 0.525,0.04687 0.684375,0.15 0.159375,0.103125 0.24375,0.328125 0.24375,0.69375 v 0.15 l -1.621875,0.08437 c -1.2,0.06562 -1.66875,0.571875 -1.66875,1.51875 v 0.04687 c 0,1.078125 0.703125,1.528125 1.7625,1.528125 0.909375,0 1.284375,-0.28125 1.5,-0.69375 h 0.04687 v 0.6 h 1.303125 z m -3.28125,1.575 c 0,-0.421875 0.196875,-0.590625 0.69375,-0.61875 l 1.265625,-0.06563 v 0.384375 c 0,0.628125 -0.309375,1.0125 -1.10625,1.0125 -0.496875,0 -0.853125,-0.196875 -0.853125,-0.65625 z"
         id="path1364" />
      <path
         d="m 41.35037,70.194922 c 0,-1.265625 -0.65625,-1.696875 -1.715625,-1.696875 -0.834375,0 -1.303125,0.3 -1.5,0.890625 h -0.0375 c -0.234375,-0.646875 -0.796875,-0.890625 -1.59375,-0.890625 -0.815625,0 -1.18125,0.31875 -1.36875,0.890625 h -0.05625 V 68.591797 H 33.75662 v 4.96875 h 1.321875 v -2.746875 c 0,-0.909375 0.309375,-1.1625 0.946875,-1.1625 0.5625,0 0.8625,0.159375 0.8625,1.003125 v 2.90625 h 1.33125 v -2.746875 c 0,-0.909375 0.3,-1.1625 0.9375,-1.1625 0.571875,0 0.871875,0.159375 0.871875,1.003125 v 2.90625 h 1.321875 z"
         id="path1366" />
      <path
         d="m 44.800365,73.654297 c 1.509375,0 2.45625,-0.7875 2.45625,-2.221875 v -0.06562 c 0,-1.303125 -0.6375,-2.034375 -2.2125,-2.034375 -0.890625,0 -1.3125,0.234375 -1.528125,0.6375 h -0.05625 v -0.253125 c 0,-1.321875 0.403125,-1.621875 1.246875,-1.621875 0.609375,0 0.95625,0.16875 1.134375,0.590625 h 1.396875 c -0.2625,-1.190625 -1.096875,-1.78125 -2.49375,-1.78125 h -0.075 c -1.565625,0 -2.615625,0.515625 -2.615625,3.15 v 0.45 c 0,2.634375 1.0875,3.15 2.6625,3.15 z m -0.13125,-1.171875 c -0.871875,0 -1.190625,-0.35625 -1.190625,-1.003125 v -0.08438 c 0,-0.665625 0.31875,-1.003125 1.190625,-1.003125 0.890625,0 1.190625,0.3375 1.190625,1.003125 v 0.08438 c 0,0.646875 -0.31875,1.003125 -1.190625,1.003125 z"
         id="path1368" />
    </g>
    <g
       aria-label="Param7"
       transform="matrix(0.33866667,0,0,0.33866667,109.39574,76.60616)"
       id="text947-0-5-1-2"
       style="font-size:9.375px;line-height:1.25;font-family:Pilat;-inkscape-font-specification:Pilat;letter-spacing:0px;word-spacing:0px;white-space:pre;shape-inside:url(#rect949-7-2-3-0);display:inline">
      <path
         d="m 15.541016,71.479297 h 1.9125 c 1.603125,0 2.25,-0.665625 2.25,-2.090625 v -0.28125 c 0,-1.546875 -0.646875,-2.109375 -2.25,-2.109375 h -3.365625 v 6.5625 h 1.453125 z m 1.678125,-3.290625 c 0.7875,0 1.03125,0.2625 1.03125,1.003125 v 0.09375 c 0,0.721875 -0.225,1.003125 -1.021875,1.003125 h -1.6875 v -2.1 z"
         id="path1371" />
      <path
         d="m 24.616016,70.457422 c 0,-1.565625 -0.73125,-1.959375 -2.19375,-1.959375 h -0.075 c -1.321875,0 -1.978125,0.4875 -2.203125,1.5375 h 1.303125 c 0.1125,-0.403125 0.384375,-0.553125 0.91875,-0.553125 0.3,0 0.525,0.04687 0.684375,0.15 0.159375,0.103125 0.24375,0.328125 0.24375,0.69375 v 0.15 l -1.621875,0.08437 c -1.2,0.06562 -1.66875,0.571875 -1.66875,1.51875 v 0.04687 c 0,1.078125 0.703125,1.528125 1.7625,1.528125 0.909375,0 1.284375,-0.28125 1.5,-0.69375 h 0.04687 v 0.6 h 1.303125 z m -3.28125,1.575 c 0,-0.421875 0.196875,-0.590625 0.69375,-0.61875 l 1.265625,-0.06563 v 0.384375 c 0,0.628125 -0.309375,1.0125 -1.10625,1.0125 -0.496875,0 -0.853125,-0.196875 -0.853125,-0.65625 z"
         id="path1373" />
      <path
         d="m 28.094134,68.591797 c -0.825,0 -1.2375,0.225 -1.415625,0.778125 h -0.05625 v -0.778125 h -1.321875 v 4.96875 h 1.321875 v -2.55 c 0,-0.946875 0.375,-1.2 1.246875,-1.2 h 0.440625 v -1.21875 z"
         id="path1375" />
      <path
         d="m 33.072252,70.457422 c 0,-1.565625 -0.73125,-1.959375 -2.19375,-1.959375 h -0.075 c -1.321875,0 -1.978125,0.4875 -2.203125,1.5375 h 1.303125 c 0.1125,-0.403125 0.384375,-0.553125 0.91875,-0.553125 0.3,0 0.525,0.04687 0.684375,0.15 0.159375,0.103125 0.24375,0.328125 0.24375,0.69375 v 0.15 l -1.621875,0.08437 c -1.2,0.06562 -1.66875,0.571875 -1.66875,1.51875 v 0.04687 c 0,1.078125 0.703125,1.528125 1.7625,1.528125 0.909375,0 1.284375,-0.28125 1.5,-0.69375 h 0.04687 v 0.6 h 1.303125 z m -3.28125,1.575 c 0,-0.421875 0.196875,-0.590625 0.69375,-0.61875 l 1.265625,-0.06563 v 0.384375 c 0,0.628125 -0.309375,1.0125 -1.10625,1.0125 -0.496875,0 -0.853125,-0.196875 -0.853125,-0.65625 z"
         id="path1377" />
      <path
         d="m 41.35037,70.194922 c 0,-1.265625 -0.65625,-1.696875 -1.715625,-1.696875 -0.834375,0 -1.303125,0.3 -1.5,0.890625 h -0.0375 c -0.234375,-0.646875 -0.796875,-0.890625 -1.59375,-0.890625 -0.815625,0 -1.18125,0.31875 -1.36875,0.890625 h -0.05625 V 68.591797 H 33.75662 v 4.96875 h 1.321875 v -2.746875 c 0,-0.909375 0.309375,-1.1625 0.946875,-1.1625 0.5625,0 0.8625,0.159375 0.8625,1.003125 v 2.90625 h 1.33125 v -2.746875 c 0,-0.909375 0.3,-1.1625 0.9375,-1.1625 0.571875,0 0.871875,0.159375 0.871875,1.003125 v 2.90625 h 1.321875 z"
         id="path1379" />
      <path
         d="m 47.37849,68.235547 v -1.2375 h -5.428125 v 1.21875 h 3.84375 v 0.06562 l -3.159375,5.278125 h 1.70625 z"
         id="path1381" />
    </g>
    <g
       aria-label="Param8"
       transform="matrix(0.33866667,0,0,0.33866667,109.41797,96.717677)"
       id="text947-0-5-1-2-5"
       style="font-size:9.375px;line-height:1.25;font-family:Pilat;-inkscape-font-specification:Pilat;letter-spacing:0px;word-spacing:0px;white-space:pre;shape-inside:url(#rect949-7-2-3-0-5);display:inline">
      <path
         d="m 15.541016,71.479297 h 1.9125 c 1.603125,0 2.25,-0.665625 2.25,-2.090625 v -0.28125 c 0,-1.546875 -0.646875,-2.109375 -2.25,-2.109375 h -3.365625 v 6.5625 h 1.453125 z m 1.678125,-3.290625 c 0.7875,0 1.03125,0.2625 1.03125,1.003125 v 0.09375 c 0,0.721875 -0.225,1.003125 -1.021875,1.003125 h -1.6875 v -2.1 z"
         id="path1384" />
      <path
         d="m 24.616016,70.457422 c 0,-1.565625 -0.73125,-1.959375 -2.19375,-1.959375 h -0.075 c -1.321875,0 -1.978125,0.4875 -2.203125,1.5375 h 1.303125 c 0.1125,-0.403125 0.384375,-0.553125 0.91875,-0.553125 0.3,0 0.525,0.04687 0.684375,0.15 0.159375,0.103125 0.24375,0.328125 0.24375,0.69375 v 0.15 l -1.621875,0.08437 c -1.2,0.06562 -1.66875,0.571875 -1.66875,1.51875 v 0.04687 c 0,1.078125 0.703125,1.528125 1.7625,1.528125 0.909375,0 1.284375,-0.28125 1.5,-0.69375 h 0.04687 v 0.6 h 1.303125 z m -3.28125,1.575 c 0,-0.421875 0.196875,-0.590625 0.69375,-0.61875 l 1.265625,-0.06563 v 0.384375 c 0,0.628125 -0.309375,1.0125 -1.10625,1.0125 -0.496875,0 -0.853125,-0.196875 -0.853125,-0.65625 z"
         id="path1386" />
      <path
         d="m 28.094134,68.591797 c -0.825,0 -1.2375,0.225 -1.415625,0.778125 h -0.05625 v -0.778125 h -1.321875 v 4.96875 h 1.321875 v -2.55 c 0,-0.946875 0.375,-1.2 1.246875,-1.2 h 0.440625 v -1.21875 z"
         id="path1388" />
      <path
         d="m 33.072252,70.457422 c 0,-1.565625 -0.73125,-1.959375 -2.19375,-1.959375 h -0.075 c -1.321875,0 -1.978125,0.4875 -2.203125,1.5375 h 1.303125 c 0.1125,-0.403125 0.384375,-0.553125 0.91875,-0.553125 0.3,0 0.525,0.04687 0.684375,0.15 0.159375,0.103125 0.24375,0.328125 0.24375,0.69375 v 0.15 l -1.621875,0.08437 c -1.2,0.06562 -1.66875,0.571875 -1.66875,1.51875 v 0.04687 c 0,1.078125 0.703125,1.528125 1.7625,1.528125 0.909375,0 1.284375,-0.28125 1.5,-0.69375 h 0.04687 v 0.6 h 1.303125 z m -3.28125,1.575 c 0,-0.421875 0.196875,-0.590625 0.69375,-0.61875 l 1.265625,-0.06563 v 0.384375 c 0,0.628125 -0.309375,1.0125 -1.10625,1.0125 -0.496875,0 -0.853125,-0.196875 -0.853125,-0.65625 z"
         id="path1390" />
      <path
         d="m 41.35037,70.194922 c 0,-1.265625 -0.65625,-1.696875 -1.715625,-1.696875 -0.834375,0 -1.303125,0.3 -1.5,0.890625 h -0.0375 c -0.234375,-0.646875 -0.796875,-0.890625 -1.59375,-0.890625 -0.815625,0 -1.18125,0.31875 -1.36875,0.890625 h -0.05625 V 68.591797 H 33.75662 v 4.96875 h 1.321875 v -2.746875 c 0,-0.909375 0.309375,-1.1625 0.946875,-1.1625 0.5625,0 0.8625,0.159375 0.8625,1.003125 v 2.90625 h 1.33125 v -2.746875 c 0,-0.909375 0.3,-1.1625 0.9375,-1.1625 0.571875,0 0.871875,0.159375 0.871875,1.003125 v 2.90625 h 1.321875 z"
         id="path1392" />
      <path
         d="m 44.687865,73.654297 c 1.546875,0 2.559375,-0.6 2.559375,-2.025 v -0.06562 c 0,-0.834375 -0.31875,-1.33125 -0.965625,-1.490625 v -0.075 c 0.590625,-0.140625 0.88125,-0.609375 0.88125,-1.284375 v -0.04687 c 0,-0.515625 -0.196875,-0.9375 -0.6,-1.265625 -0.39375,-0.328125 -1.021875,-0.496875 -1.884375,-0.496875 h -0.05625 c -0.8625,0 -1.490625,0.16875 -1.884375,0.496875 -0.39375,0.328125 -0.590625,0.75 -0.590625,1.265625 v 0.04687 c 0,0.675 0.28125,1.14375 0.871875,1.284375 v 0.075 c -0.6375,0.159375 -0.95625,0.65625 -0.965625,1.490625 v 0.06562 c 0,1.425 1.021875,2.025 2.559375,2.025 z m -0.24375,-4.05 c -0.571875,0 -0.890625,-0.20625 -0.890625,-0.703125 v -0.05625 c 0,-0.590625 0.375,-0.759375 1.096875,-0.759375 0.721875,0 1.10625,0.16875 1.10625,0.759375 v 0.05625 c 0,0.496875 -0.309375,0.703125 -0.9,0.703125 z m 0.20625,2.878125 c -0.815625,0 -1.2,-0.196875 -1.2,-0.9 v -0.075 c 0,-0.590625 0.309375,-0.871875 0.99375,-0.871875 h 0.421875 c 0.703125,0 0.99375,0.28125 0.99375,0.871875 v 0.075 c 0,0.703125 -0.39375,0.9 -1.209375,0.9 z"
         id="path1394" />
    </g>
    <g
       aria-label="Param2"
       transform="matrix(0.33866667,0,0,0.33866667,89.358936,56.432968)"
       id="text947-0-8"
       style="font-size:9.375px;line-height:1.25;font-family:Pilat;-inkscape-font-specification:Pilat;letter-spacing:0px;word-spacing:0px;white-space:pre;shape-inside:url(#rect949-7-3);display:inline">
      <path
         d="m 15.541016,71.479297 h 1.9125 c 1.603125,0 2.25,-0.665625 2.25,-2.090625 v -0.28125 c 0,-1.546875 -0.646875,-2.109375 -2.25,-2.109375 h -3.365625 v 6.5625 h 1.453125 z m 1.678125,-3.290625 c 0.7875,0 1.03125,0.2625 1.03125,1.003125 v 0.09375 c 0,0.721875 -0.225,1.003125 -1.021875,1.003125 h -1.6875 v -2.1 z"
         id="path1397" />
      <path
         d="m 24.616016,70.457422 c 0,-1.565625 -0.73125,-1.959375 -2.19375,-1.959375 h -0.075 c -1.321875,0 -1.978125,0.4875 -2.203125,1.5375 h 1.303125 c 0.1125,-0.403125 0.384375,-0.553125 0.91875,-0.553125 0.3,0 0.525,0.04687 0.684375,0.15 0.159375,0.103125 0.24375,0.328125 0.24375,0.69375 v 0.15 l -1.621875,0.08437 c -1.2,0.06562 -1.66875,0.571875 -1.66875,1.51875 v 0.04687 c 0,1.078125 0.703125,1.528125 1.7625,1.528125 0.909375,0 1.284375,-0.28125 1.5,-0.69375 h 0.04687 v 0.6 h 1.303125 z m -3.28125,1.575 c 0,-0.421875 0.196875,-0.590625 0.69375,-0.61875 l 1.265625,-0.06563 v 0.384375 c 0,0.628125 -0.309375,1.0125 -1.10625,1.0125 -0.496875,0 -0.853125,-0.196875 -0.853125,-0.65625 z"
         id="path1399" />
      <path
         d="m 28.094134,68.591797 c -0.825,0 -1.2375,0.225 -1.415625,0.778125 h -0.05625 v -0.778125 h -1.321875 v 4.96875 h 1.321875 v -2.55 c 0,-0.946875 0.375,-1.2 1.246875,-1.2 h 0.440625 v -1.21875 z"
         id="path1401" />
      <path
         d="m 33.072252,70.457422 c 0,-1.565625 -0.73125,-1.959375 -2.19375,-1.959375 h -0.075 c -1.321875,0 -1.978125,0.4875 -2.203125,1.5375 h 1.303125 c 0.1125,-0.403125 0.384375,-0.553125 0.91875,-0.553125 0.3,0 0.525,0.04687 0.684375,0.15 0.159375,0.103125 0.24375,0.328125 0.24375,0.69375 v 0.15 l -1.621875,0.08437 c -1.2,0.06562 -1.66875,0.571875 -1.66875,1.51875 v 0.04687 c 0,1.078125 0.703125,1.528125 1.7625,1.528125 0.909375,0 1.284375,-0.28125 1.5,-0.69375 h 0.04687 v 0.6 h 1.303125 z m -3.28125,1.575 c 0,-0.421875 0.196875,-0.590625 0.69375,-0.61875 l 1.265625,-0.06563 v 0.384375 c 0,0.628125 -0.309375,1.0125 -1.10625,1.0125 -0.496875,0 -0.853125,-0.196875 -0.853125,-0.65625 z"
         id="path1403" />
      <path
         d="m 41.35037,70.194922 c 0,-1.265625 -0.65625,-1.696875 -1.715625,-1.696875 -0.834375,0 -1.303125,0.3 -1.5,0.890625 h -0.0375 c -0.234375,-0.646875 -0.796875,-0.890625 -1.59375,-0.890625 -0.815625,0 -1.18125,0.31875 -1.36875,0.890625 h -0.05625 V 68.591797 H 33.75662 v 4.96875 h 1.321875 v -2.746875 c 0,-0.909375 0.309375,-1.1625 0.946875,-1.1625 0.5625,0 0.8625,0.159375 0.8625,1.003125 v 2.90625 h 1.33125 v -2.746875 c 0,-0.909375 0.3,-1.1625 0.9375,-1.1625 0.571875,0 0.871875,0.159375 0.871875,1.003125 v 2.90625 h 1.321875 z"
         id="path1405" />
      <path
         d="m 47.26599,72.341797 h -3.815625 v -0.13125 c 0,-0.721875 0.178125,-0.890625 0.909375,-1.059375 l 1.265625,-0.290625 c 0.628125,-0.140625 1.05,-0.365625 1.284375,-0.69375 0.234375,-0.328125 0.346875,-0.75 0.346875,-1.284375 v -0.075 c 0,-1.2375 -0.834375,-1.903125 -2.49375,-1.903125 H 44.64099 c -1.303125,0 -2.325,0.4875 -2.5125,1.95 h 1.396875 c 0.08438,-0.553125 0.515625,-0.75 1.228125,-0.75 0.740625,0 1.10625,0.253125 1.10625,0.76875 v 0.04687 c 0,0.478125 -0.16875,0.684375 -0.778125,0.825 l -1.14375,0.2625 c -1.51875,0.35625 -1.884375,0.909375 -1.884375,2.446875 v 1.10625 h 5.2125 z"
         id="path1407" />
    </g>
    <g
       aria-label="Param3"
       transform="matrix(0.33866667,0,0,0.33866667,89.352586,76.622035)"
       id="text947-0-8-3"
       style="font-size:9.375px;line-height:1.25;font-family:Pilat;-inkscape-font-specification:Pilat;letter-spacing:0px;word-spacing:0px;white-space:pre;shape-inside:url(#rect949-7-3-9);display:inline">
      <path
         d="m 15.541016,71.479297 h 1.9125 c 1.603125,0 2.25,-0.665625 2.25,-2.090625 v -0.28125 c 0,-1.546875 -0.646875,-2.109375 -2.25,-2.109375 h -3.365625 v 6.5625 h 1.453125 z m 1.678125,-3.290625 c 0.7875,0 1.03125,0.2625 1.03125,1.003125 v 0.09375 c 0,0.721875 -0.225,1.003125 -1.021875,1.003125 h -1.6875 v -2.1 z"
         id="path1410" />
      <path
         d="m 24.616016,70.457422 c 0,-1.565625 -0.73125,-1.959375 -2.19375,-1.959375 h -0.075 c -1.321875,0 -1.978125,0.4875 -2.203125,1.5375 h 1.303125 c 0.1125,-0.403125 0.384375,-0.553125 0.91875,-0.553125 0.3,0 0.525,0.04687 0.684375,0.15 0.159375,0.103125 0.24375,0.328125 0.24375,0.69375 v 0.15 l -1.621875,0.08437 c -1.2,0.06562 -1.66875,0.571875 -1.66875,1.51875 v 0.04687 c 0,1.078125 0.703125,1.528125 1.7625,1.528125 0.909375,0 1.284375,-0.28125 1.5,-0.69375 h 0.04687 v 0.6 h 1.303125 z m -3.28125,1.575 c 0,-0.421875 0.196875,-0.590625 0.69375,-0.61875 l 1.265625,-0.06563 v 0.384375 c 0,0.628125 -0.309375,1.0125 -1.10625,1.0125 -0.496875,0 -0.853125,-0.196875 -0.853125,-0.65625 z"
         id="path1412" />
      <path
         d="m 28.094134,68.591797 c -0.825,0 -1.2375,0.225 -1.415625,0.778125 h -0.05625 v -0.778125 h -1.321875 v 4.96875 h 1.321875 v -2.55 c 0,-0.946875 0.375,-1.2 1.246875,-1.2 h 0.440625 v -1.21875 z"
         id="path1414" />
      <path
         d="m 33.072252,70.457422 c 0,-1.565625 -0.73125,-1.959375 -2.19375,-1.959375 h -0.075 c -1.321875,0 -1.978125,0.4875 -2.203125,1.5375 h 1.303125 c 0.1125,-0.403125 0.384375,-0.553125 0.91875,-0.553125 0.3,0 0.525,0.04687 0.684375,0.15 0.159375,0.103125 0.24375,0.328125 0.24375,0.69375 v 0.15 l -1.621875,0.08437 c -1.2,0.06562 -1.66875,0.571875 -1.66875,1.51875 v 0.04687 c 0,1.078125 0.703125,1.528125 1.7625,1.528125 0.909375,0 1.284375,-0.28125 1.5,-0.69375 h 0.04687 v 0.6 h 1.303125 z m -3.28125,1.575 c 0,-0.421875 0.196875,-0.590625 0.69375,-0.61875 l 1.265625,-0.06563 v 0.384375 c 0,0.628125 -0.309375,1.0125 -1.10625,1.0125 -0.496875,0 -0.853125,-0.196875 -0.853125,-0.65625 z"
         id="path1416" />
      <path
         d="m 41.35037,70.194922 c 0,-1.265625 -0.65625,-1.696875 -1.715625,-1.696875 -0.834375,0 -1.303125,0.3 -1.5,0.890625 h -0.0375 c -0.234375,-0.646875 -0.796875,-0.890625 -1.59375,-0.890625 -0.815625,0 -1.18125,0.31875 -1.36875,0.890625 h -0.05625 V 68.591797 H 33.75662 v 4.96875 h 1.321875 v -2.746875 c 0,-0.909375 0.309375,-1.1625 0.946875,-1.1625 0.5625,0 0.8625,0.159375 0.8625,1.003125 v 2.90625 h 1.33125 v -2.746875 c 0,-0.909375 0.3,-1.1625 0.9375,-1.1625 0.571875,0 0.871875,0.159375 0.871875,1.003125 v 2.90625 h 1.321875 z"
         id="path1418" />
      <path
         d="m 44.80974,73.654297 c 1.603125,0 2.49375,-0.7125 2.49375,-2.0625 v -0.06562 c 0,-0.909375 -0.4125,-1.36875 -1.078125,-1.51875 v -0.05625 c 0.6375,-0.15 0.95625,-0.571875 0.95625,-1.35 v -0.05625 c 0,-1.040625 -0.9375,-1.640625 -2.409375,-1.640625 h -0.103125 c -1.29375,0 -2.259375,0.515625 -2.484375,1.921875 h 1.396875 c 0.1125,-0.590625 0.6,-0.721875 1.134375,-0.721875 0.665625,0 1.06875,0.196875 1.06875,0.75 v 0.05625 c 0,0.45 -0.2625,0.675 -0.946875,0.675 H 43.79724 v 1.21875 h 1.10625 c 0.778125,0 1.003125,0.20625 1.003125,0.740625 v 0.06562 c 0,0.5625 -0.384375,0.84375 -1.1625,0.84375 -0.628125,0 -1.18125,-0.15 -1.29375,-0.815625 h -1.40625 c 0.15,1.48125 1.33125,2.015625 2.625,2.015625 z"
         id="path1420" />
    </g>
    <g
       aria-label="Param4"
       transform="matrix(0.33866667,0,0,0.33866667,89.314486,96.701807)"
       id="text947-0-8-3-6"
       style="font-size:9.375px;line-height:1.25;font-family:Pilat;-inkscape-font-specification:Pilat;letter-spacing:0px;word-spacing:0px;white-space:pre;shape-inside:url(#rect949-7-3-9-8);display:inline">
      <path
         d="m 15.541016,71.479297 h 1.9125 c 1.603125,0 2.25,-0.665625 2.25,-2.090625 v -0.28125 c 0,-1.546875 -0.646875,-2.109375 -2.25,-2.109375 h -3.365625 v 6.5625 h 1.453125 z m 1.678125,-3.290625 c 0.7875,0 1.03125,0.2625 1.03125,1.003125 v 0.09375 c 0,0.721875 -0.225,1.003125 -1.021875,1.003125 h -1.6875 v -2.1 z"
         id="path1423" />
      <path
         d="m 24.616016,70.457422 c 0,-1.565625 -0.73125,-1.959375 -2.19375,-1.959375 h -0.075 c -1.321875,0 -1.978125,0.4875 -2.203125,1.5375 h 1.303125 c 0.1125,-0.403125 0.384375,-0.553125 0.91875,-0.553125 0.3,0 0.525,0.04687 0.684375,0.15 0.159375,0.103125 0.24375,0.328125 0.24375,0.69375 v 0.15 l -1.621875,0.08437 c -1.2,0.06562 -1.66875,0.571875 -1.66875,1.51875 v 0.04687 c 0,1.078125 0.703125,1.528125 1.7625,1.528125 0.909375,0 1.284375,-0.28125 1.5,-0.69375 h 0.04687 v 0.6 h 1.303125 z m -3.28125,1.575 c 0,-0.421875 0.196875,-0.590625 0.69375,-0.61875 l 1.265625,-0.06563 v 0.384375 c 0,0.628125 -0.309375,1.0125 -1.10625,1.0125 -0.496875,0 -0.853125,-0.196875 -0.853125,-0.65625 z"
         id="path1425" />
      <path
         d="m 28.094134,68.591797 c -0.825,0 -1.2375,0.225 -1.415625,0.778125 h -0.05625 v -0.778125 h -1.321875 v 4.96875 h 1.321875 v -2.55 c 0,-0.946875 0.375,-1.2 1.246875,-1.2 h 0.440625 v -1.21875 z"
         id="path1427" />
      <path
         d="m 33.072252,70.457422 c 0,-1.565625 -0.73125,-1.959375 -2.19375,-1.959375 h -0.075 c -1.321875,0 -1.978125,0.4875 -2.203125,1.5375 h 1.303125 c 0.1125,-0.403125 0.384375,-0.553125 0.91875,-0.553125 0.3,0 0.525,0.04687 0.684375,0.15 0.159375,0.103125 0.24375,0.328125 0.24375,0.69375 v 0.15 l -1.621875,0.08437 c -1.2,0.06562 -1.66875,0.571875 -1.66875,1.51875 v 0.04687 c 0,1.078125 0.703125,1.528125 1.7625,1.528125 0.909375,0 1.284375,-0.28125 1.5,-0.69375 h 0.04687 v 0.6 h 1.303125 z m -3.28125,1.575 c 0,-0.421875 0.196875,-0.590625 0.69375,-0.61875 l 1.265625,-0.06563 v 0.384375 c 0,0.628125 -0.309375,1.0125 -1.10625,1.0125 -0.496875,0 -0.853125,-0.196875 -0.853125,-0.65625 z"
         id="path1429" />
      <path
         d="m 41.35037,70.194922 c 0,-1.265625 -0.65625,-1.696875 -1.715625,-1.696875 -0.834375,0 -1.303125,0.3 -1.5,0.890625 h -0.0375 c -0.234375,-0.646875 -0.796875,-0.890625 -1.59375,-0.890625 -0.815625,0 -1.18125,0.31875 -1.36875,0.890625 h -0.05625 V 68.591797 H 33.75662 v 4.96875 h 1.321875 v -2.746875 c 0,-0.909375 0.309375,-1.1625 0.946875,-1.1625 0.5625,0 0.8625,0.159375 0.8625,1.003125 v 2.90625 h 1.33125 v -2.746875 c 0,-0.909375 0.3,-1.1625 0.9375,-1.1625 0.571875,0 0.871875,0.159375 0.871875,1.003125 v 2.90625 h 1.321875 z"
         id="path1431" />
      <path
         d="m 46.68474,72.004297 h 0.84375 v -1.14375 h -0.84375 v -3.8625 h -1.978125 l -2.7,3.09375 v 1.9125 h 3.290625 v 1.55625 h 1.3875 z m -3.7125,-1.21875 2.26875,-2.596875 h 0.05625 v 2.671875 h -2.325 z"
         id="path1433" />
    </g>
    <g
       aria-label="Gate"
       transform="matrix(0.33866667,0,0,0.33866667,71.578631,56.432968)"
       id="text947-9"
       style="font-size:9.375px;line-height:1.25;font-family:Pilat;-inkscape-font-specification:Pilat;letter-spacing:0px;word-spacing:0px;white-space:pre;shape-inside:url(#rect949-1);display:inline">
      <path
         d="m 17.162891,73.654297 c 2.109375,0 3.028125,-0.91875 3.028125,-3.084375 v -0.853125 h -3.28125 v 1.209375 h 1.81875 c 0,1.05 -0.31875,1.471875 -1.5,1.471875 h -0.20625 c -1.303125,0 -1.575,-0.703125 -1.575,-1.903125 v -0.4125 c 0,-1.190625 0.271875,-1.9125 1.575,-1.9125 h 0.159375 c 0.7875,0 1.25625,0.225 1.415625,0.740625 h 1.528125 c -0.290625,-1.415625 -1.275,-2.00625 -2.9625,-2.00625 h -0.121875 c -2.128125,0 -3.065625,0.928125 -3.065625,3.09375 v 0.571875 c 0,2.165625 0.9375,3.084375 3.065625,3.084375 z"
         id="path1436" />
      <path
         d="m 25.422271,70.457422 c 0,-1.565625 -0.73125,-1.959375 -2.19375,-1.959375 h -0.075 c -1.321875,0 -1.978125,0.4875 -2.203125,1.5375 h 1.303125 c 0.1125,-0.403125 0.384375,-0.553125 0.91875,-0.553125 0.3,0 0.525,0.04687 0.684375,0.15 0.159375,0.103125 0.24375,0.328125 0.24375,0.69375 v 0.15 l -1.621875,0.08437 c -1.2,0.06562 -1.66875,0.571875 -1.66875,1.51875 v 0.04687 c 0,1.078125 0.703125,1.528125 1.7625,1.528125 0.909375,0 1.284375,-0.28125 1.5,-0.69375 h 0.04687 v 0.6 h 1.303125 z m -3.28125,1.575 c 0,-0.421875 0.196875,-0.590625 0.69375,-0.61875 l 1.265625,-0.06563 v 0.384375 c 0,0.628125 -0.309375,1.0125 -1.10625,1.0125 -0.496875,0 -0.853125,-0.196875 -0.853125,-0.65625 z"
         id="path1438" />
      <path
         d="m 29.041014,72.491797 h -0.271875 c -0.61875,0 -0.778125,-0.13125 -0.778125,-0.80625 v -2.015625 h 1.05 v -1.078125 h -1.05 v -1.59375 h -1.321875 v 1.59375 h -0.834375 v 1.078125 h 0.834375 v 2.3625 c 0,1.06875 0.35625,1.528125 1.678125,1.528125 h 0.69375 z"
         id="path1440" />
      <path
         d="m 32.819129,72.098047 c -0.15,0.375 -0.4875,0.4875 -0.946875,0.4875 -0.675,0 -1.003125,-0.225 -1.040625,-1.2375 h 3.35625 v -0.384375 c 0,-1.884375 -0.88125,-2.465625 -2.26875,-2.465625 h -0.09375 c -1.3875,0 -2.315625,0.646875 -2.315625,2.521875 v 0.121875 c 0,1.875 0.928125,2.5125 2.315625,2.5125 h 0.09375 c 1.321875,0 1.959375,-0.609375 2.221875,-1.55625 z m -0.975,-2.625 c 0.571875,0 1.0125,0.225 1.0125,0.984375 v 0.04687 h -2.015625 c 0.075,-0.853125 0.403125,-1.03125 1.003125,-1.03125 z"
         id="path1442" />
    </g>
  </g>
</svg>
