<?xml version="1.0" encoding="UTF-8" standalone="no"?>
<!-- Created with Inkscape (http://www.inkscape.org/) -->

<svg
   xmlns:dc="http://purl.org/dc/elements/1.1/"
   xmlns:cc="http://creativecommons.org/ns#"
   xmlns:rdf="http://www.w3.org/1999/02/22-rdf-syntax-ns#"
   xmlns:svg="http://www.w3.org/2000/svg"
   xmlns="http://www.w3.org/2000/svg"
   xmlns:sodipodi="http://sodipodi.sourceforge.net/DTD/sodipodi-0.dtd"
   xmlns:inkscape="http://www.inkscape.org/namespaces/inkscape"
   width="86mm"
   height="128.5mm"
   viewBox="0 0 86 128.5"
   version="1.1"
   id="svg11003"
   inkscape:version="0.92.4 (5da689c313, 2019-01-14)"
   sodipodi:docname="repeater_front_panel.svg">
  <defs
     id="defs10997" />
  <sodipodi:namedview
     id="base"
     pagecolor="#ffffff"
     bordercolor="#666666"
     borderopacity="1.0"
     inkscape:pageopacity="0.0"
     inkscape:pageshadow="2"
     inkscape:zoom="2.8"
     inkscape:cx="201.87099"
     inkscape:cy="88.089804"
     inkscape:document-units="mm"
     inkscape:current-layer="layer1"
     showgrid="false"
     fit-margin-top="0"
     fit-margin-left="0"
     fit-margin-right="0"
     fit-margin-bottom="0"
     inkscape:window-width="1920"
     inkscape:window-height="1137"
     inkscape:window-x="1912"
     inkscape:window-y="-8"
     inkscape:window-maximized="1"
     units="mm"
     showguides="true"
     inkscape:guide-bbox="true"
     showborder="false">
    <sodipodi:guide
       position="78.052084,72.760417"
       orientation="1,0"
       id="guide64"
       inkscape:locked="false" />
    <sodipodi:guide
       position="43.331073,29.967596"
       orientation="1,0"
       id="guide904"
       inkscape:locked="false" />
    <sodipodi:guide
       position="71.809571,25.826405"
       orientation="1,0"
       id="guide885"
       inkscape:locked="false" />
    <sodipodi:guide
       position="40.668818,69.726027"
       orientation="0,1"
       id="guide887"
       inkscape:locked="false" />
    <sodipodi:guide
       position="71.809571,13.607143"
       orientation="0,1"
       id="guide1474"
       inkscape:locked="false" />
  </sodipodi:namedview>
  <metadata
     id="metadata11000">
    <rdf:RDF>
      <cc:Work
         rdf:about="">
        <dc:format>image/svg+xml</dc:format>
        <dc:type
           rdf:resource="http://purl.org/dc/dcmitype/StillImage" />
        <dc:title />
      </cc:Work>
    </rdf:RDF>
  </metadata>
  <g
     inkscape:label="Panel Layer"
     inkscape:groupmode="layer"
     id="layer1"
     transform="translate(-64.792954,-47.169623)"
     style="display:inline">
    <path
       inkscape:connector-curvature="0"
       id="path33429"
       d="M 64.792954,47.169629 H 150.79295 V 175.66963 H 64.792954 Z m 0,0"
       style="fill:#e6e6e6;fill-opacity:1;fill-rule:nonzero;stroke:none;stroke-width:0.46018988" />
    <path
       inkscape:connector-curvature="0"
       id="path36629"
       d="m 142.84504,151.33008 c 0,-0.70925 -0.58092,-1.29052 -1.2937,-1.29052 h -9.93261 c -0.711,0 -1.29369,0.58127 -1.29369,1.29052 v 15.70134 c 0,0.70925 0.58269,1.29052 1.29369,1.29052 h 9.93261 c 0.71278,0 1.2937,-0.58127 1.2937,-1.29052 z m 0,0"
       style="fill:#000000;fill-opacity:1;fill-rule:nonzero;stroke:none;stroke-width:0.45561951" />
    <text
       xml:space="preserve"
       style="font-style:normal;font-weight:normal;font-size:4.58611107px;line-height:1.25;font-family:sans-serif;letter-spacing:0px;word-spacing:0px;fill:#000000;fill-opacity:1;stroke:none;stroke-width:0.26458332"
       x="75.943253"
       y="53.772301"
       id="text110"><tspan
         sodipodi:role="line"
         id="tspan108"
         x="75.943253"
         y="57.956348"
         style="font-size:4.58611107px;stroke-width:0.26458332" /></text>
    <g
       aria-label="bsampler"
       style="font-style:normal;font-weight:normal;font-size:7.05555534px;line-height:1.25;font-family:sans-serif;letter-spacing:0px;word-spacing:0px;fill:#000000;fill-opacity:1;stroke:none;stroke-width:0.26458332"
       id="text114"
       transform="translate(17.773891,0.26458333)">
      <g
         transform="matrix(0.26458333,0,0,0.26458333,64.792954,47.169623)"
         style="font-style:normal;font-variant:normal;font-weight:normal;font-stretch:normal;font-size:40px;line-height:1.25;font-family:Corbel;-inkscape-font-specification:Corbel;letter-spacing:0px;word-spacing:0px;fill:#000000;fill-opacity:1;stroke:none"
         id="flowRoot27" />
      <g
         style="font-style:normal;font-variant:normal;font-weight:normal;font-stretch:normal;font-size:10.58333302px;line-height:1.25;font-family:Gabriola;-inkscape-font-specification:Gabriola;letter-spacing:0px;word-spacing:0px;fill:#000000;fill-opacity:1;stroke:none;stroke-width:0.07000434"
         id="text37" />
      <path
         inkscape:connector-curvature="0"
         id="path35"
         style="font-style:normal;font-variant:normal;font-weight:normal;font-stretch:normal;font-size:4.93888903px;line-height:1.25;font-family:'Share Tech Mono';-inkscape-font-specification:'Share Tech Mono';letter-spacing:0px;word-spacing:0px;fill:#000000;fill-opacity:1;stroke:none;stroke-width:0.07000434"
         d="m 80.120445,54.229904 v 1.432278 H 79.690762 V 52.20496 h 0.928511 q 0.419805,0 0.632178,0.187677 0.217311,0.182739 0.217311,0.582789 v 0.474134 q 0,0.558094 -0.4445,0.696383 l 0.686505,1.516239 h -0.469194 l -0.637117,-1.432278 z m 0.918633,-1.298928 q 0,-0.187678 -0.0889,-0.271639 -0.08396,-0.08396 -0.271639,-0.08396 h -0.558094 v 1.284111 h 0.558094 q 0.187678,0 0.271639,-0.08396 0.0889,-0.0889 0.0889,-0.276578 z" />
      <path
         inkscape:connector-curvature="0"
         id="path37"
         style="font-style:normal;font-variant:normal;font-weight:normal;font-stretch:normal;font-size:4.93888903px;line-height:1.25;font-family:'Share Tech Mono';-inkscape-font-specification:'Share Tech Mono';letter-spacing:0px;word-spacing:0px;fill:#000000;fill-opacity:1;stroke:none;stroke-width:0.07000434"
         d="m 84.165704,52.20496 v 0.360538 h -1.219906 v 1.131006 h 1.096434 v 0.360539 h -1.096434 v 1.2446 h 1.219906 v 0.360539 H 82.516115 V 52.20496 Z" />
      <path
         inkscape:connector-curvature="0"
         id="path39"
         style="font-style:normal;font-variant:normal;font-weight:normal;font-stretch:normal;font-size:4.93888903px;line-height:1.25;font-family:'Share Tech Mono';-inkscape-font-specification:'Share Tech Mono';letter-spacing:0px;word-spacing:0px;fill:#000000;fill-opacity:1;stroke:none;stroke-width:0.07000434"
         d="m 86.897218,53.53846 q 0,0.40005 -0.212372,0.592666 -0.212372,0.187678 -0.627239,0.187678 h -0.513644 v 1.343378 H 85.114279 V 52.20496 h 0.93345 q 0.419806,0 0.632178,0.187677 0.217311,0.182739 0.217311,0.582789 z m -0.429683,-0.607484 q 0,-0.187678 -0.0889,-0.271639 -0.08396,-0.08396 -0.271639,-0.08396 h -0.563033 v 1.373011 h 0.563033 q 0.187678,0 0.271639,-0.08396 0.0889,-0.0889 0.0889,-0.276578 z" />
      <path
         inkscape:connector-curvature="0"
         id="path41"
         style="font-style:normal;font-variant:normal;font-weight:normal;font-stretch:normal;font-size:4.93888903px;line-height:1.25;font-family:'Share Tech Mono';-inkscape-font-specification:'Share Tech Mono';letter-spacing:0px;word-spacing:0px;fill:#000000;fill-opacity:1;stroke:none;stroke-width:0.07000434"
         d="m 89.490444,52.20496 v 0.360538 h -1.219906 v 1.131006 h 1.096434 v 0.360539 h -1.096434 v 1.2446 h 1.219906 v 0.360539 H 87.840855 V 52.20496 Z" />
      <path
         inkscape:connector-curvature="0"
         id="path43"
         style="font-style:normal;font-variant:normal;font-weight:normal;font-stretch:normal;font-size:4.93888903px;line-height:1.25;font-family:'Share Tech Mono';-inkscape-font-specification:'Share Tech Mono';letter-spacing:0px;word-spacing:0px;fill:#000000;fill-opacity:1;stroke:none;stroke-width:0.07000434"
         d="m 90.848947,54.787998 -0.192617,0.874184 h -0.439561 l 0.834672,-3.457222 h 0.567973 l 0.819855,3.457222 H 91.999708 L 91.81203,54.787998 Z m 0.884061,-0.370416 -0.404989,-1.886656 -0.40005,1.886656 z" />
      <path
         inkscape:connector-curvature="0"
         id="path45"
         style="font-style:normal;font-variant:normal;font-weight:normal;font-stretch:normal;font-size:4.93888903px;line-height:1.25;font-family:'Share Tech Mono';-inkscape-font-specification:'Share Tech Mono';letter-spacing:0px;word-spacing:0px;fill:#000000;fill-opacity:1;stroke:none;stroke-width:0.07000434"
         d="M 93.773078,55.662182 V 52.580315 H 92.987795 V 52.20496 h 2.00025 v 0.375355 h -0.785284 v 3.081867 z" />
      <path
         inkscape:connector-curvature="0"
         id="path47"
         style="font-style:normal;font-variant:normal;font-weight:normal;font-stretch:normal;font-size:4.93888903px;line-height:1.25;font-family:'Share Tech Mono';-inkscape-font-specification:'Share Tech Mono';letter-spacing:0px;word-spacing:0px;fill:#000000;fill-opacity:1;stroke:none;stroke-width:0.07000434"
         d="m 97.477554,52.20496 v 0.360538 h -1.219905 v 1.131006 h 1.096433 v 0.360539 h -1.096433 v 1.2446 h 1.219905 v 0.360539 H 95.827965 V 52.20496 Z" />
      <path
         inkscape:connector-curvature="0"
         id="path49"
         style="font-style:normal;font-variant:normal;font-weight:normal;font-stretch:normal;font-size:4.93888903px;line-height:1.25;font-family:'Share Tech Mono';-inkscape-font-specification:'Share Tech Mono';letter-spacing:0px;word-spacing:0px;fill:#000000;fill-opacity:1;stroke:none;stroke-width:0.07000434"
         d="m 98.757034,54.229904 v 1.432278 H 98.327351 V 52.20496 h 0.928511 q 0.419805,0 0.632178,0.187677 0.21731,0.182739 0.21731,0.582789 v 0.474134 q 0,0.558094 -0.444499,0.696383 l 0.686509,1.516239 h -0.469198 l -0.637117,-1.432278 z m 0.918633,-1.298928 q 0,-0.187678 -0.0889,-0.271639 -0.08396,-0.08396 -0.271639,-0.08396 h -0.558094 v 1.284111 h 0.558094 q 0.187678,0 0.271639,-0.08396 0.0889,-0.0889 0.0889,-0.276578 z" />
    </g>
    <path
       style="display:inline;fill:none;stroke:#000000;stroke-width:0.14003912px;stroke-linecap:butt;stroke-linejoin:miter;stroke-opacity:1"
       d="m 80.962951,115.31798 c 4.764867,0 4.817812,0 4.817812,0"
       id="path27-1"
       inkscape:connector-curvature="0" />
    <path
       style="display:inline;fill:none;stroke:#000000;stroke-width:0.14003873px;stroke-linecap:butt;stroke-linejoin:miter;stroke-opacity:1"
       d="m 95.079908,115.33667 c 4.765053,0 4.818,0 4.818,0"
       id="path27-1-8"
       inkscape:connector-curvature="0" />
    <path
       style="display:inline;fill:none;stroke:#000000;stroke-width:0.14003912px;stroke-linecap:butt;stroke-linejoin:miter;stroke-opacity:1"
       d="m 80.962951,115.31798 c 4.764867,0 4.817812,0 4.817812,0"
       id="path27-1-3"
       inkscape:connector-curvature="0" />
    <path
       style="display:inline;fill:none;stroke:#000000;stroke-width:0.14003873px;stroke-linecap:butt;stroke-linejoin:miter;stroke-opacity:1"
       d="m 95.079908,115.33667 c 4.765053,0 4.818,0 4.818,0"
       id="path27-1-8-9"
       inkscape:connector-curvature="0" />
    <g
       id="g895"
       transform="translate(1.2375674,-0.02851611)">
      <path
         d="m 105.65654,104.45659 q 0,0.28575 -0.15169,0.42333 -0.1517,0.13406 -0.44803,0.13406 h -0.36689 v 0.95955 h -0.30691 v -2.46944 h 0.66675 q 0.29986,0 0.45155,0.13405 0.15522,0.13053 0.15522,0.41628 z m -0.30691,-0.43392 q 0,-0.13405 -0.0635,-0.19403 -0.06,-0.06 -0.19403,-0.06 h -0.40217 v 0.98073 h 0.40217 q 0.13405,0 0.19403,-0.06 0.0635,-0.0635 0.0635,-0.19756 z"
         style="font-style:normal;font-variant:normal;font-weight:normal;font-stretch:normal;font-size:3.52777767px;line-height:1.25;font-family:'Share Tech Mono';-inkscape-font-specification:'Share Tech Mono';letter-spacing:0px;word-spacing:0px;display:inline;fill:#000000;fill-opacity:1;stroke:none;stroke-width:0.26458332"
         id="path82-7"
         inkscape:connector-curvature="0" />
      <path
         d="m 107.62526,105.37381 q 0,0.29986 -0.1658,0.45156 -0.16228,0.14816 -0.4692,0.14816 h -0.14111 q -0.30691,0 -0.47272,-0.14816 -0.16228,-0.1517 -0.16228,-0.45156 v -1.27 q 0,-0.29986 0.16228,-0.44803 0.16581,-0.15169 0.47272,-0.15169 h 0.14111 q 0.30692,0 0.4692,0.15169 0.1658,0.14817 0.1658,0.44803 z m -0.30691,-1.33703 q 0,-0.10936 -0.0811,-0.18697 -0.0811,-0.0776 -0.21167,-0.0776 h -0.21167 q -0.13052,0 -0.21166,0.0776 -0.0811,0.0776 -0.0811,0.18697 v 1.40406 q 0,0.10936 0.0811,0.18697 0.0811,0.0776 0.21166,0.0776 h 0.21167 q 0.13053,0 0.21167,-0.0776 0.0811,-0.0776 0.0811,-0.18697 z"
         style="font-style:normal;font-variant:normal;font-weight:normal;font-stretch:normal;font-size:3.52777767px;line-height:1.25;font-family:'Share Tech Mono';-inkscape-font-specification:'Share Tech Mono';letter-spacing:0px;word-spacing:0px;display:inline;fill:#000000;fill-opacity:1;stroke:none;stroke-width:0.26458332"
         id="path84-4"
         inkscape:connector-curvature="0" />
      <path
         d="m 109.4176,105.37381 q 0,0.29986 -0.16581,0.45156 -0.16228,0.14816 -0.46919,0.14816 h -0.50095 v -0.26811 h 0.53622 q 0.13053,0 0.21167,-0.0776 0.0811,-0.0776 0.0811,-0.18697 v -0.36689 q 0,-0.10583 -0.0564,-0.16933 -0.0529,-0.067 -0.16228,-0.067 h -0.10583 q -0.26106,0 -0.41275,-0.1517 -0.1517,-0.15522 -0.1517,-0.44802 v -0.13406 q 0,-0.29986 0.16228,-0.44803 0.16581,-0.15169 0.47272,-0.15169 h 0.50447 v 0.26811 h -0.53975 q -0.13052,0 -0.21166,0.0776 -0.0811,0.0776 -0.0811,0.18697 v 0.26808 q 0,0.10936 0.0705,0.18345 0.0706,0.0705 0.18345,0.0705 h 0.10583 q 0.25047,0 0.38805,0.14464 0.14112,0.14463 0.14112,0.43744 z"
         style="font-style:normal;font-variant:normal;font-weight:normal;font-stretch:normal;font-size:3.52777767px;line-height:1.25;font-family:'Share Tech Mono';-inkscape-font-specification:'Share Tech Mono';letter-spacing:0px;word-spacing:0px;display:inline;fill:#000000;fill-opacity:1;stroke:none;stroke-width:0.26458332"
         id="path86-4"
         inkscape:connector-curvature="0" />
    </g>
    <path
       style="display:inline;fill:none;stroke:#000000;stroke-width:0.14003912px;stroke-linecap:butt;stroke-linejoin:miter;stroke-opacity:1"
       d="m 80.962951,137.28189 c 4.764867,0 4.817812,0 4.817812,0"
       id="path27-1-2"
       inkscape:connector-curvature="0" />
    <path
       style="display:inline;fill:none;stroke:#000000;stroke-width:0.14003873px;stroke-linecap:butt;stroke-linejoin:miter;stroke-opacity:1"
       d="m 95.079908,137.2996 c 4.765053,0 4.818,0 4.818,0"
       id="path27-1-2-2"
       inkscape:connector-curvature="0" />
    <path
       style="display:inline;fill:none;stroke:#000000;stroke-width:0.14003912px;stroke-linecap:butt;stroke-linejoin:miter;stroke-opacity:1"
       d="m 80.962951,137.28189 c 4.764867,0 4.817812,0 4.817812,0"
       id="path27-1-2-8"
       inkscape:connector-curvature="0" />
    <path
       style="display:inline;fill:none;stroke:#000000;stroke-width:0.14003873px;stroke-linecap:butt;stroke-linejoin:miter;stroke-opacity:1"
       d="m 95.079908,137.2996 c 4.765053,0 4.818,0 4.818,0"
       id="path27-1-2-2-3"
       inkscape:connector-curvature="0" />
    <g
       id="g890"
       transform="translate(1.2375674,-0.02851611)">
      <path
         d="m 104.94415,127.05479 -0.22225,1.00189 h -0.42334 l -0.11994,-2.46945 h 0.26105 l 0.10584,2.20486 0.2928,-1.16416 h 0.21872 l 0.29987,1.16416 0.10936,-2.20486 h 0.24341 l -0.11994,2.46945 h -0.4445 z"
         style="font-style:normal;font-variant:normal;font-weight:normal;font-stretch:normal;font-size:3.52777767px;line-height:1.25;font-family:'Share Tech Mono';-inkscape-font-specification:'Share Tech Mono';letter-spacing:0px;word-spacing:0px;display:inline;fill:#000000;fill-opacity:1;stroke:none;stroke-width:0.26458332"
         id="path75-2"
         inkscape:connector-curvature="0" />
      <path
         d="m 106.5107,127.43226 -0.13758,0.62442 h -0.31398 l 0.5962,-2.46945 h 0.40569 l 0.58561,2.46945 h -0.31397 l -0.13406,-0.62442 z m 0.63147,-0.26458 -0.28928,-1.34762 -0.28575,1.34762 z"
         style="font-style:normal;font-variant:normal;font-weight:normal;font-stretch:normal;font-size:3.52777767px;line-height:1.25;font-family:'Share Tech Mono';-inkscape-font-specification:'Share Tech Mono';letter-spacing:0px;word-spacing:0px;display:inline;fill:#000000;fill-opacity:1;stroke:none;stroke-width:0.26458332"
         id="path77-7"
         inkscape:connector-curvature="0" />
      <path
         d="m 107.99964,125.58723 h 0.31045 l 0.42333,2.159 0.45508,-2.159 h 0.30339 l -0.55386,2.46945 h -0.4198 z"
         style="font-style:normal;font-variant:normal;font-weight:normal;font-stretch:normal;font-size:3.52777767px;line-height:1.25;font-family:'Share Tech Mono';-inkscape-font-specification:'Share Tech Mono';letter-spacing:0px;word-spacing:0px;display:inline;fill:#000000;fill-opacity:1;stroke:none;stroke-width:0.26458332"
         id="path79-9"
         inkscape:connector-curvature="0" />
    </g>
    <path
       style="fill:none;stroke:#000000;stroke-width:0.14003912px;stroke-linecap:butt;stroke-linejoin:miter;stroke-opacity:1"
       d="m 80.433784,93.354061 c 4.764867,0 4.817812,0 4.817812,0"
       id="path27"
       inkscape:connector-curvature="0" />
    <path
       style="display:inline;fill:none;stroke:#000000;stroke-width:0.14003873px;stroke-linecap:butt;stroke-linejoin:miter;stroke-opacity:1"
       d="m 94.550741,93.373732 c 4.765053,0 4.818,0 4.818,0"
       id="path27-3"
       inkscape:connector-curvature="0" />
    <path
       style="display:inline;fill:none;stroke:#000000;stroke-width:0.14003912px;stroke-linecap:butt;stroke-linejoin:miter;stroke-opacity:1"
       d="m 80.962954,93.354061 c 4.764867,0 4.817812,0 4.817812,0"
       id="path27-9"
       inkscape:connector-curvature="0" />
    <path
       style="display:inline;fill:none;stroke:#000000;stroke-width:0.14003873px;stroke-linecap:butt;stroke-linejoin:miter;stroke-opacity:1"
       d="m 95.079954,93.373732 c 4.765053,0 4.818,0 4.818,0"
       id="path27-3-9"
       inkscape:connector-curvature="0" />
    <g
       id="g900"
       transform="translate(1.2375674,-0.02851611)">
      <path
         d="m 105.83004,83.364419 q 0,0.303388 -0.14111,0.430388 -0.13758,0.127 -0.45861,0.127 h -0.72672 v -2.469444 h 0.68438 q 0.3175,0 0.47978,0.130528 0.16228,0.127 0.16228,0.419805 z m -0.30692,-1.393473 q 0,-0.116416 -0.0705,-0.183444 -0.0706,-0.07056 -0.18697,-0.07056 h -0.45509 v 1.940278 h 0.45156 q 0.13405,0 0.19755,-0.05997 0.0635,-0.0635 0.0635,-0.197556 z"
         style="font-style:normal;font-variant:normal;font-weight:normal;font-stretch:normal;font-size:3.52777767px;line-height:1.25;font-family:'Share Tech Mono';-inkscape-font-specification:'Share Tech Mono';letter-spacing:0px;word-spacing:0px;fill:#000000;fill-opacity:1;stroke:none;stroke-width:0.26458332"
         id="path331"
         inkscape:connector-curvature="0" />
      <path
         d="m 106.91329,83.66428 v -1.954389 h -0.3175 v -0.257528 h 0.94192 v 0.257528 h -0.3175 v 1.954389 h 0.3175 v 0.257527 h -0.94192 V 83.66428 Z"
         style="font-style:normal;font-variant:normal;font-weight:normal;font-stretch:normal;font-size:3.52777767px;line-height:1.25;font-family:'Share Tech Mono';-inkscape-font-specification:'Share Tech Mono';letter-spacing:0px;word-spacing:0px;fill:#000000;fill-opacity:1;stroke:none;stroke-width:0.26458332"
         id="path333"
         inkscape:connector-curvature="0" />
      <path
         d="m 108.21526,81.452363 h 0.31044 l 0.42334,2.159 0.45508,-2.159 h 0.30339 l -0.55386,2.469444 h -0.41981 z"
         style="font-style:normal;font-variant:normal;font-weight:normal;font-stretch:normal;font-size:3.52777767px;line-height:1.25;font-family:'Share Tech Mono';-inkscape-font-specification:'Share Tech Mono';letter-spacing:0px;word-spacing:0px;fill:#000000;fill-opacity:1;stroke:none;stroke-width:0.26458332"
         id="path335"
         inkscape:connector-curvature="0" />
    </g>
    <g
       id="g885"
       transform="translate(1.2375674,-0.02851611)">
      <path
         d="m 103.72648,148.75794 q 0,0.28575 -0.15169,0.42334 -0.1517,0.13405 -0.44803,0.13405 h -0.36689 v 0.95956 h -0.30692 v -2.46945 h 0.66675 q 0.29986,0 0.45156,0.13406 0.15522,0.13053 0.15522,0.41628 z m -0.30692,-0.43391 q 0,-0.13406 -0.0635,-0.19403 -0.06,-0.06 -0.19402,-0.06 h -0.40217 v 0.98072 h 0.40217 q 0.13405,0 0.19402,-0.06 0.0635,-0.0635 0.0635,-0.19756 z"
         style="font-style:normal;font-variant:normal;font-weight:normal;font-stretch:normal;font-size:3.52777767px;line-height:1.25;font-family:'Share Tech Mono';-inkscape-font-specification:'Share Tech Mono';letter-spacing:0px;word-spacing:0px;fill:#000000;fill-opacity:1;stroke:none;stroke-width:0.26458332"
         id="path305"
         inkscape:connector-curvature="0" />
      <path
         d="m 104.83442,150.01736 v -1.95439 h -0.3175 v -0.25753 h 0.94192 v 0.25753 h -0.3175 v 1.95439 h 0.3175 v 0.25753 h -0.94192 v -0.25753 z"
         style="font-style:normal;font-variant:normal;font-weight:normal;font-stretch:normal;font-size:3.52777767px;line-height:1.25;font-family:'Share Tech Mono';-inkscape-font-specification:'Share Tech Mono';letter-spacing:0px;word-spacing:0px;fill:#000000;fill-opacity:1;stroke:none;stroke-width:0.26458332"
         id="path307"
         inkscape:connector-curvature="0" />
      <path
         d="m 106.73612,150.27489 v -2.20133 h -0.56092 v -0.26812 h 1.42875 v 0.26812 h -0.56092 v 2.20133 z"
         style="font-style:normal;font-variant:normal;font-weight:normal;font-stretch:normal;font-size:3.52777767px;line-height:1.25;font-family:'Share Tech Mono';-inkscape-font-specification:'Share Tech Mono';letter-spacing:0px;word-spacing:0px;fill:#000000;fill-opacity:1;stroke:none;stroke-width:0.26458332"
         id="path309"
         inkscape:connector-curvature="0" />
      <path
         d="m 108.86006,150.27489 q -0.30692,0 -0.47272,-0.14817 -0.16228,-0.15169 -0.16228,-0.45155 v -1.27 q 0,-0.29986 0.16228,-0.44803 0.1658,-0.1517 0.47272,-0.1517 h 0.50094 v 0.26812 h -0.53622 q -0.13053,0 -0.21167,0.0776 -0.0811,0.0776 -0.0811,0.18697 v 1.40405 q 0,0.10937 0.0811,0.18698 0.0811,0.0776 0.21167,0.0776 h 0.53622 v 0.26811 z"
         style="font-style:normal;font-variant:normal;font-weight:normal;font-stretch:normal;font-size:3.52777767px;line-height:1.25;font-family:'Share Tech Mono';-inkscape-font-specification:'Share Tech Mono';letter-spacing:0px;word-spacing:0px;fill:#000000;fill-opacity:1;stroke:none;stroke-width:0.26458332"
         id="path311"
         inkscape:connector-curvature="0" />
      <path
         d="m 110.33136,149.13894 v 1.13595 h -0.30691 v -2.46945 h 0.30691 v 1.07245 h 0.72672 v -1.07245 h 0.30692 v 2.46945 h -0.30692 v -1.13595 z"
         style="font-style:normal;font-variant:normal;font-weight:normal;font-stretch:normal;font-size:3.52777767px;line-height:1.25;font-family:'Share Tech Mono';-inkscape-font-specification:'Share Tech Mono';letter-spacing:0px;word-spacing:0px;fill:#000000;fill-opacity:1;stroke:none;stroke-width:0.26458332"
         id="path313"
         inkscape:connector-curvature="0" />
    </g>
    <path
       style="display:inline;fill:none;stroke:#000000;stroke-width:0.14003912px;stroke-linecap:butt;stroke-linejoin:miter;stroke-opacity:1"
       d="m 80.962951,159.49987 c 4.764867,0 4.817812,0 4.817812,0"
       id="path27-1-2-8-6"
       inkscape:connector-curvature="0" />
    <path
       style="display:inline;fill:none;stroke:#000000;stroke-width:0.14003873px;stroke-linecap:butt;stroke-linejoin:miter;stroke-opacity:1"
       d="m 95.079908,159.49987 c 4.765053,0 4.818,0 4.818,0"
       id="path27-1-2-2-3-7"
       inkscape:connector-curvature="0" />
    <rect
       style="fill:#28282a;fill-opacity:1;stroke-width:0.13056774"
       id="rect438"
       width="70.132164"
       height="12.602925"
       x="72.726868"
       y="-75.949181"
       ry="0.78410625"
       transform="scale(1,-1)" />
    <g
       id="g878"
       transform="translate(61.862098,21.393454)">
      <path
         d="m 72.828305,64.819588 q -0.306917,0 -0.472723,-0.148167 -0.162277,-0.151694 -0.162277,-0.451555 v -1.27 q 0,-0.299862 0.162277,-0.448028 0.165806,-0.151695 0.472723,-0.151695 h 0.500944 v 0.268111 h -0.536222 q -0.130528,0 -0.211667,0.07761 -0.08114,0.07761 -0.08114,0.186972 v 1.404055 q 0,0.109361 0.08114,0.186972 0.08114,0.07761 0.211667,0.07761 h 0.536222 v 0.268111 z"
         style="font-style:normal;font-variant:normal;font-weight:normal;font-stretch:normal;font-size:3.52777767px;line-height:1.25;font-family:'Share Tech Mono';-inkscape-font-specification:'Share Tech Mono';letter-spacing:0px;word-spacing:0px;fill:#000000;fill-opacity:1;stroke:none;stroke-width:0.26458332"
         id="path4981"
         inkscape:connector-curvature="0" />
      <path
         d="m 74.423081,62.350143 v 2.201334 h 0.786694 v 0.268111 h -1.093611 v -2.469445 z"
         style="font-style:normal;font-variant:normal;font-weight:normal;font-stretch:normal;font-size:3.52777767px;line-height:1.25;font-family:'Share Tech Mono';-inkscape-font-specification:'Share Tech Mono';letter-spacing:0px;word-spacing:0px;fill:#000000;fill-opacity:1;stroke:none;stroke-width:0.26458332"
         id="path4983"
         inkscape:connector-curvature="0" />
      <path
         d="m 76.204829,63.909421 v 0.910167 h -0.306917 v -2.469445 h 0.306917 v 1.065389 l 0.670278,-1.065389 h 0.335138 l -0.680861,1.090084 0.723195,1.379361 h -0.352778 l -0.560917,-1.11125 z"
         style="font-style:normal;font-variant:normal;font-weight:normal;font-stretch:normal;font-size:3.52777767px;line-height:1.25;font-family:'Share Tech Mono';-inkscape-font-specification:'Share Tech Mono';letter-spacing:0px;word-spacing:0px;fill:#000000;fill-opacity:1;stroke:none;stroke-width:0.26458332"
         id="path4985"
         inkscape:connector-curvature="0" />
    </g>
    <path
       inkscape:connector-curvature="0"
       id="path2137"
       style="font-style:normal;font-variant:normal;font-weight:normal;font-stretch:normal;font-size:3.52777767px;line-height:1.25;font-family:'Share Tech Mono';-inkscape-font-specification:'Share Tech Mono';letter-spacing:0px;word-spacing:0px;fill:#ffffff;fill-opacity:1;stroke:none;stroke-width:0.26458332"
       d="m 134.69393,153.41982 -0.22225,1.00189 h -0.42333 l -0.11994,-2.46945 h 0.26105 l 0.10583,2.20486 0.29281,-1.16416 h 0.21872 l 0.29986,1.16416 0.10936,-2.20486 h 0.24342 l -0.11994,2.46945 h -0.4445 z" />
    <path
       inkscape:connector-curvature="0"
       id="path2139"
       style="font-style:normal;font-variant:normal;font-weight:normal;font-stretch:normal;font-size:3.52777767px;line-height:1.25;font-family:'Share Tech Mono';-inkscape-font-specification:'Share Tech Mono';letter-spacing:0px;word-spacing:0px;fill:#ffffff;fill-opacity:1;stroke:none;stroke-width:0.26458332"
       d="m 136.26049,153.79729 -0.13759,0.62442 h -0.31397 l 0.5962,-2.46945 h 0.40569 l 0.58561,2.46945 h -0.31397 l -0.13406,-0.62442 z m 0.63147,-0.26458 -0.28928,-1.34761 -0.28575,1.34761 z" />
    <path
       inkscape:connector-curvature="0"
       id="path2141"
       style="font-style:normal;font-variant:normal;font-weight:normal;font-stretch:normal;font-size:3.52777767px;line-height:1.25;font-family:'Share Tech Mono';-inkscape-font-specification:'Share Tech Mono';letter-spacing:0px;word-spacing:0px;fill:#ffffff;fill-opacity:1;stroke:none;stroke-width:0.26458332"
       d="m 137.74943,151.95226 h 0.31044 l 0.42334,2.159 0.45508,-2.159 h 0.30339 l -0.55386,2.46945 h -0.41981 z" />
    <path
       inkscape:connector-curvature="0"
       id="path36629-9"
       d="m 142.84504,128.66397 c 0,-0.70925 -0.58092,-1.29052 -1.2937,-1.29052 h -9.93261 c -0.711,0 -1.29369,0.58127 -1.29369,1.29052 v 15.70134 c 0,0.70925 0.58269,1.29052 1.29369,1.29052 h 9.93261 c 0.71278,0 1.2937,-0.58127 1.2937,-1.29052 z m 0,0"
       style="display:inline;fill:#000000;fill-opacity:1;fill-rule:nonzero;stroke:none;stroke-width:0.45561954" />
    <path
       inkscape:connector-curvature="0"
       id="path2147"
       style="font-style:normal;font-variant:normal;font-weight:normal;font-stretch:normal;font-size:3.52777767px;line-height:1.25;font-family:'Share Tech Mono';-inkscape-font-specification:'Share Tech Mono';letter-spacing:0px;word-spacing:0px;fill:#ffffff;fill-opacity:1;stroke:none;stroke-width:0.26458332"
       d="m 134.57752,131.83743 v -2.20133 h -0.56092 v -0.26811 h 1.42875 v 0.26811 h -0.56091 v 2.20133 z" />
    <path
       inkscape:connector-curvature="0"
       id="path2149"
       style="font-style:normal;font-variant:normal;font-weight:normal;font-stretch:normal;font-size:3.52777767px;line-height:1.25;font-family:'Share Tech Mono';-inkscape-font-specification:'Share Tech Mono';letter-spacing:0px;word-spacing:0px;fill:#ffffff;fill-opacity:1;stroke:none;stroke-width:0.26458332"
       d="m 136.2358,130.81438 v 1.02305 h -0.30692 v -2.46944 h 0.66322 q 0.29986,0 0.45156,0.13405 0.15522,0.13053 0.15522,0.41628 v 0.33867 q 0,0.39864 -0.3175,0.49742 l 0.49036,1.08302 h -0.33514 l -0.45508,-1.02305 z m 0.65616,-0.92781 q 0,-0.13405 -0.0635,-0.19403 -0.06,-0.06 -0.19402,-0.06 h -0.39864 v 0.91722 h 0.39864 q 0.13405,0 0.19402,-0.06 0.0635,-0.0635 0.0635,-0.19755 z" />
    <path
       inkscape:connector-curvature="0"
       id="path2151"
       style="font-style:normal;font-variant:normal;font-weight:normal;font-stretch:normal;font-size:3.52777767px;line-height:1.25;font-family:'Share Tech Mono';-inkscape-font-specification:'Share Tech Mono';letter-spacing:0px;word-spacing:0px;fill:#ffffff;fill-opacity:1;stroke:none;stroke-width:0.26458332"
       d="m 138.55024,131.83743 q -0.30692,0 -0.47272,-0.14816 -0.16228,-0.1517 -0.16228,-0.45156 v -1.27 q 0,-0.29986 0.16228,-0.44803 0.1658,-0.15169 0.47272,-0.15169 h 0.49742 v 0.26811 h -0.5327 q -0.13053,0 -0.21167,0.0776 -0.0811,0.0776 -0.0811,0.18697 v 1.40406 q 0,0.10936 0.0811,0.18697 0.0811,0.0776 0.21167,0.0776 h 0.34572 v -0.76553 h -0.30691 v -0.26458 h 0.59972 v 1.29822 z" />
    <g
       id="g914"
       transform="translate(0,3.1750001)">
      <path
         d="m 132.29041,105.34316 q 0,0.29987 -0.16581,0.45156 -0.16227,0.14817 -0.46919,0.14817 h -0.50095 v -0.26811 h 0.53623 q 0.13052,0 0.21166,-0.0776 0.0811,-0.0776 0.0811,-0.18697 v -0.36689 q 0,-0.10583 -0.0564,-0.16933 -0.0529,-0.067 -0.16228,-0.067 h -0.10583 q -0.26106,0 -0.41275,-0.15169 -0.1517,-0.15522 -0.1517,-0.44803 v -0.13406 q 0,-0.29986 0.16228,-0.44802 0.16581,-0.1517 0.47272,-0.1517 h 0.50447 v 0.26811 h -0.53975 q -0.13052,0 -0.21166,0.0776 -0.0811,0.0776 -0.0811,0.18698 v 0.26811 q 0,0.10936 0.0705,0.18344 0.0706,0.0706 0.18345,0.0706 h 0.10583 q 0.25047,0 0.38806,0.14464 0.14111,0.14464 0.14111,0.43744 z"
         style="font-style:normal;font-variant:normal;font-weight:normal;font-stretch:normal;font-size:3.52777767px;line-height:1.25;font-family:'Share Tech Mono';-inkscape-font-specification:'Share Tech Mono';letter-spacing:0px;word-spacing:0px;fill:#000000;fill-opacity:1;stroke:none;stroke-width:0.26458332"
         id="path889"
         inkscape:connector-curvature="0" />
      <path
         d="m 133.73702,105.11386 h -0.29281 l -0.34572,-1.38642 v 2.21545 h -0.26811 v -2.46945 h 0.49036 l 0.28222,1.26295 0.28575,-1.26295 h 0.47625 v 2.46945 h -0.27516 v -2.21545 z"
         style="font-style:normal;font-variant:normal;font-weight:normal;font-stretch:normal;font-size:3.52777767px;line-height:1.25;font-family:'Share Tech Mono';-inkscape-font-specification:'Share Tech Mono';letter-spacing:0px;word-spacing:0px;fill:#000000;fill-opacity:1;stroke:none;stroke-width:0.26458332"
         id="path891"
         inkscape:connector-curvature="0" />
      <path
         d="m 136.20316,105.34316 q 0,0.29987 -0.16581,0.45156 -0.16228,0.14817 -0.46919,0.14817 h -0.14112 q -0.30691,0 -0.47272,-0.14817 -0.16228,-0.15169 -0.16228,-0.45156 v -1.27 q 0,-0.29986 0.16228,-0.44802 0.16581,-0.1517 0.47272,-0.1517 h 0.14112 q 0.30691,0 0.46919,0.1517 0.16581,0.14816 0.16581,0.44802 z m -0.30692,-1.33702 q 0,-0.10936 -0.0811,-0.18698 -0.0811,-0.0776 -0.21167,-0.0776 h -0.21166 q -0.13053,0 -0.21167,0.0776 -0.0811,0.0776 -0.0811,0.18698 v 1.40405 q 0,0.10936 0.0811,0.18697 0.0811,0.0776 0.21167,0.0776 h 0.21166 q 0.13053,0 0.21167,-0.0776 0.0811,-0.0776 0.0811,-0.18697 z"
         style="font-style:normal;font-variant:normal;font-weight:normal;font-stretch:normal;font-size:3.52777767px;line-height:1.25;font-family:'Share Tech Mono';-inkscape-font-specification:'Share Tech Mono';letter-spacing:0px;word-spacing:0px;fill:#000000;fill-opacity:1;stroke:none;stroke-width:0.26458332"
         id="path893"
         inkscape:connector-curvature="0" />
      <path
         d="m 138.10485,105.34316 q 0,0.29987 -0.16581,0.45156 -0.16228,0.14817 -0.46919,0.14817 h -0.14111 q -0.30692,0 -0.47273,-0.14817 -0.16227,-0.15169 -0.16227,-0.45156 v -1.27 q 0,-0.29986 0.16227,-0.44802 0.16581,-0.1517 0.47273,-0.1517 h 0.14111 q 0.30691,0 0.46919,0.1517 0.16581,0.14816 0.16581,0.44802 z m -0.30692,-1.33702 q 0,-0.10936 -0.0811,-0.18698 -0.0811,-0.0776 -0.21166,-0.0776 h -0.21167 q -0.13053,0 -0.21167,0.0776 -0.0811,0.0776 -0.0811,0.18698 v 1.40405 q 0,0.10936 0.0811,0.18697 0.0811,0.0776 0.21167,0.0776 h 0.21167 q 0.13052,0 0.21166,-0.0776 0.0811,-0.0776 0.0811,-0.18697 z"
         style="font-style:normal;font-variant:normal;font-weight:normal;font-stretch:normal;font-size:3.52777767px;line-height:1.25;font-family:'Share Tech Mono';-inkscape-font-specification:'Share Tech Mono';letter-spacing:0px;word-spacing:0px;fill:#000000;fill-opacity:1;stroke:none;stroke-width:0.26458332"
         id="path895"
         inkscape:connector-curvature="0" />
      <path
         d="m 139.14576,105.94289 v -2.20134 h -0.56091 v -0.26811 h 1.42875 v 0.26811 h -0.56092 v 2.20134 z"
         style="font-style:normal;font-variant:normal;font-weight:normal;font-stretch:normal;font-size:3.52777767px;line-height:1.25;font-family:'Share Tech Mono';-inkscape-font-specification:'Share Tech Mono';letter-spacing:0px;word-spacing:0px;fill:#000000;fill-opacity:1;stroke:none;stroke-width:0.26458332"
         id="path897"
         inkscape:connector-curvature="0" />
      <path
         d="m 140.83932,104.80694 v 1.13595 h -0.30692 v -2.46945 h 0.30692 v 1.07245 h 0.72672 v -1.07245 h 0.30692 v 2.46945 h -0.30692 v -1.13595 z"
         style="font-style:normal;font-variant:normal;font-weight:normal;font-stretch:normal;font-size:3.52777767px;line-height:1.25;font-family:'Share Tech Mono';-inkscape-font-specification:'Share Tech Mono';letter-spacing:0px;word-spacing:0px;fill:#000000;fill-opacity:1;stroke:none;stroke-width:0.26458332"
         id="path899"
         inkscape:connector-curvature="0" />
    </g>
    <g
       aria-label="voxglitch"
       style="font-style:normal;font-variant:normal;font-weight:normal;font-stretch:normal;font-size:3.88055563px;line-height:1.25;font-family:'Sitka Subheading';-inkscape-font-specification:'Sitka Subheading';letter-spacing:0px;word-spacing:0px;display:inline;fill:#999999;fill-opacity:1;stroke:none;stroke-width:0.26458332"
       id="text939"
       transform="translate(-0.660236,0.112493)">
      <path
         d="m 139.18399,173.2094 q -0.01,-0.0251 -0.0289,-0.0389 -0.0176,-0.0138 -0.0426,-0.0226 l -0.0953,-0.0389 v -0.0778 h 0.58451 v 0.0778 l -0.18438,0.0539 0.29727,0.70116 0.059,0.17811 h 0.0138 l 0.3324,-0.85293 -0.17435,-0.0803 v -0.0778 h 0.47915 v 0.0778 l -0.0991,0.0615 q -0.0251,0.0125 -0.0439,0.0263 -0.0188,0.0138 -0.0289,0.0364 l -0.34369,0.83914 -0.13672,0.27344 h -0.10787 z"
         style="font-size:2.82222223px;fill:#999999;stroke-width:0.26458332"
         id="path941"
         inkscape:connector-curvature="0" />
      <path
         d="m 141.14323,174.36588 q -0.14048,0 -0.25588,-0.0477 -0.11539,-0.0477 -0.19818,-0.13547 -0.0815,-0.0891 -0.12669,-0.21574 -0.0439,-0.12669 -0.0439,-0.28348 0,-0.1455 0.0439,-0.27093 0.0452,-0.12544 0.12669,-0.21826 0.0828,-0.0928 0.20069,-0.1455 0.11791,-0.0539 0.26592,-0.0539 0.16055,0 0.2772,0.0564 0.11791,0.0564 0.19442,0.15052 0.0778,0.0941 0.1154,0.21825 0.0376,0.12292 0.0376,0.25839 0,0.14299 -0.0439,0.26843 -0.0439,0.12543 -0.12669,0.2195 -0.0815,0.0928 -0.19943,0.14676 -0.11791,0.0527 -0.26718,0.0527 z m 0.0188,-0.11791 q 0.10536,0 0.17435,-0.0514 0.0702,-0.0514 0.11038,-0.13045 0.0414,-0.0803 0.0577,-0.17561 0.0163,-0.0966 0.0163,-0.18564 0,-0.10912 -0.0213,-0.21449 -0.0201,-0.10661 -0.0665,-0.19065 -0.0451,-0.084 -0.1179,-0.13547 -0.0727,-0.0514 -0.17686,-0.0514 -0.0702,0 -0.12418,0.0238 -0.0527,0.0238 -0.0928,0.064 -0.0401,0.0401 -0.0677,0.0941 -0.0263,0.0527 -0.0439,0.11289 -0.0163,0.0602 -0.0238,0.12292 -0.006,0.0627 -0.006,0.12167 0,0.0665 0.008,0.13672 0.008,0.069 0.0251,0.13547 0.0188,0.0652 0.0477,0.12418 0.0289,0.059 0.0715,0.10285 0.0426,0.0439 0.0991,0.0702 0.0577,0.0263 0.1317,0.0263 z"
         style="font-size:2.82222223px;fill:#999999;stroke-width:0.26458332"
         id="path943"
         inkscape:connector-curvature="0" />
      <path
         d="m 141.90933,174.25424 0.11163,-0.0464 q 0.0263,-0.01 0.0502,-0.0289 0.0251,-0.0201 0.0389,-0.0364 l 0.35622,-0.44152 -0.3487,-0.48793 q -0.0151,-0.0226 -0.0351,-0.0389 -0.0201,-0.0176 -0.0489,-0.0263 l -0.11289,-0.0389 v -0.0778 h 0.57198 v 0.0778 l -0.13422,0.0514 0.19568,0.28096 0.069,0.12418 h 0.009 l 0.29351,-0.3926 -0.11916,-0.064 v -0.0778 h 0.44277 v 0.0778 l -0.11163,0.0477 q -0.0263,0.01 -0.0502,0.0289 -0.0226,0.0188 -0.0376,0.0364 l -0.34243,0.42396 0.36125,0.50549 q 0.0163,0.0226 0.0364,0.0401 0.0213,0.0163 0.0489,0.0251 l 0.10913,0.0376 v 0.079 h -0.57197 v -0.079 l 0.13672,-0.0502 -0.20947,-0.29978 -0.069,-0.12292 h -0.009 l -0.30605,0.41016 0.11916,0.0627 v 0.079 h -0.44403 z"
         style="font-size:2.82222223px;fill:#999999;stroke-width:0.26458332"
         id="path945"
         inkscape:connector-curvature="0" />
      <path
         d="m 143.66884,174.29815 q -0.0326,-0.01 -0.069,-0.0289 -0.0351,-0.0188 -0.0652,-0.0477 -0.0301,-0.0289 -0.0502,-0.0677 -0.0188,-0.0401 -0.0188,-0.0916 0,-0.0577 0.0213,-0.10034 0.0226,-0.0439 0.0564,-0.074 0.0339,-0.0314 0.0753,-0.0502 0.0414,-0.0188 0.079,-0.0276 v -0.009 q -0.0389,-0.0226 -0.0778,-0.0539 -0.0389,-0.0326 -0.0702,-0.0765 -0.0301,-0.0439 -0.0502,-0.10035 -0.0188,-0.0577 -0.0188,-0.13045 0,-0.0928 0.0364,-0.17435 0.0376,-0.0815 0.10536,-0.14174 0.0677,-0.0602 0.16306,-0.0941 0.0953,-0.0351 0.21198,-0.0351 0.0753,0 0.14299,0.01 0.0677,0.01 0.13045,0.0263 h 0.44027 l -0.0151,0.15428 -0.3324,-0.0426 v 0.008 q 0.0301,0.0326 0.0539,0.0652 0.0238,0.0326 0.0401,0.069 0.0176,0.0351 0.0263,0.0753 0.009,0.0389 0.009,0.0853 0,0.0928 -0.0351,0.17184 -0.0339,0.079 -0.0991,0.13798 -0.0652,0.0577 -0.16056,0.0903 -0.0941,0.0326 -0.21574,0.0326 -0.0314,0 -0.064,-0.003 -0.0314,-0.004 -0.0602,-0.008 -0.0289,-0.005 -0.0539,-0.0113 -0.0238,-0.006 -0.0401,-0.0126 -0.0188,0.004 -0.0376,0.0151 -0.0176,0.0113 -0.0326,0.0289 -0.0151,0.0163 -0.0251,0.0389 -0.009,0.0226 -0.009,0.0489 0,0.0263 0.009,0.0502 0.009,0.0226 0.0238,0.0401 0.0151,0.0176 0.0339,0.0301 0.0201,0.0113 0.0414,0.0151 h 0.44278 q 0.12543,0 0.20947,0.0301 0.0853,0.0301 0.13672,0.079 0.0527,0.0489 0.074,0.10912 0.0226,0.059 0.0226,0.11791 0,0.10913 -0.0539,0.19944 -0.0527,0.0916 -0.14551,0.15679 -0.0928,0.0665 -0.21825,0.10285 -0.12543,0.0364 -0.26968,0.0364 -0.12417,0 -0.22954,-0.0213 -0.10411,-0.0213 -0.18062,-0.064 -0.0765,-0.0414 -0.12041,-0.10285 -0.0427,-0.0615 -0.0427,-0.14174 0,-0.0652 0.0226,-0.1154 0.0238,-0.0502 0.0615,-0.0878 0.0376,-0.0364 0.0865,-0.0615 0.0502,-0.0251 0.10536,-0.0401 z m 0.31985,-0.52055 q 0.064,0 0.11289,-0.0238 0.0489,-0.0238 0.0815,-0.069 0.0326,-0.0451 0.0489,-0.10912 0.0176,-0.0652 0.0176,-0.14676 0,-0.079 -0.0188,-0.14048 -0.0188,-0.0615 -0.0539,-0.10411 -0.0339,-0.0427 -0.0828,-0.064 -0.0477,-0.0226 -0.10661,-0.0226 -0.0577,0 -0.10411,0.0213 -0.0464,0.0213 -0.0803,0.064 -0.0339,0.0414 -0.0527,0.10411 -0.0176,0.0615 -0.0176,0.143 0,0.0828 0.0176,0.14801 0.0188,0.064 0.0514,0.10912 0.0339,0.0439 0.0815,0.0677 0.0477,0.0226 0.10536,0.0226 z m -0.21449,0.5356 q -0.0238,0.006 -0.0502,0.0238 -0.0263,0.0176 -0.0477,0.0464 -0.0213,0.0289 -0.0351,0.069 -0.0138,0.0414 -0.0138,0.0941 0,0.0527 0.0188,0.0941 0.0188,0.0414 0.0502,0.0715 0.0326,0.0301 0.074,0.0502 0.0414,0.0201 0.0853,0.0326 0.0439,0.0125 0.0866,0.0176 0.0439,0.005 0.0803,0.005 0.0778,0 0.15428,-0.0163 0.0778,-0.0151 0.13797,-0.0514 0.0615,-0.0351 0.0991,-0.0916 0.0376,-0.0552 0.0376,-0.13422 0,-0.0364 -0.0151,-0.074 -0.0138,-0.0376 -0.0451,-0.0677 -0.0301,-0.0301 -0.0803,-0.0489 -0.0489,-0.0201 -0.11665,-0.0201 z"
         style="font-size:2.82222223px;fill:#999999;stroke-width:0.26458332"
         id="path947"
         inkscape:connector-curvature="0" />
      <path
         d="m 144.83179,174.25424 0.16933,-0.0439 q 0.0238,-0.006 0.0376,-0.0213 0.0151,-0.0163 0.0151,-0.0427 v -1.4826 q 0,-0.0289 -0.0163,-0.0464 -0.0163,-0.0188 -0.0464,-0.0288 l -0.16557,-0.0615 v -0.0702 l 0.46535,-0.0477 v 1.73723 q 0,0.0263 0.015,0.0427 0.0163,0.0163 0.0376,0.0213 l 0.16056,0.0439 v 0.079 h -0.67232 z"
         style="font-size:2.82222223px;fill:#999999;stroke-width:0.26458332"
         id="path949"
         inkscape:connector-curvature="0" />
      <path
         d="m 145.98401,172.74655 q -0.0351,0 -0.0665,-0.0113 -0.0301,-0.0125 -0.0539,-0.0326 -0.0226,-0.0201 -0.0364,-0.0489 -0.0138,-0.0301 -0.0138,-0.0665 0,-0.0364 0.0138,-0.0665 0.0138,-0.0301 0.0364,-0.0502 0.0238,-0.0213 0.0539,-0.0326 0.0314,-0.0113 0.0665,-0.0113 0.0376,0 0.0702,0.0113 0.0326,0.01 0.0552,0.0301 0.0238,0.0201 0.0364,0.0489 0.0138,0.0276 0.0138,0.064 0,0.0376 -0.0138,0.0677 -0.0125,0.0301 -0.0364,0.0527 -0.0238,0.0213 -0.0564,0.0339 -0.0326,0.0113 -0.069,0.0113 z m -0.32612,1.50769 0.1731,-0.0439 q 0.0238,-0.006 0.0389,-0.0213 0.0151,-0.0163 0.0151,-0.0427 v -0.85795 q 0,-0.0289 -0.0163,-0.0464 -0.0163,-0.0188 -0.0477,-0.0289 l -0.1593,-0.0552 v -0.0702 l 0.45908,-0.074 v 1.13265 q 0,0.0263 0.0151,0.0427 0.0163,0.0163 0.0376,0.0213 l 0.16683,0.0439 v 0.079 h -0.68235 z"
         style="font-size:2.82222223px;fill:#999999;stroke-width:0.26458332"
         id="path951"
         inkscape:connector-curvature="0" />
      <path
         d="m 146.65956,173.16299 h -0.20947 v -0.0966 q 0.0514,-0.01 0.0928,-0.0188 0.0426,-0.009 0.0727,-0.0276 0.0301,-0.0201 0.0477,-0.0552 0.0188,-0.0351 0.0226,-0.0966 l 0.01,-0.17435 0.20069,-0.0389 v 0.38005 h 0.46034 l -0.0188,0.12795 h -0.44152 v 0.87049 q 0,0.0414 0.0263,0.0703 0.0264,0.0288 0.064,0.0477 0.0389,0.0188 0.0803,0.0276 0.0414,0.008 0.0728,0.008 0.0213,0 0.0477,-0.004 0.0276,-0.005 0.0527,-0.01 0.0251,-0.006 0.0464,-0.0138 0.0226,-0.008 0.0339,-0.0126 h 0.0326 v 0.0891 q -0.0176,0.0113 -0.0539,0.0314 -0.0351,0.0201 -0.0828,0.0401 -0.0464,0.0201 -0.10286,0.0339 -0.0552,0.0151 -0.11163,0.0151 -0.0703,0 -0.13296,-0.0176 -0.0615,-0.0176 -0.10787,-0.0502 -0.0464,-0.0326 -0.074,-0.0803 -0.0276,-0.0489 -0.0276,-0.11164 z"
         style="font-size:2.82222223px;fill:#999999;stroke-width:0.26458332"
         id="path953"
         inkscape:connector-curvature="0" />
      <path
         d="m 148.58823,174.02345 v 0.12418 q -0.0427,0.0376 -0.0966,0.0765 -0.0527,0.0376 -0.11666,0.069 -0.0627,0.0314 -0.13546,0.0502 -0.0728,0.0201 -0.15428,0.0201 -0.13547,0 -0.2446,-0.0502 -0.10912,-0.0502 -0.18564,-0.13798 -0.0765,-0.089 -0.1179,-0.20821 -0.0401,-0.11917 -0.0401,-0.25839 0,-0.10035 0.0238,-0.19192 0.0251,-0.0916 0.0702,-0.17058 0.0452,-0.079 0.10787,-0.143 0.064,-0.0652 0.14049,-0.11038 0.0778,-0.0451 0.16682,-0.0702 0.0891,-0.0251 0.18564,-0.0251 0.074,0 0.13045,0.0125 0.0577,0.0113 0.10035,0.0276 0.0439,0.0151 0.074,0.0326 0.0314,0.0163 0.0552,0.0263 l -0.0201,0.23455 h -0.0464 q -0.0477,-0.0301 -0.0953,-0.0615 -0.0464,-0.0326 -0.0978,-0.0577 -0.0502,-0.0263 -0.10787,-0.0426 -0.0577,-0.0176 -0.1292,-0.0176 -0.0226,0 -0.0489,0.006 -0.0263,0.005 -0.0527,0.0163 -0.0263,0.0113 -0.0489,0.0263 -0.0226,0.0151 -0.0389,0.0339 -0.0201,0.0226 -0.0414,0.0565 -0.0201,0.0326 -0.0376,0.0828 -0.0163,0.0489 -0.0276,0.1154 -0.01,0.0665 -0.01,0.15553 0,0.12795 0.0276,0.22829 0.0276,0.10035 0.0828,0.17059 0.0552,0.0702 0.13672,0.10787 0.0815,0.0364 0.1894,0.0364 0.0602,0 0.11414,-0.0176 0.0552,-0.0176 0.10286,-0.0414 0.0477,-0.0251 0.0865,-0.0539 0.0401,-0.0289 0.069,-0.0514 z"
         style="font-size:2.82222223px;fill:#999999;stroke-width:0.26458332"
         id="path955"
         inkscape:connector-curvature="0" />
      <path
         d="m 148.74492,174.25424 0.14551,-0.0439 q 0.0263,-0.008 0.0389,-0.0226 0.0138,-0.0151 0.0138,-0.0414 v -1.4826 q 0,-0.0289 -0.0163,-0.0464 -0.0163,-0.0176 -0.0464,-0.0288 l -0.14425,-0.0615 v -0.0702 l 0.44278,-0.0477 v 0.73879 0.0677 q 0.0552,-0.0727 0.10787,-0.1154 0.0539,-0.0439 0.10536,-0.0665 0.0527,-0.0238 0.10286,-0.0314 0.0514,-0.008 0.1016,-0.008 0.0865,0 0.16181,0.0263 0.0765,0.0251 0.13295,0.079 0.0577,0.0539 0.0903,0.13923 0.0326,0.0853 0.0326,0.2032 v 0.6974 q 0,0.0314 0.0151,0.0477 0.0151,0.0163 0.0364,0.0226 l 0.13296,0.0439 v 0.079 h -0.60458 v -0.079 l 0.13296,-0.0439 q 0.0213,-0.006 0.0364,-0.0226 0.0151,-0.0163 0.0151,-0.0477 v -0.59956 q 0,-0.0878 -0.0113,-0.15554 -0.01,-0.069 -0.0414,-0.11665 -0.0314,-0.0489 -0.0878,-0.074 -0.0552,-0.0251 -0.1455,-0.0251 -0.0414,0 -0.084,0.006 -0.0426,0.006 -0.084,0.0213 -0.0414,0.0151 -0.079,0.0401 -0.0376,0.0251 -0.0665,0.0615 v 0.84792 q 0,0.0263 0.0138,0.0414 0.0151,0.0151 0.0389,0.0226 l 0.11791,0.0439 v 0.079 h -0.60459 z"
         style="font-size:2.82222223px;fill:#999999;stroke-width:0.26458332"
         id="path957"
         inkscape:connector-curvature="0" />
    </g>
  </g>
</svg>
