<?xml version="1.0" encoding="UTF-8" standalone="no"?>
<svg
   sodipodi:docname="scalar110_front_panel.svg"
   inkscape:version="1.1.1 (3bf5ae0d25, 2021-09-20)"
   id="svg8"
   version="1.1"
   viewBox="0 0 223.52001 128.5"
   height="128.5mm"
   width="223.52mm"
   xmlns:inkscape="http://www.inkscape.org/namespaces/inkscape"
   xmlns:sodipodi="http://sodipodi.sourceforge.net/DTD/sodipodi-0.dtd"
   xmlns="http://www.w3.org/2000/svg"
   xmlns:svg="http://www.w3.org/2000/svg"
   xmlns:rdf="http://www.w3.org/1999/02/22-rdf-syntax-ns#"
   xmlns:cc="http://creativecommons.org/ns#"
   xmlns:dc="http://purl.org/dc/elements/1.1/">
  <defs
     id="defs2">
    <rect
       x="48.436813"
       y="437.69907"
       width="67.17514"
       height="20.506096"
       id="rect32152" />
    <rect
       x="214.25334"
       y="55.507881"
       width="181.72643"
       height="27.22361"
       id="rect29580" />
    <rect
       x="81.67083"
       y="79.903061"
       width="50.911686"
       height="27.22361"
       id="rect26191" />
    <rect
       x="458.91229"
       y="86.974129"
       width="70.710678"
       height="18.031221"
       id="rect23047" />
    <rect
       x="514.5"
       y="125.49999"
       width="76.249992"
       height="34.499996"
       id="rect5909" />
    <rect
       id="rect1008"
       height="4.8643055"
       width="14.078422"
       y="118.52067"
       x="195.2738" />
    <rect
       x="219.59534"
       y="12.628485"
       width="8.6060791"
       height="4.3030396"
       id="rect1686" />
    <rect
       x="195.2738"
       y="118.52067"
       width="14.078422"
       height="4.8643055"
       id="rect1008-5" />
    <rect
       x="195.2738"
       y="118.52067"
       width="14.078422"
       height="4.8643055"
       id="rect1023" />
    <rect
       id="rect1008-5-4"
       height="4.8643055"
       width="14.078422"
       y="118.52067"
       x="195.2738" />
    <rect
       id="rect1062"
       height="4.8643055"
       width="14.078422"
       y="118.52067"
       x="195.2738" />
    <rect
       x="514.5"
       y="125.49999"
       width="76.249992"
       height="34.499996"
       id="rect5909-1" />
    <rect
       x="514.5"
       y="125.49999"
       width="76.249992"
       height="34.499996"
       id="rect5909-8" />
    <rect
       x="514.5"
       y="125.49999"
       width="76.249992"
       height="34.499996"
       id="rect5909-8-6" />
    <rect
       x="81.67083"
       y="79.903061"
       width="50.911686"
       height="27.22361"
       id="rect26191-3" />
    <rect
       x="48.436813"
       y="437.69907"
       width="67.17514"
       height="20.506096"
       id="rect32152-1" />
    <rect
       x="48.436813"
       y="437.69907"
       width="67.17514"
       height="20.506096"
       id="rect32152-1-3" />
    <rect
       x="48.436813"
       y="437.69907"
       width="67.17514"
       height="20.506096"
       id="rect32152-1-3-3" />
    <rect
       x="48.436813"
       y="437.69907"
       width="67.17514"
       height="20.506096"
       id="rect32152-1-3-3-0" />
    <rect
       x="48.436813"
       y="437.69907"
       width="78.135292"
       height="16.617008"
       id="rect32152-1-3-3-0-5" />
    <rect
       x="48.436813"
       y="437.69907"
       width="67.17514"
       height="20.506096"
       id="rect32152-1-3-3-0-0" />
    <rect
       x="48.436813"
       y="437.69907"
       width="67.17514"
       height="20.506096"
       id="rect32152-1-3-3-0-0-2" />
  </defs>
  <sodipodi:namedview
     inkscape:guide-bbox="true"
     showguides="true"
     inkscape:window-maximized="1"
     inkscape:window-y="-11"
     inkscape:window-x="2869"
     inkscape:window-height="2066"
     inkscape:window-width="3840"
     showgrid="false"
     inkscape:document-rotation="0"
     inkscape:current-layer="layer1"
     inkscape:document-units="mm"
     inkscape:cy="290.26732"
     inkscape:cx="394.21201"
     inkscape:zoom="2.8284273"
     inkscape:pageshadow="2"
     inkscape:pageopacity="1"
     borderopacity="1.0"
     bordercolor="#666666"
     pagecolor="#ffffff"
     id="base"
     inkscape:pagecheckerboard="0"
     width="223.52mm" />
  <metadata
     id="metadata5">
    <rdf:RDF>
      <cc:Work
         rdf:about="">
        <dc:format>image/svg+xml</dc:format>
        <dc:type
           rdf:resource="http://purl.org/dc/dcmitype/StillImage" />
      </cc:Work>
    </rdf:RDF>
  </metadata>
  <g
     id="layer1"
     inkscape:groupmode="layer"
     inkscape:label="Layer 1">
    <rect
       style="fill:#f9f9f9;fill-rule:evenodd;stroke-width:0.265214;stroke-linejoin:round"
       id="rect68744"
       width="223.52"
       height="128.5"
       x="0"
       y="0" />
    <rect
       height="0"
       width="0"
       y="4.4099455"
       x="1.7372522"
       id="rect833"
       style="fill:#808080;stroke-width:0;stroke-linejoin:round;stroke-opacity:0.130919" />
    <text
       xml:space="preserve"
       id="text1684"
       style="font-size:4.23333px;line-height:1.25;font-family:'Share Tech Mono';-inkscape-font-specification:'Share Tech Mono, Normal';letter-spacing:0px;word-spacing:0px;white-space:pre;shape-inside:url(#rect1686)" />
    <rect
       style="fill:#cccccc;fill-rule:evenodd;stroke-width:0.0593534;stroke-linejoin:round"
       id="rect1762-9-4-1-2"
       width="22.98173"
       height="10.211159"
       x="7.4050899"
       y="113.04091" />
    <rect
       style="fill:#cccccc;fill-rule:evenodd;stroke-width:0.0593534;stroke-linejoin:round"
       id="rect1762-9-4-1-2-8"
       width="22.98173"
       height="10.211159"
       x="33.316868"
       y="113.13445" />
    <rect
       style="fill:#cccccc;fill-rule:evenodd;stroke-width:0.0593534;stroke-linejoin:round"
       id="rect1762-9-4-1-2-8-8"
       width="22.98173"
       height="10.211159"
       x="59.602825"
       y="113.32155" />
    <rect
       style="fill:#cccccc;fill-rule:evenodd;stroke-width:0.0593534;stroke-linejoin:round"
       id="rect1762-9-4-1-2-8-8-5"
       width="22.98173"
       height="10.211159"
       x="85.795235"
       y="113.13445" />
    <rect
       style="fill:#cccccc;fill-rule:evenodd;stroke-width:0.0593534;stroke-linejoin:round"
       id="rect1762-9-4-1-2-8-8-5-3"
       width="22.98173"
       height="10.211159"
       x="111.80056"
       y="113.32154" />
    <rect
       style="fill:#cccccc;fill-rule:evenodd;stroke-width:0.0593534;stroke-linejoin:round"
       id="rect1762-9-4-1-2-8-8-5-3-9"
       width="22.98173"
       height="10.211159"
       x="137.99297"
       y="113.13445" />
    <rect
       style="fill:#cccccc;fill-rule:evenodd;stroke-width:0.0593534;stroke-linejoin:round"
       id="rect1762-9-4-1-2-8-8-5-3-9-3"
       width="22.98173"
       height="10.211159"
       x="164.18539"
       y="113.32156" />
    <rect
       style="fill:#cccccc;fill-rule:evenodd;stroke-width:0.0593534;stroke-linejoin:round"
       id="rect1762-9-4-1-2-8-8-5-3-9-3-7"
       width="22.98173"
       height="10.211159"
       x="190.1907"
       y="113.228" />
    <text
       xml:space="preserve"
       transform="matrix(0.26458333,0,0,0.26458333,0.25770479,13.583795)"
       id="text5907-4"
       style="font-size:16px;line-height:1.25;font-family:'Share Tech Mono';-inkscape-font-specification:'Share Tech Mono, Normal';letter-spacing:0px;word-spacing:0px;white-space:pre;shape-inside:url(#rect5909-1)"><tspan
         x="514.5"
         y="140.06433"
         id="tspan70201">
</tspan><tspan
         x="514.5"
         y="174.56433"
         id="tspan70205"><tspan
           dx="0 8.6399841 8.6399841 8.6399841 8.6399841 8.6399841"
           id="tspan70203">CSnare</tspan></tspan></text>
    <text
       xml:space="preserve"
       transform="matrix(0.26458333,0,0,0.26458333,26.405231,1.7443286)"
       id="text26189-3"
       style="font-size:16px;line-height:1.25;font-family:'Share Tech Mono';-inkscape-font-specification:'Share Tech Mono, Normal';letter-spacing:0px;word-spacing:0px;white-space:pre;shape-inside:url(#rect26191-3)"><tspan
         x="81.669922"
         y="121.69128"
         id="tspan70209"><tspan
           dx="0 8.6399841 8.6399841 8.6399841 8.6399841 8.6399841 8.6399841 8.6399841 8.6399841 8.6399841 8.6399841 8.6399841 8.6399841"
           id="tspan70207">Global Memory</tspan></tspan></text>
    <g
       id="g70065"
       transform="translate(0,-10.000316)">
      <rect
         style="fill:#cccccc;fill-rule:evenodd;stroke-width:0.264999;stroke-linejoin:round"
         id="rect1762"
         width="93.794785"
         height="49.873955"
         x="119.45937"
         y="29.501036" />
      <rect
         style="fill:#cccccc;fill-rule:evenodd;stroke-width:0.230511;stroke-linejoin:round"
         id="rect1762-9"
         width="70.969971"
         height="49.873955"
         x="45.15023"
         y="29.412277" />
      <rect
         style="fill:#cccccc;fill-rule:evenodd;stroke-width:0.160689;stroke-linejoin:round"
         id="rect1762-9-4"
         width="34.487682"
         height="49.873955"
         x="6.8905954"
         y="29.412279" />
      <rect
         style="fill:#808080;fill-rule:evenodd;stroke-width:0.264999;stroke-linejoin:round"
         id="rect1568"
         width="8.302062"
         height="8.3985929"
         x="124.81152"
         y="34.351162" />
      <rect
         style="fill:#808080;fill-rule:evenodd;stroke-width:0.264999;stroke-linejoin:round"
         id="rect1568-3"
         width="8.302062"
         height="8.3985929"
         x="124.79983"
         y="44.747776" />
      <rect
         style="fill:#808080;fill-rule:evenodd;stroke-width:0.264999;stroke-linejoin:round"
         id="rect1568-3-3"
         width="8.302062"
         height="8.3985929"
         x="124.79983"
         y="55.271511"
         inkscape:transform-center-x="-1.3797789"
         inkscape:transform-center-y="-9.9624714" />
      <rect
         style="fill:#808080;fill-rule:evenodd;stroke-width:0.264999;stroke-linejoin:round"
         id="rect1568-3-3-1"
         width="8.302062"
         height="8.3985929"
         x="124.82322"
         y="65.842026"
         inkscape:transform-center-x="-1.3797789"
         inkscape:transform-center-y="-9.9624714" />
      <rect
         style="fill:#808080;fill-rule:evenodd;stroke-width:0.264999;stroke-linejoin:round"
         id="rect1738"
         width="8.302062"
         height="8.3985929"
         x="124.82322"
         y="65.842026"
         inkscape:transform-center-x="-1.3797789"
         inkscape:transform-center-y="-9.9624714" />
      <rect
         style="fill:#808080;fill-rule:evenodd;stroke-width:0.264999;stroke-linejoin:round"
         id="rect1568-8"
         width="8.302062"
         height="8.3985929"
         x="167.96042"
         y="34.49329" />
      <rect
         style="fill:#808080;fill-rule:evenodd;stroke-width:0.264999;stroke-linejoin:round"
         id="rect1568-3-9"
         width="8.302062"
         height="8.3985929"
         x="167.94872"
         y="44.889904" />
      <rect
         style="fill:#808080;fill-rule:evenodd;stroke-width:0.264999;stroke-linejoin:round"
         id="rect1568-3-3-9"
         width="8.302062"
         height="8.3985929"
         x="167.94872"
         y="55.413635"
         inkscape:transform-center-x="-1.3797789"
         inkscape:transform-center-y="-9.9624714" />
      <rect
         style="fill:#808080;fill-rule:evenodd;stroke-width:0.264999;stroke-linejoin:round"
         id="rect1738-1"
         width="8.302062"
         height="8.3985929"
         x="167.97211"
         y="65.984154"
         inkscape:transform-center-x="-1.3797789"
         inkscape:transform-center-y="-9.9624714" />
      <g
         aria-label="Track"
         transform="matrix(0.26458333,0,0,0.26458333,0.84189897,0)"
         id="text23045"
         style="font-size:16px;line-height:1.25;font-family:'Share Tech Mono';-inkscape-font-specification:'Share Tech Mono, Normal';letter-spacing:0px;word-spacing:0px;white-space:pre;shape-inside:url(#rect23047)">
        <path
           d="m 462.52811,101.53894 v -9.984001 h -2.544 v -1.216 h 6.48 v 1.216 h -2.544 v 9.984001 z"
           id="path69404" />
        <path
           d="m 470.32009,100.33894 v -5.600001 h -1.168 v -1.2 h 2.448 v 0.432 q 0.528,-0.432 1.28,-0.432 h 1.648 v 1.28 h -1.808 q -0.512,0 -0.768,0.336 -0.256,0.32 -0.272,0.656 v 4.528001 h 1.744 v 1.2 h -4.272 v -1.2 z"
           id="path69406" />
        <path
           d="m 482.86408,101.53894 q -0.208,0 -0.464,-0.128 -0.24,-0.128 -0.416,-0.352 -0.368,0.48 -0.976,0.48 h -1.424 q -1.216,0 -1.776,-0.48 -0.544,-0.496 -0.544,-1.680001 v -0.32 q 0,-2.48 2.336,-2.48 h 1.984 v -0.8 q 0,-0.496 -0.304,-0.768 -0.304,-0.272 -0.896,-0.272 h -2.48 v -1.2 h 2.32 q 1.392,0 2.048,0.608 0.672,0.608 0.672,1.952 v 3.84 q 0,0.240001 0.176,0.368001 0.192,0.112 0.624,0.112 v 1.12 z m -2.016,-1.2 q 0.48,0 0.608,-0.224 0.128,-0.224001 0.128,-0.576001 v -1.76 h -2 q -0.416,0 -0.688,0.272 -0.272,0.272 -0.272,0.688 v 0.8 q 0,0.416 0.192,0.608001 0.192,0.192 0.608,0.192 z"
           id="path69408" />
        <path
           d="m 489.47206,101.53894 q -1.408,0 -2.064,-0.592 -0.656,-0.608 -0.656,-1.968001 v -2.88 q 0,-1.344 0.656,-1.952 0.672,-0.608 2.064,-0.608 h 2.064 v 1.2 h -2.224 q -0.592,0 -0.896,0.272 -0.304,0.272 -0.304,0.768 v 3.52 q 0,0.496 0.304,0.768001 0.304,0.272 0.896,0.272 h 2.224 v 1.2 z"
           id="path69410" />
        <path
           d="m 496.36805,98.114939 v 3.424001 h -1.36 V 90.338939 h 1.36 v 6.048 l 2.512,-2.848 h 1.712 l -2.784,3.152 3.008,4.848001 h -1.68 l -2.352,-3.904001 z"
           id="path69412" />
      </g>
      <g
         aria-label="Clock"
         transform="matrix(0.26458333,0,0,0.26458333,-11.973674,1.7773423)"
         id="text26189"
         style="font-size:16px;line-height:1.25;font-family:'Share Tech Mono';-inkscape-font-specification:'Share Tech Mono, Normal';letter-spacing:0px;word-spacing:0px;white-space:pre;shape-inside:url(#rect26191)">
        <path
           d="m 86.293922,94.466674 q -1.392,0 -2.144,-0.672 -0.736,-0.688 -0.736,-2.048 v -5.76 q 0,-1.36 0.736,-2.032 0.752,-0.688 2.144,-0.688 h 2.272 v 1.216 h -2.432 q -0.592,0 -0.96,0.352 -0.368,0.352 -0.368,0.848 v 6.368 q 0,0.496 0.368,0.848 0.368,0.352 0.96,0.352 h 2.432 v 1.216 z"
           id="path69415" />
        <path
           d="m 95.141906,94.466674 q -0.544,0 -0.96,-0.384 -0.4,-0.384 -0.4,-1.216 v -8.4 h -2.352 v -1.2 h 3.712 v 9.52 q 0,0.256 0.128,0.368 0.128,0.112 0.432,0.112 h 2.128 v 1.2 z"
           id="path69417" />
        <path
           d="m 106.24589,91.906674 q 0,1.344 -0.672,1.952 -0.656,0.608 -2.048,0.608 h -0.528 q -1.392,0 -2.064,-0.608 -0.656,-0.608 -0.656,-1.952 v -2.88 q 0,-1.344 0.656,-1.952 0.672,-0.608 2.064,-0.608 h 0.528 q 1.392,0 2.048,0.608 0.672,0.608 0.672,1.952 z m -1.36,-3.2 q 0,-0.496 -0.304,-0.768 -0.304,-0.272 -0.896,-0.272 h -0.848 q -0.592,0 -0.896,0.272 -0.304,0.272 -0.304,0.768 v 3.52 q 0,0.496 0.304,0.768 0.304,0.272 0.896,0.272 h 0.848 q 0.592,0 0.896,-0.272 0.304,-0.272 0.304,-0.768 z"
           id="path69419" />
        <path
           d="m 112.22987,94.466674 q -1.408,0 -2.064,-0.592 -0.656,-0.608 -0.656,-1.968 v -2.88 q 0,-1.344 0.656,-1.952 0.672,-0.608 2.064,-0.608 h 2.064 v 1.2 h -2.224 q -0.592,0 -0.896,0.272 -0.304,0.272 -0.304,0.768 v 3.52 q 0,0.496 0.304,0.768 0.304,0.272 0.896,0.272 h 2.224 v 1.2 z"
           id="path69421" />
        <path
           d="m 119.12586,91.042674 v 3.424 h -1.36 v -11.2 h 1.36 v 6.048 l 2.512,-2.848 h 1.712 l -2.784,3.152 3.008,4.848 h -1.68 l -2.352,-3.904 z"
           id="path69423" />
      </g>
      <g
         aria-label="Global Memory"
         transform="matrix(0.26458333,0,0,0.26458333,-8.512534,8.231901)"
         id="text29578"
         style="font-size:16px;line-height:1.25;font-family:'Share Tech Mono';-inkscape-font-specification:'Share Tech Mono, Normal';letter-spacing:0px;word-spacing:0px;white-space:pre;shape-inside:url(#rect29580)">
        <path
           d="m 218.63791,70.072143 q -1.392,0 -2.144,-0.672 -0.736,-0.688 -0.736,-2.048 v -5.76 q 0,-1.36 0.736,-2.032 0.752,-0.688 2.144,-0.688 h 2.256 v 1.216 h -2.416 q -0.592,0 -0.96,0.352 -0.368,0.352 -0.368,0.848 v 6.368 q 0,0.496 0.368,0.848 0.368,0.352 0.96,0.352 h 1.568 v -3.472 h -1.392 v -1.2 h 2.72 v 5.888 z"
           id="path69426" />
        <path
           d="m 227.72589,70.072143 q -0.544,0 -0.96,-0.384 -0.4,-0.384 -0.4,-1.216 v -8.4 h -2.352 v -1.2 h 3.712 v 9.52 q 0,0.256 0.128,0.368 0.128,0.112 0.432,0.112 h 2.128 v 1.2 z"
           id="path69428" />
        <path
           d="m 238.82987,67.512143 q 0,1.344 -0.672,1.952 -0.656,0.608 -2.048,0.608 h -0.528 q -1.392,0 -2.064,-0.608 -0.656,-0.608 -0.656,-1.952 v -2.88 q 0,-1.344 0.656,-1.952 0.672,-0.608 2.064,-0.608 h 0.528 q 1.392,0 2.048,0.608 0.672,0.608 0.672,1.952 z m -1.36,-3.2 q 0,-0.496 -0.304,-0.768 -0.304,-0.272 -0.896,-0.272 h -0.848 q -0.592,0 -0.896,0.272 -0.304,0.272 -0.304,0.768 v 3.52 q 0,0.496 0.304,0.768 0.304,0.272 0.896,0.272 h 0.848 q 0.592,0 0.896,-0.272 0.304,-0.272 0.304,-0.768 z"
           id="path69430" />
        <path
           d="m 247.42186,67.512143 q 0,1.344 -0.672,1.952 -0.656,0.608 -2.048,0.608 h -3.136 v -11.2 h 1.36 v 3.52 q 0.48,-0.32 1.2,-0.32 h 0.576 q 1.408,0 2.064,0.608 0.656,0.592 0.656,1.952 z m -3.456,-4.24 q -0.528,0 -0.784,0.288 -0.256,0.272 -0.256,0.592 v 4.72 h 1.936 q 0.592,0 0.896,-0.272 0.304,-0.272 0.304,-0.768 v -3.52 q 0,-0.496 -0.304,-0.768 -0.304,-0.272 -0.896,-0.272 z"
           id="path69432" />
        <path
           d="m 255.48584,70.072143 q -0.208,0 -0.464,-0.128 -0.24,-0.128 -0.416,-0.352 -0.368,0.48 -0.976,0.48 h -1.424 q -1.216,0 -1.776,-0.48 -0.544,-0.496 -0.544,-1.68 v -0.32 q 0,-2.48 2.336,-2.48 h 1.984 v -0.8 q 0,-0.496 -0.304,-0.768 -0.304,-0.272 -0.896,-0.272 h -2.48 v -1.2 h 2.32 q 1.392,0 2.048,0.608 0.672,0.608 0.672,1.952 v 3.84 q 0,0.24 0.176,0.368 0.192,0.112 0.624,0.112 v 1.12 z m -2.016,-1.2 q 0.48,0 0.608,-0.224 0.128,-0.224 0.128,-0.576 v -1.76 h -2 q -0.416,0 -0.688,0.272 -0.272,0.272 -0.272,0.688 v 0.8 q 0,0.416 0.192,0.608 0.192,0.192 0.608,0.192 z"
           id="path69434" />
        <path
           d="m 262.28583,70.072143 q -0.544,0 -0.96,-0.384 -0.4,-0.384 -0.4,-1.216 v -8.4 h -2.352 v -1.2 h 3.712 v 9.52 q 0,0.256 0.128,0.368 0.128,0.112 0.432,0.112 h 2.128 v 1.2 z"
           id="path69436" />
        <path
           d="m 279.6938,66.312143 h -1.328 l -1.568,-6.288 v 10.048 h -1.216 v -11.2 h 2.224 l 1.28,5.728 1.296,-5.728 h 2.16 v 11.2 h -1.248 v -10.048 z"
           id="path69438" />
        <path
           d="m 287.59778,70.072143 q -1.408,0 -2.064,-0.592 -0.656,-0.608 -0.656,-1.968 v -2.88 q 0,-1.376 0.592,-1.968 0.592,-0.592 1.968,-0.592 h 0.752 q 1.136,0 1.712,0.64 0.592,0.624 0.592,1.84 v 2.08 h -4.256 v 1.2 q 0,0.496 0.304,0.768 0.304,0.272 0.896,0.272 h 2.544 v 1.2 z m 1.568,-5.84 q 0,-0.416 -0.272,-0.688 -0.272,-0.272 -0.688,-0.272 h -0.928 q -0.576,0 -0.816,0.272 -0.224,0.256 -0.224,0.768 v 1.12 h 2.928 z"
           id="path69440" />
        <path
           d="m 293.90176,62.072143 v 0.368 q 0.416,-0.368 0.992,-0.368 h 0.096 q 1.12,0 1.584,0.64 0.528,-0.64 1.392,-0.64 h 0.096 q 0.976,0 1.44,0.496 0.464,0.496 0.464,1.76 v 5.744 h -1.28 v -5.76 q 0,-0.656 -0.144,-0.912 -0.128,-0.256 -0.608,-0.256 h -0.096 q -0.48,0 -0.672,0.336 -0.176,0.32 -0.192,0.72 v 5.872 h -1.28 v -5.76 q 0,-0.672 -0.16,-0.912 -0.16,-0.256 -0.576,-0.256 h -0.096 q -0.48,0 -0.672,0.288 -0.192,0.272 -0.208,0.624 v 6.016 h -1.28 v -8 z"
           id="path69442" />
        <path
           d="m 307.94975,67.512143 q 0,1.344 -0.672,1.952 -0.656,0.608 -2.048,0.608 h -0.528 q -1.392,0 -2.064,-0.608 -0.656,-0.608 -0.656,-1.952 v -2.88 q 0,-1.344 0.656,-1.952 0.672,-0.608 2.064,-0.608 h 0.528 q 1.392,0 2.048,0.608 0.672,0.608 0.672,1.952 z m -1.36,-3.2 q 0,-0.496 -0.304,-0.768 -0.304,-0.272 -0.896,-0.272 h -0.848 q -0.592,0 -0.896,0.272 -0.304,0.272 -0.304,0.768 v 3.52 q 0,0.496 0.304,0.768 0.304,0.272 0.896,0.272 h 0.848 q 0.592,0 0.896,-0.272 0.304,-0.272 0.304,-0.768 z"
           id="path69444" />
        <path
           d="m 312.06173,68.872143 v -5.6 h -1.168 v -1.2 h 2.448 v 0.432 q 0.528,-0.432 1.28,-0.432 h 1.648 v 1.28 h -1.808 q -0.512,0 -0.768,0.336 -0.256,0.32 -0.272,0.656 v 4.528 h 1.744 v 1.2 h -4.272 v -1.2 z"
           id="path69446" />
        <path
           d="m 320.81372,71.592143 q 0.384,0 0.576,-0.144 0.192,-0.144 0.288,-0.496 l 0.224,-0.88 h -0.32 l -2.64,-8 h 1.472 l 2,6.704 1.744,-6.704 h 1.392 l -2.48,8.864 q -0.208,0.816 -0.512,1.216 -0.304,0.4 -0.688,0.512 -0.368,0.128 -0.96,0.128 h -0.768 v -1.2 z"
           id="path69448" />
      </g>
    </g>
    <g
       aria-label="VOLUME"
       transform="matrix(0.26458333,0,0,0.26458333,-2.7234373,0.74229927)"
       id="text32150"
       style="font-size:13.3333px;line-height:1.25;font-family:'Share Tech Mono';-inkscape-font-specification:'Share Tech Mono, Normal';text-align:center;letter-spacing:0px;word-spacing:0px;text-anchor:middle;white-space:pre;shape-inside:url(#rect32152)">
      <path
         d="m 61.171173,440.50282 h 1.17333 l 1.599996,8.15998 1.719996,-8.15998 h 1.146664 l -2.093328,9.33331 h -1.586663 z"
         style="font-size:13.3333px;line-height:1.25;font-family:'Share Tech Mono';-inkscape-font-specification:'Share Tech Mono, Normal';text-align:center;letter-spacing:0px;word-spacing:0px;text-anchor:middle;white-space:pre;shape-inside:url(#rect32152)"
         id="path69130" />
      <path
         d="m 73.891128,447.56947 q 0,1.13333 -0.626665,1.70666 -0.613332,0.56 -1.773329,0.56 h -0.533332 q -1.159997,0 -1.786662,-0.56 -0.613332,-0.57333 -0.613332,-1.70666 v -4.79999 q 0,-1.13333 0.613332,-1.69333 0.626665,-0.57333 1.786662,-0.57333 h 0.533332 q 1.159997,0 1.773329,0.57333 0.626665,0.56 0.626665,1.69333 z m -1.159997,-5.05332 q 0,-0.41333 -0.306666,-0.70667 -0.306666,-0.29333 -0.799998,-0.29333 h -0.799998 q -0.493332,0 -0.799998,0.29333 -0.306666,0.29334 -0.306666,0.70667 v 5.30665 q 0,0.41333 0.306666,0.70667 0.306666,0.29333 0.799998,0.29333 h 0.799998 q 0.493332,0 0.799998,-0.29333 0.306666,-0.29334 0.306666,-0.70667 z"
         style="font-size:13.3333px;line-height:1.25;font-family:'Share Tech Mono';-inkscape-font-specification:'Share Tech Mono, Normal';text-align:center;letter-spacing:0px;word-spacing:0px;text-anchor:middle;white-space:pre;shape-inside:url(#rect32152)"
         id="path69132" />
      <path
         d="m 77.517772,440.50282 v 8.31998 h 2.973326 v 1.01333 h -4.133323 v -9.33331 z"
         style="font-size:13.3333px;line-height:1.25;font-family:'Share Tech Mono';-inkscape-font-specification:'Share Tech Mono, Normal';text-align:center;letter-spacing:0px;word-spacing:0px;text-anchor:middle;white-space:pre;shape-inside:url(#rect32152)"
         id="path69134" />
      <path
         d="m 88.1844,447.56947 q 0,1.13333 -0.626665,1.70666 -0.613332,0.56 -1.773329,0.56 h -0.333333 q -1.159997,0 -1.786662,-0.56 -0.613332,-0.57333 -0.613332,-1.70666 v -7.06665 h 1.159997 v 7.31998 q 0,0.41333 0.306666,0.70667 0.306666,0.29333 0.799998,0.29333 h 0.599999 q 0.493332,0 0.799998,-0.29333 0.306666,-0.29334 0.306666,-0.70667 v -7.31998 H 88.1844 Z"
         style="font-size:13.3333px;line-height:1.25;font-family:'Share Tech Mono';-inkscape-font-specification:'Share Tech Mono, Normal';text-align:center;letter-spacing:0px;word-spacing:0px;text-anchor:middle;white-space:pre;shape-inside:url(#rect32152)"
         id="path69136" />
      <path
         d="m 93.357706,446.7028 h -1.106663 l -1.306664,-5.23998 v 8.37331 h -1.013331 v -9.33331 h 1.853329 l 1.066664,4.77332 1.079997,-4.77332 h 1.799996 v 9.33331 h -1.039998 v -8.37331 z"
         style="font-size:13.3333px;line-height:1.25;font-family:'Share Tech Mono';-inkscape-font-specification:'Share Tech Mono, Normal';text-align:center;letter-spacing:0px;word-spacing:0px;text-anchor:middle;white-space:pre;shape-inside:url(#rect32152)"
         id="path69138" />
      <path
         d="m 102.251,440.50282 v 0.97333 h -3.293321 v 3.05333 h 2.959991 v 0.97333 h -2.959991 v 3.35999 H 102.251 v 0.97333 h -4.453318 v -9.33331 z"
         style="font-size:13.3333px;line-height:1.25;font-family:'Share Tech Mono';-inkscape-font-specification:'Share Tech Mono, Normal';text-align:center;letter-spacing:0px;word-spacing:0px;text-anchor:middle;white-space:pre;shape-inside:url(#rect32152)"
         id="path69140" />
    </g>
    <g
       aria-label="PAN"
       transform="matrix(0.26458333,0,0,0.26458333,23.087799,0.74229927)"
       id="text32150-0"
       style="font-size:13.3333px;line-height:1.25;font-family:'Share Tech Mono';-inkscape-font-specification:'Share Tech Mono, Normal';text-align:center;letter-spacing:0px;word-spacing:0px;white-space:pre;shape-inside:url(#rect32152-1)">
      <path
         d="m 77.237779,444.10281 q 0,1.08 -0.573332,1.6 -0.573331,0.50666 -1.693329,0.50666 h -1.386663 v 3.62666 h -1.159997 v -9.33331 h 2.519994 q 1.13333,0 1.706662,0.50667 0.586665,0.49333 0.586665,1.57332 z m -1.159997,-1.63999 q 0,-0.50667 -0.239999,-0.73334 -0.226666,-0.22666 -0.733332,-0.22666 h -1.519996 v 3.70665 h 1.519996 q 0.506666,0 0.733332,-0.22666 0.239999,-0.24 0.239999,-0.74667 z"
         id="path69143" />
      <path
         d="m 80.731091,447.47614 -0.519999,2.35999 h -1.186664 l 2.253328,-9.33331 h 1.53333 l 2.213327,9.33331 H 83.83775 l -0.506666,-2.35999 z m 2.38666,-1 -1.09333,-5.09332 -1.079997,5.09332 z"
         id="path69145" />
      <path
         d="m 87.757727,449.83613 h -1.079998 v -9.33331 h 1.893329 l 2.106661,8.34665 v -8.34665 h 1.079998 v 9.33331 h -1.906662 l -2.093328,-8.34665 z"
         id="path69147" />
    </g>
    <g
       aria-label="PITCH"
       transform="matrix(0.26458333,0,0,0.26458333,49.373757,0.74229927)"
       id="text32150-0-5"
       style="font-size:13.3333px;line-height:1.25;font-family:'Share Tech Mono';-inkscape-font-specification:'Share Tech Mono, Normal';text-align:center;letter-spacing:0px;word-spacing:0px;white-space:pre;shape-inside:url(#rect32152-1-3)">
      <path
         d="m 70.037811,444.10281 q 0,1.08 -0.573332,1.6 -0.573332,0.50666 -1.693329,0.50666 h -1.386663 v 3.62666 H 65.22449 v -9.33331 h 2.519993 q 1.133331,0 1.706663,0.50667 0.586665,0.49333 0.586665,1.57332 z m -1.159997,-1.63999 q 0,-0.50667 -0.24,-0.73334 -0.226666,-0.22666 -0.733331,-0.22666 h -1.519996 v 3.70665 h 1.519996 q 0.506665,0 0.733331,-0.22666 0.24,-0.24 0.24,-0.74667 z"
         id="path69150" />
      <path
         d="m 74.237787,448.8628 v -7.38665 H 73.03779 v -0.97333 h 3.559991 v 0.97333 h -1.199997 v 7.38665 h 1.199997 v 0.97333 H 73.03779 v -0.97333 z"
         id="path69152" />
      <path
         d="m 81.437756,449.83613 v -8.31998 h -2.119995 v -1.01333 h 5.399987 v 1.01333 h -2.119995 v 8.31998 z"
         id="path69154" />
      <path
         d="m 89.477723,449.83613 q -1.159997,0 -1.786662,-0.56 -0.613332,-0.57333 -0.613332,-1.70666 v -4.79999 q 0,-1.13333 0.613332,-1.69333 0.626665,-0.57333 1.786662,-0.57333 h 1.893329 v 1.01333 H 89.34439 q -0.493332,0 -0.799998,0.29333 -0.306666,0.29334 -0.306666,0.70667 v 5.30665 q 0,0.41333 0.306666,0.70667 0.306666,0.29333 0.799998,0.29333 h 2.026662 v 1.01333 z"
         id="path69156" />
      <path
         d="m 95.051029,445.54281 v 4.29332 h -1.159997 v -9.33331 h 1.159997 v 4.05332 h 2.74666 v -4.05332 h 1.159997 v 9.33331 h -1.159997 v -4.29332 z"
         id="path69158" />
    </g>
    <g
       aria-label="RATCHET"
       transform="matrix(0.26458333,0,0,0.26458333,75.580277,0.74229927)"
       id="text32150-0-5-9"
       style="font-size:13.3333px;line-height:1.25;font-family:'Share Tech Mono';-inkscape-font-specification:'Share Tech Mono, Normal';text-align:center;letter-spacing:0px;word-spacing:0px;white-space:pre;shape-inside:url(#rect32152-1-3-3)">
      <path
         d="m 58.917852,445.96947 v 3.86666 h -1.159997 v -9.33331 h 2.50666 q 1.133331,0 1.706663,0.50667 0.586665,0.49333 0.586665,1.57332 v 1.28 q 0,1.50666 -1.199997,1.88 l 1.853329,4.09332 h -1.266664 l -1.719996,-3.86666 z m 2.479994,-3.50665 q 0,-0.50667 -0.24,-0.73334 -0.226666,-0.22666 -0.733331,-0.22666 h -1.506663 v 3.46666 h 1.506663 q 0.506665,0 0.733331,-0.22667 0.24,-0.24 0.24,-0.74667 z"
         id="path69161" />
      <path
         d="m 66.331154,447.47614 -0.519999,2.35999 h -1.186664 l 2.253328,-9.33331 h 1.533329 l 2.213328,9.33331 h -1.186663 l -0.506666,-2.35999 z m 2.38666,-1 -1.09333,-5.09332 -1.079998,5.09332 z"
         id="path69163" />
      <path
         d="m 74.237787,449.83613 v -8.31998 h -2.119994 v -1.01333 h 5.399986 v 1.01333 h -2.119995 v 8.31998 z"
         id="path69165" />
      <path
         d="m 82.277755,449.83613 q -1.159998,0 -1.786663,-0.56 -0.613331,-0.57333 -0.613331,-1.70666 v -4.79999 q 0,-1.13333 0.613331,-1.69333 0.626665,-0.57333 1.786663,-0.57333 h 1.893328 v 1.01333 h -2.026661 q -0.493333,0 -0.799998,0.29333 -0.306666,0.29334 -0.306666,0.70667 v 5.30665 q 0,0.41333 0.306666,0.70667 0.306665,0.29333 0.799998,0.29333 h 2.026661 v 1.01333 z"
         id="path69167" />
      <path
         d="m 87.85106,445.54281 v 4.29332 h -1.159997 v -9.33331 h 1.159997 v 4.05332 h 2.74666 v -4.05332 h 1.159997 v 9.33331 H 90.59772 v -4.29332 z"
         id="path69169" />
      <path
         d="m 98.65102,440.50282 v 0.97333 h -3.293325 v 3.05333 h 2.959992 v 0.97333 h -2.959992 v 3.35999 h 3.293325 v 0.97333 h -4.453323 v -9.33331 z"
         id="path69171" />
      <path
         d="m 103.03766,449.83613 v -8.31998 h -2.11999 v -1.01333 h 5.39999 v 1.01333 h -2.12 v 8.31998 z"
         id="path69173" />
    </g>
    <g
       aria-label="OFFSET"
       transform="matrix(0.26458333,0,0,0.26458333,101.5856,0.74229927)"
       id="text32150-0-5-9-4"
       style="font-size:13.3333px;line-height:1.25;font-family:'Share Tech Mono';-inkscape-font-specification:'Share Tech Mono, Normal';text-align:center;letter-spacing:0px;word-spacing:0px;white-space:pre;shape-inside:url(#rect32152-1-3-3-0)">
      <path
         d="m 66.691159,447.56947 q 0,1.13333 -0.626665,1.70666 -0.613332,0.56 -1.773329,0.56 h -0.533332 q -1.159997,0 -1.786662,-0.56 -0.613332,-0.57333 -0.613332,-1.70666 v -4.79999 q 0,-1.13333 0.613332,-1.69333 0.626665,-0.57333 1.786662,-0.57333 h 0.533332 q 1.159997,0 1.773329,0.57333 0.626665,0.56 0.626665,1.69333 z m -1.159997,-5.05332 q 0,-0.41333 -0.306666,-0.70667 -0.306666,-0.29333 -0.799998,-0.29333 H 63.6245 q -0.493332,0 -0.799998,0.29333 -0.306666,0.29334 -0.306666,0.70667 v 5.30665 q 0,0.41333 0.306666,0.70667 0.306666,0.29333 0.799998,0.29333 h 0.799998 q 0.493332,0 0.799998,-0.29333 0.306666,-0.29334 0.306666,-0.70667 z"
         id="path69176" />
      <path
         d="m 73.157796,444.66281 v 0.97333 h -2.959992 v 4.19999 h -1.159997 v -9.33331 h 4.453322 v 0.97333 h -3.293325 v 3.18666 z"
         id="path69178" />
      <path
         d="m 80.357765,444.66281 v 0.97333 h -2.959992 v 4.19999 h -1.159997 v -9.33331 h 4.453322 v 0.97333 h -3.293325 v 3.18666 z"
         id="path69180" />
      <path
         d="m 87.877734,447.56947 q 0,1.13333 -0.626665,1.70666 -0.613332,0.56 -1.773329,0.56 h -1.893329 v -1.01333 h 2.026662 q 0.493332,0 0.799998,-0.29333 0.306666,-0.29334 0.306666,-0.70667 v -1.38666 q 0,-0.4 -0.213333,-0.64 -0.2,-0.25333 -0.613332,-0.25333 h -0.399999 q -0.986664,0 -1.559996,-0.57333 -0.573332,-0.58667 -0.573332,-1.69333 v -0.50667 q 0,-1.13333 0.613332,-1.69333 0.626665,-0.57333 1.786662,-0.57333 h 1.906662 v 1.01333 h -2.039995 q -0.493332,0 -0.799998,0.29333 -0.306666,0.29334 -0.306666,0.70667 v 1.01333 q 0,0.41333 0.266666,0.69333 0.266666,0.26667 0.693332,0.26667 h 0.399999 q 0.946664,0 1.466663,0.54666 0.533332,0.54667 0.533332,1.65333 z"
         id="path69182" />
      <path
         d="m 95.051036,440.50282 v 0.97333 h -3.293325 v 3.05333 h 2.959992 v 0.97333 h -2.959992 v 3.35999 h 3.293325 v 0.97333 h -4.453323 v -9.33331 z"
         id="path69184" />
      <path
         d="m 99.437678,449.83613 v -8.31998 h -2.119995 v -1.01333 h 5.399987 v 1.01333 h -2.12 v 8.31998 z"
         id="path69186" />
    </g>
    <g
       aria-label="LOOP"
       transform="matrix(0.26458333,0,0,0.26458333,153.9281,0.74229927)"
       id="text32150-0-5-9-4-4"
       style="font-size:13.3333px;line-height:1.25;font-family:'Share Tech Mono';-inkscape-font-specification:'Share Tech Mono, Normal';text-align:center;letter-spacing:0px;word-spacing:0px;white-space:pre;shape-inside:url(#rect32152-1-3-3-0-0)">
      <path
         d="m 70.317803,440.50282 v 8.31998 h 2.973326 v 1.01333 h -4.133323 v -9.33331 z"
         id="path69200" />
      <path
         d="m 81.091097,447.56947 q 0,1.13333 -0.626666,1.70666 -0.613331,0.56 -1.773328,0.56 h -0.533332 q -1.159997,0 -1.786663,-0.56 -0.613331,-0.57333 -0.613331,-1.70666 v -4.79999 q 0,-1.13333 0.613331,-1.69333 0.626666,-0.57333 1.786663,-0.57333 h 0.533332 q 1.159997,0 1.773328,0.57333 0.626666,0.56 0.626666,1.69333 z m -1.159998,-5.05332 q 0,-0.41333 -0.306665,-0.70667 -0.306666,-0.29333 -0.799998,-0.29333 h -0.799998 q -0.493332,0 -0.799998,0.29333 -0.306666,0.29334 -0.306666,0.70667 v 5.30665 q 0,0.41333 0.306666,0.70667 0.306666,0.29333 0.799998,0.29333 h 0.799998 q 0.493332,0 0.799998,-0.29333 0.306665,-0.29334 0.306665,-0.70667 z"
         id="path69202" />
      <path
         d="m 88.291065,447.56947 q 0,1.13333 -0.626665,1.70666 -0.613332,0.56 -1.773329,0.56 h -0.533332 q -1.159997,0 -1.786662,-0.56 -0.613331,-0.57333 -0.613331,-1.70666 v -4.79999 q 0,-1.13333 0.613331,-1.69333 0.626665,-0.57333 1.786662,-0.57333 h 0.533332 q 1.159997,0 1.773329,0.57333 0.626665,0.56 0.626665,1.69333 z m -1.159997,-5.05332 q 0,-0.41333 -0.306666,-0.70667 -0.306665,-0.29333 -0.799998,-0.29333 h -0.799998 q -0.493332,0 -0.799998,0.29333 -0.306665,0.29334 -0.306665,0.70667 v 5.30665 q 0,0.41333 0.306665,0.70667 0.306666,0.29333 0.799998,0.29333 h 0.799998 q 0.493333,0 0.799998,-0.29333 0.306666,-0.29334 0.306666,-0.70667 z"
         id="path69204" />
      <path
         d="m 95.237702,444.10281 q 0,1.08 -0.573332,1.6 -0.573332,0.50666 -1.693329,0.50666 h -1.386663 v 3.62666 h -1.159997 v -9.33331 h 2.519993 q 1.133331,0 1.706663,0.50667 0.586665,0.49333 0.586665,1.57332 z m -1.159997,-1.63999 q 0,-0.50667 -0.24,-0.73334 -0.226666,-0.22666 -0.733331,-0.22666 h -1.519996 v 3.70665 h 1.519996 q 0.506665,0 0.733331,-0.22666 0.24,-0.24 0.24,-0.74667 z"
         id="path69206" />
    </g>
    <g
       aria-label="REVERSE"
       transform="matrix(0.26458333,0,0,0.26458333,180.03748,0.74229927)"
       id="text32150-0-5-9-4-4-1"
       style="font-size:13.3333px;line-height:1.25;font-family:'Share Tech Mono';-inkscape-font-specification:'Share Tech Mono, Normal';text-align:center;letter-spacing:0px;word-spacing:0px;white-space:pre;shape-inside:url(#rect32152-1-3-3-0-0-2)">
      <path
         d="m 58.917852,445.96947 v 3.86666 h -1.159997 v -9.33331 h 2.50666 q 1.133331,0 1.706663,0.50667 0.586665,0.49333 0.586665,1.57332 v 1.28 q 0,1.50666 -1.199997,1.88 l 1.853329,4.09332 h -1.266664 l -1.719996,-3.86666 z m 2.479994,-3.50665 q 0,-0.50667 -0.24,-0.73334 -0.226666,-0.22666 -0.733331,-0.22666 h -1.506663 v 3.46666 h 1.506663 q 0.506665,0 0.733331,-0.22667 0.24,-0.24 0.24,-0.74667 z"
         id="path69209" />
      <path
         d="m 69.851145,440.50282 v 0.97333 H 66.55782 v 3.05333 h 2.959992 v 0.97333 H 66.55782 v 3.35999 h 3.293325 v 0.97333 h -4.453322 v -9.33331 z"
         id="path69211" />
      <path
         d="m 71.971126,440.50282 h 1.173331 l 1.599996,8.15998 1.719995,-8.15998 h 1.146664 l -2.093328,9.33331 h -1.586663 z"
         id="path69213" />
      <path
         d="m 84.251083,440.50282 v 0.97333 h -3.293325 v 3.05333 h 2.959992 v 0.97333 h -2.959992 v 3.35999 h 3.293325 v 0.97333 h -4.453322 v -9.33331 z"
         id="path69215" />
      <path
         d="m 87.717727,445.96947 v 3.86666 H 86.55773 v -9.33331 h 2.506661 q 1.13333,0 1.706662,0.50667 0.586665,0.49333 0.586665,1.57332 v 1.28 q 0,1.50666 -1.199997,1.88 l 1.853329,4.09332 h -1.266664 l -1.719995,-3.86666 z m 2.479994,-3.50665 q 0,-0.50667 -0.239999,-0.73334 -0.226666,-0.22666 -0.733332,-0.22666 h -1.506663 v 3.46666 h 1.506663 q 0.506666,0 0.733332,-0.22667 0.239999,-0.24 0.239999,-0.74667 z"
         id="path69217" />
      <path
         d="m 98.677686,447.56947 q 0,1.13333 -0.626665,1.70666 -0.613332,0.56 -1.773329,0.56 h -1.893328 v -1.01333 h 2.026661 q 0.493332,0 0.799998,-0.29333 0.306666,-0.29334 0.306666,-0.70667 v -1.38666 q 0,-0.4 -0.213333,-0.64 -0.199999,-0.25333 -0.613331,-0.25333 h -0.399999 q -0.986665,0 -1.559997,-0.57333 -0.573331,-0.58667 -0.573331,-1.69333 v -0.50667 q 0,-1.13333 0.613331,-1.69333 0.626665,-0.57333 1.786663,-0.57333 h 1.906661 v 1.01333 h -2.039994 q -0.493333,0 -0.799998,0.29333 -0.306666,0.29334 -0.306666,0.70667 v 1.01333 q 0,0.41333 0.266666,0.69333 0.266666,0.26667 0.693331,0.26667 h 0.399999 q 0.946665,0 1.466663,0.54666 0.533332,0.54667 0.533332,1.65333 z"
         id="path69219" />
      <path
         d="m 105.85099,440.50282 v 0.97333 h -3.29333 v 3.05333 h 2.96 v 0.97333 h -2.96 v 3.35999 h 3.29333 v 0.97333 h -4.45332 v -9.33331 z"
         id="path69221" />
    </g>
    <g
       aria-label="PROB %"
       transform="matrix(0.26458333,0,0,0.26458333,126.19568,0.74229927)"
       id="text32150-0-5-9-4-7"
       style="font-size:13.3333px;line-height:1.25;font-family:'Share Tech Mono';-inkscape-font-specification:'Share Tech Mono, Normal';text-align:center;letter-spacing:0px;word-spacing:0px;white-space:pre;shape-inside:url(#rect32152-1-3-3-0-5)">
      <path
         d="m 71.918295,444.10281 q 0,1.08 -0.573332,1.6 -0.573332,0.50666 -1.693329,0.50666 h -1.386663 v 3.62666 h -1.159997 v -9.33331 h 2.519994 q 1.13333,0 1.706662,0.50667 0.586665,0.49333 0.586665,1.57332 z m -1.159997,-1.63999 q 0,-0.50667 -0.239999,-0.73334 -0.226666,-0.22666 -0.733332,-0.22666 h -1.519996 v 3.70665 h 1.519996 q 0.506666,0 0.733332,-0.22666 0.239999,-0.24 0.239999,-0.74667 z"
         id="path69189" />
      <path
         d="m 75.198274,445.96947 v 3.86666 h -1.159997 v -9.33331 h 2.50666 q 1.133331,0 1.706663,0.50667 0.586665,0.49333 0.586665,1.57332 v 1.28 q 0,1.50666 -1.199997,1.88 l 1.853328,4.09332 h -1.266663 l -1.719996,-3.86666 z m 2.479994,-3.50665 q 0,-0.50667 -0.24,-0.73334 -0.226666,-0.22666 -0.733331,-0.22666 h -1.506663 v 3.46666 h 1.506663 q 0.506665,0 0.733331,-0.22667 0.24,-0.24 0.24,-0.74667 z"
         id="path69191" />
      <path
         d="m 86.571566,447.56947 q 0,1.13333 -0.626666,1.70666 -0.613331,0.56 -1.773328,0.56 H 83.63824 q -1.159997,0 -1.786663,-0.56 -0.613331,-0.57333 -0.613331,-1.70666 v -4.79999 q 0,-1.13333 0.613331,-1.69333 0.626666,-0.57333 1.786663,-0.57333 h 0.533332 q 1.159997,0 1.773328,0.57333 0.626666,0.56 0.626666,1.69333 z m -1.159998,-5.05332 q 0,-0.41333 -0.306665,-0.70667 -0.306666,-0.29333 -0.799998,-0.29333 h -0.799998 q -0.493332,0 -0.799998,0.29333 -0.306666,0.29334 -0.306666,0.70667 v 5.30665 q 0,0.41333 0.306666,0.70667 0.306666,0.29333 0.799998,0.29333 h 0.799998 q 0.493332,0 0.799998,-0.29333 0.306665,-0.29334 0.306665,-0.70667 z"
         id="path69193" />
      <path
         d="m 93.571535,447.72947 q 0,1.14666 -0.533332,1.62666 -0.519998,0.48 -1.733329,0.48 h -2.66666 v -9.33331 h 2.506661 q 1.186663,0 1.733329,0.48 0.559998,0.48 0.559998,1.59999 v 0.76 q 0,1.02667 -0.733331,1.54667 0.866664,0.47999 0.866664,1.63999 z m -1.29333,-5.26665 q 0,-0.50667 -0.239999,-0.73334 -0.226666,-0.22666 -0.733332,-0.22666 h -1.506662 v 2.94666 h 1.506662 q 0.413333,0 0.693332,-0.26667 0.279999,-0.26667 0.279999,-0.70666 z m 0.133333,3.94665 q 0,-0.44 -0.266666,-0.69333 -0.266666,-0.26667 -0.706665,-0.26667 h -1.639995 v 3.38666 h 1.626662 q 0.506665,0 0.746665,-0.22666 0.239999,-0.24 0.239999,-0.74667 z"
         id="path69195" />
      <path
         d="m 105.75814,442.74281 q 0,0.84 -0.42666,1.28 -0.42667,0.42667 -1.2,0.42667 h -0.10666 q -0.77334,0 -1.2,-0.42667 -0.42667,-0.44 -0.42667,-1.28 v -0.53333 q 0,-0.84 0.42667,-1.26666 0.42666,-0.44 1.2,-0.44 h 0.10666 q 0.77333,0 1.2,0.44 0.42666,0.42666 0.42666,1.26666 z m -0.93333,-0.67999 q 0,-0.33334 -0.17333,-0.54667 -0.17333,-0.21333 -0.52,-0.21333 h -0.10666 q -0.34667,0 -0.52,0.21333 -0.17334,0.21333 -0.17334,0.54667 v 0.82666 q 0,0.33333 0.17334,0.54667 0.17333,0.21333 0.52,0.21333 h 0.10666 q 0.34667,0 0.52,-0.21333 0.17333,-0.21334 0.17333,-0.54667 z m 4.10666,2.22666 v 0.82666 l -6.86665,0.97333 v -0.82666 z m -0.37333,3.83999 q 0,0.84 -0.42667,1.27999 -0.42666,0.42667 -1.2,0.42667 h -0.10666 q -0.77333,0 -1.2,-0.42667 -0.42666,-0.43999 -0.42666,-1.27999 v -0.53333 q 0,-0.84 0.42666,-1.26667 0.42667,-0.44 1.2,-0.44 h 0.10666 q 0.77334,0 1.2,0.44 0.42667,0.42667 0.42667,1.26667 z m -0.93333,-0.68 q 0,-0.33333 -0.17334,-0.54667 -0.17333,-0.21333 -0.52,-0.21333 h -0.10666 q -0.34667,0 -0.52,0.21333 -0.17333,0.21334 -0.17333,0.54667 v 0.82666 q 0,0.33334 0.17333,0.54667 0.17333,0.21333 0.52,0.21333 h 0.10666 q 0.34667,0 0.52,-0.21333 0.17334,-0.21333 0.17334,-0.54667 z"
         id="path69197" />
    </g>
    <text
       xml:space="preserve"
       style="font-size:4.23333px;line-height:1.25;font-family:'Share Tech Mono';-inkscape-font-specification:'Share Tech Mono, Normal';letter-spacing:0px;word-spacing:0px;stroke-width:0.264583"
       x="26.005325"
       y="118.52066"
       id="text45190"><tspan
         sodipodi:role="line"
         id="tspan45188"
         style="stroke-width:0.264583"
         x="26.005325"
         y="118.52066"></tspan></text>
  </g>
</svg>
