<?xml version="1.0" encoding="UTF-8" standalone="no"?>
<svg
   sodipodi:docname="scalar110_front_panel.svg"
   inkscape:version="1.1.1 (3bf5ae0d25, 2021-09-20)"
   id="svg8"
   version="1.1"
   viewBox="0 0 223.52001 128.5"
   height="128.5mm"
   width="223.52mm"
   xmlns:inkscape="http://www.inkscape.org/namespaces/inkscape"
   xmlns:sodipodi="http://sodipodi.sourceforge.net/DTD/sodipodi-0.dtd"
   xmlns="http://www.w3.org/2000/svg"
   xmlns:svg="http://www.w3.org/2000/svg"
   xmlns:rdf="http://www.w3.org/1999/02/22-rdf-syntax-ns#"
   xmlns:cc="http://creativecommons.org/ns#"
   xmlns:dc="http://purl.org/dc/elements/1.1/">
  <defs
     id="defs2">
    <rect
       x="97.521317"
       y="188.98361"
       width="24.524591"
       height="33.468853"
       id="rect12331" />
    <rect
       x="105.00535"
       y="91.570328"
       width="23.334522"
       height="19.798988"
       id="rect3671" />
    <rect
       x="-210.99998"
       y="261"
       width="141.49998"
       height="53.499996"
       id="rect15654" />
    <rect
       x="-142.99998"
       y="210.49998"
       width="75.499992"
       height="43.499996"
       id="rect13784" />
    <rect
       x="-132.99998"
       y="62.999996"
       width="58.499996"
       height="19.499998"
       id="rect11476" />
    <rect
       x="-194.49998"
       y="25.999998"
       width="119.49999"
       height="41.499996"
       id="rect5502" />
    <rect
       x="-162.99998"
       y="154.99998"
       width="99.999992"
       height="37.499996"
       id="rect4118" />
    <rect
       x="-108.99999"
       y="139.49998"
       width="83.999992"
       height="29.999998"
       id="rect2588" />
    <rect
       x="312.49997"
       y="103.49999"
       width="117.49999"
       height="144.49998"
       id="rect7215" />
    <rect
       x="168.49998"
       y="42.999996"
       width="207.49998"
       height="26.499998"
       id="rect2833" />
    <rect
       x="27.987741"
       y="465.83459"
       width="267.58286"
       height="30.554342"
       id="rect52982" />
    <rect
       x="28.284269"
       y="405.87927"
       width="777.40686"
       height="22.069071"
       id="rect44862" />
    <rect
       x="745.99762"
       y="7.7781739"
       width="88.388344"
       height="32.526909"
       id="rect37700" />
    <rect
       x="48.436813"
       y="437.69907"
       width="67.17514"
       height="20.506096"
       id="rect32152" />
    <rect
       x="458.91229"
       y="86.974129"
       width="70.710678"
       height="18.031221"
       id="rect23047" />
    <rect
       x="219.59534"
       y="12.628485"
       width="8.6060791"
       height="4.3030396"
       id="rect1686" />
    <rect
       x="514.5"
       y="125.49999"
       width="76.249992"
       height="34.499996"
       id="rect5909-1" />
    <rect
       x="81.67083"
       y="79.903061"
       width="50.911686"
       height="27.22361"
       id="rect26191-3" />
    <rect
       x="48.436813"
       y="437.69907"
       width="67.17514"
       height="20.506096"
       id="rect32152-1" />
    <rect
       x="48.436813"
       y="437.69907"
       width="67.17514"
       height="20.506096"
       id="rect32152-1-3" />
    <rect
       x="48.436813"
       y="437.69907"
       width="67.17514"
       height="20.506096"
       id="rect32152-1-3-3" />
    <rect
       x="48.436813"
       y="437.69907"
       width="67.17514"
       height="20.506096"
       id="rect32152-1-3-3-0" />
    <rect
       x="48.436813"
       y="437.69907"
       width="78.135292"
       height="16.617008"
       id="rect32152-1-3-3-0-5" />
    <rect
       x="48.436813"
       y="437.69907"
       width="67.17514"
       height="20.506096"
       id="rect32152-1-3-3-0-0" />
    <rect
       x="48.436813"
       y="437.69907"
       width="67.17514"
       height="20.506096"
       id="rect32152-1-3-3-0-0-2" />
    <rect
       x="105.00535"
       y="91.570328"
       width="23.334522"
       height="19.798988"
       id="rect3671-7" />
  </defs>
  <sodipodi:namedview
     inkscape:guide-bbox="true"
     showguides="true"
     inkscape:window-maximized="1"
     inkscape:window-y="1138"
     inkscape:window-x="-11"
     inkscape:window-height="1526"
     inkscape:window-width="2880"
     showgrid="false"
     inkscape:document-rotation="0"
     inkscape:current-layer="layer1"
     inkscape:document-units="mm"
     inkscape:cy="308.47476"
     inkscape:cx="230.13197"
     inkscape:zoom="1.2253839"
     inkscape:pageshadow="2"
     inkscape:pageopacity="1"
     borderopacity="1.0"
     bordercolor="#666666"
     pagecolor="#ffffff"
     id="base"
     inkscape:pagecheckerboard="0"
     width="223.52mm">
    <sodipodi:guide
       position="79.886862,106.70417"
       orientation="0,-1"
       id="guide2404" />
    <sodipodi:guide
       position="70.813062,57.032133"
       orientation="0,-1"
       id="guide2406" />
    <sodipodi:guide
       position="83.348003,81.353659"
       orientation="1,0"
       id="guide2412" />
    <sodipodi:guide
       position="81.290028,73.308847"
       orientation="1,0"
       id="guide2416" />
    <sodipodi:guide
       position="138.91334,102.1205"
       orientation="0,-1"
       id="guide2500" />
    <sodipodi:guide
       position="88.586486,80.418216"
       orientation="1,0"
       id="guide2502" />
    <sodipodi:guide
       position="217.09324,67.810657"
       orientation="1,0"
       id="guide2369" />
    <sodipodi:guide
       position="6.4235825,35.546988"
       orientation="1,0"
       id="guide2446" />
  </sodipodi:namedview>
  <metadata
     id="metadata5">
    <rdf:RDF>
      <cc:Work
         rdf:about="">
        <dc:format>image/svg+xml</dc:format>
        <dc:type
           rdf:resource="http://purl.org/dc/dcmitype/StillImage" />
      </cc:Work>
    </rdf:RDF>
  </metadata>
  <g
     inkscape:groupmode="layer"
     id="layer2"
     inkscape:label="Layer 2" />
  <g
     id="layer1"
     inkscape:groupmode="layer"
     inkscape:label="Layer 1"
     style="display:inline">
    <rect
       style="display:inline;fill:#2d2d2d;fill-opacity:1;fill-rule:evenodd;stroke-width:0.656638;stroke-linejoin:round"
       id="rect1762-9-8-4"
       width="223.52"
       height="128.5"
       x="0"
       y="0" />
    <rect
       style="opacity:0;fill:#f9f9f9;fill-rule:evenodd;stroke-width:0.265214;stroke-linejoin:round"
       id="rect68744"
       width="223.52"
       height="128.5"
       x="0"
       y="0" />
    <rect
       height="0"
       width="0"
       y="4.4099455"
       x="1.7372522"
       id="rect833"
       style="fill:#808080;stroke-width:0;stroke-linejoin:round;stroke-opacity:0.130919" />
    <text
       xml:space="preserve"
       id="text1684"
       style="font-size:4.23333px;line-height:1.25;font-family:'Share Tech Mono';-inkscape-font-specification:'Share Tech Mono, Normal';letter-spacing:0px;word-spacing:0px;white-space:pre;shape-inside:url(#rect1686)" />
    <text
       xml:space="preserve"
       transform="matrix(0.26458333,0,0,0.26458333,0.25770479,13.583795)"
       id="text5907-4"
       style="font-size:16px;line-height:1.25;font-family:'Share Tech Mono';-inkscape-font-specification:'Share Tech Mono, Normal';letter-spacing:0px;word-spacing:0px;white-space:pre;shape-inside:url(#rect5909-1)"><tspan
         x="514.5"
         y="140.06433"
         id="tspan2006">
</tspan><tspan
         x="514.5"
         y="174.56433"
         id="tspan2010"><tspan
           dx="0 8.6399841 8.6399841 8.6399841 8.6399841 8.6399841"
           id="tspan2008">CSnare</tspan></tspan></text>
    <text
       xml:space="preserve"
       transform="matrix(0.26458333,0,0,0.26458333,26.405231,1.7443286)"
       id="text26189-3"
       style="font-size:16px;line-height:1.25;font-family:'Share Tech Mono';-inkscape-font-specification:'Share Tech Mono, Normal';letter-spacing:0px;word-spacing:0px;white-space:pre;shape-inside:url(#rect26191-3)"><tspan
         x="81.669922"
         y="121.69128"
         id="tspan2014"><tspan
           dx="0 8.6399841 8.6399841 8.6399841 8.6399841 8.6399841 8.6399841 8.6399841 8.6399841 8.6399841 8.6399841 8.6399841 8.6399841"
           id="tspan2012">Global Memory</tspan></tspan></text>
    <rect
       style="fill:#e6e6e6;fill-opacity:0.111111;fill-rule:evenodd;stroke-width:0.315795;stroke-linejoin:round"
       id="rect1762"
       width="133.74078"
       height="49.672039"
       x="83.348"
       y="21.795834" />
    <rect
       style="fill:#e6e6e6;fill-opacity:0.11111112;fill-rule:evenodd;stroke-width:0.208381;stroke-linejoin:round"
       id="rect1762-9"
       width="57.997482"
       height="49.873955"
       x="23.29254"
       y="21.795834" />
    <rect
       style="fill:#282828;fill-opacity:1;fill-rule:evenodd;stroke-width:0.204078;stroke-linejoin:round"
       id="rect1762-9-8"
       width="223.52"
       height="12.412055"
       x="7.1054274e-15"
       y="0" />
    <rect
       style="fill:#e6e6e6;fill-opacity:0.11111112;fill-rule:evenodd;stroke-width:0.102799;stroke-linejoin:round"
       id="rect1762-9-4"
       width="14.114767"
       height="49.873955"
       x="6.5585294"
       y="21.593918" />
    <g
       aria-label="RST"
       transform="matrix(0.26458333,0,0,0.26458333,48.304195,-15.874998)"
       id="text13782"
       style="font-size:14.6667px;line-height:1.25;font-family:'Share Tech Mono';-inkscape-font-specification:'Share Tech Mono, Normal';letter-spacing:0px;word-spacing:0px;white-space:pre;shape-inside:url(#rect13784);fill:#ffffff;fill-opacity:0.67759562">
      <path
         d="m -140.69733,219.59732 v 4.25335 h -1.276 v -10.26669 h 2.75734 q 1.24667,0 1.87734,0.55733 0.64533,0.54267 0.64533,1.73067 v 1.408 q 0,1.65734 -1.32,2.06801 l 2.03867,4.50268 h -1.39334 l -1.892,-4.25335 z m 2.72801,-3.85734 q 0,-0.55733 -0.264,-0.80667 -0.24934,-0.24933 -0.80667,-0.24933 h -1.65734 v 3.81334 h 1.65734 q 0.55733,0 0.80667,-0.24933 0.264,-0.264 0.264,-0.82134 z"
         id="path992"
         style="fill:#ffffff;fill-opacity:0.67759562" />
      <path
         d="m -128.64132,221.35733 q 0,1.24667 -0.68933,1.87734 -0.67467,0.616 -1.95067,0.616 h -2.08267 V 222.736 h 2.22934 q 0.54266,0 0.88,-0.32267 0.33733,-0.32267 0.33733,-0.77734 v -1.52533 q 0,-0.44 -0.23467,-0.704 -0.22,-0.27867 -0.67466,-0.27867 h -0.44 q -1.08534,0 -1.71601,-0.63067 -0.63067,-0.64533 -0.63067,-1.86267 v -0.55733 q 0,-1.24667 0.67467,-1.86268 0.68934,-0.63066 1.96534,-0.63066 h 2.09734 v 1.11467 h -2.24401 q -0.54267,0 -0.88,0.32266 -0.33733,0.32267 -0.33733,0.77734 v 1.11467 q 0,0.45467 0.29333,0.76267 0.29333,0.29333 0.76267,0.29333 h 0.44 q 1.04134,0 1.61334,0.60133 0.58666,0.60134 0.58666,1.81868 z"
         id="path994"
         style="fill:#ffffff;fill-opacity:0.67759562" />
      <path
         d="m -123.84532,223.85067 v -9.15202 h -2.332 v -1.11467 h 5.94001 v 1.11467 h -2.33201 v 9.15202 z"
         id="path996"
         style="fill:#ffffff;fill-opacity:0.67759562" />
    </g>
    <g
       id="g2379"
       transform="translate(-0.98150761,0.14032745)">
      <rect
         style="fill:#cccdb9;fill-opacity:0.409836;fill-rule:evenodd;stroke:#000000;stroke-width:0.0593534;stroke-linejoin:round;stroke-opacity:1"
         id="rect1762-9-4-1-2"
         width="22.98173"
         height="10.211159"
         x="7.4050899"
         y="113.04091" />
      <g
         aria-label="VOLUME"
         transform="matrix(0.26458333,0,0,0.26458333,-2.7234368,0.36206608)"
         id="text32150"
         style="font-size:13.3333px;line-height:1.25;font-family:'Share Tech Mono';-inkscape-font-specification:'Share Tech Mono, Normal';text-align:center;letter-spacing:0px;word-spacing:0px;text-anchor:middle;white-space:pre;shape-inside:url(#rect32152);fill:#ffffff;fill-opacity:1;stroke:none;stroke-opacity:1">
        <path
           d="m 61.171173,440.50282 h 1.17333 l 1.599996,8.15998 1.719996,-8.15998 h 1.146664 l -2.093328,9.33331 h -1.586663 z"
           style="font-size:13.3333px;line-height:1.25;font-family:'Share Tech Mono';-inkscape-font-specification:'Share Tech Mono, Normal';text-align:center;letter-spacing:0px;word-spacing:0px;text-anchor:middle;white-space:pre;shape-inside:url(#rect32152);fill:#ffffff;fill-opacity:1;stroke:none;stroke-opacity:1"
           id="path69130" />
        <path
           d="m 73.891128,447.56947 q 0,1.13333 -0.626665,1.70666 -0.613332,0.56 -1.773329,0.56 h -0.533332 q -1.159997,0 -1.786662,-0.56 -0.613332,-0.57333 -0.613332,-1.70666 v -4.79999 q 0,-1.13333 0.613332,-1.69333 0.626665,-0.57333 1.786662,-0.57333 h 0.533332 q 1.159997,0 1.773329,0.57333 0.626665,0.56 0.626665,1.69333 z m -1.159997,-5.05332 q 0,-0.41333 -0.306666,-0.70667 -0.306666,-0.29333 -0.799998,-0.29333 h -0.799998 q -0.493332,0 -0.799998,0.29333 -0.306666,0.29334 -0.306666,0.70667 v 5.30665 q 0,0.41333 0.306666,0.70667 0.306666,0.29333 0.799998,0.29333 h 0.799998 q 0.493332,0 0.799998,-0.29333 0.306666,-0.29334 0.306666,-0.70667 z"
           style="font-size:13.3333px;line-height:1.25;font-family:'Share Tech Mono';-inkscape-font-specification:'Share Tech Mono, Normal';text-align:center;letter-spacing:0px;word-spacing:0px;text-anchor:middle;white-space:pre;shape-inside:url(#rect32152);fill:#ffffff;fill-opacity:1;stroke:none;stroke-opacity:1"
           id="path69132" />
        <path
           d="m 77.517772,440.50282 v 8.31998 h 2.973326 v 1.01333 h -4.133323 v -9.33331 z"
           style="font-size:13.3333px;line-height:1.25;font-family:'Share Tech Mono';-inkscape-font-specification:'Share Tech Mono, Normal';text-align:center;letter-spacing:0px;word-spacing:0px;text-anchor:middle;white-space:pre;shape-inside:url(#rect32152);fill:#ffffff;fill-opacity:1;stroke:none;stroke-opacity:1"
           id="path69134" />
        <path
           d="m 88.1844,447.56947 q 0,1.13333 -0.626665,1.70666 -0.613332,0.56 -1.773329,0.56 h -0.333333 q -1.159997,0 -1.786662,-0.56 -0.613332,-0.57333 -0.613332,-1.70666 v -7.06665 h 1.159997 v 7.31998 q 0,0.41333 0.306666,0.70667 0.306666,0.29333 0.799998,0.29333 h 0.599999 q 0.493332,0 0.799998,-0.29333 0.306666,-0.29334 0.306666,-0.70667 v -7.31998 H 88.1844 Z"
           style="font-size:13.3333px;line-height:1.25;font-family:'Share Tech Mono';-inkscape-font-specification:'Share Tech Mono, Normal';text-align:center;letter-spacing:0px;word-spacing:0px;text-anchor:middle;white-space:pre;shape-inside:url(#rect32152);fill:#ffffff;fill-opacity:1;stroke:none;stroke-opacity:1"
           id="path69136" />
        <path
           d="m 93.357706,446.7028 h -1.106663 l -1.306664,-5.23998 v 8.37331 h -1.013331 v -9.33331 h 1.853329 l 1.066664,4.77332 1.079997,-4.77332 h 1.799996 v 9.33331 h -1.039998 v -8.37331 z"
           style="font-size:13.3333px;line-height:1.25;font-family:'Share Tech Mono';-inkscape-font-specification:'Share Tech Mono, Normal';text-align:center;letter-spacing:0px;word-spacing:0px;text-anchor:middle;white-space:pre;shape-inside:url(#rect32152);fill:#ffffff;fill-opacity:1;stroke:none;stroke-opacity:1"
           id="path69138" />
        <path
           d="m 102.251,440.50282 v 0.97333 h -3.293321 v 3.05333 h 2.959991 v 0.97333 h -2.959991 v 3.35999 H 102.251 v 0.97333 h -4.453318 v -9.33331 z"
           style="font-size:13.3333px;line-height:1.25;font-family:'Share Tech Mono';-inkscape-font-specification:'Share Tech Mono, Normal';text-align:center;letter-spacing:0px;word-spacing:0px;text-anchor:middle;white-space:pre;shape-inside:url(#rect32152);fill:#ffffff;fill-opacity:1;stroke:none;stroke-opacity:1"
           id="path69140" />
      </g>
    </g>
    <g
       id="g2386"
       transform="translate(-0.08072722,0.04678345)">
      <rect
         style="fill:#cccdb9;fill-opacity:0.409836;fill-rule:evenodd;stroke:#000000;stroke-width:0.0593534;stroke-linejoin:round;stroke-opacity:1"
         id="rect1762-9-4-1-2-8"
         width="22.98173"
         height="10.211159"
         x="33.316868"
         y="113.13445" />
      <g
         aria-label="PAN"
         transform="matrix(0.26458333,0,0,0.26458333,23.087799,0.45561009)"
         id="text32150-0"
         style="font-size:13.3333px;line-height:1.25;font-family:'Share Tech Mono';-inkscape-font-specification:'Share Tech Mono, Normal';text-align:center;letter-spacing:0px;word-spacing:0px;white-space:pre;shape-inside:url(#rect32152-1);fill:#ffffff;fill-opacity:1;stroke:none;stroke-opacity:1">
        <path
           d="m 77.237779,444.10281 q 0,1.08 -0.573332,1.6 -0.573331,0.50666 -1.693329,0.50666 h -1.386663 v 3.62666 h -1.159997 v -9.33331 h 2.519994 q 1.13333,0 1.706662,0.50667 0.586665,0.49333 0.586665,1.57332 z m -1.159997,-1.63999 q 0,-0.50667 -0.239999,-0.73334 -0.226666,-0.22666 -0.733332,-0.22666 h -1.519996 v 3.70665 h 1.519996 q 0.506666,0 0.733332,-0.22666 0.239999,-0.24 0.239999,-0.74667 z"
           id="path69143"
           style="fill:#ffffff;fill-opacity:1;stroke:none;stroke-opacity:1" />
        <path
           d="m 80.731091,447.47614 -0.519999,2.35999 h -1.186664 l 2.253328,-9.33331 h 1.53333 l 2.213327,9.33331 H 83.83775 l -0.506666,-2.35999 z m 2.38666,-1 -1.09333,-5.09332 -1.079997,5.09332 z"
           id="path69145"
           style="fill:#ffffff;fill-opacity:1;stroke:none;stroke-opacity:1" />
        <path
           d="m 87.757727,449.83613 h -1.079998 v -9.33331 h 1.893329 l 2.106661,8.34665 v -8.34665 h 1.079998 v 9.33331 h -1.906662 l -2.093328,-8.34665 z"
           id="path69147"
           style="fill:#ffffff;fill-opacity:1;stroke:none;stroke-opacity:1" />
      </g>
    </g>
    <g
       id="g2395"
       transform="translate(0.44587457,-0.14031219)">
      <rect
         style="fill:#cccdb9;fill-opacity:0.409836;fill-rule:evenodd;stroke:#000000;stroke-width:0.0593534;stroke-linejoin:round;stroke-opacity:1"
         id="rect1762-9-4-1-2-8-8"
         width="22.982"
         height="10.211159"
         x="59.602825"
         y="113.32155" />
      <g
         aria-label="PITCH"
         transform="matrix(0.26458333,0,0,0.26458333,49.373757,0.64270573)"
         id="text32150-0-5"
         style="font-size:13.3333px;line-height:1.25;font-family:'Share Tech Mono';-inkscape-font-specification:'Share Tech Mono, Normal';text-align:center;letter-spacing:0px;word-spacing:0px;white-space:pre;shape-inside:url(#rect32152-1-3);fill:#ffffff;fill-opacity:1;stroke:none;stroke-opacity:1">
        <path
           d="m 70.037811,444.10281 q 0,1.08 -0.573332,1.6 -0.573332,0.50666 -1.693329,0.50666 h -1.386663 v 3.62666 H 65.22449 v -9.33331 h 2.519993 q 1.133331,0 1.706663,0.50667 0.586665,0.49333 0.586665,1.57332 z m -1.159997,-1.63999 q 0,-0.50667 -0.24,-0.73334 -0.226666,-0.22666 -0.733331,-0.22666 h -1.519996 v 3.70665 h 1.519996 q 0.506665,0 0.733331,-0.22666 0.24,-0.24 0.24,-0.74667 z"
           id="path69150"
           style="fill:#ffffff;fill-opacity:1;stroke:none;stroke-opacity:1" />
        <path
           d="m 74.237787,448.8628 v -7.38665 H 73.03779 v -0.97333 h 3.559991 v 0.97333 h -1.199997 v 7.38665 h 1.199997 v 0.97333 H 73.03779 v -0.97333 z"
           id="path69152"
           style="fill:#ffffff;fill-opacity:1;stroke:none;stroke-opacity:1" />
        <path
           d="m 81.437756,449.83613 v -8.31998 h -2.119995 v -1.01333 h 5.399987 v 1.01333 h -2.119995 v 8.31998 z"
           id="path69154"
           style="fill:#ffffff;fill-opacity:1;stroke:none;stroke-opacity:1" />
        <path
           d="m 89.477723,449.83613 q -1.159997,0 -1.786662,-0.56 -0.613332,-0.57333 -0.613332,-1.70666 v -4.79999 q 0,-1.13333 0.613332,-1.69333 0.626665,-0.57333 1.786662,-0.57333 h 1.893329 v 1.01333 H 89.34439 q -0.493332,0 -0.799998,0.29333 -0.306666,0.29334 -0.306666,0.70667 v 5.30665 q 0,0.41333 0.306666,0.70667 0.306666,0.29333 0.799998,0.29333 h 2.026662 v 1.01333 z"
           id="path69156"
           style="fill:#ffffff;fill-opacity:1;stroke:none;stroke-opacity:1" />
        <path
           d="m 95.051029,445.54281 v 4.29332 h -1.159997 v -9.33331 h 1.159997 v 4.05332 h 2.74666 v -4.05332 h 1.159997 v 9.33331 h -1.159997 v -4.29332 z"
           id="path69158"
           style="fill:#ffffff;fill-opacity:1;stroke:none;stroke-opacity:1" />
      </g>
    </g>
    <g
       id="g2406"
       transform="translate(1.0660201,0.04678345)">
      <rect
         style="fill:#cccdb9;fill-opacity:0.409836;fill-rule:evenodd;stroke:#000000;stroke-width:0.0593534;stroke-linejoin:round;stroke-opacity:1"
         id="rect1762-9-4-1-2-8-8-5"
         width="22.98173"
         height="10.211159"
         x="85.795235"
         y="113.13445" />
      <g
         aria-label="RATCHET"
         transform="matrix(0.26458333,0,0,0.26458333,75.580276,0.45561009)"
         id="text32150-0-5-9"
         style="font-size:13.3333px;line-height:1.25;font-family:'Share Tech Mono';-inkscape-font-specification:'Share Tech Mono, Normal';text-align:center;letter-spacing:0px;word-spacing:0px;white-space:pre;shape-inside:url(#rect32152-1-3-3);fill:#ffffff;fill-opacity:1;stroke:none;stroke-opacity:1">
        <path
           d="m 58.917852,445.96947 v 3.86666 h -1.159997 v -9.33331 h 2.50666 q 1.133331,0 1.706663,0.50667 0.586665,0.49333 0.586665,1.57332 v 1.28 q 0,1.50666 -1.199997,1.88 l 1.853329,4.09332 h -1.266664 l -1.719996,-3.86666 z m 2.479994,-3.50665 q 0,-0.50667 -0.24,-0.73334 -0.226666,-0.22666 -0.733331,-0.22666 h -1.506663 v 3.46666 h 1.506663 q 0.506665,0 0.733331,-0.22667 0.24,-0.24 0.24,-0.74667 z"
           id="path69161"
           style="fill:#ffffff;fill-opacity:1;stroke:none;stroke-opacity:1" />
        <path
           d="m 66.331154,447.47614 -0.519999,2.35999 h -1.186664 l 2.253328,-9.33331 h 1.533329 l 2.213328,9.33331 h -1.186663 l -0.506666,-2.35999 z m 2.38666,-1 -1.09333,-5.09332 -1.079998,5.09332 z"
           id="path69163"
           style="fill:#ffffff;fill-opacity:1;stroke:none;stroke-opacity:1" />
        <path
           d="m 74.237787,449.83613 v -8.31998 h -2.119994 v -1.01333 h 5.399986 v 1.01333 h -2.119995 v 8.31998 z"
           id="path69165"
           style="fill:#ffffff;fill-opacity:1;stroke:none;stroke-opacity:1" />
        <path
           d="m 82.277755,449.83613 q -1.159998,0 -1.786663,-0.56 -0.613331,-0.57333 -0.613331,-1.70666 v -4.79999 q 0,-1.13333 0.613331,-1.69333 0.626665,-0.57333 1.786663,-0.57333 h 1.893328 v 1.01333 h -2.026661 q -0.493333,0 -0.799998,0.29333 -0.306666,0.29334 -0.306666,0.70667 v 5.30665 q 0,0.41333 0.306666,0.70667 0.306665,0.29333 0.799998,0.29333 h 2.026661 v 1.01333 z"
           id="path69167"
           style="fill:#ffffff;fill-opacity:1;stroke:none;stroke-opacity:1" />
        <path
           d="m 87.85106,445.54281 v 4.29332 h -1.159997 v -9.33331 h 1.159997 v 4.05332 h 2.74666 v -4.05332 h 1.159997 v 9.33331 H 90.59772 v -4.29332 z"
           id="path69169"
           style="fill:#ffffff;fill-opacity:1;stroke:none;stroke-opacity:1" />
        <path
           d="m 98.65102,440.50282 v 0.97333 h -3.293325 v 3.05333 h 2.959992 v 0.97333 h -2.959992 v 3.35999 h 3.293325 v 0.97333 h -4.453323 v -9.33331 z"
           id="path69171"
           style="fill:#ffffff;fill-opacity:1;stroke:none;stroke-opacity:1" />
        <path
           d="m 103.03766,449.83613 v -8.31998 h -2.11999 v -1.01333 h 5.39999 v 1.01333 h -2.12 v 8.31998 z"
           id="path69173"
           style="fill:#ffffff;fill-opacity:1;stroke:none;stroke-opacity:1" />
      </g>
    </g>
    <g
       id="g2416"
       transform="translate(1.873254,-0.14030457)">
      <rect
         style="fill:#cccdb9;fill-opacity:0.409836;fill-rule:evenodd;stroke:#000000;stroke-width:0.0593534;stroke-linejoin:round;stroke-opacity:1"
         id="rect1762-9-4-1-2-8-8-5-3"
         width="22.98173"
         height="10.211159"
         x="111.80056"
         y="113.32154" />
      <g
         aria-label="OFFSET"
         transform="matrix(0.26458333,0,0,0.26458333,101.5856,0.6426981)"
         id="text32150-0-5-9-4"
         style="font-size:13.3333px;line-height:1.25;font-family:'Share Tech Mono';-inkscape-font-specification:'Share Tech Mono, Normal';text-align:center;letter-spacing:0px;word-spacing:0px;white-space:pre;shape-inside:url(#rect32152-1-3-3-0);fill:#ffffff;fill-opacity:1;stroke:none;stroke-opacity:1">
        <path
           d="m 66.691159,447.56947 q 0,1.13333 -0.626665,1.70666 -0.613332,0.56 -1.773329,0.56 h -0.533332 q -1.159997,0 -1.786662,-0.56 -0.613332,-0.57333 -0.613332,-1.70666 v -4.79999 q 0,-1.13333 0.613332,-1.69333 0.626665,-0.57333 1.786662,-0.57333 h 0.533332 q 1.159997,0 1.773329,0.57333 0.626665,0.56 0.626665,1.69333 z m -1.159997,-5.05332 q 0,-0.41333 -0.306666,-0.70667 -0.306666,-0.29333 -0.799998,-0.29333 H 63.6245 q -0.493332,0 -0.799998,0.29333 -0.306666,0.29334 -0.306666,0.70667 v 5.30665 q 0,0.41333 0.306666,0.70667 0.306666,0.29333 0.799998,0.29333 h 0.799998 q 0.493332,0 0.799998,-0.29333 0.306666,-0.29334 0.306666,-0.70667 z"
           id="path69176"
           style="fill:#ffffff;fill-opacity:1;stroke:none;stroke-opacity:1" />
        <path
           d="m 73.157796,444.66281 v 0.97333 h -2.959992 v 4.19999 h -1.159997 v -9.33331 h 4.453322 v 0.97333 h -3.293325 v 3.18666 z"
           id="path69178"
           style="fill:#ffffff;fill-opacity:1;stroke:none;stroke-opacity:1" />
        <path
           d="m 80.357765,444.66281 v 0.97333 h -2.959992 v 4.19999 h -1.159997 v -9.33331 h 4.453322 v 0.97333 h -3.293325 v 3.18666 z"
           id="path69180"
           style="fill:#ffffff;fill-opacity:1;stroke:none;stroke-opacity:1" />
        <path
           d="m 87.877734,447.56947 q 0,1.13333 -0.626665,1.70666 -0.613332,0.56 -1.773329,0.56 h -1.893329 v -1.01333 h 2.026662 q 0.493332,0 0.799998,-0.29333 0.306666,-0.29334 0.306666,-0.70667 v -1.38666 q 0,-0.4 -0.213333,-0.64 -0.2,-0.25333 -0.613332,-0.25333 h -0.399999 q -0.986664,0 -1.559996,-0.57333 -0.573332,-0.58667 -0.573332,-1.69333 v -0.50667 q 0,-1.13333 0.613332,-1.69333 0.626665,-0.57333 1.786662,-0.57333 h 1.906662 v 1.01333 h -2.039995 q -0.493332,0 -0.799998,0.29333 -0.306666,0.29334 -0.306666,0.70667 v 1.01333 q 0,0.41333 0.266666,0.69333 0.266666,0.26667 0.693332,0.26667 h 0.399999 q 0.946664,0 1.466663,0.54666 0.533332,0.54667 0.533332,1.65333 z"
           id="path69182"
           style="fill:#ffffff;fill-opacity:1;stroke:none;stroke-opacity:1" />
        <path
           d="m 95.051036,440.50282 v 0.97333 h -3.293325 v 3.05333 h 2.959992 v 0.97333 h -2.959992 v 3.35999 h 3.293325 v 0.97333 h -4.453323 v -9.33331 z"
           id="path69184"
           style="fill:#ffffff;fill-opacity:1;stroke:none;stroke-opacity:1" />
        <path
           d="m 99.437678,449.83613 v -8.31998 h -2.119995 v -1.01333 h 5.399987 v 1.01333 h -2.12 v 8.31998 z"
           id="path69186"
           style="fill:#ffffff;fill-opacity:1;stroke:none;stroke-opacity:1" />
      </g>
    </g>
    <g
       id="g2433"
       transform="translate(3.1135298,-0.14032745)">
      <rect
         style="fill:#cccdb9;fill-opacity:0.409836;fill-rule:evenodd;stroke:#000000;stroke-width:0.0593534;stroke-linejoin:round;stroke-opacity:1"
         id="rect1762-9-4-1-2-8-8-5-3-9-3"
         width="22.98173"
         height="10.211159"
         x="164.18539"
         y="113.32156" />
      <g
         aria-label="LOOP"
         transform="matrix(0.26458333,0,0,0.26458333,153.9281,0.64272099)"
         id="text32150-0-5-9-4-4"
         style="font-size:13.3333px;line-height:1.25;font-family:'Share Tech Mono';-inkscape-font-specification:'Share Tech Mono, Normal';text-align:center;letter-spacing:0px;word-spacing:0px;white-space:pre;shape-inside:url(#rect32152-1-3-3-0-0);fill:#ffffff;fill-opacity:1;stroke:none;stroke-opacity:1">
        <path
           d="m 70.317803,440.50282 v 8.31998 h 2.973326 v 1.01333 h -4.133323 v -9.33331 z"
           id="path69200"
           style="fill:#ffffff;fill-opacity:1;stroke:none;stroke-opacity:1" />
        <path
           d="m 81.091097,447.56947 q 0,1.13333 -0.626666,1.70666 -0.613331,0.56 -1.773328,0.56 h -0.533332 q -1.159997,0 -1.786663,-0.56 -0.613331,-0.57333 -0.613331,-1.70666 v -4.79999 q 0,-1.13333 0.613331,-1.69333 0.626666,-0.57333 1.786663,-0.57333 h 0.533332 q 1.159997,0 1.773328,0.57333 0.626666,0.56 0.626666,1.69333 z m -1.159998,-5.05332 q 0,-0.41333 -0.306665,-0.70667 -0.306666,-0.29333 -0.799998,-0.29333 h -0.799998 q -0.493332,0 -0.799998,0.29333 -0.306666,0.29334 -0.306666,0.70667 v 5.30665 q 0,0.41333 0.306666,0.70667 0.306666,0.29333 0.799998,0.29333 h 0.799998 q 0.493332,0 0.799998,-0.29333 0.306665,-0.29334 0.306665,-0.70667 z"
           id="path69202"
           style="fill:#ffffff;fill-opacity:1;stroke:none;stroke-opacity:1" />
        <path
           d="m 88.291065,447.56947 q 0,1.13333 -0.626665,1.70666 -0.613332,0.56 -1.773329,0.56 h -0.533332 q -1.159997,0 -1.786662,-0.56 -0.613331,-0.57333 -0.613331,-1.70666 v -4.79999 q 0,-1.13333 0.613331,-1.69333 0.626665,-0.57333 1.786662,-0.57333 h 0.533332 q 1.159997,0 1.773329,0.57333 0.626665,0.56 0.626665,1.69333 z m -1.159997,-5.05332 q 0,-0.41333 -0.306666,-0.70667 -0.306665,-0.29333 -0.799998,-0.29333 h -0.799998 q -0.493332,0 -0.799998,0.29333 -0.306665,0.29334 -0.306665,0.70667 v 5.30665 q 0,0.41333 0.306665,0.70667 0.306666,0.29333 0.799998,0.29333 h 0.799998 q 0.493333,0 0.799998,-0.29333 0.306666,-0.29334 0.306666,-0.70667 z"
           id="path69204"
           style="fill:#ffffff;fill-opacity:1;stroke:none;stroke-opacity:1" />
        <path
           d="m 95.237702,444.10281 q 0,1.08 -0.573332,1.6 -0.573332,0.50666 -1.693329,0.50666 h -1.386663 v 3.62666 h -1.159997 v -9.33331 h 2.519993 q 1.133331,0 1.706663,0.50667 0.586665,0.49333 0.586665,1.57332 z m -1.159997,-1.63999 q 0,-0.50667 -0.24,-0.73334 -0.226666,-0.22666 -0.733331,-0.22666 h -1.519996 v 3.70665 h 1.519996 q 0.506665,0 0.733331,-0.22666 0.24,-0.24 0.24,-0.74667 z"
           id="path69206"
           style="fill:#ffffff;fill-opacity:1;stroke:none;stroke-opacity:1" />
      </g>
    </g>
    <g
       id="g2444"
       transform="translate(-1.2707338e-5,-0.04676056)">
      <rect
         style="fill:#cccdb9;fill-opacity:0.409836;fill-rule:evenodd;stroke:#000000;stroke-width:0.0593534;stroke-linejoin:round;stroke-opacity:1"
         id="rect1762-9-4-1-2-8-8-5-3-9-3-7"
         width="22.98173"
         height="10.211159"
         x="194.1115"
         y="113.228" />
      <g
         aria-label="REVERSE"
         transform="matrix(0.26458333,0,0,0.26458333,183.95827,0.54915409)"
         id="text32150-0-5-9-4-4-1"
         style="font-size:13.3333px;line-height:1.25;font-family:'Share Tech Mono';-inkscape-font-specification:'Share Tech Mono, Normal';text-align:center;letter-spacing:0px;word-spacing:0px;white-space:pre;shape-inside:url(#rect32152-1-3-3-0-0-2);fill:#ffffff;fill-opacity:1;stroke:none;stroke-opacity:1">
        <path
           d="m 58.917852,445.96947 v 3.86666 h -1.159997 v -9.33331 h 2.50666 q 1.133331,0 1.706663,0.50667 0.586665,0.49333 0.586665,1.57332 v 1.28 q 0,1.50666 -1.199997,1.88 l 1.853329,4.09332 h -1.266664 l -1.719996,-3.86666 z m 2.479994,-3.50665 q 0,-0.50667 -0.24,-0.73334 -0.226666,-0.22666 -0.733331,-0.22666 h -1.506663 v 3.46666 h 1.506663 q 0.506665,0 0.733331,-0.22667 0.24,-0.24 0.24,-0.74667 z"
           id="path69209"
           style="fill:#ffffff;fill-opacity:1;stroke:none;stroke-opacity:1" />
        <path
           d="m 69.851145,440.50282 v 0.97333 H 66.55782 v 3.05333 h 2.959992 v 0.97333 H 66.55782 v 3.35999 h 3.293325 v 0.97333 h -4.453322 v -9.33331 z"
           id="path69211"
           style="fill:#ffffff;fill-opacity:1;stroke:none;stroke-opacity:1" />
        <path
           d="m 71.971126,440.50282 h 1.173331 l 1.599996,8.15998 1.719995,-8.15998 h 1.146664 l -2.093328,9.33331 h -1.586663 z"
           id="path69213"
           style="fill:#ffffff;fill-opacity:1;stroke:none;stroke-opacity:1" />
        <path
           d="m 84.251083,440.50282 v 0.97333 h -3.293325 v 3.05333 h 2.959992 v 0.97333 h -2.959992 v 3.35999 h 3.293325 v 0.97333 h -4.453322 v -9.33331 z"
           id="path69215"
           style="fill:#ffffff;fill-opacity:1;stroke:none;stroke-opacity:1" />
        <path
           d="m 87.717727,445.96947 v 3.86666 H 86.55773 v -9.33331 h 2.506661 q 1.13333,0 1.706662,0.50667 0.586665,0.49333 0.586665,1.57332 v 1.28 q 0,1.50666 -1.199997,1.88 l 1.853329,4.09332 h -1.266664 l -1.719995,-3.86666 z m 2.479994,-3.50665 q 0,-0.50667 -0.239999,-0.73334 -0.226666,-0.22666 -0.733332,-0.22666 h -1.506663 v 3.46666 h 1.506663 q 0.506666,0 0.733332,-0.22667 0.239999,-0.24 0.239999,-0.74667 z"
           id="path69217"
           style="fill:#ffffff;fill-opacity:1;stroke:none;stroke-opacity:1" />
        <path
           d="m 98.677686,447.56947 q 0,1.13333 -0.626665,1.70666 -0.613332,0.56 -1.773329,0.56 h -1.893328 v -1.01333 h 2.026661 q 0.493332,0 0.799998,-0.29333 0.306666,-0.29334 0.306666,-0.70667 v -1.38666 q 0,-0.4 -0.213333,-0.64 -0.199999,-0.25333 -0.613331,-0.25333 h -0.399999 q -0.986665,0 -1.559997,-0.57333 -0.573331,-0.58667 -0.573331,-1.69333 v -0.50667 q 0,-1.13333 0.613331,-1.69333 0.626665,-0.57333 1.786663,-0.57333 h 1.906661 v 1.01333 h -2.039994 q -0.493333,0 -0.799998,0.29333 -0.306666,0.29334 -0.306666,0.70667 v 1.01333 q 0,0.41333 0.266666,0.69333 0.266666,0.26667 0.693331,0.26667 h 0.399999 q 0.946665,0 1.466663,0.54666 0.533332,0.54667 0.533332,1.65333 z"
           id="path69219"
           style="fill:#ffffff;fill-opacity:1;stroke:none;stroke-opacity:1" />
        <path
           d="m 105.85099,440.50282 v 0.97333 h -3.29333 v 3.05333 h 2.96 v 0.97333 h -2.96 v 3.35999 h 3.29333 v 0.97333 h -4.45332 v -9.33331 z"
           id="path69221"
           style="fill:#ffffff;fill-opacity:1;stroke:none;stroke-opacity:1" />
      </g>
    </g>
    <g
       id="g2425"
       transform="translate(2.4933993,0.04678345)">
      <rect
         style="fill:#cccdb9;fill-opacity:0.409836;fill-rule:evenodd;stroke:#000000;stroke-width:0.0593534;stroke-linejoin:round;stroke-opacity:1"
         id="rect1762-9-4-1-2-8-8-5-3-9"
         width="22.98173"
         height="10.211159"
         x="137.99297"
         y="113.13445" />
      <g
         aria-label="PROB %"
         transform="matrix(0.26458333,0,0,0.26458333,126.19568,0.45561009)"
         id="text32150-0-5-9-4-7"
         style="font-size:13.3333px;line-height:1.25;font-family:'Share Tech Mono';-inkscape-font-specification:'Share Tech Mono, Normal';text-align:center;letter-spacing:0px;word-spacing:0px;white-space:pre;shape-inside:url(#rect32152-1-3-3-0-5);fill:#ffffff;fill-opacity:1;stroke:none;stroke-opacity:1">
        <path
           d="m 71.918295,444.10281 q 0,1.08 -0.573332,1.6 -0.573332,0.50666 -1.693329,0.50666 h -1.386663 v 3.62666 h -1.159997 v -9.33331 h 2.519994 q 1.13333,0 1.706662,0.50667 0.586665,0.49333 0.586665,1.57332 z m -1.159997,-1.63999 q 0,-0.50667 -0.239999,-0.73334 -0.226666,-0.22666 -0.733332,-0.22666 h -1.519996 v 3.70665 h 1.519996 q 0.506666,0 0.733332,-0.22666 0.239999,-0.24 0.239999,-0.74667 z"
           id="path69189"
           style="fill:#ffffff;fill-opacity:1;stroke:none;stroke-opacity:1" />
        <path
           d="m 75.198274,445.96947 v 3.86666 h -1.159997 v -9.33331 h 2.50666 q 1.133331,0 1.706663,0.50667 0.586665,0.49333 0.586665,1.57332 v 1.28 q 0,1.50666 -1.199997,1.88 l 1.853328,4.09332 h -1.266663 l -1.719996,-3.86666 z m 2.479994,-3.50665 q 0,-0.50667 -0.24,-0.73334 -0.226666,-0.22666 -0.733331,-0.22666 h -1.506663 v 3.46666 h 1.506663 q 0.506665,0 0.733331,-0.22667 0.24,-0.24 0.24,-0.74667 z"
           id="path69191"
           style="fill:#ffffff;fill-opacity:1;stroke:none;stroke-opacity:1" />
        <path
           d="m 86.571566,447.56947 q 0,1.13333 -0.626666,1.70666 -0.613331,0.56 -1.773328,0.56 H 83.63824 q -1.159997,0 -1.786663,-0.56 -0.613331,-0.57333 -0.613331,-1.70666 v -4.79999 q 0,-1.13333 0.613331,-1.69333 0.626666,-0.57333 1.786663,-0.57333 h 0.533332 q 1.159997,0 1.773328,0.57333 0.626666,0.56 0.626666,1.69333 z m -1.159998,-5.05332 q 0,-0.41333 -0.306665,-0.70667 -0.306666,-0.29333 -0.799998,-0.29333 h -0.799998 q -0.493332,0 -0.799998,0.29333 -0.306666,0.29334 -0.306666,0.70667 v 5.30665 q 0,0.41333 0.306666,0.70667 0.306666,0.29333 0.799998,0.29333 h 0.799998 q 0.493332,0 0.799998,-0.29333 0.306665,-0.29334 0.306665,-0.70667 z"
           id="path69193"
           style="fill:#ffffff;fill-opacity:1;stroke:none;stroke-opacity:1" />
        <path
           d="m 93.571535,447.72947 q 0,1.14666 -0.533332,1.62666 -0.519998,0.48 -1.733329,0.48 h -2.66666 v -9.33331 h 2.506661 q 1.186663,0 1.733329,0.48 0.559998,0.48 0.559998,1.59999 v 0.76 q 0,1.02667 -0.733331,1.54667 0.866664,0.47999 0.866664,1.63999 z m -1.29333,-5.26665 q 0,-0.50667 -0.239999,-0.73334 -0.226666,-0.22666 -0.733332,-0.22666 h -1.506662 v 2.94666 h 1.506662 q 0.413333,0 0.693332,-0.26667 0.279999,-0.26667 0.279999,-0.70666 z m 0.133333,3.94665 q 0,-0.44 -0.266666,-0.69333 -0.266666,-0.26667 -0.706665,-0.26667 h -1.639995 v 3.38666 h 1.626662 q 0.506665,0 0.746665,-0.22666 0.239999,-0.24 0.239999,-0.74667 z"
           id="path69195"
           style="fill:#ffffff;fill-opacity:1;stroke:none;stroke-opacity:1" />
        <path
           d="m 105.75814,442.74281 q 0,0.84 -0.42666,1.28 -0.42667,0.42667 -1.2,0.42667 h -0.10666 q -0.77334,0 -1.2,-0.42667 -0.42667,-0.44 -0.42667,-1.28 v -0.53333 q 0,-0.84 0.42667,-1.26666 0.42666,-0.44 1.2,-0.44 h 0.10666 q 0.77333,0 1.2,0.44 0.42666,0.42666 0.42666,1.26666 z m -0.93333,-0.67999 q 0,-0.33334 -0.17333,-0.54667 -0.17333,-0.21333 -0.52,-0.21333 h -0.10666 q -0.34667,0 -0.52,0.21333 -0.17334,0.21333 -0.17334,0.54667 v 0.82666 q 0,0.33333 0.17334,0.54667 0.17333,0.21333 0.52,0.21333 h 0.10666 q 0.34667,0 0.52,-0.21333 0.17333,-0.21334 0.17333,-0.54667 z m 4.10666,2.22666 v 0.82666 l -6.86665,0.97333 v -0.82666 z m -0.37333,3.83999 q 0,0.84 -0.42667,1.27999 -0.42666,0.42667 -1.2,0.42667 h -0.10666 q -0.77333,0 -1.2,-0.42667 -0.42666,-0.43999 -0.42666,-1.27999 v -0.53333 q 0,-0.84 0.42666,-1.26667 0.42667,-0.44 1.2,-0.44 h 0.10666 q 0.77334,0 1.2,0.44 0.42667,0.42667 0.42667,1.26667 z m -0.93333,-0.68 q 0,-0.33333 -0.17334,-0.54667 -0.17333,-0.21333 -0.52,-0.21333 h -0.10666 q -0.34667,0 -0.52,0.21333 -0.17333,0.21334 -0.17333,0.54667 v 0.82666 q 0,0.33334 0.17333,0.54667 0.17333,0.21333 0.52,0.21333 h 0.10666 q 0.34667,0 0.52,-0.21333 0.17334,-0.21333 0.17334,-0.54667 z"
           id="path69197"
           style="fill:#ffffff;fill-opacity:1;stroke:none;stroke-opacity:1" />
      </g>
    </g>
    <text
       xml:space="preserve"
       style="font-size:4.23333px;line-height:1.25;font-family:'Share Tech Mono';-inkscape-font-specification:'Share Tech Mono, Normal';letter-spacing:0px;word-spacing:0px;stroke-width:0.264583"
       x="26.005325"
       y="118.52066"
       id="text45190"><tspan
         sodipodi:role="line"
         id="tspan45188"
         style="stroke-width:0.264583"
         x="26.005325"
         y="118.52066" /></text>
    <g
       aria-label="select a &quot;function&quot;, then use the knobs to adjust the function for the step"
       transform="scale(0.26458333)"
       id="text44860"
       style="font-size:13.3333px;line-height:1.25;font-family:'Share Tech Mono';-inkscape-font-specification:'Share Tech Mono, Normal';letter-spacing:0px;word-spacing:0px;white-space:pre;shape-inside:url(#rect44862);fill:#8c8c8c" />
    <g
       aria-label="CLK"
       transform="matrix(0.26458333,0,0,0.26458333,39.246273,-13.361458)"
       id="text2586"
       style="font-size:14.6667px;font-family:'Share Tech Mono';-inkscape-font-specification:'Share Tech Mono, Normal';letter-spacing:0px;word-spacing:0px;white-space:pre;fill:#ffffff;fill-opacity:0.67759562">
      <path
         d="m -104.76132,152.85067 q -1.27601,0 -1.96534,-0.616 -0.67467,-0.63067 -0.67467,-1.87734 v -5.28001 q 0,-1.24667 0.67467,-1.86268 0.68933,-0.63066 1.96534,-0.63066 h 2.08267 v 1.11467 h -2.22934 q -0.54267,0 -0.88,0.32266 -0.33734,0.32267 -0.33734,0.77734 v 5.83734 q 0,0.45467 0.33734,0.77734 0.33733,0.32267 0.88,0.32267 h 2.22934 v 1.11467 z"
         id="path8415"
         style="fill:#ffffff;fill-opacity:0.67759562" />
      <path
         d="m -98.117323,142.58398 v 9.15202 h 3.270674 v 1.11467 h -4.546677 v -10.26669 z"
         id="path8417"
         style="fill:#ffffff;fill-opacity:0.67759562" />
      <path
         d="m -90.695988,149.06666 v 3.78401 h -1.276002 v -10.26669 h 1.276002 v 4.42934 l 2.786674,-4.42934 h 1.393336 l -2.830673,4.53201 3.006673,5.73468 h -1.46667 l -2.332005,-4.62001 z"
         id="path8419"
         style="fill:#ffffff;fill-opacity:0.67759562" />
    </g>
    <g
       aria-label="M"
       transform="matrix(0.26458333,0,0,0.26458333,0.02338608,0.74835464)"
       id="text3669"
       style="font-size:14.6667px;line-height:1.25;font-family:'Share Tech Mono';-inkscape-font-specification:'Share Tech Mono, Normal';letter-spacing:0px;word-spacing:0px;white-space:pre;shape-inside:url(#rect3671);fill:#ffffff;fill-opacity:0.67759562">
      <path
         d="m 109.55254,101.4743 h -1.21734 l -1.43734,-5.764009 v 9.210689 h -1.11467 V 94.654289 h 2.03868 l 1.17333,5.250679 1.188,-5.250679 h 1.98001 v 10.266691 h -1.144 v -9.210689 z"
         id="path17690"
         style="fill:#ffffff;fill-opacity:0.67759562" />
    </g>
    <g
       aria-label="M"
       transform="matrix(0.26458333,0,0,0.26458333,0.04265822,8.2365856)"
       id="text3669-2"
       style="font-size:14.6667px;line-height:1.25;font-family:'Share Tech Mono';-inkscape-font-specification:'Share Tech Mono, Normal';letter-spacing:0px;word-spacing:0px;white-space:pre;shape-inside:url(#rect3671-7);fill:#ffffff;fill-opacity:0.67759562">
      <path
         d="m 109.55254,101.4743 h -1.21734 l -1.43734,-5.764009 v 9.210689 h -1.11467 V 94.654289 h 2.03868 l 1.17333,5.250679 1.188,-5.250679 h 1.98001 v 10.266691 h -1.144 v -9.210689 z"
         id="path17696"
         style="fill:#ffffff;fill-opacity:0.67759562" />
    </g>
    <g
       aria-label="E"
       transform="matrix(0.33837567,0,0,0.26458333,-5.4565988,-21.346237)"
       id="text12329"
       style="font-size:14.6667px;line-height:1.25;font-family:'Share Tech Mono';-inkscape-font-specification:'Share Tech Mono, Normal';letter-spacing:0px;word-spacing:0px;white-space:pre;shape-inside:url(#rect12331);fill:#ffffff;fill-opacity:0.67759562">
      <path
         d="m 103.93083,192.06835 v 1.07067 h -3.62267 v 3.35867 h 3.256 v 1.07067 h -3.256 v 3.69601 h 3.62267 v 1.07067 h -4.898675 v -10.26669 z"
         style="font-size:14.6667px;line-height:1.25;font-family:'Share Tech Mono';-inkscape-font-specification:'Share Tech Mono, Normal';letter-spacing:0px;word-spacing:0px;white-space:pre;shape-inside:url(#rect12331);fill:#ffffff;fill-opacity:0.67759562"
         id="path17693" />
    </g>
  </g>
</svg>
