<?xml version="1.0" encoding="UTF-8" standalone="no"?>
<!-- Created with Inkscape (http://www.inkscape.org/) -->

<svg
   xmlns:dc="http://purl.org/dc/elements/1.1/"
   xmlns:cc="http://creativecommons.org/ns#"
   xmlns:rdf="http://www.w3.org/1999/02/22-rdf-syntax-ns#"
   xmlns:svg="http://www.w3.org/2000/svg"
   xmlns="http://www.w3.org/2000/svg"
   xmlns:sodipodi="http://sodipodi.sourceforge.net/DTD/sodipodi-0.dtd"
   xmlns:inkscape="http://www.inkscape.org/namespaces/inkscape"
   width="50.799999mm"
   height="128.5mm"
   viewBox="0 0 50.799999 128.5"
   version="1.1"
   id="svg11003"
   inkscape:version="0.92.4 (5da689c313, 2019-01-14)"
   sodipodi:docname="scatter_front_panel.svg">
  <defs
     id="defs10997" />
  <sodipodi:namedview
     id="base"
     pagecolor="#ffffff"
     bordercolor="#666666"
     borderopacity="1.0"
     inkscape:pageopacity="0.0"
     inkscape:pageshadow="2"
     inkscape:zoom="11.2"
     inkscape:cx="59.451921"
     inkscape:cy="225.09086"
     inkscape:document-units="mm"
     inkscape:current-layer="layer1"
     showgrid="false"
     fit-margin-top="0"
     fit-margin-left="0"
     fit-margin-right="0"
     fit-margin-bottom="0"
     inkscape:window-width="1920"
     inkscape:window-height="1137"
     inkscape:window-x="1912"
     inkscape:window-y="-8"
     inkscape:window-maximized="1"
     units="mm"
     showguides="true"
     inkscape:guide-bbox="true"
     showborder="true">
    <sodipodi:guide
       position="-14.298919,98.5"
       orientation="0,1"
       id="guide859"
       inkscape:locked="false"
       inkscape:label=""
       inkscape:color="rgb(0,0,255)" />
    <sodipodi:guide
       position="-21.916101,87"
       orientation="0,1"
       id="guide861"
       inkscape:locked="false"
       inkscape:label=""
       inkscape:color="rgb(0,0,255)" />
    <sodipodi:guide
       position="-14.566189,75.5"
       orientation="0,1"
       id="guide863"
       inkscape:locked="false"
       inkscape:label=""
       inkscape:color="rgb(0,0,255)" />
    <sodipodi:guide
       position="-20.980658,64"
       orientation="0,1"
       id="guide865"
       inkscape:locked="false"
       inkscape:label=""
       inkscape:color="rgb(0,0,255)" />
    <sodipodi:guide
       position="-13.497111,52.5"
       orientation="0,1"
       id="guide867"
       inkscape:locked="false"
       inkscape:label=""
       inkscape:color="rgb(0,0,255)" />
    <sodipodi:guide
       position="-16.704345,41"
       orientation="0,1"
       id="guide869"
       inkscape:locked="false"
       inkscape:label=""
       inkscape:color="rgb(0,0,255)" />
    <sodipodi:guide
       position="-12.160763,29.5"
       orientation="0,1"
       id="guide871"
       inkscape:locked="false"
       inkscape:label=""
       inkscape:color="rgb(0,0,255)" />
    <sodipodi:guide
       position="-16.303441,18"
       orientation="0,1"
       id="guide873"
       inkscape:locked="false"
       inkscape:label=""
       inkscape:color="rgb(0,0,255)" />
    <sodipodi:guide
       position="21.18111,100.49334"
       orientation="1,0"
       id="guide1667"
       inkscape:locked="false" />
  </sodipodi:namedview>
  <metadata
     id="metadata11000">
    <rdf:RDF>
      <cc:Work
         rdf:about="">
        <dc:format>image/svg+xml</dc:format>
        <dc:type
           rdf:resource="http://purl.org/dc/dcmitype/StillImage" />
        <dc:title />
      </cc:Work>
    </rdf:RDF>
  </metadata>
  <g
     inkscape:label="Panel Layer"
     inkscape:groupmode="layer"
     id="layer1"
     transform="translate(-64.792954,-47.169623)"
     style="display:inline">
    <path
       inkscape:connector-curvature="0"
       id="path33429"
       d="M 64.792953,47.169618 H 115.59295 V 175.66962 H 64.792953 Z m 0,0"
       style="fill:#e6e6e6;fill-opacity:1;fill-rule:nonzero;stroke:none;stroke-width:0.46018985" />
    <text
       xml:space="preserve"
       style="font-style:normal;font-weight:normal;font-size:4.58611107px;line-height:1.25;font-family:sans-serif;letter-spacing:0px;word-spacing:0px;fill:#000000;fill-opacity:1;stroke:none;stroke-width:0.26458332"
       x="75.943253"
       y="53.772301"
       id="text110"><tspan
         sodipodi:role="line"
         id="tspan108"
         x="75.943253"
         y="57.956348"
         style="font-size:4.58611107px;stroke-width:0.26458332" /></text>
    <g
       aria-label="voxglitch"
       style="font-style:normal;font-variant:normal;font-weight:normal;font-stretch:normal;font-size:3.88055563px;line-height:1.25;font-family:'Sitka Subheading';-inkscape-font-specification:'Sitka Subheading';letter-spacing:0px;word-spacing:0px;fill:#999999;fill-opacity:1;stroke:none;stroke-width:0.26458332"
       id="text939"
       transform="translate(-36.114251,0.11235302)">
      <path
         d="m 139.18399,173.2094 q -0.01,-0.0251 -0.0289,-0.0389 -0.0176,-0.0138 -0.0426,-0.0226 l -0.0953,-0.0389 v -0.0778 h 0.58451 v 0.0778 l -0.18438,0.0539 0.29727,0.70116 0.059,0.17811 h 0.0138 l 0.3324,-0.85293 -0.17435,-0.0803 v -0.0778 h 0.47915 v 0.0778 l -0.0991,0.0615 q -0.0251,0.0125 -0.0439,0.0263 -0.0188,0.0138 -0.0289,0.0364 l -0.34369,0.83914 -0.13672,0.27344 h -0.10787 z"
         style="font-size:2.82222223px;fill:#999999;stroke-width:0.26458332"
         id="path941"
         inkscape:connector-curvature="0" />
      <path
         d="m 141.14323,174.36588 q -0.14048,0 -0.25588,-0.0477 -0.11539,-0.0477 -0.19818,-0.13547 -0.0815,-0.0891 -0.12669,-0.21574 -0.0439,-0.12669 -0.0439,-0.28348 0,-0.1455 0.0439,-0.27093 0.0452,-0.12544 0.12669,-0.21826 0.0828,-0.0928 0.20069,-0.1455 0.11791,-0.0539 0.26592,-0.0539 0.16055,0 0.2772,0.0564 0.11791,0.0564 0.19442,0.15052 0.0778,0.0941 0.1154,0.21825 0.0376,0.12292 0.0376,0.25839 0,0.14299 -0.0439,0.26843 -0.0439,0.12543 -0.12669,0.2195 -0.0815,0.0928 -0.19943,0.14676 -0.11791,0.0527 -0.26718,0.0527 z m 0.0188,-0.11791 q 0.10536,0 0.17435,-0.0514 0.0702,-0.0514 0.11038,-0.13045 0.0414,-0.0803 0.0577,-0.17561 0.0163,-0.0966 0.0163,-0.18564 0,-0.10912 -0.0213,-0.21449 -0.0201,-0.10661 -0.0665,-0.19065 -0.0451,-0.084 -0.1179,-0.13547 -0.0727,-0.0514 -0.17686,-0.0514 -0.0702,0 -0.12418,0.0238 -0.0527,0.0238 -0.0928,0.064 -0.0401,0.0401 -0.0677,0.0941 -0.0263,0.0527 -0.0439,0.11289 -0.0163,0.0602 -0.0238,0.12292 -0.006,0.0627 -0.006,0.12167 0,0.0665 0.008,0.13672 0.008,0.069 0.0251,0.13547 0.0188,0.0652 0.0477,0.12418 0.0289,0.059 0.0715,0.10285 0.0426,0.0439 0.0991,0.0702 0.0577,0.0263 0.1317,0.0263 z"
         style="font-size:2.82222223px;fill:#999999;stroke-width:0.26458332"
         id="path943"
         inkscape:connector-curvature="0" />
      <path
         d="m 141.90933,174.25424 0.11163,-0.0464 q 0.0263,-0.01 0.0502,-0.0289 0.0251,-0.0201 0.0389,-0.0364 l 0.35622,-0.44152 -0.3487,-0.48793 q -0.0151,-0.0226 -0.0351,-0.0389 -0.0201,-0.0176 -0.0489,-0.0263 l -0.11289,-0.0389 v -0.0778 h 0.57198 v 0.0778 l -0.13422,0.0514 0.19568,0.28096 0.069,0.12418 h 0.009 l 0.29351,-0.3926 -0.11916,-0.064 v -0.0778 h 0.44277 v 0.0778 l -0.11163,0.0477 q -0.0263,0.01 -0.0502,0.0289 -0.0226,0.0188 -0.0376,0.0364 l -0.34243,0.42396 0.36125,0.50549 q 0.0163,0.0226 0.0364,0.0401 0.0213,0.0163 0.0489,0.0251 l 0.10913,0.0376 v 0.079 h -0.57197 v -0.079 l 0.13672,-0.0502 -0.20947,-0.29978 -0.069,-0.12292 h -0.009 l -0.30605,0.41016 0.11916,0.0627 v 0.079 h -0.44403 z"
         style="font-size:2.82222223px;fill:#999999;stroke-width:0.26458332"
         id="path945"
         inkscape:connector-curvature="0" />
      <path
         d="m 143.66884,174.29815 q -0.0326,-0.01 -0.069,-0.0289 -0.0351,-0.0188 -0.0652,-0.0477 -0.0301,-0.0289 -0.0502,-0.0677 -0.0188,-0.0401 -0.0188,-0.0916 0,-0.0577 0.0213,-0.10034 0.0226,-0.0439 0.0564,-0.074 0.0339,-0.0314 0.0753,-0.0502 0.0414,-0.0188 0.079,-0.0276 v -0.009 q -0.0389,-0.0226 -0.0778,-0.0539 -0.0389,-0.0326 -0.0702,-0.0765 -0.0301,-0.0439 -0.0502,-0.10035 -0.0188,-0.0577 -0.0188,-0.13045 0,-0.0928 0.0364,-0.17435 0.0376,-0.0815 0.10536,-0.14174 0.0677,-0.0602 0.16306,-0.0941 0.0953,-0.0351 0.21198,-0.0351 0.0753,0 0.14299,0.01 0.0677,0.01 0.13045,0.0263 h 0.44027 l -0.0151,0.15428 -0.3324,-0.0426 v 0.008 q 0.0301,0.0326 0.0539,0.0652 0.0238,0.0326 0.0401,0.069 0.0176,0.0351 0.0263,0.0753 0.009,0.0389 0.009,0.0853 0,0.0928 -0.0351,0.17184 -0.0339,0.079 -0.0991,0.13798 -0.0652,0.0577 -0.16056,0.0903 -0.0941,0.0326 -0.21574,0.0326 -0.0314,0 -0.064,-0.003 -0.0314,-0.004 -0.0602,-0.008 -0.0289,-0.005 -0.0539,-0.0113 -0.0238,-0.006 -0.0401,-0.0126 -0.0188,0.004 -0.0376,0.0151 -0.0176,0.0113 -0.0326,0.0289 -0.0151,0.0163 -0.0251,0.0389 -0.009,0.0226 -0.009,0.0489 0,0.0263 0.009,0.0502 0.009,0.0226 0.0238,0.0401 0.0151,0.0176 0.0339,0.0301 0.0201,0.0113 0.0414,0.0151 h 0.44278 q 0.12543,0 0.20947,0.0301 0.0853,0.0301 0.13672,0.079 0.0527,0.0489 0.074,0.10912 0.0226,0.059 0.0226,0.11791 0,0.10913 -0.0539,0.19944 -0.0527,0.0916 -0.14551,0.15679 -0.0928,0.0665 -0.21825,0.10285 -0.12543,0.0364 -0.26968,0.0364 -0.12417,0 -0.22954,-0.0213 -0.10411,-0.0213 -0.18062,-0.064 -0.0765,-0.0414 -0.12041,-0.10285 -0.0427,-0.0615 -0.0427,-0.14174 0,-0.0652 0.0226,-0.1154 0.0238,-0.0502 0.0615,-0.0878 0.0376,-0.0364 0.0865,-0.0615 0.0502,-0.0251 0.10536,-0.0401 z m 0.31985,-0.52055 q 0.064,0 0.11289,-0.0238 0.0489,-0.0238 0.0815,-0.069 0.0326,-0.0451 0.0489,-0.10912 0.0176,-0.0652 0.0176,-0.14676 0,-0.079 -0.0188,-0.14048 -0.0188,-0.0615 -0.0539,-0.10411 -0.0339,-0.0427 -0.0828,-0.064 -0.0477,-0.0226 -0.10661,-0.0226 -0.0577,0 -0.10411,0.0213 -0.0464,0.0213 -0.0803,0.064 -0.0339,0.0414 -0.0527,0.10411 -0.0176,0.0615 -0.0176,0.143 0,0.0828 0.0176,0.14801 0.0188,0.064 0.0514,0.10912 0.0339,0.0439 0.0815,0.0677 0.0477,0.0226 0.10536,0.0226 z m -0.21449,0.5356 q -0.0238,0.006 -0.0502,0.0238 -0.0263,0.0176 -0.0477,0.0464 -0.0213,0.0289 -0.0351,0.069 -0.0138,0.0414 -0.0138,0.0941 0,0.0527 0.0188,0.0941 0.0188,0.0414 0.0502,0.0715 0.0326,0.0301 0.074,0.0502 0.0414,0.0201 0.0853,0.0326 0.0439,0.0125 0.0866,0.0176 0.0439,0.005 0.0803,0.005 0.0778,0 0.15428,-0.0163 0.0778,-0.0151 0.13797,-0.0514 0.0615,-0.0351 0.0991,-0.0916 0.0376,-0.0552 0.0376,-0.13422 0,-0.0364 -0.0151,-0.074 -0.0138,-0.0376 -0.0451,-0.0677 -0.0301,-0.0301 -0.0803,-0.0489 -0.0489,-0.0201 -0.11665,-0.0201 z"
         style="font-size:2.82222223px;fill:#999999;stroke-width:0.26458332"
         id="path947"
         inkscape:connector-curvature="0" />
      <path
         d="m 144.83179,174.25424 0.16933,-0.0439 q 0.0238,-0.006 0.0376,-0.0213 0.0151,-0.0163 0.0151,-0.0427 v -1.4826 q 0,-0.0289 -0.0163,-0.0464 -0.0163,-0.0188 -0.0464,-0.0288 l -0.16557,-0.0615 v -0.0702 l 0.46535,-0.0477 v 1.73723 q 0,0.0263 0.015,0.0427 0.0163,0.0163 0.0376,0.0213 l 0.16056,0.0439 v 0.079 h -0.67232 z"
         style="font-size:2.82222223px;fill:#999999;stroke-width:0.26458332"
         id="path949"
         inkscape:connector-curvature="0" />
      <path
         d="m 145.98401,172.74655 q -0.0351,0 -0.0665,-0.0113 -0.0301,-0.0125 -0.0539,-0.0326 -0.0226,-0.0201 -0.0364,-0.0489 -0.0138,-0.0301 -0.0138,-0.0665 0,-0.0364 0.0138,-0.0665 0.0138,-0.0301 0.0364,-0.0502 0.0238,-0.0213 0.0539,-0.0326 0.0314,-0.0113 0.0665,-0.0113 0.0376,0 0.0702,0.0113 0.0326,0.01 0.0552,0.0301 0.0238,0.0201 0.0364,0.0489 0.0138,0.0276 0.0138,0.064 0,0.0376 -0.0138,0.0677 -0.0125,0.0301 -0.0364,0.0527 -0.0238,0.0213 -0.0564,0.0339 -0.0326,0.0113 -0.069,0.0113 z m -0.32612,1.50769 0.1731,-0.0439 q 0.0238,-0.006 0.0389,-0.0213 0.0151,-0.0163 0.0151,-0.0427 v -0.85795 q 0,-0.0289 -0.0163,-0.0464 -0.0163,-0.0188 -0.0477,-0.0289 l -0.1593,-0.0552 v -0.0702 l 0.45908,-0.074 v 1.13265 q 0,0.0263 0.0151,0.0427 0.0163,0.0163 0.0376,0.0213 l 0.16683,0.0439 v 0.079 h -0.68235 z"
         style="font-size:2.82222223px;fill:#999999;stroke-width:0.26458332"
         id="path951"
         inkscape:connector-curvature="0" />
      <path
         d="m 146.65956,173.16299 h -0.20947 v -0.0966 q 0.0514,-0.01 0.0928,-0.0188 0.0426,-0.009 0.0727,-0.0276 0.0301,-0.0201 0.0477,-0.0552 0.0188,-0.0351 0.0226,-0.0966 l 0.01,-0.17435 0.20069,-0.0389 v 0.38005 h 0.46034 l -0.0188,0.12795 h -0.44152 v 0.87049 q 0,0.0414 0.0263,0.0703 0.0264,0.0288 0.064,0.0477 0.0389,0.0188 0.0803,0.0276 0.0414,0.008 0.0728,0.008 0.0213,0 0.0477,-0.004 0.0276,-0.005 0.0527,-0.01 0.0251,-0.006 0.0464,-0.0138 0.0226,-0.008 0.0339,-0.0126 h 0.0326 v 0.0891 q -0.0176,0.0113 -0.0539,0.0314 -0.0351,0.0201 -0.0828,0.0401 -0.0464,0.0201 -0.10286,0.0339 -0.0552,0.0151 -0.11163,0.0151 -0.0703,0 -0.13296,-0.0176 -0.0615,-0.0176 -0.10787,-0.0502 -0.0464,-0.0326 -0.074,-0.0803 -0.0276,-0.0489 -0.0276,-0.11164 z"
         style="font-size:2.82222223px;fill:#999999;stroke-width:0.26458332"
         id="path953"
         inkscape:connector-curvature="0" />
      <path
         d="m 148.58823,174.02345 v 0.12418 q -0.0427,0.0376 -0.0966,0.0765 -0.0527,0.0376 -0.11666,0.069 -0.0627,0.0314 -0.13546,0.0502 -0.0728,0.0201 -0.15428,0.0201 -0.13547,0 -0.2446,-0.0502 -0.10912,-0.0502 -0.18564,-0.13798 -0.0765,-0.089 -0.1179,-0.20821 -0.0401,-0.11917 -0.0401,-0.25839 0,-0.10035 0.0238,-0.19192 0.0251,-0.0916 0.0702,-0.17058 0.0452,-0.079 0.10787,-0.143 0.064,-0.0652 0.14049,-0.11038 0.0778,-0.0451 0.16682,-0.0702 0.0891,-0.0251 0.18564,-0.0251 0.074,0 0.13045,0.0125 0.0577,0.0113 0.10035,0.0276 0.0439,0.0151 0.074,0.0326 0.0314,0.0163 0.0552,0.0263 l -0.0201,0.23455 h -0.0464 q -0.0477,-0.0301 -0.0953,-0.0615 -0.0464,-0.0326 -0.0978,-0.0577 -0.0502,-0.0263 -0.10787,-0.0426 -0.0577,-0.0176 -0.1292,-0.0176 -0.0226,0 -0.0489,0.006 -0.0263,0.005 -0.0527,0.0163 -0.0263,0.0113 -0.0489,0.0263 -0.0226,0.0151 -0.0389,0.0339 -0.0201,0.0226 -0.0414,0.0565 -0.0201,0.0326 -0.0376,0.0828 -0.0163,0.0489 -0.0276,0.1154 -0.01,0.0665 -0.01,0.15553 0,0.12795 0.0276,0.22829 0.0276,0.10035 0.0828,0.17059 0.0552,0.0702 0.13672,0.10787 0.0815,0.0364 0.1894,0.0364 0.0602,0 0.11414,-0.0176 0.0552,-0.0176 0.10286,-0.0414 0.0477,-0.0251 0.0865,-0.0539 0.0401,-0.0289 0.069,-0.0514 z"
         style="font-size:2.82222223px;fill:#999999;stroke-width:0.26458332"
         id="path955"
         inkscape:connector-curvature="0" />
      <path
         d="m 148.74492,174.25424 0.14551,-0.0439 q 0.0263,-0.008 0.0389,-0.0226 0.0138,-0.0151 0.0138,-0.0414 v -1.4826 q 0,-0.0289 -0.0163,-0.0464 -0.0163,-0.0176 -0.0464,-0.0288 l -0.14425,-0.0615 v -0.0702 l 0.44278,-0.0477 v 0.73879 0.0677 q 0.0552,-0.0727 0.10787,-0.1154 0.0539,-0.0439 0.10536,-0.0665 0.0527,-0.0238 0.10286,-0.0314 0.0514,-0.008 0.1016,-0.008 0.0865,0 0.16181,0.0263 0.0765,0.0251 0.13295,0.079 0.0577,0.0539 0.0903,0.13923 0.0326,0.0853 0.0326,0.2032 v 0.6974 q 0,0.0314 0.0151,0.0477 0.0151,0.0163 0.0364,0.0226 l 0.13296,0.0439 v 0.079 h -0.60458 v -0.079 l 0.13296,-0.0439 q 0.0213,-0.006 0.0364,-0.0226 0.0151,-0.0163 0.0151,-0.0477 v -0.59956 q 0,-0.0878 -0.0113,-0.15554 -0.01,-0.069 -0.0414,-0.11665 -0.0314,-0.0489 -0.0878,-0.074 -0.0552,-0.0251 -0.1455,-0.0251 -0.0414,0 -0.084,0.006 -0.0426,0.006 -0.084,0.0213 -0.0414,0.0151 -0.079,0.0401 -0.0376,0.0251 -0.0665,0.0615 v 0.84792 q 0,0.0263 0.0138,0.0414 0.0151,0.0151 0.0389,0.0226 l 0.11791,0.0439 v 0.079 h -0.60459 z"
         style="font-size:2.82222223px;fill:#999999;stroke-width:0.26458332"
         id="path957"
         inkscape:connector-curvature="0" />
    </g>
    <text
       xml:space="preserve"
       style="font-style:normal;font-variant:normal;font-weight:normal;font-stretch:normal;font-size:3.88055563px;line-height:1.25;font-family:'Share Tech Mono';-inkscape-font-specification:'Share Tech Mono';letter-spacing:0px;word-spacing:0px;fill:#000000;fill-opacity:1;stroke:none;stroke-width:0.26458332"
       x="110.48083"
       y="98.467987"
       id="text2911"><tspan
         sodipodi:role="line"
         id="tspan2909"
         x="110.48083"
         y="102.00034"
         style="font-style:normal;font-variant:normal;font-weight:normal;font-stretch:normal;font-family:'Share Tech Mono';-inkscape-font-specification:'Share Tech Mono';stroke-width:0.26458332" /></text>
    <text
       xml:space="preserve"
       style="font-style:normal;font-variant:normal;font-weight:normal;font-stretch:normal;font-size:3.88055563px;line-height:1.25;font-family:'Share Tech Mono';-inkscape-font-specification:'Share Tech Mono';letter-spacing:0px;word-spacing:0px;fill:#000000;fill-opacity:1;stroke:none;stroke-width:0.26458332"
       x="101.74013"
       y="99.554665"
       id="text2915"><tspan
         sodipodi:role="line"
         id="tspan2913"
         x="101.74013"
         y="103.08702"
         style="font-style:normal;font-variant:normal;font-weight:normal;font-stretch:normal;font-family:'Share Tech Mono';-inkscape-font-specification:'Share Tech Mono';stroke-width:0.26458332" /></text>
    <g
       aria-label="LENGTH"
       style="font-style:normal;font-variant:normal;font-weight:normal;font-stretch:normal;font-size:3.52777767px;line-height:1.25;font-family:'Share Tech Mono';-inkscape-font-specification:'Share Tech Mono';letter-spacing:0px;word-spacing:0px;fill:#000046;fill-opacity:1;stroke:none;stroke-width:0.26458332"
       id="text2919"
       transform="translate(-1.405896,4.2215415)" />
    <path
       d="m 72.591146,66.614378 v -2.20133 h -0.560907 v -0.26811 h 1.428744 v 0.26811 h -0.560917 v 2.20133 z"
       style="font-style:normal;font-variant:normal;font-weight:normal;font-stretch:normal;font-size:3.52777767px;line-height:1.25;font-family:'Share Tech Mono';-inkscape-font-specification:'Share Tech Mono';letter-spacing:0px;word-spacing:0px;display:inline;fill:#000000;fill-opacity:1;stroke:none;stroke-width:0.26458332"
       id="path1505"
       inkscape:connector-curvature="0" />
    <path
       d="m 74.249417,65.591328 v 1.02305 H 73.9425 v -2.46944 h 0.663224 q 0.29986,0 0.45155,0.13405 0.155217,0.13053 0.155217,0.41628 v 0.33867 q 0,0.39864 -0.317497,0.49741 l 0.490367,1.08303 h -0.335137 l -0.455087,-1.02305 z m 0.656167,-0.92781 q 0,-0.13405 -0.0635,-0.19403 -0.06,-0.06 -0.19403,-0.06 h -0.398637 v 0.91722 h 0.398637 q 0.13406,0 0.19403,-0.06 0.0635,-0.0635 0.0635,-0.19755 z"
       style="font-style:normal;font-variant:normal;font-weight:normal;font-stretch:normal;font-size:3.52777767px;line-height:1.25;font-family:'Share Tech Mono';-inkscape-font-specification:'Share Tech Mono';letter-spacing:0px;word-spacing:0px;display:inline;fill:#000000;fill-opacity:1;stroke:none;stroke-width:0.26458332"
       id="path1507"
       inkscape:connector-curvature="0" />
    <path
       d="m 76.563845,66.614378 q -0.30691,0 -0.472717,-0.14816 -0.16228,-0.1517 -0.16228,-0.45156 v -1.27 q 0,-0.29986 0.16228,-0.44803 0.165807,-0.15169 0.472717,-0.15169 h 0.497417 v 0.26811 h -0.532687 q -0.13053,0 -0.21167,0.0776 -0.0811,0.0776 -0.0811,0.18697 v 1.40406 q 0,0.10936 0.0811,0.18697 0.0811,0.0776 0.21167,0.0776 h 0.345717 v -0.76553 h -0.306917 v -0.26458 h 0.599717 v 1.29822 z"
       style="font-style:normal;font-variant:normal;font-weight:normal;font-stretch:normal;font-size:3.52777767px;line-height:1.25;font-family:'Share Tech Mono';-inkscape-font-specification:'Share Tech Mono';letter-spacing:0px;word-spacing:0px;display:inline;fill:#000000;fill-opacity:1;stroke:none;stroke-width:0.26458332"
       id="path1509"
       inkscape:connector-curvature="0" />
    <rect
       style="fill:#000000;fill-opacity:0.20100505;stroke:none;stroke-width:0.068;stroke-miterlimit:4;stroke-dasharray:none;stroke-opacity:1"
       id="rect1645"
       width="24.176523"
       height="97.102562"
       x="87.716957"
       y="68.701851"
       rx="1.0897765"
       ry="1.0293086" />
    <g
       aria-label="SAMPERx8"
       style="font-style:normal;font-variant:normal;font-weight:normal;font-stretch:normal;font-size:4.93888903px;line-height:1.25;font-family:'Share Tech Mono';-inkscape-font-specification:'Share Tech Mono';letter-spacing:0px;word-spacing:0px;fill:#000000;fill-opacity:1;stroke:none;stroke-width:0.26458332"
       id="text856">
      <path
         d="m 81.674756,55.087013 q 0,0.419806 -0.232127,0.632178 -0.227189,0.207433 -0.656873,0.207433 h -0.701322 v -0.375355 h 0.750711 q 0.182739,0 0.296334,-0.108656 0.113594,-0.108655 0.113594,-0.261761 v -0.513644 q 0,-0.148167 -0.07902,-0.237067 -0.07408,-0.09384 -0.227189,-0.09384 h -0.148167 q -0.365477,0 -0.57785,-0.212372 -0.212372,-0.217311 -0.212372,-0.627239 v -0.187678 q 0,-0.419805 0.227189,-0.627239 0.232128,-0.212372 0.661811,-0.212372 h 0.706261 v 0.375356 h -0.75565 q -0.182739,0 -0.296333,0.108655 -0.113595,0.108656 -0.113595,0.261761 v 0.375356 q 0,0.153105 0.09878,0.256822 0.09878,0.09878 0.256822,0.09878 h 0.148167 q 0.350661,0 0.543278,0.202494 0.197555,0.202495 0.197555,0.612422 z"
         style="font-size:4.93888903px;stroke-width:0.26458332"
         id="path858" />
      <path
         d="m 83.023382,55.052441 -0.192617,0.874183 h -0.439561 l 0.834672,-3.457222 h 0.567973 l 0.819855,3.457222 h -0.439561 l -0.187678,-0.874183 z m 0.884061,-0.370417 -0.404989,-1.886655 -0.40005,1.886655 z"
         style="font-size:4.93888903px;stroke-width:0.26458332"
         id="path860" />
      <path
         d="m 86.36238,54.765985 h -0.409928 l -0.484011,-1.940983 v 3.101622 h -0.375356 v -3.457222 h 0.686506 l 0.395111,1.768122 0.40005,-1.768122 h 0.66675 v 3.457222 h -0.385233 v -3.101622 z"
         style="font-size:4.93888903px;stroke-width:0.26458332"
         id="path862" />
      <path
         d="m 89.721133,53.802902 q 0,0.40005 -0.212372,0.592667 -0.212372,0.187677 -0.627239,0.187677 h -0.513644 v 1.343378 h -0.429684 v -3.457222 h 0.93345 q 0.419806,0 0.632178,0.187678 0.217311,0.182739 0.217311,0.582789 z M 89.29145,53.195419 q 0,-0.187678 -0.0889,-0.271639 -0.08396,-0.08396 -0.271639,-0.08396 h -0.563033 v 1.373011 h 0.563033 q 0.187678,0 0.271639,-0.08396 0.0889,-0.0889 0.0889,-0.276578 z"
         style="font-size:4.93888903px;stroke-width:0.26458332"
         id="path864" />
      <path
         d="m 92.314359,52.469402 v 0.360539 h -1.219906 v 1.131005 h 1.096433 v 0.360539 h -1.096433 v 1.2446 h 1.219906 v 0.360539 H 90.66477 v -3.457222 z"
         style="font-size:4.93888903px;stroke-width:0.26458332"
         id="path866" />
      <path
         d="m 93.593839,54.494346 v 1.432278 h -0.429683 v -3.457222 h 0.928511 q 0.419806,0 0.632178,0.187678 0.217311,0.182739 0.217311,0.582789 v 0.474133 q 0,0.558094 -0.4445,0.696383 l 0.686506,1.516239 H 94.714967 L 94.07785,54.494346 Z m 0.918634,-1.298927 q 0,-0.187678 -0.0889,-0.271639 -0.08396,-0.08396 -0.271639,-0.08396 h -0.558095 v 1.284111 h 0.558095 q 0.187678,0 0.271639,-0.08396 0.0889,-0.0889 0.0889,-0.276578 z"
         style="font-size:4.93888903px;stroke-width:0.26458332"
         id="path868" />
      <path
         d="m 96.266088,55.926624 h -0.464256 l 0.770467,-1.274233 -0.7112,-1.195211 h 0.48895 l 0.469194,0.829733 0.479073,-0.829733 h 0.459316 l -0.721078,1.175455 0.785284,1.293989 h -0.493889 l -0.518583,-0.93345 z"
         style="font-size:4.93888903px;stroke-width:0.26458332"
         id="path870" />
      <path
         d="m 100.38543,55.14628 q 0,0.409928 -0.19756,0.597605 -0.197552,0.182739 -0.642052,0.182739 h -0.138289 q -0.4445,0 -0.642056,-0.182739 -0.197555,-0.187677 -0.197555,-0.597605 v -0.414867 q 0,-0.429683 0.321027,-0.607483 -0.261761,-0.182739 -0.261761,-0.572911 v -0.31115 q 0,-0.395111 0.207434,-0.582789 0.207433,-0.187678 0.592666,-0.187678 h 0.09878 q 0.385233,0 0.592668,0.187678 0.20743,0.187678 0.20743,0.582789 v 0.31115 q 0,0.390172 -0.26176,0.572911 0.32103,0.1778 0.32103,0.607483 z m -1.017412,-2.306461 q -0.167923,0.0049 -0.242006,0.09384 -0.06914,0.08396 -0.06914,0.261761 v 0.404989 q 0,0.158044 0.0889,0.256822 0.09384,0.09384 0.232127,0.103716 h 0.167923 q 0.153105,0 0.251883,-0.09878 0.09878,-0.09878 0.09878,-0.261761 v -0.404989 q 0,-0.187678 -0.08396,-0.271639 -0.07902,-0.08396 -0.2667,-0.08396 z m 0.587727,1.847144 q 0,-0.162983 -0.09878,-0.256822 -0.09878,-0.09878 -0.261761,-0.09878 H 99.35814 q -0.162983,0 -0.261761,0.09878 -0.09878,0.09384 -0.09878,0.256822 v 0.508706 q 0,0.182739 0.07902,0.271639 0.07902,0.0889 0.246945,0.0889 h 0.2667 q 0.187677,0 0.276577,-0.08396 0.0889,-0.0889 0.0889,-0.276578 z"
         style="font-size:4.93888903px;stroke-width:0.26458332"
         id="path872" />
    </g>
    <g
       aria-label="OUTPUTS"
       style="font-style:normal;font-variant:normal;font-weight:normal;font-stretch:normal;font-size:3.88055563px;line-height:1.25;font-family:'Share Tech Mono';-inkscape-font-specification:'Share Tech Mono';letter-spacing:0px;word-spacing:0px;fill:#000000;fill-opacity:1;stroke:none;stroke-width:0.26458332"
       id="text877">
      <path
         d="m 94.365891,65.95493 q 0,0.329847 -0.182386,0.496711 -0.178505,0.162983 -0.516114,0.162983 h -0.155222 q -0.337608,0 -0.519994,-0.162983 -0.178506,-0.166864 -0.178506,-0.496711 v -1.397 q 0,-0.329848 0.178506,-0.492831 0.182386,-0.166864 0.519994,-0.166864 h 0.155222 q 0.337609,0 0.516114,0.166864 0.182386,0.162983 0.182386,0.492831 z m -0.337608,-1.470731 q 0,-0.120297 -0.08925,-0.205669 -0.08925,-0.08537 -0.232833,-0.08537 h -0.232833 q -0.143581,0 -0.232834,0.08537 -0.08925,0.08537 -0.08925,0.205669 v 1.544461 q 0,0.120297 0.08925,0.20567 0.08925,0.08537 0.232834,0.08537 h 0.232833 q 0.143581,0 0.232833,-0.08537 0.08925,-0.08537 0.08925,-0.20567 z"
         style="font-size:3.88055563px;stroke-width:0.26458332"
         id="path879" />
      <path
         d="m 96.426709,65.95493 q 0,0.329847 -0.182386,0.496711 -0.178506,0.162983 -0.516114,0.162983 h -0.09701 q -0.337608,0 -0.519994,-0.162983 -0.178506,-0.166864 -0.178506,-0.496711 v -2.056695 h 0.337608 v 2.130425 q 0,0.120297 0.08925,0.20567 0.08925,0.08537 0.232834,0.08537 h 0.174625 q 0.14358,0 0.232833,-0.08537 0.08925,-0.08537 0.08925,-0.20567 v -2.130425 h 0.337608 z"
         style="font-size:3.88055563px;stroke-width:0.26458332"
         id="path881" />
      <path
         d="m 97.60276,66.614624 v -2.421467 h -0.617009 v -0.294922 h 1.571626 v 0.294922 h -0.617009 v 2.421467 z"
         style="font-size:3.88055563px;stroke-width:0.26458332"
         id="path883" />
      <path
         d="m 100.56775,64.945985 q 0,0.314325 -0.16687,0.465667 -0.16686,0.147461 -0.492827,0.147461 h -0.403578 v 1.055511 h -0.337609 v -2.716389 h 0.733425 q 0.329849,0 0.496709,0.147461 0.17075,0.143581 0.17075,0.457906 z m -0.33761,-0.477308 q 0,-0.147461 -0.0699,-0.213431 -0.066,-0.06597 -0.213432,-0.06597 h -0.442383 v 1.078794 h 0.442383 q 0.147462,0 0.213432,-0.06597 0.0699,-0.06985 0.0699,-0.217311 z"
         style="font-size:3.88055563px;stroke-width:0.26458332"
         id="path885" />
      <path
         d="m 102.70229,65.95493 q 0,0.329847 -0.18238,0.496711 -0.17851,0.162983 -0.51612,0.162983 h -0.097 q -0.33761,0 -0.51999,-0.162983 -0.17851,-0.166864 -0.17851,-0.496711 v -2.056695 h 0.33761 v 2.130425 q 0,0.120297 0.0893,0.20567 0.0892,0.08537 0.23284,0.08537 h 0.17462 q 0.14358,0 0.23283,-0.08537 0.0893,-0.08537 0.0893,-0.20567 v -2.130425 h 0.3376 z"
         style="font-size:3.88055563px;stroke-width:0.26458332"
         id="path887" />
      <path
         d="m 103.87835,66.614624 v -2.421467 h -0.61701 v -0.294922 h 1.57162 v 0.294922 h -0.61701 v 2.421467 z"
         style="font-size:3.88055563px;stroke-width:0.26458332"
         id="path889" />
      <path
         d="m 106.79677,65.95493 q 0,0.329847 -0.18239,0.496711 -0.17851,0.162983 -0.51611,0.162983 h -0.55104 v -0.294922 h 0.58984 q 0.14358,0 0.23284,-0.08537 0.0892,-0.08537 0.0892,-0.20567 v -0.403578 q 0,-0.116416 -0.0621,-0.186266 -0.0582,-0.07373 -0.17851,-0.07373 h -0.11641 q -0.28716,0 -0.45403,-0.166864 -0.16686,-0.170744 -0.16686,-0.49283 V 64.55793 q 0,-0.329848 0.1785,-0.492831 0.18239,-0.166864 0.52,-0.166864 h 0.55492 v 0.294922 h -0.59373 q -0.14358,0 -0.23283,0.08537 -0.0892,0.08537 -0.0892,0.205669 v 0.294922 q 0,0.120297 0.0776,0.201789 0.0776,0.07761 0.20179,0.07761 h 0.11641 q 0.27552,0 0.42686,0.159103 0.15523,0.159103 0.15523,0.481189 z"
         style="font-size:3.88055563px;stroke-width:0.26458332"
         id="path891" />
    </g>
    <path
       style="display:inline;fill:#b3b3b3;fill-opacity:1;stroke:#808080;stroke-width:0.14003873px;stroke-linecap:butt;stroke-linejoin:miter;stroke-opacity:1"
       d="m 80.592954,77.199615 c 4.945051,0 5,0 5,0"
       id="path27-1-2-2-3-7-9-3-2-0-8"
       inkscape:connector-curvature="0" />
    <path
       style="display:inline;fill:#b3b3b3;fill-opacity:1;stroke:#808080;stroke-width:0.14003873px;stroke-linecap:butt;stroke-linejoin:miter;stroke-opacity:1"
       d="m 80.592954,88.699615 c 4.945051,0 5,0 5,0"
       id="path27-1-2-2-3-7-9-3-2-0-8-6"
       inkscape:connector-curvature="0" />
    <path
       style="display:inline;fill:#b3b3b3;fill-opacity:1;stroke:#808080;stroke-width:0.14003873px;stroke-linecap:butt;stroke-linejoin:miter;stroke-opacity:1"
       d="m 80.592954,100.1996 c 4.945051,0 5,0 5,0"
       id="path27-1-2-2-3-7-9-3-2-0-8-7"
       inkscape:connector-curvature="0" />
    <path
       style="display:inline;fill:#b3b3b3;fill-opacity:1;stroke:#808080;stroke-width:0.14003873px;stroke-linecap:butt;stroke-linejoin:miter;stroke-opacity:1"
       d="m 80.592954,111.6996 c 4.945051,0 5,0 5,0"
       id="path27-1-2-2-3-7-9-3-2-0-8-5"
       inkscape:connector-curvature="0" />
    <path
       style="display:inline;fill:#b3b3b3;fill-opacity:1;stroke:#808080;stroke-width:0.14003873px;stroke-linecap:butt;stroke-linejoin:miter;stroke-opacity:1"
       d="m 80.592954,123.1996 c 4.945051,0 5,0 5,0"
       id="path27-1-2-2-3-7-9-3-2-0-8-9"
       inkscape:connector-curvature="0" />
    <path
       style="display:inline;fill:#b3b3b3;fill-opacity:1;stroke:#808080;stroke-width:0.14003873px;stroke-linecap:butt;stroke-linejoin:miter;stroke-opacity:1"
       d="m 80.592954,134.6996 c 4.945051,0 5,0 5,0"
       id="path27-1-2-2-3-7-9-3-2-0-8-8"
       inkscape:connector-curvature="0" />
    <path
       style="display:inline;fill:#b3b3b3;fill-opacity:1;stroke:#808080;stroke-width:0.14003873px;stroke-linecap:butt;stroke-linejoin:miter;stroke-opacity:1"
       d="m 80.592954,146.1996 c 4.945051,0 5,0 5,0"
       id="path27-1-2-2-3-7-9-3-2-0-8-80"
       inkscape:connector-curvature="0" />
    <path
       style="display:inline;fill:#b3b3b3;fill-opacity:1;stroke:#808080;stroke-width:0.14003873px;stroke-linecap:butt;stroke-linejoin:miter;stroke-opacity:1"
       d="m 80.592954,157.6996 c 4.945051,0 5,0 5,0"
       id="path27-1-2-2-3-7-9-3-2-0-8-82"
       inkscape:connector-curvature="0" />
  </g>
</svg>
