<?xml version="1.0" encoding="UTF-8" standalone="no"?>
<svg
   xmlns:dc="http://purl.org/dc/elements/1.1/"
   xmlns:cc="http://creativecommons.org/ns#"
   xmlns:rdf="http://www.w3.org/1999/02/22-rdf-syntax-ns#"
   xmlns:svg="http://www.w3.org/2000/svg"
   xmlns="http://www.w3.org/2000/svg"
   xmlns:sodipodi="http://sodipodi.sourceforge.net/DTD/sodipodi-0.dtd"
   xmlns:inkscape="http://www.inkscape.org/namespaces/inkscape"
   sodipodi:docname="stringed_front_panel.svg"
   inkscape:version="1.0 (4035a4fb49, 2020-05-01)"
   id="svg11003"
   version="1.1"
   viewBox="0 0 86 128.5"
   height="128.5mm"
   width="86mm">
  <defs
     id="defs10997" />
  <sodipodi:namedview
     inkscape:document-rotation="0"
     showborder="false"
     inkscape:guide-bbox="true"
     showguides="true"
     units="mm"
     inkscape:window-maximized="1"
     inkscape:window-y="1138"
     inkscape:window-x="-11"
     inkscape:window-height="1526"
     inkscape:window-width="2880"
     fit-margin-bottom="0"
     fit-margin-right="0"
     fit-margin-left="0"
     fit-margin-top="0"
     showgrid="false"
     inkscape:current-layer="layer1"
     inkscape:document-units="mm"
     inkscape:cy="381.76753"
     inkscape:cx="115.17262"
     inkscape:zoom="3.959798"
     inkscape:pageshadow="2"
     inkscape:pageopacity="0.0"
     borderopacity="1.0"
     bordercolor="#666666"
     pagecolor="#ffffff"
     id="base">
    <sodipodi:guide
       inkscape:color="rgb(0,0,255)"
       inkscape:label=""
       inkscape:locked="false"
       id="guide904"
       orientation="-1,0"
       position="43.000001,29.967596" />
    <sodipodi:guide
       inkscape:color="rgb(0,0,255)"
       inkscape:locked="false"
       inkscape:label=""
       id="guide914"
       orientation="-1,0"
       position="5.3750001,96.561014" />
    <sodipodi:guide
       inkscape:color="rgb(0,0,255)"
       inkscape:locked="false"
       inkscape:label=""
       id="guide916"
       orientation="-1,0"
       position="10.75,48.841519" />
    <sodipodi:guide
       inkscape:color="rgb(0,0,255)"
       inkscape:locked="false"
       inkscape:label=""
       id="guide918"
       orientation="-1,0"
       position="16.125,50.825894" />
    <sodipodi:guide
       inkscape:color="rgb(0,0,255)"
       inkscape:locked="false"
       inkscape:label=""
       id="guide920"
       orientation="-1,0"
       position="21.5,62.259674" />
    <sodipodi:guide
       inkscape:color="rgb(0,0,255)"
       inkscape:locked="false"
       inkscape:label=""
       id="guide922"
       orientation="-1,0"
       position="26.875,69.346728" />
    <sodipodi:guide
       inkscape:color="rgb(0,0,255)"
       inkscape:locked="false"
       inkscape:label=""
       id="guide924"
       orientation="-1,0"
       position="32.25,73.882442" />
    <sodipodi:guide
       inkscape:color="rgb(0,0,255)"
       inkscape:locked="false"
       inkscape:label=""
       id="guide926"
       orientation="-1,0"
       position="37.625001,64.811014" />
    <sodipodi:guide
       inkscape:color="rgb(0,0,255)"
       inkscape:locked="false"
       inkscape:label=""
       id="guide928"
       orientation="-1,0"
       position="48.375001,58.763395" />
    <sodipodi:guide
       inkscape:color="rgb(0,0,255)"
       inkscape:locked="false"
       inkscape:label=""
       id="guide930"
       orientation="-1,0"
       position="53.750001,39.959079" />
    <sodipodi:guide
       inkscape:color="rgb(0,0,255)"
       inkscape:locked="false"
       inkscape:label=""
       id="guide932"
       orientation="-1,0"
       position="59.125001,34.572918" />
    <sodipodi:guide
       inkscape:color="rgb(0,0,255)"
       inkscape:locked="false"
       inkscape:label=""
       id="guide934"
       orientation="-1,0"
       position="64.500001,51.865329" />
    <sodipodi:guide
       inkscape:color="rgb(0,0,255)"
       inkscape:locked="false"
       inkscape:label=""
       id="guide936"
       orientation="-1,0"
       position="69.875001,47.613097" />
    <sodipodi:guide
       inkscape:color="rgb(0,0,255)"
       inkscape:locked="false"
       inkscape:label=""
       id="guide938"
       orientation="-1,0"
       position="75.250001,54.70015" />
    <sodipodi:guide
       inkscape:color="rgb(0,0,255)"
       inkscape:locked="false"
       inkscape:label=""
       id="guide940"
       orientation="-1,0"
       position="80.625001,60.653276" />
    <sodipodi:guide
       inkscape:color="rgb(0,0,255)"
       inkscape:locked="false"
       inkscape:label=""
       id="guide942"
       orientation="0,1"
       position="-33.545387,120.46875" />
    <sodipodi:guide
       inkscape:color="rgb(0,0,255)"
       inkscape:locked="false"
       inkscape:label=""
       id="guide946"
       orientation="0,1"
       position="-53.389137,112.4375" />
    <sodipodi:guide
       inkscape:color="rgb(0,0,255)"
       inkscape:locked="false"
       inkscape:label=""
       id="guide948"
       orientation="0,1"
       position="-12.945685,104.40625" />
    <sodipodi:guide
       inkscape:color="rgb(0,0,255)"
       inkscape:locked="false"
       inkscape:label=""
       id="guide950"
       orientation="0,1"
       position="-25.702381,96.375001" />
    <sodipodi:guide
       inkscape:color="rgb(0,0,255)"
       inkscape:locked="false"
       inkscape:label=""
       id="guide952"
       orientation="0,1"
       position="-24.190476,88.343751" />
    <sodipodi:guide
       inkscape:color="rgb(0,0,255)"
       inkscape:locked="false"
       inkscape:label=""
       id="guide954"
       orientation="0,1"
       position="-25.229911,80.312501" />
    <sodipodi:guide
       inkscape:color="rgb(0,0,255)"
       inkscape:locked="false"
       inkscape:label=""
       id="guide956"
       orientation="0,1"
       position="-33.828869,72.281251" />
    <sodipodi:guide
       inkscape:color="rgb(0,0,255)"
       inkscape:locked="false"
       inkscape:label=""
       id="guide958"
       orientation="0,1"
       position="-23.623512,64.250001" />
    <sodipodi:guide
       inkscape:color="rgb(0,0,255)"
       inkscape:locked="false"
       inkscape:label=""
       id="guide960"
       orientation="0,1"
       position="-27.970238,56.218751" />
    <sodipodi:guide
       inkscape:color="rgb(0,0,255)"
       inkscape:locked="false"
       inkscape:label=""
       id="guide962"
       orientation="0,1"
       position="-37.986607,48.187501" />
    <sodipodi:guide
       inkscape:color="rgb(0,0,255)"
       inkscape:locked="false"
       inkscape:label=""
       id="guide964"
       orientation="0,1"
       position="-28.25372,40.156251" />
    <sodipodi:guide
       inkscape:color="rgb(0,0,255)"
       inkscape:locked="false"
       inkscape:label=""
       id="guide966"
       orientation="0,1"
       position="-28.820685,8.0312501" />
    <sodipodi:guide
       inkscape:color="rgb(0,0,255)"
       inkscape:locked="false"
       inkscape:label=""
       id="guide968"
       orientation="0,1"
       position="-29.104167,32.125" />
    <sodipodi:guide
       inkscape:color="rgb(0,0,255)"
       inkscape:locked="false"
       inkscape:label=""
       id="guide970"
       orientation="0,1"
       position="-21.733631,24.09375" />
    <sodipodi:guide
       inkscape:color="rgb(0,0,255)"
       inkscape:locked="false"
       inkscape:label=""
       id="guide972"
       orientation="0,1"
       position="-22.017113,16.0625" />
    <sodipodi:guide
       inkscape:color="rgb(115,210,22)"
       inkscape:locked="false"
       inkscape:label=""
       id="guide974"
       orientation="0,1"
       position="-20.127232,64.250001" />
    <sodipodi:guide
       inkscape:color="rgb(115,210,22)"
       inkscape:locked="false"
       inkscape:label=""
       id="guide976"
       orientation="0,1"
       position="-24.190476,116.75" />
    <sodipodi:guide
       inkscape:color="rgb(115,210,22)"
       inkscape:locked="false"
       inkscape:label=""
       id="guide978"
       orientation="0,1"
       position="-22.678571,109.25" />
    <sodipodi:guide
       inkscape:color="rgb(115,210,22)"
       inkscape:locked="false"
       inkscape:label=""
       id="guide980"
       orientation="0,1"
       position="-13.890625,101.75" />
    <sodipodi:guide
       inkscape:color="rgb(115,210,22)"
       inkscape:locked="false"
       inkscape:label=""
       id="guide982"
       orientation="0,1"
       position="-21.355655,94.250001" />
    <sodipodi:guide
       inkscape:color="rgb(115,210,22)"
       inkscape:locked="false"
       inkscape:label=""
       id="guide984"
       orientation="0,1"
       position="-49.231399,86.750001" />
    <sodipodi:guide
       inkscape:color="rgb(115,210,22)"
       inkscape:locked="false"
       inkscape:label=""
       id="guide986"
       orientation="0,1"
       position="-52.349702,79.250001" />
    <sodipodi:guide
       inkscape:color="rgb(115,210,22)"
       inkscape:locked="false"
       inkscape:label=""
       id="guide988"
       orientation="0,1"
       position="-34.962798,71.750001" />
    <sodipodi:guide
       inkscape:color="rgb(115,210,22)"
       inkscape:locked="false"
       inkscape:label=""
       id="guide990"
       orientation="0,1"
       position="-25.040923,56.750001" />
    <sodipodi:guide
       inkscape:color="rgb(115,210,22)"
       inkscape:locked="false"
       inkscape:label=""
       id="guide992"
       orientation="0,1"
       position="-29.482143,49.250001" />
    <sodipodi:guide
       inkscape:color="rgb(115,210,22)"
       inkscape:locked="false"
       inkscape:label=""
       id="guide994"
       orientation="0,1"
       position="-30.994048,41.750001" />
    <sodipodi:guide
       inkscape:color="rgb(115,210,22)"
       inkscape:locked="false"
       inkscape:label=""
       id="guide996"
       orientation="0,1"
       position="-36.852679,34.25" />
    <sodipodi:guide
       inkscape:color="rgb(115,210,22)"
       inkscape:locked="false"
       inkscape:label=""
       id="guide998"
       orientation="0,1"
       position="-50.176339,26.75" />
    <sodipodi:guide
       inkscape:color="rgb(115,210,22)"
       inkscape:locked="false"
       inkscape:label=""
       id="guide1000"
       orientation="0,1"
       position="-27.875744,26.75" />
    <sodipodi:guide
       inkscape:color="rgb(115,210,22)"
       inkscape:locked="false"
       inkscape:label=""
       id="guide1002"
       orientation="0,1"
       position="-50.554316,19.25" />
    <sodipodi:guide
       inkscape:color="rgb(115,210,22)"
       inkscape:locked="false"
       inkscape:label=""
       id="guide1004"
       orientation="0,1"
       position="-17.292411,11.75" />
    <sodipodi:guide
       inkscape:color="rgb(115,210,22)"
       inkscape:locked="false"
       inkscape:label=""
       id="guide1006"
       orientation="-1,0"
       position="11.32,-11.162202" />
    <sodipodi:guide
       inkscape:color="rgb(115,210,22)"
       inkscape:locked="false"
       inkscape:label=""
       id="guide1008"
       orientation="-1,0"
       position="18.82,60.74777" />
    <sodipodi:guide
       inkscape:color="rgb(115,210,22)"
       inkscape:locked="false"
       inkscape:label=""
       id="guide1010"
       orientation="-1,0"
       position="26.32,-10.311755" />
    <sodipodi:guide
       inkscape:color="rgb(115,210,22)"
       inkscape:locked="false"
       inkscape:label=""
       id="guide1014"
       orientation="-1,0"
       position="33.82,129.91741" />
    <sodipodi:guide
       inkscape:color="rgb(115,210,22)"
       inkscape:locked="false"
       inkscape:label=""
       id="guide1016"
       orientation="-1,0"
       position="41.320001,127.83854" />
    <sodipodi:guide
       inkscape:color="rgb(115,210,22)"
       inkscape:locked="false"
       inkscape:label=""
       id="guide1018"
       orientation="-1,0"
       position="48.820001,126.79911" />
    <sodipodi:guide
       inkscape:color="rgb(115,210,22)"
       inkscape:locked="false"
       inkscape:label=""
       id="guide1020"
       orientation="-1,0"
       position="56.320001,126.13765" />
    <sodipodi:guide
       id="guide2510"
       orientation="0,-1"
       position="75.25,4.1528532" />
  </sodipodi:namedview>
  <metadata
     id="metadata11000">
    <rdf:RDF>
      <cc:Work
         rdf:about="">
        <dc:format>image/svg+xml</dc:format>
        <dc:type
           rdf:resource="http://purl.org/dc/dcmitype/StillImage" />
        <dc:title></dc:title>
      </cc:Work>
    </rdf:RDF>
  </metadata>
  <g
     style="display:inline"
     transform="translate(-64.792954,-47.169623)"
     id="layer1"
     inkscape:groupmode="layer"
     inkscape:label="Panel Layer">
    <path
       style="fill:#e6e6e6;fill-opacity:1;fill-rule:nonzero;stroke:none;stroke-width:0.46018988"
       d="M 64.792954,47.169629 H 150.79295 V 175.66963 H 64.792954 Z m 0,0"
       id="path33429"
       inkscape:connector-curvature="0" />
    <text
       id="text110"
       y="53.772301"
       x="75.943253"
       style="font-style:normal;font-weight:normal;font-size:4.58611px;line-height:1.25;font-family:sans-serif;letter-spacing:0px;word-spacing:0px;fill:#000000;fill-opacity:1;stroke:none;stroke-width:0.264583"
       xml:space="preserve" />
    <rect
       transform="scale(1,-1)"
       y="-171.41962"
       x="68.612953"
       height="120"
       width="60"
       id="rect438"
       style="fill:#ffffff;fill-opacity:1;stroke-width:0.130568" />
    <g
       transform="translate(-70.51024,0.112493)"
       id="text939"
       style="font-style:normal;font-variant:normal;font-weight:normal;font-stretch:normal;font-size:3.88056px;line-height:1.25;font-family:'Sitka Subheading';-inkscape-font-specification:'Sitka Subheading';letter-spacing:0px;word-spacing:0px;display:inline;fill:#999999;fill-opacity:1;stroke:none;stroke-width:0.264583"
       aria-label="voxglitch">
      <path
         inkscape:connector-curvature="0"
         id="path941"
         style="font-size:2.82222px;fill:#999999;stroke-width:0.264583"
         d="m 139.18399,173.2094 q -0.01,-0.0251 -0.0289,-0.0389 -0.0176,-0.0138 -0.0426,-0.0226 l -0.0953,-0.0389 v -0.0778 h 0.58451 v 0.0778 l -0.18438,0.0539 0.29727,0.70116 0.059,0.17811 h 0.0138 l 0.3324,-0.85293 -0.17435,-0.0803 v -0.0778 h 0.47915 v 0.0778 l -0.0991,0.0615 q -0.0251,0.0125 -0.0439,0.0263 -0.0188,0.0138 -0.0289,0.0364 l -0.34369,0.83914 -0.13672,0.27344 h -0.10787 z" />
      <path
         inkscape:connector-curvature="0"
         id="path943"
         style="font-size:2.82222px;fill:#999999;stroke-width:0.264583"
         d="m 141.14323,174.36588 q -0.14048,0 -0.25588,-0.0477 -0.11539,-0.0477 -0.19818,-0.13547 -0.0815,-0.0891 -0.12669,-0.21574 -0.0439,-0.12669 -0.0439,-0.28348 0,-0.1455 0.0439,-0.27093 0.0452,-0.12544 0.12669,-0.21826 0.0828,-0.0928 0.20069,-0.1455 0.11791,-0.0539 0.26592,-0.0539 0.16055,0 0.2772,0.0564 0.11791,0.0564 0.19442,0.15052 0.0778,0.0941 0.1154,0.21825 0.0376,0.12292 0.0376,0.25839 0,0.14299 -0.0439,0.26843 -0.0439,0.12543 -0.12669,0.2195 -0.0815,0.0928 -0.19943,0.14676 -0.11791,0.0527 -0.26718,0.0527 z m 0.0188,-0.11791 q 0.10536,0 0.17435,-0.0514 0.0702,-0.0514 0.11038,-0.13045 0.0414,-0.0803 0.0577,-0.17561 0.0163,-0.0966 0.0163,-0.18564 0,-0.10912 -0.0213,-0.21449 -0.0201,-0.10661 -0.0665,-0.19065 -0.0451,-0.084 -0.1179,-0.13547 -0.0727,-0.0514 -0.17686,-0.0514 -0.0702,0 -0.12418,0.0238 -0.0527,0.0238 -0.0928,0.064 -0.0401,0.0401 -0.0677,0.0941 -0.0263,0.0527 -0.0439,0.11289 -0.0163,0.0602 -0.0238,0.12292 -0.006,0.0627 -0.006,0.12167 0,0.0665 0.008,0.13672 0.008,0.069 0.0251,0.13547 0.0188,0.0652 0.0477,0.12418 0.0289,0.059 0.0715,0.10285 0.0426,0.0439 0.0991,0.0702 0.0577,0.0263 0.1317,0.0263 z" />
      <path
         inkscape:connector-curvature="0"
         id="path945"
         style="font-size:2.82222px;fill:#999999;stroke-width:0.264583"
         d="m 141.90933,174.25424 0.11163,-0.0464 q 0.0263,-0.01 0.0502,-0.0289 0.0251,-0.0201 0.0389,-0.0364 l 0.35622,-0.44152 -0.3487,-0.48793 q -0.0151,-0.0226 -0.0351,-0.0389 -0.0201,-0.0176 -0.0489,-0.0263 l -0.11289,-0.0389 v -0.0778 h 0.57198 v 0.0778 l -0.13422,0.0514 0.19568,0.28096 0.069,0.12418 h 0.009 l 0.29351,-0.3926 -0.11916,-0.064 v -0.0778 h 0.44277 v 0.0778 l -0.11163,0.0477 q -0.0263,0.01 -0.0502,0.0289 -0.0226,0.0188 -0.0376,0.0364 l -0.34243,0.42396 0.36125,0.50549 q 0.0163,0.0226 0.0364,0.0401 0.0213,0.0163 0.0489,0.0251 l 0.10913,0.0376 v 0.079 h -0.57197 v -0.079 l 0.13672,-0.0502 -0.20947,-0.29978 -0.069,-0.12292 h -0.009 l -0.30605,0.41016 0.11916,0.0627 v 0.079 h -0.44403 z" />
      <path
         inkscape:connector-curvature="0"
         id="path947"
         style="font-size:2.82222px;fill:#999999;stroke-width:0.264583"
         d="m 143.66884,174.29815 q -0.0326,-0.01 -0.069,-0.0289 -0.0351,-0.0188 -0.0652,-0.0477 -0.0301,-0.0289 -0.0502,-0.0677 -0.0188,-0.0401 -0.0188,-0.0916 0,-0.0577 0.0213,-0.10034 0.0226,-0.0439 0.0564,-0.074 0.0339,-0.0314 0.0753,-0.0502 0.0414,-0.0188 0.079,-0.0276 v -0.009 q -0.0389,-0.0226 -0.0778,-0.0539 -0.0389,-0.0326 -0.0702,-0.0765 -0.0301,-0.0439 -0.0502,-0.10035 -0.0188,-0.0577 -0.0188,-0.13045 0,-0.0928 0.0364,-0.17435 0.0376,-0.0815 0.10536,-0.14174 0.0677,-0.0602 0.16306,-0.0941 0.0953,-0.0351 0.21198,-0.0351 0.0753,0 0.14299,0.01 0.0677,0.01 0.13045,0.0263 h 0.44027 l -0.0151,0.15428 -0.3324,-0.0426 v 0.008 q 0.0301,0.0326 0.0539,0.0652 0.0238,0.0326 0.0401,0.069 0.0176,0.0351 0.0263,0.0753 0.009,0.0389 0.009,0.0853 0,0.0928 -0.0351,0.17184 -0.0339,0.079 -0.0991,0.13798 -0.0652,0.0577 -0.16056,0.0903 -0.0941,0.0326 -0.21574,0.0326 -0.0314,0 -0.064,-0.003 -0.0314,-0.004 -0.0602,-0.008 -0.0289,-0.005 -0.0539,-0.0113 -0.0238,-0.006 -0.0401,-0.0126 -0.0188,0.004 -0.0376,0.0151 -0.0176,0.0113 -0.0326,0.0289 -0.0151,0.0163 -0.0251,0.0389 -0.009,0.0226 -0.009,0.0489 0,0.0263 0.009,0.0502 0.009,0.0226 0.0238,0.0401 0.0151,0.0176 0.0339,0.0301 0.0201,0.0113 0.0414,0.0151 h 0.44278 q 0.12543,0 0.20947,0.0301 0.0853,0.0301 0.13672,0.079 0.0527,0.0489 0.074,0.10912 0.0226,0.059 0.0226,0.11791 0,0.10913 -0.0539,0.19944 -0.0527,0.0916 -0.14551,0.15679 -0.0928,0.0665 -0.21825,0.10285 -0.12543,0.0364 -0.26968,0.0364 -0.12417,0 -0.22954,-0.0213 -0.10411,-0.0213 -0.18062,-0.064 -0.0765,-0.0414 -0.12041,-0.10285 -0.0427,-0.0615 -0.0427,-0.14174 0,-0.0652 0.0226,-0.1154 0.0238,-0.0502 0.0615,-0.0878 0.0376,-0.0364 0.0865,-0.0615 0.0502,-0.0251 0.10536,-0.0401 z m 0.31985,-0.52055 q 0.064,0 0.11289,-0.0238 0.0489,-0.0238 0.0815,-0.069 0.0326,-0.0451 0.0489,-0.10912 0.0176,-0.0652 0.0176,-0.14676 0,-0.079 -0.0188,-0.14048 -0.0188,-0.0615 -0.0539,-0.10411 -0.0339,-0.0427 -0.0828,-0.064 -0.0477,-0.0226 -0.10661,-0.0226 -0.0577,0 -0.10411,0.0213 -0.0464,0.0213 -0.0803,0.064 -0.0339,0.0414 -0.0527,0.10411 -0.0176,0.0615 -0.0176,0.143 0,0.0828 0.0176,0.14801 0.0188,0.064 0.0514,0.10912 0.0339,0.0439 0.0815,0.0677 0.0477,0.0226 0.10536,0.0226 z m -0.21449,0.5356 q -0.0238,0.006 -0.0502,0.0238 -0.0263,0.0176 -0.0477,0.0464 -0.0213,0.0289 -0.0351,0.069 -0.0138,0.0414 -0.0138,0.0941 0,0.0527 0.0188,0.0941 0.0188,0.0414 0.0502,0.0715 0.0326,0.0301 0.074,0.0502 0.0414,0.0201 0.0853,0.0326 0.0439,0.0125 0.0866,0.0176 0.0439,0.005 0.0803,0.005 0.0778,0 0.15428,-0.0163 0.0778,-0.0151 0.13797,-0.0514 0.0615,-0.0351 0.0991,-0.0916 0.0376,-0.0552 0.0376,-0.13422 0,-0.0364 -0.0151,-0.074 -0.0138,-0.0376 -0.0451,-0.0677 -0.0301,-0.0301 -0.0803,-0.0489 -0.0489,-0.0201 -0.11665,-0.0201 z" />
      <path
         inkscape:connector-curvature="0"
         id="path949"
         style="font-size:2.82222px;fill:#999999;stroke-width:0.264583"
         d="m 144.83179,174.25424 0.16933,-0.0439 q 0.0238,-0.006 0.0376,-0.0213 0.0151,-0.0163 0.0151,-0.0427 v -1.4826 q 0,-0.0289 -0.0163,-0.0464 -0.0163,-0.0188 -0.0464,-0.0288 l -0.16557,-0.0615 v -0.0702 l 0.46535,-0.0477 v 1.73723 q 0,0.0263 0.015,0.0427 0.0163,0.0163 0.0376,0.0213 l 0.16056,0.0439 v 0.079 h -0.67232 z" />
      <path
         inkscape:connector-curvature="0"
         id="path951"
         style="font-size:2.82222px;fill:#999999;stroke-width:0.264583"
         d="m 145.98401,172.74655 q -0.0351,0 -0.0665,-0.0113 -0.0301,-0.0125 -0.0539,-0.0326 -0.0226,-0.0201 -0.0364,-0.0489 -0.0138,-0.0301 -0.0138,-0.0665 0,-0.0364 0.0138,-0.0665 0.0138,-0.0301 0.0364,-0.0502 0.0238,-0.0213 0.0539,-0.0326 0.0314,-0.0113 0.0665,-0.0113 0.0376,0 0.0702,0.0113 0.0326,0.01 0.0552,0.0301 0.0238,0.0201 0.0364,0.0489 0.0138,0.0276 0.0138,0.064 0,0.0376 -0.0138,0.0677 -0.0125,0.0301 -0.0364,0.0527 -0.0238,0.0213 -0.0564,0.0339 -0.0326,0.0113 -0.069,0.0113 z m -0.32612,1.50769 0.1731,-0.0439 q 0.0238,-0.006 0.0389,-0.0213 0.0151,-0.0163 0.0151,-0.0427 v -0.85795 q 0,-0.0289 -0.0163,-0.0464 -0.0163,-0.0188 -0.0477,-0.0289 l -0.1593,-0.0552 v -0.0702 l 0.45908,-0.074 v 1.13265 q 0,0.0263 0.0151,0.0427 0.0163,0.0163 0.0376,0.0213 l 0.16683,0.0439 v 0.079 h -0.68235 z" />
      <path
         inkscape:connector-curvature="0"
         id="path953"
         style="font-size:2.82222px;fill:#999999;stroke-width:0.264583"
         d="m 146.65956,173.16299 h -0.20947 v -0.0966 q 0.0514,-0.01 0.0928,-0.0188 0.0426,-0.009 0.0727,-0.0276 0.0301,-0.0201 0.0477,-0.0552 0.0188,-0.0351 0.0226,-0.0966 l 0.01,-0.17435 0.20069,-0.0389 v 0.38005 h 0.46034 l -0.0188,0.12795 h -0.44152 v 0.87049 q 0,0.0414 0.0263,0.0703 0.0264,0.0288 0.064,0.0477 0.0389,0.0188 0.0803,0.0276 0.0414,0.008 0.0728,0.008 0.0213,0 0.0477,-0.004 0.0276,-0.005 0.0527,-0.01 0.0251,-0.006 0.0464,-0.0138 0.0226,-0.008 0.0339,-0.0126 h 0.0326 v 0.0891 q -0.0176,0.0113 -0.0539,0.0314 -0.0351,0.0201 -0.0828,0.0401 -0.0464,0.0201 -0.10286,0.0339 -0.0552,0.0151 -0.11163,0.0151 -0.0703,0 -0.13296,-0.0176 -0.0615,-0.0176 -0.10787,-0.0502 -0.0464,-0.0326 -0.074,-0.0803 -0.0276,-0.0489 -0.0276,-0.11164 z" />
      <path
         inkscape:connector-curvature="0"
         id="path955"
         style="font-size:2.82222px;fill:#999999;stroke-width:0.264583"
         d="m 148.58823,174.02345 v 0.12418 q -0.0427,0.0376 -0.0966,0.0765 -0.0527,0.0376 -0.11666,0.069 -0.0627,0.0314 -0.13546,0.0502 -0.0728,0.0201 -0.15428,0.0201 -0.13547,0 -0.2446,-0.0502 -0.10912,-0.0502 -0.18564,-0.13798 -0.0765,-0.089 -0.1179,-0.20821 -0.0401,-0.11917 -0.0401,-0.25839 0,-0.10035 0.0238,-0.19192 0.0251,-0.0916 0.0702,-0.17058 0.0452,-0.079 0.10787,-0.143 0.064,-0.0652 0.14049,-0.11038 0.0778,-0.0451 0.16682,-0.0702 0.0891,-0.0251 0.18564,-0.0251 0.074,0 0.13045,0.0125 0.0577,0.0113 0.10035,0.0276 0.0439,0.0151 0.074,0.0326 0.0314,0.0163 0.0552,0.0263 l -0.0201,0.23455 h -0.0464 q -0.0477,-0.0301 -0.0953,-0.0615 -0.0464,-0.0326 -0.0978,-0.0577 -0.0502,-0.0263 -0.10787,-0.0426 -0.0577,-0.0176 -0.1292,-0.0176 -0.0226,0 -0.0489,0.006 -0.0263,0.005 -0.0527,0.0163 -0.0263,0.0113 -0.0489,0.0263 -0.0226,0.0151 -0.0389,0.0339 -0.0201,0.0226 -0.0414,0.0565 -0.0201,0.0326 -0.0376,0.0828 -0.0163,0.0489 -0.0276,0.1154 -0.01,0.0665 -0.01,0.15553 0,0.12795 0.0276,0.22829 0.0276,0.10035 0.0828,0.17059 0.0552,0.0702 0.13672,0.10787 0.0815,0.0364 0.1894,0.0364 0.0602,0 0.11414,-0.0176 0.0552,-0.0176 0.10286,-0.0414 0.0477,-0.0251 0.0865,-0.0539 0.0401,-0.0289 0.069,-0.0514 z" />
      <path
         inkscape:connector-curvature="0"
         id="path957"
         style="font-size:2.82222px;fill:#999999;stroke-width:0.264583"
         d="m 148.74492,174.25424 0.14551,-0.0439 q 0.0263,-0.008 0.0389,-0.0226 0.0138,-0.0151 0.0138,-0.0414 v -1.4826 q 0,-0.0289 -0.0163,-0.0464 -0.0163,-0.0176 -0.0464,-0.0288 l -0.14425,-0.0615 v -0.0702 l 0.44278,-0.0477 v 0.73879 0.0677 q 0.0552,-0.0727 0.10787,-0.1154 0.0539,-0.0439 0.10536,-0.0665 0.0527,-0.0238 0.10286,-0.0314 0.0514,-0.008 0.1016,-0.008 0.0865,0 0.16181,0.0263 0.0765,0.0251 0.13295,0.079 0.0577,0.0539 0.0903,0.13923 0.0326,0.0853 0.0326,0.2032 v 0.6974 q 0,0.0314 0.0151,0.0477 0.0151,0.0163 0.0364,0.0226 l 0.13296,0.0439 v 0.079 h -0.60458 v -0.079 l 0.13296,-0.0439 q 0.0213,-0.006 0.0364,-0.0226 0.0151,-0.0163 0.0151,-0.0477 v -0.59956 q 0,-0.0878 -0.0113,-0.15554 -0.01,-0.069 -0.0414,-0.11665 -0.0314,-0.0489 -0.0878,-0.074 -0.0552,-0.0251 -0.1455,-0.0251 -0.0414,0 -0.084,0.006 -0.0426,0.006 -0.084,0.0213 -0.0414,0.0151 -0.079,0.0401 -0.0376,0.0251 -0.0665,0.0615 v 0.84792 q 0,0.0263 0.0138,0.0414 0.0151,0.0151 0.0389,0.0226 l 0.11791,0.0439 v 0.079 h -0.60459 z" />
    </g>
    <g
       style="font-size:3.52777px;line-height:1.25;font-family:'Share Tech Mono';-inkscape-font-specification:'Share Tech Mono, Normal';letter-spacing:0px;word-spacing:0px;stroke-width:0.264583"
       id="text2433"
       aria-label="CLOCK">
      <path
         id="path2450"
         style="stroke-width:0.264583"
         d="m 136.30503,53.264488 q -0.30691,0 -0.47272,-0.148166 -0.16228,-0.151694 -0.16228,-0.451555 V 51.39477 q 0,-0.29986 0.16228,-0.448027 0.16581,-0.151694 0.47272,-0.151694 h 0.50095 v 0.268111 h -0.53622 q -0.13053,0 -0.21167,0.07761 -0.0811,0.07761 -0.0811,0.186971 v 1.404053 q 0,0.109361 0.0811,0.186972 0.0811,0.07761 0.21167,0.07761 h 0.53622 v 0.26811 z" />
      <path
         id="path2452"
         style="stroke-width:0.264583"
         d="m 137.89981,50.795049 v 2.201329 h 0.78669 v 0.26811 h -1.09361 v -2.469439 z" />
      <path
         id="path2454"
         style="stroke-width:0.264583"
         d="m 140.74694,52.664767 q 0,0.299861 -0.16581,0.451555 -0.16228,0.148166 -0.46919,0.148166 h -0.14111 q -0.30692,0 -0.47272,-0.148166 -0.16228,-0.151694 -0.16228,-0.451555 V 51.39477 q 0,-0.29986 0.16228,-0.448027 0.1658,-0.151694 0.47272,-0.151694 h 0.14111 q 0.30691,0 0.46919,0.151694 0.16581,0.148167 0.16581,0.448027 z m -0.30692,-1.337025 q 0,-0.10936 -0.0811,-0.186971 -0.0811,-0.07761 -0.21166,-0.07761 h -0.21167 q -0.13053,0 -0.21167,0.07761 -0.0811,0.07761 -0.0811,0.186971 v 1.404053 q 0,0.109361 0.0811,0.186972 0.0811,0.07761 0.21167,0.07761 h 0.21167 q 0.13052,0 0.21166,-0.07761 0.0811,-0.07761 0.0811,-0.186972 z" />
      <path
         id="path2456"
         style="stroke-width:0.264583"
         d="m 142.0101,53.264488 q -0.30692,0 -0.47272,-0.148166 -0.16228,-0.151694 -0.16228,-0.451555 V 51.39477 q 0,-0.29986 0.16228,-0.448027 0.1658,-0.151694 0.47272,-0.151694 h 0.50094 v 0.268111 h -0.53622 q -0.13053,0 -0.21167,0.07761 -0.0811,0.07761 -0.0811,0.186971 v 1.404053 q 0,0.109361 0.0811,0.186972 0.0811,0.07761 0.21167,0.07761 h 0.53622 v 0.26811 z" />
      <path
         id="path2458"
         style="stroke-width:0.264583"
         d="m 143.48493,52.354324 v 0.910164 h -0.30692 v -2.469439 h 0.30692 v 1.065387 l 0.67027,-1.065387 h 0.33514 l -0.68086,1.090081 0.72319,1.379358 h -0.35277 l -0.56092,-1.111247 z" />
    </g>
    <g
       transform="translate(0.01215725,3.2011188)"
       style="font-size:3.52777px;line-height:1.25;font-family:'Share Tech Mono';-inkscape-font-specification:'Share Tech Mono, Normal';letter-spacing:0px;word-spacing:0px;stroke-width:0.264583"
       id="text2437"
       aria-label="RESET">
      <path
         id="path2439"
         style="stroke-width:0.264583"
         d="m 135.83937,66.510035 v 1.023054 h -0.30692 V 65.06365 h 0.66322 q 0.29986,0 0.45156,0.134055 0.15522,0.130527 0.15522,0.416277 v 0.338666 q 0,0.398638 -0.3175,0.497415 l 0.49036,1.083026 h -0.33514 l -0.45508,-1.023054 z m 0.65616,-0.927803 q 0,-0.134055 -0.0635,-0.194028 -0.06,-0.05997 -0.19402,-0.05997 h -0.39864 v 0.917221 h 0.39864 q 0.13405,0 0.19402,-0.05997 0.0635,-0.0635 0.0635,-0.197556 z" />
      <path
         id="path2441"
         style="stroke-width:0.264583"
         d="m 138.72883,65.06365 v 0.257527 h -0.87136 v 0.807859 h 0.78317 v 0.257527 h -0.78317 v 0.888998 h 0.87136 v 0.257528 h -1.17827 V 65.06365 Z" />
      <path
         id="path2443"
         style="stroke-width:0.264583"
         d="m 140.63758,66.933368 q 0,0.29986 -0.16581,0.451554 -0.16228,0.148167 -0.46919,0.148167 h -0.50095 v -0.268111 h 0.53622 q 0.13053,0 0.21167,-0.07761 0.0811,-0.07761 0.0811,-0.186972 v -0.366888 q 0,-0.105833 -0.0564,-0.169333 -0.0529,-0.06703 -0.16228,-0.06703 h -0.10584 q -0.26105,0 -0.41274,-0.151694 -0.1517,-0.155222 -0.1517,-0.448027 v -0.134055 q 0,-0.299861 0.16228,-0.448027 0.1658,-0.151694 0.47272,-0.151694 h 0.50447 v 0.26811 h -0.53975 q -0.13053,0 -0.21166,0.07761 -0.0811,0.07761 -0.0811,0.186972 v 0.26811 q 0,0.109361 0.0705,0.183444 0.0706,0.07056 0.18345,0.07056 h 0.10583 q 0.25047,0 0.38805,0.144638 0.14112,0.144639 0.14112,0.437444 z" />
      <path
         id="path2445"
         style="stroke-width:0.264583"
         d="m 142.53221,65.06365 v 0.257527 h -0.87136 v 0.807859 h 0.78316 v 0.257527 h -0.78316 v 0.888998 h 0.87136 v 0.257528 h -1.17828 V 65.06365 Z" />
      <path
         id="path2447"
         style="stroke-width:0.264583"
         d="M 143.68954,67.533089 V 65.33176 h -0.56092 v -0.26811 h 1.42875 v 0.26811 h -0.56092 v 2.201329 z" />
    </g>
    <g
       transform="translate(0,0.52916667)"
       style="font-size:3.52777px;line-height:1.25;font-family:'Share Tech Mono';-inkscape-font-specification:'Share Tech Mono, Normal';letter-spacing:0px;word-spacing:0px;stroke-width:0.264583"
       id="text2499"
       aria-label="OUT">
      <path
         id="path2501"
         style="stroke-width:0.264583"
         d="m 138.79141,87.958293 q 0,0.29986 -0.1658,0.451555 -0.16228,0.148166 -0.46919,0.148166 h -0.14112 q -0.30691,0 -0.47272,-0.148166 -0.16227,-0.151695 -0.16227,-0.451555 v -1.269997 q 0,-0.299861 0.16227,-0.448027 0.16581,-0.151694 0.47272,-0.151694 h 0.14112 q 0.30691,0 0.46919,0.151694 0.1658,0.148166 0.1658,0.448027 z m -0.30691,-1.337025 q 0,-0.109361 -0.0811,-0.186972 -0.0811,-0.07761 -0.21167,-0.07761 h -0.21166 q -0.13053,0 -0.21167,0.07761 -0.0811,0.07761 -0.0811,0.186972 v 1.404053 q 0,0.109361 0.0811,0.186971 0.0811,0.07761 0.21167,0.07761 h 0.21166 q 0.13053,0 0.21167,-0.07761 0.0811,-0.07761 0.0811,-0.186971 z" />
      <path
         id="path2503"
         style="stroke-width:0.264583"
         d="m 140.66488,87.958293 q 0,0.29986 -0.16581,0.451555 -0.16227,0.148166 -0.46919,0.148166 h -0.0882 q -0.30692,0 -0.47272,-0.148166 -0.16228,-0.151695 -0.16228,-0.451555 v -1.869718 h 0.30691 v 1.936746 q 0,0.109361 0.0811,0.186971 0.0811,0.07761 0.21167,0.07761 h 0.15875 q 0.13053,0 0.21167,-0.07761 0.0811,-0.07761 0.0811,-0.186971 v -1.936746 h 0.30692 z" />
      <path
         id="path2505"
         style="stroke-width:0.264583"
         d="m 141.73401,88.558014 v -2.201329 h -0.56091 v -0.26811 h 1.42875 v 0.26811 h -0.56092 v 2.201329 z" />
    </g>
    <rect
       y="83.931343"
       x="134.66795"
       height="87.585411"
       width="10.75"
       id="rect2508"
       style="fill:#000000;fill-opacity:0.05;stroke:#000000;stroke-width:0;stroke-linejoin:round;stroke-miterlimit:4;stroke-dasharray:none;stroke-opacity:0.362319" />
    <g
       transform="translate(-15.903738,0.250853)"
       style="font-size:2.40242px;line-height:1.25;font-family:'Share Tech Mono';-inkscape-font-specification:'Share Tech Mono, Normal';letter-spacing:0px;word-spacing:0px;fill:#808080;stroke-width:0.265;stroke-miterlimit:4;stroke-dasharray:none"
       id="text2514"
       aria-label="弾み">
      <path
         id="path2516"
         style="fill:#808080;stroke-width:0.265;stroke-miterlimit:4;stroke-dasharray:none"
         d="m 97.560894,172.41368 q 0.112614,0.122 0.197074,0.28154 l -0.16892,0.10323 q -0.09385,-0.17831 -0.178305,-0.28154 z m 0.44107,0.366 q -0.08446,-0.17831 -0.18769,-0.30031 l 0.150152,-0.10323 q 0.112613,0.122 0.206458,0.29092 z m 0.262764,-0.0563 q 0.112614,-0.17831 0.187689,-0.35661 l 0.16892,0.0657 q 0.05631,0.0282 -0.01877,0.0469 -0.07508,0.16892 -0.178305,0.32846 z m -1.614126,1.04167 0.06569,-0.79767 h 0.412916 v -0.32846 h -0.497376 v -0.17831 h 0.685065 v 0.76953 h -0.187689 v -0.0845 h -0.243995 l -0.02815,0.34722 h 0.478607 l -0.04692,0.73199 q -0.01877,0.28154 -0.225227,0.28154 h -0.243996 l -0.01877,-0.17831 h 0.215842 q 0.08446,0 0.09384,-0.122 l 0.03754,-0.53491 h -0.309687 l -0.0094,0.0938 z m 1.332593,-0.39414 h -0.319072 v 0.21584 h 0.319072 z m -0.319072,-0.35661 v 0.20646 h 0.319072 v -0.20646 z m 0.797679,0 H 98.14273 v 0.20646 h 0.319072 z m 0,0.35661 H 98.14273 v 0.21584 h 0.319072 z m 0.159535,0.36599 H 98.14273 v 0.1783 h 0.638143 v 0.17831 H 98.14273 v 0.41292 h -0.159535 v -0.41292 h -0.591221 v -0.17831 h 0.591221 v -0.1783 h -0.243996 -0.234611 v -0.87275 h 1.116749 z" />
      <path
         id="path2518"
         style="fill:#808080;stroke-width:0.265;stroke-miterlimit:4;stroke-dasharray:none"
         d="m 100.71407,173.69935 q -0.0938,0.4223 -0.36599,0.72261 l -0.19708,-0.11262 q 0.29092,-0.27215 0.38477,-0.67568 -0.32846,-0.122 -0.6663,-0.16892 -0.25338,0.5443 -0.337841,0.62876 -0.112613,0.11261 -0.262764,0.11261 -0.112614,0 -0.187689,-0.0751 -0.08446,-0.0845 -0.08446,-0.25338 0,-0.19708 0.187689,-0.38477 0.206458,-0.20645 0.553682,-0.20645 0.112614,-0.29092 0.206458,-0.5443 -0.262764,0.0657 -0.525529,0.122 l -0.08446,-0.18769 q 0.309687,-0.0375 0.59122,-0.10323 l 0.112614,-0.0469 0.15954,0.12199 q 0.0938,0.0563 -0.009,0.0845 -0.122,0.21585 -0.262764,0.56307 0.300304,0.0375 0.638144,0.15015 0.0188,-0.22522 0.009,-0.55368 l 0.17831,0.0375 q 0.10323,0.0188 0.0188,0.0751 0,0.30969 -0.0188,0.50676 0.1783,0.0657 0.41291,0.18769 l -0.0938,0.18769 q -0.19707,-0.11261 -0.35661,-0.18769 z m -1.041674,-0.23461 q -0.215842,0 -0.347225,0.13138 -0.150151,0.15015 -0.150151,0.28154 0,0.0563 0.03754,0.0938 0.02815,0.0282 0.08446,0.0282 0.08446,0 0.150151,-0.10323 0.05631,-0.0845 0.225227,-0.43169 z" />
    </g>
  </g>
</svg>
