<?xml version="1.0" encoding="UTF-8" standalone="no"?>
<svg
   xmlns:dc="http://purl.org/dc/elements/1.1/"
   xmlns:cc="http://creativecommons.org/ns#"
   xmlns:rdf="http://www.w3.org/1999/02/22-rdf-syntax-ns#"
   xmlns:svg="http://www.w3.org/2000/svg"
   xmlns="http://www.w3.org/2000/svg"
   xmlns:sodipodi="http://sodipodi.sourceforge.net/DTD/sodipodi-0.dtd"
   xmlns:inkscape="http://www.inkscape.org/namespaces/inkscape"
   width="91.440002mm"
   height="128.5mm"
   viewBox="0 0 91.440002 128.5"
   version="1.1"
   id="svg11003"
   inkscape:version="1.0 (4035a4fb49, 2020-05-01)"
   sodipodi:docname="wav_bank_mc_front_panel.svg">
  <defs
     id="defs10997">
    <rect
       id="rect943"
       height="4.9017857"
       width="16.441965"
       y="151.49105"
       x="68.856198" />
    <rect
       x="93.235664"
       y="146.86084"
       width="17.306908"
       height="21.920095"
       id="rect1632" />
    <rect
       x="114.77236"
       y="50.243221"
       width="32.272797"
       height="6.6149206"
       id="rect1597" />
    <rect
       id="rect1597-6"
       height="6.6149206"
       width="32.272797"
       y="50.243221"
       x="114.77236" />
    <rect
       id="rect1610"
       height="6.6149206"
       width="32.272797"
       y="50.243221"
       x="114.77236" />
  </defs>
  <sodipodi:namedview
     id="base"
     pagecolor="#ffffff"
     bordercolor="#666666"
     borderopacity="1.0"
     inkscape:pageopacity="0.0"
     inkscape:pageshadow="2"
     inkscape:zoom="2.8"
     inkscape:cx="-7.987395"
     inkscape:cy="235.19516"
     inkscape:document-units="mm"
     inkscape:current-layer="layer1"
     showgrid="false"
     fit-margin-top="0"
     fit-margin-left="0"
     fit-margin-right="0"
     fit-margin-bottom="0"
     inkscape:window-width="3840"
     inkscape:window-height="2066"
     inkscape:window-x="2869"
     inkscape:window-y="-11"
     inkscape:window-maximized="1"
     units="mm"
     showguides="true"
     inkscape:guide-bbox="true"
     inkscape:document-rotation="0">
    <sodipodi:guide
       position="17.840241,83.788998"
       orientation="0,1"
       id="guide887"
       inkscape:locked="false"
       inkscape:label=""
       inkscape:color="rgb(0,0,255)" />
    <sodipodi:guide
       position="-1.0022607,112.38684"
       orientation="0,1"
       id="guide902"
       inkscape:locked="false" />
    <sodipodi:guide
       position="0,125.61668"
       orientation="1,0"
       id="guide905"
       inkscape:locked="false" />
    <sodipodi:guide
       position="13.18192,71.744607"
       orientation="1,0"
       id="guide907"
       inkscape:locked="false"
       inkscape:label=""
       inkscape:color="rgb(0,0,255)" />
    <sodipodi:guide
       position="34.236375,25.767346"
       orientation="1,0"
       id="guide854"
       inkscape:locked="false" />
    <sodipodi:guide
       position="-14.363095,101.86458"
       orientation="0,1"
       id="guide1520"
       inkscape:locked="false" />
    <sodipodi:guide
       position="-0.46772168,92.107762"
       orientation="0,1"
       id="guide1522"
       inkscape:locked="false" />
    <sodipodi:guide
       position="37.041667,107.25075"
       orientation="0,1"
       id="guide1524"
       inkscape:locked="false" />
    <sodipodi:guide
       position="20.505209,19.276786"
       orientation="0,1"
       id="guide5229"
       inkscape:locked="false" />
    <sodipodi:guide
       position="25.513393,1.224"
       orientation="0,1"
       id="guide3678"
       inkscape:locked="false"
       inkscape:label=""
       inkscape:color="rgb(0,0,255)" />
    <sodipodi:guide
       position="44.478001,11.197545"
       orientation="1,0"
       id="guide3680"
       inkscape:locked="false"
       inkscape:label=""
       inkscape:color="rgb(0,0,255)" />
    <sodipodi:guide
       position="13.896531,37.413738"
       orientation="0,1"
       id="guide1530"
       inkscape:locked="false" />
    <sodipodi:guide
       position="22.843936,20.729539"
       orientation="0,-1"
       id="guide1636" />
  </sodipodi:namedview>
  <metadata
     id="metadata11000">
    <rdf:RDF>
      <cc:Work
         rdf:about="">
        <dc:format>image/svg+xml</dc:format>
        <dc:type
           rdf:resource="http://purl.org/dc/dcmitype/StillImage" />
        <dc:title></dc:title>
      </cc:Work>
    </rdf:RDF>
  </metadata>
  <g
     inkscape:label="Panel Layer"
     inkscape:groupmode="layer"
     id="layer1"
     transform="translate(-64.792954,-47.169623)"
     style="display:inline">
    <path
       inkscape:connector-curvature="0"
       id="path33429"
       d="M 64.792954,47.169629 H 156.23295 V 175.66963 H 64.792954 Z m 0,0"
       style="fill:#e6e6e6;fill-opacity:1;fill-rule:nonzero;stroke:none;stroke-width:0.335536" />
    <path
       inkscape:connector-curvature="0"
       id="path36629"
       d="m 150.99402,156.3706 c 0,-0.4857 -0.58093,-0.88376 -1.29371,-0.88376 h -9.9326 c -0.711,0 -1.29369,0.39806 -1.29369,0.88376 v 10.75247 c 0,0.48571 0.58269,0.88377 1.29369,0.88377 h 9.9326 c 0.71278,0 1.29371,-0.39806 1.29371,-0.88377 z m 0,0"
       style="fill:#8aaec5;fill-opacity:1;fill-rule:nonzero;stroke:none;stroke-width:0.585474" />
    <text
       xml:space="preserve"
       style="font-style:normal;font-weight:normal;font-size:4.58611px;line-height:1.25;font-family:sans-serif;letter-spacing:0px;word-spacing:0px;fill:#000000;fill-opacity:1;stroke:none;stroke-width:0.264583"
       x="75.943253"
       y="53.772301"
       id="text110" />
    <g
       id="flowRoot27"
       style="font-style:normal;font-variant:normal;font-weight:normal;font-stretch:normal;font-size:40px;line-height:1.25;font-family:Corbel;-inkscape-font-specification:Corbel;letter-spacing:0px;word-spacing:0px;fill:#000000;fill-opacity:1;stroke:none;stroke-width:0.264583"
       transform="matrix(0.26458333,0,0,0.26458333,62.426841,47.434064)" />
    <g
       id="text37"
       style="font-style:normal;font-variant:normal;font-weight:normal;font-stretch:normal;font-size:10.5833px;line-height:1.25;font-family:Gabriola;-inkscape-font-specification:Gabriola;letter-spacing:0px;word-spacing:0px;fill:#000000;fill-opacity:1;stroke:none;stroke-width:0.0700043"
       transform="translate(-2.3661125,0.264441)" />
    <text
       id="text892"
       y="86.278252"
       x="74.846405"
       style="font-style:normal;font-variant:normal;font-weight:normal;font-stretch:normal;font-size:4.93889px;line-height:1.25;font-family:'Share Tech Mono';-inkscape-font-specification:'Share Tech Mono';letter-spacing:0px;word-spacing:0px;fill:#000000;fill-opacity:1;stroke:none;stroke-width:0.0700043"
       xml:space="preserve" />
    <g
       id="g890"
       transform="translate(16.845326,-42.030403)">
      <path
         d="m 104.94415,127.05479 -0.22225,1.00189 h -0.42334 l -0.11994,-2.46945 h 0.26105 l 0.10584,2.20486 0.2928,-1.16416 h 0.21872 l 0.29987,1.16416 0.10936,-2.20486 h 0.24341 l -0.11994,2.46945 h -0.4445 z"
         style="font-style:normal;font-variant:normal;font-weight:normal;font-stretch:normal;font-size:3.52778px;line-height:1.25;font-family:'Share Tech Mono';-inkscape-font-specification:'Share Tech Mono';letter-spacing:0px;word-spacing:0px;display:inline;fill:#000000;fill-opacity:1;stroke:none;stroke-width:0.264583"
         id="path75-2"
         inkscape:connector-curvature="0" />
      <path
         d="m 106.5107,127.43226 -0.13758,0.62442 h -0.31398 l 0.5962,-2.46945 h 0.40569 l 0.58561,2.46945 h -0.31397 l -0.13406,-0.62442 z m 0.63147,-0.26458 -0.28928,-1.34762 -0.28575,1.34762 z"
         style="font-style:normal;font-variant:normal;font-weight:normal;font-stretch:normal;font-size:3.52778px;line-height:1.25;font-family:'Share Tech Mono';-inkscape-font-specification:'Share Tech Mono';letter-spacing:0px;word-spacing:0px;display:inline;fill:#000000;fill-opacity:1;stroke:none;stroke-width:0.264583"
         id="path77-7"
         inkscape:connector-curvature="0" />
      <path
         d="m 107.99964,125.58723 h 0.31045 l 0.42333,2.159 0.45508,-2.159 h 0.30339 l -0.55386,2.46945 h -0.4198 z"
         style="font-style:normal;font-variant:normal;font-weight:normal;font-stretch:normal;font-size:3.52778px;line-height:1.25;font-family:'Share Tech Mono';-inkscape-font-specification:'Share Tech Mono';letter-spacing:0px;word-spacing:0px;display:inline;fill:#000000;fill-opacity:1;stroke:none;stroke-width:0.264583"
         id="path79-9"
         inkscape:connector-curvature="0" />
    </g>
    <g
       id="g885"
       transform="translate(16.810996,4.674551)">
      <path
         d="m 103.72648,148.75794 q 0,0.28575 -0.15169,0.42334 -0.1517,0.13405 -0.44803,0.13405 h -0.36689 v 0.95956 h -0.30692 v -2.46945 h 0.66675 q 0.29986,0 0.45156,0.13406 0.15522,0.13053 0.15522,0.41628 z m -0.30692,-0.43391 q 0,-0.13406 -0.0635,-0.19403 -0.06,-0.06 -0.19402,-0.06 h -0.40217 v 0.98072 h 0.40217 q 0.13405,0 0.19402,-0.06 0.0635,-0.0635 0.0635,-0.19756 z"
         style="font-style:normal;font-variant:normal;font-weight:normal;font-stretch:normal;font-size:3.52778px;line-height:1.25;font-family:'Share Tech Mono';-inkscape-font-specification:'Share Tech Mono';letter-spacing:0px;word-spacing:0px;fill:#000000;fill-opacity:1;stroke:none;stroke-width:0.264583"
         id="path305"
         inkscape:connector-curvature="0" />
      <path
         d="m 104.83442,150.01736 v -1.95439 h -0.3175 v -0.25753 h 0.94192 v 0.25753 h -0.3175 v 1.95439 h 0.3175 v 0.25753 h -0.94192 v -0.25753 z"
         style="font-style:normal;font-variant:normal;font-weight:normal;font-stretch:normal;font-size:3.52778px;line-height:1.25;font-family:'Share Tech Mono';-inkscape-font-specification:'Share Tech Mono';letter-spacing:0px;word-spacing:0px;fill:#000000;fill-opacity:1;stroke:none;stroke-width:0.264583"
         id="path307"
         inkscape:connector-curvature="0" />
      <path
         d="m 106.73612,150.27489 v -2.20133 h -0.56092 v -0.26812 h 1.42875 v 0.26812 h -0.56092 v 2.20133 z"
         style="font-style:normal;font-variant:normal;font-weight:normal;font-stretch:normal;font-size:3.52778px;line-height:1.25;font-family:'Share Tech Mono';-inkscape-font-specification:'Share Tech Mono';letter-spacing:0px;word-spacing:0px;fill:#000000;fill-opacity:1;stroke:none;stroke-width:0.264583"
         id="path309"
         inkscape:connector-curvature="0" />
      <path
         d="m 108.86006,150.27489 q -0.30692,0 -0.47272,-0.14817 -0.16228,-0.15169 -0.16228,-0.45155 v -1.27 q 0,-0.29986 0.16228,-0.44803 0.1658,-0.1517 0.47272,-0.1517 h 0.50094 v 0.26812 h -0.53622 q -0.13053,0 -0.21167,0.0776 -0.0811,0.0776 -0.0811,0.18697 v 1.40405 q 0,0.10937 0.0811,0.18698 0.0811,0.0776 0.21167,0.0776 h 0.53622 v 0.26811 z"
         style="font-style:normal;font-variant:normal;font-weight:normal;font-stretch:normal;font-size:3.52778px;line-height:1.25;font-family:'Share Tech Mono';-inkscape-font-specification:'Share Tech Mono';letter-spacing:0px;word-spacing:0px;fill:#000000;fill-opacity:1;stroke:none;stroke-width:0.264583"
         id="path311"
         inkscape:connector-curvature="0" />
      <path
         d="m 110.33136,149.13894 v 1.13595 h -0.30691 v -2.46945 h 0.30691 v 1.07245 h 0.72672 v -1.07245 h 0.30692 v 2.46945 h -0.30692 v -1.13595 z"
         style="font-style:normal;font-variant:normal;font-weight:normal;font-stretch:normal;font-size:3.52778px;line-height:1.25;font-family:'Share Tech Mono';-inkscape-font-specification:'Share Tech Mono';letter-spacing:0px;word-spacing:0px;fill:#000000;fill-opacity:1;stroke:none;stroke-width:0.264583"
         id="path313"
         inkscape:connector-curvature="0" />
    </g>
    <rect
       rx="1.0757475"
       style="fill:#28282a;fill-opacity:1;stroke-width:0.128657"
       id="rect438"
       width="12.520001"
       height="68.543419"
       x="138.4702"
       y="-131.88966"
       ry="1.0757475"
       transform="scale(1,-1)" />
    <path
       d="m 121.74961,65.743404 v -2.20133 h -0.56091 v -0.26811 h 1.42876 v 0.26811 h -0.56092 v 2.20133 z"
       style="font-style:normal;font-variant:normal;font-weight:normal;font-stretch:normal;font-size:3.52778px;line-height:1.25;font-family:'Share Tech Mono';-inkscape-font-specification:'Share Tech Mono';letter-spacing:0px;word-spacing:0px;fill:#000000;fill-opacity:1;stroke:none;stroke-width:0.264583"
       id="path1505"
       inkscape:connector-curvature="0" />
    <path
       d="m 123.4079,64.720354 v 1.02305 h -0.30692 v -2.46944 h 0.66323 q 0.29986,0 0.45155,0.13405 0.15522,0.13053 0.15522,0.41628 v 0.33867 q 0,0.39864 -0.3175,0.49741 l 0.49037,1.08303 h -0.33514 l -0.45509,-1.02305 z m 0.65617,-0.92781 q 0,-0.13405 -0.0635,-0.19403 -0.06,-0.06 -0.19403,-0.06 h -0.39864 v 0.91722 h 0.39864 q 0.13406,0 0.19403,-0.06 0.0635,-0.0635 0.0635,-0.19755 z"
       style="font-style:normal;font-variant:normal;font-weight:normal;font-stretch:normal;font-size:3.52778px;line-height:1.25;font-family:'Share Tech Mono';-inkscape-font-specification:'Share Tech Mono';letter-spacing:0px;word-spacing:0px;fill:#000000;fill-opacity:1;stroke:none;stroke-width:0.264583"
       id="path1507"
       inkscape:connector-curvature="0" />
    <path
       d="m 125.72234,65.743404 q -0.30691,0 -0.47272,-0.14816 -0.16228,-0.1517 -0.16228,-0.45156 v -1.27 q 0,-0.29986 0.16228,-0.44803 0.16581,-0.15169 0.47272,-0.15169 h 0.49742 v 0.26811 h -0.53269 q -0.13053,0 -0.21167,0.0776 -0.0811,0.0776 -0.0811,0.18697 v 1.40406 q 0,0.10936 0.0811,0.18697 0.0811,0.0776 0.21167,0.0776 h 0.34572 v -0.76553 h -0.30692 v -0.26458 h 0.59972 v 1.29822 z"
       style="font-style:normal;font-variant:normal;font-weight:normal;font-stretch:normal;font-size:3.52778px;line-height:1.25;font-family:'Share Tech Mono';-inkscape-font-specification:'Share Tech Mono';letter-spacing:0px;word-spacing:0px;fill:#000000;fill-opacity:1;stroke:none;stroke-width:0.264583"
       id="path1509"
       inkscape:connector-curvature="0" />
    <path
       style="display:inline;fill:none;stroke:#000000;stroke-width:0.123628px;stroke-linecap:butt;stroke-linejoin:miter;stroke-opacity:1"
       d="m 123.69796,102.74213 c 0,-3.713484 0,-3.754754 0,-3.754754"
       id="path27-1-3"
       inkscape:connector-curvature="0" />
    <path
       style="display:inline;fill:none;stroke:#000000;stroke-width:0.12147px;stroke-linecap:butt;stroke-linejoin:miter;stroke-opacity:1"
       d="m 123.69488,114.89742 c 0,-3.58499 0,-3.62483 0,-3.62483"
       id="path27-1-3-3"
       inkscape:connector-curvature="0" />
    <g
       aria-label="voxglitch"
       style="font-style:normal;font-variant:normal;font-weight:normal;font-stretch:normal;font-size:3.88056px;line-height:1.25;font-family:'Sitka Subheading';-inkscape-font-specification:'Sitka Subheading';letter-spacing:0px;word-spacing:0px;display:inline;fill:#999999;fill-opacity:1;stroke:none;stroke-width:0.264583"
       id="text939"
       transform="translate(4.7921748,0.11296302)">
      <path
         d="m 139.18399,173.2094 q -0.01,-0.0251 -0.0289,-0.0389 -0.0176,-0.0138 -0.0426,-0.0226 l -0.0953,-0.0389 v -0.0778 h 0.58451 v 0.0778 l -0.18438,0.0539 0.29727,0.70116 0.059,0.17811 h 0.0138 l 0.3324,-0.85293 -0.17435,-0.0803 v -0.0778 h 0.47915 v 0.0778 l -0.0991,0.0615 q -0.0251,0.0125 -0.0439,0.0263 -0.0188,0.0138 -0.0289,0.0364 l -0.34369,0.83914 -0.13672,0.27344 h -0.10787 z"
         style="font-size:2.82222px;fill:#999999;stroke-width:0.264583"
         id="path941"
         inkscape:connector-curvature="0" />
      <path
         d="m 141.14323,174.36588 q -0.14048,0 -0.25588,-0.0477 -0.11539,-0.0477 -0.19818,-0.13547 -0.0815,-0.0891 -0.12669,-0.21574 -0.0439,-0.12669 -0.0439,-0.28348 0,-0.1455 0.0439,-0.27093 0.0452,-0.12544 0.12669,-0.21826 0.0828,-0.0928 0.20069,-0.1455 0.11791,-0.0539 0.26592,-0.0539 0.16055,0 0.2772,0.0564 0.11791,0.0564 0.19442,0.15052 0.0778,0.0941 0.1154,0.21825 0.0376,0.12292 0.0376,0.25839 0,0.14299 -0.0439,0.26843 -0.0439,0.12543 -0.12669,0.2195 -0.0815,0.0928 -0.19943,0.14676 -0.11791,0.0527 -0.26718,0.0527 z m 0.0188,-0.11791 q 0.10536,0 0.17435,-0.0514 0.0702,-0.0514 0.11038,-0.13045 0.0414,-0.0803 0.0577,-0.17561 0.0163,-0.0966 0.0163,-0.18564 0,-0.10912 -0.0213,-0.21449 -0.0201,-0.10661 -0.0665,-0.19065 -0.0451,-0.084 -0.1179,-0.13547 -0.0727,-0.0514 -0.17686,-0.0514 -0.0702,0 -0.12418,0.0238 -0.0527,0.0238 -0.0928,0.064 -0.0401,0.0401 -0.0677,0.0941 -0.0263,0.0527 -0.0439,0.11289 -0.0163,0.0602 -0.0238,0.12292 -0.006,0.0627 -0.006,0.12167 0,0.0665 0.008,0.13672 0.008,0.069 0.0251,0.13547 0.0188,0.0652 0.0477,0.12418 0.0289,0.059 0.0715,0.10285 0.0426,0.0439 0.0991,0.0702 0.0577,0.0263 0.1317,0.0263 z"
         style="font-size:2.82222px;fill:#999999;stroke-width:0.264583"
         id="path943"
         inkscape:connector-curvature="0" />
      <path
         d="m 141.90933,174.25424 0.11163,-0.0464 q 0.0263,-0.01 0.0502,-0.0289 0.0251,-0.0201 0.0389,-0.0364 l 0.35622,-0.44152 -0.3487,-0.48793 q -0.0151,-0.0226 -0.0351,-0.0389 -0.0201,-0.0176 -0.0489,-0.0263 l -0.11289,-0.0389 v -0.0778 h 0.57198 v 0.0778 l -0.13422,0.0514 0.19568,0.28096 0.069,0.12418 h 0.009 l 0.29351,-0.3926 -0.11916,-0.064 v -0.0778 h 0.44277 v 0.0778 l -0.11163,0.0477 q -0.0263,0.01 -0.0502,0.0289 -0.0226,0.0188 -0.0376,0.0364 l -0.34243,0.42396 0.36125,0.50549 q 0.0163,0.0226 0.0364,0.0401 0.0213,0.0163 0.0489,0.0251 l 0.10913,0.0376 v 0.079 h -0.57197 v -0.079 l 0.13672,-0.0502 -0.20947,-0.29978 -0.069,-0.12292 h -0.009 l -0.30605,0.41016 0.11916,0.0627 v 0.079 h -0.44403 z"
         style="font-size:2.82222px;fill:#999999;stroke-width:0.264583"
         id="path945"
         inkscape:connector-curvature="0" />
      <path
         d="m 143.66884,174.29815 q -0.0326,-0.01 -0.069,-0.0289 -0.0351,-0.0188 -0.0652,-0.0477 -0.0301,-0.0289 -0.0502,-0.0677 -0.0188,-0.0401 -0.0188,-0.0916 0,-0.0577 0.0213,-0.10034 0.0226,-0.0439 0.0564,-0.074 0.0339,-0.0314 0.0753,-0.0502 0.0414,-0.0188 0.079,-0.0276 v -0.009 q -0.0389,-0.0226 -0.0778,-0.0539 -0.0389,-0.0326 -0.0702,-0.0765 -0.0301,-0.0439 -0.0502,-0.10035 -0.0188,-0.0577 -0.0188,-0.13045 0,-0.0928 0.0364,-0.17435 0.0376,-0.0815 0.10536,-0.14174 0.0677,-0.0602 0.16306,-0.0941 0.0953,-0.0351 0.21198,-0.0351 0.0753,0 0.14299,0.01 0.0677,0.01 0.13045,0.0263 h 0.44027 l -0.0151,0.15428 -0.3324,-0.0426 v 0.008 q 0.0301,0.0326 0.0539,0.0652 0.0238,0.0326 0.0401,0.069 0.0176,0.0351 0.0263,0.0753 0.009,0.0389 0.009,0.0853 0,0.0928 -0.0351,0.17184 -0.0339,0.079 -0.0991,0.13798 -0.0652,0.0577 -0.16056,0.0903 -0.0941,0.0326 -0.21574,0.0326 -0.0314,0 -0.064,-0.003 -0.0314,-0.004 -0.0602,-0.008 -0.0289,-0.005 -0.0539,-0.0113 -0.0238,-0.006 -0.0401,-0.0126 -0.0188,0.004 -0.0376,0.0151 -0.0176,0.0113 -0.0326,0.0289 -0.0151,0.0163 -0.0251,0.0389 -0.009,0.0226 -0.009,0.0489 0,0.0263 0.009,0.0502 0.009,0.0226 0.0238,0.0401 0.0151,0.0176 0.0339,0.0301 0.0201,0.0113 0.0414,0.0151 h 0.44278 q 0.12543,0 0.20947,0.0301 0.0853,0.0301 0.13672,0.079 0.0527,0.0489 0.074,0.10912 0.0226,0.059 0.0226,0.11791 0,0.10913 -0.0539,0.19944 -0.0527,0.0916 -0.14551,0.15679 -0.0928,0.0665 -0.21825,0.10285 -0.12543,0.0364 -0.26968,0.0364 -0.12417,0 -0.22954,-0.0213 -0.10411,-0.0213 -0.18062,-0.064 -0.0765,-0.0414 -0.12041,-0.10285 -0.0427,-0.0615 -0.0427,-0.14174 0,-0.0652 0.0226,-0.1154 0.0238,-0.0502 0.0615,-0.0878 0.0376,-0.0364 0.0865,-0.0615 0.0502,-0.0251 0.10536,-0.0401 z m 0.31985,-0.52055 q 0.064,0 0.11289,-0.0238 0.0489,-0.0238 0.0815,-0.069 0.0326,-0.0451 0.0489,-0.10912 0.0176,-0.0652 0.0176,-0.14676 0,-0.079 -0.0188,-0.14048 -0.0188,-0.0615 -0.0539,-0.10411 -0.0339,-0.0427 -0.0828,-0.064 -0.0477,-0.0226 -0.10661,-0.0226 -0.0577,0 -0.10411,0.0213 -0.0464,0.0213 -0.0803,0.064 -0.0339,0.0414 -0.0527,0.10411 -0.0176,0.0615 -0.0176,0.143 0,0.0828 0.0176,0.14801 0.0188,0.064 0.0514,0.10912 0.0339,0.0439 0.0815,0.0677 0.0477,0.0226 0.10536,0.0226 z m -0.21449,0.5356 q -0.0238,0.006 -0.0502,0.0238 -0.0263,0.0176 -0.0477,0.0464 -0.0213,0.0289 -0.0351,0.069 -0.0138,0.0414 -0.0138,0.0941 0,0.0527 0.0188,0.0941 0.0188,0.0414 0.0502,0.0715 0.0326,0.0301 0.074,0.0502 0.0414,0.0201 0.0853,0.0326 0.0439,0.0125 0.0866,0.0176 0.0439,0.005 0.0803,0.005 0.0778,0 0.15428,-0.0163 0.0778,-0.0151 0.13797,-0.0514 0.0615,-0.0351 0.0991,-0.0916 0.0376,-0.0552 0.0376,-0.13422 0,-0.0364 -0.0151,-0.074 -0.0138,-0.0376 -0.0451,-0.0677 -0.0301,-0.0301 -0.0803,-0.0489 -0.0489,-0.0201 -0.11665,-0.0201 z"
         style="font-size:2.82222px;fill:#999999;stroke-width:0.264583"
         id="path947"
         inkscape:connector-curvature="0" />
      <path
         d="m 144.83179,174.25424 0.16933,-0.0439 q 0.0238,-0.006 0.0376,-0.0213 0.0151,-0.0163 0.0151,-0.0427 v -1.4826 q 0,-0.0289 -0.0163,-0.0464 -0.0163,-0.0188 -0.0464,-0.0288 l -0.16557,-0.0615 v -0.0702 l 0.46535,-0.0477 v 1.73723 q 0,0.0263 0.015,0.0427 0.0163,0.0163 0.0376,0.0213 l 0.16056,0.0439 v 0.079 h -0.67232 z"
         style="font-size:2.82222px;fill:#999999;stroke-width:0.264583"
         id="path949"
         inkscape:connector-curvature="0" />
      <path
         d="m 145.98401,172.74655 q -0.0351,0 -0.0665,-0.0113 -0.0301,-0.0125 -0.0539,-0.0326 -0.0226,-0.0201 -0.0364,-0.0489 -0.0138,-0.0301 -0.0138,-0.0665 0,-0.0364 0.0138,-0.0665 0.0138,-0.0301 0.0364,-0.0502 0.0238,-0.0213 0.0539,-0.0326 0.0314,-0.0113 0.0665,-0.0113 0.0376,0 0.0702,0.0113 0.0326,0.01 0.0552,0.0301 0.0238,0.0201 0.0364,0.0489 0.0138,0.0276 0.0138,0.064 0,0.0376 -0.0138,0.0677 -0.0125,0.0301 -0.0364,0.0527 -0.0238,0.0213 -0.0564,0.0339 -0.0326,0.0113 -0.069,0.0113 z m -0.32612,1.50769 0.1731,-0.0439 q 0.0238,-0.006 0.0389,-0.0213 0.0151,-0.0163 0.0151,-0.0427 v -0.85795 q 0,-0.0289 -0.0163,-0.0464 -0.0163,-0.0188 -0.0477,-0.0289 l -0.1593,-0.0552 v -0.0702 l 0.45908,-0.074 v 1.13265 q 0,0.0263 0.0151,0.0427 0.0163,0.0163 0.0376,0.0213 l 0.16683,0.0439 v 0.079 h -0.68235 z"
         style="font-size:2.82222px;fill:#999999;stroke-width:0.264583"
         id="path951"
         inkscape:connector-curvature="0" />
      <path
         d="m 146.65956,173.16299 h -0.20947 v -0.0966 q 0.0514,-0.01 0.0928,-0.0188 0.0426,-0.009 0.0727,-0.0276 0.0301,-0.0201 0.0477,-0.0552 0.0188,-0.0351 0.0226,-0.0966 l 0.01,-0.17435 0.20069,-0.0389 v 0.38005 h 0.46034 l -0.0188,0.12795 h -0.44152 v 0.87049 q 0,0.0414 0.0263,0.0703 0.0264,0.0288 0.064,0.0477 0.0389,0.0188 0.0803,0.0276 0.0414,0.008 0.0728,0.008 0.0213,0 0.0477,-0.004 0.0276,-0.005 0.0527,-0.01 0.0251,-0.006 0.0464,-0.0138 0.0226,-0.008 0.0339,-0.0126 h 0.0326 v 0.0891 q -0.0176,0.0113 -0.0539,0.0314 -0.0351,0.0201 -0.0828,0.0401 -0.0464,0.0201 -0.10286,0.0339 -0.0552,0.0151 -0.11163,0.0151 -0.0703,0 -0.13296,-0.0176 -0.0615,-0.0176 -0.10787,-0.0502 -0.0464,-0.0326 -0.074,-0.0803 -0.0276,-0.0489 -0.0276,-0.11164 z"
         style="font-size:2.82222px;fill:#999999;stroke-width:0.264583"
         id="path953"
         inkscape:connector-curvature="0" />
      <path
         d="m 148.58823,174.02345 v 0.12418 q -0.0427,0.0376 -0.0966,0.0765 -0.0527,0.0376 -0.11666,0.069 -0.0627,0.0314 -0.13546,0.0502 -0.0728,0.0201 -0.15428,0.0201 -0.13547,0 -0.2446,-0.0502 -0.10912,-0.0502 -0.18564,-0.13798 -0.0765,-0.089 -0.1179,-0.20821 -0.0401,-0.11917 -0.0401,-0.25839 0,-0.10035 0.0238,-0.19192 0.0251,-0.0916 0.0702,-0.17058 0.0452,-0.079 0.10787,-0.143 0.064,-0.0652 0.14049,-0.11038 0.0778,-0.0451 0.16682,-0.0702 0.0891,-0.0251 0.18564,-0.0251 0.074,0 0.13045,0.0125 0.0577,0.0113 0.10035,0.0276 0.0439,0.0151 0.074,0.0326 0.0314,0.0163 0.0552,0.0263 l -0.0201,0.23455 h -0.0464 q -0.0477,-0.0301 -0.0953,-0.0615 -0.0464,-0.0326 -0.0978,-0.0577 -0.0502,-0.0263 -0.10787,-0.0426 -0.0577,-0.0176 -0.1292,-0.0176 -0.0226,0 -0.0489,0.006 -0.0263,0.005 -0.0527,0.0163 -0.0263,0.0113 -0.0489,0.0263 -0.0226,0.0151 -0.0389,0.0339 -0.0201,0.0226 -0.0414,0.0565 -0.0201,0.0326 -0.0376,0.0828 -0.0163,0.0489 -0.0276,0.1154 -0.01,0.0665 -0.01,0.15553 0,0.12795 0.0276,0.22829 0.0276,0.10035 0.0828,0.17059 0.0552,0.0702 0.13672,0.10787 0.0815,0.0364 0.1894,0.0364 0.0602,0 0.11414,-0.0176 0.0552,-0.0176 0.10286,-0.0414 0.0477,-0.0251 0.0865,-0.0539 0.0401,-0.0289 0.069,-0.0514 z"
         style="font-size:2.82222px;fill:#999999;stroke-width:0.264583"
         id="path955"
         inkscape:connector-curvature="0" />
      <path
         d="m 148.74492,174.25424 0.14551,-0.0439 q 0.0263,-0.008 0.0389,-0.0226 0.0138,-0.0151 0.0138,-0.0414 v -1.4826 q 0,-0.0289 -0.0163,-0.0464 -0.0163,-0.0176 -0.0464,-0.0288 l -0.14425,-0.0615 v -0.0702 l 0.44278,-0.0477 v 0.73879 0.0677 q 0.0552,-0.0727 0.10787,-0.1154 0.0539,-0.0439 0.10536,-0.0665 0.0527,-0.0238 0.10286,-0.0314 0.0514,-0.008 0.1016,-0.008 0.0865,0 0.16181,0.0263 0.0765,0.0251 0.13295,0.079 0.0577,0.0539 0.0903,0.13923 0.0326,0.0853 0.0326,0.2032 v 0.6974 q 0,0.0314 0.0151,0.0477 0.0151,0.0163 0.0364,0.0226 l 0.13296,0.0439 v 0.079 h -0.60458 v -0.079 l 0.13296,-0.0439 q 0.0213,-0.006 0.0364,-0.0226 0.0151,-0.0163 0.0151,-0.0477 v -0.59956 q 0,-0.0878 -0.0113,-0.15554 -0.01,-0.069 -0.0414,-0.11665 -0.0314,-0.0489 -0.0878,-0.074 -0.0552,-0.0251 -0.1455,-0.0251 -0.0414,0 -0.084,0.006 -0.0426,0.006 -0.084,0.0213 -0.0414,0.0151 -0.079,0.0401 -0.0376,0.0251 -0.0665,0.0615 v 0.84792 q 0,0.0263 0.0138,0.0414 0.0151,0.0151 0.0389,0.0226 l 0.11791,0.0439 v 0.079 h -0.60459 z"
         style="font-size:2.82222px;fill:#999999;stroke-width:0.264583"
         id="path957"
         inkscape:connector-curvature="0" />
    </g>
    <g
       transform="translate(45.719994)"
       aria-label="LOOP"
       style="font-style:normal;font-variant:normal;font-weight:normal;font-stretch:normal;font-size:3.52778px;line-height:1.25;font-family:'Share Tech Mono';-inkscape-font-specification:'Share Tech Mono';letter-spacing:0px;word-spacing:0px;fill:#000000;fill-opacity:1;stroke:none;stroke-width:0.264583"
       id="text1528">
      <path
         d="m 74.836657,135.78819 v 2.20133 h 0.786695 v 0.26811 h -1.093611 v -2.46944 z"
         style="stroke-width:0.264583"
         id="path1536" />
      <path
         d="m 77.683794,137.65791 q 0,0.29986 -0.165805,0.45155 -0.162278,0.14817 -0.469195,0.14817 h -0.141111 q -0.306916,0 -0.472722,-0.14817 -0.162278,-0.15169 -0.162278,-0.45155 v -1.27 q 0,-0.29986 0.162278,-0.44803 0.165806,-0.15169 0.472722,-0.15169 h 0.141111 q 0.306917,0 0.469195,0.15169 0.165805,0.14817 0.165805,0.44803 z m -0.306916,-1.33703 q 0,-0.10936 -0.08114,-0.18697 -0.08114,-0.0776 -0.211667,-0.0776 h -0.211666 q -0.130528,0 -0.211667,0.0776 -0.08114,0.0776 -0.08114,0.18697 v 1.40405 q 0,0.10937 0.08114,0.18698 0.08114,0.0776 0.211667,0.0776 h 0.211666 q 0.130528,0 0.211667,-0.0776 0.08114,-0.0776 0.08114,-0.18698 z"
         style="stroke-width:0.264583"
         id="path1538" />
      <path
         d="m 79.585487,137.65791 q 0,0.29986 -0.165805,0.45155 -0.162278,0.14817 -0.469195,0.14817 h -0.141111 q -0.306917,0 -0.472722,-0.14817 -0.162278,-0.15169 -0.162278,-0.45155 v -1.27 q 0,-0.29986 0.162278,-0.44803 0.165805,-0.15169 0.472722,-0.15169 h 0.141111 q 0.306917,0 0.469195,0.15169 0.165805,0.14817 0.165805,0.44803 z m -0.306917,-1.33703 q 0,-0.10936 -0.08114,-0.18697 -0.08114,-0.0776 -0.211667,-0.0776 h -0.211667 q -0.130528,0 -0.211666,0.0776 -0.08114,0.0776 -0.08114,0.18697 v 1.40405 q 0,0.10937 0.08114,0.18698 0.08114,0.0776 0.211666,0.0776 h 0.211667 q 0.130528,0 0.211667,-0.0776 0.08114,-0.0776 0.08114,-0.18698 z"
         style="stroke-width:0.264583"
         id="path1540" />
      <path
         d="m 81.420152,136.74068 q 0,0.28575 -0.151694,0.42334 -0.151695,0.13405 -0.448028,0.13405 h -0.366889 v 0.95956 h -0.306917 v -2.46944 h 0.66675 q 0.299862,0 0.451556,0.13405 0.155222,0.13053 0.155222,0.41628 z m -0.306916,-0.43391 q 0,-0.13406 -0.0635,-0.19403 -0.05997,-0.06 -0.194028,-0.06 h -0.402167 v 0.98072 h 0.402167 q 0.134055,0 0.194028,-0.06 0.0635,-0.0635 0.0635,-0.19756 z"
         style="stroke-width:0.264583"
         id="path1542" />
    </g>
    <g
       aria-label="WAV BANK MC"
       transform="translate(3.8254917,-1.6036171)"
       id="text1595"
       style="font-style:normal;font-variant:normal;font-weight:normal;font-stretch:normal;font-size:4.93889px;line-height:1.25;font-family:'Share Tech Mono';-inkscape-font-specification:'Share Tech Mono, Normal';font-variant-ligatures:normal;font-variant-caps:normal;font-variant-numeric:normal;font-variant-east-asian:normal;letter-spacing:0px;word-spacing:0px;white-space:pre;shape-inside:url(#rect1597)">
      <path
         d="m 116.09511,53.337222 -0.31115,1.402645 h -0.59267 l -0.16792,-3.457223 h 0.36548 l 0.14816,3.086806 0.40993,-1.629833 h 0.30621 l 0.41981,1.629833 0.1531,-3.086806 h 0.34079 l -0.16793,3.457223 h -0.6223 z"
         style="font-style:normal;font-variant:normal;font-weight:normal;font-stretch:normal;font-size:4.93889px;font-family:'Share Tech Mono';-inkscape-font-specification:'Share Tech Mono, Normal';font-variant-ligatures:normal;font-variant-caps:normal;font-variant-numeric:normal;font-variant-east-asian:normal"
         id="path1739" />
      <path
         d="m 118.28828,53.865684 -0.19261,0.874183 h -0.43957 l 0.83468,-3.457223 h 0.56797 l 0.81986,3.457223 h -0.43957 l -0.18767,-0.874183 z m 0.88406,-0.370417 -0.40498,-1.886656 -0.40005,1.886656 z"
         style="font-style:normal;font-variant:normal;font-weight:normal;font-stretch:normal;font-size:4.93889px;font-family:'Share Tech Mono';-inkscape-font-specification:'Share Tech Mono, Normal';font-variant-ligatures:normal;font-variant-caps:normal;font-variant-numeric:normal;font-variant-east-asian:normal"
         id="path1741" />
      <path
         d="m 120.3728,51.282644 h 0.43463 l 0.59266,3.022601 0.63712,-3.022601 h 0.42474 l -0.7754,3.457223 h -0.58773 z"
         style="font-style:normal;font-variant:normal;font-weight:normal;font-stretch:normal;font-size:4.93889px;font-family:'Share Tech Mono';-inkscape-font-specification:'Share Tech Mono, Normal';font-variant-ligatures:normal;font-variant-caps:normal;font-variant-numeric:normal;font-variant-east-asian:normal"
         id="path1743" />
      <path
         d="m 127.66816,53.959523 q 0,0.424744 -0.19755,0.602544 -0.19262,0.1778 -0.64206,0.1778 h -0.98778 v -3.457223 h 0.92851 q 0.43956,0 0.64206,0.1778 0.20743,0.1778 0.20743,0.592667 v 0.281517 q 0,0.380294 -0.27164,0.572911 0.32103,0.1778 0.32103,0.607483 z m -0.47907,-1.950862 q 0,-0.187678 -0.0889,-0.271639 -0.084,-0.08396 -0.27164,-0.08396 h -0.55809 v 1.091495 h 0.55809 q 0.15311,0 0.25682,-0.09878 0.10372,-0.09878 0.10372,-0.261761 z m 0.0494,1.461911 q 0,-0.162983 -0.0988,-0.256822 -0.0988,-0.09878 -0.26176,-0.09878 h -0.60748 v 1.254478 h 0.60254 q 0.18768,0 0.27658,-0.08396 0.0889,-0.0889 0.0889,-0.276578 z"
         style="font-style:normal;font-variant:normal;font-weight:normal;font-stretch:normal;font-size:4.93889px;font-family:'Share Tech Mono';-inkscape-font-specification:'Share Tech Mono, Normal';font-variant-ligatures:normal;font-variant-caps:normal;font-variant-numeric:normal;font-variant-east-asian:normal"
         id="path1745" />
      <path
         d="m 128.93776,53.865684 -0.19261,0.874183 h -0.43956 l 0.83467,-3.457223 h 0.56797 l 0.81986,3.457223 h -0.43956 l -0.18768,-0.874183 z m 0.88407,-0.370417 -0.40499,-1.886656 -0.40005,1.886656 z"
         style="font-style:normal;font-variant:normal;font-weight:normal;font-stretch:normal;font-size:4.93889px;font-family:'Share Tech Mono';-inkscape-font-specification:'Share Tech Mono, Normal';font-variant-ligatures:normal;font-variant-caps:normal;font-variant-numeric:normal;font-variant-east-asian:normal"
         id="path1747" />
      <path
         d="m 131.53593,54.739867 h -0.40005 v -3.457223 h 0.70132 l 0.78035,3.091745 v -3.091745 h 0.40005 v 3.457223 h -0.70627 l -0.7754,-3.091745 z"
         style="font-style:normal;font-variant:normal;font-weight:normal;font-stretch:normal;font-size:4.93889px;font-family:'Share Tech Mono';-inkscape-font-specification:'Share Tech Mono, Normal';font-variant-ligatures:normal;font-variant-caps:normal;font-variant-numeric:normal;font-variant-east-asian:normal"
         id="path1749" />
      <path
         d="m 134.23781,53.465634 v 1.274233 h -0.42968 v -3.457223 h 0.42968 v 1.491545 l 0.93839,-1.491545 h 0.46919 l -0.9532,1.526117 1.01247,1.931106 h -0.49389 l -0.78528,-1.55575 z"
         style="font-style:normal;font-variant:normal;font-weight:normal;font-stretch:normal;font-size:4.93889px;font-family:'Share Tech Mono';-inkscape-font-specification:'Share Tech Mono, Normal';font-variant-ligatures:normal;font-variant-caps:normal;font-variant-numeric:normal;font-variant-east-asian:normal"
         id="path1751" />
      <path
         d="m 140.26387,53.579228 h -0.40992 l -0.48401,-1.940984 v 3.101623 h -0.37536 v -3.457223 h 0.68651 l 0.39511,1.768123 0.40005,-1.768123 h 0.66675 v 3.457223 h -0.38524 v -3.101623 z"
         style="font-style:normal;font-variant:normal;font-weight:normal;font-stretch:normal;font-size:4.93889px;font-family:'Share Tech Mono';-inkscape-font-specification:'Share Tech Mono, Normal';font-variant-ligatures:normal;font-variant-caps:normal;font-variant-numeric:normal;font-variant-east-asian:normal"
         id="path1753" />
      <path
         d="m 142.82253,54.739867 q -0.42968,0 -0.66181,-0.207433 -0.22719,-0.212373 -0.22719,-0.632178 v -1.778001 q 0,-0.419805 0.22719,-0.627239 0.23213,-0.212372 0.66181,-0.212372 h 0.70132 V 51.658 h -0.75071 q -0.18274,0 -0.29633,0.108655 -0.1136,0.108656 -0.1136,0.261762 v 1.965678 q 0,0.153105 0.1136,0.261761 0.11359,0.108655 0.29633,0.108655 h 0.75071 v 0.375356 z"
         style="font-style:normal;font-variant:normal;font-weight:normal;font-stretch:normal;font-size:4.93889px;font-family:'Share Tech Mono';-inkscape-font-specification:'Share Tech Mono, Normal';font-variant-ligatures:normal;font-variant-caps:normal;font-variant-numeric:normal;font-variant-east-asian:normal"
         id="path1755" />
    </g>
    <g
       aria-label="Multi-Channel Sample Player"
       transform="translate(3.4895236,4.0473399)"
       id="text1595-2"
       style="font-style:normal;font-variant:normal;font-weight:normal;font-stretch:normal;font-size:2.11667px;line-height:1.25;font-family:'Share Tech Mono';-inkscape-font-specification:'Share Tech Mono, Normal';font-variant-ligatures:normal;font-variant-caps:normal;font-variant-numeric:normal;font-variant-east-asian:normal;letter-spacing:0px;word-spacing:0px;white-space:pre;shape-inside:url(#rect1597-6);display:inline">
      <path
         d="m 115.42765,51.673466 h -0.17568 l -0.20744,-0.831852 v 1.329269 h -0.16086 v -1.481669 h 0.29421 l 0.16934,0.757768 0.17145,-0.757768 h 0.28575 v 1.481669 h -0.1651 v -1.329269 z"
         style="font-style:normal;font-variant:normal;font-weight:normal;font-stretch:normal;font-size:2.11667px;font-family:'Share Tech Mono';-inkscape-font-specification:'Share Tech Mono, Normal';font-variant-ligatures:normal;font-variant-caps:normal;font-variant-numeric:normal;font-variant-east-asian:normal"
         id="path1688" />
      <path
         d="m 116.68932,52.1222 q -0.0698,0.04868 -0.16933,0.04868 h -0.072 q -0.17145,0 -0.25612,-0.08043 -0.0825,-0.08043 -0.0825,-0.258234 v -0.719668 h 0.17992 v 0.762001 q 0,0.0635 0.036,0.1016 0.0381,0.03598 0.1016,0.03598 h 0.1143 q 0.0677,0 0.0995,-0.03387 0.0339,-0.03387 0.0381,-0.0762 v -0.789518 h 0.17991 v 1.058335 h -0.16933 z"
         style="font-style:normal;font-variant:normal;font-weight:normal;font-stretch:normal;font-size:2.11667px;font-family:'Share Tech Mono';-inkscape-font-specification:'Share Tech Mono, Normal';font-variant-ligatures:normal;font-variant-caps:normal;font-variant-numeric:normal;font-variant-east-asian:normal"
         id="path1690" />
      <path
         d="m 117.69275,52.170883 q -0.072,0 -0.127,-0.0508 -0.0529,-0.0508 -0.0529,-0.160867 v -1.111252 h -0.31115 v -0.15875 h 0.49106 v 1.259419 q 0,0.03387 0.0169,0.04868 0.0169,0.01482 0.0572,0.01482 h 0.28151 v 0.15875 z"
         style="font-style:normal;font-variant:normal;font-weight:normal;font-stretch:normal;font-size:2.11667px;font-family:'Share Tech Mono';-inkscape-font-specification:'Share Tech Mono, Normal';font-variant-ligatures:normal;font-variant-caps:normal;font-variant-numeric:normal;font-variant-east-asian:normal"
         id="path1692" />
      <path
         d="m 118.84435,52.170883 q -0.10795,0 -0.1651,-0.06985 -0.0571,-0.06985 -0.0571,-0.18415 v -0.645585 h -0.20108 v -0.15875 h 0.20108 v -0.254 h 0.17992 v 0.254 h 0.30903 v 0.15875 h -0.30903 v 0.656168 q 0,0.04657 0.0233,0.06562 0.0233,0.01905 0.072,0.01905 h 0.21378 v 0.15875 z"
         style="font-style:normal;font-variant:normal;font-weight:normal;font-stretch:normal;font-size:2.11667px;font-family:'Share Tech Mono';-inkscape-font-specification:'Share Tech Mono, Normal';font-variant-ligatures:normal;font-variant-caps:normal;font-variant-numeric:normal;font-variant-east-asian:normal"
         id="path1694" />
      <path
         d="m 120.00654,50.689214 v 0.1905 h -0.20109 v -0.1905 z m -0.50165,0.582084 v -0.15875 h 0.49106 v 0.899585 h 0.31327 v 0.15875 h -0.49318 v -0.899585 z"
         style="font-style:normal;font-variant:normal;font-weight:normal;font-stretch:normal;font-size:2.11667px;font-family:'Share Tech Mono';-inkscape-font-specification:'Share Tech Mono, Normal';font-variant-ligatures:normal;font-variant-caps:normal;font-variant-numeric:normal;font-variant-east-asian:normal"
         id="path1696" />
      <path
         d="m 121.39097,51.430049 v 0.15875 h -0.68792 v -0.15875 z"
         style="font-style:normal;font-variant:normal;font-weight:normal;font-stretch:normal;font-size:2.11667px;font-family:'Share Tech Mono';-inkscape-font-specification:'Share Tech Mono, Normal';font-variant-ligatures:normal;font-variant-caps:normal;font-variant-numeric:normal;font-variant-east-asian:normal"
         id="path1698" />
      <path
         d="m 122.22931,52.170883 q -0.18415,0 -0.28364,-0.0889 -0.0974,-0.09102 -0.0974,-0.270934 v -0.762001 q 0,-0.179917 0.0974,-0.268817 0.0995,-0.09102 0.28364,-0.09102 h 0.30056 v 0.160867 h -0.32173 q -0.0783,0 -0.127,0.04657 -0.0487,0.04657 -0.0487,0.112183 v 0.842435 q 0,0.06562 0.0487,0.112183 0.0487,0.04657 0.127,0.04657 h 0.32173 v 0.160867 z"
         style="font-style:normal;font-variant:normal;font-weight:normal;font-stretch:normal;font-size:2.11667px;font-family:'Share Tech Mono';-inkscape-font-specification:'Share Tech Mono, Normal';font-variant-ligatures:normal;font-variant-caps:normal;font-variant-numeric:normal;font-variant-east-asian:normal"
         id="path1700" />
      <path
         d="m 123.12267,50.689214 v 0.465668 q 0.0635,-0.04233 0.15875,-0.04233 h 0.0974 q 0.17145,0 0.254,0.08043 0.0847,0.08043 0.0847,0.258233 v 0.719668 h -0.17992 v -0.762001 q 0,-0.0635 -0.0381,-0.09948 -0.036,-0.0381 -0.0995,-0.0381 h -0.1397 q -0.0677,0 -0.1016,0.03598 -0.0339,0.03387 -0.036,0.07408 v 0.789518 h -0.17991 v -1.481669 z"
         style="font-style:normal;font-variant:normal;font-weight:normal;font-stretch:normal;font-size:2.11667px;font-family:'Share Tech Mono';-inkscape-font-specification:'Share Tech Mono, Normal';font-variant-ligatures:normal;font-variant-caps:normal;font-variant-numeric:normal;font-variant-east-asian:normal"
         id="path1702" />
      <path
         d="m 124.78227,52.170883 q -0.0275,0 -0.0614,-0.01693 -0.0318,-0.01693 -0.055,-0.04657 -0.0487,0.0635 -0.12912,0.0635 h -0.18838 q -0.16087,0 -0.23495,-0.0635 -0.072,-0.06562 -0.072,-0.22225 v -0.04233 q 0,-0.328084 0.30903,-0.328084 h 0.26247 v -0.105833 q 0,-0.06562 -0.0402,-0.1016 -0.0402,-0.03598 -0.11853,-0.03598 h -0.32808 v -0.15875 h 0.30691 q 0.18415,0 0.27094,0.08043 0.0889,0.08043 0.0889,0.258233 v 0.508001 q 0,0.03175 0.0233,0.04868 0.0254,0.01482 0.0825,0.01482 v 0.148167 z m -0.2667,-0.15875 q 0.0635,0 0.0804,-0.02963 0.0169,-0.02963 0.0169,-0.0762 V 51.67347 h -0.26458 q -0.055,0 -0.091,0.03598 -0.036,0.03598 -0.036,0.09102 v 0.105833 q 0,0.05503 0.0254,0.08043 0.0254,0.0254 0.0804,0.0254 z"
         style="font-style:normal;font-variant:normal;font-weight:normal;font-stretch:normal;font-size:2.11667px;font-family:'Share Tech Mono';-inkscape-font-specification:'Share Tech Mono, Normal';font-variant-ligatures:normal;font-variant-caps:normal;font-variant-numeric:normal;font-variant-east-asian:normal"
         id="path1704" />
      <path
         d="m 125.39412,51.112548 v 0.0508 q 0.0656,-0.0508 0.16934,-0.0508 h 0.0974 q 0.17145,0 0.254,0.08043 0.0847,0.08043 0.0847,0.258233 v 0.719668 h -0.17992 v -0.762001 q 0,-0.0635 -0.0381,-0.09948 -0.036,-0.0381 -0.0995,-0.0381 h -0.1397 q -0.0698,0 -0.10372,0.0381 -0.0339,0.03598 -0.0339,0.07832 v 0.783168 h -0.17992 v -1.058335 z"
         style="font-style:normal;font-variant:normal;font-weight:normal;font-stretch:normal;font-size:2.11667px;font-family:'Share Tech Mono';-inkscape-font-specification:'Share Tech Mono, Normal';font-variant-ligatures:normal;font-variant-caps:normal;font-variant-numeric:normal;font-variant-east-asian:normal"
         id="path1706" />
      <path
         d="m 126.53514,51.112548 v 0.0508 q 0.0656,-0.0508 0.16934,-0.0508 h 0.0974 q 0.17145,0 0.254,0.08043 0.0847,0.08043 0.0847,0.258233 v 0.719668 h -0.17992 v -0.762001 q 0,-0.0635 -0.0381,-0.09948 -0.036,-0.0381 -0.0995,-0.0381 h -0.1397 q -0.0699,0 -0.10372,0.0381 -0.0339,0.03598 -0.0339,0.07832 v 0.783168 h -0.17992 v -1.058335 z"
         style="font-style:normal;font-variant:normal;font-weight:normal;font-stretch:normal;font-size:2.11667px;font-family:'Share Tech Mono';-inkscape-font-specification:'Share Tech Mono, Normal';font-variant-ligatures:normal;font-variant-caps:normal;font-variant-numeric:normal;font-variant-east-asian:normal"
         id="path1708" />
      <path
         d="m 127.88148,52.170883 q -0.18627,0 -0.27305,-0.07832 -0.0868,-0.08043 -0.0868,-0.26035 v -0.381001 q 0,-0.182033 0.0783,-0.26035 0.0783,-0.07832 0.26035,-0.07832 h 0.0995 q 0.15029,0 0.22649,0.08467 0.0783,0.08255 0.0783,0.243417 v 0.275167 h -0.56303 v 0.15875 q 0,0.06562 0.0402,0.1016 0.0402,0.03598 0.11853,0.03598 h 0.33655 v 0.15875 z m 0.20743,-0.772584 q 0,-0.05503 -0.036,-0.09102 -0.036,-0.03598 -0.091,-0.03598 h -0.12277 q -0.0762,0 -0.10795,0.03598 -0.0296,0.03387 -0.0296,0.1016 v 0.148167 h 0.38735 z"
         style="font-style:normal;font-variant:normal;font-weight:normal;font-stretch:normal;font-size:2.11667px;font-family:'Share Tech Mono';-inkscape-font-specification:'Share Tech Mono, Normal';font-variant-ligatures:normal;font-variant-caps:normal;font-variant-numeric:normal;font-variant-east-asian:normal"
         id="path1710" />
      <path
         d="m 129.10293,52.170883 q -0.072,0 -0.127,-0.0508 -0.0529,-0.0508 -0.0529,-0.160867 v -1.111252 h -0.31115 v -0.15875 h 0.49107 v 1.259419 q 0,0.03387 0.0169,0.04868 0.0169,0.01482 0.0572,0.01482 h 0.28152 v 0.15875 z"
         style="font-style:normal;font-variant:normal;font-weight:normal;font-stretch:normal;font-size:2.11667px;font-family:'Share Tech Mono';-inkscape-font-specification:'Share Tech Mono, Normal';font-variant-ligatures:normal;font-variant-caps:normal;font-variant-numeric:normal;font-variant-east-asian:normal"
         id="path1712" />
      <path
         d="m 131.67494,51.811049 q 0,0.179917 -0.0995,0.270934 -0.0974,0.0889 -0.28152,0.0889 h -0.30056 v -0.160867 h 0.32173 q 0.0783,0 0.127,-0.04657 0.0487,-0.04657 0.0487,-0.112183 v -0.220134 q 0,-0.0635 -0.0339,-0.1016 -0.0317,-0.04022 -0.0974,-0.04022 h -0.0635 q -0.15663,0 -0.24765,-0.09102 -0.091,-0.09313 -0.091,-0.268818 v -0.08043 q 0,-0.179917 0.0974,-0.268817 0.0995,-0.09102 0.28363,-0.09102 h 0.30269 v 0.160867 h -0.32385 q -0.0783,0 -0.127,0.04657 -0.0487,0.04657 -0.0487,0.112183 v 0.160867 q 0,0.06562 0.0423,0.110067 0.0423,0.04233 0.11006,0.04233 h 0.0635 q 0.15029,0 0.23284,0.08678 0.0847,0.08678 0.0847,0.262467 z"
         style="font-style:normal;font-variant:normal;font-weight:normal;font-stretch:normal;font-size:2.11667px;font-family:'Share Tech Mono';-inkscape-font-specification:'Share Tech Mono, Normal';font-variant-ligatures:normal;font-variant-caps:normal;font-variant-numeric:normal;font-variant-east-asian:normal"
         id="path1714" />
      <path
         d="m 132.76939,52.170883 q -0.0275,0 -0.0614,-0.01693 -0.0317,-0.01693 -0.055,-0.04657 -0.0487,0.0635 -0.12912,0.0635 h -0.18838 q -0.16087,0 -0.23495,-0.0635 -0.072,-0.06562 -0.072,-0.22225 v -0.04233 q 0,-0.328084 0.30903,-0.328084 h 0.26247 v -0.105833 q 0,-0.06562 -0.0402,-0.1016 -0.0402,-0.03598 -0.11853,-0.03598 h -0.32808 v -0.15875 h 0.30691 q 0.18415,0 0.27094,0.08043 0.0889,0.08043 0.0889,0.258233 v 0.508001 q 0,0.03175 0.0233,0.04868 0.0254,0.01482 0.0825,0.01482 v 0.148167 z m -0.2667,-0.15875 q 0.0635,0 0.0804,-0.02963 0.0169,-0.02963 0.0169,-0.0762 V 51.67347 h -0.26458 q -0.055,0 -0.091,0.03598 -0.036,0.03598 -0.036,0.09102 v 0.105833 q 0,0.05503 0.0254,0.08043 0.0254,0.0254 0.0804,0.0254 z"
         style="font-style:normal;font-variant:normal;font-weight:normal;font-stretch:normal;font-size:2.11667px;font-family:'Share Tech Mono';-inkscape-font-specification:'Share Tech Mono, Normal';font-variant-ligatures:normal;font-variant-caps:normal;font-variant-numeric:normal;font-variant-east-asian:normal"
         id="path1716" />
      <path
         d="m 133.27753,51.112548 v 0.04868 q 0.055,-0.04868 0.13123,-0.04868 h 0.0127 q 0.14817,0 0.20955,0.08467 0.0699,-0.08467 0.18415,-0.08467 h 0.0127 q 0.12912,0 0.1905,0.06562 0.0614,0.06562 0.0614,0.232834 v 0.759884 h -0.16934 v -0.762001 q 0,-0.08678 -0.0191,-0.12065 -0.0169,-0.03387 -0.0804,-0.03387 h -0.0127 q -0.0635,0 -0.0889,0.04445 -0.0233,0.04233 -0.0254,0.09525 v 0.776818 h -0.16933 v -0.762001 q 0,-0.0889 -0.0212,-0.12065 -0.0212,-0.03387 -0.0762,-0.03387 h -0.0127 q -0.0635,0 -0.0889,0.0381 -0.0254,0.03598 -0.0275,0.08255 v 0.795868 h -0.16933 v -1.058335 z"
         style="font-style:normal;font-variant:normal;font-weight:normal;font-stretch:normal;font-size:2.11667px;font-family:'Share Tech Mono';-inkscape-font-specification:'Share Tech Mono, Normal';font-variant-ligatures:normal;font-variant-caps:normal;font-variant-numeric:normal;font-variant-east-asian:normal"
         id="path1718" />
      <path
         d="m 134.52226,51.112548 v 0.0508 q 0.0656,-0.0508 0.16934,-0.0508 h 0.0762 q 0.18626,0 0.27305,0.08043 0.0868,0.07832 0.0868,0.258233 v 0.381001 q 0,0.1778 -0.0889,0.258234 -0.0868,0.08043 -0.27093,0.08043 h -0.23495 v 0.359834 h -0.17992 v -1.418169 z m 0.14817,0.15875 q -0.0699,0 -0.10372,0.0381 -0.0339,0.03598 -0.0339,0.07832 v 0.624418 h 0.25611 q 0.0783,0 0.11854,-0.03598 0.0402,-0.03598 0.0402,-0.1016 v -0.465667 q 0,-0.06562 -0.0402,-0.1016 -0.0402,-0.03598 -0.11854,-0.03598 z"
         style="font-style:normal;font-variant:normal;font-weight:normal;font-stretch:normal;font-size:2.11667px;font-family:'Share Tech Mono';-inkscape-font-specification:'Share Tech Mono, Normal';font-variant-ligatures:normal;font-variant-caps:normal;font-variant-numeric:normal;font-variant-east-asian:normal"
         id="path1720" />
      <path
         d="m 135.94903,52.170883 q -0.072,0 -0.127,-0.0508 -0.0529,-0.0508 -0.0529,-0.160867 v -1.111252 h -0.31115 v -0.15875 h 0.49107 v 1.259419 q 0,0.03387 0.0169,0.04868 0.0169,0.01482 0.0572,0.01482 h 0.28152 v 0.15875 z"
         style="font-style:normal;font-variant:normal;font-weight:normal;font-stretch:normal;font-size:2.11667px;font-family:'Share Tech Mono';-inkscape-font-specification:'Share Tech Mono, Normal';font-variant-ligatures:normal;font-variant-caps:normal;font-variant-numeric:normal;font-variant-east-asian:normal"
         id="path1722" />
      <path
         d="m 137.00961,52.170883 q -0.18626,0 -0.27305,-0.07832 -0.0868,-0.08043 -0.0868,-0.26035 v -0.381001 q 0,-0.182033 0.0783,-0.26035 0.0783,-0.07832 0.26035,-0.07832 h 0.0995 q 0.15028,0 0.22648,0.08467 0.0783,0.08255 0.0783,0.243417 v 0.275167 h -0.56303 v 0.15875 q 0,0.06562 0.0402,0.1016 0.0402,0.03598 0.11854,0.03598 h 0.33655 v 0.15875 z m 0.20744,-0.772584 q 0,-0.05503 -0.036,-0.09102 -0.036,-0.03598 -0.091,-0.03598 h -0.12277 q -0.0762,0 -0.10795,0.03598 -0.0296,0.03387 -0.0296,0.1016 v 0.148167 h 0.38735 z"
         style="font-style:normal;font-variant:normal;font-weight:normal;font-stretch:normal;font-size:2.11667px;font-family:'Share Tech Mono';-inkscape-font-specification:'Share Tech Mono, Normal';font-variant-ligatures:normal;font-variant-caps:normal;font-variant-numeric:normal;font-variant-east-asian:normal"
         id="path1724" />
      <path
         d="m 139.68747,51.260715 q 0,0.17145 -0.091,0.254 -0.091,0.08043 -0.26882,0.08043 h -0.22013 v 0.575734 h -0.18415 V 50.68921 h 0.40005 q 0.17992,0 0.27093,0.08043 0.0931,0.07832 0.0931,0.249767 z m -0.18415,-0.26035 q 0,-0.08043 -0.0381,-0.116417 -0.036,-0.03598 -0.11641,-0.03598 h -0.2413 v 0.588435 h 0.2413 q 0.0804,0 0.11641,-0.03598 0.0381,-0.0381 0.0381,-0.118533 z"
         style="font-style:normal;font-variant:normal;font-weight:normal;font-stretch:normal;font-size:2.11667px;font-family:'Share Tech Mono';-inkscape-font-specification:'Share Tech Mono, Normal';font-variant-ligatures:normal;font-variant-caps:normal;font-variant-numeric:normal;font-variant-east-asian:normal"
         id="path1726" />
      <path
         d="m 140.5131,52.170883 q -0.072,0 -0.127,-0.0508 -0.0529,-0.0508 -0.0529,-0.160867 v -1.111252 h -0.31115 v -0.15875 h 0.49107 v 1.259419 q 0,0.03387 0.0169,0.04868 0.0169,0.01482 0.0571,0.01482 h 0.28152 v 0.15875 z"
         style="font-style:normal;font-variant:normal;font-weight:normal;font-stretch:normal;font-size:2.11667px;font-family:'Share Tech Mono';-inkscape-font-specification:'Share Tech Mono, Normal';font-variant-ligatures:normal;font-variant-caps:normal;font-variant-numeric:normal;font-variant-east-asian:normal"
         id="path1728" />
      <path
         d="m 141.89753,52.170883 q -0.0275,0 -0.0614,-0.01693 -0.0318,-0.01693 -0.055,-0.04657 -0.0487,0.0635 -0.12912,0.0635 h -0.18838 q -0.16087,0 -0.23495,-0.0635 -0.072,-0.06562 -0.072,-0.22225 v -0.04233 q 0,-0.328084 0.30903,-0.328084 h 0.26247 v -0.105833 q 0,-0.06562 -0.0402,-0.1016 -0.0402,-0.03598 -0.11853,-0.03598 h -0.32808 v -0.15875 h 0.30691 q 0.18415,0 0.27094,0.08043 0.0889,0.08043 0.0889,0.258233 v 0.508001 q 0,0.03175 0.0233,0.04868 0.0254,0.01482 0.0825,0.01482 v 0.148167 z m -0.2667,-0.15875 q 0.0635,0 0.0804,-0.02963 0.0169,-0.02963 0.0169,-0.0762 V 51.67347 h -0.26458 q -0.055,0 -0.091,0.03598 -0.036,0.03598 -0.036,0.09102 v 0.105833 q 0,0.05503 0.0254,0.08043 0.0254,0.0254 0.0804,0.0254 z"
         style="font-style:normal;font-variant:normal;font-weight:normal;font-stretch:normal;font-size:2.11667px;font-family:'Share Tech Mono';-inkscape-font-specification:'Share Tech Mono, Normal';font-variant-ligatures:normal;font-variant-caps:normal;font-variant-numeric:normal;font-variant-east-asian:normal"
         id="path1730" />
      <path
         d="m 142.5369,52.371967 q 0.0508,0 0.0762,-0.01905 0.0254,-0.01905 0.0381,-0.06562 l 0.0296,-0.116417 h -0.0423 l -0.34925,-1.058335 h 0.19473 l 0.26459,0.886885 0.23071,-0.886885 h 0.18415 l -0.32808,1.172635 q -0.0275,0.10795 -0.0677,0.160867 -0.0402,0.05292 -0.091,0.06773 -0.0487,0.01693 -0.127,0.01693 h -0.1016 v -0.15875 z"
         style="font-style:normal;font-variant:normal;font-weight:normal;font-stretch:normal;font-size:2.11667px;font-family:'Share Tech Mono';-inkscape-font-specification:'Share Tech Mono, Normal';font-variant-ligatures:normal;font-variant-caps:normal;font-variant-numeric:normal;font-variant-east-asian:normal"
         id="path1732" />
      <path
         d="m 143.85572,52.170883 q -0.18627,0 -0.27305,-0.07832 -0.0868,-0.08043 -0.0868,-0.26035 v -0.381001 q 0,-0.182033 0.0783,-0.26035 0.0783,-0.07832 0.26035,-0.07832 h 0.0995 q 0.15029,0 0.22649,0.08467 0.0783,0.08255 0.0783,0.243417 v 0.275167 h -0.56304 v 0.15875 q 0,0.06562 0.0402,0.1016 0.0402,0.03598 0.11853,0.03598 h 0.33655 v 0.15875 z m 0.20743,-0.772584 q 0,-0.05503 -0.036,-0.09102 -0.036,-0.03598 -0.091,-0.03598 h -0.12277 q -0.0762,0 -0.10795,0.03598 -0.0296,0.03387 -0.0296,0.1016 v 0.148167 h 0.38735 z"
         style="font-style:normal;font-variant:normal;font-weight:normal;font-stretch:normal;font-size:2.11667px;font-family:'Share Tech Mono';-inkscape-font-specification:'Share Tech Mono, Normal';font-variant-ligatures:normal;font-variant-caps:normal;font-variant-numeric:normal;font-variant-east-asian:normal"
         id="path1734" />
      <path
         d="m 144.80412,52.012133 v -0.740835 h -0.15452 v -0.15875 h 0.32385 v 0.05715 q 0.0698,-0.05715 0.16934,-0.05715 h 0.21801 v 0.169334 h -0.23918 q -0.0677,0 -0.1016,0.04445 -0.0339,0.04233 -0.036,0.08678 v 0.599018 h 0.23071 v 0.15875 h -0.56515 v -0.15875 z"
         style="font-style:normal;font-variant:normal;font-weight:normal;font-stretch:normal;font-size:2.11667px;font-family:'Share Tech Mono';-inkscape-font-specification:'Share Tech Mono, Normal';font-variant-ligatures:normal;font-variant-caps:normal;font-variant-numeric:normal;font-variant-east-asian:normal"
         id="path1736" />
    </g>
    <g
       aria-label="POLY AUDIO OUT"
       transform="translate(45.109837,-5.9152558)"
       id="text1630"
       style="font-style:normal;font-variant:normal;font-weight:normal;font-stretch:normal;font-size:3.52778px;line-height:1.25;font-family:'Share Tech Mono';-inkscape-font-specification:'Share Tech Mono, Normal';font-variant-ligatures:normal;font-variant-caps:normal;font-variant-numeric:normal;font-variant-east-asian:normal;letter-spacing:0px;word-spacing:0px;white-space:pre;shape-inside:url(#rect1632)">
      <path
         d="m 94.827357,148.55562 q 0,0.28575 -0.151695,0.42333 -0.151694,0.13406 -0.448028,0.13406 h -0.366889 v 0.95955 h -0.306917 v -2.46944 h 0.666751 q 0.299861,0 0.451556,0.13405 0.155222,0.13053 0.155222,0.41628 z M 94.52044,148.1217 q 0,-0.13406 -0.0635,-0.19403 -0.05997,-0.06 -0.194028,-0.06 h -0.402167 v 0.98072 h 0.402167 q 0.134056,0 0.194028,-0.06 0.0635,-0.0635 0.0635,-0.19755 z"
         style="font-style:normal;font-variant:normal;font-weight:normal;font-stretch:normal;font-size:3.52778px;font-family:'Share Tech Mono';-inkscape-font-specification:'Share Tech Mono, Normal';font-variant-ligatures:normal;font-variant-caps:normal;font-variant-numeric:normal;font-variant-east-asian:normal"
         id="path1663" />
      <path
         d="m 96.796079,149.47284 q 0,0.29986 -0.165806,0.45156 -0.162278,0.14816 -0.469195,0.14816 h -0.141111 q -0.306917,0 -0.472722,-0.14816 -0.162278,-0.1517 -0.162278,-0.45156 v -1.27 q 0,-0.29986 0.162278,-0.44803 0.165805,-0.15169 0.472722,-0.15169 h 0.141111 q 0.306917,0 0.469195,0.15169 0.165806,0.14817 0.165806,0.44803 z m -0.306917,-1.33703 q 0,-0.10936 -0.08114,-0.18697 -0.08114,-0.0776 -0.211667,-0.0776 h -0.211667 q -0.130528,0 -0.211667,0.0776 -0.08114,0.0776 -0.08114,0.18697 v 1.40406 q 0,0.10936 0.08114,0.18697 0.08114,0.0776 0.211667,0.0776 h 0.211667 q 0.130528,0 0.211667,-0.0776 0.08114,-0.0776 0.08114,-0.18697 z"
         style="font-style:normal;font-variant:normal;font-weight:normal;font-stretch:normal;font-size:3.52778px;font-family:'Share Tech Mono';-inkscape-font-specification:'Share Tech Mono, Normal';font-variant-ligatures:normal;font-variant-caps:normal;font-variant-numeric:normal;font-variant-east-asian:normal"
         id="path1665" />
      <path
         d="m 97.752328,147.60312 v 2.20133 h 0.786695 v 0.26811 h -1.093612 v -2.46944 z"
         style="font-style:normal;font-variant:normal;font-weight:normal;font-stretch:normal;font-size:3.52778px;font-family:'Share Tech Mono';-inkscape-font-specification:'Share Tech Mono, Normal';font-variant-ligatures:normal;font-variant-caps:normal;font-variant-numeric:normal;font-variant-east-asian:normal"
         id="path1667" />
      <path
         d="m 99.728105,150.07256 v -1.14653 l -0.631473,-1.32291 h 0.338667 l 0.465667,1.02658 0.465664,-1.02658 h 0.32103 l -0.64205,1.32291 v 1.14653 z"
         style="font-style:normal;font-variant:normal;font-weight:normal;font-stretch:normal;font-size:3.52778px;font-family:'Share Tech Mono';-inkscape-font-specification:'Share Tech Mono, Normal';font-variant-ligatures:normal;font-variant-caps:normal;font-variant-numeric:normal;font-variant-east-asian:normal"
         id="path1669" />
      <path
         d="m 93.846634,153.85787 -0.137583,0.62442 h -0.313973 l 0.596195,-2.46944 h 0.405695 l 0.585611,2.46944 h -0.313972 l -0.134056,-0.62442 z m 0.631473,-0.26458 -0.289278,-1.34761 -0.28575,1.34761 z"
         style="font-style:normal;font-variant:normal;font-weight:normal;font-stretch:normal;font-size:3.52778px;font-family:'Share Tech Mono';-inkscape-font-specification:'Share Tech Mono, Normal';font-variant-ligatures:normal;font-variant-caps:normal;font-variant-numeric:normal;font-variant-east-asian:normal"
         id="path1671" />
      <path
         d="m 96.767856,153.88257 q 0,0.29986 -0.165805,0.45155 -0.162278,0.14817 -0.469195,0.14817 h -0.08819 q -0.306917,0 -0.472723,-0.14817 -0.162278,-0.15169 -0.162278,-0.45155 v -1.86972 h 0.306917 v 1.93675 q 0,0.10936 0.08114,0.18697 0.08114,0.0776 0.211667,0.0776 h 0.15875 q 0.130528,0 0.211667,-0.0776 0.08114,-0.0776 0.08114,-0.18697 v -1.93675 h 0.306916 z"
         style="font-style:normal;font-variant:normal;font-weight:normal;font-stretch:normal;font-size:3.52778px;font-family:'Share Tech Mono';-inkscape-font-specification:'Share Tech Mono, Normal';font-variant-ligatures:normal;font-variant-caps:normal;font-variant-numeric:normal;font-variant-east-asian:normal"
         id="path1673" />
      <path
         d="m 98.655439,153.9249 q 0,0.30339 -0.141111,0.43039 -0.137583,0.127 -0.458611,0.127 h -0.726723 v -2.46944 h 0.684389 q 0.317501,0 0.479778,0.13052 0.162278,0.127 0.162278,0.41981 z m -0.306917,-1.39347 q 0,-0.11642 -0.07055,-0.18345 -0.07056,-0.0705 -0.186973,-0.0705 h -0.455083 v 1.94028 h 0.451556 q 0.134055,0 0.197555,-0.06 0.0635,-0.0635 0.0635,-0.19756 z"
         style="font-style:normal;font-variant:normal;font-weight:normal;font-stretch:normal;font-size:3.52778px;font-family:'Share Tech Mono';-inkscape-font-specification:'Share Tech Mono, Normal';font-variant-ligatures:normal;font-variant-caps:normal;font-variant-numeric:normal;font-variant-east-asian:normal"
         id="path1675" />
      <path
         d="m 99.738688,154.22476 v -1.95439 h -0.3175 v -0.25752 h 0.941922 v 0.25752 h -0.3175 v 1.95439 h 0.3175 v 0.25753 h -0.941922 v -0.25753 z"
         style="font-style:normal;font-variant:normal;font-weight:normal;font-stretch:normal;font-size:3.52778px;font-family:'Share Tech Mono';-inkscape-font-specification:'Share Tech Mono, Normal';font-variant-ligatures:normal;font-variant-caps:normal;font-variant-numeric:normal;font-variant-east-asian:normal"
         id="path1677" />
      <path
         d="m 102.50116,153.88257 q 0,0.29986 -0.16581,0.45155 -0.16227,0.14817 -0.46919,0.14817 h -0.14111 q -0.30692,0 -0.47272,-0.14817 -0.16228,-0.15169 -0.16228,-0.45155 v -1.27 q 0,-0.29986 0.16228,-0.44803 0.1658,-0.15169 0.47272,-0.15169 h 0.14111 q 0.30692,0 0.46919,0.15169 0.16581,0.14817 0.16581,0.44803 z m -0.30692,-1.33703 q 0,-0.10936 -0.0811,-0.18697 -0.0811,-0.0776 -0.21166,-0.0776 h -0.21167 q -0.13053,0 -0.21167,0.0776 -0.0811,0.0776 -0.0811,0.18697 v 1.40406 q 0,0.10936 0.0811,0.18697 0.0811,0.0776 0.21167,0.0776 h 0.21167 q 0.13053,0 0.21166,-0.0776 0.0811,-0.0776 0.0811,-0.18697 z"
         style="font-style:normal;font-variant:normal;font-weight:normal;font-stretch:normal;font-size:3.52778px;font-family:'Share Tech Mono';-inkscape-font-specification:'Share Tech Mono, Normal';font-variant-ligatures:normal;font-variant-caps:normal;font-variant-numeric:normal;font-variant-east-asian:normal"
         id="path1679" />
      <path
         d="m 94.894385,158.2923 q 0,0.29986 -0.165806,0.45155 -0.162278,0.14817 -0.469195,0.14817 h -0.141111 q -0.306917,0 -0.472722,-0.14817 -0.162278,-0.15169 -0.162278,-0.45155 v -1.27 q 0,-0.29986 0.162278,-0.44803 0.165805,-0.1517 0.472722,-0.1517 h 0.141111 q 0.306917,0 0.469195,0.1517 0.165806,0.14817 0.165806,0.44803 z m -0.306917,-1.33703 q 0,-0.10936 -0.08114,-0.18697 -0.08114,-0.0776 -0.211667,-0.0776 h -0.211667 q -0.130528,0 -0.211666,0.0776 -0.08114,0.0776 -0.08114,0.18697 v 1.40406 q 0,0.10936 0.08114,0.18697 0.08114,0.0776 0.211666,0.0776 h 0.211667 q 0.130528,0 0.211667,-0.0776 0.08114,-0.0776 0.08114,-0.18697 z"
         style="font-style:normal;font-variant:normal;font-weight:normal;font-stretch:normal;font-size:3.52778px;font-family:'Share Tech Mono';-inkscape-font-specification:'Share Tech Mono, Normal';font-variant-ligatures:normal;font-variant-caps:normal;font-variant-numeric:normal;font-variant-east-asian:normal"
         id="path1681" />
      <path
         d="m 96.767856,158.2923 q 0,0.29986 -0.165805,0.45155 -0.162278,0.14817 -0.469195,0.14817 h -0.08819 q -0.306917,0 -0.472723,-0.14817 -0.162278,-0.15169 -0.162278,-0.45155 v -1.86973 h 0.306917 v 1.93676 q 0,0.10936 0.08114,0.18697 0.08114,0.0776 0.211667,0.0776 h 0.15875 q 0.130528,0 0.211667,-0.0776 0.08114,-0.0776 0.08114,-0.18697 v -1.93676 h 0.306916 z"
         style="font-style:normal;font-variant:normal;font-weight:normal;font-stretch:normal;font-size:3.52778px;font-family:'Share Tech Mono';-inkscape-font-specification:'Share Tech Mono, Normal';font-variant-ligatures:normal;font-variant-caps:normal;font-variant-numeric:normal;font-variant-east-asian:normal"
         id="path1683" />
      <path
         d="m 97.836994,158.89202 v -2.20133 h -0.560917 v -0.26812 h 1.428751 v 0.26812 h -0.560917 v 2.20133 z"
         style="font-style:normal;font-variant:normal;font-weight:normal;font-stretch:normal;font-size:3.52778px;font-family:'Share Tech Mono';-inkscape-font-specification:'Share Tech Mono, Normal';font-variant-ligatures:normal;font-variant-caps:normal;font-variant-numeric:normal;font-variant-east-asian:normal"
         id="path1685" />
    </g>
    <g
       style="font-size:4.23333px;line-height:1.25;font-family:'Share Tech Mono';-inkscape-font-specification:'Share Tech Mono, Normal';letter-spacing:0px;word-spacing:0px;white-space:pre;shape-inside:url(#rect943)"
       id="text941"
       transform="translate(3.4017857,-0.37797619)"
       aria-label="VOLUME">
      <path
         id="path948"
         style="font-style:normal;font-variant:normal;font-weight:normal;font-stretch:normal;font-size:3.52778px;font-family:'Share Tech Mono';-inkscape-font-specification:'Share Tech Mono, Normal';font-variant-ligatures:normal;font-variant-caps:normal;font-variant-numeric:normal;font-variant-east-asian:normal"
         d="m 69.053024,152.87426 h 0.310445 l 0.423334,2.15901 0.455083,-2.15901 h 0.303389 l -0.553861,2.46945 h -0.419806 z" />
      <path
         id="path950"
         style="font-style:normal;font-variant:normal;font-weight:normal;font-stretch:normal;font-size:3.52778px;font-family:'Share Tech Mono';-inkscape-font-specification:'Share Tech Mono, Normal';font-variant-ligatures:normal;font-variant-caps:normal;font-variant-numeric:normal;font-variant-east-asian:normal"
         d="m 72.415219,154.74399 q 0,0.29986 -0.165805,0.45155 -0.162278,0.14817 -0.469195,0.14817 h -0.141111 q -0.306917,0 -0.472723,-0.14817 -0.162278,-0.15169 -0.162278,-0.45155 v -1.27 q 0,-0.29986 0.162278,-0.44803 0.165806,-0.1517 0.472723,-0.1517 h 0.141111 q 0.306917,0 0.469195,0.1517 0.165805,0.14817 0.165805,0.44803 z m -0.306917,-1.33703 q 0,-0.10936 -0.08114,-0.18697 -0.08114,-0.0776 -0.211667,-0.0776 H 71.60383 q -0.130528,0 -0.211667,0.0776 -0.08114,0.0776 -0.08114,0.18697 v 1.40406 q 0,0.10936 0.08114,0.18697 0.08114,0.0776 0.211667,0.0776 h 0.211667 q 0.130528,0 0.211667,-0.0776 0.08114,-0.0776 0.08114,-0.18697 z" />
      <path
         id="path952"
         style="font-style:normal;font-variant:normal;font-weight:normal;font-stretch:normal;font-size:3.52778px;font-family:'Share Tech Mono';-inkscape-font-specification:'Share Tech Mono, Normal';font-variant-ligatures:normal;font-variant-caps:normal;font-variant-numeric:normal;font-variant-east-asian:normal"
         d="m 73.371468,152.87426 v 2.20134 h 0.786695 v 0.26811 h -1.093612 v -2.46945 z" />
      <path
         id="path954"
         style="font-style:normal;font-variant:normal;font-weight:normal;font-stretch:normal;font-size:3.52778px;font-family:'Share Tech Mono';-inkscape-font-specification:'Share Tech Mono, Normal';font-variant-ligatures:normal;font-variant-caps:normal;font-variant-numeric:normal;font-variant-east-asian:normal"
         d="m 76.190385,154.74399 q 0,0.29986 -0.165806,0.45155 -0.162277,0.14817 -0.469194,0.14817 h -0.08819 q -0.306917,0 -0.472722,-0.14817 -0.162278,-0.15169 -0.162278,-0.45155 v -1.86973 h 0.306917 v 1.93676 q 0,0.10936 0.08114,0.18697 0.08114,0.0776 0.211666,0.0776 h 0.15875 q 0.130528,0 0.211667,-0.0776 0.08114,-0.0776 0.08114,-0.18697 v -1.93676 h 0.306917 z" />
      <path
         id="path956"
         style="font-style:normal;font-variant:normal;font-weight:normal;font-stretch:normal;font-size:3.52778px;font-family:'Share Tech Mono';-inkscape-font-specification:'Share Tech Mono, Normal';font-variant-ligatures:normal;font-variant-caps:normal;font-variant-numeric:normal;font-variant-east-asian:normal"
         d="m 77.555856,154.51468 h -0.292805 l -0.345723,-1.38642 v 2.21545 h -0.268111 v -2.46945 h 0.490361 l 0.282223,1.26295 0.28575,-1.26295 h 0.47625 v 2.46945 h -0.275167 v -2.21545 z" />
      <path
         id="path958"
         style="font-style:normal;font-variant:normal;font-weight:normal;font-stretch:normal;font-size:3.52778px;font-family:'Share Tech Mono';-inkscape-font-specification:'Share Tech Mono, Normal';font-variant-ligatures:normal;font-variant-caps:normal;font-variant-numeric:normal;font-variant-east-asian:normal"
         d="m 79.905578,152.87426 v 0.25753 h -0.871361 v 0.80786 h 0.783167 v 0.25753 h -0.783167 v 0.889 h 0.871361 v 0.25753 H 78.7273 v -2.46945 z" />
    </g>
  </g>
</svg>
