<?xml version="1.0" encoding="UTF-8" standalone="no"?>
<!-- Generator: Adobe Illustrator 26.1.0, SVG Export Plug-In . SVG Version: 6.00 Build 0)  -->

<svg
   version="1.1"
   id="Ebene_2"
   x="0px"
   y="0px"
   viewBox="0 0 244.8 364.252"
   xml:space="preserve"
   sodipodi:docname="hazumi_typography.svg"
   inkscape:version="1.1.1 (3bf5ae0d25, 2021-09-20)"
   width="86.360mm"
   height="128.5mm"
   xmlns:inkscape="http://www.inkscape.org/namespaces/inkscape"
   xmlns:sodipodi="http://sodipodi.sourceforge.net/DTD/sodipodi-0.dtd"
   xmlns:xlink="http://www.w3.org/1999/xlink"
   xmlns="http://www.w3.org/2000/svg"
   xmlns:svg="http://www.w3.org/2000/svg"><defs
   id="defs89"><linearGradient
     inkscape:collect="always"
     id="linearGradient1167"><stop
       style="stop-color:#f3ede7;stop-opacity:1;"
       offset="0"
       id="stop1163" /><stop
       style="stop-color:#f3ede7;stop-opacity:0;"
       offset="1"
       id="stop1165" /></linearGradient><linearGradient
     inkscape:collect="always"
     xlink:href="#linearGradient1167"
     id="linearGradient1201"
     x1="143.124"
     y1="8.444"
     x2="183.271"
     y2="8.444"
     gradientUnits="userSpaceOnUse" /></defs><sodipodi:namedview
   id="namedview87"
   pagecolor="#ffffff"
   bordercolor="#666666"
   borderopacity="1.0"
   inkscape:pageshadow="2"
   inkscape:pageopacity="0.0"
   inkscape:pagecheckerboard="0"
   showgrid="false"
   inkscape:zoom="3.3894348"
   inkscape:cx="-41.304822"
   inkscape:cy="155.18812"
   inkscape:window-width="2880"
   inkscape:window-height="1526"
   inkscape:window-x="-11"
   inkscape:window-y="1138"
   inkscape:window-maximized="1"
   inkscape:current-layer="Ebene_2"
   units="mm"
   inkscape:document-units="mm" />
<style
   type="text/css"
   id="style2">
	.st0{fill:#F3EDE7;}
	.st1{opacity:0.15;fill:#FFFFFF;}
	.st2{fill:#1C2729;}
</style>
<path
   class="st0"
   d="m 103.78,12.448 -1.128,-8.007 c -0.022,-0.168 0.068,-0.202 0.169,-0.202 h 0.35 c 0.124,0 0.191,0.034 0.203,0.18 l 0.745,6.098 c 0.011,0.067 0.101,0.067 0.113,0 l 0.744,-6.098 c 0.011,-0.146 0.079,-0.18 0.203,-0.18 h 0.35 c 0.102,0 0.192,0.034 0.169,0.202 l -1.128,8.007 c -0.022,0.157 -0.079,0.213 -0.191,0.213 h -0.406 c -0.114,0 -0.17,-0.056 -0.193,-0.213 z"
   id="path4"
   style="stroke:none;fill:#f3ede7;fill-opacity:1" /><path
   class="st0"
   d="m 107.334,5.878 c 0,-1.033 0.462,-1.696 1.331,-1.696 0.88,0 1.342,0.663 1.342,1.696 v 5.144 c 0,1.033 -0.462,1.696 -1.342,1.696 -0.868,0 -1.331,-0.663 -1.331,-1.696 z m 1.331,6.154 c 0.485,0 0.62,-0.393 0.62,-1.224 V 6.091 c 0,-0.831 -0.135,-1.224 -0.62,-1.224 -0.474,0 -0.609,0.393 -0.609,1.224 v 4.717 c 0,0.831 0.135,1.224 0.609,1.224 z"
   id="path6"
   style="stroke:none;fill:#f3ede7;fill-opacity:1" /><path
   class="st0"
   d="m 111.826,12.493 0.97,-3.976 c 0.011,-0.045 0.011,-0.09 0,-0.135 l -0.97,-3.976 c -0.022,-0.101 0.045,-0.168 0.112,-0.168 h 0.451 c 0.079,0 0.146,0.067 0.169,0.168 l 0.598,2.695 c 0.012,0.056 0.079,0.056 0.091,0 l 0.598,-2.695 c 0.022,-0.101 0.09,-0.168 0.169,-0.168 h 0.439 c 0.079,0 0.136,0.067 0.113,0.168 l -0.959,3.976 c -0.011,0.045 -0.022,0.09 -0.011,0.135 l 0.97,3.976 c 0.022,0.101 -0.034,0.168 -0.113,0.168 h -0.439 c -0.079,0 -0.158,-0.067 -0.181,-0.168 l -0.586,-2.684 c -0.012,-0.056 -0.079,-0.056 -0.091,0 l -0.598,2.684 c -0.022,0.101 -0.09,0.168 -0.169,0.168 h -0.451 c -0.067,0 -0.135,-0.067 -0.112,-0.168 z"
   id="path8"
   style="stroke:none;fill:#f3ede7;fill-opacity:1" /><path
   class="st0"
   d="m 116.271,5.878 c 0,-1.033 0.462,-1.696 1.33,-1.696 0.88,0 1.319,0.674 1.319,1.696 v 0.887 c 0,0.101 -0.067,0.168 -0.169,0.168 h -0.361 c -0.102,0 -0.169,-0.067 -0.169,-0.168 V 6.091 c 0,-0.831 -0.146,-1.224 -0.62,-1.224 -0.474,0 -0.608,0.393 -0.608,1.224 v 4.717 c 0,0.831 0.135,1.224 0.608,1.224 0.473,0 0.62,-0.393 0.62,-1.224 V 9.292 c 0,-0.101 -0.067,-0.168 -0.169,-0.168 h -0.282 c -0.102,0 -0.169,-0.056 -0.169,-0.168 V 8.618 c 0,-0.101 0.067,-0.168 0.169,-0.168 h 0.981 c 0.102,0 0.169,0.067 0.169,0.168 v 2.403 c 0,1.022 -0.439,1.696 -1.319,1.696 -0.868,0 -1.33,-0.663 -1.33,-1.696 z"
   id="path10"
   style="stroke:none;fill:#f3ede7;fill-opacity:1" /><path
   class="st0"
   d="m 121.145,4.407 c 0,-0.101 0.057,-0.168 0.169,-0.168 h 0.384 c 0.102,0 0.169,0.067 0.169,0.168 v 7.435 c 0,0.101 0.067,0.168 0.169,0.168 h 0.925 c 0.102,0 0.169,0.067 0.169,0.168 v 0.314 c 0,0.101 -0.067,0.168 -0.169,0.168 h -1.646 c -0.102,0 -0.169,-0.067 -0.169,-0.168 V 4.407 Z"
   id="path12"
   style="stroke:none;fill:#f3ede7;fill-opacity:1" /><path
   class="st0"
   d="M 125.038,12.493 V 4.407 c 0,-0.101 0.057,-0.168 0.169,-0.168 h 0.384 c 0.102,0 0.169,0.067 0.169,0.168 v 8.086 c 0,0.101 -0.057,0.168 -0.169,0.168 h -0.384 c -0.102,0 -0.169,-0.067 -0.169,-0.168 z"
   id="path14"
   style="stroke:none;fill:#f3ede7;fill-opacity:1" /><path
   class="st0"
   d="m 127.667,4.407 c 0,-0.101 0.067,-0.168 0.169,-0.168 h 1.95 c 0.102,0 0.17,0.056 0.17,0.168 v 0.348 c 0,0.101 -0.068,0.168 -0.17,0.168 h -0.462 c -0.102,0 -0.169,0.067 -0.169,0.168 v 7.401 c 0,0.101 -0.057,0.168 -0.169,0.168 h -0.372 c -0.102,0 -0.17,-0.067 -0.17,-0.168 v -7.4 c 0,-0.101 -0.067,-0.168 -0.169,-0.168 h -0.439 c -0.102,0 -0.169,-0.056 -0.169,-0.168 z"
   id="path16"
   style="stroke:none;fill:#f3ede7;fill-opacity:1" /><path
   class="st0"
   d="m 131.752,5.878 c 0,-1.033 0.462,-1.696 1.33,-1.696 0.88,0 1.342,0.674 1.342,1.696 v 0.887 c 0,0.101 -0.067,0.168 -0.169,0.168 h -0.384 c -0.102,0 -0.169,-0.067 -0.169,-0.168 V 6.091 c 0,-0.831 -0.146,-1.224 -0.62,-1.224 -0.474,0 -0.608,0.393 -0.608,1.224 v 4.717 c 0,0.831 0.135,1.224 0.608,1.224 0.473,0 0.62,-0.393 0.62,-1.224 v -0.674 c 0,-0.101 0.067,-0.168 0.169,-0.168 h 0.384 c 0.102,0 0.169,0.067 0.169,0.168 v 0.887 c 0,1.022 -0.462,1.696 -1.342,1.696 -0.868,0 -1.33,-0.663 -1.33,-1.696 z"
   id="path18"
   style="stroke:none;fill:#f3ede7;fill-opacity:1" /><path
   class="st0"
   d="M 136.603,12.493 V 4.407 c 0,-0.101 0.057,-0.168 0.169,-0.168 h 0.384 c 0.102,0 0.169,0.067 0.169,0.168 v 3.481 c 0,0.101 0.067,0.168 0.169,0.168 h 1.015 c 0.102,0 0.181,-0.067 0.181,-0.168 V 4.407 c 0,-0.101 0.057,-0.168 0.169,-0.168 h 0.373 c 0.101,0 0.169,0.067 0.169,0.168 v 8.086 c 0,0.101 -0.057,0.168 -0.169,0.168 h -0.373 c -0.101,0 -0.169,-0.067 -0.169,-0.168 V 8.91 c 0,-0.101 -0.079,-0.168 -0.181,-0.168 h -1.015 c -0.102,0 -0.169,0.067 -0.169,0.168 v 3.583 c 0,0.101 -0.057,0.168 -0.169,0.168 h -0.384 c -0.102,0 -0.169,-0.067 -0.169,-0.168 z"
   id="path20"
   style="stroke:none;fill:#f3ede7;fill-opacity:1" />
<path
   class="st0"
   d="M 98.229,3.5 92.015,3.004 C 91.9,2.995 91.799,3.078 91.786,3.193 L 91.534,5.367 92.592,5.687 90.758,8.642 88.924,5.687 89.982,5.367 89.73,3.192 C 89.717,3.077 89.615,2.994 89.501,3.003 L 83.27,3.5 C 83.074,3.516 82.906,3.648 82.845,3.836 L 81.802,7.059 C 81.749,7.221 81.785,7.4 81.897,7.53 l 5.492,6.364 c 0.092,0.107 0.227,0.169 0.368,0.169 h 5.986 c 0.141,0 0.276,-0.062 0.368,-0.169 L 99.605,7.53 C 99.717,7.4 99.753,7.222 99.7,7.059 L 98.654,3.837 C 98.593,3.648 98.426,3.515 98.229,3.5 Z m -5.456,8.607 h -4.045 c -0.15,0 -0.293,-0.07 -0.385,-0.189 L 84.515,6.965 C 84.432,6.858 84.397,6.72 84.419,6.586 l 0.158,-0.97 C 84.6,5.475 84.737,5.384 84.875,5.418 l 0.953,0.234 c 0.131,0.032 0.243,0.118 0.309,0.236 l 2.789,5.011 c 0.043,0.077 0.124,0.125 0.213,0.125 h 3.237 c 0.088,0 0.17,-0.048 0.213,-0.126 L 95.361,5.889 C 95.427,5.77 95.54,5.684 95.672,5.651 l 0.952,-0.232 c 0.138,-0.034 0.275,0.057 0.298,0.198 l 0.159,0.967 c 0.022,0.134 -0.013,0.272 -0.096,0.379 l -3.829,4.953 c -0.091,0.121 -0.233,0.191 -0.383,0.191 z"
   id="path24"
   style="stroke:none;fill:#f3ede7;fill-opacity:1" />
<polygon
   class="st0"
   points="146.196,6.382 146.196,10.58 146.964,10.58 146.964,8.817 147.941,8.817 147.941,10.58 148.709,10.58 148.709,6.382 147.941,6.382 147.941,8.14 146.964,8.14 146.964,6.382 "
   id="polygon26"
   style="stroke:none;fill:#f3ede7;fill-opacity:1" /><path
   class="st0"
   d="m 150.522,6.382 -0.894,4.198 h 0.797 l 0.168,-0.899 h 0.966 l 0.174,0.899 h 0.815 l -0.894,-4.198 z m 0.204,2.633 0.336,-1.829 h 0.03 l 0.336,1.829 z"
   id="path28"
   style="stroke:none;fill:#f3ede7;fill-opacity:1" /><polygon
   class="st0"
   points="153.427,7.06 154.686,7.06 153.366,9.92 153.366,10.58 155.604,10.58 155.604,9.908 154.236,9.908 155.556,7.048 155.556,6.382 153.427,6.382 "
   id="polygon30"
   style="stroke:none;fill:#f3ede7;fill-opacity:1" /><path
   class="st0"
   d="m 158.207,9.159 c 0,0.63 -0.096,0.774 -0.426,0.774 h -0.048 c -0.33,0 -0.426,-0.144 -0.426,-0.774 V 6.382 h -0.773 v 2.771 c 0,1.193 0.324,1.487 1.188,1.487 h 0.072 c 0.863,0 1.187,-0.294 1.187,-1.487 V 6.382 h -0.773 v 2.777 z"
   id="path32"
   style="stroke:none;fill:#f3ede7;fill-opacity:1" /><polygon
   class="st0"
   points="160.038,6.382 160.038,10.58 160.775,10.58 160.775,7.288 160.806,7.288 161.513,10.58 162.143,10.58 162.845,7.288 162.88,7.288 162.88,10.58 163.618,10.58 163.618,6.382 162.425,6.382 161.873,9.033 161.837,9.033 161.291,6.382 "
   id="polygon34"
   style="stroke:none;fill:#f3ede7;fill-opacity:1" /><rect
   x="164.71201"
   y="6.382"
   class="st0"
   width="0.76800001"
   height="4.198"
   id="rect36"
   style="stroke:none;fill:#f3ede7;fill-opacity:1" /><g
   id="g50"
   style="stroke:none;fill:#f3ede7;fill-opacity:1">
		<rect
   x="173.892"
   y="8.3039999"
   class="st0"
   width="0.84500003"
   height="0.55900002"
   id="rect38"
   style="stroke:none;fill:#f3ede7;fill-opacity:1" />
		<rect
   x="172.625"
   y="8.3039999"
   class="st0"
   width="0.84500003"
   height="0.55900002"
   id="rect40"
   style="stroke:none;fill:#f3ede7;fill-opacity:1" />
		<rect
   x="173.892"
   y="7.3800001"
   class="st0"
   width="0.84500003"
   height="0.53500003"
   id="rect42"
   style="stroke:none;fill:#f3ede7;fill-opacity:1" />
		<path
   class="st0"
   d="m 182.716,3.88 h -39.037 c -0.306,0 -0.555,0.248 -0.555,0.555 v 8.018 c 0,0.306 0.248,0.555 0.555,0.555 h 39.037 c 0.306,0 0.555,-0.248 0.555,-0.555 V 4.435 c 0,-0.307 -0.249,-0.555 -0.555,-0.555 z m -8.004,1.823 0.447,0.17 c 0.099,0.049 0.083,0.089 -0.05,0.122 -0.133,0.292 -0.29,0.575 -0.472,0.851 l -0.422,-0.219 c 0.199,-0.309 0.364,-0.617 0.497,-0.924 z m -1.292,0.024 c 0.199,0.211 0.381,0.462 0.547,0.754 l -0.447,0.292 c -0.149,-0.308 -0.315,-0.567 -0.497,-0.778 z m -1.068,0.097 c 0.199,0.211 0.373,0.454 0.522,0.729 l -0.447,0.267 c -0.166,-0.308 -0.323,-0.551 -0.472,-0.729 z m -4.394,6.629 h -24.28 V 4.435 h 24.28 z m 3.673,-1.938 c -0.033,0.486 -0.232,0.729 -0.596,0.729 h -0.646 l -0.05,-0.462 h 0.571 c 0.149,0 0.232,-0.105 0.249,-0.316 l 0.099,-1.386 h -0.82 l -0.025,0.243 h -0.472 l 0.174,-2.066 h 1.093 V 6.408 h -1.317 V 5.946 h 1.814 v 1.993 h -0.497 V 7.72 h -0.646 l -0.075,0.899 h 1.267 z m 3.951,-0.34 h -1.689 v 1.07 h -0.422 v -1.07 h -1.565 V 9.713 h 1.565 V 9.252 h -0.646 -0.621 V 6.991 h 2.956 v 2.261 h -1.267 v 0.462 h 1.689 z m 6.061,-0.535 c -0.348,-0.194 -0.662,-0.356 -0.944,-0.486 v 0 c -0.166,0.729 -0.489,1.353 -0.969,1.872 l -0.522,-0.292 c 0.513,-0.47 0.853,-1.053 1.019,-1.75 -0.58,-0.211 -1.168,-0.357 -1.764,-0.438 -0.447,0.94 -0.745,1.483 -0.894,1.629 -0.199,0.194 -0.431,0.292 -0.696,0.292 -0.199,0 -0.364,-0.065 -0.497,-0.195 -0.149,-0.146 -0.224,-0.365 -0.224,-0.656 0,-0.34 0.166,-0.672 0.497,-0.997 0.364,-0.357 0.853,-0.535 1.466,-0.535 0.199,-0.502 0.381,-0.972 0.547,-1.41 -0.464,0.113 -0.927,0.219 -1.391,0.316 l -0.224,-0.486 c 0.547,-0.065 1.068,-0.154 1.565,-0.267 l 0.298,-0.122 0.422,0.316 c 0.166,0.097 0.158,0.17 -0.024,0.219 -0.215,0.373 -0.447,0.859 -0.696,1.458 0.53,0.065 1.093,0.194 1.689,0.389 0.033,-0.389 0.041,-0.867 0.024,-1.434 l 0.472,0.097 c 0.182,0.032 0.199,0.097 0.05,0.195 0,0.535 -0.017,0.972 -0.05,1.313 0.315,0.113 0.679,0.275 1.093,0.486 z"
   id="path44"
   style="stroke:none;fill:#f3ede7;fill-opacity:1" />
		<rect
   x="172.625"
   y="7.3800001"
   class="st0"
   width="0.84500003"
   height="0.53500003"
   id="rect46"
   style="stroke:none;fill:#f3ede7;fill-opacity:1" />
		<path
   class="st0"
   d="m 176.625,9.616 c 0,0.097 0.033,0.178 0.099,0.243 0.05,0.049 0.124,0.073 0.224,0.073 0.149,0 0.282,-0.089 0.398,-0.267 0.099,-0.146 0.298,-0.519 0.596,-1.118 -0.381,0 -0.687,0.113 -0.919,0.34 -0.266,0.259 -0.398,0.502 -0.398,0.729 z"
   id="path48"
   style="stroke:none;fill:#f3ede7;fill-opacity:1" />
	</g>
<path
   class="st0"
   d="m 204.404,50.228 c -2.793,-2.793 -4.188,-6.45 -4.188,-10.111 0,-3.66 1.395,-7.318 4.188,-10.111 0.117,-0.117 0.117,-0.307 0,-0.424 -0.117,-0.117 -0.307,-0.117 -0.424,0 -2.909,2.908 -4.364,6.723 -4.364,10.535 0,3.812 1.455,7.626 4.364,10.535 0.117,0.117 0.307,0.117 0.424,0 0.117,-0.117 0.117,-0.306 0,-0.424 z"
   id="path54"
   style="fill-opacity:1;fill:#f3ede7" /><path
   class="st0"
   d="m 224.625,30.007 c 2.792,2.793 4.188,6.45 4.188,10.111 0,3.66 -1.395,7.318 -4.188,10.111 -0.117,0.117 -0.117,0.307 0,0.424 0.117,0.117 0.307,0.117 0.424,0 2.908,-2.908 4.364,-6.723 4.364,-10.535 0,-3.812 -1.455,-7.626 -4.364,-10.535 -0.117,-0.117 -0.307,-0.117 -0.424,0 -0.118,0.117 -0.118,0.307 0,0.424 z"
   id="path56"
   style="fill-opacity:1;fill:#f3ede7" /><path
   class="st0"
   d="m 204.404,98.909 c -2.793,-2.793 -4.188,-6.45 -4.188,-10.111 0,-3.66 1.395,-7.318 4.188,-10.11 0.117,-0.117 0.117,-0.307 0,-0.424 -0.117,-0.117 -0.307,-0.117 -0.424,0 -2.909,2.908 -4.364,6.723 -4.364,10.535 0,3.812 1.455,7.626 4.364,10.535 0.117,0.117 0.307,0.117 0.424,0 0.117,-0.118 0.117,-0.308 0,-0.425 z"
   id="path58"
   style="fill-opacity:1;fill:#f3ede7" /><path
   class="st0"
   d="m 224.625,78.688 c 2.792,2.793 4.188,6.45 4.188,10.111 0,3.66 -1.395,7.318 -4.188,10.111 -0.117,0.117 -0.117,0.307 0,0.424 0.117,0.117 0.307,0.117 0.424,0 2.908,-2.908 4.364,-6.723 4.364,-10.535 0,-3.812 -1.455,-7.626 -4.364,-10.535 -0.117,-0.117 -0.307,-0.117 -0.424,0 -0.118,0.116 -0.118,0.306 0,0.424 z"
   id="path60"
   style="fill-opacity:1;fill:#f3ede7" /><path
   class="st0"
   d="m 203.413,21.875 c -1.583,0 -2.213,-0.686 -2.213,-2.304 v -0.434 c 0,-1.618 0.63,-2.304 2.213,-2.304 h 0.161 c 1.345,0 1.94,0.532 2.164,1.646 h -1.113 c -0.141,-0.504 -0.477,-0.701 -1.086,-0.701 h -0.091 c -0.974,0 -1.148,0.54 -1.148,1.429 v 0.294 c 0,0.89 0.175,1.429 1.148,1.429 h 0.091 c 0.609,0 0.945,-0.196 1.086,-0.7 h 1.113 c -0.224,1.113 -0.819,1.646 -2.164,1.646 h -0.161 z"
   id="path62"
   style="fill-opacity:1;fill:#f3ede7" /><polygon
   class="st0"
   points="208.151,16.903 208.151,20.867 210.477,20.867 210.477,21.806 207.066,21.806 207.066,16.903 "
   id="polygon64"
   style="fill-opacity:1;fill:#f3ede7" /><path
   class="st0"
   d="m 213.738,21.875 c -1.59,0 -2.29,-0.686 -2.29,-2.304 v -0.427 c 0,-1.618 0.7,-2.311 2.29,-2.311 h 0.091 c 1.576,0 2.283,0.693 2.283,2.311 v 0.427 c 0,1.618 -0.707,2.304 -2.283,2.304 z m 0.105,-0.945 c 0.967,-0.014 1.17,-0.525 1.17,-1.429 v -0.294 c 0,-0.889 -0.203,-1.429 -1.17,-1.429 h -0.118 c -0.974,0 -1.177,0.54 -1.177,1.429 v 0.294 c 0,0.89 0.203,1.429 1.177,1.429 z"
   id="path66"
   style="fill-opacity:1;fill:#f3ede7" /><path
   class="st0"
   d="m 219.632,21.875 c -1.582,0 -2.213,-0.686 -2.213,-2.304 v -0.434 c 0,-1.618 0.631,-2.304 2.213,-2.304 h 0.161 c 1.345,0 1.94,0.532 2.165,1.646 h -1.114 c -0.14,-0.504 -0.476,-0.701 -1.085,-0.701 h -0.092 c -0.974,0 -1.148,0.54 -1.148,1.429 v 0.294 c 0,0.89 0.175,1.429 1.148,1.429 h 0.092 c 0.609,0 0.945,-0.196 1.085,-0.7 h 1.114 c -0.225,1.113 -0.82,1.646 -2.165,1.646 h -0.161 z"
   id="path68"
   style="fill-opacity:1;fill:#f3ede7" /><polygon
   class="st0"
   points="224.37,16.903 224.37,18.99 224.412,18.99 226.465,16.903 227.823,16.903 225.869,18.857 227.879,21.806 226.556,21.806 225.092,19.648 225.043,19.648 224.37,20.328 224.37,21.806 223.285,21.806 223.285,16.903 "
   id="polygon70"
   style="fill-opacity:1;fill:#f3ede7" />
<path
   class="st0"
   d="m 207.355,66.533 h -0.521 v 1.45 h 0.556 c 0.345,0 0.485,-0.07 0.485,-0.651 v -0.14 c 0.001,-0.589 -0.146,-0.659 -0.52,-0.659 z"
   id="path74"
   style="fill-opacity:1;fill:#f3ede7" /><path
   class="st0"
   d="m 223.41,63.779 h -17.791 c -2.372,0 -4.295,1.923 -4.295,4.295 0,2.372 1.923,4.295 4.295,4.295 h 17.791 c 2.372,0 4.295,-1.923 4.295,-4.295 0,-2.372 -1.923,-4.295 -4.295,-4.295 z m -14.634,3.391 c 0,0.792 -0.189,1.008 -0.569,1.106 v 0.035 c 0.38,0.084 0.569,0.238 0.569,1.121 v 1.247 h -0.9 v -1.303 c 0,-0.602 -0.134,-0.672 -0.514,-0.672 h -0.527 v 1.975 h -0.9 v -4.903 h 1.513 c 0.936,0 1.329,0.21 1.329,1.303 v 0.091 z m 3.531,-0.609 h -1.386 v 1.268 h 1.386 v 0.792 h -1.386 v 1.274 h 1.386 v 0.785 h -2.286 v -4.903 h 2.286 z m 3.924,2.738 c 0,1.121 -0.464,1.45 -1.364,1.45 h -0.07 c -0.443,0 -0.788,-0.098 -1.021,-0.301 -0.233,-0.203 -0.358,-0.575 -0.38,-1.1 h 0.922 c 0.028,0.553 0.211,0.658 0.514,0.658 0.358,0 0.499,-0.133 0.499,-0.63 v -0.119 c 0,-0.441 -0.092,-0.581 -0.492,-0.637 l -0.352,-0.042 c -0.774,-0.098 -1.062,-0.42 -1.062,-1.352 v -0.077 c 0,-1.093 0.408,-1.443 1.337,-1.443 h 0.084 c 0.887,0 1.337,0.35 1.365,1.443 h -0.915 c -0.028,-0.582 -0.169,-0.693 -0.499,-0.693 -0.338,0 -0.465,0.14 -0.465,0.623 v 0.098 c 0,0.427 0.092,0.582 0.492,0.63 l 0.353,0.042 c 0.773,0.098 1.055,0.42 1.055,1.352 v 0.098 z m 3.446,-2.738 h -1.386 v 1.268 h 1.386 v 0.792 h -1.386 v 1.274 h 1.386 v 0.785 h -2.286 v -4.903 h 2.286 z m 3.693,0.014 h -0.914 v 4.104 h -0.908 v -4.104 h -0.893 v -0.799 h 2.715 z"
   id="path76"
   style="fill-opacity:1;fill:#f3ede7" />
<path
   d="M 181.812,347.398 H 19.418 c -1.331,0 -2.41,-1.079 -2.41,-2.41 V 19.418 c 0,-1.331 1.079,-2.41 2.41,-2.41 h 162.394 c 1.331,0 2.41,1.079 2.41,2.41 v 325.57 c 0,1.331 -1.079,2.41 -2.41,2.41 z"
   id="path80"
   style="stroke:none;fill-opacity:1;fill:#000000" />
<path
   class="st1"
   d="M 181.812,347.416 H 19.418 c -1.331,0 -2.41,-1.079 -2.41,-2.41 v 0.583 c 0,1.331 1.079,2.41 2.41,2.41 h 162.394 c 1.331,0 2.41,-1.079 2.41,-2.41 v -0.583 c 0,1.331 -1.079,2.41 -2.41,2.41 z"
   id="path82" />
<path
   class="st2"
   d="M 181.529,345.701 H 19.701 c -0.504,0 -0.912,-0.409 -0.912,-0.912 V 19.749 c 0,-0.504 0.409,-0.912 0.912,-0.912 h 161.827 c 0.504,0 0.912,0.409 0.912,0.912 v 325.039 c 0.001,0.504 -0.407,0.913 -0.911,0.913 z"
   id="path84"
   style="stroke:none;stroke-opacity:1;fill-opacity:1;fill:#1c2729" />
</svg>
