<?xml version="1.0" encoding="UTF-8" standalone="no"?>
<!-- Created with Inkscape (http://www.inkscape.org/) -->

<svg
   width="21"
   height="21"
   viewBox="0 0 7.112 7.1119999"
   version="1.1"
   id="svg5"
   inkscape:version="1.2.2 (732a01da63, 2022-12-09)"
   sodipodi:docname="2.svg"
   xmlns:inkscape="http://www.inkscape.org/namespaces/inkscape"
   xmlns:sodipodi="http://sodipodi.sourceforge.net/DTD/sodipodi-0.dtd"
   xmlns="http://www.w3.org/2000/svg"
   xmlns:svg="http://www.w3.org/2000/svg">
  <sodipodi:namedview
     id="namedview7"
     pagecolor="#ffffff"
     bordercolor="#000000"
     borderopacity="0.25"
     inkscape:showpageshadow="2"
     inkscape:pageopacity="0.0"
     inkscape:pagecheckerboard="0"
     inkscape:deskcolor="#d1d1d1"
     inkscape:document-units="mm"
     showgrid="false"
     inkscape:zoom="16"
     inkscape:cx="21.0625"
     inkscape:cy="-5.75"
     inkscape:window-width="3840"
     inkscape:window-height="2066"
     inkscape:window-x="2869"
     inkscape:window-y="-11"
     inkscape:window-maximized="1"
     inkscape:current-layer="layer1" />
  <defs
     id="defs2">
    <rect
       x="-3.625"
       y="-34.375"
       width="26.4375"
       height="24.75"
       id="rect9729" />
    <rect
       x="-1.0625"
       y="-37.875"
       width="32.375"
       height="30.5"
       id="rect9692" />
    <rect
       x="0.9375"
       y="-32.3125"
       width="26.25"
       height="21.1875"
       id="rect9627" />
    <rect
       x="-6.6875"
       y="-38.5"
       width="33.8125"
       height="30.25"
       id="rect9564" />
    <rect
       x="0.6875"
       y="-32.4375"
       width="25.25"
       height="26.75"
       id="rect9530" />
    <rect
       x="0.5625"
       y="-30.3125"
       width="22.625"
       height="22.0625"
       id="rect9466" />
    <rect
       x="-2.625"
       y="-34.3125"
       width="29.875"
       height="22.25"
       id="rect9434" />
    <rect
       x="-5.4375"
       y="-29.375"
       width="31.625"
       height="21.0625"
       id="rect9376" />
    <rect
       x="-4.6875"
       y="-33"
       width="29.6875"
       height="27.0625"
       id="rect9320" />
    <rect
       x="-4"
       y="-30.9375"
       width="32.8125"
       height="23.375"
       id="rect9288" />
    <rect
       x="-2.375"
       y="-31.0625"
       width="30.3125"
       height="22.75"
       id="rect9236" />
    <rect
       x="-2.375"
       y="-27.875"
       width="31.5"
       height="24.75"
       id="rect9186" />
    <rect
       x="-1.5"
       y="-29.1875"
       width="26.125"
       height="23.9375"
       id="rect9138" />
    <rect
       x="49"
       y="-212"
       width="273"
       height="179"
       id="rect9110" />
    <rect
       x="-17.766058"
       y="-25.367456"
       width="54.31464"
       height="23.555494"
       id="rect9104" />
    <rect
       x="-25.784372"
       y="-5.163537"
       width="36.211388"
       height="29.981829"
       id="rect9098" />
    <rect
       x="2.998183"
       y="3.0648091"
       width="19.72138"
       height="16.723198"
       id="rect2327" />
    <rect
       x="8.1032467"
       y="44.756306"
       width="47.394569"
       height="63.977959"
       id="rect1466" />
  </defs>
  <g
     inkscape:label="Layer 1"
     inkscape:groupmode="layer"
     id="layer1">
    <text
       xml:space="preserve"
       transform="scale(0.26458333)"
       id="text2325"
       style="font-size:13.3333px;font-family:sans-serif;-inkscape-font-specification:sans-serif;white-space:pre;shape-inside:url(#rect2327);display:inline;fill:#000000;fill-opacity:1;stroke:none;stroke-width:0.755906" />
    <text
       xml:space="preserve"
       transform="scale(0.26458333)"
       id="text9096"
       style="font-size:18.6667px;font-family:sans-serif;-inkscape-font-specification:'sans-serif, Normal';white-space:pre;shape-inside:url(#rect9098);display:inline;fill:#000000;stroke:#a7a7a7;stroke-width:0.755906" />
    <text
       xml:space="preserve"
       transform="scale(0.26458333)"
       id="text9102"
       style="font-size:18.6667px;font-family:sans-serif;-inkscape-font-specification:'sans-serif, Normal';white-space:pre;shape-inside:url(#rect9104);display:inline;fill:#000000;stroke:#a7a7a7;stroke-width:0.755906" />
    <g
       aria-label="2"
       transform="matrix(0.26458333,0,0,0.26458333,2.9114197,9.9779399)"
       id="text9727"
       style="font-size:18.6667px;-inkscape-font-specification:'sans-serif, Normal';white-space:pre;shape-inside:url(#rect9729);fill:#ffd714;fill-opacity:1;stroke-width:0.755906">
      <path
         d="m 7.0299672,-17.344803 h -9.1875166 v -1.904952 q 0.9570329,-0.820314 1.91406592,-1.640628 0.96614758,-0.820314 1.79557618,-1.631513 1.7500031,-1.695316 2.3971397,-2.688807 0.6471366,-1.002606 0.6471366,-2.16016 0,-1.057294 -0.7018242,-1.649743 -0.6927096,-0.601563 -1.9414097,-0.601563 -0.8294286,0 -1.79557619,0.291667 -0.96614758,0.291667 -1.88672211,0.893231 h -0.091146 v -1.914066 q 0.6471365,-0.319011 1.72265932,-0.583335 1.08463737,-0.264323 2.09635798,-0.264323 2.0872433,0 3.2721413,1.011721 1.184898,1.002606 1.184898,2.725265 0,0.774741 -0.2005212,1.449221 -0.1914066,0.665366 -0.5742198,1.26693 -0.3554694,0.565105 -0.8385432,1.111981 -0.4739592,0.546876 -1.1575542,1.212242 -0.9752621,0.957033 -2.0143265,1.859378 -1.0390644,0.893231 -1.94140978,1.658857 H 7.0299672 Z"
         id="path9733"
         style="fill:#ffd714;fill-opacity:1" />
    </g>
  </g>
</svg>
