<?xml version="1.0" encoding="UTF-8" standalone="no"?>
<!-- Created with Inkscape (http://www.inkscape.org/) -->

<svg
   width="21"
   height="21"
   viewBox="0 0 7.1120001 7.1119999"
   version="1.1"
   id="svg5"
   inkscape:version="1.2.2 (732a01da63, 2022-12-09)"
   sodipodi:docname="6.svg"
   xmlns:inkscape="http://www.inkscape.org/namespaces/inkscape"
   xmlns:sodipodi="http://sodipodi.sourceforge.net/DTD/sodipodi-0.dtd"
   xmlns="http://www.w3.org/2000/svg"
   xmlns:svg="http://www.w3.org/2000/svg">
  <sodipodi:namedview
     id="namedview7"
     pagecolor="#ffffff"
     bordercolor="#000000"
     borderopacity="0.25"
     inkscape:showpageshadow="2"
     inkscape:pageopacity="0.0"
     inkscape:pagecheckerboard="0"
     inkscape:deskcolor="#d1d1d1"
     inkscape:document-units="mm"
     showgrid="false"
     inkscape:zoom="16"
     inkscape:cx="21.0625"
     inkscape:cy="-5.75"
     inkscape:window-width="3840"
     inkscape:window-height="2066"
     inkscape:window-x="2869"
     inkscape:window-y="-11"
     inkscape:window-maximized="1"
     inkscape:current-layer="layer1" />
  <defs
     id="defs2">
    <rect
       x="0.6875"
       y="-32.4375"
       width="25.25"
       height="26.75"
       id="rect9530" />
    <rect
       x="0.5625"
       y="-30.3125"
       width="22.625"
       height="22.0625"
       id="rect9466" />
    <rect
       x="-2.625"
       y="-34.3125"
       width="29.875"
       height="22.25"
       id="rect9434" />
    <rect
       x="-5.4375"
       y="-29.375"
       width="31.625"
       height="21.0625"
       id="rect9376" />
    <rect
       x="-4.6875"
       y="-33"
       width="29.6875"
       height="27.0625"
       id="rect9320" />
    <rect
       x="-4"
       y="-30.9375"
       width="32.8125"
       height="23.375"
       id="rect9288" />
    <rect
       x="-2.375"
       y="-31.0625"
       width="30.3125"
       height="22.75"
       id="rect9236" />
    <rect
       x="-2.375"
       y="-27.875"
       width="31.5"
       height="24.75"
       id="rect9186" />
    <rect
       x="-1.5"
       y="-29.1875"
       width="26.125"
       height="23.9375"
       id="rect9138" />
    <rect
       x="49"
       y="-212"
       width="273"
       height="179"
       id="rect9110" />
    <rect
       x="-17.766058"
       y="-25.367456"
       width="54.31464"
       height="23.555494"
       id="rect9104" />
    <rect
       x="-25.784372"
       y="-5.163537"
       width="36.211388"
       height="29.981829"
       id="rect9098" />
    <rect
       x="2.998183"
       y="3.0648091"
       width="19.72138"
       height="16.723198"
       id="rect2327" />
    <rect
       x="8.1032467"
       y="44.756306"
       width="47.394569"
       height="63.977959"
       id="rect1466" />
  </defs>
  <g
     inkscape:label="Layer 1"
     inkscape:groupmode="layer"
     id="layer1">
    <text
       xml:space="preserve"
       transform="scale(0.26458333)"
       id="text2325"
       style="font-size:13.3333px;font-family:sans-serif;-inkscape-font-specification:sans-serif;white-space:pre;shape-inside:url(#rect2327);display:inline;fill:#000000;fill-opacity:1;stroke:none;stroke-width:0.755906" />
    <text
       xml:space="preserve"
       transform="scale(0.26458333)"
       id="text9096"
       style="font-size:18.6667px;font-family:sans-serif;-inkscape-font-specification:'sans-serif, Normal';white-space:pre;shape-inside:url(#rect9098);display:inline;fill:#000000;stroke:#a7a7a7;stroke-width:0.755906" />
    <text
       xml:space="preserve"
       transform="scale(0.26458333)"
       id="text9102"
       style="font-size:18.6667px;font-family:sans-serif;-inkscape-font-specification:'sans-serif, Normal';white-space:pre;shape-inside:url(#rect9104);display:inline;fill:#000000;stroke:#a7a7a7;stroke-width:0.755906" />
    <g
       aria-label="6"
       transform="matrix(0.26458333,0,0,0.26458333,1.7728158,9.424313)"
       id="text9528"
       style="font-size:18.6667px;-inkscape-font-specification:'sans-serif, Normal';white-space:pre;shape-inside:url(#rect9530);fill:#ffd714;fill-opacity:1;stroke-width:0.755906">
      <path
         d="m 11.542988,-19.809655 q 0,2.069014 -1.36719,3.381516 -1.358075,1.303388 -3.3359431,1.303388 -1.002606,0 -1.82292,-0.309896 -0.820314,-0.309897 -1.4492214,-0.920575 -0.7838555,-0.756512 -1.2122417,-2.005212 -0.4192716,-1.2487 -0.4192716,-3.007818 0,-1.80469 0.3828132,-3.199224 0.3919278,-1.394534 1.2395855,-2.479171 0.8020848,-1.02995 2.0690142,-1.60417 1.2669294,-0.583334 2.9531303,-0.583334 0.5377614,0 0.9023454,0.04557 0.364584,0.04557 0.7382822,0.164063 v 1.740888 h -0.09115 q -0.2552084,-0.136719 -0.7747406,-0.255209 -0.5104176,-0.127604 -1.048179,-0.127604 -1.9596389,0 -3.1263077,1.230471 -1.1666688,1.221356 -1.3580754,3.3086 0.7656264,-0.464845 1.503909,-0.701825 0.7473972,-0.246094 1.7226594,-0.246094 0.8658869,0 1.5221381,0.164063 0.6653658,0.154948 1.3580754,0.638022 0.8020848,0.555991 1.2031268,1.403648 0.410157,0.847658 0.410157,2.0599 z m -1.8502634,0.07292 q 0,-0.847658 -0.2552088,-1.403649 -0.2460942,-0.55599 -0.820314,-0.966147 -0.4192716,-0.291667 -0.9296892,-0.382813 -0.5104176,-0.09115 -1.0664081,-0.09115 -0.774741,0 -1.4401068,0.182292 -0.6653658,0.182292 -1.36719,0.565105 -0.018229,0.200521 -0.027344,0.391928 -0.00911,0.182292 -0.00911,0.464844 0,1.440107 0.2916672,2.27865 0.3007818,0.829429 0.820314,1.312503 0.4192716,0.401042 0.9023454,0.592448 0.4921884,0.182292 1.0664082,0.182292 1.3216169,0 2.0781287,-0.802084 0.7565118,-0.8112 0.7565118,-2.324223 z"
         id="path9534"
         style="fill:#ffd714;fill-opacity:1" />
    </g>
  </g>
</svg>
