<?xml version="1.0" encoding="UTF-8" standalone="no"?>
<!-- Generator: Adobe Illustrator 26.1.0, SVG Export Plug-In . SVG Version: 6.00 Build 0)  -->

<svg
   version="1.1"
   id="Ebene_2"
   x="0px"
   y="0px"
   width="355.60001mm"
   height="128.5mm"
   viewBox="0 0 1008 364.252"
   xml:space="preserve"
   sodipodi:docname="typography.svg"
   inkscape:version="1.2.1 (9c6d41e410, 2022-07-14)"
   xmlns:inkscape="http://www.inkscape.org/namespaces/inkscape"
   xmlns:sodipodi="http://sodipodi.sourceforge.net/DTD/sodipodi-0.dtd"
   xmlns="http://www.w3.org/2000/svg"
   xmlns:svg="http://www.w3.org/2000/svg"><defs
   id="defs63" /><sodipodi:namedview
   id="namedview61"
   pagecolor="#ffffff"
   bordercolor="#666666"
   borderopacity="1.0"
   inkscape:pageshadow="2"
   inkscape:pageopacity="0.0"
   inkscape:pagecheckerboard="0"
   showgrid="false"
   inkscape:zoom="2.3966923"
   inkscape:cx="624.1936"
   inkscape:cy="159.38633"
   inkscape:window-width="3840"
   inkscape:window-height="2066"
   inkscape:window-x="2869"
   inkscape:window-y="-11"
   inkscape:window-maximized="1"
   inkscape:current-layer="Ebene_2"
   inkscape:showpageshadow="2"
   inkscape:deskcolor="#d1d1d1"
   inkscape:document-units="mm"
   showguides="true"><sodipodi:guide
     position="729.36006,456.37897"
     orientation="-1,0"
     id="guide4271"
     inkscape:locked="false"
     inkscape:label=""
     inkscape:color="rgb(0,134,229)" /></sodipodi:namedview>
<style
   type="text/css"
   id="style2">
	.st0{fill:#F3EDE7;}
</style>

<g
   id="g3428"
   transform="matrix(1.1666819,0,0,1,23.779277,4.0555621)"
   style="stroke-width:0.925814"><path
     d="m 601.93623,168.66339 h -492.493 c -1.331,0 -2.41,-1.079 -2.41,-2.41 V 13.279408 c 0,-1.331 1.079,-2.41 2.41,-2.41 h 492.494 c 1.331,0 2.41,1.079 2.41,2.41 V 166.25339 c -10e-4,1.33 -1.08,2.41 -2.411,2.41"
     id="path64"
     style="stroke:#000000;stroke-width:0.925814;stroke-opacity:1"
     sodipodi:nodetypes="csssssscc" /><path
     class="st3"
     d="m 601.65323,166.96639 h -491.927 c -0.504,0 -0.912,-0.409 -0.912,-0.913 V 13.610408 c 0,-0.504 0.409,-0.912 0.912,-0.912 h 491.927 c 0.504,0 0.912,0.409 0.912,0.912 V 166.05339 c 0,0.504 -0.408,0.913 -0.912,0.913 z"
     id="path68"
     style="fill:#131b1e;fill-opacity:1;stroke:#000000;stroke-width:0.925814;stroke-opacity:1"
     sodipodi:nodetypes="sssssssss" /></g></svg>
