<?xml version="1.0" encoding="UTF-8" standalone="no"?>
<!-- Generator: Adobe Illustrator 26.1.0, SVG Export Plug-In . SVG Version: 6.00 Build 0)  -->

<svg
   version="1.1"
   id="Ebene_2"
   x="0px"
   y="0px"
   width="101.6mm"
   height="128.5mm"
   viewBox="0 0 288 364.252"
   style="enable-background:new 0 0 288 364.252;"
   xml:space="preserve"
   sodipodi:docname="grain_engine_typography.svg"
   inkscape:version="1.1.1 (3bf5ae0d25, 2021-09-20)"
   xmlns:inkscape="http://www.inkscape.org/namespaces/inkscape"
   xmlns:sodipodi="http://sodipodi.sourceforge.net/DTD/sodipodi-0.dtd"
   xmlns="http://www.w3.org/2000/svg"
   xmlns:svg="http://www.w3.org/2000/svg"><defs
   id="defs157" /><sodipodi:namedview
   id="namedview155"
   pagecolor="#ffffff"
   bordercolor="#666666"
   borderopacity="1.0"
   inkscape:pageshadow="2"
   inkscape:pageopacity="0.0"
   inkscape:pagecheckerboard="0"
   showgrid="false"
   inkscape:zoom="3.3894348"
   inkscape:cx="115.35847"
   inkscape:cy="196.1979"
   inkscape:window-width="2880"
   inkscape:window-height="1526"
   inkscape:window-x="-11"
   inkscape:window-y="1138"
   inkscape:window-maximized="1"
   inkscape:current-layer="Ebene_2"
   inkscape:document-units="mm" />
<style
   type="text/css"
   id="style2">
	.st0{fill:#F3EDE7;}
	.st1{opacity:0.3;fill:#FBFAF8;}
	.st2{fill:#FFFFFF;}
</style>
<path
   class="st0"
   d="M141.641,13.427h0.384c0.112,0,0.169-0.067,0.169-0.168V9.676c0-0.101,0.067-0.168,0.169-0.168h1.015  c0.102,0,0.181,0.067,0.181,0.168v3.583c0,0.101,0.068,0.168,0.169,0.168h0.373c0.112,0,0.169-0.067,0.169-0.168V5.172  c0-0.101-0.068-0.168-0.169-0.168h-0.373c-0.112,0-0.169,0.067-0.169,0.168v3.481c0,0.101-0.079,0.168-0.181,0.168h-1.015  c-0.102,0-0.169-0.067-0.169-0.168V5.172c0-0.101-0.067-0.168-0.169-0.168h-0.384c-0.112,0-0.169,0.067-0.169,0.168v8.086  C141.472,13.359,141.539,13.427,141.641,13.427z M136.621,11.787c0,1.033,0.462,1.696,1.33,1.696c0.88,0,1.342-0.674,1.342-1.696  V10.9c0-0.101-0.067-0.168-0.169-0.168h-0.384c-0.102,0-0.169,0.067-0.169,0.168v0.674c0,0.831-0.146,1.224-0.62,1.224  s-0.608-0.393-0.608-1.224V6.857c0-0.831,0.135-1.224,0.608-1.224s0.62,0.393,0.62,1.224v0.674c0,0.101,0.067,0.168,0.169,0.168  h0.384c0.102,0,0.169-0.067,0.169-0.168V6.644c0-1.022-0.462-1.696-1.342-1.696c-0.868,0-1.33,0.663-1.33,1.696V11.787z   M132.536,5.521c0,0.112,0.067,0.168,0.169,0.168h0.439c0.102,0,0.169,0.067,0.169,0.168v7.401c0,0.101,0.068,0.168,0.17,0.168  h0.372c0.112,0,0.169-0.067,0.169-0.168V5.857c0-0.101,0.067-0.168,0.169-0.168h0.462c0.102,0,0.17-0.067,0.17-0.168V5.172  c0-0.112-0.068-0.168-0.17-0.168h-1.95c-0.102,0-0.169,0.067-0.169,0.168V5.521z M130.076,13.427h0.384  c0.112,0,0.169-0.067,0.169-0.168V5.172c0-0.101-0.067-0.168-0.169-0.168h-0.384c-0.112,0-0.169,0.067-0.169,0.168v8.086  C129.907,13.359,129.975,13.427,130.076,13.427z M126.015,13.258c0,0.101,0.067,0.168,0.169,0.168h1.646  c0.102,0,0.169-0.067,0.169-0.168v-0.314c0-0.101-0.067-0.168-0.169-0.168h-0.925c-0.102,0-0.169-0.067-0.169-0.168V5.172  c0-0.101-0.067-0.168-0.169-0.168h-0.384c-0.112,0-0.169,0.067-0.169,0.168V13.258z M121.141,11.787c0,1.033,0.462,1.696,1.33,1.696  c0.88,0,1.319-0.674,1.319-1.696V9.384c0-0.101-0.067-0.168-0.169-0.168h-0.981c-0.102,0-0.169,0.067-0.169,0.168v0.337  c0,0.112,0.067,0.168,0.169,0.168h0.282c0.102,0,0.169,0.067,0.169,0.168v1.516c0,0.831-0.146,1.224-0.62,1.224  s-0.608-0.393-0.608-1.224V6.857c0-0.831,0.135-1.224,0.608-1.224s0.62,0.393,0.62,1.224v0.674c0,0.101,0.067,0.168,0.169,0.168  h0.361c0.102,0,0.169-0.067,0.169-0.168V6.644c0-1.022-0.439-1.696-1.319-1.696c-0.868,0-1.33,0.663-1.33,1.696V11.787z   M116.808,13.427h0.451c0.079,0,0.146-0.067,0.169-0.168l0.598-2.684h0.091l0.586,2.684c0.022,0.101,0.102,0.168,0.181,0.168h0.439  c0.079,0,0.136-0.067,0.113-0.168l-0.97-3.976l0.011-0.135l0.959-3.976c0.022-0.101-0.034-0.168-0.113-0.168h-0.439  c-0.079,0-0.146,0.067-0.169,0.168l-0.598,2.695h-0.091l-0.598-2.695c-0.022-0.101-0.09-0.168-0.169-0.168h-0.451  c-0.067,0-0.135,0.067-0.112,0.168l0.97,3.976v0.135l-0.97,3.976C116.673,13.359,116.74,13.427,116.808,13.427z M112.926,11.574  V6.857c0-0.831,0.135-1.224,0.609-1.224c0.485,0,0.62,0.393,0.62,1.224v4.717c0,0.831-0.135,1.224-0.62,1.224  C113.061,12.798,112.926,12.405,112.926,11.574z M112.204,11.787c0,1.033,0.462,1.696,1.331,1.696c0.88,0,1.342-0.663,1.342-1.696  V6.644c0-1.033-0.462-1.696-1.342-1.696c-0.868,0-1.331,0.663-1.331,1.696V11.787z M108.841,13.427h0.406  c0.113,0,0.169-0.056,0.191-0.213l1.128-8.007c0.022-0.168-0.068-0.202-0.169-0.202h-0.35c-0.124,0-0.191,0.034-0.203,0.18  l-0.744,6.098h-0.113l-0.745-6.098c-0.011-0.146-0.079-0.18-0.203-0.18h-0.35c-0.102,0-0.192,0.034-0.169,0.202l1.128,8.007  C108.672,13.371,108.729,13.427,108.841,13.427z"
   id="path4"
   style="fill-opacity:1;fill:#f3ede7;stroke:none" />
<path
   class="st0"
   d="M200.37,5.167v8.018h-51.937V5.167H200.37 M200.37,4.667h-51.937c-0.276,0-0.5,0.224-0.5,0.5v8.018  c0,0.276,0.224,0.5,0.5,0.5h51.937c0.276,0,0.5-0.224,0.5-0.5V5.167C200.87,4.891,200.646,4.667,200.37,4.667z"
   id="path6"
   style="fill-opacity:1;fill:#f3ede7;stroke:none" />
<path
   class="st0"
   d="M186.47,10.641h-1.181V9.549h1.181V8.872h-1.181V7.787h1.181V7.115h-1.948v4.198h1.948V10.641z M183.427,7.115  h-0.707v2.836h-0.03l-0.923-2.836h-1.014v4.198h0.707V8.476h0.03l0.924,2.836h1.013V7.115z M179.662,7.115h-0.768v4.198h0.768V7.115  z M176.606,11.373c0.882,0,1.235-0.348,1.235-1.559V8.89h-1.312v0.672h0.545v0.39c0,0.618-0.107,0.768-0.468,0.768h-0.054  c-0.197,0-0.323-0.06-0.39-0.18c-0.06-0.126-0.09-0.348-0.09-0.666V8.566c0-0.324,0.03-0.545,0.09-0.666  c0.066-0.126,0.192-0.186,0.39-0.186h0.042c0.294,0,0.42,0.132,0.45,0.612h0.785c-0.048-0.965-0.438-1.271-1.224-1.271h-0.065  c-0.882,0-1.241,0.348-1.241,1.565v1.193c0,1.211,0.359,1.559,1.241,1.559H176.606z M174.248,7.115h-0.707v2.836h-0.03l-0.923-2.836  h-1.014v4.198h0.707V8.476h0.03l0.924,2.836h1.013V7.115z M170.54,10.641h-1.181V9.549h1.181V8.872h-1.181V7.787h1.181V7.115h-1.948  v4.198h1.948V10.641z M166.022,7.115h-0.707v2.836h-0.03l-0.923-2.836h-1.014v4.198h0.707V8.476h0.03l0.924,2.836h1.013V7.115z   M162.255,7.115h-0.768v4.198h0.768V7.115z M159.111,7.918l0.336,1.829h-0.702l0.336-1.829H159.111z M159.674,7.115h-1.133  l-0.894,4.198h0.797l0.168-0.899h0.966l0.174,0.899h0.815L159.674,7.115z M155.546,7.763c0.318,0,0.444,0.06,0.444,0.563v0.12  c0,0.498-0.12,0.558-0.414,0.558h-0.474V7.763H155.546z M155.103,9.622h0.449c0.324,0,0.438,0.06,0.438,0.576v1.115h0.768v-1.067  c0-0.756-0.162-0.888-0.486-0.959v-0.03c0.324-0.084,0.486-0.27,0.486-0.948V8.23c0-0.935-0.336-1.115-1.134-1.115h-1.289v4.198  h0.768V9.622z M152.048,11.373c0.882,0,1.235-0.348,1.235-1.559V8.89h-1.312v0.672h0.545v0.39c0,0.618-0.107,0.768-0.468,0.768  h-0.054c-0.197,0-0.323-0.06-0.39-0.18c-0.06-0.126-0.09-0.348-0.09-0.666V8.566c0-0.324,0.03-0.545,0.09-0.666  c0.066-0.126,0.192-0.186,0.39-0.186h0.042c0.294,0,0.42,0.132,0.45,0.612h0.785c-0.048-0.965-0.438-1.271-1.224-1.271h-0.065  c-0.882,0-1.241,0.348-1.241,1.565v1.193c0,1.211,0.359,1.559,1.241,1.559H152.048z"
   id="path8"
   style="fill-opacity:1;fill:#f3ede7;stroke:none" />
<path
   class="st0"
   d="M189.121,4.89v8.771h11.364V4.89H189.121z M194.233,11.312h-0.66V8.038h-0.029l-0.486,3.274h-0.546  l-0.491-3.274h-0.03v3.274h-0.653V7.115h1.109l0.348,2.567h0.03l0.348-2.567h1.062V11.312z M196.028,11.312l-0.438-1.631h-0.024  l-0.216,0.54v1.091h-0.695V7.115h0.695V9.01h0.024l0.653-1.895h0.731l-0.689,1.721l0.708,2.477H196.028z M198.86,8.056  c0,0.558-0.072,0.768-0.414,1.182l-0.521,0.611c-0.192,0.24-0.246,0.378-0.246,0.798v0.084h1.182v0.582h-1.841v-0.624  c0-0.606,0.06-0.816,0.407-1.229l0.492-0.576c0.246-0.282,0.275-0.384,0.275-0.755V8.086c0-0.366-0.048-0.468-0.258-0.468  c-0.191,0-0.258,0.078-0.258,0.666h-0.659c0-1.007,0.233-1.229,0.894-1.229h0.054c0.665,0,0.894,0.288,0.894,0.954V8.056z"
   id="path10"
   style="fill-opacity:1;fill:#f3ede7;stroke:none" />
<path
   class="st0"
   d="M103.099,4.265L96.885,3.77c-0.115-0.009-0.216,0.074-0.229,0.189l-0.252,2.174l1.058,0.32l-1.834,2.955  l-1.834-2.955l1.058-0.32l-0.254-2.176c-0.013-0.115-0.115-0.198-0.229-0.189l-6.23,0.497c-0.196,0.016-0.364,0.148-0.425,0.336  l-1.043,3.223c-0.053,0.163-0.017,0.342,0.095,0.471l5.492,6.364c0.092,0.107,0.227,0.169,0.368,0.169h5.986  c0.141,0,0.276-0.062,0.368-0.169l5.494-6.364c0.112-0.13,0.148-0.308,0.095-0.471l-1.046-3.222  C103.463,4.413,103.295,4.281,103.099,4.265z M97.642,12.873h-4.045c-0.15,0-0.293-0.07-0.385-0.189L89.385,7.73  c-0.083-0.107-0.118-0.245-0.096-0.379l0.158-0.97c0.023-0.141,0.16-0.232,0.298-0.198l0.953,0.234  c0.131,0.032,0.243,0.118,0.309,0.236l2.789,5.011l0.213,0.125h3.237l0.213-0.126l2.772-5.009c0.066-0.119,0.179-0.205,0.311-0.238  l0.952-0.232c0.138-0.034,0.275,0.057,0.298,0.198l0.159,0.967c0.022,0.134-0.013,0.272-0.096,0.379l-3.829,4.953  C97.935,12.803,97.793,12.873,97.642,12.873z"
   id="path12"
   style="fill-opacity:1;fill:#f3ede7;stroke:none" />
<path
   class="st0"
   d="M6.395,18.941h275.211c0.138,0,0.25-0.112,0.25-0.25c0-0.138-0.112-0.25-0.25-0.25H6.395  c-0.138,0-0.25,0.112-0.25,0.25C6.145,18.829,6.257,18.941,6.395,18.941"
   id="path14"
   style="fill-opacity:1;fill:#f3ede7;stroke:none" />
<path
   class="st0"
   d="M249.434,70.849h44.898c0.138,0,0.25-0.112,0.25-0.25c0-0.138-0.112-0.25-0.25-0.25h-44.898  c-0.138,0-0.25,0.112-0.25,0.25C249.184,70.737,249.296,70.849,249.434,70.849"
   id="path16"
   style="fill-opacity:1;fill:#f3ede7;stroke:none" />
<path
   class="st0"
   d="M250.165,74.424h44.167c0.138,0,0.25-0.112,0.25-0.25c0-0.138-0.112-0.25-0.25-0.25h-44.167  c-0.138,0-0.25,0.112-0.25,0.25C249.915,74.312,250.027,74.424,250.165,74.424"
   id="path18"
   style="fill-opacity:1;fill:#f3ede7;stroke:none" />
<path
   class="st0"
   d="M251.082,77.999h43.25c0.138,0,0.25-0.112,0.25-0.25c0-0.138-0.112-0.25-0.25-0.25h-43.25  c-0.138,0-0.25,0.112-0.25,0.25C250.832,77.887,250.944,77.999,251.082,77.999"
   id="path20"
   style="fill-opacity:1;fill:#f3ede7;stroke:none" />
<path
   class="st0"
   d="M158.333,35.881h78.496c2.527,0,4.719,1.747,5.283,4.211l15.407,67.351c0.094,0.411,0.139,0.82,0.139,1.22  c0,1.453-0.59,2.805-1.564,3.795c-0.974,0.989-2.327,1.613-3.858,1.613H110.641c-1.497,0-2.851-0.606-3.832-1.587  c-0.981-0.981-1.587-2.335-1.587-3.832V41.3c0-1.497,0.606-2.851,1.587-3.832c0.981-0.981,2.335-1.587,3.832-1.587h18.41v-0.5  l-18.41,0c-3.269,0-5.919,2.65-5.919,5.919v67.351c0,3.269,2.65,5.919,5.919,5.919h141.595c3.342-0.001,5.916-2.728,5.922-5.907  c0-0.438-0.049-0.884-0.151-1.332L242.599,39.98c-0.616-2.691-3.01-4.599-5.77-4.599h-78.496V35.881L158.333,35.881z"
   id="path22"
   style="fill-opacity:1;fill:#f3ede7;stroke:none" />
<path
   class="st0"
   d="M88.211,35.881h3.307c1.497,0,2.851,0.606,3.832,1.587c0.981,0.981,1.587,2.335,1.587,3.832v67.351  c0,1.497-0.606,2.851-1.587,3.832c-0.981,0.981-2.335,1.587-3.832,1.587H34.778c-1.531,0-2.884-0.624-3.858-1.613  c-0.974-0.989-1.564-2.341-1.564-3.795c0-0.401,0.045-0.809,0.139-1.22l15.407-67.351c0.564-2.464,2.755-4.211,5.283-4.211h6.774  v-0.5l-6.774,0c-2.761,0-5.155,1.908-5.77,4.599l-15.407,67.351c-0.102,0.448-0.151,0.894-0.151,1.332  c0.006,3.179,2.58,5.906,5.922,5.907h56.741c3.269,0,5.919-2.65,5.919-5.919V41.3c0-3.269-2.65-5.919-5.919-5.919h-3.307V35.881  L88.211,35.881z"
   id="path24"
   style="fill-opacity:1;fill:#f3ede7;stroke:none" />
<path
   class="st0"
   d="M152.404,35.931c2.255,0,3.222-0.35,3.222-1.695V34.18c0-0.903-0.462-1.239-2.143-1.31l-2.248-0.07  c-0.498-0.021-0.609-0.126-0.609-0.35v-0.014c0-0.308,0.259-0.434,1.457-0.434c1.037,0,1.457,0.098,1.59,0.434h1.87  c-0.259-1.338-1.59-1.548-3.201-1.548h-0.35c-2.22,0-3.138,0.364-3.138,1.597v0.07c0,0.931,0.476,1.295,2.143,1.352l2.27,0.077  c0.483,0.021,0.609,0.119,0.609,0.343v0.035c-0.014,0.364-0.357,0.456-1.597,0.456c-1.163,0-1.59-0.07-1.73-0.371h-1.863  c0.245,1.289,1.59,1.484,3.222,1.484H152.404z M143.486,34.712c-1.583,0-1.821-0.322-1.821-1.219v-0.161  c0-0.911,0.238-1.226,1.821-1.226h0.231c1.583,0,1.828,0.315,1.828,1.226v0.161c0,0.896-0.245,1.219-1.828,1.219H143.486z   M143.976,35.931c2.416,0,3.341-0.567,3.341-2.367v-0.308c0-1.8-0.925-2.367-3.341-2.367h-0.75c-2.417,0-3.334,0.567-3.334,2.367  v0.308c0,1.8,0.917,2.367,3.334,2.367H143.976z M135.947,32.114c0.784,0,0.945,0.14,0.945,0.567v0.063  c0,0.42-0.147,0.561-0.938,0.561h-2.36v-1.191H135.947z M133.594,34.467h2.62c1.765,0,2.416-0.519,2.416-1.688v-0.098  c0-1.317-0.686-1.723-2.416-1.723h-4.356v4.903h1.737V34.467z"
   id="path26"
   style="fill-opacity:1;fill:#f3ede7;stroke:none" />
<polyline
   class="st0"
   points="174.84,74.444 218.416,74.444 218.416,73.944 174.84,73.944 "
   id="polyline28"
   style="fill-opacity:1;fill:#f3ede7;stroke:none" />
<circle
   class="st0"
   cx="218.549"
   cy="74.194"
   r="2.458"
   id="circle30"
   style="fill-opacity:1;fill:#f3ede7;stroke:none" />
<path
   class="st0"
   d="M83.59,32.036c0.616,0,0.812,0.154,0.812,0.651v0.042c0,0.469-0.196,0.623-0.701,0.623h-1.324v-1.316H83.59z   M82.378,34.249h1.205c0.645,0,0.82,0.119,0.82,0.672v1.114h1.085v-1.184c0-0.854-0.231-1.03-0.75-1.114v-0.049  c0.525-0.084,0.75-0.406,0.75-1.135v-0.126c0-0.953-0.448-1.296-1.667-1.296h-2.528v4.903h1.085V34.249z M79.775,35.125h-2.563  v-1.092h2.563v-0.904h-2.563v-1.085h2.563v-0.911h-3.649v4.903h3.649V35.125z M73.286,32.071h1.513v-0.938h-4.097v0.938h1.492v3.964  h1.093V32.071z M68.085,32.071h1.513v-0.938H65.5v0.938h1.492v3.964h1.093V32.071z M64.171,31.132h-1.085v4.903h1.085V31.132z   M59.656,36.035c1.506,0,1.884-0.511,1.884-2.003v-2.9h-1.1v2.963c0,0.812-0.196,1.001-1.1,1.001h-0.469v0.938H59.656z"
   id="path32"
   style="fill-opacity:1;fill:#f3ede7;stroke:none" />
<path
   class="st0"
   d="M45.924,302.862l0.672-0.679h0.049l1.463,2.157h1.324l-2.01-2.949l1.954-1.954h-1.359l-2.052,2.087h-0.042  v-2.087h-1.085v4.903h1.085V302.862z M43.461,303.402h-2.325v-3.964H40.05v4.903h3.411V303.402z M36.418,304.41  c1.345,0,1.94-0.532,2.165-1.646h-1.114c-0.14,0.504-0.477,0.7-1.085,0.7h-0.091c-0.974,0-1.148-0.539-1.148-1.429v-0.294  c0-0.889,0.175-1.429,1.148-1.429h0.091c0.609,0,0.945,0.196,1.085,0.701h1.114c-0.224-1.114-0.82-1.646-2.165-1.646h-0.161  c-1.583,0-2.213,0.687-2.213,2.304v0.434c0,1.618,0.63,2.304,2.213,2.304H36.418z M29.02,300.376h1.513v-0.938h-4.097v0.938h1.492  v3.964h1.093V300.376z M23.763,301.833l1.611-2.396h-1.232l-1.064,1.618h-0.035l-1.043-1.618h-1.317l1.597,2.375l-1.681,2.528h1.232  l1.142-1.751h0.035l1.114,1.751h1.324L23.763,301.833z M19.367,303.43h-2.563v-1.092h2.563v-0.904h-2.563v-1.085h2.563v-0.911  h-3.649v4.903h3.649V303.43z"
   id="path34"
   style="fill-opacity:1;fill:#f4eee9;stroke:none" />
<path
   class="st0"
   d="M96.116,299.438h-1.071v3.726h-0.042l-1.919-3.726h-1.681v4.903h1.071v-3.719h0.042l1.926,3.719h1.674V299.438z   M87.484,300.348l0.693,1.961h-1.436l0.693-1.961H87.484z M88.296,299.438h-1.639l-1.793,4.903h1.163l0.399-1.121h2.066l0.399,1.121  h1.205L88.296,299.438z M82.556,300.327c0.588,0,0.771,0.196,0.771,0.75v0.07c0,0.54-0.168,0.75-0.764,0.75h-1.261v-1.569H82.556z   M81.302,302.786h1.429c1.198,0,1.681-0.498,1.681-1.562v-0.21c0-1.156-0.483-1.576-1.681-1.576h-2.514v4.903h1.085V302.786z"
   id="path36"
   style="fill-opacity:1;fill:#f4eee9;stroke:none" />
<path
   class="st0"
   d="M181.905,299.438h-1.751l-1.177,3.306h-0.049l-1.156-3.306h-1.856v4.903h1.064v-3.887h0.042l1.394,3.887h0.966  l1.408-3.887h0.042v3.887h1.072V299.438z M174.307,299.438h-1.085v4.903h1.085V299.438z M169.772,300.341  c0.616,0,0.812,0.154,0.812,0.651v0.042c0,0.469-0.196,0.623-0.701,0.623h-1.324v-1.316H169.772z M168.56,302.554h1.205  c0.645,0,0.82,0.119,0.82,0.672v1.114h1.085v-1.184c0-0.854-0.231-1.03-0.75-1.114v-0.049c0.525-0.084,0.75-0.406,0.75-1.135v-0.126  c0-0.953-0.448-1.296-1.667-1.296h-2.528v4.903h1.085V302.554z M164.634,300.376h1.513v-0.938h-4.097v0.938h1.492v3.964h1.093  V300.376z"
   id="path38"
   style="fill-opacity:1;fill:#f4eee9;stroke:none" />
<path
   class="st0"
   d="M227.751,303.402h-2.325v-3.964h-1.085v4.903h3.411V303.402z M219.232,300.376h1.513v-0.938h-4.097v0.938h1.492  v3.964h1.093V300.376z M213.303,304.41c1.513,0,2.094-0.518,2.094-2.031v-2.942h-1.106v2.879c0,0.847-0.238,1.121-0.96,1.121h-0.154  c-0.722,0-0.959-0.266-0.959-1.121v-2.879h-1.107v2.942c0,1.513,0.575,2.031,2.094,2.031H213.303z M207.262,303.465  c-0.974,0-1.177-0.539-1.177-1.429v-0.294c0-0.889,0.203-1.429,1.177-1.429h0.119c0.967,0,1.17,0.54,1.17,1.429v0.294  c0,0.903-0.203,1.415-1.17,1.429H207.262z M207.367,304.41c1.576,0,2.283-0.686,2.283-2.304v-0.427c0-1.618-0.708-2.311-2.283-2.311  h-0.091c-1.59,0-2.29,0.693-2.29,2.311v0.427c0,1.618,0.7,2.304,2.29,2.304H207.367z"
   id="path40"
   style="fill-opacity:1;fill:#f4eee9;stroke:none" />
<path
   class="st0"
   d="M265.002,300.341c0.616,0,0.812,0.154,0.812,0.651v0.042c0,0.469-0.196,0.623-0.701,0.623h-1.324v-1.316  H265.002z M263.79,302.554h1.205c0.645,0,0.82,0.119,0.82,0.672v1.114h1.085v-1.184c0-0.854-0.231-1.03-0.75-1.114v-0.049  c0.525-0.084,0.75-0.406,0.75-1.135v-0.126c0-0.953-0.448-1.296-1.667-1.296h-2.528v4.903h1.085V302.554z M257.596,300.376h1.513  v-0.938h-4.097v0.938h1.492v3.964h1.093V300.376z M251.667,304.41c1.513,0,2.094-0.518,2.094-2.031v-2.942h-1.106v2.879  c0,0.847-0.238,1.121-0.96,1.121h-0.154c-0.722,0-0.959-0.266-0.959-1.121v-2.879h-1.107v2.942c0,1.513,0.575,2.031,2.094,2.031  H251.667z M245.626,303.465c-0.974,0-1.177-0.539-1.177-1.429v-0.294c0-0.889,0.203-1.429,1.177-1.429h0.119  c0.967,0,1.17,0.54,1.17,1.429v0.294c0,0.903-0.203,1.415-1.17,1.429H245.626z M245.731,304.41c1.576,0,2.283-0.686,2.283-2.304  v-0.427c0-1.618-0.708-2.311-2.283-2.311h-0.091c-1.59,0-2.29,0.693-2.29,2.311v0.427c0,1.618,0.7,2.304,2.29,2.304H245.731z"
   id="path42"
   style="fill-opacity:1;fill:#f4eee9;stroke:none" />
<path
   class="st0"
   d="M39.499,139.668h-1.38v-1.274h1.38v-0.792h-1.38v-1.268h1.38v-0.785h-2.276v4.903h2.276V139.668z   M35.123,136.349h0.91v-0.799H33.33v0.799h0.889v4.104h0.904V136.349z M31.091,136.489l0.392,2.136h-0.819l0.392-2.136H31.091z   M31.749,135.55h-1.324l-1.043,4.903h0.932l0.196-1.051h1.128l0.203,1.051h0.953L31.749,135.55z M26.793,136.307  c0.371,0,0.518,0.07,0.518,0.658v0.14c0,0.581-0.14,0.651-0.483,0.651h-0.553v-1.45H26.793z M26.274,138.478H26.8  c0.378,0,0.511,0.07,0.511,0.672v1.303h0.896v-1.247c0-0.883-0.189-1.037-0.567-1.121v-0.035c0.378-0.098,0.567-0.315,0.567-1.106  v-0.091c0-1.092-0.392-1.303-1.324-1.303h-1.506v4.903h0.896V138.478z"
   id="path44"
   style="fill-opacity:1;fill:#f4eee9;stroke:none" />
<path
   class="st0"
   d="M100.716,135.55h-0.896l-0.448,3.824h-0.042l-0.609-3.824h-0.953l-0.616,3.824h-0.035l-0.448-3.824h-0.932  l0.743,4.903h1.211l0.553-3.187l0.532,3.187h1.205L100.716,135.55z M93.287,139.76c-0.231,0-0.378-0.07-0.456-0.217  c-0.07-0.147-0.105-0.406-0.105-0.777v-1.52c0-0.378,0.035-0.638,0.105-0.778c0.077-0.147,0.224-0.217,0.456-0.217h0.049  c0.231,0,0.378,0.07,0.448,0.217c0.077,0.14,0.112,0.399,0.112,0.778v1.52c0,0.371-0.035,0.63-0.112,0.777  c-0.07,0.147-0.217,0.217-0.448,0.217H93.287z M93.35,140.523c1.037,0,1.45-0.406,1.45-1.821v-1.394c0-1.422-0.413-1.828-1.45-1.828  h-0.077c-1.03,0-1.45,0.406-1.45,1.828v1.394c0,1.415,0.42,1.821,1.45,1.821H93.35z M89.157,136.307  c0.448,0,0.574,0.252,0.574,1.008v1.38c0,0.75-0.133,1.001-0.574,1.001h-0.519v-3.39H89.157z M90.634,137.378  c0-1.408-0.434-1.828-1.464-1.828h-1.429v4.903h1.429c1.03,0,1.464-0.42,1.464-1.821V137.378z M86.469,135.55h-0.826v3.313h-0.035  l-1.079-3.313h-1.184v4.903h0.827v-3.313h0.035l1.079,3.313h1.184V135.55z M82.072,135.55h-0.896v4.903h0.896V135.55z   M80.101,135.55h-0.896l-0.448,3.824h-0.042l-0.609-3.824h-0.953l-0.616,3.824H76.5l-0.448-3.824h-0.932l0.743,4.903h1.211  l0.553-3.187l0.532,3.187h1.205L80.101,135.55z"
   id="path46"
   style="fill-opacity:1;fill:#f4eee9;stroke:none" />
<path
   class="st0"
   d="M153.8,140.523c0.896,0,1.359-0.329,1.359-1.45v-0.098c0-0.931-0.28-1.253-1.051-1.352l-0.35-0.042  c-0.399-0.049-0.49-0.203-0.49-0.63v-0.098c0-0.483,0.126-0.623,0.462-0.623c0.329,0,0.469,0.112,0.497,0.693h0.911  c-0.028-1.093-0.477-1.443-1.359-1.443h-0.084c-0.924,0-1.331,0.35-1.331,1.443V137c0,0.931,0.287,1.253,1.058,1.352l0.35,0.042  c0.399,0.056,0.49,0.196,0.49,0.637v0.119c0,0.497-0.14,0.63-0.498,0.63c-0.301,0-0.483-0.105-0.511-0.658h-0.917  c0.021,0.525,0.147,0.896,0.378,1.1c0.231,0.203,0.574,0.301,1.016,0.301H153.8z M151.042,135.55h-0.826v3.313h-0.035l-1.079-3.313  h-1.184v4.903h0.827v-3.313h0.035l1.079,3.313h1.184V135.55z M146.506,135.55h-0.896v4.903h0.896V135.55z M142.698,136.489  l0.392,2.136h-0.819l0.392-2.136H142.698z M143.356,135.55h-1.324l-1.043,4.903h0.932l0.196-1.051h1.128l0.203,1.051h0.953  L143.356,135.55z M138.4,136.307c0.371,0,0.518,0.07,0.518,0.658v0.14c0,0.581-0.14,0.651-0.483,0.651h-0.553v-1.45H138.4z   M137.882,138.478h0.525c0.378,0,0.511,0.07,0.511,0.672v1.303h0.896v-1.247c0-0.883-0.189-1.037-0.567-1.121v-0.035  c0.378-0.098,0.567-0.315,0.567-1.106v-0.091c0-1.092-0.392-1.303-1.324-1.303h-1.506v4.903h0.896V138.478z M134.179,140.523  c1.029,0,1.442-0.406,1.442-1.821v-1.079h-1.534v0.785h0.637v0.455c0,0.721-0.126,0.896-0.546,0.896h-0.063  c-0.231,0-0.378-0.07-0.456-0.21c-0.07-0.147-0.105-0.406-0.105-0.778v-1.526c0-0.378,0.035-0.638,0.105-0.778  c0.077-0.147,0.224-0.217,0.456-0.217h0.049c0.343,0,0.49,0.154,0.525,0.714h0.917c-0.056-1.128-0.511-1.485-1.429-1.485h-0.077  c-1.03,0-1.45,0.406-1.45,1.828v1.394c0,1.415,0.42,1.821,1.45,1.821H134.179z"
   id="path48"
   style="fill-opacity:1;fill:#f4eee9;stroke:none" />
<path
   class="st0"
   d="M208.309,135.55h-0.896v2.052h-1.142v-2.052h-0.896v4.903h0.896v-2.059h1.142v2.059h0.896V135.55z   M202.618,140.523c0.952,0,1.337-0.371,1.408-1.646h-0.904c-0.042,0.728-0.189,0.882-0.532,0.882h-0.042  c-0.231,0-0.378-0.07-0.448-0.217c-0.07-0.147-0.105-0.406-0.105-0.777v-1.52c0-0.757,0.098-0.995,0.553-0.995h0.042  c0.343,0,0.49,0.147,0.532,0.875h0.904c-0.07-1.275-0.456-1.646-1.408-1.646h-0.105c-1.029,0-1.421,0.42-1.421,1.821v1.401  c0,1.401,0.392,1.821,1.421,1.821H202.618z M199.118,136.349h0.91v-0.799h-2.703v0.799h0.889v4.104h0.904V136.349z M196.142,135.55  h-0.896v4.903h0.896V135.55z M192.544,136.3c0.364,0,0.504,0.091,0.504,0.729v0.336c0,0.63-0.133,0.729-0.504,0.729h-0.532V136.3  H192.544z M192.012,138.828h0.609c0.917,0,1.324-0.238,1.324-1.499v-0.28c0-1.289-0.392-1.499-1.324-1.499h-1.506v4.903h0.896  V138.828z"
   id="path50"
   style="fill-opacity:1;fill:#f4eee9;stroke:none" />
<path
   class="st0"
   d="M267.338,139.668h-1.38v-1.274h1.38v-0.792h-1.38v-1.268h1.38v-0.785h-2.276v4.903h2.276V139.668z   M263.852,139.662h-1.205v-4.111h-0.896v4.903h2.101V139.662z M259.049,136.3c0.364,0,0.504,0.091,0.504,0.729v0.336  c0,0.63-0.133,0.729-0.504,0.729h-0.532V136.3H259.049z M258.517,138.828h0.609c0.917,0,1.324-0.238,1.324-1.499v-0.28  c0-1.289-0.392-1.499-1.324-1.499h-1.506v4.903h0.896V138.828z M256.208,135.55h-1.394l-0.645,3.096h-0.042l-0.637-3.096h-1.464  v4.903h0.861v-3.845h0.035l0.827,3.845h0.735l0.819-3.845h0.042v3.845h0.861V135.55z M249.116,136.489l0.392,2.136h-0.819  l0.392-2.136H249.116z M249.774,135.55h-1.324l-1.043,4.903h0.932l0.196-1.051h1.128l0.203,1.051h0.953L249.774,135.55z   M245.014,140.523c0.896,0,1.359-0.329,1.359-1.45v-0.098c0-0.931-0.28-1.253-1.051-1.352l-0.35-0.042  c-0.399-0.049-0.49-0.203-0.49-0.63v-0.098c0-0.483,0.126-0.623,0.462-0.623c0.329,0,0.469,0.112,0.497,0.693h0.911  c-0.028-1.093-0.477-1.443-1.359-1.443h-0.084c-0.924,0-1.331,0.35-1.331,1.443V137c0,0.931,0.287,1.253,1.058,1.352l0.35,0.042  c0.399,0.056,0.49,0.196,0.49,0.637v0.119c0,0.497-0.14,0.63-0.498,0.63c-0.301,0-0.483-0.105-0.511-0.658h-0.917  c0.021,0.525,0.147,0.896,0.378,1.1c0.231,0.203,0.574,0.301,1.016,0.301H245.014z"
   id="path52"
   style="fill-opacity:1;fill:#f4eee9;stroke:none" />
<path
   class="st0"
   d="M228.894,60.493c0.059-0.243,0.11-0.488,0.156-0.736l-2.488-0.565c0.113-0.648,0.176-1.313,0.176-1.993  c0-1.421-0.259-2.781-0.73-4.038l2.38-0.935c-0.089-0.235-0.184-0.467-0.285-0.696l-2.384,0.936c-0.84-1.86-2.158-3.455-3.8-4.631  l1.446-2.117c-0.204-0.145-0.412-0.285-0.624-0.42l-1.447,2.118c-1.663-1.035-3.61-1.656-5.697-1.723v-2.566  c-0.125-0.003-0.25-0.01-0.376-0.01s-0.251,0.006-0.376,0.01v2.566c-2.087,0.067-4.033,0.688-5.697,1.723l-1.447-2.118  c-0.212,0.134-0.42,0.274-0.624,0.42l1.446,2.117c-1.641,1.176-2.96,2.772-3.8,4.631l-2.384-0.936  c-0.101,0.229-0.196,0.461-0.285,0.696l2.38,0.935c-0.471,1.257-0.73,2.617-0.73,4.038c0,0.68,0.062,1.345,0.176,1.993l-2.488,0.565  c0.046,0.248,0.098,0.493,0.156,0.736l2.485-0.565c0.5,2.054,1.549,3.893,2.984,5.349l-1.731,1.865  c0.177,0.177,0.361,0.348,0.547,0.516l2.351-2.532l-0.551-0.512l-0.003,0.003c-1.872-1.915-3.026-4.529-3.026-7.419  c0-2.933,1.188-5.584,3.109-7.507c1.923-1.922,4.574-3.109,7.507-3.109c2.933,0,5.584,1.188,7.507,3.109  c1.922,1.923,3.109,4.574,3.109,7.507c0,2.889-1.154,5.503-3.026,7.419l-0.003-0.003l-0.551,0.512l2.35,2.532  c0.187-0.167,0.37-0.339,0.548-0.516l-1.731-1.865c1.435-1.456,2.484-3.295,2.984-5.349L228.894,60.493z"
   id="path54"
   style="fill-opacity:1;fill:#f3ede7;stroke:none" />
<path
   class="st0"
   d="M200.714,66.841c-0.479,0-0.634-0.21-0.634-1.093v-1.632c0-0.883,0.155-1.1,0.634-1.1  c0.471,0,0.626,0.217,0.626,1.1v1.632C201.34,66.631,201.192,66.841,200.714,66.841z M200.756,67.451  c0.887,0,1.287-0.371,1.287-1.758v-1.521c0-1.4-0.394-1.765-1.287-1.765h-0.085c-0.886,0-1.287,0.364-1.287,1.765v1.521  c0,1.387,0.401,1.758,1.287,1.758H200.756z"
   id="path56"
   style="fill-opacity:1;fill:#f3ede7;stroke:none" />
<polygon
   class="st0"
   points="230.843,66.764 229.949,66.764 229.949,62.478 229.084,62.478 228.296,62.876 228.296,63.62   229.218,63.101 229.253,63.101 229.253,66.764 228.24,66.764 228.24,67.38 230.843,67.38 "
   id="polygon58"
   style="fill-opacity:1;fill:#f3ede7;stroke:none" />
<path
   class="st0"
   d="M85.945,60.493c0.058-0.243,0.11-0.488,0.156-0.736l-2.488-0.565c0.113-0.648,0.176-1.313,0.175-1.993  c0-1.421-0.259-2.781-0.73-4.038l2.38-0.935c-0.089-0.235-0.184-0.467-0.285-0.696l-2.384,0.936c-0.84-1.86-2.158-3.455-3.8-4.631  l1.446-2.117c-0.204-0.145-0.412-0.285-0.624-0.42l-1.447,2.118c-1.663-1.035-3.61-1.656-5.697-1.723v-2.566  c-0.125-0.003-0.25-0.01-0.376-0.01s-0.251,0.006-0.376,0.01v2.566c-2.087,0.067-4.033,0.688-5.697,1.723l-1.447-2.118  c-0.212,0.134-0.42,0.274-0.624,0.42l1.446,2.117c-1.641,1.176-2.96,2.772-3.8,4.631l-2.384-0.936  c-0.101,0.229-0.196,0.461-0.285,0.696l2.38,0.935c-0.471,1.257-0.73,2.617-0.73,4.038c0,0.68,0.062,1.345,0.175,1.993l-2.488,0.565  c0.046,0.248,0.098,0.493,0.156,0.736l2.485-0.565c0.5,2.054,1.549,3.893,2.984,5.349l-1.731,1.865  c0.177,0.177,0.361,0.348,0.548,0.516l2.351-2.532l-0.551-0.512l-0.003,0.003c-1.872-1.915-3.026-4.529-3.026-7.419  c0-2.933,1.188-5.584,3.109-7.507c1.923-1.922,4.574-3.109,7.507-3.109c2.933,0,5.584,1.188,7.507,3.109  c1.922,1.923,3.109,4.574,3.109,7.507c0,2.889-1.154,5.503-3.026,7.419l-0.003-0.003l-0.551,0.512l2.351,2.532  c0.187-0.167,0.37-0.339,0.548-0.516l-1.731-1.865c1.435-1.456,2.484-3.295,2.984-5.349L85.945,60.493z"
   id="path60"
   style="fill-opacity:1;fill:#f3ede7;stroke:none" />
<path
   class="st0"
   d="M57.765,66.841c-0.479,0-0.634-0.21-0.634-1.093v-1.632c0-0.883,0.155-1.1,0.634-1.1  c0.471,0,0.626,0.217,0.626,1.1v1.632C58.391,66.631,58.244,66.841,57.765,66.841z M57.807,67.451c0.887,0,1.287-0.371,1.287-1.758  v-1.521c0-1.4-0.394-1.765-1.287-1.765h-0.085c-0.886,0-1.287,0.364-1.287,1.765v1.521c0,1.387,0.401,1.758,1.287,1.758H57.807z"
   id="path62"
   style="fill-opacity:1;fill:#f3ede7;stroke:none" />
<polygon
   class="st0"
   points="87.894,66.764 87,66.764 87,62.478 86.135,62.478 85.347,62.876 85.347,63.62 86.269,63.101   86.304,63.101 86.304,66.764 85.292,66.764 85.292,67.38 87.894,67.38 "
   id="polygon64"
   style="fill-opacity:1;fill:#f3ede7;stroke:none" />
<path
   class="st0"
   d="M45.958,217.674c0.058-0.243,0.11-0.488,0.156-0.736l-2.488-0.566c0.113-0.648,0.176-1.313,0.175-1.993  c0-1.421-0.259-2.781-0.73-4.038l2.38-0.935c-0.089-0.235-0.184-0.467-0.285-0.696l-2.384,0.936c-0.84-1.86-2.158-3.455-3.8-4.631  l1.446-2.117c-0.204-0.145-0.412-0.285-0.624-0.42l-1.447,2.118c-1.663-1.035-3.61-1.656-5.697-1.723v-2.566  c-0.125-0.003-0.25-0.01-0.376-0.01c-0.126,0-0.251,0.006-0.376,0.01v2.566c-2.087,0.067-4.033,0.688-5.697,1.723l-1.447-2.118  c-0.212,0.135-0.42,0.275-0.624,0.42l1.446,2.117c-1.641,1.176-2.96,2.772-3.8,4.631l-2.384-0.936  c-0.101,0.229-0.196,0.461-0.285,0.696l2.38,0.935c-0.471,1.257-0.73,2.617-0.73,4.038c0,0.68,0.062,1.345,0.176,1.993l-2.488,0.566  c0.046,0.248,0.098,0.493,0.156,0.736l2.485-0.565c0.5,2.054,1.549,3.893,2.984,5.349l-1.731,1.865  c0.178,0.177,0.361,0.348,0.548,0.516l2.351-2.532l-0.551-0.512l-0.003,0.003c-1.872-1.915-3.026-4.529-3.026-7.419  c0-2.933,1.188-5.584,3.109-7.507c1.923-1.922,4.574-3.109,7.507-3.109c2.933,0,5.584,1.188,7.507,3.109  c1.922,1.923,3.109,4.574,3.109,7.507c0,2.889-1.154,5.503-3.026,7.419l-0.003-0.003l-0.551,0.512l2.351,2.532  c0.187-0.167,0.37-0.339,0.548-0.516l-1.731-1.865c1.435-1.456,2.484-3.295,2.984-5.349L45.958,217.674z"
   id="path66"
   style="fill-opacity:1;fill:#f4eee9;stroke:none" />
<path
   class="st0"
   d="M17.778,224.022c-0.479,0-0.634-0.21-0.634-1.093v-1.632c0-0.883,0.155-1.1,0.634-1.1  c0.471,0,0.626,0.217,0.626,1.1v1.632C18.404,223.812,18.256,224.022,17.778,224.022z M17.82,224.631  c0.887,0,1.287-0.371,1.287-1.758v-1.521c0-1.4-0.394-1.765-1.287-1.765h-0.085c-0.886,0-1.287,0.364-1.287,1.765v1.521  c0,1.387,0.401,1.758,1.287,1.758H17.82z"
   id="path68"
   style="fill-opacity:1;fill:#f4eee9;stroke:none" />
<polygon
   class="st0"
   points="47.738,223.945 46.844,223.945 46.844,219.659 45.979,219.659 45.191,220.057 45.191,220.8   46.113,220.282 46.148,220.282 46.148,223.945 45.135,223.945 45.135,224.561 47.738,224.561 "
   id="polygon70"
   style="fill-opacity:1;fill:#f4eee9;stroke:none" />
<path
   class="st0"
   d="M212.457,102.863c-2.793-2.793-4.188-6.45-4.188-10.111c0-3.66,1.395-7.318,4.188-10.11  c0.117-0.117,0.117-0.307,0-0.424c-0.117-0.117-0.307-0.117-0.424,0c-2.909,2.908-4.364,6.723-4.364,10.535  c0,3.812,1.455,7.626,4.364,10.535c0.117,0.117,0.307,0.117,0.424,0C212.574,103.171,212.574,102.981,212.457,102.863  L212.457,102.863z"
   id="path72"
   style="fill-opacity:1;fill:#f3ede7;stroke:none" />
<path
   class="st0"
   d="M232.678,82.642c2.793,2.793,4.188,6.45,4.188,10.111c0,3.66-1.395,7.318-4.188,10.111  c-0.117,0.117-0.117,0.307,0,0.424c0.117,0.117,0.307,0.117,0.424,0c2.909-2.908,4.364-6.723,4.364-10.535  c0-3.812-1.455-7.626-4.364-10.535c-0.117-0.117-0.307-0.117-0.424,0C232.56,82.335,232.56,82.525,232.678,82.642L232.678,82.642z"
   id="path74"
   style="fill-opacity:1;fill:#f3ede7;stroke:none" />
<path
   class="st0"
   d="M54.978,102.863c-2.793-2.793-4.188-6.45-4.188-10.111c0-3.66,1.395-7.318,4.188-10.11  c0.117-0.117,0.117-0.307,0-0.424c-0.117-0.117-0.307-0.117-0.424,0c-2.909,2.908-4.364,6.723-4.364,10.535  c0,3.812,1.455,7.626,4.364,10.535c0.117,0.117,0.307,0.117,0.424,0C55.095,103.171,55.095,102.981,54.978,102.863L54.978,102.863z"
   id="path76"
   style="fill-opacity:1;fill:#f3ede7;stroke:none" />
<path
   class="st0"
   d="M75.199,82.642c2.793,2.793,4.188,6.45,4.188,10.111c0,3.66-1.395,7.318-4.188,10.111  c-0.117,0.117-0.117,0.307,0,0.424c0.117,0.117,0.307,0.117,0.424,0c2.909-2.908,4.364-6.723,4.364-10.535  c0-3.812-1.455-7.626-4.364-10.535c-0.117-0.117-0.307-0.117-0.424,0C75.081,82.335,75.081,82.525,75.199,82.642L75.199,82.642z"
   id="path78"
   style="fill-opacity:1;fill:#f3ede7;stroke:none" />
<path
   class="st0"
   d="M22.205,260.611c-2.793-2.793-4.188-6.45-4.188-10.111c0-3.66,1.395-7.318,4.188-10.111  c0.117-0.117,0.117-0.307,0-0.424c-0.117-0.117-0.307-0.117-0.424,0c-2.909,2.908-4.364,6.723-4.364,10.535  c0,3.812,1.455,7.626,4.364,10.535c0.117,0.117,0.307,0.117,0.424,0C22.322,260.918,22.322,260.728,22.205,260.611L22.205,260.611z"
   id="path80"
   style="fill-opacity:1;fill:#f4eee9;stroke:none" />
<path
   class="st0"
   d="M42.426,240.39c2.793,2.793,4.188,6.45,4.188,10.111c0,3.66-1.395,7.318-4.188,10.111  c-0.117,0.117-0.117,0.307,0,0.424c0.117,0.117,0.307,0.117,0.424,0c2.909-2.908,4.364-6.723,4.364-10.535  c0-3.812-1.455-7.626-4.364-10.535c-0.117-0.117-0.307-0.117-0.424,0C42.309,240.083,42.309,240.272,42.426,240.39L42.426,240.39z"
   id="path82"
   style="fill-opacity:1;fill:#f4eee9;stroke:none" />
<path
   class="st0"
   d="M101.686,217.674c0.059-0.243,0.11-0.488,0.156-0.736l-2.488-0.566c0.113-0.648,0.176-1.313,0.175-1.993  c0-1.421-0.259-2.781-0.73-4.038l2.38-0.935c-0.089-0.235-0.184-0.467-0.285-0.696l-2.384,0.936c-0.84-1.86-2.158-3.455-3.8-4.631  l1.446-2.117c-0.204-0.145-0.412-0.285-0.624-0.42l-1.447,2.118c-1.663-1.035-3.61-1.656-5.697-1.723v-2.566  c-0.125-0.003-0.25-0.01-0.376-0.01s-0.251,0.006-0.376,0.01v2.566c-2.087,0.067-4.033,0.688-5.697,1.723l-1.447-2.118  c-0.212,0.135-0.42,0.275-0.624,0.42l1.446,2.117c-1.641,1.176-2.96,2.772-3.8,4.631l-2.384-0.936  c-0.101,0.229-0.196,0.461-0.285,0.696l2.38,0.935c-0.471,1.257-0.73,2.617-0.73,4.038c0,0.68,0.062,1.345,0.176,1.993l-2.488,0.566  c0.046,0.248,0.098,0.493,0.156,0.736l2.485-0.565c0.5,2.054,1.549,3.893,2.984,5.349l-1.731,1.865  c0.177,0.177,0.361,0.348,0.548,0.516l2.351-2.532l-0.551-0.512l-0.003,0.003c-1.872-1.915-3.026-4.529-3.026-7.419  c0-2.933,1.188-5.584,3.109-7.507c1.923-1.922,4.574-3.109,7.507-3.109c2.933,0,5.584,1.188,7.507,3.109  c1.922,1.923,3.109,4.574,3.109,7.507c0,2.889-1.154,5.503-3.026,7.419l-0.003-0.003l-0.551,0.512l2.351,2.532  c0.187-0.167,0.37-0.339,0.548-0.516l-1.731-1.865c1.435-1.456,2.484-3.295,2.984-5.349L101.686,217.674z"
   id="path84"
   style="fill-opacity:1;fill:#f4eee9;stroke:none" />
<path
   class="st0"
   d="M73.506,224.022c-0.479,0-0.634-0.21-0.634-1.093v-1.632c0-0.883,0.155-1.1,0.634-1.1  c0.471,0,0.626,0.217,0.626,1.1v1.632C74.132,223.812,73.984,224.022,73.506,224.022z M73.548,224.631  c0.887,0,1.287-0.371,1.287-1.758v-1.521c0-1.4-0.394-1.765-1.287-1.765h-0.085c-0.886,0-1.287,0.364-1.287,1.765v1.521  c0,1.387,0.401,1.758,1.287,1.758H73.548z"
   id="path86"
   style="fill-opacity:1;fill:#f4eee9;stroke:none" />
<polygon
   class="st0"
   points="103.466,223.945 102.572,223.945 102.572,219.659 101.707,219.659 100.919,220.057 100.919,220.8   101.841,220.282 101.876,220.282 101.876,223.945 100.863,223.945 100.863,224.561 103.466,224.561 "
   id="polygon88"
   style="fill-opacity:1;fill:#f4eee9;stroke:none" />
<path
   class="st0"
   d="M77.933,260.611c-2.793-2.793-4.188-6.45-4.188-10.111c0-3.66,1.395-7.318,4.188-10.111  c0.117-0.117,0.117-0.307,0-0.424c-0.117-0.117-0.307-0.117-0.424,0c-2.909,2.908-4.364,6.723-4.364,10.535  c0,3.812,1.455,7.626,4.364,10.535c0.117,0.117,0.307,0.117,0.424,0C78.05,260.918,78.05,260.728,77.933,260.611L77.933,260.611z"
   id="path90"
   style="fill-opacity:1;fill:#f4eee9;stroke:none" />
<path
   class="st0"
   d="M98.154,240.39c2.793,2.793,4.188,6.45,4.188,10.111c0,3.66-1.395,7.318-4.188,10.111  c-0.117,0.117-0.117,0.307,0,0.424c0.117,0.117,0.307,0.117,0.424,0c2.909-2.908,4.364-6.723,4.364-10.535  c0-3.812-1.455-7.626-4.364-10.535c-0.117-0.117-0.307-0.117-0.424,0C98.037,240.083,98.037,240.272,98.154,240.39L98.154,240.39z"
   id="path92"
   style="fill-opacity:1;fill:#f4eee9;stroke:none" />
<path
   class="st0"
   d="M22.205,339.198c-2.793-2.793-4.188-6.45-4.188-10.111c0-3.66,1.395-7.318,4.188-10.11  c0.117-0.117,0.117-0.307,0-0.424c-0.117-0.117-0.307-0.117-0.424,0c-2.909,2.908-4.364,6.723-4.364,10.535  c0,3.812,1.455,7.626,4.364,10.535c0.117,0.117,0.307,0.117,0.424,0C22.322,339.506,22.322,339.316,22.205,339.198L22.205,339.198z"
   id="path94"
   style="fill-opacity:1;fill:#f4eee9;stroke:none" />
<path
   class="st0"
   d="M42.426,318.977c2.793,2.793,4.188,6.45,4.188,10.111c0,3.66-1.395,7.318-4.188,10.111  c-0.117,0.117-0.117,0.307,0,0.424c0.117,0.117,0.307,0.117,0.424,0c2.909-2.908,4.364-6.723,4.364-10.535  c0-3.812-1.455-7.626-4.364-10.535c-0.117-0.117-0.307-0.117-0.424,0C42.309,318.67,42.309,318.86,42.426,318.977L42.426,318.977z"
   id="path96"
   style="fill-opacity:1;fill:#f4eee9;stroke:none" />
<path
   class="st0"
   d="M77.933,339.198c-2.793-2.793-4.188-6.45-4.188-10.111c0-3.66,1.395-7.318,4.188-10.11  c0.117-0.117,0.117-0.307,0-0.424c-0.117-0.117-0.307-0.117-0.424,0c-2.909,2.908-4.364,6.723-4.364,10.535  c0,3.812,1.455,7.626,4.364,10.535c0.117,0.117,0.307,0.117,0.424,0C78.05,339.506,78.05,339.316,77.933,339.198L77.933,339.198z"
   id="path98"
   style="fill-opacity:1;fill:#f4eee9;stroke:none" />
<path
   class="st0"
   d="M98.154,318.977c2.793,2.793,4.188,6.45,4.188,10.111c0,3.66-1.395,7.318-4.188,10.111  c-0.117,0.117-0.117,0.307,0,0.424c0.117,0.117,0.307,0.117,0.424,0c2.909-2.908,4.364-6.723,4.364-10.535  c0-3.812-1.455-7.626-4.364-10.535c-0.117-0.117-0.307-0.117-0.424,0C98.037,318.67,98.037,318.86,98.154,318.977L98.154,318.977z"
   id="path100"
   style="fill-opacity:1;fill:#f4eee9;stroke:none" />
<path
   class="st0"
   d="M157.497,217.674c0.059-0.243,0.11-0.488,0.156-0.736l-2.488-0.566c0.113-0.648,0.176-1.313,0.176-1.993  c0-1.421-0.259-2.781-0.73-4.038l2.38-0.935c-0.089-0.235-0.184-0.467-0.285-0.696l-2.384,0.936c-0.84-1.86-2.158-3.455-3.8-4.631  l1.446-2.117c-0.204-0.145-0.412-0.285-0.624-0.42l-1.447,2.118c-1.663-1.035-3.61-1.656-5.697-1.723v-2.566  c-0.125-0.003-0.25-0.01-0.376-0.01s-0.251,0.006-0.376,0.01v2.566c-2.087,0.067-4.033,0.688-5.697,1.723l-1.447-2.118  c-0.212,0.135-0.42,0.275-0.624,0.42l1.446,2.117c-1.641,1.176-2.96,2.772-3.8,4.631l-2.384-0.936  c-0.101,0.229-0.196,0.461-0.285,0.696l2.38,0.935c-0.471,1.257-0.73,2.617-0.73,4.038c0,0.68,0.062,1.345,0.176,1.993l-2.488,0.566  c0.046,0.248,0.098,0.493,0.156,0.736l2.485-0.565c0.5,2.054,1.549,3.893,2.984,5.349l-1.731,1.865  c0.178,0.177,0.361,0.348,0.548,0.516l2.351-2.532l-0.551-0.512l-0.003,0.003c-1.872-1.915-3.026-4.529-3.026-7.419  c0-2.933,1.188-5.584,3.109-7.507c1.923-1.922,4.574-3.109,7.507-3.109c2.933,0,5.584,1.188,7.507,3.109  c1.922,1.923,3.109,4.574,3.109,7.507c0,2.889-1.154,5.503-3.026,7.419l-0.003-0.003l-0.551,0.512l2.35,2.532  c0.187-0.167,0.37-0.339,0.548-0.516l-1.731-1.865c1.435-1.456,2.484-3.295,2.984-5.349L157.497,217.674z"
   id="path102"
   style="fill-opacity:1;fill:#f4eee9;stroke:none" />
<path
   class="st0"
   d="M129.317,224.022c-0.479,0-0.634-0.21-0.634-1.093v-1.632c0-0.883,0.155-1.1,0.634-1.1  c0.471,0,0.626,0.217,0.626,1.1v1.632C129.943,223.812,129.796,224.022,129.317,224.022z M129.359,224.631  c0.887,0,1.287-0.371,1.287-1.758v-1.521c0-1.4-0.394-1.765-1.287-1.765h-0.085c-0.886,0-1.287,0.364-1.287,1.765v1.521  c0,1.387,0.401,1.758,1.287,1.758H129.359z"
   id="path104"
   style="fill-opacity:1;fill:#f4eee9;stroke:none" />
<polygon
   class="st0"
   points="159.277,223.945 158.383,223.945 158.383,219.659 157.518,219.659 156.73,220.057 156.73,220.8   157.652,220.282 157.687,220.282 157.687,223.945 156.674,223.945 156.674,224.561 159.277,224.561 "
   id="polygon106"
   style="fill-opacity:1;fill:#f4eee9;stroke:none" />
<path
   class="st0"
   d="M186.196,332.097c0.059-0.243,0.11-0.488,0.156-0.736l-2.488-0.565c0.113-0.648,0.176-1.313,0.176-1.993  c0-1.421-0.259-2.781-0.73-4.038l2.38-0.935c-0.089-0.235-0.184-0.467-0.285-0.696l-2.384,0.936c-0.84-1.86-2.158-3.455-3.8-4.631  l1.446-2.117c-0.204-0.145-0.412-0.285-0.624-0.42l-1.447,2.118c-1.663-1.035-3.61-1.656-5.697-1.723v-2.566  c-0.125-0.003-0.25-0.009-0.376-0.009c-0.126,0-0.251,0.006-0.376,0.009v2.566c-2.087,0.067-4.033,0.688-5.697,1.723l-1.447-2.118  c-0.212,0.135-0.42,0.275-0.624,0.42l1.446,2.117c-1.641,1.176-2.96,2.772-3.8,4.631l-2.384-0.936  c-0.101,0.229-0.196,0.461-0.285,0.696l2.38,0.935c-0.471,1.257-0.73,2.617-0.73,4.038c0,0.68,0.062,1.345,0.175,1.993l-2.488,0.565  c0.046,0.248,0.098,0.493,0.156,0.736l2.485-0.565c0.5,2.054,1.549,3.893,2.984,5.349l-1.731,1.865  c0.178,0.177,0.361,0.348,0.548,0.516l2.351-2.532l-0.551-0.512l-0.003,0.003c-1.872-1.915-3.026-4.529-3.026-7.419  c0-2.933,1.188-5.584,3.109-7.507c1.923-1.922,4.574-3.109,7.507-3.109c2.933,0,5.584,1.188,7.507,3.109  c1.922,1.923,3.109,4.574,3.109,7.507c0,2.889-1.154,5.504-3.026,7.419l-0.003-0.003l-0.551,0.512l2.351,2.532  c0.187-0.167,0.37-0.339,0.548-0.516l-1.731-1.865c1.435-1.456,2.484-3.295,2.984-5.349L186.196,332.097z"
   id="path108"
   style="fill-opacity:1;fill:#f4eee9;stroke:none" />
<path
   class="st0"
   d="M158.016,338.445c-0.479,0-0.634-0.21-0.634-1.093v-1.632c0-0.882,0.155-1.1,0.634-1.1  c0.471,0,0.626,0.217,0.626,1.1v1.632C158.642,338.235,158.495,338.445,158.016,338.445z M158.058,339.054  c0.887,0,1.287-0.371,1.287-1.758v-1.52c0-1.401-0.394-1.765-1.287-1.765h-0.085c-0.886,0-1.287,0.364-1.287,1.765v1.52  c0,1.387,0.401,1.758,1.287,1.758H158.058z"
   id="path110"
   style="fill-opacity:1;fill:#f4eee9;stroke:none" />
<path
   class="st0"
   d="M188.457,338.368h-1.864v-0.126c0-0.609,0.084-0.785,0.437-1.037l0.717-0.546  c0.549-0.42,0.711-0.708,0.711-1.401v-0.07c0-0.82-0.38-1.177-1.231-1.177h-0.07c-0.773,0-1.195,0.287-1.237,1.38h0.696  c0.021-0.638,0.196-0.778,0.584-0.778c0.4,0,0.562,0.175,0.562,0.63v0.049c0,0.469-0.085,0.623-0.465,0.917l-0.696,0.525  c-0.562,0.42-0.703,0.665-0.703,1.506v0.742h2.561V338.368z"
   id="path112"
   style="fill-opacity:1;fill:#f4eee9;stroke:none" />
<polygon
   class="st0"
   points="173.716,312.14 172.822,312.14 172.822,307.854 171.957,307.854 171.169,308.253 171.169,308.995   172.091,308.477 172.126,308.477 172.126,312.14 171.113,312.14 171.113,312.756 173.716,312.756 "
   id="polygon114"
   style="fill-opacity:1;fill:#f4eee9;stroke:none" />
<path
   class="st0"
   d="M133.744,260.611c-2.793-2.793-4.188-6.45-4.188-10.111c0-3.66,1.395-7.318,4.188-10.111  c0.117-0.117,0.117-0.307,0-0.424c-0.117-0.117-0.307-0.117-0.424,0c-2.909,2.908-4.364,6.723-4.364,10.535  c0,3.812,1.455,7.626,4.364,10.535c0.117,0.117,0.307,0.117,0.424,0C133.861,260.918,133.861,260.728,133.744,260.611  L133.744,260.611z"
   id="path116"
   style="fill-opacity:1;fill:#f4eee9;stroke:none" />
<path
   class="st0"
   d="M153.965,240.39c2.793,2.793,4.188,6.45,4.188,10.111c0,3.66-1.395,7.318-4.188,10.111  c-0.117,0.117-0.117,0.307,0,0.424c0.117,0.117,0.307,0.117,0.424,0c2.909-2.908,4.364-6.723,4.364-10.535  c0-3.812-1.455-7.626-4.364-10.535c-0.117-0.117-0.307-0.117-0.424,0C153.848,240.083,153.848,240.272,153.965,240.39  L153.965,240.39z"
   id="path118"
   style="fill-opacity:1;fill:#f4eee9;stroke:none" />
<path
   class="st0"
   d="M213.224,217.674c0.059-0.243,0.11-0.488,0.156-0.736l-2.488-0.566c0.113-0.648,0.176-1.313,0.175-1.993  c0-1.421-0.259-2.781-0.73-4.038l2.38-0.935c-0.089-0.235-0.184-0.467-0.285-0.696l-2.384,0.936c-0.84-1.86-2.158-3.455-3.8-4.631  l1.446-2.117c-0.204-0.145-0.412-0.285-0.624-0.42l-1.447,2.118c-1.663-1.035-3.61-1.656-5.697-1.723v-2.566  c-0.125-0.003-0.25-0.01-0.376-0.01c-0.126,0-0.251,0.006-0.376,0.01v2.566c-2.087,0.067-4.033,0.688-5.697,1.723l-1.447-2.118  c-0.212,0.135-0.42,0.275-0.624,0.42l1.446,2.117c-1.641,1.176-2.96,2.772-3.8,4.631l-2.384-0.936  c-0.101,0.229-0.196,0.461-0.285,0.696l2.38,0.935c-0.471,1.257-0.73,2.617-0.73,4.038c0,0.68,0.062,1.345,0.175,1.993l-2.488,0.566  c0.046,0.248,0.098,0.493,0.156,0.736l2.485-0.565c0.5,2.054,1.549,3.893,2.984,5.349l-1.731,1.865  c0.178,0.177,0.361,0.348,0.548,0.516l2.351-2.532l-0.551-0.512l-0.003,0.003c-1.872-1.915-3.026-4.529-3.026-7.419  c0-2.933,1.188-5.584,3.109-7.507c1.923-1.922,4.574-3.109,7.507-3.109c2.933,0,5.584,1.188,7.507,3.109  c1.922,1.923,3.109,4.574,3.109,7.507c0,2.889-1.154,5.503-3.026,7.419l-0.003-0.003l-0.551,0.512l2.351,2.532  c0.187-0.167,0.37-0.339,0.548-0.516l-1.731-1.865c1.435-1.456,2.484-3.295,2.984-5.349L213.224,217.674z"
   id="path120"
   style="fill-opacity:1;fill:#f4eee9;stroke:none" />
<path
   class="st0"
   d="M185.044,224.022c-0.479,0-0.634-0.21-0.634-1.093v-1.632c0-0.883,0.155-1.1,0.634-1.1  c0.471,0,0.626,0.217,0.626,1.1v1.632C185.67,223.812,185.523,224.022,185.044,224.022z M185.086,224.631  c0.887,0,1.287-0.371,1.287-1.758v-1.521c0-1.4-0.394-1.765-1.287-1.765h-0.085c-0.886,0-1.287,0.364-1.287,1.765v1.521  c0,1.387,0.401,1.758,1.287,1.758H185.086z"
   id="path122"
   style="fill-opacity:1;fill:#f4eee9;stroke:none" />
<polygon
   class="st0"
   points="215.004,223.945 214.11,223.945 214.11,219.659 213.245,219.659 212.457,220.057 212.457,220.8   213.379,220.282 213.414,220.282 213.414,223.945 212.401,223.945 212.401,224.561 215.004,224.561 "
   id="polygon124"
   style="fill-opacity:1;fill:#f4eee9;stroke:none" />
<path
   class="st0"
   d="M189.471,260.611c-2.793-2.793-4.188-6.45-4.188-10.111c0-3.66,1.395-7.318,4.188-10.111  c0.117-0.117,0.117-0.307,0-0.424c-0.117-0.117-0.307-0.117-0.424,0c-2.909,2.908-4.364,6.723-4.364,10.535  c0,3.812,1.455,7.626,4.364,10.535c0.117,0.117,0.307,0.117,0.424,0C189.589,260.918,189.589,260.728,189.471,260.611  L189.471,260.611z"
   id="path126"
   style="fill-opacity:1;fill:#f4eee9;stroke:none" />
<path
   class="st0"
   d="M209.692,240.39c2.792,2.793,4.188,6.45,4.188,10.111c0,3.66-1.395,7.318-4.188,10.111  c-0.117,0.117-0.117,0.307,0,0.424c0.117,0.117,0.307,0.117,0.424,0c2.908-2.908,4.364-6.723,4.364-10.535  c0-3.812-1.455-7.626-4.364-10.535c-0.117-0.117-0.307-0.117-0.424,0C209.575,240.083,209.575,240.272,209.692,240.39  L209.692,240.39z"
   id="path128"
   style="fill-opacity:1;fill:#f4eee9;stroke:none" />
<path
   class="st0"
   d="M268.933,217.674c0.059-0.243,0.11-0.488,0.156-0.736l-2.488-0.566c0.113-0.648,0.176-1.313,0.176-1.993  c0-1.421-0.259-2.781-0.73-4.038l2.38-0.935c-0.089-0.235-0.184-0.467-0.285-0.696l-2.384,0.936c-0.84-1.86-2.158-3.455-3.8-4.631  l1.446-2.117c-0.204-0.145-0.412-0.285-0.624-0.42l-1.447,2.118c-1.664-1.035-3.61-1.656-5.697-1.723v-2.566  c-0.125-0.003-0.25-0.01-0.376-0.01s-0.251,0.006-0.376,0.01v2.566c-2.087,0.067-4.033,0.688-5.697,1.723l-1.447-2.118  c-0.212,0.135-0.42,0.275-0.624,0.42l1.446,2.117c-1.641,1.176-2.96,2.772-3.8,4.631l-2.384-0.936  c-0.101,0.229-0.196,0.461-0.285,0.696l2.38,0.935c-0.471,1.257-0.73,2.617-0.73,4.038c0,0.68,0.062,1.345,0.176,1.993l-2.488,0.566  c0.046,0.248,0.098,0.493,0.156,0.736l2.485-0.565c0.5,2.054,1.549,3.893,2.984,5.349l-1.731,1.865  c0.177,0.177,0.361,0.348,0.548,0.516l2.351-2.532l-0.551-0.512l-0.003,0.003c-1.872-1.915-3.026-4.529-3.026-7.419  c0-2.933,1.188-5.584,3.109-7.507c1.923-1.922,4.574-3.109,7.507-3.109c2.933,0,5.584,1.188,7.507,3.109  c1.922,1.923,3.109,4.574,3.109,7.507c0,2.889-1.154,5.503-3.026,7.419l-0.003-0.003l-0.551,0.512l2.35,2.532  c0.187-0.167,0.37-0.339,0.548-0.516l-1.731-1.865c1.435-1.456,2.484-3.295,2.984-5.349L268.933,217.674z"
   id="path130"
   style="fill-opacity:1;fill:#f4eee9;stroke:none" />
<path
   class="st0"
   d="M240.753,224.022c-0.479,0-0.634-0.21-0.634-1.093v-1.632c0-0.883,0.155-1.1,0.634-1.1  c0.471,0,0.626,0.217,0.626,1.1v1.632C241.379,223.812,241.231,224.022,240.753,224.022z M240.795,224.631  c0.887,0,1.287-0.371,1.287-1.758v-1.521c0-1.4-0.394-1.765-1.287-1.765h-0.085c-0.886,0-1.287,0.364-1.287,1.765v1.521  c0,1.387,0.401,1.758,1.287,1.758H240.795z"
   id="path132"
   style="fill-opacity:1;fill:#f4eee9;stroke:none" />
<polygon
   class="st0"
   points="270.713,223.945 269.819,223.945 269.819,219.659 268.954,219.659 268.166,220.057 268.166,220.8   269.088,220.282 269.123,220.282 269.123,223.945 268.11,223.945 268.11,224.561 270.713,224.561 "
   id="polygon134"
   style="fill-opacity:1;fill:#f4eee9;stroke:none" />
<path
   class="st0"
   d="M245.18,260.611c-2.793-2.793-4.188-6.45-4.188-10.111c0-3.66,1.395-7.318,4.188-10.111  c0.117-0.117,0.117-0.307,0-0.424c-0.117-0.117-0.307-0.117-0.424,0c-2.909,2.908-4.364,6.723-4.364,10.535  c0,3.812,1.455,7.626,4.364,10.535c0.117,0.117,0.307,0.117,0.424,0C245.297,260.918,245.297,260.728,245.18,260.611L245.18,260.611  z"
   id="path136"
   style="fill-opacity:1;fill:#f4eee9;stroke:none" />
<path
   class="st0"
   d="M265.401,240.39c2.793,2.793,4.188,6.45,4.188,10.111c0,3.66-1.395,7.318-4.188,10.111  c-0.117,0.117-0.117,0.307,0,0.424c0.117,0.117,0.307,0.117,0.424,0c2.908-2.908,4.364-6.723,4.364-10.535  c0-3.812-1.455-7.626-4.364-10.535c-0.117-0.117-0.307-0.117-0.424,0C265.284,240.083,265.284,240.272,265.401,240.39  L265.401,240.39z"
   id="path138"
   style="fill-opacity:1;fill:#f4eee9;stroke:none" />
<path
   class="st1"
   d="M18.899,139.947c-3.202,0-6.102,1.358-8.195,3.548c-2.095,2.19-3.388,5.214-3.388,8.55v109.013  c0,3.336,1.294,6.36,3.388,8.55c2.094,2.19,4.993,3.548,8.195,3.548c0,0,0.001,0,0.001,0v-0.6c-3.031,0-5.773-1.283-7.764-3.363  c-1.99-2.08-3.222-4.955-3.222-8.135V152.044c0-3.18,1.232-6.054,3.222-8.135c1.99-2.08,4.733-3.363,7.764-3.363V139.947   M45.421,139.947C45.421,139.947,45.421,139.947,45.421,139.947l-0.001,0.6c3.031,0,5.773,1.283,7.763,3.363  c1.99,2.08,3.222,4.955,3.222,8.135v109.013c0,3.18-1.232,6.054-3.222,8.135c-1.99,2.08-4.733,3.363-7.763,3.363v0.6  c3.202,0,6.102-1.358,8.195-3.548c2.095-2.19,3.388-5.214,3.388-8.55V152.044c0-3.336-1.294-6.36-3.388-8.55  C51.522,141.305,48.622,139.947,45.421,139.947"
   id="path140"
   style="fill-opacity:0.30054644;fill:#f4eee9;stroke:none" />
<path
   class="st1"
   d="M74.639,139.947c-3.202,0-6.102,1.358-8.195,3.548c-2.095,2.19-3.388,5.214-3.388,8.55v109.013  c0,3.336,1.294,6.36,3.388,8.55c2.094,2.19,4.993,3.548,8.195,3.548c0,0,0.001,0,0.001,0v-0.6c-3.031,0-5.773-1.283-7.763-3.363  c-1.99-2.08-3.222-4.955-3.222-8.135V152.044c0-3.18,1.232-6.054,3.222-8.135c1.99-2.08,4.733-3.363,7.763-3.363V139.947   M101.161,139.947C101.161,139.947,101.161,139.947,101.161,139.947l-0.001,0.6c3.031,0,5.773,1.283,7.763,3.363  c1.99,2.08,3.222,4.955,3.222,8.135v109.013c0,3.18-1.232,6.054-3.222,8.135c-1.991,2.08-4.733,3.363-7.763,3.363v0.6  c3.202,0,6.102-1.358,8.195-3.548c2.095-2.19,3.388-5.214,3.388-8.55V152.044c0-3.336-1.294-6.36-3.388-8.55  C107.262,141.305,104.362,139.947,101.161,139.947"
   id="path142"
   style="fill-opacity:0.30054644;fill:#f4eee9;stroke:none" />
<path
   class="st1"
   d="M130.379,139.947c-3.202,0-6.102,1.358-8.195,3.548c-2.095,2.19-3.388,5.214-3.388,8.55v109.013  c0,3.336,1.294,6.36,3.388,8.55c2.094,2.19,4.993,3.548,8.195,3.548c0,0,0.001,0,0.001,0v-0.6c-3.031,0-5.773-1.283-7.764-3.363  c-1.99-2.08-3.222-4.955-3.222-8.135V152.044c0-3.18,1.232-6.054,3.222-8.135c1.99-2.08,4.733-3.363,7.764-3.363V139.947   M156.901,139.947C156.9,139.947,156.901,139.947,156.901,139.947l-0.001,0.6c3.031,0,5.773,1.283,7.763,3.363  c1.99,2.08,3.222,4.955,3.222,8.135v109.013c0,3.18-1.232,6.054-3.222,8.135c-1.99,2.08-4.733,3.363-7.763,3.363v0.6  c3.202,0,6.102-1.358,8.195-3.548c2.095-2.19,3.388-5.214,3.388-8.55V152.044c0-3.336-1.294-6.36-3.388-8.55  C163.002,141.305,160.102,139.947,156.901,139.947"
   id="path144"
   style="fill-opacity:0.30054644;fill:#f4eee9;stroke:none" />
<path
   class="st1"
   d="M186.118,139.947c-3.202,0-6.102,1.358-8.195,3.548c-2.095,2.19-3.388,5.214-3.388,8.55v109.013  c0,3.336,1.294,6.36,3.388,8.55c2.094,2.19,4.993,3.548,8.195,3.548c0,0,0.001,0,0.001,0v-0.6c-3.031,0-5.773-1.283-7.763-3.363  c-1.99-2.08-3.222-4.955-3.222-8.135V152.044c0-3.18,1.232-6.054,3.222-8.135c1.99-2.08,4.733-3.363,7.763-3.363V139.947   M212.641,139.947C212.64,139.947,212.641,139.947,212.641,139.947l-0.001,0.6c3.031,0,5.773,1.283,7.763,3.363  c1.99,2.08,3.222,4.955,3.222,8.135v109.013c0,3.18-1.232,6.054-3.222,8.135c-1.99,2.08-4.733,3.363-7.763,3.363v0.6  c3.202,0,6.102-1.358,8.195-3.548c2.095-2.19,3.388-5.214,3.388-8.55V152.044c0-3.336-1.294-6.36-3.388-8.55  C218.742,141.305,215.842,139.947,212.641,139.947"
   id="path146"
   style="fill-opacity:0.30054644;fill:#f4eee9;stroke:none" />
<path
   class="st1"
   d="M241.858,139.947c-3.202,0-6.102,1.358-8.195,3.548c-2.095,2.19-3.388,5.214-3.388,8.55v109.013  c0,3.336,1.294,6.36,3.388,8.55c2.094,2.19,4.993,3.548,8.194,3.548c0,0,0.001,0,0.001,0v-0.6c-3.031,0-5.773-1.283-7.763-3.363  c-1.99-2.08-3.222-4.955-3.222-8.135V152.044c0-3.18,1.232-6.054,3.222-8.135c1.99-2.08,4.733-3.363,7.763-3.363V139.947   M268.381,139.947C268.38,139.947,268.38,139.947,268.381,139.947l-0.001,0.6c3.031,0,5.773,1.283,7.763,3.363  c1.99,2.08,3.222,4.955,3.222,8.135v109.013c0,3.18-1.232,6.054-3.222,8.135c-1.99,2.08-4.733,3.363-7.763,3.363v0.6  c3.202,0,6.102-1.358,8.195-3.548c2.095-2.19,3.388-5.214,3.388-8.55V152.044c0-3.336-1.294-6.36-3.388-8.55  C274.482,141.305,271.582,139.947,268.381,139.947"
   id="path148"
   style="fill-opacity:0.30054644;fill:#f4eee9;stroke:none" />
<path
   d="M27.071,127.199h2.818v-7.087h-2.818V127.199 M32.706,127.199h2.817v-7.087h-2.817V127.199 M38.341,127.199h2.818v-7.087  h-2.818V127.199 M43.976,127.199h2.817v-7.087h-2.817V127.199 M49.611,127.199h2.817v-7.087h-2.817V127.199 M55.247,127.199h2.817  v-7.087h-2.817V127.199 M60.882,127.199h2.817v-7.087h-2.817V127.199 M66.517,127.199h2.818v-7.087h-2.818V127.199 M72.152,127.199  h2.818v-7.087h-2.818V127.199 M77.787,127.199h2.817v-7.087h-2.817V127.199 M83.422,127.199h2.818v-7.087h-2.818V127.199   M89.057,127.199h2.817v-7.087h-2.817V127.199 M94.693,127.199h2.817v-7.087h-2.817V127.199 M100.328,127.199h2.817v-7.087h-2.817  V127.199 M105.963,127.199h2.817v-7.087h-2.817V127.199 M111.598,127.199h2.818v-7.087h-2.818V127.199 M117.233,127.199h2.817  v-7.087h-2.817V127.199 M122.868,127.199h2.818v-7.087h-2.818V127.199 M128.503,127.199h2.817v-7.087h-2.817V127.199   M134.139,127.199h2.817v-7.087h-2.817V127.199 M139.774,127.199h2.818v-7.087h-2.818V127.199 M145.409,127.199h2.817v-7.087h-2.817  V127.199 M151.044,127.199h2.817v-7.087h-2.817V127.199 M156.679,127.199h2.817v-7.087h-2.817V127.199 M162.314,127.199h2.817  v-7.087h-2.817V127.199 M167.949,127.199h2.818v-7.087h-2.818V127.199 M173.585,127.199h2.817v-7.087h-2.817V127.199   M179.22,127.199h2.817v-7.087h-2.817V127.199 M184.855,127.199h2.817v-7.087h-2.817V127.199 M190.49,127.199h2.817v-7.087h-2.817  V127.199 M196.125,127.199h2.817v-7.087h-2.817V127.199 M201.76,127.199h2.818v-7.087h-2.818V127.199 M207.395,127.199h2.817v-7.087  h-2.817V127.199 M213.03,127.199h2.818v-7.087h-2.818V127.199 M218.666,127.199h2.817v-7.087h-2.817V127.199 M224.301,127.199h2.818  v-7.087h-2.818V127.199 M229.936,127.199h2.817v-7.087h-2.817V127.199 M235.571,127.199h2.817v-7.087h-2.817V127.199   M241.206,127.199h2.817v-7.087h-2.817V127.199 M246.841,127.199h2.817v-7.087h-2.817V127.199 M252.476,127.199h2.818v-7.087h-2.818  V127.199 M258.112,120.112v7.087h2.817v-7.087H258.112"
   id="path150"
   style="stroke:none;fill-opacity:1;fill:#000000" />
<path
   class="st2"
   d="M29.888,127.199L29.888,127.199h-2.818v0.624h2.818V127.199 M35.523,127.199L35.523,127.199h-2.817v0.624h2.817  V127.199 M41.159,127.199L41.159,127.199h-2.818v0.624h2.818V127.199 M46.794,127.199L46.794,127.199h-2.817v0.624h2.817V127.199   M52.429,127.199L52.429,127.199h-2.817v0.624h2.817V127.199 M58.064,127.199L58.064,127.199h-2.817v0.624h2.817V127.199   M63.699,127.199L63.699,127.199h-2.817v0.624h2.817V127.199 M69.334,127.199L69.334,127.199h-2.818v0.624h2.818V127.199   M74.969,127.199L74.969,127.199h-2.818v0.624h2.818V127.199 M80.605,127.199L80.605,127.199h-2.817v0.624h2.817V127.199   M86.24,127.199L86.24,127.199h-2.818v0.624h2.818V127.199 M91.875,127.199L91.875,127.199h-2.817v0.624h2.817V127.199   M97.51,127.199L97.51,127.199h-2.817v0.624h2.817V127.199 M103.145,127.199L103.145,127.199h-2.817v0.624h2.817V127.199   M108.78,127.199L108.78,127.199h-2.817v0.624h2.817V127.199 M114.415,127.199L114.415,127.199h-2.818v0.624h2.818V127.199   M120.051,127.199L120.051,127.199h-2.817v0.624h2.817V127.199 M125.686,127.199L125.686,127.199h-2.818v0.624h2.818V127.199   M131.321,127.199L131.321,127.199h-2.817v0.624h2.817V127.199 M136.956,127.199L136.956,127.199h-2.817v0.624h2.817V127.199   M142.591,127.199L142.591,127.199h-2.818v0.624h2.818V127.199 M148.226,127.199L148.226,127.199h-2.817v0.624h2.817V127.199   M153.861,127.199L153.861,127.199h-2.817v0.624h2.817V127.199 M159.497,127.199L159.497,127.199h-2.817v0.624h2.817V127.199   M165.132,127.199L165.132,127.199h-2.817v0.624h2.817V127.199 M170.767,127.199L170.767,127.199h-2.818v0.624h2.818V127.199   M176.402,127.199L176.402,127.199h-2.817v0.624h2.817V127.199 M182.037,127.199L182.037,127.199h-2.817v0.624h2.817V127.199   M187.672,127.199L187.672,127.199h-2.817v0.624h2.817V127.199 M193.307,127.199L193.307,127.199h-2.817v0.624h2.817V127.199   M198.943,127.199L198.943,127.199h-2.817v0.624h2.817V127.199 M204.578,127.199L204.578,127.199h-2.818v0.624h2.818V127.199   M210.213,127.199L210.213,127.199h-2.817v0.624h2.817V127.199 M215.848,127.199L215.848,127.199h-2.818v0.624h2.818V127.199   M221.483,127.199L221.483,127.199h-2.817v0.624h2.817V127.199 M227.118,127.199L227.118,127.199h-2.818v0.624h2.818V127.199   M232.753,127.199L232.753,127.199h-2.817v0.624h2.817V127.199 M238.389,127.199L238.389,127.199h-2.817v0.624h2.817V127.199   M244.024,127.199L244.024,127.199h-2.817v0.624h2.817V127.199 M249.659,127.199L249.659,127.199h-2.817v0.624h2.817V127.199   M255.294,127.199L255.294,127.199h-2.818v0.624h2.818V127.199 M260.929,127.199L260.929,127.199h-2.817v0.624h2.817V127.199"
   id="path152" />
</svg>
