<?xml version="1.0" encoding="UTF-8" standalone="no"?>
<!-- Generator: Adobe Illustrator 26.1.0, SVG Export Plug-In . SVG Version: 6.00 Build 0)  -->

<svg
   inkscape:version="1.3.2 (091e20e, 2023-11-25, custom)"
   sodipodi:docname="grain_engine_mk2_panel-dark.svg"
   xml:space="preserve"
   viewBox="0 0 288 364.252"
   height="128.5mm"
   width="101.6mm"
   y="0px"
   x="0px"
   id="Ebene_2"
   version="1.1"
   xmlns:inkscape="http://www.inkscape.org/namespaces/inkscape"
   xmlns:sodipodi="http://sodipodi.sourceforge.net/DTD/sodipodi-0.dtd"
   xmlns="http://www.w3.org/2000/svg"
   xmlns:svg="http://www.w3.org/2000/svg"><defs
   id="defs157" /><sodipodi:namedview
   id="namedview155"
   pagecolor="#ffffff"
   bordercolor="#666666"
   borderopacity="1.0"
   inkscape:pageshadow="2"
   inkscape:pageopacity="0.0"
   inkscape:pagecheckerboard="0"
   showgrid="false"
   inkscape:zoom="3.3894348"
   inkscape:cx="227.32404"
   inkscape:cy="198.7057"
   inkscape:window-width="3840"
   inkscape:window-height="2054"
   inkscape:window-x="2869"
   inkscape:window-y="-11"
   inkscape:window-maximized="1"
   inkscape:current-layer="Ebene_2"
   inkscape:document-units="mm"
   inkscape:showpageshadow="2"
   inkscape:deskcolor="#d1d1d1" />
<style
   type="text/css"
   id="style2">
	.st0{fill:#F3EDE7;}
	.st1{opacity:0.3;fill:#FBFAF8;}
	.st2{fill:#FFFFFF;}
</style>
<rect
   style="fill:#18181a;fill-opacity:1;stroke-width:0.725672"
   id="rect350"
   width="288.00003"
   height="364.25198"
   x="0"
   y="7.1054274e-15" /><path
   class="st0"
   d="m 141.641,13.427 h 0.384 c 0.112,0 0.169,-0.067 0.169,-0.168 V 9.676 c 0,-0.101 0.067,-0.168 0.169,-0.168 h 1.015 c 0.102,0 0.181,0.067 0.181,0.168 v 3.583 c 0,0.101 0.068,0.168 0.169,0.168 h 0.373 c 0.112,0 0.169,-0.067 0.169,-0.168 V 5.172 c 0,-0.101 -0.068,-0.168 -0.169,-0.168 h -0.373 c -0.112,0 -0.169,0.067 -0.169,0.168 v 3.481 c 0,0.101 -0.079,0.168 -0.181,0.168 h -1.015 c -0.102,0 -0.169,-0.067 -0.169,-0.168 V 5.172 c 0,-0.101 -0.067,-0.168 -0.169,-0.168 h -0.384 c -0.112,0 -0.169,0.067 -0.169,0.168 v 8.086 c 0,0.101 0.067,0.169 0.169,0.169 z m -5.02,-1.64 c 0,1.033 0.462,1.696 1.33,1.696 0.88,0 1.342,-0.674 1.342,-1.696 V 10.9 c 0,-0.101 -0.067,-0.168 -0.169,-0.168 h -0.384 c -0.102,0 -0.169,0.067 -0.169,0.168 v 0.674 c 0,0.831 -0.146,1.224 -0.62,1.224 -0.474,0 -0.608,-0.393 -0.608,-1.224 V 6.857 c 0,-0.831 0.135,-1.224 0.608,-1.224 0.473,0 0.62,0.393 0.62,1.224 v 0.674 c 0,0.101 0.067,0.168 0.169,0.168 h 0.384 c 0.102,0 0.169,-0.067 0.169,-0.168 V 6.644 c 0,-1.022 -0.462,-1.696 -1.342,-1.696 -0.868,0 -1.33,0.663 -1.33,1.696 z m -4.085,-6.266 c 0,0.112 0.067,0.168 0.169,0.168 h 0.439 c 0.102,0 0.169,0.067 0.169,0.168 v 7.401 c 0,0.101 0.068,0.168 0.17,0.168 h 0.372 c 0.112,0 0.169,-0.067 0.169,-0.168 V 5.857 c 0,-0.101 0.067,-0.168 0.169,-0.168 h 0.462 c 0.102,0 0.17,-0.067 0.17,-0.168 V 5.172 c 0,-0.112 -0.068,-0.168 -0.17,-0.168 h -1.95 c -0.102,0 -0.169,0.067 -0.169,0.168 z m -2.46,7.906 h 0.384 c 0.112,0 0.169,-0.067 0.169,-0.168 V 5.172 c 0,-0.101 -0.067,-0.168 -0.169,-0.168 h -0.384 c -0.112,0 -0.169,0.067 -0.169,0.168 v 8.086 c 0,0.101 0.068,0.169 0.169,0.169 z m -4.061,-0.169 c 0,0.101 0.067,0.168 0.169,0.168 h 1.646 c 0.102,0 0.169,-0.067 0.169,-0.168 v -0.314 c 0,-0.101 -0.067,-0.168 -0.169,-0.168 h -0.925 c -0.102,0 -0.169,-0.067 -0.169,-0.168 V 5.172 c 0,-0.101 -0.067,-0.168 -0.169,-0.168 h -0.384 c -0.112,0 -0.169,0.067 -0.169,0.168 v 8.086 z m -4.874,-1.471 c 0,1.033 0.462,1.696 1.33,1.696 0.88,0 1.319,-0.674 1.319,-1.696 V 9.384 c 0,-0.101 -0.067,-0.168 -0.169,-0.168 h -0.981 c -0.102,0 -0.169,0.067 -0.169,0.168 v 0.337 c 0,0.112 0.067,0.168 0.169,0.168 h 0.282 c 0.102,0 0.169,0.067 0.169,0.168 v 1.516 c 0,0.831 -0.146,1.224 -0.62,1.224 -0.474,0 -0.608,-0.393 -0.608,-1.224 V 6.857 c 0,-0.831 0.135,-1.224 0.608,-1.224 0.473,0 0.62,0.393 0.62,1.224 v 0.674 c 0,0.101 0.067,0.168 0.169,0.168 h 0.361 c 0.102,0 0.169,-0.067 0.169,-0.168 V 6.644 c 0,-1.022 -0.439,-1.696 -1.319,-1.696 -0.868,0 -1.33,0.663 -1.33,1.696 z m -4.333,1.64 h 0.451 c 0.079,0 0.146,-0.067 0.169,-0.168 l 0.598,-2.684 h 0.091 l 0.586,2.684 c 0.022,0.101 0.102,0.168 0.181,0.168 h 0.439 c 0.079,0 0.136,-0.067 0.113,-0.168 l -0.97,-3.976 0.011,-0.135 0.959,-3.976 c 0.022,-0.101 -0.034,-0.168 -0.113,-0.168 h -0.439 c -0.079,0 -0.146,0.067 -0.169,0.168 l -0.598,2.695 h -0.091 l -0.598,-2.695 c -0.022,-0.101 -0.09,-0.168 -0.169,-0.168 h -0.451 c -0.067,0 -0.135,0.067 -0.112,0.168 l 0.97,3.976 v 0.135 l -0.97,3.976 c -0.023,0.1 0.044,0.168 0.112,0.168 z m -3.882,-1.853 V 6.857 c 0,-0.831 0.135,-1.224 0.609,-1.224 0.485,0 0.62,0.393 0.62,1.224 v 4.717 c 0,0.831 -0.135,1.224 -0.62,1.224 -0.474,0 -0.609,-0.393 -0.609,-1.224 z m -0.722,0.213 c 0,1.033 0.462,1.696 1.331,1.696 0.88,0 1.342,-0.663 1.342,-1.696 V 6.644 c 0,-1.033 -0.462,-1.696 -1.342,-1.696 -0.868,0 -1.331,0.663 -1.331,1.696 z m -3.363,1.64 h 0.406 c 0.113,0 0.169,-0.056 0.191,-0.213 l 1.128,-8.007 c 0.022,-0.168 -0.068,-0.202 -0.169,-0.202 h -0.35 c -0.124,0 -0.191,0.034 -0.203,0.18 l -0.744,6.098 h -0.113 l -0.745,-6.098 c -0.011,-0.146 -0.079,-0.18 -0.203,-0.18 h -0.35 c -0.102,0 -0.192,0.034 -0.169,0.202 l 1.128,8.007 c 0.024,0.157 0.081,0.213 0.193,0.213 z"
   id="path4"
   style="fill:#f3ede7;fill-opacity:1;stroke:none" />
<path
   class="st0"
   d="m 200.37,5.167 v 8.018 H 148.433 V 5.167 h 51.937 m 0,-0.5 h -51.937 c -0.276,0 -0.5,0.224 -0.5,0.5 v 8.018 c 0,0.276 0.224,0.5 0.5,0.5 h 51.937 c 0.276,0 0.5,-0.224 0.5,-0.5 V 5.167 c 0,-0.276 -0.224,-0.5 -0.5,-0.5 z"
   id="path6"
   style="fill:#f3ede7;fill-opacity:1;stroke:none" />
<path
   class="st0"
   d="m 186.47,10.641 h -1.181 V 9.549 h 1.181 V 8.872 h -1.181 V 7.787 h 1.181 V 7.115 h -1.948 v 4.198 h 1.948 z m -3.043,-3.526 h -0.707 v 2.836 h -0.03 l -0.923,-2.836 h -1.014 v 4.198 h 0.707 V 8.476 h 0.03 l 0.924,2.836 h 1.013 z m -3.765,0 h -0.768 v 4.198 h 0.768 z m -3.056,4.258 c 0.882,0 1.235,-0.348 1.235,-1.559 V 8.89 h -1.312 v 0.672 h 0.545 v 0.39 c 0,0.618 -0.107,0.768 -0.468,0.768 h -0.054 c -0.197,0 -0.323,-0.06 -0.39,-0.18 -0.06,-0.126 -0.09,-0.348 -0.09,-0.666 V 8.566 c 0,-0.324 0.03,-0.545 0.09,-0.666 0.066,-0.126 0.192,-0.186 0.39,-0.186 h 0.042 c 0.294,0 0.42,0.132 0.45,0.612 h 0.785 c -0.048,-0.965 -0.438,-1.271 -1.224,-1.271 h -0.065 c -0.882,0 -1.241,0.348 -1.241,1.565 v 1.193 c 0,1.211 0.359,1.559 1.241,1.559 h 0.066 z m -2.358,-4.258 h -0.707 v 2.836 h -0.03 l -0.923,-2.836 h -1.014 v 4.198 h 0.707 V 8.476 h 0.03 l 0.924,2.836 h 1.013 z m -3.708,3.526 h -1.181 V 9.549 h 1.181 V 8.872 h -1.181 V 7.787 h 1.181 V 7.115 h -1.948 v 4.198 h 1.948 z m -4.518,-3.526 h -0.707 v 2.836 h -0.03 l -0.923,-2.836 h -1.014 v 4.198 h 0.707 V 8.476 h 0.03 l 0.924,2.836 h 1.013 z m -3.767,0 h -0.768 v 4.198 h 0.768 z m -3.144,0.803 0.336,1.829 h -0.702 l 0.336,-1.829 z m 0.563,-0.803 h -1.133 l -0.894,4.198 h 0.797 l 0.168,-0.899 h 0.966 l 0.174,0.899 h 0.815 z m -4.128,0.648 c 0.318,0 0.444,0.06 0.444,0.563 v 0.12 c 0,0.498 -0.12,0.558 -0.414,0.558 h -0.474 V 7.763 Z m -0.443,1.859 h 0.449 c 0.324,0 0.438,0.06 0.438,0.576 v 1.115 h 0.768 v -1.067 c 0,-0.756 -0.162,-0.888 -0.486,-0.959 v -0.03 c 0.324,-0.084 0.486,-0.27 0.486,-0.948 V 8.23 c 0,-0.935 -0.336,-1.115 -1.134,-1.115 h -1.289 v 4.198 h 0.768 z m -3.055,1.751 c 0.882,0 1.235,-0.348 1.235,-1.559 V 8.89 h -1.312 v 0.672 h 0.545 v 0.39 c 0,0.618 -0.107,0.768 -0.468,0.768 h -0.054 c -0.197,0 -0.323,-0.06 -0.39,-0.18 -0.06,-0.126 -0.09,-0.348 -0.09,-0.666 V 8.566 c 0,-0.324 0.03,-0.545 0.09,-0.666 0.066,-0.126 0.192,-0.186 0.39,-0.186 h 0.042 c 0.294,0 0.42,0.132 0.45,0.612 h 0.785 c -0.048,-0.965 -0.438,-1.271 -1.224,-1.271 h -0.065 c -0.882,0 -1.241,0.348 -1.241,1.565 v 1.193 c 0,1.211 0.359,1.559 1.241,1.559 h 0.066 z"
   id="path8"
   style="fill:#f3ede7;fill-opacity:1;stroke:none" />
<path
   class="st0"
   d="m 189.121,4.89 v 8.771 h 11.364 V 4.89 Z m 5.112,6.422 h -0.66 V 8.038 h -0.029 l -0.486,3.274 h -0.546 l -0.491,-3.274 h -0.03 v 3.274 h -0.653 V 7.115 h 1.109 l 0.348,2.567 h 0.03 l 0.348,-2.567 h 1.062 v 4.197 z m 1.795,0 -0.438,-1.631 h -0.024 l -0.216,0.54 v 1.091 h -0.695 V 7.115 h 0.695 V 9.01 h 0.024 l 0.653,-1.895 h 0.731 l -0.689,1.721 0.708,2.477 h -0.749 z m 2.832,-3.256 c 0,0.558 -0.072,0.768 -0.414,1.182 l -0.521,0.611 c -0.192,0.24 -0.246,0.378 -0.246,0.798 v 0.084 h 1.182 v 0.582 h -1.841 v -0.624 c 0,-0.606 0.06,-0.816 0.407,-1.229 l 0.492,-0.576 c 0.246,-0.282 0.275,-0.384 0.275,-0.755 V 8.086 c 0,-0.366 -0.048,-0.468 -0.258,-0.468 -0.191,0 -0.258,0.078 -0.258,0.666 h -0.659 c 0,-1.007 0.233,-1.229 0.894,-1.229 h 0.054 c 0.665,0 0.894,0.288 0.894,0.954 v 0.047 z"
   id="path10"
   style="fill:#f3ede7;fill-opacity:1;stroke:none" />
<path
   class="st0"
   d="M 103.099,4.265 96.885,3.77 C 96.77,3.761 96.669,3.844 96.656,3.959 l -0.252,2.174 1.058,0.32 -1.834,2.955 -1.834,-2.955 1.058,-0.32 -0.254,-2.176 C 94.585,3.842 94.483,3.759 94.369,3.768 l -6.23,0.497 c -0.196,0.016 -0.364,0.148 -0.425,0.336 l -1.043,3.223 c -0.053,0.163 -0.017,0.342 0.095,0.471 l 5.492,6.364 c 0.092,0.107 0.227,0.169 0.368,0.169 h 5.986 c 0.141,0 0.276,-0.062 0.368,-0.169 l 5.494,-6.364 c 0.112,-0.13 0.148,-0.308 0.095,-0.471 l -1.046,-3.222 c -0.06,-0.189 -0.228,-0.321 -0.424,-0.337 z m -5.457,8.608 h -4.045 c -0.15,0 -0.293,-0.07 -0.385,-0.189 L 89.385,7.73 C 89.302,7.623 89.267,7.485 89.289,7.351 l 0.158,-0.97 C 89.47,6.24 89.607,6.149 89.745,6.183 l 0.953,0.234 c 0.131,0.032 0.243,0.118 0.309,0.236 l 2.789,5.011 0.213,0.125 h 3.237 l 0.213,-0.126 2.772,-5.009 c 0.066,-0.119 0.179,-0.205 0.311,-0.238 l 0.952,-0.232 c 0.138,-0.034 0.275,0.057 0.298,0.198 l 0.159,0.967 c 0.022,0.134 -0.013,0.272 -0.096,0.379 l -3.829,4.953 c -0.091,0.122 -0.233,0.192 -0.384,0.192 z"
   id="path12"
   style="fill:#f3ede7;fill-opacity:1;stroke:none" />
<path
   class="st0"
   d="m 6.395,18.941 h 275.211 c 0.138,0 0.25,-0.112 0.25,-0.25 0,-0.138 -0.112,-0.25 -0.25,-0.25 H 6.395 c -0.138,0 -0.25,0.112 -0.25,0.25 0,0.138 0.112,0.25 0.25,0.25"
   id="path14"
   style="fill:#f3ede7;fill-opacity:1;stroke:none" />
<path
   class="st0"
   d="m 249.434,70.849 h 44.898 c 0.138,0 0.25,-0.112 0.25,-0.25 0,-0.138 -0.112,-0.25 -0.25,-0.25 h -44.898 c -0.138,0 -0.25,0.112 -0.25,0.25 0,0.138 0.112,0.25 0.25,0.25"
   id="path16"
   style="fill:#f3ede7;fill-opacity:1;stroke:none" />
<path
   class="st0"
   d="m 250.165,74.424 h 44.167 c 0.138,0 0.25,-0.112 0.25,-0.25 0,-0.138 -0.112,-0.25 -0.25,-0.25 h -44.167 c -0.138,0 -0.25,0.112 -0.25,0.25 0,0.138 0.112,0.25 0.25,0.25"
   id="path18"
   style="fill:#f3ede7;fill-opacity:1;stroke:none" />
<path
   class="st0"
   d="m 251.082,77.999 h 43.25 c 0.138,0 0.25,-0.112 0.25,-0.25 0,-0.138 -0.112,-0.25 -0.25,-0.25 h -43.25 c -0.138,0 -0.25,0.112 -0.25,0.25 0,0.138 0.112,0.25 0.25,0.25"
   id="path20"
   style="fill:#f3ede7;fill-opacity:1;stroke:none" />
<path
   class="st0"
   d="m 158.333,35.881 h 78.496 c 2.527,0 4.719,1.747 5.283,4.211 l 15.407,67.351 c 0.094,0.411 0.139,0.82 0.139,1.22 0,1.453 -0.59,2.805 -1.564,3.795 -0.974,0.989 -2.327,1.613 -3.858,1.613 H 110.641 c -1.497,0 -2.851,-0.606 -3.832,-1.587 -0.981,-0.981 -1.587,-2.335 -1.587,-3.832 V 41.3 c 0,-1.497 0.606,-2.851 1.587,-3.832 0.981,-0.981 2.335,-1.587 3.832,-1.587 h 18.41 v -0.5 h -18.41 c -3.269,0 -5.919,2.65 -5.919,5.919 v 67.351 c 0,3.269 2.65,5.919 5.919,5.919 h 141.595 c 3.342,-10e-4 5.916,-2.728 5.922,-5.907 0,-0.438 -0.049,-0.884 -0.151,-1.332 L 242.599,39.98 c -0.616,-2.691 -3.01,-4.599 -5.77,-4.599 h -78.496 z"
   id="path22"
   style="fill:#f3ede7;fill-opacity:1;stroke:none" />
<path
   class="st0"
   d="m 88.211,35.881 h 3.307 c 1.497,0 2.851,0.606 3.832,1.587 0.981,0.981 1.587,2.335 1.587,3.832 v 67.351 c 0,1.497 -0.606,2.851 -1.587,3.832 -0.981,0.981 -2.335,1.587 -3.832,1.587 h -56.74 c -1.531,0 -2.884,-0.624 -3.858,-1.613 -0.974,-0.989 -1.564,-2.341 -1.564,-3.795 0,-0.401 0.045,-0.809 0.139,-1.22 L 44.902,40.091 c 0.564,-2.464 2.755,-4.211 5.283,-4.211 h 6.774 v -0.5 h -6.774 c -2.761,0 -5.155,1.908 -5.77,4.599 L 29.008,107.33 c -0.102,0.448 -0.151,0.894 -0.151,1.332 0.006,3.179 2.58,5.906 5.922,5.907 H 91.52 c 3.269,0 5.919,-2.65 5.919,-5.919 V 41.3 c 0,-3.269 -2.65,-5.919 -5.919,-5.919 h -3.307 v 0.5 z"
   id="path24"
   style="fill:#f3ede7;fill-opacity:1;stroke:none" />
<path
   class="st0"
   d="m 152.404,35.931 c 2.255,0 3.222,-0.35 3.222,-1.695 V 34.18 c 0,-0.903 -0.462,-1.239 -2.143,-1.31 l -2.248,-0.07 c -0.498,-0.021 -0.609,-0.126 -0.609,-0.35 v -0.014 c 0,-0.308 0.259,-0.434 1.457,-0.434 1.037,0 1.457,0.098 1.59,0.434 h 1.87 c -0.259,-1.338 -1.59,-1.548 -3.201,-1.548 h -0.35 c -2.22,0 -3.138,0.364 -3.138,1.597 v 0.07 c 0,0.931 0.476,1.295 2.143,1.352 l 2.27,0.077 c 0.483,0.021 0.609,0.119 0.609,0.343 v 0.035 c -0.014,0.364 -0.357,0.456 -1.597,0.456 -1.163,0 -1.59,-0.07 -1.73,-0.371 h -1.863 c 0.245,1.289 1.59,1.484 3.222,1.484 z m -8.918,-1.219 c -1.583,0 -1.821,-0.322 -1.821,-1.219 v -0.161 c 0,-0.911 0.238,-1.226 1.821,-1.226 h 0.231 c 1.583,0 1.828,0.315 1.828,1.226 v 0.161 c 0,0.896 -0.245,1.219 -1.828,1.219 z m 0.49,1.219 c 2.416,0 3.341,-0.567 3.341,-2.367 v -0.308 c 0,-1.8 -0.925,-2.367 -3.341,-2.367 h -0.75 c -2.417,0 -3.334,0.567 -3.334,2.367 v 0.308 c 0,1.8 0.917,2.367 3.334,2.367 z m -8.029,-3.817 c 0.784,0 0.945,0.14 0.945,0.567 v 0.063 c 0,0.42 -0.147,0.561 -0.938,0.561 h -2.36 v -1.191 z m -2.353,2.353 h 2.62 c 1.765,0 2.416,-0.519 2.416,-1.688 v -0.098 c 0,-1.317 -0.686,-1.723 -2.416,-1.723 h -4.356 v 4.903 h 1.737 v -1.394 z"
   id="path26"
   style="fill:#f3ede7;fill-opacity:1;stroke:none" />
<polyline
   class="st0"
   points="174.84,74.444 218.416,74.444 218.416,73.944 174.84,73.944 "
   id="polyline28"
   style="fill:#f3ede7;fill-opacity:1;stroke:none" />
<circle
   class="st0"
   cx="218.549"
   cy="74.194"
   r="2.4579999"
   id="circle30"
   style="fill:#f3ede7;fill-opacity:1;stroke:none" />
<path
   class="st0"
   d="m 83.59,32.036 c 0.616,0 0.812,0.154 0.812,0.651 v 0.042 c 0,0.469 -0.196,0.623 -0.701,0.623 h -1.324 v -1.316 z m -1.212,2.213 h 1.205 c 0.645,0 0.82,0.119 0.82,0.672 v 1.114 h 1.085 v -1.184 c 0,-0.854 -0.231,-1.03 -0.75,-1.114 v -0.049 c 0.525,-0.084 0.75,-0.406 0.75,-1.135 v -0.126 c 0,-0.953 -0.448,-1.296 -1.667,-1.296 h -2.528 v 4.903 h 1.085 z m -2.603,0.876 h -2.563 v -1.092 h 2.563 v -0.904 h -2.563 v -1.085 h 2.563 v -0.911 h -3.649 v 4.903 h 3.649 z m -6.489,-3.054 h 1.513 v -0.938 h -4.097 v 0.938 h 1.492 v 3.964 h 1.093 v -3.964 z m -5.201,0 h 1.513 V 31.133 H 65.5 v 0.938 h 1.492 v 3.964 h 1.093 z m -3.914,-0.939 h -1.085 v 4.903 h 1.085 z m -4.515,4.903 c 1.506,0 1.884,-0.511 1.884,-2.003 v -2.9 h -1.1 v 2.963 c 0,0.812 -0.196,1.001 -1.1,1.001 h -0.469 v 0.938 h 0.785 z"
   id="path32"
   style="fill:#f3ede7;fill-opacity:1;stroke:none" />
<path
   class="st0"
   d="m 45.924,302.862 0.672,-0.679 h 0.049 l 1.463,2.157 h 1.324 l -2.01,-2.949 1.954,-1.954 h -1.359 l -2.052,2.087 h -0.042 v -2.087 h -1.085 v 4.903 h 1.085 v -1.478 z m -2.463,0.54 h -2.325 v -3.964 H 40.05 v 4.903 h 3.411 z m -7.043,1.008 c 1.345,0 1.94,-0.532 2.165,-1.646 h -1.114 c -0.14,0.504 -0.477,0.7 -1.085,0.7 h -0.091 c -0.974,0 -1.148,-0.539 -1.148,-1.429 v -0.294 c 0,-0.889 0.175,-1.429 1.148,-1.429 h 0.091 c 0.609,0 0.945,0.196 1.085,0.701 h 1.114 c -0.224,-1.114 -0.82,-1.646 -2.165,-1.646 h -0.161 c -1.583,0 -2.213,0.687 -2.213,2.304 v 0.434 c 0,1.618 0.63,2.304 2.213,2.304 h 0.161 z m -7.398,-4.034 h 1.513 v -0.938 h -4.097 v 0.938 h 1.492 v 3.964 h 1.093 v -3.964 z m -5.257,1.457 1.611,-2.396 h -1.232 l -1.064,1.618 H 23.043 L 22,299.437 h -1.317 l 1.597,2.375 -1.681,2.528 h 1.232 l 1.142,-1.751 h 0.035 l 1.114,1.751 h 1.324 z m -4.396,1.597 h -2.563 v -1.092 h 2.563 v -0.904 h -2.563 v -1.085 h 2.563 v -0.911 h -3.649 v 4.903 h 3.649 z"
   id="path34"
   style="fill:#f4eee9;fill-opacity:1;stroke:none" />
<path
   class="st0"
   d="m 96.116,299.438 h -1.071 v 3.726 h -0.042 l -1.919,-3.726 h -1.681 v 4.903 h 1.071 v -3.719 h 0.042 l 1.926,3.719 h 1.674 z m -8.632,0.91 0.693,1.961 h -1.436 l 0.693,-1.961 z m 0.812,-0.91 h -1.639 l -1.793,4.903 h 1.163 l 0.399,-1.121 h 2.066 l 0.399,1.121 h 1.205 z m -5.74,0.889 c 0.588,0 0.771,0.196 0.771,0.75 v 0.07 c 0,0.54 -0.168,0.75 -0.764,0.75 h -1.261 v -1.569 h 1.254 z m -1.254,2.459 h 1.429 c 1.198,0 1.681,-0.498 1.681,-1.562 v -0.21 c 0,-1.156 -0.483,-1.576 -1.681,-1.576 h -2.514 v 4.903 h 1.085 z"
   id="path36"
   style="fill:#f4eee9;fill-opacity:1;stroke:none" />
<path
   class="st0"
   d="m 181.905,299.438 h -1.751 l -1.177,3.306 h -0.049 l -1.156,-3.306 h -1.856 v 4.903 h 1.064 v -3.887 h 0.042 l 1.394,3.887 h 0.966 l 1.408,-3.887 h 0.042 v 3.887 h 1.072 v -4.903 z m -7.598,0 h -1.085 v 4.903 h 1.085 z m -4.535,0.903 c 0.616,0 0.812,0.154 0.812,0.651 v 0.042 c 0,0.469 -0.196,0.623 -0.701,0.623 h -1.324 v -1.316 z m -1.212,2.213 h 1.205 c 0.645,0 0.82,0.119 0.82,0.672 v 1.114 h 1.085 v -1.184 c 0,-0.854 -0.231,-1.03 -0.75,-1.114 v -0.049 c 0.525,-0.084 0.75,-0.406 0.75,-1.135 v -0.126 c 0,-0.953 -0.448,-1.296 -1.667,-1.296 h -2.528 v 4.903 h 1.085 z m -3.926,-2.178 h 1.513 v -0.938 h -4.097 v 0.938 h 1.492 v 3.964 h 1.093 v -3.964 z"
   id="path38"
   style="fill:#f4eee9;fill-opacity:1;stroke:none" />
<path
   class="st0"
   d="m 227.751,303.402 h -2.325 v -3.964 h -1.085 v 4.903 h 3.411 v -0.939 z m -8.519,-3.026 h 1.513 v -0.938 h -4.097 v 0.938 h 1.492 v 3.964 h 1.093 v -3.964 z m -5.929,4.034 c 1.513,0 2.094,-0.518 2.094,-2.031 v -2.942 h -1.106 v 2.879 c 0,0.847 -0.238,1.121 -0.96,1.121 h -0.154 c -0.722,0 -0.959,-0.266 -0.959,-1.121 v -2.879 h -1.107 v 2.942 c 0,1.513 0.575,2.031 2.094,2.031 z m -6.041,-0.945 c -0.974,0 -1.177,-0.539 -1.177,-1.429 v -0.294 c 0,-0.889 0.203,-1.429 1.177,-1.429 h 0.119 c 0.967,0 1.17,0.54 1.17,1.429 v 0.294 c 0,0.903 -0.203,1.415 -1.17,1.429 z m 0.105,0.945 c 1.576,0 2.283,-0.686 2.283,-2.304 v -0.427 c 0,-1.618 -0.708,-2.311 -2.283,-2.311 h -0.091 c -1.59,0 -2.29,0.693 -2.29,2.311 v 0.427 c 0,1.618 0.7,2.304 2.29,2.304 z"
   id="path40"
   style="fill:#f4eee9;fill-opacity:1;stroke:none" />
<path
   class="st0"
   d="m 265.002,300.341 c 0.616,0 0.812,0.154 0.812,0.651 v 0.042 c 0,0.469 -0.196,0.623 -0.701,0.623 h -1.324 v -1.316 z m -1.212,2.213 h 1.205 c 0.645,0 0.82,0.119 0.82,0.672 v 1.114 h 1.085 v -1.184 c 0,-0.854 -0.231,-1.03 -0.75,-1.114 v -0.049 c 0.525,-0.084 0.75,-0.406 0.75,-1.135 v -0.126 c 0,-0.953 -0.448,-1.296 -1.667,-1.296 h -2.528 v 4.903 h 1.085 z m -6.194,-2.178 h 1.513 v -0.938 h -4.097 v 0.938 h 1.492 v 3.964 h 1.093 v -3.964 z m -5.929,4.034 c 1.513,0 2.094,-0.518 2.094,-2.031 v -2.942 h -1.106 v 2.879 c 0,0.847 -0.238,1.121 -0.96,1.121 h -0.154 c -0.722,0 -0.959,-0.266 -0.959,-1.121 v -2.879 h -1.107 v 2.942 c 0,1.513 0.575,2.031 2.094,2.031 z m -6.041,-0.945 c -0.974,0 -1.177,-0.539 -1.177,-1.429 v -0.294 c 0,-0.889 0.203,-1.429 1.177,-1.429 h 0.119 c 0.967,0 1.17,0.54 1.17,1.429 v 0.294 c 0,0.903 -0.203,1.415 -1.17,1.429 z m 0.105,0.945 c 1.576,0 2.283,-0.686 2.283,-2.304 v -0.427 c 0,-1.618 -0.708,-2.311 -2.283,-2.311 h -0.091 c -1.59,0 -2.29,0.693 -2.29,2.311 v 0.427 c 0,1.618 0.7,2.304 2.29,2.304 z"
   id="path42"
   style="fill:#f4eee9;fill-opacity:1;stroke:none" />
<path
   class="st0"
   d="m 39.499,139.668 h -1.38 v -1.274 h 1.38 v -0.792 h -1.38 v -1.268 h 1.38 v -0.785 h -2.276 v 4.903 h 2.276 z m -4.376,-3.319 h 0.91 V 135.55 H 33.33 v 0.799 h 0.889 v 4.104 h 0.904 z m -4.032,0.14 0.392,2.136 h -0.819 l 0.392,-2.136 z m 0.658,-0.939 h -1.324 l -1.043,4.903 h 0.932 l 0.196,-1.051 h 1.128 l 0.203,1.051 h 0.953 z m -4.956,0.757 c 0.371,0 0.518,0.07 0.518,0.658 v 0.14 c 0,0.581 -0.14,0.651 -0.483,0.651 h -0.553 v -1.45 h 0.518 z m -0.519,2.171 H 26.8 c 0.378,0 0.511,0.07 0.511,0.672 v 1.303 h 0.896 v -1.247 c 0,-0.883 -0.189,-1.037 -0.567,-1.121 v -0.035 c 0.378,-0.098 0.567,-0.315 0.567,-1.106 v -0.091 c 0,-1.092 -0.392,-1.303 -1.324,-1.303 h -1.506 v 4.903 h 0.896 v -1.975 z"
   id="path44"
   style="fill:#f4eee9;fill-opacity:1;stroke:none" />
<path
   class="st0"
   d="M 100.716,135.55 H 99.82 l -0.448,3.824 H 99.33 l -0.609,-3.824 h -0.953 l -0.616,3.824 h -0.035 l -0.448,-3.824 h -0.932 l 0.743,4.903 h 1.211 l 0.553,-3.187 0.532,3.187 h 1.205 z m -7.429,4.21 c -0.231,0 -0.378,-0.07 -0.456,-0.217 -0.07,-0.147 -0.105,-0.406 -0.105,-0.777 v -1.52 c 0,-0.378 0.035,-0.638 0.105,-0.778 0.077,-0.147 0.224,-0.217 0.456,-0.217 h 0.049 c 0.231,0 0.378,0.07 0.448,0.217 0.077,0.14 0.112,0.399 0.112,0.778 v 1.52 c 0,0.371 -0.035,0.63 -0.112,0.777 -0.07,0.147 -0.217,0.217 -0.448,0.217 z m 0.063,0.763 c 1.037,0 1.45,-0.406 1.45,-1.821 v -1.394 c 0,-1.422 -0.413,-1.828 -1.45,-1.828 h -0.077 c -1.03,0 -1.45,0.406 -1.45,1.828 v 1.394 c 0,1.415 0.42,1.821 1.45,1.821 z m -4.193,-4.216 c 0.448,0 0.574,0.252 0.574,1.008 v 1.38 c 0,0.75 -0.133,1.001 -0.574,1.001 h -0.519 v -3.39 h 0.519 z m 1.477,1.071 c 0,-1.408 -0.434,-1.828 -1.464,-1.828 h -1.429 v 4.903 h 1.429 c 1.03,0 1.464,-0.42 1.464,-1.821 z m -4.165,-1.828 h -0.826 v 3.313 h -0.035 l -1.079,-3.313 h -1.184 v 4.903 h 0.827 v -3.313 h 0.035 l 1.079,3.313 h 1.184 v -4.903 z m -4.397,0 h -0.896 v 4.903 h 0.896 z m -1.971,0 h -0.896 l -0.448,3.824 h -0.042 l -0.609,-3.824 h -0.953 l -0.616,3.824 H 76.5 L 76.052,135.55 H 75.12 l 0.743,4.903 h 1.211 l 0.553,-3.187 0.532,3.187 h 1.205 z"
   id="path46"
   style="fill:#f4eee9;fill-opacity:1;stroke:none" />
<path
   class="st0"
   d="m 153.8,140.523 c 0.896,0 1.359,-0.329 1.359,-1.45 v -0.098 c 0,-0.931 -0.28,-1.253 -1.051,-1.352 l -0.35,-0.042 c -0.399,-0.049 -0.49,-0.203 -0.49,-0.63 v -0.098 c 0,-0.483 0.126,-0.623 0.462,-0.623 0.329,0 0.469,0.112 0.497,0.693 h 0.911 c -0.028,-1.093 -0.477,-1.443 -1.359,-1.443 h -0.084 c -0.924,0 -1.331,0.35 -1.331,1.443 V 137 c 0,0.931 0.287,1.253 1.058,1.352 l 0.35,0.042 c 0.399,0.056 0.49,0.196 0.49,0.637 v 0.119 c 0,0.497 -0.14,0.63 -0.498,0.63 -0.301,0 -0.483,-0.105 -0.511,-0.658 h -0.917 c 0.021,0.525 0.147,0.896 0.378,1.1 0.231,0.203 0.574,0.301 1.016,0.301 z m -2.758,-4.973 h -0.826 v 3.313 h -0.035 l -1.079,-3.313 h -1.184 v 4.903 h 0.827 v -3.313 h 0.035 l 1.079,3.313 h 1.184 v -4.903 z m -4.536,0 h -0.896 v 4.903 h 0.896 z m -3.808,0.939 0.392,2.136 h -0.819 l 0.392,-2.136 z m 0.658,-0.939 h -1.324 l -1.043,4.903 h 0.932 l 0.196,-1.051 h 1.128 l 0.203,1.051 h 0.953 z m -4.956,0.757 c 0.371,0 0.518,0.07 0.518,0.658 v 0.14 c 0,0.581 -0.14,0.651 -0.483,0.651 h -0.553 v -1.45 h 0.518 z m -0.518,2.171 h 0.525 c 0.378,0 0.511,0.07 0.511,0.672 v 1.303 h 0.896 v -1.247 c 0,-0.883 -0.189,-1.037 -0.567,-1.121 v -0.035 c 0.378,-0.098 0.567,-0.315 0.567,-1.106 v -0.091 c 0,-1.092 -0.392,-1.303 -1.324,-1.303 h -1.506 v 4.903 h 0.896 v -1.975 z m -3.703,2.045 c 1.029,0 1.442,-0.406 1.442,-1.821 v -1.079 h -1.534 v 0.785 h 0.637 v 0.455 c 0,0.721 -0.126,0.896 -0.546,0.896 h -0.063 c -0.231,0 -0.378,-0.07 -0.456,-0.21 -0.07,-0.147 -0.105,-0.406 -0.105,-0.778 v -1.526 c 0,-0.378 0.035,-0.638 0.105,-0.778 0.077,-0.147 0.224,-0.217 0.456,-0.217 h 0.049 c 0.343,0 0.49,0.154 0.525,0.714 h 0.917 c -0.056,-1.128 -0.511,-1.485 -1.429,-1.485 H 134.1 c -1.03,0 -1.45,0.406 -1.45,1.828 v 1.394 c 0,1.415 0.42,1.821 1.45,1.821 h 0.079 z"
   id="path48"
   style="fill:#f4eee9;fill-opacity:1;stroke:none" />
<path
   class="st0"
   d="m 208.309,135.55 h -0.896 v 2.052 h -1.142 v -2.052 h -0.896 v 4.903 h 0.896 v -2.059 h 1.142 v 2.059 h 0.896 z m -5.691,4.973 c 0.952,0 1.337,-0.371 1.408,-1.646 h -0.904 c -0.042,0.728 -0.189,0.882 -0.532,0.882 h -0.042 c -0.231,0 -0.378,-0.07 -0.448,-0.217 -0.07,-0.147 -0.105,-0.406 -0.105,-0.777 v -1.52 c 0,-0.757 0.098,-0.995 0.553,-0.995 h 0.042 c 0.343,0 0.49,0.147 0.532,0.875 h 0.904 c -0.07,-1.275 -0.456,-1.646 -1.408,-1.646 h -0.105 c -1.029,0 -1.421,0.42 -1.421,1.821 v 1.401 c 0,1.401 0.392,1.821 1.421,1.821 h 0.105 z m -3.5,-4.174 h 0.91 v -0.799 h -2.703 v 0.799 h 0.889 v 4.104 h 0.904 z m -2.976,-0.799 h -0.896 v 4.903 h 0.896 z m -3.598,0.75 c 0.364,0 0.504,0.091 0.504,0.729 v 0.336 c 0,0.63 -0.133,0.729 -0.504,0.729 h -0.532 V 136.3 Z m -0.532,2.528 h 0.609 c 0.917,0 1.324,-0.238 1.324,-1.499 v -0.28 c 0,-1.289 -0.392,-1.499 -1.324,-1.499 h -1.506 v 4.903 h 0.896 v -1.625 z"
   id="path50"
   style="fill:#f4eee9;fill-opacity:1;stroke:none" />
<path
   class="st0"
   d="m 267.338,139.668 h -1.38 v -1.274 h 1.38 v -0.792 h -1.38 v -1.268 h 1.38 v -0.785 h -2.276 v 4.903 h 2.276 z m -3.486,-0.006 h -1.205 v -4.111 h -0.896 v 4.903 h 2.101 z m -4.803,-3.362 c 0.364,0 0.504,0.091 0.504,0.729 v 0.336 c 0,0.63 -0.133,0.729 -0.504,0.729 h -0.532 V 136.3 Z m -0.532,2.528 h 0.609 c 0.917,0 1.324,-0.238 1.324,-1.499 v -0.28 c 0,-1.289 -0.392,-1.499 -1.324,-1.499 h -1.506 v 4.903 h 0.896 v -1.625 z m -2.309,-3.278 h -1.394 l -0.645,3.096 h -0.042 l -0.637,-3.096 h -1.464 v 4.903 h 0.861 v -3.845 h 0.035 l 0.827,3.845 h 0.735 l 0.819,-3.845 h 0.042 v 3.845 h 0.861 v -4.903 z m -7.092,0.939 0.392,2.136 h -0.819 l 0.392,-2.136 z m 0.658,-0.939 h -1.324 l -1.043,4.903 h 0.932 l 0.196,-1.051 h 1.128 l 0.203,1.051 h 0.953 z m -4.76,4.973 c 0.896,0 1.359,-0.329 1.359,-1.45 v -0.098 c 0,-0.931 -0.28,-1.253 -1.051,-1.352 l -0.35,-0.042 c -0.399,-0.049 -0.49,-0.203 -0.49,-0.63 v -0.098 c 0,-0.483 0.126,-0.623 0.462,-0.623 0.329,0 0.469,0.112 0.497,0.693 h 0.911 c -0.028,-1.093 -0.477,-1.443 -1.359,-1.443 h -0.084 c -0.924,0 -1.331,0.35 -1.331,1.443 V 137 c 0,0.931 0.287,1.253 1.058,1.352 l 0.35,0.042 c 0.399,0.056 0.49,0.196 0.49,0.637 v 0.119 c 0,0.497 -0.14,0.63 -0.498,0.63 -0.301,0 -0.483,-0.105 -0.511,-0.658 h -0.917 c 0.021,0.525 0.147,0.896 0.378,1.1 0.231,0.203 0.574,0.301 1.016,0.301 z"
   id="path52"
   style="fill:#f4eee9;fill-opacity:1;stroke:none" />
<path
   class="st0"
   d="m 228.894,60.493 c 0.059,-0.243 0.11,-0.488 0.156,-0.736 l -2.488,-0.565 c 0.113,-0.648 0.176,-1.313 0.176,-1.993 0,-1.421 -0.259,-2.781 -0.73,-4.038 l 2.38,-0.935 c -0.089,-0.235 -0.184,-0.467 -0.285,-0.696 l -2.384,0.936 c -0.84,-1.86 -2.158,-3.455 -3.8,-4.631 l 1.446,-2.117 c -0.204,-0.145 -0.412,-0.285 -0.624,-0.42 l -1.447,2.118 c -1.663,-1.035 -3.61,-1.656 -5.697,-1.723 v -2.566 c -0.125,-0.003 -0.25,-0.01 -0.376,-0.01 -0.126,0 -0.251,0.006 -0.376,0.01 v 2.566 c -2.087,0.067 -4.033,0.688 -5.697,1.723 l -1.447,-2.118 c -0.212,0.134 -0.42,0.274 -0.624,0.42 l 1.446,2.117 c -1.641,1.176 -2.96,2.772 -3.8,4.631 l -2.384,-0.936 c -0.101,0.229 -0.196,0.461 -0.285,0.696 l 2.38,0.935 c -0.471,1.257 -0.73,2.617 -0.73,4.038 0,0.68 0.062,1.345 0.176,1.993 l -2.488,0.565 c 0.046,0.248 0.098,0.493 0.156,0.736 l 2.485,-0.565 c 0.5,2.054 1.549,3.893 2.984,5.349 l -1.731,1.865 c 0.177,0.177 0.361,0.348 0.547,0.516 l 2.351,-2.532 -0.551,-0.512 -0.003,0.003 c -1.872,-1.915 -3.026,-4.529 -3.026,-7.419 0,-2.933 1.188,-5.584 3.109,-7.507 1.923,-1.922 4.574,-3.109 7.507,-3.109 2.933,0 5.584,1.188 7.507,3.109 1.922,1.923 3.109,4.574 3.109,7.507 0,2.889 -1.154,5.503 -3.026,7.419 l -0.003,-0.003 -0.551,0.512 2.35,2.532 c 0.187,-0.167 0.37,-0.339 0.548,-0.516 l -1.731,-1.865 c 1.435,-1.456 2.484,-3.295 2.984,-5.349 z"
   id="path54"
   style="fill:#f3ede7;fill-opacity:1;stroke:none" />
<path
   class="st0"
   d="m 200.714,66.841 c -0.479,0 -0.634,-0.21 -0.634,-1.093 v -1.632 c 0,-0.883 0.155,-1.1 0.634,-1.1 0.471,0 0.626,0.217 0.626,1.1 v 1.632 c 0,0.883 -0.148,1.093 -0.626,1.093 z m 0.042,0.61 c 0.887,0 1.287,-0.371 1.287,-1.758 v -1.521 c 0,-1.4 -0.394,-1.765 -1.287,-1.765 h -0.085 c -0.886,0 -1.287,0.364 -1.287,1.765 v 1.521 c 0,1.387 0.401,1.758 1.287,1.758 z"
   id="path56"
   style="fill:#f3ede7;fill-opacity:1;stroke:none" />
<polygon
   class="st0"
   points="229.084,62.478 228.296,62.876 228.296,63.62 229.218,63.101 229.253,63.101 229.253,66.764 228.24,66.764 228.24,67.38 230.843,67.38 230.843,66.764 229.949,66.764 229.949,62.478 "
   id="polygon58"
   style="fill:#f3ede7;fill-opacity:1;stroke:none" />
<path
   class="st0"
   d="m 85.945,60.493 c 0.058,-0.243 0.11,-0.488 0.156,-0.736 l -2.488,-0.565 c 0.113,-0.648 0.176,-1.313 0.175,-1.993 0,-1.421 -0.259,-2.781 -0.73,-4.038 l 2.38,-0.935 C 85.349,51.991 85.254,51.759 85.153,51.53 l -2.384,0.936 c -0.84,-1.86 -2.158,-3.455 -3.8,-4.631 l 1.446,-2.117 c -0.204,-0.145 -0.412,-0.285 -0.624,-0.42 l -1.447,2.118 c -1.663,-1.035 -3.61,-1.656 -5.697,-1.723 v -2.566 c -0.125,-0.003 -0.25,-0.01 -0.376,-0.01 -0.126,0 -0.251,0.006 -0.376,0.01 v 2.566 c -2.087,0.067 -4.033,0.688 -5.697,1.723 l -1.447,-2.118 c -0.212,0.134 -0.42,0.274 -0.624,0.42 l 1.446,2.117 c -1.641,1.176 -2.96,2.772 -3.8,4.631 L 59.389,51.53 c -0.101,0.229 -0.196,0.461 -0.285,0.696 l 2.38,0.935 c -0.471,1.257 -0.73,2.617 -0.73,4.038 0,0.68 0.062,1.345 0.175,1.993 l -2.488,0.565 c 0.046,0.248 0.098,0.493 0.156,0.736 l 2.485,-0.565 c 0.5,2.054 1.549,3.893 2.984,5.349 l -1.731,1.865 c 0.177,0.177 0.361,0.348 0.548,0.516 l 2.351,-2.532 -0.551,-0.512 -0.003,0.003 c -1.872,-1.915 -3.026,-4.529 -3.026,-7.419 0,-2.933 1.188,-5.584 3.109,-7.507 1.923,-1.922 4.574,-3.109 7.507,-3.109 2.933,0 5.584,1.188 7.507,3.109 1.922,1.923 3.109,4.574 3.109,7.507 0,2.889 -1.154,5.503 -3.026,7.419 l -0.003,-0.003 -0.551,0.512 2.351,2.532 c 0.187,-0.167 0.37,-0.339 0.548,-0.516 l -1.731,-1.865 c 1.435,-1.456 2.484,-3.295 2.984,-5.349 z"
   id="path60"
   style="fill:#f3ede7;fill-opacity:1;stroke:none" />
<path
   class="st0"
   d="m 57.765,66.841 c -0.479,0 -0.634,-0.21 -0.634,-1.093 v -1.632 c 0,-0.883 0.155,-1.1 0.634,-1.1 0.471,0 0.626,0.217 0.626,1.1 v 1.632 c 0,0.883 -0.147,1.093 -0.626,1.093 z m 0.042,0.61 c 0.887,0 1.287,-0.371 1.287,-1.758 v -1.521 c 0,-1.4 -0.394,-1.765 -1.287,-1.765 h -0.085 c -0.886,0 -1.287,0.364 -1.287,1.765 v 1.521 c 0,1.387 0.401,1.758 1.287,1.758 z"
   id="path62"
   style="fill:#f3ede7;fill-opacity:1;stroke:none" />
<polygon
   class="st0"
   points="86.135,62.478 85.347,62.876 85.347,63.62 86.269,63.101 86.304,63.101 86.304,66.764 85.292,66.764 85.292,67.38 87.894,67.38 87.894,66.764 87,66.764 87,62.478 "
   id="polygon64"
   style="fill:#f3ede7;fill-opacity:1;stroke:none" />
<path
   class="st0"
   d="m 45.958,217.674 c 0.058,-0.243 0.11,-0.488 0.156,-0.736 l -2.488,-0.566 c 0.113,-0.648 0.176,-1.313 0.175,-1.993 0,-1.421 -0.259,-2.781 -0.73,-4.038 l 2.38,-0.935 c -0.089,-0.235 -0.184,-0.467 -0.285,-0.696 l -2.384,0.936 c -0.84,-1.86 -2.158,-3.455 -3.8,-4.631 l 1.446,-2.117 c -0.204,-0.145 -0.412,-0.285 -0.624,-0.42 l -1.447,2.118 c -1.663,-1.035 -3.61,-1.656 -5.697,-1.723 v -2.566 c -0.125,-0.003 -0.25,-0.01 -0.376,-0.01 -0.126,0 -0.251,0.006 -0.376,0.01 v 2.566 c -2.087,0.067 -4.033,0.688 -5.697,1.723 l -1.447,-2.118 c -0.212,0.135 -0.42,0.275 -0.624,0.42 l 1.446,2.117 c -1.641,1.176 -2.96,2.772 -3.8,4.631 l -2.384,-0.936 c -0.101,0.229 -0.196,0.461 -0.285,0.696 l 2.38,0.935 c -0.471,1.257 -0.73,2.617 -0.73,4.038 0,0.68 0.062,1.345 0.176,1.993 l -2.488,0.566 c 0.046,0.248 0.098,0.493 0.156,0.736 l 2.485,-0.565 c 0.5,2.054 1.549,3.893 2.984,5.349 l -1.731,1.865 c 0.178,0.177 0.361,0.348 0.548,0.516 l 2.351,-2.532 -0.551,-0.512 -0.003,0.003 c -1.872,-1.915 -3.026,-4.529 -3.026,-7.419 0,-2.933 1.188,-5.584 3.109,-7.507 1.923,-1.922 4.574,-3.109 7.507,-3.109 2.933,0 5.584,1.188 7.507,3.109 1.922,1.923 3.109,4.574 3.109,7.507 0,2.889 -1.154,5.503 -3.026,7.419 l -0.003,-0.003 -0.551,0.512 2.351,2.532 c 0.187,-0.167 0.37,-0.339 0.548,-0.516 l -1.731,-1.865 c 1.435,-1.456 2.484,-3.295 2.984,-5.349 z"
   id="path66"
   style="fill:#f4eee9;fill-opacity:1;stroke:none" />
<path
   class="st0"
   d="m 17.778,224.022 c -0.479,0 -0.634,-0.21 -0.634,-1.093 v -1.632 c 0,-0.883 0.155,-1.1 0.634,-1.1 0.471,0 0.626,0.217 0.626,1.1 v 1.632 c 0,0.883 -0.148,1.093 -0.626,1.093 z m 0.042,0.609 c 0.887,0 1.287,-0.371 1.287,-1.758 v -1.521 c 0,-1.4 -0.394,-1.765 -1.287,-1.765 h -0.085 c -0.886,0 -1.287,0.364 -1.287,1.765 v 1.521 c 0,1.387 0.401,1.758 1.287,1.758 z"
   id="path68"
   style="fill:#f4eee9;fill-opacity:1;stroke:none" />
<polygon
   class="st0"
   points="45.979,219.659 45.191,220.057 45.191,220.8 46.113,220.282 46.148,220.282 46.148,223.945 45.135,223.945 45.135,224.561 47.738,224.561 47.738,223.945 46.844,223.945 46.844,219.659 "
   id="polygon70"
   style="fill:#f4eee9;fill-opacity:1;stroke:none" />
<path
   class="st0"
   d="m 212.457,102.863 c -2.793,-2.793 -4.188,-6.45 -4.188,-10.111 0,-3.66 1.395,-7.318 4.188,-10.11 0.117,-0.117 0.117,-0.307 0,-0.424 -0.117,-0.117 -0.307,-0.117 -0.424,0 -2.909,2.908 -4.364,6.723 -4.364,10.535 0,3.812 1.455,7.626 4.364,10.535 0.117,0.117 0.307,0.117 0.424,0 0.117,-0.117 0.117,-0.307 0,-0.425 z"
   id="path72"
   style="fill:#f3ede7;fill-opacity:1;stroke:none" />
<path
   class="st0"
   d="m 232.678,82.642 c 2.793,2.793 4.188,6.45 4.188,10.111 0,3.66 -1.395,7.318 -4.188,10.111 -0.117,0.117 -0.117,0.307 0,0.424 0.117,0.117 0.307,0.117 0.424,0 2.909,-2.908 4.364,-6.723 4.364,-10.535 0,-3.812 -1.455,-7.626 -4.364,-10.535 -0.117,-0.117 -0.307,-0.117 -0.424,0 -0.118,0.117 -0.118,0.307 0,0.424 z"
   id="path74"
   style="fill:#f3ede7;fill-opacity:1;stroke:none" />
<path
   class="st0"
   d="m 54.978,102.863 c -2.793,-2.793 -4.188,-6.45 -4.188,-10.111 0,-3.66 1.395,-7.318 4.188,-10.11 0.117,-0.117 0.117,-0.307 0,-0.424 -0.117,-0.117 -0.307,-0.117 -0.424,0 -2.909,2.908 -4.364,6.723 -4.364,10.535 0,3.812 1.455,7.626 4.364,10.535 0.117,0.117 0.307,0.117 0.424,0 0.117,-0.117 0.117,-0.307 0,-0.425 z"
   id="path76"
   style="fill:#f3ede7;fill-opacity:1;stroke:none" />
<path
   class="st0"
   d="m 75.199,82.642 c 2.793,2.793 4.188,6.45 4.188,10.111 0,3.66 -1.395,7.318 -4.188,10.111 -0.117,0.117 -0.117,0.307 0,0.424 0.117,0.117 0.307,0.117 0.424,0 2.909,-2.908 4.364,-6.723 4.364,-10.535 0,-3.812 -1.455,-7.626 -4.364,-10.535 -0.117,-0.117 -0.307,-0.117 -0.424,0 -0.118,0.117 -0.118,0.307 0,0.424 z"
   id="path78"
   style="fill:#f3ede7;fill-opacity:1;stroke:none" />
<path
   class="st0"
   d="m 22.205,260.611 c -2.793,-2.793 -4.188,-6.45 -4.188,-10.111 0,-3.66 1.395,-7.318 4.188,-10.111 0.117,-0.117 0.117,-0.307 0,-0.424 -0.117,-0.117 -0.307,-0.117 -0.424,0 -2.909,2.908 -4.364,6.723 -4.364,10.535 0,3.812 1.455,7.626 4.364,10.535 0.117,0.117 0.307,0.117 0.424,0 0.117,-0.117 0.117,-0.307 0,-0.424 z"
   id="path80"
   style="fill:#f4eee9;fill-opacity:1;stroke:none" />
<path
   class="st0"
   d="m 42.426,240.39 c 2.793,2.793 4.188,6.45 4.188,10.111 0,3.66 -1.395,7.318 -4.188,10.111 -0.117,0.117 -0.117,0.307 0,0.424 0.117,0.117 0.307,0.117 0.424,0 2.909,-2.908 4.364,-6.723 4.364,-10.535 0,-3.812 -1.455,-7.626 -4.364,-10.535 -0.117,-0.117 -0.307,-0.117 -0.424,0 -0.117,0.117 -0.117,0.306 0,0.424 z"
   id="path82"
   style="fill:#f4eee9;fill-opacity:1;stroke:none" />
<path
   class="st0"
   d="m 101.686,217.674 c 0.059,-0.243 0.11,-0.488 0.156,-0.736 l -2.488,-0.566 c 0.113,-0.648 0.176,-1.313 0.175,-1.993 0,-1.421 -0.259,-2.781 -0.73,-4.038 l 2.38,-0.935 c -0.089,-0.235 -0.184,-0.467 -0.285,-0.696 l -2.384,0.936 c -0.84,-1.86 -2.158,-3.455 -3.8,-4.631 l 1.446,-2.117 c -0.204,-0.145 -0.412,-0.285 -0.624,-0.42 l -1.447,2.118 c -1.663,-1.035 -3.61,-1.656 -5.697,-1.723 v -2.566 c -0.125,-0.003 -0.25,-0.01 -0.376,-0.01 -0.126,0 -0.251,0.006 -0.376,0.01 v 2.566 c -2.087,0.067 -4.033,0.688 -5.697,1.723 l -1.447,-2.118 c -0.212,0.135 -0.42,0.275 -0.624,0.42 l 1.446,2.117 c -1.641,1.176 -2.96,2.772 -3.8,4.631 L 75.13,208.71 c -0.101,0.229 -0.196,0.461 -0.285,0.696 l 2.38,0.935 c -0.471,1.257 -0.73,2.617 -0.73,4.038 0,0.68 0.062,1.345 0.176,1.993 l -2.488,0.566 c 0.046,0.248 0.098,0.493 0.156,0.736 l 2.485,-0.565 c 0.5,2.054 1.549,3.893 2.984,5.349 l -1.731,1.865 c 0.177,0.177 0.361,0.348 0.548,0.516 l 2.351,-2.532 -0.551,-0.512 -0.003,0.003 c -1.872,-1.915 -3.026,-4.529 -3.026,-7.419 0,-2.933 1.188,-5.584 3.109,-7.507 1.923,-1.922 4.574,-3.109 7.507,-3.109 2.933,0 5.584,1.188 7.507,3.109 1.922,1.923 3.109,4.574 3.109,7.507 0,2.889 -1.154,5.503 -3.026,7.419 l -0.003,-0.003 -0.551,0.512 2.351,2.532 c 0.187,-0.167 0.37,-0.339 0.548,-0.516 l -1.731,-1.865 c 1.435,-1.456 2.484,-3.295 2.984,-5.349 z"
   id="path84"
   style="fill:#f4eee9;fill-opacity:1;stroke:none" />
<path
   class="st0"
   d="m 73.506,224.022 c -0.479,0 -0.634,-0.21 -0.634,-1.093 v -1.632 c 0,-0.883 0.155,-1.1 0.634,-1.1 0.471,0 0.626,0.217 0.626,1.1 v 1.632 c 0,0.883 -0.148,1.093 -0.626,1.093 z m 0.042,0.609 c 0.887,0 1.287,-0.371 1.287,-1.758 v -1.521 c 0,-1.4 -0.394,-1.765 -1.287,-1.765 h -0.085 c -0.886,0 -1.287,0.364 -1.287,1.765 v 1.521 c 0,1.387 0.401,1.758 1.287,1.758 z"
   id="path86"
   style="fill:#f4eee9;fill-opacity:1;stroke:none" />
<polygon
   class="st0"
   points="101.707,219.659 100.919,220.057 100.919,220.8 101.841,220.282 101.876,220.282 101.876,223.945 100.863,223.945 100.863,224.561 103.466,224.561 103.466,223.945 102.572,223.945 102.572,219.659 "
   id="polygon88"
   style="fill:#f4eee9;fill-opacity:1;stroke:none" />
<path
   class="st0"
   d="m 77.933,260.611 c -2.793,-2.793 -4.188,-6.45 -4.188,-10.111 0,-3.66 1.395,-7.318 4.188,-10.111 0.117,-0.117 0.117,-0.307 0,-0.424 -0.117,-0.117 -0.307,-0.117 -0.424,0 -2.909,2.908 -4.364,6.723 -4.364,10.535 0,3.812 1.455,7.626 4.364,10.535 0.117,0.117 0.307,0.117 0.424,0 0.117,-0.117 0.117,-0.307 0,-0.424 z"
   id="path90"
   style="fill:#f4eee9;fill-opacity:1;stroke:none" />
<path
   class="st0"
   d="m 98.154,240.39 c 2.793,2.793 4.188,6.45 4.188,10.111 0,3.66 -1.395,7.318 -4.188,10.111 -0.117,0.117 -0.117,0.307 0,0.424 0.117,0.117 0.307,0.117 0.424,0 2.909,-2.908 4.364,-6.723 4.364,-10.535 0,-3.812 -1.455,-7.626 -4.364,-10.535 -0.117,-0.117 -0.307,-0.117 -0.424,0 -0.117,0.117 -0.117,0.306 0,0.424 z"
   id="path92"
   style="fill:#f4eee9;fill-opacity:1;stroke:none" />
<path
   class="st0"
   d="m 22.205,339.198 c -2.793,-2.793 -4.188,-6.45 -4.188,-10.111 0,-3.66 1.395,-7.318 4.188,-10.11 0.117,-0.117 0.117,-0.307 0,-0.424 -0.117,-0.117 -0.307,-0.117 -0.424,0 -2.909,2.908 -4.364,6.723 -4.364,10.535 0,3.812 1.455,7.626 4.364,10.535 0.117,0.117 0.307,0.117 0.424,0 0.117,-0.117 0.117,-0.307 0,-0.425 z"
   id="path94"
   style="fill:#f4eee9;fill-opacity:1;stroke:none" />
<path
   class="st0"
   d="m 42.426,318.977 c 2.793,2.793 4.188,6.45 4.188,10.111 0,3.66 -1.395,7.318 -4.188,10.111 -0.117,0.117 -0.117,0.307 0,0.424 0.117,0.117 0.307,0.117 0.424,0 2.909,-2.908 4.364,-6.723 4.364,-10.535 0,-3.812 -1.455,-7.626 -4.364,-10.535 -0.117,-0.117 -0.307,-0.117 -0.424,0 -0.117,0.117 -0.117,0.307 0,0.424 z"
   id="path96"
   style="fill:#f4eee9;fill-opacity:1;stroke:none" />
<path
   class="st0"
   d="m 77.933,339.198 c -2.793,-2.793 -4.188,-6.45 -4.188,-10.111 0,-3.66 1.395,-7.318 4.188,-10.11 0.117,-0.117 0.117,-0.307 0,-0.424 -0.117,-0.117 -0.307,-0.117 -0.424,0 -2.909,2.908 -4.364,6.723 -4.364,10.535 0,3.812 1.455,7.626 4.364,10.535 0.117,0.117 0.307,0.117 0.424,0 0.117,-0.117 0.117,-0.307 0,-0.425 z"
   id="path98"
   style="fill:#f4eee9;fill-opacity:1;stroke:none" />
<path
   class="st0"
   d="m 98.154,318.977 c 2.793,2.793 4.188,6.45 4.188,10.111 0,3.66 -1.395,7.318 -4.188,10.111 -0.117,0.117 -0.117,0.307 0,0.424 0.117,0.117 0.307,0.117 0.424,0 2.909,-2.908 4.364,-6.723 4.364,-10.535 0,-3.812 -1.455,-7.626 -4.364,-10.535 -0.117,-0.117 -0.307,-0.117 -0.424,0 -0.117,0.117 -0.117,0.307 0,0.424 z"
   id="path100"
   style="fill:#f4eee9;fill-opacity:1;stroke:none" />
<path
   class="st0"
   d="m 157.497,217.674 c 0.059,-0.243 0.11,-0.488 0.156,-0.736 l -2.488,-0.566 c 0.113,-0.648 0.176,-1.313 0.176,-1.993 0,-1.421 -0.259,-2.781 -0.73,-4.038 l 2.38,-0.935 c -0.089,-0.235 -0.184,-0.467 -0.285,-0.696 l -2.384,0.936 c -0.84,-1.86 -2.158,-3.455 -3.8,-4.631 l 1.446,-2.117 c -0.204,-0.145 -0.412,-0.285 -0.624,-0.42 l -1.447,2.118 c -1.663,-1.035 -3.61,-1.656 -5.697,-1.723 v -2.566 c -0.125,-0.003 -0.25,-0.01 -0.376,-0.01 -0.126,0 -0.251,0.006 -0.376,0.01 v 2.566 c -2.087,0.067 -4.033,0.688 -5.697,1.723 l -1.447,-2.118 c -0.212,0.135 -0.42,0.275 -0.624,0.42 l 1.446,2.117 c -1.641,1.176 -2.96,2.772 -3.8,4.631 l -2.384,-0.936 c -0.101,0.229 -0.196,0.461 -0.285,0.696 l 2.38,0.935 c -0.471,1.257 -0.73,2.617 -0.73,4.038 0,0.68 0.062,1.345 0.176,1.993 l -2.488,0.566 c 0.046,0.248 0.098,0.493 0.156,0.736 l 2.485,-0.565 c 0.5,2.054 1.549,3.893 2.984,5.349 l -1.731,1.865 c 0.178,0.177 0.361,0.348 0.548,0.516 l 2.351,-2.532 -0.551,-0.512 -0.003,0.003 c -1.872,-1.915 -3.026,-4.529 -3.026,-7.419 0,-2.933 1.188,-5.584 3.109,-7.507 1.923,-1.922 4.574,-3.109 7.507,-3.109 2.933,0 5.584,1.188 7.507,3.109 1.922,1.923 3.109,4.574 3.109,7.507 0,2.889 -1.154,5.503 -3.026,7.419 l -0.003,-0.003 -0.551,0.512 2.35,2.532 c 0.187,-0.167 0.37,-0.339 0.548,-0.516 l -1.731,-1.865 c 1.435,-1.456 2.484,-3.295 2.984,-5.349 z"
   id="path102"
   style="fill:#f4eee9;fill-opacity:1;stroke:none" />
<path
   class="st0"
   d="m 129.317,224.022 c -0.479,0 -0.634,-0.21 -0.634,-1.093 v -1.632 c 0,-0.883 0.155,-1.1 0.634,-1.1 0.471,0 0.626,0.217 0.626,1.1 v 1.632 c 0,0.883 -0.147,1.093 -0.626,1.093 z m 0.042,0.609 c 0.887,0 1.287,-0.371 1.287,-1.758 v -1.521 c 0,-1.4 -0.394,-1.765 -1.287,-1.765 h -0.085 c -0.886,0 -1.287,0.364 -1.287,1.765 v 1.521 c 0,1.387 0.401,1.758 1.287,1.758 z"
   id="path104"
   style="fill:#f4eee9;fill-opacity:1;stroke:none" />
<polygon
   class="st0"
   points="157.518,219.659 156.73,220.057 156.73,220.8 157.652,220.282 157.687,220.282 157.687,223.945 156.674,223.945 156.674,224.561 159.277,224.561 159.277,223.945 158.383,223.945 158.383,219.659 "
   id="polygon106"
   style="fill:#f4eee9;fill-opacity:1;stroke:none" />
<path
   class="st0"
   d="m 186.196,332.097 c 0.059,-0.243 0.11,-0.488 0.156,-0.736 l -2.488,-0.565 c 0.113,-0.648 0.176,-1.313 0.176,-1.993 0,-1.421 -0.259,-2.781 -0.73,-4.038 l 2.38,-0.935 c -0.089,-0.235 -0.184,-0.467 -0.285,-0.696 l -2.384,0.936 c -0.84,-1.86 -2.158,-3.455 -3.8,-4.631 l 1.446,-2.117 c -0.204,-0.145 -0.412,-0.285 -0.624,-0.42 l -1.447,2.118 c -1.663,-1.035 -3.61,-1.656 -5.697,-1.723 v -2.566 c -0.125,-0.003 -0.25,-0.009 -0.376,-0.009 -0.126,0 -0.251,0.006 -0.376,0.009 v 2.566 c -2.087,0.067 -4.033,0.688 -5.697,1.723 l -1.447,-2.118 c -0.212,0.135 -0.42,0.275 -0.624,0.42 l 1.446,2.117 c -1.641,1.176 -2.96,2.772 -3.8,4.631 l -2.384,-0.936 c -0.101,0.229 -0.196,0.461 -0.285,0.696 l 2.38,0.935 c -0.471,1.257 -0.73,2.617 -0.73,4.038 0,0.68 0.062,1.345 0.175,1.993 l -2.488,0.565 c 0.046,0.248 0.098,0.493 0.156,0.736 l 2.485,-0.565 c 0.5,2.054 1.549,3.893 2.984,5.349 l -1.731,1.865 c 0.178,0.177 0.361,0.348 0.548,0.516 l 2.351,-2.532 -0.551,-0.512 -0.003,0.003 c -1.872,-1.915 -3.026,-4.529 -3.026,-7.419 0,-2.933 1.188,-5.584 3.109,-7.507 1.923,-1.922 4.574,-3.109 7.507,-3.109 2.933,0 5.584,1.188 7.507,3.109 1.922,1.923 3.109,4.574 3.109,7.507 0,2.889 -1.154,5.504 -3.026,7.419 l -0.003,-0.003 -0.551,0.512 2.351,2.532 c 0.187,-0.167 0.37,-0.339 0.548,-0.516 l -1.731,-1.865 c 1.435,-1.456 2.484,-3.295 2.984,-5.349 z"
   id="path108"
   style="fill:#f4eee9;fill-opacity:1;stroke:none" />
<path
   class="st0"
   d="m 158.016,338.445 c -0.479,0 -0.634,-0.21 -0.634,-1.093 v -1.632 c 0,-0.882 0.155,-1.1 0.634,-1.1 0.471,0 0.626,0.217 0.626,1.1 v 1.632 c 0,0.883 -0.147,1.093 -0.626,1.093 z m 0.042,0.609 c 0.887,0 1.287,-0.371 1.287,-1.758 v -1.52 c 0,-1.401 -0.394,-1.765 -1.287,-1.765 h -0.085 c -0.886,0 -1.287,0.364 -1.287,1.765 v 1.52 c 0,1.387 0.401,1.758 1.287,1.758 z"
   id="path110"
   style="fill:#f4eee9;fill-opacity:1;stroke:none" />
<path
   class="st0"
   d="m 188.457,338.368 h -1.864 v -0.126 c 0,-0.609 0.084,-0.785 0.437,-1.037 l 0.717,-0.546 c 0.549,-0.42 0.711,-0.708 0.711,-1.401 v -0.07 c 0,-0.82 -0.38,-1.177 -1.231,-1.177 h -0.07 c -0.773,0 -1.195,0.287 -1.237,1.38 h 0.696 c 0.021,-0.638 0.196,-0.778 0.584,-0.778 0.4,0 0.562,0.175 0.562,0.63 v 0.049 c 0,0.469 -0.085,0.623 -0.465,0.917 l -0.696,0.525 c -0.562,0.42 -0.703,0.665 -0.703,1.506 v 0.742 h 2.561 v -0.614 z"
   id="path112"
   style="fill:#f4eee9;fill-opacity:1;stroke:none" />
<polygon
   class="st0"
   points="171.957,307.854 171.169,308.253 171.169,308.995 172.091,308.477 172.126,308.477 172.126,312.14 171.113,312.14 171.113,312.756 173.716,312.756 173.716,312.14 172.822,312.14 172.822,307.854 "
   id="polygon114"
   style="fill:#f4eee9;fill-opacity:1;stroke:none" />
<path
   class="st0"
   d="m 133.744,260.611 c -2.793,-2.793 -4.188,-6.45 -4.188,-10.111 0,-3.66 1.395,-7.318 4.188,-10.111 0.117,-0.117 0.117,-0.307 0,-0.424 -0.117,-0.117 -0.307,-0.117 -0.424,0 -2.909,2.908 -4.364,6.723 -4.364,10.535 0,3.812 1.455,7.626 4.364,10.535 0.117,0.117 0.307,0.117 0.424,0 0.117,-0.117 0.117,-0.307 0,-0.424 z"
   id="path116"
   style="fill:#f4eee9;fill-opacity:1;stroke:none" />
<path
   class="st0"
   d="m 153.965,240.39 c 2.793,2.793 4.188,6.45 4.188,10.111 0,3.66 -1.395,7.318 -4.188,10.111 -0.117,0.117 -0.117,0.307 0,0.424 0.117,0.117 0.307,0.117 0.424,0 2.909,-2.908 4.364,-6.723 4.364,-10.535 0,-3.812 -1.455,-7.626 -4.364,-10.535 -0.117,-0.117 -0.307,-0.117 -0.424,0 -0.117,0.117 -0.117,0.306 0,0.424 z"
   id="path118"
   style="fill:#f4eee9;fill-opacity:1;stroke:none" />



<path
   class="st0"
   d="m 189.471,260.611 c -2.793,-2.793 -4.188,-6.45 -4.188,-10.111 0,-3.66 1.395,-7.318 4.188,-10.111 0.117,-0.117 0.117,-0.307 0,-0.424 -0.117,-0.117 -0.307,-0.117 -0.424,0 -2.909,2.908 -4.364,6.723 -4.364,10.535 0,3.812 1.455,7.626 4.364,10.535 0.117,0.117 0.307,0.117 0.424,0 0.118,-0.117 0.118,-0.307 0,-0.424 z"
   id="path126"
   style="fill:#f4eee9;fill-opacity:1;stroke:none" />
<path
   class="st0"
   d="m 209.692,240.39 c 2.792,2.793 4.188,6.45 4.188,10.111 0,3.66 -1.395,7.318 -4.188,10.111 -0.117,0.117 -0.117,0.307 0,0.424 0.117,0.117 0.307,0.117 0.424,0 2.908,-2.908 4.364,-6.723 4.364,-10.535 0,-3.812 -1.455,-7.626 -4.364,-10.535 -0.117,-0.117 -0.307,-0.117 -0.424,0 -0.117,0.117 -0.117,0.306 0,0.424 z"
   id="path128"
   style="fill:#f4eee9;fill-opacity:1;stroke:none" />
<path
   class="st0"
   d="m 268.933,217.674 c 0.059,-0.243 0.11,-0.488 0.156,-0.736 l -2.488,-0.566 c 0.113,-0.648 0.176,-1.313 0.176,-1.993 0,-1.421 -0.259,-2.781 -0.73,-4.038 l 2.38,-0.935 c -0.089,-0.235 -0.184,-0.467 -0.285,-0.696 l -2.384,0.936 c -0.84,-1.86 -2.158,-3.455 -3.8,-4.631 l 1.446,-2.117 c -0.204,-0.145 -0.412,-0.285 -0.624,-0.42 l -1.447,2.118 c -1.664,-1.035 -3.61,-1.656 -5.697,-1.723 v -2.566 c -0.125,-0.003 -0.25,-0.01 -0.376,-0.01 -0.126,0 -0.251,0.006 -0.376,0.01 v 2.566 c -2.087,0.067 -4.033,0.688 -5.697,1.723 l -1.447,-2.118 c -0.212,0.135 -0.42,0.275 -0.624,0.42 l 1.446,2.117 c -1.641,1.176 -2.96,2.772 -3.8,4.631 l -2.384,-0.936 c -0.101,0.229 -0.196,0.461 -0.285,0.696 l 2.38,0.935 c -0.471,1.257 -0.73,2.617 -0.73,4.038 0,0.68 0.062,1.345 0.176,1.993 l -2.488,0.566 c 0.046,0.248 0.098,0.493 0.156,0.736 l 2.485,-0.565 c 0.5,2.054 1.549,3.893 2.984,5.349 l -1.731,1.865 c 0.177,0.177 0.361,0.348 0.548,0.516 l 2.351,-2.532 -0.551,-0.512 -0.003,0.003 c -1.872,-1.915 -3.026,-4.529 -3.026,-7.419 0,-2.933 1.188,-5.584 3.109,-7.507 1.923,-1.922 4.574,-3.109 7.507,-3.109 2.933,0 5.584,1.188 7.507,3.109 1.922,1.923 3.109,4.574 3.109,7.507 0,2.889 -1.154,5.503 -3.026,7.419 l -0.003,-0.003 -0.551,0.512 2.35,2.532 c 0.187,-0.167 0.37,-0.339 0.548,-0.516 l -1.731,-1.865 c 1.435,-1.456 2.484,-3.295 2.984,-5.349 z"
   id="path130"
   style="fill:#f4eee9;fill-opacity:1;stroke:none" />
<path
   class="st0"
   d="m 240.753,224.022 c -0.479,0 -0.634,-0.21 -0.634,-1.093 v -1.632 c 0,-0.883 0.155,-1.1 0.634,-1.1 0.471,0 0.626,0.217 0.626,1.1 v 1.632 c 0,0.883 -0.148,1.093 -0.626,1.093 z m 0.042,0.609 c 0.887,0 1.287,-0.371 1.287,-1.758 v -1.521 c 0,-1.4 -0.394,-1.765 -1.287,-1.765 h -0.085 c -0.886,0 -1.287,0.364 -1.287,1.765 v 1.521 c 0,1.387 0.401,1.758 1.287,1.758 z"
   id="path132"
   style="fill:#f4eee9;fill-opacity:1;stroke:none" />
<polygon
   class="st0"
   points="268.954,219.659 268.166,220.057 268.166,220.8 269.088,220.282 269.123,220.282 269.123,223.945 268.11,223.945 268.11,224.561 270.713,224.561 270.713,223.945 269.819,223.945 269.819,219.659 "
   id="polygon134"
   style="fill:#f4eee9;fill-opacity:1;stroke:none" />
<path
   class="st0"
   d="m 245.18,260.611 c -2.793,-2.793 -4.188,-6.45 -4.188,-10.111 0,-3.66 1.395,-7.318 4.188,-10.111 0.117,-0.117 0.117,-0.307 0,-0.424 -0.117,-0.117 -0.307,-0.117 -0.424,0 -2.909,2.908 -4.364,6.723 -4.364,10.535 0,3.812 1.455,7.626 4.364,10.535 0.117,0.117 0.307,0.117 0.424,0 0.117,-0.117 0.117,-0.307 0,-0.424 z"
   id="path136"
   style="fill:#f4eee9;fill-opacity:1;stroke:none" />
<path
   class="st0"
   d="m 265.401,240.39 c 2.793,2.793 4.188,6.45 4.188,10.111 0,3.66 -1.395,7.318 -4.188,10.111 -0.117,0.117 -0.117,0.307 0,0.424 0.117,0.117 0.307,0.117 0.424,0 2.908,-2.908 4.364,-6.723 4.364,-10.535 0,-3.812 -1.455,-7.626 -4.364,-10.535 -0.117,-0.117 -0.307,-0.117 -0.424,0 -0.117,0.117 -0.117,0.306 0,0.424 z"
   id="path138"
   style="fill:#f4eee9;fill-opacity:1;stroke:none" />
<path
   class="st1"
   d="m 18.899,139.947 c -3.202,0 -6.102,1.358 -8.195,3.548 -2.095,2.19 -3.388,5.214 -3.388,8.55 v 109.013 c 0,3.336 1.294,6.36 3.388,8.55 2.094,2.19 4.993,3.548 8.195,3.548 0,0 10e-4,0 10e-4,0 v -0.6 c -3.031,0 -5.773,-1.283 -7.764,-3.363 -1.99,-2.08 -3.222,-4.955 -3.222,-8.135 V 152.044 c 0,-3.18 1.232,-6.054 3.222,-8.135 1.99,-2.08 4.733,-3.363 7.764,-3.363 v -0.599 m 26.521,0 c 0,0 0,0 0,0 l -10e-4,0.6 c 3.031,0 5.773,1.283 7.763,3.363 1.99,2.08 3.222,4.955 3.222,8.135 v 109.013 c 0,3.18 -1.232,6.054 -3.222,8.135 -1.99,2.08 -4.733,3.363 -7.763,3.363 v 0.6 c 3.202,0 6.102,-1.358 8.195,-3.548 2.095,-2.19 3.388,-5.214 3.388,-8.55 V 152.044 c 0,-3.336 -1.294,-6.36 -3.388,-8.55 -2.093,-2.189 -4.993,-3.547 -8.194,-3.547"
   id="path140"
   style="fill:#f4eee9;fill-opacity:0.300546;stroke:none" />
<path
   class="st1"
   d="m 74.639,139.947 c -3.202,0 -6.102,1.358 -8.195,3.548 -2.095,2.19 -3.388,5.214 -3.388,8.55 v 109.013 c 0,3.336 1.294,6.36 3.388,8.55 2.094,2.19 4.993,3.548 8.195,3.548 0,0 0.001,0 0.001,0 v -0.6 c -3.031,0 -5.773,-1.283 -7.763,-3.363 -1.99,-2.08 -3.222,-4.955 -3.222,-8.135 V 152.044 c 0,-3.18 1.232,-6.054 3.222,-8.135 1.99,-2.08 4.733,-3.363 7.763,-3.363 v -0.599 m 26.521,0 c 0,0 0,0 0,0 l -0.001,0.6 c 3.031,0 5.773,1.283 7.763,3.363 1.99,2.08 3.222,4.955 3.222,8.135 v 109.013 c 0,3.18 -1.232,6.054 -3.222,8.135 -1.991,2.08 -4.733,3.363 -7.763,3.363 v 0.6 c 3.202,0 6.102,-1.358 8.195,-3.548 2.095,-2.19 3.388,-5.214 3.388,-8.55 V 152.044 c 0,-3.336 -1.294,-6.36 -3.388,-8.55 -2.093,-2.189 -4.993,-3.547 -8.194,-3.547"
   id="path142"
   style="fill:#f4eee9;fill-opacity:0.300546;stroke:none" />
<path
   class="st1"
   d="m 130.379,139.947 c -3.202,0 -6.102,1.358 -8.195,3.548 -2.095,2.19 -3.388,5.214 -3.388,8.55 v 109.013 c 0,3.336 1.294,6.36 3.388,8.55 2.094,2.19 4.993,3.548 8.195,3.548 0,0 0.001,0 0.001,0 v -0.6 c -3.031,0 -5.773,-1.283 -7.764,-3.363 -1.99,-2.08 -3.222,-4.955 -3.222,-8.135 V 152.044 c 0,-3.18 1.232,-6.054 3.222,-8.135 1.99,-2.08 4.733,-3.363 7.764,-3.363 v -0.599 m 26.521,0 c -0.001,0 0,0 0,0 l -0.001,0.6 c 3.031,0 5.773,1.283 7.763,3.363 1.99,2.08 3.222,4.955 3.222,8.135 v 109.013 c 0,3.18 -1.232,6.054 -3.222,8.135 -1.99,2.08 -4.733,3.363 -7.763,3.363 v 0.6 c 3.202,0 6.102,-1.358 8.195,-3.548 2.095,-2.19 3.388,-5.214 3.388,-8.55 V 152.044 c 0,-3.336 -1.294,-6.36 -3.388,-8.55 -2.093,-2.189 -4.993,-3.547 -8.194,-3.547"
   id="path144"
   style="fill:#f4eee9;fill-opacity:0.300546;stroke:none" />
<path
   class="st1"
   d="m 186.118,139.947 c -3.202,0 -6.102,1.358 -8.195,3.548 -2.095,2.19 -3.388,5.214 -3.388,8.55 v 109.013 c 0,3.336 1.294,6.36 3.388,8.55 2.094,2.19 4.993,3.548 8.195,3.548 0,0 0.001,0 0.001,0 v -0.6 c -3.031,0 -5.773,-1.283 -7.763,-3.363 -1.99,-2.08 -3.222,-4.955 -3.222,-8.135 V 152.044 c 0,-3.18 1.232,-6.054 3.222,-8.135 1.99,-2.08 4.733,-3.363 7.763,-3.363 v -0.599 m 26.522,0 c -0.001,0 0,0 0,0 l -0.001,0.6 c 3.031,0 5.773,1.283 7.763,3.363 1.99,2.08 3.222,4.955 3.222,8.135 v 109.013 c 0,3.18 -1.232,6.054 -3.222,8.135 -1.99,2.08 -4.733,3.363 -7.763,3.363 v 0.6 c 3.202,0 6.102,-1.358 8.195,-3.548 2.095,-2.19 3.388,-5.214 3.388,-8.55 V 152.044 c 0,-3.336 -1.294,-6.36 -3.388,-8.55 -2.093,-2.189 -4.993,-3.547 -8.194,-3.547"
   id="path146"
   style="fill:#f4eee9;fill-opacity:0.300546;stroke:none" />
<path
   class="st1"
   d="m 241.858,139.947 c -3.202,0 -6.102,1.358 -8.195,3.548 -2.095,2.19 -3.388,5.214 -3.388,8.55 v 109.013 c 0,3.336 1.294,6.36 3.388,8.55 2.094,2.19 4.993,3.548 8.194,3.548 0,0 0.001,0 0.001,0 v -0.6 c -3.031,0 -5.773,-1.283 -7.763,-3.363 -1.99,-2.08 -3.222,-4.955 -3.222,-8.135 V 152.044 c 0,-3.18 1.232,-6.054 3.222,-8.135 1.99,-2.08 4.733,-3.363 7.763,-3.363 v -0.599 m 26.523,0 c -10e-4,0 -10e-4,0 0,0 l -10e-4,0.6 c 3.031,0 5.773,1.283 7.763,3.363 1.99,2.08 3.222,4.955 3.222,8.135 v 109.013 c 0,3.18 -1.232,6.054 -3.222,8.135 -1.99,2.08 -4.733,3.363 -7.763,3.363 v 0.6 c 3.202,0 6.102,-1.358 8.195,-3.548 2.095,-2.19 3.388,-5.214 3.388,-8.55 V 152.044 c 0,-3.336 -1.294,-6.36 -3.388,-8.55 -2.093,-2.189 -4.993,-3.547 -8.194,-3.547"
   id="path148"
   style="fill:#f4eee9;fill-opacity:0.300546;stroke:none" />

<path
   class="st2"
   d="m 29.888,127.199 v 0 H 27.07 v 0.624 h 2.818 v -0.624 m 5.635,0 v 0 h -2.817 v 0.624 h 2.817 v -0.624 m 5.636,0 v 0 h -2.818 v 0.624 h 2.818 v -0.624 m 5.635,0 v 0 h -2.817 v 0.624 h 2.817 v -0.624 m 5.635,0 v 0 h -2.817 v 0.624 h 2.817 v -0.624 m 5.635,0 v 0 h -2.817 v 0.624 h 2.817 v -0.624 m 5.635,0 v 0 h -2.817 v 0.624 h 2.817 v -0.624 m 5.635,0 v 0 h -2.818 v 0.624 h 2.818 v -0.624 m 5.635,0 v 0 h -2.818 v 0.624 h 2.818 v -0.624 m 5.636,0 v 0 h -2.817 v 0.624 h 2.817 v -0.624 m 5.635,0 v 0 h -2.818 v 0.624 h 2.818 v -0.624 m 5.635,0 v 0 h -2.817 v 0.624 h 2.817 v -0.624 m 5.635,0 v 0 h -2.817 v 0.624 h 2.817 v -0.624 m 5.635,0 v 0 h -2.817 v 0.624 h 2.817 v -0.624 m 5.635,0 v 0 h -2.817 v 0.624 h 2.817 v -0.624 m 5.635,0 v 0 h -2.818 v 0.624 h 2.818 v -0.624 m 5.636,0 v 0 h -2.817 v 0.624 h 2.817 v -0.624 m 5.635,0 v 0 h -2.818 v 0.624 h 2.818 v -0.624 m 5.635,0 v 0 h -2.817 v 0.624 h 2.817 v -0.624 m 5.635,0 v 0 h -2.817 v 0.624 h 2.817 v -0.624 m 5.635,0 v 0 h -2.818 v 0.624 h 2.818 v -0.624 m 5.635,0 v 0 h -2.817 v 0.624 h 2.817 v -0.624 m 5.635,0 v 0 h -2.817 v 0.624 h 2.817 v -0.624 m 5.636,0 v 0 h -2.817 v 0.624 h 2.817 v -0.624 m 5.635,0 v 0 h -2.817 v 0.624 h 2.817 v -0.624 m 5.635,0 v 0 h -2.818 v 0.624 h 2.818 v -0.624 m 5.635,0 v 0 h -2.817 v 0.624 h 2.817 v -0.624 m 5.635,0 v 0 h -2.817 v 0.624 h 2.817 v -0.624 m 5.635,0 v 0 h -2.817 v 0.624 h 2.817 v -0.624 m 5.635,0 v 0 h -2.817 v 0.624 h 2.817 v -0.624 m 5.636,0 v 0 h -2.817 v 0.624 h 2.817 v -0.624 m 5.635,0 v 0 h -2.818 v 0.624 h 2.818 v -0.624 m 5.635,0 v 0 h -2.817 v 0.624 h 2.817 v -0.624 m 5.635,0 v 0 h -2.818 v 0.624 h 2.818 v -0.624 m 5.635,0 v 0 h -2.817 v 0.624 h 2.817 v -0.624 m 5.635,0 v 0 H 224.3 v 0.624 h 2.818 v -0.624 m 5.635,0 v 0 h -2.817 v 0.624 h 2.817 v -0.624 m 5.636,0 v 0 h -2.817 v 0.624 h 2.817 v -0.624 m 5.635,0 v 0 h -2.817 v 0.624 h 2.817 v -0.624 m 5.635,0 v 0 h -2.817 v 0.624 h 2.817 v -0.624 m 5.635,0 v 0 h -2.818 v 0.624 h 2.818 v -0.624 m 5.635,0 v 0 h -2.817 v 0.624 h 2.817 v -0.624"
   id="path152" />
<path
   class="st0"
   d="m 199.26828,190.38438 v 15.46466 c 0,0.0475 0.112,0.0861 0.25,0.0861 0.138,0 0.25,-0.0386 0.25,-0.0861 v -15.46466 c 0,-0.0475 -0.112,-0.0861 -0.25,-0.0861 -0.138,0 -0.25,0.0386 -0.25,0.0861"
   id="path16-2"
   style="fill:#f4eee9;fill-opacity:1;stroke:none;stroke-width:1" /><path
   class="st0"
   d="m 199.26828,221.08664 v 15.46466 c 0,0.0475 0.112,0.0861 0.25,0.0861 0.138,0 0.25,-0.0386 0.25,-0.0861 v -15.46466 c 0,-0.0475 -0.112,-0.0861 -0.25,-0.0861 -0.138,0 -0.25,0.0386 -0.25,0.0861"
   id="path16-2-8"
   style="fill:#f4eee9;fill-opacity:1;stroke:none;stroke-width:1" /><path
   class="st0"
   d="m 207.92538,209.80913 h -17.791 c -2.372,0 -4.295,1.923 -4.295,4.295 v 0 c 0,2.372 1.923,4.295 4.295,4.295 h 17.791 c 2.372,0 4.295,-1.923 4.295,-4.295 v 0 c 0,-2.372 -1.923,-4.295 -4.295,-4.295 z"
   id="path36-3"
   style="fill:#f3ede7;fill-opacity:1;stroke:none"
   sodipodi:nodetypes="sssssssss" /><g
   aria-label="1V/OCT"
   id="text29687"
   style="font-size:8px;line-height:1.25;font-family:'Pilat Condensed';-inkscape-font-specification:'Pilat Condensed, ';letter-spacing:0px;word-spacing:0px;stroke-width:0.899688"
   transform="matrix(0.83362267,0,0,0.83362267,120.92664,-65.534292)"><path
     d="m 86.087408,332.62702 h -1.16 l -0.872,0.432 v 1.032 l 1.008,-0.568 h 0.04 v 4.704 h 0.984 z"
     style="fill:#000000;stroke-width:0.899688"
     id="path39468" /><path
     d="m 90.351401,332.62702 h -1.064 l -0.816,4.432 h -0.04 l -0.816,-4.432 h -1.096 l 1.192,5.6 h 1.448 z"
     style="fill:#000000;stroke-width:0.899688"
     id="path39470" /><path
     d="m 90.127379,339.02702 2.392,-6.4 h -0.608 l -2.392,6.4 z"
     style="fill:#000000;stroke-width:0.899688"
     id="path39472" /><path
     d="m 94.423349,338.30702 c 1.184,0 1.656,-0.464 1.656,-2.08 v -1.592 c 0,-1.624 -0.472,-2.088 -1.656,-2.088 h -0.088 c -1.176,0 -1.656,0.464 -1.656,2.088 v 1.592 c 0,1.616 0.48,2.08 1.656,2.08 z m -0.072,-0.872 c -0.264,0 -0.432,-0.08 -0.52,-0.248 -0.08,-0.168 -0.12,-0.464 -0.12,-0.888 v -1.736 c 0,-0.432 0.04,-0.728 0.12,-0.888 0.088,-0.168 0.256,-0.248 0.52,-0.248 h 0.056 c 0.264,0 0.432,0.08 0.512,0.248 0.088,0.16 0.128,0.456 0.128,0.888 v 1.736 c 0,0.424 -0.04,0.72 -0.128,0.888 -0.08,0.168 -0.248,0.248 -0.512,0.248 z"
     style="fill:#000000;stroke-width:0.899688"
     id="path39474" /><path
     d="m 98.367334,338.30702 c 1.088,0 1.528,-0.424 1.608,-1.88 h -1.032 c -0.048,0.832 -0.216,1.008 -0.608,1.008 h -0.048 c -0.264,0 -0.432,-0.08 -0.512,-0.248 -0.08,-0.168 -0.12,-0.464 -0.12,-0.888 v -1.736 c 0,-0.864 0.112,-1.136 0.632,-1.136 h 0.048 c 0.392,0 0.56,0.168 0.608,1 h 1.032 c -0.08,-1.456 -0.52,-1.88 -1.608,-1.88 h -0.12 c -1.176,0 -1.624,0.48 -1.624,2.08 v 1.6 c 0,1.6 0.448,2.08 1.624,2.08 z"
     style="fill:#000000;stroke-width:0.899688"
     id="path39476" /><path
     d="m 102.28731,333.53902 h 1.04 v -0.912 h -3.088 v 0.912 h 1.016 v 4.688 h 1.032 z"
     style="fill:#000000;stroke-width:0.899688"
     id="path39478" /></g></svg>
