<?xml version="1.0" encoding="utf-8"?>
<!-- Generator: Adobe Illustrator 26.1.0, SVG Export Plug-In . SVG Version: 6.00 Build 0)  -->
<svg version="1.1" id="Ebene_1" xmlns="http://www.w3.org/2000/svg" xmlns:xlink="http://www.w3.org/1999/xlink" x="0px" y="0px"
	 viewBox="0 0 233.858 7.087" style="enable-background:new 0 0 233.858 7.087;" xml:space="preserve">
<style type="text/css">
	.st0{fill:#B0D5CA;}
</style>
<g>
	<g>
		<path class="st0" d="M0,7.087h2.818V0H0V7.087z M5.635,7.087h2.818V0H5.635V7.087z M11.27,7.087h2.817V0H11.27V7.087z
			 M16.905,7.087h2.817V0h-2.817V7.087z M22.541,7.087h2.817V0h-2.817V7.087z M28.176,7.087h2.818V0h-2.818V7.087z M33.811,7.087
			h2.818V0h-2.818V7.087z M39.446,7.087h2.818V0h-2.818V7.087z M45.081,7.087h2.818V0h-2.818V7.087z M50.716,7.087h2.818V0h-2.818
			V7.087z M56.351,7.087h2.817V0h-2.817V7.087z M61.987,7.087h2.817V0h-2.817V7.087z M67.622,7.087h2.818V0h-2.818V7.087z
			 M73.257,7.087h2.818V0h-2.818V7.087z M78.892,7.087h2.818V0h-2.818V7.087z M84.527,7.087h2.818V0h-2.818V7.087z M90.162,7.087
			h2.818V0h-2.818V7.087z M95.797,7.087h2.817V0h-2.817V7.087z M101.433,7.087h2.817V0h-2.817V7.087z M107.068,7.087h2.818V0h-2.818
			V7.087z M112.703,7.087h2.818V0h-2.818V7.087z M118.338,7.087h2.817V0h-2.817V7.087z M123.973,7.087h2.817V0h-2.817V7.087z
			 M129.608,7.087h2.818V0h-2.818V7.087z M135.243,7.087h2.818V0h-2.818V7.087z M140.879,7.087h2.818V0h-2.818V7.087z
			 M146.514,7.087h2.818V0h-2.818V7.087z M152.149,7.087h2.817V0h-2.817V7.087z M157.784,7.087h2.817V0h-2.817V7.087z
			 M163.419,7.087h2.817V0h-2.817V7.087z M169.054,7.087h2.818V0h-2.818V7.087z M174.689,7.087h2.818V0h-2.818V7.087z
			 M180.325,7.087h2.818V0h-2.818V7.087z M185.96,7.087h2.818V0h-2.818V7.087z M191.595,7.087h2.818V0h-2.818V7.087z M197.23,7.087
			h2.818V0h-2.818V7.087z M202.865,7.087h2.817V0h-2.817V7.087z M208.5,7.087h2.817V0H208.5V7.087z M214.135,7.087h2.818V0h-2.818
			V7.087z M219.771,7.087h2.818V0h-2.818V7.087z M225.406,7.087h2.818V0h-2.818V7.087z M231.041,0v7.087h2.818V0H231.041z"/>
	</g>
</g>
</svg>
