<?xml version="1.0" encoding="UTF-8" standalone="no"?>
<!-- Generator: Adobe Illustrator 26.0.3, SVG Export Plug-In . SVG Version: 6.00 Build 0)  -->

<svg
   version="1.1"
   id="Ebene_1"
   x="0px"
   y="0px"
   width="101.6mm"
   height="128.5mm"
   viewBox="0 0 288 364.252"
   style="enable-background:new 0 0 288 364.252;"
   xml:space="preserve"
   sodipodi:docname="wavbank_mc_panel.svg"
   inkscape:version="1.3.2 (091e20e, 2023-11-25, custom)"
   xmlns:inkscape="http://www.inkscape.org/namespaces/inkscape"
   xmlns:sodipodi="http://sodipodi.sourceforge.net/DTD/sodipodi-0.dtd"
   xmlns:xlink="http://www.w3.org/1999/xlink"
   xmlns="http://www.w3.org/2000/svg"
   xmlns:svg="http://www.w3.org/2000/svg"><sodipodi:namedview
   id="namedview283"
   pagecolor="#ffffff"
   bordercolor="#666666"
   borderopacity="1.0"
   inkscape:pageshadow="2"
   inkscape:pageopacity="0.0"
   inkscape:pagecheckerboard="false"
   showgrid="false"
   inkscape:zoom="2"
   inkscape:cx="93.25"
   inkscape:cy="232.75"
   inkscape:window-width="3840"
   inkscape:window-height="2054"
   inkscape:window-x="2869"
   inkscape:window-y="-11"
   inkscape:window-maximized="1"
   inkscape:current-layer="Ebene_1"
   inkscape:document-units="mm"
   inkscape:showpageshadow="2"
   inkscape:deskcolor="#d1d1d1" /><rect
   x="0"
   y="0"
   width="288.0"
   height="364.25196850393706"
   style="fill:#e7e7e7;fill-opacity:1;opacity:1;stroke:none"
   inkscape:groupmode="layer"
   id="rect1" /><defs
   id="defs285"><linearGradient
   inkscape:collect="always"
   id="linearGradient4163"><stop
     style="stop-color:#f3ede7;stop-opacity:1;"
     offset="0"
     id="stop4159" /><stop
     style="stop-color:#f3ede7;stop-opacity:0;"
     offset="1"
     id="stop4161" /></linearGradient><linearGradient
   inkscape:collect="always"
   id="linearGradient4058"><stop
     style="stop-color:#f3ede7;stop-opacity:1;"
     offset="0"
     id="stop4054" /><stop
     style="stop-color:#f3ede7;stop-opacity:0;"
     offset="1"
     id="stop4056" /></linearGradient><linearGradient
   inkscape:collect="always"
   id="linearGradient4031"><stop
     style="stop-color:#f3ede7;stop-opacity:1;"
     offset="0"
     id="stop4027" /><stop
     style="stop-color:#f3ede7;stop-opacity:0;"
     offset="1"
     id="stop4029" /></linearGradient>












































<linearGradient
   inkscape:collect="always"
   xlink:href="#linearGradient4031"
   id="linearGradient4033"
   x1="240.806"
   y1="17.893"
   x2="283.223"
   y2="17.893"
   gradientUnits="userSpaceOnUse" /><linearGradient
   inkscape:collect="always"
   xlink:href="#linearGradient4058"
   id="linearGradient4062"
   x1="243.408"
   y1="9.512"
   x2="279.699"
   y2="9.512"
   gradientUnits="userSpaceOnUse" /><linearGradient
   inkscape:collect="always"
   xlink:href="#linearGradient4163"
   id="linearGradient4165"
   x1="200.32634"
   y1="9.3"
   x2="237.032"
   y2="9.3"
   gradientUnits="userSpaceOnUse" /></defs>
<style
   type="text/css"
   id="style2">
	.st0{fill:#F3EDE7;}
	.st1{fill-rule:evenodd;clip-rule:evenodd;fill:#F3EDE7;}
	.st2{clip-path:url(#SVGID_00000098204503777573378410000000368106449936171414_);fill:#FFFFFF;}
	.st3{fill:#1C2729;}
</style>
<g
   id="g22"
   style="fill:#000000;fill-opacity:1">
		<path
   class="st0"
   d="M 201.457,13.298 200.33,5.291 c -0.023,-0.168 0.066,-0.202 0.168,-0.202 h 0.35 c 0.125,0 0.193,0.034 0.203,0.18 l 0.744,6.098 c 0.012,0.067 0.102,0.067 0.113,0 l 0.744,-6.098 c 0.012,-0.146 0.08,-0.18 0.203,-0.18 h 0.35 c 0.102,0 0.191,0.034 0.17,0.202 l -1.129,8.007 c -0.021,0.157 -0.078,0.213 -0.191,0.213 h -0.406 c -0.112,0 -0.169,-0.056 -0.192,-0.213 z"
   id="path4"
   style="fill:#000000;fill-opacity:1" />
		<path
   class="st0"
   d="m 205,6.728 c 0,-1.033 0.463,-1.696 1.33,-1.696 0.881,0 1.342,0.663 1.342,1.696 v 5.144 c 0,1.033 -0.461,1.696 -1.342,1.696 -0.867,0 -1.33,-0.663 -1.33,-1.696 z m 1.33,6.154 c 0.486,0 0.621,-0.393 0.621,-1.224 V 6.941 c 0,-0.831 -0.135,-1.224 -0.621,-1.224 -0.473,0 -0.607,0.393 -0.607,1.224 v 4.717 c 0,0.831 0.134,1.224 0.607,1.224 z"
   id="path6"
   style="fill:#000000;fill-opacity:1" />
		<path
   class="st0"
   d="m 209.492,13.343 0.969,-3.976 c 0.012,-0.045 0.012,-0.09 0,-0.135 l -0.969,-3.976 c -0.023,-0.101 0.045,-0.168 0.111,-0.168 h 0.451 c 0.08,0 0.146,0.067 0.17,0.168 l 0.598,2.695 c 0.012,0.056 0.078,0.056 0.09,0 l 0.598,-2.695 c 0.023,-0.101 0.09,-0.168 0.17,-0.168 h 0.439 c 0.078,0 0.135,0.067 0.113,0.168 l -0.959,3.976 c -0.012,0.045 -0.023,0.09 -0.012,0.135 l 0.971,3.976 c 0.021,0.101 -0.035,0.168 -0.113,0.168 h -0.439 c -0.08,0 -0.158,-0.067 -0.182,-0.168 l -0.586,-2.684 c -0.012,-0.056 -0.078,-0.056 -0.09,0 l -0.598,2.684 c -0.023,0.101 -0.09,0.168 -0.17,0.168 h -0.451 c -0.066,0 -0.134,-0.067 -0.111,-0.168 z"
   id="path8"
   style="fill:#000000;fill-opacity:1" />
		<path
   class="st0"
   d="m 213.926,6.728 c 0,-1.033 0.461,-1.696 1.33,-1.696 0.879,0 1.318,0.674 1.318,1.696 v 0.887 c 0,0.101 -0.066,0.168 -0.168,0.168 h -0.361 c -0.102,0 -0.17,-0.067 -0.17,-0.168 V 6.941 c 0,-0.831 -0.146,-1.224 -0.619,-1.224 -0.475,0 -0.609,0.393 -0.609,1.224 v 4.717 c 0,0.831 0.135,1.224 0.609,1.224 0.473,0 0.619,-0.393 0.619,-1.224 v -1.516 c 0,-0.101 -0.066,-0.168 -0.168,-0.168 h -0.283 c -0.102,0 -0.168,-0.056 -0.168,-0.168 V 9.468 c 0,-0.101 0.066,-0.168 0.168,-0.168 h 0.982 c 0.102,0 0.168,0.067 0.168,0.168 v 2.403 c 0,1.022 -0.439,1.696 -1.318,1.696 -0.869,0 -1.33,-0.663 -1.33,-1.696 z"
   id="path10"
   style="fill:#000000;fill-opacity:1" />
		<path
   class="st0"
   d="m 218.787,5.257 c 0,-0.101 0.057,-0.168 0.17,-0.168 h 0.383 c 0.102,0 0.17,0.067 0.17,0.168 v 7.435 c 0,0.101 0.066,0.168 0.168,0.168 h 0.926 c 0.102,0 0.168,0.067 0.168,0.168 v 0.314 c 0,0.101 -0.066,0.168 -0.168,0.168 h -1.646 c -0.102,0 -0.17,-0.067 -0.17,-0.168 V 5.257 Z"
   id="path12"
   style="fill:#000000;fill-opacity:1" />
		<path
   class="st0"
   d="M 222.68,13.343 V 5.257 c 0,-0.101 0.057,-0.168 0.17,-0.168 h 0.383 c 0.102,0 0.17,0.067 0.17,0.168 v 8.086 c 0,0.101 -0.057,0.168 -0.17,0.168 h -0.383 c -0.102,0 -0.17,-0.067 -0.17,-0.168 z"
   id="path14"
   style="fill:#000000;fill-opacity:1" />
		<path
   class="st0"
   d="m 225.311,5.257 c 0,-0.101 0.066,-0.168 0.168,-0.168 h 1.951 c 0.102,0 0.17,0.056 0.17,0.168 v 0.348 c 0,0.101 -0.068,0.168 -0.17,0.168 h -0.463 c -0.102,0 -0.168,0.067 -0.168,0.168 v 7.401 c 0,0.101 -0.057,0.168 -0.17,0.168 h -0.371 c -0.102,0 -0.17,-0.067 -0.17,-0.168 v -7.4 c 0,-0.101 -0.068,-0.168 -0.17,-0.168 h -0.439 c -0.102,0 -0.168,-0.056 -0.168,-0.168 z"
   id="path16"
   style="fill:#000000;fill-opacity:1" />
		<path
   class="st0"
   d="m 229.383,6.728 c 0,-1.033 0.461,-1.696 1.33,-1.696 0.879,0 1.342,0.674 1.342,1.696 v 0.887 c 0,0.101 -0.068,0.168 -0.17,0.168 h -0.383 c -0.102,0 -0.17,-0.067 -0.17,-0.168 V 6.941 c 0,-0.831 -0.146,-1.224 -0.619,-1.224 -0.475,0 -0.609,0.393 -0.609,1.224 v 4.717 c 0,0.831 0.135,1.224 0.609,1.224 0.473,0 0.619,-0.393 0.619,-1.224 v -0.674 c 0,-0.101 0.068,-0.168 0.17,-0.168 h 0.383 c 0.102,0 0.17,0.067 0.17,0.168 v 0.887 c 0,1.022 -0.463,1.696 -1.342,1.696 -0.869,0 -1.33,-0.663 -1.33,-1.696 z"
   id="path18"
   style="fill:#000000;fill-opacity:1" />
		<path
   class="st0"
   d="M 234.234,13.343 V 5.257 c 0,-0.101 0.057,-0.168 0.168,-0.168 h 0.385 c 0.102,0 0.168,0.067 0.168,0.168 v 3.481 c 0,0.101 0.068,0.168 0.17,0.168 h 1.014 c 0.102,0 0.182,-0.067 0.182,-0.168 V 5.257 c 0,-0.101 0.057,-0.168 0.168,-0.168 h 0.373 c 0.102,0 0.17,0.067 0.17,0.168 v 8.086 c 0,0.101 -0.057,0.168 -0.17,0.168 h -0.373 c -0.1,0 -0.168,-0.067 -0.168,-0.168 V 9.76 c 0,-0.101 -0.08,-0.168 -0.182,-0.168 h -1.014 c -0.102,0 -0.17,0.067 -0.17,0.168 v 3.583 c 0,0.101 -0.057,0.168 -0.168,0.168 h -0.385 c -0.101,0 -0.168,-0.067 -0.168,-0.168 z"
   id="path20"
   style="fill:#000000;fill-opacity:1" />
	</g><path
   class="st0"
   d="m 152.97,18.792 h 84.323 c 0.138,0 0.25,-0.112 0.25,-0.25 0,-0.138 -0.112,-0.25 -0.25,-0.25 H 152.97 c -0.138,0 -0.25,0.112 -0.25,0.25 0,0.138 0.112,0.25 0.25,0.25"
   id="path24"
   style="fill-opacity:1;fill:#000000" /><path
   class="st0"
   d="M 282.3,5.292 V 13.31 H 241.064 V 5.292 H 282.3 m 0,-0.57 h -41.236 c -0.315,0 -0.57,0.255 -0.57,0.57 v 8.018 c 0,0.315 0.255,0.57 0.57,0.57 H 282.3 c 0.315,0 0.57,-0.255 0.57,-0.57 V 5.292 c 10e-4,-0.315 -0.255,-0.57 -0.57,-0.57 z"
   id="path26"
   style="fill-opacity:1;fill:#000000" /><g
   id="g46"
   style="fill:#000000;fill-opacity:1">
		<path
   class="st0"
   d="m 247.041,11.611 h -1.031 l -0.455,-2.729 -0.475,2.729 h -1.037 l -0.635,-4.198 h 0.797 l 0.383,3.274 h 0.031 l 0.527,-3.274 h 0.816 l 0.521,3.274 h 0.035 l 0.385,-3.274 h 0.768 z"
   id="path28"
   style="fill:#000000;fill-opacity:1" />
		<path
   class="st0"
   d="m 251.037,11.611 h -0.814 l -0.174,-0.899 h -0.967 l -0.168,0.899 h -0.797 l 0.895,-4.198 h 1.133 z m -1.486,-3.394 -0.336,1.829 h 0.701 L 249.58,8.217 Z"
   id="path30"
   style="fill:#000000;fill-opacity:1" />
		<path
   class="st0"
   d="m 253.365,11.611 h -1.084 l -0.895,-4.198 h 0.822 l 0.611,3.322 h 0.029 l 0.611,-3.322 h 0.799 z"
   id="path32"
   style="fill:#000000;fill-opacity:1" />
		<path
   class="st0"
   d="m 259.078,10.496 c 0,0.917 -0.336,1.115 -1.123,1.115 h -1.307 V 7.413 h 1.283 c 0.799,0 1.127,0.186 1.127,1.091 v 0.042 c 0,0.534 -0.168,0.798 -0.496,0.87 v 0.03 c 0.354,0.072 0.516,0.33 0.516,0.959 z m -1.662,-2.435 v 1.098 h 0.455 c 0.301,0 0.42,-0.048 0.42,-0.528 V 8.606 c 0,-0.486 -0.119,-0.546 -0.432,-0.546 h -0.443 z m 0,1.697 v 1.211 h 0.443 c 0.324,0 0.451,-0.06 0.451,-0.552 v -0.12 c 0,-0.498 -0.127,-0.54 -0.451,-0.54 h -0.443 z"
   id="path34"
   style="fill:#000000;fill-opacity:1" />
		<path
   class="st0"
   d="m 262.834,11.611 h -0.816 l -0.174,-0.899 h -0.965 l -0.168,0.899 h -0.797 l 0.893,-4.198 h 1.133 z m -1.488,-3.394 -0.336,1.829 h 0.703 l -0.336,-1.829 z"
   id="path36"
   style="fill:#000000;fill-opacity:1" />
		<path
   class="st0"
   d="m 266.428,11.611 h -1.014 L 264.49,8.775 h -0.029 v 2.836 h -0.707 V 7.413 h 1.014 l 0.922,2.836 h 0.031 V 7.413 h 0.707 z"
   id="path38"
   style="fill:#000000;fill-opacity:1" />
		<path
   class="st0"
   d="m 268.289,11.611 h -0.768 V 7.413 h 0.768 v 1.859 h 0.023 l 0.996,-1.859 h 0.863 l -0.99,1.709 1.02,2.489 h -0.869 l -0.689,-1.697 h -0.031 l -0.322,0.558 v 1.139 z"
   id="path40"
   style="fill:#000000;fill-opacity:1" />
		<path
   class="st0"
   d="m 276.141,11.611 h -0.738 V 8.319 h -0.035 l -0.701,3.292 h -0.631 L 273.329,8.319 H 273.3 v 3.292 h -0.738 V 7.413 h 1.254 l 0.545,2.65 h 0.037 l 0.551,-2.65 h 1.193 v 4.198 z"
   id="path42"
   style="fill:#000000;fill-opacity:1" />
		<path
   class="st0"
   d="m 278.404,11.671 c -0.881,0 -1.217,-0.36 -1.217,-1.559 v -1.2 c 0,-1.199 0.336,-1.559 1.217,-1.559 h 0.09 c 0.816,0 1.145,0.318 1.205,1.409 h -0.773 c -0.035,-0.624 -0.162,-0.75 -0.455,-0.75 h -0.037 c -0.389,0 -0.473,0.204 -0.473,0.852 v 1.301 c 0,0.318 0.029,0.54 0.09,0.666 0.059,0.126 0.186,0.186 0.383,0.186 h 0.037 c 0.293,0 0.42,-0.132 0.455,-0.755 h 0.773 c -0.061,1.091 -0.389,1.409 -1.205,1.409 z"
   id="path44"
   style="fill:#000000;fill-opacity:1" />
	</g><path
   class="st0"
   d="m 195.906,4.35 -6.214,-0.496 c -0.115,-0.009 -0.216,0.074 -0.229,0.189 l -0.252,2.174 1.058,0.32 -1.834,2.955 -1.834,-2.955 1.058,-0.32 -0.254,-2.176 C 187.392,3.926 187.29,3.843 187.176,3.852 l -6.23,0.497 c -0.196,0.016 -0.364,0.148 -0.424,0.336 l -1.043,3.223 c -0.053,0.163 -0.017,0.342 0.095,0.471 l 5.492,6.364 c 0.092,0.107 0.227,0.169 0.368,0.169 h 5.986 c 0.141,0 0.276,-0.062 0.368,-0.169 l 5.494,-6.364 c 0.112,-0.13 0.148,-0.308 0.095,-0.471 L 196.331,4.686 C 196.269,4.498 196.102,4.365 195.906,4.35 Z m -5.457,8.607 h -4.045 c -0.15,0 -0.293,-0.07 -0.385,-0.189 L 182.191,7.815 C 182.108,7.708 182.073,7.57 182.095,7.436 l 0.158,-0.97 c 0.023,-0.141 0.16,-0.232 0.298,-0.198 l 0.953,0.234 c 0.131,0.032 0.243,0.118 0.309,0.236 l 2.789,5.011 0.213,0.125 h 3.237 l 0.213,-0.126 2.772,-5.009 c 0.066,-0.119 0.179,-0.205 0.311,-0.238 L 194.3,6.269 c 0.138,-0.034 0.275,0.057 0.298,0.198 l 0.159,0.967 c 0.022,0.134 -0.013,0.272 -0.096,0.379 l -3.829,4.953 c -0.09,0.122 -0.232,0.191 -0.383,0.191 z"
   id="path48"
   style="fill:#000000;fill-opacity:1" /><g
   id="g100"
   style="fill:#000000;fill-opacity:1">
		<path
   class="st0"
   d="m 243.39,18.705 h -0.462 v -1.668 h -0.019 l -0.606,1.668 h -0.417 l -0.602,-1.668 h -0.019 v 1.668 h -0.459 v -2.104 h 0.801 l 0.498,1.418 h 0.021 l 0.508,-1.418 h 0.755 v 2.104 z"
   id="path50"
   style="fill:#000000;fill-opacity:1" />
		<path
   class="st0"
   d="m 243.775,17.111 h 0.426 v 0.932 c 0,0.135 0.024,0.222 0.076,0.261 0.051,0.039 0.127,0.06 0.224,0.06 0.214,0 0.32,-0.084 0.32,-0.375 v -0.878 h 0.426 v 1.593 h -0.426 v -0.255 h -0.019 c -0.061,0.183 -0.193,0.286 -0.456,0.286 -0.348,0 -0.571,-0.139 -0.571,-0.577 z"
   id="path52"
   style="fill:#000000;fill-opacity:1" />
		<path
   class="st0"
   d="m 246.02,18.705 h -0.426 v -2.104 h 0.426 z"
   id="path54"
   style="fill:#000000;fill-opacity:1" />
		<path
   class="st0"
   d="m 247.316,18.705 h -0.224 c -0.426,0 -0.541,-0.147 -0.541,-0.49 v -0.758 h -0.269 v -0.346 h 0.269 V 16.6 h 0.426 v 0.511 h 0.339 v 0.346 h -0.339 v 0.646 c 0,0.216 0.052,0.258 0.251,0.258 h 0.088 z"
   id="path56"
   style="fill:#000000;fill-opacity:1" />
		<path
   class="st0"
   d="m 248.051,16.601 v 0.328 h -0.426 v -0.328 z m 0,0.51 v 1.593 h -0.426 v -1.593 z"
   id="path58"
   style="fill:#000000;fill-opacity:1" />
		<path
   class="st0"
   d="m 248.332,18.016 v -0.382 h 0.737 v 0.382 z"
   id="path60"
   style="fill:#000000;fill-opacity:1" />
		<path
   class="st0"
   d="m 250.321,18.735 c -0.684,0 -0.955,-0.295 -0.955,-0.989 v -0.187 c 0,-0.694 0.271,-0.989 0.955,-0.989 h 0.069 c 0.58,0 0.837,0.229 0.934,0.707 h -0.48 c -0.061,-0.216 -0.205,-0.301 -0.469,-0.301 h -0.039 c -0.42,0 -0.495,0.231 -0.495,0.613 v 0.126 c 0,0.381 0.075,0.613 0.495,0.613 h 0.039 c 0.264,0 0.408,-0.084 0.469,-0.3 h 0.48 c -0.097,0.478 -0.354,0.707 -0.934,0.707 z"
   id="path62"
   style="fill:#000000;fill-opacity:1" />
		<path
   class="st0"
   d="m 253.131,18.705 h -0.426 v -0.932 c 0,-0.135 -0.027,-0.223 -0.078,-0.262 -0.052,-0.039 -0.124,-0.06 -0.221,-0.06 -0.215,0 -0.32,0.084 -0.32,0.375 v 0.878 H 251.66 V 16.6 h 0.426 v 0.766 h 0.018 c 0.061,-0.183 0.193,-0.285 0.457,-0.285 0.347,0 0.57,0.138 0.57,0.577 z"
   id="path64"
   style="fill:#000000;fill-opacity:1" />
		<path
   class="st0"
   d="m 254.909,18.705 h -0.42 v -0.192 h -0.015 c -0.069,0.132 -0.19,0.223 -0.483,0.223 -0.342,0 -0.568,-0.145 -0.568,-0.49 v -0.015 c 0,-0.303 0.151,-0.466 0.538,-0.487 l 0.522,-0.027 v -0.048 c 0,-0.117 -0.027,-0.189 -0.078,-0.222 -0.052,-0.033 -0.124,-0.048 -0.221,-0.048 -0.173,0 -0.26,0.048 -0.296,0.177 h -0.42 c 0.072,-0.336 0.283,-0.493 0.71,-0.493 h 0.023 c 0.472,0 0.707,0.126 0.707,0.628 v 0.994 z m -1.057,-0.473 c 0,0.147 0.115,0.21 0.275,0.21 0.257,0 0.356,-0.123 0.356,-0.324 v -0.124 l -0.408,0.021 c -0.16,0.009 -0.224,0.063 -0.224,0.199 v 0.018 z"
   id="path66"
   style="fill:#000000;fill-opacity:1" />
		<path
   class="st0"
   d="m 256.718,18.705 h -0.426 v -0.932 c 0,-0.135 -0.027,-0.223 -0.078,-0.262 -0.052,-0.039 -0.124,-0.06 -0.221,-0.06 -0.215,0 -0.32,0.084 -0.32,0.375 v 0.878 h -0.426 v -1.593 h 0.426 v 0.255 h 0.018 c 0.061,-0.183 0.193,-0.285 0.456,-0.285 0.348,0 0.571,0.138 0.571,0.577 z"
   id="path68"
   style="fill:#000000;fill-opacity:1" />
		<path
   class="st0"
   d="M 258.526,18.705 H 258.1 v -0.932 c 0,-0.135 -0.027,-0.223 -0.078,-0.262 -0.052,-0.039 -0.124,-0.06 -0.221,-0.06 -0.215,0 -0.32,0.084 -0.32,0.375 v 0.878 h -0.426 v -1.593 h 0.426 v 0.255 h 0.018 c 0.061,-0.183 0.193,-0.285 0.456,-0.285 0.348,0 0.571,0.138 0.571,0.577 z"
   id="path70"
   style="fill:#000000;fill-opacity:1" />
		<path
   class="st0"
   d="m 260.335,18.236 c -0.084,0.303 -0.29,0.499 -0.716,0.499 h -0.03 c -0.447,0 -0.746,-0.205 -0.746,-0.806 V 17.89 c 0,-0.602 0.299,-0.809 0.746,-0.809 h 0.03 c 0.447,0 0.731,0.186 0.731,0.791 v 0.123 h -1.082 c 0.013,0.325 0.118,0.397 0.336,0.397 0.147,0 0.257,-0.036 0.305,-0.156 z m -1.064,-0.511 h 0.649 V 17.71 c 0,-0.243 -0.142,-0.315 -0.326,-0.315 -0.193,-0.001 -0.298,0.056 -0.323,0.33 z"
   id="path72"
   style="fill:#000000;fill-opacity:1" />
		<path
   class="st0"
   d="m 261.099,18.705 h -0.426 v -2.104 h 0.426 z"
   id="path74"
   style="fill:#000000;fill-opacity:1" />
		<path
   class="st0"
   d="m 263.095,18.735 c -0.52,0 -0.88,-0.166 -0.928,-0.61 h 0.492 c 0.043,0.204 0.248,0.231 0.447,0.231 0.281,0 0.423,-0.066 0.423,-0.255 v -0.027 c 0,-0.153 -0.075,-0.219 -0.344,-0.231 l -0.29,-0.012 c -0.463,-0.021 -0.692,-0.199 -0.692,-0.574 v -0.021 c 0,-0.442 0.281,-0.665 0.846,-0.665 h 0.037 c 0.501,0 0.857,0.208 0.894,0.631 h -0.492 C 263.443,17 263.289,16.95 263.059,16.95 c -0.264,0 -0.378,0.069 -0.378,0.247 v 0.015 c 0,0.153 0.069,0.22 0.345,0.231 l 0.287,0.009 c 0.468,0.021 0.691,0.195 0.691,0.577 v 0.027 c 0,0.496 -0.348,0.68 -0.882,0.68 h -0.027 z"
   id="path76"
   style="fill:#000000;fill-opacity:1" />
		<path
   class="st0"
   d="m 265.769,18.705 h -0.42 v -0.192 h -0.015 c -0.069,0.132 -0.19,0.223 -0.483,0.223 -0.342,0 -0.568,-0.145 -0.568,-0.49 v -0.015 c 0,-0.303 0.151,-0.466 0.538,-0.487 l 0.522,-0.027 v -0.048 c 0,-0.117 -0.027,-0.189 -0.078,-0.222 -0.052,-0.033 -0.124,-0.048 -0.221,-0.048 -0.173,0 -0.26,0.048 -0.296,0.177 h -0.42 c 0.072,-0.336 0.283,-0.493 0.71,-0.493 h 0.023 c 0.472,0 0.707,0.126 0.707,0.628 v 0.994 z m -1.058,-0.473 c 0,0.147 0.115,0.21 0.275,0.21 0.257,0 0.356,-0.123 0.356,-0.324 v -0.124 l -0.408,0.021 c -0.16,0.009 -0.224,0.063 -0.224,0.199 v 0.018 z"
   id="path78"
   style="fill:#000000;fill-opacity:1" />
		<path
   class="st0"
   d="m 268.553,18.705 h -0.426 v -0.932 c 0,-0.271 -0.097,-0.322 -0.28,-0.322 -0.206,0 -0.303,0.081 -0.303,0.373 v 0.881 h -0.429 v -0.932 c 0,-0.271 -0.097,-0.322 -0.278,-0.322 -0.205,0 -0.305,0.081 -0.305,0.373 v 0.881 h -0.426 v -1.593 h 0.426 v 0.255 h 0.018 c 0.061,-0.183 0.179,-0.285 0.441,-0.285 0.257,0 0.438,0.078 0.514,0.285 h 0.012 c 0.063,-0.189 0.215,-0.285 0.483,-0.285 0.342,0 0.553,0.138 0.553,0.544 z"
   id="path80"
   style="fill:#000000;fill-opacity:1" />
		<path
   class="st0"
   d="m 268.889,17.111 h 0.429 v 0.21 h 0.015 c 0.061,-0.135 0.163,-0.24 0.42,-0.24 h 0.013 c 0.396,0 0.68,0.186 0.68,0.791 v 0.072 c 0,0.61 -0.284,0.791 -0.68,0.791 h -0.013 c -0.257,0 -0.359,-0.108 -0.42,-0.241 h -0.015 v 0.722 h -0.429 z m 0.428,0.782 v 0.033 c 0,0.367 0.105,0.442 0.351,0.442 0.247,0 0.351,-0.075 0.351,-0.442 v -0.033 c 0,-0.37 -0.104,-0.445 -0.351,-0.445 -0.245,0 -0.351,0.075 -0.351,0.445 z"
   id="path82"
   style="fill:#000000;fill-opacity:1" />
		<path
   class="st0"
   d="m 271.195,18.705 h -0.426 v -2.104 h 0.426 z"
   id="path84"
   style="fill:#000000;fill-opacity:1" />
		<path
   class="st0"
   d="m 273.018,18.236 c -0.084,0.303 -0.29,0.499 -0.716,0.499 h -0.03 c -0.447,0 -0.746,-0.205 -0.746,-0.806 V 17.89 c 0,-0.602 0.299,-0.809 0.746,-0.809 h 0.03 c 0.447,0 0.731,0.186 0.731,0.791 v 0.123 h -1.082 c 0.012,0.325 0.118,0.397 0.336,0.397 0.147,0 0.256,-0.036 0.305,-0.156 z m -1.064,-0.511 h 0.649 V 17.71 c 0,-0.243 -0.142,-0.315 -0.326,-0.315 -0.193,-0.001 -0.298,0.056 -0.323,0.33 z"
   id="path86"
   style="fill:#000000;fill-opacity:1" />
		<path
   class="st0"
   d="m 274.61,18.705 h -0.469 v -2.104 h 1.085 c 0.517,0 0.725,0.18 0.725,0.676 v 0.09 c 0,0.457 -0.208,0.67 -0.725,0.67 h -0.616 z m 0,-1.723 v 0.673 h 0.544 c 0.257,0 0.329,-0.09 0.329,-0.321 v -0.03 c 0,-0.237 -0.079,-0.322 -0.333,-0.322 z"
   id="path88"
   style="fill:#000000;fill-opacity:1" />
		<path
   class="st0"
   d="m 276.669,18.705 h -0.426 v -2.104 h 0.426 z"
   id="path90"
   style="fill:#000000;fill-opacity:1" />
		<path
   class="st0"
   d="m 278.461,18.705 h -0.42 v -0.192 h -0.015 c -0.069,0.132 -0.19,0.223 -0.483,0.223 -0.342,0 -0.568,-0.145 -0.568,-0.49 v -0.015 c 0,-0.303 0.151,-0.466 0.538,-0.487 l 0.522,-0.027 v -0.048 c 0,-0.117 -0.027,-0.189 -0.078,-0.222 -0.052,-0.033 -0.124,-0.048 -0.221,-0.048 -0.173,0 -0.26,0.048 -0.296,0.177 h -0.42 c 0.072,-0.336 0.283,-0.493 0.71,-0.493 h 0.023 c 0.472,0 0.707,0.126 0.707,0.628 v 0.994 z m -1.058,-0.473 c 0,0.147 0.115,0.21 0.275,0.21 0.257,0 0.356,-0.123 0.356,-0.324 v -0.124 l -0.408,0.021 c -0.16,0.009 -0.224,0.063 -0.224,0.199 v 0.018 z"
   id="path92"
   style="fill:#000000;fill-opacity:1" />
		<path
   class="st0"
   d="m 279.469,19.216 h -0.45 l 0.224,-0.517 -0.583,-1.587 h 0.459 l 0.351,1.058 h 0.016 l 0.354,-1.058 h 0.432 z"
   id="path94"
   style="fill:#000000;fill-opacity:1" />
		<path
   class="st0"
   d="m 281.918,18.236 c -0.084,0.303 -0.29,0.499 -0.716,0.499 h -0.03 c -0.447,0 -0.746,-0.205 -0.746,-0.806 V 17.89 c 0,-0.602 0.299,-0.809 0.746,-0.809 h 0.03 c 0.447,0 0.731,0.186 0.731,0.791 v 0.123 h -1.082 c 0.012,0.325 0.118,0.397 0.336,0.397 0.147,0 0.256,-0.036 0.305,-0.156 z m -1.064,-0.511 h 0.649 V 17.71 c 0,-0.243 -0.142,-0.315 -0.326,-0.315 -0.193,-0.001 -0.298,0.056 -0.323,0.33 z"
   id="path96"
   style="fill:#000000;fill-opacity:1" />
		<path
   class="st0"
   d="m 283.223,17.111 v 0.391 h -0.143 c -0.28,0 -0.401,0.082 -0.401,0.385 v 0.818 h -0.426 v -1.593 h 0.426 v 0.25 h 0.018 c 0.058,-0.177 0.19,-0.25 0.456,-0.25 h 0.07 z"
   id="path98"
   style="fill:#000000;fill-opacity:1" />
	</g><path
   class="st0"
   d="m 208.711,38.222 c 31.818,0 65.868,0 65.868,0 1.589,0 3.025,0.643 4.066,1.684 1.041,1.041 1.684,2.477 1.684,4.066 v 66.054 c 0,1.589 -0.643,3.025 -1.684,4.066 -1.041,1.041 -2.477,1.684 -4.066,1.684 H 158.816 c -1.589,0 -3.025,-0.643 -4.066,-1.684 -1.041,-1.041 -1.684,-2.477 -1.684,-4.066 V 43.972 c 0,-1.589 0.643,-3.025 1.684,-4.066 1.041,-1.041 2.477,-1.684 4.066,-1.684 0.002,0 0.707,0 1.883,0 3.528,0 11.277,0 16.811,0 v -0.5 c -3.689,0 -8.363,0 -12.114,0 -1.876,0 -3.521,0 -4.697,0 -1.176,0 -1.882,0 -1.883,0 -3.452,0 -6.25,2.798 -6.25,6.25 v 66.054 c 0,3.452 2.798,6.25 6.25,6.25 h 115.763 c 3.452,0 6.25,-2.798 6.25,-6.25 V 43.972 c 0,-3.452 -2.798,-6.25 -6.25,-6.25 0,0 -34.05,0 -65.868,0 z"
   id="path102"
   style="stroke:none;fill-opacity:1;fill:#000000" /><g
   id="g110"
   style="fill:#000000;fill-opacity:1;stroke:none">
		<path
   class="st0"
   d="m 189.384,38.202 h -2.234 l -1.261,-3.194 -1.338,3.194 h -2.276 l -1.786,-4.903 h 1.927 l 1.134,3.432 h 0.063 l 1.331,-3.432 h 1.939 l 1.345,3.432 h 0.063 l 1.113,-3.432 h 1.751 z"
   id="path104"
   style="fill:#000000;fill-opacity:1;stroke:none" />
		<path
   class="st0"
   d="m 199.562,38.202 h -1.982 l -0.56,-0.974 h -3.376 l -0.554,0.974 h -1.919 l 2.864,-4.903 h 2.662 z m -4.259,-3.866 -1.001,1.737 h 2.059 l -0.994,-1.737 z"
   id="path106"
   style="fill:#000000;fill-opacity:1;stroke:none" />
		<path
   class="st0"
   d="m 204.179,38.202 h -2.157 l -2.864,-4.903 h 2.06 l 1.926,3.425 h 0.062 l 1.94,-3.425 h 1.898 z"
   id="path108"
   style="fill:#000000;fill-opacity:1;stroke:none" />
	</g><path
   class="st0"
   d="m 272.853,61.468 c 0.059,-0.243 0.11,-0.488 0.156,-0.736 l -2.488,-0.565 c 0.113,-0.648 0.176,-1.313 0.176,-1.993 0,-1.421 -0.259,-2.781 -0.73,-4.038 l 2.38,-0.935 c -0.089,-0.235 -0.184,-0.467 -0.285,-0.696 l -2.384,0.936 c -0.84,-1.86 -2.158,-3.455 -3.8,-4.631 l 1.446,-2.117 c -0.204,-0.145 -0.412,-0.285 -0.624,-0.42 l -1.447,2.118 c -1.664,-1.035 -3.61,-1.656 -5.697,-1.723 v -2.566 c -0.125,-0.003 -0.25,-0.009 -0.376,-0.009 -0.126,0 -0.251,0.006 -0.376,0.009 v 2.566 c -2.087,0.067 -4.033,0.688 -5.697,1.723 l -1.447,-2.118 c -0.212,0.134 -0.42,0.274 -0.624,0.42 l 1.446,2.117 c -1.641,1.176 -2.96,2.772 -3.8,4.631 l -2.384,-0.936 c -0.101,0.229 -0.196,0.461 -0.285,0.696 l 2.38,0.935 c -0.471,1.257 -0.73,2.617 -0.73,4.038 0,0.68 0.062,1.345 0.176,1.993 l -2.488,0.565 c 0.046,0.248 0.098,0.493 0.156,0.736 l 2.485,-0.565 c 0.5,2.054 1.549,3.893 2.984,5.349 l -1.731,1.865 c 0.178,0.177 0.361,0.348 0.548,0.516 l 2.351,-2.532 -0.551,-0.512 -0.003,0.003 c -1.872,-1.915 -3.026,-4.529 -3.026,-7.419 0,-2.933 1.188,-5.584 3.109,-7.506 1.923,-1.922 4.574,-3.109 7.507,-3.109 2.933,0 5.584,1.188 7.507,3.109 1.922,1.922 3.109,4.574 3.109,7.506 0,2.889 -1.154,5.504 -3.026,7.419 l -0.003,-0.003 -0.551,0.512 2.35,2.532 c 0.187,-0.167 0.37,-0.339 0.548,-0.516 l -1.731,-1.865 c 1.435,-1.456 2.484,-3.295 2.984,-5.349 z"
   id="path112"
   style="stroke:none;stroke-opacity:1;fill:#000000;stroke-width:0.2;stroke-miterlimit:4;stroke-dasharray:none;fill-opacity:1" /><g
   id="g116"
   style="stroke:none;fill:#000000;fill-opacity:1">
		<path
   class="st0"
   d="m 244.631,68.425 c -0.887,0 -1.287,-0.371 -1.287,-1.758 v -1.52 c 0,-1.401 0.4,-1.765 1.287,-1.765 h 0.084 c 0.895,0 1.287,0.364 1.287,1.765 v 1.52 c 0,1.387 -0.4,1.758 -1.287,1.758 z m 0.668,-1.701 v -1.632 c 0,-0.883 -0.154,-1.1 -0.625,-1.1 -0.479,0 -0.635,0.217 -0.635,1.1 v 1.632 c 0,0.882 0.156,1.093 0.635,1.093 0.479,0 0.625,-0.211 0.625,-1.093 z"
   id="path114"
   style="stroke:none;fill-opacity:1;fill:#000000" />
	</g><polygon
   class="st0"
   points="273.2,67.739 274.212,67.739 274.212,64.076 274.177,64.076 273.255,64.595 273.255,63.852 274.043,63.453 274.909,63.453 274.909,67.739 275.802,67.739 275.802,68.355 273.2,68.355 "
   id="polygon118"
   style="stroke:none;fill-opacity:1;fill:#000000" /><path
   class="st0"
   d="m 249.183,103.639 c -2.793,-2.793 -4.188,-6.45 -4.188,-10.111 0,-3.66 1.395,-7.318 4.188,-10.111 0.117,-0.117 0.117,-0.307 0,-0.424 -0.117,-0.117 -0.307,-0.117 -0.424,0 -2.909,2.908 -4.364,6.723 -4.364,10.535 0,3.812 1.455,7.626 4.364,10.535 0.117,0.117 0.307,0.117 0.424,0 0.117,-0.117 0.117,-0.307 0,-0.424 z"
   id="path120"
   style="stroke:none;fill-opacity:1;fill:#000000" /><path
   class="st0"
   d="m 269.404,83.418 c 2.792,2.793 4.188,6.45 4.188,10.111 0,3.66 -1.395,7.318 -4.188,10.111 -0.117,0.117 -0.117,0.307 0,0.424 0.117,0.117 0.307,0.117 0.424,0 2.908,-2.908 4.364,-6.723 4.364,-10.535 0,-3.812 -1.455,-7.626 -4.364,-10.535 -0.117,-0.117 -0.307,-0.117 -0.424,0 -0.118,0.117 -0.118,0.307 0,0.424 z"
   id="path122"
   style="stroke:none;stroke-width:0.1;stroke-miterlimit:4;stroke-dasharray:none;stroke-opacity:1;fill-opacity:1;fill:#000000" /><path
   class="st0"
   d="m 249.183,164.494 c -2.793,-2.793 -4.188,-6.45 -4.188,-10.111 0,-3.66 1.395,-7.318 4.188,-10.11 0.117,-0.117 0.117,-0.307 0,-0.424 -0.117,-0.117 -0.307,-0.117 -0.424,0 -2.909,2.908 -4.364,6.723 -4.364,10.535 0,3.812 1.455,7.626 4.364,10.535 0.117,0.117 0.307,0.117 0.424,0 0.117,-0.118 0.117,-0.308 0,-0.425 z"
   id="path124"
   style="stroke:none;fill-opacity:1;fill:#000000" /><path
   class="st0"
   d="m 269.404,144.273 c 2.792,2.793 4.188,6.45 4.188,10.111 0,3.66 -1.395,7.318 -4.188,10.111 -0.117,0.117 -0.117,0.307 0,0.424 0.117,0.117 0.307,0.117 0.424,0 2.908,-2.908 4.364,-6.723 4.364,-10.535 0,-3.812 -1.455,-7.626 -4.364,-10.535 -0.117,-0.117 -0.307,-0.117 -0.424,0 -0.118,0.117 -0.118,0.307 0,0.424 z"
   id="path126"
   style="stroke:none;fill-opacity:1;fill:#000000" /><path
   class="st0"
   d="m 206.121,164.658 c -2.793,-2.793 -4.188,-6.45 -4.188,-10.111 0,-3.66 1.395,-7.318 4.188,-10.11 0.117,-0.117 0.117,-0.307 0,-0.424 -0.117,-0.117 -0.307,-0.117 -0.424,0 -2.909,2.908 -4.364,6.723 -4.364,10.535 0,3.812 1.455,7.626 4.364,10.535 0.117,0.117 0.307,0.117 0.424,0 0.117,-0.118 0.117,-0.308 0,-0.425 z"
   id="path128"
   style="stroke:none;fill-opacity:1;fill:#000000" /><path
   class="st0"
   d="m 226.342,144.437 c 2.792,2.793 4.188,6.45 4.188,10.111 0,3.66 -1.395,7.318 -4.188,10.111 -0.117,0.117 -0.117,0.307 0,0.424 0.117,0.117 0.307,0.117 0.424,0 2.908,-2.908 4.364,-6.723 4.364,-10.535 0,-3.812 -1.455,-7.626 -4.364,-10.535 -0.117,-0.117 -0.307,-0.117 -0.424,0 -0.117,0.117 -0.117,0.307 0,0.424 z"
   id="path130"
   style="stroke:none;fill-opacity:1;fill:#000000" /><path
   class="st0"
   d="m 162.595,164.658 c -2.793,-2.793 -4.188,-6.45 -4.188,-10.111 0,-3.66 1.395,-7.318 4.188,-10.11 0.117,-0.117 0.117,-0.307 0,-0.424 -0.117,-0.117 -0.307,-0.117 -0.424,0 -2.909,2.908 -4.364,6.723 -4.364,10.535 0,3.812 1.455,7.626 4.364,10.535 0.117,0.117 0.307,0.117 0.424,0 0.117,-0.118 0.117,-0.308 0,-0.425 z"
   id="path132"
   style="stroke:none;fill-opacity:1;fill:#000000" /><path
   class="st0"
   d="m 182.816,144.437 c 2.792,2.793 4.188,6.45 4.188,10.111 0,3.66 -1.395,7.318 -4.188,10.111 -0.117,0.117 -0.117,0.307 0,0.424 0.117,0.117 0.307,0.117 0.424,0 2.908,-2.908 4.364,-6.723 4.364,-10.535 0,-3.812 -1.455,-7.626 -4.364,-10.535 -0.117,-0.117 -0.307,-0.117 -0.424,0 -0.117,0.117 -0.117,0.307 0,0.424 z"
   id="path134"
   style="stroke:none;fill-opacity:1;fill:#000000" /><path
   class="st0"
   d="m 206.121,241.084 c -2.793,-2.793 -4.188,-6.45 -4.188,-10.111 0,-3.66 1.395,-7.318 4.188,-10.111 0.117,-0.117 0.117,-0.307 0,-0.424 -0.117,-0.117 -0.307,-0.117 -0.424,0 -2.909,2.908 -4.364,6.723 -4.364,10.535 0,3.812 1.455,7.626 4.364,10.535 0.117,0.117 0.307,0.117 0.424,0 0.117,-0.117 0.117,-0.307 0,-0.424 z"
   id="path136"
   style="stroke:none;fill-opacity:1;fill:#000000" /><path
   class="st0"
   d="m 226.342,220.863 c 2.792,2.793 4.188,6.45 4.188,10.111 0,3.66 -1.395,7.318 -4.188,10.111 -0.117,0.117 -0.117,0.307 0,0.424 0.117,0.117 0.307,0.117 0.424,0 2.908,-2.908 4.364,-6.723 4.364,-10.535 0,-3.812 -1.455,-7.626 -4.364,-10.535 -0.117,-0.117 -0.307,-0.117 -0.424,0 -0.117,0.117 -0.117,0.307 0,0.424 z"
   id="path138"
   style="stroke:none;fill-opacity:1;fill:#000000" /><path
   class="st0"
   d="m 162.595,241.084 c -2.793,-2.793 -4.188,-6.45 -4.188,-10.111 0,-3.66 1.395,-7.318 4.188,-10.111 0.117,-0.117 0.117,-0.307 0,-0.424 -0.117,-0.117 -0.307,-0.117 -0.424,0 -2.909,2.908 -4.364,6.723 -4.364,10.535 0,3.812 1.455,7.626 4.364,10.535 0.117,0.117 0.307,0.117 0.424,0 0.117,-0.117 0.117,-0.307 0,-0.424 z"
   id="path140"
   style="stroke:none;fill-opacity:1;fill:#000000" /><path
   class="st0"
   d="m 182.816,220.863 c 2.792,2.793 4.188,6.45 4.188,10.111 0,3.66 -1.395,7.318 -4.188,10.111 -0.117,0.117 -0.117,0.307 0,0.424 0.117,0.117 0.307,0.117 0.424,0 2.908,-2.908 4.364,-6.723 4.364,-10.535 0,-3.812 -1.455,-7.626 -4.364,-10.535 -0.117,-0.117 -0.307,-0.117 -0.424,0 -0.117,0.117 -0.117,0.307 0,0.424 z"
   id="path142"
   style="stroke:none;fill-opacity:1;fill:#000000" /><polyline
   class="st0"
   points="259.571,259.3 259.571,248.754 259.071,248.754 259.071,259.3  "
   id="polyline144"
   style="stroke:none;fill-opacity:1;fill:#000000" /><path
   class="st0"
   d="m 159.266,259.356 v 0.25 h 115.869 c 1.589,0 3.025,0.643 4.066,1.684 1.041,1.041 1.684,2.477 1.684,4.066 v 15.022 c 0,1.589 -0.643,3.025 -1.684,4.066 -1.041,1.041 -2.477,1.684 -4.066,1.684 H 159.266 c -1.589,0 -3.025,-0.643 -4.066,-1.684 -1.041,-1.041 -1.684,-2.477 -1.684,-4.066 v -15.022 c 0,-1.589 0.643,-3.025 1.684,-4.066 1.041,-1.041 2.477,-1.684 4.066,-1.684 v -0.25 -0.25 c -3.452,0 -6.25,2.798 -6.25,6.25 v 15.022 c 0,3.452 2.798,6.25 6.25,6.25 h 115.869 c 3.452,0 6.25,-2.798 6.25,-6.25 v -15.022 c 0,-3.452 -2.798,-6.25 -6.25,-6.25 H 159.266 Z"
   id="path146"
   style="stroke:none;fill-opacity:1;fill:#000000" /><circle
   class="st1"
   cx="259.327"
   cy="248.453"
   r="2.4560001"
   id="circle148"
   style="stroke:none;fill-opacity:1;fill:#000000" /><g
   id="g156"
   style="fill:#000000;fill-opacity:1;stroke:none">
		<path
   class="st0"
   d="m 167.042,135.653 h -1.093 v -3.964 h -1.491 v -0.938 h 4.097 v 0.938 h -1.513 z"
   id="path150"
   style="fill:#000000;fill-opacity:1;stroke:none" />
		<path
   class="st0"
   d="m 170.968,135.653 h -1.086 v -4.903 h 2.529 c 1.218,0 1.666,0.343 1.666,1.296 v 0.126 c 0,0.729 -0.224,1.051 -0.749,1.135 v 0.049 c 0.519,0.084 0.749,0.259 0.749,1.114 v 1.184 h -1.085 v -1.114 c 0,-0.553 -0.176,-0.672 -0.819,-0.672 h -1.205 z m 0,-3.999 v 1.316 h 1.324 c 0.504,0 0.7,-0.154 0.7,-0.623 v -0.042 c 0,-0.498 -0.196,-0.651 -0.812,-0.651 z"
   id="path152"
   style="fill:#000000;fill-opacity:1;stroke:none" />
		<path
   class="st0"
   d="m 177.836,135.723 c -1.59,0 -2.291,-0.686 -2.291,-2.304 v -0.427 c 0,-1.618 0.701,-2.311 2.291,-2.311 h 0.091 c 1.261,0 1.996,0.441 2.213,1.499 h -1.142 c -0.119,-0.385 -0.469,-0.554 -1.058,-0.554 h -0.119 c -0.974,0 -1.177,0.54 -1.177,1.429 v 0.309 c 0,0.896 0.203,1.421 1.177,1.421 h 0.154 c 0.883,0 1.121,-0.315 1.121,-1.1 h -1.359 v -0.903 h 2.451 v 0.637 c 0,1.618 -0.686,2.304 -2.262,2.304 z"
   id="path154"
   style="fill:#000000;fill-opacity:1;stroke:none" />
	</g><g
   id="g166"
   style="fill:#000000;fill-opacity:1;stroke:none">
		<path
   class="st0"
   d="m 210.446,135.653 h -1.674 l -1.926,-3.719 h -0.042 v 3.719 h -1.072 v -4.903 h 1.682 l 1.919,3.726 h 0.042 v -3.726 h 1.071 z"
   id="path158"
   style="fill:#000000;fill-opacity:1;stroke:none" />
		<path
   class="st0"
   d="m 215.695,135.653 h -3.649 v -4.903 h 3.649 v 0.911 h -2.563 v 1.085 h 2.563 v 0.904 h -2.563 v 1.092 h 2.563 z"
   id="path160"
   style="fill:#000000;fill-opacity:1;stroke:none" />
		<path
   class="st0"
   d="m 221.771,135.653 h -1.323 l -1.113,-1.751 H 219.3 l -1.142,1.751 h -1.233 l 1.682,-2.528 -1.598,-2.375 h 1.317 l 1.043,1.618 h 0.035 l 1.064,-1.618 h 1.233 l -1.611,2.396 z"
   id="path162"
   style="fill:#000000;fill-opacity:1;stroke:none" />
		<path
   class="st0"
   d="m 225.348,135.653 h -1.093 v -3.964 h -1.491 v -0.938 h 4.097 v 0.938 h -1.513 z"
   id="path164"
   style="fill:#000000;fill-opacity:1;stroke:none" />
	</g><g
   id="g178"
   style="fill:#000000;fill-opacity:1;stroke:none">
		<path
   class="st0"
   d="m 161.69,211.99 h -1.086 v -4.902 h 2.515 c 1.198,0 1.681,0.42 1.681,1.576 v 0.21 c 0,1.064 -0.482,1.562 -1.681,1.562 h -1.429 z m 0,-4.012 v 1.569 h 1.261 c 0.596,0 0.764,-0.211 0.764,-0.75 v -0.07 c 0,-0.553 -0.183,-0.749 -0.771,-0.749 z"
   id="path168"
   style="fill:#000000;fill-opacity:1;stroke:none" />
		<path
   class="st0"
   d="m 167.248,211.99 h -1.086 v -4.902 h 1.086 z"
   id="path170"
   style="fill:#000000;fill-opacity:1;stroke:none" />
		<path
   class="st0"
   d="m 171.155,211.99 h -1.093 v -3.964 h -1.491 v -0.938 h 4.097 v 0.938 h -1.513 z"
   id="path172"
   style="fill:#000000;fill-opacity:1;stroke:none" />
		<path
   class="st0"
   d="m 175.999,212.061 c -1.583,0 -2.214,-0.687 -2.214,-2.304 v -0.435 c 0,-1.618 0.631,-2.305 2.214,-2.305 h 0.161 c 1.345,0 1.939,0.533 2.164,1.646 h -1.114 c -0.14,-0.505 -0.476,-0.7 -1.085,-0.7 h -0.091 c -0.974,0 -1.149,0.539 -1.149,1.429 v 0.294 c 0,0.89 0.176,1.429 1.149,1.429 h 0.091 c 0.609,0 0.945,-0.196 1.085,-0.7 h 1.114 c -0.225,1.113 -0.819,1.646 -2.164,1.646 z"
   id="path174"
   style="fill:#000000;fill-opacity:1;stroke:none" />
		<path
   class="st0"
   d="m 184.225,211.99 h -1.092 v -1.988 h -2.263 v 1.988 h -1.086 v -4.902 h 1.086 v 1.976 h 2.263 v -1.976 h 1.092 z"
   id="path176"
   style="fill:#000000;fill-opacity:1;stroke:none" />
	</g><g
   id="g188"
   style="fill:#000000;fill-opacity:1">
		<path
   class="st0"
   d="m 159.6,317.189 h -3.412 v -4.903 h 1.086 v 3.964 h 2.326 z"
   id="path180"
   style="fill:#000000;fill-opacity:1" />
		<path
   class="st0"
   d="m 162.994,317.259 c -1.59,0 -2.291,-0.687 -2.291,-2.304 v -0.428 c 0,-1.618 0.701,-2.312 2.291,-2.312 h 0.09 c 1.576,0 2.283,0.693 2.283,2.312 v 0.428 c 0,1.617 -0.707,2.304 -2.283,2.304 z m 0.104,-0.946 c 0.967,-0.014 1.17,-0.525 1.17,-1.429 v -0.294 c 0,-0.89 -0.203,-1.429 -1.17,-1.429 h -0.119 c -0.973,0 -1.176,0.539 -1.176,1.429 v 0.294 c 0,0.89 0.203,1.429 1.176,1.429 z"
   id="path182"
   style="fill:#000000;fill-opacity:1" />
		<path
   class="st0"
   d="m 169.098,317.259 c -1.59,0 -2.291,-0.687 -2.291,-2.304 v -0.428 c 0,-1.618 0.701,-2.312 2.291,-2.312 h 0.092 c 1.574,0 2.283,0.693 2.283,2.312 v 0.428 c 0,1.617 -0.709,2.304 -2.283,2.304 z m 0.105,-0.946 c 0.967,-0.014 1.17,-0.525 1.17,-1.429 v -0.294 c 0,-0.89 -0.203,-1.429 -1.17,-1.429 h -0.119 c -0.975,0 -1.178,0.539 -1.178,1.429 v 0.294 c 0,0.89 0.203,1.429 1.178,1.429 z"
   id="path184"
   style="fill:#000000;fill-opacity:1" />
		<path
   class="st0"
   d="m 174.088,317.189 h -1.086 v -4.903 h 2.514 c 1.199,0 1.682,0.421 1.682,1.576 v 0.21 c 0,1.064 -0.482,1.562 -1.682,1.562 h -1.428 z m 0,-4.013 v 1.569 h 1.26 c 0.596,0 0.764,-0.211 0.764,-0.75 v -0.07 c 0,-0.553 -0.182,-0.749 -0.77,-0.749 z"
   id="path186"
   style="fill:#000000;fill-opacity:1" />
	</g><g
   id="g198"
   style="fill:#000000;fill-opacity:1">
		<path
   class="st0"
   d="m 206.851,317.259 c -1.59,0 -2.291,-0.687 -2.291,-2.304 v -0.428 c 0,-1.618 0.701,-2.312 2.291,-2.312 h 0.091 c 1.575,0 2.283,0.693 2.283,2.312 v 0.428 c 0,1.617 -0.708,2.304 -2.283,2.304 z m 0.104,-0.946 c 0.967,-0.014 1.17,-0.525 1.17,-1.429 v -0.294 c 0,-0.89 -0.203,-1.429 -1.17,-1.429 h -0.119 c -0.974,0 -1.177,0.539 -1.177,1.429 v 0.294 c 0,0.89 0.203,1.429 1.177,1.429 z"
   id="path190"
   style="fill:#000000;fill-opacity:1" />
		<path
   class="st0"
   d="m 212.771,317.259 c -1.52,0 -2.094,-0.519 -2.094,-2.031 v -2.941 h 1.106 v 2.879 c 0,0.854 0.238,1.12 0.959,1.12 h 0.154 c 0.722,0 0.96,-0.272 0.96,-1.12 v -2.879 h 1.106 v 2.941 c 0,1.513 -0.581,2.031 -2.094,2.031 z"
   id="path192"
   style="fill:#000000;fill-opacity:1" />
		<path
   class="st0"
   d="m 218.799,317.189 h -1.093 v -3.965 h -1.491 v -0.938 h 4.097 v 0.938 h -1.513 z"
   id="path194"
   style="fill:#000000;fill-opacity:1" />
		<path
   class="st0"
   d="m 227.318,317.189 h -3.411 v -4.903 h 1.086 v 3.964 h 2.325 z"
   id="path196"
   style="fill:#000000;fill-opacity:1" />
	</g><g
   id="g208"
   style="fill:#000000;fill-opacity:1">
		<path
   class="st0"
   d="m 249.679,317.259 c -1.59,0 -2.291,-0.687 -2.291,-2.304 v -0.428 c 0,-1.618 0.701,-2.312 2.291,-2.312 h 0.091 c 1.575,0 2.283,0.693 2.283,2.312 v 0.428 c 0,1.617 -0.708,2.304 -2.283,2.304 z m 0.104,-0.946 c 0.967,-0.014 1.17,-0.525 1.17,-1.429 v -0.294 c 0,-0.89 -0.203,-1.429 -1.17,-1.429 h -0.119 c -0.974,0 -1.177,0.539 -1.177,1.429 v 0.294 c 0,0.89 0.203,1.429 1.177,1.429 z"
   id="path200"
   style="fill:#000000;fill-opacity:1" />
		<path
   class="st0"
   d="m 255.6,317.259 c -1.52,0 -2.094,-0.519 -2.094,-2.031 v -2.941 h 1.106 v 2.879 c 0,0.854 0.238,1.12 0.959,1.12 h 0.154 c 0.722,0 0.96,-0.272 0.96,-1.12 v -2.879 h 1.106 v 2.941 c 0,1.513 -0.581,2.031 -2.094,2.031 z"
   id="path202"
   style="fill:#000000;fill-opacity:1" />
		<path
   class="st0"
   d="m 261.627,317.189 h -1.093 v -3.965 h -1.491 v -0.938 h 4.097 v 0.938 h -1.513 z"
   id="path204"
   style="fill:#000000;fill-opacity:1" />
		<path
   class="st0"
   d="m 267.821,317.189 h -1.086 v -4.903 h 2.529 c 1.218,0 1.666,0.344 1.666,1.296 v 0.126 c 0,0.729 -0.224,1.051 -0.749,1.135 v 0.049 c 0.519,0.084 0.749,0.259 0.749,1.113 v 1.185 h -1.085 v -1.114 c 0,-0.553 -0.176,-0.672 -0.819,-0.672 h -1.205 z m 0,-4 v 1.317 h 1.324 c 0.504,0 0.7,-0.154 0.7,-0.624 v -0.042 c 0,-0.497 -0.196,-0.651 -0.812,-0.651 z"
   id="path206"
   style="fill:#000000;fill-opacity:1" />
	</g><g
   id="g234"
   style="fill:#000000;fill-opacity:1;stroke:none">
		<path
   class="st0"
   d="m 165.256,274.947 h -1.086 v -4.902 h 2.515 c 1.198,0 1.681,0.42 1.681,1.576 v 0.21 c 0,1.064 -0.482,1.562 -1.681,1.562 h -1.429 z m 0,-4.012 v 1.569 h 1.261 c 0.596,0 0.764,-0.211 0.764,-0.75 v -0.07 c 0,-0.553 -0.183,-0.749 -0.771,-0.749 z"
   id="path210"
   style="fill:#000000;fill-opacity:1;stroke:none" />
		<path
   class="st0"
   d="m 171.788,275.018 c -1.59,0 -2.291,-0.687 -2.291,-2.304 v -0.428 c 0,-1.618 0.701,-2.312 2.291,-2.312 h 0.091 c 1.575,0 2.283,0.693 2.283,2.312 v 0.428 c 0,1.617 -0.708,2.304 -2.283,2.304 z m 0.105,-0.946 c 0.967,-0.014 1.17,-0.525 1.17,-1.429 v -0.294 c 0,-0.89 -0.203,-1.429 -1.17,-1.429 h -0.119 c -0.974,0 -1.177,0.539 -1.177,1.429 v 0.294 c 0,0.89 0.203,1.429 1.177,1.429 z"
   id="path212"
   style="fill:#000000;fill-opacity:1;stroke:none" />
		<path
   class="st0"
   d="m 178.956,274.947 h -3.411 v -4.902 h 1.086 v 3.964 h 2.325 z"
   id="path214"
   style="fill:#000000;fill-opacity:1;stroke:none" />
		<path
   class="st0"
   d="m 181.56,274.947 h -1.093 v -2.072 l -1.828,-2.83 h 1.261 l 1.148,1.856 h 0.042 l 1.148,-1.856 h 1.163 l -1.842,2.815 v 2.087 z"
   id="path216"
   style="fill:#000000;fill-opacity:1;stroke:none" />
		<path
   class="st0"
   d="m 191.612,274.947 h -1.204 l -0.399,-1.12 h -2.066 l -0.398,1.12 h -1.163 l 1.793,-4.902 h 1.639 z m -2.661,-3.991 -0.693,1.961 h 1.436 L 189,270.956 Z"
   id="path218"
   style="fill:#000000;fill-opacity:1;stroke:none" />
		<path
   class="st0"
   d="m 194.642,275.018 c -1.52,0 -2.094,-0.518 -2.094,-2.031 v -2.941 h 1.106 v 2.879 c 0,0.854 0.238,1.12 0.959,1.12 h 0.154 c 0.722,0 0.96,-0.272 0.96,-1.12 v -2.879 h 1.106 v 2.941 c 0,1.514 -0.581,2.031 -2.094,2.031 z"
   id="path220"
   style="fill:#000000;fill-opacity:1;stroke:none" />
		<path
   class="st0"
   d="m 202.645,272.644 c 0,1.618 -0.715,2.304 -2.29,2.304 h -2.13 v -4.902 h 2.13 c 1.575,0 2.29,0.693 2.29,2.312 z m -3.334,-1.681 v 3.067 h 1.029 c 0.967,-0.014 1.198,-0.554 1.198,-1.457 v -0.154 c 0,-0.889 -0.231,-1.456 -1.198,-1.456 z"
   id="path222"
   style="fill:#000000;fill-opacity:1;stroke:none" />
		<path
   class="st0"
   d="m 205.12,274.947 h -1.086 v -4.902 h 1.086 z"
   id="path224"
   style="fill:#000000;fill-opacity:1;stroke:none" />
		<path
   class="st0"
   d="m 208.79,275.018 c -1.59,0 -2.291,-0.687 -2.291,-2.304 v -0.428 c 0,-1.618 0.701,-2.312 2.291,-2.312 h 0.091 c 1.575,0 2.283,0.693 2.283,2.312 v 0.428 c 0,1.617 -0.708,2.304 -2.283,2.304 z m 0.105,-0.946 c 0.967,-0.014 1.17,-0.525 1.17,-1.429 v -0.294 c 0,-0.89 -0.203,-1.429 -1.17,-1.429 h -0.119 c -0.974,0 -1.177,0.539 -1.177,1.429 v 0.294 c 0,0.89 0.203,1.429 1.177,1.429 z"
   id="path226"
   style="fill:#000000;fill-opacity:1;stroke:none" />
		<path
   class="st0"
   d="m 216.882,275.018 c -1.59,0 -2.291,-0.687 -2.291,-2.304 v -0.428 c 0,-1.618 0.701,-2.312 2.291,-2.312 h 0.091 c 1.575,0 2.283,0.693 2.283,2.312 v 0.428 c 0,1.617 -0.708,2.304 -2.283,2.304 z m 0.104,-0.946 c 0.967,-0.014 1.17,-0.525 1.17,-1.429 v -0.294 c 0,-0.89 -0.203,-1.429 -1.17,-1.429 h -0.119 c -0.974,0 -1.177,0.539 -1.177,1.429 v 0.294 c 0,0.89 0.203,1.429 1.177,1.429 z"
   id="path228"
   style="fill:#000000;fill-opacity:1;stroke:none" />
		<path
   class="st0"
   d="m 222.67,275.018 c -1.52,0 -2.094,-0.518 -2.094,-2.031 v -2.941 h 1.106 v 2.879 c 0,0.854 0.238,1.12 0.959,1.12 h 0.154 c 0.722,0 0.96,-0.272 0.96,-1.12 v -2.879 h 1.106 v 2.941 c 0,1.514 -0.581,2.031 -2.094,2.031 z"
   id="path230"
   style="fill:#000000;fill-opacity:1;stroke:none" />
		<path
   class="st0"
   d="m 228.55,274.947 h -1.093 v -3.964 h -1.491 v -0.938 h 4.097 v 0.938 h -1.513 z"
   id="path232"
   style="fill:#000000;fill-opacity:1;stroke:none" />
	</g><g
   id="g242"
   style="fill:#000000;fill-opacity:1;stroke:none">
		<path
   class="st0"
   d="m 211.559,211.99 h -1.457 l -1.793,-4.902 h 1.226 l 1.303,3.705 h 0.042 l 1.316,-3.705 h 1.156 z"
   id="path236"
   style="fill:#000000;fill-opacity:1;stroke:none" />
		<path
   class="st0"
   d="m 216.626,212.061 c -1.59,0 -2.291,-0.687 -2.291,-2.304 v -0.428 c 0,-1.618 0.701,-2.312 2.291,-2.312 h 0.091 c 1.576,0 2.283,0.693 2.283,2.312 v 0.428 c 0,1.617 -0.707,2.304 -2.283,2.304 z m 0.104,-0.946 c 0.967,-0.014 1.17,-0.525 1.17,-1.429 v -0.294 c 0,-0.89 -0.203,-1.429 -1.17,-1.429 h -0.119 c -0.974,0 -1.177,0.539 -1.177,1.429 v 0.294 c 0,0.89 0.203,1.429 1.177,1.429 z"
   id="path238"
   style="fill:#000000;fill-opacity:1;stroke:none" />
		<path
   class="st0"
   d="m 223.935,211.99 h -3.411 v -4.902 h 1.086 v 3.964 h 2.325 z"
   id="path240"
   style="fill:#000000;fill-opacity:1;stroke:none" />
	</g><g
   id="g252"
   style="fill:#000000;fill-opacity:1;stroke:none">
		<path
   class="st0"
   d="m 249.957,135.653 h -1.086 v -4.903 h 2.516 c 1.197,0 1.68,0.42 1.68,1.576 v 0.21 c 0,1.064 -0.482,1.562 -1.68,1.562 h -1.43 z m 0,-4.013 v 1.569 h 1.262 c 0.596,0 0.764,-0.21 0.764,-0.75 v -0.07 c 0,-0.553 -0.184,-0.75 -0.771,-0.75 h -1.255 z"
   id="path244"
   style="fill:#000000;fill-opacity:1;stroke:none" />
		<path
   class="st0"
   d="m 255.516,135.653 h -1.086 v -4.903 h 2.529 c 1.217,0 1.666,0.343 1.666,1.296 v 0.126 c 0,0.729 -0.225,1.051 -0.75,1.135 v 0.049 c 0.52,0.084 0.75,0.259 0.75,1.114 v 1.184 h -1.086 v -1.114 c 0,-0.553 -0.176,-0.672 -0.818,-0.672 h -1.205 z m 0,-3.999 v 1.316 h 1.324 c 0.504,0 0.699,-0.154 0.699,-0.623 v -0.042 c 0,-0.498 -0.195,-0.651 -0.812,-0.651 z"
   id="path246"
   style="fill:#000000;fill-opacity:1;stroke:none" />
		<path
   class="st0"
   d="m 263.818,135.653 h -3.648 v -4.903 h 3.648 v 0.911 h -2.562 v 1.085 h 2.562 v 0.904 h -2.562 v 1.092 h 2.562 z"
   id="path248"
   style="fill:#000000;fill-opacity:1;stroke:none" />
		<path
   class="st0"
   d="m 268.271,135.653 h -1.457 l -1.793,-4.903 h 1.225 l 1.303,3.705 h 0.043 l 1.316,-3.705 h 1.156 z"
   id="path250"
   style="fill:#000000;fill-opacity:1;stroke:none" />
	</g><path
   class="st0"
   d="m 263.875,268.716 c 1.25,-0.531 3.336,-0.398 4.674,1.26 1.385,1.717 1.203,4.164 -0.404,5.648 -1.569,1.449 -3.709,1.305 -4.933,0.509 l 0.04,-0.049 c 0.158,-0.159 0.318,-0.316 0.475,-0.476 l 0.121,-0.019 c 1.317,0.633 2.811,0.39 3.849,-0.635 0.525,-0.519 0.844,-1.149 0.949,-1.881 0.22,-1.537 -0.604,-2.988 -2.04,-3.588 -0.647,-0.27 -1.318,-0.322 -2.003,-0.172 l -0.193,-0.055 c -0.171,-0.183 -0.352,-0.358 -0.535,-0.542 z"
   id="path254"
   style="fill:#000000;fill-opacity:1;stroke:none" /><path
   class="st0"
   d="m 266.266,272.197 c -0.354,-0.351 -0.699,-0.693 -1.037,-1.027 0.184,-0.182 0.355,-0.351 0.535,-0.529 0.091,0.092 0.197,0.2 0.304,0.307 0.52,0.52 1.04,1.041 1.562,1.559 l -0.002,0.131 c -0.614,0.61 -1.225,1.222 -1.837,1.833 l -0.035,0.033 c -0.175,-0.172 -0.347,-0.341 -0.533,-0.524 0.342,-0.338 0.689,-0.681 1.048,-1.036 l -0.125,-0.006 c -1.622,0 -28.919,0 -30.541,0 -0.102,0 -0.102,0 -0.103,-0.105 0,-0.177 0,-0.355 0,-0.532 0,-0.098 0,-0.098 0.102,-0.098 1.628,0 28.929,0 30.557,0 z"
   id="path256"
   style="fill:#000000;fill-opacity:1;stroke:none" /><path
   class="st0"
   d="m 263.41,270.926 h -0.082 c -0.685,0 -24.908,-0.002 -25.594,0.002 l -0.097,-0.099 c 0.005,-0.18 0.005,-0.36 0,-0.54 l 0.097,-0.099 c 0.673,0.003 24.883,0.002 25.556,0.002 h 0.117 l 0.006,-0.02 c -0.181,-0.175 -0.362,-0.349 -0.54,-0.521 0.187,-0.183 0.358,-0.35 0.524,-0.512 0.467,0.466 0.947,0.945 1.432,1.428 l -0.036,0.044 c -0.448,0.448 -0.897,0.896 -1.345,1.345 h -0.11 c -0.135,-0.141 -0.274,-0.278 -0.414,-0.414 l -10e-4,-0.104 c 0.149,-0.145 0.295,-0.293 0.442,-0.44 l 0.051,-0.054 z"
   id="path258"
   style="fill:#000000;fill-opacity:1;stroke:none" /><path
   class="st0"
   d="m 262.5,274.192 c -0.107,-0.104 -0.215,-0.208 -0.32,-0.313 -0.102,-0.102 -0.096,-0.077 -0.003,-0.171 0.125,-0.126 0.251,-0.251 0.377,-0.376 l 0.074,-0.069 0.157,0.182 c 0.361,0.363 0.723,0.725 1.087,1.086 l -0.002,0.115 c -0.401,0.398 -0.801,0.798 -1.2,1.199 l -0.114,0.002 c -0.151,-0.154 -0.306,-0.302 -0.467,-0.459 0.143,-0.145 0.276,-0.28 0.425,-0.431 l -0.104,-0.005 c -0.383,0 -25.525,-0.002 -25.908,10e-4 l -0.085,-0.085 c 0.005,-0.185 0.005,-0.37 0,-0.555 l 0.092,-0.095 c 0.381,0.004 25.52,0.002 25.901,0.002 h 0.08 z"
   id="path260"
   style="fill:#000000;fill-opacity:1;stroke:none" /><path
   d="M 140.81,347.392 H 19.418 c -1.331,0 -2.41,-1.079 -2.41,-2.41 V 19.412 c 0,-1.331 1.079,-2.41 2.41,-2.41 H 140.81 c 1.331,0 2.41,1.079 2.41,2.41 v 325.57 c 0,1.331 -1.079,2.41 -2.41,2.41"
   id="path262"
   style="stroke:none;stroke-opacity:1;fill:#000000;fill-opacity:1" /><path
   class="st3"
   d="M 140.526,345.695 H 19.701 c -0.504,0 -0.912,-0.409 -0.912,-0.913 V 19.744 c 0,-0.504 0.409,-0.912 0.912,-0.912 h 120.825 c 0.504,0 0.912,0.409 0.912,0.912 v 325.039 c 0.001,0.504 -0.408,0.912 -0.912,0.912 z"
   id="path274"
   style="fill:#1c2729;fill-opacity:1;stroke:none" /><polyline
   class="st0"
   points="224.511,75.323 258.756,75.323 258.756,74.823 224.511,74.823  "
   id="polyline276"
   style="stroke:none;fill-opacity:1;fill:#000000" /><circle
   class="st0"
   cx="258.89999"
   cy="75.072998"
   r="2.4579999"
   id="circle278"
   style="stroke:none;fill-opacity:1;fill:#000000" />
</svg>
