<svg xmlns="http://www.w3.org/2000/svg" width="345.6" height="128.5mm" viewBox="0 0 91.44 128.5">
  <g style="display:inline">
    <path d="M0-.016h91.44v128.575H0z" style="display:inline;fill:#d3d2cf;fill-opacity:1;stroke:none;stroke-width:.525398;stroke-linecap:round;stroke-linejoin:miter;stroke-dasharray:none;stroke-opacity:1;paint-order:fill markers stroke"/>
    <path d="M-.297-.348h91.425v128.575H-.297z" style="fill:none;fill-opacity:1;stroke:#b1aa98;stroke-width:.525354;stroke-linecap:round;stroke-linejoin:miter;stroke-dasharray:none;stroke-opacity:1;paint-order:fill markers stroke"/>
    <path d="M.626.575h91.228v128.5H.626Z" style="display:inline;opacity:.907767;fill:none;fill-opacity:1;stroke:#fff;stroke-width:.555625;stroke-linecap:round;stroke-dasharray:none;stroke-opacity:.665789"/>
    <path d="M.529.24h90.6V4.9H.529z" style="display:inline;fill:#fff;fill-opacity:.489474;stroke:none;stroke-width:1.08169;stroke-linecap:round;stroke-linejoin:miter;stroke-dasharray:none;stroke-opacity:1;paint-order:fill markers stroke"/>
    <path d="M-101.822 98.086h82.912" style="display:inline;opacity:.907767;mix-blend-mode:normal;fill:#000;fill-opacity:.489474;stroke:#000;stroke-width:2.11667;stroke-linecap:butt;stroke-linejoin:miter;stroke-dasharray:none;stroke-opacity:1;paint-order:fill markers stroke" transform="matrix(1 0 0 -1 105.948 226.693)"/>
    <path d="m-101.797 98.473-.11 4.9 1.762 7.748" style="display:inline;opacity:.354369;fill:none;fill-opacity:.489474;stroke:#000;stroke-width:.529;stroke-linecap:butt;stroke-linejoin:miter;stroke-dasharray:none;stroke-opacity:1;paint-order:fill markers stroke" transform="matrix(1 0 0 -1 105.948 226.693)"/>
    <path d="m-102.004 99.08-.065 4.9 1.794 7.017c35.502.532 27.773.63 63.274.547 35.502-.084-18.954-.35 16.548-.547l1.616-7.017-.041-4.9z" style="display:inline;opacity:.907767;fill:#949472;fill-opacity:.489474;stroke:none;stroke-width:.555625;stroke-linecap:round;stroke-linejoin:miter;stroke-dasharray:none;stroke-opacity:1;paint-order:fill markers stroke" transform="matrix(1 0 0 -1 105.948 226.693)"/>
    <path d="m-18.904 98.367.026 6.382-1.678 6.266h-79.617" style="display:inline;opacity:.34874;fill:none;fill-opacity:.489474;stroke:#000;stroke-width:.396875;stroke-linecap:butt;stroke-linejoin:miter;stroke-dasharray:none;stroke-opacity:1;paint-order:fill markers stroke" transform="matrix(1 0 0 -1 105.948 226.693)"/>
    <path d="M-18.927 99.264h-82.895" style="display:inline;opacity:.443277;fill:none;fill-opacity:.489474;stroke:#000;stroke-width:.396875;stroke-linecap:butt;stroke-linejoin:miter;stroke-dasharray:none;stroke-opacity:1;paint-order:fill markers stroke" transform="matrix(1 0 0 -1 105.948 226.693)"/>
    <path d="m-19.017 97.987.026 6.383-1.452 6.265h-79.73" style="display:inline;opacity:.212185;fill:none;fill-opacity:.489474;stroke:#000;stroke-width:.7;stroke-linecap:butt;stroke-linejoin:miter;stroke-dasharray:none;stroke-opacity:1;paint-order:fill markers stroke" transform="matrix(1 0 0 -1 105.948 226.693)"/>
    <path d="m-102.06 98.492-.019 4.9 1.671 7.748" style="display:inline;opacity:.354369;fill:none;fill-opacity:.489474;stroke:#000;stroke-width:.529;stroke-linecap:butt;stroke-linejoin:miter;stroke-dasharray:none;stroke-opacity:1;paint-order:fill markers stroke" transform="matrix(1 0 0 -1 105.948 226.693)"/>
    <path d="m-101.628 103.373.855-3.929h-.832z" style="opacity:1;fill:#8c8b7f;fill-opacity:1;stroke-width:.125;stroke-linecap:square;paint-order:fill markers stroke" transform="matrix(1 0 0 -1 105.948 226.693)"/>
    <path d="m-19.313 103.468-.719-4.02h.719z" style="display:inline;fill:#8c8b7f;fill-opacity:1;stroke-width:.125;stroke-linecap:square;paint-order:fill markers stroke" transform="matrix(1 0 0 -1 105.948 226.693)"/>
  </g>
  <path d="M7.089 33.176q0 .13.044.222.045.092.124.152.08.058.181.086.105.025.226.025.13 0 .222-.028.092-.032.149-.08.057-.047.083-.107.025-.064.025-.127 0-.13-.06-.19-.058-.064-.127-.09-.121-.044-.283-.082l-.394-.105q-.146-.038-.244-.099-.095-.063-.153-.14-.057-.075-.082-.161-.022-.086-.022-.175 0-.171.07-.295.073-.127.19-.21.118-.082.267-.12.149-.042.301-.042.178 0 .334.048.159.045.276.137.12.092.19.228.07.134.07.311H8.08q-.015-.219-.149-.308-.133-.092-.34-.092-.07 0-.142.016-.073.013-.134.048-.06.032-.101.089-.038.057-.038.143 0 .12.073.19.076.067.196.102l.099.028q.089.022.197.051l.21.057.149.038q.11.035.193.096.083.06.137.14.057.075.082.164.029.09.029.178 0 .19-.08.327-.076.134-.203.22-.127.085-.289.123-.162.041-.33.041-.194 0-.365-.047-.171-.048-.298-.146-.127-.099-.204-.251-.076-.156-.079-.365zm2.762-1.242q-.18 0-.314.073-.13.073-.213.197-.082.12-.124.276-.038.156-.038.318t.038.317q.042.156.124.28.083.12.213.193.133.073.314.073t.311-.073q.134-.073.216-.193.083-.124.12-.28.042-.155.042-.317t-.041-.318q-.038-.155-.12-.276-.083-.124-.217-.197-.13-.073-.31-.073zm0-.324q.254 0 .454.096.203.095.343.257t.213.378q.076.216.076.457 0 .244-.076.46-.073.216-.213.378t-.343.257q-.2.092-.454.092t-.457-.092q-.2-.095-.34-.257t-.216-.378q-.073-.216-.073-.46 0-.241.073-.457.076-.216.216-.378t.34-.257q.203-.096.457-.096zm1.448.054h.397v1.924h1.152v.343h-1.55zm2.788.27q-.181 0-.315.073-.13.073-.213.197-.082.12-.123.276-.038.156-.038.318t.038.317q.04.156.123.28.083.12.213.193.134.073.315.073.18 0 .31-.073.134-.073.217-.193.082-.124.12-.28.042-.155.042-.317t-.042-.318q-.038-.155-.12-.276-.083-.124-.216-.197-.13-.073-.311-.073zm0-.324q.254 0 .454.096.203.095.342.257.14.162.213.378.076.216.076.457 0 .244-.076.46-.073.216-.213.378t-.342.257q-.2.092-.454.092t-.458-.092q-.2-.095-.34-.257t-.215-.378q-.073-.216-.073-.46 0-.241.073-.457.076-.216.216-.378t.34-.257q.203-.096.457-.096z" aria-label="SOLO" style="font-weight:500;font-size:3.175px;font-family:&quot;Helvetica Neue&quot;;-inkscape-font-specification:&quot;Helvetica Neue Medium&quot;;display:inline;fill:#535c5b;stroke-width:.264583;paint-order:fill markers stroke"/>
  <path d="M6.571 50.714h.413l.568 1.794h.007l.58-1.794h.404l-.775 2.267h-.441zm3.163.27q-.181 0-.315.073-.13.073-.212.197-.083.12-.124.276-.038.156-.038.318t.038.317q.041.156.124.28.082.12.212.193.134.074.315.074.18 0 .31-.074.134-.073.217-.193.082-.124.12-.28.042-.155.042-.317t-.042-.318q-.038-.155-.12-.276-.083-.124-.216-.197-.13-.073-.311-.073zm0-.324q.254 0 .454.096.203.095.343.257t.212.378q.076.216.076.457 0 .244-.076.46-.073.216-.212.378-.14.162-.343.257-.2.092-.454.092t-.458-.092q-.2-.095-.34-.257-.139-.162-.215-.378-.073-.216-.073-.46 0-.241.073-.457.076-.216.216-.378t.34-.257q.203-.096.457-.096zm1.447.054h.397v1.924h1.153v.343h-1.55z" aria-label="VOL" style="font-weight:500;font-size:3.175px;font-family:&quot;Helvetica Neue&quot;;-inkscape-font-specification:&quot;Helvetica Neue Medium&quot;;display:inline;fill:#535c5b;stroke-width:.264583;paint-order:fill markers stroke"/>
  <path d="M6.829 69.235h1q.24 0 .393.07.153.07.235.175.083.104.111.228.032.124.032.229 0 .105-.032.229-.028.12-.11.225-.083.105-.236.175-.152.066-.393.066h-.604v.87H6.83zm.396 1.073h.581q.067 0 .137-.019t.127-.06q.06-.044.095-.114.038-.073.038-.181 0-.111-.031-.184-.032-.073-.086-.115-.054-.044-.124-.06t-.15-.016h-.587zm2.093-1.073h.422l.873 2.267h-.425l-.213-.6H9.07l-.213.6h-.41zm-.14 1.365h.692l-.34-.974h-.01zm1.635-1.365h.42l1.034 1.67h.007v-1.67h.377v2.267h-.419L11.2 69.835h-.01v1.667h-.377z" aria-label="PAN" style="font-weight:500;font-size:3.175px;font-family:&quot;Helvetica Neue&quot;;-inkscape-font-specification:&quot;Helvetica Neue Medium&quot;;display:inline;fill:#535c5b;stroke-width:.264583;paint-order:fill markers stroke"/>
  <path d="M6.829 87.756h1q.24 0 .393.07.153.07.235.175.083.104.111.228.032.124.032.229 0 .105-.032.228-.028.121-.11.226-.083.105-.236.174-.152.067-.393.067h-.604v.87H6.83zm.396 1.073h.581q.067 0 .137-.019t.127-.06q.06-.045.095-.114.038-.073.038-.181 0-.112-.031-.185-.032-.073-.086-.114-.054-.044-.124-.06t-.15-.016h-.587zm1.721-1.073h.397v2.267h-.397zm.667 0h1.835v.343h-.72v1.924h-.397v-1.924h-.718Zm3.629.721q-.025-.099-.07-.181-.044-.083-.114-.143-.07-.06-.165-.092-.092-.035-.216-.035-.181 0-.314.073-.13.073-.213.197-.083.12-.124.276-.038.156-.038.318 0 .161.038.317.041.156.124.28.082.12.213.193.133.073.314.073.133 0 .235-.044.101-.048.174-.127.073-.083.115-.19.041-.109.054-.233h.387q-.013.204-.089.372-.073.168-.2.292-.127.12-.298.187-.172.067-.378.067-.254 0-.457-.092-.2-.095-.34-.257t-.216-.378q-.073-.216-.073-.46 0-.242.073-.458.076-.216.216-.377.14-.162.34-.258.203-.095.457-.095.19 0 .359.054.168.05.295.152.13.099.21.242.079.143.098.327zm.752-.721h.397v.902h1.032v-.902h.397v2.267h-.397v-1.022h-1.032v1.022h-.397z" aria-label="PITCH" style="font-weight:500;font-size:3.175px;font-family:&quot;Helvetica Neue&quot;;-inkscape-font-specification:&quot;Helvetica Neue Medium&quot;;display:inline;fill:#535c5b;stroke-width:.264583;paint-order:fill markers stroke"/>
  <path d="M6.613 107.864h1.835v.343h-.721v1.924H7.33v-1.924h-.717zm2.098 0h1.083q.375 0 .562.162.187.162.187.451 0 .162-.047.27-.048.105-.112.172-.063.063-.127.092-.06.028-.088.038v.006q.05.006.108.031.06.026.11.083.051.054.083.143.035.089.035.222 0 .2.029.365.031.162.095.232h-.425q-.045-.073-.054-.162-.007-.089-.007-.171 0-.156-.019-.267-.019-.114-.07-.187-.05-.077-.14-.111-.085-.035-.222-.035h-.584v.933h-.397zm.397 1.032h.651q.19 0 .289-.089.098-.092.098-.273 0-.108-.031-.174-.032-.07-.09-.108-.053-.038-.126-.051-.07-.013-.146-.013h-.645zm1.838-1.032h.397v2.267h-.397zm2.861 2.267h-.254l-.06-.266q-.159.18-.318.25-.158.07-.365.07-.254 0-.457-.092-.2-.095-.34-.257t-.216-.378q-.073-.216-.073-.46 0-.241.073-.457.077-.216.216-.378.14-.162.34-.257.203-.096.457-.096.184 0 .35.051.168.048.298.146.13.095.216.242.086.146.108.336h-.388q-.015-.111-.07-.194-.05-.085-.13-.142-.079-.058-.177-.086-.099-.029-.207-.029-.18 0-.314.073-.13.073-.213.197-.082.12-.124.276-.038.156-.038.318t.038.317q.042.156.124.28.083.12.213.193.133.073.314.073.153.003.27-.038.118-.044.197-.124.082-.082.124-.2.041-.117.044-.26h-.603v-.302h.965zm2.41 0h-.254l-.06-.266q-.16.18-.318.25-.159.07-.365.07-.254 0-.457-.092-.2-.095-.34-.257t-.216-.378q-.073-.216-.073-.46 0-.241.073-.457.076-.216.216-.378t.34-.257q.203-.096.457-.096.184 0 .35.051.168.048.298.146.13.095.216.242.085.146.108.336h-.388q-.016-.111-.07-.194-.05-.085-.13-.142-.08-.058-.178-.086-.098-.029-.206-.029-.18 0-.314.073-.13.073-.213.197-.083.12-.124.276-.038.156-.038.318t.038.317q.041.156.124.28.083.12.213.193.133.073.314.073.152.003.27-.038.117-.044.197-.124.082-.082.124-.2.04-.117.044-.26h-.603v-.302h.965zm.432-2.267h1.632v.343h-1.235v.594h1.143v.324h-1.143v.663h1.257v.343h-1.654zm2 0h1.083q.374 0 .562.162.187.162.187.451 0 .162-.048.27-.047.105-.11.172-.064.063-.128.092-.06.028-.089.038v.006q.051.006.108.031.06.026.111.083.051.054.083.143.035.089.035.222 0 .2.028.365.032.162.096.232h-.426q-.044-.073-.054-.162-.006-.089-.006-.171 0-.156-.02-.267-.018-.114-.069-.187-.05-.077-.14-.111-.085-.035-.222-.035h-.584v.933h-.397zm.397 1.032h.65q.191 0 .29-.089.098-.092.098-.273 0-.108-.032-.174-.031-.07-.089-.108-.054-.038-.127-.051-.07-.013-.146-.013h-.644Zm3.686-.762q-.18 0-.314.073-.13.073-.213.197-.083.12-.124.276-.038.156-.038.318t.038.317q.041.156.124.28.083.12.213.193.133.073.314.073t.311-.073q.134-.073.216-.193.083-.124.12-.28.042-.155.042-.317t-.041-.318q-.038-.155-.12-.276-.083-.124-.217-.197-.13-.073-.31-.073zm0-.324q.254 0 .454.096.203.095.343.257t.213.378q.076.216.076.457 0 .244-.076.46-.073.216-.213.378t-.343.257q-.2.092-.454.092t-.457-.092q-.2-.095-.34-.257t-.216-.378q-.073-.216-.073-.46 0-.241.073-.457.076-.216.216-.378t.34-.257q.203-.096.457-.096zm1.422.054h.397v1.321q0 .115.01.232.013.117.063.213.054.092.16.152.107.06.3.06.194 0 .3-.06.107-.06.158-.152.054-.095.063-.213.013-.117.013-.232v-1.32h.397v1.45q0 .22-.067.381-.066.162-.19.273-.12.108-.292.162-.172.054-.381.054-.21 0-.381-.054-.172-.054-.296-.162-.12-.11-.187-.273-.067-.162-.067-.38zm2.102 0h1.835v.343h-.72v1.924h-.397v-1.924h-.718zm2.099 0h1q.241 0 .394.07.152.07.235.175.082.105.11.229.033.123.033.228 0 .105-.032.229-.029.12-.111.225-.083.105-.235.175-.153.066-.394.066h-.603v.87h-.397zm.397 1.074h.58q.068 0 .137-.02.07-.019.127-.06.06-.044.096-.114.038-.073.038-.181 0-.111-.032-.184t-.086-.115q-.054-.044-.124-.06t-.149-.016h-.587zm1.695-1.074h.397v1.321q0 .115.01.232.012.117.063.213.054.092.159.152.108.06.302.06.193 0 .298-.06.108-.06.159-.152.054-.095.063-.213.013-.117.013-.232v-1.32h.397v1.45q0 .22-.067.381-.067.162-.19.273-.121.108-.292.162-.172.054-.381.054-.21 0-.381-.054-.172-.054-.296-.162-.12-.11-.187-.273-.067-.162-.067-.38zm2.103 0h1.834v.343h-.72v1.924h-.397v-1.924h-.718zm2.358 1.512q0 .13.045.222.044.092.123.152.08.058.181.086.105.025.226.025.13 0 .222-.028.092-.032.15-.08.056-.047.082-.107.025-.064.025-.128 0-.13-.06-.19-.057-.064-.127-.089-.12-.044-.283-.082l-.393-.105q-.146-.038-.245-.099-.095-.063-.152-.14-.057-.075-.083-.161-.022-.086-.022-.175 0-.171.07-.295.073-.127.19-.21.118-.082.267-.12.15-.042.302-.042.177 0 .333.048.159.044.276.137.12.092.19.228.07.133.07.311H35.9q-.016-.219-.15-.308-.133-.092-.34-.092-.069 0-.142.016-.073.013-.133.048-.06.031-.102.089-.038.057-.038.142 0 .121.073.191.076.067.197.102l.098.028q.09.022.197.051l.21.057.149.038q.11.035.193.095t.137.14q.057.076.083.165.028.09.028.178 0 .19-.08.327-.075.133-.202.22-.127.085-.29.123-.161.041-.33.041-.193 0-.365-.047-.171-.048-.298-.146-.127-.099-.203-.251-.077-.156-.08-.365z" aria-label="TRIGGER OUTPUTS" style="font-weight:500;font-size:3.175px;font-family:&quot;Helvetica Neue&quot;;-inkscape-font-specification:&quot;Helvetica Neue Medium&quot;;display:inline;fill:#535c5b;stroke-width:.264583;paint-order:fill markers stroke"/>
  <path d="M6.822 6.264h.559l.625 1.775h.007l.61-1.775h.552v2.267h-.378v-1.75h-.006l-.629 1.75h-.327l-.629-1.75H7.2v1.75h-.378zm2.804 0h.397v1.321q0 .115.01.232.012.117.063.213.054.092.158.152.108.06.302.06t.298-.06q.108-.06.16-.152.053-.096.063-.213.012-.117.012-.232v-1.32h.397v1.45q0 .22-.066.381-.067.162-.191.273-.12.108-.292.162-.172.054-.381.054-.21 0-.381-.054-.172-.054-.295-.162-.121-.11-.188-.273-.066-.162-.066-.38zm2.102 0h1.835v.343h-.721v1.924h-.397V6.607h-.717zm2.098 0h1.632v.343h-1.235v.594h1.143v.324h-1.143v.663h1.257v.343h-1.654z" aria-label="MUTE" style="font-weight:500;font-size:3.175px;font-family:&quot;Helvetica Neue&quot;;-inkscape-font-specification:&quot;Helvetica Neue Medium&quot;;display:inline;fill:#535c5b;stroke-width:.264583;paint-order:fill markers stroke"/>
  <g style="display:inline">
    <g style="stroke:#535c5b">
      <g style="display:inline;stroke:#535c5b;stroke-opacity:1">
        <path d="M-30.871-8.081a13.23 13.23 0 0 1-5.03-14.815 13.23 13.23 0 0 1 12.618-9.25 13.23 13.23 0 0 1 12.617 9.25 13.23 13.23 0 0 1-5.03 14.815" style="fill:none;stroke:#535c5b;stroke-width:1;stroke-opacity:1" transform="matrix(.315 0 0 .315 17.334 66.51)"/>
        <path d="m-30.74-8.609-1.598 2.661" style="fill:none;stroke:#535c5b;stroke-width:1.13716;stroke-opacity:1" transform="matrix(.315 0 0 .315 17.334 66.51)"/>
        <path d="m-35.81-14.665-2.506.85m2.416-9.081-2.524-.795m7.318-5.895-1.564-2.134m9.387-.427v-2.646m7.823 5.207 1.564-2.134m3.229 8.792 2.523-.796m-2.613 9.026 2.506.85" style="fill:none;stroke:#535c5b;stroke-width:1;stroke-opacity:1" transform="matrix(.315 0 0 .315 17.334 66.51)"/>
        <path d="m-15.897-8.545 1.663 2.593" style="fill:none;stroke:#535c5b;stroke-width:1.14487;stroke-opacity:1" transform="matrix(.315 0 0 .315 17.334 66.51)"/>
      </g>
    </g>
    <g style="stroke:#535c5b">
      <g style="display:inline;stroke:#535c5b;stroke-opacity:1">
        <path d="M-30.871-8.081a13.23 13.23 0 0 1-5.03-14.815 13.23 13.23 0 0 1 12.618-9.25 13.23 13.23 0 0 1 12.617 9.25 13.23 13.23 0 0 1-5.03 14.815" style="fill:none;stroke:#535c5b;stroke-width:1;stroke-opacity:1" transform="matrix(.315 0 0 .315 27.334 66.51)"/>
        <path d="m-30.74-8.609-1.598 2.661" style="fill:none;stroke:#535c5b;stroke-width:1.13716;stroke-opacity:1" transform="matrix(.315 0 0 .315 27.334 66.51)"/>
        <path d="m-35.81-14.665-2.506.85m2.416-9.081-2.524-.795m7.318-5.895-1.564-2.134m9.387-.427v-2.646" style="fill:none;stroke:#535c5b;stroke-width:1;stroke-opacity:1" transform="matrix(.315 0 0 .315 27.334 66.51)"/>
        <path d="m-15.46-29.586 1.564-2.134" style="fill:#bebebe;fill-opacity:1;stroke:#535c5b;stroke-width:1;stroke-opacity:1" transform="matrix(.315 0 0 .315 27.334 66.51)"/>
        <path d="m-10.667-22.928 2.523-.796m-2.613 9.026 2.506.85" style="fill:none;stroke:#535c5b;stroke-width:1;stroke-opacity:1" transform="matrix(.315 0 0 .315 27.334 66.51)"/>
        <path d="m-15.897-8.545 1.663 2.593" style="fill:none;stroke:#535c5b;stroke-width:1.14487;stroke-opacity:1" transform="matrix(.315 0 0 .315 27.334 66.51)"/>
      </g>
    </g>
    <g style="stroke:#535c5b">
      <g style="display:inline;stroke:#535c5b;stroke-opacity:1">
        <path d="M-30.871-8.081a13.23 13.23 0 0 1-5.03-14.815 13.23 13.23 0 0 1 12.618-9.25 13.23 13.23 0 0 1 12.617 9.25 13.23 13.23 0 0 1-5.03 14.815" style="fill:none;stroke:#535c5b;stroke-width:1;stroke-opacity:1" transform="matrix(.315 0 0 .315 37.334 66.51)"/>
        <path d="m-30.74-8.609-1.598 2.661" style="fill:none;stroke:#535c5b;stroke-width:1.13716;stroke-opacity:1" transform="matrix(.315 0 0 .315 37.334 66.51)"/>
        <path d="m-35.81-14.665-2.506.85m2.416-9.081-2.524-.795m7.318-5.895-1.564-2.134m9.387-.427v-2.646m7.823 5.207 1.564-2.134m3.229 8.792 2.523-.796m-2.613 9.026 2.506.85" style="fill:none;stroke:#535c5b;stroke-width:1;stroke-opacity:1" transform="matrix(.315 0 0 .315 37.334 66.51)"/>
        <path d="m-15.897-8.545 1.663 2.593" style="fill:none;stroke:#535c5b;stroke-width:1.14487;stroke-opacity:1" transform="matrix(.315 0 0 .315 37.334 66.51)"/>
      </g>
    </g>
    <g style="stroke:#535c5b">
      <g style="display:inline;stroke:#535c5b;stroke-opacity:1">
        <path d="M-30.871-8.081a13.23 13.23 0 0 1-5.03-14.815 13.23 13.23 0 0 1 12.618-9.25 13.23 13.23 0 0 1 12.617 9.25 13.23 13.23 0 0 1-5.03 14.815" style="fill:none;stroke:#535c5b;stroke-width:1;stroke-opacity:1" transform="matrix(.315 0 0 .315 47.334 66.51)"/>
        <path d="m-30.74-8.609-1.598 2.661" style="fill:none;stroke:#535c5b;stroke-width:1.13716;stroke-opacity:1" transform="matrix(.315 0 0 .315 47.334 66.51)"/>
        <path d="m-35.81-14.665-2.506.85m2.416-9.081-2.524-.795m7.318-5.895-1.564-2.134m9.387-.427v-2.646m7.823 5.207 1.564-2.134m3.229 8.792 2.523-.796m-2.613 9.026 2.506.85" style="fill:none;stroke:#535c5b;stroke-width:1;stroke-opacity:1" transform="matrix(.315 0 0 .315 47.334 66.51)"/>
        <path d="m-15.897-8.545 1.663 2.593" style="fill:none;stroke:#535c5b;stroke-width:1.14487;stroke-opacity:1" transform="matrix(.315 0 0 .315 47.334 66.51)"/>
      </g>
    </g>
    <g style="stroke:#535c5b">
      <g style="display:inline;stroke:#535c5b;stroke-opacity:1">
        <path d="M-30.871-8.081a13.23 13.23 0 0 1-5.03-14.815 13.23 13.23 0 0 1 12.618-9.25 13.23 13.23 0 0 1 12.617 9.25 13.23 13.23 0 0 1-5.03 14.815" style="fill:none;stroke:#535c5b;stroke-width:1;stroke-opacity:1" transform="matrix(.315 0 0 .315 57.334 66.51)"/>
        <path d="m-30.74-8.609-1.598 2.661" style="fill:none;stroke:#535c5b;stroke-width:1.13716;stroke-opacity:1" transform="matrix(.315 0 0 .315 57.334 66.51)"/>
        <path d="m-35.81-14.665-2.506.85m2.416-9.081-2.524-.795m7.318-5.895-1.564-2.134m9.387-.427v-2.646m7.823 5.207 1.564-2.134m3.229 8.792 2.523-.796m-2.613 9.026 2.506.85" style="fill:none;stroke:#535c5b;stroke-width:1;stroke-opacity:1" transform="matrix(.315 0 0 .315 57.334 66.51)"/>
        <path d="m-15.897-8.545 1.663 2.593" style="fill:none;stroke:#535c5b;stroke-width:1.14487;stroke-opacity:1" transform="matrix(.315 0 0 .315 57.334 66.51)"/>
      </g>
    </g>
    <g style="stroke:#535c5b">
      <g style="display:inline;stroke:#535c5b;stroke-opacity:1">
        <path d="M-30.871-8.081a13.23 13.23 0 0 1-5.03-14.815 13.23 13.23 0 0 1 12.618-9.25 13.23 13.23 0 0 1 12.617 9.25 13.23 13.23 0 0 1-5.03 14.815" style="fill:none;stroke:#535c5b;stroke-width:1;stroke-opacity:1" transform="matrix(.315 0 0 .315 67.334 66.51)"/>
        <path d="m-30.74-8.609-1.598 2.661" style="fill:none;stroke:#535c5b;stroke-width:1.13716;stroke-opacity:1" transform="matrix(.315 0 0 .315 67.334 66.51)"/>
        <path d="m-35.81-14.665-2.506.85m2.416-9.081-2.524-.795m7.318-5.895-1.564-2.134m9.387-.427v-2.646m7.823 5.207 1.564-2.134m3.229 8.792 2.523-.796m-2.613 9.026 2.506.85" style="fill:none;stroke:#535c5b;stroke-width:1;stroke-opacity:1" transform="matrix(.315 0 0 .315 67.334 66.51)"/>
        <path d="m-15.897-8.545 1.663 2.593" style="fill:none;stroke:#535c5b;stroke-width:1.14487;stroke-opacity:1" transform="matrix(.315 0 0 .315 67.334 66.51)"/>
      </g>
    </g>
    <g style="stroke:#535c5b">
      <g style="display:inline;stroke:#535c5b;stroke-opacity:1">
        <path d="M-30.871-8.081a13.23 13.23 0 0 1-5.03-14.815 13.23 13.23 0 0 1 12.618-9.25 13.23 13.23 0 0 1 12.617 9.25 13.23 13.23 0 0 1-5.03 14.815" style="fill:none;stroke:#535c5b;stroke-width:1;stroke-opacity:1" transform="matrix(.315 0 0 .315 77.334 66.51)"/>
        <path d="m-30.74-8.609-1.598 2.661" style="fill:none;stroke:#535c5b;stroke-width:1.13716;stroke-opacity:1" transform="matrix(.315 0 0 .315 77.334 66.51)"/>
        <path d="m-35.81-14.665-2.506.85m2.416-9.081-2.524-.795m7.318-5.895-1.564-2.134m9.387-.427v-2.646m7.823 5.207 1.564-2.134m3.229 8.792 2.523-.796m-2.613 9.026 2.506.85" style="fill:none;stroke:#535c5b;stroke-width:1;stroke-opacity:1" transform="matrix(.315 0 0 .315 77.334 66.51)"/>
        <path d="m-15.897-8.545 1.663 2.593" style="fill:none;stroke:#535c5b;stroke-width:1.14487;stroke-opacity:1" transform="matrix(.315 0 0 .315 77.334 66.51)"/>
      </g>
    </g>
    <g style="stroke:#535c5b">
      <g style="display:inline;stroke:#535c5b;stroke-opacity:1">
        <path d="M-30.871-8.081a13.23 13.23 0 0 1-5.03-14.815 13.23 13.23 0 0 1 12.618-9.25 13.23 13.23 0 0 1 12.617 9.25 13.23 13.23 0 0 1-5.03 14.815" style="fill:none;stroke:#535c5b;stroke-width:1;stroke-opacity:1" transform="matrix(.315 0 0 .315 87.334 66.51)"/>
        <path d="m-30.74-8.609-1.598 2.661" style="fill:none;stroke:#535c5b;stroke-width:1.13716;stroke-opacity:1" transform="matrix(.315 0 0 .315 87.334 66.51)"/>
        <path d="m-35.81-14.665-2.506.85m2.416-9.081-2.524-.795m7.318-5.895-1.564-2.134m9.387-.427v-2.646m7.823 5.207 1.564-2.134m3.229 8.792 2.523-.796m-2.613 9.026 2.506.85" style="fill:none;stroke:#535c5b;stroke-width:1;stroke-opacity:1" transform="matrix(.315 0 0 .315 87.334 66.51)"/>
        <path d="m-15.897-8.545 1.663 2.593" style="fill:none;stroke:#535c5b;stroke-width:1.14487;stroke-opacity:1" transform="matrix(.315 0 0 .315 87.334 66.51)"/>
      </g>
    </g>
    <g style="display:inline">
      <g style="stroke:#535c5b">
        <g style="display:inline;stroke:#535c5b;stroke-opacity:1">
          <path d="M-30.871-8.081a13.23 13.23 0 0 1-5.03-14.815 13.23 13.23 0 0 1 12.618-9.25 13.23 13.23 0 0 1 12.617 9.25 13.23 13.23 0 0 1-5.03 14.815" style="fill:none;stroke:#535c5b;stroke-width:1;stroke-opacity:1" transform="matrix(.315 0 0 .315 17.334 85.084)"/>
          <path d="m-30.74-8.609-1.598 2.661" style="fill:none;stroke:#535c5b;stroke-width:1.13716;stroke-opacity:1" transform="matrix(.315 0 0 .315 17.334 85.084)"/>
          <path d="m-35.81-14.665-2.506.85m2.416-9.081-2.524-.795m7.318-5.895-1.564-2.134m9.387-.427v-2.646m7.823 5.207 1.564-2.134m3.229 8.792 2.523-.796m-2.613 9.026 2.506.85" style="fill:none;stroke:#535c5b;stroke-width:1;stroke-opacity:1" transform="matrix(.315 0 0 .315 17.334 85.084)"/>
          <path d="m-15.897-8.545 1.663 2.593" style="fill:none;stroke:#535c5b;stroke-width:1.14487;stroke-opacity:1" transform="matrix(.315 0 0 .315 17.334 85.084)"/>
        </g>
      </g>
      <g style="stroke:#535c5b">
        <g style="display:inline;stroke:#535c5b;stroke-opacity:1">
          <path d="M-30.871-8.081a13.23 13.23 0 0 1-5.03-14.815 13.23 13.23 0 0 1 12.618-9.25 13.23 13.23 0 0 1 12.617 9.25 13.23 13.23 0 0 1-5.03 14.815" style="fill:none;stroke:#535c5b;stroke-width:1;stroke-opacity:1" transform="matrix(.315 0 0 .315 27.334 85.084)"/>
          <path d="m-30.74-8.609-1.598 2.661" style="fill:none;stroke:#535c5b;stroke-width:1.13716;stroke-opacity:1" transform="matrix(.315 0 0 .315 27.334 85.084)"/>
          <path d="m-35.81-14.665-2.506.85m2.416-9.081-2.524-.795m7.318-5.895-1.564-2.134m9.387-.427v-2.646" style="fill:none;stroke:#535c5b;stroke-width:1;stroke-opacity:1" transform="matrix(.315 0 0 .315 27.334 85.084)"/>
          <path d="m-15.46-29.586 1.564-2.134" style="fill:#bebebe;fill-opacity:1;stroke:#535c5b;stroke-width:1;stroke-opacity:1" transform="matrix(.315 0 0 .315 27.334 85.084)"/>
          <path d="m-10.667-22.928 2.523-.796m-2.613 9.026 2.506.85" style="fill:none;stroke:#535c5b;stroke-width:1;stroke-opacity:1" transform="matrix(.315 0 0 .315 27.334 85.084)"/>
          <path d="m-15.897-8.545 1.663 2.593" style="fill:none;stroke:#535c5b;stroke-width:1.14487;stroke-opacity:1" transform="matrix(.315 0 0 .315 27.334 85.084)"/>
        </g>
      </g>
      <g style="stroke:#535c5b">
        <g style="display:inline;stroke:#535c5b;stroke-opacity:1">
          <path d="M-30.871-8.081a13.23 13.23 0 0 1-5.03-14.815 13.23 13.23 0 0 1 12.618-9.25 13.23 13.23 0 0 1 12.617 9.25 13.23 13.23 0 0 1-5.03 14.815" style="fill:none;stroke:#535c5b;stroke-width:1;stroke-opacity:1" transform="matrix(.315 0 0 .315 37.334 85.084)"/>
          <path d="m-30.74-8.609-1.598 2.661" style="fill:none;stroke:#535c5b;stroke-width:1.13716;stroke-opacity:1" transform="matrix(.315 0 0 .315 37.334 85.084)"/>
          <path d="m-35.81-14.665-2.506.85m2.416-9.081-2.524-.795m7.318-5.895-1.564-2.134m9.387-.427v-2.646m7.823 5.207 1.564-2.134m3.229 8.792 2.523-.796m-2.613 9.026 2.506.85" style="fill:none;stroke:#535c5b;stroke-width:1;stroke-opacity:1" transform="matrix(.315 0 0 .315 37.334 85.084)"/>
          <path d="m-15.897-8.545 1.663 2.593" style="fill:none;stroke:#535c5b;stroke-width:1.14487;stroke-opacity:1" transform="matrix(.315 0 0 .315 37.334 85.084)"/>
        </g>
      </g>
      <g style="stroke:#535c5b">
        <g style="display:inline;stroke:#535c5b;stroke-opacity:1">
          <path d="M-30.871-8.081a13.23 13.23 0 0 1-5.03-14.815 13.23 13.23 0 0 1 12.618-9.25 13.23 13.23 0 0 1 12.617 9.25 13.23 13.23 0 0 1-5.03 14.815" style="fill:none;stroke:#535c5b;stroke-width:1;stroke-opacity:1" transform="matrix(.315 0 0 .315 47.334 85.084)"/>
          <path d="m-30.74-8.609-1.598 2.661" style="fill:none;stroke:#535c5b;stroke-width:1.13716;stroke-opacity:1" transform="matrix(.315 0 0 .315 47.334 85.084)"/>
          <path d="m-35.81-14.665-2.506.85m2.416-9.081-2.524-.795m7.318-5.895-1.564-2.134m9.387-.427v-2.646m7.823 5.207 1.564-2.134m3.229 8.792 2.523-.796m-2.613 9.026 2.506.85" style="fill:none;stroke:#535c5b;stroke-width:1;stroke-opacity:1" transform="matrix(.315 0 0 .315 47.334 85.084)"/>
          <path d="m-15.897-8.545 1.663 2.593" style="fill:none;stroke:#535c5b;stroke-width:1.14487;stroke-opacity:1" transform="matrix(.315 0 0 .315 47.334 85.084)"/>
        </g>
      </g>
      <g style="stroke:#535c5b">
        <g style="display:inline;stroke:#535c5b;stroke-opacity:1">
          <path d="M-30.871-8.081a13.23 13.23 0 0 1-5.03-14.815 13.23 13.23 0 0 1 12.618-9.25 13.23 13.23 0 0 1 12.617 9.25 13.23 13.23 0 0 1-5.03 14.815" style="fill:none;stroke:#535c5b;stroke-width:1;stroke-opacity:1" transform="matrix(.315 0 0 .315 57.334 85.084)"/>
          <path d="m-30.74-8.609-1.598 2.661" style="fill:none;stroke:#535c5b;stroke-width:1.13716;stroke-opacity:1" transform="matrix(.315 0 0 .315 57.334 85.084)"/>
          <path d="m-35.81-14.665-2.506.85m2.416-9.081-2.524-.795m7.318-5.895-1.564-2.134m9.387-.427v-2.646m7.823 5.207 1.564-2.134m3.229 8.792 2.523-.796m-2.613 9.026 2.506.85" style="fill:none;stroke:#535c5b;stroke-width:1;stroke-opacity:1" transform="matrix(.315 0 0 .315 57.334 85.084)"/>
          <path d="m-15.897-8.545 1.663 2.593" style="fill:none;stroke:#535c5b;stroke-width:1.14487;stroke-opacity:1" transform="matrix(.315 0 0 .315 57.334 85.084)"/>
        </g>
      </g>
      <g style="stroke:#535c5b">
        <g style="display:inline;stroke:#535c5b;stroke-opacity:1">
          <path d="M-30.871-8.081a13.23 13.23 0 0 1-5.03-14.815 13.23 13.23 0 0 1 12.618-9.25 13.23 13.23 0 0 1 12.617 9.25 13.23 13.23 0 0 1-5.03 14.815" style="fill:none;stroke:#535c5b;stroke-width:1;stroke-opacity:1" transform="matrix(.315 0 0 .315 67.334 85.084)"/>
          <path d="m-30.74-8.609-1.598 2.661" style="fill:none;stroke:#535c5b;stroke-width:1.13716;stroke-opacity:1" transform="matrix(.315 0 0 .315 67.334 85.084)"/>
          <path d="m-35.81-14.665-2.506.85m2.416-9.081-2.524-.795m7.318-5.895-1.564-2.134m9.387-.427v-2.646m7.823 5.207 1.564-2.134m3.229 8.792 2.523-.796m-2.613 9.026 2.506.85" style="fill:none;stroke:#535c5b;stroke-width:1;stroke-opacity:1" transform="matrix(.315 0 0 .315 67.334 85.084)"/>
          <path d="m-15.897-8.545 1.663 2.593" style="fill:none;stroke:#535c5b;stroke-width:1.14487;stroke-opacity:1" transform="matrix(.315 0 0 .315 67.334 85.084)"/>
        </g>
      </g>
      <g style="stroke:#535c5b">
        <g style="display:inline;stroke:#535c5b;stroke-opacity:1">
          <path d="M-30.871-8.081a13.23 13.23 0 0 1-5.03-14.815 13.23 13.23 0 0 1 12.618-9.25 13.23 13.23 0 0 1 12.617 9.25 13.23 13.23 0 0 1-5.03 14.815" style="fill:none;stroke:#535c5b;stroke-width:1;stroke-opacity:1" transform="matrix(.315 0 0 .315 77.334 85.084)"/>
          <path d="m-30.74-8.609-1.598 2.661" style="fill:none;stroke:#535c5b;stroke-width:1.13716;stroke-opacity:1" transform="matrix(.315 0 0 .315 77.334 85.084)"/>
          <path d="m-35.81-14.665-2.506.85m2.416-9.081-2.524-.795m7.318-5.895-1.564-2.134m9.387-.427v-2.646m7.823 5.207 1.564-2.134m3.229 8.792 2.523-.796m-2.613 9.026 2.506.85" style="fill:none;stroke:#535c5b;stroke-width:1;stroke-opacity:1" transform="matrix(.315 0 0 .315 77.334 85.084)"/>
          <path d="m-15.897-8.545 1.663 2.593" style="fill:none;stroke:#535c5b;stroke-width:1.14487;stroke-opacity:1" transform="matrix(.315 0 0 .315 77.334 85.084)"/>
        </g>
      </g>
      <g style="stroke:#535c5b">
        <g style="display:inline;stroke:#535c5b;stroke-opacity:1">
          <path d="M-30.871-8.081a13.23 13.23 0 0 1-5.03-14.815 13.23 13.23 0 0 1 12.618-9.25 13.23 13.23 0 0 1 12.617 9.25 13.23 13.23 0 0 1-5.03 14.815" style="fill:none;stroke:#535c5b;stroke-width:1;stroke-opacity:1" transform="matrix(.315 0 0 .315 87.334 85.084)"/>
          <path d="m-30.74-8.609-1.598 2.661" style="fill:none;stroke:#535c5b;stroke-width:1.13716;stroke-opacity:1" transform="matrix(.315 0 0 .315 87.334 85.084)"/>
          <path d="m-35.81-14.665-2.506.85m2.416-9.081-2.524-.795m7.318-5.895-1.564-2.134m9.387-.427v-2.646m7.823 5.207 1.564-2.134m3.229 8.792 2.523-.796m-2.613 9.026 2.506.85" style="fill:none;stroke:#535c5b;stroke-width:1;stroke-opacity:1" transform="matrix(.315 0 0 .315 87.334 85.084)"/>
          <path d="m-15.897-8.545 1.663 2.593" style="fill:none;stroke:#535c5b;stroke-width:1.14487;stroke-opacity:1" transform="matrix(.315 0 0 .315 87.334 85.084)"/>
        </g>
      </g>
    </g>
    <g style="display:inline">
      <g style="stroke:#535c5b">
        <g style="display:inline;stroke:#535c5b;stroke-opacity:1">
          <path d="M-30.871-8.081a13.23 13.23 0 0 1-5.03-14.815 13.23 13.23 0 0 1 12.618-9.25 13.23 13.23 0 0 1 12.617 9.25 13.23 13.23 0 0 1-5.03 14.815" style="fill:none;stroke:#535c5b;stroke-width:1;stroke-opacity:1" transform="matrix(.315 0 0 .315 17.334 103.654)"/>
          <path d="m-30.74-8.609-1.598 2.661" style="fill:none;stroke:#535c5b;stroke-width:1.13716;stroke-opacity:1" transform="matrix(.315 0 0 .315 17.334 103.654)"/>
          <path d="m-35.81-14.665-2.506.85m2.416-9.081-2.524-.795m7.318-5.895-1.564-2.134m9.387-.427v-2.646m7.823 5.207 1.564-2.134m3.229 8.792 2.523-.796m-2.613 9.026 2.506.85" style="fill:none;stroke:#535c5b;stroke-width:1;stroke-opacity:1" transform="matrix(.315 0 0 .315 17.334 103.654)"/>
          <path d="m-15.897-8.545 1.663 2.593" style="fill:none;stroke:#535c5b;stroke-width:1.14487;stroke-opacity:1" transform="matrix(.315 0 0 .315 17.334 103.654)"/>
        </g>
      </g>
      <g style="stroke:#535c5b">
        <g style="display:inline;stroke:#535c5b;stroke-opacity:1">
          <path d="M-30.871-8.081a13.23 13.23 0 0 1-5.03-14.815 13.23 13.23 0 0 1 12.618-9.25 13.23 13.23 0 0 1 12.617 9.25 13.23 13.23 0 0 1-5.03 14.815" style="fill:none;stroke:#535c5b;stroke-width:1;stroke-opacity:1" transform="matrix(.315 0 0 .315 27.334 103.654)"/>
          <path d="m-30.74-8.609-1.598 2.661" style="fill:none;stroke:#535c5b;stroke-width:1.13716;stroke-opacity:1" transform="matrix(.315 0 0 .315 27.334 103.654)"/>
          <path d="m-35.81-14.665-2.506.85m2.416-9.081-2.524-.795m7.318-5.895-1.564-2.134m9.387-.427v-2.646" style="fill:none;stroke:#535c5b;stroke-width:1;stroke-opacity:1" transform="matrix(.315 0 0 .315 27.334 103.654)"/>
          <path d="m-15.46-29.586 1.564-2.134" style="fill:#bebebe;fill-opacity:1;stroke:#535c5b;stroke-width:1;stroke-opacity:1" transform="matrix(.315 0 0 .315 27.334 103.654)"/>
          <path d="m-10.667-22.928 2.523-.796m-2.613 9.026 2.506.85" style="fill:none;stroke:#535c5b;stroke-width:1;stroke-opacity:1" transform="matrix(.315 0 0 .315 27.334 103.654)"/>
          <path d="m-15.897-8.545 1.663 2.593" style="fill:none;stroke:#535c5b;stroke-width:1.14487;stroke-opacity:1" transform="matrix(.315 0 0 .315 27.334 103.654)"/>
        </g>
      </g>
      <g style="stroke:#535c5b">
        <g style="display:inline;stroke:#535c5b;stroke-opacity:1">
          <path d="M-30.871-8.081a13.23 13.23 0 0 1-5.03-14.815 13.23 13.23 0 0 1 12.618-9.25 13.23 13.23 0 0 1 12.617 9.25 13.23 13.23 0 0 1-5.03 14.815" style="fill:none;stroke:#535c5b;stroke-width:1;stroke-opacity:1" transform="matrix(.315 0 0 .315 37.334 103.654)"/>
          <path d="m-30.74-8.609-1.598 2.661" style="fill:none;stroke:#535c5b;stroke-width:1.13716;stroke-opacity:1" transform="matrix(.315 0 0 .315 37.334 103.654)"/>
          <path d="m-35.81-14.665-2.506.85m2.416-9.081-2.524-.795m7.318-5.895-1.564-2.134m9.387-.427v-2.646m7.823 5.207 1.564-2.134m3.229 8.792 2.523-.796m-2.613 9.026 2.506.85" style="fill:none;stroke:#535c5b;stroke-width:1;stroke-opacity:1" transform="matrix(.315 0 0 .315 37.334 103.654)"/>
          <path d="m-15.897-8.545 1.663 2.593" style="fill:none;stroke:#535c5b;stroke-width:1.14487;stroke-opacity:1" transform="matrix(.315 0 0 .315 37.334 103.654)"/>
        </g>
      </g>
      <g style="stroke:#535c5b">
        <g style="display:inline;stroke:#535c5b;stroke-opacity:1">
          <path d="M-30.871-8.081a13.23 13.23 0 0 1-5.03-14.815 13.23 13.23 0 0 1 12.618-9.25 13.23 13.23 0 0 1 12.617 9.25 13.23 13.23 0 0 1-5.03 14.815" style="fill:none;stroke:#535c5b;stroke-width:1;stroke-opacity:1" transform="matrix(.315 0 0 .315 47.334 103.654)"/>
          <path d="m-30.74-8.609-1.598 2.661" style="fill:none;stroke:#535c5b;stroke-width:1.13716;stroke-opacity:1" transform="matrix(.315 0 0 .315 47.334 103.654)"/>
          <path d="m-35.81-14.665-2.506.85m2.416-9.081-2.524-.795m7.318-5.895-1.564-2.134m9.387-.427v-2.646m7.823 5.207 1.564-2.134m3.229 8.792 2.523-.796m-2.613 9.026 2.506.85" style="fill:none;stroke:#535c5b;stroke-width:1;stroke-opacity:1" transform="matrix(.315 0 0 .315 47.334 103.654)"/>
          <path d="m-15.897-8.545 1.663 2.593" style="fill:none;stroke:#535c5b;stroke-width:1.14487;stroke-opacity:1" transform="matrix(.315 0 0 .315 47.334 103.654)"/>
        </g>
      </g>
      <g style="stroke:#535c5b">
        <g style="display:inline;stroke:#535c5b;stroke-opacity:1">
          <path d="M-30.871-8.081a13.23 13.23 0 0 1-5.03-14.815 13.23 13.23 0 0 1 12.618-9.25 13.23 13.23 0 0 1 12.617 9.25 13.23 13.23 0 0 1-5.03 14.815" style="fill:none;stroke:#535c5b;stroke-width:1;stroke-opacity:1" transform="matrix(.315 0 0 .315 57.334 103.654)"/>
          <path d="m-30.74-8.609-1.598 2.661" style="fill:none;stroke:#535c5b;stroke-width:1.13716;stroke-opacity:1" transform="matrix(.315 0 0 .315 57.334 103.654)"/>
          <path d="m-35.81-14.665-2.506.85m2.416-9.081-2.524-.795m7.318-5.895-1.564-2.134m9.387-.427v-2.646m7.823 5.207 1.564-2.134m3.229 8.792 2.523-.796m-2.613 9.026 2.506.85" style="fill:none;stroke:#535c5b;stroke-width:1;stroke-opacity:1" transform="matrix(.315 0 0 .315 57.334 103.654)"/>
          <path d="m-15.897-8.545 1.663 2.593" style="fill:none;stroke:#535c5b;stroke-width:1.14487;stroke-opacity:1" transform="matrix(.315 0 0 .315 57.334 103.654)"/>
        </g>
      </g>
      <g style="stroke:#535c5b">
        <g style="display:inline;stroke:#535c5b;stroke-opacity:1">
          <path d="M-30.871-8.081a13.23 13.23 0 0 1-5.03-14.815 13.23 13.23 0 0 1 12.618-9.25 13.23 13.23 0 0 1 12.617 9.25 13.23 13.23 0 0 1-5.03 14.815" style="fill:none;stroke:#535c5b;stroke-width:1;stroke-opacity:1" transform="matrix(.315 0 0 .315 67.334 103.654)"/>
          <path d="m-30.74-8.609-1.598 2.661" style="fill:none;stroke:#535c5b;stroke-width:1.13716;stroke-opacity:1" transform="matrix(.315 0 0 .315 67.334 103.654)"/>
          <path d="m-35.81-14.665-2.506.85m2.416-9.081-2.524-.795m7.318-5.895-1.564-2.134m9.387-.427v-2.646m7.823 5.207 1.564-2.134m3.229 8.792 2.523-.796m-2.613 9.026 2.506.85" style="fill:none;stroke:#535c5b;stroke-width:1;stroke-opacity:1" transform="matrix(.315 0 0 .315 67.334 103.654)"/>
          <path d="m-15.897-8.545 1.663 2.593" style="fill:none;stroke:#535c5b;stroke-width:1.14487;stroke-opacity:1" transform="matrix(.315 0 0 .315 67.334 103.654)"/>
        </g>
      </g>
      <g style="stroke:#535c5b">
        <g style="display:inline;stroke:#535c5b;stroke-opacity:1">
          <path d="M-30.871-8.081a13.23 13.23 0 0 1-5.03-14.815 13.23 13.23 0 0 1 12.618-9.25 13.23 13.23 0 0 1 12.617 9.25 13.23 13.23 0 0 1-5.03 14.815" style="fill:none;stroke:#535c5b;stroke-width:1;stroke-opacity:1" transform="matrix(.315 0 0 .315 77.334 103.654)"/>
          <path d="m-30.74-8.609-1.598 2.661" style="fill:none;stroke:#535c5b;stroke-width:1.13716;stroke-opacity:1" transform="matrix(.315 0 0 .315 77.334 103.654)"/>
          <path d="m-35.81-14.665-2.506.85m2.416-9.081-2.524-.795m7.318-5.895-1.564-2.134m9.387-.427v-2.646m7.823 5.207 1.564-2.134m3.229 8.792 2.523-.796m-2.613 9.026 2.506.85" style="fill:none;stroke:#535c5b;stroke-width:1;stroke-opacity:1" transform="matrix(.315 0 0 .315 77.334 103.654)"/>
          <path d="m-15.897-8.545 1.663 2.593" style="fill:none;stroke:#535c5b;stroke-width:1.14487;stroke-opacity:1" transform="matrix(.315 0 0 .315 77.334 103.654)"/>
        </g>
      </g>
      <g style="stroke:#535c5b">
        <g style="display:inline;stroke:#535c5b;stroke-opacity:1">
          <path d="M-30.871-8.081a13.23 13.23 0 0 1-5.03-14.815 13.23 13.23 0 0 1 12.618-9.25 13.23 13.23 0 0 1 12.617 9.25 13.23 13.23 0 0 1-5.03 14.815" style="fill:none;stroke:#535c5b;stroke-width:1;stroke-opacity:1" transform="matrix(.315 0 0 .315 87.334 103.654)"/>
          <path d="m-30.74-8.609-1.598 2.661" style="fill:none;stroke:#535c5b;stroke-width:1.13716;stroke-opacity:1" transform="matrix(.315 0 0 .315 87.334 103.654)"/>
          <path d="m-35.81-14.665-2.506.85m2.416-9.081-2.524-.795m7.318-5.895-1.564-2.134m9.387-.427v-2.646m7.823 5.207 1.564-2.134m3.229 8.792 2.523-.796m-2.613 9.026 2.506.85" style="fill:none;stroke:#535c5b;stroke-width:1;stroke-opacity:1" transform="matrix(.315 0 0 .315 87.334 103.654)"/>
          <path d="m-15.897-8.545 1.663 2.593" style="fill:none;stroke:#535c5b;stroke-width:1.14487;stroke-opacity:1" transform="matrix(.315 0 0 .315 87.334 103.654)"/>
        </g>
      </g>
    </g>
  </g>
  <g style="display:inline">
    <path d="M-12.276 34.119h5.854v5.854h-5.854z" style="display:inline;opacity:.745798;fill:#000;fill-opacity:1;stroke:none;stroke-width:.146018;stroke-linecap:butt;stroke-linejoin:miter;stroke-dasharray:none;stroke-opacity:1;paint-order:fill markers stroke" transform="translate(19.352 -23.247)"/>
    <path d="M-12.095 34.815h5.854v5.854h-5.854z" style="display:inline;opacity:.169215;fill:#000;fill-opacity:1;stroke:#000;stroke-width:.3;stroke-linecap:butt;stroke-linejoin:round;stroke-dasharray:none;stroke-opacity:.547297;paint-order:fill markers stroke" transform="translate(19.352 -23.247)"/>
  </g>
  <g style="display:inline">
    <path d="M-12.276 34.119h5.854v5.854h-5.854z" style="display:inline;opacity:.745798;fill:#000;fill-opacity:1;stroke:none;stroke-width:.146018;stroke-linecap:butt;stroke-linejoin:miter;stroke-dasharray:none;stroke-opacity:1;paint-order:fill markers stroke" transform="translate(29.347 -23.247)"/>
    <path d="M-12.095 34.815h5.854v5.854h-5.854z" style="display:inline;opacity:.169215;fill:#000;fill-opacity:1;stroke:#000;stroke-width:.3;stroke-linecap:butt;stroke-linejoin:round;stroke-dasharray:none;stroke-opacity:.547297;paint-order:fill markers stroke" transform="translate(29.347 -23.247)"/>
  </g>
  <g style="display:inline">
    <path d="M-12.276 34.119h5.854v5.854h-5.854z" style="display:inline;opacity:.745798;fill:#000;fill-opacity:1;stroke:none;stroke-width:.146018;stroke-linecap:butt;stroke-linejoin:miter;stroke-dasharray:none;stroke-opacity:1;paint-order:fill markers stroke" transform="translate(39.343 -23.247)"/>
    <path d="M-12.095 34.815h5.854v5.854h-5.854z" style="display:inline;opacity:.169215;fill:#000;fill-opacity:1;stroke:#000;stroke-width:.3;stroke-linecap:butt;stroke-linejoin:round;stroke-dasharray:none;stroke-opacity:.547297;paint-order:fill markers stroke" transform="translate(39.343 -23.247)"/>
  </g>
  <g style="display:inline">
    <path d="M-12.276 34.119h5.854v5.854h-5.854z" style="display:inline;opacity:.745798;fill:#000;fill-opacity:1;stroke:none;stroke-width:.146018;stroke-linecap:butt;stroke-linejoin:miter;stroke-dasharray:none;stroke-opacity:1;paint-order:fill markers stroke" transform="translate(49.338 -23.247)"/>
    <path d="M-12.095 34.815h5.854v5.854h-5.854z" style="display:inline;opacity:.169215;fill:#000;fill-opacity:1;stroke:#000;stroke-width:.3;stroke-linecap:butt;stroke-linejoin:round;stroke-dasharray:none;stroke-opacity:.547297;paint-order:fill markers stroke" transform="translate(49.338 -23.247)"/>
  </g>
  <g style="display:inline">
    <path d="M-12.276 34.119h5.854v5.854h-5.854z" style="display:inline;opacity:.745798;fill:#000;fill-opacity:1;stroke:none;stroke-width:.146018;stroke-linecap:butt;stroke-linejoin:miter;stroke-dasharray:none;stroke-opacity:1;paint-order:fill markers stroke" transform="translate(59.334 -23.247)"/>
    <path d="M-12.095 34.815h5.854v5.854h-5.854z" style="display:inline;opacity:.169215;fill:#000;fill-opacity:1;stroke:#000;stroke-width:.3;stroke-linecap:butt;stroke-linejoin:round;stroke-dasharray:none;stroke-opacity:.547297;paint-order:fill markers stroke" transform="translate(59.334 -23.247)"/>
  </g>
  <g style="display:inline">
    <path d="M-12.276 34.119h5.854v5.854h-5.854z" style="display:inline;opacity:.745798;fill:#000;fill-opacity:1;stroke:none;stroke-width:.146018;stroke-linecap:butt;stroke-linejoin:miter;stroke-dasharray:none;stroke-opacity:1;paint-order:fill markers stroke" transform="translate(69.33 -23.247)"/>
    <path d="M-12.095 34.815h5.854v5.854h-5.854z" style="display:inline;opacity:.169215;fill:#000;fill-opacity:1;stroke:#000;stroke-width:.3;stroke-linecap:butt;stroke-linejoin:round;stroke-dasharray:none;stroke-opacity:.547297;paint-order:fill markers stroke" transform="translate(69.33 -23.247)"/>
  </g>
  <g style="display:inline">
    <path d="M-12.276 34.119h5.854v5.854h-5.854z" style="display:inline;opacity:.745798;fill:#000;fill-opacity:1;stroke:none;stroke-width:.146018;stroke-linecap:butt;stroke-linejoin:miter;stroke-dasharray:none;stroke-opacity:1;paint-order:fill markers stroke" transform="translate(79.325 -23.247)"/>
    <path d="M-12.095 34.815h5.854v5.854h-5.854z" style="display:inline;opacity:.169215;fill:#000;fill-opacity:1;stroke:#000;stroke-width:.3;stroke-linecap:butt;stroke-linejoin:round;stroke-dasharray:none;stroke-opacity:.547297;paint-order:fill markers stroke" transform="translate(79.325 -23.247)"/>
  </g>
  <g style="display:inline">
    <path d="M-12.276 34.119h5.854v5.854h-5.854z" style="display:inline;opacity:.745798;fill:#000;fill-opacity:1;stroke:none;stroke-width:.146018;stroke-linecap:butt;stroke-linejoin:miter;stroke-dasharray:none;stroke-opacity:1;paint-order:fill markers stroke" transform="translate(89.32 -23.247)"/>
    <path d="M-12.095 34.815h5.854v5.854h-5.854z" style="display:inline;opacity:.169215;fill:#000;fill-opacity:1;stroke:#000;stroke-width:.3;stroke-linecap:butt;stroke-linejoin:round;stroke-dasharray:none;stroke-opacity:.547297;paint-order:fill markers stroke" transform="translate(89.32 -23.247)"/>
  </g>
  <g style="display:inline">
    <path d="M-12.276 34.119h5.854v5.854h-5.854z" style="display:inline;opacity:.745798;fill:#000;fill-opacity:1;stroke:none;stroke-width:.146018;stroke-linecap:butt;stroke-linejoin:miter;stroke-dasharray:none;stroke-opacity:1;paint-order:fill markers stroke" transform="translate(19.352 2.98)"/>
    <path d="M-12.095 34.815h5.854v5.854h-5.854z" style="display:inline;opacity:.169215;fill:#000;fill-opacity:1;stroke:#000;stroke-width:.3;stroke-linecap:butt;stroke-linejoin:round;stroke-dasharray:none;stroke-opacity:.547297;paint-order:fill markers stroke" transform="translate(19.352 2.98)"/>
  </g>
  <g style="display:inline">
    <path d="M-12.276 34.119h5.854v5.854h-5.854z" style="display:inline;opacity:.745798;fill:#000;fill-opacity:1;stroke:none;stroke-width:.146018;stroke-linecap:butt;stroke-linejoin:miter;stroke-dasharray:none;stroke-opacity:1;paint-order:fill markers stroke" transform="translate(29.347 2.98)"/>
    <path d="M-12.095 34.815h5.854v5.854h-5.854z" style="display:inline;opacity:.169215;fill:#000;fill-opacity:1;stroke:#000;stroke-width:.3;stroke-linecap:butt;stroke-linejoin:round;stroke-dasharray:none;stroke-opacity:.547297;paint-order:fill markers stroke" transform="translate(29.347 2.98)"/>
  </g>
  <g style="display:inline">
    <path d="M-12.276 34.119h5.854v5.854h-5.854z" style="display:inline;opacity:.745798;fill:#000;fill-opacity:1;stroke:none;stroke-width:.146018;stroke-linecap:butt;stroke-linejoin:miter;stroke-dasharray:none;stroke-opacity:1;paint-order:fill markers stroke" transform="translate(39.343 2.98)"/>
    <path d="M-12.095 34.815h5.854v5.854h-5.854z" style="display:inline;opacity:.169215;fill:#000;fill-opacity:1;stroke:#000;stroke-width:.3;stroke-linecap:butt;stroke-linejoin:round;stroke-dasharray:none;stroke-opacity:.547297;paint-order:fill markers stroke" transform="translate(39.343 2.98)"/>
  </g>
  <g style="display:inline">
    <path d="M-12.276 34.119h5.854v5.854h-5.854z" style="display:inline;opacity:.745798;fill:#000;fill-opacity:1;stroke:none;stroke-width:.146018;stroke-linecap:butt;stroke-linejoin:miter;stroke-dasharray:none;stroke-opacity:1;paint-order:fill markers stroke" transform="translate(49.338 2.98)"/>
    <path d="M-12.095 34.815h5.854v5.854h-5.854z" style="display:inline;opacity:.169215;fill:#000;fill-opacity:1;stroke:#000;stroke-width:.3;stroke-linecap:butt;stroke-linejoin:round;stroke-dasharray:none;stroke-opacity:.547297;paint-order:fill markers stroke" transform="translate(49.338 2.98)"/>
  </g>
  <g style="display:inline">
    <path d="M-12.276 34.119h5.854v5.854h-5.854z" style="display:inline;opacity:.745798;fill:#000;fill-opacity:1;stroke:none;stroke-width:.146018;stroke-linecap:butt;stroke-linejoin:miter;stroke-dasharray:none;stroke-opacity:1;paint-order:fill markers stroke" transform="translate(59.334 2.98)"/>
    <path d="M-12.095 34.815h5.854v5.854h-5.854z" style="display:inline;opacity:.169215;fill:#000;fill-opacity:1;stroke:#000;stroke-width:.3;stroke-linecap:butt;stroke-linejoin:round;stroke-dasharray:none;stroke-opacity:.547297;paint-order:fill markers stroke" transform="translate(59.334 2.98)"/>
  </g>
  <g style="display:inline">
    <path d="M-12.276 34.119h5.854v5.854h-5.854z" style="display:inline;opacity:.745798;fill:#000;fill-opacity:1;stroke:none;stroke-width:.146018;stroke-linecap:butt;stroke-linejoin:miter;stroke-dasharray:none;stroke-opacity:1;paint-order:fill markers stroke" transform="translate(69.33 2.98)"/>
    <path d="M-12.095 34.815h5.854v5.854h-5.854z" style="display:inline;opacity:.169215;fill:#000;fill-opacity:1;stroke:#000;stroke-width:.3;stroke-linecap:butt;stroke-linejoin:round;stroke-dasharray:none;stroke-opacity:.547297;paint-order:fill markers stroke" transform="translate(69.33 2.98)"/>
  </g>
  <g style="display:inline">
    <path d="M-12.276 34.119h5.854v5.854h-5.854z" style="display:inline;opacity:.745798;fill:#000;fill-opacity:1;stroke:none;stroke-width:.146018;stroke-linecap:butt;stroke-linejoin:miter;stroke-dasharray:none;stroke-opacity:1;paint-order:fill markers stroke" transform="translate(79.325 2.98)"/>
    <path d="M-12.095 34.815h5.854v5.854h-5.854z" style="display:inline;opacity:.169215;fill:#000;fill-opacity:1;stroke:#000;stroke-width:.3;stroke-linecap:butt;stroke-linejoin:round;stroke-dasharray:none;stroke-opacity:.547297;paint-order:fill markers stroke" transform="translate(79.325 2.98)"/>
  </g>
  <g style="display:inline">
    <path d="M-12.276 34.119h5.854v5.854h-5.854z" style="display:inline;opacity:.745798;fill:#000;fill-opacity:1;stroke:none;stroke-width:.146018;stroke-linecap:butt;stroke-linejoin:miter;stroke-dasharray:none;stroke-opacity:1;paint-order:fill markers stroke" transform="translate(89.32 2.98)"/>
    <path d="M-12.095 34.815h5.854v5.854h-5.854z" style="display:inline;opacity:.169215;fill:#000;fill-opacity:1;stroke:#000;stroke-width:.3;stroke-linecap:butt;stroke-linejoin:round;stroke-dasharray:none;stroke-opacity:.547297;paint-order:fill markers stroke" transform="translate(89.32 2.98)"/>
  </g>
  <g style="font-size:3.52778px;-inkscape-font-specification:&quot;sans-serif, Normal&quot;;display:inline;fill:#84928f;stroke:none;stroke-width:.1;paint-order:fill markers stroke;stroke-dasharray:none;fill-opacity:1">
    <path d="M28.76 3.396v-1.34q0-.224.17-.394t.395-.17h2.485v.564h-2.168q-.08 0-.128.048-.048.049-.048.128v.989q0 .079.048.127.049.048.128.048h1.287q.079 0 .127-.048.05-.048.05-.127v-.212h-.69v-.565h1.394v1.164q0 .147-.103.25-.102.103-.248.103h-2.134q-.224 0-.395-.17-.17-.17-.17-.395zm3.333.565V2.444h2.188q.079 0 .127-.049.048-.048.048-.127v-.036q0-.08-.048-.128t-.127-.048h-2.188v-.565h2.716q.147 0 .25.103.104.104.104.25v.653q0 .147-.104.25-.103.103-.25.103.133 0 .21.078.078.077.144.275l.246.758h-.74l-.247-.758-.023-.055q-.015-.04-.022-.051-.005-.013-.022-.035-.016-.024-.033-.03-.016-.01-.045-.016-.027-.007-.067-.007H32.8v.952zm3.597-.565v-1.34q0-.224.17-.394t.395-.17h2.115q.224 0 .394.17t.17.394v1.34q0 .224-.17.395-.17.17-.394.17h-2.115q-.224 0-.395-.17-.17-.17-.17-.395Zm.706-.175q0 .079.048.127t.128.048h1.481q.08 0 .127-.048.049-.048.049-.127v-.99q0-.078-.049-.127-.048-.048-.127-.048h-1.481q-.08 0-.128.048-.048.049-.048.128zm2.821.175v-1.34q0-.224.17-.394.171-.17.395-.17h2.116q.224 0 .394.17t.17.394v1.34q0 .224-.17.395-.17.17-.394.17h-2.116q-.224 0-.394-.17t-.17-.395zm.707-.175q0 .079.048.127t.127.048h1.482q.079 0 .127-.048t.048-.127v-.99q0-.078-.048-.127-.048-.048-.127-.048h-1.482q-.079 0-.127.048-.048.049-.048.128zm2.821-1.73h.706l.758 1.712.012.016.02.019q.006.005.022.012.015.005.034.005.02 0 .035-.005.015-.007.022-.012l.017-.02.014-.015.76-1.712h.704l-.882 2.012q-.079.202-.263.33-.185.128-.407.128-.222 0-.406-.127-.185-.13-.264-.33zm3.245 1.905v-1.34q0-.224.171-.394.17-.17.394-.17h2.064v.564h-1.747q-.079 0-.127.048-.048.049-.048.128v.212h1.764v.565h-1.764v.212q0 .079.048.127t.127.048h1.747v.565h-2.064q-.223 0-.394-.17-.17-.17-.17-.395zm2.91.565V2.444h2.187q.08 0 .128-.049.048-.048.048-.127v-.036q0-.08-.048-.128t-.128-.048H48.9v-.565h2.716q.147 0 .25.103.103.104.103.25v.441q0 .147-.103.25-.103.103-.25.103h-.036q.224 0 .395.17.17.171.17.395v.193q0 .224-.17.395-.17.17-.395.17zm.706-.565h1.657q.08 0 .128-.048t.048-.127v-.037q0-.079-.048-.127-.049-.048-.128-.048h-1.657zm2.822 0v-1.34q0-.224.17-.394t.395-.17h2.115q.224 0 .394.17t.17.394v1.34q0 .224-.17.395-.17.17-.394.17h-2.115q-.224 0-.395-.17-.17-.17-.17-.395zm.706-.175q0 .079.048.127t.128.048h1.481q.08 0 .127-.048.049-.048.049-.127v-.99q0-.078-.049-.127-.048-.048-.127-.048H53.31q-.08 0-.128.048-.048.049-.048.128zm2.68.74 1.111-1.235-1.11-1.235h.898l.918.953.917-.953h.899l-1.111 1.235 1.111 1.235h-.9l-.916-.952-.918.952Zm5.326-.565v-1.34q0-.224.17-.394.171-.17.395-.17h2.064v.564h-1.747q-.079 0-.127.048-.048.049-.048.128v.212h1.763v.565h-1.763v.212q0 .079.048.127t.127.048h1.747v.565h-2.064q-.224 0-.394-.17t-.17-.395Zm2.91.565 1.11-1.235-1.11-1.235h.899l.918.953.916-.953h.9L66.57 2.726l1.112 1.235h-.9l-.916-.952-.918.952Zm3.915 0V2.444h2.188q.079 0 .127-.049.048-.048.048-.127v-.036q0-.08-.048-.128t-.127-.048h-2.188v-.565h2.716q.147 0 .25.103.104.104.104.25v.812q0 .146-.104.25-.103.103-.25.103h-2.01v.952zm3.35 0V2.056q0-.224.17-.394.171-.17.395-.17h1.906q.223 0 .392.17.17.168.17.394v1.905h-.704v-1.73q0-.078-.05-.127-.048-.048-.127-.048h-1.27q-.079 0-.127.048-.048.049-.048.128v.46h1.27v.563h-1.27v.706zm3.316 0V2.197q0-.29.207-.497.208-.209.5-.209.182 0 .334.086.151.085.246.233l1.147 1.34q.012.024.026.03.014.004.045.004.07 0 .07-.07V1.49h.707v1.764q0 .291-.209.5-.206.206-.497.206-.173 0-.331-.086-.159-.086-.252-.23l-1.128-1.343q-.034-.034-.09-.034-.025 0-.048.022-.02.023-.02.049V3.96zm3.563 0V2.444h.706v.952h1.04q.08 0 .128-.048t.048-.127v-.99q0-.078-.048-.127-.049-.048-.128-.048h-1.746v-.565h2.063q.224 0 .395.17.17.171.17.395v1.34q0 .224-.17.395-.17.17-.395.17zm2.909-.565v-1.34q0-.224.17-.394.171-.17.395-.17h2.064v.564h-1.747q-.08 0-.128.048-.048.049-.048.128v.212h1.764v.565h-1.764v.212q0 .079.048.127.049.048.128.048h1.747v.565h-2.064q-.224 0-.395-.17-.17-.17-.17-.395zm2.909.565V2.444H86.2q.08 0 .127-.049.049-.048.049-.127v-.036q0-.08-.049-.128-.048-.048-.127-.048h-2.188v-.565h2.717q.146 0 .25.103.103.104.103.25v.653q0 .147-.103.25-.104.103-.25.103.132 0 .21.078.077.077.143.275l.246.758h-.74l-.247-.758-.022-.055q-.016-.04-.023-.051-.005-.013-.022-.035-.015-.024-.033-.03-.015-.01-.045-.016-.027-.007-.067-.007h-1.41v.952z" aria-label="GrooveBox EXPANDER" style="font-family:PBIO;-inkscape-font-specification:PBIO;stroke-width:.1;stroke-dasharray:none;stroke:none;fill:#84928f;fill-opacity:1"/>
  </g>
  <rect width="82.905" height="4.11" x="4.04" y="123.319" rx="0" ry="0" style="opacity:.237395;fill:#000;stroke:none;stroke-width:.124953;stroke-linecap:square;paint-order:fill markers stroke"/>
  <path d="M86.925 123.252H4.175" style="display:inline;opacity:.117647;fill:#000;fill-opacity:.489474;stroke:#000;stroke-width:.164099;stroke-linecap:butt;stroke-linejoin:miter;stroke-dasharray:none;stroke-opacity:1;paint-order:fill markers stroke"/>
</svg>
