<?xml version="1.0" encoding="UTF-8" standalone="no"?>
<!-- Generator: Adobe Illustrator 26.1.0, SVG Export Plug-In . SVG Version: 6.00 Build 0)  -->

<svg
   version="1.1"
   id="Ebene_1"
   x="0px"
   y="0px"
   width="50.8mm"
   height="128.5mm"
   viewBox="0 0 144 364.252"
   style="enable-background:new 0 0 144 364.252;"
   xml:space="preserve"
   sodipodi:docname="typography.svg"
   inkscape:version="1.1.1 (3bf5ae0d25, 2021-09-20)"
   xmlns:inkscape="http://www.inkscape.org/namespaces/inkscape"
   xmlns:sodipodi="http://sodipodi.sourceforge.net/DTD/sodipodi-0.dtd"
   xmlns="http://www.w3.org/2000/svg"
   xmlns:svg="http://www.w3.org/2000/svg"><defs
   id="defs61" /><sodipodi:namedview
   id="namedview59"
   pagecolor="#ffffff"
   bordercolor="#666666"
   borderopacity="1.0"
   inkscape:pageshadow="2"
   inkscape:pageopacity="0.0"
   inkscape:pagecheckerboard="0"
   showgrid="false"
   inkscape:zoom="2.3966923"
   inkscape:cx="27.537953"
   inkscape:cy="242.00019"
   inkscape:window-width="2880"
   inkscape:window-height="1526"
   inkscape:window-x="-11"
   inkscape:window-y="1138"
   inkscape:window-maximized="1"
   inkscape:current-layer="Ebene_1"
   inkscape:document-units="mm" />
<style
   type="text/css"
   id="style2">
	.st0{fill:#F3EDE7;}
	.st1{fill:#FFFFFF;}
	.st2{fill:#1C2729;}
</style>
<path
   class="st0"
   d="m 99.995621,13.513 h 0.383999 c 0.112,0 0.169,-0.067 0.169,-0.168 V 9.762 c 0,-0.101 0.067,-0.168 0.169,-0.168 h 1.015 c 0.102,0 0.181,0.067 0.181,0.168 v 3.583 c 0,0.101 0.068,0.168 0.169,0.168 h 0.373 c 0.112,0 0.169,-0.067 0.169,-0.168 V 5.259 c 0,-0.101 -0.068,-0.168 -0.169,-0.168 h -0.373 c -0.112,0 -0.169,0.067 -0.169,0.168 V 8.74 c 0,0.101 -0.079,0.168 -0.181,0.168 h -1.015 c -0.102,0 -0.169,-0.067 -0.169,-0.168 V 5.259 c 0,-0.101 -0.067,-0.168 -0.169,-0.168 h -0.383999 c -0.112,0 -0.169,0.067 -0.169,0.168 v 8.086 c 0,0.101 0.068,0.168 0.169,0.168 z m -5.02,-1.639 c 0,1.033 0.462,1.696 1.33,1.696 0.88,0 1.342,-0.674 1.342,-1.696 v -0.887 c 0,-0.101 -0.067,-0.168 -0.169,-0.168 h -0.384 c -0.101,0 -0.169,0.067 -0.169,0.168 v 0.674 c 0,0.831 -0.146,1.224 -0.62,1.224 -0.474,0 -0.608,-0.393 -0.608,-1.224 V 6.943 c 0,-0.831 0.135,-1.224 0.608,-1.224 0.473,0 0.62,0.393 0.62,1.224 v 0.674 c 0,0.101 0.068,0.168 0.169,0.168 h 0.384 c 0.102,0 0.169,-0.067 0.169,-0.168 V 6.73 c 0,-1.022 -0.462,-1.696 -1.342,-1.696 -0.868,0 -1.33,0.663 -1.33,1.696 z m -4.084,-6.267 c 0,0.112 0.067,0.168 0.169,0.168 h 0.439 c 0.102,0 0.169,0.067 0.169,0.168 v 7.401 c 0,0.101 0.068,0.168 0.17,0.168 h 0.372 c 0.112,0 0.169,-0.067 0.169,-0.168 v -7.4 c 0,-0.101 0.067,-0.168 0.169,-0.168 h 0.462 c 0.102,0 0.17,-0.067 0.17,-0.168 V 5.259 c 0,-0.112 -0.068,-0.168 -0.17,-0.168 h -1.95 c -0.102,0 -0.169,0.067 -0.169,0.168 z m -2.461,7.906 h 0.384 c 0.112,0 0.169,-0.067 0.169,-0.168 V 5.259 c 0,-0.101 -0.067,-0.168 -0.169,-0.168 h -0.384 c -0.112,0 -0.169,0.067 -0.169,0.168 v 8.086 c 0,0.101 0.067,0.168 0.169,0.168 z m -4.062,-0.168 c 0,0.101 0.067,0.168 0.169,0.168 h 1.646 c 0.102,0 0.169,-0.067 0.169,-0.168 V 13.03 c 0,-0.101 -0.067,-0.168 -0.169,-0.168 h -0.925 c -0.102,0 -0.169,-0.067 -0.169,-0.168 V 5.259 c 0,-0.101 -0.067,-0.168 -0.169,-0.168 h -0.384 c -0.112,0 -0.169,0.067 -0.169,0.168 v 8.086 z m -4.873,-1.471 c 0,1.033 0.462,1.696 1.33,1.696 0.88,0 1.319,-0.674 1.319,-1.696 V 9.47 c 0,-0.101 -0.067,-0.168 -0.169,-0.168 h -0.981 c -0.102,0 -0.169,0.067 -0.169,0.168 v 0.337 c 0,0.112 0.067,0.168 0.169,0.168 h 0.282 c 0.102,0 0.169,0.067 0.169,0.168 v 1.516 c 0,0.831 -0.146,1.224 -0.62,1.224 -0.474,0 -0.608,-0.393 -0.608,-1.224 V 6.943 c 0,-0.831 0.135,-1.224 0.608,-1.224 0.473,0 0.62,0.393 0.62,1.224 v 0.674 c 0,0.101 0.067,0.168 0.169,0.168 h 0.361 c 0.102,0 0.169,-0.067 0.169,-0.168 V 6.73 c 0,-1.022 -0.439,-1.696 -1.319,-1.696 -0.868,0 -1.33,0.663 -1.33,1.696 z m -4.333,1.639 h 0.451 c 0.079,0 0.146,-0.067 0.169,-0.168 l 0.598,-2.684 h 0.091 l 0.586,2.684 c 0.022,0.101 0.102,0.168 0.181,0.168 h 0.439 c 0.079,0 0.136,-0.067 0.113,-0.168 l -0.97,-3.976 0.011,-0.135 0.959,-3.976 c 0.022,-0.101 -0.034,-0.168 -0.113,-0.168 h -0.439 c -0.079,0 -0.146,0.067 -0.169,0.168 l -0.598,2.695 h -0.091 l -0.598,-2.695 c -0.022,-0.101 -0.09,-0.168 -0.169,-0.168 h -0.451 c -0.067,0 -0.135,0.067 -0.112,0.168 l 0.97,3.976 v 0.135 l -0.97,3.976 c -0.023,0.101 0.045,0.168 0.112,0.168 z m -3.882,-1.853 V 6.943 c 0,-0.831 0.135,-1.224 0.609,-1.224 0.485,0 0.62,0.393 0.62,1.224 v 4.717 c 0,0.831 -0.135,1.224 -0.62,1.224 -0.473,0 -0.609,-0.393 -0.609,-1.224 z m -0.721,0.214 c 0,1.033 0.462,1.696 1.331,1.696 0.88,0 1.342,-0.663 1.342,-1.696 V 6.73 c 0,-1.033 -0.462,-1.696 -1.342,-1.696 -0.868,0 -1.331,0.663 -1.331,1.696 z m -3.363,1.639 h 0.406 c 0.113,0 0.169,-0.056 0.191,-0.213 l 1.128,-8.007 c 0.022,-0.168 -0.068,-0.202 -0.169,-0.202 h -0.35 c -0.124,0 -0.191,0.034 -0.203,0.18 l -0.744,6.098 h -0.113 l -0.744,-6.099 c -0.011,-0.146 -0.079,-0.18 -0.203,-0.18 h -0.35 c -0.102,0 -0.192,0.034 -0.169,0.202 l 1.128,8.007 c 0.023,0.158 0.079,0.214 0.192,0.214 z"
   id="path4"
   style="stroke:none;fill-opacity:1;fill:#0c1218" /><path
   class="st0"
   d="m 98.275621,103.595 c -2.793,-2.793 -4.188,-6.45 -4.188,-10.111 0,-3.66 1.395,-7.318 4.188,-10.111 0.117,-0.117 0.117,-0.307 0,-0.424 -0.117,-0.117 -0.307,-0.117 -0.424,0 -2.909,2.908 -4.364,6.723 -4.364,10.535 0,3.812 1.455,7.626 4.364,10.535 0.117,0.117 0.307,0.117 0.424,0 0.117,-0.117 0.117,-0.307 0,-0.424 z"
   id="path6"
   style="stroke:none;fill-opacity:1;fill:#0c1218" /><path
   class="st0"
   d="m 118.49662,83.374 c 2.793,2.793 4.188,6.45 4.188,10.111 0,3.66 -1.395,7.318 -4.188,10.111 -0.117,0.117 -0.117,0.307 0,0.424 0.117,0.117 0.307,0.117 0.424,0 2.909,-2.908 4.364,-6.723 4.364,-10.535 0,-3.812 -1.455,-7.626 -4.364,-10.535 -0.117,-0.117 -0.307,-0.117 -0.424,0 -0.117,0.116 -0.117,0.306 0,0.424 z"
   id="path8"
   style="stroke:none;fill-opacity:1;fill:#0c1218" /><path
   class="st0"
   d="m 18.859621,279.706 c -2.793,-2.793 -4.188,-6.45 -4.188,-10.111 0,-3.66 1.395,-7.318 4.188,-10.111 0.117,-0.117 0.117,-0.307 0,-0.424 -0.117,-0.117 -0.307,-0.117 -0.424,0 -2.909,2.908 -4.364,6.723 -4.364,10.535 0,3.812 1.455,7.626 4.364,10.535 0.117,0.117 0.307,0.117 0.424,0 0.117,-0.117 0.117,-0.307 0,-0.424 z"
   id="path10"
   style="stroke:none;fill-opacity:1;fill:#0c1218" /><path
   class="st0"
   d="m 39.080621,259.485 c 2.793,2.793 4.188,6.45 4.188,10.11 0,3.66 -1.395,7.318 -4.188,10.111 -0.117,0.117 -0.117,0.307 0,0.424 0.117,0.117 0.307,0.117 0.424,0 2.909,-2.908 4.364,-6.723 4.364,-10.535 0,-3.812 -1.455,-7.626 -4.364,-10.535 -0.117,-0.117 -0.307,-0.117 -0.424,0 -0.117,0.118 -0.117,0.308 0,0.425 z"
   id="path12"
   style="stroke:none;fill-opacity:1;fill:#0c1218" /><path
   class="st0"
   d="m 62.342621,279.706 c -2.793,-2.793 -4.188,-6.45 -4.188,-10.111 0,-3.66 1.395,-7.318 4.188,-10.111 0.117,-0.117 0.117,-0.307 0,-0.424 -0.117,-0.117 -0.307,-0.117 -0.424,0 -2.909,2.908 -4.364,6.723 -4.364,10.535 0,3.812 1.455,7.626 4.364,10.535 0.117,0.117 0.307,0.117 0.424,0 0.117,-0.117 0.117,-0.307 0,-0.424 z"
   id="path14"
   style="stroke:none;fill-opacity:1;fill:#0c1218" /><path
   class="st0"
   d="m 82.563621,259.485 c 2.793,2.793 4.188,6.45 4.188,10.11 0,3.66 -1.395,7.318 -4.188,10.111 -0.117,0.117 -0.117,0.307 0,0.424 0.117,0.117 0.307,0.117 0.424,0 2.909,-2.908 4.364,-6.723 4.364,-10.535 0,-3.812 -1.455,-7.626 -4.364,-10.535 -0.117,-0.117 -0.307,-0.117 -0.424,0 -0.117,0.118 -0.117,0.308 0,0.425 z"
   id="path16"
   style="stroke:none;fill-opacity:1;fill:#0c1218" /><path
   class="st0"
   d="m 122.07162,61.319 c 0.059,-0.243 0.11,-0.488 0.156,-0.736 l -2.488,-0.566 c 0.113,-0.648 0.176,-1.313 0.175,-1.993 0,-1.421 -0.259,-2.781 -0.73,-4.038 l 2.38,-0.935 c -0.089,-0.235 -0.184,-0.467 -0.285,-0.696 l -2.384,0.936 c -0.84,-1.86 -2.158,-3.455 -3.8,-4.631 l 1.446,-2.117 c -0.204,-0.145 -0.412,-0.285 -0.624,-0.42 l -1.447,2.118 c -1.663,-1.035 -3.61,-1.656 -5.697,-1.723 v -2.566 c -0.125,-0.003 -0.25,-0.01 -0.376,-0.01 -0.126,0 -0.251,0.006 -0.376,0.01 v 2.566 c -2.087,0.067 -4.033,0.688 -5.697,1.723 l -1.447,-2.118 c -0.212,0.134 -0.42,0.275 -0.624,0.42 l 1.446,2.117 c -1.641,1.176 -2.959999,2.772 -3.799999,4.631 l -2.384,-0.936 c -0.101,0.229 -0.196,0.461 -0.285,0.696 l 2.38,0.935 c -0.471,1.257 -0.73,2.617 -0.73,4.038 0,0.68 0.062,1.345 0.175,1.993 l -2.488,0.566 c 0.046,0.248 0.098,0.493 0.156,0.736 l 2.485,-0.565 c 0.5,2.054 1.549,3.893 2.983999,5.349 l -1.730999,1.865 c 0.177,0.177 0.361,0.348 0.548,0.516 l 2.350999,-2.532 -0.551,-0.512 -0.003,0.003 c -1.871999,-1.915 -3.025999,-4.529 -3.025999,-7.419 0,-2.933 1.188,-5.584 3.108999,-7.507 1.923,-1.922 4.574,-3.109 7.507,-3.109 2.933,0 5.584,1.188 7.507,3.109 1.922,1.923 3.109,4.574 3.109,7.507 0,2.889 -1.154,5.503 -3.026,7.419 l -0.003,-0.003 -0.551,0.512 2.351,2.532 c 0.187,-0.167 0.37,-0.339 0.548,-0.516 l -1.731,-1.865 c 1.435,-1.456 2.484,-3.295 2.984,-5.349 z"
   id="path18"
   style="stroke:none;fill-opacity:1;fill:#0c1218" /><path
   class="st0"
   d="m 93.891621,67.667 c -0.479,0 -0.634,-0.21 -0.634,-1.093 v -1.632 c 0,-0.883 0.155,-1.1 0.634,-1.1 0.471,0 0.626,0.217 0.626,1.1 v 1.632 c 0,0.884 -0.147,1.093 -0.626,1.093 z m 0.042,0.61 c 0.887,0 1.287,-0.371 1.287,-1.758 v -1.521 c 0,-1.4 -0.394,-1.765 -1.287,-1.765 h -0.085 c -0.886,0 -1.287,0.364 -1.287,1.765 v 1.521 c 0,1.387 0.401,1.758 1.287,1.758 z"
   id="path20"
   style="stroke:none;fill-opacity:1;fill:#0c1218" /><polygon
   class="st0"
   points="123.053,63.304 122.265,63.703 122.265,64.446 123.187,63.927 123.222,63.927 123.222,67.59 122.209,67.59 122.209,68.207 124.812,68.207 124.812,67.59 123.918,67.59 123.918,63.304 "
   id="polygon22"
   transform="translate(0.20862086)"
   style="stroke:none;fill-opacity:1;fill:#0c1218" /><path
   class="st0"
   d="m 34.421621,250.925 c 1.576,0 2.262,-0.686 2.262,-2.304 v -0.637 h -2.452 v 0.903 h 1.359 c 0,0.785 -0.238,1.1 -1.121,1.1 h -0.154 c -0.973,0 -1.176,-0.525 -1.176,-1.421 v -0.309 c 0,-0.889 0.203,-1.429 1.176,-1.429 h 0.119 c 0.588,0 0.938,0.168 1.058,0.553 h 1.142 c -0.217,-1.057 -0.952,-1.499 -2.213,-1.499 h -0.091 c -1.59,0 -2.29,0.693 -2.29,2.311 v 0.427 c 0,1.618 0.7,2.304 2.29,2.304 h 0.091 z m -5.747,-4.069 c 0.616,0 0.812,0.154 0.812,0.651 v 0.042 c 0,0.469 -0.196,0.623 -0.701,0.623 h -1.324 v -1.316 z m -1.212,2.213 h 1.205 c 0.645,0 0.82,0.119 0.82,0.672 v 1.114 h 1.085 v -1.184 c 0,-0.854 -0.231,-1.03 -0.75,-1.114 v -0.049 c 0.525,-0.084 0.75,-0.406 0.75,-1.135 v -0.126 c 0,-0.953 -0.448,-1.296 -1.667,-1.296 h -2.528 v 4.903 h 1.085 z m -3.926,-2.178 h 1.513 v -0.938 h -4.097 v 0.938 h 1.492 v 3.964 h 1.093 v -3.964 z"
   id="path24"
   style="stroke:none;fill-opacity:1;fill:#0c1218" /><path
   class="st0"
   d="m 60.009621,33.094 h -1.898 l -1.94,3.425 h -0.063 l -1.926,-3.425 h -2.059 l 2.865,4.903 h 2.157 z m -11.671,1.036 0.995,1.737 h -2.059 l 1.001,-1.737 z m 1.331,-1.036 h -2.661 l -2.865,4.903 h 1.919 l 0.553,-0.974 h 3.376 l 0.561,0.974 h 1.982 z m -5.534,0 h -1.751 l -1.113,3.432 h -0.063 l -1.345,-3.432 h -1.94 l -1.331,3.432 h -0.063 l -1.135,-3.432 h -1.926 l 1.786,4.903 h 2.276 l 1.338,-3.194 1.261,3.194 h 2.234 z"
   id="path26"
   style="stroke:none;fill-opacity:1;fill:#0c1218" /><path
   class="st0"
   d="m 84.320621,245.952 h -1.092 v 1.975 h -2.262 v -1.975 h -1.085 v 4.903 h 1.085 v -1.989 h 2.262 v 1.989 h 1.093 v -4.903 z m -8.072,4.973 c 1.345,0 1.94,-0.532 2.165,-1.646 h -1.114 c -0.14,0.504 -0.477,0.7 -1.085,0.7 h -0.091 c -0.974,0 -1.148,-0.539 -1.148,-1.429 v -0.294 c 0,-0.889 0.175,-1.429 1.148,-1.429 h 0.091 c 0.609,0 0.945,0.196 1.085,0.701 h 1.114 c -0.224,-1.114 -0.82,-1.646 -2.165,-1.646 h -0.161 c -1.583,0 -2.213,0.687 -2.213,2.304 v 0.434 c 0,1.618 0.63,2.304 2.213,2.304 h 0.161 z m -5.005,-4.034 h 1.513 v -0.938 h -4.097 v 0.938 h 1.492 v 3.964 h 1.093 v -3.964 z m -3.913,-0.939 h -1.085 v 4.903 h 1.085 z m -4.305,0.89 c 0.588,0 0.771,0.196 0.771,0.75 v 0.07 c 0,0.54 -0.168,0.75 -0.764,0.75 h -1.261 v -1.569 h 1.254 z m -1.254,2.458 h 1.429 c 1.198,0 1.681,-0.498 1.681,-1.562 v -0.21 c 0,-1.156 -0.483,-1.576 -1.681,-1.576 h -2.514 v 4.903 h 1.085 z"
   id="path28"
   style="stroke:none;fill-opacity:1;fill:#0c1218" /><path
   class="st0"
   d="m 124.45462,246.842 c 0.588,0 0.771,0.196 0.771,0.75 v 0.07 c 0,0.54 -0.168,0.75 -0.764,0.75 h -1.261 v -1.569 h 1.254 z m -1.254,2.458 h 1.429 c 1.198,0 1.681,-0.498 1.681,-1.562 v -0.21 c 0,-1.156 -0.483,-1.576 -1.681,-1.576 h -2.514 v 4.903 h 1.085 z m -5.005,0.679 c -0.973,0 -1.176,-0.539 -1.176,-1.429 v -0.294 c 0,-0.889 0.203,-1.429 1.176,-1.429 h 0.119 c 0.967,0 1.17,0.54 1.17,1.429 v 0.294 c 0,0.903 -0.203,1.415 -1.17,1.429 z m 0.106,0.946 c 1.576,0 2.283,-0.686 2.283,-2.304 v -0.427 c 0,-1.618 -0.708,-2.311 -2.283,-2.311 h -0.091 c -1.59,0 -2.29,0.693 -2.29,2.311 v 0.427 c 0,1.618 0.7,2.304 2.29,2.304 z m -6.216,-0.946 c -0.974,0 -1.177,-0.539 -1.177,-1.429 v -0.294 c 0,-0.889 0.203,-1.429 1.177,-1.429 h 0.119 c 0.967,0 1.17,0.54 1.17,1.429 v 0.294 c 0,0.903 -0.203,1.415 -1.17,1.429 z m 0.105,0.946 c 1.576,0 2.283,-0.686 2.283,-2.304 v -0.427 c 0,-1.618 -0.708,-2.311 -2.283,-2.311 h -0.091 c -1.59,0 -2.29,0.693 -2.29,2.311 v 0.427 c 0,1.618 0.7,2.304 2.29,2.304 z m -3.493,-1.008 h -2.325 v -3.964 h -1.085 v 4.903 h 3.411 v -0.939 z"
   id="path30"
   style="stroke:none;fill-opacity:1;fill:#0c1218" /><path
   class="st0"
   d="m 83.790621,316.167 h -2.325 v -3.964 h -1.085 v 4.903 h 3.411 v -0.939 z m -8.519,-3.026 h 1.513 v -0.938 h -4.097 v 0.938 h 1.492 v 3.964 h 1.093 v -3.964 z m -5.929,4.034 c 1.513,0 2.094,-0.518 2.094,-2.031 v -2.942 h -1.106 v 2.879 c 0,0.847 -0.238,1.121 -0.96,1.121 h -0.154 c -0.722,0 -0.959,-0.266 -0.959,-1.121 v -2.879 h -1.107 v 2.942 c 0,1.513 0.575,2.031 2.094,2.031 z m -6.041,-0.946 c -0.974,0 -1.177,-0.539 -1.177,-1.429 v -0.294 c 0,-0.889 0.203,-1.429 1.177,-1.429 h 0.119 c 0.967,0 1.17,0.54 1.17,1.429 v 0.294 c 0,0.903 -0.203,1.415 -1.17,1.429 z m 0.105,0.946 c 1.576,0 2.283,-0.686 2.283,-2.304 v -0.427 c 0,-1.618 -0.708,-2.311 -2.283,-2.311 h -0.091 c -1.59,0 -2.29,0.693 -2.29,2.311 v 0.427 c 0,1.618 0.7,2.304 2.29,2.304 z"
   id="path32"
   style="stroke:none;fill-opacity:1;fill:#0c1218" /><path
   class="st0"
   d="m 125.47862,313.106 c 0.616,0 0.812,0.154 0.812,0.651 v 0.042 c 0,0.469 -0.196,0.623 -0.701,0.623 h -1.324 v -1.316 z m -1.212,2.213 h 1.205 c 0.645,0 0.82,0.119 0.82,0.672 v 1.114 h 1.085 v -1.184 c 0,-0.854 -0.231,-1.03 -0.75,-1.114 v -0.049 c 0.525,-0.084 0.75,-0.406 0.75,-1.135 v -0.126 c 0,-0.953 -0.448,-1.296 -1.667,-1.296 h -2.528 v 4.903 h 1.085 z m -6.194,-2.178 h 1.513 v -0.938 h -4.097 v 0.938 h 1.492 v 3.964 h 1.093 v -3.964 z m -5.929,4.034 c 1.513,0 2.094,-0.518 2.094,-2.031 v -2.942 h -1.106 v 2.879 c 0,0.847 -0.238,1.121 -0.96,1.121 h -0.154 c -0.722,0 -0.959,-0.266 -0.959,-1.121 v -2.879 h -1.107 v 2.942 c 0,1.513 0.575,2.031 2.094,2.031 z m -6.041,-0.946 c -0.974,0 -1.177,-0.539 -1.177,-1.429 v -0.294 c 0,-0.889 0.203,-1.429 1.177,-1.429 h 0.119 c 0.967,0 1.17,0.54 1.17,1.429 v 0.294 c 0,0.903 -0.203,1.415 -1.17,1.429 z m 0.105,0.946 c 1.576,0 2.283,-0.686 2.283,-2.304 v -0.427 c 0,-1.618 -0.708,-2.311 -2.283,-2.311 h -0.091 c -1.59,0 -2.29,0.693 -2.29,2.311 v 0.427 c 0,1.618 0.7,2.304 2.29,2.304 z"
   id="path34"
   style="stroke:none;fill-opacity:1;fill:#0c1218" /><path
   class="st0"
   d="m 61.688621,38.065 h 68.780999 c 1.498,0 2.851,0.606 3.833,1.588 0.981,0.982 1.587,2.335 1.588,3.833 v 66.67 c 0,1.498 -0.606,2.851 -1.588,3.833 -0.982,0.981 -2.335,1.587 -3.833,1.588 H 13.946621 c -1.498,0 -2.851,-0.606 -3.833,-1.588 -0.9810001,-0.982 -1.5870001,-2.335 -1.5880001,-3.833 v -66.67 c 0,-1.498 0.606,-2.851 1.5880001,-3.833 0.982,-0.981 2.335,-1.587 3.833,-1.588 h 17.293 c 0.137,0 0.249,-0.111 0.249,-0.249 0,-0.137 -0.111,-0.249 -0.249,-0.249 h -17.293 c -3.269,0 -5.9180001,2.65 -5.9180001,5.918 v 66.67 c 0,3.269 2.6500001,5.918 5.9180001,5.918 H 130.46962 c 3.269,0 5.918,-2.65 5.918,-5.918 v -66.67 c 0,-3.269 -2.65,-5.918 -5.918,-5.918 H 61.688621 c -0.137,0 -0.249,0.111 -0.249,0.249 10e-4,0.137 0.112,0.249 0.249,0.249 z"
   id="path36"
   style="stroke:none;fill-opacity:1;fill:#0c1218" /><polyline
   class="st0"
   points="5.386,18.956 138.614,18.956 138.614,18.458 5.386,18.458  "
   id="polyline38"
   transform="translate(0.20862086)"
   style="stroke:none;fill-opacity:1;fill:#0c1218" /><path
   class="st0"
   d="m 138.25762,5.294 v 8.018 h -31.646 V 5.294 h 31.646 m 0.5,-0.499 h -0.5 -31.646 -0.5 v 0.5 8.018 0.5 h 0.5 31.646 0.5 v -0.5 -8.019 z"
   id="path40"
   style="stroke:none;fill-opacity:1;fill:#0c1218" /><path
   class="st0"
   d="m 133.85462,10.474 0.323,-0.558 h 0.031 l 0.689,1.697 h 0.87 l -1.02,-2.489 0.989,-1.709 h -0.863 l -0.996,1.859 h -0.023 V 7.415 h -0.768 v 4.198 h 0.768 z m -1.862,-3.059 h -0.707 v 2.836 h -0.03 l -0.923,-2.836 h -1.014 v 4.198 h 0.707 V 8.776 h 0.03 l 0.924,2.836 h 1.013 z m -5.051,0.804 0.336,1.829 h -0.702 l 0.336,-1.829 z m 0.564,-0.804 h -1.133 l -0.894,4.198 h 0.797 l 0.168,-0.899 h 0.966 l 0.174,0.899 h 0.815 z m -4.085,2.345 c 0.324,0 0.45,0.042 0.45,0.54 v 0.12 c 0,0.492 -0.126,0.552 -0.45,0.552 h -0.443 V 9.76 Z m 0,-1.697 c 0.312,0 0.432,0.06 0.432,0.545 v 0.024 c 0,0.48 -0.12,0.528 -0.42,0.528 h -0.455 V 8.063 Z m 1.218,2.344 c 0,-0.629 -0.162,-0.887 -0.516,-0.959 v -0.03 c 0.329,-0.072 0.497,-0.336 0.497,-0.87 V 8.506 c 0,-0.905 -0.329,-1.091 -1.127,-1.091 h -1.283 v 4.198 h 1.307 c 0.786,0 1.122,-0.198 1.122,-1.115 z m -4.825,-2.992 h -0.798 l -0.611,3.322 h -0.03 l -0.611,-3.322 h -0.821 l 0.894,4.198 h 1.085 z m -4.679,0.804 0.336,1.829 h -0.702 l 0.336,-1.829 z m 0.563,-0.804 h -1.133 l -0.894,4.198 h 0.797 l 0.168,-0.899 h 0.966 l 0.174,0.899 h 0.815 z m -2.478,0 h -0.768 l -0.384,3.274 h -0.036 l -0.521,-3.274 h -0.816 l -0.527,3.274 h -0.03 l -0.384,-3.274 h -0.797 l 0.636,4.198 h 1.037 l 0.474,-2.729 0.456,2.729 h 1.031 z"
   id="path42"
   style="stroke:none;fill-opacity:1;fill:#0c1218" /><path
   class="st0"
   d="m 61.453621,4.352 -6.214,-0.496 c -0.115,-0.009 -0.216,0.074 -0.229,0.189 l -0.252,2.175 1.058,0.32 -1.834,2.955 -1.833,-2.955 1.058,-0.32 -0.254,-2.176 c -0.013,-0.115 -0.115,-0.198 -0.229,-0.189 l -6.23,0.497 c -0.196,0.016 -0.364,0.148 -0.425,0.336 l -1.043,3.223 c -0.053,0.163 -0.017,0.342 0.095,0.471 l 5.492,6.364 c 0.092,0.107 0.227,0.169 0.368,0.169 h 5.986 c 0.141,0 0.276,-0.062 0.368,-0.169 l 5.494,-6.364 c 0.112,-0.13 0.148,-0.308 0.095,-0.471 l -1.046,-3.223 c -0.061,-0.188 -0.229,-0.321 -0.425,-0.336 z m -5.456,8.608 h -4.045 c -0.15,0 -0.293,-0.07 -0.385,-0.189 l -3.828,-4.953 c -0.083,-0.107 -0.118,-0.245 -0.096,-0.379 l 0.158,-0.97 c 0.023,-0.141 0.16,-0.232 0.298,-0.198 l 0.953,0.234 c 0.131,0.032 0.243,0.118 0.309,0.236 l 2.789,5.011 0.213,0.125 h 3.237 l 0.213,-0.126 2.772,-5.009 c 0.066,-0.119 0.179,-0.205 0.311,-0.238 l 0.952,-0.232 c 0.138,-0.034 0.275,0.057 0.298,0.198 l 0.159,0.967 c 0.022,0.134 -0.013,0.272 -0.096,0.379 l -3.829,4.953 c -0.091,0.121 -0.233,0.191 -0.383,0.191 z"
   id="path44"
   style="stroke:none;fill-opacity:1;fill:#0c1218" /><circle
   class="st0"
   cx="108.36962"
   cy="75.016998"
   r="2.4579999"
   id="circle46"
   style="stroke:none;fill-opacity:1;fill:#0c1218" /><path
   d="M 133.90462,229.601 H 10.512621 c -1.3310001,0 -2.4100001,-1.079 -2.4100001,-2.41 V 130.94 c 0,-1.331 1.079,-2.41 2.4100001,-2.41 H 133.90462 c 1.331,0 2.41,1.079 2.41,2.41 v 96.251 c 0,1.331 -1.079,2.41 -2.41,2.41"
   id="path48"
   style="stroke:none" /><path
   class="st1"
   d="m 136.31462,227.209 c 0,1.331 -1.079,2.41 -2.41,2.41 H 10.512621 c -1.3310001,0 -2.4100001,-1.079 -2.4100001,-2.41 v 0.583 c 0,1.331 1.079,2.41 2.4100001,2.41 H 133.90462 c 1.331,0 2.41,-1.079 2.41,-2.41 v -0.583"
   id="path50"
   style="stroke:none" /><path
   class="st2"
   d="M 133.62162,227.904 H 10.795621 c -0.504,0 -0.9120001,-0.409 -0.9120001,-0.912 v -95.72 c 0,-0.504 0.4090001,-0.912 0.9120001,-0.912 H 133.62062 c 0.504,0 0.912,0.409 0.912,0.912 v 95.72 c 0.001,0.504 -0.408,0.912 -0.911,0.912 z"
   id="path52"
   style="stroke:none;fill-opacity:1;fill:#1c2729" /><polyline
   class="st0"
   points="77.915,75.267 108.161,75.267 108.161,74.767 77.915,74.767  "
   id="polyline54"
   transform="translate(0.20862086)"
   style="stroke:none;fill-opacity:1;fill:#0c1218" />
</svg>
