<?xml version="1.0" encoding="UTF-8" standalone="no"?>
<!-- Generator: Adobe Illustrator 26.1.0, SVG Export Plug-In . SVG Version: 6.00 Build 0)  -->

<svg
   version="1.1"
   id="Ebene_2"
   x="0px"
   y="0px"
   width="101.6mm"
   height="128.5mm"
   viewBox="0 0 288 364.252"
   style="enable-background:new 0 0 288 364.252;"
   xml:space="preserve"
   sodipodi:docname="xy_panel.svg"
   inkscape:version="1.3.2 (091e20e, 2023-11-25, custom)"
   xmlns:inkscape="http://www.inkscape.org/namespaces/inkscape"
   xmlns:sodipodi="http://sodipodi.sourceforge.net/DTD/sodipodi-0.dtd"
   xmlns="http://www.w3.org/2000/svg"
   xmlns:svg="http://www.w3.org/2000/svg"><sodipodi:namedview
   id="namedview45"
   pagecolor="#ffffff"
   bordercolor="#666666"
   borderopacity="1.0"
   inkscape:pageshadow="2"
   inkscape:pageopacity="0.0"
   inkscape:pagecheckerboard="0"
   showgrid="false"
   inkscape:zoom="1.6947174"
   inkscape:cx="164.92425"
   inkscape:cy="195.60783"
   inkscape:window-width="3840"
   inkscape:window-height="2054"
   inkscape:window-x="2869"
   inkscape:window-y="-11"
   inkscape:window-maximized="1"
   inkscape:current-layer="Ebene_2"
   inkscape:document-units="mm"
   inkscape:showpageshadow="2"
   inkscape:deskcolor="#d1d1d1" /><rect
   x="0"
   y="0"
   width="288.0"
   height="364.25196850393706"
   style="fill:#e7e7e7;fill-opacity:1;opacity:1;stroke:none"
   inkscape:groupmode="layer"
   id="rect1" /><defs
   id="defs47">
	
	
	
	

	
	
	
	
	
	
	
	
	
	
</defs>
<style
   type="text/css"
   id="style2"><![CDATA[
.st0 {
  fill:#0c1218;
}
.st1 {
  opacity:0.15;
  fill:#FFFFFF;
}
.st2 {
  fill:#1C2729;
}
]]></style>
<path
   class="st0"
   d="m 21.45,339.847 c -2.793,-2.793 -4.188,-6.45 -4.188,-10.111 0,-3.66 1.395,-7.318 4.188,-10.11 0.117,-0.117 0.117,-0.307 0,-0.424 -0.117,-0.117 -0.307,-0.117 -0.424,0 -2.909,2.908 -4.364,6.723 -4.364,10.535 0,3.812 1.455,7.626 4.364,10.535 0.117,0.117 0.307,0.117 0.424,0 0.118,-0.118 0.118,-0.308 0,-0.425 z"
   id="path4"
   style="fill-opacity:1;fill:#0c1218;stroke:none" /><path
   class="st0"
   d="m 41.671,319.626 c 2.792,2.793 4.188,6.45 4.188,10.11 0,3.66 -1.395,7.318 -4.188,10.111 -0.117,0.117 -0.117,0.307 0,0.424 0.117,0.117 0.307,0.117 0.424,0 2.908,-2.908 4.364,-6.723 4.364,-10.535 0,-3.812 -1.455,-7.626 -4.364,-10.535 -0.117,-0.117 -0.307,-0.117 -0.424,0 -0.117,0.118 -0.117,0.308 0,0.425 z"
   id="path6"
   style="fill-opacity:1;fill:#0c1218;stroke:none" /><path
   class="st0"
   d="m 60.411,339.847 c -2.793,-2.793 -4.188,-6.45 -4.188,-10.111 0,-3.66 1.395,-7.318 4.188,-10.11 0.117,-0.117 0.117,-0.307 0,-0.424 -0.117,-0.117 -0.307,-0.117 -0.424,0 -2.909,2.908 -4.364,6.723 -4.364,10.535 0,3.812 1.455,7.626 4.364,10.535 0.117,0.117 0.307,0.117 0.424,0 0.118,-0.118 0.118,-0.308 0,-0.425 z"
   id="path8"
   style="fill-opacity:1;fill:#0c1218;stroke:none" /><path
   class="st0"
   d="m 80.632,319.626 c 2.793,2.793 4.188,6.45 4.188,10.11 0,3.66 -1.395,7.318 -4.188,10.111 -0.117,0.117 -0.117,0.307 0,0.424 0.117,0.117 0.307,0.117 0.424,0 2.908,-2.908 4.364,-6.723 4.364,-10.535 0,-3.812 -1.455,-7.626 -4.364,-10.535 -0.117,-0.117 -0.307,-0.117 -0.424,0 -0.117,0.118 -0.117,0.308 0,0.425 z"
   id="path10"
   style="fill-opacity:1;fill:#0c1218;stroke:none" />
<path
   class="st0"
   d="m 73.417,287.179 h 0.384 c 0.112,0 0.169,-0.067 0.169,-0.168 v -3.583 c 0,-0.101 0.067,-0.168 0.169,-0.168 h 1.015 c 0.102,0 0.181,0.067 0.181,0.168 v 3.583 c 0,0.101 0.068,0.168 0.169,0.168 h 0.373 c 0.112,0 0.169,-0.067 0.169,-0.168 v -8.086 c 0,-0.101 -0.068,-0.168 -0.169,-0.168 h -0.373 c -0.112,0 -0.169,0.067 -0.169,0.168 v 3.481 c 0,0.101 -0.079,0.168 -0.181,0.168 h -1.015 c -0.102,0 -0.169,-0.067 -0.169,-0.168 v -3.481 c 0,-0.101 -0.067,-0.168 -0.169,-0.168 h -0.384 c -0.112,0 -0.169,0.067 -0.169,0.168 v 8.086 c 0,0.101 0.067,0.168 0.169,0.168 z m -5.02,-1.639 c 0,1.033 0.462,1.696 1.33,1.696 0.88,0 1.342,-0.674 1.342,-1.696 v -0.887 c 0,-0.101 -0.067,-0.168 -0.169,-0.168 h -0.384 c -0.102,0 -0.169,0.067 -0.169,0.168 v 0.674 c 0,0.831 -0.146,1.224 -0.62,1.224 -0.474,0 -0.608,-0.393 -0.608,-1.224 v -4.717 c 0,-0.831 0.135,-1.224 0.608,-1.224 0.473,0 0.62,0.393 0.62,1.224 v 0.674 c 0,0.101 0.067,0.168 0.169,0.168 H 70.9 c 0.102,0 0.169,-0.067 0.169,-0.168 v -0.887 c 0,-1.022 -0.462,-1.696 -1.342,-1.696 -0.868,0 -1.33,0.663 -1.33,1.696 z m -4.085,-6.267 c 0,0.112 0.067,0.168 0.169,0.168 h 0.439 c 0.102,0 0.169,0.067 0.169,0.168 v 7.401 c 0,0.101 0.068,0.168 0.17,0.168 h 0.372 c 0.112,0 0.169,-0.067 0.169,-0.168 v -7.401 c 0,-0.101 0.067,-0.168 0.169,-0.168 h 0.462 c 0.102,0 0.17,-0.067 0.17,-0.168 v -0.348 c 0,-0.112 -0.068,-0.168 -0.17,-0.168 h -1.95 c -0.102,0 -0.169,0.067 -0.169,0.168 z m -2.459,7.906 h 0.384 c 0.112,0 0.169,-0.067 0.169,-0.168 v -8.086 c 0,-0.101 -0.067,-0.168 -0.169,-0.168 h -0.384 c -0.112,0 -0.169,0.067 -0.169,0.168 v 8.086 c 0,0.101 0.067,0.168 0.169,0.168 z m -4.062,-0.168 c 0,0.101 0.067,0.168 0.169,0.168 h 1.646 c 0.102,0 0.169,-0.067 0.169,-0.168 v -0.314 c 0,-0.101 -0.067,-0.168 -0.169,-0.168 h -0.925 c -0.102,0 -0.169,-0.067 -0.169,-0.168 v -7.435 c 0,-0.101 -0.067,-0.168 -0.169,-0.168 H 57.96 c -0.112,0 -0.169,0.067 -0.169,0.168 z m -4.874,-1.471 c 0,1.033 0.462,1.696 1.33,1.696 0.88,0 1.319,-0.674 1.319,-1.696 v -2.403 c 0,-0.101 -0.067,-0.168 -0.169,-0.168 h -0.981 c -0.102,0 -0.169,0.067 -0.169,0.168 v 0.337 c 0,0.112 0.067,0.168 0.169,0.168 h 0.282 c 0.102,0 0.169,0.067 0.169,0.168 v 1.516 c 0,0.831 -0.146,1.224 -0.62,1.224 -0.474,0 -0.608,-0.393 -0.608,-1.224 v -4.717 c 0,-0.831 0.135,-1.224 0.608,-1.224 0.473,0 0.62,0.393 0.62,1.224 v 0.674 c 0,0.101 0.067,0.168 0.169,0.168 h 0.361 c 0.102,0 0.169,-0.067 0.169,-0.168 v -0.887 c 0,-1.022 -0.439,-1.696 -1.319,-1.696 -0.868,0 -1.33,0.663 -1.33,1.696 z m -4.333,1.639 h 0.451 c 0.079,0 0.146,-0.067 0.169,-0.168 l 0.598,-2.684 h 0.091 l 0.586,2.684 c 0.022,0.101 0.102,0.168 0.181,0.168 h 0.439 c 0.079,0 0.136,-0.067 0.113,-0.168 l -0.97,-3.976 0.011,-0.135 0.959,-3.976 c 0.022,-0.101 -0.034,-0.168 -0.113,-0.168 H 50.66 c -0.079,0 -0.146,0.067 -0.169,0.168 l -0.598,2.695 h -0.091 l -0.598,-2.695 c -0.022,-0.101 -0.09,-0.168 -0.169,-0.168 h -0.451 c -0.067,0 -0.135,0.067 -0.112,0.168 l 0.97,3.976 v 0.135 l -0.97,3.976 c -0.023,0.101 0.045,0.168 0.112,0.168 z m -3.882,-1.853 v -4.717 c 0,-0.831 0.135,-1.224 0.609,-1.224 0.485,0 0.62,0.393 0.62,1.224 v 4.717 c 0,0.831 -0.135,1.224 -0.62,1.224 -0.474,0 -0.609,-0.393 -0.609,-1.224 z m -0.722,0.214 c 0,1.033 0.462,1.696 1.331,1.696 0.88,0 1.342,-0.663 1.342,-1.696 v -5.144 c 0,-1.033 -0.462,-1.696 -1.342,-1.696 -0.868,0 -1.331,0.663 -1.331,1.696 z m -3.362,1.639 h 0.406 c 0.113,0 0.169,-0.056 0.191,-0.213 l 1.128,-8.007 c 0.022,-0.168 -0.068,-0.202 -0.169,-0.202 h -0.35 c -0.124,0 -0.191,0.034 -0.203,0.18 l -0.744,6.098 h -0.113 l -0.745,-6.098 c -0.011,-0.146 -0.079,-0.18 -0.203,-0.18 h -0.35 c -0.102,0 -0.192,0.034 -0.169,0.202 l 1.128,8.007 c 0.024,0.157 0.08,0.213 0.193,0.213 z"
   id="path14"
   style="stroke:none;fill-opacity:1;fill:#0c1218" /><path
   class="st0"
   d="m 94.028,278.948 v 8.018 H 81.003 v -8.018 h 13.025 m 0,-0.5 H 81.003 c -0.276,0 -0.5,0.224 -0.5,0.5 v 8.018 c 0,0.276 0.224,0.5 0.5,0.5 h 13.025 c 0.276,0 0.5,-0.224 0.5,-0.5 v -8.018 c 0,-0.276 -0.224,-0.5 -0.5,-0.5 z"
   id="path16"
   style="stroke:none;fill-opacity:1;fill:#0c1218" /><path
   class="st0"
   d="M 91.417,283.425 92.4,280.9 h -0.768 l -0.558,1.721 H 91.045 L 90.493,280.9 h -0.828 l 0.978,2.537 v 1.661 h 0.773 v -1.673 z m -6.672,-0.474 0.834,-2.051 h -0.81 l -0.516,1.451 h -0.03 l -0.51,-1.451 h -0.852 l 0.821,2.045 -0.863,2.153 h 0.815 l 0.552,-1.559 h 0.024 l 0.539,1.559 h 0.864 z"
   id="path18"
   style="stroke:none;fill-opacity:1;fill:#0c1218" /><polyline
   class="st0"
   points="86.701,286.193 88.738,279.875 88.262,279.721 86.225,286.04  "
   id="polyline20" /><path
   class="st0"
   d="m 34.875,278.018 -6.214,-0.496 c -0.115,-0.009 -0.216,0.074 -0.229,0.189 l -0.252,2.174 1.058,0.32 -1.834,2.955 -1.834,-2.955 1.058,-0.32 -0.254,-2.176 c -0.013,-0.115 -0.115,-0.198 -0.229,-0.189 l -6.23,0.497 c -0.196,0.016 -0.364,0.148 -0.425,0.336 l -1.043,3.223 c -0.053,0.163 -0.017,0.342 0.095,0.471 l 5.492,6.364 c 0.092,0.107 0.227,0.169 0.368,0.169 h 5.986 c 0.141,0 0.276,-0.062 0.368,-0.169 l 5.494,-6.364 c 0.112,-0.13 0.148,-0.308 0.095,-0.471 l -1.046,-3.222 c -0.06,-0.188 -0.228,-0.321 -0.424,-0.336 z m -5.456,8.607 h -4.045 c -0.151,0 -0.293,-0.07 -0.385,-0.189 l -3.828,-4.953 c -0.083,-0.107 -0.118,-0.245 -0.096,-0.379 l 0.158,-0.97 c 0.023,-0.141 0.16,-0.232 0.298,-0.198 l 0.953,0.234 c 0.131,0.032 0.243,0.118 0.309,0.236 l 2.789,5.011 0.213,0.125 h 3.237 l 0.213,-0.126 2.772,-5.009 c 0.066,-0.119 0.179,-0.205 0.311,-0.238 l 0.952,-0.232 c 0.138,-0.034 0.275,0.057 0.298,0.198 l 0.159,0.967 c 0.022,0.134 -0.013,0.272 -0.096,0.379 l -3.829,4.953 c -0.091,0.122 -0.233,0.191 -0.383,0.191 z"
   id="path22"
   style="stroke:none;fill-opacity:1;fill:#0c1218" /><path
   class="st0"
   d="m 35.41,306.288 0.672,-0.679 h 0.049 l 1.463,2.157 h 1.324 l -2.01,-2.949 1.954,-1.954 h -1.359 l -2.052,2.087 H 35.41 v -2.087 h -1.085 v 4.903 h 1.085 z m -2.323,0.54 h -2.325 v -3.964 h -1.085 v 4.903 h 3.411 v -0.939 z m -6.902,1.008 c 1.345,0 1.94,-0.532 2.165,-1.646 h -1.114 c -0.14,0.504 -0.476,0.7 -1.085,0.7 H 26.06 c -0.974,0 -1.148,-0.539 -1.148,-1.429 v -0.294 c 0,-0.889 0.175,-1.429 1.148,-1.429 h 0.091 c 0.609,0 0.945,0.196 1.085,0.701 h 1.114 c -0.224,-1.114 -0.82,-1.646 -2.165,-1.646 h -0.161 c -1.583,0 -2.213,0.687 -2.213,2.304 v 0.434 c 0,1.618 0.63,2.304 2.213,2.304 h 0.161 z"
   id="path24"
   style="stroke:none;stroke-opacity:1;fill-opacity:1;fill:#0c1218" /><path
   class="st0"
   d="m 134.197,307.836 c 1.576,0 2.262,-0.686 2.262,-2.304 v -0.637 h -2.452 v 0.903 h 1.359 c 0,0.785 -0.238,1.1 -1.121,1.1 h -0.154 c -0.973,0 -1.176,-0.525 -1.176,-1.421 v -0.309 c 0,-0.889 0.203,-1.429 1.176,-1.429 h 0.119 c 0.588,0 0.938,0.168 1.058,0.553 h 1.142 c -0.217,-1.057 -0.952,-1.499 -2.213,-1.499 h -0.091 c -1.59,0 -2.29,0.693 -2.29,2.311 v 0.427 c 0,1.618 0.7,2.304 2.29,2.304 h 0.091 z m -3.766,-4.973 h -1.085 v 4.903 h 1.085 z m -4.395,0.904 c 0.616,0 0.812,0.154 0.812,0.651 v 0.042 c 0,0.469 -0.196,0.623 -0.701,0.623 h -1.324 v -1.316 z m -1.212,2.213 h 1.205 c 0.645,0 0.82,0.119 0.82,0.672 v 1.114 h 1.085 v -1.184 c 0,-0.854 -0.231,-1.03 -0.75,-1.114 v -0.049 c 0.525,-0.084 0.75,-0.406 0.75,-1.135 v -0.126 c 0,-0.953 -0.448,-1.296 -1.667,-1.296 h -2.528 v 4.903 h 1.085 z m -3.787,-2.178 h 1.513 v -0.938 h -4.097 v 0.938 h 1.492 v 3.964 h 1.093 v -3.964 z m -3.681,3.053 h -2.563 v -1.092 h 2.563 v -0.904 h -2.563 v -1.085 h 2.563 v -0.911 h -3.649 v 4.903 h 3.649 z m -6.959,-3.088 c 0.616,0 0.812,0.154 0.812,0.651 v 0.042 c 0,0.469 -0.196,0.623 -0.701,0.623 h -1.324 v -1.316 z m -1.211,2.213 h 1.205 c 0.645,0 0.82,0.119 0.82,0.672 v 1.114 h 1.085 v -1.184 c 0,-0.854 -0.231,-1.03 -0.75,-1.114 v -0.049 c 0.525,-0.084 0.75,-0.406 0.75,-1.135 v -0.126 c 0,-0.953 -0.448,-1.296 -1.667,-1.296 H 108.1 v 4.903 h 1.085 v -1.785 z"
   id="path26"
   style="fill-opacity:1;fill:#0c1218;stroke:none" /><path
   class="st0"
   d="m 178.716,302.863 h -1.093 v 1.975 h -2.262 v -1.975 h -1.085 v 4.903 h 1.085 v -1.989 h 2.262 v 1.989 h 1.093 z m -7.932,4.973 c 1.345,0 1.94,-0.532 2.165,-1.646 h -1.114 c -0.14,0.504 -0.477,0.7 -1.085,0.7 h -0.091 c -0.974,0 -1.148,-0.539 -1.148,-1.429 v -0.294 c 0,-0.889 0.175,-1.429 1.148,-1.429 h 0.091 c 0.609,0 0.945,0.196 1.085,0.701 h 1.114 c -0.224,-1.114 -0.82,-1.646 -2.165,-1.646 h -0.161 c -1.583,0 -2.213,0.687 -2.213,2.304 v 0.434 c 0,1.618 0.63,2.304 2.213,2.304 h 0.161 z m -3.758,-4.973 h -1.071 v 3.726 h -0.042 l -1.919,-3.726 h -1.681 v 4.903 h 1.072 v -3.719 h 0.042 l 1.926,3.719 h 1.674 v -4.903 z m -8.198,4.973 c 1.513,0 2.094,-0.518 2.094,-2.031 v -2.942 h -1.106 v 2.879 c 0,0.847 -0.238,1.121 -0.96,1.121 h -0.154 c -0.722,0 -0.959,-0.266 -0.959,-1.121 v -2.879 h -1.107 v 2.942 c 0,1.513 0.575,2.031 2.094,2.031 z m -5.201,-4.083 c 0.588,0 0.771,0.196 0.771,0.75 v 0.07 c 0,0.54 -0.168,0.75 -0.764,0.75 h -1.261 v -1.569 h 1.254 z m -1.253,2.458 h 1.429 c 1.198,0 1.681,-0.498 1.681,-1.562 v -0.21 c 0,-1.156 -0.483,-1.576 -1.681,-1.576 h -2.514 v 4.903 h 1.085 z"
   id="path28"
   style="fill-opacity:1;fill:#0c1218;stroke:none" /><polygon
   class="st0"
   points="224.314,302.863 222.689,304.306 222.633,304.306 221.057,302.863 218.697,302.863 221.442,305.231 218.508,307.766 220.735,307.766 222.521,306.169 222.584,306.169 224.328,307.766 226.716,307.766 223.796,305.252 226.576,302.863 "
   id="polygon30"
   style="fill-opacity:1;fill:#0c1218;stroke:none" /><polygon
   class="st0"
   points="261.229,302.863 259.597,304.517 259.541,304.517 257.909,302.863 255.766,302.863 258.588,305.637 258.588,307.766 260.325,307.766 260.325,305.63 263.147,302.863 "
   id="polygon32"
   style="fill-opacity:1;fill:#0c1218;stroke:none" />
<path
   class="st0"
   d="M63.408,303.524h-0.521v1.449h0.556c0.345,0,0.485-0.07,0.485-0.651v-0.14  C63.929,303.594,63.78,303.524,63.408,303.524z M79.462,300.77H61.671c-2.372,0-4.295,1.923-4.295,4.295v0  c0,2.372,1.923,4.295,4.295,4.295h17.791c2.372,0,4.295-1.923,4.295-4.295v0C83.757,302.693,81.834,300.77,79.462,300.77z   M64.829,304.161c0,0.792-0.19,1.009-0.57,1.106v0.035c0.38,0.084,0.57,0.238,0.57,1.121v1.246h-0.9v-1.303  c0-0.602-0.134-0.672-0.514-0.672h-0.527v1.975h-0.9v-4.902h1.512c0.936,0,1.33,0.21,1.33,1.303V304.161z M68.359,303.552h-1.386  v1.268h1.386v0.792h-1.386v1.274h1.386v0.784h-2.286v-4.902h2.286V303.552z M72.283,306.29c0,1.121-0.464,1.45-1.364,1.45h-0.07  c-0.443,0-0.788-0.098-1.02-0.301c-0.232-0.203-0.359-0.575-0.38-1.1h0.921c0.028,0.553,0.211,0.658,0.514,0.658  c0.358,0,0.499-0.134,0.499-0.631v-0.119c0-0.44-0.091-0.581-0.492-0.637l-0.352-0.042c-0.773-0.099-1.062-0.421-1.062-1.352v-0.077  c0-1.093,0.408-1.443,1.337-1.443h0.084c0.887,0,1.337,0.351,1.365,1.443h-0.915c-0.027-0.582-0.168-0.693-0.499-0.693  c-0.338,0-0.464,0.14-0.464,0.623v0.098c0,0.428,0.091,0.582,0.492,0.631l0.352,0.042c0.773,0.098,1.055,0.42,1.055,1.352V306.29z   M75.729,303.552h-1.386v1.268h1.386v0.792h-1.386v1.274h1.386v0.784h-2.286v-4.902h2.286V303.552z M79.422,303.566h-0.914v4.104  H77.6v-4.104h-0.893v-0.799h2.715V303.566z"
   id="path36"
   style="fill-opacity:1;fill:#0c1218;stroke:none" />
<path
   d="M268.818,270.393h-249.4c-1.331,0-2.41-1.079-2.41-2.41V19.418c0-1.331,1.079-2.41,2.41-2.41h249.4  c1.331,0,2.41,1.079,2.41,2.41v248.565C271.228,269.314,270.149,270.393,268.818,270.393z"
   id="path38" />
<path
   class="st1"
   d="M268.818,270.411h-249.4c-1.331,0-2.41-1.079-2.41-2.41v0.583c0,1.331,1.079,2.41,2.41,2.41h249.4  c1.331,0,2.41-1.079,2.41-2.41v-0.583C271.228,269.332,270.149,270.411,268.818,270.411z"
   id="path40" />
<path
   class="st2"
   d="M268.534,268.696H19.701c-0.504,0-0.912-0.409-0.912-0.912V19.749c0-0.504,0.409-0.912,0.912-0.912h248.833  c0.504,0,0.912,0.409,0.912,0.912v248.034C269.447,268.288,269.038,268.696,268.534,268.696z"
   id="path42"
   style="stroke:none;fill:#1c2729;fill-opacity:1" />
</svg>
