<?xml version="1.0" encoding="utf-8"?>
<!-- Generator: Adobe Illustrator 26.1.0, SVG Export Plug-In . SVG Version: 6.00 Build 0)  -->
<svg version="1.1" id="Ebene_2" xmlns="http://www.w3.org/2000/svg" xmlns:xlink="http://www.w3.org/1999/xlink" x="0px" y="0px"
	 viewBox="0 0 288 364.252" style="enable-background:new 0 0 288 364.252;" xml:space="preserve">
<style type="text/css">
	.st0{fill:#F3EDE7;}
	.st1{opacity:0.15;fill:#FFFFFF;}
	.st2{fill:#1C2729;}
</style>
<g>
	<path class="st0" d="M21.45,339.847c-2.793-2.793-4.188-6.45-4.188-10.111c0-3.66,1.395-7.318,4.188-10.11
		c0.117-0.117,0.117-0.307,0-0.424c-0.117-0.117-0.307-0.117-0.424,0c-2.909,2.908-4.364,6.723-4.364,10.535
		c0,3.812,1.455,7.626,4.364,10.535c0.117,0.117,0.307,0.117,0.424,0C21.568,340.154,21.568,339.964,21.45,339.847L21.45,339.847z"
		/>
	<path class="st0" d="M41.671,319.626c2.792,2.793,4.188,6.45,4.188,10.11c0,3.66-1.395,7.318-4.188,10.111
		c-0.117,0.117-0.117,0.307,0,0.424c0.117,0.117,0.307,0.117,0.424,0c2.908-2.908,4.364-6.723,4.364-10.535
		c0-3.812-1.455-7.626-4.364-10.535c-0.117-0.117-0.307-0.117-0.424,0C41.554,319.319,41.554,319.509,41.671,319.626L41.671,319.626
		z"/>
	<path class="st0" d="M60.411,339.847c-2.793-2.793-4.188-6.45-4.188-10.111c0-3.66,1.395-7.318,4.188-10.11
		c0.117-0.117,0.117-0.307,0-0.424c-0.117-0.117-0.307-0.117-0.424,0c-2.909,2.908-4.364,6.723-4.364,10.535
		c0,3.812,1.455,7.626,4.364,10.535c0.117,0.117,0.307,0.117,0.424,0C60.529,340.154,60.529,339.964,60.411,339.847L60.411,339.847z
		"/>
	<path class="st0" d="M80.632,319.626c2.793,2.793,4.188,6.45,4.188,10.11c0,3.66-1.395,7.318-4.188,10.111
		c-0.117,0.117-0.117,0.307,0,0.424c0.117,0.117,0.307,0.117,0.424,0c2.908-2.908,4.364-6.723,4.364-10.535
		c0-3.812-1.455-7.626-4.364-10.535c-0.117-0.117-0.307-0.117-0.424,0C80.515,319.319,80.515,319.509,80.632,319.626L80.632,319.626
		z"/>
</g>
<g>
	<path class="st0" d="M73.417,287.179h0.384c0.112,0,0.169-0.067,0.169-0.168v-3.583c0-0.101,0.067-0.168,0.169-0.168h1.015
		c0.102,0,0.181,0.067,0.181,0.168v3.583c0,0.101,0.068,0.168,0.169,0.168h0.373c0.112,0,0.169-0.067,0.169-0.168v-8.086
		c0-0.101-0.068-0.168-0.169-0.168h-0.373c-0.112,0-0.169,0.067-0.169,0.168v3.481c0,0.101-0.079,0.168-0.181,0.168h-1.015
		c-0.102,0-0.169-0.067-0.169-0.168v-3.481c0-0.101-0.067-0.168-0.169-0.168h-0.384c-0.112,0-0.169,0.067-0.169,0.168v8.086
		C73.248,287.112,73.315,287.179,73.417,287.179z M68.397,285.54c0,1.033,0.462,1.696,1.33,1.696c0.88,0,1.342-0.674,1.342-1.696
		v-0.887c0-0.101-0.067-0.168-0.169-0.168h-0.384c-0.102,0-0.169,0.067-0.169,0.168v0.674c0,0.831-0.146,1.224-0.62,1.224
		s-0.608-0.393-0.608-1.224v-4.717c0-0.831,0.135-1.224,0.608-1.224s0.62,0.393,0.62,1.224v0.674c0,0.101,0.067,0.168,0.169,0.168
		H70.9c0.102,0,0.169-0.067,0.169-0.168v-0.887c0-1.022-0.462-1.696-1.342-1.696c-0.868,0-1.33,0.663-1.33,1.696V285.54z
		 M64.312,279.273c0,0.112,0.067,0.168,0.169,0.168h0.439c0.102,0,0.169,0.067,0.169,0.168v7.401c0,0.101,0.068,0.168,0.17,0.168
		h0.372c0.112,0,0.169-0.067,0.169-0.168v-7.401c0-0.101,0.067-0.168,0.169-0.168h0.462c0.102,0,0.17-0.067,0.17-0.168v-0.348
		c0-0.112-0.068-0.168-0.17-0.168h-1.95c-0.102,0-0.169,0.067-0.169,0.168V279.273z M61.853,287.179h0.384
		c0.112,0,0.169-0.067,0.169-0.168v-8.086c0-0.101-0.067-0.168-0.169-0.168h-0.384c-0.112,0-0.169,0.067-0.169,0.168v8.086
		C61.684,287.112,61.751,287.179,61.853,287.179z M57.791,287.011c0,0.101,0.067,0.168,0.169,0.168h1.646
		c0.102,0,0.169-0.067,0.169-0.168v-0.314c0-0.101-0.067-0.168-0.169-0.168h-0.925c-0.102,0-0.169-0.067-0.169-0.168v-7.435
		c0-0.101-0.067-0.168-0.169-0.168H57.96c-0.112,0-0.169,0.067-0.169,0.168V287.011z M52.917,285.54c0,1.033,0.462,1.696,1.33,1.696
		c0.88,0,1.319-0.674,1.319-1.696v-2.403c0-0.101-0.067-0.168-0.169-0.168h-0.981c-0.102,0-0.169,0.067-0.169,0.168v0.337
		c0,0.112,0.067,0.168,0.169,0.168h0.282c0.102,0,0.169,0.067,0.169,0.168v1.516c0,0.831-0.146,1.224-0.62,1.224
		s-0.608-0.393-0.608-1.224v-4.717c0-0.831,0.135-1.224,0.608-1.224s0.62,0.393,0.62,1.224v0.674c0,0.101,0.067,0.168,0.169,0.168
		h0.361c0.102,0,0.169-0.067,0.169-0.168v-0.887c0-1.022-0.439-1.696-1.319-1.696c-0.868,0-1.33,0.663-1.33,1.696V285.54z
		 M48.584,287.179h0.451c0.079,0,0.146-0.067,0.169-0.168l0.598-2.684h0.091l0.586,2.684c0.022,0.101,0.102,0.168,0.181,0.168h0.439
		c0.079,0,0.136-0.067,0.113-0.168l-0.97-3.976l0.011-0.135l0.959-3.976c0.022-0.101-0.034-0.168-0.113-0.168h-0.439
		c-0.079,0-0.146,0.067-0.169,0.168l-0.598,2.695h-0.091l-0.598-2.695c-0.022-0.101-0.09-0.168-0.169-0.168h-0.451
		c-0.067,0-0.135,0.067-0.112,0.168l0.97,3.976v0.135l-0.97,3.976C48.449,287.112,48.517,287.179,48.584,287.179z M44.702,285.326
		v-4.717c0-0.831,0.135-1.224,0.609-1.224c0.485,0,0.62,0.393,0.62,1.224v4.717c0,0.831-0.135,1.224-0.62,1.224
		C44.837,286.55,44.702,286.157,44.702,285.326z M43.98,285.54c0,1.033,0.462,1.696,1.331,1.696c0.88,0,1.342-0.663,1.342-1.696
		v-5.144c0-1.033-0.462-1.696-1.342-1.696c-0.868,0-1.331,0.663-1.331,1.696V285.54z M40.618,287.179h0.406
		c0.113,0,0.169-0.056,0.191-0.213l1.128-8.007c0.022-0.168-0.068-0.202-0.169-0.202h-0.35c-0.124,0-0.191,0.034-0.203,0.18
		l-0.744,6.098h-0.113l-0.745-6.098c-0.011-0.146-0.079-0.18-0.203-0.18h-0.35c-0.102,0-0.192,0.034-0.169,0.202l1.128,8.007
		C40.449,287.123,40.505,287.179,40.618,287.179z"/>
	<path class="st0" d="M94.028,278.948v8.018H81.003v-8.018H94.028 M94.028,278.448H81.003c-0.276,0-0.5,0.224-0.5,0.5v8.018
		c0,0.276,0.224,0.5,0.5,0.5h13.025c0.276,0,0.5-0.224,0.5-0.5v-8.018C94.528,278.672,94.304,278.448,94.028,278.448z"/>
	<path class="st0" d="M91.417,283.425L92.4,280.9h-0.768l-0.558,1.721h-0.029l-0.552-1.721h-0.828l0.978,2.537v1.661h0.773V283.425z
		 M84.745,282.951l0.834-2.051h-0.81l-0.516,1.451h-0.03l-0.51-1.451h-0.852l0.821,2.045l-0.863,2.153h0.815l0.552-1.559h0.024
		l0.539,1.559h0.864L84.745,282.951z"/>
	<polyline class="st0" points="86.701,286.193 88.738,279.875 88.262,279.721 86.225,286.04 	"/>
	<path class="st0" d="M34.875,278.018l-6.214-0.496c-0.115-0.009-0.216,0.074-0.229,0.189l-0.252,2.174l1.058,0.32l-1.834,2.955
		l-1.834-2.955l1.058-0.32l-0.254-2.176c-0.013-0.115-0.115-0.198-0.229-0.189l-6.23,0.497c-0.196,0.016-0.364,0.148-0.425,0.336
		l-1.043,3.223c-0.053,0.163-0.017,0.342,0.095,0.471l5.492,6.364c0.092,0.107,0.227,0.169,0.368,0.169h5.986
		c0.141,0,0.276-0.062,0.368-0.169l5.494-6.364c0.112-0.13,0.148-0.308,0.095-0.471l-1.046-3.222
		C35.239,278.166,35.071,278.033,34.875,278.018z M29.419,286.625h-4.045c-0.151,0-0.293-0.07-0.385-0.189l-3.828-4.953
		c-0.083-0.107-0.118-0.245-0.096-0.379l0.158-0.97c0.023-0.141,0.16-0.232,0.298-0.198l0.953,0.234
		c0.131,0.032,0.243,0.118,0.309,0.236l2.789,5.011l0.213,0.125h3.237l0.213-0.126l2.772-5.009c0.066-0.119,0.179-0.205,0.311-0.238
		l0.952-0.232c0.138-0.034,0.275,0.057,0.298,0.198l0.159,0.967c0.022,0.134-0.013,0.272-0.096,0.379l-3.829,4.953
		C29.711,286.556,29.569,286.625,29.419,286.625z"/>
	<path class="st0" d="M35.41,306.288l0.672-0.679h0.049l1.463,2.157h1.324l-2.01-2.949l1.954-1.954h-1.359l-2.052,2.087H35.41
		v-2.087h-1.085v4.903h1.085V306.288z M33.087,306.828h-2.325v-3.964h-1.085v4.903h3.411V306.828z M26.185,307.836
		c1.345,0,1.94-0.532,2.165-1.646h-1.114c-0.14,0.504-0.476,0.7-1.085,0.7h-0.091c-0.974,0-1.148-0.539-1.148-1.429v-0.294
		c0-0.889,0.175-1.429,1.148-1.429h0.091c0.609,0,0.945,0.196,1.085,0.701h1.114c-0.224-1.114-0.82-1.646-2.165-1.646h-0.161
		c-1.583,0-2.213,0.687-2.213,2.304v0.434c0,1.618,0.63,2.304,2.213,2.304H26.185z"/>
	<path class="st0" d="M134.197,307.836c1.576,0,2.262-0.686,2.262-2.304v-0.637h-2.452v0.903h1.359c0,0.785-0.238,1.1-1.121,1.1
		h-0.154c-0.973,0-1.176-0.525-1.176-1.421v-0.309c0-0.889,0.203-1.429,1.176-1.429h0.119c0.588,0,0.938,0.168,1.058,0.553h1.142
		c-0.217-1.057-0.952-1.499-2.213-1.499h-0.091c-1.59,0-2.29,0.693-2.29,2.311v0.427c0,1.618,0.7,2.304,2.29,2.304H134.197z
		 M130.431,302.863h-1.085v4.903h1.085V302.863z M126.036,303.767c0.616,0,0.812,0.154,0.812,0.651v0.042
		c0,0.469-0.196,0.623-0.701,0.623h-1.324v-1.316H126.036z M124.824,305.98h1.205c0.645,0,0.82,0.119,0.82,0.672v1.114h1.085v-1.184
		c0-0.854-0.231-1.03-0.75-1.114v-0.049c0.525-0.084,0.75-0.406,0.75-1.135v-0.126c0-0.953-0.448-1.296-1.667-1.296h-2.528v4.903
		h1.085V305.98z M121.037,303.802h1.513v-0.938h-4.097v0.938h1.492v3.964h1.093V303.802z M117.356,306.855h-2.563v-1.092h2.563
		v-0.904h-2.563v-1.085h2.563v-0.911h-3.649v4.903h3.649V306.855z M110.397,303.767c0.616,0,0.812,0.154,0.812,0.651v0.042
		c0,0.469-0.196,0.623-0.701,0.623h-1.324v-1.316H110.397z M109.186,305.98h1.205c0.645,0,0.82,0.119,0.82,0.672v1.114h1.085v-1.184
		c0-0.854-0.231-1.03-0.75-1.114v-0.049c0.525-0.084,0.75-0.406,0.75-1.135v-0.126c0-0.953-0.448-1.296-1.667-1.296H108.1v4.903
		h1.085V305.98z"/>
	<path class="st0" d="M178.716,302.863h-1.093v1.975h-2.262v-1.975h-1.085v4.903h1.085v-1.989h2.262v1.989h1.093V302.863z
		 M170.784,307.836c1.345,0,1.94-0.532,2.165-1.646h-1.114c-0.14,0.504-0.477,0.7-1.085,0.7h-0.091
		c-0.974,0-1.148-0.539-1.148-1.429v-0.294c0-0.889,0.175-1.429,1.148-1.429h0.091c0.609,0,0.945,0.196,1.085,0.701h1.114
		c-0.224-1.114-0.82-1.646-2.165-1.646h-0.161c-1.583,0-2.213,0.687-2.213,2.304v0.434c0,1.618,0.63,2.304,2.213,2.304H170.784z
		 M167.026,302.863h-1.071v3.726h-0.042l-1.919-3.726h-1.681v4.903h1.072v-3.719h0.042l1.926,3.719h1.674V302.863z M158.828,307.836
		c1.513,0,2.094-0.518,2.094-2.031v-2.942h-1.106v2.879c0,0.847-0.238,1.121-0.96,1.121h-0.154c-0.722,0-0.959-0.266-0.959-1.121
		v-2.879h-1.107v2.942c0,1.513,0.575,2.031,2.094,2.031H158.828z M153.627,303.753c0.588,0,0.771,0.196,0.771,0.75v0.07
		c0,0.54-0.168,0.75-0.764,0.75h-1.261v-1.569H153.627z M152.374,306.211h1.429c1.198,0,1.681-0.498,1.681-1.562v-0.21
		c0-1.156-0.483-1.576-1.681-1.576h-2.514v4.903h1.085V306.211z"/>
	<polygon class="st0" points="223.796,305.252 226.576,302.863 224.314,302.863 222.689,304.306 222.633,304.306 221.057,302.863 
		218.697,302.863 221.442,305.231 218.508,307.766 220.735,307.766 222.521,306.169 222.584,306.169 224.328,307.766 
		226.716,307.766 	"/>
	<polygon class="st0" points="260.325,305.63 263.147,302.863 261.229,302.863 259.597,304.517 259.541,304.517 257.909,302.863 
		255.766,302.863 258.588,305.637 258.588,307.766 260.325,307.766 	"/>
</g>
<path class="st0" d="M63.408,303.524h-0.521v1.449h0.556c0.345,0,0.485-0.07,0.485-0.651v-0.14
	C63.929,303.594,63.78,303.524,63.408,303.524z M79.462,300.77H61.671c-2.372,0-4.295,1.923-4.295,4.295v0
	c0,2.372,1.923,4.295,4.295,4.295h17.791c2.372,0,4.295-1.923,4.295-4.295v0C83.757,302.693,81.834,300.77,79.462,300.77z
	 M64.829,304.161c0,0.792-0.19,1.009-0.57,1.106v0.035c0.38,0.084,0.57,0.238,0.57,1.121v1.246h-0.9v-1.303
	c0-0.602-0.134-0.672-0.514-0.672h-0.527v1.975h-0.9v-4.902h1.512c0.936,0,1.33,0.21,1.33,1.303V304.161z M68.359,303.552h-1.386
	v1.268h1.386v0.792h-1.386v1.274h1.386v0.784h-2.286v-4.902h2.286V303.552z M72.283,306.29c0,1.121-0.464,1.45-1.364,1.45h-0.07
	c-0.443,0-0.788-0.098-1.02-0.301c-0.232-0.203-0.359-0.575-0.38-1.1h0.921c0.028,0.553,0.211,0.658,0.514,0.658
	c0.358,0,0.499-0.134,0.499-0.631v-0.119c0-0.44-0.091-0.581-0.492-0.637l-0.352-0.042c-0.773-0.099-1.062-0.421-1.062-1.352v-0.077
	c0-1.093,0.408-1.443,1.337-1.443h0.084c0.887,0,1.337,0.351,1.365,1.443h-0.915c-0.027-0.582-0.168-0.693-0.499-0.693
	c-0.338,0-0.464,0.14-0.464,0.623v0.098c0,0.428,0.091,0.582,0.492,0.631l0.352,0.042c0.773,0.098,1.055,0.42,1.055,1.352V306.29z
	 M75.729,303.552h-1.386v1.268h1.386v0.792h-1.386v1.274h1.386v0.784h-2.286v-4.902h2.286V303.552z M79.422,303.566h-0.914v4.104
	H77.6v-4.104h-0.893v-0.799h2.715V303.566z"/>
<path d="M268.818,270.393h-249.4c-1.331,0-2.41-1.079-2.41-2.41V19.418c0-1.331,1.079-2.41,2.41-2.41h249.4
	c1.331,0,2.41,1.079,2.41,2.41v248.565C271.228,269.314,270.149,270.393,268.818,270.393z"/>
<path class="st1" d="M268.818,270.411h-249.4c-1.331,0-2.41-1.079-2.41-2.41v0.583c0,1.331,1.079,2.41,2.41,2.41h249.4
	c1.331,0,2.41-1.079,2.41-2.41v-0.583C271.228,269.332,270.149,270.411,268.818,270.411z"/>
<path class="st2" d="M268.534,268.696H19.701c-0.504,0-0.912-0.409-0.912-0.912V19.749c0-0.504,0.409-0.912,0.912-0.912h248.833
	c0.504,0,0.912,0.409,0.912,0.912v248.034C269.447,268.288,269.038,268.696,268.534,268.696z"/>
</svg>
