<?xml version="1.0" encoding="UTF-8" standalone="no"?>
<!-- Generator: Adobe Illustrator 26.1.0, SVG Export Plug-In . SVG Version: 6.00 Build 0)  -->

<svg
   version="1.1"
   id="Ebene_2"
   x="0px"
   y="0px"
   width="30.48mm"
   height="128.5mm"
   viewBox="0 0 86.4 364.252"
   xml:space="preserve"
   sodipodi:docname="grain_engine_mk2_expander_panel-dark.svg"
   inkscape:version="1.3.2 (091e20e, 2023-11-25, custom)"
   xmlns:inkscape="http://www.inkscape.org/namespaces/inkscape"
   xmlns:sodipodi="http://sodipodi.sourceforge.net/DTD/sodipodi-0.dtd"
   xmlns="http://www.w3.org/2000/svg"
   xmlns:svg="http://www.w3.org/2000/svg"><defs
   id="defs95" /><sodipodi:namedview
   id="namedview93"
   pagecolor="#ffffff"
   bordercolor="#666666"
   borderopacity="1.0"
   inkscape:pageshadow="2"
   inkscape:pageopacity="0.0"
   inkscape:pagecheckerboard="0"
   showgrid="false"
   inkscape:zoom="4.7933846"
   inkscape:cx="-51.425041"
   inkscape:cy="305.31662"
   inkscape:window-width="3840"
   inkscape:window-height="2054"
   inkscape:window-x="2869"
   inkscape:window-y="-11"
   inkscape:window-maximized="1"
   inkscape:current-layer="Ebene_2"
   inkscape:showpageshadow="2"
   inkscape:deskcolor="#d1d1d1"
   inkscape:document-units="mm" />
<style
   type="text/css"
   id="style2">
	.st0{fill:#F3EDE7;}
	.st1{opacity:0.3;fill:#FBFAF8;}
</style>
<rect
   style="fill:#161517;fill-opacity:1;stroke-width:0.725672"
   id="rect350"
   width="86.400002"
   height="364.25198"
   x="0"
   y="2.8421709e-14" /><rect
   style="fill:#3e3e3e;fill-opacity:1;stroke:none;stroke-width:0.283464"
   id="rect2"
   width="78.160004"
   height="55.580612"
   x="4.1200004"
   y="-348.84885"
   rx="4.5000005"
   ry="4.5"
   transform="scale(1,-1)" /><path
   class="st0"
   d="m 79.854,5.167 v 8.018 H 26.464 V 5.167 h 53.39 m 0,-0.5 h -53.39 c -0.276,0 -0.5,0.224 -0.5,0.5 v 8.018 c 0,0.276 0.224,0.5 0.5,0.5 h 53.39 c 0.276,0 0.5,-0.224 0.5,-0.5 V 5.167 c 0,-0.276 -0.224,-0.5 -0.5,-0.5 z"
   id="path4"
   style="fill:#f4eee9;fill-opacity:1;stroke:none" /><path
   class="st0"
   d="m 30.014,11.373 c -0.882,0 -1.241,-0.348 -1.241,-1.559 V 8.62 c 0,-1.217 0.359,-1.565 1.241,-1.565 h 0.065 c 0.786,0 1.176,0.306 1.224,1.271 h -0.785 c -0.03,-0.48 -0.156,-0.612 -0.45,-0.612 h -0.042 c -0.197,0 -0.323,0.06 -0.39,0.186 -0.06,0.12 -0.09,0.342 -0.09,0.666 v 1.307 c 0,0.318 0.03,0.54 0.09,0.666 0.066,0.12 0.192,0.18 0.39,0.18 h 0.054 c 0.36,0 0.468,-0.15 0.468,-0.768 V 9.561 H 30.003 V 8.89 h 1.312 v 0.924 c 0,1.211 -0.354,1.559 -1.235,1.559 z"
   id="path6"
   style="fill:#f4eee9;fill-opacity:1;stroke:none" /><polygon
   class="st0"
   points="33.134,7.787 33.134,8.872 34.315,8.872 34.315,9.549 33.134,9.549 33.134,10.641 34.315,10.641 34.315,11.312 32.367,11.312 32.367,7.115 34.315,7.115 34.315,7.787 "
   id="polygon8"
   style="fill:#f4eee9;fill-opacity:1;stroke:none" /><polygon
   class="st0"
   points="51.619,7.787 51.619,8.872 52.8,8.872 52.8,9.549 51.619,9.549 51.619,10.641 52.8,10.641 52.8,11.312 50.852,11.312 50.852,7.115 52.8,7.115 52.8,7.787 "
   id="polygon10"
   style="fill:#f4eee9;fill-opacity:1;stroke:none" /><polygon
   class="st0"
   points="53.678,11.312 54.541,9.16 53.72,7.115 54.571,7.115 55.081,8.566 55.111,8.566 55.627,7.115 56.437,7.115 55.603,9.166 56.473,11.312 55.608,11.312 55.069,9.753 55.045,9.753 54.493,11.312 "
   id="polygon12"
   style="fill:#f4eee9;fill-opacity:1;stroke:none" /><path
   class="st0"
   d="M 58.171,11.312 H 57.403 V 7.115 h 1.289 c 0.798,0 1.134,0.18 1.134,1.283 v 0.24 c 0,1.079 -0.349,1.283 -1.134,1.283 h -0.521 z m 0,-3.556 v 1.535 h 0.455 c 0.318,0 0.433,-0.084 0.433,-0.624 V 8.38 c 0,-0.545 -0.12,-0.624 -0.433,-0.624 z"
   id="path14"
   style="fill:#f4eee9;fill-opacity:1;stroke:none" /><path
   class="st0"
   d="m 63.246,11.312 h -0.815 l -0.174,-0.899 h -0.966 l -0.168,0.899 H 60.326 L 61.22,7.114 h 1.133 z M 61.759,7.918 61.423,9.747 h 0.702 L 61.789,7.918 Z"
   id="path16"
   style="fill:#f4eee9;fill-opacity:1;stroke:none" /><polygon
   class="st0"
   points="64.166,11.312 64.166,7.115 65.18,7.115 66.103,9.951 66.133,9.951 66.133,7.115 66.84,7.115 66.84,11.312 65.827,11.312 64.903,8.476 64.873,8.476 64.873,11.312 "
   id="polygon18"
   style="fill:#f4eee9;fill-opacity:1;stroke:none" /><path
   class="st0"
   d="m 70.41,9.753 c 0,1.199 -0.372,1.559 -1.254,1.559 H 67.933 V 7.115 h 1.223 c 0.882,0 1.254,0.36 1.254,1.565 z m -1.709,-1.99 v 2.902 h 0.443 c 0.378,0 0.492,-0.216 0.492,-0.858 V 8.626 c 0,-0.647 -0.108,-0.863 -0.492,-0.863 z"
   id="path20"
   style="fill:#f4eee9;fill-opacity:1;stroke:none" /><polygon
   class="st0"
   points="72.241,7.787 72.241,8.872 73.422,8.872 73.422,9.549 72.241,9.549 72.241,10.641 73.422,10.641 73.422,11.312 71.474,11.312 71.474,7.115 73.422,7.115 73.422,7.787 "
   id="polygon22"
   style="fill:#f4eee9;fill-opacity:1;stroke:none" /><path
   class="st0"
   d="M 75.223,11.312 H 74.455 V 7.115 h 1.289 c 0.798,0 1.134,0.18 1.134,1.115 v 0.078 c 0,0.678 -0.162,0.864 -0.486,0.948 v 0.03 c 0.324,0.072 0.486,0.204 0.486,0.959 v 1.067 H 76.11 v -1.115 c 0,-0.516 -0.114,-0.576 -0.438,-0.576 h -0.449 z m 0,-3.549 v 1.241 h 0.474 c 0.294,0 0.414,-0.06 0.414,-0.558 v -0.12 c 0,-0.504 -0.126,-0.563 -0.444,-0.563 z"
   id="path24"
   style="fill:#f4eee9;fill-opacity:1;stroke:none" /><path
   class="st0"
   d="m 36.772,4.89 v 8.771 H 48.136 V 4.89 Z m 4.894,6.422 h -0.66 V 8.038 h -0.029 l -0.486,3.274 H 39.945 L 39.454,8.038 h -0.03 v 3.274 H 38.77 V 7.115 h 1.109 l 0.348,2.567 h 0.03 l 0.348,-2.567 h 1.062 v 4.197 z m 1.795,0 -0.438,-1.631 h -0.024 l -0.216,0.54 v 1.091 H 42.088 V 7.115 h 0.695 V 9.01 h 0.024 L 43.46,7.115 h 0.731 l -0.689,1.721 0.708,2.477 h -0.749 z m 2.832,-3.256 c 0,0.558 -0.072,0.768 -0.414,1.182 l -0.521,0.611 c -0.192,0.24 -0.246,0.378 -0.246,0.798 v 0.084 h 1.182 v 0.582 h -1.841 v -0.624 c 0,-0.606 0.06,-0.816 0.407,-1.229 L 45.352,8.884 C 45.598,8.602 45.627,8.5 45.627,8.129 V 8.086 c 0,-0.366 -0.048,-0.468 -0.258,-0.468 -0.191,0 -0.258,0.078 -0.258,0.666 h -0.659 c 0,-1.007 0.233,-1.229 0.894,-1.229 H 45.4 c 0.665,0 0.894,0.288 0.894,0.954 v 0.047 z"
   id="path26"
   style="fill:#f4eee9;fill-opacity:1;stroke:none" /><path
   class="st0"
   d="M 22.212,4.265 15.998,3.77 C 15.883,3.761 15.782,3.844 15.769,3.959 l -0.252,2.174 1.058,0.32 -1.834,2.955 -1.834,-2.955 1.058,-0.32 -0.254,-2.176 C 13.698,3.842 13.596,3.759 13.482,3.768 L 7.252,4.265 C 7.056,4.281 6.889,4.414 6.828,4.601 L 5.785,7.824 C 5.732,7.987 5.768,8.166 5.88,8.295 l 5.492,6.364 c 0.092,0.107 0.227,0.169 0.368,0.169 h 5.986 c 0.141,0 0.276,-0.062 0.368,-0.169 L 23.588,8.295 C 23.7,8.165 23.736,7.987 23.683,7.824 L 22.637,4.602 C 22.576,4.413 22.408,4.281 22.212,4.265 Z m -5.457,8.608 H 12.71 c -0.15,0 -0.293,-0.07 -0.385,-0.189 L 8.498,7.73 C 8.415,7.623 8.38,7.486 8.402,7.352 L 8.56,6.382 C 8.583,6.241 8.72,6.15 8.858,6.184 l 0.953,0.234 c 0.131,0.032 0.243,0.118 0.309,0.236 l 2.789,5.011 0.213,0.125 h 3.237 l 0.213,-0.126 2.772,-5.009 C 19.41,6.536 19.523,6.45 19.655,6.417 l 0.952,-0.232 c 0.138,-0.034 0.275,0.057 0.298,0.198 l 0.159,0.967 c 0.022,0.134 -0.013,0.272 -0.096,0.379 l -3.829,4.953 c -0.091,0.121 -0.233,0.191 -0.384,0.191 z"
   id="path28"
   style="fill:#f4eee9;fill-opacity:1;stroke:none" /><path
   class="st0"
   d="m 6.332,18.941 h 73.735 c 0.138,0 0.25,-0.112 0.25,-0.25 0,-0.138 -0.112,-0.25 -0.25,-0.25 H 6.332 c -0.138,0 -0.25,0.112 -0.25,0.25 0,0.138 0.112,0.25 0.25,0.25"
   id="path30"
   style="fill:#f4eee9;fill-opacity:1;stroke:none" /><path
   class="st0"
   d="M 17.133,70.349 H -5.8 c -0.138,0 -0.25,0.112 -0.25,0.25 0,0.138 0.112,0.25 0.25,0.25 h 22.933 c 0.138,0 0.25,-0.112 0.25,-0.25 0,-0.138 -0.112,-0.25 -0.25,-0.25"
   id="path32"
   style="fill:#f4eee9;fill-opacity:1;stroke:none" /><path
   class="st0"
   d="M 17.951,73.924 H -5.8 c -0.138,0 -0.25,0.112 -0.25,0.25 0,0.138 0.112,0.25 0.25,0.25 h 23.751 c 0.138,0 0.25,-0.112 0.25,-0.25 0,-0.138 -0.112,-0.25 -0.25,-0.25"
   id="path34"
   style="fill:#f4eee9;fill-opacity:1;stroke:none" /><path
   class="st0"
   d="M 18.769,77.499 H -5.8 c -0.138,0 -0.25,0.112 -0.25,0.25 0,0.138 0.112,0.25 0.25,0.25 h 24.569 c 0.138,0 0.25,-0.112 0.25,-0.25 0,-0.138 -0.112,-0.25 -0.25,-0.25"
   id="path36"
   style="fill:#f4eee9;fill-opacity:1;stroke:none" /><path
   class="st0"
   d="m 46.794,35.881 h 8.914 c 2.527,0 4.719,1.747 5.283,4.211 l 15.407,67.351 c 0.094,0.411 0.139,0.82 0.139,1.22 0,1.453 -0.59,2.805 -1.564,3.795 -0.974,0.989 -2.327,1.613 -3.858,1.613 H 31.654 c -2.527,0 -4.719,-1.747 -5.283,-4.211 L 10.964,42.508 c -0.094,-0.411 -0.139,-0.82 -0.139,-1.22 0,-1.453 0.59,-2.805 1.564,-3.795 0.974,-0.989 2.327,-1.613 3.858,-1.613 h 3.595 v -0.5 h -3.595 c -3.342,10e-4 -5.916,2.728 -5.922,5.907 0,0.438 0.049,0.884 0.151,1.332 l 15.407,67.351 c 0.616,2.691 3.01,4.599 5.77,4.599 h 39.461 c 3.342,-0.001 5.916,-2.728 5.922,-5.907 0,-0.438 -0.049,-0.884 -0.151,-1.332 L 61.478,39.98 c -0.616,-2.691 -3.01,-4.599 -5.77,-4.599 h -8.914 z"
   id="path38"
   style="fill:#f4eee9;fill-opacity:1;stroke:none" /><path
   class="st0"
   d="m 44.443,32.071 h 1.513 v -0.938 h -4.097 v 0.938 h 1.492 v 3.964 h 1.093 v -3.964 z m -5.928,4.034 c 1.513,0 2.094,-0.518 2.094,-2.031 v -2.942 h -1.106 v 2.879 c 0,0.847 -0.238,1.121 -0.96,1.121 h -0.154 c -0.722,0 -0.959,-0.266 -0.959,-1.121 v -2.879 h -1.107 v 2.942 c 0,1.513 0.575,2.031 2.094,2.031 z m -5.341,-4.083 c 0.588,0 0.771,0.196 0.771,0.75 v 0.07 c 0,0.54 -0.168,0.75 -0.764,0.75 H 31.92 v -1.569 h 1.254 z M 31.92,34.48 h 1.429 c 1.198,0 1.681,-0.498 1.681,-1.562 v -0.21 c 0,-1.156 -0.483,-1.576 -1.681,-1.576 h -2.514 v 4.903 h 1.085 z m -2.693,-3.348 h -1.071 v 3.726 h -0.042 l -1.919,-3.726 h -1.681 v 4.903 h 1.071 v -3.719 h 0.042 l 1.926,3.719 h 1.674 z m -6.323,0 h -1.085 v 4.903 h 1.085 z"
   id="path40"
   style="fill:#f4eee9;fill-opacity:1;stroke:none" /><path
   class="st0"
   d="m 63.000502,299.438 h -1.092 v 1.975 h -2.263 v -1.975 h -1.085 v 4.903 h 1.085 v -1.989 h 2.263 v 1.989 h 1.092 z m -8.226,4.973 c 1.576,0 2.262,-0.686 2.262,-2.304 v -0.637 h -2.452 v 0.903 h 1.359 c 0,0.785 -0.238,1.1 -1.121,1.1 h -0.154 c -0.973,0 -1.176,-0.525 -1.176,-1.421 v -0.309 c 0,-0.889 0.203,-1.429 1.176,-1.429 h 0.119 c 0.588,0 0.938,0.168 1.058,0.553 h 1.142 c -0.217,-1.057 -0.952,-1.499 -2.213,-1.499 h -0.091 c -1.59,0 -2.29,0.693 -2.29,2.311 v 0.427 c 0,1.618 0.7,2.304 2.29,2.304 h 0.091 z m -5.922,0 c 1.513,0 2.094,-0.518 2.094,-2.031 v -2.942 h -1.106 v 2.879 c 0,0.847 -0.238,1.121 -0.96,1.121 h -0.154 c -0.722,0 -0.959,-0.266 -0.959,-1.121 v -2.879 h -1.107 v 2.942 c 0,1.513 0.575,2.031 2.094,2.031 z m -6.041,-0.946 c -0.974,0 -1.177,-0.539 -1.177,-1.429 v -0.294 c 0,-0.889 0.203,-1.429 1.177,-1.429 h 0.119 c 0.967,0 1.17,0.54 1.17,1.429 v 0.294 c 0,0.903 -0.203,1.415 -1.17,1.429 z m 0.105,0.946 c 1.576,0 2.283,-0.686 2.283,-2.304 v -0.427 c 0,-1.618 -0.708,-2.311 -2.283,-2.311 h -0.091 c -1.59,0 -2.29,0.693 -2.29,2.311 v 0.427 c 0,1.618 0.7,2.304 2.29,2.304 z m -5.747,-4.069 c 0.616,0 0.812,0.154 0.812,0.651 v 0.042 c 0,0.469 -0.196,0.623 -0.701,0.623 h -1.324 v -1.316 z m -1.212,2.213 h 1.205 c 0.645,0 0.82,0.119 0.82,0.672 v 1.114 h 1.085 v -1.184 c 0,-0.854 -0.231,-1.03 -0.75,-1.114 v -0.049 c 0.525,-0.084 0.75,-0.406 0.75,-1.135 v -0.126 c 0,-0.953 -0.448,-1.296 -1.667,-1.296 h -2.528 v 4.903 h 1.085 z m -2.692,-3.117 h -1.093 v 1.975 h -2.262 v -1.975 h -1.085 v 4.903 h 1.085 v -1.989 h 2.262 v 1.989 h 1.093 z m -7.282,0.938 h 1.513 v -0.938 h -4.097 v 0.938 h 1.492 v 3.964 h 1.093 v -3.964 z"
   id="path42"
   style="fill:#f4eee9;fill-opacity:1;stroke:none" /><path
   class="st0"
   d="m 53.524,136.307 c 0.448,0 0.574,0.252 0.574,1.008 v 1.38 c 0,0.75 -0.133,1.001 -0.574,1.001 h -0.519 v -3.39 h 0.519 z m 1.478,1.071 c 0,-1.408 -0.434,-1.828 -1.464,-1.828 h -1.429 v 4.903 h 1.429 c 1.03,0 1.464,-0.42 1.464,-1.821 z m -5.685,-1.071 c 0.371,0 0.518,0.07 0.518,0.658 v 0.14 c 0,0.581 -0.14,0.651 -0.483,0.651 h -0.553 v -1.45 h 0.518 z m -0.518,2.171 h 0.525 c 0.378,0 0.511,0.07 0.511,0.672 v 1.303 h 0.896 v -1.247 c 0,-0.883 -0.189,-1.037 -0.567,-1.121 v -0.035 c 0.378,-0.098 0.567,-0.315 0.567,-1.106 v -0.091 c 0,-1.092 -0.392,-1.303 -1.324,-1.303 h -1.506 v 4.903 h 0.896 v -1.975 z m -3.773,1.282 c -0.231,0 -0.378,-0.07 -0.456,-0.217 -0.07,-0.147 -0.105,-0.406 -0.105,-0.777 v -1.52 c 0,-0.378 0.035,-0.638 0.105,-0.778 0.077,-0.147 0.224,-0.217 0.456,-0.217 h 0.049 c 0.231,0 0.378,0.07 0.448,0.217 0.077,0.14 0.112,0.399 0.112,0.778 v 1.52 c 0,0.371 -0.035,0.63 -0.112,0.777 -0.07,0.147 -0.217,0.217 -0.448,0.217 z m 0.063,0.763 c 1.036,0 1.45,-0.406 1.45,-1.821 v -1.394 c 0,-1.422 -0.414,-1.828 -1.45,-1.828 h -0.077 c -1.03,0 -1.45,0.406 -1.45,1.828 v 1.394 c 0,1.415 0.42,1.821 1.45,1.821 z m -4.235,0 c 0.952,0 1.337,-0.371 1.408,-1.646 h -0.904 c -0.042,0.728 -0.189,0.882 -0.532,0.882 h -0.042 c -0.231,0 -0.378,-0.07 -0.448,-0.217 -0.07,-0.147 -0.105,-0.406 -0.105,-0.777 v -1.52 c 0,-0.757 0.098,-0.995 0.553,-0.995 h 0.042 c 0.343,0 0.49,0.147 0.532,0.875 h 0.904 c -0.07,-1.275 -0.456,-1.646 -1.408,-1.646 h -0.105 c -1.029,0 -1.421,0.42 -1.421,1.821 v 1.401 c 0,1.401 0.392,1.821 1.421,1.821 h 0.105 z m -2.82,-0.855 h -1.38 v -1.274 h 1.38 v -0.792 h -1.38 v -1.268 h 1.38 v -0.785 h -2.276 v 4.903 h 2.276 z m -5.069,-3.361 c 0.371,0 0.518,0.07 0.518,0.658 v 0.14 c 0,0.581 -0.14,0.651 -0.483,0.651 h -0.553 v -1.45 h 0.518 z m -0.518,2.171 h 0.525 c 0.378,0 0.511,0.07 0.511,0.672 v 1.303 h 0.896 v -1.247 c 0,-0.883 -0.189,-1.037 -0.567,-1.121 v -0.035 c 0.378,-0.098 0.567,-0.315 0.567,-1.106 v -0.091 c 0,-1.092 -0.392,-1.303 -1.324,-1.303 H 31.55 v 4.903 h 0.896 v -1.975 z"
   id="path44"
   style="fill:#f4eee9;fill-opacity:1;stroke:none" /><path
   class="st0"
   d="m 55.147,230.416 h -1.38 v -1.274 h 1.38 v -0.792 h -1.38 v -1.268 h 1.38 v -0.785 h -2.276 v 4.903 h 2.276 z m -3.486,-0.007 h -1.205 v -4.111 H 49.56 v 4.903 h 2.101 z m -4.802,-3.362 c 0.364,0 0.504,0.091 0.504,0.729 v 0.336 c 0,0.63 -0.133,0.729 -0.504,0.729 h -0.532 v -1.793 h 0.532 z m -0.532,2.529 h 0.609 c 0.917,0 1.324,-0.238 1.324,-1.499 v -0.28 c 0,-1.289 -0.392,-1.499 -1.324,-1.499 H 45.43 v 4.903 h 0.896 v -1.625 z m -2.309,-3.278 h -1.394 l -0.645,3.096 H 41.937 L 41.3,226.298 h -1.464 v 4.903 h 0.861 v -3.845 h 0.035 l 0.827,3.845 h 0.735 l 0.819,-3.845 h 0.042 v 3.845 h 0.861 v -4.903 z m -7.092,0.938 0.392,2.136 h -0.819 l 0.392,-2.136 z m 0.658,-0.938 H 36.26 l -1.043,4.903 h 0.932 l 0.196,-1.051 h 1.128 l 0.203,1.051 h 0.953 z m -4.76,4.973 c 0.896,0 1.359,-0.329 1.359,-1.45 v -0.098 c 0,-0.931 -0.28,-1.253 -1.051,-1.352 l -0.35,-0.042 c -0.399,-0.049 -0.49,-0.203 -0.49,-0.63 v -0.098 c 0,-0.483 0.126,-0.623 0.462,-0.623 0.329,0 0.469,0.112 0.497,0.693 h 0.911 c -0.028,-1.093 -0.477,-1.443 -1.359,-1.443 h -0.084 c -0.924,0 -1.331,0.35 -1.331,1.443 v 0.077 c 0,0.931 0.287,1.253 1.058,1.352 l 0.35,0.042 c 0.399,0.056 0.49,0.196 0.49,0.637 v 0.119 c 0,0.497 -0.14,0.63 -0.498,0.63 -0.301,0 -0.483,-0.105 -0.511,-0.658 H 31.36 c 0.021,0.525 0.147,0.896 0.378,1.1 0.231,0.203 0.574,0.301 1.016,0.301 z"
   id="path46"
   style="fill:#f4eee9;fill-opacity:1;stroke:none" /><path
   class="st0"
   d="m 33.354,148.812 h 0.91 v -0.799 h -2.703 v 0.799 h 0.889 v 4.104 h 0.904 z m -4.291,-0.041 c 0.371,0 0.518,0.07 0.518,0.658 v 0.14 c 0,0.581 -0.14,0.651 -0.483,0.651 h -0.553 v -1.45 h 0.518 z m -0.518,2.17 h 0.525 c 0.378,0 0.511,0.07 0.511,0.672 v 1.303 h 0.896 v -1.247 c 0,-0.883 -0.189,-1.037 -0.567,-1.121 v -0.035 c 0.378,-0.098 0.567,-0.315 0.567,-1.106 v -0.091 c 0,-1.092 -0.392,-1.303 -1.324,-1.303 h -1.506 v 4.903 h 0.896 v -1.975 z m -3.808,-1.989 0.392,2.136 H 24.31 l 0.392,-2.136 z m 0.659,-0.938 h -1.324 l -1.043,4.903 h 0.932 l 0.196,-1.051 h 1.128 l 0.203,1.051 h 0.953 z m -3.823,0.798 h 0.91 v -0.799 H 19.78 v 0.799 h 0.889 v 4.104 h 0.904 z m -4.2,4.174 c 0.896,0 1.359,-0.329 1.359,-1.45 v -0.098 c 0,-0.931 -0.28,-1.253 -1.051,-1.352 l -0.35,-0.042 c -0.399,-0.049 -0.49,-0.203 -0.49,-0.63 v -0.098 c 0,-0.483 0.126,-0.623 0.462,-0.623 0.329,0 0.469,0.112 0.497,0.693 h 0.911 c -0.028,-1.093 -0.477,-1.443 -1.359,-1.443 h -0.084 c -0.924,0 -1.331,0.35 -1.331,1.443 v 0.077 c 0,0.931 0.287,1.253 1.058,1.352 l 0.35,0.042 c 0.399,0.056 0.49,0.196 0.49,0.637 v 0.119 c 0,0.497 -0.14,0.63 -0.498,0.63 -0.301,0 -0.483,-0.105 -0.511,-0.658 h -0.917 c 0.021,0.525 0.147,0.896 0.378,1.1 0.231,0.203 0.574,0.301 1.016,0.301 z"
   id="path48"
   style="fill:#f4eee9;fill-opacity:1;stroke:none" /><path
   class="st0"
   d="m 69.533,148.763 c 0.364,0 0.504,0.091 0.504,0.729 v 0.336 c 0,0.63 -0.133,0.729 -0.504,0.729 H 69 v -1.793 h 0.533 z M 69,151.292 h 0.609 c 0.917,0 1.324,-0.238 1.324,-1.499 v -0.28 c 0,-1.289 -0.392,-1.499 -1.324,-1.499 h -1.506 v 4.903 H 69 Z m -3.772,0.931 c -0.231,0 -0.378,-0.07 -0.456,-0.217 -0.07,-0.147 -0.105,-0.406 -0.105,-0.777 v -1.52 c 0,-0.378 0.035,-0.638 0.105,-0.778 0.077,-0.147 0.224,-0.217 0.456,-0.217 h 0.049 c 0.231,0 0.378,0.07 0.448,0.217 0.077,0.14 0.112,0.399 0.112,0.778 v 1.52 c 0,0.371 -0.035,0.63 -0.112,0.777 -0.07,0.147 -0.217,0.217 -0.448,0.217 z m 0.063,0.763 c 1.036,0 1.45,-0.406 1.45,-1.821 v -1.394 c 0,-1.422 -0.414,-1.828 -1.45,-1.828 h -0.077 c -1.03,0 -1.45,0.406 -1.45,1.828 v 1.394 c 0,1.415 0.42,1.821 1.45,1.821 z m -3.5,-4.174 h 0.91 v -0.799 h -2.703 v 0.799 h 0.889 v 4.104 h 0.904 z m -4.2,4.174 c 0.896,0 1.359,-0.329 1.359,-1.45 v -0.098 c 0,-0.931 -0.28,-1.253 -1.051,-1.352 l -0.35,-0.042 c -0.399,-0.049 -0.49,-0.203 -0.49,-0.63 v -0.098 c 0,-0.483 0.126,-0.623 0.462,-0.623 0.329,0 0.469,0.112 0.497,0.693 h 0.911 c -0.028,-1.093 -0.477,-1.443 -1.359,-1.443 h -0.084 c -0.924,0 -1.331,0.35 -1.331,1.443 v 0.077 c 0,0.931 0.287,1.253 1.058,1.352 l 0.35,0.042 c 0.399,0.056 0.49,0.196 0.49,0.637 v 0.119 c 0,0.497 -0.14,0.63 -0.498,0.63 -0.301,0 -0.483,-0.105 -0.511,-0.658 h -0.917 c 0.021,0.525 0.147,0.896 0.378,1.1 0.231,0.203 0.574,0.301 1.016,0.301 z"
   id="path50"
   style="fill:#f4eee9;fill-opacity:1;stroke:none" /><path
   class="st0"
   d="m 38.112,103.144 c -2.793,-2.793 -4.188,-6.45 -4.188,-10.111 0,-3.66 1.395,-7.318 4.188,-10.111 0.117,-0.117 0.117,-0.307 0,-0.424 -0.117,-0.117 -0.307,-0.117 -0.424,0 -2.909,2.908 -4.364,6.723 -4.364,10.535 0,3.812 1.455,7.626 4.364,10.535 0.117,0.117 0.307,0.117 0.424,0 0.118,-0.117 0.118,-0.307 0,-0.424 z"
   id="path52"
   style="fill:#f4eee9;fill-opacity:1;stroke:none" /><path
   class="st0"
   d="m 58.333,82.923 c 2.793,2.793 4.188,6.45 4.188,10.111 0,3.66 -1.395,7.318 -4.188,10.111 -0.117,0.117 -0.117,0.307 0,0.424 0.117,0.117 0.307,0.117 0.424,0 2.909,-2.908 4.364,-6.723 4.364,-10.535 0,-3.812 -1.455,-7.626 -4.364,-10.535 -0.117,-0.117 -0.307,-0.117 -0.424,0 -0.117,0.117 -0.117,0.307 0,0.424 z"
   id="path54"
   style="fill:#f4eee9;fill-opacity:1;stroke:none" /><path
   class="st0"
   d="M 14.046,181.45 C 11.253,178.657 9.858,175 9.858,171.339 c 0,-3.66 1.395,-7.318 4.188,-10.11 0.117,-0.117 0.117,-0.307 0,-0.424 -0.117,-0.117 -0.307,-0.117 -0.424,0 -2.909,2.908 -4.364,6.723 -4.364,10.535 0,3.812 1.455,7.626 4.364,10.535 0.117,0.117 0.307,0.117 0.424,0 0.117,-0.118 0.117,-0.307 0,-0.425 z"
   id="path56"
   style="fill:#f4eee9;fill-opacity:1;stroke:none" /><path
   class="st0"
   d="m 34.267,161.229 c 2.793,2.793 4.188,6.45 4.188,10.111 0,3.66 -1.395,7.318 -4.188,10.111 -0.117,0.117 -0.117,0.307 0,0.424 0.117,0.117 0.307,0.117 0.424,0 2.909,-2.908 4.364,-6.723 4.364,-10.535 0,-3.812 -1.455,-7.626 -4.364,-10.535 -0.117,-0.117 -0.307,-0.117 -0.424,0 -0.117,0.117 -0.117,0.307 0,0.424 z"
   id="path58"
   style="fill:#f4eee9;fill-opacity:1;stroke:none" /><path
   class="st0"
   d="m 14.119,260.404 c -2.793,-2.793 -4.188,-6.45 -4.188,-10.111 0,-3.66 1.395,-7.318 4.188,-10.111 0.117,-0.117 0.117,-0.307 0,-0.424 -0.117,-0.117 -0.307,-0.117 -0.424,0 -2.909,2.908 -4.364,6.723 -4.364,10.535 0,3.812 1.455,7.626 4.364,10.535 0.117,0.117 0.307,0.117 0.424,0 0.117,-0.117 0.117,-0.307 0,-0.424 z"
   id="path60"
   style="fill:#f4eee9;fill-opacity:1;stroke:none" /><path
   class="st0"
   d="m 34.34,240.183 c 2.793,2.793 4.188,6.45 4.188,10.111 0,3.66 -1.395,7.318 -4.188,10.11 -0.117,0.117 -0.117,0.307 0,0.424 0.117,0.117 0.307,0.117 0.424,0 2.909,-2.908 4.364,-6.723 4.364,-10.535 0,-3.812 -1.455,-7.626 -4.364,-10.535 -0.117,-0.117 -0.307,-0.117 -0.424,0 -0.117,0.118 -0.117,0.308 0,0.425 z"
   id="path62"
   style="fill:#f4eee9;fill-opacity:1;stroke:none" /><path
   class="st0"
   d="m 52.38,181.45 c -2.793,-2.793 -4.188,-6.45 -4.188,-10.111 0,-3.66 1.395,-7.318 4.188,-10.11 0.117,-0.117 0.117,-0.307 0,-0.424 -0.117,-0.117 -0.307,-0.117 -0.424,0 -2.909,2.908 -4.364,6.723 -4.364,10.535 0,3.812 1.455,7.626 4.364,10.535 0.117,0.117 0.307,0.117 0.424,0 0.117,-0.118 0.117,-0.307 0,-0.425 z"
   id="path64"
   style="fill:#f4eee9;fill-opacity:1;stroke:none" /><path
   class="st0"
   d="m 72.601,161.229 c 2.793,2.793 4.188,6.45 4.188,10.111 0,3.66 -1.395,7.318 -4.188,10.111 -0.117,0.117 -0.117,0.307 0,0.424 0.117,0.117 0.307,0.117 0.424,0 2.909,-2.908 4.364,-6.723 4.364,-10.535 0,-3.812 -1.455,-7.626 -4.364,-10.535 -0.117,-0.117 -0.307,-0.117 -0.424,0 -0.117,0.117 -0.117,0.307 0,0.424 z"
   id="path66"
   style="fill:#f4eee9;fill-opacity:1;stroke:none" /><path
   class="st0"
   d="m 28.558,67.107 c -2.793,-2.793 -4.188,-6.45 -4.188,-10.111 0,-3.66 1.395,-7.318 4.188,-10.111 0.117,-0.117 0.117,-0.307 0,-0.424 -0.117,-0.117 -0.307,-0.117 -0.424,0 -2.909,2.908 -4.364,6.723 -4.364,10.535 0,3.812 1.455,7.626 4.364,10.535 0.117,0.117 0.307,0.117 0.424,0 0.117,-0.117 0.117,-0.306 0,-0.424 z"
   id="path68"
   style="fill:#f4eee9;fill-opacity:1;stroke:none" /><path
   class="st0"
   d="m 48.779,46.886 c 2.793,2.793 4.188,6.45 4.188,10.111 0,3.66 -1.395,7.318 -4.188,10.111 -0.117,0.117 -0.117,0.307 0,0.424 0.117,0.117 0.307,0.117 0.424,0 2.909,-2.908 4.364,-6.723 4.364,-10.535 0,-3.812 -1.455,-7.626 -4.364,-10.535 -0.117,-0.117 -0.307,-0.117 -0.424,0 -0.117,0.117 -0.117,0.307 0,0.424 z"
   id="path70"
   style="fill:#f4eee9;fill-opacity:1;stroke:none" /><path
   class="st0"
   d="m 76.126,253.894 c 0.059,-0.243 0.11,-0.488 0.156,-0.736 l -2.488,-0.566 c 0.113,-0.648 0.176,-1.313 0.175,-1.993 0,-1.421 -0.259,-2.781 -0.73,-4.038 l 2.38,-0.935 c -0.089,-0.235 -0.184,-0.467 -0.285,-0.696 l -2.384,0.936 c -0.84,-1.86 -2.158,-3.455 -3.8,-4.631 l 1.446,-2.117 c -0.204,-0.145 -0.412,-0.285 -0.624,-0.42 l -1.447,2.118 c -1.664,-1.035 -3.61,-1.656 -5.697,-1.723 v -2.566 c -0.125,-0.003 -0.25,-0.009 -0.376,-0.009 -0.126,0 -0.251,0.006 -0.376,0.009 v 2.566 c -2.087,0.067 -4.033,0.688 -5.697,1.723 l -1.447,-2.118 c -0.212,0.134 -0.42,0.274 -0.624,0.42 l 1.446,2.117 c -1.641,1.176 -2.96,2.772 -3.8,4.631 L 49.57,244.93 c -0.101,0.229 -0.196,0.461 -0.285,0.696 l 2.38,0.935 c -0.471,1.257 -0.73,2.617 -0.73,4.038 0,0.68 0.062,1.345 0.175,1.993 l -2.488,0.566 c 0.046,0.248 0.098,0.493 0.156,0.736 l 2.485,-0.565 c 0.5,2.054 1.549,3.893 2.984,5.349 l -1.731,1.865 c 0.177,0.177 0.361,0.348 0.548,0.516 l 2.351,-2.532 -0.551,-0.512 -0.003,0.003 c -1.872,-1.915 -3.026,-4.529 -3.026,-7.419 0,-2.933 1.188,-5.584 3.109,-7.507 1.923,-1.922 4.574,-3.109 7.507,-3.109 2.933,0 5.584,1.188 7.507,3.109 1.922,1.922 3.109,4.574 3.109,7.507 0,2.889 -1.154,5.503 -3.026,7.419 l -0.003,-0.003 -0.551,0.512 2.35,2.532 c 0.187,-0.167 0.37,-0.339 0.548,-0.516 l -1.731,-1.865 c 1.435,-1.456 2.484,-3.295 2.984,-5.349 z"
   id="path72"
   style="fill:#f4eee9;fill-opacity:1;stroke:none" /><path
   class="st0"
   d="m 47.946,260.242 c -0.479,0 -0.634,-0.21 -0.634,-1.093 v -1.632 c 0,-0.883 0.155,-1.1 0.634,-1.1 0.471,0 0.626,0.217 0.626,1.1 v 1.632 c 0,0.883 -0.147,1.093 -0.626,1.093 z m 0.042,0.61 c 0.887,0 1.287,-0.371 1.287,-1.758 v -1.521 c 0,-1.4 -0.394,-1.765 -1.287,-1.765 h -0.085 c -0.886,0 -1.287,0.364 -1.287,1.765 v 1.521 c 0,1.387 0.401,1.758 1.287,1.758 z"
   id="path74"
   style="fill:#f4eee9;fill-opacity:1;stroke:none" /><polygon
   class="st0"
   points="75.359,257.021 76.281,256.502 76.316,256.502 76.316,260.165 75.304,260.165 75.304,260.781 77.906,260.781 77.906,260.165 77.013,260.165 77.013,255.879 76.147,255.879 75.359,256.277 "
   id="polygon76"
   style="fill:#f4eee9;fill-opacity:1;stroke:none" /><path
   class="st1"
   d="M 29.96,139.774 H 19.865 c -3.202,0 -6.102,1.358 -8.196,3.548 -2.095,2.19 -3.388,5.213 -3.388,8.55 v 8.592 H 8.88 v -8.592 c 0,-3.18 1.232,-6.054 3.222,-8.135 1.99,-2.08 4.733,-3.363 7.763,-3.363 H 29.96 v -0.6"
   id="path78"
   style="fill:#f4eee9;fill-opacity:1;stroke:none" /><path
   class="st1"
   d="m 66.536,139.774 c -0.001,0 -0.001,0 0,0 H 56.44 v 0.6 h 10.095 c 3.031,0 5.773,1.283 7.763,3.363 1.99,2.08 3.222,4.955 3.222,8.135 v 8.592 h 0.598 v -8.592 c 0,-3.336 -1.294,-6.36 -3.388,-8.55 -2.093,-2.19 -4.993,-3.548 -8.194,-3.548"
   id="path80"
   style="fill:#f4eee9;fill-opacity:1;stroke:none" /><path
   class="st1"
   d="M 8.88,182.126 H 8.281 v 21.799 c 0,3.336 1.294,6.36 3.388,8.55 2.094,2.189 4.993,3.548 8.195,3.548 0,0 0,0 10e-4,0 H 29.96 v -0.6 H 19.865 c -3.031,0 -5.773,-1.283 -7.763,-3.363 -1.99,-2.08 -3.222,-4.955 -3.222,-8.135 v -21.799"
   id="path82"
   style="fill:#f4eee9;fill-opacity:1;stroke:none" /><path
   class="st1"
   d="M 78.119,182.126 H 77.52 v 21.799 c 0,3.18 -1.232,6.054 -3.222,8.135 -1.99,2.08 -4.733,3.363 -7.763,3.363 H 56.44 v 0.6 h 10.095 c 3.202,0 6.102,-1.358 8.195,-3.548 2.095,-2.19 3.389,-5.213 3.388,-8.55 v -21.799"
   id="path84"
   style="fill:#f4eee9;fill-opacity:1;stroke:none" /><polyline
   class="st0"
   points="23.879,184.418 23.879,188.711 24.379,188.711 24.379,184.418  "
   id="polyline86"
   style="fill:#f4eee9;fill-opacity:1;stroke:none" /><polyline
   class="st0"
   points="62.309,184.418 62.309,188.711 62.809,188.711 62.809,184.418  "
   id="polyline88"
   style="fill:#f4eee9;fill-opacity:1;stroke:none" />
</svg>
