<?xml version="1.0" encoding="UTF-8" standalone="no"?>
<!-- Created with Inkscape (http://www.inkscape.org/) -->

<svg
   width="14.044mm"
   height="14.002mm"
   viewBox="0 0 14.044 14.002"
   version="1.1"
   id="svg1057"
   inkscape:version="1.1.1 (3bf5ae0d25, 2021-09-20)"
   sodipodi:docname="2600hz-logo.svg"
   xmlns:inkscape="http://www.inkscape.org/namespaces/inkscape"
   xmlns:sodipodi="http://sodipodi.sourceforge.net/DTD/sodipodi-0.dtd"
   xmlns="http://www.w3.org/2000/svg"
   xmlns:svg="http://www.w3.org/2000/svg">
  <sodipodi:namedview
     id="namedview1059"
     pagecolor="#ffffff"
     bordercolor="#666666"
     borderopacity="1.0"
     inkscape:pageshadow="2"
     inkscape:pageopacity="0.0"
     inkscape:pagecheckerboard="0"
     inkscape:document-units="mm"
     showgrid="false"
     inkscape:zoom="6.2217172"
     inkscape:cx="-79.881484"
     inkscape:cy="64.773115"
     inkscape:window-width="2880"
     inkscape:window-height="1526"
     inkscape:window-x="-11"
     inkscape:window-y="1138"
     inkscape:window-maximized="1"
     inkscape:current-layer="layer1" />
  <defs
     id="defs1054" />
  <g
     inkscape:label="Layer 1"
     inkscape:groupmode="layer"
     id="layer1">
    <path
       d="m 13.856943,0.18688875 c -0.249608,-0.249185 -0.65278,-0.249185 -0.902388,0 -0.249581,0.249184 -0.249581,0.651713 0,0.90089995 0.249608,0.249185 0.65278,0.249185 0.902388,0 0.249582,-0.24918695 0.249582,-0.65171595 0,-0.90089995 z"
       fill="#ff5933"
       id="path2"
       style="stroke-width:0.264583" />
    <path
       d="M 3.8538943,11.036035 11.072812,3.8479937 C 10.93843,3.6754857 10.804022,3.5221597 10.650432,3.3496247 10.496841,3.1962987 10.34325,3.0621017 10.18966,2.9471137 L 2.9515333,10.154311 c -0.249608,0.249185 -0.249608,0.651722 0,0.900907 0.249581,0.230002 0.65278,0.230002 0.902361,-0.01918 z"
       fill="#ff5933"
       id="path4"
       style="stroke-width:0.264583" />
    <path
       d="m 12.513125,2.4294907 c 0.249608,-0.249187 0.249608,-0.651716 0,-0.9009 -0.249582,-0.249185 -0.652754,-0.249185 -0.902362,0 l -0.65278,0.651713 C 8.5580803,0.22516075 5.0062083,0.37850475 2.7791043,2.6020017 c -1.670346,1.667632 -2.16952805,4.044464 -1.51675,6.133799 l -1.07516105,1.073414 c -0.249591,0.2491853 -0.249591,0.6516953 0,0.9008803 0.249592,0.249185 0.652777,0.249185 0.90236605,0 L 6.3117682,5.4963747 c 0.249581,-0.249185 0.249581,-0.651695 0,-0.90088 -0.2495819,-0.249185 -0.65278,-0.249185 -0.9023619,0 l -2.803101,2.779368 c -0.287991,-1.552627 0.172799,-3.201087 1.382342,-4.408672 1.95834,-1.93597 5.126222,-1.93597 7.0653527,0 1.958314,1.935982 1.958314,5.098706 0,7.0346883 -1.017587,1.015921 -2.3807197,1.495108 -3.7246707,1.45677 l -1.439942,1.437613 c 1.939131,0.383355 4.031853,-0.172508 5.5293947,-1.667615 2.246312,-2.2235063 2.380694,-5.7504283 0.42238,-8.1464423 z"
       fill="#ff5933"
       id="path6"
       style="stroke-width:0.264583" />
    <path
       d="m 7.7133983,9.4067837 c -0.249582,-0.249185 -0.65278,-0.249185 -0.902362,0 l -3.513481,3.5077403 c -0.249581,0.249185 -0.249581,0.651722 0,0.900906 0.249608,0.249185 0.65278,0.249185 0.902388,0 l 3.513455,-3.488584 c 0.249581,-0.268367 0.249581,-0.6708773 0,-0.9200623 z"
       fill="#ff5933"
       id="path8"
       style="stroke-width:0.264583" />
    <path
       d="m 8.1554113,8.0649497 c -0.249582,0.249184 -0.249582,0.651721 0,0.900906 0.249581,0.249185 0.65278,0.249185 0.902361,0 0.249582,-0.249185 0.249582,-0.651722 0,-0.900906 -0.249581,-0.249185 -0.65278,-0.249185 -0.902361,0 z"
       fill="#ff5933"
       id="path10"
       style="stroke-width:0.264583" />
    <path
       d="m 7.6552163,4.1354897 c 0.249581,-0.249184 0.249581,-0.651695 0,-0.900879 -0.249582,-0.249185 -0.65278,-0.249185 -0.902362,0 -0.249607,0.249184 -0.249607,0.651695 0,0.900879 0.249582,0.249185 0.65278,0.249185 0.902362,0 z"
       fill="#ff5933"
       id="path12"
       style="stroke-width:0.264583" />
  </g>
</svg>
