<?xml version="1.0" encoding="UTF-8" standalone="no"?>
<!-- Generator: Adobe Illustrator 26.0.3, SVG Export Plug-In . SVG Version: 6.00 Build 0)  -->

<svg
   version="1.1"
   id="Ebene_1"
   x="0px"
   y="0px"
   viewBox="0 0 18.142 18.142"
   style="enable-background:new 0 0 18.142 18.142;"
   xml:space="preserve"
   sodipodi:docname="attenuator_overlay.svg"
   inkscape:version="1.1.1 (3bf5ae0d25, 2021-09-20)"
   xmlns:inkscape="http://www.inkscape.org/namespaces/inkscape"
   xmlns:sodipodi="http://sodipodi.sourceforge.net/DTD/sodipodi-0.dtd"
   xmlns:xlink="http://www.w3.org/1999/xlink"
   xmlns="http://www.w3.org/2000/svg"
   xmlns:svg="http://www.w3.org/2000/svg"><defs
   id="defs18"><linearGradient
     inkscape:collect="always"
     xlink:href="#SVGID_1_"
     id="linearGradient841"
     x1="7.796"
     y1="3.3084998"
     x2="10.343"
     y2="3.3084998"
     gradientUnits="userSpaceOnUse" /></defs><sodipodi:namedview
   id="namedview16"
   pagecolor="#ffffff"
   bordercolor="#666666"
   borderopacity="1.0"
   inkscape:pageshadow="2"
   inkscape:pageopacity="0.0"
   inkscape:pagecheckerboard="0"
   showgrid="false"
   inkscape:zoom="48.120383"
   inkscape:cx="9.0606095"
   inkscape:cy="9.0606095"
   inkscape:window-width="2880"
   inkscape:window-height="1526"
   inkscape:window-x="-11"
   inkscape:window-y="1138"
   inkscape:window-maximized="1"
   inkscape:current-layer="Ebene_1" />
<style
   type="text/css"
   id="style2">
	.st0{fill:#F7F7F7;}
	.st1{fill:url(#SVGID_1_);}
</style>
<path
   id="kranz_aussen"
   d="M9.071,0.015c-5.001,0-9.055,4.054-9.055,9.055c0,5.001,4.054,9.055,9.055,9.055s9.055-4.054,9.055-9.055  C18.126,4.07,14.072,0.015,9.071,0.015z M17.399,9.706c-0.006,0.075-0.026,0.149-0.06,0.216c-0.029,0.058-0.067,0.11-0.112,0.141  c-0.073,0.051-0.122,0.129-0.135,0.217c-0.013,0.088,0.01,0.177,0.065,0.247c0.034,0.043,0.054,0.104,0.065,0.167  c0.013,0.074,0.01,0.151-0.006,0.225l-0.005,0.021c-0.017,0.073-0.048,0.144-0.092,0.205c-0.037,0.053-0.082,0.098-0.131,0.123  c-0.079,0.039-0.139,0.11-0.165,0.194c-0.026,0.085-0.016,0.177,0.027,0.254c0.027,0.048,0.038,0.111,0.039,0.175  c0.002,0.075-0.012,0.151-0.04,0.221l-0.008,0.02c-0.028,0.07-0.069,0.135-0.121,0.189c-0.045,0.046-0.096,0.085-0.148,0.102  c-0.084,0.027-0.154,0.088-0.193,0.167c-0.038,0.08-0.042,0.172-0.011,0.255c0.019,0.051,0.021,0.115,0.013,0.179  c-0.01,0.075-0.035,0.148-0.072,0.213l-0.011,0.019c-0.038,0.065-0.088,0.123-0.148,0.169c-0.051,0.039-0.108,0.07-0.162,0.078  c-0.088,0.014-0.166,0.064-0.215,0.137s-0.068,0.164-0.049,0.25c0.012,0.053,0.004,0.117-0.014,0.179  c-0.021,0.073-0.056,0.141-0.103,0.2l-0.013,0.017c-0.047,0.059-0.106,0.109-0.172,0.145c-0.057,0.031-0.117,0.053-0.172,0.053  c-0.089,0.001-0.173,0.038-0.233,0.103s-0.091,0.152-0.086,0.24c0.004,0.054-0.014,0.116-0.04,0.175  c-0.031,0.069-0.077,0.131-0.132,0.182l-0.016,0.015c-0.055,0.051-0.121,0.092-0.191,0.118c-0.061,0.022-0.124,0.035-0.178,0.027  c-0.088-0.012-0.177,0.012-0.246,0.067c-0.069,0.055-0.113,0.137-0.12,0.225c-0.005,0.054-0.031,0.113-0.066,0.167  c-0.041,0.063-0.095,0.118-0.157,0.16l-0.018,0.012c-0.062,0.042-0.133,0.073-0.207,0.088c-0.063,0.013-0.127,0.016-0.18,0.001  c-0.085-0.025-0.177-0.014-0.253,0.03s-0.132,0.118-0.153,0.205c-0.013,0.053-0.047,0.107-0.09,0.155  c-0.05,0.056-0.112,0.102-0.18,0.135L12.685,16.6c-0.068,0.033-0.142,0.052-0.218,0.056c-0.064,0.003-0.128-0.003-0.178-0.026  c-0.08-0.038-0.173-0.041-0.255-0.008c-0.083,0.032-0.148,0.097-0.181,0.18c-0.02,0.051-0.063,0.099-0.112,0.14  c-0.058,0.048-0.126,0.085-0.198,0.107l-0.021,0.006c-0.072,0.022-0.148,0.03-0.224,0.023c-0.064-0.006-0.126-0.022-0.172-0.052  c-0.074-0.049-0.165-0.066-0.251-0.046s-0.161,0.074-0.206,0.151c-0.028,0.047-0.077,0.088-0.132,0.122  c-0.064,0.039-0.137,0.065-0.211,0.076l-0.021,0.003c-0.075,0.011-0.151,0.008-0.224-0.01c-0.063-0.016-0.122-0.041-0.162-0.078  c-0.066-0.06-0.153-0.09-0.241-0.083c-0.088,0.007-0.17,0.049-0.226,0.118c-0.034,0.042-0.089,0.076-0.149,0.101  c-0.07,0.029-0.145,0.044-0.22,0.044H9.06c-0.075,0-0.151-0.015-0.22-0.044c-0.06-0.025-0.114-0.058-0.149-0.101  c-0.056-0.069-0.138-0.112-0.226-0.118c-0.088-0.007-0.176,0.023-0.241,0.083c-0.04,0.037-0.1,0.062-0.162,0.078  c-0.073,0.018-0.15,0.022-0.224,0.01l-0.021-0.003c-0.075-0.011-0.147-0.037-0.211-0.076C7.549,17.218,7.5,17.177,7.472,17.13  c-0.045-0.076-0.12-0.131-0.206-0.151c-0.086-0.02-0.177-0.003-0.251,0.046c-0.045,0.03-0.108,0.046-0.172,0.052  c-0.075,0.007-0.151-0.001-0.224-0.023l-0.021-0.006c-0.072-0.022-0.14-0.059-0.198-0.107c-0.05-0.041-0.092-0.09-0.112-0.14  c-0.033-0.082-0.099-0.147-0.181-0.18c-0.083-0.032-0.175-0.029-0.255,0.008c-0.049,0.023-0.113,0.03-0.178,0.026  c-0.075-0.004-0.15-0.023-0.218-0.056l-0.019-0.009c-0.068-0.033-0.129-0.079-0.18-0.135c-0.043-0.048-0.078-0.102-0.09-0.155  c-0.021-0.086-0.076-0.16-0.153-0.205c-0.077-0.044-0.168-0.055-0.253-0.03c-0.052,0.016-0.117,0.013-0.18-0.001  c-0.074-0.015-0.145-0.045-0.207-0.088l-0.018-0.012c-0.062-0.042-0.116-0.097-0.157-0.16c-0.035-0.054-0.062-0.113-0.066-0.167  c-0.008-0.088-0.051-0.17-0.12-0.225c-0.069-0.055-0.158-0.08-0.246-0.067c-0.054,0.008-0.117-0.005-0.178-0.027  c-0.071-0.026-0.136-0.067-0.191-0.118l-0.016-0.015c-0.055-0.051-0.1-0.114-0.132-0.182c-0.027-0.059-0.044-0.121-0.041-0.175  c0.006-0.089-0.025-0.176-0.086-0.24c-0.06-0.065-0.145-0.102-0.233-0.103c-0.055-0.001-0.115-0.022-0.172-0.053  c-0.066-0.036-0.125-0.086-0.172-0.145L2.534,14.27c-0.047-0.059-0.082-0.127-0.103-0.2c-0.018-0.062-0.026-0.126-0.014-0.179  c0.019-0.087,0.001-0.177-0.049-0.251s-0.128-0.123-0.215-0.137c-0.054-0.009-0.11-0.039-0.162-0.078  c-0.06-0.046-0.11-0.104-0.148-0.169l-0.011-0.019c-0.038-0.065-0.063-0.138-0.072-0.213c-0.008-0.064-0.006-0.128,0.013-0.179  c0.031-0.083,0.028-0.175-0.011-0.255c-0.038-0.08-0.108-0.14-0.193-0.167c-0.052-0.017-0.103-0.055-0.148-0.102  c-0.052-0.054-0.094-0.119-0.121-0.189l-0.008-0.02c-0.028-0.07-0.041-0.146-0.04-0.221c0.001-0.065,0.013-0.128,0.039-0.175  c0.044-0.077,0.053-0.169,0.027-0.254s-0.086-0.155-0.166-0.194c-0.049-0.024-0.094-0.07-0.131-0.123  c-0.044-0.061-0.075-0.132-0.092-0.205l-0.005-0.021c-0.017-0.073-0.019-0.15-0.006-0.225c0.011-0.064,0.032-0.124,0.065-0.167  c0.055-0.07,0.078-0.159,0.065-0.247c-0.013-0.088-0.062-0.166-0.135-0.217C0.87,10.032,0.832,9.98,0.803,9.922  c-0.034-0.067-0.055-0.141-0.06-0.216L0.741,9.684C0.736,9.609,0.745,9.533,0.769,9.461c0.02-0.061,0.05-0.118,0.089-0.156  c0.064-0.061,0.101-0.146,0.101-0.234S0.922,8.897,0.858,8.836c-0.04-0.037-0.069-0.095-0.089-0.156  C0.745,8.609,0.736,8.533,0.741,8.458l0.002-0.022c0.006-0.075,0.026-0.149,0.06-0.216C0.832,8.162,0.87,8.11,0.915,8.079  C0.988,8.028,1.036,7.95,1.05,7.862c0.013-0.088-0.01-0.177-0.065-0.247C0.951,7.572,0.93,7.511,0.919,7.448  c-0.013-0.074-0.01-0.151,0.006-0.225l0.005-0.021c0.017-0.074,0.048-0.144,0.092-0.205C1.06,6.944,1.105,6.898,1.154,6.874  c0.079-0.039,0.139-0.11,0.166-0.194c0.026-0.085,0.016-0.177-0.027-0.254C1.265,6.379,1.254,6.315,1.253,6.251  C1.251,6.175,1.265,6.1,1.292,6.03L1.3,6.01c0.028-0.07,0.069-0.135,0.121-0.189C1.466,5.774,1.518,5.735,1.57,5.719  c0.084-0.027,0.154-0.088,0.193-0.167c0.038-0.08,0.042-0.172,0.011-0.255C1.754,5.245,1.752,5.181,1.76,5.117  c0.01-0.075,0.035-0.148,0.072-0.213l0.011-0.019C1.881,4.82,1.931,4.762,1.991,4.717c0.051-0.039,0.108-0.07,0.162-0.078  c0.088-0.014,0.165-0.064,0.215-0.137c0.05-0.073,0.068-0.164,0.049-0.25C2.406,4.197,2.413,4.134,2.431,4.072  c0.021-0.073,0.056-0.141,0.103-0.2l0.013-0.017C2.595,3.796,2.653,3.746,2.719,3.71c0.057-0.031,0.117-0.053,0.172-0.053  C2.98,3.656,3.064,3.618,3.124,3.553s0.091-0.152,0.085-0.24C3.206,3.258,3.224,3.196,3.25,3.138  c0.031-0.069,0.076-0.131,0.132-0.182l0.016-0.015C3.453,2.89,3.519,2.849,3.589,2.823c0.06-0.022,0.124-0.035,0.178-0.027  c0.088,0.012,0.177-0.012,0.246-0.067c0.069-0.055,0.113-0.137,0.12-0.225C4.138,2.449,4.164,2.391,4.2,2.337  c0.041-0.063,0.095-0.118,0.157-0.16l0.018-0.012c0.062-0.042,0.133-0.073,0.207-0.088c0.063-0.013,0.127-0.016,0.18-0.001  c0.085,0.025,0.177,0.014,0.253-0.03s0.132-0.118,0.153-0.205c0.013-0.053,0.047-0.107,0.09-0.155  c0.05-0.056,0.112-0.102,0.18-0.135l0.019-0.009c0.068-0.033,0.142-0.052,0.218-0.056c0.064-0.004,0.128,0.003,0.178,0.026  c0.08,0.038,0.173,0.041,0.255,0.008C6.19,1.487,6.255,1.422,6.289,1.34C6.309,1.29,6.351,1.241,6.401,1.2  c0.058-0.048,0.126-0.085,0.198-0.107l0.021-0.006c0.072-0.022,0.149-0.03,0.224-0.023C6.907,1.07,6.969,1.086,7.015,1.116  c0.074,0.049,0.165,0.066,0.251,0.046s0.161-0.074,0.206-0.151C7.5,0.965,7.549,0.923,7.604,0.89  c0.065-0.039,0.137-0.065,0.211-0.076l0.021-0.003c0.075-0.011,0.151-0.008,0.224,0.01c0.063,0.016,0.122,0.041,0.162,0.077  c0.066,0.06,0.153,0.09,0.241,0.083c0.088-0.007,0.17-0.049,0.226-0.118C8.725,0.821,8.78,0.787,8.84,0.763  c0.07-0.029,0.145-0.044,0.22-0.044h0.022c0.075,0,0.151,0.015,0.22,0.044c0.06,0.025,0.114,0.058,0.149,0.101  c0.056,0.069,0.138,0.112,0.226,0.118c0.088,0.007,0.176-0.023,0.241-0.083c0.04-0.037,0.1-0.062,0.162-0.077  c0.073-0.018,0.15-0.022,0.224-0.01l0.021,0.003c0.075,0.011,0.147,0.037,0.211,0.076c0.055,0.033,0.104,0.075,0.132,0.122  c0.045,0.076,0.12,0.131,0.206,0.151c0.086,0.02,0.177,0.003,0.251-0.046c0.045-0.03,0.108-0.046,0.172-0.052  c0.075-0.007,0.151,0.001,0.224,0.023l0.021,0.006c0.072,0.022,0.14,0.059,0.198,0.107c0.05,0.041,0.092,0.09,0.112,0.14  c0.033,0.082,0.099,0.147,0.181,0.18c0.083,0.032,0.175,0.029,0.255-0.008c0.049-0.023,0.113-0.03,0.178-0.026  c0.075,0.004,0.15,0.023,0.218,0.056l0.019,0.009c0.068,0.033,0.129,0.079,0.18,0.135c0.043,0.048,0.078,0.102,0.09,0.155  c0.021,0.086,0.076,0.16,0.153,0.205c0.077,0.044,0.169,0.055,0.253,0.03c0.052-0.016,0.117-0.013,0.18,0.001  c0.074,0.015,0.145,0.045,0.207,0.088l0.018,0.012c0.062,0.042,0.116,0.097,0.157,0.16c0.035,0.054,0.062,0.113,0.066,0.167  c0.008,0.088,0.051,0.17,0.12,0.225c0.069,0.055,0.158,0.08,0.246,0.067c0.054-0.008,0.117,0.005,0.178,0.027  c0.071,0.026,0.136,0.067,0.191,0.118l0.016,0.015c0.055,0.051,0.1,0.113,0.132,0.182c0.027,0.059,0.044,0.121,0.04,0.175  c-0.006,0.088,0.025,0.176,0.086,0.24c0.06,0.065,0.145,0.102,0.233,0.103c0.055,0.001,0.115,0.022,0.172,0.053  c0.066,0.036,0.125,0.086,0.172,0.145l0.013,0.017c0.047,0.059,0.082,0.127,0.103,0.2c0.018,0.062,0.026,0.126,0.014,0.179  c-0.019,0.087-0.001,0.177,0.049,0.251c0.05,0.073,0.128,0.123,0.215,0.137c0.054,0.009,0.11,0.039,0.162,0.078  c0.06,0.046,0.111,0.104,0.148,0.169l0.011,0.019c0.038,0.065,0.062,0.138,0.072,0.213c0.008,0.064,0.007,0.128-0.013,0.179  c-0.032,0.083-0.028,0.175,0.011,0.255c0.038,0.08,0.108,0.14,0.193,0.167c0.052,0.017,0.103,0.055,0.148,0.102  c0.052,0.054,0.094,0.119,0.121,0.189l0.008,0.02c0.028,0.07,0.041,0.146,0.04,0.221c-0.001,0.065-0.013,0.128-0.039,0.175  c-0.044,0.077-0.053,0.169-0.027,0.254s0.086,0.155,0.165,0.194c0.049,0.024,0.094,0.07,0.131,0.123  c0.044,0.061,0.075,0.132,0.092,0.205l0.005,0.021c0.017,0.073,0.019,0.15,0.006,0.225c-0.011,0.064-0.032,0.124-0.065,0.167  c-0.055,0.07-0.078,0.159-0.065,0.247c0.013,0.088,0.062,0.166,0.135,0.217c0.045,0.031,0.082,0.083,0.112,0.141  c0.034,0.067,0.055,0.141,0.06,0.216L17.4,8.458c0.006,0.075-0.004,0.151-0.027,0.223c-0.02,0.061-0.05,0.118-0.089,0.156  c-0.064,0.061-0.101,0.146-0.101,0.234c0,0.089,0.037,0.173,0.101,0.234c0.04,0.037,0.069,0.095,0.089,0.156  c0.024,0.072,0.033,0.148,0.027,0.223L17.399,9.706z" />
<g
   id="regler_00000020359864749613897390000014139060753222321340_"
   style="fill-opacity:1;fill:#f7f7f7;opacity:1;stroke:none;stroke-opacity:1">
	<rect
   x="7.796"
   y="0.959"
   class="st0"
   width="2.547"
   height="4.699"
   id="rect5"
   style="fill-opacity:1;fill:#f7f7f7;stroke:none;stroke-opacity:1" />
	<linearGradient
   id="SVGID_1_"
   gradientUnits="userSpaceOnUse"
   x1="9.0693"
   y1="2.2161"
   x2="9.0693"
   y2="0.9588"
   style="fill-opacity:1.0;fill:url(#linearGradient841)">
		<stop
   offset="0"
   style="stop-color:#F7F7F7;fill-opacity:1.0;fill:url(#linearGradient841)"
   id="stop7" />
		<stop
   offset="1"
   style="stop-color:#808080;fill-opacity:1.0;fill:url(#linearGradient841)"
   id="stop9" />
	</linearGradient>
	<rect
   x="7.796"
   y="0.959"
   class="st1"
   width="2.547"
   height="1.257"
   id="rect12"
   style="fill-opacity:1;fill:#f7f7f7;stroke:none;stroke-opacity:1" />
</g>
</svg>
