<?xml version="1.0" encoding="utf-8"?>
<!-- Generator: Adobe Illustrator 26.0.3, SVG Export Plug-In . SVG Version: 6.00 Build 0)  -->
<svg version="1.1" id="Ebene_1" xmlns="http://www.w3.org/2000/svg" xmlns:xlink="http://www.w3.org/1999/xlink" x="0px" y="0px"
	 viewBox="0 0 59.528 59.528" style="enable-background:new 0 0 59.528 59.528;" xml:space="preserve">
<style type="text/css">
	.st0{display:none;opacity:0;fill:#008200;}
</style>
<circle class="st0" cx="29.764" cy="29.764" r="29.764"/>
<path d="M28.815,7.519c0.022-0.001,0.039-0.02,0.038-0.042l0-0.004c-0.001-0.042,0.178-0.365,0.313-0.6
	c0.087-0.152,0.249-0.247,0.425-0.247h0.345c0.176,0,0.338,0.094,0.425,0.247c0.135,0.236,0.314,0.558,0.313,0.6l0,0.004
	c-0.001,0.022,0.016,0.041,0.038,0.042l0.899,0.056c0.022,0.001,0.041-0.015,0.043-0.037l0-0.004
	c0.004-0.042,0.222-0.339,0.386-0.556c0.106-0.14,0.278-0.213,0.453-0.191l0.343,0.043c0.174,0.022,0.323,0.136,0.391,0.298
	c0.104,0.251,0.242,0.593,0.235,0.635L33.46,7.767c-0.004,0.022,0.011,0.042,0.032,0.046l0.884,0.169
	c0.022,0.004,0.042-0.01,0.047-0.031l0.001-0.004c0.009-0.041,0.263-0.309,0.452-0.503C35,7.317,35.18,7.266,35.351,7.309
	l0.335,0.086c0.17,0.044,0.304,0.175,0.35,0.345c0.072,0.262,0.166,0.619,0.154,0.659l-0.001,0.004
	c-0.006,0.021,0.005,0.043,0.026,0.05l0.856,0.278c0.021,0.007,0.043-0.004,0.051-0.025l0.001-0.004
	c0.014-0.04,0.3-0.274,0.512-0.443c0.137-0.11,0.323-0.138,0.486-0.073l0.321,0.127c0.163,0.065,0.279,0.212,0.304,0.386
	c0.039,0.269,0.087,0.635,0.07,0.673l-0.002,0.004c-0.009,0.02,0,0.043,0.02,0.053l0.815,0.383c0.02,0.009,0.043,0.001,0.053-0.019
	l0.002-0.004c0.019-0.037,0.332-0.234,0.563-0.375c0.15-0.092,0.337-0.096,0.491-0.011l0.303,0.166
	c0.154,0.085,0.251,0.245,0.254,0.421c0.005,0.271,0.007,0.641-0.015,0.677l-0.002,0.004c-0.011,0.019-0.006,0.043,0.013,0.055
	l0.76,0.482c0.018,0.012,0.043,0.007,0.055-0.012l0.002-0.004c0.023-0.035,0.358-0.19,0.606-0.302
	c0.16-0.072,0.347-0.053,0.489,0.05l0.279,0.203c0.142,0.103,0.218,0.275,0.199,0.449c-0.029,0.27-0.074,0.637-0.1,0.67L43.6,12.268
	c-0.014,0.017-0.011,0.042,0.006,0.056l0.694,0.574c0.017,0.014,0.042,0.012,0.056-0.005l0.003-0.003
	c0.028-0.031,0.379-0.144,0.639-0.223c0.168-0.051,0.351-0.009,0.479,0.111l0.252,0.237c0.128,0.12,0.182,0.3,0.141,0.471
	c-0.063,0.264-0.153,0.622-0.183,0.652l-0.003,0.003c-0.016,0.015-0.016,0.04-0.001,0.056l0.616,0.656
	c0.015,0.016,0.04,0.017,0.056,0.002l0.003-0.003c0.031-0.028,0.394-0.095,0.662-0.141c0.173-0.03,0.349,0.035,0.461,0.17
	l0.22,0.266c0.112,0.135,0.143,0.32,0.081,0.485c-0.096,0.254-0.23,0.598-0.263,0.624l-0.004,0.003
	c-0.017,0.013-0.021,0.038-0.008,0.056l0.529,0.729c0.013,0.018,0.038,0.022,0.056,0.009l0.004-0.002
	c0.034-0.024,0.403-0.045,0.674-0.057c0.175-0.008,0.342,0.078,0.436,0.227l0.185,0.292c0.094,0.148,0.101,0.336,0.019,0.491
	c-0.127,0.24-0.303,0.565-0.339,0.586l-0.004,0.002c-0.019,0.011-0.026,0.035-0.015,0.054l0.434,0.789
	c0.011,0.019,0.035,0.026,0.054,0.016l0.004-0.002c0.037-0.019,0.406,0.006,0.676,0.028c0.175,0.014,0.329,0.121,0.404,0.28
	l0.147,0.313c0.075,0.159,0.059,0.346-0.042,0.49c-0.156,0.222-0.371,0.522-0.41,0.539l-0.004,0.002
	c-0.02,0.009-0.03,0.032-0.022,0.052l0.331,0.837c0.008,0.02,0.031,0.031,0.052,0.023l0.004-0.002
	c0.039-0.014,0.402,0.057,0.667,0.112c0.172,0.036,0.312,0.161,0.366,0.328l0.107,0.329c0.054,0.167,0.015,0.351-0.103,0.481
	c-0.182,0.201-0.434,0.472-0.474,0.483l-0.004,0.001c-0.021,0.006-0.034,0.028-0.028,0.049l0.224,0.872
	c0.006,0.021,0.027,0.034,0.048,0.029l0.004-0.001c0.041-0.009,0.391,0.107,0.648,0.195c0.166,0.057,0.289,0.199,0.322,0.371
	l0.065,0.339c0.033,0.172-0.029,0.349-0.163,0.464c-0.206,0.177-0.489,0.414-0.531,0.42l-0.004,0.001
	c-0.022,0.003-0.037,0.023-0.034,0.045l0.113,0.893c0.003,0.022,0.022,0.037,0.044,0.035l0.004,0
	c0.042-0.004,0.375,0.155,0.619,0.275c0.158,0.078,0.262,0.233,0.273,0.409l0.022,0.345c0.011,0.175-0.073,0.343-0.219,0.44
	c-0.227,0.149-0.537,0.349-0.579,0.35l-0.004,0c-0.022,0-0.039,0.018-0.039,0.04v0.9c0,0.022,0.017,0.04,0.039,0.04h0.004
	c0.042,0.001,0.353,0.201,0.579,0.35c0.147,0.097,0.23,0.264,0.219,0.44l-0.022,0.345c-0.011,0.175-0.115,0.331-0.273,0.409
	c-0.244,0.12-0.577,0.279-0.619,0.275l-0.004,0c-0.022-0.002-0.042,0.013-0.044,0.035L51.792,33
	c-0.003,0.022,0.012,0.042,0.034,0.045l0.004,0.001c0.041,0.006,0.325,0.243,0.531,0.42c0.133,0.114,0.196,0.291,0.163,0.464
	l-0.065,0.339c-0.033,0.173-0.156,0.314-0.322,0.371c-0.257,0.088-0.607,0.204-0.648,0.195l-0.004-0.001
	c-0.021-0.005-0.043,0.008-0.048,0.029l-0.224,0.872c-0.006,0.021,0.007,0.043,0.028,0.049l0.004,0.001
	c0.04,0.011,0.292,0.282,0.474,0.483c0.118,0.13,0.158,0.313,0.103,0.481l-0.107,0.328c-0.054,0.167-0.194,0.292-0.366,0.328
	c-0.266,0.056-0.628,0.127-0.667,0.112l-0.004-0.001c-0.021-0.008-0.043,0.003-0.052,0.023l-0.331,0.837
	c-0.008,0.02,0.002,0.043,0.022,0.052l0.004,0.002c0.039,0.016,0.254,0.316,0.41,0.539c0.101,0.144,0.117,0.331,0.042,0.49
	l-0.147,0.312c-0.075,0.159-0.229,0.266-0.404,0.28c-0.271,0.022-0.639,0.047-0.676,0.028l-0.004-0.002
	c-0.019-0.01-0.043-0.003-0.054,0.016l-0.434,0.789c-0.011,0.019-0.004,0.043,0.015,0.054l0.004,0.002
	c0.036,0.021,0.212,0.346,0.339,0.586c0.082,0.155,0.075,0.343-0.019,0.491l-0.185,0.292c-0.094,0.148-0.261,0.235-0.436,0.227
	c-0.271-0.012-0.64-0.034-0.674-0.057l-0.004-0.003c-0.018-0.012-0.043-0.008-0.056,0.009l-0.529,0.728
	c-0.013,0.018-0.009,0.043,0.008,0.056l0.004,0.003c0.033,0.025,0.167,0.37,0.263,0.624c0.062,0.164,0.031,0.349-0.081,0.485
	l-0.22,0.266c-0.112,0.135-0.288,0.2-0.461,0.17c-0.267-0.046-0.631-0.114-0.662-0.141l-0.003-0.003
	c-0.016-0.015-0.041-0.014-0.056,0.002l-0.616,0.656c-0.015,0.016-0.014,0.041,0.001,0.056l0.003,0.003
	c0.03,0.029,0.12,0.388,0.183,0.652c0.041,0.171-0.013,0.351-0.141,0.471l-0.252,0.236c-0.128,0.12-0.311,0.163-0.479,0.111
	c-0.26-0.079-0.611-0.192-0.639-0.223l-0.003-0.003c-0.014-0.017-0.039-0.019-0.056-0.005l-0.694,0.574
	c-0.017,0.014-0.02,0.039-0.006,0.056l0.003,0.004c0.026,0.033,0.07,0.4,0.1,0.669c0.019,0.175-0.057,0.346-0.199,0.449
	l-0.279,0.203c-0.142,0.103-0.329,0.122-0.489,0.05c-0.248-0.111-0.583-0.267-0.606-0.302l-0.002-0.004
	c-0.012-0.018-0.037-0.023-0.055-0.012l-0.76,0.483c-0.019,0.012-0.024,0.036-0.013,0.055l0.002,0.004
	c0.021,0.036,0.02,0.405,0.015,0.677c-0.003,0.176-0.1,0.336-0.254,0.421l-0.303,0.166c-0.154,0.085-0.341,0.08-0.491-0.011
	c-0.232-0.141-0.545-0.338-0.563-0.375l-0.002-0.004c-0.01-0.02-0.033-0.028-0.053-0.019l-0.815,0.383
	c-0.02,0.009-0.029,0.033-0.02,0.053l0.002,0.004c0.017,0.038-0.031,0.404-0.07,0.673c-0.025,0.174-0.141,0.321-0.304,0.386
	l-0.321,0.127c-0.163,0.065-0.349,0.037-0.486-0.073c-0.212-0.169-0.498-0.403-0.512-0.443l-0.001-0.004
	c-0.007-0.021-0.03-0.032-0.051-0.025l-0.856,0.278c-0.021,0.007-0.032,0.029-0.026,0.05l0.001,0.004
	c0.012,0.04-0.082,0.397-0.154,0.659c-0.047,0.169-0.18,0.301-0.35,0.345l-0.335,0.086c-0.17,0.044-0.351-0.007-0.473-0.133
	c-0.189-0.195-0.444-0.463-0.452-0.503l-0.001-0.004c-0.005-0.021-0.025-0.035-0.047-0.031l-0.884,0.169
	c-0.022,0.004-0.036,0.025-0.032,0.046l0.001,0.004c0.007,0.041-0.131,0.384-0.235,0.635c-0.068,0.162-0.217,0.276-0.391,0.298
	l-0.343,0.043c-0.174,0.022-0.347-0.051-0.453-0.191c-0.163-0.217-0.382-0.515-0.386-0.556l0-0.004
	c-0.002-0.022-0.021-0.038-0.043-0.037l-0.899,0.056c-0.022,0.001-0.039,0.02-0.038,0.042l0,0.004
	c0.001,0.042-0.178,0.365-0.313,0.6c-0.087,0.152-0.249,0.247-0.425,0.247h-0.345c-0.176,0-0.338-0.094-0.425-0.247
	c-0.135-0.236-0.314-0.558-0.313-0.6l0-0.004c0.001-0.022-0.016-0.041-0.038-0.042l-0.899-0.056
	c-0.022-0.001-0.041,0.015-0.043,0.037l0,0.004c-0.004,0.042-0.222,0.339-0.386,0.556c-0.106,0.14-0.278,0.213-0.453,0.191
	l-0.343-0.043c-0.174-0.022-0.323-0.136-0.391-0.298c-0.104-0.251-0.242-0.593-0.235-0.635l0.001-0.004
	c0.004-0.022-0.011-0.042-0.032-0.046l-0.884-0.169c-0.022-0.004-0.042,0.01-0.047,0.031l-0.001,0.004
	c-0.009,0.041-0.263,0.309-0.452,0.503c-0.122,0.126-0.303,0.177-0.473,0.133l-0.335-0.086c-0.17-0.044-0.304-0.175-0.35-0.345
	c-0.072-0.262-0.166-0.619-0.154-0.659l0.001-0.004c0.006-0.021-0.005-0.043-0.026-0.05l-0.856-0.278
	c-0.021-0.007-0.043,0.004-0.051,0.025l-0.001,0.004c-0.014,0.039-0.3,0.273-0.512,0.443c-0.137,0.11-0.323,0.138-0.486,0.073
	l-0.321-0.127c-0.163-0.065-0.279-0.212-0.304-0.386c-0.039-0.269-0.087-0.635-0.07-0.673l0.002-0.004
	c0.009-0.02,0-0.044-0.02-0.053l-0.815-0.383c-0.02-0.009-0.043-0.001-0.053,0.019l-0.002,0.004
	c-0.019,0.037-0.332,0.234-0.563,0.375c-0.15,0.092-0.337,0.096-0.491,0.011l-0.303-0.166c-0.154-0.085-0.251-0.245-0.254-0.421
	c-0.005-0.271-0.007-0.641,0.015-0.677l0.002-0.004c0.011-0.019,0.006-0.043-0.013-0.055l-0.76-0.483
	c-0.018-0.012-0.043-0.007-0.055,0.012l-0.002,0.004c-0.023,0.035-0.358,0.19-0.606,0.302c-0.16,0.072-0.347,0.053-0.489-0.05
	l-0.279-0.203c-0.142-0.103-0.218-0.275-0.199-0.449c0.029-0.27,0.074-0.637,0.099-0.669l0.003-0.004
	c0.014-0.017,0.011-0.042-0.006-0.056l-0.694-0.574c-0.017-0.014-0.042-0.012-0.056,0.005l-0.003,0.003
	c-0.027,0.032-0.379,0.144-0.639,0.223c-0.168,0.051-0.351,0.009-0.479-0.111l-0.252-0.236c-0.128-0.12-0.182-0.3-0.141-0.471
	c0.063-0.264,0.153-0.622,0.183-0.652l0.003-0.003c0.016-0.015,0.016-0.04,0.001-0.056l-0.616-0.656
	c-0.015-0.016-0.04-0.017-0.056-0.002l-0.003,0.003c-0.031,0.028-0.394,0.095-0.662,0.141c-0.173,0.03-0.349-0.035-0.461-0.17
	l-0.22-0.266c-0.112-0.135-0.143-0.32-0.081-0.485c0.095-0.254,0.23-0.598,0.263-0.624l0.004-0.003
	c0.017-0.013,0.021-0.038,0.008-0.056l-0.529-0.728c-0.013-0.018-0.038-0.022-0.056-0.009l-0.004,0.003
	c-0.034,0.024-0.403,0.045-0.674,0.057c-0.175,0.008-0.342-0.079-0.436-0.227l-0.185-0.292c-0.094-0.148-0.101-0.336-0.019-0.491
	c0.127-0.24,0.303-0.565,0.339-0.586l0.004-0.002c0.019-0.011,0.026-0.035,0.015-0.054l-0.434-0.789
	c-0.01-0.019-0.035-0.027-0.054-0.016l-0.004,0.002c-0.037,0.019-0.406-0.006-0.676-0.028c-0.175-0.014-0.329-0.121-0.404-0.28
	l-0.147-0.312C8.68,39.3,8.696,39.113,8.797,38.97c0.156-0.222,0.371-0.522,0.41-0.539l0.004-0.002
	c0.02-0.009,0.03-0.032,0.022-0.052L8.901,37.54c-0.008-0.02-0.031-0.031-0.052-0.023l-0.004,0.001
	c-0.039,0.014-0.402-0.057-0.667-0.112c-0.172-0.036-0.312-0.161-0.366-0.328L7.705,36.75c-0.054-0.167-0.015-0.351,0.103-0.481
	c0.182-0.201,0.434-0.472,0.474-0.483l0.004-0.001c0.021-0.006,0.034-0.028,0.028-0.049l-0.224-0.872
	c-0.005-0.021-0.027-0.034-0.048-0.029l-0.004,0.001c-0.041,0.009-0.391-0.107-0.648-0.195c-0.166-0.057-0.289-0.199-0.322-0.371
	L7.003,33.93c-0.033-0.173,0.029-0.349,0.163-0.464c0.206-0.177,0.489-0.414,0.531-0.42l0.004-0.001
	C7.723,33.042,7.738,33.022,7.735,33l-0.113-0.893C7.62,32.085,7.6,32.07,7.578,32.072l-0.004,0
	c-0.042,0.004-0.375-0.155-0.619-0.275c-0.158-0.077-0.262-0.233-0.273-0.409l-0.022-0.345c-0.011-0.175,0.073-0.343,0.219-0.44
	c0.227-0.149,0.537-0.349,0.579-0.35h0.004c0.022,0,0.039-0.018,0.039-0.04v-0.9c0-0.022-0.017-0.04-0.039-0.04l-0.004,0
	c-0.042-0.001-0.353-0.201-0.579-0.35c-0.147-0.097-0.23-0.265-0.219-0.44l0.022-0.345c0.011-0.175,0.115-0.331,0.273-0.409
	c0.244-0.12,0.577-0.279,0.619-0.275l0.004,0C7.6,27.458,7.62,27.442,7.622,27.42l0.113-0.893c0.003-0.022-0.012-0.042-0.034-0.045
	l-0.004-0.001c-0.041-0.006-0.325-0.243-0.531-0.42c-0.133-0.114-0.196-0.291-0.163-0.464l0.065-0.339
	c0.033-0.172,0.156-0.314,0.322-0.371c0.257-0.088,0.607-0.204,0.648-0.195l0.004,0.001c0.021,0.005,0.043-0.008,0.048-0.029
	l0.224-0.872c0.005-0.021-0.007-0.043-0.028-0.049l-0.004-0.001c-0.04-0.011-0.292-0.282-0.474-0.483
	c-0.118-0.13-0.158-0.313-0.103-0.481l0.107-0.329c0.054-0.167,0.194-0.292,0.366-0.328c0.266-0.056,0.628-0.127,0.667-0.112
	l0.004,0.002c0.021,0.008,0.043-0.003,0.052-0.023l0.331-0.837c0.008-0.02-0.002-0.044-0.022-0.052l-0.004-0.002
	c-0.038-0.016-0.254-0.316-0.41-0.539c-0.101-0.144-0.117-0.331-0.042-0.49l0.147-0.313c0.075-0.159,0.229-0.266,0.404-0.28
	c0.271-0.022,0.639-0.047,0.676-0.028l0.004,0.002c0.019,0.01,0.043,0.003,0.054-0.016l0.434-0.789
	c0.011-0.019,0.004-0.043-0.015-0.054l-0.004-0.002c-0.036-0.021-0.212-0.346-0.339-0.586c-0.082-0.156-0.075-0.343,0.019-0.491
	l0.185-0.292c0.094-0.148,0.261-0.235,0.436-0.227c0.271,0.012,0.64,0.034,0.674,0.057l0.004,0.002
	c0.018,0.013,0.043,0.008,0.056-0.009l0.529-0.729c0.013-0.018,0.009-0.042-0.008-0.056l-0.004-0.003
	c-0.033-0.025-0.167-0.37-0.263-0.624c-0.062-0.165-0.031-0.349,0.081-0.485l0.22-0.266c0.112-0.135,0.288-0.2,0.461-0.17
	c0.267,0.046,0.631,0.114,0.662,0.141l0.003,0.003c0.016,0.015,0.041,0.014,0.056-0.002l0.616-0.656
	c0.015-0.016,0.014-0.041-0.001-0.056l-0.003-0.003c-0.03-0.03-0.12-0.388-0.183-0.652c-0.041-0.171,0.013-0.351,0.141-0.471
	l0.252-0.237c0.128-0.12,0.311-0.163,0.479-0.111c0.26,0.079,0.612,0.192,0.639,0.223l0.003,0.003
	c0.014,0.017,0.039,0.019,0.056,0.005l0.694-0.574c0.017-0.014,0.02-0.039,0.006-0.056l-0.003-0.003
	c-0.026-0.033-0.07-0.4-0.099-0.67c-0.019-0.175,0.057-0.346,0.199-0.449l0.279-0.203c0.142-0.103,0.329-0.122,0.489-0.05
	c0.248,0.111,0.583,0.267,0.606,0.302l0.002,0.004c0.012,0.018,0.037,0.024,0.055,0.012l0.76-0.482
	c0.018-0.012,0.024-0.036,0.013-0.055l-0.002-0.004c-0.021-0.036-0.02-0.405-0.015-0.677c0.003-0.176,0.1-0.336,0.254-0.421
	l0.303-0.166c0.154-0.085,0.341-0.08,0.491,0.011c0.232,0.141,0.545,0.338,0.563,0.375l0.002,0.004
	c0.01,0.02,0.034,0.028,0.053,0.019l0.815-0.383c0.02-0.009,0.029-0.033,0.02-0.053l-0.002-0.004
	c-0.017-0.038,0.031-0.405,0.07-0.673c0.025-0.174,0.141-0.321,0.304-0.386l0.321-0.127c0.163-0.065,0.349-0.037,0.486,0.073
	c0.212,0.169,0.498,0.403,0.512,0.443l0.001,0.004c0.007,0.021,0.03,0.032,0.051,0.025l0.856-0.278
	c0.021-0.007,0.032-0.029,0.026-0.05l-0.001-0.004c-0.012-0.04,0.082-0.397,0.154-0.659c0.047-0.169,0.18-0.301,0.35-0.345
	l0.335-0.086c0.17-0.044,0.351,0.007,0.473,0.133c0.189,0.195,0.444,0.463,0.452,0.503l0.001,0.004
	c0.005,0.021,0.025,0.035,0.047,0.031l0.884-0.169c0.022-0.004,0.036-0.025,0.032-0.046l-0.001-0.004
	c-0.007-0.041,0.131-0.384,0.235-0.635c0.068-0.162,0.217-0.276,0.391-0.298l0.343-0.043c0.174-0.022,0.347,0.051,0.453,0.191
	c0.163,0.217,0.382,0.515,0.386,0.556l0,0.004c0.002,0.022,0.021,0.038,0.043,0.037L28.815,7.519z M9.855,29.764
	c0,10.995,8.913,19.909,19.909,19.909c10.995,0,19.908-8.913,19.908-19.909S40.759,9.855,29.764,9.855
	C18.769,9.855,9.855,18.768,9.855,29.764z"/>
<rect x="27.995" y="11.806" width="3.537" height="14.995"/>
<circle cx="29.819" cy="3.417" r="1.664"/>
</svg>
