<?xml version="1.0" encoding="UTF-8" standalone="no"?>
<!-- Created with Inkscape (http://www.inkscape.org/) -->

<svg
   width="36mm"
   height="36mm"
   viewBox="0 0 36 36"
   version="1.1"
   id="svg1"
   inkscape:version="1.4 (86a8ad7, 2024-10-11)"
   sodipodi:docname="flying_saucer_skirt_knob.svg"
   xmlns:inkscape="http://www.inkscape.org/namespaces/inkscape"
   xmlns:sodipodi="http://sodipodi.sourceforge.net/DTD/sodipodi-0.dtd"
   xmlns="http://www.w3.org/2000/svg"
   xmlns:svg="http://www.w3.org/2000/svg">
  <sodipodi:namedview
     id="namedview1"
     pagecolor="#ffffff"
     bordercolor="#000000"
     borderopacity="0.25"
     inkscape:showpageshadow="2"
     inkscape:pageopacity="0.0"
     inkscape:pagecheckerboard="0"
     inkscape:deskcolor="#d1d1d1"
     inkscape:document-units="mm"
     inkscape:zoom="6.5459876"
     inkscape:cx="31.164129"
     inkscape:cy="50.641709"
     inkscape:window-width="3840"
     inkscape:window-height="2054"
     inkscape:window-x="2869"
     inkscape:window-y="-11"
     inkscape:window-maximized="1"
     inkscape:current-layer="layer1"
     showgrid="false" />
  <defs
     id="defs1">
    <linearGradient
       id="SVGID_5_"
       gradientUnits="userSpaceOnUse"
       x1="22.40033"
       y1="36.317429"
       x2="22.40033"
       y2="8.4833899"
       gradientTransform="matrix(0.23137114,0,0,0.23137114,76.306995,109.61883)">
      <stop
         offset="0.00559"
         style="stop-color:#F2F2F2"
         id="stop9" />
      <stop
         offset="1"
         style="stop-color:#D6D6D6"
         id="stop10" />
    </linearGradient>
    <linearGradient
       id="SVGID_5_-1"
       gradientUnits="userSpaceOnUse"
       x1="22.40033"
       y1="36.317429"
       x2="22.40033"
       y2="8.4833899"
       gradientTransform="matrix(0.11680083,0,0,0.11655484,93.328832,126.67721)">
      <stop
         offset="0.00559"
         style="stop-color:#F2F2F2"
         id="stop9-7" />
      <stop
         offset="1"
         style="stop-color:#D6D6D6"
         id="stop10-1" />
    </linearGradient>
  </defs>
  <g
     inkscape:label="Layer 1"
     inkscape:groupmode="layer"
     id="layer1"
     transform="translate(-72.269558,-104.39402)">
    <g
       id="g14"
       transform="matrix(0.45790544,0,0,0.45790558,39.176936,56.591415)"
       style="stroke-width:2.18386">
      <path
         id="path3"
         style="fill:#1a1a1a;stroke-width:0.218385;-inkscape-stroke:none"
         d="m 110.26611,119.57306 c -0.11437,-0.0104 -0.26084,-0.0104 -0.4501,0.003 -1.51582,0.11077 -0.18807,0.69352 -1.69137,0.91726 -1.5033,0.22373 -0.40279,-0.72044 -1.88516,-0.38499 -1.48239,0.33545 -0.0822,0.71381 -1.53531,1.1591 -1.45316,0.4453 -0.50602,-0.65192 -1.92184,-0.0992 -1.41582,0.55264 0.0254,0.71718 -1.34513,1.37408 -1.37056,0.6569 -0.59749,-0.56939 -1.915133,0.1881 -1.31764,0.75749 0.131847,0.70627 -1.125513,1.56011 -1.25735,0.85383 -0.675489,-0.47412 -1.865519,0.47129 -1.19003,0.9454 0.234967,0.67879 -0.881083,1.71049 -1.116047,1.0317 -0.738215,-0.36858 -1.774052,0.74363 -1.03583,1.11222 0.333837,0.63612 -0.615983,1.82263 -0.94982,1.18652 -0.784811,-0.25425 -1.643311,0.99993 -0.85849,1.25418 0.424923,0.57964 -0.337447,1.89446 -0.76237,1.31483 -0.814415,-0.13459 -1.476395,1.23352 -0.661987,1.36812 0.50681,0.50964 -0.05116,1.9234 -0.557897,1.41377 -0.825211,-0.0113 -1.275891,1.44022 -0.45068,1.45151 0.576594,0.42831 0.235644,1.90944 -0.34094,1.48111 -0.817654,0.1114 -1.046964,1.61386 -0.22931,1.50247 0.634188,0.33721 0.517798,1.8526 -0.11639,1.5154 -0.791447,0.23248 -0.794267,1.75234 -0.003,1.51986 0.677296,0.23963 0.788066,1.75545 0.11076,1.51582 -0.748763,0.34775 -0.525033,1.85105 0.22374,1.5033 0.70583,0.13511 1.04128,1.61748 0.33546,1.48238 -0.688686,0.45525 -0.243396,1.90841 0.44529,1.45317 0.718087,0.0291 1.270724,1.44487 0.55264,1.41583 -0.612366,0.55283 0.04444,1.9234 0.6569,1.37056 0.713738,-0.0784 1.471228,1.2392 0.75749,1.31764 -0.523101,0.63813 0.330729,1.89549 0.85384,1.25735 0.694284,-0.1839 1.639694,1.00614 0.94541,1.19003 -0.422435,0.70863 0.609265,1.82469 1.031697,1.11605 0.659251,-0.2855 1.771468,0.75034 1.11222,1.03582 -0.312145,0.76428 0.874365,1.71411 1.18652,0.94982 0.609789,-0.38049 1.863969,0.47801 1.25418,0.85849 -0.195002,0.80188 1.119828,1.56424 1.314829,0.76238 0.545978,-0.46716 1.914099,0.19482 1.36811,0.66198 -0.0738,0.82188 1.33997,1.37977 1.41376,0.55789 0.47086,-0.54323 1.92235,-0.0925 1.4515,0.45067 0.05,0.82384 1.53118,1.16479 1.48113,0.34094 0.38373,-0.60706 1.88619,-0.37775 1.50246,0.22931 0.17235,0.80655 1.68775,0.92294 1.51539,0.11639 0.28934,-0.65704 1.80919,-0.65423 1.51985,0.003 0.29079,0.77171 1.80661,0.66095 1.51582,-0.11077 0.18806,-0.693 1.69137,-0.91674 1.5033,-0.22374 0.40227,0.71992 1.88464,0.38447 1.48238,-0.33545 0.0827,-0.7133 1.53583,-1.15859 1.45317,-0.44529 0.50551,0.65192 1.92133,0.0992 1.41584,-0.55264 -0.025,-0.71768 1.34565,-1.37459 1.37056,-0.65689 0.59697,0.5699 1.91462,-0.18759 1.31764,-0.75748 -0.13132,-0.70628 1.12603,-1.56011 1.25735,-0.85384 0.6755,0.47412 1.86552,-0.47129 1.19004,-0.94542 -0.23548,-0.6788 0.88056,-1.71049 1.11605,-1.0317 0.73874,0.3686 1.77457,-0.74362 1.03584,-1.11222 -0.33435,-0.63664 0.61547,-1.82315 0.94982,-1.18652 0.78533,0.25425 1.64383,-0.99993 0.85849,-1.25417 -0.42491,-0.57912 0.33745,-1.89395 0.76237,-1.31482 0.81441,0.13409 1.47639,-1.23403 0.66199,-1.36812 -0.50671,-0.50911 0.0512,-1.92288 0.55789,-1.41377 0.82521,0.0113 1.27589,-1.44022 0.45068,-1.4515 -0.57658,-0.42833 -0.23564,-1.90945 0.34095,-1.48112 0.81714,-0.1114 1.04645,-1.61385 0.22931,-1.50247 -0.63419,-0.3372 -0.5178,-1.8526 0.11639,-1.51539 0.79196,-0.2325 0.79478,-1.75235 0.003,-1.51986 -0.67728,-0.23963 -0.78806,-1.75545 -0.11076,-1.51582 0.74825,-0.34775 0.52451,-1.85105 -0.22373,-1.5033 -0.70532,-0.13561 -1.04076,-1.61799 -0.33545,-1.48238 0.68817,-0.45525 0.24288,-1.90841 -0.4453,-1.45317 -0.71808,-0.0285 -1.27073,-1.44435 -0.55263,-1.41582 0.61301,-0.55283 -0.0439,-1.9234 -0.65689,-1.37057 -0.71426,0.0784 -1.47174,-1.2392 -0.75749,-1.31765 0.52311,-0.63814 -0.33073,-1.89549 -0.85384,-1.25735 -0.69376,0.18389 -1.63918,-1.00614 -0.9454,-1.19002 0.42244,-0.70865 -0.60926,-1.8247 -1.0317,-1.11604 -0.65977,0.28549 -1.77199,-0.75034 -1.11222,-1.03584 0.31215,-0.7643 -0.87436,-1.71411 -1.18651,-0.94982 -0.60928,0.38049 -1.86346,-0.478 -1.25417,-0.8585 0.195,-0.80188 -1.11983,-1.56425 -1.31483,-0.76237 -0.54597,0.46664 -1.91409,-0.19534 -1.36812,-0.66198 0.0728,-0.82135 -1.34101,-1.37924 -1.41377,-0.55789 -0.46983,0.54322 -1.92133,0.0925 -1.4515,-0.45068 -0.05,-0.82384 -1.53117,-1.16479 -1.48113,-0.34094 -0.38425,0.60707 -1.88671,0.37776 -1.50246,-0.22931 -0.17235,-0.80655 -1.68775,-0.92294 -1.51539,-0.11639 -0.28882,0.65704 -1.80868,0.65422 -1.32952,-0.002 -0.55603,-0.5912 -1.35599,-0.66456 z m 1.3131,3.98736 a 20.142977,20.142977 0 0 1 20.14297,20.14295 20.142977,20.142977 0 0 1 -20.14297,20.14296 20.142977,20.142977 0 0 1 -20.143471,-20.14296 20.142977,20.142977 0 0 1 20.143471,-20.14295 z m -21.12429,19.53162 a 21.172056,21.915154 0 0 0 -0.04496,0.65164 21.172147,21.172147 0 0 1 -0.0031,-0.0403 21.172147,21.172147 0 0 1 0.04806,-0.61133 z m 42.29304,0.57464 a 21.172147,21.172147 0 0 1 0.003,0.0367 21.172147,21.172147 0 0 1 -0.001,0.0408 21.172056,21.915154 0 0 0 -0.002,-0.0775 z" />
      <path
         sodipodi:type="star"
         style="fill:#1a1a1a;fill-opacity:1;stroke-width:0.410123;-inkscape-stroke:none"
         id="path9"
         inkscape:flatsided="true"
         sodipodi:sides="3"
         sodipodi:cx="67.702095"
         sodipodi:cy="107.11078"
         sodipodi:r1="10.668515"
         sodipodi:r2="2.5384552"
         sodipodi:arg1="-0.12153547"
         sodipodi:arg2="0.92566212"
         inkscape:rounded="0"
         inkscape:randomized="0"
         d="M 78.291916,105.81737 63.527314,116.92854 61.287056,98.586432 Z"
         inkscape:transform-center-x="0.13942897"
         inkscape:transform-center-y="-1.0798149"
         transform="matrix(0.04480144,-0.76690627,0.36421289,0.09433634,69.477428,158.32117)" />
    </g>
  </g>
</svg>
