<?xml version="1.0" encoding="UTF-8" standalone="no"?>
<!-- Created with Inkscape (http://www.inkscape.org/) -->

<svg
   version="1.1"
   id="svg1510"
   width="23"
   height="23"
   viewBox="0 0 606 609"
   sodipodi:docname="input-port-simplified2.svg"
   inkscape:version="1.1.1 (3bf5ae0d25, 2021-09-20)"
   xmlns:inkscape="http://www.inkscape.org/namespaces/inkscape"
   xmlns:sodipodi="http://sodipodi.sourceforge.net/DTD/sodipodi-0.dtd"
   xmlns="http://www.w3.org/2000/svg"
   xmlns:svg="http://www.w3.org/2000/svg">
  <defs
     id="defs1514" />
  <sodipodi:namedview
     id="namedview1512"
     pagecolor="#ffffff"
     bordercolor="#666666"
     borderopacity="1.0"
     inkscape:pageshadow="2"
     inkscape:pageopacity="0.0"
     inkscape:pagecheckerboard="0"
     showgrid="false"
     inkscape:zoom="64"
     inkscape:cx="17.71875"
     inkscape:cy="12.109375"
     inkscape:window-width="3840"
     inkscape:window-height="2066"
     inkscape:window-x="2869"
     inkscape:window-y="-11"
     inkscape:window-maximized="1"
     inkscape:current-layer="g1631" />
  <g
     inkscape:groupmode="layer"
     inkscape:label="Image"
     id="g1516">
    <g
       id="g1631"
       transform="translate(-0.19206978,-0.09439982)">
      <path
         style="fill:#c8c4ba"
         d="m 302.5,493.87403 c -89.26418,-0.54837 -171.4486,-73.56884 -183.50355,-161.83836 -1.60645,-35.656 -3.39524,30.82704 -11.46215,2.72719 -8.018806,-32.10661 -9.581799,-85.3434 19.21843,-101.27414 6.38061,-15.25255 -14.62717,-2.56313 -1.03443,-17.41442 20.25149,-37.03098 50.09732,-71.02592 91.44345,-84.20964 45.25407,-19.39895 97.34827,-39.85959 146.05005,-19.99523 47.9319,17.78002 86.49527,54.79047 116.94054,94.74428 16.05667,29.17769 14.66494,63.98493 26.05988,95.14779 1.70808,44.56313 -14.29464,89.70684 -40.01215,125.93948 -23.5934,35.95476 -65.10467,52.46668 -105.7141,60.28872 -18.92986,4.60358 -38.5183,6.56182 -57.98597,5.88433 z m -9.75,-4.50432 c -9.1673,-20.23617 -50.59057,-15.07548 -56.46516,-15.19556 15.23569,13.97919 37.74671,10.80885 56.46516,15.19556 z M 318,487.11658 c -13.04413,-15.87647 -13.50407,16.06144 0,0 z m 13.81847,-0.3212 c 12.15723,-1.17207 49.93789,-7.97486 43.52053,-16.37356 -10.58361,3.49131 -55.4088,11.37186 -43.52053,16.37356 z m 12.35233,-10.80779 c 42.57398,-7.44296 77.3383,-37.4569 102.81155,-70.59276 13.38736,-26.43774 -15.49738,-48.91837 3.93386,-75.48871 5.47839,-21.50504 -2.07784,-48.27956 27.20819,-53.9145 0.74633,15.61323 11.14487,33.66995 9.23276,6.76761 -5.49879,-98.7916 -109.04546,-178.63673 -206.07924,-157.21825 -23.9304,8.59082 -72.31814,15.4719 -68.67526,46.19471 20.03807,0.69315 -14.40763,11.18262 -12.31444,22.97753 -38.18442,37.75464 -59.34317,98.63753 -38.83834,150.10628 17.72653,19.75507 7.27364,45.90869 5.10466,63.87884 24.935,42.36234 75.93506,60.2793 123.02266,61.37332 18.35494,0.59333 36.15536,6.40888 54.5936,5.91593 z M 403,420.11663 c 4.96946,-9.38409 8.93863,7.94927 0,0 z M 370,164.5 c -10.47727,-5.48588 9.65551,0.99566 0,0 z M 220,465 c -26.64344,-23.13388 -58.56025,-50.31932 -74.58273,-76.63517 8.99388,28.68111 33.46364,51.61562 57.14775,69.6754 C 207.63779,457.94507 219.4705,475.13118 220,465 Z m 180.56144,-2.95199 c 14.36335,-3.03546 22.79621,-26.74888 2.48909,-9.07588 -4.28701,2.05768 -15.3093,14.73736 -2.48909,9.07588 z M 435,436 c -6.67948,-16.62453 -12.019,12.75712 0,0 z m 16,-24.85534 c 26.49415,-14.51074 -17.99324,-6.61623 0,0 z m 19.39301,-24.72645 c 14.08865,-13.45655 -13.04348,-6.47098 0,0 z M 135.53513,372.94316 c 6.09021,-9.39087 -7.92861,-5.84601 0,0 z M 148.70844,365.25 c -0.59076,-12.62105 -16.69939,-54.45078 -15.08307,-21.04969 3.06845,8.22359 9.16806,14.77421 15.08307,21.04969 z m 318.76224,-3.15762 c 10.2134,-7.16424 16.90367,-50.8885 2.39791,-35.94488 -2.20431,11.86532 -0.97536,24.00532 -2.39791,35.94488 z M 143.75,318.23522 c -4.53519,-15.36322 -14.67557,8.3796 0,0 z M 109,295.5 c 9.33491,-12.64005 4.14517,-52.08497 -1.4961,-18.02811 0.34295,2.14615 -3.38594,21.6194 1.4961,18.02811 z m 36,-26 c 16.65923,-12.08564 -12.97759,-16.01656 0,0 z m -26,-27 c -2.48633,-14.4303 -2.10655,9.49789 0,0 z M 138.5,213 c 15.62134,-15.42756 -10.48011,-5.19224 -0.48775,0.88256 z M 471,207.46862 c -1.37413,-24.42463 -17.92027,-4.70879 0,0 z M 191.75,196.36971 c 9.19884,-18.10095 -18.49592,2.18252 0,0 z M 155,190 c 24.4137,-28.09257 55.87565,-54.99705 92.14605,-62.58727 7.89506,-14.6038 -34.79798,10.46104 -45.55305,14.95745 -20.00609,11.3388 -40.27855,25.82077 -51.11609,46.46039 0.77731,1.62913 3.05268,2.15706 4.52309,1.16943 z m 306,-2 c -38.77785,-42.71185 -89.86611,-83.58509 -150.41202,-82.59091 -37.84674,13.03014 17.82392,9.8628 30.61215,14.42205 41.78095,8.3655 82.02284,29.51736 108.65047,63.3576 3.15717,2.34121 6.88784,5.26105 11.1494,4.81126 z M 272,120 c 23.21766,-7.23488 -22.08814,-0.22138 0,0 z m 231.66667,148.33333 c -10.83777,-14.73085 7.92572,-17.27387 0,0 z M 497,243 c 2.22608,-10.88549 2.02769,9.2522 0,0 z m -2.25,-5.98992 c -9.20252,-7.61057 1.56136,-15.79121 0,0 z"
         id="path1645" />
      <path
         style="fill:#a6a198"
         d="m 244.75,498.31067 c -20.63439,-6.09255 11.62731,-2.10506 0,0 z M 294.08273,496 c -20.70594,-0.37498 -63.11753,-14.33942 -65.68011,-19.3619 43.18078,21.23715 94.22209,20.95351 140.02411,9.92639 18.89676,-6.24167 49.76993,-15.6275 61.25485,-20.63064 -25.18628,21.82961 -57.21402,23.87069 -88.58415,28.38966 -15.57806,1.98292 -31.33509,2.51509 -47.0147,1.67649 z m 29.63624,-19.96262 c -37.73478,-12.21901 -81.76405,-2.42874 -115.6059,-27.07029 -12.67047,-6.2984 -30.87735,-25.36982 -7.55044,-7.87463 13.21978,19.15753 62.44693,22.6084 32.83884,-0.67493 -7.85238,27.49912 -8.79207,-21.51163 -25.99433,-4.06526 -12.61161,-5.57603 -32.27816,-35.46944 -40.06442,-29.64097 8.65836,11.31131 18.90951,24.40467 1.5576,7.20208 -14.25239,-14.38682 -6.97589,-20.11265 5.30482,-26.47747 2.36334,-12.872 -3.69103,-25.56037 5.25036,-6.55409 24.914,52.19778 86.93769,76.32316 142.19389,70.25615 31.43625,-2.62442 59.19928,-7.72778 76.00365,-30.6127 19.84064,-13.23895 41.81629,-52.00194 45.75488,-62.43572 -14.60789,19.94545 27.56416,19.08437 7.70808,35.66045 -3.10914,-3.18615 -8.41229,25.89742 -22.8089,32.48742 -13.85105,17.81991 -49.75952,43.11596 -61.5993,41.7633 12.07008,-2.48242 49.83256,-24.84848 35.7078,-28.97745 -15.158,7.29067 -22.2467,8.0324 -34.96508,7.88381 -1.4687,19.68669 -26.37229,-5.42375 -17.80766,14.25958 -11.51449,0.3641 -38.38265,12.9858 -10.41905,12.17425 28.66317,-3.99199 2.38293,5.77154 -11.04655,3.23588 z M 415,431.39301 c -4.64055,-8.22356 -1.76025,9.41297 0,0 z M 213,428 c -2.24905,-12.05124 -2.72029,9.63307 0,0 z m 196,-8.5 c -5.70701,-5.23884 -7.71015,6.83074 0,0 z m 29,-11 c -2.39363,-14.29568 -2.87733,12.06233 0,0 z m -224.75,62.00913 c -15.03004,-7.91475 -27.30502,-18.93514 -4.71753,-5.21479 -0.60226,-0.63451 15.00762,9.28243 4.71753,5.21479 z m -27.13522,-18.05785 c -7.09369,-9.20075 13.08956,9.68181 0,0 z M 441,454.00757 c 5.07678,-9.60909 10.77213,-1.92389 0,0 z M 175.85496,442.51728 c -18.62551,-15.99635 14.16092,7.00475 0,0 z M 452.25,444.31067 c 8.26324,-13.14936 3.98175,1.88708 0,0 z m -238.69423,-4.22043 c -0.71693,-9.30517 6.83391,3.19415 0,0 z M 461,433 c 6.71959,-9.06189 7.37316,0.87135 0,0 z m -296,-0.85398 c -10.38598,-8.21912 -10.4065,-19.39789 0,0 z m -13.41591,-16.54947 c -10.22493,-9.6643 -32.2249,-56.75688 -11.01303,-21.79379 -0.52351,1.01896 21.04774,29.65009 11.01303,21.79379 z M 474,412.5 c 8.32601,-14.255 12.56971,-7.00535 0,0 z m -341.39626,-7.09024 c -1.21142,-9.59166 5.76331,4.95011 0,0 z M 129,397.5 c 3.14335,-15.32 2.54594,14.14588 0,0 z m -6,-9.95031 c -2.50872,-16.17318 -18.80065,-40.24162 -14.53017,-51.55133 11.70046,34.84242 1.65384,-8.08877 9.64834,-19.90008 -1.96434,24.95856 14.3127,51.53043 5.77673,73.60567 z m 367.116,-1.83107 c 3.86358,-16.208 10.23729,-10.17558 0,0 z M 497,366 c 4.84344,-11.26269 1.60554,10.35427 0,0 z m -329,-3 c 4.84344,-11.26269 1.60554,10.35427 0,0 z m 332,-6.5 c -11.34261,-12.21628 18.47335,-14.99164 0,0 z m -335,-2 c 3.81611,-8.56619 2.5032,8.1008 0,0 z m -1,-5.41667 c -10.80752,-21.98562 0.76601,-12.51999 0.53281,1.89234 z M 445,344 c 3.5977,-13.13796 2.23579,12.40421 0,0 z m 3,-13.5 c 2.39363,-14.29568 2.87733,12.06233 0,0 z m -345,-3 c 3.81611,-8.56619 2.5032,8.1008 0,0 z m 403.32814,-4 c 0.96585,-11.49771 0.47677,13.60457 0,0 z M 155,326 c -3.94513,-19.74153 0.0318,-63.63481 10.40343,-74.51778 C 156.66925,274.74171 158.20987,311.5788 155,326 Z m 296.07895,-29.25 c 1.47407,-33.81217 -9.75016,-65.84431 -34.02546,-90.69832 -39.27665,-48.18665 -110.57841,-64.95062 -167.56694,-40.61269 -26.70711,9.12496 -48.68182,29.54153 -65.05028,51.8802 -1.81348,12.01941 -19.58396,26.78747 -7.51609,5.58741 9.58887,-14.86454 33.0872,-37.24519 33.07982,-43.4066 11.70101,7.25307 13.57899,-25.74044 3.21034,-3.87112 C 194.72998,155.533 246.21976,138.1313 262.17017,130.2002 310.88189,114.61466 366.8857,123.1251 409,152.07303 370.26794,131.61827 325.7898,117.95256 281.87554,128.31275 c -11.90906,0.45292 -58.71783,15.91717 -44.0147,23.24658 43.68543,-17.44057 96.10903,-19.38642 139.52286,0.4483 24.45149,17.56811 53.94759,34.52538 66.29856,63.1109 11.34542,7.11967 16.21022,39.40108 24.83715,37.1584 -3.58773,-13.10914 -21.93951,-51.3109 -1.51713,-20.81453 3.5723,8.49812 16.39664,48.30371 11.35995,18.2379 -5.23484,-30.95161 15.85137,35.30737 8.59612,49.19858 -2.88521,23.98762 -11.36047,-54.9987 -13.25523,-16.48222 -9.06586,7.6111 -24.83368,-9.19981 -18.76538,14.75265 -0.79962,17.90427 -4.54562,31.48654 -3.85879,-0.41931 z M 373,163.5 c -8.60064,-11.45316 -3.52797,7.64138 0,0 z m 134,137 c 1.99123,-28.24346 1.82414,26.79956 0,0 z M 598,282 c 3.5977,-13.13796 2.23579,12.40421 0,0 z m -91.65719,-5.5 c 0.91781,-13.24782 0.48973,15.39395 0,0 z M 12,268.5 C 10.832539,251.28741 22.190678,241.52081 15.897053,264.31904 15.609935,271.92954 11.912607,286.47609 12,268.5 Z m 91,5.5 c 3.55104,-7.63375 3.36055,7.48846 0,0 z m 39,-9.5 c 7.67251,-32.21232 6.64027,23.12869 0,0 z m 452.83889,-7.34538 c -6.79711,-13.72401 0.97917,-24.1823 2.75887,-4.46943 2.41923,3.99587 -2.84194,19.84934 -2.75887,4.46943 z m -91.3546,1.77387 c -1.33226,-12.25182 5.46117,11.13477 0,0 z M 106,259 c 3.55104,-7.63375 3.36055,7.48846 0,0 z m 62,-17 c 4.84344,-11.26269 1.60554,10.35427 0,0 z m 303,-13.92857 c -15.66301,-22.92413 -0.0401,-15.66005 2.25245,1.77353 z m -352,-5.03139 c 2.64786,-11.24507 7.31252,-2.00523 0,0 z M 126,209.5 c 6.78221,-8.4206 37.8545,-53.20991 19.50608,-21.69383 -8.09604,4.84916 -9.75387,20.766 -19.50608,21.69383 z m 355.75,-1.47878 c -14.86452,-15.1074 4.50064,-4.14054 0,0 z M 458,203.7444 c -24.82851,-27.02452 13.51555,3.53666 0,0 z m -271.75,-9.20513 c -4.21348,-17.92622 18.17966,7.72427 0,0 z M 471,193.53518 c -7.34709,-8.29554 -34.89926,-33.14282 -10.74358,-13.52205 1.06587,2.59061 18.54279,11.42057 10.74358,13.52205 z m -27.25,-8.61851 c -17.60104,-17.07564 6.68302,-1.35405 1.41755,0.96024 z M 432,172 c -18.67393,-11.56183 3.46133,-3.94927 0,0 z m -277,-3 c 18.88186,-21.67629 45.789,-34.13333 72.59291,-42.70485 C 202.16613,137.60244 174.27042,153.02619 155,169 Z m 290,-1 c -17.28745,-12.9457 12.02849,2.76081 0,0 z m -28.91836,-8.51243 c -16.7577,-12.46132 16.58877,7.06397 0,0 z M 438,159.5 c -21.35002,-20.47642 -53.06941,-40.19815 -76.03423,-49.16696 30.01623,9.11609 55.93635,27.76702 77.98458,49.03499 l 0.13148,0.97976 z m -364,-28 c 14.293304,-24.46398 4.934412,8.87502 0,0 z m 159,-7.37004 C 254.89939,113.5906 303.07865,98.460116 311.50777,102.65479 284.52175,104.92382 257.41879,118.44217 233,124.12996 Z M 86.786692,115 C 105.24379,90.667541 130.78781,70.849384 158.46303,58.372433 137.49772,73.2972 116.75027,87.985286 98.790686,106.80823 95.853976,107.5858 87.454641,123.98253 86.786692,115 Z M 517.5945,112.5 C 497.68552,90.702195 473.99739,72.415763 448.29927,57.918153 435.15606,49.36408 402.39705,37.343531 400.08131,32.849017 c 44.02837,12.424365 84.01881,38.714999 114.77895,72.166753 0.67397,1.34003 11.0606,15.01795 2.73424,7.48423 z m -184.4826,-7.58099 c -8.91844,-5.699089 19.84295,4.3796 0,0 z M 383.25,30.276604 c -9.05791,-9.176118 19.73366,4.408579 0,0 z m -13.79112,-4.343135 c 6.898,-5.749121 10.63939,6.594077 0,0 z m -18.95563,-2.673534 c -13.04222,-1.783369 -30.62116,-6.34898 -6.98974,-4.87334 12.83232,1.911678 30.97669,6.839864 6.98974,4.87334 z M 277.5,19 c 12.01025,-4.197385 7.59669,3.774184 0,0 z m 14.5,0 c 7.26036,-4.417498 7.26036,4.417498 0,0 z"
         id="path1643" />
      <path
         style="fill:#8a857a"
         d="m 267.5,504.06264 c -26.36307,-6.14842 -61.14062,-16.91495 -76.55473,-34.21109 25.48541,13.81959 52.58112,27.17289 81.60822,32.51765 18.86378,3.98535 -1.6077,2.51045 -5.05349,1.69344 z M 249,498 c -5.77799,-6.73305 -7.80114,4.17458 0,0 z m 99.5,3 c 10.45524,-5.22324 1.02627,4.32511 0,0 z m 15.31955,-5.25 c -12.54919,-3.6227 -69.98942,4.12028 -30.81279,0.006 17.45801,-4.62334 52.13293,-8.1066 59.78596,-7.63131 -8.46714,2.82896 -20.37293,11.53362 -28.97317,7.62558 z M 297.25,496.28375 c 11.41692,-2.38821 3.64106,1.80288 0,0 z M 262.5,491.472 c -9.39611,-5.02692 20.09315,6.4955 0,0 z m -11,-3.12878 c -3.40538,-5.61129 11.8201,6.58886 0,0 z m 83,-15.02525 c -23.91658,-5.85507 24.78863,-9.74527 13.39813,-20.077 6.11231,-5.13431 19.08998,9.9691 17.56669,-6.62596 20.46839,-4.65653 20.39911,12.0708 0.80417,10.85943 -11.28135,1.00774 -32.88306,13.79697 -27.63165,16.19332 z M 348.5,472 c 13.37057,-6.39359 -0.47803,4.22599 0,0 z m 9.5,-1.70046 c 12.59086,-5.92763 12.0183,-1.27215 0,0 z M 181,464 c -10.65425,-5.21635 10.19658,0.43266 0,0 z m 194,-0.3288 c 29.2314,-15.94514 4.26791,1.61836 0,0 z m -178,-1.82613 c -9.14035,-6.56288 18.83705,8.58632 0,0 z m 39,-2.76561 c -17.01694,2.0965 -39.41611,-25.83877 -33.89811,-27.51334 6.131,3.2172 32.85979,1.2667 17.89811,14.43388 15.32487,14.86086 11.58246,-22.70599 21.46824,2.77942 4.06103,5.29568 4.83765,17.05207 -5.46824,10.30004 z M 238,456 c -3.00811,-6.91495 -6.87671,4.84115 0,0 z m -21,-9.5 c -5.03931,-5.72562 -8.61286,3.19712 0,0 z m -0.18045,-7.67167 c -4.52308,-8.83632 -2.75019,8.02033 0,0 z m -29.91504,16.24285 c -8.95658,-10.42289 11.6661,7.01242 0,0 z m 100.99333,-4.00433 c -14.09772,-0.16688 -48.47573,-9.28743 -48.08023,-15.2918 42.83864,21.19801 96.85994,20.2547 138.18239,-4.0648 10.17323,-13.51061 29.61617,-11.90802 6.74832,-2.4479 -2.43962,19.25927 -24.98426,10.14076 -41.25627,19.93269 -18.34143,3.10024 -37.08185,2.56025 -55.59421,1.87181 z M 397.25,450.31067 c 10.79159,-10.00407 -28.36354,-1.06304 -0.0232,-10.32463 22.15441,-9.70001 5.6655,10.68309 0.0232,10.32463 z M 176,444 c -15.0344,-11.59592 15.86162,9.36283 0,0 z m 24.25,-2.58444 c -18.5394,-10.03721 11.94588,3.03106 0,0 z m -10.18085,-7.13812 c -14.39562,-11.11206 11.47935,3.84715 0,0 z M 412,431.96862 c 3.75477,-11.92618 2.97808,9.87664 0,0 z m -263,0.52159 c -10.58877,-12.26568 -36.19872,-51.54456 -24.69341,-47.62812 -0.36469,-27.14564 18.19795,17.5636 17.44823,26.9023 1.72217,2.84448 17.06692,23.61599 7.24518,20.72582 z M 135,404.5 c -3.54127,-8.40555 -1.59587,8.174 0,0 z m -3,-7 c -3.14335,-15.32 -2.54594,14.14588 0,0 z m 30.26797,32.5 c -15.67689,-12.04764 9.19089,4.63246 0,0 z m 61.03234,0.34021 c -17.17095,-12.84866 21.8768,8.11833 0,0 z M 210.63029,428.75 c -1.58891,-13.34272 5.90072,8.39105 0,0 z M 189.75,425.31067 c -8.39649,-15.97264 -23.17272,-4.29599 -19.43205,-20.72494 2.96084,2.16302 29.78245,23.12503 19.43205,20.72494 z M 210.36163,420.5 c -15.54419,-11.33306 -16.16102,-22.18324 -0.80843,-4.1275 1.66541,-0.0801 15.34989,9.74823 0.80843,4.1275 z M 151.35,418 c -12.99332,-14.5824 2.85269,-6.93629 0,0 z M 399,416.55654 c 8.39997,-10.27722 11.79773,-1.63525 0,0 z M 435,408.5 c 2.39363,-14.29568 2.87733,12.06233 0,0 z m -26,-2 c 7.15732,-9.42729 17.39289,-13.71149 3.08812,-2.329 z m -218.41064,-8 c -14.67262,-16.36097 6.17149,1.54492 0,0 z M 445,393 c 5.16825,-12.32795 6.15257,13.34416 0,0 z m -20,-5.07437 c 7.78102,-16.07442 16.32281,-12.67787 0,0 z M 181,385 c 3.55104,-7.63375 3.36055,7.48846 0,0 z m -65,-12 c -7.18707,-20.48734 7.16486,8.20795 0,0 z m 60.25,2.27976 c -10.23971,-12.92129 0.37869,-11.63357 0,0 z M 435,371 c 3.55104,-7.63375 3.36055,7.48846 0,0 z m 65,-11 c 3.55104,-7.63375 3.36055,7.48846 0,0 z m -388,-2.33333 c -7.29767,-8.27945 3.95322,-1.74939 0,0 z m 391.116,-4.83488 c 0.74503,-13.74893 4.83059,1.63813 0,0 z M 442,351 c 2.10892,-17.00649 4.74594,5.78183 0,0 z m -278.75,-6.55865 c -7.12236,-15.167 6.64029,3.20035 0,0 z M 445,338 c 3.55104,-7.63375 3.36055,7.48846 0,0 z m -342,-6 c 3.55104,-7.63375 3.36055,7.48846 0,0 z m 55.60699,-0.58179 c -4.88762,-34.76421 9.33846,0.19759 0,0 z M 448,323.5 c 2.39363,-14.29568 2.87733,12.06233 0,0 z m 59,-7.5 c 3.04694,-16.98676 0.57918,-41.46927 2.69548,-10.53975 C 509.46498,307.39169 508.88946,331.63348 507,316 Z M 10.75,291.60795 c -5.2194862,-22.82205 15.083942,-2.58042 0,0 z M 598,289.5 c 2.39363,-14.29568 2.87733,12.06233 0,0 z m -439.81975,-8.66821 c 0.62918,-29.58536 3.65916,9.27125 0,0 z M 448,275 c 4.84344,-11.26269 1.60554,10.35427 0,0 z m 150,1.07143 c -7.09524,-36.25745 12.91055,-8.52286 0,0 z M 103,270 c 3.55104,-7.63375 3.36055,7.48846 0,0 z m 58.6374,-4 c 2.90921,-17.57581 2.98555,5.66931 0,0 z M 15,264.5 c 2.393608,-14.29577 2.877345,12.06236 0,0 z m 462.60699,-1.08179 c -0.76736,-11.00877 -16.85207,-51.09658 -20.9903,-40.87209 6.84289,8.06551 18.64328,48.12525 2.88331,20.45388 -5.4443,-18.85678 -28.72205,-47.52065 -34.41928,-54.94332 15.52751,8.15316 14.64681,22.24876 27.57227,20.29421 17.33656,11.95417 30.5265,40.2865 24.954,55.06732 z M 445,260.46862 c -6.78687,-11.11219 2.21008,-0.82185 4.5752,1.26564 z m 149,-2.86163 c -9.14202,-29.43911 5.19294,9.11868 0,0 z M 12,255 c 4.843437,-11.26269 1.605543,10.35427 0,0 z m 6.116001,-5.75 c -5.647866,-26.21323 11.351543,-11.03791 0,0 z m 423.044039,-1.39301 c -6.08661,-12.29105 0.45204,-8.33665 1.2713,0.76963 z M 597,248.75 c -8.651,-9.91739 -10.37737,-35.22323 -1.61112,-10.67599 0.54976,3.50709 2.40884,7.03383 1.61112,10.67599 z m -425.84081,-8.75943 c 7.05738,-14.20662 -0.16768,7.68952 0,0 z M 435,233 c -15.59912,-16.89937 2.08859,-11.53875 2.47243,1.79502 l -1.53046,1.00697 z M 22,222 c 2.299121,-10.53097 2.299121,10.53097 0,0 z m 162.07895,-4.52776 c 2.68731,-10.03534 11.57985,-6.71688 0,0 z M 422,214.5 c -17.71983,-14.38953 3.17755,-6.38708 0.93164,1.37344 z M 194.92083,203.28078 c 5.23364,-7.62102 21.98872,-14.82686 5.95317,-3.05277 z m 261.02379,-0.66265 c -11.86931,-8.04703 4.65722,-3.47797 0,0 z M 406,195.5 c -25.01741,-15.41158 10.27573,1.80453 0,0 z m -195.61134,-6.07045 c 7.36454,-11.21476 5.18229,4.26084 0,0 z M 445,188.46862 c -17.17845,-15.74666 2.15122,-6.315 0.92193,1.39646 z m 21.4476,-3.95435 c -22.82978,-15.64446 10.22125,3.5857 1.40316,1.22654 l -1.29226,-1.1296 z M 393,185 c -10.01284,-8.70806 -51.09405,-28.43669 -16.05032,-12.60187 4.73434,3.89591 14.1587,6.6477 16.05032,12.60187 z m 25.29501,-1.67361 c -19.17531,-13.64711 4.37038,-3.31701 0.81366,0.62649 z M 217,182.07946 c 13.66477,-9.41358 19.45542,-6.05616 0,0 z m 211.63495,-10.85122 c -10.13474,-9.56935 19.01133,11.38405 0,0 z M 233,172.20579 c 12.63324,-8.07267 19.85251,-0.83603 0,0 z m 172.83333,0.0442 c -21.96748,-19.34505 -49.03702,-32.70596 -78.68496,-33.3444 -15.96514,-0.24748 -28.76858,-3.16837 -4.05075,-1.59528 31.81432,-0.26708 62.90042,13.3991 85.34031,34.8379 z M 249,165.83399 c 31.93816,-13.5422 70.77077,-16.562 102.44883,-2.66183 -31.14989,-10.15201 -65.21645,-9.2107 -96.23194,1.47151 z M 418.63837,162.5 c -14.095,-8.81267 10.39739,4.66011 0,0 z m 14.55019,-9.53896 c -31.31405,-21.14877 13.40477,3.22705 0,0 z M 58,153.10699 C 62.936467,139.05026 89.481372,118.41232 69.554707,143.10645 66.530265,147.11479 63.316667,152.03604 58,153.10699 Z M 230,151.5 c 15.35529,-13.37571 55.03223,-10.29251 64.10643,-13.68016 C 272.42325,140.22864 247.78389,147.42123 230,151.5 Z m -47.75,-6.18933 c 9.23701,-9.21319 56.54287,-23.43188 21.82441,-9.8281 -7.51821,2.70802 -14.61393,6.41872 -21.82441,9.8281 z m 208.25,-0.75591 c -25.83098,-10.63635 -0.28713,-3.75002 0,0 z M 246,139.5 c 11.00243,-7.85817 31.9463,-8.18666 7.79544,-2.46736 -1.97632,0.53524 -5.90317,6.28206 -7.79544,2.46736 z m 123.5,-4.028 c -16.52736,-3.58683 -33.43476,-9.96753 -7.18948,-3.29887 2.00855,0.42059 21.48466,7.05595 7.18948,3.29887 z m 35.88508,-4.91089 c -23.88124,-11.84728 7.4821,0.18021 0.85062,0.49572 z M 275,130 c 4.21644,-4.12709 11.9672,0.49313 0,0 z m 16.5,-3.30122 c 14.23817,-3.5449 68.98489,1.50992 30.08306,-0.0455 -4.16977,-0.74131 -36.52913,2.1415 -30.08306,0.0455 z M 80,126 c -12.126234,-10.01118 9.391799,3.69343 0,0 z m 448.25,-1.67442 c -5.67554,-12.90581 11.49583,7.45985 0,0 z M 83,122.96862 c -3.111582,-10.11918 12.718583,-3.19354 0,0 z m 158.52749,-3.32633 c 18.61954,-9.30246 12.27621,-1.58287 0,0 z m 280.99904,-1.55871 c -24.03576,-13.28489 17.33828,1.13709 0,0 z M 519,111.5 c -17.99878,-8.10448 7.26423,-7.56393 1.24726,1.40485 z m -251.25,-0.21912 c 13.0698,-9.25121 25.29582,-7.72997 4.23998,-1.18419 -1.43117,0.30166 -2.6773,1.56845 -4.23998,1.18419 z M 97.769625,107 c 18.016145,-16.179556 -0.04514,4.37966 0,0 z m 410.081255,-3.48222 c -14.33433,-6.078345 3.41505,-5.535264 0,0 z M 96,101.36467 c 7.59693,-10.595536 17.31083,-7.308385 0,0 z m 13,-4.385831 c 4.39856,-6.702327 12.74838,-1.726333 0,0 z m 386.90451,-3.907664 c -8.44979,-11.990615 10.80383,7.990665 0,0 z M 119,87 c 8.08818,-8.532538 13.50336,-5.633816 0,0 z m 374.63837,-2.5 c -12.36934,-8.60365 9.54921,4.082639 0,0 z m -11.408,-2.5 c -15.15235,-9.746265 14.23975,6.327916 0,0 z M 125.64718,75.477062 C 194.61422,28.950485 281.56587,4.2980753 364.28864,19.549144 c 12.84375,2.015247 61.71346,19.219349 53.12955,18.960308 -4.52602,-2.71308 -32.63068,-11.884917 -15.09275,-1.672328 -14.55551,-6.309954 -45.20134,-8.200224 -41.8508,-15.528505 -12.6117,-3.181197 -44.72641,-3.717716 -15.14205,1.032469 -44.45704,-3.102331 -90.39784,-2.29605 -132.7008,13.681448 -24.76209,9.490386 -48.8808,21.496032 -72.86863,32.015593 -4.38161,2.929459 -8.6596,6.781195 -14.11598,7.438933 z M 392,29.5 c -11.48139,-8.778187 -18.91331,5.544707 0,0 z m -13,-3.364076 c -10.01996,-6.750321 -15.33744,3.995922 0,0 z M 285.5,19 c -3.55749,-4.57356 -13.0789,2.950369 -4.09756,1.035989 z m 12.5,0 c -7.26036,-4.417498 -7.26036,4.417498 0,0 z m 169.5,51.223391 c -19.91842,-8.995375 -3.20623,-6.511809 0,0 z M 142,70 c 10.36758,-9.456595 20.1184,-6.289618 0,0 z m 325.63837,-5.5 c -15.44115,-10.052998 11.31528,3.915725 0,0 z M 451.38508,61.561107 C 439.85134,56.251893 431.79921,47.285976 448,57.835344 c -1.21131,-3.619972 10.18254,8.754912 3.38508,3.725763 z M 452.75,56.310674 c -9.65437,-6.911685 12.31803,3.363075 0,0 z M 435,46.14466 c -12.9883,-4.237724 -3.51192,-5.850999 1.99963,-0.259529 z m -17,-1.83454 c -22.18474,-9.817106 3.74991,-2.083264 1.2524,0.2452 z"
         id="path1641" />
      <path
         style="fill:#837b71"
         d="m 282.00096,520.13337 c 16.06285,-4.63009 17.91587,6.82292 0,0 z M 282,507.5 c -15.42957,0.0264 -54.376,-11.64956 -55.21714,-14.73045 11.20191,7.62986 57.03597,13.28608 22.67763,2.72305 -26.33346,-4.18627 -45.45005,-19.72939 -68.8375,-30.26319 -13.14054,-8.23566 -44.53672,-40.42085 -33.92469,-41.98492 -10.93835,-33.46646 22.34986,17.94813 21.63107,17.03202 -12.22101,-3.41357 20.03035,25.97132 30.42126,31.31361 37.14416,22.47516 81.72014,36.35309 125.36121,31.22103 25.09046,-8.46145 -33.24749,-4.49639 -3.57802,-6.62138 21.06986,3.46939 61.54425,-4.3225 70.24514,-5.83514 C 356.86685,505.44862 318.93646,511.84021 282,507.5 Z m 72,-6.5 c -4.71848,-5.0971 -5.22391,6.40982 0,0 z m -127,6 c -18.83996,-4.83082 12.20069,0.55469 0,0 z m 51.5,-11.04446 c -34.59734,-5.93782 -68.08664,-20.43128 -94.63303,-43.62833 29.51641,22.66908 64.72209,37.43794 101.19218,44.38109 -2.19871,-0.15858 -4.38136,-0.41143 -6.55915,-0.75276 z m -80.8125,-2.60137 c -1.64936,-6.44057 6.04242,3.11489 0,0 z m -13.24135,-7.4413 c -0.71589,-6.95957 5.22048,4.48404 0,0 z m 241.05487,-2.91123 c 2.46367,-6.68463 5.35196,5.07797 0,0 z M 432,478.5 c 1.27309,-10.79811 10.04903,1.47755 0,0 z m -95,-7.76852 c 13.16365,-9.6938 57.13039,-23.68582 54.91718,-21.82045 C 371.8404,451.67895 358.71757,477.19224 337,470.73148 Z M 442,469 c 4.6549,-17.60823 18.80522,3.56404 0,0 z m -73.75,-2.70447 c 10.51513,-10.9171 23.77235,-9.0474 4.49917,-1.18029 -1.33608,0.92829 -2.99945,0.78686 -4.49917,1.18029 z M 233,455.38337 c 6.56428,-9.97776 6.38448,10.146 0,0 z M 145,449.5 c -14.64739,-8.71974 7.28046,-0.60777 0,0 z m 144.03406,0.75207 c -52.53317,-5.32732 -102.79955,-41.47195 -118.54273,-92.8417 19.91784,42.39429 56.3682,79.99521 104.31717,87.61768 45.08869,9.12366 94.15193,-3.95812 128.54658,-34.55203 -27.40115,32.92141 -73.42779,42.55243 -114.32102,39.77605 z m -76.47519,-3.78387 c 2.813,-7.59824 5.20409,9.95077 0,0 z M 453.4055,444.5 c 4.91013,-8.60502 5.43749,-1.7957 0.10529,1.34489 z m -249.4133,-1.75 c -15.34621,-0.1254 -27.54431,-35.51564 -6.63982,-12.01815 2.33416,1.9759 20.33352,13.27553 6.63982,12.01815 z M 409,402.5 c 5.17397,-22.21825 21.99401,-0.19632 0,0 z m -284.62437,-3.27633 c -12.04097,-11.21025 0.40739,-19.07466 0,0 z M 425,383.93723 c 3.50216,-20.71233 17.63423,-5.81142 0,0 z m 68.5733,-0.42721 c 0.47939,-14.92101 5.78739,2.8408 0,0 z M 116,379.5 c 2.48633,-14.4303 2.10655,9.49789 0,0 z m 319,-13 c 4.67702,-12.06806 12.05932,-38.78636 6.90092,-10.91028 C 441.9117,359.8154 440.57466,366.695 435,366.5 Z m -322.884,-1.66667 c -7.87311,-5.53912 3.18511,-10.60721 0,0 z M 500,364 c 3.39585,-7.09898 1.56192,6.43261 0,0 z m 3.30553,-9 c -4.43438,-12.57876 5.56242,-2.50871 0,0 z M 106,349 c 3.39585,-7.09898 1.56192,6.43261 0,0 z m 59,-2 c 2.93537,-13.63739 1.88078,8.8983 0,0 z m -0.82529,-5.66667 c -7.91736,-14.41643 -7.41646,-51.59596 -2.55931,-54.03563 -1.26136,18.04292 0.43229,36.12602 2.55931,54.03563 z M 103,337 c 2.93537,-13.63739 1.88078,8.8983 0,0 z m 404,-12 c -2.18532,-15.66578 8.7906,-14.55039 0,0 z m -405,-8.5 c -6.477371,-17.28878 5.08166,-19.17164 0.65387,-0.98218 0.44669,1.06989 -0.89049,13.56401 -0.65387,0.98218 z M 448,299 c 1.36955,-32.43357 6.62393,27.68212 -0.0877,5.18922 z M 8.6467588,297.10912 C 5.2340069,282.07341 13.3913,267.88278 12.23935,291.19019 c 1.578864,3.71257 0.39359,16.05678 -3.5925912,5.91893 z M 598,298 c 2.26284,-13.34741 1.931,12.75592 0,0 z m -88.85017,-10.25 c -4.19242,-9.93341 1.36342,-8.38192 0,0 z M 601,284.5 c 2.14323,-14.95002 1.79664,16.70035 0,0 z m -4,3.08333 c -8.82565,-9.29615 -0.12886,-34.2822 0.34398,-10.14179 0.74194,3.03139 2.4038,7.41731 -0.34398,10.14179 z M 15,275 c 1.863661,-14.91049 1.937717,17.65114 0,0 z m 429.81474,-5.56846 c -9.77123,-13.23532 -2.30307,-30.79006 1.03385,-6.58433 0.52872,2.27505 4.17962,19.21065 -1.03385,6.58433 z M 103,266 c 3.39585,-7.09898 1.56192,6.43261 0,0 z m -84.706714,-8.42611 c -1.732636,-12.98499 7.315942,-54.45936 5.639653,-20.07146 -0.809882,6.91265 -2.057955,13.98772 -5.639653,20.07146 z M 24,222 c -2.203418,-11.15965 -1.974061,10.14717 0,0 z m 141,35 c -3.57041,-16.67753 17.65272,-4.4033 0,0 z m 433,-3 c 5.12625,-11.60436 3.57814,8.87257 0,0 z M 12,249 c 2.935357,-13.6374 1.880781,8.8983 0,0 z m 576,-6 c 2.10054,-19.28803 1.73109,14.83344 0,0 z m -417,1.54004 c 7.02875,-25.68417 11.43373,-0.88457 0,0 z m 426.07895,-1.20671 c -8.67951,-5.77984 2.30031,-7.79941 0,0 z M 15,239 c 2.935357,-13.6374 1.880781,8.8983 0,0 z m 416.54652,-6.78818 c -34.31036,-62.55817 -117.7313,-92.33158 -183.1425,-62.15547 -19.84617,5.66506 -45.01515,31.39196 -52.79441,37.6603 15.34296,-24.9819 44.40861,-38.90084 71.73101,-47.12108 59.87681,-15.87239 128.29187,9.57988 161.64437,62.09806 2.31452,2.00611 6.51889,6.84395 2.56153,9.51819 z M 584.64185,231.25 c -11.4452,-31.48019 19.12622,5.00358 0,0 z M 461,217.5 C 451.65945,207.0473 414.45979,189.57798 425.89649,179.80416 442.73709,185.31754 460.36162,198.15367 461,217.5 Z M 28,205 c 2.846907,-11.56587 1.132347,9.83595 0,0 z m 104,-7.9962 c 1.23277,-9.00173 10.14057,-2.67159 0,0 z M 572,195.5 c 2.48633,-14.4303 2.10655,9.49789 0,0 z M 471,188.49021 C 460.19949,174.05042 424.30914,148.74112 425.97364,142.93609 442.69458,156.25884 458.74902,170.83273 471,188.49021 Z M 569,183.5 c 2.19502,-9.38921 2.19502,9.38921 0,0 z M 44,181.15301 C 44.949238,165.12916 72.106699,137.43445 55.166675,169.11895 52.538602,173.943 49.079505,178.66751 44,181.15301 Z M 431.63837,175.5 c -15.37711,-0.82745 3.75116,-6.09114 0,0 z M 562,175.5 C 554.40573,163.41791 528.5325,134.3906 536.74646,129.40139 547.24243,143.40014 559.1837,157.64782 562,175.5 Z M 402.5,167 c -39.44933,-34.29904 -96.85897,-36.28149 -145.24043,-23.3595 21.48078,-28.71787 60.70491,-14.49257 90.57376,-13.86557 14.33846,1.29077 52.34037,17.82709 51.36025,20.28099 -41.31092,-20.92146 -91.70398,-31.0419 -135.9245,-13.09965 43.15189,-1.20554 90.11457,-7.58376 128.4178,17.32023 4.35924,2.55542 13.70661,5.90329 10.81312,12.7235 z m 16.5,-2 c -9.63441,0.28993 -4.33258,-10.55777 0,0 z m -257.37051,-5.47686 c 5.74828,-10.45224 7.09603,1.53096 0,0 z M 67,145.5 c 4.58362,-20.34499 18.785529,-3.15847 0,0 z m 119.16739,-5.00594 c 21.41094,-12.77818 73.18035,-29.6478 79.31643,-29.86363 -26.42148,9.99982 -52.69315,20.40465 -79.31643,29.86363 z M 67,135.5 c 2.651014,-14.06995 16.397484,-6.43087 0,0 z m 338.63837,-6 c -15.85571,-5.63876 -16.83379,-13.0629 0.10847,-1.54361 l 2.44465,1.72592 z M 80,128 c 6.41422,-12.97353 25.14159,-20.48838 6.93201,-4.41503 C 85.212728,125.9011 82.40309,126.62996 80,128 Z m 441,-9 c -16.85582,-10.54002 9.67437,1.38191 0,0 z m 1.52932,-6.90762 c -13.95954,-8.7084 6.69839,-0.0171 0,0 z M 353.5,107.472 c -1.11964,-5.07242 12.85678,8.0267 0,0 z m 154.11905,-1.99581 c -11.32106,-4.67506 0.15361,-7.054994 0,0 z M 90,104.5 c 0.476435,-8.445954 7.096773,1.17716 0,0 z m 16.0078,-3.75 c 5.06844,-8.361764 12.75477,-1.599146 0,0 z M 299.5,101 c 15.70312,-3.344919 13.21644,5.01724 0,0 z M 96.553867,98.720221 c 5.384093,-9.644072 8.391703,-0.722428 0,0 z M 505.54167,93.608333 c -15.0367,-7.746724 5.35476,-0.358675 0,0 z M 496.36163,94.5 c -17.9809,-9.960826 -8.25984,-13.213006 2.76926,0.84028 z M 106,90 c 3.13046,-11.964826 12.27148,2.966623 0,0 z m 13,-0.692993 c 6.81971,-8.624891 7.9731,-2.626345 0,0 z m 374.09294,-6.5215 c -7.57703,-8.640859 15.68893,11.752202 0,0 z M 129,80 c 7.43833,-9.569787 23.09976,-9.055377 5.76606,-1.16113 z m 358,-2 c -7.68261,1.043156 -5.55425,-10.442092 0,0 z m -17.91623,-4.999401 c -5.3507,-4.036443 -6.12849,-4.623196 0,0 z M 127.75,73.280876 c 3.54266,-5.061905 17.20743,-7.686416 5.2441,-1.943819 z M 467.29969,62.646633 c -9.22784,-1.276789 -4.88773,-4.318312 0.72217,-0.6366 z M 156.25,62.310674 C 242.67718,9.0356015 358.9266,5.8956467 446.33345,58.666841 358.35356,9.6083534 244.99638,11.052155 158.18048,61.880172 l -1.5306,0.341327 z m -3,-5 c 3.74866,-5.742742 19.51123,-5.915761 5.8001,-1.279184 z m 302.5,-1 c -10.53374,0.513982 -5.38508,-11.911297 0,0 z M 441.48735,48.179312 C 386.97092,18.52844 322.11521,7.4433338 261.06717,19.497349 321.65239,1.1338198 388.39533,15.70859 441.48735,48.179312 Z M 172,47.358834 C 191.64429,37.954874 215.92907,27.457196 235.49538,25.129011 213.93045,31.343813 193.01331,39.536332 172,47.358834 Z"
         id="path1639"
         sodipodi:nodetypes="ccccccccccccccccccccccccccccccccccccccccccccccccccccccccccccccccccccccccccccccccccccccccccccccccccccccccccccccccccccccccccccccccccccccccccccccccccccccccccccccccccccccccccccccccccccccccccccccccccccccccccccccccccccccccccccccccccccccccccccccc" />
      <path
         style="fill:#4b4b4a"
         d="M 301.58569,592.25236 C 218.49773,590.40648 139.85747,547.75257 86.484602,485.1661 60.768136,459.89768 51.319419,423.92581 33.50754,393.75178 c -14.209619,-8.65799 1.704368,-27.95185 -13.450103,-22.99673 -9.83416,-41.13993 -21.9806721,-85.30826 -7.3844,-127.09124 0.725168,11.6231 -10.266683,56.55874 1.239675,47.33043 3.539976,-24.93312 14.466768,-49.83654 8.825718,-75.30285 -13.6793144,26.68406 4.989973,-34.58999 18.770761,-41.38922 6.08896,-11.21679 18.81533,-25.09808 7.811834,-3.69946 C 48.895126,187.41939 66.62183,141.93043 75.712227,137.34263 134.41201,58.764475 234.41218,12.783779 332.43542,24.030746 c 75.01695,6.780032 147.11945,44.189893 194.97398,102.242604 8.47534,11.46778 30.64371,47.59695 34.20041,40.92446 -6.25229,-11.23598 -27.78263,-43.01859 -4.82458,-18.26164 19.51724,21.3221 36.03163,51.08806 27.48732,80.16331 7.57818,19.68608 8.75868,56.47621 17.47107,66.65213 3.64338,-1.1137 1.64988,37.72432 -2.2828,52.07335 -8.80982,48.14889 -24.55283,95.58432 -54.68916,134.87869 -35.59172,51.82311 -92.16012,85.20339 -152.64225,99.44468 -29.4886,7.65082 -60.07142,11.448 -90.54372,10.10403 z M 325,516.43233 c 45.09546,-3.80055 89.00252,-22.60786 122.15275,-53.5401 22.55352,-12.96528 39.4697,-49.51053 55.37734,-74.70302 10.23849,-29.87504 14.89477,-62.03684 15.75976,-93.7112 C 519.82372,191.13859 430.08784,100.82775 329.07464,91.302838 230.39011,78.408506 131.61229,146.57922 101.6863,240.1274 80.587354,292.82785 94.128458,352.68342 116.62801,402.54574 155.63825,477.97622 240.31222,524.74394 325,516.43233 Z m -47.75,-7.09998 c 31.55598,-1.48831 64.08858,1.66211 93.74301,-11.86803 11.05692,-4.03315 39.41668,-13.23926 12.72775,-2.1275 -33.56581,13.79137 -70.61429,16.14549 -106.47076,13.99553 z M 255.5,504.472 c -25.3423,-5.20743 4.96882,-6.25118 5.01523,2.52794 z m 44,-0.47061 c -50.43498,-4.2157 -102.22532,-23.3485 -135.49378,-62.95929 13.81579,0.72596 39.97424,33.99168 63.44464,39.30362 34.43854,15.42304 72.87689,20.77849 110.36696,18.04945 -6.83572,10.4537 -27.42119,3.4295 -38.31782,5.60622 z m 14.28432,-2.55041 c -12.2247,-2.67388 -35.85092,1.03618 0,0 z M 226.5,495 c -20.77462,-8.15238 19.90765,5.61206 0,0 z m -11.25,-5.03116 c -10.97511,-3.49357 -33.733,-22.67512 -10.50237,-7.34837 1.2539,2.04402 16.08032,4.23954 10.50237,7.34837 z m 195,-9.65817 c 8.42152,-7.68042 16.62203,-5.77207 0,0 z M 422,472.07946 c 9.40079,-8.7143 15.59317,-2.65989 0,0 z m -75,-3.37981 c 12.05669,-6.65207 58.8235,-25.27217 25.25488,-5.09872 -7.59385,4.16356 -16.52177,7.46924 -25.25488,5.09872 z M 181,468 c -14.40177,-7.03843 -15.68294,-21.50938 0,0 z m 261,-11.5 c 7.35276,-12.40659 6.00702,1.21168 0,0 z m -279.14504,-3.98272 c -19.73481,-15.77264 12.46968,2.48632 0,0 z m 124.67562,-5.25117 C 225.86204,440.73534 174.22026,389.96554 163.28805,329.44044 145.89433,249.72316 210.16619,163.33652 292.28703,159.40561 c 39.24567,-3.35155 83.88122,8.42727 109.6585,38.45509 -24.32461,-16.63483 -50.83831,-34.12036 -82.19177,-34.77952 -71.50786,-7.86515 -143.58552,46.26048 -152.6038,118.29328 -11.9588,67.56124 33.89988,137.83678 99.56662,156.01641 69.03481,21.21795 149.71643,-20.22898 171.05564,-89.54778 12.78869,-38.19645 9.66304,-82.23595 -11.45538,-116.91846 17.28732,10.53036 22.05293,50.67995 22.2842,74.17133 0.19104,69.17441 -54.62579,135.23344 -124.683,141.30557 -12.08006,1.3047 -24.25892,1.32208 -36.38746,0.86458 z m -137.91153,-9.78992 c -9.18188,-6.04695 -5.03204,-14.17182 0,0 z m 314.98965,-3.89887 c 1.4081,-9.86572 8.50251,-0.86964 0,0 z M 136,420.53518 c -15.97241,-10.21668 7.42813,-0.56307 0,0 z m 341,-5.31074 c 3.62751,-10.70315 8.30405,-4.17607 0,0 z m -352.67072,-13.0165 c -10.63638,-13.50442 -1.28934,-15.22971 0,0 z m 366.24402,-9.69792 c 0.54381,-16.14461 5.11755,2.62777 0,0 z M 112.6294,373.08386 c -10.41705,-21.59761 3.30303,-13.25966 2.34142,4.21723 z M 497,375 c 3.346,-7.11397 2.38211,6.86536 0,0 z m 6.116,-15.17857 c -0.25247,-12.16745 9.09823,-12.20777 0,0 z M 103,343 c 3.50376,-12.2182 1.69353,9.72674 0,0 z m 404,-9.5 c 1.64248,-18.24815 4.02053,13.90661 0,0 z m -405,-4.41667 c -5.873939,-23.57859 2.3379,-17.66872 0.77942,1.10861 z M 100,285.5 c 2.16162,-21.93739 2.83498,18.06432 0,0 z m 409.1681,-6.25 c -6.41143,-7.89861 5.19689,-11.04103 0,0 z m -5.68381,-29.32151 c -1.63668,-12.09559 5.43805,11.5748 0,0 z m -393.84015,-7.37878 c 1.3917,-17.2973 4.78939,3.30195 0,0 z M 495.25,227.44368 c -8.39329,-6.86372 6.87934,-0.47271 0,0 z M 419,219 c -22.18838,-12.79188 0.60903,-18.23204 0,0 z m -299.84081,-2.00943 c 4.77294,-18.06579 2.747,6.19519 0,0 z M 122.57364,210.5 c 2.09301,-12.8368 7.53139,-1.43978 0,0 z m 359.04541,-8.02381 c -9.54441,-6.44149 -5.12132,-17.41451 0,0 z M 132,194.46862 c 0.22624,-6.82363 14.75609,-11.97569 4.75001,-3.18273 z m 304.75,-8.15795 c -34.00496,-17.56071 -61.89267,-51.74811 -103.25992,-50.77495 -19.47858,-4.49267 -69.23466,6.67452 -69.57206,0.73228 58.76591,-20.54653 129.76473,-2.32426 170.88097,44.31936 0.65034,1.90777 1.30067,3.81554 1.95101,5.72331 z M 292.65046,133.23469 c -8.13395,-3.47518 -14.02071,4.31217 0,0 z M 468,182.89095 C 457.61291,168.3533 425.40412,145.43829 425.18977,139.78256 441.49288,151.85167 457.439,165.29804 468,182.89095 Z m -323,-4.85577 c 2.23317,-6.93573 11.15028,-4.09975 0,0 z M 161.87934,158 c 13.8066,-14.95767 -1.07026,6.7778 0,0 z M 171,150 C 213.88334,116.13277 269.07079,95.403892 324.14333,100.63236 280.95358,97.032641 240.91371,117.83709 201.63172,132.71229 191.09854,137.88179 181.00161,143.88015 171,150 Z m 234.40462,-22.38796 c -12.61562,-3.99908 -22.63464,-13.59883 -4.27294,-3.98884 -1.65449,-1.19806 13.80183,7.71504 4.27294,3.98884 z M 376,114.11871 c -8.38806,0.47442 -9.55392,-8.04022 0,0 z M 357,107.5 c -18.18428,-4.06238 -7.42693,-3.75146 3.83668,0.38214 z M 474,516 c 9.81697,-8.04914 -11.46387,-1.1429 0,0 z m -243.75,-9.11878 c -13.06761,-8.00786 -2.06338,5.22965 0,0 z M 200.77083,492.1875 c -3.72161,-5.74826 -3.61269,6.38122 0,0 z m -13.21698,-6.27463 c 0.34485,-7.01102 -5.53277,4.26665 0,0 z M 430.08179,483 c -0.33893,-8.62593 -6.18558,6.1999 0,0 z M 435,478.5 c 10.85934,-9.67048 -7.66087,1.78115 0,0 z m -287,-29 c -2.27463,-9.90224 -8.26856,1.15027 0,0 z m -78,-24 c -2.326745,-15.13935 -2.302873,11.0967 0,0 z m -3,-25 c -3.502374,-6.09834 -3.155185,6.30806 0,0 z m 469,-12 c -3.99957,-8.94124 -1.64389,7.69657 0,0 z m -512,-35 c -1.158206,-22.50355 -2.295672,21.11749 0,0 z m -2.758763,-58.94789 c 2.484145,-11.85715 -4.328019,-7.67666 0,0 z M 31,205 c -3.27238,-12.26535 -1.526866,11.07233 0,0 z m 544,-9.5 c -3.99957,-8.94124 -1.64389,7.69657 0,0 z m -4,-12 c -2.25596,-9.11599 -2.25596,9.11599 0,0 z M 457.5,91 c -3.68438,-6.757738 -1.51173,6.315013 0,0 z M 136.27776,83.988569 c 2.03196,-11.675568 -7.25674,8.794111 0,0 z M 31.666667,406.33333 c -4.439032,-8.33313 7.167865,1.62277 0,0 z M 601,273 c 2.36597,-13.84667 2.89164,14.63713 0,0 z m -3,-23.58333 c 4.82662,-7.06625 -0.0186,7.66563 0,0 z m -1,-11.77432 c -5.69934,-9.80373 0.29585,-10.31753 0,0 z M 591,221.5 c 4.61284,-7.42091 0.50954,7.85022 0,0 z M 57,146.93723 c 1.516995,-12.51821 17.954028,-11.16608 0,0 z M 67,132.5 C 112.87002,60.788115 198.09614,27.254965 278.57966,12.303883 320.78282,3.3276996 365.53147,7.2493364 404.28029,26.898845 422.02061,33.125017 467.3739,57.258111 465.66185,59.695139 409.07094,26.982532 342.5405,-0.21303753 276.30677,16.163113 206.22676,25.618264 136.98048,55.968992 88.358754,108.1537 82.048806,116.86124 76.862394,127.20799 67,132.5 Z m 466.97076,-9.58837 c -13.23078,-8.01523 -1.93249,-8.81948 0,0 z M 521.25,109.2802 c -14.71392,-13.171357 9.26909,3.00534 0,0 z M 510,97.722241 c -9.2214,-8.075762 -25.15904,-26.539351 -5.49834,-9.243727 0.70381,1.025455 12.3763,12.314906 5.49834,9.243727 z M 478.57503,70.940567 c -14.9769,-10.122131 15.35343,5.972031 0,0 z"
         id="path1637"
         sodipodi:nodetypes="ccccccccccccccccccccccccccccccccccccccccccccccccccccccccccccccccccccccccccccccccccccccccccccccccccccccccccccccccccccccccccccccccccccccccccccccccccccccccccccccccccccccccccccccccccccccccccccccccccccccccccccccc" />
      <path
         style="fill:#30302e"
         d="M 279.15163,603.98898 C 152.79419,595.35938 39.194813,497.40403 11.964562,373.77758 8.2168279,358.72896 0.17205627,316.47271 8.2427508,315.27949 14.059384,332.633 13.64447,364.81368 24.403537,372.87457 c 8.12677,-15.0555 2.544739,15.19686 -1.523572,17.9653 4.320346,5.79271 12.294576,-10.16945 15.362827,7.60059 11.340651,35.44659 29.709206,68.65172 56.14845,95.11915 24.710338,26.30029 52.345988,50.70684 85.512328,65.85282 75.95607,42.35011 170.4189,41.70203 250.37407,10.72435 29.5392,-10.47884 56.50315,-26.63647 79.68942,-47.35977 -13.05373,18.6462 -39.2683,34.24474 -61.05702,46.21072 -51.42684,28.50062 -111.37021,39.69249 -169.75841,35.00125 z M 34,405 c -3.054293,-7.66114 -3.230025,7.19887 0,0 z m 479,113 c 11.525,-4.63326 34.44633,-42.99062 31.60841,-31 -9.24507,10.56087 -20.68637,29.11556 -31.60841,31 z m -223.18365,-1.52933 c -37.69131,-4.0512 -77.82023,-14.3212 -106.47893,-39.91242 73.52964,53.16406 181.9115,51.73615 252.37687,-6.18297 C 434.55992,463.72286 457.10912,455.32761 458,452.5 415.0787,497.9718 352.24899,522.15322 289.81635,516.47067 Z m 180.83464,-0.22637 c -1.88149,-14.84629 14.69737,2.71502 0,0 z m -185.20766,-4.13431 c 34.21679,-4.1368 70.13228,-1.76126 101.48171,-18.84578 12.01736,-5.265 28.1048,-11.17048 6.26004,-1.31945 -33.02815,16.90392 -70.95121,22.71962 -107.74175,20.16523 z m -21.68002,-3.48953 c -17.88274,-1.55475 -77.28356,-30.75327 -65.2467,-27.266 21.98301,13.93266 61.81818,24.08053 76.95731,28.71514 -3.92447,-0.30116 -7.8203,-0.86861 -11.71061,-1.44914 z m 26.5025,-7.45938 c 16.30015,-2.20467 26.88068,2.12325 4.56035,0.60694 -1.55895,0.10532 -3.05076,-0.31252 -4.56035,-0.60694 z M 409,482.11663 c 12.02588,-11.25687 13.91254,-3.16146 0,0 z m -219.75,-5.14779 c -12.61246,-6.36606 -2.4331,-7.83502 2.00175,-0.31067 z M 549,476.5 c 3.38781,-5.62974 3.99587,5.70766 0,0 z m -373.17857,-3.80595 c -9.94639,-6.60121 -34.29139,-30.50564 -10.19814,-10.72434 0.38065,1.22052 20.04254,12.88105 10.19814,10.72434 z M 423.75,473.28088 c 5.84091,-7.3483 16.79759,-5.88948 0,0 z M 552,472 c 6.94382,-19.8135 15.88865,-6.98421 0,0 z m -374.61156,-5.43012 c -18.2854,-12.73915 9.97997,2.56406 0,0 z M 168,459 c -19.11284,-13.8992 7.64396,-0.15676 0.0719,0.0479 z m 394,-1.92668 c 3.02038,-11.7395 19.31497,-27.44588 5.82616,-5.12695 -0.82209,1.38902 -2.77239,6.65179 -5.82616,5.12695 z m -112.75,-5.76265 c 2.59557,-7.2965 18.8148,-13.54687 5.60687,-3.46264 z m -299.5,-3.20399 c -8.93431,-6.4981 -6.00723,-12.26964 1.28314,-0.86341 z M 461,446 c 8.69873,-10.47337 13.47637,-7.27288 0,0 z m -162.5,-2.8633 c -38.52537,-3.25719 -76.71717,-20.38296 -100.30126,-51.79899 -22.2565,-22.75711 -31.41098,-55.89842 -33.17755,-87.18884 1.11561,-32.4478 11.11222,-65.52462 32.72303,-90.04982 39.61966,-50.76228 115.01157,-65.79361 172.06699,-36.92336 32.08934,21.26468 -21.74048,-11.84719 -36.46922,-10.10428 -69.07856,-14.8628 -144.24365,32.31959 -159.59436,101.54164 -9.63222,39.09924 -1.59044,82.65729 20.99605,115.87928 26.2372,31.92012 65.01274,54.17055 107.06658,54.36477 39.56446,2.45093 76.94172,-15.98188 105.7511,-41.75889 -20.22829,24.73865 -51.57585,39.55518 -82.77237,44.32053 -8.84812,-0.39356 -17.45842,2.84265 -26.28899,1.71796 z m -150.25,-4.6453 c -10.92085,-13.37502 11.16583,7.34607 0,0 z M 461,439 c 10.42861,-11.62198 10.94338,-5.10461 0,0 z m -322,-2.27776 c -27.14021,-30.08891 9.20039,-1.77063 0,0 z M 575,431 c 3.62288,-13.09217 17.2411,-32.16428 6.42318,-8.55076 C 580.66567,422.11705 577.42787,438.10488 575,431 Z m -101,-1.5 c 2.61886,-10.37262 14.70806,-9.22036 0.98048,1.27593 z m -407,-4 c 2.393608,-14.29577 2.877345,12.06236 0,0 z m 72,1.70339 c -16.01001,-13.66904 1.96066,-9.07564 0,0 z m -14.28125,-8.31797 c -10.20223,-13.45535 -7.72217,-20.42892 2.28769,-2.20286 3.14971,2.88082 -1.21646,3.77297 -2.28769,2.20286 z M 474,420 c 3.14439,-7.26902 15.61363,-15.49141 4.2821,-3.25733 z m 13,-9.5 c 7.65645,-17.55147 17.13122,-20.3863 4.58586,-2.44826 0.62639,1.76838 -3.44623,5.51935 -4.58586,2.44826 z m -361.5712,-2.92764 c -15.00848,-12.47018 -0.7789,-14.11075 2.24147,2.01489 z m 463.28259,-5.19431 c 3.154,-28.48202 12.51796,-55.90635 14.97129,-84.64288 1.21596,-10.03679 0.66626,-53.07236 0.94985,-22.06968 1.16064,35.82611 -3.25583,73.75502 -15.92114,106.71256 z M 63.693853,401.36052 c -0.217801,-6.41824 6.564359,3.04649 0,0 z M 487,400.5 c 7.46457,-15.15691 11.70639,-15.31026 1.92774,1.10178 l -1.28319,0.39786 z m -374.41591,-6.90345 c -19.405901,-40.34863 12.82501,8.42449 0,0 z M 409,392 c 12.33499,-19.69712 15.34766,-5.42019 0,0 z m 124,-3.5 c 3.81611,-8.56619 2.5032,8.1008 0,0 z M 500,386 c 4.57556,-11.23722 9.85423,-44.13271 7.61226,-14.56746 C 505.92855,373.6791 505.25216,393.43001 500,386 Z m -387.6,-7.59832 c -13.468927,-29.96416 10.0027,7.37713 0,0 z M 497,379.5 c 3.81611,-8.56619 2.5032,8.1008 0,0 z M 422,375 c 15.52969,-28.99934 7.73025,1.25613 0,0 z m -319,-5.5 c 2.39363,-14.29568 2.87733,12.06233 0,0 z m 3,-9 c 2.39363,-14.29568 2.87733,12.06233 0,0 z m -84,-7 c 1.991231,-28.24345 1.824138,26.79956 0,0 z m 80,8 c -7.347936,-12.91293 -4.35377,-34.5431 -0.5126,-9.30206 1.40189,0.27526 2.68797,13.76525 0.5126,9.30206 z M 435,350 c 4.84344,-11.26269 1.60554,10.35427 0,0 z m -332,-1 c 4.84344,-11.26269 1.60554,10.35427 0,0 z m 407,0.46862 c -10.46857,-15.89677 10.81158,-12.95382 0,0 z M 438.07895,341.75 c 10.67371,-22.31753 3.17214,-70.24677 1.86955,-77.89423 7.85888,25.33797 6.49922,57.85913 -1.60041,80.50995 z M 102.1681,340.83333 c -2.50107,-10.7331 -4.788874,-39.45489 -6.598598,-12.41592 -10.128127,-27.7707 -3.174262,-57.56428 4.608488,-84.95116 3.45256,-14.63834 21.81595,-42.70479 8.20934,-11.18345 -8.43348,19.00672 -19.411568,65.36236 -12.237255,70.10065 8.322095,7.04775 3.309749,27.64524 6.018025,38.44988 z M 513,327 c 3.5977,-13.13796 2.23579,12.40421 0,0 z m -3,-22 c -0.92352,-23.07971 4.63537,-6.26138 4.53792,6.68722 5.31433,-26.85911 -4.54696,-54.55762 -10.14227,-80.92852 C 492.26018,203.33437 476.72571,176.20066 454.6381,155.79702 401.39579,100.38296 314.99156,78.538494 242.01492,103.57573 190.7415,118.6159 149.85645,156.25526 121.51227,200.5326 c 7.1364,-21.2205 36.01566,-52.26789 59.58942,-69.05494 66.70046,-50.291563 163.77814,-55.277417 234.53743,-10.74237 39.59705,21.53786 68.39681,58.38894 87.61195,98.48198 8.43646,31.15883 24.72144,67.46332 10.94334,98.88129 C 506.6435,320.49528 511.28127,308.77513 510,305 Z M 19,292 c 2.180823,-20.37765 2.330863,18.01998 0,0 z m 80.444429,-7.31038 c 2.037481,-23.49922 3.386791,-8.32021 0.110404,5.69112 z M 5.1747072,272.32143 C 3.2629596,258.78465 19.580766,211.03671 10.575655,248.39688 8.7483184,250.31674 8.4571984,283.74496 5.1747072,272.32143 Z M 508.25,269.43999 c -6.65057,-10.78523 6.17656,-3.35517 0,0 z M 601.01531,263.25 c 1.3644,-12.63263 2.68132,16.48965 0,0 z M 103,258.5 c 3.81611,-8.56619 2.5032,8.1008 0,0 z m 332,-5 c 3.81611,-8.56619 2.5032,8.1008 0,0 z m 71.1681,-0.66667 c -7.01835,-11.17451 1.99987,-8.84745 0,0 z m -74.58401,-9.23678 c -12.65006,-19.28934 4.98856,-2.93612 0.22958,0.62333 z M 598.01531,243.75 c 1.85354,-8.38725 2.15712,11.55607 0,0 z M 109.116,239.25 c 2.49199,-13.48192 13.65088,-16.62727 0,0 z m 485.87035,-9 c -4.3458,-19.94629 4.93904,8.95173 0,0 z M 419,222.46862 c -16.29535,-12.72628 3.10685,-6.93237 0,0 z M 15,220 c 4.843437,-11.26269 1.605543,10.35427 0,0 z m 477.29054,-0.45244 c -8.47245,-14.40293 6.36769,3.10684 0,0 z m 99.37613,-0.21423 c -7.56801,-15.31556 6.82942,2.23893 0,0 z M 119,213.46862 c -9.8417,-8.67778 6.63562,-3.86764 0,0 z m -101,-3 c 3.173062,-16.08566 13.806461,-22.95605 4.085375,-3.39044 0.194531,0.66857 -3.46971,11.7879 -4.085375,3.39044 z M 588,208.5 c 3.4775,-7.9211 1.94764,8.5175 0,0 z m -465.92105,-0.0278 c 4.75532,-13.99323 9.06482,-4.85847 0,0 z m 281.87414,-4.42989 c -11.98727,-7.09698 -20.59151,-20.28091 -3.46231,-5.61057 0.89528,2.36916 14.61535,12.89185 3.46231,5.61057 z m 180.58593,-6.68605 c -13.52337,-22.52083 6.29407,-5.37421 0.17356,3.53864 z M 129,196 c 3.55104,-7.63375 3.36055,7.48846 0,0 z m 350.45528,0.64914 c -8.03257,-8.22514 6.05227,0.98743 0,0 z M 132,191.5 c 7.90355,-10.95014 13.6315,-9.13682 0,0 z m -104,-7 C 59.034052,114.41446 116.76492,56.933075 188.10785,28.292017 275.85318,-9.5319235 381.00002,-2.5317692 462.25326,48.013405 c 28.19515,16.62926 52.57496,38.67082 73.48516,63.612215 11.23574,11.711 38.43106,52.10293 34.87881,54.44515 C 550.67971,143.4397 532.91742,118.60417 511.81575,96.569111 489.02253,73.065837 461.52166,54.451906 432.59498,39.464549 386.76909,17.825617 334.6458,-3.4228766 283.64955,12.391357 230.89912,19.119124 179.7876,36.805386 135.29275,66.070789 108.38562,82.076284 85.051759,102.62679 69.214089,129.98382 52.626788,144.34649 49.34109,180.79238 28,184.5 Z m 440,-4.35398 c -28.58763,-35.18982 -67.33456,-60.944 -110.54129,-74.47285 44.8042,10.34904 85.49667,39.90809 112.90821,74.65195 z m 108.75,-1.83535 c -7.64827,-7.23794 6.59481,-0.29395 0,0 z M 145,175.5 c 7.39516,-14.12512 33.2895,-30.52076 9.22345,-9.5415 -2.86599,1.7164 -4.00833,12.69519 -9.22345,9.5415 z M 171,148 c 12.68059,-10.71383 17.41076,-5.89105 0,0 z m 13,-10 c 33.31446,-23.51137 73.38532,-38.865461 114.5,-38.676614 -40.17016,3.661024 -79.6423,17.481474 -113.20054,39.288344 z m 98,-4.78507 c 10.07349,-3.21613 17.18864,2.99752 0,0 z M 347,104 c -11.52789,-4.927801 18.32883,4.49019 0,0 z m -16.33693,-2.67026 c -27.85187,-4.168937 25.46495,0.67462 0,0 z M 303.25,98.283746 c 11.41692,-2.388208 3.64106,1.802894 0,0 z M 455,91 c 2.56707,-6.613756 2.31857,6.151337 0,0 z M 132,84.5 c 5.47275,-8.898089 6.17388,3.776876 0,0 z"
         id="path1635" />
      <path
         style="fill:#020202"
         d="M 283.29402,607.9285 C 147.30561,600.96121 25.111986,490.79769 4.5609784,356.0538 -17.97051,231.20506 46.424063,95.931193 159.19955,36.862219 251.15039,-13.409023 370.98725,-12.001346 459.45653,44.896918 429.58856,30.88643 390.60452,12.382008 353.85012,7.642523 242.22108,-10.07852 121.88702,39.075403 57.401773,132.45013 c -24.85322,35.98993 -42.216408,77.3787 -49.6035375,120.75284 -9.6213029,68.0851 -0.043805,140.14321 35.2946445,199.96009 53.023532,94.49583 159.95024,156.13341 268.72862,151.47651 53.45667,0.32119 106.2895,-16.53168 151.75366,-43.9312 -13.86102,12.93606 -56.87891,31.29612 -84.49268,38.05383 -31.15116,8.20733 -63.64165,11.43654 -95.78846,9.1663 z m 187.33056,-51.39257 c 8.19333,-8.80855 10.79713,-2.57518 0,0 z M 484,546.56809 c 5.7508,-8.79749 12.58188,-1.73223 0,0 z m 16,-12.96511 c 11.81063,-10.9136 34.0161,-32.26225 10.2008,-7.3741 l -4.83443,4.17484 z M 291.5,514.91439 C 220.92187,510.59021 153.86857,468.10557 120.97944,405.56704 133.20167,412.01329 156.37555,457.59463 181,469.5 c 62.19881,50.37763 154.395,56.60812 223.72708,17.11404 12.36947,-8.73817 52.72234,-33.4752 21.17678,-8.86565 -38.39364,27.80778 -87.22638,40.21479 -134.40386,37.166 z M 441.80983,463.4765 c 19.24822,-23.27543 40.70455,-45.75648 53.47777,-74.11222 2.64878,-12.16181 14.4594,-33.52318 7.45569,-8.14193 -14.31334,31.10739 -32.90297,61.67139 -60.93346,82.25415 z M 287.75027,438.0722 c -33.54818,-4.68439 -65.47492,-21.4429 -87.07452,-47.50661 -23.47186,-23.78449 -30.05324,-59.26939 -31.14959,-91.43319 0.0868,-67.77756 57.20965,-129.4098 125.04446,-133.91979 69.05145,-8.12496 138.60985,44.94488 147.53213,114.07397 12.93646,67.84707 -34.11769,140.10509 -101.51012,155.30985 -17.23007,4.76252 -35.16294,4.60721 -52.84236,3.47577 z M 116,394.5 c -11.97949,-21.92852 -15.96464,-47.01399 -19.92989,-70.85536 3.847444,-24.66874 4.11779,26.03781 9.67421,34.17855 -0.087,9.37295 19.27766,39.22634 10.25568,36.67681 z M 507,351 c 3.15399,-16.82274 2.47103,16.27021 0,0 z m 94,-0.33333 c 2.16886,-16.67841 0.63302,15.11919 0,0 z M 510,329.5 c 3.76968,-31.55681 5.22772,24.98825 0,0 z m 3,-27.5 c -2.65015,-31.29796 -6.08424,-63.44664 -23.43639,-90.59383 -15.85302,-29.70131 -37.61814,-56.26309 -65.65859,-75.14121 -68.12359,-50.264732 -167.70584,-49.926378 -236.31961,-0.55608 -28.06292,18.31098 -48.58322,45.23757 -66.12657,73.03779 5.39583,-25.58307 29.04601,-46.86005 48.27088,-64.78513 62.32102,-55.049672 157.94485,-66.408735 231.43484,-27.40504 38.25685,18.79155 69.79264,50.27 89.79988,87.70846 17.92277,27.12123 22.11339,61.01299 25.19884,92.73284 C 516.66379,308.52527 512.43966,324.98675 513,302 Z m 92.35496,2.5 c 0.53546,-17.10346 0.84204,14.91279 0,0 z M 93,298.5 c 3.952814,-28.51882 7.69274,-59.10013 24.23426,-83.31849 -2.65468,18.82281 -15.98204,40.01542 -17.16314,61.45477 C 101.4862,283.28913 94.384735,323.21252 93,298.5 Z M 535.52932,112.09238 c -17.10466,-14.610224 7.20507,-0.19741 0,0 z M 523,97.5 C 511.49432,82.726789 473.26307,55.858397 472.04671,52.742803 490.642,65.381128 509.3722,79.443131 523,97.5 Z"
         id="path1633" />
    </g>
  </g>
</svg>
