<?xml version="1.0" encoding="UTF-8" standalone="no"?>
<!-- Created with Inkscape (http://www.inkscape.org/) -->

<svg
   version="1.1"
   id="svg1510"
   width="23"
   height="23"
   viewBox="0 0 606 609"
   sodipodi:docname="input-port-simplified.svg"
   inkscape:version="1.1.1 (3bf5ae0d25, 2021-09-20)"
   xmlns:inkscape="http://www.inkscape.org/namespaces/inkscape"
   xmlns:sodipodi="http://sodipodi.sourceforge.net/DTD/sodipodi-0.dtd"
   xmlns="http://www.w3.org/2000/svg"
   xmlns:svg="http://www.w3.org/2000/svg">
  <defs
     id="defs1514" />
  <sodipodi:namedview
     id="namedview1512"
     pagecolor="#ffffff"
     bordercolor="#666666"
     borderopacity="1.0"
     inkscape:pageshadow="2"
     inkscape:pageopacity="0.0"
     inkscape:pagecheckerboard="0"
     showgrid="false"
     inkscape:zoom="22.93596"
     inkscape:cx="-10.463918"
     inkscape:cy="11.815507"
     inkscape:window-width="3840"
     inkscape:window-height="2066"
     inkscape:window-x="2869"
     inkscape:window-y="-11"
     inkscape:window-maximized="1"
     inkscape:current-layer="g1516" />
  <g
     inkscape:groupmode="layer"
     inkscape:label="Image"
     id="g1516">
    <g
       id="g1631"
       transform="translate(-0.19206978,-0.09439982)">
      <path
         style="fill:#c8c4ba"
         d="m 302.5,493.87403 c -28.43894,0.077 -56.39256,-8.33684 -81.33026,-20.57809 C 207.70344,464.19755 191.83826,457.55575 181,445 c -9.72042,-8.91163 -20.6298,-19.02995 -27.5,-30 -7.02501,-13.82905 -16.19525,-23.56922 -21.94063,-38.43348 -7.74033,-17.20353 -14.40523,-38.97921 -12.83536,-59.91176 -6.7834,-1.45768 -1.91425,32.08847 -5.38099,35.42334 -4.70161,-18.62356 -13.902802,-34.62473 -10.34037,-55.33225 -0.40443,-20.21314 4.288,-40.34351 12.64021,-57.57919 -0.46534,-10.31596 24.10414,2.28379 15.21281,-18.00709 -21.0773,18.76986 -6.71147,-8.28358 1.14433,-15.12439 6.97426,-10.90228 14.95211,-19.59386 21.60841,-31.03518 8.91779,-14.56407 24.42253,-23.53617 39.53355,-31.38774 16.7776,-9.60453 36.31358,-17.86676 55.3897,-24.65109 26.96168,-5.76518 52.48165,-21.274413 80.9651,-14.9624 C 361.3123,108.94182 393.88235,120.73736 417,143 c 11.88116,7.32347 21.28741,16.96717 30.5625,26.58333 5.11414,10.7026 18.82476,14.02621 23.87812,24.98638 6.69797,7.26883 12.94335,18.24016 18.55938,26.43029 -7.51359,13.37514 8.44026,28.59178 6.60436,42.07518 4.97124,12.735 2.55064,38.06896 9.90369,30.77951 -2.23292,12.61221 4.86401,57.67559 -8.00802,52.14531 2.47985,13.87967 -3.1343,30.09058 -10,44 -3.61621,11.16002 -14.05233,20.61955 -17.50003,31.46482 -7.10555,9.18136 -14.17788,19.2358 -23,26.29107 -9.34077,11.67183 -20.63258,20.48727 -35.80055,24.14576 -16.09155,6.39278 -38.60595,14.22889 -58.08066,17.68683 -16.88716,3.07232 -34.50796,4.85908 -51.61879,4.28555 z m -9.75,-4.50432 C 306.56367,475.37495 268.97847,481.69921 260.99638,474 245.89655,475.17344 231.69967,466.21243 226,467.65264 c 14.88701,14.54451 37.97461,18.30717 58.96925,20.27741 L 290,489.87034 Z M 318,487.11658 c -8.07547,-11.91685 -21.20001,7.82659 -0.51791,2.39843 z m 13.81847,-0.3212 c 15.22612,-1.5477 25.82749,-5.77208 40.92252,-9.16462 10.69061,-4.0137 26.68438,-18.4727 4.79039,-9.63076 -17.56859,9.04958 -42.25202,11.87695 -56.53138,16.57946 -1.46908,6.95545 8.00741,0.0662 10.81847,2.21592 z m 12.35233,-10.80779 c 19.00955,-6.05563 41.61521,-10.04126 55.41417,-24.551 12.38685,-6.11061 19.95415,-18.28 30.70931,-26.71927 9.86624,-10.45405 17.41867,-23.05535 24.24819,-35.91067 11.07223,-23.78304 -26.80124,-0.85375 -11.3913,-29.02371 7.61625,-25.27149 11.73527,-51.55715 12.75113,-78.79659 11.38035,9.26108 20.46897,2.97624 20.76494,-11.98112 3.28456,9.77125 10.22978,59.87384 10.3195,25.13868 C 489.53063,269.58671 480.15146,247.43584 473.66667,225 462.41997,214.2692 462.25583,197.55887 448.4,189.33334 443.55885,176.77008 429.78313,169.44454 420.5,160 c -20.61501,-15.50907 -43.74337,-28.18514 -69.75,-32.51419 -25.01264,-6.83718 -53.61066,-6.96223 -76.40778,0.0476 -20.82935,3.02396 -37.21304,14.11042 -54.34222,24.7225 -7.97715,3.88986 -22.53776,26.08306 -4.56689,22.74411 3.3082,-16.993 10.73461,-0.1739 -2.07148,6.5 -2.09836,-0.86937 -13.96574,-8.59027 -6.36163,2.5 5.82041,4.19038 -10.95138,12.99577 -14.53138,19 -10.39635,9.53024 -16.79341,21.24027 -21.84233,35.24477 -8.35338,12.09752 -13.99701,27.73703 -15.57287,43.11461 -3.17437,11.00379 6.10512,31.698 -6.05342,35.03363 9.06788,11.90424 11.79299,25.97228 17.62883,40.60699 1.17031,11.2109 19.29649,28.7968 2.87117,35 -13.69692,-3.14047 -9.68863,12.15244 0,22 7.35202,9.37823 17.01496,17.51888 25.35671,26.61197 19.69519,13.15622 39.93022,25.11376 64.69109,25.46666 24.20682,5.03765 46.9976,2.73867 69.78101,10.59079 4.87526,-0.19626 10.09654,1.02744 14.84199,-0.68183 z M 403,420.11663 c 6.72991,-6.9864 9.13796,4.43208 0,0 z M 370,164.5 c -8.23721,-8.3922 10.64846,2.54356 0,0 z M 220,465 C 216.30254,453.14667 199.27746,449.90686 192.68165,441 181.01146,429.74093 168.56738,423.27493 161,409.53138 152.08909,402.75505 151.73287,373.65054 140.5,385 c 6.14984,6.9094 9.02897,18.17282 17.13559,23.79629 2.42731,13.99174 14.45672,20.23714 21.86441,30.20371 11.35161,11.39595 28.08483,22.76665 40.15625,29.08333 z m 180.56144,-2.95199 c 6.28295,-8.65734 21.08466,-10.74402 23.68856,-20.06166 -9.99068,2.20842 -23.5753,11.68824 -31.25,20.51365 1.23579,3.02319 5.89611,1.02308 7.56144,-0.45199 z M 435,436 c -6.1066,-13.84642 -15.22482,9.12376 0,0 z m 16,-24.85534 c 24.62432,-18.54161 -19.43168,-0.51215 0,0 z m 19.39301,-24.72645 c 9.46529,-19.88886 -14.71429,-0.74655 0,0 z M 135.53513,372.94316 c 0.60238,-19.52629 -5.99459,6.28754 0,0 z M 148.70844,365.25 c 5.83693,-11.98178 -15.06523,-14.40461 -6.42257,-31.25755 5.44354,-14.36678 -19.38806,-11.06867 -7.28587,7.0091 -1.11199,8.12513 9.92374,24.24279 13.70844,24.24845 z m 318.76224,-3.15762 c 11.63032,-12.78609 5.37386,-23.22268 12.5502,-38.78778 -2.81997,-27.94891 -12.08384,3.68555 -11.97909,11.92958 5.80709,6.52366 -5.54211,26.38456 -0.57111,26.8582 z M 143.75,318.23522 c -4.98184,-11.47364 -16.90159,2.06583 0,0 z M 109,295.5 c 4.80432,-16.30383 6.15528,-27.47362 6.69231,-45.16667 -7.14566,10.75186 -9.4134,35.76918 -9.41106,53.41667 2.7623,8.07317 3.16617,-8.08252 2.71875,-8.25 z m 36,-26 c 13.95449,-28.02898 -13.42411,-7.07185 0,0 z m -26,-27 c -3.80279,-8.73518 -3.02961,8.42372 0,0 z M 138.5,213 c 8.2538,-7.10919 11.52023,-25.97229 0.9346,-9.41143 -3.07944,1.20526 -4.8467,18.5511 -0.9346,9.41143 z M 471,207.46862 c -2.68455,-13.97127 -14.97104,-24.45234 -5.23453,-3.59494 0.25446,2.68458 4.92037,11.52595 5.23453,3.59494 z M 191.75,196.36971 c 10.89664,-15.04763 -22.39208,-4.27537 0,0 z M 155,190 c 7.54942,-12.72159 19.99461,-19.40615 29,-28.48658 14.47009,-13.27197 33.14978,-25.00468 52.11794,-32.03165 13.76157,-0.2104 35.7767,-16.85491 8.14687,-6.48177 -15.2284,6.10404 -29.50958,12.27693 -43.52599,20 -13.93758,2.59721 -20.30185,19.3815 -32.10976,21.30301 C 164.75624,169.33508 140.56595,193.93771 155,190 Z m 306,-2 c -8.07659,-7.23355 -15.15826,-14.10909 -21.5,-23 -8.28387,-10.8169 -25.39919,-15.69334 -30.9092,-26.4125 -18.71693,-8.25727 -34.13413,-21.78868 -55.39135,-27.48915 -20.2311,-5.88442 -53.01924,-9.11283 -66.83888,3.83955 27.06169,-0.35067 53.12404,4.24423 79.22503,11.24497 21.54463,7.72634 41.94036,15.97849 58.10296,31.81713 13.47649,6.67505 19.18597,22.39628 30.84272,28.58151 2.56017,-2.20379 4.77298,5.127 6.46872,1.41849 z M 272,120 c 29.56591,-10.26069 -31.91495,0.87934 0,0 z m 231.66667,148.33333 c -4.74212,-13.69292 -2.41449,-26.34132 2.33333,-2.75 l -0.60976,3.14517 z M 497,243 c 3.81129,-10.4274 2.96789,10.08547 0,0 z m -2.25,-5.98992 c -8.84605,-15.05577 -0.86662,-15.94319 0,0 z"
         id="path1645" />
      <path
         style="fill:#a6a198"
         d="m 244.75,498.31067 c -22.26028,-7.61731 13.68418,-0.67415 0,0 z M 294.08273,496 c -22.34676,-2.41336 -45.22238,-7.67305 -65.13759,-18 -22.69672,-12.2292 27.8329,12.79072 39.68713,12.13077 31.55462,6.57147 64.81369,3.49976 96.04925,-1.90102 20.00224,-9.38238 39.58964,-10.39882 57.31848,-19.8598 27.01371,-12.86156 -11.89604,9.2708 -19.96862,14.63005 -15.28854,9.73269 -32.85073,2.91447 -50.16107,9.72045 -19.12288,3.26352 -38.40325,4.31277 -57.78758,3.27955 z m 29.63624,-19.96262 C 302.47079,467.29962 279.24532,471.66605 256,465.40295 c -23.92446,-0.1455 -43.53495,-12.92817 -62,-25.98241 -22.34709,-20.31079 14.73078,8.44687 24.5,13.57946 15.44209,7.20758 34.69564,11.27998 20.92773,-7.77218 -10.25913,-20.0517 -2.53284,14.82159 -16.11886,1.77218 4.65598,-4.67181 -4.2202,-21.47217 -15.90173,-10.64773 -11.01251,-9.57509 -25.75699,-19.92478 -37.15714,-32.97727 -14.37348,-2.74456 21.84124,30.06835 5.44668,17.01094 -7.80641,-4.09491 -23.7219,-30.76162 -10.69668,-26.82692 14.03161,1.66195 9.87532,-20.95916 8.25,-25.16618 5.56502,11.64854 10.62163,21.57681 18.19128,31.87279 7.34613,9.15898 16.48059,19.70022 25.99622,25.15104 10.51459,8.32689 23.99209,12.10748 36.70662,18.87583 31.40439,10.49961 66.04943,7.99869 98.20681,3.65082 8.67976,-5.06138 22.33426,-10.96067 30.45677,-7.86897 C 377.56527,426.63293 404.34994,421.47327 410.5,408 c 8.65817,-10.75387 18.05755,-19.69617 24.5,-32 5.81034,-9.75674 12.12134,-37.7333 7,-9.96636 -7.3178,17.57197 29.55342,5.85718 9.116,27.71636 -13.61072,-9.94677 6.65952,6.67834 -6.116,9.70031 -5.02417,15.66398 -19.13266,22.94497 -28.50922,35.11795 -10.17305,7.86239 -18.37057,17.20243 -30.4594,22.43174 -10.16724,6.77889 -38.00136,14.08172 -11.93575,4 10.65228,-4.56913 40.51093,-19.75347 31.90437,-28.72224 -9.44746,9.1157 -20.04877,2.45875 -25.41189,14.06168 -17.36288,-20.3537 -16.01865,20.84298 -24.34381,0.31155 -15.2665,5.71983 -9.6208,2.71244 -6.60144,10.51567 -9.08552,-4.47987 -12.48575,9.15378 -25.63139,7.62865 9.10772,10.95118 52.81953,-2.7129 17.62489,7.84409 -5.96917,0.41389 -11.99594,0.31564 -17.91739,-0.60202 z M 415,431.39301 c -3.9993,-8.42883 -3.1028,9.70411 0,0 z M 213,428 c -3.63819,-10.98682 -2.46801,9.62149 0,0 z m 196,-8.5 c -4.97498,-5.52281 -9.97228,6.43428 0,0 z m 29,-11 c -3.82497,-12.1639 -2.90684,11.79078 0,0 z m -224.75,62.00913 c -11.73893,-6.0529 -33.06193,-22.26396 -8.36875,-6.89177 1.96434,-0.037 19.14138,11.27042 8.36875,6.89177 z m -27.13522,-18.05785 c -7.57489,-9.63039 12.72941,9.06044 0,0 z M 441,454.00757 c 6.14117,-9.53596 11.02565,-2.95528 0,0 z M 175.85496,442.51728 c -15.95223,-12.29977 1.39036,-4.88075 4,2.36672 z M 452.25,444.31067 c 10.64169,-11.95755 0.98869,3.05917 0,0 z m -238.69423,-4.22043 c -0.0503,-10.06703 7.03316,3.6256 0,0 z M 461,433 c 8.21818,-8.66205 6.7821,0.59189 0,0 z m -296,-0.85398 c -17.06893,-17.6184 -4.44406,-12.49548 0,0 z M 151.58409,415.59655 C 146.56013,405.18859 138.2445,398.63654 133.5,388.63837 c -10.16857,-24.05028 5.37278,-1.00384 8.875,9.61163 4.30021,1.32818 17.26047,27.52667 9.20909,17.34655 z M 474,412.5 c 12.15262,-17.32915 12.47533,-6.78873 0,0 z m -341.39626,-7.09024 c -0.37644,-9.22978 5.26647,4.8525 0,0 z M 129,397.5 c 3.81195,-16.4151 2.62569,15.28505 0,0 z m -6,-9.95031 C 118.06197,370.69873 111.45651,355.27058 106,338.5 c 1.53012,-17.30366 12.02843,33.62156 8.5,4.5 -1.49543,-8.71856 4.57487,-46.28943 4.5,-14.57143 -1.83615,19.3029 14.27093,37.64604 5.40859,50.89798 2.1512,1.3088 1.19021,16.77012 -1.40859,8.22314 z m 367.116,-1.83107 c 6.84671,-20.44409 10.0474,-9.58942 0,0 z M 497,366 c 3.81129,-10.4274 2.96789,10.08547 0,0 z m -329,-3 c 3.81129,-10.4274 2.96789,10.08547 0,0 z m 332,-6.5 c -8.42963,-12.06364 4.28762,-6.63584 5.97604,-11.46129 C 502.5793,346.31215 504.34809,362.27457 500,356.5 Z m -335,-2 c 3.80279,-8.73518 3.02961,8.42372 0,0 z m -1,-5.41667 c -5.97637,-11.21711 -7.32581,-26.51932 -0.33114,-4.27161 2.31599,-0.91532 0.94475,10.64434 0.33114,4.27161 z M 445,344 c 4.28629,-13.94914 2.53267,13.25403 0,0 z m 3,-13.5 c 3.82497,-12.1639 2.90684,11.79078 0,0 z m -345,-3 c 3.80279,-8.73518 3.02961,8.42372 0,0 z m 403.32814,-4 c 0.8151,-11.7383 0.63562,13.16835 0,0 z M 155,326 c -11.50623,-10.71847 4.05736,-11.63872 0,-25.73243 -1.28784,-18.62678 1.6868,-35.78167 9.4288,-51.83993 5.36991,4.15966 -13.52021,42.47828 -6.44001,60.42913 -0.29494,0.8763 0.97763,28.024 -2.98879,17.14323 z m 296.07895,-29.25 c -4.07362,-14.19613 4.41824,-38.57964 -6.48959,-40.25 -4.12171,-14.94602 -6.29726,-29.17948 -18.71187,-39.65219 C 418.47732,207.11421 409.81448,197.4947 400.53138,190 383.13996,172.7402 357.49837,161.11199 332.32313,157.42302 305.23001,150.29876 275.26492,155.47887 249.48655,165.43899 231.55983,171.115 216.1912,182.64606 204,195.5 c -10.44468,8.41213 -19.51673,18.16551 -23.375,30.75 -15.29228,24.05158 -6.69999,-4.87086 3.01563,-11.07143 C 186.4494,202.87682 200.27824,198.46801 207,188.5 c 5.59448,-2.23039 -9.30941,-16.51761 3,-9 7.28156,10.59274 16.21946,-22.63424 7,-9.5 -2.48633,14.88661 -18.99554,-3.55344 -4.44753,-9.70946 11.3739,-14.41404 29.14606,-20.7199 45.04355,-28.31368 24.49691,-10.13242 47.25038,-9.53141 74.02121,-8.89414 27.28406,4.89797 55.07534,12.43074 77.38277,28.99031 -21.28341,-9.15767 -42.35917,-21.47699 -66.17316,-24.35678 -32.15254,-6.59662 -65.89571,-0.67172 -96.31951,10.77669 -14.38904,5.85409 -22.25982,21.81572 -2.48583,9.79634 27.90764,-8.8785 56.85007,-11.70945 86.15852,-9.44254 21.42131,3.14764 43.83423,7.99373 60.91554,22.15323 12.63453,9.57909 24.67409,18.85833 35.29745,30 10.7732,6.42112 14.2349,16.74268 19.04761,28.43348 10.329,6.40752 12.19594,19.91608 16.95097,29.56652 C 477.02808,270.8526 462.4161,230.00707 456.5,224 c -4.71838,-18.64234 12.3544,9.13839 14.11269,14.76437 1.35512,11.35236 14.12583,40.59526 7.74954,10.93593 -10.93816,-32.4405 8.2198,2.88532 7.13777,18.2997 3.8206,11.28523 1.20455,63.10066 -3.40863,24.03339 -1.83593,-10.60471 -9.08981,-38.15938 -8.38825,-9.61673 -7.12604,15.10315 -20.99699,-17.21419 -18.78193,9.7296 0.61022,11.48784 -3.68863,41.38055 -3.76653,14.09534 l -0.0482,-4.55046 z M 373,163.5 c -10.55008,-11.34183 -1.84017,8.96988 0,0 z m 134,137 c 2.96712,-32.31994 1.75901,30.82848 0,0 z M 598,282 c 4.28629,-13.94914 2.53267,13.25403 0,0 z m -91.65719,-5.5 c 0.78474,-13.503 0.62873,14.95627 0,0 z M 12,268.5 c -0.992497,-12.1428 9.408263,-34.61167 4.5,-7.5 -1.598288,7.19326 -3.298115,30.21128 -4.5,7.5 z m 91,5.5 c 3.75786,-7.01534 3.12625,6.75372 0,0 z m 39,-9.5 c 7.45039,-29.80383 6.49979,22.3934 0,0 z m 452.83889,-7.34538 c -6.20789,-16.25977 -1.04902,-27.38203 2.75887,-4.46943 2.03121,3.75968 -2.19371,20.13509 -2.75887,4.46943 z m -91.3546,1.77387 c -1.30605,-12.16774 5.46128,11.01624 0,0 z M 106,259 c 3.75786,-7.01534 3.12625,6.75372 0,0 z m 62,-17 c 3.81129,-10.4274 2.96789,10.08547 0,0 z m 303,-13.92857 c -8.36231,-14.03616 -12.20793,-27.5509 0,-6.10281 3.05347,1.14193 4.32132,12.1864 0,6.10281 z m -352,-5.03139 c 4.29942,-11.44771 6.58805,-2.0188 0,0 z M 126,209.5 c 6.81395,-7.03504 11.9474,-18.16576 19,-25.00979 14.10001,-23.13 6.7484,-2.6691 -3,7.50979 -5.40637,3.77666 -9.97279,20.08482 -16,17.5 z m 355.75,-1.47878 c -11.27046,-11.81048 -4.85068,-13.38438 2.10827,0.75909 z M 458,203.7444 c -17.1356,-17.17453 -3.98013,-14.49751 3,-0.2444 0.74584,2.9271 -3.48702,3.29993 -3,0.2444 z m -271.75,-9.20513 c -5.3411,-17.59942 19.86473,6.47394 0,0 z M 471,193.53518 C 467.19191,183.87277 448.67544,178.67732 449.5,170 c 2.40141,5.43647 32.49236,24.20792 21.5,23.53518 z m -27.25,-8.61851 c -15.98529,-16.4425 -1.60624,-8.43173 3.85353,1.88174 l -1.01495,0.0411 z M 432,172 c -17.77196,-11.03645 -1.50723,-8.50679 1.5,1 z m -277,-3 c 14.6224,-16.31234 33.93335,-28.82805 55,-35.99712 10.84405,-5.88483 29.63833,-10.89798 7,-1.50288 -15.76207,6.99342 -30.20504,15.44531 -45.00171,23.9314 C 166.1151,157.35178 158.48282,174.60843 155,169 Z m 290,-1 c -18.51729,-15.17583 13.52435,4.83695 0,0 z m -28.91836,-8.51243 c -18.13548,-13.78847 18.15786,7.9577 0,0 z M 438,159.5 c -12.5875,-10.3153 -25.81117,-20.80915 -39,-31 -7.05583,-6.74087 -46.80545,-19.28442 -37.03423,-18.16696 22.43155,7.71975 44.93007,18.36908 60.90199,35.18608 3.73747,-0.9447 24.11399,19.16106 15.13224,13.98088 z m -364,-28 c 4.728526,-10.92683 13.239941,-9.90719 2.5,0.5 l -1.584772,1.9265 z m 159,-7.37004 c 27.18229,-9.80238 53.69155,-24.459259 83.43668,-21.73927 -26.42837,0.71993 -50.53212,12.8031 -75.69996,19.65402 -2.85816,-2.71081 -5.22278,5.59486 -7.73672,2.08525 z M 86.786692,115 C 91.851182,105.66726 101.37225,98.942831 109,91 121.54474,80.52086 133.2445,70.056594 148.4125,63.582715 168.00077,50.911781 154.86546,63.857005 143.5,69 c -7.44404,7.798164 -20.91015,10.976392 -26,21 -8.05867,7.857834 -17.16178,14.22246 -24.5,23 -0.788734,1.80918 -7.151768,8.658 -6.213308,2 z M 517.5945,112.5 C 508.3862,103.26886 500.13826,91.713414 487.42603,85.559375 477.78855,77.68343 469.63599,68.862442 457.83369,63.463473 441.16374,53.258032 422.79771,45.011503 405.96862,37 375.28825,23.77425 428.36814,41.299929 438,47 c 12.71307,6.887834 21.66647,12.843874 33.08354,19.518379 8.41453,7.135548 17.70688,13.122894 25.91646,20.902166 9.73976,5.886651 21.57988,21.270805 23.79292,27.424995 z m -184.4826,-7.58099 c -13.83705,-5.73177 26.39247,4.19491 0,0 z M 383.25,30.276604 c -11.29251,-8.402882 22.06246,2.947888 0,0 z m -13.79112,-4.343135 c 5.3,-6.022523 14.02228,5.82371 0,0 z m -18.95563,-2.673534 c -15.15292,-3.382124 -34.69751,-5.508828 -6.98974,-4.87334 11.18699,2.792496 37.26778,6.314747 6.98974,4.87334 z M 277.5,19 c 17.42032,-3.367305 3.21677,3.86413 0,0 z m 14.5,0 c 7.90872,-3.711082 7.90872,3.711082 0,0 z"
         id="path1643" />
      <path
         style="fill:#8a857a"
         d="m 267.5,504.06264 c -26.85784,-6.43967 -25.85785,-7.22036 -50.5,-15.98318 -7.52281,-4.75471 -43.39599,-24.70638 -19.83333,-16.32946 18.22518,14.05145 42.06623,20.6518 63.2076,28.25 7.68248,0.84148 31.29718,6.65912 10.44761,4.61917 z M 249,498 c -6.56728,-5.95625 -8.24308,3.17 0,0 z m 99.5,3 c 11.0741,-3.17269 -0.47077,3.55665 0,0 z m 15.31955,-5.25 c -12.84462,-4.61616 -38.24189,3.47416 -48.5945,0.64091 23.63658,2.35652 47.84473,-10.86325 69.23921,-6.50841 33.24752,-12.71436 -19.69713,13.34942 -20.64471,5.8675 z M 297.25,496.28375 c 12.20409,-1.459 2.40748,1.47564 0,0 z M 262.5,491.472 c -10.69891,-4.68698 18.07574,4.92709 0,0 z m -11,-3.12878 c -3.89878,-5.17189 11.14685,4.95554 0,0 z m 83,-15.02525 c -27.06683,-1.37475 19.52187,-16.24707 12.94062,-11.7586 6.83996,-8.08434 -11.35906,-2.67092 5.13232,-10.77733 7.63562,6.23064 12.17895,8.39322 12.89188,-4.16703 14.11782,-1.72305 28.79789,5.19013 6.06643,9.98915 -11.97614,1.0087 -43.09694,13.34457 -28.74778,17.06861 -2.76429,0.005 -5.5309,0.0999 -8.28347,-0.3548 z M 348.5,472 c 13.53836,-4.18221 -2.69344,3.53577 0,0 z m 9.5,-1.70046 c 21.76247,-7.97154 3.52491,1.37048 0,0 z M 181,464 c -9.0688,-5.93459 10.08921,0.31096 0,0 z m 194,-0.3288 c 14.45067,-8.97572 22.27628,-8.52923 2.90662,-0.60471 l -4.06099,1.92735 z m -178,-1.82613 c -9.55855,-6.47569 17.11402,7.16197 0,0 z m 39,-2.76561 C 222.55609,455.78447 199.44381,445.12037 207.60176,440.38458 200.0764,431.42117 190.92492,424.68113 207,434.5 c 3.08989,-3.4559 28.65663,0.71963 13,11.5 19.05846,9.20234 6.20109,-0.89346 14.5,-8 4.05347,4.08681 19.37191,29.85472 1.5,21.07946 z M 238,456 c -2.90693,-7.14059 -8.32181,4.5663 0,0 z m -21,-9.5 c -5.51475,-5.07741 -9.32367,2.15609 0,0 z m -0.18045,-7.67167 c -4.7168,-8.40064 -2.55567,7.69396 0,0 z m -29.91504,16.24285 c -8.83415,-10.36635 11.59928,6.95784 0,0 z m 100.99333,-4.00433 c -17.131,-0.76549 -46.01114,-8.49109 -52.64784,-17.65941 24.07973,13.05353 52.76276,19.32477 80.79557,16.99691 21.84106,-2.19581 43.93482,-6.86937 61.95443,-18.6941 7.14224,-8.14621 32.39681,-19.79447 11,-3.23717 -14.80426,-0.46143 0.73828,22.01187 -16.13849,9.6894 -20.23116,13.26172 -46.23537,13.64416 -72.0545,13.35264 -4.30514,-0.077 -8.60935,-0.21902 -12.90917,-0.44827 z M 397.25,450.31067 c 15.19579,-10.22579 -27.9291,0.11556 -4.57301,-8.23368 12.42982,-6.31818 23.49188,-7.06382 8.96936,6.54678 l -4.88233,2.26023 z M 176,444 c -14.92118,-11.55862 15.90481,9.42855 0,0 z m 24.25,-2.58444 c -16.93536,-9.89037 12.61664,3.6955 0,0 z m -10.18085,-7.13812 c -10.08222,-10.09434 2.63541,0.87929 2.93085,0.52761 z M 412,431.96862 c 3.7756,-10.24889 2.80434,8.66079 0,0 z m -263,0.52159 C 142.53621,421.7361 133.16824,412.65423 127.5,402 c -4.61231,-9.4357 -12.85854,-28.44088 -2.40676,-12.75 -5.20789,-25.64705 6.29602,-14.75543 9.90676,2.85699 9.72297,7.75628 1.27044,17.4785 11.5,26.53138 2.97656,1.70637 8.91345,19.70319 2.5,13.85184 z M 135,404.5 c -2.9543,-8.49437 -2.59529,8.37762 0,0 z m -3,-7 c -3.81195,-16.4151 -2.62569,15.28505 0,0 z m 30.26797,32.5 c -14.12772,-11.78499 10.27222,6.24572 0,0 z m 61.03234,0.34021 c -16.21205,-13.03594 8.29784,2.95567 8.4321,1.45992 -2.79455,-0.26236 -6.15874,0.64842 -8.4321,-1.45992 z M 210.63029,428.75 c -0.61346,-14.28973 5.82143,9.44593 0,0 z M 189.75,425.31067 C 186.16161,420.70723 171.20686,405.8066 177,418.39316 160.72054,405.8372 168.78452,396.39226 182,415 c 0.86587,2.69849 19.34265,12.94364 7.75,10.31067 z M 210.36163,420.5 C 198.39649,412.94146 188.5922,393.15829 205.5,413 c 2.46649,4.15379 20.88314,10.68754 4.86163,7.5 z M 151.35,418 c -16.84274,-24.29617 8.45649,3.41085 0,0 z M 399,416.55654 c 7.60702,-8.76343 13.87495,-5.38979 0.5399,0.97298 z M 435,408.5 c 3.82497,-12.1639 2.90684,11.79078 0,0 z m -26,-2 c 14.12291,-16.08833 17.79767,-13.06018 0,0 z m -218.41064,-8 c -15.0297,-16.67127 5.91312,-0.88903 0.81717,1.63856 z M 445,393 c 3.83781,-12.3164 8.28078,13.1474 0,0 z m -20,-5.07437 c 6.36232,-14.7682 18.56228,-16.57419 0,0 z M 181,385 c 3.75786,-7.01534 3.12625,6.75372 0,0 z m -65,-12 c -8.73716,-17.48456 8.39981,-1.62663 0.34375,3.08333 z m 60.25,2.27976 c -11.76702,-19.40617 2.05043,-7.60185 0,0 z M 435,371 c 3.75786,-7.01534 3.12625,6.75372 0,0 z m 65,-11 c 3.75786,-7.01534 3.12625,6.75372 0,0 z m -388,-2.33333 c -5.5342,-9.23626 3.56748,-0.29805 0,0 z m 391.116,-4.83488 c 3.15809,-13.1096 3.16707,2.74386 0,0 z M 442,351 c 4.05079,-15.49987 3.3332,6.52546 0,0 z m -278.75,-6.55865 c -4.97573,-14.71934 6.01462,4.45367 0,0 z M 445,338 c 3.75786,-7.01534 3.12625,6.75372 0,0 z m -342,-6 c 3.75786,-7.01534 3.12625,6.75372 0,0 z m 55.60699,-0.58179 c -3.56551,-16.32076 3.74887,-22.18492 2.21825,-1.77945 1.33194,0.80229 -1.97604,6.01486 -2.21825,1.77945 z M 448,323.5 c 3.82497,-12.1639 2.90684,11.79078 0,0 z m 59,-7.5 c 4.25245,-11.43561 -1.35563,-48.73747 2.78662,-16.583 C 510.056,301.64709 508.64003,333.8584 507,316 Z M 10.75,291.60795 c -6.1917962,-13.88169 12.319788,-14.59192 2.151926,1.28412 z M 598,289.5 c 3.82497,-12.1639 2.90684,11.79078 0,0 z m -439.81975,-8.66821 c 1.729,-28.13733 2.65779,13.34354 0,0 z M 448,275 c 3.81129,-10.4274 2.96789,10.08547 0,0 z m 150,1.07143 c -8.10072,-15.58508 8.1485,-29.35779 2.94034,-3.50893 0.91385,1.39477 -1.33539,9.16584 -2.94034,3.50893 z M 103,270 c 3.75786,-7.01534 3.12625,6.75372 0,0 z m 58.6374,-4 c 4.4476,-15.83779 1.5071,6.71624 0,0 z M 15,264.5 c 3.824969,-12.16389 2.906844,11.79078 0,0 z m 462.60699,-1.08179 C 474.32118,249.18024 469.56383,234.27935 461,222 c -12.37127,-14.43185 -0.21168,10.83843 2.68237,15.14921 C 473.22573,256.98691 467.16518,260.5893 459.5,243 458.65244,228.20595 443.27287,221.5267 440.5117,206.99496 436.85295,198.63463 429.63994,193.21035 422,187.5 c 7.81279,-0.0599 19.39265,12.91873 21.60051,22.53206 4.24932,-15.0136 13.23767,7.68497 19.95886,8.53653 9.51809,4.92707 16.01274,31.76326 16.10817,46.43141 z M 445,260.46862 c -11.72796,-15.13922 17.61081,6.57095 0,0 z m 149,-2.86163 c -7.98986,-27.95997 5.85622,13.05088 0,0 z M 12,255 c 3.811285,-10.4274 2.967893,10.08547 0,0 z m 6.116001,-5.75 c -7.36753,-8.07897 7.951376,-27.74088 2.611788,-2.77135 0.745863,0.91913 -3.312109,7.56727 -2.611788,2.77135 z m 423.044039,-1.39301 c -8.26703,-23.24109 5.60892,6.00076 0,0 z M 597,248.75 c -5.28894,-12.9279 -8.09696,-11.13346 -8.6,-23.08334 5.34893,-0.47506 10.42141,25.86688 8.6,23.08334 z m -425.84081,-8.75943 c 7.40162,-12.58725 -1.02951,8.0708 0,0 z M 435,233 c -11.16535,-15.14756 -9.1217,-18.44063 1.5,-3 4.37383,1.55077 -1.28068,10.23595 -1.5,3 z M 22,222 c 2.326616,-10.39909 2.326616,10.39909 0,0 z m 162.07895,-4.52776 c 6.41709,-13.34394 9.96992,-5.09867 0,0 z M 422,214.5 c -16.13747,-15.03618 -3.00809,-9.8029 2.55938,1.05937 C 423.70625,216.52813 421.925,215.78125 422,214.5 Z M 194.92083,203.28078 c 18.49851,-18.51062 18.09219,-7.98842 0,0 z m 261.02379,-0.66265 c -13.23747,-12.43844 6.08163,0.85826 0,-1e-5 z M 406,195.5 c -23.06751,-15.49296 12.98612,4.48491 0,0 z m -195.61134,-6.07045 c 4.80327,-7.78731 9.87281,-2.54586 -0.11537,1.08874 z M 445,188.46862 c -15.33318,-16.12381 -4.68236,-10.51428 2.55943,1.09075 -0.86367,0.98415 -2.64985,0.19465 -2.55943,-1.09075 z m 21.4476,-3.95435 c -19.51956,-11.07455 -1.31333,-8.1029 3.98768,3.48573 z M 393,185 C 387.10882,177.1887 349.4294,162.62317 362.95029,165.7923 370.70805,167.52844 397.10474,184.1104 393,185 Z m 25.29501,-1.67361 c -18.66153,-13.5326 0.25814,-7.45949 2.17361,1.67361 z M 217,182.07946 c 11.32514,-8.50236 23.38071,-8.42042 0,0 z m 211.63495,-10.85122 c -10.72137,-9.58699 17.83535,9.9346 0,0 z M 233,172.20579 c 14.31801,-8.12452 19.66701,-1.58377 0,0 z m 172.83333,0.0442 c -16.14816,-11.61591 -31.64406,-26.35293 -52.77493,-28.7234 -11.05119,-6.03567 -54.15849,-4.78474 -45.70763,-6.79509 27.46854,0.64692 58.52403,2.392 80.64923,20.2685 2.02876,2.34019 29.28424,16.84348 17.83333,15.24999 z M 249,165.83399 c 26.57621,-11.27004 58.56308,-15.50714 86.8062,-7.83399 15.96724,1.88294 24.48385,9.54459 2.75667,1.97134 -25.67336,-7.14312 -51.28704,-4.22094 -77.27781,2.75406 -4.08082,1.05052 -8.00594,3.02866 -12.28506,3.10859 z M 418.63837,162.5 c -13.2163,-8.66526 11.03637,5.37463 0,0 z m 14.55019,-9.53896 c -20.0173,-12.71186 -9.74598,-11.85 1.81144,-0.53436 2.66766,3.46938 4.41462,2.7321 -1.81144,0.53436 z M 58,153.10699 c 7.674523,-10.32998 12.793986,-23.6743 21.543512,-23.0124 C 72.96214,135.43737 66.669241,151.7793 58,153.10699 Z M 230,151.5 c 12.69938,-14.85254 34.45751,-5.12444 53,-13.45312 40.87522,-3.8252 -19.49769,3.85287 -32.52749,8.30691 C 243.34266,143.22643 233.93614,159.40438 230,151.5 Z m -47.75,-6.18933 c 10.17794,-9.05605 60.42079,-25.80399 25.01002,-10.83979 -7.96286,2.1774 -20.73729,8.90801 -25.01002,10.83979 z m 208.25,-0.75591 c -34.97604,-15.99991 14.91911,3.85776 0,0 z M 246,139.5 c 8.0324,-6.32251 36.79532,-10.75658 10.60875,-3.12435 C 253.20796,135.27963 247.98412,143.98848 246,139.5 Z m 123.5,-4.028 c -11.02955,-2.45156 -41.26755,-11.46854 -12.55,-4.42921 2.68308,-0.43564 28.67556,8.85274 12.55,4.42921 z m 35.88508,-4.91089 c -21.99395,-10.35436 -3.08055,-6.38127 2.33354,1.35994 z M 275,130 c 5.69581,-3.85948 11.88103,-0.68997 0,0 z m 16.5,-3.30122 c 14.72338,-0.78074 37.27983,-3.25409 48.16177,1.14039 -11.50324,-2.97347 -56.86247,0.77735 -50.08391,-0.81597 l 1.69262,-0.28565 0.22952,-0.0387 z M 80,126 c -11.132774,-9.81564 9.78961,4.16783 0,0 z m 448.25,-1.67442 c -6.26489,-12.03978 12.79138,6.32643 0,0 z M 83,122.96862 c -5.16555,-3.16115 6.889368,-9.43825 5.177227,-3.9191 -1.582042,0.43767 -2.507002,5.95619 -5.177227,3.9191 z m 158.52749,-3.32633 c 28.82961,-12.54365 -3.51363,4.73095 0,0 z m 280.99904,-1.55871 c -27.59591,-17.61265 21.26456,4.39385 0,0 z M 519,111.5 c -15.13818,-5.92458 -1.61612,-12.337441 3.15221,1.09775 -1.02833,0.81182 -3.00079,0.37304 -3.15221,-1.09775 z m -251.25,-0.21912 c 13.51022,-9.12646 30.28174,-10.22619 4.23998,-1.18419 l -3,1.17823 -1.23998,0.006 z M 97.769625,107 c 14.699055,-11.773568 0.231586,3.84318 0,0 z m 410.081255,-3.48222 c -13.03172,-8.22925 4.07312,-3.555876 0,0 z M 96,101.36467 c 8.95973,-11.055684 16.80181,-7.951698 0,0 z m 13,-4.385831 c 5.50387,-6.307326 12.61019,-3.378501 0,0 z m 386.90451,-3.907664 c -8.90547,-11.957762 11.74787,8.117035 0,0 z M 119,87 c 7.33853,-8.186821 17.09644,-8.543303 0,0 z m 374.63837,-2.5 c -11.50013,-8.554899 10.02235,4.842438 0,0 z m -11.408,-2.5 c -14.70086,-9.687729 14.49393,6.65637 0,0 z M 125.64718,75.477062 C 173.31504,43.564754 227.84826,21.73518 285.22765,17.0022 c 32.37081,-4.244312 65.76545,-3.13686 96.69659,7.59818 13.62712,1.450683 62.58503,25.319736 25.32576,9.822097 -14.54585,-3.923301 -15.25447,-4.260556 -4.92456,2.414647 -8.303,-5.483834 -58.2567,-10.388039 -35.90968,-13.70082 -12.00588,-5.535344 -59.71391,-5.718232 -22.9988,-1.996515 12.14864,4.551685 -36.07368,-2.568454 -47.49966,-0.09515 -26.83102,0.721478 -54.1451,4.370333 -79.17848,13.95536 -22.01848,4.816776 -42.17758,20.24584 -61.93065,25.92452 -9.87068,0.170785 -20.52903,13.947995 -29.16099,14.552542 z M 392,29.5 c -15.26537,-8.150709 -16.10577,5.195495 0,0 z m -13,-3.364076 c -13.67739,-6.323987 -12.5061,3.891553 0,0 z M 285.5,19 c -9.18323,-3.373285 -12.95989,4.090242 0,0 z m 12.5,0 c -7.90872,-3.711082 -7.90872,3.711082 0,0 z m 169.5,51.223391 c -29.60771,-16.035133 11.92089,2.712008 0,0 z M 142,70 c 11.76392,-9.751043 19.76754,-6.953403 0,0 z m 325.63837,-5.5 c -14.33799,-9.844564 11.91008,4.411023 0,0 z M 451.38508,61.561107 C 438.4953,54.925379 428.46227,45.888254 448,57.835344 c 2.21764,0.261936 9.04981,7.509405 3.38508,3.725763 z M 452.75,56.310674 c -9.75278,-6.774181 12.16254,3.069726 0,0 z M 435,46.14466 c -20.96797,-10.056713 9.96011,0.532736 0,0 z m -17,-1.83454 c -20.5408,-9.480537 -6.05543,-6.129577 2.93679,0.574978 z"
         id="path1641" />
      <path
         style="fill:#837b71"
         d="m 282.00096,520.13337 c 20.96732,-2.84348 26.32967,4.63193 0,0 z M 267.5,518 c 7.99588,-3.88966 16.2194,3.40642 0,0 z M 254,515 c -2.32857,-3.83312 12.37343,2.61018 0,0 z m 101.65332,-1.09373 c 16.83893,-0.36044 -6.37968,2.6825 0,0 z M 282,507.5 c -16.28701,0.23913 -63.89017,-14.79994 -63.94514,-18.5 17.67723,8.12293 48.86928,17.3148 59.94514,15.01172 -24.37537,-4.4151 -47.33509,-15.13974 -70.16116,-23.72338 13.47876,15.21514 -30.62201,-13.67599 -3.64052,-0.34166 C 205.45559,471.6055 179.74865,465.26316 191,474 178.21882,464.82023 185.11932,461.98654 175.95868,461.1159 167.99772,454.48596 152.85953,445.7261 156.5,438 c -8.13915,1.07156 -21.5292,-20.30444 -23.06717,-26.39517 6.32023,6.87813 25.10351,36.8447 14.56717,8.93073 -8.86089,-6.63682 -10.80785,-27.40395 -1.5,-9.89719 5.8405,10.68109 14.39062,18.90896 23,27.36163 22.48349,17.76881 -2.51737,4.27046 -8.94063,-5.55937 -4.55177,5.75148 16.5651,20.22651 21.39852,27.55937 21.87627,17.21697 47.20542,28.21003 73.73727,36.73631 27.45803,6.32157 58.39863,12.42028 85.39711,2.74342 1.76224,-4.39114 -51.94961,1.56903 -41.00798,-2.759 26.76971,-1.23091 54.35368,-0.50346 76.41605,-1.72128 10.74545,-4.60468 49.32218,-21.87156 18.24966,-5.99329 C 359.57274,504.11229 320.3793,512.44784 282,507.5 Z m 72,-6.5 c -6.72242,-2.88321 -7.78385,3.78585 0,0 z m -127,6 c -18.99954,-5.59669 12.82854,0.20177 3.25,0.90982 z m 51.5,-11.04446 C 246.65731,491.74667 217.36265,476.13825 191,459.5 c -24.10906,-21.48145 18.38116,11.7068 29,15.57946 18.72664,11.07783 52.12377,18.31656 65.5,21.63534 l -3.29375,-0.20864 z m -80.8125,-2.60137 c -1.51875,-5.96996 7.19965,0.93762 0,0 z m -13.24135,-7.4413 c 0.0701,-7.29342 6.3566,3.60469 0,0 z m 241.05487,-2.91123 c 1.73721,-7.62802 11.40389,2.47415 0,0 z M 432,478.5 c 8.37611,-11.04429 6.53805,2.85545 0,0 z m -95,-7.76852 c 14.31175,-12.86333 39.33536,-11.83349 54.93364,-25.21164 24.47202,0.16317 -17.88336,8.55522 -25.68364,14.93398 -21.17741,4.63846 -20.95964,11.82442 -3.28315,7.87877 -6.66953,1.50631 -21.82501,8.0115 -25.96685,2.39889 z M 442,469 c 7.26214,-7.55666 14.98299,-10.25645 5.375,0.58334 L 445,470 Z m -73.75,-2.70447 c 10.17967,-8.55914 43.01289,-22.624 14.75,-7.29345 -4.84348,2.28978 -9.19951,7.16274 -14.75,7.29345 z M 233,455.38337 c 7.65645,-7.60992 6.72563,7.61555 0,0 z M 145,449.5 c -8.82784,-7.98826 7.96844,-0.26499 0.44063,1.05937 z m 144.03406,0.75207 C 264.58089,448.53198 242.427,437.36789 221.5,426 c -6.55696,-7.58199 -16.31336,-11.42386 -22.54691,-19.95765 -9.00872,-8.17964 -14.23287,-20.06672 -20.52169,-30.04064 -8.1908,-9.80134 -13.56491,-39.09848 -3.22687,-11.52295 7.91733,8.61888 8.90367,21.25928 16.2361,30.08061 C 199.90378,400.26143 204.40577,411.8144 215,415 c 11.92427,12.55441 25.8987,17.98256 41,25.09974 28.03246,9.68673 59.48276,9.6804 88,2.80087 19.41427,-5.96457 37.87376,-15.63458 53.5,-27.90061 19.65757,-15.94224 5.35984,0.98811 -4.41646,6.48165 -14.80121,8.84381 -27.60385,20.22046 -45.24778,23.00457 -18.83625,6.10251 -39.12973,6.97536 -58.8017,5.76585 z m -76.47519,-3.78387 c -2.13734,-6.78144 10.31607,5.17309 0,0 z M 453.4055,444.5 c 11.90698,-9.39075 -6.72914,9.06311 0,0 z m -249.4133,-1.75 c -10.63928,-6.97272 -29.46081,-22.27476 -26.63057,-29.25 9.61588,9.78586 20.37129,16.68752 29.63837,25.38337 5.44014,3.90332 3.40652,6.93793 -3.0078,3.86663 z M 409,402.5 c 5.49404,-10.32186 22.05829,-13.75054 3,1.38235 -0.85954,2.52195 -3.71645,0.30119 -3,-1.38235 z m -284.62437,-3.27633 c -14.18633,-26.40853 2.69073,-8.30926 0,0 z M 425,383.93723 c 12.39518,-26.70829 14.52724,-7.56829 0,0 z m 68.5733,-0.42721 c 7.54291,-16.24902 -0.0683,8.40233 0,0 z M 116,379.5 c 3.80279,-8.73518 3.02961,8.42372 0,0 z m 319,-13 c 5.92367,-8.51893 15.14938,-61.35245 10.45802,-28.99011 C 442.92705,342.84418 441.22233,373.22516 435,366.5 Z m -322.884,-1.66667 c -8.02139,-18.22164 3.60957,-4.92902 0,0 z M 500,364 c 3.75786,-7.01534 3.12625,6.75372 0,0 z m 3.30553,-9 c 3.74581,-11.68435 1.26672,6.12318 0,0 z M 106,349 c 3.75786,-7.01534 3.12625,6.75372 0,0 z m 59,-2 c 3.81129,-10.4274 2.96789,10.08547 0,0 z m -0.82529,-5.66667 c -7.23712,-21.70675 -8.61018,-64.4726 0.3203,-74.40868 -5.4453,23.83061 -3.13706,51.23162 -0.3203,74.40868 z M 103,337 c 3.81129,-10.4274 2.96789,10.08547 0,0 z m 404,-12 c 3.15277,-31.4866 5.39579,-1.09841 0,0 z m -405,-8.5 c -5.286476,-12.07126 1.8895,-43.28213 0.68022,-14.25 0.0262,2.60826 0.0643,31.21266 -0.68022,14.25 z M 448,299 c -1.98727,-14.07736 3.70896,-31.73613 2.98828,-6.07031 1.8974,11.88112 -2.76626,42.75098 -2.97656,12.14062 z M 8.6467588,297.10912 c -2.0450587,-14.22123 5.0714162,-48.99679 2.5914092,-15.92082 -3.5382227,2.93477 9.623001,37.27566 -2.5914092,15.92082 z M 598,298 c 4.3187,-17.75634 2.5306,17.1709 0,0 z m -88.85017,-10.25 c -6.4191,-28.94958 4.67419,5.5811 0,0 z M 601,284.5 c -0.25767,-15.01925 6.69908,2.68245 1.5,6.5 l -1.19231,-1.33333 z m -4,3.08333 c -5.86123,-12.34349 -6.30747,-52.73876 -1.57857,-18.30473 2.62263,3.76501 3.87661,20.01871 1.57857,18.30473 z M 15,275 c -0.280583,-16.15446 6.738022,2.86997 1.5,7 l -1.196428,-1.41666 z m 429.81474,-5.56846 c -5.08573,-11.84177 -13.43171,-49.87843 -3.42536,-19.15183 3.75992,3.31773 10.01017,38.23893 3.42536,19.15183 z M 103,266 c 3.75786,-7.01534 3.12625,6.75372 0,0 z M 18.293286,257.57389 C 24.730624,240.14906 12.451999,224.05352 26.5,210 c 1.165612,16.64108 -5.295226,36.31597 -7.835096,54 z M 24,222 c -2.326616,-10.39909 -2.326616,10.39909 0,0 z m 141,35 c 7.99378,-21.62872 8.14225,3.71068 0,0 z m 433,-3 c 6.31187,-9.13967 2.44659,8.2101 0,0 z M 12,249 c 3.811285,-10.4274 2.967893,10.08547 0,0 z m 576,-6 c -0.22993,-13.88636 6.6521,2.4969 1.5,6 l -1.1875,-1.25 z m -417,1.54004 c 2.79443,-14.17479 20.32385,-27.86941 7,-10.61147 -1.65133,1.04979 -4.74513,17.63477 -7,10.61147 z m 426.07895,-1.20671 c -7.23205,-16.06105 3.37695,-3.32978 0,0 z M 15,239 c 3.811285,-10.4274 2.967893,10.08547 0,0 z m 416.54652,-6.78818 C 422.21034,219.17878 412.76844,206.93929 402.63837,195.5 389.78676,188.014 380.8343,176.26994 366.79005,171.58252 342.64763,161.98147 314.82864,156.51518 288.29091,159.22509 267.6302,163.13929 247.63489,168.80729 230,178.7641 219.44923,183.24663 213.90229,193.27948 205.5,200 c -6.04755,3.94563 -27.11933,30.50418 -17.5,14.60699 7.0827,-12.766 22.27231,-18.45051 29.4375,-31.02366 24.87895,-16.1693 53.71724,-26.5185 83.5625,-27.55682 23.70401,-1.86328 49.32173,6.0232 72.28469,15.50881 12.38456,8.24271 24.34448,16.74542 35.27781,26.04801 6.05888,11.89122 18.68323,19.15147 23.87813,31.87411 5.1019,0.33808 1.37544,10.38402 -0.89411,2.75438 z M 584.64185,231.25 c -10.68902,-27.64241 10.21146,-19.12707 8.1371,-0.45407 -7.39108,-19.92212 -2.47546,15.29321 -8.1371,0.45407 z M 461,217.5 c -5.63021,-6.62221 -14.64283,-17.55637 -18.50141,-8.7412 -2.3383,-14.45243 -17.15284,-18.61044 -25.45168,-28.80115 -21.68015,-20.5463 18.73411,12.01378 23.51246,4.51482 -12.78897,-12.93708 7.54064,5.06696 10.44063,11.80529 1.00402,3.35973 18.75813,23.46554 10,21.22224 z M 28,205 c 4.286287,-13.94914 2.532672,13.25403 0,0 z m 104,-7.9962 c 9.43701,-13.62439 7.04722,-1.94717 0,0 z M 572,195.5 c 3.80279,-8.73518 3.02961,8.42372 0,0 z m -101,-7.00979 c -10.67399,-12.49361 -25.53671,-21.704 -35.55937,-34.93084 -3.97905,-7.8996 -27.21667,-17.50762 -23.44063,-20.64858 17.3604,8.22329 27.3621,23.34627 42.00114,35.00097 2.36138,4.88137 25.64585,22.62464 16.99886,20.57845 z M 569,183.5 c 2.36366,-8.66117 2.36366,8.66117 0,0 z M 44,181.15301 c 7.283695,-14.99547 12.31244,-27.39425 20.440625,-41.70317 4.918857,2.12238 -14.40961,22.55604 2.093643,8.7832 C 56.341837,156.09705 54.496708,181.56243 44,181.15301 Z M 431.63837,175.5 c -14.84032,-7.16217 4.01367,-5.71179 1.96862,1.5 z M 562,175.5 c -7.81738,-7.87111 -11.80686,-17.27967 -18,-26.23203 -1.24597,-9.30173 -27.21873,-28.13821 -11,-24.62195 -15.13938,-21.275 7.65743,9.04107 11.55938,14.78427 7.93862,13.34785 8.20958,14.33752 17.44062,28.53833 1.33395,1.33929 5.82272,12.50878 0,7.53138 z M 402.5,167 c -18.45561,-14.81769 -39.62327,-26.49564 -64.25063,-28.60552 -27.23876,-2.94678 -54.43474,-2.64831 -80.9898,5.24602 -29.96901,-0.28545 32.04382,-19.6742 43.52805,-16.71957 37.09474,-3.04678 76.10892,6.89276 106.46238,27.37666 -20.02068,-8.36205 -37.76872,-20.32121 -60.25,-22.80697 -25.91352,-4.43699 -54.69248,-5.89102 -79.73672,3.4647 -32.19914,11.38468 23.46207,-1.18692 34.26855,0.18661 29.87984,-0.38272 63.30808,1.09855 87.48724,19.21191 C 393.04513,154.0083 420.43331,175.57663 402.5,167 Z m 16.5,-2 c -16.66801,-9.87167 -0.6177,-7.33476 1.5,1 z m -257.37051,-5.47686 c 9.79588,-8.76295 5.30791,1.47907 0,0 z M 67,145.5 c 12.636853,-15.25879 15.079567,-14.61442 3,0.22224 -0.348944,2.04655 -3.089235,1.38943 -3,-0.22224 z m 119.16739,-5.00594 c 18.77655,-13.04728 41.73163,-15.71603 62.20893,-25.23301 10.21266,-5.52636 50.4537,-18.096644 20.52782,-5.10594 -29.00018,9.29001 -57.47302,20.61684 -85.06936,32.79845 l 1.18123,-1.24549 z M 67,135.5 c 16.254458,-24.32166 9.361359,-0.0737 0,0 z m 338.63837,-6 c -13.79842,-8.58551 -42.96308,-19.73132 -10.69323,-7.5 1.59096,0.46295 21.38251,11.80801 10.69323,7.5 z M 80,128 c 3.790155,-5.38201 26.1071,-28.428857 23,-22.05654 C 94.707295,111.62517 88.536765,126.24199 80,128 Z m 441,-9 c -23.0212,-18.49566 16.82363,8.8313 0,0 z m 1.52932,-6.90762 c -13.23882,-13.555418 11.78016,7.34834 0,0 z M 353.5,107.472 c -10.69891,-4.68698 18.07574,4.92709 0,0 z m 154.11905,-1.99581 c -13.32412,-12.180938 0.90533,-5.01924 0,0 z M 90,104.5 c 9.61587,-9.942375 4.229107,3.9357 0,0 z m 16.0078,-3.75 c 16.25105,-14.298504 14.38102,-4.061039 0,0 z M 299.5,101 c 19.5684,-3.151219 21.47859,3.96026 0,0 z M 96.553867,98.720221 c 13.863043,-13.529303 7.722783,-1.480554 0,0 z M 505.54167,93.608333 c -17.64864,-14.700535 13.27546,8.578957 0,0 z M 496.36163,94.5 C 486.80656,87.989033 461.96153,68.085571 487,85 c 2.30373,1.997411 18.78468,14.757613 9.36163,9.5 z M 106,90 c 8.66198,-7.906918 12.26183,-5.00666 1.5,1 z m 13,-0.692993 c 16.5886,-16.207026 8.20146,-2.501915 0,0 z m 374.09294,-6.5215 c -10.24376,-8.232166 12.84727,6.818347 0,0 z M 129,80 c 9.62427,-6.334866 39.84124,-24.636565 13.44063,-6.572686 C 140.28964,76.540225 132.3033,80.745733 129,80 Z m 358,-2 c -18.30066,-12.309921 10.13528,3.337363 0,0 z M 469.08377,73.000599 C 456.60204,65.845018 445.52993,58.756107 465.35398,69 c 5.25991,0.943691 13.10457,11.561534 3.72979,4.000599 z M 127.75,73.280876 c 7.37515,-7.25681 26.92442,-14.771337 5.81394,-2.75255 l -4.8564,2.81748 z M 467.29969,62.646633 c -18.28938,-9.801782 11.78544,4.103694 0,0 z M 156.25,62.310674 C 178.52367,49.418151 202.82457,38.77058 227.59887,31 254.30935,23.627701 281.93687,20.173683 309.76985,21.072498 359.40958,20.474904 408.34059,35.58665 450.6002,60.71877 420.1038,46.25931 388.65387,31.15048 354.23438,26.91041 289.0261,14.989639 220.32233,27.656583 163,60 c 0.62981,1.839526 -8.2894,4.049099 -6.75,2.310674 z m -3,-5 c 9.80996,-7.131616 26.43246,-11.548352 7.75,-2.468962 0.98822,0.681795 -12.29599,5.01658 -7.75,2.468962 z m 302.5,-1 c -25.98287,-13.913833 13.28753,2.30854 0,0 z M 441.48735,48.179312 C 409.63519,31.805315 374.57118,20.293337 339.11064,15.208057 309.68521,13.126288 280.52412,17.686863 251.5,20.838663 277.05058,15.705116 303.13901,10.879934 329.18845,11.405385 368.78631,12.91644 405.70407,30.393863 441,45.5 c 1.66303,1.273819 7.76889,6.262986 0.48735,2.679312 z M 172,47.358834 C 196.66732,36.212514 222.20663,25.175759 249.21648,21.341278 223.75395,28.43447 198.32472,36.271812 174,47.366615 l -2,-0.0078 z"
         id="path1639" />
      <path
         style="fill:#4b4b4a"
         d="m 301.58569,592.25236 c -29.49802,-1.2871 -58.97025,-6.00843 -85.44281,-16.10948 -16.91167,-7.40655 -34.20102,-13.95323 -48.95069,-23.70359 -15.86728,-7.19176 -29.00776,-20.07606 -44.27554,-28.74971 C 115.94614,510.84473 102.44622,504.09741 94.5,493 84.786499,481.62363 72.648163,471.60959 66.625,457.75 54.651938,446.13049 53.255698,429.59161 44.705974,415.75 40.65025,398.60406 29.786295,380.50546 24.696178,390.7715 16.327594,377.87624 38.321126,386.5266 28,372 26.380573,351.1284 23.809499,391.4207 19.903239,368.80108 16.061128,352.85862 12.802971,341.42433 10.087898,322 -0.08016449,295.43662 8.2734849,266.60393 12.419189,239.65243 c 4.415083,10.93314 -9.2412784,46.31329 -2.219649,64.08251 9.398919,-18.16645 8.431231,-42.99717 12.286601,-64.40371 7.050228,-11.41346 4.359956,-45.27616 -1.923604,-15.18461 C 10.33368,252.19854 18.667542,204.75001 26.611291,197 30.76386,183.025 45.845093,174.55508 51.431168,158.77466 62.761698,141.52212 50.649818,169.18242 46,176 46.532315,195.82958 55.752607,156.92151 63.66777,153.91115 68.57482,144.96583 77.706249,138.12373 81.25,128.95376 93.206297,117.56158 102.3443,104.00169 116.08354,95.481652 123.20519,83.207542 137.37205,77.917397 148.5,69.564447 170.28681,53.234591 197.92921,42.75451 224.3,34 296.29913,13.087947 377.86238,20.789022 442.90662,57.933511 c 21.2748,9.760713 37.51012,25.656324 56.64354,38.507114 8.20371,8.643965 14.49166,19.041755 25.41614,25.559375 8.96336,10.82873 15.74018,22.17764 23.5962,33.58333 C 551.97958,160.8928 559.91771,180.2151 565,174 c -5.25673,-11.23575 -12.37822,-23.29503 -20,-33.53518 -13.47637,-17.09546 5.34717,-0.24695 11,9.07036 10.46009,4.91086 16.13054,18.41563 19.20496,27.75529 5.89659,11.64736 11.82341,18.52723 13.11361,32.54809 9.49177,16.48869 -14.05847,-11.76097 -5.46794,10.94498 5.747,21.64448 9.3614,42.69859 13.44285,65.39784 1.91643,12.91299 3.55173,23.44204 6.20652,4.81862 5.84774,23.82514 -3.60541,46.43342 -5.30656,69.98871 -4.42975,15.05566 -7.1921,33.99588 -13.19344,49.98609 -7.45642,11.51086 -6.75279,24.35078 -15.59329,33.67404 -8.40302,11.65227 -5.89885,13.85802 -16.00671,26.01782 -4.07235,8.21296 -10.66075,16.66165 -16.4,23.83334 -7.99667,10.06974 -17.9758,18.53881 -26,27.48658 -9.3223,7.3287 -16.14689,14.77292 -26.36163,21.51342 -12.8138,10.41641 -26.93049,15.05577 -42.13837,21.5 -30.53734,14.48299 -64.17767,21.97914 -97.97925,25.99403 -13.93988,1.10463 -27.95343,1.85982 -41.93506,1.25833 z M 301.5821,520.75 c -18.56756,-3.93277 -25.15882,1.89552 -3.29606,0.52969 z M 278.5,518 c -10.66486,-4.2502 -19.5686,3.31976 0,0 z m 46.5,-1.56767 c 29.73056,-1.99973 58.02775,-12.40825 84,-24.97764 11.48166,-9.41954 27.69353,-17.05937 38.15275,-28.56246 -10.75544,11.82984 8.89969,2.22965 3.84725,-1.39223 -4.31614,-1.00724 10.19313,-12.95547 13,-9 -5.05678,-9.39164 14.97013,-20.92718 19.5625,-31.08333 4.53343,-11.15193 15.14272,-20.53428 17.82621,-32.41667 10.7493,-19.9071 9.1864,-42.44709 14.54109,-63.58682 5.91448,-26.04506 2.04799,-52.78731 -3.23749,-78.07985 C 506.37856,234.67555 505.65116,217.82441 497,206.96862 491.26285,192.95384 480.57486,183.26702 474,170.5 463.29929,156.98939 449.35506,144.69248 435.44063,133.55937 422.47842,123.35576 406.17377,114.55999 390.65113,107.58789 355.20462,92.580971 316.06392,86.605592 277.67805,92.117828 256.82968,94.226258 239.0186,101.19615 219.78767,108.51716 199.98886,118.81548 180.77055,129.4597 164.87934,145 c -12.06508,7.51457 -18.14817,20.08399 -27.90829,29 -5.69452,10.01275 -15.00687,17.83286 -17.97105,29 -5.11547,12.89096 -15.02603,24.16746 -17.96693,38.97956 -7.567097,20.5541 -9.996934,40.38703 -10.974945,61.87981 4.188357,18.25955 4.867959,37.4598 11.198935,56.2995 2.92806,15.60699 8.55393,29.65446 16.24294,42.84113 3.9625,13.95219 15.82757,24.77368 24.5,36.5 8.64226,8.26366 13.85897,20.64596 26,26.5 11.4881,7.99703 21.11332,18.26272 34.42857,24 16.86858,12.4959 39.34362,16.7896 60.07143,22.49848 20.48217,4.40388 41.61934,5.9141 62.5,3.93385 z m -47.75,-7.09998 c -24.00486,-7.25284 25.46364,2.1344 34.44254,-0.27588 31.49173,-2.22789 62.98641,-9.65214 90.93628,-24.11515 10.56487,-1.46006 -36.60328,18.05634 -47.99313,19.56484 -25.12639,7.06596 -51.56023,4.66268 -77.38569,4.82619 z M 255.5,504.472 c -16.31349,-3.02728 -25.89875,-11.31993 -2.47027,-2.08493 5.74607,-0.16416 15.71768,6.24529 2.47027,2.08493 z m 44,-0.47061 c -34.96843,-2.27901 -69.98192,-13.29337 -99.20535,-32.09768 -17.24143,-7.87885 -29.7481,-22.84602 -40.8137,-36.90371 -0.58581,-6.4751 15.74244,13.26997 21.51905,15 11.40541,13.83035 29.65589,20.73434 45.32813,29.43272 35.8694,18.64275 77.32441,20.84014 116.86592,18.32815 -10.44329,8.99133 -29.97581,5.43212 -43.69405,6.24052 z m 14.28432,-2.55041 c -14.29162,-2.35685 -33.46098,1.01404 -7.39567,0.46272 l 3.98914,-0.0956 z M 226.5,495 c -20.14116,-8.10065 20.36085,5.92781 0,0 z m -11.25,-5.03116 C 206.05343,486.55455 170.45454,461.53864 195.39301,477 c 2.45645,3.0391 30.38351,14.44629 19.85699,12.96884 z m 195,-9.65817 c 18.88115,-13.47564 10.5211,-2.66885 0,0 z M 422,472.07946 c 13.15729,-10.1606 19.26212,-6.81961 0,0 z m -75,-3.37981 c 9.71483,-2.40302 52.38618,-27.04294 44.51268,-15.24779 C 377.26777,459.02093 362.82175,473.08952 347,468.69965 Z M 181,468 c -12.84256,-8.4995 -14.83363,-17.82027 0.44063,-1.44063 4.09079,0.45028 2.32593,4.05796 -0.44063,1.44063 z m 261,-11.5 c 7.0423,-9.66635 7.71755,-1.14437 0,0 z m -279.14504,-3.98272 c -13.07974,-9.01367 -11.3602,-16.92572 1.03599,-1.51728 2.49102,3.60852 6.8315,5.75672 -1.03599,1.51728 z m 124.67562,-5.25117 C 264.98835,444.95632 244.79413,436.04898 226.75,425.36129 218.5954,415.0649 204.38663,412.09313 197.71025,400 c -8.29254,-5.66615 -11.58902,-14.93391 -16.36251,-23.88946 -4.57675,-13.62943 -15.31969,-26.40862 -16.73061,-41.1019 -5.65698,-23.85112 -4.47521,-52.20421 2.01978,-76.00864 6.08047,-12.61491 13.21201,-26.54235 19.37292,-39.75446 8.578,-6.81688 14.54298,-16.58239 23.54954,-22.68616 8.56225,-9.66581 17.59661,-18.84113 30.93191,-23.18595 20.90373,-7.98037 45.70584,-17.93695 69.23681,-13.67622 23.44633,-1.40545 46.88057,7.0329 66.63354,16.80279 10.29246,7.71843 22.78691,14.79548 31.13837,24.5 -0.36293,8.74225 -19.3058,-15.42119 -27.98746,-18.28797 C 342.16193,160.38921 294.06612,155.67702 253.69936,173 c -16.35481,5.80809 -30.57239,15.05656 -42.75088,27 -7.70214,9.10193 -17.07659,16.99369 -23.94848,27.56164 -7.05525,13.44584 -14.92882,26.00504 -16.31779,42.26647 -7.8604,20.3619 -6.64124,45.08102 -1.18221,66.17189 4.82255,17.07302 12.26034,34.37775 21.94063,49.55938 11.68992,9.77205 21.83081,22.20261 32.88742,32.95034 20.1837,9.42921 40.53969,21.5807 63.92264,23.13412 23.64948,3.39778 48.89262,0.0142 70.24931,-9.64402 18.57356,-8.90241 39.00099,-19.02824 50.5,-36.5 9.38496,-9.46068 15.78547,-18.44732 21.5,-30.14268 9.56939,-17.29523 14.80634,-38.58212 14.04054,-59.64763 C 446.22242,284.01029 441.56541,261.39118 433.5,243 c -8.14287,-10.8405 -15.99735,-31.85046 -1.10369,-8.81903 7.87167,15.29176 14.1024,35.27668 15.54777,53.72919 1.47519,26.08609 -2.23467,53.74717 -12.56908,76.83984 -5.19547,10.94998 -10.31631,23.87752 -20.375,31.25 -9.32816,10.12885 -17.03206,22.67681 -32,28.10841 -19.6682,14.944 -45.15768,22.61788 -69.84231,23.0778 -8.5393,0.21712 -17.08771,0.38714 -25.62711,0.0799 z m -137.91153,-9.78992 c -9.79225,-8.03173 -9.14849,-16.30485 0,0 z m 314.98965,-3.89887 c 10.46595,-14.82992 4.24025,3.84673 0,0 z M 136,420.53518 c -10.04745,-9.04986 4.23485,-3.31883 1.46862,1.46482 z m 341,-5.31074 c 5.75485,-11.02126 10.55566,-9.01054 0,0 z m -352.67072,-13.0165 c -14.17813,-25.52835 2.8134,-6.32186 0,0 z m 366.24402,-9.69792 c 6.76788,-18.05212 0.41817,7.17685 0,0 z M 112.6294,373.08386 c -5.75131,-8.94321 -7.9876,-34.8269 -1.45207,-9.97798 0.85884,1.51494 8.62322,21.76808 1.45207,9.97798 z M 497,375 c 3.75786,-7.01534 3.12625,6.75372 0,0 z m 6.116,-15.17857 c 3.99972,-22.55538 6.10155,-6.38694 0,0 z M 103,343 c 3.81129,-10.4274 2.96789,10.08547 0,0 z m 404,-9.5 c 0.7569,-16.89578 6.2558,2.59263 0.72691,5.17546 z m -405,-4.41667 c -3.685479,-11.39592 -2.982485,-39.8292 0.10338,-11.50618 0.22616,1.55813 1.6696,18.41216 -0.10338,11.50618 z M 100,285.5 c 1.78859,-16.89958 4.32692,-5.47709 1.67793,4.00731 L 100.87087,292 Z m 409.1681,-6.25 c -5.87142,-9.34132 3.5763,-14.20026 0,0 z m -5.68381,-29.32151 c -1.82035,-12.00299 5.5643,11.04523 0,0 z m -393.84015,-7.37878 c 6.52161,-18.22994 0.4783,6.97657 0,0 z M 495.25,227.44368 c -4.75992,-7.83625 5.73394,0.80957 0,0 z M 419,219 c -28.47394,-28.32707 9.59973,-2.71001 0,0 z m -299.84081,-2.00943 c 7.40162,-12.58725 -1.02951,8.0708 0,0 z M 122.57364,210.5 c 7.1573,-15.11754 6.02823,-0.0753 1e-5,0 z m 359.04541,-8.02381 c -16.41376,-19.72374 2.57674,-4.07688 0,0 z M 132,194.46862 c 12.51407,-19.43765 11.34268,-4.75817 0,0 z m 304.75,-8.15795 C 420.86752,181.32404 410.58119,170.03467 399,160 c -18.92064,-12.23045 -39.28056,-23.00309 -62.96408,-23.62769 -27.22843,-3.745 -54.99256,0.74015 -81.50296,3.71819 21.40948,-12.60187 52.02158,-12.45572 78.15511,-11.25137 22.43347,3.50832 44.33416,8.72968 63.30046,20.83141 11.05286,5.49952 21.88159,12.56268 29.44897,21.74613 3.81473,1.96772 21.38974,15.94488 11.3125,14.894 z M 292.65046,133.23469 c -11.61501,-2.92572 -16.94105,2.79428 0,0 z M 468,182.89095 C 455.73179,170.01973 442.54956,157.23377 429.53138,145 c -12.88972,-8.12518 -25.9568,-19.56251 -4.52358,-5.75017 12.71469,8.1591 21.77942,19.73833 32.9922,29.75 1.04866,3.18874 19.33,16.6311 10,13.89112 z m -323,-4.85577 c 9.15854,-10.90546 7.3837,-2.76082 0,0 z M 161.87934,158 c 15.63875,-13.26069 2.51667,2.36728 -2.703,2.96428 z M 171,150 c 14.85367,-11.60038 30.61667,-21.27919 47.26481,-30 35.13594,-13.59358 73.55133,-25.626942 111.49502,-18.54585 -27.87792,-2.720654 -56.43674,0.75987 -81.38351,13.8069 -24.03589,10.91967 -52.22029,13.70136 -71.9077,32.73895 -1.55993,0.0412 -4.26826,5.19709 -5.46862,2 z M 405.40462,127.61204 C 394.13089,122.43711 368.55688,109.11807 394.26481,121 c 1.70555,-1.32372 22.07227,11.37307 11.13981,6.61204 z M 376,114.11871 c -21.31177,-7.28567 1.97786,-4.29426 1.5,0.88129 z M 357,107.5 c -15.65021,-2.95187 -21.44142,-6.85377 -3.25,-2.02205 3.34111,-1.05769 15.5572,6.50456 3.25,2.02205 z M 474,516 c 9.29776,-8.58804 -11.64889,-2.26808 0,0 z m -214.5,-1 c -7.3718,-3.87483 -9.01182,2.80265 0,0 z m 101.65332,-1.06693 c -14.24804,-0.98357 -0.49602,2.90693 0,0 z M 230.25,506.88122 c -24.6863,-7.58533 10.07538,5.23093 0,0 z M 200.77083,492.1875 c -4.05938,-5.7305 -5.49312,5.97434 0,0 z m -13.21698,-6.27463 c -0.0701,-7.29342 -6.3566,3.60469 0,0 z M 430.08179,483 c 2.58279,-7.0404 -11.1695,2.87482 0,0 z M 435,478.5 c 8.82784,-7.98826 -7.96844,-0.26499 -0.44063,1.05937 z m -287,-29 c -8.37611,-11.04429 -6.53805,2.85545 0,0 z m -78,-24 c -3.824969,-12.16389 -2.906844,11.79078 0,0 z m -3,-25 c -4.107709,-5.29176 -3.880752,5.37237 0,0 z m 469,-12 c -3.80279,-8.73518 -3.02961,8.42372 0,0 z m -512,-35 c -2.96712,-32.31994 -1.759007,30.82848 0,0 z m -2.758763,-58.94789 c 0.149872,-26.62913 -4.707779,9.13451 0,0 z M 31,205 c -4.286287,-13.94914 -2.532672,13.25403 0,0 z m 544,-9.5 c -3.80279,-8.73518 -3.02961,8.42372 0,0 z m -4,-12 c -2.36366,-8.66117 -2.36366,8.66117 0,0 z M 457.5,91 c -3.42179,-6.846397 -3.23453,6.807095 0,0 z M 136.27776,83.988569 c 4.50788,-9.818263 -11.0708,6.915337 0,0 z M 31.666667,406.33333 c -2.810708,-9.92198 7.301744,2.65152 0,0 z M 601,273 c 3.00928,-16.05502 4.7526,17.1744 0,0 z m -3,-23.58333 c 3.27648,-7.5131 3.03503,8.52919 0,0 z m -1,-11.77432 c -8.08035,-20.97741 1.37796,-5.65766 0,0 z M 591,221.5 c 2.89825,-7.80894 3.89458,8.51207 0,0 z M 57,146.93723 c 10.092858,-21.04856 14.089632,-7.14271 0,0 z M 67,132.5 C 74.101365,122.98033 84.173495,112.77224 88.25,102.35863 92.559116,93.114733 111.49875,86.195218 120.39301,76 136.97023,63.547951 156.63546,54.211297 174.93243,43.514841 195.20531,34.435779 215.679,26.426403 237.98594,21.326282 264.26756,15.645236 291.11942,9.9869801 317.5,6.8242638 c 33.65488,0.3184909 65.46844,9.4292352 95,23.7417142 20.53184,8.105818 38.09186,18.767015 56.75,29.703126 C 478.87275,70.625637 445.07566,47.91868 438,44 392.60314,24.562051 343.11425,2.5727606 292.73763,14.40169 240.59345,18.788297 189.28067,34.454441 145.25,62.626776 127.71542,70.258365 114.76245,84.452735 99.998716,95.65983 89.122078,101.90463 87.472596,115.47162 77.4375,121.58333 75.304597,124.07784 69.990183,136.8833 67,132.5 Z m 466.97076,-9.58837 c -16.43994,-14.12463 0.56834,-7.05452 1.69729,1.95314 l -1.69729,-1.95317 z M 521.25,109.2802 c -14.97161,-13.92337 2.02334,-4.42676 3.23322,2.53033 z M 510,97.722241 C 504.88291,89.969597 488.00551,77.845041 487,75 c 9.44645,6.688591 20.60739,14.488142 25.55938,23.559375 L 511.5,99 Z M 478.57503,70.940567 c -14.12684,-10.080623 15.53811,6.443836 0,0 z"
         id="path1637" />
      <path
         style="fill:#30302e"
         d="M 279.15163,603.98898 C 234.50924,600.46184 189.54161,586.22676 152,563.43691 135.82192,554.24818 120.26234,542.13613 106,530.5 94.991596,519.82902 83.828259,509.06652 73.5,497.30288 66.451517,488.30207 59.910602,479.7494 54,470.5 48.197833,461.94441 41.731129,451.91112 37.588249,442.52282 28.717668,427.81778 25.129871,414.18372 18.442287,398.14936 12.495753,377.19705 6.4462703,354.06495 5.1399686,331.01288 5.1037956,318.82193 4.4690617,298.98522 10.061273,322 c 2.766914,19.41676 5.988326,30.85964 9.841966,46.80108 4.375925,21.24622 8.094524,-21.71773 8.400332,8.78226 7.114722,7.60452 -16.085214,4.09794 -1.63781,17.56633 8.028759,-24.31679 15.23191,22.5945 22.834239,31.49319 5.263454,12.14058 11.94429,25.40577 19,36.35714 9.528559,12.75156 20.123455,22.57404 29.440432,35.16138 C 109.39057,506.23625 118.44312,518.34528 129,528 c 15.78891,7.73774 27.89356,22.85846 44.34909,27.4142 17.22657,11.02503 36.53143,19.14255 56.42983,24.42257 23.1155,9.95216 51.74036,11.29344 77.72573,12.31265 C 352.34092,593.5443 397.04349,583.69159 438,567.10719 453.15584,558.48213 468.68585,556.0066 481.53138,545 c 9.21445,-6.89003 17.53353,-12.7596 24.96862,-20.56445 12.9625,-7.33028 -5.68218,10.22918 -11.02475,13.56445 -9.39762,8.2008 -14.27203,11.28199 -24.89673,18.75 -12.15307,7.03031 -22.25014,12.89086 -35.57852,19.32946 -48.1827,23.40662 -102.06105,32.05355 -155.84837,27.90952 z M 34,405 c -3.465944,-7.00312 -2.905887,6.48001 0,0 z m 479,113 c 11.41514,-8.70472 14.44327,-13.00187 23.44062,-24.55937 5.07969,-6.08328 16.80746,-21.12141 8.16779,-6.44063 -6.28595,8.70022 -12.68767,15.58133 -20.13449,24.25 C 523.24022,507.72347 515.02831,525.50458 513,518 Z M 289.81635,516.47067 C 263.90935,513.99297 236.66956,507.73824 214,496.5 c -9.23213,-4.65372 -29.809,-15.11458 -30.66258,-19.94175 20.16837,13.87218 42.83418,25.23722 65.99101,30.85524 43.38949,12.91692 91.88556,9.65852 133.33202,-6.48658 C 403.48621,494.3475 421.51287,480.60825 439,468 c 3.22935,-5.0283 -8.5742,-3.59978 2.77377,-6.26634 1.78145,4.3788 24.21763,-22.09544 16.22623,-9.23366 -10.50314,8.92553 -20.02731,20.88615 -33.1064,27.70739 -12.31775,9.69048 -25.60307,16.26202 -40.01979,22.3159 -30.23443,11.24525 -62.69575,17.12314 -95.05746,13.94738 z m 180.83464,-0.22637 c -1.06186,-14.57259 13.99066,2.33753 0,0 z m -185.20766,-4.13431 c 26.00172,-4.77146 56.99997,-0.27817 83.23259,-11.70541 11.82548,-3.94504 60.87457,-25.48999 24.50916,-8.45982 -33.09609,16.91716 -70.86329,22.70895 -107.74175,20.16523 z m -21.68002,-3.48953 c -24.49143,-5.7705 -48.1269,-15.89783 -69.48741,-29.2297 22.63688,10.32236 44.88502,23.30956 70.2241,26.80539 16.02532,2.92009 21.40716,5.78383 -0.73669,2.42431 z m 26.5025,-7.45938 c 15.98682,-1.88231 32.33527,1.64843 6.27489,0.68622 l -3.72772,-0.17238 z M 409,482.11663 c 16.7376,-13.19695 13.50415,-2.82471 0,0 z m -219.75,-5.14779 c -19.55001,-14.36631 9.76494,0.97026 0,0 z M 549,476.5 c 3.45478,-5.16062 4.37838,5.09097 0,0 z M 175.82143,472.69405 C 170.87714,466.9643 147.8603,453.05208 155,452.5 c 1.24602,4.44797 34.04881,24.46264 20.82143,20.19405 z M 423.75,473.28088 c 11.29469,-10.23231 14.0957,-4.23497 0,0 z M 552,472 c 11.5315,-23.24404 12.4192,-3.44103 0,0 z m -374.61156,-5.43012 c -19.78843,-14.78876 11.96711,4.846 0,0 z M 168,459 c -13.30511,-10.32305 -6.8463,-8.91517 3,0 l -1.5,1 z m 394,-1.92668 c -3.84314,0.57242 18.11533,-28.38593 10,-14.10491 -2.50354,2.74828 -5.29336,16.49131 -10,14.10491 z m -112.75,-5.76265 c 12.31382,-15.5607 17.76957,-9.8374 0,0 z m -299.5,-3.20399 c -18.19674,-18.05493 7.06871,-0.42796 0,0 z M 461,446 c 9.80201,-11.54327 17.10855,-10.47179 0,0 z M 298.5,443.1367 C 272.67182,441.35031 248.12089,431.79421 226.43777,419 214.15674,410.68947 205.52399,397.33965 194,387.5 182.20465,376.63467 179.60322,358.769 171.34893,344.97656 166.9076,324.06945 161.47513,300.99101 168,279.5 c 3.44819,-14.17546 5.39797,-32.70159 15.59559,-43.15476 4.05019,-14.34633 15.9301,-23.4895 24.90441,-33.34524 9.95321,-11.10207 22.1875,-20.28418 36.25,-25.96607 29.2069,-15.01694 64.30018,-18.30924 96.17054,-10.2333 11.86604,3.0815 42.20556,13.70594 42.3124,20.72099 C 351.75151,165.50921 309.1589,159.49802 272,169.07118 c -22.66192,6.34929 -44.09,17.77932 -60.04691,33.88647 -8.33117,8.3066 -16.43223,17.24644 -22.37363,27.04235 -9.15053,15.99565 -15.89767,33.72673 -18.57946,52.46862 -3.13466,14.59472 -0.53863,19.59738 0,35.48169 0.48792,19.6128 8.47375,36.67783 15.57227,53.76482 5.39984,13.04107 16.80178,20.5868 25.94665,30.68395 11.61124,13.7677 29.96684,21.0197 46.14371,28.77556 31.47977,10.44627 67.61594,10.80089 98.33737,-1.72402 14.98043,-6.16349 30.19129,-14.90994 42,-25.95062 23.54981,-19.89235 -7.85072,12.26609 -17.26147,16.98433 -19.86224,9.69368 -38.66457,20.91449 -61.1179,21.09447 -7.40482,-0.0195 -14.75647,2.78151 -22.12063,1.5579 z m -150.25,-4.6453 c -10.52516,-13.13827 11.76254,7.69594 0,0 z M 461,439 c 8.31864,-8.24054 14.0849,-11.80554 1.04775,1 z m -322,-2.27776 c -13.43314,-15.86555 -8.7806,-17.16141 1.5,-1.72224 3.45941,0.39834 -5e-4,5.35844 -1.5,1.72224 z M 575,431 c 3.1837,-8.80012 17.40612,-38.19856 8.38095,-12.52381 C 581.13224,420.7074 577.13639,438.64386 575,431 Z m -101,-1.5 c -7.40941,1.33153 16.0402,-15.00879 7,-6.22224 -2.05288,0.80968 -4.33934,11.48184 -7,6.22224 z m -407,-4 c 3.824969,-12.16389 2.906844,11.79078 0,0 z m 72,1.70339 c -21.53033,-24.09847 9.40129,1.52352 0,0 z m -14.28125,-8.31797 c -23.12079,-36.92158 13.12961,7.08559 0,0 z M 474,420 c 12.47766,-18.53913 13.13201,-8.69682 0,0 z m 13,-9.5 c 4.14827,-7.999 17.4117,-29.02535 9.6,-9.16666 -4.34302,0.30973 -5.82802,14.55044 -9.6,9.16666 z m -361.5712,-2.92764 c -3.81809,-11.90574 -13.58914,-2.43103 -5.05072,-13.33714 -0.48429,2.04026 13.68282,22.05957 5.05072,13.33714 z m 463.28259,-5.19431 c -0.80246,-19.59666 10.05379,-33.77902 9.37375,-53.31391 5.35147,-18.06318 6.60555,-37.12832 6.3258,-56.61261 0.1782,-18.82901 0.21512,-10.71096 0.22159,3.21396 1.53917,36.24949 -3.9958,72.62438 -15.12469,106.56109 l -0.7965,0.15147 z M 63.693853,401.36052 c 0.02966,-6.25861 6.563907,2.67156 0,0 z M 487,400.5 c 7.24326,-12.93135 13.08301,-21.37285 3.54247,-1.69335 0.30233,1.52101 -3.42745,5.36821 -3.54247,1.69335 z m -374.41591,-6.90345 c -9.33729,-13.5816 -4.92506,-24.158 2.04372,-2.59655 4.0132,2.23113 -1.25844,10.06979 -2.04372,2.59655 z M 409,392 c 13.20841,-17.86811 16.12266,-10.00452 0.94848,1 z m 124,-3.5 c 3.80279,-8.73518 3.02961,8.42372 0,0 z M 500,386 c 7.88973,-8.99524 3.81809,-46.3058 9.63621,-20.57876 C 506.98374,368.73603 504.27181,395.93734 500,386 Z m -387.6,-7.59832 c -11.49297,-29.44282 10.62305,11.78196 0,0 z M 497,379.5 c 3.80279,-8.73518 3.02961,8.42372 0,0 z M 422,375 c 6.47393,-10.59797 15.0263,-19.5032 3.4092,-1.4125 0.11445,2.30601 -2.70124,5.57347 -3.4092,1.4125 z m -319,-5.5 c 3.82497,-12.1639 2.90684,11.79078 0,0 z m 3,-9 c 3.82497,-12.1639 2.90684,11.79078 0,0 z m -84,-7 c 2.96712,-32.31994 1.759007,30.82848 0,0 z m 80,8 c -7.879728,-12.76927 -4.173817,-40.06845 -1.7,-10 3.67065,0.15228 3.17442,15.4742 1.7,10 z M 435,350 c 3.81129,-10.4274 2.96789,10.08547 0,0 z m -332,-1 c 3.81129,-10.4274 2.96789,10.08547 0,0 z m 407,0.46862 c -9.3457,-17.80551 10.27024,-11.61282 0,0 z M 438.07895,341.75 c 8.24319,-25.98162 7.20266,-55.80994 0.17105,-82.19721 9.82736,22.60298 7.11417,50.94741 3.44515,75.36071 1.27294,0.11644 -3.40185,16.95355 -3.6162,6.8365 z M 102.1681,340.83333 C 97.760171,325.34792 98.5996,298.3667 95.569502,328.41741 92.17548,319.07085 86.758457,294.31357 92.939062,280.03125 93.134653,260.61602 100.60189,239.95296 108.58537,223.37037 122.88972,199.07397 107.4332,233.9653 104.5,242 c -6.401945,20.19333 -11.484302,42.79357 -11.216379,64.89107 8.832109,-19.86817 7.639039,27.5608 8.884479,33.94226 z M 513,327 c 4.28629,-13.94914 2.53267,13.25403 0,0 z m -3,-22 c -1.47847,-22.18964 5.45475,-15.05441 3.05769,3.625 4.61518,15.25731 3.78583,-30.32597 -0.0577,-38.125 -3.84328,-18.38516 -5.93755,-40.3748 -16,-55.84699 C 489.9213,201.96064 484.8438,191.80073 475.5,181 470.91327,167.06986 456.02697,158.90299 447.05152,148 413.66321,116.28501 366.72508,98.62016 320.52744,93.319196 273.11527,90.706318 225.82823,104.20604 186.40178,130.2864 c -9.7127,10.1909 -24.01345,16.6987 -31.83928,28.13027 -8.59013,9.00467 -15.8863,18.17608 -23.00313,28.1427 -6.79624,7.87269 -17.28919,27.11403 -8.12048,6.82571 7.15501,-8.8622 11.64204,-19.92516 21.12048,-26.82571 8.53717,-14.16271 23.48042,-24.59475 36.54232,-35.08171 19.93613,-14.63876 43.66121,-26.23747 67.04147,-32.913911 23.63911,-7.515575 50.92152,-9.70817 76.21245,-7.683584 28.49704,1.993808 55.45104,11.692805 81.22768,23.164915 13.01097,9.94578 28.18058,14.74248 38.652,26.95492 13.74297,11.94483 27.30084,22.83924 34.83273,39 9.22442,9.10158 15.35862,21.99471 21.36948,33.41667 8.23655,14.98288 10.19798,34.13874 15.61795,50.51185 3.4392,12.55291 7.15609,61.72442 -6.05545,53.63837 0,-4.18896 0,-8.37793 0,-12.56689 z M 19,292 c 1.126324,-20.54291 4.553492,11.58898 0.255547,4.94375 z m 80.444429,-7.31038 c -1.258722,-15.97695 6.631291,-21.1092 0.844091,-2.72651 -0.37565,1.17184 -1.299485,20.36634 -0.844091,2.72651 z M 5.1747072,272.32143 C 4.1601526,257.13568 19.915762,206.71723 11.568659,245 8.7432688,250.64971 7.4404762,286.97012 5.1747072,272.32143 Z M 508.25,269.43999 c -4.96304,-11.76684 5.58514,-2.31944 0,0 z M 601.01531,263.25 c 1.42638,-13.31678 2.77275,15.98912 0,0 z M 103,258.5 c 3.80279,-8.73518 3.02961,8.42372 0,0 z m 332,-5 c 3.80279,-8.73518 3.02961,8.42372 0,0 z m 71.1681,-0.66667 c -7.43669,-16.4857 2.93639,-5.23065 0,0 z m -74.58401,-9.23678 c -14.54608,-23.91423 6.02852,-2.08899 0.82277,2.23394 z M 598.01531,243.75 c 1.1887,-8.64704 2.80669,10.76227 0,0 z M 109.116,239.25 c 8.37588,-23.15699 8.79879,-6.52528 0,0 z m 485.87035,-9 c -3.14234,-18.46624 4.65995,9.98109 0,0 z M 419,222.46862 c -21.29785,-21.37221 10.01594,1.9661 0,0 z M 15,220 c 3.811285,-10.4274 2.967893,10.08547 0,0 z m 477.29054,-0.45244 c -6.45579,-13.97596 5.97653,4.40145 0,0 z m 99.37613,-0.21423 c -5.13073,-15.09647 6.06306,3.71369 0,0 z M 119,213.46862 c -9.59877,-10.99682 7.84282,-1.84841 0,0 z m -101,-3 C 21.176953,195.40911 33.198866,182.8122 22.954687,204 22.239275,205.90179 19.469671,219.46517 18,210.46862 Z M 588,208.5 c 2.91191,-8.05829 3.07382,8.71687 0,0 z m -465.92105,-0.0278 c 8.99279,-18.16773 6.71389,-1.58557 0,0 z m 281.87414,-4.42989 c -12.92284,-8.92594 -24.31906,-22.268 -3.46231,-5.61057 1.67512,3.21859 14.50407,12.60341 3.46231,5.61057 z m 180.58593,-6.68605 c -9.39983,-17.76818 -4.5744,-19.07014 1.76537,0.28146 2.77612,1.84533 -2.93319,7.38707 -1.76537,-0.28146 z M 129,196 c 3.75786,-7.01534 3.12625,6.75372 0,0 z m 350.45528,0.64914 c -6.53113,-8.29587 5.70917,1.54774 0,0 z M 132,191.5 c 7.46507,-10.70538 16.99844,-12.86849 0,0 z m -104,-7 c 5.135719,-11.04665 11.244141,-22.73084 17.438893,-33.11492 6.377924,-9.98061 12.341433,-19.14827 18.998607,-28.80175 5.319604,-6.26169 11.285391,-13.33578 16,-20 C 92.987617,91.403939 104.2992,77.789816 119,68.5 131.11041,59.529743 145.04176,49.095608 158,42.611291 189.14201,25.980574 223.65138,13.305137 259.09286,8.2959576 293.22512,2.1753757 329.64439,2.6627153 363.36163,9.5 c 33.45289,6.892394 66.5123,18.93909 95.81664,37.265164 7.57473,2.352744 20.79822,13.258084 24.14818,14.826516 6.49976,5.966202 15.50504,13.291589 20.82806,16.003812 1.16091,2.509712 10.00466,11.319684 17.73644,18.404508 7.11875,4.40418 7.16958,11.60957 17.16176,18.07936 3.05499,6.88817 10.65534,14.23055 15.49379,21.36127 4.82886,10.93864 20.74485,29.05545 17.76876,35.60916 -3.6527,-14.25505 -14.67559,-20.17861 -24.2571,-30.01647 C 539.58875,130.5316 535.62094,121.10463 526,111.53138 512.57652,98.466684 502.56709,84.066357 486.05152,74 473.17925,65.713178 462.88475,53.308067 448,48.5 428.69318,35.080233 403.5681,27.899866 383.25,17.966069 353.25927,9.9551035 320.08892,0.95117232 289.75,11.456833 257.261,16.347002 223.93661,22.632416 194,35.5 170.38436,43.094361 149.50713,59.500113 126.88125,70.382641 117.24462,80.654208 103.80991,88.326631 93,96.550506 85.802873,103.61953 81.573951,116.51024 72,126.26797 64.73815,136.13011 55.833195,146.31782 52.608408,158 44.723571,162.59462 38.598352,192.05692 28,184.5 Z m 440,-4.35398 C 457.05856,167.288 444.47911,156.12752 432.4922,144.25 416.17461,133.76716 401.05453,122.26969 382.5,115.43402 c -10.4178,-4.9268 -43.51438,-14.80264 -12.37014,-6.69192 19.69827,7.05391 38.94879,16.6086 55.31998,28.84061 13.9641,7.61232 22.87802,21.06962 35.11266,30.00062 -0.72281,3.9753 16.89783,14.49874 7.4375,12.56269 z m 108.75,-1.83535 c -6.3822,-7.63055 6.212,0.18458 0,0 z M 145,175.5 c 4.32461,-10.03356 37.60601,-36.93546 13,-12.65484 -5.72464,1.30449 -8.23712,16.81971 -13,12.65484 z M 171,148 c 11.52416,-10.33824 20.48835,-8.2653 0,0 z m 13,-10 c 33.24977,-23.47529 73.46186,-38.898706 114.5,-38.676614 -35.50317,3.520274 -70.51162,13.969554 -101,32.110634 -4.41001,-0.0929 -10.36438,9.69256 -13.5,6.56598 z m 98,-4.78507 c 16.88729,-2.81074 11.66356,2.90786 0,0 z M 347,104 c -12.23255,-4.586213 17.0443,3.54882 0,0 z m -16.33693,-2.67026 c -31.7594,-5.406205 29.53716,1.15717 0,0 z M 303.25,98.283746 c 12.20409,-1.458999 2.40748,1.475645 0,0 z M 455,91 c 2.82445,-6.281127 2.20196,6.001032 0,0 z M 132,84.5 c 6.17154,-8.365138 6.06885,3.574669 0,0 z"
         id="path1635" />
      <path
         style="fill:#020202"
         d="M 283.29402,607.9285 C 157.41282,600.96845 42.0343,506.91409 11.056104,384.39547 -23.067264,264.68986 25.620771,127.1794 128.2146,56.478672 218.82186,-9.6538505 346.83098,-17.89906 445.0965,36.162541 459.29375,41.049103 467.80817,53.062406 449.25,40.678279 417.42447,23.418014 382.59549,11.857369 347.22512,6.5794256 291.8472,-0.33657178 234.73491,7.5226407 183.89861,30.374539 168.52953,35.731741 155.43567,43.852594 142,51.971047 125.88481,63.515152 110.23455,73.581342 96,87.5 89.17191,94.187458 81.528822,101.97794 75.5,109 67.6428,117.80276 62.878124,127.00245 54.375,135.75 50.920924,145.83668 41.965151,154.84971 38,164.53138 29.074338,178.81571 26.365243,193.34468 18.318204,208.16637 13.438029,231.42807 4.6779081,255.9862 5.0515347,281.43796 4.3838655,312.54263 3.9728296,343.84387 11.826839,373.94127 15.731851,390.1054 21.484802,407.32639 28,422.5 c 4.20834,11.99641 11.249071,23.86732 17.450629,34.80777 5.651141,9.49263 11.028153,16.76582 17.128826,25.69223 8.396277,11.38491 18.445372,24.21329 29.983045,33.58333 7.57058,10.23506 17.91786,17.40973 27.71482,25.41667 15.26236,11.65713 31.15204,21.95293 47.72268,30.45469 46.88715,24.40853 100.77408,34.83591 153.76606,31.76789 44.11497,-0.44396 85.98496,-14.68073 125.20582,-33.63686 7.69754,-6.68068 33.06616,-18.091 10.53511,-4.70374 -52.23789,31.06202 -113.5069,46.32247 -174.21297,42.04652 z m 187.33056,-51.39257 c 5.46252,-7.22482 15.38441,-6.10024 0,0 z M 484,546.56809 c 6.89273,-8.99937 12.30406,-2.33415 0,0 z m 16,-12.96511 c 5.18736,-3.21488 33.59027,-34.04115 19.25,-16.41751 -6.08276,5.59295 -11.63177,13.05032 -19.25,16.41751 z M 291.5,514.91439 c -27.4945,-2.08922 -53.13184,-9.1833 -77.84889,-20.3812 C 192.23448,483.90337 173.75373,469.88536 156.5,454 c -6.79222,-8.8263 -15.47851,-17.31014 -22.5,-27.26797 -5.80374,-4.66728 -19.71015,-32.44289 -11.58589,-23.25394 7.71021,9.40765 13.21685,20.97699 22.14526,29.0063 8.56051,15.94102 22.95828,26.15417 36.44063,37.01561 20.73378,17.55728 48.56857,29.52247 75.19189,37.02227 25.8385,6.26938 53.01166,7.94311 79.62233,3.62468 25.70761,-3.43468 50.53073,-13.94016 73.18578,-25.72641 10.12665,-6.17554 21.98845,-17.0611 31.91946,-19.31092 -11.39527,13.07269 -29.34682,20.06315 -43.04565,30.41367 -33.73812,13.4114 -69.29147,22.54434 -106.37381,19.3911 z M 441.80983,463.4765 C 446.56747,448.93133 465.74389,442.02987 472.5,428 c 4.24087,-9.50924 11.07073,-18.73304 17.13043,-26.93543 6.93637,-8.8004 17.76746,-54.08732 14.86957,-24.42171 -4.33849,12.33302 -11.62758,23.6374 -17.5,35.35714 -4.53608,8.04224 -11.56731,15.19804 -16,23.27776 -8.09941,10.73784 -19.65075,20.7756 -29.19017,28.19874 z M 287.75027,438.0722 C 261.73143,434.906 238.63672,423.1049 217.4375,408.41667 209.9966,397.8458 198.44724,389.94253 191,379.96862 c -9.9493,-16.4518 -13.44133,-32.59339 -19.70658,-50.53846 1.08243,-14.96767 -3.50905,-29.00591 -1.04081,-37.82177 0.0981,-19.88923 8.23233,-38.35752 15.71325,-55.60839 5.71777,-10.52672 13.09858,-19.531 21.03414,-28 10.9738,-11.96143 23.82757,-21.64343 39,-29.10841 40.36309,-20.58125 90.93675,-18.3143 130,3.68787 11.33189,8.5045 24.79808,16.59196 33.4375,27.83721 6.31838,8.43496 14.12336,16.31179 18.5625,26.2217 10.16748,17.47597 14.07396,37.12368 15.96561,58.14306 0.49183,22.6358 -3.36339,45.59326 -12.38152,64.62202 -6.65167,11.75215 -11.62049,22.56883 -22.14659,32.17988 C 400.39822,405.83246 384.39916,414.62245 370,424 c -21.55707,10.07218 -45.25449,16.07956 -69.71522,14.56829 l -6.66455,-0.14313 z M 116,394.5 c -8.64631,-17.54479 -15.08936,-35.15186 -16.296215,-54.89763 -7.953044,-8.11645 -0.441792,-43.9033 -0.420925,-15.45227 2.33993,20.51796 7.34615,40.33342 14.91714,57.8499 4.17786,0.51199 6.55935,24.4428 1.8,12.5 z M 507,351 c 3.66194,-18.1582 2.67872,17.53164 0,0 z m 94,-0.33333 c 2.28379,-16.36245 0.4942,15.36039 0,0 z M 510,329.5 c 4.05499,-30.50098 4.78462,24.81206 0,0 z M 513,302 C 509.31376,281.02595 511.38647,257.51827 501.4121,238 498.29589,225.93114 491.37762,213.65238 484.4,203.33334 478.5692,192.60732 472.74051,184.10207 465.5,173.66005 458.06441,164.97794 449.22097,158.33517 441,149.5 431.19518,138.97335 417.01695,133.27673 405.60374,123.86942 369.30166,105.51589 328.40764,94.803906 287.33919,99.320942 246.67105,103.08516 206.59207,118.93768 175.53138,145 164.29446,153.18461 153.83734,163.31257 145.4375,174.58333 141.05847,183.86629 130.66483,190.43934 127.5,200 c -12.84692,22.43638 -4.63387,-3.73095 1.9375,-12.41667 8.62776,-8.55183 15.10067,-18.18661 23.00313,-28.15684 8.30024,-8.37308 18.44942,-16.86481 28.64291,-23.94484 22.92281,-19.22857 52.60719,-30.86633 81.87656,-37.591473 59.47171,-13.675976 123.7795,3.574873 171.87323,39.359823 10.6921,9.18954 20.6697,19.47765 30.7417,28.78488 8.0795,10.79317 16.41777,21.58882 21.79997,33.21512 9.83107,13.24232 17.74998,27.44463 19.87507,44.70216 5.57962,23.12687 12.0178,46.98101 7.24993,71.04784 -3.27176,-2.84539 -0.0299,-9.5925 -1.5,-13 z m 92.35496,2.5 c 0.62281,-16.7427 0.75974,15.26955 0,0 z M 93,298.5 c 2.297576,-20.67493 6.156475,-42.31704 13,-61 2.71029,-12.73661 18.59836,-36.92233 9.61135,-11.20079 -9.23697,16.19285 -12.56743,34.64802 -16.223439,53.94505 C 101.95909,287.2422 93.192576,324.91751 93,298.5 Z M 535.52932,112.09238 c -18.57304,-19.482919 10.04506,5.96257 0,0 z M 523,97.5 C 512.25467,86.614414 502.27223,76.756634 490,67.55202 482.75836,61.609326 450.25577,39.328042 476.25676,55.303147 491.62632,66.134352 517.55354,87.485624 523,97.5 Z"
         id="path1633" />
    </g>
  </g>
</svg>
