<?xml version="1.0" encoding="UTF-8" standalone="no"?>
<!-- Created with Inkscape (http://www.inkscape.org/) -->

<svg
   version="1.1"
   id="svg916"
   width="23"
   height="23"
   viewBox="0 0 606 609"
   sodipodi:docname="input-port2.svg"
   inkscape:version="1.1.1 (3bf5ae0d25, 2021-09-20)"
   xmlns:inkscape="http://www.inkscape.org/namespaces/inkscape"
   xmlns:sodipodi="http://sodipodi.sourceforge.net/DTD/sodipodi-0.dtd"
   xmlns="http://www.w3.org/2000/svg"
   xmlns:svg="http://www.w3.org/2000/svg">
  <defs
     id="defs920" />
  <sodipodi:namedview
     id="namedview918"
     pagecolor="#ffffff"
     bordercolor="#666666"
     borderopacity="1.0"
     inkscape:pageshadow="2"
     inkscape:pageopacity="0.0"
     inkscape:pagecheckerboard="0"
     showgrid="false"
     inkscape:zoom="0.35837438"
     inkscape:cx="-55.80756"
     inkscape:cy="940.35739"
     inkscape:window-width="3840"
     inkscape:window-height="2066"
     inkscape:window-x="2869"
     inkscape:window-y="-11"
     inkscape:window-maximized="1"
     inkscape:current-layer="g922" />
  <g
     inkscape:groupmode="layer"
     inkscape:label="Image"
     id="g922">
    <g
       id="g1791"
       transform="translate(0.05955666)">
      <path
         style="fill:#c8c4ba"
         d="m 280.8125,608.31689 c 5.43071,-2.08136 -0.45122,2.29173 0,0 z m 43,0 c 5.43071,-2.08136 -0.45122,2.29173 0,0 z m -54.47917,-0.98356 c 2.61321,-2.03619 0.59041,2.34214 0,0 z m 66,0 c 2.61321,-2.03619 0.59041,2.34214 0,0 z m -74,-1 c 2.61321,-2.03619 0.59041,2.34214 0,0 z m 82,0 c 2.61321,-2.03619 0.59041,2.34214 0,0 z M 255,605.5 c 1.20664,-1.96355 1.20664,1.96355 0,0 z m 95,0 c 1.20664,-1.96355 1.20664,1.96355 0,0 z m -101,-1 c 1.20664,-1.96355 1.20664,1.96355 0,0 z m 107,0 c 1.20664,-1.96355 1.20664,1.96355 0,0 z m -122,-3 c 1.20664,-1.96355 1.20664,1.96355 0,0 z m 137,0 c 1.20664,-1.96355 1.20664,1.96355 0,0 z m -141,-1 c 1.20664,-1.96355 1.20664,1.96355 0,0 z m 145,0 c 1.20664,-1.96355 1.20664,1.96355 0,0 z m -149,-1 c 1.20664,-1.96355 1.20664,1.96355 0,0 z m 153,0 c 1.20664,-1.96355 1.20664,1.96355 0,0 z m -167,-4 c 1.20664,-1.96355 1.20664,1.96355 0,0 z m 181,0 c 1.20664,-1.96355 1.20664,1.96355 0,0 z m -184,-1 c 1.20664,-1.96355 1.20664,1.96355 0,0 z m 187,0 c 1.20664,-1.96355 1.20664,1.96355 0,0 z m -190,-1 c 1.20664,-1.96355 1.20664,1.96355 0,0 z m 193,0 c 1.20664,-1.96355 1.20664,1.96355 0,0 z m -196,-1 c 1.20664,-1.96355 1.20664,1.96355 0,0 z m 199,0 c 1.20664,-1.96355 1.20664,1.96355 0,0 z m -217,-7 c 1.20664,-1.96355 1.20664,1.96355 0,0 z m 235,0 c 1.20664,-1.96355 1.20664,1.96355 0,0 z m -242,-3 c 1.20664,-1.96355 1.20664,1.96355 0,0 z m 249,0 c 1.20664,-1.96355 1.20664,1.96355 0,0 z m -251,-1 c 1.20664,-1.96355 1.20664,1.96355 0,0 z m 253,0 c 1.20664,-1.96355 1.20664,1.96355 0,0 z m -269,-8 c 1.20664,-1.96355 1.20664,1.96355 0,0 z m 285,0 c 1.20664,-1.96355 1.20664,1.96355 0,0 z m -287,-1 c 1.20664,-1.96355 1.20664,1.96355 0,0 z m 289,0 c 1.20664,-1.96355 1.20664,1.96355 0,0 z m -296,-4 c 1.20664,-1.96355 1.20664,1.96355 0,0 z m 303,0 c 1.20664,-1.96355 1.20664,1.96355 0,0 z m -308,-3 c 1.20664,-1.96355 1.20664,1.96355 0,0 z m 313,0 c 1.20664,-1.96355 1.20664,1.96355 0,0 z m -318,-3 c 1.20664,-1.96355 1.20664,1.96355 0,0 z m 323,0 c 1.20664,-1.96355 1.20664,1.96355 0,0 z m -326,-2 c 1.20664,-1.96355 1.20664,1.96355 0,0 z m 329,0 c 1.20664,-1.96355 1.20664,1.96355 0,0 z m -332,-2 c 1.20664,-1.96355 1.20664,1.96355 0,0 z m 335,0 c 1.20664,-1.96355 1.20664,1.96355 0,0 z m -338,-2 c 1.20664,-1.96355 1.20664,1.96355 0,0 z m 341,0 c 1.20664,-1.96355 1.20664,1.96355 0,0 z m -344,-2 c 1.20664,-1.96355 1.20664,1.96355 0,0 z m 347,0 c 1.20664,-1.96355 1.20664,1.96355 0,0 z m 4,-3 c 1.20664,-1.96355 1.20664,1.96355 0,0 z m 8,-6 c 1.20664,-1.96355 1.20664,1.96355 0,0 z m -375,-3 c 1.20664,-1.96355 1.20664,1.96355 0,0 z M 492.5,542 c 2.98229,-4.16027 -0.49419,3.55991 0,0 z M 107,537.5 c 1.20664,-1.96355 1.20664,1.96355 0,0 z M 498.5,537 c 2.98229,-4.16027 -0.49419,3.55991 0,0 z M 98.404508,529.84549 c 0.529437,-2.46979 2.829312,4.54159 0,0 z M 506,530.62244 c 2.7149,-4.59546 3.50687,-0.4297 0,0 z M 78.872445,510.25 c -2.623313,-4.49097 5.79824,6.14414 0,0 z M 525,511.62244 c 2.7149,-4.59546 3.50687,-0.4297 0,0 z M 72,502.5 c 1.206644,-1.96355 1.206644,1.96355 0,0 z m 461,0 c 1.20664,-1.96355 1.20664,1.96355 0,0 z m -466,-6 c 1.206644,-1.96355 1.206644,1.96355 0,0 z m 471,0 c 1.20664,-1.96355 1.20664,1.96355 0,0 z m -235.5,-2.62597 c -67.81282,-0.7249 -132.38274,-42.34067 -163.32595,-102.2611 -12.64118,-22.7157 -22.03215,-48.58913 -20.45004,-74.95817 -8.04485,11.63979 -0.908,52.85325 -10.58016,18.50838 -11.365,-32.15452 -4.98908,-68.3293 8.38377,-98.89979 18.50181,0.53595 20.18077,-19.58031 3.35628,-9.83703 16.47098,-27.55609 33.6503,-59.18987 61.96005,-76.64542 39.00449,-23.15005 82.58077,-37.83747 126.77704,-46.91786 43.04793,-0.74551 85.03513,17.64983 116.86246,46.02792 20.35073,19.86019 42.61134,37.81823 57.94233,62.06374 11.95863,22.70279 9.55197,64.84067 23.08227,82.89999 2.9155,33.37059 -5.95311,55.4828 -13.20032,85.3541 -14.55757,33.41985 -35.3453,65.3201 -65.57805,86.52279 -39.44466,16.96039 -81.76124,29.77604 -125.22968,28.14245 z m -9.75,-4.50432 c 3.32387,-18.00858 -39.41838,-9.93423 -52.77693,-18.64331 -30.84779,-8.24977 15.93429,17.41139 29.01861,15.24943 8.08659,0.0758 16.10092,3.46904 23.75832,3.39388 z M 318,487.11658 c -13.64477,-13.89064 -15.94966,14.00802 0,0 z m 13.81847,-0.3212 c 14.48686,-1.83477 58.54267,-10.2174 52.23152,-21.08479 -15.46867,10.67208 -59.04227,12.89864 -59.24581,21.77898 l 3.9314,-0.96923 z m 12.35233,-10.80779 c 26.65929,-6.08086 52.22389,-17.09768 71.38071,-37.03739 13.63845,-15.72827 48.13066,-42.226 36.18924,-62.35074 -27.93211,-4.52373 6.34907,-41.23349 1.01334,-60.41408 4.77301,-16.68543 -4.82878,-40.5073 17.68732,-32.10767 8.20038,-9.59305 5.78106,-20.41569 9.21131,-2.13768 1.54864,14.68326 8.77457,35.35555 7.67489,7.62695 -0.14019,-29.52438 -9.65997,-58.8276 -25.31585,-83.33979 -16.59494,-27.13829 -41.5066,-49.44356 -70.04273,-64.49434 -52.48737,-26.84059 -120.08573,-26.69043 -168.76478,8.52982 -19.58389,7.25886 -17.84938,34.60655 -2.76427,19.11227 2.5101,19.7155 -24.08052,0.30391 -12.75159,18.5173 -26.75152,22.23243 -43.48553,54.39571 -51.856,87.69572 -3.68601,32.22655 -4.91701,51.70887 10.79644,81.41206 7.50988,14.81875 16.31813,35.14188 -5.7026,37.98432 6.70448,26.64041 33.27059,46.09711 56.52551,59.37395 35.63254,18.64269 77.85123,11.58736 115.58555,22.36218 3.70693,0.17629 7.55108,0.55613 11.13351,-0.73288 z M 293.5,456 c -2.03774,-4.29342 10.91538,4.68402 0,0 z M 403,420.11663 c 6.00078,-7.50364 9.51636,5.01185 0,0 z M 425.5,413 c 3.57346,-4.19922 1.52259,3.73325 0,0 z M 438,394 c 3.61658,-4.21481 3.61658,4.21481 0,0 z m -3,-10 c 3.61658,-4.21481 3.61658,4.21481 0,0 z M 370,164.5 c -11.39626,-8.37627 11.12651,2.73138 0,0 z m -9.1875,-8.18311 c 5.43071,-2.08136 -0.45122,2.29173 0,0 z m -91,-4 c 5.43071,-2.08136 -0.45122,2.29173 0,0 z m 3.52083,-2.98356 c 2.61321,-2.03619 0.59041,2.34214 0,0 z m 61.47917,-6.01644 c 5.43071,-2.08136 -0.45122,2.29173 0,0 z M 295,140 c 3.61658,-4.21481 3.61658,4.21481 0,0 z m -75,325 c -19.81467,-24.14661 -55.31102,-37.20812 -66.44046,-69.20091 -3.10016,-19.35024 -19.34039,-12.01174 -5.22554,1.58128 15.89237,27.3256 37.59441,52.68621 66.59656,68.10712 5.50172,7.18225 4.60157,2.02944 5.06944,-0.48749 z m 180.56144,-2.95199 c 13.26874,-8.23072 35.35066,-28.52278 7.19507,-12.28621 -3.70839,1.86877 -25.53291,19.70543 -7.19507,12.28621 z M 435,436 c -6.56428,-13.8089 -13.20371,9.69203 0,0 z m 16,-19.5 c -3.90516,-6.34609 -3.41271,6.1858 0,0 z m 0,-5.35534 c 27.49937,-19.03934 -20.19518,-1.23898 0,0 z M 467,390 c -2.51998,-3.75736 -3.10151,4.42525 0,0 z m 3.39301,-3.58179 c 10.72646,-19.03699 -14.88919,-2.18296 0,0 z M 135.53513,372.94316 c 2.18401,-17.58605 -6.51886,1.85011 0,0 z M 148.70844,365.25 c -0.36398,-13.33584 -12.78115,-24.17788 -6.96636,-38.76555 -21.25562,-5.62497 -2.16298,34.97189 6.96636,38.76555 z m 318.76224,-3.15762 c 7.69703,-9.36637 18.96855,-50.80903 5.46389,-46.39534 -6.27883,14.91669 -3.61938,31.57543 -5.46389,46.39534 z m -6.74151,-39.69655 c -3.30278,-1.60013 -1.80474,2.022 0,0 z M 143.75,318.23522 c -5.44302,-11.60698 -14.67247,3.29457 0,0 z M 119,306 c -3.61658,-4.21481 -3.61658,4.21481 0,0 z m -10,-10.5 c 8.83256,-22.52268 6.86917,-63.39273 -0.95279,-20.22152 C 105.3321,280.60884 106.72792,324.48057 109,295.5 Z m 36,-26 c 13.81075,-18.42486 -11.76663,-13.58742 0,0 z m 341.72917,-19.10417 c -3.30278,-1.60013 -1.80474,2.022 0,0 z M 119,242.5 c -3.81611,-8.56619 -2.5032,8.1008 0,0 z m 44.66667,-11.16667 c -2.61321,-2.03619 -0.59041,2.34214 0,0 z M 480,224 c -2.41328,-3.92709 -2.41328,3.92709 0,0 z m 6.72917,-2.60417 c -3.30278,-1.60013 -1.80474,2.022 0,0 z M 138.5,213 c 17.33665,-18.61743 -2.99249,-17.71263 -1.93743,2.55475 l 0.72808,-0.28563 z m 39.5,-1.5 c -3.90516,-6.34609 -3.41271,6.1858 0,0 z m 293,-4.03138 c -12.57036,-41.0564 -9.1703,7.01933 0,0 z M 191.75,196.36971 c 9.79497,-16.01134 -21.17337,-1.75591 0,0 z M 155,190 c 21.87304,-25.57692 49.26644,-48.31487 81.11794,-60.51823 13.11622,1.25451 31.34146,-16.34007 8.14687,-6.48177 -31.72028,12.17936 -63.04712,27.41922 -85.45585,52.68332 C 157.36344,178.00537 143.56706,192.30051 155,190 Z m 306,-2 c -19.4387,-20.0002 -38.72855,-40.6818 -62.6497,-54.52709 -30.5264,-20.0729 -69.74649,-36.08744 -105.97979,-22.66009 -11.76233,8.61068 29.19671,2.48937 38.89281,7.77573 44.15019,6.19906 87.6804,26.19006 115.42623,61.85638 3.53677,3.39989 10.27823,8.4724 14.31045,7.55507 z M 272,120 c 25.07991,-7.46071 -20.30848,-2.30604 -4.9346,0.0322 z M 63,491.5 c 1.206644,-1.96355 1.206644,1.96355 0,0 z m 479,0 c 1.20664,-1.96355 1.20664,1.96355 0,0 z m -482,-4 c 1.206644,-1.96355 1.206644,1.96355 0,0 z m 485,0 c 1.20664,-1.96355 1.20664,1.96355 0,0 z m -488,-4 c 1.206644,-1.96355 1.206644,1.96355 0,0 z m 491,0 c 1.20664,-1.96355 1.20664,1.96355 0,0 z m -493,-3 c 1.206644,-1.96355 1.206644,1.96355 0,0 z m 495,0 c 1.20664,-1.96355 1.20664,1.96355 0,0 z m 8,-12 c 1.20664,-1.96355 1.20664,1.96355 0,0 z m -513,-3 c 1.206644,-1.96355 1.206644,1.96355 0,0 z m 515,0 c 1.20664,-1.96355 1.20664,1.96355 0,0 z m -518,-5 c 1.206644,-1.96355 1.206644,1.96355 0,0 z m 521,0 c 1.20664,-1.96355 1.20664,1.96355 0,0 z m -524,-5 c 1.206644,-1.96355 1.206644,1.96355 0,0 z m 527,0 c 1.20664,-1.96355 1.20664,1.96355 0,0 z m -528,-2 c 1.206644,-1.96355 1.206644,1.96355 0,0 z m 529,0 c 1.20664,-1.96355 1.20664,1.96355 0,0 z m -542,-26 c 1.206644,-1.96355 1.206644,1.96355 0,0 z m 555,0 c 1.20664,-1.96355 1.20664,1.96355 0,0 z m -558,-7 c 1.206644,-1.96355 1.206644,1.96355 0,0 z m 561,0 c 1.20664,-1.96355 1.20664,1.96355 0,0 z m -563,-5 c 1.206644,-1.96355 1.206644,1.96355 0,0 z m 565,0 c 1.20664,-1.96355 1.20664,1.96355 0,0 z m -568,-8 c 1.206644,-1.96355 1.206644,1.96355 0,0 z m 571,0 c 1.20664,-1.96355 1.20664,1.96355 0,0 z m 1,-3 c 1.20664,-1.96355 1.20664,1.96355 0,0 z m 1,-3 c 1.20664,-1.96355 1.20664,1.96355 0,0 z m 1,-3 c 1.20664,-1.96355 1.20664,1.96355 0,0 z m -578,-3 c 1.206644,-1.96355 1.206644,1.96355 0,0 z m 579,0 c 1.20664,-1.96355 1.20664,1.96355 0,0 z m 2,-7 c 1.20664,-1.96355 1.20664,1.96355 0,0 z m -585,-7 c 1.206644,-1.96355 1.206644,1.96355 0,0 z m 587,0 c 1.20664,-1.96355 1.20664,1.96355 0,0 z m -588,-4 c 1.2066437,-1.96355 1.2066437,1.96355 0,0 z m 589,0 c 1.20664,-1.96355 1.20664,1.96355 0,0 z m -590,-4 c 1.2066437,-1.96355 1.2066437,1.96355 0,0 z m 591,0 c 1.20664,-1.96355 1.20664,1.96355 0,0 z m -592,-5 c 1.2066437,-1.96355 1.2066437,1.96355 0,0 z m 593,0 c 1.20664,-1.96355 1.20664,1.96355 0,0 z m 1,-5 c 1.20664,-1.96355 1.20664,1.96355 0,0 z m -596,-5 c 1.2066437,-1.96355 1.2066437,1.96355 0,0 z m 597,0 c 1.20664,-1.96355 1.20664,1.96355 0,0 z m -598,-6 c 1.2066437,-1.96355 1.2066437,1.96355 0,0 z m 599,0 c 1.20664,-1.96355 1.20664,1.96355 0,0 z m -600,-7 c 1.2066437,-1.96355 1.2066437,1.96355 0,0 z m 601,0 c 1.20664,-1.96355 1.20664,1.96355 0,0 z m -602,-8 c 1.2066437,-1.96355 1.2066437,1.96355 0,0 z M 604,337 c 1.0408,-2.69152 1.0408,2.69152 0,0 z M 0.07894737,326.41667 c 0.8502674,-3.76916 0.79929337,4.79845 0,0 z M 605.15789,326 c 0.86695,-4.55137 0.86695,4.55137 0,0 z m 0,-43 c 0.86695,-4.55137 0.86695,4.55137 0,0 z M 0.07894737,282.41667 c 0.8502674,-3.76916 0.79929337,4.79845 0,0 z M 604,272 c 1.0408,-2.69152 1.0408,2.69152 0,0 z M 1,271.5 c 1.2066437,-1.96355 1.2066437,1.96355 0,0 z m 502.66667,-3.16667 c -10.04999,-30.5757 7.43414,-8.54375 0,0 z M 2,263.5 c 1.2066437,-1.96355 1.2066437,1.96355 0,0 z m 601,0 c 1.20664,-1.96355 1.20664,1.96355 0,0 z m -600,-7 c 1.2066437,-1.96355 1.2066437,1.96355 0,0 z m 599,0 c 1.20664,-1.96355 1.20664,1.96355 0,0 z m -598,-6 c 1.2066437,-1.96355 1.2066437,1.96355 0,0 z m 597,0 c 1.20664,-1.96355 1.20664,1.96355 0,0 z M 497,243 c 4.84344,-11.26269 1.60554,10.35427 0,0 z m 103,2.5 c 1.20664,-1.96355 1.20664,1.96355 0,0 z m -594,-5 c 1.2066437,-1.96355 1.2066437,1.96355 0,0 z m 593,0 c 1.20664,-1.96355 1.20664,1.96355 0,0 z m -104.25,-3.48992 c -9.61001,-14.52497 -0.0396,-14.66332 0,0 z M 7,235.5 c 1.2066437,-1.96355 1.2066437,1.96355 0,0 z m 591,0 c 1.20664,-1.96355 1.20664,1.96355 0,0 z m -590,-4 c 1.2066437,-1.96355 1.2066437,1.96355 0,0 z m 589,0 c 1.20664,-1.96355 1.20664,1.96355 0,0 z m -588,-4 c 1.206644,-1.96355 1.206644,1.96355 0,0 z m 587,0 c 1.20664,-1.96355 1.20664,1.96355 0,0 z m -2,-7 c 1.20664,-1.96355 1.20664,1.96355 0,0 z m -581,-7 c 1.206644,-1.96355 1.206644,1.96355 0,0 z m 579,0 c 1.20664,-1.96355 1.20664,1.96355 0,0 z m -1,-3 c 1.20664,-1.96355 1.20664,1.96355 0,0 z m -1,-3 c 1.20664,-1.96355 1.20664,1.96355 0,0 z m -1,-3 c 1.20664,-1.96355 1.20664,1.96355 0,0 z m -572,-3 c 1.206644,-1.96355 1.206644,1.96355 0,0 z m 571,0 c 1.20664,-1.96355 1.20664,1.96355 0,0 z m -568,-8 c 1.206644,-1.96355 1.206644,1.96355 0,0 z m 565,0 c 1.20664,-1.96355 1.20664,1.96355 0,0 z m -563,-5 c 1.206644,-1.96355 1.206644,1.96355 0,0 z m 561,0 c 1.20664,-1.96355 1.20664,1.96355 0,0 z m -558,-7 c 1.206644,-1.96355 1.206644,1.96355 0,0 z m 555,0 c 1.20664,-1.96355 1.20664,1.96355 0,0 z m -542,-26 c 1.206644,-1.96355 1.206644,1.96355 0,0 z m 529,0 c 1.20664,-1.96355 1.20664,1.96355 0,0 z m -528,-2 c 1.206644,-1.96355 1.206644,1.96355 0,0 z m 527,0 c 1.20664,-1.96355 1.20664,1.96355 0,0 z m -524,-5 c 1.206644,-1.96355 1.206644,1.96355 0,0 z m 521,0 c 1.20664,-1.96355 1.20664,1.96355 0,0 z m -518,-5 c 1.206644,-1.96355 1.206644,1.96355 0,0 z m 515,0 c 1.20664,-1.96355 1.20664,1.96355 0,0 z m -2,-3 c 1.20664,-1.96355 1.20664,1.96355 0,0 z m -503,-12 c 1.206644,-1.96355 1.206644,1.96355 0,0 z m 495,0 c 1.20664,-1.96355 1.20664,1.96355 0,0 z m -493,-3 c 1.206644,-1.96355 1.206644,1.96355 0,0 z m 491,0 c 1.20664,-1.96355 1.20664,1.96355 0,0 z m -488,-4 c 1.206644,-1.96355 1.206644,1.96355 0,0 z m 485,0 c 1.20664,-1.96355 1.20664,1.96355 0,0 z m -482,-4 c 1.206644,-1.96355 1.206644,1.96355 0,0 z m 479,0 c 1.20664,-1.96355 1.20664,1.96355 0,0 z m -475,-5 c 1.206644,-1.96355 1.206644,1.96355 0,0 z m 471,0 c 1.20664,-1.96355 1.20664,1.96355 0,0 z m -466,-6 c 1.206644,-1.96355 1.206644,1.96355 0,0 z m 461,0 c 1.20664,-1.96355 1.20664,1.96355 0,0 z M 78,99.622445 c 2.714924,-4.595446 3.506858,-0.429728 0,0 z M 525.87244,98.25 c -2.6233,-4.490962 5.79824,6.14415 0,0 z m -19,-19 c -2.82188,-4.73188 6.37279,6.834548 0,0 z M 98.5,79 c 2.98231,-4.160271 -0.494198,3.559911 0,0 z m 8.5,-7.5 c 1.20664,-1.963547 1.20664,1.963547 0,0 z m 391,0 c 1.20664,-1.963547 1.20664,1.963547 0,0 z m -385,-5 c 1.20664,-1.963547 1.20664,1.963547 0,0 z m 379,0 c 1.20664,-1.963547 1.20664,1.963547 0,0 z m -33.1875,-5.183114 c 5.43071,-2.081389 -0.45127,2.291905 0,0 z M 129,54.5 c 1.20664,-1.963547 1.20664,1.963547 0,0 z m 347,0 c 1.20664,-1.963547 1.20664,1.963547 0,0 z m -344,-2 c 1.20664,-1.963547 1.20664,1.963547 0,0 z m 341,0 c 1.20664,-1.963547 1.20664,1.963547 0,0 z m -338,-2 c 1.20664,-1.963547 1.20664,1.963547 0,0 z m 335,0 c 1.20664,-1.963547 1.20664,1.963547 0,0 z m -332,-2 c 1.20664,-1.963547 1.20664,1.963547 0,0 z m 329,0 c 1.20664,-1.963547 1.20664,1.963547 0,0 z m -326,-2 c 1.20664,-1.963547 1.20664,1.963547 0,0 z m 323,0 c 1.20664,-1.963547 1.20664,1.963547 0,0 z m -318,-3 c 1.20664,-1.963547 1.20664,1.963547 0,0 z m 313,0 c 1.20664,-1.963547 1.20664,1.963547 0,0 z m -308,-3 c 1.20664,-1.963547 1.20664,1.963547 0,0 z m 303,0 c 1.20664,-1.963547 1.20664,1.963547 0,0 z m -296,-4 c 1.20664,-1.963547 1.20664,1.963547 0,0 z m 289,0 c 1.20664,-1.963547 1.20664,1.963547 0,0 z m -287,-1 c 1.20664,-1.963547 1.20664,1.963547 0,0 z m 285,0 c 1.20664,-1.963547 1.20664,1.963547 0,0 z m -269,-8 c 1.20664,-1.963547 1.20664,1.963547 0,0 z m 253,0 c 1.20664,-1.963547 1.20664,1.963547 0,0 z m -251,-1 c 1.20664,-1.963547 1.20664,1.963547 0,0 z m 249,0 c 1.20664,-1.963547 1.20664,1.963547 0,0 z m -242,-3 c 1.20664,-1.963547 1.20664,1.963547 0,0 z m 235,0 c 1.20664,-1.963547 1.20664,1.963547 0,0 z m -217,-7 c 1.20664,-1.963547 1.20664,1.963547 0,0 z m 199,0 c 1.20664,-1.963547 1.20664,1.963547 0,0 z m -196,-1 c 1.20664,-1.963547 1.20664,1.963547 0,0 z m 193,0 c 1.20664,-1.963547 1.20664,1.963547 0,0 z m -190,-1 c 1.20664,-1.963547 1.20664,1.963547 0,0 z m 187,0 c 1.20664,-1.963547 1.20664,1.963547 0,0 z m -184,-1 c 1.20664,-1.963547 1.20664,1.963547 0,0 z m 181,0 c 1.20664,-1.963547 1.20664,1.963547 0,0 z m -167,-4 c 1.20664,-1.9635472 1.20664,1.963547 0,0 z m 153,0 c 1.20664,-1.9635472 1.20664,1.963547 0,0 z m -149,-1 c 1.20664,-1.9635472 1.20664,1.963547 0,0 z m 145,0 c 1.20664,-1.9635472 1.20664,1.963547 0,0 z m -141,-1 c 1.20664,-1.9635471 1.20664,1.9635471 0,0 z m 137,0 c 1.20664,-1.9635471 1.20664,1.9635471 0,0 z m -122,-3 c 1.20664,-1.9635471 1.20664,1.9635471 0,0 z m 107,0 c 1.20664,-1.9635471 1.20664,1.9635471 0,0 z m -101,-1 c 1.20664,-1.9635471 1.20664,1.9635471 0,0 z m 95,0 c 1.20664,-1.9635471 1.20664,1.9635471 0,0 z M 261.33333,2.3333333 c 2.61321,-2.036187 0.59041,2.3421255 0,0 z m 82,0 c 2.61321,-2.036187 0.59041,2.3421255 0,0 z m -74,-1 c 2.61321,-2.036187 0.59041,2.3421255 0,0 z m 66,0 c 2.61321,-2.036187 0.59041,2.3421255 0,0 z M 280.8125,0.31688596 c 5.4307,-2.08139396 -0.45125,2.29189644 0,0 z m 43,0 c 5.4307,-2.08139396 -0.45125,2.29189644 0,0 z"
         id="path1801" />
      <path
         style="fill:#a6a198"
         d="m 283,608.5 c 1.20664,-1.96355 1.20664,1.96355 0,0 z m 39,0 c 1.20664,-1.96355 1.20664,1.96355 0,0 z m -51,-1 c 1.20664,-1.96355 1.20664,1.96355 0,0 z m 63,0 c 1.20664,-1.96355 1.20664,1.96355 0,0 z m -90,-4 c 1.20664,-1.96355 1.20664,1.96355 0,0 z m 117,0 c 1.20664,-1.96355 1.20664,1.96355 0,0 z m -122,-1 c 1.20664,-1.96355 1.20664,1.96355 0,0 z m 127,0 c 1.20664,-1.96355 1.20664,1.96355 0,0 z m -147,-5 c 1.20664,-1.96355 1.20664,1.96355 0,0 z m 167,0 c 1.20664,-1.96355 1.20664,1.96355 0,0 z m -170,-1 c 1.20664,-1.96355 1.20664,1.96355 0,0 z m 173,0 c 1.20664,-1.96355 1.20664,1.96355 0,0 z m -191,-6 c 1.20664,-1.96355 1.20664,1.96355 0,0 z m 209,0 c 1.20664,-1.96355 1.20664,1.96355 0,0 z m -212,-1 c 1.20664,-1.96355 1.20664,1.96355 0,0 z m 215,0 c 1.20664,-1.96355 1.20664,1.96355 0,0 z m -220,-2 c 1.20664,-1.96355 1.20664,1.96355 0,0 z m 225,0 c 1.20664,-1.96355 1.20664,1.96355 0,0 z m -232,-3 c 1.20664,-1.96355 1.20664,1.96355 0,0 z m 239,0 c 1.20664,-1.96355 1.20664,1.96355 0,0 z m -248,-4 c 1.20664,-1.96355 1.20664,1.96355 0,0 z m 257,0 c 1.20664,-1.96355 1.20664,1.96355 0,0 z m -259,-1 c 1.20664,-1.96355 1.20664,1.96355 0,0 z m 261,0 c 1.20664,-1.96355 1.20664,1.96355 0,0 z m -263,-1 c 1.20664,-1.96355 1.20664,1.96355 0,0 z m 265,0 c 1.20664,-1.96355 1.20664,1.96355 0,0 z m -267,-1 c 1.20664,-1.96355 1.20664,1.96355 0,0 z m 269,0 c 1.20664,-1.96355 1.20664,1.96355 0,0 z m -271,-1 c 1.20664,-1.96355 1.20664,1.96355 0,0 z m 273,0 c 1.20664,-1.96355 1.20664,1.96355 0,0 z m -275,-1 c 1.20664,-1.96355 1.20664,1.96355 0,0 z m 277,0 c 1.20664,-1.96355 1.20664,1.96355 0,0 z m -279,-1 c 1.20664,-1.96355 1.20664,1.96355 0,0 z m 281,0 c 1.20664,-1.96355 1.20664,1.96355 0,0 z m -290,-5 c 1.20664,-1.96355 1.20664,1.96355 0,0 z m 299,0 c 1.20664,-1.96355 1.20664,1.96355 0,0 z m -327,-18 c 1.20664,-1.96355 1.20664,1.96355 0,0 z m -4,-3 c 1.20664,-1.96355 1.20664,1.96355 0,0 z m 363,0 c 1.20664,-1.96355 1.20664,1.96355 0,0 z m -367,-3 c 1.20664,-1.96355 1.20664,1.96355 0,0 z m -5,-4 c 1.20664,-1.96355 1.20664,1.96355 0,0 z m -6.59549,-5.65451 c 0.52942,-2.46979 2.82932,4.5416 0,0 z M 500,535.5 c 1.20664,-1.96355 1.20664,1.96355 0,0 z M 94.924314,526.25 c -7.630559,-8.47285 9.602156,9.00474 0,0 z M 510.5,526 c 7.64475,-7.71054 -4.78135,6.94769 0,0 z M 82.404988,513.75 c -5.375945,-6.13371 7.6223,6.83568 0,0 z M 522.5,514 c 7.64475,-7.71054 -4.78135,6.94769 0,0 z m 9,-10 c 2.98229,-4.16027 -0.49419,3.55991 0,0 z M 73,503.5 c 1.206644,-1.96355 1.206644,1.96355 0,0 z m 171.75,-5.18933 c -20.63439,-6.09255 11.62731,-2.10506 0,0 z M 68,497.5 c 1.206644,-1.96355 1.206644,1.96355 0,0 z m 469,0 c 1.20664,-1.96355 1.20664,1.96355 0,0 z M 294.08273,496 c -20.70594,-0.37498 -63.11753,-14.33942 -65.68011,-19.3619 43.18078,21.23715 94.22209,20.95351 140.02411,9.92639 18.89676,-6.24167 49.76993,-15.6275 61.25485,-20.63064 -25.18628,21.82961 -57.21402,23.87069 -88.58415,28.38966 -15.57806,1.98292 -31.33509,2.51509 -47.0147,1.67649 z M 64,492.5 c 1.206644,-1.96355 1.206644,1.96355 0,0 z m 477,0 c 1.20664,-1.96355 1.20664,1.96355 0,0 z m -310.1875,-1.18311 c 5.43071,-2.08136 -0.45122,2.29173 0,0 z M 380,491 c 2.41328,-3.92709 2.41328,3.92709 0,0 z m -159.1875,-2.68311 c 5.43071,-2.08136 -0.45122,2.29173 0,0 z M 544,488.5 c 1.20664,-1.96355 1.20664,1.96355 0,0 z M 214,485 c 3.61658,-4.21481 3.61658,4.21481 0,0 z m -3,-3 c 2.41328,-3.92709 2.41328,3.92709 0,0 z M 53,477.5 c 1.206644,-1.96355 1.206644,1.96355 0,0 z m 499,0 c 1.20664,-1.96355 1.20664,1.96355 0,0 z m -228.28103,-1.46262 c -37.73478,-12.21901 -81.76405,-2.42874 -115.6059,-27.07029 -12.67047,-6.2984 -30.87735,-25.36982 -7.55044,-7.87463 13.31711,19.35382 62.68502,22.37647 32.58093,-0.71532 -7.07769,27.75319 -8.74028,-21.50538 -25.73642,-4.02487 -12.61161,-5.57603 -32.27816,-35.46944 -40.06442,-29.64097 8.65836,11.31131 18.90951,24.40467 1.5576,7.20208 -14.25239,-14.38682 -6.97589,-20.11265 5.30482,-26.47747 2.36334,-12.872 -3.69103,-25.56037 5.25036,-6.55409 24.914,52.19778 86.93769,76.32316 142.19389,70.25615 31.43625,-2.62442 59.19928,-7.72778 76.00365,-30.6127 19.84064,-13.23895 41.81629,-52.00194 45.75488,-62.43572 -14.60789,19.94545 27.56416,19.08437 7.70808,35.66045 -3.10914,-3.18615 -8.41229,25.89742 -22.8089,32.48742 -13.85105,17.81991 -49.75952,43.11596 -61.5993,41.7633 12.07008,-2.48242 49.83256,-24.84848 35.7078,-28.97745 -15.158,7.29067 -22.2467,8.0324 -34.96508,7.88381 -1.4687,19.68669 -26.37229,-5.42375 -17.80766,14.25958 -11.51449,0.3641 -38.38265,12.9858 -10.41905,12.17425 28.66317,-3.99199 2.38293,5.77154 -11.04655,3.23588 z M 252,459 c -2.41328,-3.92709 -2.41328,3.92709 0,0 z m 46,-3 c -6.0974,-4.43225 -5.30093,3.4162 0,0 z m 117,-24.60699 c -4.64055,-8.22356 -1.76025,9.41297 0,0 z M 213,428 c -2.24905,-12.05124 -2.72029,9.63307 0,0 z m 196,-8.5 c -5.70701,-5.23884 -7.71015,6.83074 0,0 z m 19,-6.5 c -2.51998,-3.75736 -3.10151,4.42525 0,0 z m 10,-4.5 c -2.39363,-14.29568 -2.87733,12.06233 0,0 z m 3,-14.5 c -3.61658,-4.21481 -3.61658,4.21481 0,0 z m -3,-10 c -3.61658,-4.21481 -3.61658,4.21481 0,0 z m -240,91 c 2.41328,-3.92709 2.41328,3.92709 0,0 z m 356,-0.5 c 1.20664,-1.96355 1.20664,1.96355 0,0 z m -340.75,-3.99087 c -15.03004,-7.91475 -27.30502,-18.93514 -4.71753,-5.21479 -0.60226,-0.63451 15.00762,9.28243 4.71753,5.21479 z M 47,468.5 c 1.206644,-1.96355 1.206644,1.96355 0,0 z m 388.8125,-8.18311 c 5.43071,-2.08136 -0.45122,2.29173 0,0 z M 564,458.5 c 1.20664,-1.96355 1.20664,1.96355 0,0 z m -125.1875,-1.18311 c 5.43071,-2.08136 -0.45122,2.29173 0,0 z m -252.69772,-4.86561 c -7.09369,-9.20075 13.08956,9.68181 0,0 z M 441,454.00757 c 5.07678,-9.60909 10.77213,-1.92389 0,0 z M 37,451.5 c 1.206644,-1.96355 1.206644,1.96355 0,0 z m 531,0 c 1.20664,-1.96355 1.20664,1.96355 0,0 z M 181,447 c 3.61658,-4.21481 3.61658,4.21481 0,0 z m 267.8125,0.31689 c 5.43071,-2.08136 -0.45122,2.29173 0,0 z m -272.95754,-4.79961 c -18.62576,-15.99609 14.16141,7.0043 0,0 z M 452.25,444.31067 c 8.26324,-13.14936 3.98175,1.88708 0,0 z m -238.69423,-4.22043 c -0.71693,-9.30517 6.83391,3.19415 0,0 z M 458,437 c 3.61658,-4.21481 3.61658,4.21481 0,0 z m 3,-4 c 6.71959,-9.06189 7.37316,0.87135 0,0 z m 116,0.5 c 1.20664,-1.96355 1.20664,1.96355 0,0 z m -412,-1.35398 c -10.38598,-8.21912 -10.4065,-19.39789 0,0 z M 26,429.5 c 1.206644,-1.96355 1.206644,1.96355 0,0 z m 553,0 c 1.20664,-1.96355 1.20664,1.96355 0,0 z M 181,427 c 3.61658,-4.21481 3.61658,4.21481 0,0 z m 286,0.0254 c 3.24369,-4.89304 4.93935,-0.82581 0,0 z M 23,422.5 c 1.206644,-1.96355 1.206644,1.96355 0,0 z m 559,0 c 1.20664,-1.96355 1.20664,1.96355 0,0 z M 471,420 c 3.61658,-4.21481 3.61658,4.21481 0,0 z m -319.41591,-4.40345 c -10.22493,-9.6643 -32.2249,-56.75688 -11.01303,-21.79379 -0.52351,1.01896 21.04774,29.65009 11.01303,21.79379 z M 584,417.5 c 1.20664,-1.96355 1.20664,1.96355 0,0 z m -110,-5 c 8.32601,-14.255 12.56971,-7.00535 0,0 z m -455,0 c 1.206644,-1.96355 1.206644,1.96355 0,0 z m 567,0 c 1.20664,-1.96355 1.20664,1.96355 0,0 z m -453.39626,-7.09024 c -1.21142,-9.59166 5.76331,4.95011 0,0 z M 16,404.5 c 1.206644,-1.96355 1.206644,1.96355 0,0 z m -1,-3 c 1.206644,-1.96355 1.206644,1.96355 0,0 z m 114,-4 c 3.14335,-15.32 2.54594,14.14588 0,0 z m -115,1 c 1.206644,-1.96355 1.206644,1.96355 0,0 z M 484,398 c 3.61658,-4.21481 3.61658,4.21481 0,0 z m 3,-6.5 c 3.90516,-6.34609 3.41271,6.1858 0,0 z m 106,0 c 1.20664,-1.96355 1.20664,1.96355 0,0 z m -470,-3.95031 c -2.50872,-16.17318 -18.80065,-40.24162 -14.53017,-51.55133 11.70046,34.84242 1.65384,-8.08877 9.64834,-19.90008 -1.96434,24.95856 14.3127,51.53043 5.77673,73.60567 z M 125,368 c -2.41328,-3.92709 -2.41328,3.92709 0,0 z M 11,388.5 c 1.206644,-1.96355 1.206644,1.96355 0,0 z m 479.116,-2.78138 c 3.86358,-16.208 10.23729,-10.17558 0,0 z M 595,384.5 c 1.20664,-1.96355 1.20664,1.96355 0,0 z M 497,366 c 4.84344,-11.26269 1.60554,10.35427 0,0 z m -329,-3 c 4.84344,-11.26269 1.60554,10.35427 0,0 z M 5,363.5 c 1.2066437,-1.96355 1.2066437,1.96355 0,0 z m 595,-1 c 1.20664,-1.96355 1.20664,1.96355 0,0 z m -100,-6 c -11.34261,-12.21628 18.47335,-14.99164 0,0 z m -335,-2 c 3.81611,-8.56619 2.5032,8.1008 0,0 z m 437,-3 c 1.20664,-1.96355 1.20664,1.96355 0,0 z m -438,-2.41667 c -10.80752,-21.98562 0.76601,-12.51999 0.53281,1.89234 z M 445,344 c 3.5977,-13.13796 2.23579,12.40421 0,0 z m 158,0.5 c 1.20664,-1.96355 1.20664,1.96355 0,0 z m -602,-8 c 1.2066437,-1.96355 1.2066437,1.96355 0,0 z m 447,-6 c 2.39363,-14.29568 2.87733,12.06233 0,0 z m -345,-3 c 3.81611,-8.56619 2.5032,8.1008 0,0 z m 403.32814,-4 c 0.96585,-11.49771 0.47677,13.60457 0,0 z M 155,326 c -3.94423,-19.74215 0.0314,-63.63464 10.40343,-74.51778 C 156.66925,274.74171 158.20987,311.5788 155,326 Z M 0,324.5 c 1.2066437,-1.96355 1.2066437,1.96355 0,0 z m 451.07895,-27.75 c 1.47407,-33.81217 -9.75016,-65.84431 -34.02546,-90.69832 -39.27665,-48.18665 -110.57841,-64.95062 -167.56694,-40.61269 -26.70711,9.12496 -48.68182,29.54153 -65.05028,51.8802 -1.81348,12.01941 -19.58396,26.78747 -7.51609,5.58741 9.58887,-14.86454 33.0872,-37.24519 33.07982,-43.4066 11.70105,7.25306 13.57894,-25.74051 3.21034,-3.87105 -18.48009,-20.09631 33.00937,-37.49751 48.95983,-45.42875 C 310.88189,114.61466 366.8857,123.1251 409,152.07303 370.26794,131.61827 325.7898,117.95256 281.87554,128.31275 c -11.90906,0.45292 -58.71783,15.91717 -44.0147,23.24658 43.68543,-17.44057 96.10903,-19.38642 139.52286,0.4483 24.45149,17.56811 53.94759,34.52538 66.29856,63.1109 11.31129,7.66346 16.25682,38.56786 24.83715,37.1584 -3.58773,-13.10914 -21.93951,-51.3109 -1.51713,-20.81453 3.5723,8.49812 16.39664,48.30371 11.35995,18.2379 -5.23484,-30.95161 15.85137,35.30737 8.59612,49.19858 -2.88521,23.98762 -11.36047,-54.9987 -13.25523,-16.48222 -9.06586,7.6111 -24.83368,-9.19981 -18.76538,14.75265 -0.79744,17.88337 -4.54574,31.50491 -3.85879,-0.41931 z M 373,163.5 c -8.60064,-11.45316 -3.52797,7.64138 0,0 z m -10.27083,-7.10417 c -3.30278,-1.60013 -1.80474,2.022 0,0 z m -91,-4 c -3.30278,-1.60013 -1.80474,2.022 0,0 z m 2.9375,-3.0625 c -2.61321,-2.03619 -0.59041,2.34214 0,0 z m 62.0625,-5.9375 c -3.30278,-1.60013 -1.80474,2.022 0,0 z M 298,140 c -3.61658,-4.21481 -3.61658,4.21481 0,0 z m 209,160.5 c 1.99123,-28.24346 1.82414,26.79956 0,0 z M 116,306 c 3.61658,-4.21481 3.61658,4.21481 0,0 z m 482,-24 c 3.5977,-13.13796 2.23579,12.40421 0,0 z M 0,284.5 c 1.2066437,-1.96355 1.2066437,1.96355 0,0 z m 506.34281,-8 c 0.91781,-13.24782 0.48973,15.39395 0,0 z M 12,268.5 C 10.832539,251.28741 22.190678,241.52081 15.897053,264.31904 15.609935,271.92954 11.912607,286.47609 12,268.5 Z m 91,5.5 c 3.55104,-7.63375 3.36055,7.48846 0,0 z M 1,272.5 c 1.2066437,-1.96355 1.2066437,1.96355 0,0 z m 141,-8 c 7.67251,-32.21232 6.64027,23.12869 0,0 z m 461,0.5 c 1.0408,-2.69152 1.0408,2.69152 0,0 z m -8.16111,-7.84538 c -6.79711,-13.72401 0.97917,-24.1823 2.75887,-4.46943 2.41923,3.99587 -2.84194,19.84934 -2.75887,4.46943 z m -91.3546,1.77387 c -1.33226,-12.25182 5.46117,11.13477 0,0 z M 106,259 c 3.55104,-7.63375 3.36055,7.48846 0,0 z m 496,-1.5 c 1.20664,-1.96355 1.20664,1.96355 0,0 z m -492.80505,-5 c 0.55603,-5.62718 0.86682,6.34493 0,0 z M 500,248.5 c 3.90516,-6.34609 3.41271,6.1858 0,0 z m -390,-0.80968 c 3.3983,-7.94499 3.1038,4.31927 0,0 z M 600,246.5 c 1.20664,-1.96355 1.20664,1.96355 0,0 z m -595,-1 c 1.2066437,-1.96355 1.2066437,1.96355 0,0 z M 168,242 c 4.84344,-11.26269 1.60554,10.35427 0,0 z m -55,-3 c 3.61658,-4.21481 3.61658,4.21481 0,0 z m 384,0 c 3.61658,-4.21481 3.61658,4.21481 0,0 z m -381,-7.5 c 3.90516,-6.34609 3.41271,6.1858 0,0 z m 378.61905,-0.0238 c -8.01824,-11.10602 6.76618,3.36003 0,0 z M 588,231.5 c 3.90516,-6.34609 3.41271,6.1858 0,0 z m 9,1 c 1.20664,-1.96355 1.20664,1.96355 0,0 z m -434.66667,-1.16667 c 2.61321,-2.03619 0.59041,2.34214 0,0 z M 471,228.07143 c -15.66301,-22.92413 -0.0401,-15.66005 2.25245,1.77353 z m 19.60699,-3.65322 c -1.46035,-6.89183 5.37327,5.55304 0,0 z M 595,224.5 c 1.20664,-1.96355 1.20664,1.96355 0,0 z m -476,-1.45996 c 2.64786,-11.24507 7.31252,-2.00523 0,0 z M 11,220.5 c 1.206644,-1.96355 1.206644,1.96355 0,0 z M 487,218 c 3.61658,-4.21481 3.61658,4.21481 0,0 z m 106,-0.5 c 1.20664,-1.96355 1.20664,1.96355 0,0 z m -470,-2.80968 c 3.3983,-7.94499 3.1038,4.31927 0,0 z M 484,212.5 c 3.90516,-6.34609 3.41271,6.1858 0,0 z m -309,-1 c 3.90516,-6.34609 3.41271,6.1858 0,0 z m 273.8125,-0.18311 c 5.43071,-2.08136 -0.45122,2.29173 0,0 z M 14,210.5 c 1.206644,-1.96355 1.206644,1.96355 0,0 z m 112,-1 c 6.78221,-8.4206 37.8545,-53.20991 19.50608,-21.69383 -8.09604,4.84916 -9.75387,20.766 -19.50608,21.69383 z m 355.75,-1.47878 c -14.86418,-15.10685 4.50016,-4.1413 0,0 z M 15,207.5 c 1.206644,-1.96355 1.206644,1.96355 0,0 z m 443,-3.7556 c -24.82851,-27.02452 13.51555,3.53666 0,0 z M 16,204.5 c 1.206644,-1.96355 1.206644,1.96355 0,0 z m 571,-5 c 1.20664,-1.96355 1.20664,1.96355 0,0 z m -568,-3 c 1.206644,-1.96355 1.206644,1.96355 0,0 z m 167.25,-1.96073 c -4.21348,-17.92622 18.17966,7.72427 0,0 z M 586,196.5 c 1.20664,-1.96355 1.20664,1.96355 0,0 z m -115,-2.96482 c -7.34709,-8.29554 -34.89926,-33.14282 -10.74358,-13.52205 1.06587,2.59061 18.54279,11.42057 10.74358,13.52205 z M 584,191.5 c 1.20664,-1.96355 1.20664,1.96355 0,0 z m -561,-5 c 1.206644,-1.96355 1.206644,1.96355 0,0 z m 420.75,-1.58333 c -16.67099,-15.21579 2.77581,-5.90652 2.83858,1.92284 l -1.42261,-0.96367 z M 582,186.5 c 1.20664,-1.96355 1.20664,1.96355 0,0 z m -556,-7 c 1.206644,-1.96355 1.206644,1.96355 0,0 z m 553,0 c 1.20664,-1.96355 1.20664,1.96355 0,0 z m -2,-4 c 1.20664,-1.96355 1.20664,1.96355 0,0 z M 432,172 c -18.67388,-11.56171 3.46126,-3.94943 0,0 z m -277,-3 c 18.88186,-21.67629 45.789,-34.13333 72.59291,-42.70485 C 202.16613,137.60244 174.27042,153.02619 155,169 Z m 290,-1 c -17.28745,-12.9457 12.02849,2.76081 0,0 z m -28.91836,-8.51243 c -16.7577,-12.46132 16.58877,7.06397 0,0 z M 438,159.5 c -21.35002,-20.47642 -53.06941,-40.19815 -76.03423,-49.16696 30.01623,9.11609 55.93635,27.76702 77.98458,49.03499 l 0.13148,0.97976 z m -401,-2 c 1.206644,-1.96355 1.206644,1.96355 0,0 z m 531,0 c 1.20664,-1.96355 1.20664,1.96355 0,0 z m -4,-7 c 1.20664,-1.96355 1.20664,1.96355 0,0 z m -517,-10 c 1.206644,-1.96355 1.206644,1.96355 0,0 z m 509,-3 c 1.20664,-1.96355 1.20664,1.96355 0,0 z m -2,-3 c 1.20664,-1.96355 1.20664,1.96355 0,0 z m -480,-3 c 14.294252,-24.46653 4.933782,8.87731 0,0 z m -21,0 c 1.206644,-1.96355 1.206644,1.96355 0,0 z m 499,0 c 1.20664,-1.96355 1.20664,1.96355 0,0 z M 233,124.12996 C 254.89939,113.5906 303.07865,98.460116 311.50777,102.65479 284.52175,104.92382 257.41879,118.44217 233,124.12996 Z M 530,124 c 2.41328,-3.92709 2.41328,3.92709 0,0 z m 17,0.5 c 1.20664,-1.96355 1.20664,1.96355 0,0 z M 83,120 c 3.616584,-4.21481 3.616584,4.21481 0,0 z m 443.5,0 c 3.57346,-4.19922 1.52259,3.73325 0,0 z m 17.5,0.5 c 1.20664,-1.96355 1.20664,1.96355 0,0 z M 86.786692,115 C 105.2438,90.66753 130.78784,70.849361 158.46308,58.372418 137.49773,73.297173 116.75028,87.98528 98.790686,106.80823 95.853976,107.5858 87.454641,123.98253 86.786692,115 Z M 64,116.5 c 1.206644,-1.96355 1.206644,1.96355 0,0 z m 477,0 c 1.20664,-1.96355 1.20664,1.96355 0,0 z m -23.4055,-4 C 497.68552,90.702195 473.99739,72.415763 448.29927,57.918153 437.10379,50.423607 389.88989,31.190565 400.08131,32.849017 c 44.02837,12.424365 84.01881,38.714999 114.77895,72.166753 0.67229,1.33784 11.06216,15.01985 2.73424,7.48423 z M 68,111.5 c 1.206644,-1.96355 1.206644,1.96355 0,0 z m 469,0 c 1.20664,-1.96355 1.20664,1.96355 0,0 z M 348.5,108 c -4.75146,-3.52248 15.3641,4.46653 0,0 z M 73,105.5 c 1.206644,-1.96355 1.206644,1.96355 0,0 z m 260.1119,-0.58099 c -8.91844,-5.699089 19.84295,4.3796 0,0 z M 532,105.5 c 1.20664,-1.96355 1.20664,1.96355 0,0 z M 82.5,95 c 7.644734,-7.710533 -4.78134,6.94769 0,0 z m 439.90499,-0.25 c -1.6553,-11.713621 5.70943,8.48345 0,0 z M 95,82.5 c 9.63035,-9.44991 -6.727111,8.681591 0,0 z m 415.40499,0.25 c -1.6553,-11.713621 5.70943,8.483446 0,0 z M 105.5,73 c 2.98229,-4.160265 -0.49419,3.559911 0,0 z m 393.90451,-0.154508 c 0.52942,-2.469796 2.82933,4.541597 0,0 z M 112,67.5 c 1.20664,-1.963547 1.20664,1.963547 0,0 z m 381,0 c 1.20664,-1.963547 1.20664,1.963547 0,0 z m -376,-4 c 1.20664,-1.963547 1.20664,1.963547 0,0 z m 371,0 c 1.20664,-1.963547 1.20664,1.963547 0,0 z m -367,-3 c 1.20664,-1.963547 1.20664,1.963547 0,0 z m 363,0 c 1.20664,-1.963547 1.20664,1.963547 0,0 z m -359,-3 c 1.20664,-1.963547 1.20664,1.963547 0,0 z m 355,0 c 1.20664,-1.963547 1.20664,1.963547 0,0 z M 171.8125,51.316886 c 5.43071,-2.081389 -0.45127,2.291905 0,0 z m 3.52083,-2.983553 c 2.61321,-2.036187 0.59041,2.342126 0,0 z m 6.47917,-3.016447 c 5.43071,-2.081389 -0.45127,2.291905 0,0 z M 191,42 c 3.61658,-4.214817 3.61658,4.214817 0,0 z m -38,-2.5 c 1.20664,-1.963547 1.20664,1.963547 0,0 z M 197.5,39 c 2.49294,-4.244932 3.88886,3.888691 0,0 z M 452,39.5 c 1.20664,-1.963547 1.20664,1.963547 0,0 z m -290,-5 c 1.20664,-1.963547 1.20664,1.963547 0,0 z m 281,0 c 1.20664,-1.963547 1.20664,1.963547 0,0 z m -279,-1 c 1.20664,-1.963547 1.20664,1.963547 0,0 z m 277,0 c 1.20664,-1.963547 1.20664,1.963547 0,0 z m -275,-1 c 1.20664,-1.963547 1.20664,1.963547 0,0 z m 273,0 c 1.20664,-1.963547 1.20664,1.963547 0,0 z m -271,-1 c 1.20664,-1.963547 1.20664,1.963547 0,0 z m 269,0 c 1.20664,-1.963547 1.20664,1.963547 0,0 z m -267,-1 c 1.20664,-1.963547 1.20664,1.963547 0,0 z m 213.25,-0.223396 c -9.05791,-9.176118 19.73366,4.408579 0,0 z M 435,30.5 c 1.20664,-1.963547 1.20664,1.963547 0,0 z m -263,-1 c 1.20664,-1.963547 1.20664,1.963547 0,0 z m 261,0 c 1.20664,-1.963547 1.20664,1.963547 0,0 z m -259,-1 c 1.20664,-1.963547 1.20664,1.963547 0,0 z m 257,0 c 1.20664,-1.963547 1.20664,1.963547 0,0 z m -61.54112,-2.566531 c 6.898,-5.749121 10.63939,6.594077 0,0 z M 240.8125,25.316886 c 5.43071,-2.081389 -0.45127,2.291905 0,0 z M 183,24.5 c 1.20664,-1.963547 1.20664,1.963547 0,0 z m 239,0 c 1.20664,-1.963547 1.20664,1.963547 0,0 z m -71.49675,-1.240065 c -13.04222,-1.783369 -30.62116,-6.34898 -6.98974,-4.87334 12.83232,1.911678 30.97669,6.839864 6.98974,4.87334 z M 260.25,22.310674 c 7.05625,-2.472582 2.12061,1.962052 0,0 z M 190,21.5 c 1.20664,-1.963547 1.20664,1.963547 0,0 z m 225,0 c 1.20664,-1.963547 1.20664,1.963547 0,0 z m -220,-2 c 1.20664,-1.963547 1.20664,1.963547 0,0 z M 277.5,19 c 12.01025,-4.197385 7.59669,3.774184 0,0 z m 14.5,0 c 7.26036,-4.417498 7.26036,4.417498 0,0 z m 23,0 c 3.61658,-4.214817 3.61658,4.214817 0,0 z m 95,0.5 c 1.20664,-1.963547 1.20664,1.963547 0,0 z m -212,-1 c 1.20664,-1.963547 1.20664,1.963547 0,0 z m 209,0 c 1.20664,-1.963547 1.20664,1.963547 0,0 z m -191,-6 c 1.20664,-1.963547 1.20664,1.963547 0,0 z m 173,0 c 1.20664,-1.963547 1.20664,1.963547 0,0 z m -170,-1 c 1.20664,-1.9635472 1.20664,1.963547 0,0 z m 167,0 c 1.20664,-1.9635472 1.20664,1.963547 0,0 z m -147,-5 c 1.20664,-1.9635471 1.20664,1.9635471 0,0 z m 127,0 c 1.20664,-1.9635471 1.20664,1.9635471 0,0 z m -122,-1 c 1.20664,-1.9635471 1.20664,1.9635471 0,0 z m 117,0 c 1.20664,-1.9635471 1.20664,1.9635471 0,0 z m -90,-4 c 1.20664,-1.96354706 1.20664,1.9635471 0,0 z m 63,0 c 1.20664,-1.96354706 1.20664,1.9635471 0,0 z m -51,-1 c 1.20664,-1.9635471 1.20664,1.9635471 0,0 z m 39,0 c 1.20664,-1.9635471 1.20664,1.9635471 0,0 z"
         id="path1799" />
      <path
         style="fill:#8a857a"
         d="m 284.75,608.33772 c 4.81595,-2.48211 1.65398,2.06928 0,0 z m 34,0 c 4.81595,-2.48211 1.65398,2.06928 0,0 z m -46.41667,-1.00439 c 2.61321,-2.03619 0.59041,2.34214 0,0 z m 60,0 c 2.61321,-2.03619 0.59041,2.34214 0,0 z m -69,-1 c 2.61321,-2.03619 0.59041,2.34214 0,0 z m 78,0 c 2.61321,-2.03619 0.59041,2.34214 0,0 z m -85,-1 c 2.61321,-2.03619 0.59041,2.34214 0,0 z m 92,0 c 2.61321,-2.03619 0.59041,2.34214 0,0 z M 250,604.5 c 1.20664,-1.96355 1.20664,1.96355 0,0 z m 105,0 c 1.20664,-1.96355 1.20664,1.96355 0,0 z m -110,-1 c 1.20664,-1.96355 1.20664,1.96355 0,0 z m 115,0 c 1.20664,-1.96355 1.20664,1.96355 0,0 z m -120,-1 c 1.20664,-1.96355 1.20664,1.96355 0,0 z m 125,0 c 1.20664,-1.96355 1.20664,1.96355 0,0 z m -130,-1 c 1.20664,-1.96355 1.20664,1.96355 0,0 z m 135,0 c 1.20664,-1.96355 1.20664,1.96355 0,0 z m -139,-1 c 1.20664,-1.96355 1.20664,1.96355 0,0 z m 143,0 c 1.20664,-1.96355 1.20664,1.96355 0,0 z m -147,-1 c 1.20664,-1.96355 1.20664,1.96355 0,0 z m 151,0 c 1.20664,-1.96355 1.20664,1.96355 0,0 z m -155,-1 c 1.20664,-1.96355 1.20664,1.96355 0,0 z m 159,0 c 1.20664,-1.96355 1.20664,1.96355 0,0 z m -162,-1 c 1.20664,-1.96355 1.20664,1.96355 0,0 z m 165,0 c 1.20664,-1.96355 1.20664,1.96355 0,0 z m -172,-2 c 1.20664,-1.96355 1.20664,1.96355 0,0 z m 179,0 c 1.20664,-1.96355 1.20664,1.96355 0,0 z m -182,-1 c 1.20664,-1.96355 1.20664,1.96355 0,0 z m 185,0 c 1.20664,-1.96355 1.20664,1.96355 0,0 z m -188,-1 c 1.20664,-1.96355 1.20664,1.96355 0,0 z m 191,0 c 1.20664,-1.96355 1.20664,1.96355 0,0 z m -194,-1 c 1.20664,-1.96355 1.20664,1.96355 0,0 z m 197,0 c 1.20664,-1.96355 1.20664,1.96355 0,0 z m -200,-1 c 1.20664,-1.96355 1.20664,1.96355 0,0 z m 203,0 c 1.20664,-1.96355 1.20664,1.96355 0,0 z m -211,-3 c 1.20664,-1.96355 1.20664,1.96355 0,0 z m 219,0 c 1.20664,-1.96355 1.20664,1.96355 0,0 z m -224,-2 c 1.20664,-1.96355 1.20664,1.96355 0,0 z m 229,0 c 1.20664,-1.96355 1.20664,1.96355 0,0 z m -236,-3 c 1.20664,-1.96355 1.20664,1.96355 0,0 z m 243,0 c 1.20664,-1.96355 1.20664,1.96355 0,0 z m -269,-13 c 1.20664,-1.96355 1.20664,1.96355 0,0 z m 295,0 c 1.20664,-1.96355 1.20664,1.96355 0,0 z m -302,-4 c 1.20664,-1.96355 1.20664,1.96355 0,0 z m 309,0 c 1.20664,-1.96355 1.20664,1.96355 0,0 z m -314,-3 c 1.20664,-1.96355 1.20664,1.96355 0,0 z m 319,0 c 1.20664,-1.96355 1.20664,1.96355 0,0 z m -322,-2 c 1.20664,-1.96355 1.20664,1.96355 0,0 z m 325,0 c 1.20664,-1.96355 1.20664,1.96355 0,0 z m -328,-2 c 1.20664,-1.96355 1.20664,1.96355 0,0 z m 331,0 c 1.20664,-1.96355 1.20664,1.96355 0,0 z m -334,-2 c 1.20664,-1.96355 1.20664,1.96355 0,0 z m 337,0 c 1.20664,-1.96355 1.20664,1.96355 0,0 z m -340,-2 c 1.20664,-1.96355 1.20664,1.96355 0,0 z m 343,0 c 1.20664,-1.96355 1.20664,1.96355 0,0 z m -346,-2 c 1.20664,-1.96355 1.20664,1.96355 0,0 z m 349,0 c 1.20664,-1.96355 1.20664,1.96355 0,0 z m -353,-3 c 1.20664,-1.96355 1.20664,1.96355 0,0 z m 357,0 c 1.20664,-1.96355 1.20664,1.96355 0,0 z m -361,-3 c 1.20664,-1.96355 1.20664,1.96355 0,0 z m 365,0 c 1.20664,-1.96355 1.20664,1.96355 0,0 z m -369,-3 c 1.20664,-1.96355 1.20664,1.96355 0,0 z m 373,0 c 1.20664,-1.96355 1.20664,1.96355 0,0 z m -378,-4 c 1.20664,-1.96355 1.20664,1.96355 0,0 z m 383,0 c 1.20664,-1.96355 1.20664,1.96355 0,0 z m 21,-19 c 1.20664,-1.96355 1.20664,1.96355 0,0 z m -232.1875,-1.18311 c 5.43071,-2.08136 -0.45122,2.29173 0,0 z m 13.4375,-0.006 c 7.05624,-2.47262 2.12062,1.96208 0,0 z M 518,518.5 c 1.20664,-1.96355 1.20664,1.96355 0,0 z m -249.25,-1.2234 c 13.53447,-2.33145 4.28862,1.7524 0,0 z M 85,516.5 c 1.206644,-1.96355 1.206644,1.96355 0,0 z m 435,0 c 1.20664,-1.96355 1.20664,1.96355 0,0 z m -265.75,-2.18933 c 7.05624,-2.47262 2.12062,1.96208 0,0 z m 103.5625,0.006 c 5.43071,-2.08136 -0.45122,2.29173 0,0 z M 284.25,508.30373 c -44.81096,-5.39897 -87.52667,-24.60994 -119.50461,-56.78243 -29.32763,-27.94425 -50.66232,-64.67061 -57.06924,-104.94377 9.0386,12.22113 14.44189,57.96535 19.51558,26.71934 11.03848,26.53235 28.38062,51.08713 50.16598,70.44854 48.96054,47.88858 123.05392,62.63526 188.39492,46.06404 18.87314,3.07484 42.18057,-10.29947 53.16928,-15.07772 -39.13303,26.68017 -87.94424,36.27172 -134.67191,33.572 z M 301.8,504.8 c 16.36421,2.93742 68.58314,-10.61161 26.83263,-6.57108 C 275.03792,501.11043 218.6414,485.97717 179.46862,448 c -9.3968,-4.13189 -32.68447,-31.84643 -15.63601,-6.06613 33.37775,38.91552 85.66488,56.80742 134.74247,63.19999 l 1.63618,0.82335 z M 249,498.07946 c -12.21473,-8.87848 -13.29224,0.76434 0,0 z m -16.27083,-6.68363 c -3.30278,-1.60013 -1.80474,2.022 0,0 z M 382,491 c -2.41328,-3.92709 -2.41328,3.92709 0,0 z m -159.27083,-2.60417 c -3.30278,-1.60013 -1.80474,2.022 0,0 z M 217,485 c -3.61658,-4.21481 -3.61658,4.21481 0,0 z m -4,-3 c -2.41328,-3.92709 -2.41328,3.92709 0,0 z m -13,-7 c -2.41328,-3.92709 -2.41328,3.92709 0,0 z m -65,-70.5 c -3.54127,-8.40555 -1.59587,8.174 0,0 z m -3,-7 c -3.14335,-15.32 -2.54594,14.14588 0,0 z m 245.33333,109.83333 c 2.61321,-2.03619 0.59041,2.34214 0,0 z M 221.5,505 c -2.03774,-4.29342 10.91538,4.68402 0,0 z M 74,504.5 c 1.206644,-1.96355 1.206644,1.96355 0,0 z m -5,-6 c 1.206644,-1.96355 1.206644,1.96355 0,0 z M 211,498 c 2.41328,-3.92709 2.41328,3.92709 0,0 z m 325,0.5 c 1.20664,-1.96355 1.20664,1.96355 0,0 z m -471,-5 c 1.206644,-1.96355 1.206644,1.96355 0,0 z m 475,0 c 1.20664,-1.96355 1.20664,1.96355 0,0 z M 197,492 c 3.61658,-4.21481 3.61658,4.21481 0,0 z m 215.5,0 c 1.52258,-3.73325 3.57347,4.19923 0,0 z M 61,488.5 c 1.206644,-1.96355 1.206644,1.96355 0,0 z m 355.33333,-0.16667 c 2.61321,-2.03619 0.59041,2.34214 0,0 z M 184.5,485 c 2.57352,-4.00653 4.44736,4.4243 0,0 z M 58,484.5 c 1.206644,-1.96355 1.206644,1.96355 0,0 z m 489,0 c 1.20664,-1.96355 1.20664,1.96355 0,0 z m -366,-3 c 3.90516,-6.34609 3.41271,6.1858 0,0 z m 245,0.5 c 5.18297,-4.74377 4.48768,3.68405 0,0 z M 56,481.5 c 1.206644,-1.96355 1.206644,1.96355 0,0 z m 493,0 c 1.20664,-1.96355 1.20664,1.96355 0,0 z m -116.1875,-3.18311 c 5.43071,-2.08136 -0.45122,2.29173 0,0 z m 3,-3 c 5.43071,-2.08136 -0.45122,2.29173 0,0 z M 51,474.5 c 1.206644,-1.96355 1.206644,1.96355 0,0 z m 283.5,-1.15174 c -23.90066,-5.90498 24.77748,-9.77026 13.39813,-20.10729 10.53686,-1.40504 16.66567,6.68828 20.58241,-7.01222 16.70742,8.69468 24.91646,-12.8222 39.95923,-6.39492 -16.23374,22.05716 -47.04301,33.69485 -73.93977,33.51443 z M 360,468.5 c 16.41282,-1.7056 49.66362,-28.88324 17.24218,-12.57413 C 369.87049,457.16842 328.45467,473.22372 360,468.5 Z m -311,3 c 1.206644,-1.96355 1.206644,1.96355 0,0 z m 507,0 c 1.20664,-1.96355 1.20664,1.96355 0,0 z m -132.25,-1.21912 c 9.25682,-8.19 14.71524,-5.08119 0,0 z M 445,467 c 7.71916,-11.63247 5.05857,5.73521 0,0 z M 46,466.5 c 1.206644,-1.96355 1.206644,1.96355 0,0 z M 162,466 c 2.41328,-3.92709 2.41328,3.92709 0,0 z m 397,0.5 c 1.20664,-1.96355 1.20664,1.96355 0,0 z m -515,-3 c 1.206644,-1.96355 1.206644,1.96355 0,0 z m 517,0 c 1.20664,-1.96355 1.20664,1.96355 0,0 z M 435,462 c 3.61658,-4.21481 3.61658,4.21481 0,0 z m 16,0 c 3.61658,-4.21481 3.61658,4.21481 0,0 z m -215,-2.92054 c -28.60329,-8.23628 -54.10832,-28.26649 -68.87015,-54.04371 17.92798,10.01129 35.26297,31.99046 55.45141,31.79068 -0.38666,18.63698 9.50527,9.47655 13.78338,3.31051 0.74683,6.58074 17.45187,25.04199 -0.36464,18.94252 z m -19.18045,-20.25113 c -4.52308,-8.83632 -2.75019,8.02033 0,0 z M 201.5,436 c -9.77629,-3.70312 3.46965,3.76443 0,0 z m -11.83333,-6.66667 c -2.61321,-2.03619 -0.59041,2.34214 0,0 z M 187.5,426 c -3.57346,-4.19922 -1.52259,3.73325 0,0 z m 62.5,33 c 2.41328,-3.92709 2.41328,3.92709 0,0 z m 188,0 c 3.61658,-4.21481 3.61658,4.21481 0,0 z M 41,458.5 c 1.206644,-1.96355 1.206644,1.96355 0,0 z m 400,-1.96303 c 4.15953,-7.82206 11.8854,-6.10455 0,0 z M 149,453 c 2.41328,-3.92709 2.41328,3.92709 0,0 z m 312,-0.5 c 3.90516,-6.34609 3.41271,6.1858 0,0 z M 287.89784,451.06685 C 261.36011,450.40999 238.04733,437.2796 215.88905,424.67542 165.58138,383.05823 140.84109,307.00197 168.91748,245.9042 c 11.93489,-29.54066 33.77143,-53.03194 59.5955,-70.86716 51.42324,-29.84738 121.30892,-27.82984 167.61655,10.86814 24.68008,19.44848 43.20054,44.86654 52.39443,74.79047 5.60286,38.48125 3.14315,78.88723 -13.20489,114.66449 -18.42459,26.06952 -40.226,55.78233 -69.31663,67.40918 -25.34939,8.71855 -51.52193,10.85863 -78.1046,8.29753 z m 52.67265,-6.5508 c 50.3756,-13.0829 93.81012,-54.16982 103.79033,-106.01205 10.05425,-46.03907 2.09942,-99.21324 -33.1242,-133.01061 -20.49594,-24.7018 -49.96546,-41.33306 -82.04,-45.18355 -37.54987,-7.49092 -76.50257,3.83445 -108.756,23.13079 -20.52771,21.37858 -43.13092,42.54212 -52.20338,72.09711 -13.58358,37.96208 -10.85038,82.14523 11.49296,116.24916 13.40624,37.1364 49.99069,58.54448 84.8791,71.77513 24.62109,5.4444 51.29862,5.53068 75.96119,0.95402 z M 36,449.5 c 1.206644,-1.96355 1.206644,1.96355 0,0 z M 145,449 c 3.61658,-4.21481 3.61658,4.21481 0,0 z m 303,0 c 3.61658,-4.21481 3.61658,4.21481 0,0 z m 17,0 c 2.41328,-3.92709 2.41328,3.92709 0,0 z m 104,0.5 c 1.20664,-1.96355 1.20664,1.96355 0,0 z m -534,-2 c 1.206644,-1.96355 1.206644,1.96355 0,0 z m 535,0 c 1.20664,-1.96355 1.20664,1.96355 0,0 z M 142,446 c 3.61658,-4.21481 3.61658,4.21481 0,0 z m 309,0.11663 c 4.09877,-7.98617 11.80985,-2.67826 0,0 z M 571,445.5 c 1.20664,-1.96355 1.20664,1.96355 0,0 z m 2,-4 c 1.20664,-1.96355 1.20664,1.96355 0,0 z M 458,439 c 3.61658,-4.21481 3.61658,4.21481 0,0 z m 116,0.5 c 1.20664,-1.96355 1.20664,1.96355 0,0 z M 461,435 c 7.23796,-11.30067 17.90363,-12.1835 0,0 z m -49,-3.03138 c 3.75477,-11.92618 2.97808,9.87664 0,0 z M 28,433.5 c 1.206644,-1.96355 1.206644,1.96355 0,0 z m -1,-2 c 1.206644,-1.96355 1.206644,1.96355 0,0 z m 551,0 c 1.20664,-1.96355 1.20664,1.96355 0,0 z m -367.36971,-2.75 c -1.58891,-13.34272 5.90072,8.39105 0,0 z M 24,424.5 c 1.206644,-1.96355 1.206644,1.96355 0,0 z m 557,0 c 1.20664,-1.96355 1.20664,1.96355 0,0 z m -110,-2 c 3.90516,-6.34609 3.41271,6.1858 0,0 z m 112,-3 c 1.20664,-1.96355 1.20664,1.96355 0,0 z m -562,-2 c 1.206644,-1.96355 1.206644,1.96355 0,0 z M 474,415 c 3.61658,-4.21481 3.61658,4.21481 0,0 z m 3,-3.04117 c 5.90372,-14.33466 9.82051,-4.67138 0,0 z M 435,408.5 c 2.39363,-14.29568 2.87733,12.06233 0,0 z m -417,1 c 1.206644,-1.96355 1.206644,1.96355 0,0 z m 569,0 c 1.20664,-1.96355 1.20664,1.96355 0,0 z m -570,-3 c 1.206644,-1.96355 1.206644,1.96355 0,0 z m 571,0 c 1.20664,-1.96355 1.20664,1.96355 0,0 z m 1,-3 c 1.20664,-1.96355 1.20664,1.96355 0,0 z m -105,-3 c 3.90516,-6.34609 3.41271,6.1858 0,0 z m 106,0 c 1.20664,-1.96355 1.20664,1.96355 0,0 z M 445,393 c 5.16825,-12.32795 6.15257,13.34416 0,0 z m 42,1.5 c 3.90516,-6.34609 3.41271,6.1858 0,0 z m -474,0 c 1.206644,-1.96355 1.206644,1.96355 0,0 z m 579,0 c 1.20664,-1.96355 1.20664,1.96355 0,0 z m -580,-3 c 1.206644,-1.96355 1.206644,1.96355 0,0 z m 478.41062,-2.99989 c 5.46153,-16.96442 9.55478,-7.69408 0,0 z M 594,387.5 c 1.20664,-1.96355 1.20664,1.96355 0,0 z m -584,-3 c 1.206644,-1.96355 1.206644,1.96355 0,0 z m -1,-4 c 1.206644,-1.96355 1.206644,1.96355 0,0 z m 587,0 c 1.20664,-1.96355 1.20664,1.96355 0,0 z m -588,-4 c 1.2066437,-1.96355 1.2066437,1.96355 0,0 z m 589,0 c 1.20664,-1.96355 1.20664,1.96355 0,0 z m -590,-4 c 1.2066437,-1.96355 1.2066437,1.96355 0,0 z M 497,371 c 3.55104,-7.63375 3.36055,7.48846 0,0 z m 101,1.5 c 1.20664,-1.96355 1.20664,1.96355 0,0 z M 123,368 c 2.41328,-3.92709 2.41328,3.92709 0,0 z M 6,367.5 c 1.2066437,-1.96355 1.2066437,1.96355 0,0 z m 593,0 c 1.20664,-1.96355 1.20664,1.96355 0,0 z m -99,-6 c 2.39363,-14.29568 2.87733,12.06233 0,0 z m -495,1 c 1.2066437,-1.96355 1.2066437,1.96355 0,0 z M 4,357 c 1.0407924,-2.69151 1.0407924,2.69151 0,0 z m 597,0 c 1.0408,-2.69152 1.0408,2.69152 0,0 z m -97.884,-2.66821 c -0.60779,-19.21659 5.69327,5.253 0,0 z M 3,351 c 1.0407924,-2.69151 1.0407924,2.69151 0,0 z m 599,-0.5 c 1.20664,-1.96355 1.20664,1.96355 0,0 z M 2,344 c 1.0407924,-2.69151 1.0407924,2.69151 0,0 z m 504.33621,-7 c 0.71609,-13.34659 0.71609,13.34659 0,0 z M 603,343 c 1.0408,-2.69152 1.0408,2.69152 0,0 z m -500,-8.5 c 3.14335,-15.32 2.54594,14.14588 0,0 z M 1,335 c 1.0407924,-2.69151 1.0407924,2.69151 0,0 z m 603,0 c 1.0408,-2.69152 1.0408,2.69152 0,0 z m -97,-16.5 c 2.91736,-13.86874 0.55126,-54.59726 3.09346,-19.13246 C 510.45987,302.81822 509.5012,340.44458 507,318.5 Z M 0.15789474,322 c 0.86694016,-4.55137 0.86694016,4.55137 0,0 z M 605.15789,322 c 0.86695,-4.55137 0.86695,4.55137 0,0 z M 102,314.5 c -4.557151,-14.91458 3.65673,-29.99403 0.83744,-6.05215 0.0981,2.28953 -0.21956,18.22027 -0.83744,6.05215 z M 8.7240586,294.89349 c 0.2807781,-27.83184 4.3585394,-56.58476 15.4848294,-81.92686 4.608081,20.01987 -8.722897,51.93178 -8.971484,76.69666 2.100869,5.82862 -6.1716439,18.37815 -6.5133454,5.2302 z M 15,270 c 4.087766,-13.30455 1.29747,-31.67943 -3.098375,-8.21556 C 9.9840823,267.66441 14.980553,287.89624 15,270 Z m 582.83734,23.44995 c -3.63385,-26.22637 -11.0821,-52.24211 -15.21711,-77.92406 11.98266,-8.4119 19.22232,48.56477 9.76901,21.6967 -2.97782,8.62663 5.40974,36.87773 7.68978,14.467 -1.86517,18.95652 5.45346,38.06178 -1.60188,46.748 l -0.63977,-4.98764 z M 591,231.5 c -3.90516,-6.34609 -3.41271,6.1858 0,0 z M 0.15789474,287 c 0.86694016,-4.55137 0.86694016,4.55137 0,0 z M 605.15789,287 c 0.86695,-4.55137 0.86695,4.55137 0,0 z M 1,274 c 1.0407924,-2.69151 1.0407924,2.69151 0,0 z m 603,0 c 1.0408,-2.69152 1.0408,2.69152 0,0 z m -501,-5.5 c 2.39363,-14.29568 2.87733,12.06233 0,0 z M 506.232,266 c 0.80059,-6.28663 0.80059,6.28663 0,0 z M 603,267 c 1.0408,-2.69152 1.0408,2.69152 0,0 z M 2,265 c 1.0407924,-2.69151 1.0407924,2.69151 0,0 z m 475.60699,-1.58179 c -0.76736,-11.00877 -16.85207,-51.09658 -20.9903,-40.87209 6.84289,8.06551 18.64328,48.12525 2.88331,20.45388 -12.11693,-30.99138 -33.82411,-57.59528 -61.67937,-76.89544 -37.30509,-31.97379 -90.54583,-31.8142 -136.14415,-22.72894 -11.61668,5.08083 -43.48511,15.54767 -18.15775,-2.8954 73.56609,-35.79723 170.00945,-6.9664 213.55645,61.83979 9.47857,15.30495 28.05069,49.07333 20.53181,61.0982 z m -26.87782,-52.02238 c -3.30278,-1.60013 -1.80474,2.022 0,0 z m 0,-10 c -3.30278,-1.60013 -1.80474,2.022 0,0 z M 448,197.5 c -3.81611,-8.56619 -2.5032,8.1008 0,0 z m -3,-4.77776 C 421.09094,155.91475 377.36518,134.49761 334.4294,129.22447 307.00309,125.70191 278.27279,128.34753 253,140.07946 300.07326,135.54004 353.08781,127.42879 393.91944,157.60849 410.1873,169.5766 428.44628,187.28243 445,192.72224 Z M 3,258 c 1.0407924,-2.69151 1.0407924,2.69151 0,0 z m 599,0.5 c 1.20664,-1.96355 1.20664,1.96355 0,0 z m -98.36971,-2.75 c -3.10753,-13.08516 5.8467,7.50313 0,0 z M 106,254.5 c 3.81611,-8.56619 2.5032,8.1008 0,0 z M 4,252 c 1.0407924,-2.69151 1.0407924,2.69151 0,0 z m 105.64414,-5.45029 c 1.28619,-14.55664 5.74515,0.50345 0,0 z M 600,247.5 c 1.20664,-1.96355 1.20664,1.96355 0,0 z m -595,-1 c 1.2066437,-1.96355 1.2066437,1.96355 0,0 z M 500,245 c 3.55104,-7.63375 3.36055,7.48846 0,0 z M 6,241.5 c 1.2066437,-1.96355 1.2066437,1.96355 0,0 z m 593,0 c 1.20664,-1.96355 1.20664,1.96355 0,0 z m -486,-5 c 3.90516,-6.34609 3.41271,6.1858 0,0 z m 384,0 c 3.90516,-6.34609 3.41271,6.1858 0,0 z m -490,0 c 1.2066437,-1.96355 1.2066437,1.96355 0,0 z m 591,0 c 1.20664,-1.96355 1.20664,1.96355 0,0 z m -1,-3 c 1.20664,-1.96355 1.20664,1.96355 0,0 z m -589,-1 c 1.2066437,-1.96355 1.2066437,1.96355 0,0 z m 487.32928,-2.27533 c -9.52361,-11.17369 5.89832,0.30335 0,0 z M 116,228.5 c 3.90516,-6.34609 3.41271,6.1858 0,0 z m -107,0 c 1.206644,-1.96355 1.206644,1.96355 0,0 z m 587,0 c 1.20664,-1.96355 1.20664,1.96355 0,0 z m -586,-4 c 1.206644,-1.96355 1.206644,1.96355 0,0 z m 480.66667,-2.16667 3.90365,1.50228 z M 119,220.64286 c 3.14947,-13.06509 12.95263,-15.86869 0,0 z M 594,221.5 c 1.20664,-1.96355 1.20664,1.96355 0,0 z m -582,-4 c 1.206644,-1.96355 1.206644,1.96355 0,0 z m 475,-2 c 3.90516,-6.34609 3.41271,6.1858 0,0 z m -474,-1 c 1.206644,-1.96355 1.206644,1.96355 0,0 z m 579,0 c 1.20664,-1.96355 1.20664,1.96355 0,0 z M 484,210 c 3.61658,-4.21481 3.61658,4.21481 0,0 z m 106,-1.5 c 1.20664,-1.96355 1.20664,1.96355 0,0 z M 126,207 c 3.61658,-4.21481 3.61658,4.21481 0,0 z m 355.70536,-1.4375 c -10.28713,-10.4919 -7.37226,-18.53903 0,0 z M 589,205.5 c 1.20664,-1.96355 1.20664,1.96355 0,0 z m -460,-3 c 3.90516,-6.34609 3.41271,6.1858 0,0 z m -112,0 c 1.206644,-1.96355 1.206644,1.96355 0,0 z m 571,0 c 1.20664,-1.96355 1.20664,1.96355 0,0 z m -570,-3 c 1.206644,-1.96355 1.206644,1.96355 0,0 z m 114,-0.80914 c 6.06978,-15.28909 12.2757,-7.31993 0,0 z M 572,195 c 3.61658,-4.21481 3.61658,4.21481 0,0 z M 21,191.5 c 1.206644,-1.96355 1.206644,1.96355 0,0 z m 450,-1.5784 c -23.12961,-19.6488 -41.30303,-44.38352 -67.51785,-60.32417 -11.8224,-7.87976 -44.35674,-21.72199 -13.13293,-9.4211 29.55916,14.13045 52.77276,37.28996 75.63536,60.27406 0.81117,0.35848 13.48968,13.98773 5.01542,9.47121 z M 583,189.5 c 1.20664,-1.96355 1.20664,1.96355 0,0 z m -441,-5 c 5.00101,-11.738 17.97168,-13.11871 0,0 z m -118,0 c 1.206644,-1.96355 1.206644,1.96355 0,0 z m 557,0 c 1.20664,-1.96355 1.20664,1.96355 0,0 z M 44.393011,181.41821 c 6.781956,-24.15473 14.800907,-7.16104 0,0 z M 27,177.5 c 1.206644,-1.96355 1.206644,1.96355 0,0 z m 551,0 c 1.20664,-1.96355 1.20664,1.96355 0,0 z m -550,-2 c 1.206644,-1.96355 1.206644,1.96355 0,0 z m 548,-2 c 1.20664,-1.96355 1.20664,1.96355 0,0 z M 152,171 c 3.61658,-4.21481 3.61658,4.21481 0,0 z m 407,0 C 543.51163,146.36772 528.10918,122.3172 505.54834,103.39833 434.35692,33.585196 325.50581,5.0047128 229.31595,32.506224 187.45503,44.495939 146.51429,64.413296 115.62148,95.298131 95.907752,107.7783 131.06431,74.490271 140.89827,71.552444 154.352,63.17129 166.30503,52.703105 144.25839,65.174093 126.1251,77.17172 92.389828,98.340208 90.538756,115.31784 c 15.738034,-17.123933 13.941124,-8.33721 -0.337917,3.2746 -11.111095,14.20613 -5.37209,-0.99896 -15.304305,11.44918 12.137691,6.04478 -31.507253,43.1807 -10.384335,9.95368 18.4639,-24.76783 37.453431,-49.675601 63.529521,-67.019604 59.82209,-41.209588 132.71235,-61.096487 204.919,-61.050593 47.68115,5.020197 93.33513,24.341195 133.57106,49.731684 -9.29067,-1.689137 -48.48028,-28.680348 -69.77419,-29.162575 32.67182,15.810604 66.64286,30.314159 94.05662,54.744357 24.23534,15.978131 44.62203,33.415001 58.96912,61.667721 C 550.14609,153.99645 568.52327,168.16962 559,171 Z m -27,-47 c -2.41328,-3.92709 -2.41328,3.92709 0,0 z M 86,120 c -3.616584,-4.21481 -3.616584,4.21481 0,0 z m 436.5,-6 c -7.71421,-9.12086 -17.95847,-8.53141 0,0 z M 173.72917,51.395833 c -3.30272,-1.60019 -1.80482,2.021935 0,0 z m 2.9375,-3.0625 c -2.61321,-2.036187 -0.59041,2.342126 0,0 z m 7.0625,-2.9375 c -3.30272,-1.60019 -1.80482,2.021935 0,0 z M 194,42 c -3.61658,-4.214817 -3.61658,4.214817 0,0 z m 6.5,-3 c -2.49294,-4.244932 -3.88886,3.888691 0,0 z M 392,29.5 c -11.48139,-8.778187 -18.91331,5.544707 0,0 z m -13,-3.364076 c -10.01996,-6.750321 -15.33744,3.995922 0,0 z M 242.72917,25.395833 c -3.30272,-1.60019 -1.80482,2.021935 0,0 z m 123.68659,-2.259529 c -14.8842,-6.001479 -53.88804,-5.1389 -17.36425,-0.518238 5.65046,1.329979 11.65952,2.08558 17.36425,0.518238 z M 263.75,22.310674 c -7.05625,-2.472582 -2.12061,1.962052 0,0 z M 285.5,19 c -3.55749,-4.57356 -13.0789,2.950369 -4.09756,1.035989 z m 12.5,0 c -7.26036,-4.417498 -7.26036,4.417498 0,0 z m 20,0 c -3.61658,-4.214817 -3.61658,4.214817 0,0 z m 256,150.5 c 1.20664,-1.96355 1.20664,1.96355 0,0 z m -1,-2 c 1.20664,-1.96355 1.20664,1.96355 0,0 z M 155,166 c 10.93933,-11.06329 16.7694,-7.43487 0,0 z M 54,162.5 c 3.905152,-6.34609 3.412709,6.1858 0,0 z m 517,1 c 1.20664,-1.96355 1.20664,1.96355 0,0 z m -536,-2 c 1.206644,-1.96355 1.206644,1.96355 0,0 z m 535,0 c 1.20664,-1.96355 1.20664,1.96355 0,0 z m -534,-2 c 1.206644,-1.96355 1.206644,1.96355 0,0 z m 533,0 c 1.20664,-1.96355 1.20664,1.96355 0,0 z m -399.75,-5.18933 c 27.25345,-27.13242 67.34362,-31.68367 100.99638,-47.23607 11.12433,-7.705803 64.0242,-7.05383 28.6012,-4.67521 -35.79157,7.29813 -69.16581,23.34519 -103.09739,36.46654 -9.41629,3.17767 -19.39882,13.41268 -26.50019,15.44474 z M 41,150.5 c 1.206644,-1.96355 1.206644,1.96355 0,0 z m 3,-5 c 1.206644,-1.96355 1.206644,1.96355 0,0 z m 517,0 c 1.20664,-1.96355 1.20664,1.96355 0,0 z m -515,-3 c 1.206644,-1.96355 1.206644,1.96355 0,0 z m 513,0 c 1.20664,-1.96355 1.20664,1.96355 0,0 z m -510,-5 c 1.206644,-1.96355 1.206644,1.96355 0,0 z m 2,-3 c 1.206644,-1.96355 1.206644,1.96355 0,0 z m 5,-7 c 1.206644,-1.96355 1.206644,1.96355 0,0 z m 493,0 c 1.20664,-1.96355 1.20664,1.96355 0,0 z m -491,-3 c 1.206644,-1.96355 1.206644,1.96355 0,0 z m 3,-4 c 1.206644,-1.96355 1.206644,1.96355 0,0 z m 302.40881,-9.49119 c -12.21284,-2.47048 -35.39967,-10.5457 -9.51537,-4.3285 1.65934,-0.46447 20.09902,6.35715 9.51537,4.3285 z M 69,110.5 c 1.206644,-1.96355 1.206644,1.96355 0,0 z m 467,0 c 1.20664,-1.96355 1.20664,1.96355 0,0 z m -462,-6 c 1.206644,-1.96355 1.206644,1.96355 0,0 z m 457,0 c 1.20664,-1.96355 1.20664,1.96355 0,0 z m -207.2723,-2.22173 c 7.71851,-1.22751 8.85338,1.63524 0,0 z m 184.46086,-4.317225 c -5.28376,-8.820023 -48.93882,-38.786296 -17.93832,-18.93316 2.91199,1.325111 30.43785,26.407145 17.93832,18.93316 z M 85,92.5 c 1.206643,-1.963547 1.206643,1.963547 0,0 z m 435,0 c 1.20664,-1.963547 1.20664,1.963547 0,0 z m -2,-2 c 1.20664,-1.963547 1.20664,1.963547 0,0 z m -3,-3 c 1.20664,-1.963547 1.20664,1.963547 0,0 z m -404,-19 c 1.20664,-1.963547 1.20664,1.963547 0,0 z m 383,0 c 1.20664,-1.963547 1.20664,1.963547 0,0 z m -378,-4 c 1.20664,-1.963547 1.20664,1.963547 0,0 z m 373,0 c 1.20664,-1.963547 1.20664,1.963547 0,0 z m -369,-3 c 1.20664,-1.963547 1.20664,1.963547 0,0 z m 365,0 c 1.20664,-1.963547 1.20664,1.963547 0,0 z m -361,-3 c 1.20664,-1.963547 1.20664,1.963547 0,0 z m 357,0 c 1.20664,-1.963547 1.20664,1.963547 0,0 z m -353,-3 c 1.20664,-1.963547 1.20664,1.963547 0,0 z m 349,0 c 1.20664,-1.963547 1.20664,1.963547 0,0 z m -346,-2 c 1.20664,-1.963547 1.20664,1.963547 0,0 z m 343,0 c 1.20664,-1.963547 1.20664,1.963547 0,0 z m -340,-2 c 1.20664,-1.963547 1.20664,1.963547 0,0 z m 337,0 c 1.20664,-1.963547 1.20664,1.963547 0,0 z m -334,-2 c 1.20664,-1.963547 1.20664,1.963547 0,0 z m 331,0 c 1.20664,-1.963547 1.20664,1.963547 0,0 z m -328,-2 c 1.20664,-1.963547 1.20664,1.963547 0,0 z m 325,0 c 1.20664,-1.963547 1.20664,1.963547 0,0 z m -322,-2 c 1.20664,-1.963547 1.20664,1.963547 0,0 z m 319,0 c 1.20664,-1.963547 1.20664,1.963547 0,0 z m -314,-3 c 1.20664,-1.963547 1.20664,1.963547 0,0 z m 309,0 c 1.20664,-1.963547 1.20664,1.963547 0,0 z m -302,-4 c 1.20664,-1.963547 1.20664,1.963547 0,0 z m 295,0 c 1.20664,-1.963547 1.20664,1.963547 0,0 z m -269,-13 c 1.20664,-1.963547 1.20664,1.963547 0,0 z m 243,0 c 1.20664,-1.963547 1.20664,1.963547 0,0 z m -236,-3 c 1.20664,-1.963547 1.20664,1.963547 0,0 z m 229,0 c 1.20664,-1.963547 1.20664,1.963547 0,0 z m -224,-2 c 1.20664,-1.963547 1.20664,1.963547 0,0 z m 219,0 c 1.20664,-1.963547 1.20664,1.963547 0,0 z m -211,-3 c 1.20664,-1.963547 1.20664,1.963547 0,0 z m 203,0 c 1.20664,-1.963547 1.20664,1.963547 0,0 z m -200,-1 c 1.20664,-1.963547 1.20664,1.963547 0,0 z m 197,0 c 1.20664,-1.963547 1.20664,1.963547 0,0 z m -194,-1 c 1.20664,-1.963547 1.20664,1.963547 0,0 z m 191,0 c 1.20664,-1.963547 1.20664,1.963547 0,0 z m -188,-1 c 1.20664,-1.963547 1.20664,1.963547 0,0 z m 185,0 c 1.20664,-1.963547 1.20664,1.963547 0,0 z m -182,-1 c 1.20664,-1.963547 1.20664,1.963547 0,0 z m 179,0 c 1.20664,-1.963547 1.20664,1.963547 0,0 z m -172,-2 c 1.20664,-1.9635472 1.20664,1.963547 0,0 z m 165,0 c 1.20664,-1.9635472 1.20664,1.963547 0,0 z m -162,-1 c 1.20664,-1.9635472 1.20664,1.963547 0,0 z m 159,0 c 1.20664,-1.9635472 1.20664,1.963547 0,0 z m -155,-1 c 1.20664,-1.9635472 1.20664,1.963547 0,0 z m 151,0 c 1.20664,-1.9635472 1.20664,1.963547 0,0 z m -147,-1 c 1.20664,-1.9635472 1.20664,1.963547 0,0 z m 143,0 c 1.20664,-1.9635472 1.20664,1.963547 0,0 z m -139,-1 c 1.20664,-1.9635471 1.20664,1.9635471 0,0 z m 135,0 c 1.20664,-1.9635471 1.20664,1.9635471 0,0 z m -130,-1 c 1.20664,-1.9635471 1.20664,1.9635471 0,0 z m 125,0 c 1.20664,-1.9635471 1.20664,1.9635471 0,0 z m -120,-1 c 1.20664,-1.9635471 1.20664,1.9635471 0,0 z m 115,0 c 1.20664,-1.9635471 1.20664,1.9635471 0,0 z m -110,-1 c 1.20664,-1.9635471 1.20664,1.9635471 0,0 z m 105,0 c 1.20664,-1.9635471 1.20664,1.9635471 0,0 z M 256.33333,3.3333333 c 2.61321,-2.036187 0.59041,2.3421255 0,0 z m 92,0 c 2.61321,-2.036187 0.59041,2.3421255 0,0 z m -85,-1 c 2.61321,-2.036187 0.59041,2.3421255 0,0 z m 78,0 c 2.61321,-2.036187 0.59041,2.3421255 0,0 z m -69,-1 c 2.61321,-2.036187 0.59041,2.3421255 0,0 z m 60,0 c 2.61321,-2.036187 0.59041,2.3421255 0,0 z M 284.75,0.3377193 c 4.81596,-2.4820943 1.65398,2.0692723 0,0 z m 34,0 c 4.81596,-2.4820943 1.65398,2.0692723 0,0 z"
         id="path1797" />
      <path
         style="fill:#4b4b4a"
         d="m 289.25,608.31067 c 7.05624,-2.47262 2.12062,1.96208 0,0 z m 24,0 c 7.05624,-2.47262 2.12062,1.96208 0,0 z m -38.4375,-0.99378 c 5.43071,-2.08136 -0.45122,2.29173 0,0 z m 55,0 c 5.43071,-2.08136 -0.45122,2.29173 0,0 z m -64.47917,-0.98356 c 2.61321,-2.03619 0.59041,2.34214 0,0 z m 74,0 c 2.61321,-2.03619 0.59041,2.34214 0,0 z M 258,605.5 c 1.20664,-1.96355 1.20664,1.96355 0,0 z m 89,0 c 1.20664,-1.96355 1.20664,1.96355 0,0 z m -95.66667,-1.16667 c 2.61321,-2.03619 0.59041,2.34214 0,0 z m 102,0 c 2.61321,-2.03619 0.59041,2.34214 0,0 z M 246,603.5 c 1.20664,-1.96355 1.20664,1.96355 0,0 z m 113,0 c 1.20664,-1.96355 1.20664,1.96355 0,0 z m -118,-1 c 1.20664,-1.96355 1.20664,1.96355 0,0 z m 83.5,-0.5 c 10.14884,-3.32229 14.69184,3.6331 0,0 z m 39.5,0.5 c 1.20664,-1.96355 1.20664,1.96355 0,0 z m -128,-1 c 1.20664,-1.96355 1.20664,1.96355 0,0 z m 133,0 c 1.20664,-1.96355 1.20664,1.96355 0,0 z m -137,-1 c 1.20664,-1.96355 1.20664,1.96355 0,0 z m 141,0 c 1.20664,-1.96355 1.20664,1.96355 0,0 z m -145,-1 c 1.20664,-1.96355 1.20664,1.96355 0,0 z m 149,0 c 1.20664,-1.96355 1.20664,1.96355 0,0 z m -153,-1 c 1.20664,-1.96355 1.20664,1.96355 0,0 z m 36.25,-0.18933 c 7.05624,-2.47262 2.12062,1.96208 0,0 z m 92.4777,-0.0324 c 7.71851,-1.22751 8.85338,1.63524 0,0 z M 381,598.5 c 1.20664,-1.96355 1.20664,1.96355 0,0 z m -164,-2 c 1.20664,-1.96355 1.20664,1.96355 0,0 z m 24.75,-0.18933 c -6.08502,-6.43096 12.33404,3.44659 0,0 z M 388,596.5 c 1.20664,-1.96355 1.20664,1.96355 0,0 z m -174,-1 c 1.20664,-1.96355 1.20664,1.96355 0,0 z m 88.5,-0.57965 c -37.45585,0.79721 -73.58717,-9.72189 -108.01241,-23.4612 -29.93278,-7.46142 59.28428,25.13984 12.31874,15.93519 -21.69516,-8.98031 -46.31218,-17.40196 -61.97182,-35.08359 27.33484,3.66227 -19.17828,-18.88876 -26.34841,-29.0159 C 113.37593,505.27278 72.431783,509.69058 85.681761,494.05149 67.54055,497.07182 61.860957,471.33779 49.302106,459.5424 17.493557,409.58036 2.6605739,349.40402 5.4862676,290.28657 6.3849858,248.98599 17.648339,207.63311 36.5,171 c 6.787601,3.3908 1.166385,-17.51979 11.454526,-10.79796 6.013236,-19.08655 17.082496,-22.21617 22.90439,-39.0486 3.245052,-21.447688 43.686304,-42.578079 66.308234,-57.515197 33.46374,-21.248271 70.5191,-37.166816 109.18667,-46.045179 31.53739,-3.755414 61.9701,-18.8516156 94.21415,-10.8760415 42.21971,4.5807495 80.50803,24.1443095 117.36062,43.7324425 19.36847,17.76306 44.9185,31.518563 61.64801,53.579135 12.08693,7.91478 26.97835,38.34695 29.64287,28.56097 16.19024,21.07083 30.64928,47.00766 40.00122,73.47883 4.27506,12.08868 11.96567,46.36191 1.87351,15.51607 -19.50138,-18.13751 4.90046,40.62506 3.43854,53.85793 2.95958,9.28283 2.67558,36.29379 9.48128,15.61024 3.95931,50.92039 -8.91281,102.6725 -30.75639,148.67438 C 561.04181,464.02204 544.83978,486.24571 528,507.5 501.07128,531.51186 473.57007,558.09516 438.71425,571.41536 395.03707,585.37252 349.01002,598.83586 302.5,594.92035 Z M 178,564.5 c -6.84753,-16.15807 -9.77387,9.28373 0,0 z m 5.72917,1.89583 c -3.30278,-1.60013 -1.80474,2.022 0,0 z M 164.75047,556.75 c -5.14882,-6.41447 -3.84137,5.51264 0,0 z m 119.9787,-36.35417 c -3.30278,-1.60013 -1.80474,2.022 0,0 z m 15.02083,-0.0852 c -7.05624,-2.47262 -2.12062,1.96208 0,0 z m -24.5,-3.03407 c -13.53447,-2.33145 -4.28862,1.7524 0,0 z m 57.25,-2.32149 c 43.19735,-6.0229 85.75355,-24.33693 116.26126,-55.53321 23.99901,-19.44028 39.46712,-47.2587 53.83433,-74.07662 13.7952,-48.47239 20.54866,-100.84296 4.38459,-149.67503 C 496.431,204.53062 477.82954,175.70065 454.45811,153.03861 391.97673,88.954132 286.14988,73.075288 207.5674,116.44172 c -41.73981,22.17461 -76.37382,58.44216 -94.76458,102.09505 -20.761322,39.03031 -25.053682,84.93645 -13.901177,127.51192 7.445097,37.02586 22.925077,74.29006 50.884037,100.44133 18.01158,23.59067 44.57183,40.22846 71.4453,52.4267 34.82379,15.06337 73.63873,20.07521 111.26902,16.03835 z m -30,-3.83868 C 251.60533,510.72601 201.87957,490.1972 165,455.42054 c -9.7724,-7.40492 -30.5276,-33.94961 -27.77923,-35.90291 37.67899,54.73343 102.13426,91.17318 169.33649,89.14507 52.13572,-0.96651 104.58456,-20.4161 141.83521,-57.27495 -21.91697,27.39895 -55.98565,41.3182 -88.25321,52.89249 -18.72785,5.23257 -38.28792,6.44947 -57.63926,6.83615 z m -4.09646,-6.11289 c -50.69378,-6.75976 -105.55987,-25.08677 -137.45268,-67.3623 -10.99485,-20.32574 22.48581,18.41387 29.95985,20.82847 42.89906,33.0234 98.74459,44.47754 151.8799,38.82385 14.57316,4.55726 -41.44471,8.75615 -44.38707,7.70998 z M 345.5,469 c 12.1461,-5.36686 49.20303,-23.46281 45.47487,-15.96658 C 377.82738,461.227 361.84811,472.67723 345.5,469 Z M 451,447.90638 c 7.40498,-9.49731 7.76579,0.19543 0,0 z m -170.25,-0.67394 c -43.34242,-9.42508 -86.72755,-35.7765 -103.02819,-78.78848 -34.14713,-55.62732 -16.5536,-133.24925 32.65994,-173.84095 21.67775,-24.51007 56.32983,-33.65394 87.90132,-36.25712 41.18205,-2.33613 82.74734,13.42149 110.79427,43.94453 20.99928,21.0015 33.79383,48.2028 38.13661,77.59032 C 451.46914,322.03056 443.50787,369.42902 412,400 c -17.62539,23.53511 -46.90997,38.25083 -75.27037,45.13915 -18.41998,3.49937 -37.34212,2.14354 -55.97963,2.09329 z M 321,440.19132 c 61.20446,-6.73318 114.88057,-57.20142 122.48015,-118.74984 9.15436,-58.07231 -22.46983,-119.8377 -76.3987,-144.04578 -58.26375,-28.89066 -135.73101,-10.22797 -173.16888,43.53121 -27.64566,39.54822 -34.88376,93.57688 -14.77316,137.99423 22.29934,54.2084 83.7905,88.79293 141.86059,81.27018 z M 458,441 c 3.61658,-4.21481 3.61658,4.21481 0,0 z m 3,-3.5 c 7.30513,-15.88839 16.4603,-6.50174 0,0 z M 198,436 c 4.21953,-3.19682 5.29566,4.42335 0,0 z m -9.66667,-6.66667 c 2.61321,-2.03619 0.59041,2.34214 0,0 z M 185,426 c 2.51998,-3.75736 3.10151,4.42525 0,0 z m 286,-0.5 c 3.90516,-6.34609 3.41271,6.1858 0,0 z m 3,-8 c 9.46415,-15.10692 17.39976,-10.81034 0,0 z M 129,411 c -10.94635,-13.09015 -9.20654,-25.86456 -0.22116,-5.41004 0.58279,-0.30086 5.8297,11.49902 0.22116,5.41004 z m 355,-7.5 c 3.90516,-6.34609 3.41271,6.1858 0,0 z m 3,-6 c 14.90303,-31.72555 6.92108,1.96439 0,0 z m -371,-14 c 3.81611,-8.56619 2.5032,8.1008 0,0 z m -3.2925,-7.64412 c -8.46089,-12.33111 -4.83443,-34.90011 -0.11311,-8.85588 2.80179,1.16767 4.75642,20.11411 0.11311,8.85588 z M 497,376 c 4.84344,-11.26269 1.60554,10.35427 0,0 z m 3,-8.5 c 3.81611,-8.56619 2.5032,8.1008 0,0 z m 3.42779,-7.87368 c 1.89072,-22.6054 5.81886,0.81933 0.089,1.16044 z M 103,344 c 3.68467,-16.51367 2.36515,15.95925 0,0 z m 404,-9 c 2.43638,-26.32794 4.48825,23.66453 0,0 z m -404.8319,-1.16667 c -4.855015,-13.62336 -3.352072,-62.91682 -0.0833,-54.80185 -2.04087,18.22293 0.002,36.54332 0.0833,54.80185 z M 510,304 c 4.84344,-11.26269 1.60554,10.35427 0,0 z m -0.80414,-23.75 c -7.8897,-13.8205 4.79271,-21.59566 0,0 z M 103,262 c 4.84344,-11.26269 1.60554,10.35427 0,0 z m 403.1681,-3.32143 c -5.08037,-15.83526 -1.25195,-15.50398 0,0 z M 106,249.5 c 3.81611,-8.56619 2.5032,8.1008 0,0 z m 3.116,-6.59699 c 1.33176,-17.18158 13.20109,-13.83217 0,0 z M 500,241 c 3.55104,-7.63375 3.36055,7.48846 0,0 z m -3,-8.5 c 3.81611,-8.56619 2.5032,8.1008 0,0 z m -1.62764,-4.86485 c -7.26163,-8.10945 -9.59494,-26.58037 -1.21863,-6.33346 z M 116,225 c 3.55104,-7.63375 3.36055,7.48846 0,0 z m 3,-8.92857 c 3.57234,-13.16192 32.7337,-46.3391 13.64531,-17.71223 C 127.5223,200.65965 121.60152,221.7485 119,216.07143 Z M 484,207 c 3.55104,-7.63375 3.36055,7.48846 0,0 z m -1.97911,-4.25 c -13.66866,-10.48751 -3.31153,-16.332 0,0 z m -33.20839,-1.43311 c 5.43071,-2.08136 -0.45122,2.29173 0,0 z M 445,197.5 c 3.81611,-8.56619 2.5032,8.1008 0,0 z m -3.18045,-5.57149 c -30.51838,-14.54909 -51.02446,-45.10967 -85.68641,-51.89478 -33.29216,-8.02254 -67.88708,-4.09898 -101.3353,0.75544 37.49341,-20.07501 84.19152,-14.87265 123.01636,-0.78585 25.4899,12.0593 52.94798,27.22887 66.71672,52.83099 l -0.52068,0.54274 z M 471,186 C 440.10839,152.52684 404.80816,120.2648 359.53938,108.50703 322.18131,96.040305 280.57266,98.497956 245.65028,116.99371 212.56602,125.5746 181.78192,140.34795 156.62438,163.6223 199.05103,118.32535 264.75933,93.597781 327.0975,100.11982 385.60768,106.04902 438.68595,139.7762 474,186 c 0.55588,2.46805 -3.55588,2.46805 -3,0 z m -329,-5 c 19.73906,-30.67339 8.7,4.60207 0,0 z m 115.75,333.31067 c -7.05624,-2.47262 -2.12062,1.96208 0,0 z m 101.97917,0.0852 c -3.30278,-1.60013 -1.80474,2.022 0,0 z m 18.9375,-7.0625 c -2.61327,-2.03615 -0.59037,2.34204 0,0 z M 226,505 c -6.0974,-4.43225 -5.30093,3.4162 0,0 z M 93,498.5 c -3.905152,-6.34609 -3.412709,6.1858 0,0 z M 213,498 c -2.41328,-3.92709 -2.41328,3.92709 0,0 z m -13,-6 c -3.61658,-4.21481 -3.61658,4.21481 0,0 z m 215,0 c -3.10151,-4.42525 -2.51998,3.75737 0,0 z m 2.66667,-3.66667 c -2.61321,-2.03619 -0.59041,2.34214 0,0 z M 188,485 c -4.03362,-4.57062 -3.55861,3.97832 0,0 z m -4,-3.5 c -3.90516,-6.34609 -3.41271,6.1858 0,0 z m 246,0.5 c 0.27744,-4.56471 -8.16519,5.15028 0,0 z m 4.72917,-3.60417 c -3.30278,-1.60013 -1.80474,2.022 0,0 z m 3,-3 c -3.30278,-1.60013 -1.80474,2.022 0,0 z M 448,467.5 c 10.27174,-8.56934 -10.78245,2.31251 0,0 z M 164,466 c -2.41328,-3.92709 -2.41328,3.92709 0,0 z m 290,-4 c -3.61658,-4.21481 -3.61658,4.21481 0,0 z m -303,-9 c -2.41328,-3.92709 -2.41328,3.92709 0,0 z m 313,-0.5 c -3.90516,-6.34609 -3.41271,6.1858 0,0 z M 148,449 c -3.61658,-4.21481 -3.61658,4.21481 0,0 z m 319,0 c -2.41328,-3.92709 -2.41328,3.92709 0,0 z m -322,-3 c -3.61658,-4.21481 -3.61658,4.21481 0,0 z M 21,384.5 c -2.762321,-5.50893 -2.542687,5.51076 0,0 z M 12,300 C 19.901257,273.52222 19.709394,245.28218 26.897313,218.82806 18.817988,208.78674 10.337591,260.77428 9.5557218,275.96565 10.330352,281.27769 4.7965302,300.07404 12,300 Z M 575,195 c -3.61658,-4.21481 -3.61658,4.21481 0,0 z M 47.974564,181.02544 c 17.722795,-28.05828 -12.649127,1.67972 0,0 z M 562,168.96862 C 545.596,138.84056 525.86998,110.64285 500.27479,87.577977 457.34429,49.249903 402.99111,24.355264 346.65686,13.534204 305.83144,7.6624711 264.70608,17.751724 225.11388,26.99461 175.02927,42.569605 125.55331,67.397109 90.155776,106.85206 82.987155,119.86276 52.494507,146.55456 62.711117,153.81292 80.373119,130.19337 99.697322,107.19744 122.03736,88.396112 202.74321,20.039722 323.59371,2.2643337 420.1988,46.493316 465.12986,65.248447 503.4602,97.133044 534.5,134 c 10.34517,7.12023 16.7227,39.50073 27.5,34.96862 z M 57,162.5 c -3.905152,-6.34609 -3.412709,6.1858 0,0 z M 76,117 c -2.413287,-3.92709 -2.413287,3.92709 0,0 z m 6.729167,-6.60417 c -3.302776,-1.60013 -1.804744,2.022 0,0 z M 370.76166,595.29274 c 8.17046,-2.34492 2.3068,1.89317 0,0 z M 391,595.5 c 1.20664,-1.96355 1.20664,1.96355 0,0 z m -192,-5 c 1.20664,-1.96355 1.20664,1.96355 0,0 z m 207,0 c 1.20664,-1.96355 1.20664,1.96355 0,0 z m -210,-1 c 1.20664,-1.96355 1.20664,1.96355 0,0 z M 396,589 c 3.61658,-4.21481 3.61658,4.21481 0,0 z m 13,0.5 c 1.20664,-1.96355 1.20664,1.96355 0,0 z m -218,-2 c 1.20664,-1.96355 1.20664,1.96355 0,0 z m 223,0 c 1.20664,-1.96355 1.20664,1.96355 0,0 z m -11.49773,-1.49633 c 4.9803,-3.74535 7.48175,2.34692 0,0 z M 186,585.5 c 1.20664,-1.96355 1.20664,1.96355 0,0 z m 233,0 c 1.20664,-1.96355 1.20664,1.96355 0,0 z m -240,-3 c 1.20664,-1.96355 1.20664,1.96355 0,0 z M 412,582 c 7.26036,-4.4175 7.26036,4.4175 0,0 z m 14,0.5 c 1.20664,-1.96355 1.20664,1.96355 0,0 z m -249,-1 c 1.20664,-1.96355 1.20664,1.96355 0,0 z m 251,0 c 1.20664,-1.96355 1.20664,1.96355 0,0 z m -253,-1 c 1.20664,-1.96355 1.20664,1.96355 0,0 z m 255,0 c 1.20664,-1.96355 1.20664,1.96355 0,0 z m -269,-7 c 1.20664,-1.96355 1.20664,1.96355 0,0 z m 283,0 c 1.20664,-1.96355 1.20664,1.96355 0,0 z m -285,-1 c 1.20664,-1.96355 1.20664,1.96355 0,0 z m 287,0 c 1.20664,-1.96355 1.20664,1.96355 0,0 z m -289,-1 c 1.20664,-1.96355 1.20664,1.96355 0,0 z m 291,0 c 1.20664,-1.96355 1.20664,1.96355 0,0 z m -298,-4 c 1.20664,-1.96355 1.20664,1.96355 0,0 z m 305,0 c 1.20664,-1.96355 1.20664,1.96355 0,0 z m -310,-3 c 1.20664,-1.96355 1.20664,1.96355 0,0 z m 315,0 c 1.20664,-1.96355 1.20664,1.96355 0,0 z m -318,-2 c 1.20664,-1.96355 1.20664,1.96355 0,0 z m 321,0 c 1.20664,-1.96355 1.20664,1.96355 0,0 z m 6,-4 c 1.20664,-1.96355 1.20664,1.96355 0,0 z m -339,-4 c 1.20664,-1.96355 1.20664,1.96355 0,0 z m 345,0 c 1.20664,-1.96355 1.20664,1.96355 0,0 z M 139,553 c 3.61658,-4.21481 3.61658,4.21481 0,0 z m -12,-0.5 c 1.20664,-1.96355 1.20664,1.96355 0,0 z m 351,0 c 1.20664,-1.96355 1.20664,1.96355 0,0 z m -343,-3 c 4.73401,-6.48897 5.04028,6.35543 0,0 z m -12,0 c 1.20664,-1.96355 1.20664,1.96355 0,0 z m 359,0 c 1.20664,-1.96355 1.20664,1.96355 0,0 z m -363,-3 c 1.20664,-1.96355 1.20664,1.96355 0,0 z m 10.8125,-0.18311 c 5.43071,-2.08136 -0.45122,2.29173 0,0 z M 486,546.5 c 1.20664,-1.96355 1.20664,1.96355 0,0 z m -353.33333,-1.16667 c 1.57426,-8.77681 10.19404,5.46213 0,0 z M 126,543.5 c 3.90516,-6.34609 3.41271,6.1858 0,0 z m -11.59549,-0.65451 c 0.52942,-2.46979 2.82932,4.5416 0,0 z M 490.5,543 c 2.98229,-4.16027 -0.49419,3.55991 0,0 z M 123,540 c 2.41328,-3.92709 2.41328,3.92709 0,0 z m 6.8125,0.31689 c 5.43071,-2.08136 -0.45122,2.29173 0,0 z m -20.40799,-1.4714 c 0.52942,-2.46979 2.82932,4.5416 0,0 z M 495.5,539 c 2.98229,-4.16027 -0.49419,3.55991 0,0 z M 116,536.5 c -11.79089,-12.25184 16.20972,7.83202 0,0 z m -13.59501,-3.75 c -5.375921,-6.13368 7.62229,6.83567 0,0 z M 502.5,533 c 7.64475,-7.71054 -4.78135,6.94769 0,0 z m -392.95729,-1.9309 c 1.32239,-5.97009 4.77014,4.07662 0,0 z m -2.73021,-3.75221 c 5.43071,-2.08136 -0.45122,2.29173 0,0 z M 103,524 c 3.61658,-4.21481 3.61658,4.21481 0,0 z m -14.053833,-3.75 c -10.150667,-10.93379 12.101463,11.6358 0,0 z M 513.5,523 c 2.98229,-4.16027 -0.49419,3.55991 0,0 z m -403.6875,-2.68311 c 5.43071,-2.08136 -0.45122,2.29173 0,0 z M 516.5,520 c 2.98229,-4.16027 -0.49419,3.55991 0,0 z M 96.361626,517.5 c -13.434509,-12.79991 9.266834,2.88368 0,0 z M 519,517.5 c 1.20664,-1.96355 1.20664,1.96355 0,0 z M 87,510.41667 c 2.999802,-4.38087 2.553076,5.7242 0,0 z M 97,511 c 2.413287,-3.92709 2.413287,3.92709 0,0 z m -20.595012,-4.25 c -5.375945,-6.13371 7.6223,6.83568 0,0 z m -6.00048,-6.90451 c 0.529437,-2.46979 2.829311,4.54159 0,0 z M 534.5,500 c 2.98229,-4.16027 -0.49419,3.55991 0,0 z M 77.8125,498.31689 c 5.430704,-2.08136 -0.451226,2.29173 0,0 z M 66,494.5 c 1.206644,-1.96355 1.206644,1.96355 0,0 z m -4,-5 c 1.206644,-1.96355 1.206644,1.96355 0,0 z m 5,-2 c 3.905152,-6.34609 3.412709,6.1858 0,0 z m -8,-2 c 1.206644,-1.96355 1.206644,1.96355 0,0 z m -2,-3 c 1.206644,-1.96355 1.206644,1.96355 0,0 z m -3,-4 c 1.206644,-1.96355 1.206644,1.96355 0,0 z m 497,0 c 1.20664,-1.96355 1.20664,1.96355 0,0 z m -499,-3 c 1.206644,-1.96355 1.206644,1.96355 0,0 z m 501,0 c 1.20664,-1.96355 1.20664,1.96355 0,0 z m -503,-3 c 1.206644,-1.96355 1.206644,1.96355 0,0 z m 505,0 c 1.20664,-1.96355 1.20664,1.96355 0,0 z m -507,-3 c 1.206644,-1.96355 1.206644,1.96355 0,0 z m 509,0 c 1.20664,-1.96355 1.20664,1.96355 0,0 z m -512,-5 c 1.206644,-1.96355 1.206644,1.96355 0,0 z m 515,0 c 1.20664,-1.96355 1.20664,1.96355 0,0 z m -517,-3 c 1.206644,-1.96355 1.206644,1.96355 0,0 z m 520,-2 c 1.20664,-1.96355 1.20664,1.96355 0,0 z m -523,-3 c 1.206644,-1.96355 1.206644,1.96355 0,0 z m -1,-2 c 1.206644,-1.96355 1.206644,1.96355 0,0 z m 527,0 c 1.20664,-1.96355 1.20664,1.96355 0,0 z m 1,-2 c 1.20664,-1.96355 1.20664,1.96355 0,0 z m -533,-7 c 1.206644,-1.96355 1.206644,1.96355 0,0 z m -1,-2 c 1.206644,-1.96355 1.206644,1.96355 0,0 z m -1,-2 c 1.206644,-1.96355 1.206644,1.96355 0,0 z m -1,-2 c 1.206644,-1.96355 1.206644,1.96355 0,0 z m -1,-2 c 1.206644,-1.96355 1.206644,1.96355 0,0 z m -1,-2 c 1.206644,-1.96355 1.206644,1.96355 0,0 z m 547,0 c 1.20664,-1.96355 1.20664,1.96355 0,0 z m -550,-7 c 1.206644,-1.96355 1.206644,1.96355 0,0 z m 553,0 c 1.20664,-1.96355 1.20664,1.96355 0,0 z m -554,-2 c 1.206644,-1.96355 1.206644,1.96355 0,0 z m 555,0 c 1.20664,-1.96355 1.20664,1.96355 0,0 z m -557,-5 c 1.206644,-1.96355 1.206644,1.96355 0,0 z m 559,0 c 1.20664,-1.96355 1.20664,1.96355 0,0 z m -560,-2 c 1.206644,-1.96355 1.206644,1.96355 0,0 z m -2,-5 c 1.206644,-1.96355 1.206644,1.96355 0,0 z m -1,-3 c 1.206644,-1.96355 1.206644,1.96355 0,0 z m 567,0 c 1.20664,-1.96355 1.20664,1.96355 0,0 z m -570,-8 c 1.206644,-1.96355 1.206644,1.96355 0,0 z m -1,-3 c 1.206644,-1.96355 1.206644,1.96355 0,0 z m -1,-3 c 1.206644,-1.96355 1.206644,1.96355 0,0 z m 578,-4 c 1.20664,-1.96355 1.20664,1.96355 0,0 z m -580,-3 c 1.206644,-1.96355 1.206644,1.96355 0,0 z m 581,0 c 1.20664,-1.96355 1.20664,1.96355 0,0 z m -582,-3 c 1.206644,-1.96355 1.206644,1.96355 0,0 z m -1,-4 c 1.206644,-1.96355 1.206644,1.96355 0,0 z m 585,0 c 1.20664,-1.96355 1.20664,1.96355 0,0 z m -586,-4 c 1.206644,-1.96355 1.206644,1.96355 0,0 z m 587,0 c 1.20664,-1.96355 1.20664,1.96355 0,0 z m -588,-4 c 1.2066437,-1.96355 1.2066437,1.96355 0,0 z m -1,-4 c 1.2066437,-1.96355 1.2066437,1.96355 0,0 z m -1,-5 c 1.2066437,-1.96355 1.2066437,1.96355 0,0 z m 593,0 c 1.20664,-1.96355 1.20664,1.96355 0,0 z m -594,-5 c 1.2066437,-1.96355 1.2066437,1.96355 0,0 z m -1,-6 c 1.2066437,-1.96355 1.2066437,1.96355 0,0 z M 3,349 c 1.0407924,-2.69151 1.0407924,2.69151 0,0 z m 599,0 c 1.0408,-2.69152 1.0408,2.69152 0,0 z M 2,342 c 1.0407924,-2.69151 1.0407924,2.69151 0,0 z m -0.9210526,-9.58333 c 0.850267,-3.76916 0.7992941,4.79845 0,0 z M 0.2521834,316.5 c 1.1686923,-6.35035 0.37588493,8.14692 0,0 z m 604.9999966,0 c 1.16872,-6.35035 0.37583,8.14694 0,0 z M 0.2521834,292.5 c 1.1686923,-6.35035 0.37588493,8.14692 0,0 z M 601,272.07332 c 2.57066,-19.95131 2.83948,21.07238 0,0 z M 1.0789474,276.41667 c 0.850267,-3.76916 0.7992941,4.79845 0,0 z M 2,267 c 1.0407924,-2.69151 1.0407924,2.69151 0,0 z m 1,-7 c 1.0407924,-2.69151 1.0407924,2.69151 0,0 z m 599,0 c 1.0408,-2.69152 1.0408,2.69152 0,0 z M 4,253.5 c 1.2066437,-1.96355 1.2066437,1.96355 0,0 z m 597,0 c 1.20664,-1.96355 1.20664,1.96355 0,0 z m -3,-5 c 2.61664,-11.35843 2.23593,11.01674 0,0 z m -593,-1 c 1.2066437,-1.96355 1.2066437,1.96355 0,0 z M 599,243 c 1.0408,-2.69152 1.0408,2.69152 0,0 z M 6,242.5 c 1.2066437,-1.96355 1.2066437,1.96355 0,0 z m 1,-5 c 1.2066437,-1.96355 1.2066437,1.96355 0,0 z m 1,-4 c 1.2066437,-1.96355 1.2066437,1.96355 0,0 z m 1,-4 c 1.206644,-1.96355 1.206644,1.96355 0,0 z m 587,0 c 1.20664,-1.96355 1.20664,1.96355 0,0 z m -586,-4 c 1.206644,-1.96355 1.206644,1.96355 0,0 z m 1,-4 c 1.206644,-1.96355 1.206644,1.96355 0,0 z m 1,-3 c 1.206644,-1.96355 1.206644,1.96355 0,0 z m 580,-3 c 1.20664,-1.96355 1.20664,1.96355 0,0 z m -578,-4 c 1.206644,-1.96355 1.206644,1.96355 0,0 z m 1,-3 c 1.206644,-1.96355 1.206644,1.96355 0,0 z m 1,-3 c 1.206644,-1.96355 1.206644,1.96355 0,0 z m 3,-8 c 1.206644,-1.96355 1.206644,1.96355 0,0 z m 567,0 c 1.20664,-1.96355 1.20664,1.96355 0,0 z m -566,-3 c 1.206644,-1.96355 1.206644,1.96355 0,0 z m 2,-5 c 1.206644,-1.96355 1.206644,1.96355 0,0 z m 1,-2 c 1.206644,-1.96355 1.206644,1.96355 0,0 z m 2,-5 c 1.206644,-1.96355 1.206644,1.96355 0,0 z m 555,0 c 1.20664,-1.96355 1.20664,1.96355 0,0 z m -554,-2 c 1.206644,-1.96355 1.206644,1.96355 0,0 z m 553,0 c 1.20664,-1.96355 1.20664,1.96355 0,0 z m -550,-7 c 1.206644,-1.96355 1.206644,1.96355 0,0 z m 1,-2 c 1.206644,-1.96355 1.206644,1.96355 0,0 z m 1,-2 c 1.206644,-1.96355 1.206644,1.96355 0,0 z m 1,-2 c 1.206644,-1.96355 1.206644,1.96355 0,0 z m 1,-2 c 1.206644,-1.96355 1.206644,1.96355 0,0 z m 1,-2 c 1.206644,-1.96355 1.206644,1.96355 0,0 z M 45,156 c 2.413287,-3.92709 2.413287,3.92709 0,0 z m 522,0.5 c 1.20664,-1.96355 1.20664,1.96355 0,0 z m -528,-2 c 1.206644,-1.96355 1.206644,1.96355 0,0 z m 527,0 c 1.20664,-1.96355 1.20664,1.96355 0,0 z m -526,-2 c 1.206644,-1.96355 1.206644,1.96355 0,0 z m 8,-2.5 c 2.567069,-6.61376 2.318575,6.15133 0,0 z m 515,-0.5 c 1.20664,-1.96355 1.20664,1.96355 0,0 z m -520,-2 c 1.206644,-1.96355 1.206644,1.96355 0,0 z m 518.40451,-0.65451 c 0.52942,-2.46979 2.82932,4.5416 0,0 z M 45,144.5 c 1.206644,-1.96355 1.206644,1.96355 0,0 z m 6,-1 c 3.905152,-6.34609 3.412709,6.1858 0,0 z m 509,1 c 1.20664,-1.96355 1.20664,1.96355 0,0 z m -512,-5 c 1.206644,-1.96355 1.206644,1.96355 0,0 z m 509,0 c 1.20664,-1.96355 1.20664,1.96355 0,0 z m -507,-3 c 1.206644,-1.96355 1.206644,1.96355 0,0 z m 504.40451,-0.65451 c 0.23016,-2.69783 2.95133,4.52163 0,0 z M 52,133.5 c 1.206644,-1.96355 1.206644,1.96355 0,0 z m 501,0 c 1.20664,-1.96355 1.20664,1.96355 0,0 z m -499,-3 c 1.206644,-1.96355 1.206644,1.96355 0,0 z m 497,0 c 1.20664,-1.96355 1.20664,1.96355 0,0 z m -487,-4 c 3.905152,-6.34609 3.412709,6.1858 0,0 z m 479,0 c 2.39149,-5.52612 2.39149,5.52612 0,0 z m -486,0 c 1.206644,-1.96355 1.206644,1.96355 0,0 z m 491,0 c 1.20664,-1.96355 1.20664,1.96355 0,0 z m -489,-3 c 1.206644,-1.96355 1.206644,1.96355 0,0 z m 486.40451,-0.65451 c 0.23016,-2.69783 2.95133,4.52163 0,0 z m -5.59201,-2.5286 c 5.43071,-2.08136 -0.45122,2.29173 0,0 z M 62,119.5 c 1.206644,-1.96355 1.206644,1.96355 0,0 z m 481,0 c 1.20664,-1.96355 1.20664,1.96355 0,0 z M 65.5,115 c 2.982303,-4.16027 -0.494197,3.55991 0,0 z m 473.90451,-0.15451 c 0.52942,-2.46979 2.82932,4.5416 0,0 z M 70.5,109 c 2.982303,-4.16027 -0.494197,3.55991 0,0 z m 463.90451,-0.15451 c 0.23016,-2.69783 2.95133,4.52163 0,0 z M 76.5,102 c 7.644734,-7.710533 -4.78134,6.94769 0,0 z m 451.90499,-0.25 c -1.65559,-11.714122 5.70953,8.4837 0,0 z M 89,88.5 c 13.41085,-12.95729 -10.474868,12.18627 0,0 z m 424.8125,2.816886 c 5.43071,-2.081389 -0.45127,2.291905 0,0 z M 519,91.5 c 1.20664,-1.963547 1.20664,1.963547 0,0 z m -2.59549,-2.654508 c 0.52942,-2.469796 2.82933,4.541597 0,0 z M 510,88 c 3.61658,-4.214817 3.61658,4.214817 0,0 z m 3.40451,-2.154508 c 0.52942,-2.469796 2.82933,4.541597 0,0 z M 102.5,76 c 7.64475,-7.710533 -4.781358,6.947693 0,0 z m 399.90499,-0.25 c -5.37593,-6.133689 7.62229,6.835667 0,0 z M 113,75 c 3.61658,-4.214817 3.61658,4.214817 0,0 z m -3.5,-5 c 2.98229,-4.160265 -0.49419,3.559911 0,0 z m 385.90451,-0.154508 c 0.52942,-2.469796 2.82933,4.541597 0,0 z M 114.5,66 c 2.98229,-4.160265 -0.49419,3.559911 0,0 z m 375.90451,-0.154508 c 0.52942,-2.469796 2.82933,4.541597 0,0 z M 119,62.5 c 1.20664,-1.963547 1.20664,1.963547 0,0 z M 477,62 c 3.61658,-4.214817 3.61658,4.214817 0,0 z m 9,0.5 c 1.20664,-1.963547 1.20664,1.963547 0,0 z m -363,-3 c 1.20664,-1.963547 1.20664,1.963547 0,0 z m 359,0 c 1.20664,-1.963547 1.20664,1.963547 0,0 z M 136.33333,58.333333 c 2.61321,-2.036187 0.59041,2.342126 0,0 z m 338.47917,-0.01645 c 5.43071,-2.081389 -0.45127,2.291905 0,0 z M 127,56.5 c 1.20664,-1.963547 1.20664,1.963547 0,0 z m 351,0 c 1.20664,-1.963547 1.20664,1.963547 0,0 z m -348,-2 c 1.20664,-1.963547 1.20664,1.963547 0,0 z m 345,0 c 1.20664,-1.963547 1.20664,1.963547 0,0 z m -333,-8 c 1.20664,-1.963547 1.20664,1.963547 0,0 z m 321,0 c 1.20664,-1.963547 1.20664,1.963547 0,0 z m -10.66667,-1.166667 c 2.61321,-2.036187 0.59041,2.342126 0,0 z M 145,44.5 c 1.20664,-1.963547 1.20664,1.963547 0,0 z m 315,0 c 1.20664,-1.963547 1.20664,1.963547 0,0 z m -310,-3 c 1.20664,-1.963547 1.20664,1.963547 0,0 z m 305,0 c 1.20664,-1.963547 1.20664,1.963547 0,0 z m -298,-4 c 1.20664,-1.963547 1.20664,1.963547 0,0 z m 291,0 c 1.20664,-1.963547 1.20664,1.963547 0,0 z m -289,-1 c 1.20664,-1.963547 1.20664,1.963547 0,0 z m 287,0 c 1.20664,-1.963547 1.20664,1.963547 0,0 z m -285,-1 c 1.20664,-1.963547 1.20664,1.963547 0,0 z m 283,0 c 1.20664,-1.963547 1.20664,1.963547 0,0 z m -269,-7 c 1.20664,-1.963547 1.20664,1.963547 0,0 z m 255,0 c 1.20664,-1.963547 1.20664,1.963547 0,0 z m -253,-1 c 1.20664,-1.963547 1.20664,1.963547 0,0 z m 251,0 c 1.20664,-1.963547 1.20664,1.963547 0,0 z m -249,-1 c 1.20664,-1.963547 1.20664,1.963547 0,0 z m 247,0 c 1.20664,-1.963547 1.20664,1.963547 0,0 z m -240,-3 c 1.20664,-1.963547 1.20664,1.963547 0,0 z m 233,0 c 1.20664,-1.963547 1.20664,1.963547 0,0 z m -228,-2 c 1.20664,-1.963547 1.20664,1.963547 0,0 z m 223,0 c 1.20664,-1.963547 1.20664,1.963547 0,0 z m -218,-2 c 1.20664,-1.963547 1.20664,1.963547 0,0 z m 213,0 c 1.20664,-1.963547 1.20664,1.963547 0,0 z m -210,-1 c 1.20664,-1.963547 1.20664,1.963547 0,0 z m 207,0 c 1.20664,-1.963547 1.20664,1.963547 0,0 z m -192,-5 c 1.20664,-1.963547 1.20664,1.963547 0,0 z m 177,0 c 1.20664,-1.963547 1.20664,1.963547 0,0 z m -174,-1 c 1.20664,-1.963547 1.20664,1.963547 0,0 z m 171,0 c 1.20664,-1.963547 1.20664,1.963547 0,0 z m -164,-2 c 1.20664,-1.9635472 1.20664,1.963547 0,0 z m 157,0 c 1.20664,-1.9635472 1.20664,1.963547 0,0 z m -153,-1 c 1.20664,-1.9635472 1.20664,1.963547 0,0 z m 149,0 c 1.20664,-1.9635472 1.20664,1.963547 0,0 z m -145,-1 c 1.20664,-1.9635472 1.20664,1.963547 0,0 z m 141,0 c 1.20664,-1.9635472 1.20664,1.963547 0,0 z m -137,-1 c 1.20664,-1.9635471 1.20664,1.9635471 0,0 z m 133,0 c 1.20664,-1.9635471 1.20664,1.9635471 0,0 z m -128,-1 c 1.20664,-1.9635471 1.20664,1.9635471 0,0 z m 123,0 c 1.20664,-1.9635471 1.20664,1.9635471 0,0 z m -118,-1 c 1.20664,-1.9635471 1.20664,1.9635471 0,0 z m 113,0 c 1.20664,-1.9635471 1.20664,1.9635471 0,0 z M 251.33333,4.3333333 c 2.61321,-2.036187 0.59041,2.3421255 0,0 z m 102,0 c 2.61321,-2.036187 0.59041,2.3421255 0,0 z M 258,3.5 c 1.20664,-1.9635471 1.20664,1.9635471 0,0 z m 89,0 c 1.20664,-1.9635471 1.20664,1.9635471 0,0 z M 265.33333,2.3333333 c 2.61321,-2.036187 0.59041,2.3421255 0,0 z m 74,0 c 2.61321,-2.036187 0.59041,2.3421255 0,0 z M 274.8125,1.316886 c 5.4307,-2.08139439 -0.45125,2.2918954 0,0 z m 55,0 c 5.4307,-2.08139439 -0.45125,2.2918954 0,0 z M 289.25,0.31067449 c 7.05625,-2.47258019 2.12061,1.96205071 0,0 z m 24,0 c 7.05625,-2.47258019 2.12061,1.96205071 0,0 z"
         id="path1795" />
      <path
         style="fill:#0d0c0c"
         d="M 283.29273,608.01637 C 146.33102,601.53947 24.035731,489.4062 4.2454105,353.92561 -16.005624,235.97238 40.273811,109.19924 142.43718,46.35657 251.9108,-23.726463 406.8444,-12.442663 502.82828,76.183746 530.83886,101.0865 554.28596,131.14346 571.41868,164.48886 560.83535,149.52261 550.50845,132.30853 544.1287,133.9381 530.95949,112.89521 512.2429,95.791308 494.43025,78.722349 473.18236,66.078694 458.0295,46.097176 434.17071,37.90973 391.02994,16.085536 342.3138,-1.0805059 293.38425,7.0796711 260.95928,16.576083 226.75247,19.229445 195.73184,33.471052 165.72865,45.498555 137.7279,62.045813 111.72106,80.966098 86.211085,90.627657 70.248651,114.58298 66.409658,132.59766 51.004478,140.41327 54.764154,162.94572 40.419868,163.68422 30.091194,184.90669 17.239819,208.834 13.20018,234.35441 -0.03548583,286.78437 3.1366667,343.04625 19.010404,394.57043 c 9.888631,22.04619 15.553369,45.94024 31.28605,66.5394 13.638847,12.6961 17.902138,37.01683 38.613956,34.03117 -20.824719,12.49948 28.32651,12.84282 31.15632,29.71278 7.65163,10.69365 50.15943,28.41794 25.29387,28.38886 18.36035,18.35488 44.63657,27.87268 68.89331,36.68743 28.68625,-2.47153 -55.37195,-25.45694 -17.42676,-17.46708 43.94687,18.55807 91.79647,25.74119 139.28204,22.10582 35.25908,-1.12206 68.60924,-14.01164 102.13085,-22.41404 42.40825,-19.30596 78.41382,-50.74523 106.87426,-87.11339 -10.86838,19.1764 -32.9136,39.95386 -51.788,55.80978 -58.33512,47.60421 -134.81535,72.56873 -210.03357,67.16521 z M 337,602 c -5.98711,-3.04168 -19.85718,0.97769 -5.7649,0.66756 z m -73.25,-3.68933 c -7.05624,-2.47262 -2.12062,1.96208 0,0 z m 95.9777,-0.0405 c -9.18386,-1.62027 -7.09162,1.7768 0,0 z M 246,596 c -5.77799,-6.73305 -7.80114,4.17458 0,0 z m 128.76166,-0.68708 c -8.21627,-2.65206 -2.3644,2.0253 0,0 z M 399,589 c -3.61658,-4.21481 -3.61658,4.21481 0,0 z m 9.91667,-3.64068 c -7.92077,-2.67676 -7.74964,3.76856 0,0 z M 418,582 c -7.26036,-4.4175 -7.26036,4.4175 0,0 z M 142,553 c -3.61658,-4.21481 -3.61658,4.21481 0,0 z m -3,-3.5 c -4.73401,-6.48897 -5.04028,6.35543 0,0 z m -7.27083,-3.10417 c -3.30278,-1.60013 -1.80474,2.022 0,0 z m 5.02083,-1.02612 c 7.17348,-6.65749 -11.57192,1.83245 0,0 z M 129,543.5 c -3.90516,-6.34609 -3.41271,6.1858 0,0 z m -4,-3.5 c -2.41328,-3.92709 -2.41328,3.92709 0,0 z m 6.72917,0.39583 c -3.30278,-1.60013 -1.80474,2.022 0,0 z m -11.28804,-3.86403 c -8.32513,-10.93545 -11.04485,1.18058 0,0 z m -7.98384,-5.4627 c -1.32239,-5.97009 -4.77014,4.07662 0,0 z m -3.72812,-3.67327 c -3.30278,-1.60013 -1.80474,2.022 0,0 z M 106,524 c -3.61658,-4.21481 -3.61658,4.21481 0,0 z m 5.72917,-3.60417 c -3.30278,-1.60013 -1.80474,2.022 0,0 z M 99,517.5 c -8.172994,-10.90616 -6.893656,1.40269 0,0 z m -9.229167,-6.6875 c -3.349748,-5.98457 -2.779704,4.59065 0,0 z M 99,511 c -2.413287,-3.92709 -2.413287,3.92709 0,0 z M 79.729167,498.39583 c -3.302776,-1.60013 -1.804744,2.022 0,0 z M 70,487.5 c -3.905152,-6.34609 -3.412709,6.1858 0,0 z M 47,156 c -2.413287,-3.92709 -2.413287,3.92709 0,0 z m 3.5,-6 c -3.286222,-6.57548 -2.720765,6.52427 0,0 z m 3.5,-6.5 c -3.905152,-6.34609 -3.412709,6.1858 0,0 z m 494.77083,-12.6875 c -3.34975,-5.98457 -2.7797,4.59065 0,0 z M 67,126.5 c -3.905152,-6.34609 -3.412709,6.1858 0,0 z m 478,0 c -2.39149,-5.52612 -2.39149,5.52612 0,0 z m -3.27083,-6.10417 c -3.30278,-1.60013 -1.80474,2.022 0,0 z m -26,-28.999997 c -3.30272,-1.60019 -1.80482,2.021935 0,0 z M 513,88 c -3.61658,-4.214817 -3.61658,4.214817 0,0 z M 116,75 c -3.61658,-4.214817 -3.61658,4.214817 0,0 z M 480,62 c -3.61658,-4.214817 -3.61658,4.214817 0,0 z M 137.66667,58.333333 c -2.61321,-2.036187 -0.59041,2.342126 0,0 z m 339.0625,0.0625 c -3.30272,-1.60019 -1.80482,2.021935 0,0 z m -23.0625,-13.0625 c -2.61321,-2.036187 -0.59041,2.342126 0,0 z m -282,520.999997 c -5.90497,-18.22153 16.14273,4.57481 0,0 z m 10.14583,-0.0164 c 5.43071,-2.08136 -0.45122,2.29173 0,0 z M 161,556.42668 c 3.53151,-5.09393 4.76742,5.97797 0,0 z M 293,515.9065 C 220.86626,512.39248 152.18922,468.57695 119.04715,404.59519 104.36073,376.36192 97.148656,344.92285 93.644337,313.3746 88.203365,262.36637 111.10941,212.86527 140.04612,172.40611 191.00031,107.45525 281.10326,76.295752 360.92099,99.351539 c 44.53236,11.024631 82.48895,38.715211 112.72187,72.481801 16.34138,27.47223 35.54797,54.79501 38.96229,87.92039 9.06187,42.87022 1.44187,88.06047 -12.04509,129.0318 -13.9016,28.07712 -31.82217,55.05401 -56.20032,74.93672 C 404.1207,501.3043 347.65045,519.43203 293,515.9065 Z m 33.47959,-5.95067 C 376.8938,505.66997 424.65628,480.178 458.47215,443.10243 481.13399,416.92039 499.35133,385.16255 507,351.03138 515.21732,302.12206 513.24412,248.3835 485.74536,205.42157 443.09913,128.86681 347.67983,81.763967 261.37484,104.86416 c -40.79775,7.95828 -77.62374,30.56609 -106.54941,59.74937 -22.20264,25.25619 -39.66454,54.21253 -48.34117,86.88221 -13.229979,43.78488 -8.045601,91.64557 10.03423,133.35207 7.59823,25.52397 26.78884,45.59058 43.01291,66.15219 31.86248,29.35784 71.01096,51.95105 114.55223,57.774 17.34042,2.47559 34.95678,2.56224 52.39596,1.18183 z M 287,439.98455 c -42.47375,-5.64301 -81.57657,-32.24771 -102.33048,-69.45146 -33.45385,-58.68046 -15.90877,-140.19115 38.9412,-179.79196 60.96939,-46.5622 159.67293,-30.82043 199.38663,36.11566 34.81769,51.6369 27.31456,127.14938 -16.91852,170.90282 C 376.62536,430.25514 330.07134,444.93782 287,439.98455 Z M 90,498.5 c 3.905152,-6.34609 3.412709,6.1858 0,0 z m 459,-19.3 c 7.57818,-14.11701 15.51997,-19.62043 3.33786,-2.12345 2.49687,0.47289 -4.13146,5.88757 -3.33786,2.12345 z m 13.01531,-19.95 c 2.1973,-8.02195 1.57255,4.82257 0,0 z M 565,453.66667 c 3.43446,-10.66554 1.74768,7.84654 0,0 z m 3.39301,-5.24846 c 3.34283,-13.06289 3.24282,4.29469 0,0 z M 572,440.66667 c 3.43446,-10.66554 1.74768,7.84654 0,0 z m 3.01531,-5.91667 c 2.50508,-9.7679 1.57219,6.715 0,0 z M 578,427.66667 c 3.43446,-10.66554 1.74768,7.84654 0,0 z m 3.0451,-5.85765 c 3.58054,-15.26086 0.62389,8.79303 0,0 z M 584.71372,413 c 4.02326,-13.36205 -1.59229,10.59984 0,0 z m 3.35657,-10.25 c 2.23458,-13.12441 1.41958,9.16656 0,0 z m 3.00866,-9.5 c 1.96331,-14.55526 2.61043,8.87636 0,0 z M 18.693853,385.36052 c -0.953996,-6.04364 5.258415,2.4153 0,0 z M 594.40588,381.7006 c 3.86532,-18.61168 -0.77036,14.13513 0,0 z M 597,373.5 c 1.20664,-1.96355 1.20664,1.96355 0,0 z m 1.11831,-7.75 c 2.17008,-20.16843 1.24251,14.32088 0,0 z m 3.00686,-18 c 1.22783,-21.36879 2.02929,17.26418 0,0 z M 604.26739,316 c -0.83034,-18.77844 3.21344,-19.08018 1.05616,0.70313 -0.55984,11.42382 -1.4087,16.85854 -1.05616,-0.70313 z m 0.0876,-29.5 c 0.53548,-17.10344 0.84204,14.91283 0,0 z M 601,259.33333 c 1.28131,-16.47257 1.85471,17.98911 0,0 z M 598,241.5 c 0.66459,-12.28447 1.99513,12.37882 0,0 z m -3,-13 c 0.70628,-8.7197 2.1219,8.85409 0,0 z m -3.37646,-11.03866 c -3.44985,-13.08742 3.76585,4.39364 0,0 z M 588.07029,205.75 c 1.33182,-8.08955 2.27914,11.58656 0,0 z M 585,197 c 0.79124,-6.98239 2.18274,7.1311 0,0 z m -3,-7.5 c 0.97495,-5.33725 2.22426,5.47033 0,0 z m -1,-3 c 1.20664,-1.96355 1.20664,1.96355 0,0 z m -2.62571,-3.96701 c -2.25072,-8.42656 5.6805,5.72686 0,0 z M 575.01531,174.25 c 1.645,-6.88585 2.41864,9.89487 0,0 z m -3,-6.5 c 1.62491,-4.99294 2.12732,8.15644 0,0 z M 74,117 c 2.413287,-3.92709 2.413287,3.92709 0,0 z m 6.8125,-6.68311 c 5.430704,-2.08136 -0.451226,2.29173 0,0 z"
         id="path1793" />
    </g>
  </g>
</svg>
