<?xml version="1.0" encoding="UTF-8" standalone="no"?>
<!-- Created with Inkscape (http://www.inkscape.org/) -->

<svg
   width="9.7646198mm"
   height="8.659605mm"
   viewBox="0 0 9.7646198 8.659605"
   version="1.1"
   id="svg1"
   inkscape:version="1.3.2 (091e20e, 2023-11-25, custom)"
   sodipodi:docname="LargeKnobGuide-dark.svg"
   xmlns:inkscape="http://www.inkscape.org/namespaces/inkscape"
   xmlns:sodipodi="http://sodipodi.sourceforge.net/DTD/sodipodi-0.dtd"
   xmlns="http://www.w3.org/2000/svg"
   xmlns:svg="http://www.w3.org/2000/svg">
  <sodipodi:namedview
     id="namedview1"
     pagecolor="#ffffff"
     bordercolor="#000000"
     borderopacity="0.25"
     inkscape:showpageshadow="2"
     inkscape:pageopacity="0.0"
     inkscape:pagecheckerboard="0"
     inkscape:deskcolor="#d1d1d1"
     inkscape:document-units="mm"
     inkscape:zoom="9.2574245"
     inkscape:cx="30.354015"
     inkscape:cy="7.7235304"
     inkscape:window-width="3840"
     inkscape:window-height="2054"
     inkscape:window-x="2869"
     inkscape:window-y="-11"
     inkscape:window-maximized="1"
     inkscape:current-layer="layer1" />
  <defs
     id="defs1" />
  <g
     inkscape:label="Layer 1"
     inkscape:groupmode="layer"
     id="layer1"
     transform="translate(-125.94166,-146.57935)">
    <path
       class="st0"
       d="m 135.64943,152.70904 c 0.0205,-0.0857 0.0388,-0.17216 0.055,-0.25965 l -0.87771,-0.19967 c 0.0399,-0.2286 0.0621,-0.4632 0.0617,-0.70309 0,-0.50129 -0.0914,-0.98107 -0.25752,-1.42451 l 0.83961,-0.32985 c -0.0314,-0.0829 -0.0649,-0.16475 -0.10054,-0.24553 l -0.84103,0.3302 c -0.29633,-0.65617 -0.76129,-1.21885 -1.34055,-1.63372 l 0.51011,-0.74683 c -0.072,-0.0511 -0.14534,-0.10054 -0.22013,-0.14816 l -0.51047,0.74718 c -0.58667,-0.36513 -1.27353,-0.5842 -2.00977,-0.60784 v -0.90522 c -0.0441,-0.001 -0.0882,-0.003 -0.13265,-0.003 -0.0444,0 -0.0885,0.002 -0.13264,0.003 v 0.90522 c -0.73625,0.0236 -1.42275,0.24271 -2.00978,0.60784 l -0.51047,-0.74718 c -0.0748,0.0476 -0.14816,0.097 -0.22013,0.14816 l 0.51012,0.74683 c -0.57891,0.41487 -1.04422,0.9779 -1.34056,1.63372 l -0.84102,-0.3302 c -0.0356,0.0808 -0.0691,0.16263 -0.10054,0.24553 l 0.83961,0.32985 c -0.16616,0.44344 -0.25753,0.92322 -0.25753,1.42451 0,0.23989 0.0219,0.47449 0.0621,0.70309 l -0.87771,0.19967 c 0.0162,0.0875 0.0346,0.17392 0.055,0.25965 l 0.87666,-0.19932 c 0.17638,0.7246 0.54645,1.37336 1.05268,1.887 l -0.61065,0.65794 c 0.0628,0.0624 0.12735,0.12276 0.19332,0.18203 l 0.82938,-0.89323 -0.19438,-0.18063 -0.001,10e-4 c -0.6604,-0.67557 -1.06751,-1.59773 -1.06751,-2.61726 0,-1.03469 0.4191,-1.96991 1.09679,-2.64795 0.67839,-0.67804 1.61361,-1.09678 2.6483,-1.09678 1.0347,0 1.96991,0.4191 2.64831,1.09678 0.67803,0.6784 1.09678,1.61361 1.09678,2.64795 0,1.01918 -0.4071,1.94169 -1.0675,2.61726 l -0.001,-10e-4 -0.19438,0.18063 0.82938,0.89323 c 0.066,-0.0589 0.13053,-0.11959 0.19332,-0.18203 l -0.61066,-0.65794 c 0.50624,-0.51364 0.8763,-1.1624 1.05269,-1.887 z"
       id="path8-0"
       style="fill:#0c1218;fill-opacity:1;stroke:none;stroke-width:0.352778" />
    <path
       style="fill:none;stroke:#af60d0;stroke-width:0.32;stroke-dasharray:none;stroke-opacity:1"
       id="path1"
       sodipodi:type="arc"
       sodipodi:cx="138.05807"
       sodipodi:cy="-144.99034"
       sodipodi:rx="3.8975208"
       sodipodi:ry="3.8979681"
       sodipodi:start="0.62958798"
       sodipodi:end="5.4583468"
       sodipodi:arc-type="arc"
       d="m 141.20832,-142.69517 a 3.8975208,3.8979681 0 0 1 -4.17473,1.46572 3.8975208,3.8979681 0 0 1 -2.85448,-3.38096 3.8975208,3.8979681 0 0 1 2.14437,-3.87058 3.8975208,3.8979681 0 0 1 4.37975,0.62783"
       transform="matrix(-0.09758952,0.99522675,-0.99522805,-0.09757628,0,0)"
       sodipodi:open="true" />
    <path
       style="fill:none;stroke:#6dd060;stroke-width:0.27;stroke-dasharray:none;stroke-opacity:1"
       d="m 134.41533,150.06169 1.00937,-0.3908 m 0.26315,0.79985"
       id="path2"
       sodipodi:nodetypes="cc" />
    <path
       style="fill:none;stroke:#6dd060;stroke-width:0.27;stroke-dasharray:none;stroke-opacity:1"
       d="m 127.23072,150.05794 -1.00937,-0.3908 m -0.26315,0.79985"
       id="path2-5"
       sodipodi:nodetypes="cc" />
    <path
       style="fill:none;stroke:#6dd060;stroke-width:0.27;stroke-dasharray:none;stroke-opacity:1"
       d="m 133.00172,148.27613 0.58696,-0.85122"
       id="path2-6"
       sodipodi:nodetypes="cc" />
    <path
       style="fill:none;stroke:#6dd060;stroke-width:0.27;stroke-dasharray:none;stroke-opacity:1"
       d="m 128.64342,148.269 -0.58696,-0.85121"
       id="path2-6-9"
       sodipodi:nodetypes="cc" />
    <path
       style="fill:none;stroke:#6dd060;stroke-width:0.27;stroke-dasharray:none;stroke-opacity:1"
       d="m 134.62759,152.3403 1.04841,0.2413"
       id="path2-4"
       sodipodi:nodetypes="cc" />
    <path
       style="fill:none;stroke:#6dd060;stroke-width:0.27;stroke-dasharray:none;stroke-opacity:1"
       d="m 127.02035,152.33518 -1.04841,0.2413"
       id="path2-4-1"
       sodipodi:nodetypes="cc" />
    <path
       style="fill:none;stroke:#6dd060;stroke-width:0.27;stroke-dasharray:none;stroke-opacity:1"
       d="m 130.82374,146.58256 0.002,1.05365"
       id="path2-4-1-6"
       sodipodi:nodetypes="cc" />
    <path
       style="fill:none;stroke:#6dd060;stroke-width:0.27;stroke-dasharray:none;stroke-opacity:1"
       d="m 133.54978,154.40637 0.68253,0.7405"
       id="path2-4-4"
       sodipodi:nodetypes="cc" />
    <path
       style="fill:none;stroke:#6dd060;stroke-width:0.27;stroke-dasharray:none;stroke-opacity:1"
       d="m 128.0987,154.40696 -0.68253,0.7405"
       id="path2-4-4-7"
       sodipodi:nodetypes="cc" />
  </g>
</svg>
