<?xml version="1.0" encoding="UTF-8" standalone="no"?>
<!-- Created with Inkscape (http://www.inkscape.org/) -->

<svg
   width="59.528"
   height="59.528"
   viewBox="0 0 15.750116 15.750117"
   version="1.1"
   id="svg2322"
   inkscape:version="1.1.1 (3bf5ae0d25, 2021-09-20)"
   sodipodi:docname="large_knob_overlay2.svg"
   xmlns:inkscape="http://www.inkscape.org/namespaces/inkscape"
   xmlns:sodipodi="http://sodipodi.sourceforge.net/DTD/sodipodi-0.dtd"
   xmlns="http://www.w3.org/2000/svg"
   xmlns:svg="http://www.w3.org/2000/svg">
  <sodipodi:namedview
     id="namedview2324"
     pagecolor="#ffffff"
     bordercolor="#666666"
     borderopacity="1.0"
     inkscape:pageshadow="2"
     inkscape:pageopacity="0.0"
     inkscape:pagecheckerboard="false"
     inkscape:document-units="mm"
     showgrid="false"
     units="px"
     inkscape:zoom="12.443434"
     inkscape:cx="10.447277"
     inkscape:cy="43.316017"
     inkscape:window-width="3840"
     inkscape:window-height="2066"
     inkscape:window-x="2869"
     inkscape:window-y="-11"
     inkscape:window-maximized="1"
     inkscape:current-layer="layer1" />
  <defs
     id="defs2319" />
  <g
     inkscape:label="Layer 1"
     inkscape:groupmode="layer"
     id="layer1">
    <path
       d="m 7.6243908,1.9897713 c 0.00582,-2.646e-4 0.010319,-0.00529 0.010054,-0.011112 v -0.00106 c -2.646e-4,-0.011113 0.047096,-0.096573 0.082815,-0.15875 0.023019,-0.040217 0.065881,-0.065352 0.1124479,-0.065352 h 0.091281 c 0.046567,0 0.089429,0.024871 0.1124479,0.065352 0.035719,0.062442 0.083079,0.1476375 0.082815,0.15875 v 0.00106 c -2.646e-4,0.00582 0.00423,0.010848 0.010054,0.011112 L 8.364166,2.004588 c 0.00582,2.646e-4 0.010848,-0.00397 0.011377,-0.00979 V 1.99374 C 8.376603,1.9826275 8.43428,1.9040462 8.4776721,1.8466317 8.5057181,1.80959 8.5512261,1.7902754 8.5975284,1.7960963 l 0.090752,0.011377 c 0.046038,0.00582 0.08546,0.035983 0.1034521,0.078846 0.027517,0.06641 0.064029,0.1568979 0.062177,0.1680104 l -5.291e-4,0.00106 c -0.00106,0.00582 0.00291,0.011112 0.00847,0.012171 l 0.2338917,0.044715 c 0.0058,0.00106 0.01111,-0.00265 0.01243,-0.0082 l 2.65e-4,-0.00106 c 0.0024,-0.010848 0.06959,-0.081756 0.119591,-0.1330854 0.03281,-0.033602 0.08043,-0.047096 0.125677,-0.035719 l 0.08864,0.022754 c 0.04498,0.011642 0.08043,0.046302 0.0926,0.091281 0.01905,0.069321 0.04392,0.1637771 0.04075,0.1743604 l -2.65e-4,0.00106 c -0.0016,0.00556 0.0013,0.011377 0.0069,0.013229 l 0.226484,0.073554 c 0.0056,0.00185 0.01138,-0.00106 0.01349,-0.00661 l 2.65e-4,-0.00106 c 0.0037,-0.010583 0.07938,-0.072496 0.135467,-0.1172104 0.03625,-0.029104 0.08546,-0.036512 0.1285869,-0.019315 l 0.08493,0.033602 c 0.04313,0.017198 0.07382,0.056092 0.08043,0.1021292 0.01032,0.071173 0.02302,0.1680104 0.01852,0.1780645 l -5.3e-4,0.00106 c -0.0024,0.00529 0,0.011377 0.0053,0.014023 l 0.215636,0.1013354 c 0.0053,0.00238 0.01138,2.646e-4 0.01402,-0.00503 l 5.3e-4,-0.00106 c 0.005,-0.00979 0.08784,-0.061913 0.14896,-0.099219 0.03969,-0.024342 0.08916,-0.0254 0.12991,-0.00291 l 0.08017,0.043921 c 0.04075,0.02249 0.06641,0.064823 0.0672,0.1113896 0.0013,0.071702 0.0019,0.1695979 -0.004,0.1791229 l -5.3e-4,0.00106 c -0.0029,0.00503 -0.0016,0.011377 0.0034,0.014552 l 0.201083,0.1275292 c 0.0048,0.00317 0.01138,0.00185 0.01455,-0.00318 l 5.3e-4,-0.00106 c 0.0061,-0.00926 0.09472,-0.050271 0.160337,-0.079904 0.04233,-0.01905 0.09181,-0.014023 0.129381,0.013229 l 0.07382,0.05371 c 0.03757,0.027252 0.05768,0.07276 0.05265,0.1187979 -0.0077,0.071438 -0.01958,0.1685396 -0.02646,0.1772708 l -2.65e-4,0.00159 c -0.0037,0.0045 -0.0029,0.011113 0.0016,0.014817 l 0.183621,0.1518709 c 0.0045,0.0037 0.01111,0.00318 0.01482,-0.00132 l 7.94e-4,-7.938e-4 c 0.0074,-0.0082 0.100277,-0.0381 0.169069,-0.059002 0.04445,-0.013494 0.09287,-0.00238 0.126735,0.029369 l 0.06668,0.062706 c 0.03387,0.03175 0.04815,0.079375 0.03731,0.1246187 -0.01667,0.06985 -0.04048,0.1645708 -0.04842,0.1725083 l -7.94e-4,7.939e-4 c -0.0042,0.00397 -0.0042,0.010583 -2.65e-4,0.014817 l 0.162984,0.1735667 c 0.004,0.00423 0.01058,0.0045 0.01482,5.292e-4 l 7.94e-4,-7.939e-4 c 0.0082,-0.00741 0.104246,-0.025135 0.175154,-0.037306 0.04577,-0.00794 0.09234,0.00926 0.121973,0.044979 l 0.05821,0.070379 c 0.02963,0.035719 0.03784,0.084667 0.02143,0.1283228 -0.0254,0.067204 -0.06085,0.1582208 -0.06959,0.1651 l -0.0011,7.939e-4 c -0.0045,0.00344 -0.0056,0.010054 -0.0021,0.014817 l 0.139965,0.1928813 c 0.0034,0.00476 0.01005,0.00582 0.01482,0.00238 l 0.0011,-5.291e-4 c 0.009,-0.00635 0.106627,-0.011906 0.178329,-0.015081 0.0463,-0.00212 0.09049,0.020637 0.115358,0.06006 l 0.04895,0.077258 c 0.02487,0.039158 0.02672,0.0889 0.005,0.1299104 -0.0336,0.0635 -0.08017,0.1494896 -0.08969,0.1550458 l -0.0011,5.292e-4 c -0.005,0.00291 -0.0069,0.00926 -0.004,0.014288 l 0.114829,0.2087561 c 0.0029,0.00503 0.0093,0.00688 0.01429,0.00423 l 0.0011,-5.292e-4 c 0.0098,-0.00503 0.10742,0.00159 0.178858,0.00741 0.0463,0.0037 0.08705,0.032015 0.106892,0.074083 l 0.03889,0.082815 c 0.01984,0.042069 0.01561,0.091546 -0.01111,0.1296459 -0.04127,0.058737 -0.09816,0.1381125 -0.108479,0.1426104 l -0.0011,5.291e-4 c -0.0053,0.00238 -0.0079,0.00847 -0.0058,0.013758 l 0.08758,0.2214562 c 0.0021,0.00529 0.0082,0.0082 0.01376,0.00609 l 0.0011,-5.291e-4 c 0.01032,-0.0037 0.106363,0.015081 0.176477,0.029633 0.04551,0.00953 0.08255,0.042598 0.09684,0.086783 l 0.02831,0.087048 c 0.01429,0.044185 0.004,0.092869 -0.02725,0.1272645 -0.04815,0.053181 -0.114829,0.1248834 -0.125412,0.1277938 l -0.0011,2.646e-4 c -0.0056,0.00159 -0.009,0.00741 -0.0074,0.012965 l 0.05927,0.2307165 c 0.0016,0.00556 0.0071,0.009 0.0127,0.00767 l 0.0011,-2.645e-4 c 0.01085,-0.00238 0.103452,0.02831 0.17145,0.051594 0.04392,0.015081 0.07647,0.052652 0.0852,0.09816 l 0.0172,0.089694 c 0.0087,0.045508 -0.0077,0.092339 -0.04313,0.1227666 -0.05451,0.046831 -0.129382,0.1095375 -0.140494,0.111125 l -0.0011,2.647e-4 c -0.0058,7.938e-4 -0.0098,0.00609 -0.009,0.011906 l 0.0299,0.236273 c 7.93e-4,0.00582 0.0058,0.00979 0.01164,0.00926 h 0.0011 c 0.01111,-0.00106 0.09922,0.04101 0.163777,0.07276 0.0418,0.020638 0.06932,0.061648 0.07223,0.1082146 l 0.0058,0.091281 c 0.0029,0.046302 -0.01932,0.090752 -0.05794,0.1164167 -0.06006,0.039423 -0.142081,0.09234 -0.153194,0.092604 h -0.0011 c -0.0058,0 -0.01032,0.00476 -0.01032,0.010583 v 0.238125 c 0,0.00582 0.0045,0.010583 0.01032,0.010583 h 0.0011 c 0.01111,2.646e-4 0.0934,0.053181 0.153194,0.092604 0.03889,0.025665 0.06085,0.06985 0.05794,0.1164167 l -0.0058,0.091281 c -0.0029,0.046302 -0.03043,0.087577 -0.07223,0.1082146 -0.06456,0.03175 -0.152665,0.073819 -0.163777,0.07276 h -0.0011 c -0.0058,-5.292e-4 -0.01111,0.00344 -0.01164,0.00926 l -0.02937,0.2354792 c -7.94e-4,0.00582 0.0032,0.011113 0.009,0.011906 l 0.0011,2.646e-4 c 0.01085,0.00159 0.08599,0.064294 0.140494,0.111125 0.03519,0.030163 0.05186,0.076994 0.04313,0.1227667 l -0.0172,0.089694 c -0.0087,0.045773 -0.04128,0.083079 -0.0852,0.09816 -0.068,0.023283 -0.160602,0.053975 -0.17145,0.051594 l -0.0011,-2.646e-4 c -0.0056,-0.00132 -0.01138,0.00212 -0.0127,0.00767 l -0.05927,0.2307167 c -0.0016,0.00556 0.0019,0.011377 0.0074,0.012965 l 0.0011,2.646e-4 c 0.01058,0.00291 0.07726,0.074612 0.125412,0.1277937 0.03122,0.034396 0.0418,0.082815 0.02725,0.1272646 l -0.02831,0.086783 c -0.01429,0.044185 -0.05133,0.077258 -0.09684,0.086783 -0.07038,0.014817 -0.166158,0.033602 -0.176477,0.029633 l -0.0011,-2.646e-4 c -0.0056,-0.00212 -0.01138,7.938e-4 -0.01376,0.00609 l -0.08749,0.2214565 c -0.0021,0.0053 5.29e-4,0.01138 0.0058,0.01376 l 0.0011,5.29e-4 c 0.01032,0.0042 0.0672,0.08361 0.108479,0.142611 0.02672,0.0381 0.03096,0.08758 0.01111,0.129645 l -0.03889,0.08255 c -0.01984,0.04207 -0.06059,0.07038 -0.106892,0.07408 -0.0717,0.0058 -0.169069,0.01244 -0.178858,0.0074 l -0.0011,-5.29e-4 c -0.005,-0.0026 -0.01138,-7.94e-4 -0.01429,0.0042 l -0.114829,0.208756 c -0.0029,0.005 -0.0011,0.01138 0.004,0.01429 l 0.0011,5.3e-4 c 0.0095,0.0056 0.05609,0.09155 0.08969,0.155045 0.02169,0.04101 0.01984,0.09075 -0.005,0.129911 l -0.04895,0.07726 c -0.02487,0.03916 -0.06906,0.06218 -0.115359,0.06006 -0.0717,-0.0032 -0.169333,-0.009 -0.178329,-0.01508 l -0.0011,-7.94e-4 c -0.0048,-0.0032 -0.01138,-0.0021 -0.01482,0.0024 l -0.139992,0.192619 c -0.0034,0.0048 -0.0024,0.01138 0.0021,0.01482 l 0.0011,7.94e-4 c 0.0087,0.0066 0.04419,0.0979 0.06959,0.1651 0.0164,0.04339 0.0082,0.09234 -0.02143,0.128323 l -0.05821,0.07038 c -0.02963,0.03572 -0.0762,0.05292 -0.121973,0.04498 -0.07064,-0.01217 -0.166952,-0.03016 -0.175154,-0.03731 l -8.23e-4,-7.94e-4 c -0.0042,-0.004 -0.01085,-0.0037 -0.01482,5.29e-4 l -0.16298,0.173567 c -0.004,0.0042 -0.0037,0.01085 2.65e-4,0.01482 l 7.94e-4,7.94e-4 c 0.0079,0.0077 0.03175,0.102658 0.04842,0.172508 0.01085,0.04524 -0.0034,0.09287 -0.03731,0.124618 l -0.06668,0.06244 c -0.03387,0.03175 -0.08228,0.04313 -0.126735,0.02937 -0.06879,-0.0209 -0.161661,-0.0508 -0.169069,-0.059 l -7.94e-4,-7.94e-4 c -0.0037,-0.0045 -0.01032,-0.005 -0.01482,-0.0013 l -0.183621,0.151871 c -0.0045,0.0037 -0.0053,0.01032 -0.0016,0.01482 l 7.94e-4,0.0011 c 0.0069,0.0087 0.01852,0.105833 0.02646,0.177006 0.005,0.0463 -0.01508,0.09155 -0.05265,0.118798 l -0.07382,0.05371 c -0.03757,0.02725 -0.08705,0.03228 -0.129382,0.01323 -0.06562,-0.02937 -0.154252,-0.07064 -0.160337,-0.07991 l -5.29e-4,-0.0011 c -0.0032,-0.0048 -0.0098,-0.0061 -0.01455,-0.0032 l -0.201084,0.127794 c -0.005,0.0032 -0.0064,0.0095 -0.0034,0.01455 l 5.29e-4,0.0011 c 0.0056,0.0095 0.0053,0.107157 0.004,0.179123 -7.94e-4,0.04657 -0.02646,0.0889 -0.06721,0.11139 l -0.08017,0.04392 c -0.04075,0.02249 -0.09022,0.02117 -0.129911,-0.0029 -0.06138,-0.03731 -0.144198,-0.08943 -0.14896,-0.09922 l -5.29e-4,-0.0011 c -0.0026,-0.0053 -0.0087,-0.0074 -0.01402,-0.005 l -0.215636,0.101335 c -0.0053,0.0024 -0.0077,0.0087 -0.0053,0.01402 l 5.29e-4,0.0011 c 0.0045,0.01005 -0.0082,0.106891 -0.01852,0.178064 -0.0066,0.04604 -0.03731,0.08493 -0.08043,0.102129 l -0.08493,0.0336 c -0.04313,0.0172 -0.09234,0.0098 -0.1285879,-0.01932 -0.05609,-0.04472 -0.131762,-0.106627 -0.135467,-0.11721 l -2.64e-4,-0.0011 c -0.0019,-0.0056 -0.0079,-0.0085 -0.01349,-0.0066 l -0.226483,0.07355 c -0.0056,0.0019 -0.0085,0.0077 -0.0069,0.01323 l 2.64e-4,0.0011 c 0.0032,0.01058 -0.0217,0.10504 -0.04075,0.174361 -0.01243,0.04471 -0.04763,0.07964 -0.0926,0.09128 l -0.08864,0.02275 c -0.04498,0.01164 -0.09287,-0.0019 -0.125148,-0.03519 -0.05001,-0.05159 -0.117475,-0.122503 -0.119592,-0.133086 l -2.64e-4,-0.0011 c -0.0013,-0.0056 -0.0066,-0.0093 -0.01244,-0.0082 l -0.2338916,0.04471 c -0.00582,0.0011 -0.00953,0.0066 -0.00847,0.01217 l 2.646e-4,0.0011 c 0.00185,0.01085 -0.034661,0.1016 -0.062177,0.168011 -0.017992,0.04286 -0.057415,0.07302 -0.1034521,0.07885 l -0.090752,0.01138 c -0.046038,0.0058 -0.09181,-0.01349 -0.1198562,-0.05054 -0.043127,-0.05741 -0.1010709,-0.13626 -0.1021292,-0.147108 v -0.0011 c -5.292e-4,-0.0058 -0.00556,-0.01005 -0.011377,-0.0098 l -0.2378604,0.01482 c -0.00582,2.64e-4 -0.010319,0.0053 -0.010054,0.01111 v 0.0011 c 2.646e-4,0.01111 -0.047096,0.09657 -0.082815,0.15875 -0.023019,0.04022 -0.065881,0.06535 -0.1124479,0.06535 h -0.091281 c -0.046567,0 -0.089429,-0.02487 -0.1124479,-0.06535 -0.035719,-0.06244 -0.083079,-0.147638 -0.082815,-0.15875 v -0.0011 c 2.646e-4,-0.0058 -0.00423,-0.01085 -0.010054,-0.01111 L 7.387867,13.745488 c -0.00582,-2.64e-4 -0.010848,0.004 -0.011377,0.0098 v 0.0011 c -0.00106,0.01111 -0.058737,0.08969 -0.1021291,0.147108 -0.028046,0.03704 -0.073554,0.05636 -0.1198563,0.05054 l -0.090752,-0.01138 c -0.046038,-0.0058 -0.08546,-0.03598 -0.1034521,-0.07885 -0.027517,-0.06641 -0.064029,-0.156898 -0.062177,-0.168011 l 2.645e-4,-0.0011 c 0.00106,-0.0058 -0.00291,-0.01111 -0.00847,-0.01217 l -0.2338917,-0.04471 c -0.00582,-0.0011 -0.011112,0.0026 -0.012435,0.0082 l -2.646e-4,0.0011 c -0.00238,0.01085 -0.069585,0.08176 -0.1195916,0.133086 -0.032279,0.03334 -0.080169,0.04683 -0.125148,0.03519 l -0.088635,-0.02275 c -0.044979,-0.01164 -0.080433,-0.0463 -0.092604,-0.09128 -0.01905,-0.06932 -0.043921,-0.163777 -0.040746,-0.174361 l 2.646e-4,-0.0011 c 0.00159,-0.0056 -0.00132,-0.01138 -0.00688,-0.01323 L 5.9435034,13.43912 c -0.00556,-0.0019 -0.011377,0.0011 -0.013494,0.0066 l -2.646e-4,0.0011 c -0.0037,0.01032 -0.079375,0.07223 -0.1354667,0.11721 -0.036248,0.0291 -0.08546,0.03651 -0.1285875,0.01932 l -0.084931,-0.0336 c -0.043127,-0.0172 -0.073819,-0.05609 -0.080433,-0.102129 -0.010319,-0.07117 -0.023019,-0.16801 -0.018521,-0.178064 l 5.292e-4,-0.0011 c 0.00238,-0.0053 0,-0.01164 -0.00529,-0.01402 L 5.2613971,13.153071 c -0.00529,-0.0024 -0.011377,-2.65e-4 -0.014023,0.005 l -5.292e-4,0.0011 c -0.00503,0.0098 -0.087842,0.06191 -0.1489604,0.09922 -0.039687,0.02434 -0.089165,0.0254 -0.1299104,0.0029 l -0.080169,-0.04392 c -0.040746,-0.02249 -0.06641,-0.06482 -0.067204,-0.11139 -0.00132,-0.0717 -0.00185,-0.169598 0.00397,-0.179123 l 5.292e-4,-0.0011 c 0.00291,-0.005 0.00159,-0.01138 -0.00344,-0.01455 l -0.201084,-0.12776 c -0.00476,-0.0032 -0.011377,-0.0019 -0.014552,0.0032 l -5.292e-4,0.0011 c -0.00609,0.0093 -0.094721,0.05027 -0.1603375,0.07991 -0.042333,0.01905 -0.09181,0.01402 -0.1293812,-0.01323 l -0.073819,-0.05371 c -0.037571,-0.02725 -0.057679,-0.07276 -0.052652,-0.118798 0.00767,-0.07144 0.019579,-0.168539 0.026194,-0.177006 l 7.937e-4,-0.0011 c 0.0037,-0.0045 0.00291,-0.01111 -0.00159,-0.01482 L 4.0310846,12.337096 c -0.0045,-0.0037 -0.011113,-0.0032 -0.014817,0.0013 l -7.937e-4,7.94e-4 c -0.00714,0.0085 -0.1002771,0.0381 -0.1690688,0.059 -0.04445,0.01349 -0.092869,0.0024 -0.1267354,-0.02937 l -0.066675,-0.06244 c -0.033867,-0.03175 -0.048154,-0.07938 -0.037306,-0.124618 0.016669,-0.06985 0.040481,-0.164571 0.048419,-0.172509 l 7.938e-4,-7.93e-4 c 0.00423,-0.004 0.00423,-0.01058 2.646e-4,-0.01482 L 3.5021825,11.8201 c -0.00397,-0.0042 -0.010583,-0.0045 -0.014817,-5.29e-4 l -7.938e-4,7.94e-4 c -0.0082,0.0074 -0.1042458,0.02513 -0.1751542,0.03731 -0.045773,0.0079 -0.092339,-0.0093 -0.1219729,-0.04498 l -0.058208,-0.07038 c -0.029633,-0.03572 -0.037835,-0.08467 -0.021431,-0.128323 0.025136,-0.0672 0.060854,-0.158221 0.069585,-0.1651 l 0.00106,-7.94e-4 c 0.0045,-0.0034 0.00556,-0.01005 0.00212,-0.01482 L 3.0426013,11.240663 c -0.00344,-0.0048 -0.010054,-0.0058 -0.014817,-0.0024 l -0.00106,7.94e-4 c -0.009,0.0063 -0.1066271,0.01191 -0.1783292,0.01508 -0.046302,0.0021 -0.090488,-0.0209 -0.1153583,-0.06006 l -0.048948,-0.07726 c -0.024871,-0.03916 -0.026723,-0.0889 -0.00503,-0.129911 0.033602,-0.0635 0.080169,-0.149489 0.089694,-0.155046 l 0.00106,-5.29e-4 c 0.00503,-0.0029 0.00688,-0.0093 0.00397,-0.01429 L 2.6589554,10.608309 c -0.00265,-0.005 -0.00926,-0.0071 -0.014287,-0.0042 l -0.00106,5.29e-4 c -0.00979,0.005 -0.1074208,-0.0016 -0.1788583,-0.0074 -0.046302,-0.0037 -0.087048,-0.03201 -0.1068917,-0.07408 l -0.038894,-0.08255 c -0.021959,-0.04207 -0.017726,-0.09155 0.009,-0.129383 0.041275,-0.05874 0.09816,-0.138113 0.1084792,-0.142611 l 0.00106,-5.29e-4 c 0.00529,-0.0024 0.00794,-0.0085 0.00582,-0.01376 L 2.3554784,9.9328274 c -0.00212,-0.00529 -0.0082,-0.0082 -0.013758,-0.00609 l -0.00106,2.646e-4 C 2.3303414,9.930702 2.2342979,9.911921 2.1641833,9.897369 2.1186753,9.887839 2.0816333,9.854771 2.0673463,9.810586 L 2.0390363,9.723803 C 2.0247483,9.679618 2.0350663,9.630934 2.0662883,9.5965384 2.1144423,9.5433574 2.1811175,9.4716551 2.1917008,9.4687446 l 0.00106,-2.645e-4 c 0.00556,-0.00159 0.009,-0.00741 0.00741,-0.012965 l -0.05927,-0.2307127 c -0.00132,-0.00556 -0.00714,-0.009 -0.0127,-0.00767 l -0.00106,2.646e-4 C 2.1162928,9.219777 2.0236887,9.189087 1.9556908,9.165803 1.9117698,9.150722 1.8792258,9.113151 1.8704948,9.067643 L 1.8532968,8.977685 c -0.00873,-0.045773 0.00767,-0.09234 0.043127,-0.1227667 0.054504,-0.046831 0.1293812,-0.1095375 0.1404937,-0.111125 l 0.00106,-2.646e-4 c 0.00582,-7.937e-4 0.00979,-0.00609 0.009,-0.011906 L 2.0170763,8.4953462 c -5.292e-4,-0.00582 -0.00582,-0.00979 -0.011642,-0.00926 h -0.00106 C 1.9932638,8.4871441 1.9051575,8.4450753 1.8405992,8.4133253 1.798795,8.3929524 1.7712784,8.3516774 1.768368,8.3051108 l -0.00582,-0.091281 c -0.00291,-0.046302 0.019315,-0.090752 0.057944,-0.1164167 0.06006,-0.039423 0.1420812,-0.092339 0.1531937,-0.092604 h 0.00106 c 0.00582,0 0.010319,-0.00476 0.010319,-0.010583 V 7.7561004 c 0,-0.00582 -0.0045,-0.010583 -0.010319,-0.010583 h -0.00106 C 1.9625721,7.7452524 1.8802867,7.6923358 1.8204909,7.6529129 1.7815971,7.6272483 1.7596367,7.5827983 1.7625471,7.5364962 l 0.00582,-0.091281 c 0.00291,-0.046302 0.030427,-0.087577 0.072231,-0.1082145 0.064558,-0.03175 0.1526646,-0.073819 0.1637771,-0.072761 h 0.00106 c 0.00582,0.00106 0.011113,-0.00317 0.011642,-0.009 l 0.029898,-0.2362729 c 7.938e-4,-0.00582 -0.00318,-0.011113 -0.009,-0.011906 l -0.00106,-2.645e-4 c -0.010848,-0.00159 -0.08599,-0.064294 -0.1404937,-0.111125 -0.03519,-0.030163 -0.051858,-0.076994 -0.043127,-0.1227667 l 0.017198,-0.089694 c 0.00873,-0.045508 0.041275,-0.083079 0.085196,-0.09816 0.067998,-0.023283 0.160602,-0.053975 0.17145,-0.051594 l 0.00106,2.646e-4 c 0.00556,0.00132 0.011377,-0.00212 0.0127,-0.00767 l 0.059267,-0.2307167 c 0.00132,-0.00556 -0.00185,-0.011377 -0.00741,-0.012965 l -0.00106,-2.646e-4 C 2.181118,6.2791962 2.114443,6.2074941 2.0662888,6.1543129 2.035068,6.119917 2.0244846,6.0714983 2.0390367,6.0270483 l 0.02831,-0.087048 c 0.014288,-0.044185 0.051329,-0.077258 0.096837,-0.086783 0.070379,-0.014817 0.1661584,-0.033602 0.1764771,-0.029633 l 0.00106,5.292e-4 c 0.00556,0.00212 0.011377,-7.938e-4 0.013758,-0.00609 l 0.087577,-0.2214563 c 0.00212,-0.00529 -5.292e-4,-0.011642 -0.00582,-0.013758 L 2.4361758,5.58228 C 2.4261218,5.57805 2.3689718,5.498675 2.3276971,5.4396733 2.3009741,5.4015733 2.2967411,5.3520963 2.3165851,5.3100275 l 0.038894,-0.082815 c 0.019844,-0.042069 0.06059,-0.070379 0.1068916,-0.074083 0.071702,-0.00582 0.1690688,-0.012436 0.1788584,-0.00741 l 0.00106,5.292e-4 c 0.00503,0.00265 0.011377,7.937e-4 0.014288,-0.00423 L 2.7714034,4.9332608 c 0.00291,-0.00503 0.00106,-0.011377 -0.00397,-0.014288 l -0.00106,-5.287e-4 c -0.00953,-0.00556 -0.056092,-0.091546 -0.089694,-0.1550458 -0.021696,-0.041275 -0.019844,-0.090752 0.00503,-0.1299104 l 0.048948,-0.077258 c 0.024871,-0.039158 0.069056,-0.062177 0.1153584,-0.060061 0.071702,0.00318 0.1693333,0.009 0.1783291,0.015081 l 0.00106,5.292e-4 c 0.00476,0.00344 0.011377,0.00212 0.014817,-0.00238 l 0.1399598,-0.192882 c 0.00344,-0.00476 0.00238,-0.011113 -0.00212,-0.014817 l -0.00106,-7.938e-4 c -0.00873,-0.00661 -0.044185,-0.097896 -0.069585,-0.1651 -0.016404,-0.043656 -0.0082,-0.092339 0.021431,-0.1283229 l 0.058208,-0.070379 c 0.029633,-0.035719 0.0762,-0.052917 0.1219729,-0.044979 0.070644,0.012171 0.1669521,0.030163 0.1751542,0.037306 l 7.937e-4,7.937e-4 c 0.00423,0.00397 0.010848,0.0037 0.014817,-5.292e-4 L 3.6627846,3.7561296 c 0.00397,-0.00423 0.0037,-0.010848 -2.646e-4,-0.014817 l -7.937e-4,-7.934e-4 c -0.00794,-0.00794 -0.03175,-0.1026584 -0.048419,-0.1725084 -0.010848,-0.045244 0.00344,-0.092869 0.037306,-0.1246187 l 0.066675,-0.062706 c 0.033867,-0.03175 0.082285,-0.043127 0.1267354,-0.029369 0.068792,0.020902 0.161925,0.0508 0.1690687,0.059002 l 7.938e-4,7.937e-4 c 0.0037,0.0045 0.010319,0.00503 0.014817,0.00132 L 4.2123242,3.260565 c 0.0045,-0.0037 0.00529,-0.010319 0.00159,-0.014817 l -7.938e-4,-7.937e-4 c -0.00688,-0.00873 -0.018521,-0.1058334 -0.026194,-0.1772709 -0.00503,-0.046302 0.015081,-0.091546 0.052652,-0.1187979 l 0.073819,-0.05371 c 0.037571,-0.027252 0.087048,-0.032279 0.1293813,-0.013229 0.065617,0.029369 0.154252,0.070644 0.1603375,0.079904 l 5.291e-4,0.00106 c 0.00317,0.00476 0.00979,0.00635 0.014552,0.00318 l 0.201081,-0.1275288 c 0.00476,-0.00318 0.00635,-0.00953 0.00344,-0.014552 l -5.291e-4,-0.00106 c -0.00556,-0.00953 -0.00529,-0.1071562 -0.00397,-0.1791229 7.938e-4,-0.046567 0.026458,-0.0889 0.067204,-0.1113896 l 0.080169,-0.043921 c 0.040746,-0.02249 0.090223,-0.021167 0.1299104,0.00291 0.061383,0.037306 0.144198,0.089429 0.1489605,0.099219 l 5.291e-4,0.00106 c 0.00265,0.00529 0.009,0.00741 0.014023,0.00503 L 5.4746512,2.49539 c 0.00529,-0.00238 0.00767,-0.00873 0.00529,-0.014023 l -5.292e-4,-0.00106 c -0.0045,-0.010054 0.0082,-0.1071562 0.018521,-0.1780645 0.00661,-0.046037 0.037306,-0.084931 0.080433,-0.1021292 l 0.084931,-0.033602 c 0.043127,-0.017198 0.092339,-0.00979 0.1285875,0.019315 0.056092,0.044715 0.1317625,0.1066271 0.1354666,0.1172104 l 2.646e-4,0.00106 c 0.00185,0.00556 0.00794,0.00847 0.013496,0.00661 L 6.167595,2.2371567 c 0.00556,-0.00185 0.00847,-0.00767 0.00688,-0.013229 l -2.646e-4,-0.00106 c -0.00317,-0.010583 0.021696,-0.1050395 0.040746,-0.1743604 0.012435,-0.044715 0.047625,-0.07964 0.092604,-0.091281 l 0.088635,-0.022754 c 0.044979,-0.011642 0.092869,0.00185 0.1251479,0.03519 0.050006,0.051594 0.117475,0.1225021 0.1195917,0.1330854 l 2.645e-4,0.00106 c 0.00132,0.00556 0.00661,0.00926 0.012436,0.0082 l 0.2338916,-0.044715 c 0.00582,-0.00106 0.00953,-0.00662 0.00847,-0.012171 l -2.646e-4,-0.00106 c -0.00185,-0.010848 0.03466,-0.1016 0.062177,-0.1680104 0.017992,-0.042863 0.057415,-0.073025 0.1034521,-0.078846 l 0.090752,-0.011377 c 0.046037,-0.00582 0.09181,0.013494 0.1198562,0.050535 0.043127,0.057415 0.1010708,0.1362604 0.1021292,0.1471084 v 0.00106 c 5.291e-4,0.00582 0.00556,0.010054 0.011377,0.00979 z M 2.6078909,7.8754274 c 0,2.9090936 2.3582312,5.2675896 5.2675895,5.2675896 2.9090936,0 5.2673246,-2.358231 5.2673246,-5.2675896 0,-2.9093583 -2.358231,-5.2675894 -5.2673246,-5.2675894 -2.9090937,0 -5.2675895,2.3582311 -5.2675895,5.2675894 z"
       id="path6"
       style="stroke:#000000;stroke-width:0.264583;stroke-opacity:1" />
    <rect
       x="7.4070101"
       y="3.1236722"
       width="0.93583125"
       height="3.967427"
       id="rect8"
       style="fill:#000000;fill-opacity:1;stroke:#000000;stroke-width:0.264583;stroke-opacity:1" />
    <circle
       cx="7.8896112"
       cy="0.90408111"
       r="0.44026667"
       id="circle10"
       style="stroke:#000000;stroke-width:0.264583;stroke-opacity:1" />
  </g>
</svg>
