<?xml version="1.0" encoding="UTF-8" standalone="no"?>
<!-- Created with Inkscape (http://www.inkscape.org/) -->

<svg
   width="59.528"
   height="59.528"
   viewBox="0 0 15.750116 15.750117"
   version="1.1"
   id="svg2322"
   inkscape:version="1.1.1 (3bf5ae0d25, 2021-09-20)"
   sodipodi:docname="large_knob_overlay2.svg"
   xmlns:inkscape="http://www.inkscape.org/namespaces/inkscape"
   xmlns:sodipodi="http://sodipodi.sourceforge.net/DTD/sodipodi-0.dtd"
   xmlns="http://www.w3.org/2000/svg"
   xmlns:svg="http://www.w3.org/2000/svg">
  <sodipodi:namedview
     id="namedview2324"
     pagecolor="#ffffff"
     bordercolor="#666666"
     borderopacity="1.0"
     inkscape:pageshadow="2"
     inkscape:pageopacity="0.0"
     inkscape:pagecheckerboard="false"
     inkscape:document-units="mm"
     showgrid="false"
     units="px"
     inkscape:zoom="12.443434"
     inkscape:cx="38.654924"
     inkscape:cy="53.441839"
     inkscape:window-width="3840"
     inkscape:window-height="2066"
     inkscape:window-x="2869"
     inkscape:window-y="-11"
     inkscape:window-maximized="1"
     inkscape:current-layer="layer1" />
  <defs
     id="defs2319" />
  <g
     inkscape:label="Layer 1"
     inkscape:groupmode="layer"
     id="layer1">
    <path
       d="m 7.6126211,1.722082 c 0.00611,-2.766e-4 0.010804,-0.00553 0.010526,-0.011618 v -0.00111 c -2.769e-4,-0.011619 0.049309,-0.1009647 0.086707,-0.1659691 0.024101,-0.042045 0.068977,-0.068325 0.1177322,-0.068325 h 0.09557 c 0.048756,0 0.093632,0.026002 0.117732,0.068325 0.037398,0.065281 0.086983,0.1543512 0.086707,0.1659691 v 0.00111 c -2.77e-4,0.00609 0.00443,0.011341 0.010525,0.011618 l 0.2490381,0.015491 c 0.00611,2.767e-4 0.011359,-0.00414 0.011911,-0.01024 V 1.726223 C 8.4001894,1.714605 8.4605664,1.63245 8.505998,1.5724251 8.535362,1.5336981 8.583008,1.5135061 8.6314867,1.5195911 l 0.095018,0.011895 c 0.048201,0.00609 0.089477,0.037619 0.1083136,0.082431 0.02881,0.06943 0.067037,0.1640327 0.065099,0.1756505 l -5.54e-4,0.00112 c -0.00112,0.0061 0.00305,0.011618 0.00887,0.012724 l 0.244883,0.046748 c 0.00607,0.00111 0.011633,-0.00276 0.013014,-0.00857 l 2.774e-4,-0.00111 c 0.00251,-0.011341 0.072861,-0.085474 0.1252109,-0.1391373 0.034352,-0.03513 0.08421,-0.049238 0.1315829,-0.037343 l 0.092806,0.023789 c 0.047094,0.012171 0.08421,0.048407 0.096952,0.095432 0.019946,0.072464 0.045984,0.1712165 0.042665,0.1822811 l -2.774e-4,0.00111 c -0.00168,0.00582 0.00136,0.011895 0.00722,0.01383 l 0.2371272,0.0769 c 0.00586,0.00194 0.011915,-0.00111 0.014124,-0.00691 l 2.78e-4,-0.00111 c 0.0039,-0.011065 0.0831,-0.075792 0.1418267,-0.1225405 0.03795,-0.030427 0.08948,-0.038172 0.13463,-0.020193 l 0.08892,0.035131 c 0.04516,0.01798 0.07729,0.058643 0.08422,0.1067734 0.0108,0.07441 0.02411,0.1756506 0.01938,0.1861618 l -5.54e-4,0.00111 c -0.0024,0.00553 0,0.011895 0.0055,0.014661 l 0.225769,0.1059434 c 0.0055,0.00249 0.01192,2.766e-4 0.01468,-0.00525 l 5.53e-4,-0.00111 c 0.0052,-0.01024 0.09197,-0.064728 0.155962,-0.1037306 0.04155,-0.025449 0.09335,-0.026556 0.136015,-0.00304 l 0.08394,0.045918 c 0.04267,0.023513 0.06954,0.067771 0.07036,0.1164549 0.0013,0.074962 0.0019,0.1773103 -0.0042,0.1872684 l -5.54e-4,0.00111 c -0.0029,0.00525 -0.0016,0.011895 0.0036,0.015215 l 0.210559,0.1333286 c 0.005,0.00331 0.01192,0.00194 0.01524,-0.00332 l 5.56e-4,-0.00111 c 0.0063,-0.00968 0.09917,-0.052557 0.167872,-0.083537 0.04432,-0.019916 0.09612,-0.014661 0.13546,0.013831 l 0.07729,0.056154 c 0.03933,0.028492 0.06038,0.076069 0.05512,0.1242 -0.008,0.074687 -0.0205,0.1762038 -0.0277,0.1853321 l -2.77e-4,0.00167 c -0.0039,0.0047 -0.0029,0.011618 0.0016,0.015491 l 0.19225,0.158777 c 0.0047,0.00387 0.01163,0.00332 0.01551,-0.00138 l 8.31e-4,-8.297e-4 c 0.0077,-0.00857 0.104989,-0.039832 0.177013,-0.061685 0.04654,-0.014107 0.09724,-0.00249 0.132692,0.030704 l 0.06981,0.065557 c 0.03547,0.033194 0.05041,0.082984 0.03907,0.1302856 -0.01745,0.073027 -0.04238,0.1720547 -0.05069,0.1803531 l -8.31e-4,8.3e-4 c -0.0044,0.00414 -0.0044,0.011064 -2.78e-4,0.015491 l 0.170644,0.1814595 c 0.0042,0.00442 0.01107,0.0047 0.01551,5.532e-4 l 8.32e-4,-8.3e-4 c 0.0086,-0.00774 0.109146,-0.026278 0.183386,-0.039002 0.04792,-0.0083 0.09667,0.00968 0.127704,0.047024 l 0.06094,0.07358 c 0.03102,0.037343 0.03962,0.088517 0.02244,0.1341582 -0.02661,0.07026 -0.06372,0.1654157 -0.07286,0.1726077 l -0.0011,8.3e-4 c -0.0047,0.00361 -0.0058,0.010511 -0.0021,0.015491 l 0.146542,0.2016422 c 0.0036,0.00498 0.01051,0.0061 0.01551,0.00249 l 0.0011,-5.531e-4 c 0.0094,-0.00663 0.111637,-0.012446 0.186709,-0.015766 0.04848,-0.00221 0.09474,0.021576 0.120779,0.062791 l 0.05125,0.080771 c 0.02604,0.040939 0.02798,0.092942 0.0052,0.1358179 -0.03517,0.066387 -0.08394,0.1562874 -0.09391,0.1620964 l -0.0011,5.531e-4 c -0.0052,0.00304 -0.0072,0.00968 -0.0042,0.014937 l 0.120224,0.2182492 c 0.0029,0.00525 0.0099,0.00719 0.01496,0.00442 l 0.0011,-5.531e-4 c 0.0103,-0.00525 0.112467,0.00167 0.187263,0.00774 0.04848,0.00387 0.09114,0.03347 0.111915,0.077451 l 0.04073,0.086582 c 0.02076,0.043982 0.01635,0.095708 -0.01163,0.1355414 -0.04321,0.061409 -0.102775,0.144393 -0.113577,0.1490954 l -0.0011,5.533e-4 c -0.0055,0.00249 -0.0082,0.00886 -0.006,0.014384 l 0.09169,0.2315268 c 0.0021,0.00553 0.0086,0.00857 0.01441,0.00637 l 0.0011,-5.531e-4 c 0.0108,-0.00387 0.111361,0.015766 0.18477,0.030981 0.04766,0.00997 0.08642,0.044535 0.101385,0.090729 l 0.02963,0.091007 c 0.01496,0.046194 0.0042,0.097093 -0.02854,0.1330518 -0.05041,0.055599 -0.120223,0.1305622 -0.131305,0.133605 l -0.0011,2.767e-4 c -0.0058,0.00167 -0.0094,0.00774 -0.0077,0.013555 l 0.06205,0.2412082 c 0.0016,0.00582 0.0074,0.00941 0.0133,0.00803 l 0.0011,-2.764e-4 c 0.01137,-0.00249 0.108312,0.029598 0.179506,0.05394 0.04599,0.015766 0.08006,0.055046 0.08921,0.1026235 l 0.018,0.093773 c 0.0091,0.047577 -0.008,0.096537 -0.04516,0.1283493 -0.05707,0.048961 -0.135462,0.1145186 -0.147096,0.1161781 l -0.0011,2.769e-4 c -0.006,8.299e-4 -0.0103,0.00637 -0.0094,0.012446 l 0.0313,0.2470172 c 8.31e-4,0.0061 0.006,0.01024 0.01218,0.00968 h 0.0011 c 0.01163,-0.00112 0.103879,0.042874 0.171474,0.076069 0.04375,0.021577 0.07257,0.064451 0.07562,0.1131355 l 0.006,0.095432 c 0.0029,0.048407 -0.02024,0.094879 -0.06066,0.1217107 -0.06288,0.041215 -0.148759,0.096538 -0.160392,0.096815 h -0.0011 c -0.006,0 -0.01081,0.00498 -0.01081,0.011064 V 8.000442 c 0,0.00608 0.0047,0.011064 0.01081,0.011064 h 0.0011 c 0.01163,2.767e-4 0.09779,0.055599 0.160392,0.096815 0.04073,0.026832 0.06371,0.073027 0.06066,0.1217107 l -0.006,0.095432 c -0.0029,0.048407 -0.03187,0.09156 -0.07562,0.1131355 -0.0676,0.033194 -0.15984,0.077176 -0.171474,0.076069 h -0.0011 c -0.006,-5.532e-4 -0.01163,0.00361 -0.01218,0.00968 l -0.03075,0.2461815 c -8.31e-4,0.0061 0.0034,0.011619 0.0094,0.012447 l 0.0011,2.765e-4 c 0.01137,0.00167 0.09003,0.067217 0.147098,0.1161783 0.03685,0.031534 0.0543,0.080496 0.04516,0.1283495 l -0.01801,0.093773 c -0.0091,0.047855 -0.04322,0.086857 -0.0892,0.1026236 -0.07118,0.024341 -0.168148,0.05643 -0.179507,0.05394 l -0.0011,-2.765e-4 c -0.0058,-0.00138 -0.01192,0.00221 -0.0133,0.00803 l -0.06205,0.2412083 c -0.0016,0.00582 0.0019,0.011895 0.0077,0.013555 l 0.0011,2.767e-4 c 0.01107,0.00304 0.08088,0.078006 0.131306,0.133605 0.03269,0.03596 0.04375,0.086582 0.02854,0.1330518 l -0.02963,0.090729 c -0.01496,0.046194 -0.05374,0.080771 -0.101385,0.090729 -0.07369,0.01549 -0.173966,0.03513 -0.184771,0.03098 l -0.0011,-2.76e-4 c -0.0058,-0.0022 -0.01192,8.3e-4 -0.01441,0.0064 l -0.0916,0.23152 c -0.0021,0.0055 5.54e-4,0.0119 0.006,0.01438 l 0.0011,5.53e-4 c 0.0108,0.0044 0.07036,0.08741 0.113577,0.149095 0.02798,0.03983 0.03242,0.09157 0.01163,0.135541 l -0.04073,0.0863 c -0.02076,0.04399 -0.06344,0.07359 -0.111915,0.07745 -0.07507,0.006 -0.177013,0.013 -0.187262,0.0077 l -0.0011,-5.04e-4 c -0.0052,-0.0026 -0.01192,-8.31e-4 -0.01496,0.0044 l -0.120224,0.218249 c -0.0029,0.0052 -0.0011,0.0119 0.0042,0.01494 l 0.0011,5.54e-4 c 0.01006,0.0058 0.05873,0.09572 0.09391,0.162096 0.02271,0.04288 0.02077,0.09487 -0.0052,0.135818 l -0.05125,0.08077 c -0.02604,0.04094 -0.0723,0.06502 -0.12078,0.06279 -0.07507,-0.0034 -0.177291,-0.0093 -0.186709,-0.01577 l -0.0011,-8.29e-4 c -0.005,-0.0034 -0.01192,-0.0021 -0.01551,0.0024 l -0.146571,0.201404 c -0.0036,0.005 -0.0024,0.0119 0.0021,0.01549 l 0.0011,8.3e-4 c 0.0091,0.0069 0.04626,0.102349 0.07286,0.172609 0.01717,0.04537 0.0086,0.09655 -0.02244,0.134158 l -0.06094,0.07358 c -0.03102,0.03734 -0.07978,0.05532 -0.127704,0.04702 -0.07397,-0.01273 -0.174798,-0.03153 -0.183385,-0.03901 l -8.62e-4,-8.3e-4 c -0.0044,-0.0042 -0.01137,-0.0039 -0.01551,5.52e-4 l -0.170639,0.181461 c -0.0042,0.0044 -0.0039,0.01135 2.77e-4,0.01549 l 8.31e-4,8.3e-4 c 0.0082,0.008 0.03324,0.107327 0.05069,0.180352 0.01137,0.0473 -0.0036,0.0971 -0.03906,0.130285 l -0.06982,0.06528 c -0.03547,0.0332 -0.08615,0.04508 -0.132692,0.03071 -0.07203,-0.02185 -0.169258,-0.05312 -0.177014,-0.06167 l -8.32e-4,-8.3e-4 c -0.0039,-0.0047 -0.0108,-0.0052 -0.01551,-0.0013 L 11.71045,12.69877 c -0.0047,0.0039 -0.0055,0.01079 -0.0016,0.01549 l 8.31e-4,0.0011 c 0.0072,0.009 0.01938,0.110645 0.0277,0.185054 0.0052,0.04841 -0.01579,0.09572 -0.05512,0.124201 l -0.07729,0.05616 c -0.03934,0.02848 -0.09113,0.03375 -0.135464,0.01384 -0.0687,-0.03071 -0.1615,-0.07385 -0.167871,-0.08353 l -5.53e-4,-0.0011 c -0.0034,-0.005 -0.0103,-0.0063 -0.01524,-0.0034 l -0.210535,0.133605 c -0.0052,0.0034 -0.0067,0.01 -0.0036,0.01522 l 5.53e-4,0.0011 c 0.0058,0.01 0.0055,0.112028 0.0042,0.187267 -8.32e-4,0.04869 -0.0277,0.09294 -0.07037,0.116455 l -0.08393,0.04592 c -0.04267,0.02351 -0.09446,0.02214 -0.136016,-0.0029 -0.06425,-0.03901 -0.150975,-0.0935 -0.155961,-0.103732 l -5.52e-4,-0.0011 c -0.0026,-0.0055 -0.0091,-0.0077 -0.01468,-0.0052 l -0.225767,0.105943 c -0.0055,0.0024 -0.008,0.009 -0.0055,0.01466 l 5.53e-4,0.0011 c 0.0047,0.0105 -0.0086,0.111752 -0.01938,0.186159 -0.0069,0.04813 -0.03907,0.0888 -0.08422,0.106775 l -0.08892,0.03513 c -0.04516,0.01798 -0.09667,0.01024 -0.134631,-0.0202 -0.05873,-0.04676 -0.1379537,-0.111475 -0.1418327,-0.122539 l -2.76e-4,-0.0011 c -0.002,-0.0058 -0.0083,-0.0088 -0.01412,-0.0069 l -0.2371266,0.07689 c -0.00586,0.0019 -0.0089,0.008 -0.00722,0.01384 l 2.765e-4,0.0011 c 0.00335,0.01106 -0.022719,0.109817 -0.042665,0.18229 -0.013015,0.04674 -0.049868,0.08326 -0.096952,0.09543 l -0.092805,0.02378 c -0.047094,0.01218 -0.097234,-0.0019 -0.131029,-0.03676 -0.052361,-0.05393 -0.1229954,-0.128076 -0.1252118,-0.13914 l -2.763e-4,-0.0011 c -0.00136,-0.0058 -0.00691,-0.0098 -0.013025,-0.0085 l -0.2448827,0.04664 c -0.00611,0.0011 -0.00999,0.0069 -0.00887,0.01273 l 2.77e-4,0.0011 c 0.00194,0.01135 -0.036289,0.10622 -0.065099,0.17565 -0.018837,0.04481 -0.060113,0.07634 -0.1083135,0.08245 l -0.095018,0.0119 c -0.048199,0.006 -0.096123,-0.0141 -0.1254873,-0.05284 C 8.4622766,14.117677 8.40161,14.03525 8.400502,14.023908 v -0.0011 c -5.539e-4,-0.006 -0.00582,-0.0105 -0.011911,-0.01024 l -0.2490381,0.01549 c -0.00611,2.77e-4 -0.010804,0.0055 -0.010527,0.01161 v 0.0011 c 2.771e-4,0.01161 -0.049309,0.100968 -0.086707,0.165969 -0.0241,0.04206 -0.068977,0.06832 -0.1177321,0.06832 h -0.09557 c -0.048756,0 -0.093632,-0.02601 -0.1177321,-0.06832 -0.037398,-0.06528 -0.086983,-0.154353 -0.086707,-0.165969 v -0.0011 c 2.772e-4,-0.006 -0.00443,-0.01135 -0.010525,-0.01161 l -0.2490391,-0.01549 c -0.00611,-2.77e-4 -0.011359,0.0042 -0.011911,0.01024 v 0.0011 c -0.00112,0.01161 -0.061497,0.09377 -0.1069286,0.153799 -0.029364,0.03871 -0.07701,0.05892 -0.1254886,0.05282 l -0.095031,-0.0119 c -0.048201,-0.006 -0.089477,-0.03762 -0.1083136,-0.08245 -0.02881,-0.06942 -0.067037,-0.164032 -0.065099,-0.17565 l 2.768e-4,-0.0011 c 0.00112,-0.006 -0.00305,-0.01161 -0.00887,-0.01273 l -0.2448829,-0.04674 c -0.00611,-0.0011 -0.011635,0.0026 -0.013019,0.0085 l -2.77e-4,0.0011 c -0.00249,0.01135 -0.072855,0.08548 -0.1252115,0.139139 -0.033796,0.03484 -0.083936,0.04895 -0.1310292,0.03679 l -0.0928,-0.02378 C 6.189336,14.049546 6.152216,14.013296 6.139473,13.966276 6.119527,13.893806 6.093488,13.795051 6.096812,13.783985 l 2.77e-4,-0.0011 c 0.00167,-0.0058 -0.00138,-0.0119 -0.0072,-0.01384 l -0.2371406,-0.07696 c -0.00582,-0.0019 -0.011911,0.0011 -0.014128,0.0069 l -2.771e-4,0.0011 c -0.00387,0.01079 -0.083105,0.07551 -0.1418327,0.122539 -0.037951,0.03043 -0.089476,0.03817 -0.1346302,0.0202 l -0.088921,-0.0352 c -0.045154,-0.01796 -0.077288,-0.05861 -0.084213,-0.106751 -0.010804,-0.0744 -0.024101,-0.17565 -0.019391,-0.186161 l 5.539e-4,-0.0011 c 0.00249,-0.0055 0,-0.01216 -0.00554,-0.01465 l -0.2257854,-0.10592 c -0.00554,-0.0024 -0.011911,-2.79e-4 -0.014682,0.0052 l -5.54e-4,0.0011 c -0.00526,0.01024 -0.09197,0.06473 -0.1559605,0.103731 -0.041552,0.02545 -0.093355,0.02656 -0.1360152,0.0029 l -0.083935,-0.04592 c -0.042661,-0.02351 -0.06953,-0.06777 -0.070361,-0.116454 -0.00138,-0.07496 -0.00194,-0.177311 0.00414,-0.187269 l 5.541e-4,-0.0011 c 0.00305,-0.0052 0.00167,-0.0119 -0.00361,-0.01522 L 4.4676469,13.00653 c -0.00499,-0.0034 -0.011911,-0.0019 -0.015236,0.0034 l -5.54e-4,0.0011 c -0.00638,0.0098 -0.099172,0.05255 -0.1678722,0.08354 -0.044323,0.01992 -0.096124,0.01466 -0.1354613,-0.01384 l -0.077288,-0.05616 c -0.039337,-0.02848 -0.06039,-0.07608 -0.055126,-0.124201 0.00804,-0.07469 0.020499,-0.176203 0.027426,-0.185054 l 8.31e-4,-0.0011 c 0.00387,-0.0047 0.00305,-0.01161 -0.00167,-0.01549 l -0.192244,-0.158776 c -0.00471,-0.0039 -0.011636,-0.0034 -0.015513,0.0013 l -8.31e-4,8.3e-4 c -0.00748,0.0088 -0.1049893,0.03983 -0.1770138,0.06167 -0.046539,0.0141 -0.097233,0.0024 -0.132691,-0.03071 l -0.069808,-0.06527 c -0.035458,-0.0332 -0.050417,-0.08299 -0.039059,-0.130285 0.017452,-0.07302 0.042384,-0.172054 0.050695,-0.180353 l 8.31e-4,-8.29e-4 c 0.00443,-0.0042 0.00443,-0.01106 2.772e-4,-0.01549 L 3.2966964,11.999414 c -0.00414,-0.0044 -0.011079,-0.0047 -0.015512,-5.53e-4 l -8.312e-4,8.31e-4 c -0.00858,0.0077 -0.1091447,0.02627 -0.1833853,0.039 -0.047924,0.0082 -0.096678,-0.0098 -0.1277047,-0.04702 l -0.060943,-0.07359 c -0.031026,-0.03734 -0.039612,-0.08851 -0.022439,-0.134158 0.026316,-0.07026 0.063714,-0.165417 0.072855,-0.172608 l 0.00112,-8.31e-4 c 0.00471,-0.0036 0.00582,-0.0105 0.00221,-0.01549 L 2.815521,11.393641 c -0.00361,-0.005 -0.010525,-0.006 -0.015512,-0.0024 l -0.00112,8.29e-4 c -0.00942,0.0066 -0.1116377,0.01245 -0.1867093,0.01577 -0.048477,0.0021 -0.09474,-0.02185 -0.1207793,-0.06279 l -0.051248,-0.08077 c -0.026039,-0.04094 -0.027978,-0.09294 -0.00526,-0.135817 0.035182,-0.0664 0.083935,-0.156287 0.093908,-0.162097 l 0.00112,-5.53e-4 c 0.00526,-0.0029 0.0072,-0.0098 0.00414,-0.01494 L 2.4138437,10.732539 c -0.00277,-0.0052 -0.0097,-0.0074 -0.014959,-0.0044 l -0.00112,5.52e-4 c -0.01025,0.0052 -0.1124687,-0.0016 -0.1872632,-0.0077 -0.048478,-0.0039 -0.091139,-0.03346 -0.1119149,-0.07745 l -0.040722,-0.0863 c -0.022991,-0.04399 -0.018559,-0.09571 0.00942,-0.135267 0.043214,-0.06141 0.1027729,-0.144393 0.1135769,-0.149095 l 0.00112,-5.53e-4 c 0.00554,-0.0024 0.00831,-0.0088 0.00611,-0.01439 L 2.0961065,10.0263 c -0.00221,-0.0055 -0.00858,-0.0086 -0.014404,-0.0063 l -0.00112,2.79e-4 c -0.010804,0.0038 -0.1113607,-0.01582 -0.1847702,-0.03102 -0.047647,-0.0099 -0.08643,-0.04453 -0.1013881,-0.090729 l -0.029635,-0.090718 c -0.01496,-0.046194 -0.00414,-0.097092 0.028533,-0.1330519 0.050417,-0.055599 0.1202254,-0.1305622 0.131306,-0.1336051 l 0.00112,-2.764e-4 c 0.00582,-0.00167 0.00942,-0.00774 0.00776,-0.013555 l -0.06206,-0.2412047 c -0.00138,-0.00582 -0.00748,-0.00941 -0.013297,-0.00803 l -0.00112,2.767e-4 C 1.8456752,9.2808554 1.7487192,9.2487734 1.677526,9.2244304 1.63154,9.2086644 1.597467,9.1693844 1.588326,9.1218069 L 1.570324,9.0277579 C 1.561194,8.9799029 1.578364,8.9312199 1.615479,8.8994085 1.672544,8.8504475 1.7509401,8.7848899 1.7625749,8.78323 l 0.00112,-2.765e-4 c 0.00611,-8.298e-4 0.01025,-0.00637 0.00942,-0.012447 l -0.031311,-0.247021 c -5.541e-4,-0.00609 -0.00611,-0.01024 -0.01219,-0.00968 h -0.00112 C 1.7168598,8.5149177 1.6246146,8.4709355 1.5570225,8.4377418 1.5132535,8.416443 1.4844435,8.3732897 1.4813975,8.3246063 l -0.00611,-0.095432 c -0.00305,-0.048407 0.020223,-0.094879 0.060667,-0.1217106 0.062882,-0.041215 0.148758,-0.096537 0.1603927,-0.096815 h 0.00112 c 0.00611,0 0.010804,-0.00498 0.010804,-0.011064 V 7.7506294 c 0,-0.0061 -0.00471,-0.011064 -0.010804,-0.011064 h -0.00112 C 1.6847376,7.7392881 1.598586,7.6839648 1.5359803,7.642749 1.4952585,7.6159168 1.4722663,7.5694457 1.4753134,7.5210384 l 0.00611,-0.095432 c 0.00305,-0.048407 0.031857,-0.09156 0.075625,-0.1131354 0.067592,-0.033194 0.1598387,-0.077176 0.1714735,-0.076069 h 0.00112 c 0.00611,0.00111 0.011636,-0.00331 0.012189,-0.00941 l 0.031295,-0.2470112 c 8.311e-4,-0.0061 -0.00333,-0.011618 -0.00942,-0.012446 l -0.00113,-2.77e-4 C 1.7512116,6.9655848 1.6725384,6.9000332 1.6154737,6.8510727 1.5786301,6.8195385 1.5611791,6.7705769 1.5703203,6.7227233 l 0.018007,-0.093773 c 0.00913,-0.047577 0.043214,-0.086857 0.0892,-0.1026237 0.071192,-0.024341 0.1681482,-0.05643 0.179506,-0.05394 l 0.00112,2.767e-4 c 0.00582,0.00138 0.011911,-0.00221 0.013297,-0.00803 l 0.062047,-0.2412065 c 0.00138,-0.00582 -0.00194,-0.011895 -0.00776,-0.013555 l -0.00112,-2.769e-4 C 1.9135513,6.2065724 1.8437433,6.131602 1.7933266,6.0760022 1.7606386,6.0400423 1.7495576,5.9894203 1.7647936,5.9429504 l 0.029639,-0.091007 c 0.01496,-0.046194 0.053742,-0.080771 0.1013881,-0.090729 0.073686,-0.015491 0.1739667,-0.035131 0.1847702,-0.030981 l 0.00112,5.533e-4 c 0.00582,0.00221 0.011911,-8.299e-4 0.014405,-0.00637 L 2.1878059,5.49289 c 0.00221,-0.00553 -5.542e-4,-0.012171 -0.00611,-0.014384 l -0.00111,-5.509e-4 c -0.010514,-0.00442 -0.07035,-0.087406 -0.1135641,-0.1490904 -0.027979,-0.039832 -0.032412,-0.09156 -0.011635,-0.1355414 l 0.040722,-0.086582 c 0.020777,-0.043982 0.063438,-0.07358 0.111915,-0.077451 0.075072,-0.0061 0.1770138,-0.013002 0.1872634,-0.00774 l 0.00112,5.533e-4 c 0.00526,0.00276 0.011911,8.298e-4 0.01496,-0.00442 L 2.5315787,4.7994294 c 0.00305,-0.00525 0.00112,-0.011895 -0.00414,-0.014937 l -0.00112,-5.527e-4 c -0.00999,-0.00582 -0.05873,-0.095708 -0.09391,-0.1620964 -0.022715,-0.043152 -0.020777,-0.09488 0.00526,-0.1358181 l 0.051248,-0.080771 c 0.026039,-0.040939 0.072301,-0.065005 0.1207793,-0.062792 0.075072,0.00332 0.1772908,0.00941 0.1867094,0.015766 l 0.00112,5.533e-4 c 0.00499,0.00361 0.011911,0.00221 0.015512,-0.00249 l 0.1465328,-0.201658 c 0.00361,-0.00498 0.00249,-0.011618 -0.00221,-0.015491 l -0.00112,-8.298e-4 c -0.00913,-0.00691 -0.046261,-0.1023482 -0.072855,-0.1726078 -0.017174,-0.045641 -0.00858,-0.096537 0.022439,-0.1341584 l 0.060944,-0.07358 c 0.031025,-0.037343 0.079781,-0.055324 0.1277046,-0.047024 0.073963,0.012724 0.1747978,0.031534 0.1833852,0.039002 l 8.31e-4,8.298e-4 c 0.00443,0.00414 0.011359,0.00387 0.015512,-5.531e-4 L 3.4648459,3.5687645 c 0.00414,-0.00442 0.00387,-0.011341 -2.77e-4,-0.015491 l -8.31e-4,-8.292e-4 c -0.00831,-0.0083 -0.033242,-0.1073268 -0.050695,-0.1803532 -0.011359,-0.047301 0.00361,-0.097093 0.039059,-0.1302855 l 0.069808,-0.065556 c 0.035458,-0.033194 0.086152,-0.045088 0.132691,-0.030704 0.072024,0.021852 0.1695344,0.05311 0.1770138,0.061685 l 8.31e-4,8.299e-4 c 0.00387,0.0047 0.010804,0.00525 0.015512,0.00138 l 0.192248,-0.1587778 c 0.00471,-0.00387 0.00554,-0.010788 0.00167,-0.015491 l -8.311e-4,-8.296e-4 c -0.0072,-0.00912 -0.019391,-0.110646 -0.027426,-0.185332 -0.00526,-0.048407 0.01579,-0.095709 0.055126,-0.1242003 l 0.077288,-0.056153 c 0.039337,-0.028492 0.091138,-0.033747 0.1354613,-0.013831 0.0687,0.030704 0.1615007,0.073856 0.1678721,0.083537 l 5.541e-4,0.00111 c 0.00332,0.00498 0.01025,0.00663 0.015236,0.00332 L 4.6756888,2.6094704 c 0.00499,-0.00332 0.00664,-0.00997 0.00361,-0.015215 l -5.54e-4,-0.00111 c -0.00582,-0.00997 -0.00554,-0.1120292 -0.00414,-0.1872684 8.311e-4,-0.048685 0.027701,-0.092942 0.070361,-0.1164549 l 0.083935,-0.045918 c 0.042661,-0.023512 0.094462,-0.022129 0.1360151,0.00304 0.064268,0.039002 0.1509743,0.093496 0.1559606,0.1037308 l 5.54e-4,0.00111 c 0.00277,0.00553 0.00942,0.00774 0.014682,0.00525 L 5.3618708,2.2506931 c 0.00554,-0.00249 0.00804,-0.00912 0.00554,-0.014661 l -5.543e-4,-0.00111 c -0.00471,-0.010511 0.00858,-0.112029 0.019391,-0.1861618 0.00692,-0.04813 0.039059,-0.088794 0.084213,-0.1067733 l 0.088921,-0.035131 c 0.045155,-0.01798 0.096678,-0.01024 0.1346301,0.020194 0.058729,0.046748 0.1379545,0.1114758 0.1418325,0.1225404 l 2.771e-4,0.00111 c 0.00194,0.00582 0.00831,0.00886 0.01413,0.00691 l 0.2371274,-0.076895 c 0.00582,-0.00194 0.00887,-0.00803 0.0072,-0.01383 l -2.771e-4,-0.00111 c -0.00333,-0.011065 0.022707,-0.109816 0.042652,-0.1822891 0.01302,-0.046749 0.049862,-0.083262 0.096956,-0.095432 l 0.0928,-0.023789 c 0.047093,-0.012171 0.097233,0.00194 0.1310289,0.03679 0.052357,0.053941 0.1229956,0.128073 0.1252118,0.1391373 l 2.768e-4,0.00112 c 0.00138,0.00582 0.00692,0.00968 0.013021,0.00857 l 0.2448828,-0.046749 c 0.00611,-0.00111 0.00999,-0.00692 0.00887,-0.012725 l -2.77e-4,-0.00113 c -0.00194,-0.011341 0.036288,-0.1062203 0.065099,-0.1756507 0.018838,-0.044812 0.060113,-0.076346 0.1083136,-0.082431 l 0.095017,-0.011895 c 0.0482,-0.0061 0.096124,0.014108 0.1254886,0.052834 0.045154,0.060026 0.1058204,0.1424566 0.1069286,0.1537981 v 0.00112 c 5.538e-4,0.00609 0.00582,0.010511 0.011911,0.01024 z M 2.3603823,7.8753827 c 0,3.0413813 2.4690508,5.5071283 5.5151278,5.5071283 3.0457989,0 5.5148509,-2.465471 5.5148509,-5.5071283 0,-3.0416586 -2.469052,-5.507128 -5.5148509,-5.507128 -3.0457998,0 -5.5151278,2.4654694 -5.5151278,5.507128 z"
       id="path6"
       style="fill:#000000;fill-opacity:1;stroke:none;stroke-width:0.276815;stroke-opacity:1" />
    <rect
       x="7.4070101"
       y="3.1236722"
       width="0.93583125"
       height="3.967427"
       id="rect8"
       style="fill:#000000;fill-opacity:1;stroke:none;stroke-width:0.264583;stroke-opacity:1" />
    <circle
       cx="7.8896112"
       cy="0.50426668"
       r="0.44026667"
       id="circle10"
       style="stroke:none;stroke-width:0.264583;stroke-opacity:1" />
  </g>
</svg>
