<?xml version="1.0" encoding="utf-8"?>
<!-- Generator: Adobe Illustrator 26.1.0, SVG Export Plug-In . SVG Version: 6.00 Build 0)  -->
<svg version="1.1" id="Ebene_1" xmlns="http://www.w3.org/2000/svg" xmlns:xlink="http://www.w3.org/1999/xlink" x="0px" y="0px"
	 viewBox="0 0 34.583 34.583" style="enable-background:new 0 0 34.583 34.583;" xml:space="preserve">
<style type="text/css">
	.st0{fill:#313131;}
	.st1{fill:#F3EDE7;}
</style>
<g>
	<polygon class="st0" points="17.291,0.85 17.207,1.032 18.466,1.616 19.709,1.252 20.789,1.966 22.072,1.791 23.034,2.658 
		24.329,2.677 25.151,3.678 26.429,3.889 27.092,5.001 28.324,5.401 28.815,6.599 29.973,7.178 30.28,8.436 31.339,9.181 
		31.448,10.396 31.454,10.471 32.391,11.365 32.317,12.583 32.313,12.658 33.105,13.682 32.835,14.948 33.466,16.079 33.011,17.291 
		33.466,18.503 32.836,19.634 33.105,20.901 32.313,21.925 32.391,23.217 31.454,24.112 31.339,25.401 30.28,26.146 29.973,27.405 
		28.815,27.983 28.324,29.182 27.093,29.581 26.429,30.693 25.151,30.905 24.329,31.905 23.11,31.923 23.035,31.924 22.073,32.791 
		20.789,32.617 19.709,33.331 18.466,32.967 17.291,33.512 16.117,32.967 14.874,33.331 13.793,32.617 12.51,32.791 11.548,31.925 
		10.254,31.906 9.432,30.905 8.154,30.693 7.49,29.582 6.259,29.182 5.768,27.984 4.61,27.405 4.303,26.147 3.244,25.402 
		3.135,24.187 3.128,24.112 2.192,23.217 2.265,22 2.27,21.925 1.478,20.901 1.747,19.634 1.116,18.504 1.572,17.291 1.116,16.079 
		1.747,14.949 1.477,13.682 2.27,12.658 2.192,11.365 3.128,10.471 3.244,9.181 4.303,8.436 4.61,7.178 5.768,6.599 6.259,5.401 
		7.49,5.001 8.154,3.889 9.431,3.678 10.253,2.677 11.473,2.659 11.548,2.658 12.51,1.792 13.793,1.966 14.874,1.252 16.116,1.616 
		17.375,1.032 17.291,0.85 17.207,1.032 17.291,0.85 17.207,0.669 16.085,1.189 14.808,0.816 13.698,1.549 12.38,1.37 11.392,2.261 
		10.155,2.279 10.062,2.28 9.218,3.308 7.906,3.525 7.224,4.667 5.959,5.078 5.455,6.309 4.265,6.903 3.95,8.196 2.862,8.961 
		2.743,10.286 1.782,11.204 1.862,12.532 1.048,13.584 1.325,14.885 0.677,16.046 1.144,17.291 0.677,18.537 1.325,19.698 
		1.048,20.999 1.862,22.051 1.787,23.286 1.782,23.379 2.743,24.297 2.862,25.622 3.95,26.387 4.265,27.68 5.455,28.274 
		5.959,29.505 7.224,29.916 7.906,31.058 9.218,31.275 10.062,32.303 11.392,32.322 12.38,33.213 13.698,33.034 14.808,33.767 
		16.085,33.393 17.291,33.953 18.498,33.393 19.775,33.767 20.885,33.034 22.203,33.212 23.191,32.322 24.428,32.304 24.521,32.303 
		25.365,31.275 26.677,31.058 27.359,29.916 28.624,29.505 29.128,28.274 30.318,27.679 30.633,26.387 31.721,25.622 31.839,24.297 
		32.801,23.378 32.721,22.051 33.535,20.999 33.258,19.698 33.906,18.536 33.438,17.291 33.906,16.046 33.258,14.885 33.535,13.584 
		32.721,12.532 32.795,11.297 32.801,11.204 31.839,10.285 31.72,8.961 30.633,8.195 30.318,6.903 29.128,6.308 28.624,5.078 
		27.359,4.667 26.677,3.525 25.365,3.308 24.52,2.28 23.19,2.26 22.202,1.37 20.884,1.549 19.774,0.816 18.498,1.189 17.291,0.63 
		17.207,0.669 	"/>
</g>
<path d="M17.291,0C7.742,0,0,7.742,0,17.291s7.742,17.291,17.291,17.291s17.291-7.742,17.291-17.291S26.841,0,17.291,0z
	 M33.32,20.95l-0.803,1.038l0.079,1.31l-0.949,0.907l-0.117,1.307l-1.073,0.755l-0.311,1.275l-1.174,0.587l-0.497,1.215
	l-1.248,0.405l-0.673,1.127l-1.295,0.215l-0.833,1.014l-1.312,0.019l-0.975,0.879l-1.301-0.177l-1.095,0.723l-1.26-0.368
	l-1.191,0.552l-1.191-0.552l-1.26,0.368l-1.095-0.723l-1.301,0.177l-0.975-0.878l-1.312-0.019L9.325,31.09L8.03,30.876l-0.673-1.127
	l-1.248-0.405l-0.497-1.215l-1.174-0.587l-0.311-1.275l-1.073-0.755l-0.117-1.307l-0.949-0.907l0.079-1.31L1.263,20.95l0.273-1.284
	l-0.64-1.146l0.462-1.229l-0.462-1.229l0.64-1.146l-0.273-1.284l0.803-1.038l-0.079-1.31l0.949-0.907l0.117-1.307l1.073-0.755
	l0.311-1.275l1.174-0.587l0.497-1.215l1.248-0.405L8.03,3.707l1.295-0.215l0.833-1.014l1.312-0.019l0.975-0.879l1.301,0.177
	l1.095-0.723l1.26,0.368l1.191-0.552l1.191,0.552l1.26-0.369l1.095,0.723l1.301-0.177l0.975,0.879l1.312,0.019l0.833,1.014
	l1.295,0.215l0.673,1.127l1.248,0.405l0.497,1.215l1.174,0.587l0.311,1.275l1.073,0.755l0.117,1.307l0.949,0.907l-0.079,1.31
	l0.803,1.038l-0.273,1.284l0.64,1.146l-0.462,1.229l0.462,1.229l-0.64,1.146L33.32,20.95z"/>
<rect x="16.169" y="2.198" class="st1" width="2.244" height="9.724"/>
</svg>
