<?xml version="1.0" encoding="UTF-8" standalone="no"?>
<!-- Generator: Adobe Illustrator 26.1.0, SVG Export Plug-In . SVG Version: 6.00 Build 0)  -->

<svg
   version="1.1"
   id="Ebene_1"
   x="0px"
   y="0px"
   width="12.2mm"
   height="12.2mm"
   viewBox="0 0 34.583 34.583"
   style="enable-background:new 0 0 34.583 34.583;"
   xml:space="preserve"
   sodipodi:docname="medium_knob.svg"
   inkscape:version="1.1.1 (3bf5ae0d25, 2021-09-20)"
   xmlns:inkscape="http://www.inkscape.org/namespaces/inkscape"
   xmlns:sodipodi="http://sodipodi.sourceforge.net/DTD/sodipodi-0.dtd"
   xmlns="http://www.w3.org/2000/svg"
   xmlns:svg="http://www.w3.org/2000/svg"><defs
   id="defs15" /><sodipodi:namedview
   id="namedview13"
   pagecolor="#ffffff"
   bordercolor="#666666"
   borderopacity="1.0"
   inkscape:pageshadow="2"
   inkscape:pageopacity="0.0"
   inkscape:pagecheckerboard="0"
   showgrid="false"
   inkscape:zoom="32"
   inkscape:cx="-3"
   inkscape:cy="15.6875"
   inkscape:window-width="3840"
   inkscape:window-height="2066"
   inkscape:window-x="2869"
   inkscape:window-y="-11"
   inkscape:window-maximized="1"
   inkscape:current-layer="Ebene_1" />
<style
   type="text/css"
   id="style2">
	.st0{fill:#616161;}
</style>
<g
   id="g6"
   style="fill:#616161;fill-opacity:1;fill-rule:evenodd">
	<polygon
   class="st0"
   points="17.291,0.85 17.207,1.032 18.466,1.616 19.709,1.252 20.789,1.966 22.072,1.791 23.034,2.658    24.329,2.677 25.151,3.678 26.429,3.889 27.092,5.001 28.324,5.401 28.815,6.599 29.973,7.178 30.28,8.436 31.339,9.181    31.448,10.396 31.454,10.471 32.391,11.365 32.317,12.583 32.313,12.658 33.105,13.682 32.835,14.948 33.466,16.079 33.011,17.291    33.466,18.503 32.836,19.634 33.105,20.901 32.313,21.925 32.391,23.217 31.454,24.112 31.339,25.402 30.28,26.147 29.973,27.405    28.815,27.983 28.324,29.182 27.093,29.581 26.429,30.693 25.151,30.905 24.329,31.905 23.11,31.923 23.035,31.924 22.073,32.791    20.789,32.617 19.709,33.331 18.466,32.967 17.291,33.512 16.117,32.967 14.874,33.331 13.793,32.617 12.51,32.791 11.548,31.925    10.254,31.906 9.432,30.905 8.154,30.693 7.49,29.582 6.259,29.182 5.768,27.984 4.61,27.405 4.303,26.147 3.244,25.402    3.135,24.187 3.128,24.112 2.192,23.218 2.265,22 2.27,21.925 1.478,20.901 1.747,19.634 1.116,18.504 1.572,17.292 1.116,16.079    1.747,14.949 1.477,13.682 2.27,12.658 2.192,11.365 3.128,10.471 3.244,9.181 4.303,8.436 4.61,7.178 5.768,6.599 6.259,5.401    7.49,5.001 8.154,3.889 9.431,3.678 10.253,2.677 11.473,2.659 11.548,2.658 12.51,1.792 13.793,1.966 14.874,1.252 16.116,1.616    17.375,1.032 17.291,0.85 17.207,1.032 17.291,0.85 17.207,0.669 16.085,1.189 14.808,0.816 13.698,1.549 12.38,1.37 11.392,2.261    10.155,2.279 10.062,2.28 9.218,3.308 7.906,3.525 7.224,4.667 5.959,5.078 5.455,6.309 4.265,6.903 3.95,8.196 2.862,8.961    2.743,10.286 1.782,11.204 1.862,12.532 1.048,13.584 1.325,14.885 0.677,16.046 1.144,17.292 0.677,18.537 1.325,19.698    1.048,20.999 1.862,22.051 1.787,23.286 1.782,23.379 2.743,24.297 2.862,25.622 3.95,26.387 4.265,27.68 5.455,28.274    5.959,29.505 7.224,29.916 7.906,31.058 9.218,31.275 10.062,32.303 11.392,32.322 12.38,33.213 13.698,33.034 14.808,33.767    16.085,33.393 17.291,33.953 18.498,33.393 19.775,33.767 20.885,33.034 22.203,33.213 23.191,32.322 24.428,32.304 24.521,32.303    25.365,31.275 26.677,31.058 27.359,29.916 28.624,29.505 29.128,28.274 30.318,27.679 30.633,26.387 31.721,25.622 31.839,24.297    32.801,23.378 32.721,22.051 33.535,20.999 33.258,19.698 33.906,18.536 33.438,17.291 33.906,16.046 33.258,14.885 33.535,13.584    32.721,12.532 32.795,11.297 32.801,11.204 31.839,10.285 31.72,8.961 30.633,8.195 30.318,6.903 29.128,6.308 28.624,5.078    27.359,4.667 26.677,3.525 25.365,3.308 24.52,2.28 23.19,2.26 22.202,1.37 20.884,1.549 19.774,0.816 18.498,1.189 17.291,0.63    17.207,0.669  "
   id="polygon4"
   style="fill:#616161;fill-opacity:1;fill-rule:evenodd" />
</g>
<path
   id="path2625"
   style="fill:#000000;fill-opacity:1;fill-rule:evenodd"
   d="M 17.2915,4.8469155e-4 C 7.7425005,4.8489155e-4 4.8484155e-4,7.7425003 4.8484155e-4,17.2915 4.8484155e-4,26.8405 7.7425005,34.582515 17.2915,34.582515 26.8405,34.582517 34.582515,26.8405 34.582515,17.2915 34.582515,7.7425003 26.8415,4.8479155e-4 17.2915,4.8469155e-4 Z m 0.002,0.84960939845 1.191406,0.55273441 1.259766,-0.3691406 1.09375,0.7226562 1.300781,-0.1757812 0.976562,0.8789062 1.310547,0.017578 0.833985,1.015625 1.294922,0.2148437 0.671875,1.1269531 1.248047,0.4042969 0.498046,1.2148437 1.173828,0.5878907 0.310547,1.2734375 1.074219,0.7558594 0.115234,1.3066409 0.949219,0.908203 -0.07813,1.308593 0.802735,1.039063 -0.273438,1.283203 0.640625,1.146484 -0.46289,1.228516 0.46289,1.228515 -0.640625,1.146485 0.273438,1.285156 -0.802735,1.037109 0.07813,1.310547 -0.949219,0.90625 -0.115234,1.306641 -1.074219,0.755859 -0.310547,1.275391 -1.173828,0.585938 -0.498046,1.214843 -1.248047,0.40625 -0.671875,1.126953 -1.294922,0.214844 -0.833985,1.013672 -1.310547,0.01953 -0.976562,0.878907 -1.300781,-0.177735 -1.09375,0.722656 -1.259766,-0.367187 -1.191406,0.550781 -1.191406,-0.550781 -1.259766,0.367187 -1.095703,-0.722656 -1.300781,0.177735 -0.974609,-0.878907 -1.3125,-0.01953 L 9.3266563,31.090328 8.0317348,30.877437 7.3579067,29.750484 6.1098598,29.344234 5.6137661,28.129391 4.4379848,27.543453 4.1274379,26.268062 3.0551723,25.512203 2.9379848,24.205562 1.9887661,23.299312 2.0688442,21.988765 1.2641567,20.951656 1.5375942,19.6665 0.89696924,18.520015 1.3598598,17.2915 0.89696924,16.062984 1.5375942,14.9165 1.2641567,13.633297 2.0668911,12.594234 1.9887661,11.285641 2.9360317,10.377438 3.0532192,9.0707973 4.1274379,8.3149379 4.4379848,7.0415004 5.6118129,6.4536097 6.1098598,5.238766 7.3559536,4.8344691 8.0317348,3.707516 9.3266563,3.4926723 10.158688,2.4790004 l 1.3125,-0.019531 0.974609,-0.8789062 1.300781,0.1777344 1.095703,-0.7226563 1.259766,0.3671875 z" />
<rect
   x="16.169"
   y="2.018"
   width="2.244"
   height="9.724"
   id="rect10" />
</svg>
