<?xml version="1.0" encoding="UTF-8" standalone="no"?>
<!-- Generator: Adobe Illustrator 26.1.0, SVG Export Plug-In . SVG Version: 6.00 Build 0)  -->

<svg
   version="1.1"
   id="Ebene_1"
   x="0px"
   y="0px"
   width="12.35mm"
   height="12.35mm"
   viewBox="0 0 35.008202 35.008202"
   xml:space="preserve"
   sodipodi:docname="medium_knob_overlay.svg"
   inkscape:version="1.1.1 (3bf5ae0d25, 2021-09-20)"
   xmlns:inkscape="http://www.inkscape.org/namespaces/inkscape"
   xmlns:sodipodi="http://sodipodi.sourceforge.net/DTD/sodipodi-0.dtd"
   xmlns="http://www.w3.org/2000/svg"
   xmlns:svg="http://www.w3.org/2000/svg"><defs
   id="defs15" /><sodipodi:namedview
   id="namedview13"
   pagecolor="#ffffff"
   bordercolor="#666666"
   borderopacity="1.0"
   inkscape:pageshadow="2"
   inkscape:pageopacity="0.0"
   inkscape:pagecheckerboard="0"
   showgrid="false"
   inkscape:zoom="32"
   inkscape:cx="34.21875"
   inkscape:cy="23.78125"
   inkscape:window-width="3840"
   inkscape:window-height="2066"
   inkscape:window-x="2869"
   inkscape:window-y="-11"
   inkscape:window-maximized="1"
   inkscape:current-layer="Ebene_1"
   inkscape:document-units="mm" />
<style
   type="text/css"
   id="style2">
	.st0{fill:#616161;}
</style>
<g
   id="g6"
   style="fill:#616161;fill-opacity:1;fill-rule:evenodd;stroke-width:0.987826"
   transform="matrix(1.0123234,0,0,1.0123236,-5.9769583e-6,-5.9751563e-6)">
	<polygon
   class="st0"
   points="18.466,32.967 17.291,33.512 16.117,32.967 14.874,33.331 13.793,32.617 12.51,32.791 11.548,31.925 10.254,31.906 9.432,30.905 8.154,30.693 7.49,29.582 6.259,29.182 5.768,27.984 4.61,27.405 4.303,26.147 3.244,25.402 3.135,24.187 3.128,24.112 2.192,23.218 2.265,22 2.27,21.925 1.478,20.901 1.747,19.634 1.116,18.504 1.572,17.292 1.116,16.079 1.747,14.949 1.477,13.682 2.27,12.658 2.192,11.365 3.128,10.471 3.244,9.181 4.303,8.436 4.61,7.178 5.768,6.599 6.259,5.401 7.49,5.001 8.154,3.889 9.431,3.678 10.253,2.677 11.473,2.659 11.548,2.658 12.51,1.792 13.793,1.966 14.874,1.252 16.116,1.616 17.375,1.032 17.291,0.85 17.207,1.032 17.291,0.85 17.207,0.669 16.085,1.189 14.808,0.816 13.698,1.549 12.38,1.37 11.392,2.261 10.155,2.279 10.062,2.28 9.218,3.308 7.906,3.525 7.224,4.667 5.959,5.078 5.455,6.309 4.265,6.903 3.95,8.196 2.862,8.961 2.743,10.286 1.782,11.204 1.862,12.532 1.048,13.584 1.325,14.885 0.677,16.046 1.144,17.292 0.677,18.537 1.325,19.698 1.048,20.999 1.862,22.051 1.787,23.286 1.782,23.379 2.743,24.297 2.862,25.622 3.95,26.387 4.265,27.68 5.455,28.274 5.959,29.505 7.224,29.916 7.906,31.058 9.218,31.275 10.062,32.303 11.392,32.322 12.38,33.213 13.698,33.034 14.808,33.767 16.085,33.393 17.291,33.953 18.498,33.393 19.775,33.767 20.885,33.034 22.203,33.213 23.191,32.322 24.428,32.304 24.521,32.303 25.365,31.275 26.677,31.058 27.359,29.916 28.624,29.505 29.128,28.274 30.318,27.679 30.633,26.387 31.721,25.622 31.839,24.297 32.801,23.378 32.721,22.051 33.535,20.999 33.258,19.698 33.906,18.536 33.438,17.291 33.906,16.046 33.258,14.885 33.535,13.584 32.721,12.532 32.795,11.297 32.801,11.204 31.839,10.285 31.72,8.961 30.633,8.195 30.318,6.903 29.128,6.308 28.624,5.078 27.359,4.667 26.677,3.525 25.365,3.308 24.52,2.28 23.19,2.26 22.202,1.37 20.884,1.549 19.774,0.816 18.498,1.189 17.291,0.63 17.207,0.669 17.291,0.85 17.207,1.032 18.466,1.616 19.709,1.252 20.789,1.966 22.072,1.791 23.034,2.658 24.329,2.677 25.151,3.678 26.429,3.889 27.092,5.001 28.324,5.401 28.815,6.599 29.973,7.178 30.28,8.436 31.339,9.181 31.448,10.396 31.454,10.471 32.391,11.365 32.317,12.583 32.313,12.658 33.105,13.682 32.835,14.948 33.466,16.079 33.011,17.291 33.466,18.503 32.836,19.634 33.105,20.901 32.313,21.925 32.391,23.217 31.454,24.112 31.339,25.402 30.28,26.147 29.973,27.405 28.815,27.983 28.324,29.182 27.093,29.581 26.429,30.693 25.151,30.905 24.329,31.905 23.11,31.923 23.035,31.924 22.073,32.791 20.789,32.617 19.709,33.331 "
   id="polygon4"
   style="fill:#616161;fill-opacity:1;fill-rule:evenodd;stroke-width:0.987826" />
</g>
<path
   id="path2625"
   style="fill:#000000;fill-opacity:1;fill-rule:evenodd;stroke-width:1"
   d="M 17.504585,4.8519029e-4 C 7.837909,4.8539274e-4 4.8534048e-4,7.837909 4.8534048e-4,17.504585 c 0,9.666676 7.83742365952,17.5041 17.50409965952,17.5041 9.666676,2e-6 17.5041,-7.837424 17.5041,-17.5041 0,-9.666676 -7.836411,-17.50409970848 -17.5041,-17.50409980971 z m 0.002,0.86007950971 1.206088,0.5595459 1.27529,-0.3736896 1.107231,0.7315618 1.31681,-0.1779475 0.988595,0.8897374 1.326699,0.017794 0.844263,1.028141 1.310879,0.2174913 0.680154,1.1408411 1.263428,0.4092793 0.504184,1.2298146 1.188293,0.5951355 0.314374,1.2891306 1.087458,0.7651743 0.116653,1.3227436 0.960917,0.919395 -0.07909,1.32472 0.812627,1.051867 -0.276806,1.299017 0.648519,1.160612 -0.468595,1.243656 0.468595,1.243655 -0.648519,1.160613 0.276806,1.300993 -0.812627,1.049891 0.07909,1.326698 -0.960917,0.917417 -0.116653,1.322743 -1.087458,0.765174 -0.314374,1.291109 -1.188293,0.593158 -0.504184,1.229814 -1.263428,0.411256 -0.680154,1.140841 -1.310879,0.217492 -0.844263,1.026164 -1.326699,0.01977 -0.988595,0.889738 -1.31681,-0.179925 -1.107231,0.731562 -1.27529,-0.371713 -1.206088,0.557569 -1.206088,-0.557569 -1.275291,0.371713 L 13.916,33.231186 12.599188,33.411111 11.61257,32.521373 10.283895,32.501603 9.4415872,31.473462 8.1307078,31.257947 7.4485757,30.117106 6.1851487,29.70585 5.6829415,28.476036 4.4926705,27.882878 4.1782965,26.591769 3.092817,25.826595 2.9741854,24.503852 2.013269,23.586435 2.0943339,22.259737 1.27973,21.209846 1.5565371,19.908853 0.90801749,18.74824 1.3766125,17.504585 0.90801749,16.260929 1.5565371,15.100317 1.27973,13.8013 2.0923567,12.749433 2.013269,11.424713 2.9722082,10.505318 3.0908398,9.1825751 4.1782965,8.4174009 4.4926705,7.1282703 5.6809641,6.5331348 6.1851487,5.3033202 7.4465986,4.8940409 8.1307078,3.7531998 9.4415872,3.5357085 10.283872,2.5095447 l 1.328675,-0.019771 0.986619,-0.8897373 1.316811,0.1799247 1.109206,-0.731562 1.275291,0.3717126 z" />
<rect
   x="16.368254"
   y="2.0428631"
   width="2.2716539"
   height="9.843832"
   id="rect10"
   style="stroke-width:1" />
</svg>
