<?xml version="1.0" encoding="UTF-8" standalone="no"?>
<!-- Generator: Adobe Illustrator 25.2.3, SVG Export Plug-In . SVG Version: 6.00 Build 0)  -->

<svg
   version="1.0"
   id="svg15246"
   x="0px"
   y="0px"
   width="50"
   height="50"
   viewBox="0 0 50.000001 49.999999"
   enable-background="new 0 0 44.80079 44.79687"
   xml:space="preserve"
   sodipodi:docname="moog_style_rotary.svg"
   inkscape:version="1.4 (86a8ad7, 2024-10-11)"
   xmlns:inkscape="http://www.inkscape.org/namespaces/inkscape"
   xmlns:sodipodi="http://sodipodi.sourceforge.net/DTD/sodipodi-0.dtd"
   xmlns="http://www.w3.org/2000/svg"
   xmlns:svg="http://www.w3.org/2000/svg"><defs
   id="defs5" />
<sodipodi:namedview
   bordercolor="#666666"
   borderopacity="1.0"
   fit-margin-bottom="0"
   fit-margin-left="0"
   fit-margin-right="0"
   fit-margin-top="0"
   id="base"
   inkscape:current-layer="g5"
   inkscape:cx="20.8125"
   inkscape:cy="12.78125"
   inkscape:document-units="mm"
   inkscape:pageopacity="0.0"
   inkscape:pageshadow="2"
   inkscape:window-height="2054"
   inkscape:window-maximized="1"
   inkscape:window-width="3840"
   inkscape:window-x="2869"
   inkscape:window-y="-11"
   inkscape:zoom="16"
   pagecolor="#ffffff"
   showgrid="false"
   units="px"
   inkscape:showpageshadow="2"
   inkscape:pagecheckerboard="0"
   inkscape:deskcolor="#d1d1d1"
   showguides="true">
	<sodipodi:guide
   position="30.762303,42.350407"
   orientation="1,0"
   id="guide6"
   inkscape:locked="false" /><sodipodi:guide
   position="14.031651,41.324471"
   orientation="1,0"
   id="guide7"
   inkscape:locked="false" /><sodipodi:guide
   position="37.896505,30.781004"
   orientation="0,-1"
   id="guide8"
   inkscape:locked="false" /><sodipodi:guide
   position="35.134369,13.987218"
   orientation="0,-1"
   id="guide9"
   inkscape:locked="false" /></sodipodi:namedview>
<g
   id="g5">


	<path
   opacity="0.47"
   fill="#242424"
   d="m 25.000051,1.674358 c 1.391471,0 2.793489,0.1258905 4.166981,0.3744124 0.08317,0.01499 0.186436,0.086658 0.283164,0.1961967 2.693792,3.0541531 6.57234,4.9313824 10.64132,5.1499357 0.139473,0.00736 0.258812,0.043597 0.319135,0.096737 2.102251,1.8524397 3.839196,4.0454942 5.162677,6.5184122 0.03763,0.07031 0.04625,0.193742 0.02311,0.32999 -0.670881,3.949852 0.269404,8.093445 2.579922,11.368595 0.08077,0.11445 0.125098,0.22726 0.121571,0.309553 -0.12146,2.837788 -0.747721,5.590837 -1.861452,8.182826 -0.03096,0.07194 -0.120924,0.154777 -0.241312,0.221266 -3.502707,1.945627 -6.149423,5.268471 -7.261446,9.116943 -0.03811,0.131616 -0.09893,0.238431 -0.162363,0.285031 -2.272204,1.666054 -4.791412,2.892289 -7.487971,3.644919 -0.01363,0.0038 -0.03712,0.0085 -0.0717,0.0085 -0.07348,0 -0.167642,-0.0218 -0.258991,-0.05995 -1.869967,-0.779072 -3.848637,-1.174189 -5.881001,-1.174189 -2.052419,0 -4.048701,0.402751 -5.933757,1.197349 -0.09155,0.0387 -0.186046,0.06076 -0.259226,0.06076 -0.02631,0 -0.05049,-0.003 -0.07004,-0.0081 C 16.156989,46.765157 13.675827,45.581704 11.43436,43.975878 11.36463,43.925948 11.301918,43.815599 11.262253,43.673624 10.149542,39.684201 7.4185749,36.272534 3.769398,34.313 3.6397909,34.243508 3.5464332,34.15877 3.5133199,34.080283 2.4599344,31.58993 1.8544317,28.94806 1.7136641,26.228808 c -0.0033,-0.06403 0.02904,-0.188295 0.1309575,-0.328092 2.4575907,-3.37297 3.4338012,-7.661808 2.6783457,-11.766715 -0.030379,-0.165135 -0.00734,-0.28531 0.021763,-0.338171 C 5.8508681,11.415295 7.5429589,9.2988081 9.5739946,7.505223 9.6382791,7.4482659 9.7601966,7.4120245 9.9081851,7.4054838 14.054451,7.224277 18.000788,5.330417 20.735316,2.2100428 20.832781,2.0988631 20.93673,2.0266483 21.020523,2.0124843 22.326114,1.7879932 23.665019,1.674358 25.000051,1.674358 m 0,-0.83711201 c -1.381917,0 -2.768467,0.11772028 -4.121233,0.35015841 C 20.52821,1.2476318 20.264934,1.4767996 20.105874,1.6582855 17.52092,4.6080674 13.790684,6.3978353 9.8716233,6.5692312 9.6305561,6.579857 9.2868233,6.641993 9.0199418,6.8777014 6.91624,8.7355879 5.1637596,10.92756 3.8109263,13.393112 3.6778929,13.635361 3.6384516,13.95228 3.6997564,14.28554 4.4138398,18.165633 3.4911105,22.219577 1.1681379,25.407802 0.9664339,25.684663 0.86331071,25.99176 0.87775242,26.271891 1.0235981,29.088974 1.6509643,31.82594 2.7424294,34.406488 c 0.138078,0.326452 0.4194681,0.530551 0.6312501,0.644186 3.4491804,1.852161 6.0305189,5.076906 7.0823415,8.847716 0.06457,0.231624 0.202173,0.550987 0.490661,0.757821 2.322158,1.663598 4.892738,2.889834 7.640368,3.644384 0.0921,0.02507 0.190187,0.03815 0.29168,0.03815 0.186236,0 0.388476,-0.04388 0.584733,-0.126716 1.781163,-0.750734 3.668039,-1.131407 5.608261,-1.131407 1.921004,0 3.791407,0.373318 5.559077,1.109876 0.195085,0.08148 0.395908,0.124261 0.580916,0.124261 0.103469,0 0.2034,-0.01308 0.296992,-0.03924 2.793947,-0.779887 5.404035,-2.050545 7.757598,-3.776268 0.273969,-0.201108 0.407616,-0.506576 0.471521,-0.727573 1.051198,-3.637844 3.552984,-6.778654 6.863752,-8.617466 0.201559,-0.111727 0.46988,-0.310647 0.604007,-0.622934 1.153931,-2.685467 1.802826,-5.537697 1.928638,-8.4774 0.01464,-0.342524 -0.140935,-0.639554 -0.274035,-0.828116 -2.183812,-3.095574 -3.072614,-7.012175 -2.438506,-10.745394 0.03876,-0.228353 0.05109,-0.5638 -0.110423,-0.865451 C 44.940582,11.053707 43.141507,8.782176 40.964034,6.8635152 40.704161,6.6346153 40.370518,6.5713966 40.136258,6.5588622 36.290299,6.3523076 32.624091,4.5780765 30.077964,1.6912454 29.920679,1.5130298 29.660806,1.2874002 29.316125,1.2250075 27.893862,0.96777966 26.441789,0.83724599 25.000051,0.83724599 Z"
   id="path3"
   style="opacity:1;fill:#323232;fill-opacity:1;stroke-width:1" />
	<path
   opacity="0.6"
   d="M 48.176363,25.708604 C 45.865867,22.43352 44.925583,18.28986 45.596464,14.340008 45.619622,14.20376 45.610939,14.08037 45.573306,14.01003 44.249847,11.537112 42.512913,9.3441014 40.410696,7.4916394 40.350317,7.4384995 40.231034,7.4022247 40.091561,7.3949028 36.022503,7.1763942 32.144022,5.2991425 29.450185,2.2449559 29.353457,2.1354505 29.250166,2.0637491 29.167065,2.0487592 27.79354,1.8002709 26.3915,1.6743357 25.000096,1.6743357 c -1.335032,0 -2.673993,0.1136798 -3.979562,0.3382379 -0.08378,0.01413 -0.187753,0.086345 -0.285162,0.1975585 -2.734528,3.1203407 -6.680887,5.0142007 -10.8271757,5.1954076 -0.1479885,0.00655 -0.2699172,0.042749 -0.3342017,0.099717 -2.0310357,1.7935405 -3.723093,3.9100833 -5.0292643,6.2906063 -0.02904,0.05288 -0.052108,0.173037 -0.021707,0.338149 0.7554332,4.104918 -0.2207885,8.393778 -2.6783346,11.766692 -0.1019178,0.13982 -0.1342833,0.26407 -0.1309575,0.328104 0.1407453,2.719263 0.7462369,5.361133 1.7996001,7.851508 0.033124,0.07843 0.1264486,0.163248 0.2561227,0.232728 3.6490988,1.959512 6.380144,5.371179 7.492859,9.360543 0.0396,0.141952 0.102353,0.252316 0.172084,0.302219 2.241434,1.605771 4.722651,2.789269 7.374335,3.517601 0.0195,0.0052 0.04368,0.0081 0.06999,0.0081 0.07322,0 0.167654,-0.02206 0.259281,-0.06072 1.885012,-0.794586 3.881305,-1.197371 5.933713,-1.197371 2.032397,0 4.011068,0.395117 5.881002,1.174211 0.09136,0.03815 0.185532,0.05995 0.259024,0.05995 0.03458,0 0.05807,-0.0047 0.07169,-0.0085 2.696549,-0.752687 5.215745,-1.978922 7.487915,-3.644998 0.06344,-0.04658 0.124317,-0.15337 0.162375,-0.28502 1.112034,-3.848427 3.758773,-7.171282 7.261423,-9.116909 0.1204,-0.06651 0.210398,-0.149363 0.241313,-0.221321 1.11373,-2.591967 1.740003,-5.345039 1.861508,-8.182759 0.0035,-0.08233 -0.0408,-0.195159 -0.121605,-0.309609 z M 25.000007,44.157058 c -10.595939,0 -19.1532348,-8.698968 -19.1532348,-19.15482 0,-10.455931 8.7510538,-19.1548987 19.1532348,-19.1548987 10.507873,0 19.153145,8.4707317 19.153145,19.1548987 0,10.63202 -8.662899,19.15482 -19.153145,19.15482 z"
   id="path4"
   sodipodi:nodetypes="sccccccsccccccccccsccscscscccccccssssss"
   style="opacity:1;fill:#0b0a0b;fill-opacity:1;stroke-width:1" />

</g>
</svg>
