<?xml version="1.0" encoding="UTF-8" standalone="no"?>
<!-- Generator: Adobe Illustrator 25.2.3, SVG Export Plug-In . SVG Version: 6.00 Build 0)  -->

<svg
   version="1.0"
   id="svg15246"
   x="0px"
   y="0px"
   width="100"
   height="100"
   viewBox="0 0 100 100"
   enable-background="new 0 0 44.80079 44.79687"
   xml:space="preserve"
   sodipodi:docname="moog_style_di_xl.svg"
   inkscape:version="1.4 (86a8ad7, 2024-10-11)"
   xmlns:inkscape="http://www.inkscape.org/namespaces/inkscape"
   xmlns:sodipodi="http://sodipodi.sourceforge.net/DTD/sodipodi-0.dtd"
   xmlns="http://www.w3.org/2000/svg"
   xmlns:svg="http://www.w3.org/2000/svg"><defs
   id="defs5" />
<sodipodi:namedview
   bordercolor="#666666"
   borderopacity="1.0"
   fit-margin-bottom="0"
   fit-margin-left="0"
   fit-margin-right="0"
   fit-margin-top="0"
   id="base"
   inkscape:current-layer="g5"
   inkscape:cx="48.834562"
   inkscape:cy="43.796426"
   inkscape:document-units="mm"
   inkscape:pageopacity="0.0"
   inkscape:pageshadow="2"
   inkscape:window-height="2054"
   inkscape:window-maximized="1"
   inkscape:window-width="3840"
   inkscape:window-x="2869"
   inkscape:window-y="-11"
   inkscape:zoom="11.313709"
   pagecolor="#ffffff"
   showgrid="false"
   units="px"
   inkscape:showpageshadow="2"
   inkscape:pagecheckerboard="0"
   inkscape:deskcolor="#d1d1d1"
   showguides="true">
	<sodipodi:guide
   position="30.762303,107.55354"
   orientation="1,0"
   id="guide6"
   inkscape:locked="false" /><sodipodi:guide
   position="14.031651,106.5276"
   orientation="1,0"
   id="guide7"
   inkscape:locked="false" /><sodipodi:guide
   position="37.896505,95.98413"
   orientation="0,-1"
   id="guide8"
   inkscape:locked="false" /><sodipodi:guide
   position="35.134369,79.190347"
   orientation="0,-1"
   id="guide9"
   inkscape:locked="false" /></sodipodi:namedview>
<g
   id="g5">
	
	
	
	
	
<rect
   style="opacity:0.677643;fill:#ff0000;stroke-width:0.944875;stroke-opacity:0.0927318;-inkscape-stroke:none;fill-opacity:0"
   id="rect1"
   width="100"
   height="100"
   x="-100"
   y="0"
   transform="scale(-1,1)" /><path
   opacity="0.47"
   fill="#242424"
   d="m 49.973816,11.073432 c 2.363405,0 4.744726,0.213868 7.077594,0.636066 0.141271,0.02547 0.31666,0.147218 0.480951,0.333307 4.57539,5.188512 11.163082,8.377621 18.07422,8.748908 0.236903,0.01242 0.439591,0.07406 0.54205,0.164327 3.57066,3.146995 6.52085,6.872642 8.768777,11.07373 0.06392,0.119442 0.07858,0.329136 0.03925,0.5606 -1.139492,6.71016 0.457575,13.749453 4.381975,19.313406 0.137175,0.194423 0.212483,0.386075 0.2065,0.52588 -0.2063,4.820941 -1.270008,9.497929 -3.161667,13.901299 -0.05258,0.122201 -0.2054,0.262941 -0.409866,0.375894 -5.949329,3.305307 -10.444763,8.950282 -12.333526,15.488214 -0.06472,0.223602 -0.168031,0.405057 -0.275774,0.484221 -3.859323,2.830357 -8.138184,4.913541 -12.718274,6.192124 -0.0231,0.0067 -0.06306,0.01442 -0.12177,0.01442 -0.124798,0 -0.284737,-0.037 -0.439893,-0.10185 -3.176128,-1.323517 -6.536888,-1.994759 -9.988847,-1.994759 -3.486022,0 -6.876696,0.684217 -10.078452,2.034109 -0.155508,0.06567 -0.315997,0.103216 -0.440292,0.103216 -0.04467,0 -0.08577,-0.0058 -0.11896,-0.01392 C 34.95395,87.675175 30.739713,85.664683 26.932594,82.936639 26.814155,82.851815 26.707642,82.664351 26.640272,82.42316 24.750314,75.646012 20.111783,69.850141 13.913678,66.521208 13.693541,66.403157 13.534972,66.259197 13.478731,66.125859 11.689562,61.895155 10.661118,57.407044 10.422026,52.787472 c -0.0057,-0.108781 0.04932,-0.319881 0.22243,-0.557374 4.174203,-5.730131 5.832291,-13.016172 4.549154,-19.989747 -0.0516,-0.280537 -0.01247,-0.484695 0.03697,-0.574499 2.218466,-4.044141 5.092471,-7.639713 8.542174,-10.686725 0.109196,-0.09675 0.316261,-0.158337 0.56762,-0.169446 7.042409,-0.307842 13.745238,-3.525203 18.389819,-8.826215 0.165546,-0.188876 0.342099,-0.311558 0.484423,-0.335619 2.217538,-0.381375 4.49166,-0.574422 6.759203,-0.574422 m 0,-1.4221184 c -2.347178,0 -4.702225,0.1999875 -6.99989,0.5948624 -0.595505,0.102316 -1.042679,0.491636 -1.312841,0.799951 -4.390528,5.011202 -10.726313,8.051729 -17.382813,8.342904 -0.409453,0.01814 -0.99328,0.123618 -1.446577,0.524039 -3.573126,3.156249 -6.549702,6.880056 -8.847481,11.06863 -0.225957,0.411541 -0.292948,0.949939 -0.188822,1.51609 1.212866,6.591652 -0.354384,13.478647 -4.2999395,18.894926 -0.3425925,0.470342 -0.5177467,0.99205 -0.4932175,1.467949 0.2477183,4.785768 1.313296,9.43543 3.167142,13.819364 0.234526,0.554589 0.712465,0.90132 1.072175,1.09437 5.858413,3.14652 10.2428,8.624842 12.029315,15.03084 0.109668,0.39349 0.343389,0.936034 0.833387,1.287418 3.94417,2.826183 8.310286,4.909358 12.977118,6.191216 0.156429,0.04258 0.32303,0.06483 0.495417,0.06483 0.31632,0 0.659823,-0.0745 0.993167,-0.215284 3.025294,-1.275375 6.23014,-1.922075 9.525597,-1.922075 3.262813,0 6.439682,0.634209 9.442058,1.8855 0.331351,0.138434 0.672447,0.211092 0.986682,0.211092 0.175733,0 0.345477,-0.02208 0.504441,-0.06667 4.745501,-1.3249 9.17872,-3.483541 13.176234,-6.415266 0.465335,-0.34165 0.692333,-0.860594 0.800875,-1.236034 1.785454,-6.180105 6.034724,-11.515836 11.65804,-14.639681 0.34235,-0.189801 0.798092,-0.527737 1.025908,-1.058264 1.959934,-4.562174 3.062084,-9.407653 3.275784,-14.401733 0.02483,-0.581893 -0.239392,-1.086497 -0.46545,-1.406836 -3.7092,-5.258878 -5.218817,-11.912553 -4.141792,-18.254687 0.06583,-0.387935 0.08678,-0.957805 -0.187558,-1.470261 C 83.842691,27.007431 80.786973,23.148465 77.088548,19.888972 76.647155,19.500106 76.080464,19.39271 75.682576,19.371416 69.150237,19.020512 62.923205,16.00638 58.598623,11.102121 58.331474,10.799361 57.890083,10.416053 57.304644,10.310058 54.888938,9.8730691 52.422601,9.6513141 49.973816,9.6513141 Z"
   id="path3"
   style="opacity:1;fill:#323132;fill-opacity:1;stroke-width:0.999992;font-variation-settings:normal;vector-effect:none;stroke-linecap:butt;stroke-linejoin:miter;stroke-miterlimit:4;stroke-dasharray:none;stroke-dashoffset:0;stroke-opacity:1;-inkscape-stroke:none;stop-color:#000000;stop-opacity:1" /><path
   opacity="0.47"
   fill="#242424"
   d="m 49.974073,12.098483 c 2.30117,0 4.619783,0.208236 6.89122,0.619317 0.137551,0.0248 0.308322,0.143341 0.468286,0.32453 4.454907,5.051883 10.869125,8.157013 17.598273,8.518523 0.230664,0.01209 0.428015,0.07211 0.527776,0.16 3.476634,3.064125 6.349137,6.691665 8.537869,10.782126 0.06224,0.116297 0.07651,0.320469 0.03822,0.545838 -1.109486,6.533461 0.445525,13.387389 4.266584,18.804827 0.133563,0.189303 0.206888,0.375908 0.201063,0.512032 -0.200868,4.693991 -1.236565,9.24782 -3.078411,13.535237 -0.0512,0.118983 -0.199992,0.256017 -0.399073,0.365995 -5.792666,3.218269 -10.169722,8.714595 -12.008748,15.080364 -0.06302,0.217714 -0.163607,0.39439 -0.268512,0.47147 -3.757696,2.755825 -7.923882,4.784153 -12.383365,6.029067 -0.02249,0.0065 -0.0614,0.01404 -0.118563,0.01404 -0.121512,0 -0.277239,-0.03603 -0.428309,-0.09917 -3.092492,-1.288665 -6.364753,-1.942231 -9.725812,-1.942231 -3.394224,0 -6.695612,0.6662 -9.813056,1.980545 -0.151413,0.06394 -0.307676,0.100498 -0.428698,0.100498 -0.04349,0 -0.08351,-0.0056 -0.115827,-0.01355 C 35.349724,86.683076 31.246461,84.725526 27.539594,82.06932 27.424274,81.98673 27.320566,81.804202 27.25497,81.569362 25.41478,74.970677 20.898396,69.327428 14.863505,66.086156 14.649165,65.971213 14.494771,65.831044 14.440011,65.701217 12.697956,61.58192 11.696594,57.211994 11.463798,52.714069 c -0.0055,-0.105916 0.04802,-0.311457 0.216573,-0.542696 4.064284,-5.57924 5.67871,-12.673418 4.429362,-19.463358 -0.05024,-0.27315 -0.01214,-0.471932 0.036,-0.559371 2.160047,-3.937647 4.958371,-7.438537 8.317233,-10.405312 0.106321,-0.0942 0.307933,-0.154168 0.552673,-0.164984 6.856962,-0.299736 13.383286,-3.432374 17.905561,-8.593795 0.161187,-0.183902 0.333091,-0.303353 0.471667,-0.326781 2.159143,-0.371332 4.373381,-0.559296 6.581213,-0.559296 m 0,-1.384669 c -2.28537,0 -4.578402,0.194721 -6.815562,0.579197 -0.579824,0.09962 -1.015222,0.47869 -1.27827,0.778886 -4.274913,4.879243 -10.443858,7.839704 -16.925073,8.123211 -0.39867,0.01766 -0.967124,0.120363 -1.408484,0.51024 -3.479035,3.073135 -6.377229,6.698883 -8.614501,10.77716 -0.220006,0.400704 -0.285233,0.924924 -0.183849,1.476167 1.180927,6.418074 -0.345052,13.123714 -4.18671,18.397367 -0.333571,0.457956 -0.504113,0.965926 -0.480229,1.429293 0.241195,4.659745 1.278713,9.186968 3.083741,13.45546 0.228351,0.539985 0.693704,0.877585 1.043942,1.065552 5.704144,3.063662 9.973077,8.397724 11.712548,14.635033 0.10678,0.383129 0.334346,0.911386 0.811441,1.253517 3.840308,2.751761 8.091452,4.78008 12.635392,6.028183 0.15231,0.04146 0.314524,0.06312 0.482371,0.06312 0.307991,0 0.642448,-0.07254 0.967014,-0.209615 2.945629,-1.241791 6.066082,-1.871461 9.27476,-1.871461 3.176894,0 6.270107,0.617508 9.193421,1.835849 0.322626,0.134788 0.65474,0.205533 0.9607,0.205533 0.171105,0 0.336379,-0.0215 0.491157,-0.06491 4.620538,-1.290012 8.937018,-3.391809 12.829265,-6.246333 0.453082,-0.332654 0.674102,-0.837932 0.779786,-1.203486 1.738438,-6.017365 5.875812,-11.21259 11.351049,-14.254175 0.333335,-0.184803 0.777076,-0.51384 0.998893,-1.030397 1.908323,-4.442038 2.98145,-9.159922 3.189523,-14.022493 0.02418,-0.56657 -0.233088,-1.057886 -0.453193,-1.36979 -3.611526,-5.120396 -5.08139,-11.59886 -4.032727,-17.773987 0.0641,-0.377719 0.0845,-0.932583 -0.182619,-1.431544 C 82.951085,27.612894 79.975833,23.855546 76.374798,20.681885 75.945028,20.303259 75.39326,20.198691 75.00585,20.177958 68.645526,19.836294 62.58247,16.901533 58.371767,12.126418 58.111653,11.83163 57.681885,11.458416 57.111863,11.355212 54.759769,10.92973 52.358378,10.713815 49.974077,10.713815 Z"
   id="path3-4"
   style="font-variation-settings:normal;opacity:1;vector-effect:none;fill:#3c3c3c;fill-opacity:1;stroke-width:0.999995;stroke-linecap:butt;stroke-linejoin:miter;stroke-miterlimit:4;stroke-dasharray:none;stroke-dashoffset:0;stroke-opacity:1;-inkscape-stroke:none;stop-color:#000000" /><path
   opacity="0.6"
   d="M 89.338591,51.903778 C 85.414233,46.33994 83.817158,39.300532 84.95665,32.590373 c 0.03933,-0.231455 0.02458,-0.441086 -0.03933,-0.560581 -2.247883,-4.20109 -5.198055,-7.926658 -8.768658,-11.073693 -0.102563,-0.09026 -0.305154,-0.1519 -0.542049,-0.164327 C 68.695335,20.420548 62.107757,17.2314 57.532291,12.042831 57.368011,11.8568 57.19256,11.73499 57.051414,11.709525 54.71849,11.287383 52.337132,11.073439 49.973841,11.073439 c -2.267545,0 -4.541761,0.193124 -6.759264,0.574613 -0.142315,0.024 -0.318897,0.146685 -0.484345,0.335619 -4.64458,5.300955 -11.347446,8.518318 -18.389894,8.826159 -0.251357,0.01118 -0.458453,0.07262 -0.56764,0.169397 -3.449701,3.046935 -6.323653,6.6426 -8.542176,10.686725 -0.04933,0.08985 -0.08851,0.293961 -0.03688,0.574461 1.283099,6.973592 -0.375008,14.259671 -4.549135,19.989708 -0.173107,0.237542 -0.228081,0.448613 -0.222431,0.557393 0.239054,4.619592 1.267479,9.1077 3.05661,13.338444 0.05627,0.133237 0.214773,0.277333 0.435023,0.39537 6.197973,3.328894 10.836641,9.124763 12.72658,15.902048 0.06726,0.241147 0.173845,0.428647 0.292284,0.513422 3.807063,2.727943 8.021394,4.738518 12.525264,5.975835 0.03312,0.0092 0.07419,0.01392 0.118886,0.01392 0.124377,0 0.284759,-0.0375 0.440387,-0.103142 3.201681,-1.349883 6.592372,-2.03415 10.078376,-2.03415 3.452014,0 6.812774,0.671242 9.988847,1.9948 0.155162,0.06483 0.315124,0.10185 0.439951,0.10185 0.05873,0 0.09864,-0.0083 0.121769,-0.01442 4.580072,-1.278691 8.858913,-3.361866 12.71818,-6.192258 0.107755,-0.07912 0.211138,-0.260551 0.275792,-0.484202 1.888783,-6.537855 6.384252,-12.18285 12.333486,-15.488157 0.204509,-0.112981 0.357359,-0.253742 0.409867,-0.375988 1.891667,-4.403333 2.955392,-9.080357 3.161767,-13.901185 0.0058,-0.139871 -0.06933,-0.331544 -0.206542,-0.525975 z M 49.97369,83.244721 c -17.997142,0 -32.531658,-14.778143 -32.531658,-32.540945 0,-17.762937 14.863614,-32.541078 32.531658,-32.541078 17.847561,0 32.531504,14.390405 32.531504,32.541078 0,18.062085 -14.713883,32.540945 -32.531504,32.540945 z"
   id="path4"
   sodipodi:nodetypes="sccccccsccccccccccsccscscscccccccssssss"
   style="opacity:1;fill:#0b0a0b;fill-opacity:1;stroke-width:0.999992" /><ellipse
   style="fill:#ffffff;fill-opacity:1;stroke-width:0.944883;stroke-opacity:0.0927318;-inkscape-stroke:none"
   id="path9"
   cx="49.983585"
   cy="14.708457"
   rx="2.3337269"
   ry="2.334404" /><ellipse
   style="fill:#ffffff;fill-opacity:1;stroke-width:0.944883;stroke-opacity:0.0927318;-inkscape-stroke:none"
   id="path9-2"
   cx="49.994675"
   cy="6.6759596"
   rx="1.6707504"
   ry="1.671235" /></g>
</svg>
