<?xml version="1.0" encoding="UTF-8" standalone="no"?>
<!-- Generator: Adobe Illustrator 25.2.3, SVG Export Plug-In . SVG Version: 6.00 Build 0)  -->

<svg
   version="1.0"
   id="svg15246"
   x="0px"
   y="0px"
   width="50"
   height="50"
   viewBox="0 0 50.000001 49.999999"
   enable-background="new 0 0 44.80079 44.79687"
   xml:space="preserve"
   sodipodi:docname="moog_style_di.svg"
   inkscape:version="1.4 (86a8ad7, 2024-10-11)"
   xmlns:inkscape="http://www.inkscape.org/namespaces/inkscape"
   xmlns:sodipodi="http://sodipodi.sourceforge.net/DTD/sodipodi-0.dtd"
   xmlns="http://www.w3.org/2000/svg"
   xmlns:svg="http://www.w3.org/2000/svg"><defs
   id="defs5" />
<sodipodi:namedview
   bordercolor="#666666"
   borderopacity="1.0"
   fit-margin-bottom="0"
   fit-margin-left="0"
   fit-margin-right="0"
   fit-margin-top="0"
   id="base"
   inkscape:current-layer="g5"
   inkscape:cx="30.228814"
   inkscape:cy="18.627843"
   inkscape:document-units="mm"
   inkscape:pageopacity="0.0"
   inkscape:pageshadow="2"
   inkscape:window-height="2054"
   inkscape:window-maximized="1"
   inkscape:window-width="3840"
   inkscape:window-x="2869"
   inkscape:window-y="-11"
   inkscape:zoom="22.627418"
   pagecolor="#ffffff"
   showgrid="false"
   units="px"
   inkscape:showpageshadow="2"
   inkscape:pagecheckerboard="0"
   inkscape:deskcolor="#d1d1d1"
   showguides="true">
	<sodipodi:guide
   position="30.762303,42.350407"
   orientation="1,0"
   id="guide6"
   inkscape:locked="false" /><sodipodi:guide
   position="14.031651,41.324471"
   orientation="1,0"
   id="guide7"
   inkscape:locked="false" /><sodipodi:guide
   position="37.896505,30.781004"
   orientation="0,-1"
   id="guide8"
   inkscape:locked="false" /><sodipodi:guide
   position="35.134369,13.987218"
   orientation="0,-1"
   id="guide9"
   inkscape:locked="false" /></sodipodi:namedview>
<g
   id="g5">
	
	
	<path
   opacity="0.47"
   fill="#242424"
   d="m 25.000698,4.2504412 c 1.235034,0 2.479428,0.1117372 3.698504,0.3323186 0.07381,0.013304 0.165477,0.076915 0.25133,0.1741392 2.390941,2.7107877 5.833439,4.3769681 9.444962,4.5709503 0.123792,0.00653 0.229715,0.038696 0.283255,0.085861 1.865904,1.6441777 3.407571,3.5906767 4.58226,5.7855757 0.03341,0.06241 0.04105,0.17196 0.02051,0.292891 -0.595457,3.505785 0.239116,7.183532 2.289872,10.090472 0.07169,0.101583 0.111035,0.201709 0.1079,0.274752 -0.10781,2.518746 -0.663658,4.962281 -1.652176,7.262865 -0.02748,0.06384 -0.107331,0.137375 -0.214183,0.196389 -3.108912,1.726889 -5.45807,4.676159 -6.445074,8.091964 -0.03382,0.11682 -0.0878,0.211627 -0.144108,0.252985 -2.01675,1.478748 -4.252733,2.567122 -6.64613,3.235139 -0.01209,0.0033 -0.03295,0.0075 -0.06364,0.0075 -0.06522,0 -0.148794,-0.01935 -0.229874,-0.05321 -1.659734,-0.691486 -3.415951,-1.04218 -5.219825,-1.04218 -1.821675,0 -3.593523,0.357471 -5.26665,1.062736 -0.08126,0.03434 -0.16513,0.05394 -0.230081,0.05394 -0.02334,0 -0.04481,-0.0027 -0.06217,-0.0073 -2.353566,-0.646498 -4.555781,-1.696901 -6.54525,-3.12219 -0.0619,-0.04431 -0.117551,-0.14226 -0.152757,-0.268273 C 11.819765,37.986927 9.3958288,34.95882 6.1569134,33.219588 6.0418775,33.157909 5.9590156,33.082698 5.9296251,33.013034 4.9946673,30.802661 4.4572387,28.457805 4.3322969,26.044268 c -0.00294,-0.05683 0.025775,-0.167127 0.1162346,-0.291208 2.1812942,-2.99376 3.0477534,-6.800422 2.3772306,-10.443832 -0.026964,-0.146569 -0.00652,-0.253234 0.019317,-0.300153 1.1592942,-2.112901 2.6611504,-3.99144 4.4638449,-5.5833798 0.05705,-0.050554 0.165268,-0.082721 0.296619,-0.088526 3.680119,-0.1608344 7.182787,-1.8417759 9.609882,-4.6113397 0.0865,-0.09868 0.17877,-0.1627762 0.253142,-0.1753478 1.15881,-0.1992525 2.347187,-0.3001121 3.532128,-0.3001121 m 0,-0.7429992 c -1.226555,0 -2.45722,0.104485 -3.657901,0.3107917 -0.31119,0.053455 -0.544868,0.2568596 -0.686045,0.4179419 -2.29434,2.6181505 -5.6052,4.2067024 -9.083658,4.358829 -0.213965,0.00943 -0.519053,0.064581 -0.75593,0.2737902 -1.867191,1.6490118 -3.4226474,3.5945498 -4.6233875,5.7829108 -0.118077,0.215014 -0.1530839,0.496304 -0.098671,0.792097 0.633802,3.44387 -0.1851887,7.042046 -2.2469994,9.871832 -0.1790273,0.245735 -0.2705566,0.518307 -0.2577386,0.766943 0.1294488,2.500371 0.6862829,4.929631 1.6550393,7.22006 0.1225545,0.28975 0.3723091,0.470903 0.5602813,0.571763 3.0614037,1.643929 5.3525329,4.506131 6.2861049,7.853005 0.05731,0.205582 0.179443,0.489042 0.435498,0.672622 2.061087,1.476567 4.342668,2.564941 6.781393,3.234661 0.08174,0.02226 0.168805,0.03386 0.258888,0.03386 0.165298,0 0.3448,-0.03894 0.518994,-0.11247 1.580915,-0.666331 3.255656,-1.004207 4.977747,-1.004207 1.705034,0 3.365155,0.331347 4.934093,0.985097 0.173153,0.07231 0.351398,0.110287 0.515607,0.110287 0.09184,0 0.180533,-0.0116 0.263602,-0.03483 2.479836,-0.692208 4.796483,-1.820012 6.885444,-3.351719 0.243168,-0.178498 0.36179,-0.449623 0.418511,-0.645775 0.933017,-3.228857 3.153537,-6.016559 6.09209,-7.648641 0.178898,-0.09917 0.417053,-0.275722 0.536101,-0.5529 1.024198,-2.383551 1.600141,-4.915118 1.711809,-7.524322 0.013,-0.304016 -0.125091,-0.567652 -0.243227,-0.735015 -1.938295,-2.74755 -2.727172,-6.223826 -2.164355,-9.537334 0.03441,-0.202681 0.04534,-0.500415 -0.09801,-0.768152 C 42.6994,12.575311 41.102587,10.559158 39.169917,8.8562033 38.939262,8.6530377 38.643127,8.5969264 38.435206,8.5858012 35.021631,8.4024686 31.7676,6.8277068 29.507722,4.2654299 29.368121,4.1072503 29.137464,3.9069874 28.831533,3.8516092 27.56917,3.6233003 26.280347,3.5074421 25.000698,3.5074421 Z"
   id="path3"
   style="opacity:1;fill:#323232;fill-opacity:1;stroke-width:1" />
	<path
   opacity="0.6"
   d="m 45.571395,25.582619 c -2.050736,-2.90688 -2.885308,-6.584686 -2.289852,-10.090473 0.02055,-0.12093 0.01284,-0.230448 -0.02056,-0.29288 -1.174663,-2.194899 -2.71632,-4.141358 -4.582194,-5.7855557 -0.05359,-0.047166 -0.159464,-0.079362 -0.283257,-0.085861 -3.61159,-0.1939427 -7.05403,-1.8601428 -9.44501,-4.5709602 -0.08585,-0.097194 -0.177531,-0.1608345 -0.25129,-0.1741392 -1.219106,-0.2205518 -2.463521,-0.3323286 -3.698494,-0.3323286 -1.18494,0 -2.373367,0.1008989 -3.532157,0.3002112 -0.07437,0.012542 -0.166645,0.076639 -0.253102,0.175348 -2.427097,2.7695339 -5.929784,4.4504752 -9.609923,4.6113098 -0.13135,0.00581 -0.239571,0.037943 -0.296629,0.088506 -1.8026948,1.5919007 -3.3045212,3.4704897 -4.4638452,5.5833807 -0.025775,0.04694 -0.04625,0.153583 -0.019267,0.300133 0.6705032,3.64342 -0.1959661,7.4501 -2.3772208,10.443812 -0.090459,0.124101 -0.1191863,0.234382 -0.1162344,0.291216 0.1249219,2.413548 0.6623406,4.758405 1.5972786,6.968796 0.0294,0.06961 0.1122326,0.144896 0.2273279,0.206564 3.2388461,1.739214 5.6628519,4.767321 6.6504699,8.308176 0.03515,0.125994 0.09084,0.22395 0.152736,0.268244 1.989439,1.42524 4.191704,2.475682 6.545269,3.12213 0.01731,0.0047 0.03877,0.0073 0.06212,0.0073 0.06499,0 0.148805,-0.01957 0.230132,-0.05389 1.673087,-0.705256 3.444945,-1.062757 5.26661,-1.062757 1.803903,0 3.56012,0.350696 5.219825,1.042199 0.08109,0.03386 0.164675,0.05321 0.229903,0.05321 0.03069,0 0.05154,-0.0042 0.06364,-0.0075 2.393387,-0.668065 4.629361,-1.75644 6.64608,-3.235207 0.0563,-0.04134 0.110345,-0.136127 0.14412,-0.252976 0.987013,-3.415764 3.33619,-6.365045 6.445052,-8.091933 0.106863,-0.05903 0.186744,-0.132571 0.214184,-0.19644 0.988517,-2.300564 1.544382,-4.744118 1.652226,-7.262806 0.0031,-0.07307 -0.03622,-0.173218 -0.107934,-0.2748 z M 25.000659,41.113671 c -8.898972,0 -16.1552014,-7.243896 -16.1552014,-16.158005 0,-8.879299 7.3061354,-16.1558385 16.1552014,-16.1558385 8.855682,0 16.155816,7.2832415 16.155816,16.1558385 0,9.035591 -7.228587,16.158005 -16.155816,16.158005 z"
   id="path4"
   sodipodi:nodetypes="sccccccsccccccccccsccscscscccccccssssss"
   style="opacity:1;fill:#0b0a0b;fill-opacity:1;stroke-width:1" />
	
<ellipse
   style="opacity:1;fill:#ffffff;fill-opacity:1;stroke-width:0.944885;stroke-opacity:0.0927318;-inkscape-stroke:none"
   id="path9"
   cx="25.00485"
   cy="6.21592"
   rx="1.2195249"
   ry="1.2196316" /><ellipse
   style="fill:#ffffff;fill-opacity:1;stroke-width:0.944884;stroke-opacity:0.0927318;-inkscape-stroke:none"
   id="path9-1"
   cx="25.00485"
   cy="1.7513223"
   rx="1.0887375"
   ry="1.0888327" /></g>
</svg>
