<?xml version="1.0" encoding="UTF-8" standalone="no"?>
<!-- Generator: Adobe Illustrator 25.2.3, SVG Export Plug-In . SVG Version: 6.00 Build 0)  -->

<svg
   version="1.0"
   id="svg15246"
   x="0px"
   y="0px"
   width="64.513138px"
   height="64.507493px"
   viewBox="0 0 44.80079 44.79687"
   enable-background="new 0 0 44.80079 44.79687"
   xml:space="preserve"
   sodipodi:docname="moog_style_v1.svg"
   inkscape:version="1.4 (86a8ad7, 2024-10-11)"
   xmlns:inkscape="http://www.inkscape.org/namespaces/inkscape"
   xmlns:sodipodi="http://sodipodi.sourceforge.net/DTD/sodipodi-0.dtd"
   xmlns="http://www.w3.org/2000/svg"
   xmlns:svg="http://www.w3.org/2000/svg"><defs
   id="defs5" />
<sodipodi:namedview
   bordercolor="#666666"
   borderopacity="1.0"
   fit-margin-bottom="0"
   fit-margin-left="0"
   fit-margin-right="0"
   fit-margin-top="0"
   id="base"
   inkscape:current-layer="g5"
   inkscape:cx="25.113339"
   inkscape:cy="9.9989318"
   inkscape:document-units="mm"
   inkscape:pageopacity="0.0"
   inkscape:pageshadow="2"
   inkscape:window-height="2054"
   inkscape:window-maximized="1"
   inkscape:window-width="3840"
   inkscape:window-x="2869"
   inkscape:window-y="-11"
   inkscape:zoom="45.254834"
   pagecolor="#ffffff"
   showgrid="false"
   units="px"
   inkscape:showpageshadow="2"
   inkscape:pagecheckerboard="0"
   inkscape:deskcolor="#d1d1d1"
   showguides="true">
	<sodipodi:guide
   position="30.762303,42.350407"
   orientation="1,0"
   id="guide6"
   inkscape:locked="false" /><sodipodi:guide
   position="14.031651,41.324471"
   orientation="1,0"
   id="guide7"
   inkscape:locked="false" /><sodipodi:guide
   position="37.896505,30.781004"
   orientation="0,-1"
   id="guide8"
   inkscape:locked="false" /><sodipodi:guide
   position="35.134369,13.987218"
   orientation="0,-1"
   id="guide9"
   inkscape:locked="false" /></sodipodi:namedview>
<g
   id="g5">
	
	
	<path
   opacity="0.47"
   fill="#242424"
   d="M22.40044,1.50012c1.24678,0,2.50301,0.11279,3.73368,0.33545   c0.07452,0.01343,0.16705,0.07764,0.25372,0.17578c2.41368,2.73633,5.88892,4.41821,9.53479,4.61402   c0.12497,0.00659,0.2319,0.03906,0.28595,0.08667c1.88365,1.65967,3.43998,3.62451,4.62584,5.84009   c0.03372,0.06299,0.04144,0.17358,0.02071,0.29565c-0.60112,3.53882,0.24139,7.25122,2.31165,10.18555   c0.07237,0.10254,0.11209,0.20361,0.10893,0.27734c-0.10883,2.54248-0.66997,5.00904-1.66789,7.3313   c-0.02774,0.06445-0.10835,0.13867-0.21622,0.19824c-3.13848,1.74316-5.50998,4.72022-6.50637,8.16821   c-0.03415,0.11792-0.08864,0.21362-0.14548,0.25537c-2.03593,1.49268-4.29318,2.59131-6.70934,3.26562   c-0.01221,0.00342-0.03326,0.00757-0.06424,0.00757c-0.06584,0-0.15021-0.01953-0.23206-0.05371   c-1.67552-0.698-3.44844-1.052-5.26947-1.052c-1.839,0-3.6277,0.36084-5.31674,1.07275   c-0.08203,0.03467-0.1667,0.05444-0.23227,0.05444c-0.02357,0-0.04524-0.00269-0.06276-0.00732   c-2.37595-0.65259-4.59911-1.71289-6.6075-3.15161c-0.06248-0.04468-0.11867-0.14355-0.15421-0.27075   c-0.99701-3.57422-3.444-6.63086-6.71372-8.38648c-0.11613-0.06226-0.19978-0.13818-0.22945-0.2085   c-0.94385-2.2312-1.48639-4.59815-1.61252-7.03443c-0.00296-0.05737,0.02602-0.1687,0.11734-0.29395   c2.20204-3.02197,3.07674-6.8645,2.39984-10.54224c-0.02722-0.14795-0.00658-0.25562,0.0195-0.30298   c1.17032-2.13281,2.68646-4.02905,4.5063-5.63599c0.0576-0.05103,0.16684-0.0835,0.29944-0.08936   c3.71512-0.16235,7.2511-1.85913,9.70128-4.65479c0.08733-0.09961,0.18047-0.16431,0.25555-0.177   C20.00455,1.60193,21.20423,1.50012,22.40044,1.50012 M22.40044,0.75012c-1.23822,0-2.48059,0.10547-3.69269,0.31372   c-0.31415,0.05396-0.55005,0.25928-0.69257,0.42188c-2.31616,2.64282-5.65851,4.24634-9.17005,4.3999   c-0.216,0.00952-0.52399,0.06519-0.76312,0.27637c-1.88495,1.66455-3.4552,3.62842-4.66736,5.8374   c-0.1192,0.21704-0.15454,0.50098-0.09961,0.79956c0.63983,3.47632-0.18695,7.1084-2.26837,9.96485   c-0.18073,0.24805-0.27313,0.52319-0.26019,0.77417c0.13068,2.52393,0.69281,4.97608,1.67078,7.28809   c0.12372,0.29248,0.37585,0.47534,0.56561,0.57715c3.09052,1.65942,5.40344,4.54859,6.34589,7.927   c0.05786,0.20752,0.18115,0.49365,0.43964,0.67896c2.08069,1.49048,4.38397,2.58911,6.84589,3.26514   c0.08252,0.02246,0.17041,0.03418,0.26135,0.03418c0.16687,0,0.34808-0.03931,0.52393-0.11353   c1.59595-0.67261,3.28662-1.01367,5.02509-1.01367c1.72125,0,3.39716,0.33447,4.98102,0.99438   c0.1748,0.073,0.35474,0.11133,0.52051,0.11133c0.09271,0,0.18225-0.01172,0.26611-0.03516   c2.50342-0.69873,4.8421-1.83716,6.95093-3.3833c0.24548-0.18018,0.36523-0.45386,0.42249-0.65186   c0.94189-3.25928,3.18353-6.07325,6.15003-7.72071c0.1806-0.1001,0.42102-0.27832,0.5412-0.55811   c1.03394-2.40601,1.61536-4.96143,1.72809-7.59522c0.01312-0.30688-0.12628-0.573-0.24554-0.74194   c-1.95673-2.77344-2.75311-6.28247-2.18494-9.6272c0.03473-0.20459,0.04578-0.50513-0.09894-0.77539   c-1.22815-2.29468-2.84015-4.32983-4.7912-6.04883c-0.23285-0.20508-0.5318-0.26172-0.7417-0.27295   c-3.44604-0.18506-6.73102-1.77466-9.01239-4.36108c-0.14093-0.15967-0.37378-0.36182-0.68262-0.41772   C24.99334,0.86707,23.69226,0.75012,22.40044,0.75012L22.40044,0.75012z"
   id="path3"
   style="fill:#323232;fill-opacity:1;opacity:1" />
	<path
   opacity="0.6"
   d="M 43.16678,23.0333 C 41.09654,20.09903 40.25403,16.38657 40.85515,12.84775 40.8759,12.72568 40.86812,12.61513 40.8344,12.55211 39.64856,10.33653 38.09224,8.37173 36.20862,6.71204 36.15452,6.66443 36.04764,6.63193 35.92267,6.62537 32.27673,6.4296 28.80155,4.7477 26.38783,2.01134 26.30116,1.91323 26.20861,1.84899 26.13415,1.83556 24.90345,1.61293 23.6472,1.5001 22.40048,1.5001 c -1.19621,0 -2.39594,0.10185 -3.56575,0.30304 C 18.75966,1.8158 18.6665,1.8805 18.57922,1.98014 16.12904,4.77577 12.59304,6.47255 8.8779,6.6349 8.7453,6.64077 8.63605,6.6732 8.57845,6.72424 6.75861,8.33114 5.2425,10.22743 4.07215,12.36023 4.04613,12.40761 4.02546,12.51526 4.0527,12.66319 4.72958,16.34094 3.85487,20.18349 1.65287,23.20541 1.56155,23.33068 1.53255,23.442 1.53553,23.49937 c 0.12611,2.43629 0.66864,4.80324 1.61247,7.03446 0.02968,0.07027 0.1133,0.14626 0.22949,0.20851 3.26965,1.7556 5.71671,4.81224 6.71372,8.38646 0.03548,0.12718 0.09171,0.22606 0.15419,0.27077 2.00836,1.43867 4.23157,2.49901 6.60752,3.15155 0.01747,0.0047 0.03914,0.0073 0.06271,0.0073 0.06561,0 0.15022,-0.01976 0.23232,-0.0544 1.689,-0.7119 3.47771,-1.07277 5.3167,-1.07277 1.82106,0 3.59398,0.354 5.26947,1.05202 0.08186,0.03418 0.16624,0.05371 0.23209,0.05371 0.03098,0 0.05203,-0.0042 0.06424,-0.0076 2.41615,-0.67436 4.67339,-1.77299 6.70929,-3.26569 0.05684,-0.04173 0.11139,-0.13741 0.14549,-0.25536 0.9964,-3.44795 3.36792,-6.42502 6.50635,-8.16818 0.10788,-0.05959 0.18852,-0.13382 0.21622,-0.19829 0.99792,-2.32224 1.55907,-4.78882 1.66794,-7.33124 0.0031,-0.07376 -0.03656,-0.17485 -0.10896,-0.27739 z M 22.4004,39.56196 c -9.494128,0 -17.1616,-7.793731 -17.1616,-17.16152 0,-9.367859 7.841082,-17.16159 17.1616,-17.16159 9.41522,0 17.16152,7.589245 17.16152,17.16159 0,9.525625 -7.762094,17.16152 -17.16152,17.16152 z"
   id="path4"
   sodipodi:nodetypes="sccccccsccccccccccsccscscscccccccssssss"
   style="fill:#0b0a0b;fill-opacity:1;opacity:1" />
	
<circle
   style="opacity:1;fill:#ffffff;fill-opacity:1;stroke-width:0.944882;stroke-opacity:0.0927318;-inkscape-stroke:none"
   id="path9"
   cx="22.404631"
   cy="3.4841182"
   r="1.2311234" /></g>
</svg>
