<?xml version="1.0" encoding="UTF-8" standalone="no"?>
<!-- Created with Inkscape (http://www.inkscape.org/) -->

<svg
   version="1.1"
   id="svg1037"
   width="23"
   height="23"
   viewBox="0 0 188 188"
   sodipodi:docname="output-port.svg"
   inkscape:version="1.1.1 (3bf5ae0d25, 2021-09-20)"
   xmlns:inkscape="http://www.inkscape.org/namespaces/inkscape"
   xmlns:sodipodi="http://sodipodi.sourceforge.net/DTD/sodipodi-0.dtd"
   xmlns="http://www.w3.org/2000/svg"
   xmlns:svg="http://www.w3.org/2000/svg">
  <defs
     id="defs1041" />
  <sodipodi:namedview
     id="namedview1039"
     pagecolor="#ffffff"
     bordercolor="#666666"
     borderopacity="1.0"
     inkscape:pageshadow="2"
     inkscape:pageopacity="0.0"
     inkscape:pagecheckerboard="0"
     showgrid="false"
     inkscape:zoom="2.8284271"
     inkscape:cx="346.83587"
     inkscape:cy="207.35906"
     inkscape:window-width="3840"
     inkscape:window-height="2066"
     inkscape:window-x="2869"
     inkscape:window-y="-11"
     inkscape:window-maximized="1"
     inkscape:current-layer="g1043" />
  <g
     inkscape:groupmode="layer"
     inkscape:label="Image"
     id="g1043">
    <path
       style="fill:#c8c3b9"
       d="m 81.354511,150.21308 c -8.49844,-1.75882 -20.140651,-7.95785 -26.865388,-14.30477 -7.016274,-6.62208 -14.723471,-18.86403 -14.904284,-23.67366 -0.07048,-1.8748 -0.452774,-3.40872 -0.84954,-3.40872 -1.102082,0 -1.80918,-4.97181 -0.796142,-5.5979 0.970793,-0.59998 0.717164,-4.22325 -0.422715,-6.038788 -0.392518,-0.625181 -0.107239,-1.639985 0.633953,-2.25512 1.755594,-1.457014 6.630357,2.192902 6.630357,4.964393 0,1.060075 0.5625,1.934305 1.25,1.942725 0.833333,0.0102 0.75,0.33844 -0.25,0.98469 -1.31309,0.84858 -1.30194,0.97128 0.08949,0.98469 0.874217,0.008 2.111717,1.16148 2.75,2.56236 1.263941,2.77405 1.555817,5.18158 0.50021,4.12598 -1.426321,-1.42632 -3.17068,3.10884 -2.77516,7.21513 0.633077,6.57263 5.147612,12.39142 15.582134,20.08383 6.147905,4.53228 7.38606,5.02094 16.5,6.51194 5.419332,0.88658 10.753331,2.03356 11.853331,2.54884 2.437925,1.14201 16.499253,0.80864 16.499693,-0.39118 1.7e-4,-0.47212 1.23781,-0.57095 2.75031,-0.21962 2.16773,0.50353 2.4324,0.40225 1.25,-0.47834 -1.22541,-0.91262 -1.08813,-1.02685 0.75,-0.624 1.2375,0.27122 2.25,0.11558 2.25,-0.34586 0,-0.46145 1.0125,-1.14755 2.25,-1.52466 1.2375,-0.37712 3.11485,-1.41994 4.17189,-2.31739 1.05705,-0.89745 1.59299,-1.06922 1.19099,-0.38172 -0.402,0.6875 -0.25436,1.25 0.3281,1.25 0.58246,0 1.05902,-0.64436 1.05902,-1.43191 0,-0.78754 1.30014,-2.35768 2.88919,-3.48919 3.93512,-2.80205 10.1108,-9.06008 10.1108,-10.24562 0,-0.5317 1.17805,-2.51123 2.6179,-4.39897 1.97763,-2.59281 2.57765,-4.47192 2.45335,-7.68327 -0.31853,-8.22908 -0.54346,-9.25697 -1.95957,-8.95493 -1.07545,0.22938 -1.24696,-0.55939 -0.76101,-3.5 0.34503,-2.08786 0.63227,-4.541476 0.63832,-5.452485 0.008,-1.130894 0.61162,-1.499318 1.90419,-1.161304 1.4824,0.387658 2.16553,-0.330184 3.14845,-3.308456 1.23311,-3.736349 1.27228,-3.759995 2.2178,-1.338696 1.53844,3.939646 1.65111,19.091591 0.16393,22.045161 -1.43336,2.8467 -1.59937,8.69286 -0.27017,9.51435 1.70657,1.05471 0.78212,2.11561 -1.46859,1.68536 -1.77613,-0.33953 -2.86991,0.36664 -4.69623,3.03199 -1.30946,1.91103 -2.91008,3.27151 -3.55694,3.02328 -0.6488,-0.24896 -1.39105,0.6731 -1.65552,2.05659 -0.30692,1.60555 0.0364,2.70583 0.95413,3.058 2.08899,0.80162 2.12729,0.76113 1.60754,-1.6999 -0.43703,-2.06931 -0.38062,-2.10099 0.70237,-0.39446 0.93402,1.47178 0.87104,2.16204 -0.30451,3.33759 -1.25429,1.2543 -1.81358,1.2765 -3.63926,0.14446 -1.46873,-0.91069 -2.38683,-1.00192 -2.87669,-0.28583 -2.05859,3.0093 -20.71728,13.87665 -22.2253,12.94465 -0.5468,-0.33794 -1.55669,-0.26304 -2.24419,0.16645 -3.03197,1.89413 -17.511036,2.31068 -25.176239,0.72429 z m 71.496529,-48.16853 c -0.0387,-1.25477 -0.73373,-2.535969 -1.54459,-2.847127 -1.29907,-0.498499 -1.29907,-0.740975 0,-2.040044 2.23176,-2.231757 1.50173,-11.084465 -0.79691,-9.663825 -0.66045,0.408181 -0.8325,-0.163029 -0.46843,-1.555225 0.31647,-1.210192 -0.0599,-3.41806 -0.83632,-4.906372 -0.77644,-1.488312 -1.41449,-3.562777 -1.41788,-4.609922 -0.003,-1.047145 -1.58116,-4.720263 -3.50616,-8.162485 -1.925,-3.442222 -3.5,-6.972967 -3.5,-7.8461 0,-0.873133 -0.45757,-1.587515 -1.01682,-1.587515 -0.55926,0 -2.92707,-1.9125 -5.26182,-4.25 -6.79592,-6.803944 -10.15151,-9.241437 -16.53124,-12.008248 -12.67465,-5.49684 -22.413541,-6.653253 -36.690118,-4.356647 -5.251334,0.844757 -12.373092,3.765709 -12.095645,4.960965 0.14732,0.634661 0.07911,0.81643 -0.151583,0.40393 -0.846483,-1.513601 -3.474377,-0.769878 -2.86753,0.811542 0.421792,1.099173 0.07915,1.473436 -1.157187,1.263985 -0.966024,-0.163657 -3.171676,0.710202 -4.901449,1.941909 -1.759194,1.252656 -3.846012,1.970479 -4.735824,1.629027 -0.893863,-0.343008 -1.590782,-0.09962 -1.590782,0.555565 0,0.641303 0.45,0.887891 1,0.547972 0.55,-0.339919 1.05743,-0.253976 1.127623,0.190983 0.625483,3.965005 0.432032,5.309017 -0.764159,5.309017 -0.749905,0 -1.391988,1.0125 -1.42685,2.25 -0.06174,2.191483 -0.08914,2.185447 -1.053643,-0.232119 -0.67495,-1.691793 -0.654768,-2.593949 0.06339,-2.833334 0.579503,-0.193167 1.04087,-0.876214 1.02526,-1.51788 -0.03522,-1.447846 -7.313089,6.516433 -10.566848,11.563461 -2.389402,3.70629 -3.254926,7.413331 -1.473868,6.312577 0.511996,-0.316431 1.213553,-0.117988 1.559017,0.440983 0.34546,0.558972 0.151554,1.016312 -0.430905,1.016312 -0.582459,0 -1.059017,0.9 -1.059017,2 0,2.407968 -0.771186,2.517049 -3.072306,0.434564 -1.817818,-1.645103 -1.796105,-1.698035 -3.51364,8.565436 -0.138059,0.825 -0.875595,4.875 -1.638969,9 l -1.387952,7.499995 -0.71775,-4.32733 c -0.394763,-2.380034 -0.391486,-6.655034 0.0073,-9.5 0.66412,-4.738082 0.782692,-4.920619 1.411313,-2.172665 0.55131,2.409993 0.680359,2.016655 0.656177,-2 -0.03701,-6.147445 1.481575,-10.119481 4.19856,-10.981819 1.131489,-0.359126 2.057267,-1.127732 2.057267,-1.708013 0,-0.648272 -0.587654,-0.567348 -1.524166,0.209888 -2.404524,1.995578 -2.872073,0.376183 -0.559167,-1.936723 1.145833,-1.145833 2.083333,-2.356076 2.083333,-2.689429 0,-0.333352 1.35,-2.310609 3,-4.393904 1.65,-2.083295 3.014221,-4.173052 3.031601,-4.643904 0.04594,-1.244504 4.708699,-6.356096 5.797988,-6.356096 0.509037,0 1.513018,-0.70789 2.231069,-1.573088 1.718342,-2.070476 8.518719,-5.514202 9.31552,-4.7174 0.343102,0.343102 0.623822,0.154236 0.623822,-0.419701 0,-1.329242 9.704111,-5.539811 12.767618,-5.539811 1.273644,0 2.048444,-0.267272 1.721778,-0.593937 -0.551097,-0.551098 4.643446,-2.084169 13.834205,-4.082905 3.094791,-0.673031 4.143137,-0.491864 5.5,0.950469 1.73009,1.83907 9.959447,4.52666 10.919837,3.566264 0.29786,-0.297858 -0.0815,-1.292344 -0.8431,-2.209971 -1.24745,-1.503083 -1.1377,-1.591648 1.1075,-0.893754 4.95985,1.541711 13.97823,6.564332 13.73805,7.651156 -0.13524,0.611973 0.37925,1.339807 1.14331,1.61741 0.9561,0.347378 1.13965,0.07459 0.58875,-0.875 -0.44025,-0.758853 0.38324,-0.30182 1.82998,1.015628 1.44674,1.317448 2.34548,2.85642 1.9972,3.419939 -0.37375,0.604747 -0.004,0.783188 0.90195,0.435477 1.82159,-0.699009 10.25446,7.412845 9.06545,8.720355 -0.42489,0.467236 -0.24606,0.548086 0.3974,0.179666 1.36843,-0.783509 5.10784,3.6156 5.96021,7.011685 0.32267,1.285635 1.21951,2.337518 1.99297,2.337518 2.00018,0 5.47552,6.113887 4.75886,8.371879 -0.38956,1.227394 -0.21246,1.641395 0.5109,1.194333 1.1552,-0.713957 1.47752,1.131473 1.29837,7.433788 -0.0902,3.173176 -0.0197,3.266555 0.75496,1 0.59097,-1.729108 0.8635,0.429388 0.88383,7 0.0162,5.225 -0.35734,10.399995 -0.83003,11.499995 -0.81567,1.89818 -0.86301,1.88385 -0.92971,-0.28138 z M 44.441579,70.384447 c -0.892371,-2.32548 -0.924954,-2.256179 1.339173,-2.848261 2.334048,-0.610367 2.526531,0.187416 0.660827,2.738918 -1.250026,1.709513 -1.383164,1.716792 -2,0.109343 z m 4.339173,-8.475179 c 0,-2.86397 1.618667,-4.603309 1.70614,-1.833333 0.02171,0.6875 0.209211,1.86875 0.416667,2.625 0.207456,0.75625 -0.185307,1.58125 -0.872807,1.833333 -0.828829,0.303904 -1.25,-0.580555 -1.25,-2.625 z"
       id="path1268" />
    <path
       style="fill:#a9a499"
       d="m 97.780752,151.5295 c 0.275,-0.28196 2.075,-0.64468 3.999998,-0.80605 1.925,-0.16138 4.04279,-0.69307 4.7062,-1.18155 0.6634,-0.48848 1.67329,-0.59947 2.24419,-0.24663 1.52584,0.94302 20.86408,-10.26111 21.88294,-12.67847 0.56664,-1.34442 2.85321,-0.87448 4.29423,0.88254 1.21885,1.48614 1.13029,1.61106 -0.79131,1.11618 -1.5644,-0.40289 -2.3002,-0.0354 -2.65638,1.32658 -0.56888,2.1754 0.33402,2.42785 2.26683,0.63383 1.07798,-1.00057 1.20501,-0.99915 0.63659,0.007 -0.72261,1.27923 -6.58329,4.68313 -6.58329,3.8236 0,-0.25886 -2.48783,0.62958 -5.52851,1.97432 -3.04069,1.34484 -6.38913,2.44508 -7.44099,2.44508 -1.05185,0 -2.18633,0.44311 -2.52104,0.9847 -0.33472,0.54158 -1.59878,0.99734 -2.80902,1.0128 -1.21024,0.0155 -4.45044,0.29599 -7.20044,0.62341 -2.749998,0.32742 -4.774998,0.36462 -4.499998,0.0827 z m -7.479428,-4.525 c -0.368447,-0.37321 -3.223805,-1.1952 -6.345238,-1.82665 l -5.675334,-1.14807 6.721385,0.53324 c 9.502246,0.75386 10.102906,0.83163 11.778615,1.52508 0.825,0.3414 2.4,0.80351 3.499998,1.02691 1.1,0.22341 -0.544641,0.44261 -3.65476,0.48713 -3.110119,0.0445 -5.956219,-0.22442 -6.324666,-0.59764 z m -20.020572,-3.89164 c -1.1,-0.26458 -2.45,-0.93796 -3,-1.49639 -0.675413,-0.68577 -0.188534,-0.76031 1.5,-0.22964 1.375,0.43212 4.075,1.10595 6,1.49739 3.341392,0.67946 3.36405,0.71167 0.5,0.71071 -1.65,-5.5e-4 -3.9,-0.21748 -5,-0.48207 z m 66.955498,-6.21493 c 0.31545,-0.51041 -0.26869,-1.19532 -1.29809,-1.52204 -1.37603,-0.43673 -1.74327,-1.26556 -1.38686,-3.13 0.26825,-1.40325 1.0101,-2.33438 1.66088,-2.08465 0.64686,0.24823 2.22241,-1.07567 3.50124,-2.942 2.20792,-3.22224 5.31214,-4.42424 6.4927,-2.51406 0.29887,0.48358 -0.68707,2.1363 -2.19098,3.67271 -1.50392,1.5364 -2.08736,2.41194 -1.29654,1.94563 0.79081,-0.4663 -0.072,1.03098 -1.91737,3.3273 -3.04584,3.79014 -5.00146,5.57139 -3.56498,3.24711 z m -87.328138,-4.54966 c -2.270048,-2.46271 -4.12736,-4.78771 -4.12736,-5.16666 0,-0.37896 0.148293,-0.50151 0.32954,-0.27235 0.181247,0.22917 2.263559,2.55417 4.62736,5.16667 2.363801,2.6125 4.07282,4.75 3.79782,4.75 -0.275,0 -2.357312,-2.01495 -4.62736,-4.47766 z m 80.122638,-0.10923 c 2.6125,-2.73999 4.75,-5.33388 4.75,-5.76418 0,-0.43031 1.125,-2.25732 2.5,-4.06004 2.84225,-3.72638 3.18546,-6.11188 1,-6.95052 -0.825,-0.31658 -1.5,-0.15385 -1.5,0.36163 0,0.51548 -0.76475,0.64377 -1.69944,0.28509 -1.07239,-0.41151 -1.25458,-0.80042 -0.49377,-1.05402 0.66312,-0.22104 0.9641,-0.79276 0.66885,-1.27049 -1.01536,-1.64289 0.71021,-6.10324 2.14774,-5.55161 0.75714,0.29054 1.37662,0.0924 1.37662,-0.44035 0,-0.53274 -0.45,-0.96862 -1,-0.96862 -0.55,0 -0.96837,-1.0125 -0.92971,-2.25 0.0611,-1.95579 0.16426,-2.0115 0.78904,-0.426 0.39532,1.0032 1.15119,1.6782 1.67971,1.5 0.97091,-0.32735 1.23313,1.20046 1.53221,8.92704 0.1243,3.21135 -0.47572,5.09046 -2.45335,7.68327 -1.43985,1.88774 -2.6179,3.86727 -2.6179,4.39897 0,0.99742 -5.29467,6.60799 -8.61803,9.13221 -1.03508,0.78618 0.25553,-0.81239 2.86803,-3.55238 z m -82.70343,-9.33776 c -1.224117,-1.98066 -1.3401,-9.53204 -0.172019,-11.19971 1.408761,-2.01128 4.37339,-0.89485 3.099058,1.16707 -0.469044,0.75892 -0.378628,1.01662 0.225657,0.64316 0.554554,-0.34274 1.542596,0.54954 2.195648,1.98283 1.023054,2.24536 0.904906,2.86914 -0.853772,4.5076 -1.919582,1.78836 -2.042052,1.79507 -2.056453,0.11266 -0.01229,-1.43632 -0.191178,-1.51115 -0.90748,-0.37964 -0.490691,0.77512 -0.660656,2.01262 -0.377698,2.75 0.582006,1.51668 -0.280378,1.82787 -1.152941,0.41603 z m 98.77536,-0.30352 c -1.47828,-1.9601 -1.45624,-6.60409 0.0455,-9.58331 1.54157,-3.05827 1.46816,-18.117134 -0.10799,-22.153351 -0.9468,-2.424576 -0.98284,-2.403261 -2.20665,1.304899 -1.84883,5.602035 -4.45858,4.630548 -4.86625,-1.811482 -0.3099,-4.897143 -0.29073,-4.932858 1.68699,-3.143044 2.45275,2.219707 4.12648,1.36338 4.12648,-2.111221 0,-3.903798 0.85857,-2.293036 2.0078,3.766818 1.08873,5.740853 3.40242,9.74477 2.55853,4.427616 -0.25916,-1.632812 -0.72434,-5.66875 -1.03375,-8.96875 -0.52933,-5.645597 -0.47792,-5.840163 0.87031,-3.293978 0.78807,1.488312 1.17393,3.69618 0.85746,4.906372 -0.36407,1.392196 -0.19202,1.963406 0.46843,1.555225 2.29864,-1.42064 3.02867,7.432068 0.79691,9.663825 -1.29907,1.299069 -1.29907,1.541545 0,2.040044 0.81086,0.311158 1.50593,1.592357 1.54459,2.847127 0.0667,2.16523 0.11404,2.17956 0.92971,0.28138 0.832,-1.93617 0.86167,-1.93081 0.92971,0.16821 0.10159,3.13387 -0.973,5.42307 -2.19202,4.66967 -0.67693,-0.41836 -0.83873,0.16772 -0.45326,1.64178 0.61995,2.37068 -1.59277,10.18098 -3.76578,13.29217 -0.97037,1.38933 -1.4446,1.49727 -2.19672,0.5 z M 37.402325,109.37041 c -0.891865,-3.55053 -1.670878,-7.93803 -1.731139,-9.749991 -0.09893,-2.97455 -0.195033,-2.857975 -0.989661,1.200411 -0.484052,2.47219 -0.629423,5.28469 -0.323046,6.25 0.306376,0.9653 0.333655,1.7551 0.06062,1.7551 -0.889927,0 -3.760972,-11.142016 -3.309585,-12.843912 0.24158,-0.910846 0.540122,-0.306083 0.663426,1.343917 0.189837,2.54031 1.801932,-3.819752 3.421867,-13.5 1.717535,-10.263471 1.695822,-10.210539 3.51364,-8.565436 2.30112,2.082485 3.072306,1.973404 3.072306,-0.434564 0,-1.1 0.476558,-2 1.059017,-2 0.582459,0 0.776365,-0.45734 0.430902,-1.016312 -0.345464,-0.558971 -1.047021,-0.757414 -1.559017,-0.440983 -1.781058,1.100754 -0.915534,-2.606287 1.473868,-6.312577 3.253759,-5.047028 10.531626,-13.011307 10.566848,-11.563461 0.01561,0.641666 -0.445757,1.324713 -1.02526,1.51788 -0.718155,0.239385 -0.738337,1.141541 -0.06339,2.833334 0.964502,2.417566 0.991905,2.423602 1.053643,0.232119 0.03529,-1.252701 0.695975,-2.25 1.490566,-2.25 0.976566,0 1.316675,-0.873167 1.077188,-2.765485 -0.285896,-2.259024 0.322633,-3.21285 3.32282,-5.208281 2.020047,-1.343537 4.456816,-2.321375 5.415043,-2.172973 1.116809,0.172963 1.555372,-0.217124 1.2217,-1.086659 -0.536369,-1.397756 8.864883,-5.403356 15.036069,-6.406431 4.712736,-0.766015 21.055851,-1.616056 20.500001,-1.066249 -0.275,0.272012 -3.875001,0.744482 -8.000001,1.049933 -9.677034,0.716572 -14.882108,2.044474 -21.030875,5.365331 -5.951974,3.214572 -9.478826,6.803199 -10.359363,10.540814 -0.888044,3.769485 0.788542,3.463825 2.742565,-0.5 0.881173,-1.7875 1.612379,-2.523186 1.624903,-1.634859 0.01252,0.888328 -0.864615,2.743269 -1.949197,4.122092 -1.483807,1.886354 -2.710715,2.420935 -4.956204,2.159487 -3.061695,-0.356481 -4.937714,0.9501 -3.044336,2.120272 0.583064,0.360353 1.715405,0.111347 2.516312,-0.553347 0.916153,-0.760337 1.456198,-0.819181 1.456198,-0.15867 0,0.577426 -1.125,1.93479 -2.5,3.016365 -1.375,1.081575 -2.5,2.478359 -2.5,3.103965 0,0.625605 -0.6,1.367706 -1.333333,1.649113 -0.733334,0.281406 -1.344063,1.054783 -1.357177,1.718615 -0.01311,0.663832 -1.438114,4.099213 -3.166667,7.63418 -2.577096,5.270277 -3.142823,7.640355 -3.142823,13.166667 0,7.51388 -1.041885,8.739014 -4.891368,5.751671 -1.809601,-1.404318 -2.719214,-1.583703 -3.738989,-0.737364 -0.741192,0.615135 -1.026471,1.629939 -0.633953,2.25512 1.139879,1.815538 1.393508,5.438808 0.422715,6.038788 -1.013038,0.62609 -0.30594,5.5979 0.796142,5.5979 0.396766,0 0.780604,1.575 0.852972,3.5 0.07237,1.925 -0.02501,3.5 -0.216397,3.5 -0.191386,0 -1.077683,-2.90498 -1.969549,-6.45552 z m 6.771438,-26.126262 c 0.333844,-0.869984 0.606989,-2.309984 0.606989,-3.2 0,-2.381611 -2.326354,0.174772 -2.517268,2.766174 -0.176575,2.396773 1.050123,2.675357 1.910279,0.433826 z m 3.606989,-15.515723 c 0,-0.393388 -0.9,-0.479895 -2,-0.192239 -2.264127,0.592082 -2.231544,0.522781 -1.339173,2.848261 0.616836,1.607449 0.749974,1.60017 2,-0.109343 0.736545,-1.007285 1.339173,-2.153291 1.339173,-2.546679 z m 3.122807,-5.02749 c -0.207456,-0.75625 -0.394956,-1.9375 -0.416667,-2.625 -0.08747,-2.769976 -1.70614,-1.030637 -1.70614,1.833333 0,2.044445 0.421171,2.928904 1.25,2.625 0.6875,-0.252083 1.080263,-1.077083 0.872807,-1.833333 z M 47.780752,104.9926 c 0,-0.64167 -0.7875,-1.17356 -1.75,-1.18198 -1.369538,-0.012 -1.453642,-0.20308 -0.386847,-0.87895 1.061702,-0.67265 1.083816,-0.95675 0.1,-1.28469 -0.694734,-0.23158 -1.043192,-1.07355 -0.774351,-1.871045 0.328461,-0.974358 1.05791,-0.353423 2.223736,1.892925 0.954214,1.83861 1.476753,3.60111 1.161198,3.91667 -0.315555,0.31555 -0.573736,0.0487 -0.573736,-0.59293 z M 146.53075,66.136609 c -0.9625,-0.251527 -1.75,-1.03653 -1.75,-1.744451 0,-0.707921 -1.13773,-3.037425 -2.52828,-5.176676 l -2.52829,-3.889547 3.56718,4 c 3.0876,3.462226 6.14067,7.736292 5.27457,7.383999 -0.15685,-0.0638 -1.07268,-0.321797 -2.03518,-0.573325 z m -15.25,-13.968083 c -4.28036,-3.921295 -4.41044,-4.137095 -0.9038,-1.499365 3.70213,2.784787 7.22179,6.215895 6.27624,6.118353 -0.20484,-0.02113 -2.62244,-2.099677 -5.37244,-4.618988 z"
       id="path1266" />
    <path
       style="fill:#8d8579"
       d="m 117.86408,148.45561 c 1.22104,-1.08523 9.91667,-4.40774 9.91667,-3.78906 0,1.23301 -5.67841,4.15938 -8.07096,4.15938 -1.2443,0 -2.07487,-0.16665 -1.84571,-0.37032 z m -21.599718,-2.6562 c -0.348934,-0.56459 -1.162991,-0.96127 -1.809017,-0.88152 -2.824835,0.34873 -11.048608,-0.30022 -9.854445,-0.77762 0.961764,-0.3845 0.75816,-0.9214 -0.75,-1.97776 -1.138581,-0.79749 -2.070118,-1.76197 -2.070082,-2.14328 3.7e-5,-0.38132 4.53515,-0.69532 10.078029,-0.69779 5.542879,-0.002 9.255343,0.22253 8.249933,0.5 -1.005415,0.27747 -2.706771,1.02344 -3.78079,1.65771 -1.62466,0.95946 -1.738162,1.4118 -0.675529,2.6922 0.702479,0.84643 2.706222,1.71797 4.452759,1.93674 l 3.17553,0.39777 -3.19098,0.16003 c -1.755042,0.088 -3.476475,-0.30189 -3.825408,-0.86648 z m 32.016388,-12.97348 c 3.26557,-3.3 6.16239,-6 6.43739,-6 0.275,0 -2.17182,2.7 -5.43739,6 -3.26557,3.3 -6.16239,6 -6.43739,6 -0.275,0 2.17182,-2.7 5.43739,-6 z m -7.67857,0.76483 c -0.2191,-1.54317 0.90728,-3.53938 3.53501,-6.26483 2.12112,-2.2 5.01423,-5.71891 6.42915,-7.8198 1.77177,-2.63077 3.12446,-3.67548 4.34554,-3.35616 0.97514,0.255 1.98403,-0.0511 2.24198,-0.6802 0.25795,-0.62911 0.53615,-0.0188 0.61823,1.35616 0.13764,2.30579 0.21599,2.34463 1.00866,0.5 0.84533,-1.96719 0.86058,-1.96582 0.92971,0.0833 0.1021,3.02609 -1.00869,3.65517 -3.10469,1.75832 -1.0105,-0.9145 -2.15899,-1.34101 -2.55219,-0.94781 -0.3932,0.3932 -0.24512,1.02794 0.32907,1.41053 0.57419,0.3826 1.32574,1.46021 1.67011,2.3947 0.4458,1.20971 0.21043,1.53955 -0.81719,1.14522 -0.79383,-0.30462 -1.13454,-1.06921 -0.75712,-1.69907 0.37742,-0.62987 -0.0752,-0.52762 -1.00574,0.22722 -0.93058,0.75488 -1.69196,2.19985 -1.69196,3.21108 0,2.64575 -3.92222,5.91651 -7.09494,5.91651 -2.17131,0 -2.61859,0.37947 -2.22432,1.88714 0.27142,1.03793 0.0365,2.1696 -0.52213,2.51483 -0.55859,0.34523 -1.16032,-0.39148 -1.33718,-1.63714 z m -65.82923,-7.60331 c -0.0043,-0.36384 -1.109083,-1.17214 -2.455093,-1.79624 -1.782841,-0.82664 -2.54765,-0.83364 -2.816934,-0.0258 -0.203304,0.60991 -0.618357,0.15785 -0.92234,-1.00458 -0.303982,-1.16243 -0.164742,-2.72583 0.309424,-3.47421 0.669404,-1.05653 0.865542,-0.9608 0.877432,0.42826 0.01403,1.63944 0.199683,1.61718 2.221394,-0.26633 l 2.206081,-2.05527 1.222133,2.26632 c 0.690624,1.28069 0.81845,2.41129 0.293919,2.59965 -1.915729,0.68797 -0.839875,1.95633 1.205667,1.42141 1.482597,-0.38771 2.000171,-0.15689 1.695791,0.75624 -0.446887,1.34067 -3.823292,2.35296 -3.837474,1.15054 z M 34.309533,110.8725 c -0.294398,-0.47635 -0.232337,-1.65552 0.137913,-2.62037 0.387089,-1.00874 0.270242,-1.50526 -0.274943,-1.16832 -0.580227,0.3586 -0.549161,-1.60038 0.08006,-5.04856 l 1.028189,-5.634535 0.659527,5.366585 c 0.36274,2.95163 0.398767,6.04612 0.08006,6.87666 -0.377773,0.98446 -0.17225,1.25839 0.590473,0.787 0.643468,-0.39769 1.16994,-0.29465 1.16994,0.22896 0,1.30361 -2.808599,2.28472 -3.471219,1.21258 z M 147.75549,93.25949 c -0.65187,-1.714544 -0.77458,-4.450033 -0.30903,-6.888688 0.76478,-4.006023 0.77793,-3.982445 1.3694,2.455133 0.68649,7.471869 0.45801,8.427194 -1.06037,4.433555 z m -6.93796,-5.88924 c -0.69487,-0.837262 -1.66241,-1.275691 -2.15009,-0.974288 -0.48768,0.301404 -0.88669,-1.701993 -0.88669,-4.451993 0,-2.75 0.39901,-5.246603 0.88669,-5.548007 1.11657,-0.690079 2.78227,1.31054 3.27206,3.929973 0.22361,1.195889 1.16613,2.000722 2.34426,2.001795 1.21724,0.0011 2.0677,0.765513 2.22515,2 0.25451,1.995423 0.25365,1.99542 -0.61833,-0.0018 -0.78116,-1.789207 -0.91201,-1.691938 -1.24151,0.922881 -0.42858,3.401059 -2.03252,4.289124 -3.83154,2.121434 z M 42.263484,82.810322 c 0.190914,-2.591402 2.517268,-5.147785 2.517268,-2.766174 0,2.19199 -1.050626,4.781787 -1.93987,4.781787 -0.399241,0 -0.65907,-0.907026 -0.577398,-2.015613 z M 134.78075,72.774494 c 0,-2.588944 1.19841,-3.078977 3.16885,-1.295753 2.52338,2.28363 2.29185,3.36292 -0.66885,3.117885 -1.54942,-0.128234 -2.5,-0.821067 -2.5,-1.822132 z m -2.44423,-3.858317 c -0.30924,-0.500367 -0.30512,-1.579849 0.009,-2.398849 0.31428,-0.819001 0.0907,-1.786167 -0.49676,-2.149259 -0.59425,-0.367367 -1.06801,0.07926 -1.06801,1.007003 0,1.059355 -1.65647,-0.175226 -4.54353,-3.386325 -4.74236,-5.274644 -9.84636,-8.93177 -14.94944,-10.71158 -1.65387,-0.576822 -2.92587,-1.495303 -2.82667,-2.041069 0.10084,-0.554814 -1.28271,-0.821496 -3.13814,-0.604885 -1.95854,0.228648 -4.31913,-0.268223 -5.760183,-1.212439 -1.342928,-0.87992 -2.632932,-1.408608 -2.866677,-1.174864 -0.233745,0.233745 -2.672823,0.683154 -5.420174,0.998687 -7.803626,0.896245 -15.403724,2.626335 -16.036764,3.650616 -0.31705,0.512997 -1.37321,0.932722 -2.347024,0.932722 -0.973813,0 -4.659756,2.558807 -8.190983,5.686237 -3.531227,3.127431 -5.857913,5.062431 -5.170413,4.3 1.733671,-1.922623 1.57295,-3.499151 -0.206195,-2.022592 -0.800907,0.664694 -1.933248,0.9137 -2.516312,0.553347 -1.891404,-1.168952 -0.01877,-2.476917 3.036874,-2.121141 1.637227,0.190627 3.219077,-0.04546 3.515222,-0.524628 0.296145,-0.479173 0.05331,-0.871223 -0.539624,-0.871223 -1.982374,0 0.113304,-5.418854 3.287276,-8.5 1.69971,-1.65 2.251672,-1.9875 1.226582,-0.75 -1.921162,2.319251 -0.891035,3.187212 1.246177,1.05 0.933333,-0.933333 1.2,-0.822222 1.2,0.5 0,0.935 0.476558,1.7 1.059017,1.7 0.582459,0 0.799931,-0.41921 0.48327,-0.931578 -0.726269,-1.175129 3.313267,-4.068422 5.680219,-4.068422 0.977622,0 1.777494,0.45 1.777494,1 0,0.55 0.498145,1 1.106989,1 0.608844,0 0.854318,-0.65845 0.545498,-1.463222 -0.771577,-2.010697 5.769147,-3.261668 7.882641,-1.507625 0.832262,0.690717 1.802329,0.966723 2.155705,0.613348 0.353375,-0.353376 0.1175,-0.642501 -0.524166,-0.642501 -0.641667,0 -1.166667,-0.437357 -1.166667,-0.971905 0,-1.250198 14.906768,-0.40076 18.697348,1.065437 1.54146,0.596237 3.48695,1.223395 4.32332,1.393685 0.83637,0.17029 3.23427,1.320665 5.32866,2.556389 2.86092,1.68798 3.68093,2.73268 3.29709,4.200496 -0.39984,1.528985 -0.10095,1.846516 1.37486,1.460585 2.57173,-0.672523 5.46432,1.587469 4.67258,3.650705 -0.45392,1.18292 -0.0784,1.644608 1.33752,1.644608 1.08274,0 1.96862,0.45 1.96862,1 0,0.55 0.52571,0.8875 1.16825,0.75 1.33874,-0.286486 3.79508,3.896409 3.81701,6.5 0.0156,1.852565 -1.48342,2.371006 -2.42949,0.840242 z M 93.530752,38.102539 c 1.7875,-0.221826 4.7125,-0.221826 6.499998,0 1.7875,0.221827 0.325,0.403322 -3.249998,0.403322 -3.575,0 -5.0375,-0.181495 -3.25,-0.403322 z m -65.851994,-4.55929 c 1.667659,-2.122036 11.101994,-10.118006 11.101994,-9.409377 0,0.271796 -2.8125,2.90035 -6.25,5.841232 -3.4375,2.940881 -5.620898,4.546547 -4.851994,3.568145 z m 126.974432,-2.37225 c -0.75484,-0.910214 -4.25205,-3.835214 -7.77157,-6.5 -3.51952,-2.664785 -6.08159,-4.845064 -5.69348,-4.845064 1.22586,0 13.36195,9.401009 14.51071,11.240461 1.38768,2.222035 0.76223,2.284602 -1.04566,0.104603 z"
       id="path1264" />
    <path
       id="path1262"
       style="fill:#837c70"
       d="m 102.78125,6.0566406 -3.5,0.033203 3.5,0.7363281 c 1.925,0.4051948 4.625,0.7499991 6,0.7675781 l 2.5,0.033203 -2.5,-0.8007812 c -1.375,-0.440352 -4.075,-0.7871103 -6,-0.7695313 z m 10.43359,1.8339844 c -0.51392,0.035392 1.99141,1.1154558 5.56641,2.400391 3.575,1.284934 6.6125,2.380877 6.75,2.435546 0.1375,0.05468 0.25,-0.292007 0.25,-0.769531 0,-0.81017 -10.50261,-4.2085324 -12.56641,-4.066406 z M 86.101562,42.896484 c -1.639705,0.06327 -1.620771,0.156004 0.179688,0.929688 1.785248,0.767147 1.806178,0.866947 0.191406,0.929687 -1.037922,0.04033 -1.524165,0.532509 -1.138672,1.15625 0.451913,0.731216 1.002991,0.758728 1.681641,0.08008 0.554943,-0.554943 1.741239,-0.733278 2.636719,-0.394532 1.460439,0.552462 1.454893,0.441431 -0.05078,-1.078125 -0.923214,-0.931725 -2.498215,-1.661707 -3.5,-1.623047 z m -12.955078,0.988282 c -0.586177,0.143987 -2.105742,1.03111 -4.08789,2.542968 -1.875539,1.430543 -3.165021,2.844747 -2.867188,3.142578 0.297832,0.297832 1.226162,-0.02889 2.064453,-0.724609 1.25904,-1.044911 1.525391,-0.982801 1.525391,0.357422 0,0.892345 0.476135,1.623047 1.058594,1.623047 0.58246,0 0.799083,-0.419273 0.482422,-0.931641 -0.316661,-0.512368 0.432483,-1.637368 1.664062,-2.5 1.23158,-0.862632 1.716091,-1.568359 1.076172,-1.568359 -0.639919,0 -1.441331,0.45 -1.78125,1 -0.339919,0.55 -1.153553,0.985097 -1.808594,0.966797 -0.655041,-0.0183 -0.130462,-0.918298 1.167969,-2 1.744787,-1.453554 2.092037,-2.052191 1.505859,-1.908203 z m 22.894532,2.699218 c -0.481019,0.0074 -0.977921,0.05264 -1.472657,0.136719 -3.234327,0.549648 -3.213541,0.568414 1.212891,1.181641 2.475,0.342881 4.725,0.677077 5,0.742187 0.275,0.06511 -0.27133,-0.468268 -1.212891,-1.183593 -0.772742,-0.587077 -2.084287,-0.899074 -3.527343,-0.876954 z m 30.763674,9.308594 c -0.48697,-0.162359 -0.52344,0.400114 -0.52344,1.546875 0,1.606522 0.57212,2.386719 1.75,2.386719 0.9625,0 1.75,0.476135 1.75,1.058594 0,0.582458 0.4177,0.800806 0.92969,0.484375 0.512,-0.316431 1.21508,-0.117565 1.56054,0.441406 0.56639,0.916437 1.50982,1.395607 1.50782,0.765625 -4.9e-4,-0.1375 -1.68799,-1.886453 -3.75,-3.886719 -1.80126,-1.747323 -2.73765,-2.634515 -3.22461,-2.796875 z m 6.96875,7.642578 0.66211,3.3125 c 0.55759,2.787951 0.40595,3.214888 -0.95313,2.69336 -1.39645,-0.535867 -1.45897,-0.276369 -0.46094,1.914062 l 1.1543,2.533203 0.82227,-2.21875 c 0.80888,-2.186603 0.85159,-2.19191 2.97265,-0.332031 2.31255,2.027797 1.97048,1.213756 -1.90039,-4.507812 z m 4.21094,2.371094 c -0.2711,-0.05633 0.0901,0.642618 1.05859,2.419922 3.38091,6.204368 5.81258,12.805888 4.23437,11.496094 -1.2124,-1.006207 -1.49609,-0.964388 -1.49609,0.214843 0,0.800678 0.30937,1.764454 0.6875,2.142579 0.37812,0.378121 1.16562,0.517619 1.75,0.308593 1.33653,-0.478066 0.98087,-6.022652 -0.41602,-6.488281 -0.56925,-0.18976 -0.78919,-0.743596 -0.48828,-1.230469 0.70868,-1.146682 -1.89943,-6.179063 -4.15429,-8.015625 -0.62285,-0.507302 -1.01313,-0.813857 -1.17578,-0.847656 z m -0.85157,8.564453 c -0.96185,0.0044 -1.77879,0.305365 -2.03711,0.978516 -0.29053,0.757017 -0.26971,2.051953 0.0469,2.876953 0.83344,2.17192 2.31569,1.840731 2.9707,-0.664063 0.48176,-1.84222 0.80138,-1.970855 2.14063,-0.859375 1.32494,1.099607 1.47928,1.062381 0.98242,-0.232422 -0.49541,-1.291011 -2.50043,-2.106987 -4.10352,-2.099609 z M 35.751953,111.14453 c -1.366009,0.0138 -1.371653,0.53045 -0.04687,4.84766 1.742175,5.67742 2.574488,6.29498 1.765625,1.31054 -0.339056,-2.08935 -0.188884,-3.28433 0.369141,-2.93945 0.517421,0.31978 0.934181,0.21645 0.925781,-0.22851 -0.02936,-1.55124 -1.495333,-3.00554 -3.013672,-2.99024 z m 20.320313,9.88086 c -0.145645,-0.0443 -0.155302,0.0755 0.0078,0.36914 0.326229,0.58731 -0.270542,1.69032 -1.326172,2.45117 -1.779941,1.28291 -1.800671,1.51349 -0.291015,3.18164 0.895331,0.98933 2.232899,1.79883 2.972656,1.79883 0.739756,0 1.233203,0.49257 1.095703,1.09375 -0.1375,0.60118 0.63026,1.61368 1.707031,2.25 1.076773,0.63632 2.605833,1.75233 3.396485,2.48047 1.102969,1.01576 1.609707,1.04334 2.179687,0.12109 0.408584,-0.6611 1.264145,-0.8788 1.902344,-0.48437 0.879214,0.54339 0.877509,1.05785 -0.0098,2.12695 -0.644056,0.77603 -0.928221,1.41211 -0.630859,1.41211 0.297361,0 1.286023,0.28509 2.197266,0.63477 1.163876,0.44662 1.560349,0.16944 1.332031,-0.9336 -0.178759,-0.86361 0.125781,-1.61788 0.675781,-1.67578 0.55,-0.0579 1.142606,0.81376 1.318359,1.93555 0.175753,1.12179 0.738253,2.03906 1.25,2.03906 0.511747,0 0.931641,0.64804 0.931641,1.44141 0,0.97035 1.39109,1.56868 4.25,1.82617 2.3375,0.21054 4.860944,0.46054 5.609375,0.55664 0.748431,0.0961 0.298431,-0.71587 -1,-1.80469 -2.014788,-1.68955 -2.139535,-2.12666 -0.859375,-2.98437 1.2012,-0.80481 0.996999,-1.00723 -1.025391,-1.01953 -4.165585,-0.0252 -18.043041,-7.54438 -20.792968,-11.26563 -0.746719,-1.0105 -1.830786,-1.46325 -2.5,-1.04492 -1.761397,1.10106 -3.681641,1.23441 -3.681641,0.25586 0,-0.47401 0.7875,-1.30653 1.75,-1.84961 1.491255,-0.84142 1.543712,-1.18058 0.353516,-2.29883 -0.384096,-0.36087 -0.666855,-0.56898 -0.8125,-0.61328 z m 79.974614,1.13281 c -0.2822,0.0177 -0.62177,0.0546 -1.00782,0.0957 -2.03194,0.21664 -2.87434,1.01084 -3.45508,3.25195 -0.92739,3.57891 -4.66656,5.7956 -8.49414,5.03711 -3.11769,-0.61783 -7.95056,2.43455 -6.80078,4.29492 0.43329,0.70109 -0.17953,0.85709 -1.78125,0.45508 -1.50503,-0.37773 -2.98698,-0.0657 -3.86719,0.81445 -1.57113,1.57115 -6.56119,2.85133 -11.636714,2.98242 -1.802777,0.0466 -2.762124,0.40283 -2.130859,0.79297 0.783599,0.48429 0.568648,1.03405 -0.675781,1.73047 -1.542428,0.86319 -1.617503,1.26403 -0.496094,2.61524 1.428781,1.72158 4.602178,2.25144 3.580078,0.59765 -0.350523,-0.56716 0.490044,-1 1.94141,-1 1.40746,0 2.55859,-0.45 2.55859,-1 0,-0.55 0.70113,-1 1.55859,-1 0.85746,0 1.30081,-0.41965 0.98438,-0.93164 -0.7476,-1.20963 1.48027,-2.60041 2.31836,-1.44726 1.11565,1.53506 3.09706,1.436 2.49804,-0.125 -0.33511,-0.8733 0.16781,-1.76169 1.22657,-2.16797 1.04986,-0.40287 1.95731,-0.1984 2.1875,0.49218 0.58991,1.76972 3.22656,1.42007 3.22656,-0.42773 0,-1.0686 0.54103,-1.39854 1.61523,-0.98633 1.31973,0.50642 1.53247,0.0635 1.16797,-2.41992 -0.28028,-1.9097 -0.0442,-2.89966 0.63477,-2.66211 0.59442,0.20797 1.04896,1.31092 1.00976,2.45117 -0.12244,3.56152 3.36573,2.15204 8.38282,-3.38867 6.64075,-7.33384 7.43041,-8.17879 5.45508,-8.05469 z m -17.2461,26.74414 c -2.35272,-0.081 -4.2238,0.7834 -3.57812,1.82813 0.33496,0.54197 1.84484,0.44312 3.68554,-0.24219 2.7568,-1.02637 2.86506,-1.20139 0.92383,-1.49219 -0.34981,-0.0524 -0.69515,-0.0822 -1.03125,-0.0937 z m -24.748046,38.31055 c -0.0058,0.002 -0.01688,0.003 -0.03125,0.006 -4.11e-4,0.002 -0.0016,0.004 -0.002,0.006 0.01433,-0.001 0.02864,-0.003 0.04297,-0.004 -0.0013,-0.007 -0.002,-0.01 -0.0098,-0.008 z m 2.884766,0.0117 c -0.0114,8.9e-4 -0.01738,0.003 -0.02344,0.004 0.0053,-4.3e-4 0.01188,4.2e-4 0.01563,0.002 0.0019,-7e-5 0.0039,6e-5 0.0059,0 3.93e-4,-0.002 0.0016,-0.004 0.002,-0.006 z m -0.0078,0.006 c -0.0071,2.5e-4 -0.01438,-3.6e-4 -0.02148,0 -0.0034,1.6e-4 5.68e-4,-0.002 0.0059,-0.002 -0.01002,0.001 -0.01599,0.001 -0.01562,0.004 0,0 0.002,0.002 0.002,0.002 0.0022,0.006 0.01467,0.0175 0.02539,0.043 0.0029,-0.0129 0.0052,-0.0261 0.0078,-0.0391 -3.32e-4,-0.002 3.42e-4,-0.004 0,-0.006 -2.14e-4,-0.001 -0.0025,-0.001 -0.0039,-0.002 z" />
    <path
       style="fill:#645e59"
       d="m 86.280752,156.39416 c -0.55,-0.22601 -3.097642,-0.69291 -5.661427,-1.03757 -2.563785,-0.34465 -4.882509,-1.20277 -5.15272,-1.90693 -0.389953,-1.0162 0.571562,-0.99125 4.661427,0.12098 5.839233,1.58796 18.415232,1.98378 23.652718,0.74445 3.37656,-0.79898 3.41183,-0.85396 1,-1.55899 -2.44268,-0.71405 -2.43122,-0.73485 0.5,-0.907 1.65,-0.0969 3.675,-0.35409 4.5,-0.57152 3.5294,-0.93018 5.3098,-0.88112 5.67841,0.15646 0.59432,1.67292 -10.5347,4.42759 -19.913835,4.92911 -4.545515,0.24306 -8.714573,0.25701 -9.264573,0.031 z m -17.852013,-5.0631 c -0.775441,-0.77544 -1.688463,-1.13132 -2.028939,-0.79084 -0.340477,0.34047 -0.619048,0.0675 -0.619048,-0.60664 0,-0.67413 -0.413721,-0.96999 -0.91938,-0.65748 -0.505659,0.31252 -1.614588,-0.127 -2.464286,-0.97669 -0.849698,-0.8497 -1.779959,-1.41634 -2.067247,-1.25919 -0.945829,0.51735 -11.493711,-8.43932 -14.860017,-12.6183 -6.846672,-8.49955 -7.967977,-10.66504 -8.12762,-15.69618 -0.162191,-5.11145 0.276956,-5.23958 2.227179,-0.64981 0.771467,1.81562 0.815949,2.75 0.130915,2.75 -0.570668,0 -0.754926,0.45734 -0.409463,1.01631 0.345464,0.55897 0.981907,0.79766 1.414318,0.53041 0.432411,-0.26724 3.388864,2.98792 6.569896,7.23369 4.172096,5.56857 4.872913,6.88366 2.515089,4.71959 -2.985147,-2.73984 -3.160014,-2.79072 -2.016435,-0.58674 1.642034,3.16464 7.553202,8.61899 12.257051,11.30983 2.0625,1.17986 3.75,2.53889 3.75,3.02007 0,0.48118 0.3375,0.6823 0.75,0.44694 0.4125,-0.23536 2.526714,0.3307 4.698253,1.25792 2.995713,1.27913 3.54552,1.84039 2.278939,2.32642 -0.918123,0.35232 -2.303765,0.006 -3.079205,-0.76931 z m 30.852013,-6.50513 c -0.350523,-0.56716 0.489616,-1 1.940978,-1 1.40746,0 2.55902,-0.45 2.55902,-1 0,-0.55 0.70156,-1 1.55902,-1 0.85746,0 1.30012,-0.41891 0.98369,-0.9309 -0.7476,-1.20963 1.481,-2.60037 2.31909,-1.44722 1.11565,1.53506 3.09747,1.43555 2.49846,-0.12545 -0.81387,-2.12091 2.29133,-2.9877 4.12702,-1.15201 1.3849,1.3849 0.92336,1.76303 -4.61817,3.78358 -4.83762,1.76388 -5.75105,2.40416 -4.26298,2.98816 1.31601,0.51648 0.61512,0.76471 -2.29711,0.81355 -2.30504,0.0387 -4.469099,-0.37971 -4.809018,-0.92971 z m -29,-3.72726 c -2.045513,-0.50652 -14.5,-8.21199 -14.5,-8.971 0,-0.23088 0.5625,-0.0751 1.25,0.34614 0.6875,0.42126 -0.736644,-1.12804 -3.164765,-3.44288 -2.428121,-2.31484 -4.105252,-4.51832 -3.726956,-4.89661 0.378295,-0.3783 2.830396,1.42256 5.449114,4.0019 2.618718,2.57934 5.115491,4.68971 5.548385,4.68971 0.432893,0 1.495329,0.70825 2.360968,1.57389 1.176902,1.1769 1.761267,1.2707 2.316768,0.37188 0.408584,-0.6611 1.265042,-0.87929 1.903241,-0.48486 0.879213,0.54339 0.876634,1.05902 -0.01064,2.12812 -0.644053,0.77603 -0.927709,1.41097 -0.630347,1.41097 0.297361,0 1.286219,0.2861 2.197461,0.63578 1.163876,0.44662 1.560105,0.16861 1.331787,-0.93443 -0.178759,-0.86361 0.124984,-1.61753 0.674984,-1.67538 0.55,-0.0579 1.143798,0.81263 1.319551,1.93442 0.175753,1.12179 0.738253,2.03961 1.25,2.03961 0.511747,0 0.930449,0.45 0.930449,1 0,1.04168 -1.120523,1.10959 -4.5,0.27274 z m 49.499998,-1.76882 c 1.36071,-1.70396 1.3375,-1.81748 -0.25,-1.22254 -1.19665,0.44847 -1.75,0.16513 -1.75,-0.8961 0,-0.85357 0.5625,-1.35406 1.25,-1.11219 0.6875,0.24186 2.2625,0.0655 3.5,-0.39192 3.26332,-1.20622 2.75822,0.37066 -1,3.12192 -2.41025,1.76445 -2.86242,1.89386 -1.75,0.50083 z m -33.499998,-0.70254 c -10.525859,-1.24969 -21.747278,-7.13694 -27.273315,-14.30876 -3.246892,-4.2139 -9.655107,-16.39753 -8.979791,-17.07285 0.217049,-0.21705 2.040144,2.86221 4.051323,6.8428 3.621374,7.16753 7.775077,12.73743 9.49883,12.73743 0.491138,0 1.750222,0.95142 2.797965,2.11427 1.047744,1.16285 4.789226,3.4793 8.314407,5.14768 9.081409,4.29801 22.092299,5.02073 31.736999,1.76291 13.45667,-4.54543 23.11701,-13.74186 27.86289,-26.52486 l 1.48506,-4 -0.59523,3.5 c -0.32737,1.925 -1.65875,5.35052 -2.95862,7.61226 -2.57185,4.47499 -13.9183,16.38774 -15.60869,16.38774 -0.5752,0 -0.78465,0.68056 -0.46546,1.51237 0.44851,1.16878 0.0511,1.37953 -1.74925,0.92767 -1.41197,-0.35438 -2.91254,-0.002 -3.80951,0.8952 -0.81394,0.81395 -4.14113,1.78548 -7.39375,2.15896 -3.252618,0.37348 -6.813858,0.78238 -7.913858,0.90866 -1.1,0.12629 -5.15,-0.14438 -9,-0.60148 z m -52,-23.80138 c -0.937072,-2.82126 -1.5029,-5.33043 -1.257394,-5.57594 0.245505,-0.2455 1.197047,1.87795 2.114537,4.7188 0.91749,2.84084 1.483317,5.35001 1.257394,5.57594 -0.225923,0.22592 -1.177465,-1.89754 -2.114537,-4.7188 z M 48.42141,103.61559 c -0.337342,-1.25931 -0.566565,-3.639655 -0.509384,-5.289655 0.07174,-2.070237 0.36142,-1.460209 0.934678,1.968325 0.87356,5.22459 0.61838,7.21742 -0.425294,3.32133 z m 87.83969,-8.985197 c 0.0108,-5.667452 -0.32341,-11.52997 -0.74272,-13.027818 -0.58241,-2.080521 -0.44528,-2.601684 0.58095,-2.207884 1.54832,0.594148 2.25718,17.981774 0.92689,22.735699 -0.50797,1.81526 -0.77784,-0.83015 -0.76512,-7.499997 z M 1.780752,88.966918 c 0,-2.959768 0.3514888,-4.041785 1.1522018,-3.546917 0.8342058,0.515567 0.9891141,-0.503106 0.5612825,-3.690983 C 2.8826212,77.171726 5.4813142,65.83 7.1377408,65.827321 c 0.4713438,-7.62e-4 0.5823901,0.714207 0.2467694,1.58882 -0.3356207,0.874614 -1.3314877,6.612114 -2.2130377,12.75 C 3.4864421,91.898345 1.780752,96.325545 1.780752,88.966918 Z M 181.88602,85.175559 c -0.62582,-4.207707 -0.90552,-7.882707 -0.62156,-8.166667 0.28396,-0.28396 0.54792,0.57121 0.58658,1.900376 0.066,2.268815 0.12771,2.294307 1.00903,0.416667 0.68316,-1.455457 0.841,-0.579753 0.57975,3.216292 -0.19746,2.868961 -0.058,5.030227 0.31002,4.802813 0.36796,-0.227414 0.47437,0.912755 0.23647,2.533708 -0.23791,1.620953 -0.55178,2.947187 -0.6975,2.947187 -0.14571,0 -0.77697,-3.442669 -1.40279,-7.650376 z M 47.851037,88.242602 c 0.03866,-2.154167 0.452656,-4.816667 0.919997,-5.916667 0.528785,-1.244622 0.638165,0.07729 0.289603,3.5 -0.670744,6.586376 -1.307246,7.858048 -1.2096,2.416667 z M 144.47367,76.52071 c -0.98931,-3.138453 -2.93468,-6.941189 -4.32305,-8.450526 l -2.52431,-2.744249 1.54583,3 c 2.5237,4.897775 4.67124,10.770707 4.13469,11.307256 -0.2751,0.275096 -1.64874,-1.931497 -3.05254,-4.903541 -5.57726,-11.807866 -9.2031,-16.146828 -20.18574,-24.155876 -3.69051,-2.691284 -8.25844,-5.021106 -11.25309,-5.739511 -2.77248,-0.665109 -5.26467,-1.571402 -5.53821,-2.013984 -0.27353,-0.442582 2.05146,-0.139116 5.16663,0.674369 6.27995,1.639924 14.27913,6.412812 18.77396,11.201912 1.6154,1.721156 3.6235,3.129375 4.46244,3.129375 0.83894,0 2.53856,1.2375 3.77694,2.75 1.23838,1.5125 2.26779,2.223764 2.28757,1.580587 0.0198,-0.643177 -2.30234,-3.793177 -5.16026,-7 -4.54854,-5.103838 -4.66568,-5.33201 -0.93977,-1.830587 7.66891,7.20685 15.91673,22.207402 14.95532,27.199639 -0.18022,0.935778 -1.1371,-0.866411 -2.12641,-4.004864 z m -94.692918,2.853344 c 0,-1.197876 4.276893,-9.601214 5.166323,-10.150912 0.513746,-0.317513 0.01149,1.14406 -1.116119,3.247939 -1.127612,2.10388 -2.050204,4.367842 -2.050204,5.031028 0,0.663186 -0.45,1.483907 -1,1.823826 -0.55,0.339919 -1,0.361572 -1,0.04812 z M 132.4078,73.279723 C 129.80394,66.927221 119.59178,56.827934 112.26941,53.363894 103.60567,49.265292 95.537665,48.140718 86.133505,49.720896 75.71719,51.471145 69.481103,54.648706 61.888232,62.074929 58.373027,65.512982 55.976518,67.407086 56.562656,66.284049 58.49446,62.582722 67.19729,55.2471 72.786988,52.608546 c 18.71308,-8.833296 41.284152,-4.414219 53.925342,10.557773 1.33737,1.583955 2.96651,3.414854 3.62033,4.068664 1.96118,1.961183 4.59077,7.623373 4.25849,9.169641 -0.17072,0.794433 -1.15323,-0.611772 -2.18335,-3.124901 z m 47.6502,0.326474 c 0.23861,-1.495855 0.0488,-2.481798 -0.42171,-2.190983 -0.47055,0.290815 -0.85554,-0.135998 -0.85554,-0.948475 0,-0.812476 -0.27314,-2.189033 -0.60699,-3.059017 -0.33384,-0.869983 -0.14606,-1.581787 0.41729,-1.581787 1.25457,0 4.73294,8.790093 3.83407,9.688961 -0.3544,0.354405 -0.65126,0.0069 -0.65968,-0.772294 -0.0127,-1.1713 -0.19942,-1.156867 -1.07829,0.08333 -0.83246,1.174705 -0.9689,0.910189 -0.62915,-1.219738 z M 139.25337,54.280229 c -2.73494,-2.500138 -4.07262,-4.112072 -2.97262,-3.582077 1.92772,0.928803 9.38445,8.127783 8.41878,8.127783 -0.26045,0 -2.71122,-2.045567 -5.44616,-4.545706 z m 27.47367,-7.696001 c -1.77389,-2.882939 -6.16131,-8.282939 -9.74983,-12 -3.58852,-3.717061 -6.15601,-6.758293 -5.70553,-6.758293 0.45047,0 -0.0382,-1.0125 -1.08594,-2.25 l -1.90499,-2.25 2.22642,1.883647 c 1.22453,1.036006 2.01698,2.222517 1.76101,2.636693 -0.25598,0.414175 0.20464,1.309135 1.02358,1.988798 0.81894,0.679663 1.48899,0.864325 1.48899,0.410359 0,-0.453966 1.78136,0.914061 3.95858,3.040061 2.17722,2.125999 3.72567,4.242325 3.44099,4.702947 -0.28468,0.460622 -0.11683,0.837495 0.373,0.837495 0.90929,0 6.66078,8.359749 7.80758,11.348283 1.24823,3.252836 -0.46464,1.560636 -3.63386,-3.58999 z M 16.780752,47.730305 c 0,-2.008138 4.136767,-6.937878 5.246405,-6.252083 0.686913,0.424535 0.869459,0.09203 0.490973,-0.894286 -0.632502,-1.648273 2.455011,-5.232278 3.557602,-4.129688 0.548572,0.548573 -7.997405,12.371687 -8.942497,12.371687 -0.193865,0 -0.352483,-0.493033 -0.352483,-1.09563 z m 53,-0.368319 c 0,-0.744676 7.363852,-5.537562 8.482135,-5.520738 0.559826,0.0084 0.342865,0.484992 -0.482135,1.059044 -1.10103,0.76612 -0.303089,0.907446 3,0.531343 3.983965,-0.45363 3.811954,-0.339383 -1.5,0.996267 -3.3,0.82976 -6.4275,1.933765 -6.95,2.453344 -0.992398,0.98685 -2.55,1.280498 -2.55,0.48074 z m -13,-3.860944 c 1.5608,-1.469661 8.054577,-3.953863 8.685711,-3.32273 0.198767,0.198768 -2.011704,1.345489 -4.912158,2.548269 -3.195268,1.325035 -4.682409,1.630247 -3.773553,0.774461 z m 33.727696,-1.396839 c 1.775232,-0.220912 4.925232,-0.224542 7,-0.0081 2.074767,0.216509 0.622304,0.397255 -3.227696,0.401692 -3.85,0.0044 -5.547537,-0.17268 -3.772304,-0.393592 z m 2.522304,-3.006736 c 2.0625,-0.215745 5.4375,-0.215745 7.499998,0 2.0625,0.215744 0.375,0.392262 -3.749998,0.392262 -4.125,0 -5.8125,-0.176518 -3.75,-0.392262 z m -65.25,-4.163882 c 0,-0.690382 -0.545922,-0.917373 -1.25,-0.519744 -0.6875,0.388268 0.528826,-1.160175 2.702948,-3.440983 2.174121,-2.280807 4.165062,-4.146923 4.424314,-4.146923 0.259251,0 -0.594609,1.134679 -1.897468,2.521508 -1.302858,1.386829 -2.472533,3.228063 -2.599278,4.091631 -0.288676,1.966871 -1.380516,3.148869 -1.380516,1.494511 z M 141.82527,22.201481 c -4.33563,-3.078027 -5.18088,-3.977256 -2.36026,-2.511001 2.82599,1.469049 3.60679,1.4361 2.71443,-0.114545 -0.39564,-0.6875 -0.45969,-1.025 -0.14235,-0.75 0.31735,0.275 0.50199,0.790256 0.41033,1.145012 -0.0917,0.354757 0.69057,1.592257 1.73832,2.75 2.39613,2.647698 1.968,2.553478 -2.36047,-0.519466 z M 48.366288,17.964335 c -0.633709,-1.025362 10.270771,-6.345241 11.477507,-5.599437 0.515327,0.318489 0.936957,0.164114 0.936957,-0.343056 0,-2.018486 18.812565,-6.5791073 23.419512,-5.6774563 2.055604,0.4023135 2.630255,0.2923184 1.727227,-0.3306118 -2.179236,-1.5032879 12.470098,-2.454266 19.749019,-1.2820299 9.08154,1.4625405 16.69451,4.1058132 14.97066,5.1979117 -1.14178,0.7233363 -1.13351,0.8681713 0.0502,0.8809663 0.77916,0.0084 1.20951,0.222465 0.95633,0.47565 -0.25319,0.253185 -1.54159,0.177583 -2.86312,-0.168004 -2.25487,-0.589663 -2.28296,-0.680731 -0.45633,-1.4794516 1.47312,-0.6441403 1.21692,-0.7431329 -1.05355,-0.4070806 -1.65,0.2442166 -4.575,0.073881 -6.5,-0.378524 -2.16238,-0.5081922 -2.73564,-0.8997699 -1.5,-1.0245956 3.20987,-0.3242636 -2.2429,-1.8102352 -6.5,-1.7713602 l -3.499998,0.031961 2.999998,0.7511201 c 2.47526,0.6197396 2.30035,0.6778174 -1,0.3320384 C 94.961156,6.5102688 80.65633,7.0561282 77.780752,8.0691147 73.08111,9.7246686 67.610374,10.838669 66.760182,10.313222 c -0.538686,-0.3329263 -0.97943,-0.172785 -0.97943,0.355871 0,1.190523 -5.901878,3.335519 -7.114869,2.585849 -0.486822,-0.300873 -0.885131,-0.100808 -0.885131,0.444588 0,0.994472 -3.843262,2.696144 -5.25,2.32453 -0.4125,-0.108969 -0.75,0.20373 -0.75,0.694886 0,1.197886 -2.810317,2.222919 -3.414464,1.245389 z"
       id="path1260" />
    <path
       style="fill:#252424"
       d="m 82.780752,182.14762 c -14.368406,-2.33311 -28.823722,-8.31169 -41,-16.95721 -4.760285,-3.37994 -14.449653,-12.82294 -18.815201,-18.3368 -5.331924,-6.73442 -5.388803,-6.78066 -4.647154,-3.77768 0.433304,1.75447 0.277916,2.75 -0.429237,2.75 -0.609624,0 -1.108408,-0.83931 -1.108408,-1.86514 0,-1.02583 -0.838516,-2.93833 -1.863369,-4.25 C 11.81323,135.7379 6.5812168,122.76852 5.0828118,115.33236 4.3063143,111.47882 3.0374482,106.52593 2.2631092,104.32593 0.86459257,100.35256 -0.3338541,80.013161 0.95365057,82.102497 1.3237448,82.703079 1.8239643,81.874045 2.0652496,80.260199 c 0.2412852,-1.613845 0.2306772,0.665736 -0.023573,5.065736 -0.6644869,11.499448 1.1719556,8.471882 3.1297964,-5.159794 0.88155,-6.137886 1.877417,-11.875386 2.2130377,-12.75 0.3356207,-0.874613 0.218743,-1.590206 -0.2597283,-1.590206 -0.4784712,0 -1.5728696,2.3625 -2.4319964,5.25 l -1.5620488,5.25 0.075008,-4.646453 c 0.041254,-2.555549 0.4833932,-4.397682 0.9825311,-4.093628 0.499138,0.304054 0.6536044,-0.418164 0.3432588,-1.604927 -0.3615757,-1.382668 -0.1819712,-1.921481 0.5,-1.5 0.6819711,0.421481 0.8615757,-0.117332 0.5,-1.5 -0.3103456,-1.186764 -0.1878875,-1.925138 0.2721292,-1.640832 0.4600166,0.284306 1.3997866,-1.041115 2.0883776,-2.94538 0.6885911,-1.904264 1.5774314,-3.261161 1.9752006,-3.015326 0.397769,0.245835 1.942599,-1.633746 3.432954,-4.176846 1.67593,-2.859758 2.981974,-4.18333 3.423302,-3.469247 0.447173,0.723541 2.530287,-1.190269 5.579897,-5.126395 C 37.8003,22.605074 59.189122,10.47702 83.928269,7.6638936 104.15409,5.3639845 124.36362,10.491109 142.53581,22.532529 c 8.38352,5.555163 18.72939,15.69536 23.43071,22.964916 2.26284,3.498987 4.30493,6.17112 4.53798,5.938073 0.45027,-0.450268 -1.62155,-4.474168 -4.4329,-8.609583 l -1.69955,-2.5 2.84007,2.5 2.84006,2.5 -1.25812,-2.5 c -0.69197,-1.375 -0.78742,-2.05 -0.21211,-1.5 3.26062,3.117191 14.06489,26.967244 12.7927,28.239438 -0.22621,0.226205 -0.7077,-0.522629 -1.06998,-1.664077 -0.36228,-1.141449 -1.1087,-2.075361 -1.6587,-2.075361 -0.55,0 -0.75732,0.7875 -0.46073,1.75 1.10206,3.576322 3.45427,14.926912 4.19645,20.25 0.69228,4.96512 0.83472,5.208247 1.46464,2.5 1.64883,-7.088799 0.82282,10.780005 -0.95371,20.631365 -2.33059,12.9238 -6.69804,23.62386 -14.25239,34.91775 -8.05673,12.04493 -24.48518,26.80539 -30.63929,27.52846 -0.94611,0.11116 -4.64519,1.38735 -8.22019,2.83598 -12.67802,5.13727 -34.699418,7.90547 -46.999998,5.90813 z m 22.999998,-24.44273 c 3.025,-0.6107 8.425,-2.2235 12,-3.584 3.575,-1.3605 7.04948,-2.57041 7.72106,-2.68869 0.67158,-0.11828 1.57158,-0.60022 2,-1.07098 0.42842,-0.47077 0.10394,-0.51974 -0.72106,-0.10884 -0.825,0.41091 -0.375,-0.18396 1,-1.32193 1.375,-1.13797 3.16128,-1.82824 3.96952,-1.53393 0.80823,0.29432 1.16634,0.23193 0.79578,-0.13862 -0.98937,-0.98938 7.3658,-8.45957 8.64651,-7.73066 0.5985,0.34064 0.77439,0.2709 0.39086,-0.15498 -0.38353,-0.42588 1.0015,-3.08552 3.07785,-5.91033 9.26134,-12.59971 11.91114,-20.62215 12.85105,-38.907393 0.65517,-12.74562 -0.98598,-20.544082 -6.46666,-30.728602 -12.22102,-22.709802 -32.44234,-34.97308 -57.764908,-35.031694 -11.420638,-0.02643 -20.063723,2.040621 -29.86783,7.143105 -16.349561,8.509025 -26.666679,21.163307 -33.336731,40.888589 -2.272756,6.721201 -2.476355,8.538399 -1.960703,17.5 0.899415,15.631055 5.375171,29.218615 12.681941,38.499995 1.515456,1.925 2.806663,3.8375 2.869349,4.25 0.06269,0.4125 0.401162,0.71157 0.752171,0.66459 0.351008,-0.047 0.913508,0.34954 1.25,0.88114 0.336491,0.53161 2.636803,2.65346 5.111803,4.71524 2.475,2.06177 4.5,4.25216 4.5,4.86753 0,0.61537 0.675,1.16341 1.5,1.21787 3.573103,0.23583 4.078721,0.46724 3.404508,1.55814 -0.392439,0.63498 -0.298011,0.89771 0.209839,0.58384 1.252022,-0.7738 8.609874,2.7041 7.682587,3.63138 -0.404785,0.40479 -0.05465,0.47453 0.778067,0.15498 0.832721,-0.31954 3.463082,0.10668 5.845245,0.94715 2.382164,0.84048 5.51213,1.53503 6.955481,1.54345 1.505186,0.009 2.130968,0.32861 1.467466,0.75 -1.729531,1.09843 16.323897,0.39216 22.656805,-0.88635 z m -21.499998,-3.34676 c -15.396666,-2.87624 -32.089659,-12.2914 -36.541765,-20.61024 -0.914131,-1.70807 0.426228,-0.9492 4.627441,2.6199 8.036394,6.82725 13.451024,10.18518 21.013399,13.03165 7.194635,2.70806 20.165992,4.46738 28.400923,3.85207 3.58781,-0.26808 4.80466,-0.11521 3.5,0.43971 -3.85993,1.64176 -14.049386,1.96536 -20.999998,0.66691 z m 20.583328,-9.91258 c 0.22917,-0.2092 3.34167,-1.58464 6.91667,-3.05652 3.575,-1.47187 7.13632,-2.95218 7.91404,-3.28956 0.91309,-0.3961 1.15831,-0.19963 0.69219,0.55458 -1.05395,1.70532 -10.91023,6.17188 -13.61939,6.17188 -1.27609,0 -2.13267,-0.17117 -1.90351,-0.38038 z m -23.14014,-7.66431 c -4.837774,-1.14766 -13.141354,-5.41181 -15.401342,-7.90907 -1.018502,-1.12543 -2.253661,-2.04624 -2.744799,-2.04624 -3.433346,0 -13.270415,-18.00111 -14.704999,-26.909055 -0.984688,-6.114357 0.01906,-17.47331 1.84244,-20.850065 0.517021,-0.957481 1.957828,-3.897985 3.201795,-6.534454 2.915354,-6.178817 12.941646,-16.035701 19.441947,-19.113448 12.05609,-5.70829 26.896478,-5.738519 38.859398,-0.07915 6.57393,3.109966 16.43558,12.353882 19.41057,18.19469 8.37957,16.451642 6.20265,38.263922 -5.11857,51.286842 -4.47741,5.15042 -12.47442,10.41464 -19.53091,12.85669 -6.5586,2.26974 -18.195613,2.77809 -25.25553,1.10326 z m 29.78114,-5.05893 c 16.17764,-7.86768 25.24723,-23.79838 23.99415,-42.145613 C 134.47462,74.574608 125.8796,61.9494 112.0318,55.105446 c -6.45789,-3.191663 -8.58141,-3.727164 -16.230121,-4.092854 -18.181694,-0.869277 -33.347271,7.88355 -40.68042,23.478744 -6.68477,14.216304 -6.519042,24.042358 0.671859,39.834594 2.140082,4.69993 10.796418,13.31127 16.487634,16.40194 7.61519,4.13551 12.40756,5.12571 22.724332,4.69532 8.495396,-0.3544 10.580616,-0.82211 16.499996,-3.70088 z m 23.74056,-71.309611 c -0.9322,-1.42272 -2.45896,-2.586764 -3.39281,-2.586764 -0.93384,0 -3.01959,-1.408219 -4.63499,-3.129375 C 122.70569,49.889015 114.71599,45.132522 108.3683,43.474912 102.67737,41.988804 87.521797,41.85655 79.780752,43.225444 l -3.5,0.618926 3.5,-1.667397 c 4.637401,-2.209253 19.590465,-2.976537 26.885528,-1.379571 7.78574,1.704378 16.88622,6.19524 22.4134,11.060455 5.02853,4.426296 9.24406,9.758423 8.39006,10.612417 -0.29105,0.291054 -1.2919,-0.634855 -2.2241,-2.057575 z m 2.50128,-8.923918 c -3.55639,-3.485435 -8.87917,-7.985435 -11.82838,-10 -2.94922,-2.014565 -4.97278,-3.662846 -4.4968,-3.662846 2.16321,0 13.54261,9.157102 20.30518,16.339757 5.54667,5.891235 3.0473,4.210179 -3.98,-2.676911 z M 62.280752,39.359965 c 4.975706,-3.187552 17.551772,-7.260588 24.651032,-7.983779 l 5.348968,-0.544892 -5.5,1.398107 c -3.025,0.768959 -9.55,2.967733 -14.5,4.886165 -12.610211,4.887237 -14.942543,5.410706 -10,2.244399 z m -45.427679,5.96597 c 0.0049,-0.55 1.340672,-2.558002 2.96832,-4.462226 3.259211,-3.81303 3.955317,-6.063748 1.209359,-3.910219 -1.583631,1.241969 -1.620393,1.207123 -0.386693,-0.366545 0.749819,-0.956444 1.731224,-1.511603 2.180902,-1.233688 0.449677,0.277916 1.071104,0.09511 1.380949,-0.406225 0.309845,-0.50134 -0.137582,-1.180502 -0.994284,-1.509249 -0.856701,-0.328747 -1.273022,-1.058241 -0.925158,-1.621097 0.347864,-0.562856 1.063958,-0.756707 1.591319,-0.43078 0.527362,0.325927 1.776898,-0.417664 2.776747,-1.652426 0.999849,-1.234761 2.482682,-2.342589 3.295184,-2.461839 0.812502,-0.11925 4.554138,-2.32332 8.314747,-4.897933 6.610581,-4.525781 17.643329,-10.565285 19.23777,-10.531064 0.428184,0.0092 -3.046483,2.068394 -7.721483,4.576011 -13.693004,7.34477 -20.843636,13.61073 -30.71832,26.917869 -1.220076,1.644176 -2.214287,2.539411 -2.209359,1.989411 z m 139.972387,-13.838547 -7.4553,-8.161453 6.77687,6.5 c 5.52705,5.301253 9.80985,10.343328 8.4189,9.911453 -0.15685,-0.0487 -3.64006,-3.7612 -7.74047,-8.25 z M 139.78075,17.892384 C 132.26027,12.763408 114.54443,6.0262448 105.05089,4.6849532 98.749207,3.7946212 95.216216,3.8917648 86.356519,5.1989766 80.348191,6.0854807 75.282337,6.6608527 75.099065,6.477581 74.915793,6.2943094 78.481698,5.3013506 83.023298,4.2710059 94.529004,1.6607268 105.39965,1.9771568 115.00625,5.2019869 c 9.83884,3.3027892 23.81415,10.1580871 27.98487,13.7273991 4.44772,3.806364 3.39069,3.464924 -3.21037,-1.037002 z"
       id="path1258" />
    <path
       style="fill:#070707"
       d="M 75.780752,185.33259 C 53.10249,180.25593 33.8704,168.71721 20.915693,152.41508 13.73747,143.38205 8.3969162,134.25601 9.3687796,132.6835 9.786369,132.00782 9.6573449,131.78417 9.0621709,132.152 7.7871731,132.94 3.3961651,121.27053 4.1896242,119.20281 4.5021446,118.38839 4.3461602,117.97649 3.842992,118.28746 1.9241224,119.47339 0.28155688,107.19188 0.37082,92.325935 0.44988727,79.158009 0.78128857,76.270835 3.0841494,68.687367 6.516437,57.384624 10.477884,48.520718 11.746578,49.304815 c 0.564779,0.349052 0.777828,0.01667 0.482545,-0.752827 C 11.453124,46.529766 19.110878,35.60286 26.685773,27.923687 38.082079,16.370496 54.165885,7.0535436 70.280752,2.6701898 c 6.606671,-1.79705959 10.699574,-2.17605451 23.5,-2.17605451 12.800428,0 16.893328,0.37899492 23.499998,2.17605451 8.9304,2.4291284 22.06409,8.4001912 29.25941,13.3024052 24.31154,16.563608 39.36132,43.002793 40.94338,71.92859 2.42614,44.358785 -24.94361,82.683495 -68.20279,95.501515 -11.28498,3.34382 -32.899916,4.30277 -43.499998,1.92989 z m 37.641938,-4.48294 c 5.42193,-1.08696 12.78306,-3.16153 16.35806,-4.61016 3.575,-1.44863 7.27408,-2.72482 8.22019,-2.83598 6.15411,-0.72307 22.58256,-15.48353 30.63929,-27.52846 7.55435,-11.29389 11.9218,-21.99395 14.25239,-34.91775 4.13959,-22.955174 1.36219,-41.400682 -9.19253,-61.050322 -3.89865,-7.258072 -7.47367,-12.342697 -4.97871,-7.081043 0.9659,2.037016 0.66448,1.8889 -1.62759,-0.799793 C 153.64667,26.252183 144.26779,18.426232 130.89953,11.824838 110.78566,1.8923848 99.664444,0.41578782 79.716183,5.0290754 61.623483,9.2132411 50.982625,13.666514 38.252439,22.381941 c -3.753994,2.570085 -7.420066,4.760154 -8.146825,4.86682 -1.760021,0.258316 -7.893774,6.577174 -6.384502,6.577174 0.64772,0 0.895022,0.45734 0.549559,1.016312 -0.345464,0.558971 -0.996033,0.788926 -1.44571,0.51101 -0.449678,-0.277915 -1.431083,0.277244 -2.180902,1.233688 -1.2337,1.573668 -1.196938,1.608514 0.386693,0.366545 2.745958,-2.153529 2.049852,0.09719 -1.209359,3.910219 -1.627648,1.904224 -2.977648,3.784098 -3,4.177498 -0.0799,1.406205 -6.120396,10.274833 -6.664461,9.784728 -1.0545597,-0.949968 -5.48086,11.196254 -7.4095909,20.332678 -2.31915166,10.985851 -2.54775185,24.12089 -0.5116223,29.397077 0.8002317,2.07363 2.0858532,6.92313 2.8569366,10.77667 1.485929,7.42602 6.7127606,20.39554 9.8247276,24.37843 1.024853,1.31167 1.863369,3.22417 1.863369,4.25 0,1.02583 0.498784,1.86514 1.108408,1.86514 0.707153,0 0.862541,-0.99553 0.429237,-2.75 -0.741649,-3.00298 -0.68477,-2.95674 4.647154,3.77768 14.966636,18.90344 36.263674,31.46977 59.815201,35.29401 7.00237,1.13703 21.574808,0.51975 30.641938,-1.29797 z M 81.780752,158.18587 C 71.500928,156.26007 60.314528,151.02918 51.99377,144.25713 36.915354,131.9852 29.375171,116.21813 28.115488,94.325935 27.599836,85.364334 27.803435,83.547136 30.076191,76.825935 35.232,61.578708 41.742994,51.702521 52.23103,43.220414 c 21.566486,-17.441707 52.49024,-19.3828 75.79108,-4.75743 13.37927,8.397839 24.26866,23.25635 28.28267,38.591553 3.2586,12.449175 0.5206,36.778753 -5.26354,46.771393 -9.16524,15.8338 -21.31568,26.27691 -36.78262,31.61406 -6.53041,2.25344 -9.97365,2.79476 -18.977868,2.98357 -6.05,0.12686 -12.125,0.0199 -13.5,-0.23769 z m 26.539898,-2.90517 c 22.64095,-5.86993 42.39817,-26.0363 46.45245,-47.41442 1.29686,-6.83833 1.29314,-21.261972 -0.007,-28.118909 C 151.5497,62.788698 135.34851,43.720101 117.92562,36.386912 104.11406,30.573704 92.389026,29.493617 79.190715,32.818729 67.383391,35.793402 57.411899,41.207618 49.709856,48.825935 41.175945,57.267077 37.291584,63.099731 33.51517,73.143454 c -2.753571,7.323375 -3.084878,9.389904 -3.155505,19.682481 -0.06947,10.123345 0.2692,12.562125 2.829085,20.372645 6.679888,20.38114 22.313554,35.56893 42.855629,41.63338 8.014445,2.36603 24.022641,2.5886 32.276271,0.44874 z M 80.780752,134.36449 C 63.714651,128.81089 51.861831,113.95077 50.390201,96.263243 49.115338,80.940669 59.068418,62.749087 72.388716,56.055807 c 8.431781,-4.236862 14.21649,-5.482904 23.412963,-5.043215 7.648711,0.36569 9.772231,0.901191 16.230121,4.092854 13.8478,6.843954 22.44282,19.469162 23.46743,34.471251 1.25308,18.347233 -7.81651,34.277933 -23.99415,42.145613 -5.91938,2.87877 -8.0046,3.34648 -16.499996,3.70088 -6.798672,0.28362 -11.078201,-0.0349 -14.224332,-1.0587 z"
       id="path1256" />
  </g>
</svg>
