<?xml version="1.0" encoding="UTF-8" standalone="no"?>
<!-- Created with Inkscape (http://www.inkscape.org/) -->

<svg
   version="1.1"
   id="svg1037"
   width="23"
   height="23"
   viewBox="0 0 188 188"
   sodipodi:docname="output-port-simplified.svg"
   inkscape:version="1.1.1 (3bf5ae0d25, 2021-09-20)"
   xmlns:inkscape="http://www.inkscape.org/namespaces/inkscape"
   xmlns:sodipodi="http://sodipodi.sourceforge.net/DTD/sodipodi-0.dtd"
   xmlns="http://www.w3.org/2000/svg"
   xmlns:svg="http://www.w3.org/2000/svg">
  <defs
     id="defs1041" />
  <sodipodi:namedview
     id="namedview1039"
     pagecolor="#ffffff"
     bordercolor="#666666"
     borderopacity="1.0"
     inkscape:pageshadow="2"
     inkscape:pageopacity="0.0"
     inkscape:pagecheckerboard="0"
     showgrid="false"
     inkscape:zoom="32"
     inkscape:cx="21.125"
     inkscape:cy="2.40625"
     inkscape:window-width="3840"
     inkscape:window-height="2066"
     inkscape:window-x="2869"
     inkscape:window-y="-11"
     inkscape:window-maximized="1"
     inkscape:current-layer="g1043" />
  <g
     inkscape:groupmode="layer"
     inkscape:label="Image"
     id="g1043">
    <path
       style="fill:#c8c3b9"
       d="m 81.354511,150.21308 c -17.308072,-4.15914 -32.714795,-16.29935 -40.009517,-32.60676 -1.781664,-5.58602 -4.642519,-11.20994 -3.1761,-17.22324 -0.447215,-3.15081 -0.572572,-7.491725 3.748349,-4.658602 5.009797,2.569554 1.837875,8.430852 6.21098,9.789032 4.40925,4.8779 -3.825667,6.63184 -1.782417,12.21099 1.276551,9.82273 10.08345,15.969 17.426833,21.4479 5.015109,3.80587 11.266259,4.86547 17.345965,5.54649 8.87895,2.20381 18.379694,4.49414 27.344356,1.34872 1.40138,0.76406 4.19418,0.36371 1.54397,-1.10335 4.88005,1.02783 9.07085,-4.53044 13.08385,-4.70173 4.32623,-5.98938 11.59007,-9.68083 14.73828,-16.95392 3.74325,-5.26417 4.71181,-13.28089 0.53524,-18.56769 -1.33639,-4.847451 0.64954,-9.184027 4.71477,-10.861219 1.10225,-4.862429 3.75824,-4.658616 3.63592,0.349994 0.84537,7.469065 1.22006,15.376855 -1.82679,22.432585 -0.026,3.67409 3.49628,8.39428 -2.39656,7.8995 -2.28119,3.16224 -10.92283,6.91748 -6.42409,10.61776 2.59778,-0.74668 0.80963,-4.8739 2.2977,-0.34562 -2.14172,5.38966 -7.31763,-1.27115 -9.88791,3.7546 -7.42456,5.16759 -15.20064,10.66318 -24.46754,11.60881 -7.419426,1.50621 -15.209075,1.23702 -22.655289,0.0157 z m 71.496529,-48.16853 c -5.1316,-4.562513 4.04916,-11.30311 -2.98321,-15.218484 0.0687,-9.623193 -5.61749,-17.894412 -9.34609,-26.400918 -3.41366,-4.609607 -8.35136,-7.832157 -12.51803,-11.824471 -15.52763,-11.945793 -37.514434,-14.794543 -55.710231,-7.670001 -3.087446,2.66319 -5.767336,1.925014 -7.846601,5.041901 -3.354007,1.430181 -8.178546,2.295981 -10.198769,4.242535 6.240219,0.03691 -3.342623,14.234063 -1.69602,5.483297 2.09028,-5.091585 -4.190521,2.888088 -5.375194,4.044864 -2.61767,3.183461 -9.079739,10.481189 -4.150559,12.420545 -0.993299,3.611703 -2.044027,5.295094 -5.328033,2.775701 -2.793546,2.913502 -1.810583,8.729653 -3.211893,12.79435 -0.826586,3.233098 -1.675043,11.880962 -2.523391,11.492475 -0.968305,-5.492332 -1.334421,-11.277003 0.358041,-16.66986 1.974007,6.39736 0.816892,-5.439695 1.905936,-7.491549 1.087161,-2.39927 8.565565,-7.045344 2.548672,-4.545929 1.748148,-5.414669 7.361678,-10.626747 10.324063,-16.175954 3.945023,-4.805328 9.386501,-8.84195 15.315458,-10.931374 5.372896,-2.860928 10.661768,-5.760537 16.704197,-6.857815 5.717287,-1.586362 11.890221,-5.400744 17.784499,-3.035281 2.807752,1.660824 14.024785,8.049571 10.469725,0.396371 6.39495,1.319654 12.15998,5.466369 17.15584,9.714577 1.59765,-2.5371 3.21127,5.726567 6.72147,4.556483 4.32136,4.138774 8.45419,8.487524 12.18508,13.122146 2.72403,5.283347 8.09429,8.300453 8.5777,14.580826 2.25655,2.474842 -0.31242,8.742924 2.42733,9.45484 0.006,5.471231 1.0444,14.421918 -1.58792,17.759685 z M 44.441579,70.384447 c -2.287601,-4.428595 6.888718,-2.716979 1.528276,0.660212 -0.489834,0.829092 -1.750081,0.335921 -1.528276,-0.660212 z m 4.339173,-8.475179 c 0.186691,-7.308548 4.730149,3.48327 0.384085,2.221154 -0.56118,-0.578844 -0.613105,-1.488354 -0.384085,-2.221154 z"
       id="path1268" />
    <path
       style="fill:#a9a499"
       d="m 97.780752,151.5295 c 5.048828,-1.19306 10.104588,-1.73458 14.870038,-3.47746 6.23979,-3.30508 12.90921,-6.43483 17.96329,-11.43524 2.65465,-2.82346 8.00508,4.30385 1.72165,2.00018 -2.88119,2.92207 0.62774,4.08596 2.32741,1.20993 -3.46189,5.40476 -10.67679,4.80251 -15.82417,7.91857 -5.6056,1.54489 -10.50768,3.89967 -16.55822,3.70136 -1.45279,0.0507 -3.122667,0.55188 -4.499998,0.0827 z m -7.479428,-4.525 c -3.803712,-1.64558 -8.002442,-2.05322 -12.020572,-2.97472 7.489819,0.79095 15.241384,0.41901 22.330368,3.24933 -3.348033,0.46569 -7.027025,0.61308 -10.309796,-0.27461 z m -20.020572,-3.89164 c -3.04244,-0.45154 -4.45289,-3.37591 -0.253125,-1.36481 2.445038,0.74228 11.014811,2.15943 3.930469,1.80853 -1.232589,-0.0735 -2.468829,-0.17916 -3.677344,-0.44372 z m 66.955498,-6.21493 c -3.24402,-1.97547 -3.72627,-6.84329 0.97793,-7.86221 1.06498,-2.66602 8.10571,-8.25419 7.57249,-2.889 -3.58244,3.56123 -3.01644,6.0528 -7.02944,9.93728 -0.16691,0.30531 -3.16331,3.38023 -1.52098,0.81393 z m -87.328138,-4.54966 c -2.382592,-1.77276 -6.121255,-8.402 -1.625576,-2.99475 1.529683,1.4431 9.176929,10.34681 4.014772,5.49376 -0.813481,-0.81646 -1.60774,-1.65191 -2.389196,-2.49901 z m 80.122638,-0.10923 c 3.97069,-3.85894 6.55736,-8.76597 9.39169,-13.43985 2.54127,-5.82721 -7.65422,-0.64485 -4.05275,-4.64371 -2.4017,-3.83521 2.72758,-5.61443 3.11731,-7.04502 -2.85853,-0.5478 -1.55739,-6.76163 -0.057,-1.7675 3.80228,2.57895 2.71262,10.77456 1.2038,15.07452 -3.32822,4.7327 -5.60431,10.1389 -10.44165,13.67931 -3.81796,3.6097 -1.17598,-0.0672 0.83862,-1.85775 z m -82.70343,-9.33776 c -1.486471,-3.24001 -2.276702,-14.16908 3.178527,-11.3677 -1.929235,2.79704 5.510293,3.95537 1.899625,7.89664 -1.832739,2.7105 -2.725243,1.39198 -3.105258,-0.31499 -2.099067,0.65405 0.684812,6.75524 -1.972894,3.78605 z m 98.77536,-0.30352 c -3.2184,-5.54381 1.74588,-11.0856 1.10437,-16.8725 -0.0662,-5.48983 0.52146,-11.439179 -1.95845,-16.494508 -0.82875,2.780336 -4.66502,10.43085 -6.031,3.280939 -0.68774,-3.32985 -1.02423,-9.011603 3.1162,-4.205043 3.91596,1.091222 1.76949,-9.793102 3.84272,-2.371983 0.54014,2.103847 1.74061,10.532744 3.34758,8.93184 -0.0676,-4.054378 -2.62674,-13.643555 -0.78665,-14.655601 2.73595,2.554816 -0.67862,7.586941 3.18019,7.879449 3.5374,4.968104 -4.09141,9.788679 0.78978,13.023737 -0.0583,3.65425 0.7833,2.19011 1.82467,-0.21725 1.17308,3.12093 -0.75468,6.32954 -2.6539,6.97152 0.53325,5.15035 -1.02501,12.46141 -5.25143,15.26737 z M 37.402325,109.37041 c -1.257062,-2.92789 -1.349244,-11.14429 -2.244844,-10.867572 -1.448378,2.677242 -0.242918,9.156192 -1.154611,9.841012 -1.312754,-3.0841 -3.776701,-11.396617 -2.351637,-12.052083 0.943089,3.60552 2.123718,-5.512111 2.642511,-7.407652 1.319362,-4.672322 0.853065,-10.46092 3.340333,-14.422595 3.244323,3.905289 4.046519,1.246665 5.205693,-1.635585 2.107415,-2.30119 -4.496758,-0.382746 -1.640233,-3.853555 2.696946,-6.05789 7.241436,-11.311407 12.222132,-15.605608 -0.86108,0.781311 -1.77277,5.639988 0.240651,5.937397 -0.633477,-3.640473 4.30901,-3.742022 2.599475,-7.729931 1.632695,-5.719478 9.418416,-4.138315 11.238168,-8.431327 10.145069,-6.063155 22.322842,-5.929285 33.752817,-6.166512 -2.653737,1.376032 -10.190761,1.044937 -14.696294,1.973808 -8.624087,1.431721 -17.773157,5.026514 -23.012843,12.353969 -2.198549,2.303939 -1.35162,8.417411 1.226864,2.972005 4.26238,-7.346716 -0.231176,6.811761 -4.917928,3.946474 -4.288523,-1.677694 -4.488919,4.16033 -0.528024,1.566925 4.183134,-0.732612 -4.15016,4.476667 -3.935469,6.915291 -4.09144,3.686006 -4.877258,10.201932 -7.592432,15.073199 -2.556079,4.626683 1.441879,12.929257 -3.518992,15.311642 -3.013285,-3.61152 -9.296116,-2.745079 -5.870575,2.649886 -0.905879,4.236482 -0.892028,7.989712 1.14003,11.883252 0.411126,2.75035 -0.363969,5.80278 -1.180143,1.35042 -0.34316,-1.19504 -0.661295,-2.39715 -0.964649,-3.60286 z m 6.771438,-26.126262 c 1.879083,-3.103871 -0.697952,-5.974146 -1.747302,-1.394384 -0.853702,1.860666 0.673211,4.621997 1.747302,1.394384 z m 3.606989,-15.515723 c -3.105313,-2.323211 -5.435799,3.394328 -2.092285,3.511012 0.844299,-1.063993 1.734007,-2.170458 2.092285,-3.511012 z m 3.122807,-5.02749 c 0.274364,-3.580917 -1.943281,-5.547046 -2.122807,-0.791667 -0.751204,2.60942 2.252163,3.90076 2.122807,0.791667 z M 47.780752,104.9926 c -1.458316,-1.85913 -3.84393,-0.7844 -1.488123,-3.10113 -3.429053,-2.202586 0.827694,-3.288181 1.237463,0.46062 0.689875,0.33914 1.307491,5.08605 0.25066,2.64051 z M 146.53075,66.136609 c -2.79681,-2.07735 -3.24514,-6.455964 -5.74945,-9.184397 -2.26254,-3.225423 0.81674,0.542138 1.86244,1.647521 1.42191,2.022971 6.82658,6.931799 5.20672,7.893936 l -0.61772,-0.170336 z m -15.25,-13.968083 c -2.05413,-1.717707 -4.70557,-4.539886 -0.9038,-1.499365 2.21388,1.048919 9.60988,8.98934 3.75816,4.062389 -0.9611,-0.843529 -1.91133,-1.699376 -2.85436,-2.563024 z"
       id="path1266" />
    <path
       style="fill:#8d8579"
       d="m 117.86408,148.45561 c 1.22104,-1.08523 9.91667,-4.40774 9.91667,-3.78906 0,1.23301 -5.67841,4.15938 -8.07096,4.15938 -1.2443,0 -2.07487,-0.16665 -1.84571,-0.37032 z m -21.599718,-2.6562 c -0.348934,-0.56459 -1.162991,-0.96127 -1.809017,-0.88152 -2.824835,0.34873 -11.048608,-0.30022 -9.854445,-0.77762 0.961764,-0.3845 0.75816,-0.9214 -0.75,-1.97776 -1.138581,-0.79749 -2.070118,-1.76197 -2.070082,-2.14328 3.7e-5,-0.38132 4.53515,-0.69532 10.078029,-0.69779 5.542879,-0.002 9.255343,0.22253 8.249933,0.5 -1.005415,0.27747 -2.706771,1.02344 -3.78079,1.65771 -1.62466,0.95946 -1.738162,1.4118 -0.675529,2.6922 0.702479,0.84643 2.706222,1.71797 4.452759,1.93674 l 3.17553,0.39777 -3.19098,0.16003 c -1.755042,0.088 -3.476475,-0.30189 -3.825408,-0.86648 z m 32.016388,-12.97348 c 3.26557,-3.3 6.16239,-6 6.43739,-6 0.275,0 -2.17182,2.7 -5.43739,6 -3.26557,3.3 -6.16239,6 -6.43739,6 -0.275,0 2.17182,-2.7 5.43739,-6 z m -7.67857,0.76483 c -0.2191,-1.54317 0.90728,-3.53938 3.53501,-6.26483 2.12112,-2.2 5.01423,-5.71891 6.42915,-7.8198 1.77177,-2.63077 3.12446,-3.67548 4.34554,-3.35616 0.97514,0.255 1.98403,-0.0511 2.24198,-0.6802 0.25795,-0.62911 0.53615,-0.0188 0.61823,1.35616 0.13764,2.30579 0.21599,2.34463 1.00866,0.5 0.84533,-1.96719 0.86058,-1.96582 0.92971,0.0833 0.1021,3.02609 -1.00869,3.65517 -3.10469,1.75832 -1.0105,-0.9145 -2.15899,-1.34101 -2.55219,-0.94781 -0.3932,0.3932 -0.24512,1.02794 0.32907,1.41053 0.57419,0.3826 1.32574,1.46021 1.67011,2.3947 0.4458,1.20971 0.21043,1.53955 -0.81719,1.14522 -0.79383,-0.30462 -1.13454,-1.06921 -0.75712,-1.69907 0.37742,-0.62987 -0.0752,-0.52762 -1.00574,0.22722 -0.93058,0.75488 -1.69196,2.19985 -1.69196,3.21108 0,2.64575 -3.92222,5.91651 -7.09494,5.91651 -2.17131,0 -2.61859,0.37947 -2.22432,1.88714 0.27142,1.03793 0.0365,2.1696 -0.52213,2.51483 -0.55859,0.34523 -1.16032,-0.39148 -1.33718,-1.63714 z m -65.82923,-7.60331 c -0.0043,-0.36384 -1.109083,-1.17214 -2.455093,-1.79624 -1.782841,-0.82664 -2.54765,-0.83364 -2.816934,-0.0258 -0.203304,0.60991 -0.618357,0.15785 -0.92234,-1.00458 -0.303982,-1.16243 -0.164742,-2.72583 0.309424,-3.47421 0.669404,-1.05653 0.865542,-0.9608 0.877432,0.42826 0.01403,1.63944 0.199683,1.61718 2.221394,-0.26633 l 2.206081,-2.05527 1.222133,2.26632 c 0.690624,1.28069 0.81845,2.41129 0.293919,2.59965 -1.915729,0.68797 -0.839875,1.95633 1.205667,1.42141 1.482597,-0.38771 2.000171,-0.15689 1.695791,0.75624 -0.446887,1.34067 -3.823292,2.35296 -3.837474,1.15054 z M 34.309533,110.8725 c -0.294398,-0.47635 -0.232337,-1.65552 0.137913,-2.62037 0.387089,-1.00874 0.270242,-1.50526 -0.274943,-1.16832 -0.580227,0.3586 -0.549161,-1.60038 0.08006,-5.04856 l 1.028189,-5.634535 0.659527,5.366585 c -0.960634,2.52489 1.098121,5.29516 1.840473,7.89262 0,1.30361 -2.808599,2.28472 -3.471219,1.21258 z M 147.75549,93.25949 c -0.65187,-1.714544 -0.77458,-4.450033 -0.30903,-6.888688 0.76478,-4.006023 0.77793,-3.982445 1.3694,2.455133 0.68649,7.471869 0.45801,8.427194 -1.06037,4.433555 z m -6.93796,-5.88924 c -0.69487,-0.837262 -1.66241,-1.275691 -2.15009,-0.974288 -0.48768,0.301404 -0.88669,-1.701993 -0.88669,-4.451993 0,-2.75 0.39901,-5.246603 0.88669,-5.548007 1.11657,-0.690079 2.78227,1.31054 3.27206,3.929973 0.22361,1.195889 1.16613,2.000722 2.34426,2.001795 1.21724,0.0011 2.0677,0.765513 2.22515,2 0.25451,1.995423 0.25365,1.99542 -0.61833,-0.0018 -0.78116,-1.789207 -0.91201,-1.691938 -1.24151,0.922881 -0.42858,3.401059 -2.03252,4.289124 -3.83154,2.121434 z M 42.263484,82.810322 c 0.190914,-2.591402 2.517268,-5.147785 2.517268,-2.766174 0,2.19199 -1.050626,4.781787 -1.93987,4.781787 -0.399241,0 -0.65907,-0.907026 -0.577398,-2.015613 z M 134.78075,72.774494 c 0,-2.588944 1.19841,-3.078977 3.16885,-1.295753 2.52338,2.28363 2.29185,3.36292 -0.66885,3.117885 -1.54942,-0.128234 -2.5,-0.821067 -2.5,-1.822132 z m -2.44423,-3.858317 c -0.30924,-0.500367 -0.30512,-1.579849 0.009,-2.398849 0.31428,-0.819001 0.0907,-1.786167 -0.49676,-2.149259 -0.59425,-0.367367 -1.06801,0.07926 -1.06801,1.007003 0,1.059355 -1.65647,-0.175226 -4.54353,-3.386325 -4.74236,-5.274644 -9.84636,-8.93177 -14.94944,-10.71158 -1.65387,-0.576822 -2.92587,-1.495303 -2.82667,-2.041069 0.10084,-0.554814 -1.28271,-0.821496 -3.13814,-0.604885 -1.95854,0.228648 -4.31913,-0.268223 -5.760183,-1.212439 -1.342928,-0.87992 -2.632932,-1.408608 -2.866677,-1.174864 -0.233745,0.233745 -2.672823,0.683154 -5.420174,0.998687 -7.803626,0.896245 -15.403724,2.626335 -16.036764,3.650616 -0.31705,0.512997 -1.37321,0.932722 -2.347024,0.932722 -0.973813,0 -4.659756,2.558807 -8.190983,5.686237 -3.531227,3.127431 -5.857913,5.062431 -5.170413,4.3 1.733671,-1.922623 1.57295,-3.499151 -0.206195,-2.022592 -0.800907,0.664694 -1.933248,0.9137 -2.516312,0.553347 -1.891404,-1.168952 -0.01877,-2.476917 3.036874,-2.121141 1.637227,0.190627 3.219077,-0.04546 3.515222,-0.524628 0.296145,-0.479173 0.05331,-0.871223 -0.539624,-0.871223 -1.982374,0 0.113304,-5.418854 3.287276,-8.5 1.69971,-1.65 2.251672,-1.9875 1.226582,-0.75 -1.921162,2.319251 -0.891035,3.187212 1.246177,1.05 0.933333,-0.933333 1.2,-0.822222 1.2,0.5 0,0.935 0.476558,1.7 1.059017,1.7 0.582459,0 0.799931,-0.41921 0.48327,-0.931578 -0.726269,-1.175129 3.313267,-4.068422 5.680219,-4.068422 0.977622,0 1.777494,0.45 1.777494,1 0,0.55 0.498145,1 1.106989,1 0.608844,0 0.854318,-0.65845 0.545498,-1.463222 -0.771577,-2.010697 5.769147,-3.261668 7.882641,-1.507625 0.832262,0.690717 1.802329,0.966723 2.155705,0.613348 0.353375,-0.353376 0.1175,-0.642501 -0.524166,-0.642501 -0.641667,0 -1.166667,-0.437357 -1.166667,-0.971905 0,-1.250198 14.906768,-0.40076 18.697348,1.065437 1.54146,0.596237 3.48695,1.223395 4.32332,1.393685 0.83637,0.17029 3.23427,1.320665 5.32866,2.556389 2.86092,1.68798 3.68093,2.73268 3.29709,4.200496 -0.39984,1.528985 -0.10095,1.846516 1.37486,1.460585 2.57173,-0.672523 5.46432,1.587469 4.67258,3.650705 -0.45392,1.18292 -0.0784,1.644608 1.33752,1.644608 1.08274,0 1.96862,0.45 1.96862,1 0,0.55 0.52571,0.8875 1.16825,0.75 1.33874,-0.286486 3.79508,3.896409 3.81701,6.5 0.0156,1.852565 -1.48342,2.371006 -2.42949,0.840242 z M 93.530752,38.102539 c 1.7875,-0.221826 4.7125,-0.221826 6.499998,0 1.7875,0.221827 0.325,0.403322 -3.249998,0.403322 -3.575,0 -5.0375,-0.181495 -3.25,-0.403322 z m -65.851994,-4.55929 c 1.667659,-2.122036 11.101994,-10.118006 11.101994,-9.409377 0,0.271796 -2.8125,2.90035 -6.25,5.841232 -3.4375,2.940881 -5.620898,4.546547 -4.851994,3.568145 z m 126.974432,-2.37225 c -0.75484,-0.910214 -4.25205,-3.835214 -7.77157,-6.5 -3.51952,-2.664785 -6.08159,-4.845064 -5.69348,-4.845064 1.22586,0 13.36195,9.401009 14.51071,11.240461 1.38768,2.222035 0.76223,2.284602 -1.04566,0.104603 z"
       id="path1264"
       sodipodi:nodetypes="ssssssssscsssscsssssssssssssssssssssssssssssssssscsssssssssscccsssssssssssssssssssssssssccsssssssssssssssssssssssssssssssssssssssssssssssssssssss" />
    <path
       id="path1262"
       style="fill:#837c70"
       d="m 102.78125,6.0566406 -3.5,0.033203 3.5,0.7363281 c 1.925,0.4051948 4.625,0.7499991 6,0.7675781 l 2.5,0.033203 -2.5,-0.8007812 c -1.375,-0.440352 -4.075,-0.7871103 -6,-0.769531 z m 10.43359,1.8339844 c -0.51392,0.035392 1.99141,1.1154558 5.56641,2.400391 3.575,1.284934 6.6125,2.380877 6.75,2.435546 0.1375,0.05468 0.25,-0.292007 0.25,-0.769531 0,-0.81017 -10.50261,-4.2085324 -12.56641,-4.066406 z M 86.101562,42.896484 c -1.639705,0.06327 -1.620771,0.156004 0.179688,0.929688 1.785248,0.767147 1.806178,0.866947 0.191406,0.929687 -1.037922,0.04033 -1.524165,0.532509 -1.138672,1.15625 0.451913,0.731216 1.002991,0.758728 1.681641,0.08008 0.554943,-0.554943 1.741239,-0.733278 2.636719,-0.394532 1.460439,0.552462 1.454893,0.441431 -0.05078,-1.078125 -0.923214,-0.931725 -2.498215,-1.661707 -3.5,-1.623047 z m -12.955078,0.988282 c -0.586177,0.143987 -2.105742,1.03111 -4.08789,2.542968 -1.875539,1.430543 -3.165021,2.844747 -2.867188,3.142578 0.297832,0.297832 1.226162,-0.02889 2.064453,-0.724609 1.25904,-1.044911 1.525391,-0.982801 1.525391,0.357422 0,0.892345 0.476135,1.623047 1.058594,1.623047 0.58246,0 0.799083,-0.419273 0.482422,-0.931641 -0.316661,-0.512368 0.432483,-1.637368 1.664062,-2.5 1.23158,-0.862632 1.716091,-1.568359 1.076172,-1.568359 -0.639919,0 -1.441331,0.45 -1.78125,1 -0.339919,0.55 -1.153553,0.985097 -1.808594,0.966797 -0.655041,-0.0183 -0.130462,-0.918298 1.167969,-2 1.744787,-1.453554 2.092037,-2.052191 1.505859,-1.908203 z m 22.894532,2.699218 c -0.481019,0.0074 -0.977921,0.05264 -1.472657,0.136719 -3.234327,0.549648 -3.213541,0.568414 1.212891,1.181641 2.475,0.342881 4.725,0.677077 5,0.742187 0.275,0.06511 -0.27133,-0.468268 -1.212891,-1.183593 -0.772742,-0.587077 -2.084287,-0.899074 -3.527343,-0.876954 z m 30.763674,9.308594 c -0.48697,-0.162359 -0.52344,0.400114 -0.52344,1.546875 0,1.606522 0.57212,2.386719 1.75,2.386719 0.9625,0 1.75,0.476135 1.75,1.058594 0,0.582458 0.4177,0.800806 0.92969,0.484375 0.512,-0.316431 1.21508,-0.117565 1.56054,0.441406 0.56639,0.916437 1.50982,1.395607 1.50782,0.765625 -4.9e-4,-0.1375 -1.68799,-1.886453 -3.75,-3.886719 -1.80126,-1.747323 -2.73765,-2.634515 -3.22461,-2.796875 z m 6.96875,7.642578 0.66211,3.3125 c 0.55759,2.787951 0.40595,3.214888 -0.95313,2.69336 -1.39645,-0.535867 -1.45897,-0.276369 -0.46094,1.914062 l 1.1543,2.533203 0.82227,-2.21875 c 0.80888,-2.186603 0.85159,-2.19191 2.97265,-0.332031 2.31255,2.027797 1.97048,1.213756 -1.90039,-4.507812 z m 4.21094,2.371094 c -0.2711,-0.05633 0.0901,0.642618 1.05859,2.419922 3.38091,6.204368 5.81258,12.805888 4.23437,11.496094 -1.2124,-1.006207 -1.49609,-0.964388 -1.49609,0.214843 0,0.800678 0.30937,1.764454 0.6875,2.142579 0.37812,0.378121 1.16562,0.517619 1.75,0.308593 1.33653,-0.478066 0.98087,-6.022652 -0.41602,-6.488281 -0.56925,-0.18976 -0.78919,-0.743596 -0.48828,-1.230469 0.70868,-1.146682 -1.89943,-6.179063 -4.15429,-8.015625 -0.62285,-0.507302 -1.01313,-0.813857 -1.17578,-0.847656 z m -0.85157,8.564453 c -0.96185,0.0044 -1.77879,0.305365 -2.03711,0.978516 -0.29053,0.757017 -0.26971,2.051953 0.0469,2.876953 0.83344,2.17192 2.31569,1.840731 2.9707,-0.664063 0.48176,-1.84222 0.80138,-1.970855 2.14063,-0.859375 1.32494,1.099607 1.47928,1.062381 0.98242,-0.232422 -0.49541,-1.291011 -2.50043,-2.106987 -4.10352,-2.099609 z M 35.751953,111.14453 c -1.366009,0.0138 -1.371653,0.53045 -0.04687,4.84766 1.742175,5.67742 2.574488,6.29498 1.765625,1.31054 -0.339056,-2.08935 -0.188884,-3.28433 0.369141,-2.93945 0.517421,0.31978 0.934181,0.21645 0.925781,-0.22851 -0.02936,-1.55124 -1.495333,-3.00554 -3.013672,-2.99024 z m 20.320313,9.88086 c -0.145645,-0.0443 -0.155302,0.0755 0.0078,0.36914 0.326229,0.58731 -0.270542,1.69032 -1.326172,2.45117 -1.779941,1.28291 -1.800671,1.51349 -0.291015,3.18164 0.895331,0.98933 2.232899,1.79883 2.972656,1.79883 0.739756,0 1.233203,0.49257 1.095703,1.09375 -0.1375,0.60118 0.63026,1.61368 1.707031,2.25 1.076773,0.63632 2.605833,1.75233 3.396485,2.48047 1.102969,1.01576 1.609707,1.04334 2.179687,0.12109 0.408584,-0.6611 1.264145,-0.8788 1.902344,-0.48437 0.879214,0.54339 0.877509,1.05785 -0.0098,2.12695 -0.644056,0.77603 -0.928221,1.41211 -0.630859,1.41211 0.297361,0 1.286023,0.28509 2.197266,0.63477 1.163876,0.44662 1.560349,0.16944 1.332031,-0.9336 -0.178759,-0.86361 0.125781,-1.61788 0.675781,-1.67578 0.55,-0.0579 1.142606,0.81376 1.318359,1.93555 0.175753,1.12179 0.738253,2.03906 1.25,2.03906 0.511747,0 0.931641,0.64804 0.931641,1.44141 0,0.97035 1.39109,1.56868 4.25,1.82617 2.3375,0.21054 4.860944,0.46054 5.609375,0.55664 0.748431,0.0961 0.298431,-0.71587 -1,-1.80469 -2.014788,-1.68955 -2.139535,-2.12666 -0.859375,-2.98437 1.2012,-0.80481 0.996999,-1.00723 -1.025391,-1.01953 -4.165585,-0.0252 -18.043041,-7.54438 -20.792968,-11.26563 -0.746719,-1.0105 -1.830786,-1.46325 -2.5,-1.04492 -1.761397,1.10106 -3.681641,1.23441 -3.681641,0.25586 0,-0.47401 0.7875,-1.30653 1.75,-1.84961 1.491255,-0.84142 1.543712,-1.18058 0.353516,-2.29883 -0.384096,-0.36087 -0.666855,-0.56898 -0.8125,-0.61328 z m 79.974614,1.13281 c -0.2822,0.0177 -0.62177,0.0546 -1.00782,0.0957 -2.03194,0.21664 -2.87434,1.01084 -3.45508,3.25195 -0.92739,3.57891 -4.66656,5.7956 -8.49414,5.03711 -3.11769,-0.61783 -7.95056,2.43455 -6.80078,4.29492 0.43329,0.70109 -0.17953,0.85709 -1.78125,0.45508 -1.50503,-0.37773 -2.98698,-0.0657 -3.86719,0.81445 -1.57113,1.57115 -6.56119,2.85133 -11.636714,2.98242 -1.802777,0.0466 -2.762124,0.40283 -2.130859,0.79297 0.783599,0.48429 0.568648,1.03405 -0.675781,1.73047 -1.542428,0.86319 -1.617503,1.26403 -0.496094,2.61524 1.428781,1.72158 4.602178,2.25144 3.580078,0.59765 -0.350523,-0.56716 0.490044,-1 1.94141,-1 1.40746,0 2.55859,-0.45 2.55859,-1 0,-0.55 0.70113,-1 1.55859,-1 0.85746,0 1.30081,-0.41965 0.98438,-0.93164 -0.7476,-1.20963 1.48027,-2.60041 2.31836,-1.44726 1.11565,1.53506 3.09706,1.436 2.49804,-0.125 -0.33511,-0.8733 0.16781,-1.76169 1.22657,-2.16797 1.04986,-0.40287 1.95731,-0.1984 2.1875,0.49218 0.58991,1.76972 3.22656,1.42007 3.22656,-0.42773 0,-1.0686 0.54103,-1.39854 1.61523,-0.98633 1.31973,0.50642 1.53247,0.0635 1.16797,-2.41992 -0.28028,-1.9097 -0.0442,-2.89966 0.63477,-2.66211 0.59442,0.20797 1.04896,1.31092 1.00976,2.45117 -0.12244,3.56152 3.36573,2.15204 8.38282,-3.38867 6.64075,-7.33384 7.43041,-8.17879 5.45508,-8.05469 z m -17.2461,26.74414 c -2.35272,-0.081 -4.2238,0.7834 -3.57812,1.82813 0.33496,0.54197 1.84484,0.44312 3.68554,-0.24219 2.7568,-1.02637 2.86506,-1.20139 0.92383,-1.49219 -0.34981,-0.0524 -0.69515,-0.0822 -1.03125,-0.0937 z m -24.748046,38.31055 c -0.0058,0.002 -0.01688,0.003 -0.03125,0.006 -4.11e-4,0.002 -0.0016,0.004 -0.002,0.006 0.01433,-10e-4 0.02864,-0.003 0.04297,-0.004 -0.0013,-0.007 -0.002,-0.01 -0.0098,-0.008 z m 2.884766,0.0117 c -0.0114,8.9e-4 -0.01738,0.003 -0.02344,0.004 0.0053,-4.3e-4 0.01188,4.2e-4 0.01563,0.002 0.0019,-7e-5 0.0039,6e-5 0.0059,0 3.93e-4,-0.002 0.0016,-0.004 0.002,-0.006 z m -0.0078,0.006 c -0.0071,2.5e-4 -0.01438,-3.6e-4 -0.02148,0 -0.0034,1.6e-4 5.68e-4,-0.002 0.0059,-0.002 -0.01002,0.001 -0.01599,0.001 -0.01562,0.004 0,0 0.002,0.002 0.002,0.002 0.0022,0.006 0.01467,0.0175 0.02539,0.043 0.0029,-0.0129 0.0052,-0.0261 0.0078,-0.0391 -3.32e-4,-0.002 3.42e-4,-0.004 0,-0.006 -2.14e-4,-0.001 -0.0025,-0.001 -0.0039,-0.002 z" />
    <path
       style="fill:#645e59"
       d="m 86.280752,156.39416 c -0.55,-0.22601 -3.097642,-0.69291 -5.661427,-1.03757 -2.563785,-0.34465 -4.882509,-1.20277 -5.15272,-1.90693 -0.389953,-1.0162 0.571562,-0.99125 4.661427,0.12098 5.839233,1.58796 18.415232,1.98378 23.652718,0.74445 3.37656,-0.79898 3.41183,-0.85396 1,-1.55899 -2.44268,-0.71405 -2.43122,-0.73485 0.5,-0.907 1.65,-0.0969 3.675,-0.35409 4.5,-0.57152 3.5294,-0.93018 5.3098,-0.88112 5.67841,0.15646 0.59432,1.67292 -10.5347,4.42759 -19.913835,4.92911 -4.545515,0.24306 -8.714573,0.25701 -9.264573,0.031 z m -17.852013,-5.0631 c -0.775441,-0.77544 -1.688463,-1.13132 -2.028939,-0.79084 -0.340477,0.34047 -0.619048,0.0675 -0.619048,-0.60664 0,-0.67413 -0.413721,-0.96999 -0.91938,-0.65748 -0.505659,0.31252 -1.614588,-0.127 -2.464286,-0.97669 -0.849698,-0.8497 -1.779959,-1.41634 -2.067247,-1.25919 -0.945829,0.51735 -11.493711,-8.43932 -14.860017,-12.6183 -6.846672,-8.49955 -7.967977,-10.66504 -8.12762,-15.69618 -0.162191,-5.11145 0.276956,-5.23958 2.227179,-0.64981 0.771467,1.81562 0.815949,2.75 0.130915,2.75 -0.570668,0 -0.754926,0.45734 -0.409463,1.01631 0.345464,0.55897 0.981907,0.79766 1.414318,0.53041 0.432411,-0.26724 3.388864,2.98792 6.569896,7.23369 4.172096,5.56857 4.872913,6.88366 2.515089,4.71959 -2.985147,-2.73984 -3.160014,-2.79072 -2.016435,-0.58674 1.642034,3.16464 7.553202,8.61899 12.257051,11.30983 2.0625,1.17986 3.75,2.53889 3.75,3.02007 0,0.48118 0.3375,0.6823 0.75,0.44694 0.4125,-0.23536 2.526714,0.3307 4.698253,1.25792 2.995713,1.27913 3.54552,1.84039 2.278939,2.32642 -0.918123,0.35232 -2.303765,0.006 -3.079205,-0.76931 z m 30.852013,-6.50513 c -0.350523,-0.56716 0.489616,-1 1.940978,-1 1.40746,0 2.55902,-0.45 2.55902,-1 0,-0.55 0.70156,-1 1.55902,-1 0.85746,0 1.30012,-0.41891 0.98369,-0.9309 -0.7476,-1.20963 1.481,-2.60037 2.31909,-1.44722 1.11565,1.53506 3.09747,1.43555 2.49846,-0.12545 -0.81387,-2.12091 2.29133,-2.9877 4.12702,-1.15201 1.3849,1.3849 0.92336,1.76303 -4.61817,3.78358 -4.83762,1.76388 -5.75105,2.40416 -4.26298,2.98816 1.31601,0.51648 0.61512,0.76471 -2.29711,0.81355 -2.30504,0.0387 -4.469099,-0.37971 -4.809018,-0.92971 z m -29,-3.72726 c -2.045513,-0.50652 -14.5,-8.21199 -14.5,-8.971 0,-0.23088 0.5625,-0.0751 1.25,0.34614 0.6875,0.42126 -0.736644,-1.12804 -3.164765,-3.44288 -2.428121,-2.31484 -4.105252,-4.51832 -3.726956,-4.89661 0.378295,-0.3783 2.830396,1.42256 5.449114,4.0019 2.618718,2.57934 5.115491,4.68971 5.548385,4.68971 0.432893,0 1.495329,0.70825 2.360968,1.57389 1.176902,1.1769 1.761267,1.2707 2.316768,0.37188 0.408584,-0.6611 1.265042,-0.87929 1.903241,-0.48486 0.879213,0.54339 0.876634,1.05902 -0.01064,2.12812 -0.644053,0.77603 -0.927709,1.41097 -0.630347,1.41097 0.297361,0 1.286219,0.2861 2.197461,0.63578 1.163876,0.44662 1.560105,0.16861 1.331787,-0.93443 -0.178759,-0.86361 0.124984,-1.61753 0.674984,-1.67538 0.55,-0.0579 1.143798,0.81263 1.319551,1.93442 0.175753,1.12179 0.738253,2.03961 1.25,2.03961 0.511747,0 0.930449,0.45 0.930449,1 0,1.04168 -1.120523,1.10959 -4.5,0.27274 z m 49.499998,-1.76882 c 1.36071,-1.70396 1.3375,-1.81748 -0.25,-1.22254 -1.19665,0.44847 -1.75,0.16513 -1.75,-0.8961 0,-0.85357 0.5625,-1.35406 1.25,-1.11219 0.6875,0.24186 2.2625,0.0655 3.5,-0.39192 3.26332,-1.20622 2.75822,0.37066 -1,3.12192 -2.41025,1.76445 -2.86242,1.89386 -1.75,0.50083 z m -33.499998,-0.70254 c -10.525859,-1.24969 -21.747278,-7.13694 -27.273315,-14.30876 -3.246892,-4.2139 -9.655107,-16.39753 -8.979791,-17.07285 0.217049,-0.21705 2.040144,2.86221 4.051323,6.8428 3.621374,7.16753 7.775077,12.73743 9.49883,12.73743 0.491138,0 1.750222,0.95142 2.797965,2.11427 1.047744,1.16285 4.789226,3.4793 8.314407,5.14768 9.081409,4.29801 22.092299,5.02073 31.736999,1.76291 13.45667,-4.54543 23.11701,-13.74186 27.86289,-26.52486 l 1.48506,-4 -0.59523,3.5 c -0.32737,1.925 -1.65875,5.35052 -2.95862,7.61226 -2.57185,4.47499 -13.9183,16.38774 -15.60869,16.38774 -0.5752,0 -0.78465,0.68056 -0.46546,1.51237 0.44851,1.16878 0.0511,1.37953 -1.74925,0.92767 -1.41197,-0.35438 -2.91254,-0.002 -3.80951,0.8952 -0.81394,0.81395 -4.14113,1.78548 -7.39375,2.15896 -3.252618,0.37348 -6.813858,0.78238 -7.913858,0.90866 -1.1,0.12629 -5.15,-0.14438 -9,-0.60148 z m -52,-23.80138 c -0.937072,-2.82126 -1.5029,-5.33043 -1.257394,-5.57594 0.245505,-0.2455 1.197047,1.87795 2.114537,4.7188 0.91749,2.84084 1.483317,5.35001 1.257394,5.57594 -0.225923,0.22592 -1.177465,-1.89754 -2.114537,-4.7188 z M 48.42141,103.61559 c -0.337342,-1.25931 -0.566565,-3.639655 -0.509384,-5.289655 0.07174,-2.070237 0.36142,-1.460209 0.934678,1.968325 0.87356,5.22459 0.61838,7.21742 -0.425294,3.32133 z m 87.83969,-8.985197 c 0.0108,-5.667452 -0.32341,-11.52997 -0.74272,-13.027818 -0.58241,-2.080521 -0.44528,-2.601684 0.58095,-2.207884 1.54832,0.594148 2.25718,17.981774 0.92689,22.735699 -0.50797,1.81526 -0.77784,-0.83015 -0.76512,-7.499997 z M 1.780752,88.966918 c 0,-2.959768 0.3514888,-4.041785 1.1522018,-3.546917 0.8342058,0.515567 0.9891141,-0.503106 0.5612825,-3.690983 C 2.8826212,77.171726 5.4813142,65.83 7.1377408,65.827321 c 0.4713438,-7.62e-4 0.5823901,0.714207 0.2467694,1.58882 -0.3356207,0.874614 -1.3314877,6.612114 -2.2130377,12.75 C 3.4864421,91.898345 1.780752,96.325545 1.780752,88.966918 Z M 181.88602,85.175559 c -0.62582,-4.207707 -0.90552,-7.882707 -0.62156,-8.166667 0.28396,-0.28396 0.54792,0.57121 0.58658,1.900376 0.066,2.268815 0.12771,2.294307 1.00903,0.416667 0.68316,-1.455457 0.841,-0.579753 0.57975,3.216292 -0.19746,2.868961 -0.058,5.030227 0.31002,4.802813 0.36796,-0.227414 0.47437,0.912755 0.23647,2.533708 -0.23791,1.620953 -0.55178,2.947187 -0.6975,2.947187 -0.14571,0 -0.77697,-3.442669 -1.40279,-7.650376 z M 47.851037,88.242602 c 0.03866,-2.154167 0.452656,-4.816667 0.919997,-5.916667 0.528785,-1.244622 0.638165,0.07729 0.289603,3.5 -0.670744,6.586376 -1.307246,7.858048 -1.2096,2.416667 z M 144.47367,76.52071 c -0.98931,-3.138453 -2.93468,-6.941189 -4.32305,-8.450526 l -2.52431,-2.744249 1.54583,3 c 2.5237,4.897775 4.67124,10.770707 4.13469,11.307256 -0.2751,0.275096 -1.64874,-1.931497 -3.05254,-4.903541 -5.57726,-11.807866 -9.2031,-16.146828 -20.18574,-24.155876 -3.69051,-2.691284 -8.25844,-5.021106 -11.25309,-5.739511 -2.77248,-0.665109 -5.26467,-1.571402 -5.53821,-2.013984 -0.27353,-0.442582 2.05146,-0.139116 5.16663,0.674369 6.27995,1.639924 14.27913,6.412812 18.77396,11.201912 1.6154,1.721156 3.6235,3.129375 4.46244,3.129375 0.83894,0 2.53856,1.2375 3.77694,2.75 1.23838,1.5125 2.26779,2.223764 2.28757,1.580587 0.0198,-0.643177 -2.30234,-3.793177 -5.16026,-7 -4.54854,-5.103838 -4.66568,-5.33201 -0.93977,-1.830587 7.66891,7.20685 15.91673,22.207402 14.95532,27.199639 -0.18022,0.935778 -1.1371,-0.866411 -2.12641,-4.004864 z m -94.692918,2.853344 c 0,-1.197876 4.276893,-9.601214 5.166323,-10.150912 0.513746,-0.317513 0.01149,1.14406 -1.116119,3.247939 -1.127612,2.10388 -2.050204,4.367842 -2.050204,5.031028 0,0.663186 -0.45,1.483907 -1,1.823826 -0.55,0.339919 -1,0.361572 -1,0.04812 z M 132.4078,73.279723 C 129.80394,66.927221 119.59178,56.827934 112.26941,53.363894 103.60567,49.265292 95.537665,48.140718 86.133505,49.720896 75.71719,51.471145 69.481103,54.648706 61.888232,62.074929 58.373027,65.512982 55.976518,67.407086 56.562656,66.284049 58.49446,62.582722 67.19729,55.2471 72.786988,52.608546 c 18.71308,-8.833296 41.284152,-4.414219 53.925342,10.557773 1.33737,1.583955 2.96651,3.414854 3.62033,4.068664 1.96118,1.961183 4.59077,7.623373 4.25849,9.169641 -0.17072,0.794433 -1.15323,-0.611772 -2.18335,-3.124901 z m 47.6502,0.326474 c 0.23861,-1.495855 0.0488,-2.481798 -0.42171,-2.190983 -0.47055,0.290815 -0.85554,-0.135998 -0.85554,-0.948475 0,-0.812476 -0.27314,-2.189033 -0.60699,-3.059017 -0.33384,-0.869983 -0.14606,-1.581787 0.41729,-1.581787 1.25457,0 4.73294,8.790093 3.83407,9.688961 -0.3544,0.354405 -0.65126,0.0069 -0.65968,-0.772294 -0.0127,-1.1713 -0.19942,-1.156867 -1.07829,0.08333 -0.83246,1.174705 -0.9689,0.910189 -0.62915,-1.219738 z M 139.25337,54.280229 c -2.73494,-2.500138 -4.07262,-4.112072 -2.97262,-3.582077 1.92772,0.928803 9.38445,8.127783 8.41878,8.127783 -0.26045,0 -2.71122,-2.045567 -5.44616,-4.545706 z m 27.47367,-7.696001 c -1.77389,-2.882939 -6.16131,-8.282939 -9.74983,-12 -3.58852,-3.717061 -6.15601,-6.758293 -5.70553,-6.758293 0.45047,0 -0.0382,-1.0125 -1.08594,-2.25 l -1.90499,-2.25 2.22642,1.883647 c 1.22453,1.036006 2.01698,2.222517 1.76101,2.636693 -0.25598,0.414175 0.20464,1.309135 1.02358,1.988798 0.81894,0.679663 1.48899,0.864325 1.48899,0.410359 0,-0.453966 1.78136,0.914061 3.95858,3.040061 2.17722,2.125999 3.72567,4.242325 3.44099,4.702947 -0.28468,0.460622 -0.11683,0.837495 0.373,0.837495 0.90929,0 6.66078,8.359749 7.80758,11.348283 1.24823,3.252836 -0.46464,1.560636 -3.63386,-3.58999 z M 16.780752,47.730305 c 0,-2.008138 4.136767,-6.937878 5.246405,-6.252083 0.686913,0.424535 0.869459,0.09203 0.490973,-0.894286 -0.632502,-1.648273 2.455011,-5.232278 3.557602,-4.129688 0.548572,0.548573 -7.997405,12.371687 -8.942497,12.371687 -0.193865,0 -0.352483,-0.493033 -0.352483,-1.09563 z m 53,-0.368319 c 0,-0.744676 7.363852,-5.537562 8.482135,-5.520738 0.559826,0.0084 0.342865,0.484992 -0.482135,1.059044 -1.10103,0.76612 -0.303089,0.907446 3,0.531343 3.983965,-0.45363 3.811954,-0.339383 -1.5,0.996267 -3.3,0.82976 -6.4275,1.933765 -6.95,2.453344 -0.992398,0.98685 -2.55,1.280498 -2.55,0.48074 z m -13,-3.860944 c 1.5608,-1.469661 8.054577,-3.953863 8.685711,-3.32273 0.198767,0.198768 -2.011704,1.345489 -4.912158,2.548269 -3.195268,1.325035 -4.682409,1.630247 -3.773553,0.774461 z m 33.727696,-1.396839 c 1.775232,-0.220912 4.925232,-0.224542 7,-0.0081 2.074767,0.216509 0.622304,0.397255 -3.227696,0.401692 -3.85,0.0044 -5.547537,-0.17268 -3.772304,-0.393592 z m 2.522304,-3.006736 c 2.0625,-0.215745 5.4375,-0.215745 7.499998,0 2.0625,0.215744 0.375,0.392262 -3.749998,0.392262 -4.125,0 -5.8125,-0.176518 -3.75,-0.392262 z m -65.25,-4.163882 c 0,-0.690382 -0.545922,-0.917373 -1.25,-0.519744 -0.6875,0.388268 0.528826,-1.160175 2.702948,-3.440983 2.174121,-2.280807 4.165062,-4.146923 4.424314,-4.146923 0.259251,0 -0.594609,1.134679 -1.897468,2.521508 -1.302858,1.386829 -2.472533,3.228063 -2.599278,4.091631 -0.288676,1.966871 -1.380516,3.148869 -1.380516,1.494511 z M 141.82527,22.201481 c -4.33563,-3.078027 -5.18088,-3.977256 -2.36026,-2.511001 2.82599,1.469049 3.60679,1.4361 2.71443,-0.114545 -0.39564,-0.6875 -0.45969,-1.025 -0.14235,-0.75 0.31735,0.275 0.50199,0.790256 0.41033,1.145012 -0.0917,0.354757 0.69057,1.592257 1.73832,2.75 2.39613,2.647698 1.968,2.553478 -2.36047,-0.519466 z M 48.366288,17.964335 c -0.633709,-1.025362 10.270771,-6.345241 11.477507,-5.599437 0.515327,0.318489 0.936957,0.164114 0.936957,-0.343056 0,-2.018486 18.812565,-6.5791073 23.419512,-5.6774563 2.055604,0.4023135 2.630255,0.2923184 1.727227,-0.3306118 -2.179236,-1.5032879 12.470098,-2.454266 19.749019,-1.2820299 9.08154,1.4625405 16.69451,4.1058132 14.97066,5.1979117 -1.14178,0.7233363 -1.13351,0.8681713 0.0502,0.8809663 0.77916,0.0084 1.20951,0.222465 0.95633,0.47565 -0.25319,0.253185 -1.54159,0.177583 -2.86312,-0.168004 -2.25487,-0.589663 -2.28296,-0.680731 -0.45633,-1.4794516 1.47312,-0.6441403 1.21692,-0.7431329 -1.05355,-0.4070806 -1.65,0.2442166 -4.575,0.073881 -6.5,-0.378524 -2.16238,-0.5081922 -2.73564,-0.8997699 -1.5,-1.0245956 3.20987,-0.3242636 -2.2429,-1.8102352 -6.5,-1.7713602 l -3.499998,0.031961 2.999998,0.7511201 c 2.47526,0.6197396 2.30035,0.6778174 -1,0.3320384 C 94.961156,6.5102688 80.65633,7.0561282 77.780752,8.0691147 73.08111,9.7246686 67.610374,10.838669 66.760182,10.313222 c -0.538686,-0.3329263 -0.97943,-0.172785 -0.97943,0.355871 0,1.190523 -5.901878,3.335519 -7.114869,2.585849 -0.486822,-0.300873 -0.885131,-0.100808 -0.885131,0.444588 0,0.994472 -3.843262,2.696144 -5.25,2.32453 -0.4125,-0.108969 -0.75,0.20373 -0.75,0.694886 0,1.197886 -2.810317,2.222919 -3.414464,1.245389 z"
       id="path1260" />
    <path
       style="fill:#252424"
       d="m 82.780752,182.14762 c -22.471097,-3.64947 -44.711806,-13.03448 -59.193837,-30.66695 -2.435633,-2.1615 0.149354,0.58386 -5.271423,-5.83771 C 14.391723,139.97235 9.9488439,131.03982 7.4025192,123.48141 4.3277294,112.16676 0.57257868,100.84618 0.49986032,88.990561 -1.0432527,83.94132 3.6655774,75.443278 2.0416766,85.325935 1.168703,89.056199 2.5375491,96.133368 3.7630348,88.340332 4.8785253,80.954467 6.7785711,72.833221 7.1247824,65.825935 4.9897071,66.78412 3.4713295,77.914773 3.1557073,74.779134 3.1848205,70.910225 3.7428202,65.766774 5.6728652,64.407483 5.0280027,58.553117 11.911939,54.722761 14.480059,49.353595 20.690693,46.233373 24.62214,38.915477 29.989411,33.813235 55.198723,7.4845251 97.504681,-0.8008837 130.339,15.628294 c 16.45073,7.5115 29.85005,20.475319 39.67633,35.469762 2.28168,-0.99335 -8.7287,-13.564738 -3.70794,-9.068516 5.89907,1.619381 10.6739,13.544387 15.01657,26.085014 0.73989,3.765642 -5.1179,-7.053982 -2.67243,1.139964 2.14669,7.170323 2.84121,16.329579 4.79755,22.521554 2.47982,-7.650105 0.77379,8.935818 0.45698,11.910498 -2.35814,27.48515 -18.52643,52.94919 -41.48272,67.94014 -11.69823,4.46452 -23.66292,9.00379 -36.28413,10.24232 -7.733144,0.91158 -15.621521,1.42609 -23.358458,0.27859 z m 22.999998,-24.44273 c 5.83896,-1.36953 19.79464,-5.70859 20.61484,-7.32568 6.38313,-2.01411 8.45328,-9.0137 15.36066,-10.64202 1.53767,-7.0129 8.47077,-12.22314 10.79327,-19.30148 5.16743,-12.67323 5.82567,-26.9124 4.37489,-40.383134 -5.3175,-25.441323 -27.08466,-47.320568 -53.2714,-50.51444 C 78.59107,25.23534 51.590398,37.050897 38.34443,58.872012 31.884881,69.966965 26.194699,82.635837 28.210263,95.785291 c 0.962248,14.245959 5.263955,28.654629 14.566629,39.732829 4.41196,4.74175 10.024206,10.68087 15.203672,13.9941 3.867596,1.70405 9.134434,6.13456 14.919241,6.23807 9.085654,3.09041 16.29607,4.23273 26.425908,2.78693 2.159747,-0.20229 4.323587,-0.41823 6.455037,-0.83233 z M 84.280752,154.35813 C 71.12012,151.46014 57.479684,145.96726 48.7139,135.31866 c -2.056502,-5.71635 9.467948,7.04009 13.094229,8.26544 12.813917,8.78601 28.974126,10.12834 43.980681,9.76661 -6.648524,2.67366 -14.539818,1.93978 -21.508058,1.00742 z m 20.583328,-9.91258 c 3.83569,-1.20913 15.18438,-7.98242 14.74621,-5.03669 -4.36258,2.43152 -9.65543,6.03997 -14.74621,5.03669 z M 81.72394,136.78124 C 73.778103,134.95387 67.389909,129.67864 61.068749,125.10598 52.871186,114.36016 46.491033,100.82243 48.890578,86.974714 50.789911,72.689092 61.084176,60.411804 73.358982,53.418908 c 16.768586,-7.988604 38.690848,-4.887395 51.262848,9.293987 14.97191,14.192992 15.53841,39.371975 4.83037,56.225605 -10.33791,15.21725 -30.032361,21.75332 -47.72826,17.84274 z m 29.78114,-5.05893 C 131.4723,122.85119 140.78102,97.605869 132.88978,77.558468 126.41035,60.278856 107.49674,48.682327 89.134331,51.13222 72.110905,52.040651 57.236889,64.675203 52.490185,80.873184 c -4.848722,12.908581 -1.200742,27.997386 6.92897,38.717006 8.438422,10.64584 21.804509,17.59282 35.585929,15.833 5.715366,-0.0771 11.440136,-0.83158 16.499996,-3.70088 z m 23.74056,-71.309611 c -6.92428,-4.409133 -12.8411,-10.95117 -20.60156,-14.568914 -11.29195,-5.210736 -24.405327,-3.819528 -36.386695,-2.348955 -4.069802,0.218411 9.352856,-4.214602 12.028284,-3.312264 17.853941,-2.229436 36.930251,5.799914 46.940541,20.891687 1.32331,3.121883 -1.67209,0.258389 -1.98057,-0.661554 z m 2.629,-9.881798 c -3.76205,-4.661051 -11.08009,-9.064015 -15.2367,-12.297468 8.22143,4.763179 15.8187,11.96204 22.12009,19.490121 -2.6168,-1.654955 -4.58294,-5.116487 -6.88339,-7.192653 z M 67.022018,37.147374 c 9.182121,-5.054606 14.831302,-5.546939 25.258734,-6.31608 -10.83153,1.132483 -4.118056,-0.391575 -14.993422,2.686799 -1.303873,-0.07059 -4.50944,0.905974 -10.265312,3.629281 z m -50.168945,8.178561 c 2.989518,-4.365121 7.58858,-10.582599 3.790986,-8.73899 4.547724,-6.633811 12.277299,-11.357551 21.713893,-16.868624 4.424045,-2.536336 11.220995,-7.042171 14.775863,-7.509428 -12.359204,6.728678 -25.015344,13.859998 -33.606792,25.374646 -2.337874,2.268674 -4.011018,6.3624 -6.67395,7.742396 z m 139.972387,-13.838547 -7.4553,-8.161453 c 5.27629,5.30879 11.32253,10.057216 15.46007,16.327 -2.88928,-1.990026 -5.35831,-5.548381 -8.00477,-8.165547 z M 139.78075,17.892384 C 127.28521,10.625778 113.2529,5.0052008 98.702633,4.1116593 91.318025,3.7465129 81.109884,6.6870911 75.621246,6.2003782 91.352248,0.95887409 108.99402,1.1606199 123.97922,8.6796041 c 7.45152,3.5509859 16.2091,6.7767049 21.55001,12.8468899 -2.03513,-1.003834 -3.85397,-2.395346 -5.74848,-3.63411 z"
       id="path1258"
       sodipodi:nodetypes="ccccccccccccccccccccccccccccccccccccccccccccccccccccccccccccccccccccccccccccccccccccccc" />
    <path
       style="fill:#070707"
       d="M 75.780752,185.33259 C 53.10249,180.25593 33.8704,168.71721 20.915693,152.41508 13.73747,143.38205 8.3969162,134.25601 9.3687796,132.6835 9.786369,132.00782 9.6573449,131.78417 9.0621709,132.152 7.7871731,132.94 3.3961651,121.27053 4.1896242,119.20281 4.5021446,118.38839 4.3461602,117.97649 3.842992,118.28746 1.9241224,119.47339 0.28155688,107.19188 0.37082,92.325935 0.44988727,79.158009 0.78128857,76.270835 3.0841494,68.687367 6.516437,57.384624 10.477884,48.520718 11.746578,49.304815 c 0.564779,0.349052 0.777828,0.01667 0.482545,-0.752827 C 11.453124,46.529766 19.110878,35.60286 26.685773,27.923687 38.082079,16.370496 54.165885,7.0535436 70.280752,2.6701898 c 6.606671,-1.79705959 10.699574,-2.17605451 23.5,-2.17605451 12.800428,0 16.893328,0.37899492 23.499998,2.17605451 8.9304,2.4291284 22.06409,8.4001912 29.25941,13.3024052 24.31154,16.563608 39.36132,43.002793 40.94338,71.92859 2.42614,44.358785 -24.94361,82.683495 -68.20279,95.501515 -11.28498,3.34382 -32.899916,4.30277 -43.499998,1.92989 z m 37.641938,-4.48294 c 5.42193,-1.08696 12.78306,-3.16153 16.35806,-4.61016 3.575,-1.44863 7.27408,-2.72482 8.22019,-2.83598 6.15411,-0.72307 22.58256,-15.48353 30.63929,-27.52846 7.55435,-11.29389 11.9218,-21.99395 14.25239,-34.91775 4.13959,-22.955174 1.36219,-41.400682 -9.19253,-61.050322 -3.10714,-6.848989 -5.9694,-7.276085 -6.6063,-7.880836 C 153.64667,26.252183 144.26779,18.426232 130.89953,11.824838 110.78566,1.8923848 99.664444,0.41578782 79.716183,5.0290754 61.623483,9.2132411 50.982625,13.666514 38.252439,22.381941 c -3.753994,2.570085 -7.420066,4.760154 -8.146825,4.86682 -1.760021,0.258316 -7.893774,6.577174 -6.384502,6.577174 0.64772,0 0.895022,0.45734 0.549559,1.016312 -0.345464,0.558971 -0.996033,0.788926 -1.44571,0.51101 -0.449678,-0.277915 -1.431083,0.277244 -2.180902,1.233688 -1.2337,1.573668 -1.196938,1.608514 0.386693,0.366545 2.745958,-2.153529 2.049852,0.09719 -1.209359,3.910219 -1.627648,1.904224 -2.977648,3.784098 -3,4.177498 -0.0799,1.406205 -6.120396,10.274833 -6.664461,9.784728 -1.0545597,-0.949968 -5.48086,11.196254 -7.4095909,20.332678 -2.31915166,10.985851 -2.54775185,24.12089 -0.5116223,29.397077 0.8002317,2.07363 2.0858532,6.92313 2.8569366,10.77667 1.485929,7.42602 6.7127606,20.39554 9.8247276,24.37843 2.594736,4.21967 3.914787,6.71378 6.834853,9.34595 14.966636,18.90344 37.476989,29.26664 61.028516,33.09088 7.00237,1.13703 21.574808,0.51975 30.641938,-1.29797 z M 81.780752,158.18587 C 71.500928,156.26007 60.314528,151.02918 51.99377,144.25713 36.915354,131.9852 29.375171,116.21813 28.115488,94.325935 27.599836,85.364334 27.803435,83.547136 30.076191,76.825935 35.232,61.578708 41.742994,51.702521 52.23103,43.220414 c 21.566486,-17.441707 52.49024,-19.3828 75.79108,-4.75743 13.37927,8.397839 24.26866,23.25635 28.28267,38.591553 3.2586,12.449175 0.5206,36.778753 -5.26354,46.771393 -9.16524,15.8338 -21.31568,26.27691 -36.78262,31.61406 -6.53041,2.25344 -9.97365,2.79476 -18.977868,2.98357 -6.05,0.12686 -12.125,0.0199 -13.5,-0.23769 z m 26.539898,-2.90517 c 22.64095,-5.86993 42.39817,-26.0363 46.45245,-47.41442 1.29686,-6.83833 1.29314,-21.261972 -0.007,-28.118909 C 151.5497,62.788698 135.34851,43.720101 117.92562,36.386912 104.11406,30.573704 92.389026,29.493617 79.190715,32.818729 67.383391,35.793402 57.411899,41.207618 49.709856,48.825935 41.175945,57.267077 37.291584,63.099731 33.51517,73.143454 c -2.753571,7.323375 -3.084878,9.389904 -3.155505,19.682481 -0.06947,10.123345 0.2692,12.562125 2.829085,20.372645 6.679888,20.38114 22.313554,35.56893 42.855629,41.63338 8.014445,2.36603 24.022641,2.5886 32.276271,0.44874 z M 80.780752,134.36449 C 63.714651,128.81089 51.861831,113.95077 50.390201,96.263243 49.115338,80.940669 59.068418,62.749087 72.388716,56.055807 c 8.431781,-4.236862 14.21649,-5.482904 23.412963,-5.043215 7.648711,0.36569 9.772231,0.901191 16.230121,4.092854 13.8478,6.843954 22.44282,19.469162 23.46743,34.471251 1.25308,18.347233 -7.81651,34.277933 -23.99415,42.145613 -5.91938,2.87877 -8.0046,3.34648 -16.499996,3.70088 -6.798672,0.28362 -11.078201,-0.0349 -14.224332,-1.0587 z"
       id="path1256"
       sodipodi:nodetypes="sssssssssssssssssssssssccsssssssssssssssccssssssssssssssscsssssssssssssssss" />
    <path
       style="fill:#070707"
       d="M 75.780752,185.33259 C 53.10249,180.25593 33.8704,168.71721 20.915693,152.41508 13.73747,143.38205 8.3969162,134.25601 9.3687796,132.6835 9.786369,132.00782 9.6573449,131.78417 9.0621709,132.152 7.7871731,132.94 3.3961651,121.27053 4.1896242,119.20281 4.5021446,118.38839 4.3461602,117.97649 3.842992,118.28746 1.9241224,119.47339 0.28155688,107.19188 0.37082,92.325935 0.44988727,79.158009 0.78128857,76.270835 3.0841494,68.687367 6.516437,57.384624 10.477884,48.520718 11.746578,49.304815 c 0.564779,0.349052 0.777828,0.01667 0.482545,-0.752827 C 11.453124,46.529766 19.110878,35.60286 26.685773,27.923687 38.082079,16.370496 54.165885,7.0535436 70.280752,2.6701898 c 6.606671,-1.79705959 10.699574,-2.17605451 23.5,-2.17605451 12.800428,0 16.893328,0.37899492 23.499998,2.17605451 8.9304,2.4291284 22.06409,8.4001912 29.25941,13.3024052 24.31154,16.563608 39.36132,43.002793 40.94338,71.92859 2.42614,44.358785 -24.94361,82.683495 -68.20279,95.501515 -11.28498,3.34382 -32.899916,4.30277 -43.499998,1.92989 z m 37.641938,-4.48294 c 5.42193,-1.08696 12.78306,-3.16153 16.35806,-4.61016 3.575,-1.44863 7.27408,-2.72482 8.22019,-2.83598 6.15411,-0.72307 22.58256,-15.48353 30.63929,-27.52846 7.55435,-11.29389 11.9218,-21.99395 14.25239,-34.91775 4.13959,-22.955174 1.36219,-41.400682 -9.19253,-61.050322 -3.10714,-6.848989 -5.9694,-7.276085 -6.6063,-7.880836 C 153.64667,26.252183 144.26779,18.426232 130.89953,11.824838 110.78566,1.8923848 99.664444,0.41578782 79.716183,5.0290754 61.623483,9.2132411 50.982625,13.666514 38.252439,22.381941 c -3.753994,2.570085 -7.420066,4.760154 -8.146825,4.86682 -1.760021,0.258316 -7.893774,6.577174 -6.384502,6.577174 0.64772,0 0.895022,0.45734 0.549559,1.016312 -0.345464,0.558971 -0.996033,0.788926 -1.44571,0.51101 -0.449678,-0.277915 -1.431083,0.277244 -2.180902,1.233688 -1.2337,1.573668 -1.196938,1.608514 0.386693,0.366545 2.745958,-2.153529 2.049852,0.09719 -1.209359,3.910219 -1.627648,1.904224 -2.977648,3.784098 -3,4.177498 -0.0799,1.406205 -6.120396,10.274833 -6.664461,9.784728 -1.0545597,-0.949968 -5.48086,11.196254 -7.4095909,20.332678 -2.31915166,10.985851 -2.54775185,24.12089 -0.5116223,29.397077 0.8002317,2.07363 2.0858532,6.92313 2.8569366,10.77667 1.485929,7.42602 6.7127606,20.39554 9.8247276,24.37843 2.594736,4.21967 3.914787,6.71378 6.834853,9.34595 14.966636,18.90344 37.476989,29.26664 61.028516,33.09088 7.00237,1.13703 21.574808,0.51975 30.641938,-1.29797 z M 81.780752,158.18587 C 71.500928,156.26007 60.314528,151.02918 51.99377,144.25713 36.915354,131.9852 29.375171,116.21813 28.115488,94.325935 27.599836,85.364334 27.803435,83.547136 30.076191,76.825935 35.232,61.578708 41.742994,51.702521 52.23103,43.220414 c 21.566486,-17.441707 52.49024,-19.3828 75.79108,-4.75743 13.37927,8.397839 24.26866,23.25635 28.28267,38.591553 3.2586,12.449175 0.5206,36.778753 -5.26354,46.771393 -9.16524,15.8338 -21.31568,26.27691 -36.78262,31.61406 -6.53041,2.25344 -9.97365,2.79476 -18.977868,2.98357 -6.05,0.12686 -12.125,0.0199 -13.5,-0.23769 z m 26.539898,-2.90517 c 22.64095,-5.86993 42.39817,-26.0363 46.45245,-47.41442 1.29686,-6.83833 1.29314,-21.261972 -0.007,-28.118909 C 151.5497,62.788698 135.34851,43.720101 117.92562,36.386912 104.11406,30.573704 92.389026,29.493617 79.190715,32.818729 67.383391,35.793402 57.411899,41.207618 49.709856,48.825935 41.175945,57.267077 37.291584,63.099731 33.51517,73.143454 c -2.753571,7.323375 -3.084878,9.389904 -3.155505,19.682481 -0.06947,10.123345 0.2692,12.562125 2.829085,20.372645 6.679888,20.38114 22.313554,35.56893 42.855629,41.63338 8.014445,2.36603 24.022641,2.5886 32.276271,0.44874 z M 80.780752,134.36449 C 63.714651,128.81089 51.861831,113.95077 50.390201,96.263243 49.115338,80.940669 59.068418,62.749087 72.388716,56.055807 c 8.431781,-4.236862 14.21649,-5.482904 23.412963,-5.043215 7.648711,0.36569 9.772231,0.901191 16.230121,4.092854 13.8478,6.843954 22.44282,19.469162 23.46743,34.471251 1.25308,18.347233 -7.81651,34.277933 -23.99415,42.145613 -5.91938,2.87877 -8.0046,3.34648 -16.499996,3.70088 -6.798672,0.28362 -11.078201,-0.0349 -14.224332,-1.0587 z"
       id="path1493"
       sodipodi:nodetypes="sssssssssssssssssssssssccsssssssssssssssccssssssssssssssscsssssssssssssssss" />
  </g>
</svg>
