<?xml version="1.0" encoding="UTF-8" standalone="no"?>
<!-- Generator: Adobe Illustrator 26.0.3, SVG Export Plug-In . SVG Version: 6.00 Build 0)  -->

<svg
   version="1.1"
   id="Ebene_1"
   x="0px"
   y="0px"
   viewBox="0 0 15.5 15.5"
   xml:space="preserve"
   sodipodi:docname="round_light_off.svg"
   inkscape:version="1.1.1 (3bf5ae0d25, 2021-09-20)"
   width="15.5"
   height="15.5"
   xmlns:inkscape="http://www.inkscape.org/namespaces/inkscape"
   xmlns:sodipodi="http://sodipodi.sourceforge.net/DTD/sodipodi-0.dtd"
   xmlns="http://www.w3.org/2000/svg"
   xmlns:svg="http://www.w3.org/2000/svg"><defs
   id="defs1170" /><sodipodi:namedview
   id="namedview1168"
   pagecolor="#ffffff"
   bordercolor="#666666"
   borderopacity="1.0"
   inkscape:pageshadow="2"
   inkscape:pageopacity="0.0"
   inkscape:pagecheckerboard="0"
   showgrid="false"
   inkscape:zoom="64"
   inkscape:cx="4.3125"
   inkscape:cy="4.5625"
   inkscape:window-width="3840"
   inkscape:window-height="2066"
   inkscape:window-x="2869"
   inkscape:window-y="-11"
   inkscape:window-maximized="1"
   inkscape:current-layer="Ebene_1"
   showguides="true"
   inkscape:guide-bbox="true"
   width="14.51054px"><sodipodi:guide
     position="-7.2504592,0.15769786"
     orientation="1,0"
     id="guide8468" /><sodipodi:guide
     position="-7.0900926,0.0082133605"
     orientation="0,-1"
     id="guide8470" /></sodipodi:namedview>

<path
   style="fill:#6a696d;stroke-width:1"
   d="M 6.1286948,15.330939 C 3.2313329,14.711747 0.98965588,12.576175 0.19037424,9.6736961 -0.06627004,8.741728 -0.06279698,6.7027862 0.19697418,5.7990461 0.93210135,3.2415488 2.7195725,1.3070118 5.1429218,0.44616612 7.9532632,-0.5521507 11.065865,0.15422861 13.183761,2.2709669 16.628781,5.7141091 16.099976,11.368706 12.072227,14.156768 10.42756,15.295227 8.1068641,15.75369 6.1286948,15.330939 Z"
   id="path1699" /><path
   style="fill:#605e63;stroke-width:1"
   d="M 6.7928368,15.394569 C 5.8747023,15.282777 4.6207019,14.864339 3.8297418,14.405839 2.9766939,13.911349 1.5370257,12.472465 1.0422644,11.619883 0.83040568,11.254803 0.5334239,10.588471 0.38230473,10.139143 0.13359705,9.3996521 0.10720068,9.1769305 0.10393606,7.7903848 0.09991045,6.0806039 0.20287728,5.5902709 0.83370998,4.3151683 1.5780889,2.8105545 2.8082773,1.6112787 4.3917081,0.84657643 5.6685431,0.22994166 6.618427,0.04035284 8.1098717,0.10446261 c 2.0607313,0.0885804 3.5999743,0.77652946 5.0689463,2.26551189 0.943425,0.9562791 1.484027,1.8219364 1.841734,2.9491422 0.669522,2.1097977 0.429973,4.4715097 -0.638557,6.2955073 -0.701179,1.196927 -1.996791,2.408387 -3.264844,3.052789 -1.1312757,0.574895 -2.9974909,0.888709 -4.3243142,0.727156 z m 2.133839,-1.927676 C 10.092875,13.188508 10.899853,12.726987 11.800038,11.82358 13.431173,10.186615 13.971152,8.3073303 13.421827,6.17929 13.169358,5.2012386 12.8689,4.5640278 12.24635,3.6863398 11.213365,2.230009 9.661084,1.4844308 7.6587743,1.4828746 5.6597637,1.4813209 3.7921101,2.4614367 2.7111428,4.0793149 2.4834229,4.4201421 2.2972785,4.7512064 2.2974887,4.8150136 2.2976986,4.8788208 2.3841745,4.7931647 2.4896575,4.6246667 2.8932521,3.9799662 4.0930755,3.0161561 5.1614797,2.4784098 5.5368949,2.2894571 6.2299506,2.0564367 6.7016035,1.9605873 7.4418748,1.8101488 7.6639569,1.8036248 8.3254722,1.9128814 9.790978,2.1549262 11.244435,2.9573987 12.107093,4.0007625 c 0.422509,0.5110169 0.568695,1.0173332 0.412374,1.4282627 -0.122898,0.3230743 -0.160594,0.3256861 -0.788183,0.05461 C 11.202611,5.2552836 11.119421,5.256523 9.2961411,5.5199135 8.7903715,5.5929773 8.3184292,5.6887894 8.2473803,5.7328299 8.0281792,5.8687046 7.712418,6.5895695 7.712418,6.9541185 c 0,0.1904372 -0.04258,0.4794804 -0.094623,0.6423179 -0.052044,0.1628377 -0.1226005,0.506158 -0.1567938,0.7629342 -0.060928,0.4575423 -0.06873,0.4659323 -0.390711,0.4201318 L 6.7417489,8.7327681 6.984624,8.9316956 C 7.1572887,9.0731165 7.208318,9.191022 7.1611478,9.3395616 7.106244,9.5124537 7.0226764,9.5433676 6.6767769,9.5187433 6.4150615,9.5001125 6.1851961,9.4100704 6.062026,9.2779343 5.8117099,9.0093986 5.6179251,9.0103658 5.428194,9.2811 L 5.2780717,9.4953119 5.1466372,9.25557 C 5.0743481,9.1237087 5.0031503,8.8779621 4.9884195,8.7094643 4.9433756,8.1942245 4.86457,7.7869819 4.7533158,7.4945205 4.6949231,7.3410204 4.6471474,7.0187504 4.6471474,6.7783649 4.6471474,6.3265219 4.5277161,6.1529097 4.0448006,5.9027595 3.803822,5.7779324 2.3669011,5.6765682 2.1294313,5.7676442 c -0.066958,0.02568 -0.200374,0.3993944 -0.2964794,0.8304761 -0.322026,1.4444491 -0.026052,3.0309636 0.7828172,4.1961537 1.0389271,1.496594 2.1680348,2.275901 3.8705407,2.671441 1.0121735,0.235156 1.4593024,0.235371 2.440366,0.0011 z M 7.0539212,8.2436901 C 7.2170241,8.0635618 7.2229901,8.0196167 7.095301,7.9388942 6.7187651,7.7008553 6.4924109,7.8808707 6.6505051,8.2926322 c 0.08249,0.21485 0.1746843,0.2036659 0.4034161,-0.048942 z"
   id="path1697" /><path
   style="fill:#5e5c62;stroke-width:1"
   d="M 5.8221678,15.203373 C 3.2206555,14.494384 1.2696764,12.675194 0.39106608,10.139143 0.13347556,9.3956255 0.10768571,9.1890716 0.10418067,7.8414449 0.10086415,6.5662719 0.13357867,6.254878 0.3398307,5.5984053 1.1534953,3.0086194 2.9857767,1.175999 5.5667286,0.37054058 6.2112976,0.16938485 6.552194,0.13138969 7.712418,0.13138969 c 1.1618092,0 1.4996724,0.037755 2.1420887,0.23937056 2.3982633,0.75266965 4.1196573,2.31236725 5.0046343,4.53453415 0.433296,1.0879974 0.548684,1.8382437 0.494314,3.2139694 -0.08025,2.0304762 -0.766702,3.5911002 -2.217266,5.0408742 -0.890723,0.890239 -1.854959,1.494048 -3.022643,1.892799 -1.1095211,0.378889 -3.1860102,0.451682 -4.2913782,0.150436 z M 9.2450533,13.68053 C 11.261001,13.151704 12.804846,11.545451 13.532224,9.220064 13.788787,8.3998448 13.834348,7.1396805 13.638369,6.2842261 13.45702,5.4926196 12.79946,4.195764 12.23978,3.5258885 10.008229,0.85496699 5.9099547,0.7234503 3.3654954,3.2411059 2.6333652,3.9655239 2.2732353,4.5411991 1.9250146,5.5437462 1.6709415,6.2752366 1.6413575,6.499593 1.6422341,7.688265 c 8.788e-4,1.1888404 0.028865,1.3983598 0.2678377,2.0051289 0.8112109,2.0597121 2.4255125,3.5478771 4.3565213,4.0161171 0.8016542,0.19439 2.1779965,0.180997 2.9784602,-0.02898 z M 4.6663981,5.3690324 C 4.3637138,5.1822023 4.2613588,5.1710676 3.695729,5.2634393 2.6344801,5.4367492 2.4627249,5.1872369 3.0721264,4.3575188 3.4325723,3.8667613 3.7275662,3.7112298 3.7275662,4.0119472 c 0,0.2427982 0.5017006,0.1844174 0.8775755,-0.1021202 0.184194,-0.1404149 0.4284809,-0.2552999 0.54286,-0.2552999 0.1428769,0 0.1895556,-0.04794 0.1491492,-0.1531799 -0.073243,-0.1907636 0.1275754,-0.2033627 0.2389567,-0.014991 0.04494,0.076004 0.2771303,0.16354 0.5159785,0.1945257 0.2480362,0.032177 0.4097653,0.016711 0.3771288,-0.036068 C 6.3190574,3.4666721 6.8488097,3.5611963 7.3548032,3.8099672 7.9610849,4.1080449 8.324434,4.1339996 8.3953766,3.8842978 8.4233023,3.7860065 8.6600586,3.6034217 8.9215018,3.4785526 L 9.3968537,3.2515184 9.8573758,3.6947096 c 0.5571742,0.5362059 1.4833962,0.9145179 1.6437212,0.6713712 0.05437,-0.08244 0.08151,-0.2512915 0.06034,-0.3752229 -0.03209,-0.1878755 -0.0084,-0.209308 0.141714,-0.1289415 0.214734,0.1148611 0.607167,0.7230642 0.607167,0.9410106 0,0.3088581 -0.267071,0.4113307 -0.632683,0.2427535 C 11.307479,4.8750036 9.5714954,4.7243808 8.8108067,4.7969385 8.6843642,4.8089992 8.4849499,4.7859402 8.3676646,4.7456962 8.2137502,4.6928844 8.0772473,4.7440051 7.8770652,4.929426 7.5857555,5.1992554 7.3585896,5.2555636 7.2526274,5.0842065 7.1619769,4.9376111 6.7931318,4.9580219 6.7912723,5.1097366 c -0.00104,0.0851 -0.03458,0.07659 -0.1006111,-0.02553 C 6.6361855,4.9999576 6.5909106,4.9814452 6.5900499,5.0430679 6.5891202,5.1096434 6.404532,5.1489011 6.1351692,5.1398105 5.7580255,5.1270827 5.6606947,5.1640248 5.5559374,5.3596592 5.4023011,5.6465746 5.1208499,5.6495401 4.6663981,5.3690327 Z M 5.8730509,3.3736976 C 5.8729385,3.3315732 5.7045546,3.2850606 5.4988651,3.2703366 5.2931756,3.2556125 5.0724748,3.2000933 5.0084187,3.1469606 4.9443626,3.0938277 4.779398,3.0781943 4.6418307,3.1122197 4.3061536,3.1952446 4.4072632,3.1011746 5.105153,2.6811568 6.1874284,2.0298 7.3447045,1.8164666 8.4804512,2.0589508 9.2182271,2.2164677 10.498285,2.7357029 10.615288,2.9249129 10.728508,3.1080051 10.297771,3.2697947 10.049976,3.1372508 9.9307171,3.0734603 9.712317,3.045315 9.5646414,3.0747053 9.4169659,3.1040957 9.0064403,3.093899 8.6523607,3.0520468 c -0.3540785,-0.041852 -0.6671511,-0.0383 -0.6957157,0.0079 -0.028564,0.046194 -0.2074356,0.083989 -0.3974905,0.083989 -0.190055,0 -0.3739714,0.045954 -0.4087028,0.1021202 C 7.0655671,3.3833191 6.6571061,3.3759028 6.5156477,3.2345217 6.3866693,3.1056136 6.1451643,3.2095678 6.2352339,3.3552239 c 0.032331,0.052285 -0.035887,0.095064 -0.1515967,0.095064 -0.1157098,0 -0.2104738,-0.034466 -0.2105863,-0.07659 z"
   id="path1695" /><path
   style="fill:#4c4c4d;stroke-width:1"
   d="M 5.89157,15.199678 C 2.6636973,14.407348 0.28360476,11.574228 0.0783339,8.2799488 -0.14327749,4.7234308 1.940681,1.645392 5.3623772,0.47533546 6.26085,0.16810079 6.431841,0.14331168 7.6613302,0.14204989 9.1972924,0.14047385 9.8715509,0.28692162 11.135304,0.89659161 13.641273,2.105543 15.209069,4.5230939 15.34791,7.3924578 15.41723,8.8250946 15.223175,9.7877201 14.608929,11.058223 13.286762,13.792983 10.692899,15.41027 7.6613302,15.390087 7.0460987,15.385914 6.3419661,15.310232 5.89157,15.199678 Z M 9.6711362,13.618943 C 12.20962,12.736629 13.845236,10.386411 13.841747,7.6261951 13.840314,6.4989926 13.679714,5.8227569 13.16707,4.785455 12.677582,3.7950085 11.509007,2.5912102 10.588003,2.1286443 8.0793824,0.86871582 5.2554163,1.301668 3.3181355,3.2432132 1.0585821,5.5077407 0.8690709,8.9524056 2.8585166,11.597509 c 0.894885,1.189811 2.4018869,2.062011 3.985408,2.306613 0.6861474,0.105986 2.1170629,-0.03835 2.8272116,-0.285179 z"
   id="path1693" /><path
   style="fill:#2f2f30;stroke-width:1"
   d="M 6.3330463,15.252398 C 4.6908408,14.927519 3.5609569,14.318941 2.3441008,13.103864 0.81726453,11.579263 0.13795177,9.9643383 0.13048213,7.8414449 0.12635586,6.6687512 0.22571732,6.1107868 0.62802418,5.047496 0.87549279,4.3934406 1.7672028,2.9244872 2.0064979,2.7766752 2.1353901,2.697059 1.9352342,3.0863639 1.6443492,3.4810574 1.4750462,3.7107801 1.4605295,3.7838115 1.5706495,3.8518322 1.666828,3.9112416 1.9223172,3.7108091 2.4261691,3.1806733 3.7807441,1.7554366 5.0909146,1.09252 7.2455583,0.74217273 7.5390005,0.6944586 7.6078103,0.65195863 7.5009974,0.5844018 7.3935337,0.51643333 7.4360101,0.4884115 7.6613302,0.47862954 7.9490715,0.46613762 7.9445842,0.46080247 7.5881103,0.39157567 7.2445476,0.32485621 6.7150986,0.3638206 5.7538148,0.52656924 5.4746125,0.57383916 5.4960711,0.55416196 5.8732557,0.41704478 6.21662,0.29222207 6.7081972,0.2486244 7.8145937,0.24486873 c 1.3625363,-0.004626 1.5472086,0.0177493 2.2989523,0.27853478 1.208066,0.41908672 2.138157,1.00980709 3.077484,1.95457189 0.672494,0.6763864 0.919207,1.0167149 1.302633,1.7969169 0.652444,1.3276056 0.821095,2.0391922 0.821095,3.4644327 0,1.4261701 -0.168622,2.1367853 -0.822983,3.468232 -0.398071,0.809969 -0.625337,1.1175 -1.404806,1.900947 -0.79194,0.795978 -1.073925,1.00479 -1.900578,1.407393 -0.533869,0.260007 -1.246543,0.543526 -1.5837227,0.630041 -0.8810999,0.226074 -2.4128788,0.27595 -3.269622,0.10646 z M 9.4494047,13.808914 C 11.143308,13.307612 12.51736,12.143032 13.27004,10.57073 13.518111,10.052526 13.779786,9.3757969 13.85154,9.0668841 14.018995,8.3459735 14.018707,7.0285913 13.850927,6.3096457 13.623137,5.3334398 12.977067,4.1280598 12.282478,3.3833508 11.012383,2.0216076 9.5757582,1.383446 7.7635059,1.3759827 5.9097453,1.3683486 4.5174916,1.9403315 3.2166878,3.2439636 1.6501388,4.8139183 1.0312234,7.0682045 1.5790159,9.2088839 c 0.7697063,3.0078811 3.369032,4.9660541 6.3888414,4.8129611 0.5057696,-0.02564 1.1724659,-0.12146 1.4815474,-0.212931 z"
   id="path1691" /><path
   style="fill:#151515;stroke-width:1"
   d="M 6.1348977,15.127664 C 3.9994973,14.670229 2.1115518,13.25121 1.0965423,11.340735 0.62317982,10.449762 0.56711849,10.205346 0.84110321,10.22708 0.98733158,10.238678 1.0157812,10.166838 0.9972465,9.8327835 0.98478112,9.6081197 0.94468276,8.9118078 0.90813913,8.2854235 0.85666443,7.4031121 0.88007257,6.9741417 1.0120447,6.3812756 1.2205525,5.4445837 1.818541,4.2041092 2.428419,3.443132 3.837084,1.6854649 6.3950534,0.67478324 8.6218144,0.99605333 10.116103,1.2116448 11.349624,1.7830266 12.542231,2.8120379 c 0.34175,0.2948714 0.660755,0.5361297 0.7089,0.5361297 0.04815,0 0.123751,-0.09785 0.168016,-0.2174451 0.07396,-0.1998465 0.109896,-0.177118 0.443908,0.2808298 0.490511,0.6725151 0.832544,1.3731142 1.116979,2.2879497 0.191792,0.6168704 0.237782,0.9984396 0.239707,1.988763 0.0013,0.7088869 -0.05693,1.4621918 -0.138306,1.7870988 C 14.077327,13.484069 10.12345,15.982076 6.1348977,15.127664 Z M 8.887329,14.020237 c 2.386362,-0.424891 4.38896,-2.316891 5.026733,-4.7491132 C 14.141817,8.402556 14.1409,6.9658017 13.91205,6.1133116 13.299758,3.832496 11.432909,1.9808549 9.2198742,1.4593579 8.3856322,1.2627706 6.8916938,1.2648023 6.124618,1.4635674 3.2838398,2.1996707 1.2753499,4.7771584 1.2753499,7.6866152 c 0,2.6727628 1.7480889,5.1744498 4.2422742,6.0711138 1.1635768,0.418307 2.0895336,0.490441 3.3697049,0.262508 z"
   id="path1689" /></svg>
