<?xml version="1.0" encoding="UTF-8" standalone="no"?>
<!-- Generator: Adobe Illustrator 26.0.3, SVG Export Plug-In . SVG Version: 6.00 Build 0)  -->

<svg
   version="1.1"
   id="Ebene_1"
   x="0px"
   y="0px"
   viewBox="0 0 22.677 22.677"
   style="enable-background:new 0 0 22.677 22.677;"
   xml:space="preserve"
   sodipodi:docname="round_light.svg"
   inkscape:version="1.1.1 (3bf5ae0d25, 2021-09-20)"
   xmlns:inkscape="http://www.inkscape.org/namespaces/inkscape"
   xmlns:sodipodi="http://sodipodi.sourceforge.net/DTD/sodipodi-0.dtd"
   xmlns="http://www.w3.org/2000/svg"
   xmlns:svg="http://www.w3.org/2000/svg"><defs
   id="defs1170" /><sodipodi:namedview
   id="namedview1168"
   pagecolor="#ffffff"
   bordercolor="#666666"
   borderopacity="1.0"
   inkscape:pageshadow="2"
   inkscape:pageopacity="0.0"
   inkscape:pagecheckerboard="0"
   showgrid="false"
   inkscape:zoom="9.624289"
   inkscape:cx="28.469635"
   inkscape:cy="25.975945"
   inkscape:window-width="3840"
   inkscape:window-height="2066"
   inkscape:window-x="2869"
   inkscape:window-y="-11"
   inkscape:window-maximized="1"
   inkscape:current-layer="Ebene_1" />
<g
   id="g989"><path
     style="fill:#fefcfb;stroke-width:0.12"
     d="M 0,11.34 V 0 H 11.34 22.68 V 11.34 22.68 H 11.34 0 Z m 10.8,9.992458 c 0,-0.05915 0.0945,-0.092 0.21,-0.073 0.1155,0.019 0.2775,-0.0078 0.36,-0.05954 0.08638,-0.05418 0.15,-0.03766 0.15,0.03896 0,0.08892 0.0663,0.09594 0.199911,0.02117 0.11249,-0.06295 0.348632,-0.06922 0.539999,-0.01434 0.276945,0.07943 0.340431,0.0601 0.341927,-0.104088 0.0011,-0.115006 0.03971,-0.150071 0.09,-0.08162 C 12.805686,21.214961 13.56,21.260716 13.56,21.11266 13.56,21.050696 13.641,21 13.74,21 c 0.099,0 0.180827,-0.0675 0.181837,-0.15 0.0012,-0.101695 0.04283,-0.09203 0.129136,0.03 0.08909,0.125976 0.144645,0.137742 0.185095,0.0392 0.03179,-0.07744 0.189677,-0.116882 0.350864,-0.08765 0.161188,0.02923 0.293068,0.0034 0.293068,-0.05746 0,-0.184629 0.695903,-0.380949 0.763432,-0.21537 0.05777,0.141655 0.124984,-0.233391 0.08221,-0.458716 -0.01261,-0.0664 0.03916,-0.0592 0.115909,0.01612 0.154417,0.151554 0.598452,0.07944 0.598452,-0.0972 0,-0.0622 -0.05338,-0.08009 -0.118626,-0.03977 -0.0685,0.04233 -0.08785,-0.0069 -0.04581,-0.116444 0.06455,-0.168209 0.09121,-0.16551 0.234809,0.02377 0.106311,0.140131 0.163303,0.159533 0.165809,0.05645 0.0021,-0.0878 0.06492,-0.119319 0.142357,-0.07146 0.08856,0.05473 0.10585,0.03273 0.04793,-0.061 -0.05735,-0.09279 -0.0011,-0.170022 0.153156,-0.210365 0.157467,-0.04118 0.219026,-0.128229 0.173877,-0.245883 -0.05933,-0.154611 -0.02868,-0.160082 0.202786,-0.0362 0.175066,0.09369 0.243689,0.09903 0.1917,0.01491 -0.04454,-0.07206 -0.02569,-0.225949 0.04187,-0.341973 0.09686,-0.166323 0.12439,-0.17287 0.130144,-0.03095 0.0059,0.144979 0.03055,0.140113 0.126823,-0.02502 0.07293,-0.1251 0.196125,-0.175622 0.316036,-0.129608 0.131496,0.05046 0.167804,0.02896 0.109745,-0.06498 -0.04773,-0.07722 -0.02297,-0.140401 0.055,-0.140401 0.09998,0 0.09322,-0.05969 -0.02292,-0.202468 -0.142534,-0.175225 -0.139009,-0.192865 0.02619,-0.131102 0.104985,0.03925 0.266985,0.02319 0.36,-0.0357 0.119688,-0.07577 0.125275,-0.107597 0.01912,-0.108898 -0.0825,-9.6e-4 -0.15,-0.06161 -0.15,-0.134676 0,-0.07306 0.081,-0.101756 0.18,-0.06377 0.120276,0.04615 0.18,-0.0051 0.18,-0.154324 0,-0.258085 0.316603,-0.425436 0.4017,-0.21233 0.03146,0.07879 0.03931,-0.02887 0.01744,-0.239259 -0.03025,-0.290988 9.6e-4,-0.366879 0.130548,-0.317161 0.103543,0.03973 0.170315,-0.01025 0.170315,-0.127483 0,-0.106062 0.07594,-0.192839 0.168766,-0.192839 0.106322,0 0.146853,-0.08379 0.109545,-0.226457 -0.03257,-0.124551 0.0078,-0.267895 0.08978,-0.318541 0.10386,-0.06419 0.11987,-0.04103 0.05285,0.07646 -0.07614,0.133465 -0.06367,0.138486 0.05988,0.02412 0.08581,-0.07943 0.15126,-0.311978 0.145438,-0.516773 -0.0061,-0.213024 0.05984,-0.399377 0.154003,-0.43551 0.09605,-0.03686 0.133405,-0.146467 0.0897,-0.263228 -0.06753,-0.180406 -0.05273,-0.182379 0.150612,-0.02007 0.124026,0.099 0.185719,0.113746 0.137096,0.03277 -0.13314,-0.221732 0.144007,-1.13484 0.317936,-1.04749 0.07942,0.03989 0.03958,-0.01248 -0.08854,-0.116379 C 20.933382,13.76049 20.898479,13.68 20.985151,13.68 c 0.09938,0 0.123343,-0.08721 0.07008,-0.255028 -0.05447,-0.171616 -0.03749,-0.228171 0.05191,-0.172917 C 21.180215,13.297214 21.24,13.27379 21.24,13.2 c 0,-0.07379 0.05441,-0.100537 0.120911,-0.05944 0.07004,0.04329 0.06203,-0.05449 -0.01904,-0.232431 -0.11694,-0.256656 -0.104166,-0.346698 0.07769,-0.547645 C 21.53926,12.22822 21.578015,12.12 21.50568,12.12 c -0.07233,0 -0.16489,0.054 -0.20568,0.12 -0.04079,0.066 -0.138478,0.119173 -0.217082,0.118163 -0.09396,-0.0012 -0.08627,-0.03772 0.02246,-0.106584 0.09096,-0.05761 0.128268,-0.164783 0.08292,-0.238163 -0.04703,-0.0761 -0.0021,-0.133416 0.104626,-0.133416 0.114555,0 0.186369,-0.104672 0.185245,-0.27 -0.0013,-0.186415 -0.03223,-0.222102 -0.100001,-0.115279 C 21.314692,11.594763 21.28,11.522414 21.28,11.29 c 0,-0.197693 0.045,-0.331631 0.1,-0.297639 0.055,0.03399 0.1,-0.0732 0.1,-0.238197 0,-0.165 -0.04748,-0.329345 -0.105515,-0.365212 -0.05803,-0.03587 -0.136347,-0.187553 -0.174032,-0.337082 -0.06749,-0.2677887 -0.06566,-0.2682671 0.121659,-0.03187 0.166781,0.210476 0.180809,0.212959 0.114032,0.02019 C 21.394265,9.9192875 21.36,9.7406006 21.36,9.6431035 c 0,-0.097497 -0.05027,-0.1461998 -0.111708,-0.1082281 -0.06144,0.037972 -0.150784,0.00582 -0.198541,-0.071459 -0.05661,-0.091601 -0.0346,-0.1082182 0.06324,-0.047746 0.10414,0.064362 0.135183,0.024123 0.101415,-0.1314589 -0.02677,-0.1233164 -0.102259,-0.2142772 -0.167765,-0.2021351 -0.06551,0.012142 -0.120914,-0.1228579 -0.12313,-0.3 C 20.91467,8.0748048 20.877677,7.9072718 20.748028,7.9873992 20.660675,8.0413866 20.664722,7.9780284 20.76,7.8 20.855278,7.6219716 20.859325,7.5586134 20.771976,7.6126008 20.696779,7.6590728 20.64,7.6106281 20.64,7.5 c 0,-0.1067903 -0.04641,-0.1654817 -0.103132,-0.1304254 -0.05672,0.035056 -0.0885,-0.069524 -0.07062,-0.2324016 0.01788,-0.162877 -0.01891,-0.327917 -0.08175,-0.3667555 -0.06284,-0.038838 -0.08152,-0.1875707 -0.04152,-0.3305163 0.05757,-0.2056836 0.04645,-0.2223516 -0.05328,-0.079901 -0.0925,0.132123 -0.126512,0.1382188 -0.127861,0.022918 -0.0011,-0.089198 -0.06251,-0.1195847 -0.14223,-0.070315 -0.0944,0.058341 -0.115289,0.021348 -0.06377,-0.112918 C 20.006376,6.0679928 19.971023,6 19.852012,6 19.702244,6 19.696022,5.9540832 19.815425,5.73 19.942246,5.4919916 19.937298,5.4781361 19.77366,5.6130628 19.62014,5.7396476 19.574754,5.7315335 19.511293,5.5661575 19.469089,5.4561751 19.46632,5.2522968 19.505137,5.1130948 19.561428,4.9112472 19.550202,4.8964469 19.449696,5.04 19.356226,5.1735114 19.323198,5.179171 19.321835,5.061913 19.320635,4.958819 19.236775,4.930241 19.080752,4.97976 18.897095,5.038051 18.858256,5.012049 18.913591,4.8678465 c 0.03965,-0.1033158 0.133806,-0.1886738 0.209245,-0.1896845 0.07981,-0.00107 0.06645,-0.046602 -0.03196,-0.1088976 -0.09301,-0.058883 -0.241514,-0.079279 -0.33,-0.045324 C 18.672397,4.557896 18.6,4.5195808 18.6,4.4387962 18.6,4.2648403 17.646698,3.313301 17.559641,3.4003594 17.477432,3.4825682 17.039562,3.096091 17.041837,2.9433311 17.042797,2.875499 17.100959,2.901 17.170973,3 17.269792,3.1397294 17.288098,3.1421884 17.2528,3.0109908 17.202902,2.8255378 16.68,2.6958226 16.68,2.8688981 16.68,2.9279639 16.509568,2.8170832 16.301263,2.6224967 16.092958,2.4279102 15.852707,2.2954948 15.767374,2.3282402 15.663866,2.3679598 15.636038,2.319911 15.683773,2.1838886 15.742092,2.0177035 15.725428,2.0077384 15.593662,2.13 15.414872,2.2958926 15.191771,2.3351195 15.285,2.1842705 15.31754,2.1316193 15.298045,2.0139194 15.241678,1.9227154 15.120574,1.7267636 14.76,1.6492666 14.76,1.8191894 c 0,0.064874 -0.08535,0.0326 -0.189674,-0.071721 -0.104321,-0.1043209 -0.239321,-0.1589911 -0.3,-0.1214893 C 14.209646,1.6634808 14.16,1.6420326 14.16,1.5783164 c 0,-0.063716 -0.109776,-0.087141 -0.243946,-0.052054 -0.142274,0.037205 -0.342328,-0.025242 -0.48,-0.1498328 C 13.268142,1.2244709 13.2,1.208586 13.2,1.3214015 c 0,0.087229 -0.03553,0.1230671 -0.07896,0.07964 -0.04343,-0.043427 -0.144583,-0.024496 -0.22479,0.04207 C 12.737192,1.5751187 12.36,1.4794931 12.36,1.3071613 12.36,1.2482226 12.302813,1.2 12.232918,1.2 c -0.0699,0 -0.09038,0.059388 -0.04552,0.1319722 0.05665,0.091658 0.01299,0.098395 -0.142917,0.022055 -0.33615,-0.1645962 -0.831197,-0.1132252 -0.787711,0.08174 0.03018,0.1353077 0.0035,0.1372703 -0.148679,0.010949 -0.101997,-0.08465 -0.15504,-0.2152911 -0.117872,-0.2903128 0.03717,-0.075022 -0.01743,-0.031582 -0.121321,0.096532 C 10.700206,1.4609545 10.624716,1.4301298 10.665789,1.17 10.69071,1.0121696 10.532159,1.0730812 10.353433,1.29 10.190951,1.487204 10.184975,1.485786 10.255368,1.266728 10.328463,1.039259 10.324229,1.0389754 10.085164,1.2553268 9.9503238,1.3773557 9.8382826,1.4283281 9.8361836,1.3685989 9.8340848,1.3088696 9.746336,1.3679989 9.6411868,1.5000004 9.4524157,1.7369756 9.450803,1.7366238 9.5132244,1.4720821 9.5686532,1.2371748 9.5474875,1.2196601 9.3414428,1.3299318 9.212193,1.3991042 9.0772486,1.5317797 9.0415663,1.6247663 8.9864503,1.7683963 8.9499061,1.7670494 8.7986704,1.6158131 8.6145272,1.4316702 8.3429904,1.4906744 8.4651246,1.6882918 8.5030963,1.7497313 8.4769771,1.8 8.407082,1.8 8.337187,1.8 8.2791731,1.7325 8.2781624,1.65 8.2769375,1.55 8.23755,1.56 8.16,1.68 8.0655533,1.8261458 8.0433295,1.8283349 8.0418376,1.6916388 8.040598,1.5780434 7.9677269,1.6066093 7.8178175,1.7794562 7.695617,1.9203545 7.560617,2.0006171 7.5178175,1.9578174 7.4750178,1.9150178 7.44,1.9413053 7.44,2.0162339 7.44,2.0959619 7.3528981,2.1198246 7.23,2.0737661 7.0638088,2.0114827 7.0450336,2.0322234 7.14,2.1731879 7.206,2.2711558 7.1655,2.2482839 7.05,2.1223615 6.8435215,1.8972511 6.84,1.8973358 6.84,2.1274135 6.84,2.3119744 6.7642297,2.3569082 6.4813858,2.3400818 6.1942536,2.3230003 6.1493436,2.3507654 6.2560792,2.4793736 6.3783776,2.626735 6.3180708,2.6902217 6.09,2.6542105 6.0405,2.6463947 6,2.694 6,2.76 6,2.826 5.915813,2.88 5.812918,2.88 5.7100229,2.88 5.6503549,2.9205 5.6803228,2.97 5.7102905,3.0195 5.6504066,3.1381022 5.5472477,3.2335607 5.3807082,3.3876684 5.3674158,3.3775625 5.4286519,3.1433951 5.4665832,2.9983457 5.4486539,2.9099303 5.3888089,2.9469164 5.3289641,2.9839026 5.28,3.0887903 5.28,3.18 c 0,0.09121 -0.053382,0.1988275 -0.1186255,0.2391505 -0.068227,0.042167 -0.092949,-0.018553 -0.05819,-0.1429179 0.033239,-0.118928 -0.012129,-0.063951 -0.1008174,0.1221702 -0.088689,0.1861214 -0.1975033,0.3346214 -0.2418097,0.33 C 4.4716957,3.6982723 4.32,3.7354015 4.32,3.8362338 c 0,0.063929 0.090375,0.081554 0.2008331,0.039167 0.1652247,-0.063403 0.1599056,-0.035253 -0.03,0.1587663 C 4.3638749,4.1638751 4.2425273,4.228832 4.2211718,4.1785156 4.1847103,4.0926071 4.0718251,4.1641292 3.6609343,4.5334727 c -0.093905,0.08441 -0.1374275,0.2464099 -0.096716,0.36 0.040711,0.1135899 0.029886,0.1664958 -0.024058,0.1175684 C 3.4862176,4.9621138 3.3696137,4.9822258 3.2810411,5.0557345 3.084369,5.2189578 3.0654906,5.4478528 3.258541,5.328541 3.344377,5.2754915 3.3645085,5.295623 3.311459,5.381459 3.2643662,5.4576565 3.1345229,5.5242631 3.022918,5.5294736 2.890056,5.5356764 2.8735344,5.5604263 2.9750629,5.6011613 3.0814598,5.6438496 3.025337,5.7534176 2.796241,5.950274 2.6126041,6.1080684 2.4565508,6.305309 2.4494557,6.3885864 2.4423601,6.4718639 2.4275036,6.675 2.4164402,6.84 2.4006214,7.0759226 2.3723333,7.1020583 2.2839998,6.9623632 2.1999594,6.8294569 2.1515326,6.9106889 2.091685,7.2849552 2.0476906,7.5600812 1.9370638,7.813823 1.8458476,7.848826 1.7546314,7.8838289 1.68,7.9983493 1.68,8.1033158 c 0,0.1132018 0.061027,0.1599354 0.15,0.1148674 0.0825,-0.04179 0.0555,0.00148 -0.06,0.096147 -0.2664884,0.2184292 -0.2664884,0.3236238 0,0.3332761 0.160897,0.00583 0.1468675,0.032983 -0.06,0.1161331 C 1.5506705,8.8277821 1.44,8.9751278 1.44,9.1232152 1.44,9.264002 1.493983,9.3408007 1.5629732,9.2981624 1.749722,9.1827454 1.6468843,9.4917787 1.4189056,9.7310945 1.2079487,9.9525418 1.2478484,10.44 1.4769313,10.44 c 0.070917,0 0.029369,0.07281 -0.092329,0.161796 -0.1216977,0.08899 -0.1828318,0.223987 -0.1358535,0.3 0.046978,0.07601 0.035716,0.138204 -0.025026,0.138204 -0.1678118,0 -0.015183,0.610809 0.1704264,0.682034 0.1361054,0.05223 0.1356829,0.100466 -0.00261,0.297906 C 1.2226306,12.261092 1.263572,12.72 1.4539957,12.72 1.5122981,12.72 1.56,12.799306 1.56,12.896234 c 0,0.09693 -0.0675,0.150378 -0.15,0.118776 -0.092823,-0.03556 -0.1564921,0.05569 -0.1670318,0.239369 -0.01495,0.260544 0.00443,0.275362 0.1585713,0.121224 0.2246046,-0.224604 0.2236699,-0.224955 0.247612,0.09288 0.015895,0.211008 -0.00393,0.230276 -0.092626,0.09 -0.068035,-0.107607 -0.1135801,-0.121732 -0.1146879,-0.03557 -0.00101,0.0786 0.055844,0.178567 0.1263433,0.222138 0.070499,0.04357 0.098118,0.157563 0.061375,0.253315 -0.037307,0.09722 -0.014425,0.141721 0.051819,0.100779 C 1.7466185,14.058828 1.8,14.051606 1.8,14.083104 c 0,0.0315 0.032094,0.156184 0.07132,0.277081 C 1.932169,14.547728 1.9216982,14.553574 1.8,14.4 1.6809858,14.249814 1.672046,14.259751 1.7460264,14.46 c 0.048766,0.132 0.092432,0.3345 0.097034,0.45 0.00779,0.195442 0.1162355,0.262864 0.3558592,0.221237 0.054406,-0.0094 0.061536,0.0433 0.015846,0.117233 -0.04569,0.07393 -0.027601,0.250766 0.040199,0.392972 0.0678,0.142207 0.1547877,0.35648 0.1933063,0.476164 0.038519,0.119683 0.1183182,0.187765 0.1773326,0.151291 0.059014,-0.03647 0.104889,6e-4 0.1019435,0.08239 -0.00295,0.08179 0.00398,0.256709 0.015386,0.388709 0.017615,0.203818 0.040125,0.212863 0.1493136,0.06 0.1032948,-0.144612 0.1169382,-0.126918 0.069397,0.09 -0.032546,0.1485 -0.016782,0.27 0.035032,0.27 0.051814,0 0.1613099,0.162 0.2433241,0.36 0.082014,0.198 0.1965656,0.36 0.2545584,0.36 0.2320252,0 0.2840246,-0.02902 0.2524684,-0.14092 -0.018135,-0.06431 0.023246,-0.08217 0.091957,-0.03971 0.068712,0.04247 0.093863,0.12748 0.055891,0.18892 C 3.8569037,17.949731 3.8830229,18 3.952918,18 4.022813,18 4.08,18.114612 4.08,18.254693 c 0,0.21449 0.028847,0.230753 0.182747,0.103027 0.1544846,-0.12821 0.1698892,-0.118159 0.099607,0.06499 C 4.3002914,18.584446 4.3199753,18.614179 4.44,18.54 4.5574979,18.467382 4.5801556,18.494389 4.5241589,18.640315 4.481543,18.751369 4.5056444,18.84 4.5784596,18.84 c 0.081127,0 0.068284,0.07644 -0.033766,0.200958 -0.1423706,0.173719 -0.1196879,0.171667 0.1673503,-0.01514 0.3181998,-0.207089 0.3286067,-0.207142 0.2496073,-0.0013 -0.053606,0.139695 -0.036922,0.186696 0.047707,0.134391 0.071579,-0.04424 0.1529741,-0.0126 0.1808781,0.07031 0.038921,0.115646 0.1041789,0.108833 0.2802493,-0.02925 0.2086452,-0.163633 0.2155968,-0.162179 0.076452,0.01599 -0.1267426,0.162285 -0.120276,0.208568 0.037606,0.269152 0.1048677,0.04024 0.1574413,0.12693 0.1168302,0.19264 -0.042626,0.06897 0.00488,0.08926 0.1123941,0.04801 0.1844424,-0.07078 0.2694837,0.127655 0.096233,0.224545 -0.0495,0.02768 -0.025989,0.03522 0.052247,0.01674 0.078236,-0.01848 0.1722375,0.03087 0.2088923,0.109668 0.036655,0.07879 0.034358,0.015 -0.0051,-0.14177 -0.048271,-0.191761 -0.028276,-0.258159 0.061108,-0.202917 C 6.3002148,19.777214 6.36,19.890282 6.36,19.983316 c 0,0.101056 0.072463,0.141345 0.18,0.10008 0.099,-0.03799 0.18,-0.0061 0.18,0.07085 0,0.07696 0.050269,0.108853 0.1117082,0.07088 0.06144,-0.03797 0.147685,-0.01082 0.1916567,0.06032 0.043972,0.07115 0.2155722,0.180924 0.3813347,0.243947 0.2652728,0.100857 0.2818496,0.139511 0.1383432,0.322597 -0.1408628,0.179715 -0.138556,0.191429 0.016957,0.08612 C 7.8168804,20.764153 8.1492003,20.79256 8.296345,21.00105 8.4058043,21.156146 8.4146576,21.154674 8.362761,20.99 8.329015,20.88292 8.371451,20.799999 8.46,20.799999 c 0.086415,0 0.1315853,0.06654 0.1003783,0.147863 -0.031207,0.08132 9.36e-4,0.18351 0.071441,0.227082 0.0705,0.04357 0.1281809,0.02204 0.1281809,-0.04786 0,-0.17552 0.3990017,-0.159838 0.5831095,0.02292 0.12121,0.12032 0.1361908,0.102512 0.075712,-0.09 -0.062195,-0.197974 -0.046832,-0.192517 0.087732,0.03116 0.1054935,0.175354 0.2042943,0.229994 0.2796379,0.154651 0.075343,-0.07534 0.2220254,-0.06264 0.4151584,0.03597 C 10.553863,21.461764 10.8,21.4826 10.8,21.332465 Z M 9.7357027,18.53508 C 7.5812357,18.067597 5.5177526,16.42782 4.6076521,14.46 3.9170639,12.96681 3.7257296,11.00616 4.1216682,9.48 5.0766296,5.7990667 8.6136643,3.4064086 12.310108,3.9408588 14.569015,4.267463 16.355276,5.4120406 17.583695,7.32 18.413214,8.6083966 18.66,9.5163842 18.66,11.28 c 0,1.267861 -0.04442,1.629997 -0.287056,2.34 -0.502942,1.471744 -1.656211,2.982102 -2.946564,3.858919 C 13.862918,18.54132 11.653912,18.9513 9.7357027,18.53508 Z M 13.193726,18.043046 C 15.51272,17.391946 17.23124,15.7088 18.077294,13.26 c 0.288653,-0.83547 0.288653,-3.12453 0,-3.96 C 17.224015,6.8302892 15.552637,5.2039876 13.133726,4.489758 12.054996,4.1712425 10.384024,4.214314 9.2201648,4.5906352 7.0673494,5.2867248 5.4136992,6.9359533 4.5919987,9.2064258 c -0.2927873,0.8090122 -0.2927873,3.3381362 0,4.1471492 0.5830866,1.611149 1.5452454,2.880355 2.8320468,3.735818 1.7629521,1.172009 3.7954525,1.507955 5.7696805,0.953653 z"
     id="path1005" /><path
     style="fill:#f3ebe5;stroke-width:0.12"
     d="M 10.204687,21.283444 C 10.0052,21.181567 9.8624544,21.171569 9.7647788,21.252632 c -0.1032777,0.08571 -0.1677546,0.04704 -0.2256438,-0.135357 -0.09617,-0.303006 0.030324,-0.480856 0.1752365,-0.246382 0.079623,0.128832 0.1137933,0.115239 0.1595551,-0.06348 0.043758,-0.170887 0.061693,-0.179129 0.072153,-0.03316 0.010249,0.143032 0.1088534,0.183205 0.3739204,0.152343 0.356514,-0.04151 0.499067,0.117282 0.21,0.233923 -0.117487,0.04741 -0.116671,0.06258 0.0038,0.07 0.08457,0.0052 0.180331,-0.05975 0.2128,-0.144366 0.04666,-0.121609 0.422398,-0.169141 0.758127,-0.09591 0.02458,0.0054 -0.0179,0.08517 -0.09441,0.177361 -0.07651,0.09219 -0.24512,0.139888 -0.374694,0.106004 -0.129608,-0.03388 -0.235623,-0.0103 -0.235623,0.0524 0,0.155695 -0.240815,0.138479 -0.595313,-0.04256 z m 1.317151,-0.01721 c 0.0042,-0.198195 0.198943,-0.354326 0.515126,-0.413041 0.270456,-0.05022 0.322728,-0.02548 0.264836,0.125388 -0.06271,0.163427 -0.04368,0.162221 0.145777,-0.0092 0.140248,-0.126921 0.277573,-0.160323 0.385336,-0.09372 0.104606,0.06465 0.27045,0.03598 0.441981,-0.07642 0.151004,-0.09894 0.330927,-0.145051 0.399828,-0.102467 0.0689,0.04259 0.125278,0.01394 0.125278,-0.06365 0,-0.08198 0.100495,-0.114798 0.23988,-0.07835 0.131935,0.0345 0.275279,0.0055 0.318541,-0.06455 0.04625,-0.07484 0.02158,-0.092 -0.05988,-0.04165 -0.0762,0.04709 -0.138541,0.02979 -0.138541,-0.03846 0,-0.07523 0.149088,-0.09427 0.378659,-0.04835 0.294188,0.05884 0.356976,0.04065 0.281459,-0.08154 -0.06175,-0.09991 -0.0502,-0.128226 0.03167,-0.07763 0.07088,0.04381 0.202421,0.0061 0.292319,-0.08381 0.259693,-0.259693 0.695506,-0.04318 0.605544,0.300837 -0.03944,0.150821 -0.09244,0.212035 -0.117774,0.136031 -0.05473,-0.164206 -0.751873,0.03835 -0.751873,0.218464 0,0.06084 -0.13188,0.08669 -0.293068,0.05747 -0.161187,-0.02923 -0.319076,0.01021 -0.350864,0.08765 -0.04045,0.09854 -0.096,0.08677 -0.185095,-0.0392 -0.0863,-0.122034 -0.12789,-0.131695 -0.129136,-0.03 -9.6e-4,0.0825 -0.08284,0.15 -0.181837,0.15 -0.099,0 -0.18,0.0507 -0.18,0.112659 0,0.148056 -0.754314,0.102302 -0.868163,-0.05266 -0.05047,-0.06869 -0.08895,-0.03502 -0.09,0.07876 -0.002,0.217127 -0.39257,0.181016 -0.714872,-0.0661 -0.127931,-0.09809 -0.15157,-0.09685 -0.09069,0.0048 0.04529,0.07558 0.0017,0.168389 -0.09697,0.206233 -0.09862,0.03785 -0.178484,0.03 -0.177473,-0.01742 z M 8.597905,21.14897 C 8.5108883,21.008174 8.7467434,20.52 8.9017836,20.52 c 0.046229,0 0.1179706,0.05488 0.1594261,0.121957 0.041456,0.06708 0.1194677,0.09471 0.1733602,0.0614 0.053892,-0.03331 0.1244556,0.07791 0.1568069,0.247142 0.041977,0.21959 0.021854,0.270733 -0.070278,0.1786 -0.1731389,-0.173138 -0.5294409,-0.164072 -0.5891286,0.01499 -0.036063,0.108187 -0.069467,0.109404 -0.1340652,0.0049 z M 8.2453386,20.96276 C 8.1761386,20.782427 7.8365496,20.770549 7.5578903,20.93872 7.4052913,21.03081 7.4031804,21.01749 7.5430423,20.84503 7.6857389,20.669066 7.6684745,20.629678 7.4046996,20.529391 7.2389371,20.466368 7.0673366,20.356592 7.0233649,20.285444 6.9793932,20.214296 6.8931478,20.187152 6.8317082,20.225125 6.7702687,20.263097 6.72,20.2312 6.72,20.154244 c 0,-0.07696 -0.076048,-0.110739 -0.1689961,-0.07507 -0.1076997,0.04133 -0.1952601,-0.0398 -0.2414065,-0.223657 -0.063529,-0.253118 -0.1098774,-0.274262 -0.3778618,-0.172374 -0.2011376,0.07647 -0.280308,0.07545 -0.2318268,-0.003 0.040493,-0.06552 -0.064421,-0.182025 -0.2331422,-0.258899 C 5.298045,19.344374 5.16,19.232957 5.16,19.173656 c 0,-0.0593 -0.054,-0.07445 -0.12,-0.03366 -0.184496,0.114025 -0.1422722,-0.05487 0.065714,-0.262858 0.2136614,-0.213661 0.2994983,-0.165954 0.3256321,0.180981 0.01016,0.134887 0.062145,0.218259 0.1155214,0.185271 0.053376,-0.03299 0.065162,-0.123746 0.026191,-0.201686 -0.038971,-0.07794 0.00599,-0.04805 0.099908,0.06643 0.09392,0.114474 0.2059248,0.172974 0.2488989,0.13 C 5.9648394,19.19516 6,19.226186 6,19.307082 c 0,0.0809 0.054381,0.113472 0.1208476,0.07239 0.066466,-0.04108 0.1531245,0.0094 0.1925742,0.112228 0.03945,0.102806 0.1284116,0.151884 0.1976934,0.109066 0.078955,-0.0488 0.089652,-0.01909 0.028661,0.07959 -0.072492,0.117294 -0.031276,0.140176 0.1616246,0.08973 0.1424116,-0.03724 0.228433,-0.01837 0.1911588,0.04194 -0.07315,0.11836 0.09174,0.202824 0.5143478,0.263474 0.1467992,0.02107 0.3087992,0.08435 0.36,0.140635 0.051201,0.05628 0.025592,0.06349 -0.056908,0.01601 -0.0825,-0.04748 -0.15,-0.02914 -0.15,0.04076 0,0.06989 0.086777,0.127082 0.1928387,0.127082 0.1249793,0 0.1676906,0.06553 0.1213745,0.186233 -0.044133,0.115008 -0.022098,0.155723 0.057615,0.106457 0.070994,-0.04388 0.1026758,-0.180744 0.070404,-0.304151 -0.047558,-0.181861 -0.019247,-0.203274 0.1494152,-0.113009 0.3835618,0.205277 0.4821241,0.406529 0.3126219,0.638336 -0.1223199,0.167283 -0.1694612,0.177812 -0.2189314,0.04889 z m 7.6089954,-0.845488 c -0.0743,-0.08952 -0.06033,-0.212024 0.03979,-0.348942 0.127784,-0.174758 0.177421,-0.183107 0.289037,-0.04862 0.07411,0.0893 0.09472,0.206561 0.0458,0.26057 -0.04893,0.05401 -0.02146,0.05935 0.06104,0.01188 0.0825,-0.04748 0.15,-0.03543 0.15,0.02676 0,0.175841 -0.457582,0.252682 -0.585666,0.09835 z m 0.554732,-0.315844 C 16.177729,19.531247 16.134648,19.385447 16.32,19.5 c 0.066,0.04079 0.12,0.0112 0.12,-0.06576 0,-0.07696 0.07653,-0.110554 0.170069,-0.07466 0.207639,0.07968 0.354383,-0.237127 0.153189,-0.330723 -0.07879,-0.03665 -0.02159,-0.03645 0.12711,4.8e-4 0.284196,0.07053 0.682898,-0.208954 0.533918,-0.374265 -0.04636,-0.05144 -0.0191,-0.05611 0.06058,-0.01038 0.07967,0.04573 0.133674,0.237968 0.12,0.427192 -0.02156,0.29833 -0.05519,0.327846 -0.253059,0.222133 -0.183524,-0.09805 -0.214514,-0.08626 -0.158304,0.06022 0.04515,0.117654 -0.01641,0.204705 -0.173877,0.245884 -0.154275,0.04034 -0.210503,0.117575 -0.153156,0.210365 0.05534,0.08954 0.04067,0.115752 -0.03768,0.06733 -0.07056,-0.04361 -0.146823,-0.02369 -0.169474,0.04426 -0.02265,0.06795 -0.135263,0.01367 -0.25025,-0.120625 z M 4.5446934,19.044412 C 4.6470294,18.917396 4.6598142,18.84 4.5784596,18.84 c -0.072815,0 -0.096917,-0.08863 -0.054301,-0.199685 0.051523,-0.134267 0.030632,-0.17126 -0.063766,-0.112919 -0.1768992,0.10933 -0.1842515,-0.07554 -0.00994,-0.249852 0.093941,-0.09394 0.093941,-0.153024 0,-0.211082 C 4.3786613,18.022091 4.32,18.066775 4.32,18.165836 c 0,0.099 -0.062506,0.218631 -0.1389029,0.265846 -0.09517,0.05882 -0.1175977,0.0044 -0.071234,-0.172918 C 4.1564324,18.080682 4.1227024,18 4.0016836,18 3.9049676,18 3.8569037,17.94973 3.8948754,17.888292 c 0.037972,-0.06144 0.012821,-0.146454 -0.055891,-0.18892 -0.068712,-0.04247 -0.1100927,-0.0327 -0.091957,0.02171 C 3.7804001,17.8212 3.6869875,17.88 3.4945584,17.88 3.4365656,17.88 3.3220142,17.718 3.24,17.52 3.1579858,17.322 3.0484898,17.16 2.9966759,17.16 c -0.051814,0 -0.066123,-0.107393 -0.031799,-0.23865 0.034325,-0.131258 0.1102692,-0.209071 0.1687656,-0.172919 C 3.1921393,16.784585 3.24,16.756975 3.24,16.687082 3.24,16.487437 3.024484,16.538438 2.8896119,16.77 2.776718,16.963826 2.7655612,16.961516 2.7447449,16.74 c -0.012404,-0.132 -0.020143,-0.306919 -0.017198,-0.388709 0.00295,-0.08179 -0.042929,-0.118867 -0.1019435,-0.08239 -0.059014,0.03647 -0.138814,-0.03161 -0.1773326,-0.151291 -0.038519,-0.119684 -0.1255064,-0.333957 -0.1933063,-0.476164 -0.0678,-0.142206 -0.085889,-0.319044 -0.040199,-0.392972 0.04569,-0.07393 0.03856,-0.126683 -0.015846,-0.117233 C 1.9158173,15.180416 1.8516764,15.084077 1.8918382,14.67 1.9248289,14.329859 1.904747,14.263944 1.8095796,14.4 1.7403322,14.499 1.6828482,14.519112 1.6818376,14.444693 1.6808269,14.370275 1.761,14.242163 1.86,14.16 2.0050565,14.039614 2.0419414,14.042585 2.05,14.17531 2.078461,14.644051 2.129224,14.888744 2.2148488,14.969944 2.26708,15.019474 2.2724674,14.9385 2.2268212,14.79 2.1766556,14.6268 2.1944922,14.52 2.2719134,14.52 2.3423611,14.52 2.4,14.703223 2.4,14.927161 c 0,0.264025 0.068096,0.433293 0.193704,0.481493 0.1310629,0.05029 0.1752505,0.170864 0.1366405,0.372839 -0.033814,0.176885 -0.0013,0.298507 0.079805,0.298507 0.075277,0 0.2162892,0.114617 0.3133593,0.254704 0.09707,0.140086 0.247434,0.328672 0.3341421,0.419079 0.086708,0.09041 0.124021,0.21879 0.082918,0.285297 -0.041103,0.06651 -0.00855,0.12092 0.072349,0.12092 0.080895,0 0.111402,0.03568 0.067793,0.07929 -0.043609,0.04361 0.041891,0.142524 0.1899999,0.21981 0.1481089,0.07729 0.2535807,0.210231 0.2343816,0.295433 -0.020528,0.0911 0.035503,0.127892 0.1360207,0.08932 0.108594,-0.04167 0.2501782,0.08157 0.3882428,0.337938 0.1195232,0.221942 0.251814,0.382208 0.2939793,0.356148 C 4.965501,18.511879 5,18.55766 5,18.639677 5,18.721697 4.8605,18.892302 4.69,19.01881 4.4429759,19.202096 4.4134571,19.207298 4.5446934,19.04441 Z M 17.724702,18.83798 c -0.04168,-0.159363 1.2e-4,-0.339982 0.102427,-0.442251 C 17.922208,18.300649 18,18.259697 18,18.304723 c 0,0.04503 0.0945,-0.03044 0.21,-0.167697 0.188851,-0.22443 0.233459,-0.231812 0.442936,-0.07329 0.235258,0.178026 0.135908,0.240386 -0.286482,0.179819 -0.145152,-0.02081 -0.147657,0.0063 -0.01531,0.165781 0.113986,0.137345 0.11859,0.190668 0.01647,0.190668 -0.07798,0 -0.102731,0.06318 -0.05501,0.140393 0.05806,0.09394 0.02175,0.115443 -0.109745,0.06498 -0.117036,-0.04491 -0.239219,9.6e-4 -0.302112,0.113289 -0.08884,0.158745 -0.116782,0.145939 -0.176045,-0.08068 z m 0.958838,-1.011583 c -0.113161,-0.11316 -0.17186,-0.260574 -0.130444,-0.327587 0.100216,-0.162152 0.451068,0.188699 0.385476,0.385475 -0.0353,0.105889 -0.107686,0.08946 -0.255032,-0.05789 z M 19.32,17.531234 c 0,-0.05982 -0.108,-0.08052 -0.24,-0.046 -0.191622,0.05011 -0.238091,0.0055 -0.230526,-0.221234 0.0052,-0.156198 0.03671,-0.216496 0.07,-0.133996 0.03329,0.0825 0.113212,0.15 0.177608,0.15 0.0644,0 0.08225,-0.05636 0.03967,-0.125256 -0.04258,-0.06889 -0.01215,-0.203892 0.06761,-0.3 0.09962,-0.120031 0.103516,-0.174744 0.01245,-0.174744 -0.07291,0 0.05547,-0.193636 0.285307,-0.430302 0.229834,-0.236666 0.41788,-0.500888 0.41788,-0.587161 0,-0.08627 0.0866,-0.190092 0.19245,-0.23071 0.10988,-0.04216 0.162982,-0.150644 0.123767,-0.252839 -0.09247,-0.240963 0.03865,-0.556321 0.191925,-0.461595 0.06903,0.04267 0.09695,0.0029 0.06364,-0.09069 -0.03264,-0.09169 -0.0016,-0.274704 0.06888,-0.406704 0.164209,-0.307324 0.171527,-0.572816 0.01933,-0.70132 -0.06979,-0.05892 -0.03213,-0.07305 0.09,-0.03377 0.236087,0.07595 0.276665,-0.05025 0.07954,-0.24737 -0.09394,-0.09394 -0.09394,-0.153024 0,-0.211082 0.07175,-0.04434 0.130456,-0.179228 0.130456,-0.299743 0,-0.120514 0.1331,-0.306327 0.295778,-0.412918 0.40234,-0.263623 0.506547,-0.243666 0.24378,0.04669 -0.181854,0.200947 -0.194628,0.290989 -0.07769,0.547645 0.08108,0.177941 0.08909,0.275721 0.01904,0.232431 -0.0665,-0.0411 -0.120911,-0.01924 -0.120911,0.04859 0,0.06782 -0.0945,0.0879 -0.21,0.04461 -0.190289,-0.07131 -0.193105,-0.05787 -0.03,0.143281 0.142792,0.176096 0.147678,0.232856 0.02364,0.274587 -0.115718,0.03893 -0.100123,0.09856 0.06,0.229385 0.118998,0.09723 0.15138,0.144145 0.07196,0.104259 -0.173929,-0.08735 -0.451076,0.825758 -0.317936,1.04749 0.04862,0.08098 -0.01307,0.06623 -0.137096,-0.03277 -0.20334,-0.16231 -0.218144,-0.160337 -0.150612,0.02007 0.04371,0.116761 0.0064,0.226368 -0.0897,0.263228 -0.09416,0.03613 -0.16006,0.222486 -0.154003,0.43551 0.0058,0.204795 -0.05963,0.437341 -0.145438,0.516773 -0.123554,0.114365 -0.136016,0.109344 -0.05988,-0.02412 0.06702,-0.117485 0.05101,-0.140646 -0.05285,-0.07646 -0.08195,0.05065 -0.122346,0.19399 -0.08978,0.318541 0.03731,0.142667 -0.0032,0.226457 -0.109545,0.226457 -0.09282,0 -0.168766,0.08678 -0.168766,0.192839 0,0.117236 -0.06677,0.167216 -0.170315,0.127483 -0.128609,-0.04935 -0.15939,0.02097 -0.125701,0.287161 0.02454,0.193884 0.02018,0.352517 -0.0097,0.352517 -0.02987,0 -0.0543,-0.04894 -0.0543,-0.108766 z M 9.7102574,17.068145 C 8.3992184,16.712396 7.0074715,15.732828 6.3099482,14.674866 6.1450051,14.42469 5.8643011,13.842 5.6861616,13.38 5.408206,12.65913 5.3622715,12.361306 5.3622715,11.28 c 0,-1.081305 0.045934,-1.3791298 0.3238901,-2.1 C 6.233242,7.7611616 6.7975598,7.0649186 8.077577,6.2295238 9.151847,5.5284084 9.8200762,5.3435347 11.28,5.3435347 c 1.422396,0 2.152742,0.1900409 3.24,0.8430695 C 15.465893,6.7547264 16.213812,7.5970236 16.751773,8.7 L 17.22,9.66 v 1.62 1.62 l -0.468482,0.96 c -1.02848,2.107525 -2.78377,3.251034 -5.171518,3.369056 -0.798733,0.03948 -1.285674,-0.0024 -1.8697426,-0.160911 z M 1.6177736,14.043602 c 0.045588,-0.07376 0.017627,-0.21275 -0.062136,-0.308858 C 1.4420732,13.597907 1.4430196,13.520953 1.56,13.38 1.751942,13.148724 1.631754,13.145389 1.4015395,13.3756 1.2474018,13.529738 1.2280182,13.51492 1.2429682,13.254376 1.2535082,13.070693 1.3171762,12.979451 1.41,13.015007 c 0.0825,0.0316 0.15,-0.01735 0.15,-0.108776 0,-0.09143 -0.06075,-0.186484 -0.135,-0.211234 C 1.35075,12.670255 1.29,12.503755 1.29,12.325004 1.29,12.14625 1.24275,12 1.185,12 1.12725,12 1.08,11.939388 1.08,11.865307 c 0,-0.09137 0.048245,-0.09633 0.15,-0.01541 0.0825,0.06561 0.234225,0.105503 0.3371666,0.08866 0.1423762,-0.02329 0.1750647,0.05184 0.1365963,0.313939 -0.027814,0.189506 -0.00902,0.439721 0.04176,0.556031 0.115852,0.265346 0.071239,0.546187 -0.1040412,0.654948 -0.073992,0.04591 -0.1020233,0.115982 -0.062292,0.155714 0.039731,0.03973 0.1529175,-0.0084 0.2515246,-0.107047 C 1.9897619,13.353095 2.01,13.363795 2.01,13.606931 c 0,0.15074 -0.1069007,0.340833 -0.2375572,0.42243 -0.1526547,0.09534 -0.2079332,0.100424 -0.1546692,0.01424 z M 20.936752,12.114744 c -0.04258,-0.06889 -0.0087,-0.208007 0.0752,-0.309146 0.12363,-0.148965 0.123159,-0.202094 -0.0025,-0.279744 -0.111,-0.0686 -0.116779,-0.119535 -0.02033,-0.179146 0.07412,-0.04581 0.0939,-0.14706 0.04396,-0.225 C 20.983153,11.043769 20.934797,10.683 20.925642,10.32 20.916486,9.957 20.871121,9.545947 20.82483,9.4065487 20.765828,9.2288753 20.79852,9.1308959 20.934173,9.0788407 21.134999,9.001777 21.240088,9.1830038 21.410341,9.9 c 0.08024,0.3379 0.07465,0.345407 -0.09109,0.122282 -0.168396,-0.2267124 -0.173671,-0.2225456 -0.113924,0.09 0.03446,0.180245 0.110352,0.327718 0.168659,0.327718 0.05831,0 0.10601,0.138187 0.10601,0.307082 0,0.203901 -0.04717,0.277928 -0.140393,0.220315 -0.09497,-0.05869 -0.11438,-0.02216 -0.06,0.112918 0.04422,0.109827 0.112487,0.294185 0.151713,0.409685 0.06005,0.176812 0.05086,0.181553 -0.05816,0.03 -0.07122,-0.099 -0.13031,-0.1233 -0.131321,-0.054 -9.6e-4,0.0693 0.06296,0.1908 0.142163,0.27 0.112,0.112 0.0995,0.144 -0.05623,0.144 -0.128685,0 -0.175552,0.06432 -0.131162,0.18 0.07775,0.202597 -0.140109,0.248492 -0.259852,0.05474 z M 1.2600631,11.589979 C 1.2270284,11.485491 1.1746948,11.319 1.1437662,11.22 c -0.030929,-0.099 -7.417e-4,-0.18 0.067082,-0.18 0.067824,0 0.084879,-0.06219 0.037901,-0.138204 -0.046978,-0.07601 0.014156,-0.211013 0.1358535,-0.3 C 1.5063002,10.512808 1.5478482,10.44 1.4769313,10.44 1.2764662,10.44 1.2085742,9.9941452 1.3744883,9.7672441 1.4706136,9.6357851 1.5833556,9.5984954 1.6917955,9.6622943 1.784308,9.7167224 1.7607667,9.6479902 1.6394816,9.5095558 1.3467769,9.1754636 1.4240417,8.8292422 1.8012259,8.7847836 c 0.1899304,-0.022387 0.2451258,0.00144 0.1515103,0.065391 -0.091294,0.06237 -0.1326423,0.3128143 -0.1087927,0.6589522 0.024607,0.3571255 -0.00881,0.5497912 -0.092736,0.5346092 C 1.6790432,10.030681 1.6387897,10.101 1.6617551,10.2 c 0.1238982,0.534107 0.1317965,0.72 0.030592,0.72 -0.061791,0 -0.1349112,-0.0675 -0.1624896,-0.15 -0.027578,-0.0825 -0.077648,-0.0064 -0.1112652,0.169045 -0.045053,0.235166 -0.018388,0.302645 0.1014243,0.256669 0.1139899,-0.04374 0.1499187,0.02037 0.1202742,0.214619 -0.05055,0.331236 -0.2956845,0.447055 -0.3802277,0.179646 z M 20.669347,8.7854525 C 20.4931,8.6325943 20.452796,8.5158232 20.529178,8.3793376 20.603285,8.2469166 20.564057,8.0958193 20.402123,7.8899544 20.273279,7.7261558 20.194397,7.5656027 20.22683,7.5331694 20.259264,7.5007363 20.203495,7.4058931 20.1029,7.3224067 20.002304,7.2389203 19.92,7.0724122 19.92,6.9523886 19.92,6.8323651 19.865119,6.7002458 19.798043,6.6587903 19.730966,6.6173346 19.701073,6.542984 19.731616,6.4935667 19.762157,6.4441495 19.682038,6.3279598 19.553573,6.2353675 19.425108,6.1427752 19.32,6.0282715 19.32,5.9809151 19.32,5.9335586 19.154932,5.7159796 18.95318,5.4974062 18.751429,5.2788328 18.555455,4.9503763 18.517681,4.7675029 18.479908,4.5846294 18.402594,4.4063248 18.345875,4.3712704 c -0.05672,-0.035055 -0.06626,0.033569 -0.02121,0.152497 0.07802,0.2059691 0.07185,0.2062649 -0.129946,0.00623 -0.116521,-0.1155 -0.260305,-0.21 -0.319519,-0.21 -0.05922,0 -0.07325,-0.08968 -0.03119,-0.1992888 C 17.90367,3.9652305 17.86662,3.935506 17.675456,3.9854961 17.480751,4.0364131 17.442597,4.0030401 17.489678,3.8230015 17.534338,3.6522196 17.501038,3.6148048 17.354465,3.6710527 17.243698,3.7135594 17.16,3.6854543 17.16,3.6057566 17.16,3.5288003 17.106,3.4992097 17.04,3.54 16.974,3.58079 16.92,3.55379 16.92,3.48 16.92,3.40621 16.866,3.3792097 16.8,3.42 16.734,3.46079 16.68,3.41167 16.68,3.3108482 c 0,-0.1194606 -0.07315,-0.1605715 -0.21,-0.1180214 -0.2,0.062185 -0.2,0.058865 0,-0.069729 0.1155,-0.074263 0.209173,-0.1998402 0.208163,-0.2790606 -0.0012,-0.090337 -0.03471,-0.099298 -0.09,-0.024037 -0.0961,0.1308031 -0.647135,0.1877795 -0.567336,0.058662 C 16.090488,2.765948 15.246343,2.3819158 15.111758,2.4650934 15.050291,2.5030823 15,2.4467903 15,2.34 15,2.2332097 14.946095,2.1791512 14.88021,2.2198699 c -0.160744,0.099345 -0.622654,-0.233117 -0.509447,-0.3666771 0.04908,-0.057904 0.0011,-0.038183 -0.106749,0.043826 C 14.10424,2.0185752 14.055048,2.0123011 13.99778,1.8630628 13.959144,1.7623783 13.858338,1.6808269 13.773766,1.6818376 13.666247,1.6831224 13.674137,1.7186612 13.8,1.8 13.899,1.8639787 13.953,1.9216518 13.92,1.9281625 13.390976,2.0325347 13.305054,1.99522 13.372849,1.6905444 L 13.441951,1.38 13.265228,1.68 c -0.145867,0.2476187 -0.177466,0.2610914 -0.180975,0.077161 -0.0029,-0.1513331 -0.06401,-0.1999068 -0.190486,-0.1513745 -0.10751,0.041256 -0.155021,0.020962 -0.112394,-0.048009 0.04061,-0.06571 -0.01027,-0.1517501 -0.113077,-0.1911998 -0.102806,-0.03945 -0.153478,-0.1258334 -0.112607,-0.1919639 0.04626,-0.074851 0.110323,-0.061968 0.169715,0.034129 C 12.844745,1.4018419 13.2,1.4632522 13.2,1.2907835 c 0,-0.070389 0.106224,-0.031849 0.236054,0.085646 0.137672,0.1245906 0.337726,0.1870382 0.48,0.1498328 0.13417,-0.035086 0.243946,-0.011662 0.243946,0.052054 0,0.063716 0.04965,0.085164 0.110326,0.047663 0.06068,-0.037502 0.195679,0.017168 0.3,0.1214893 0.10432,0.104321 0.189674,0.1365954 0.189674,0.071721 0,-0.1699228 0.360574,-0.092426 0.481678,0.103526 0.05637,0.091204 0.07586,0.2089039 0.04332,0.2615551 -0.09323,0.150849 0.129872,0.1116221 0.308662,-0.05427 0.13216,-0.1226279 0.14774,-0.1105416 0.08537,0.066233 -0.04564,0.1293649 -0.0283,0.1865763 0.04316,0.1424118 0.06569,-0.040601 0.27035,0.033634 0.45479,0.1649668 0.310776,0.2212918 0.345637,0.2240458 0.475808,0.037588 0.129509,-0.1855105 0.135045,-0.1848243 0.071,0.0088 -0.03821,0.1155 -0.0097,0.21675 0.06337,0.225 0.07306,0.00825 0.195839,0.02175 0.272839,0.03 0.077,0.00825 0.162111,0.096 0.189136,0.195 0.04368,0.16 0.03499,0.16 -0.07816,0 -0.07001,-0.099 -0.128125,-0.1245009 -0.129136,-0.056669 C 17.039637,3.0909716 17.47612,3.4838805 17.55486,3.40514 17.63509,3.324908 18.6,4.276497 18.6,4.4358524 c 0,0.074068 0.0675,0.1259033 0.15,0.1151902 0.420432,-0.054595 0.475418,0.019016 0.198361,0.2655523 L 18.66,5.0731898 18.99,4.9943087 c 0.227728,-0.054435 0.33057,-0.031685 0.331837,0.073405 0.0013,0.1059623 0.04017,0.097532 0.127861,-0.027714 0.100506,-0.1435531 0.111732,-0.1287528 0.05544,0.073095 -0.03882,0.139202 -0.03605,0.3430803 0.0062,0.4530627 0.06346,0.165376 0.108847,0.1734902 0.262366,0.046905 0.163638,-0.1349267 0.168586,-0.1210711 0.04176,0.1169372 -0.119402,0.2240832 -0.11318,0.27 0.03659,0.27 0.119011,0 0.154364,0.067993 0.10383,0.1996854 -0.05152,0.1342663 -0.03063,0.1712595 0.06377,0.112918 0.07972,-0.04927 0.141187,-0.018883 0.14223,0.070315 0.0014,0.1156725 0.03597,0.1096309 0.13132,-0.022918 0.106856,-0.148545 0.116657,-0.1406447 0.05609,0.04521 -0.04036,0.1238654 -0.005,0.3076649 0.07868,0.4084434 0.08364,0.1007784 0.137602,0.2021769 0.11992,0.22533 -0.08468,0.1108727 0.13277,0.6300767 0.236923,0.5657063 0.0655,-0.040509 0.05435,0.047381 -0.02482,0.1953103 -0.09528,0.1780284 -0.09933,0.2413866 -0.01198,0.1873992 0.07623,-0.047112 0.137752,0.010129 0.145655,0.1355188 0.0075,0.119395 0.03129,0.365582 0.05281,0.547082 0.04626,0.3901537 0.04175,0.3920316 -0.277146,0.1154525 z M 1.56,8.5071613 C 1.56,8.4341 1.632,8.4019517 1.72,8.4357204 1.808,8.4694892 1.88,8.423642 1.88,8.3338378 1.88,8.2440335 1.835,8.1983688 1.78,8.2323607 1.725,8.2663525 1.68,8.2082824 1.68,8.1033158 1.68,7.9983493 1.7546314,7.8838289 1.8458476,7.848826 1.9370638,7.813823 2.0476906,7.5600812 2.091685,7.2849552 2.1515326,6.9106889 2.1999594,6.8294569 2.2839998,6.9623632 2.3779062,7.1108717 2.3966262,7.1044036 2.3981624,6.922918 2.3991704,6.8035229 2.4538368,6.7391089 2.5196372,6.7797758 2.5983204,6.8284046 2.6004504,6.7516006 2.5258592,6.5554115 2.4290322,6.3007372 2.4631342,6.2167512 2.7590208,5.9811852 3.0060184,5.7845414 3.0645682,5.675657 2.9627986,5.6022218 2.871283,5.5361858 2.909782,5.518554 3.0699997,5.5531259 c 0.1542262,0.033279 0.2500001,-0.00668 0.2500001,-0.1043117 0,-0.087041 -0.045,-0.1304454 -0.1000001,-0.096453 -0.165036,0.1019979 -0.1126733,-0.152456 0.061041,-0.2966262 0.088573,-0.073509 0.2051765,-0.093621 0.2591196,-0.044693 0.053943,0.048927 0.064769,-0.00398 0.024058,-0.1175684 -0.06939,-0.1936079 -0.011748,-0.2788935 0.4516173,-0.6682039 0.1503349,-0.1263082 0.184502,-0.1263082 0.186002,0 0.00138,0.1158811 0.028718,0.1122688 0.1088976,-0.014387 0.058883,-0.093015 0.079279,-0.2415149 0.045324,-0.33 C 4.3202263,3.7875037 4.3752349,3.72 4.4871613,3.72 4.8224567,3.72 4.8566675,3.6975232 5.0118096,3.3753008 5.095305,3.2018854 5.1367153,3.1565441 5.1038327,3.2745425 5.0694978,3.3977522 5.1198126,3.5181593 5.2220231,3.5573812 5.3199103,3.594944 5.4,3.6829 5.4,3.7528386 5.4,3.8227776 5.364344,3.8443436 5.320763,3.8007636 5.277183,3.7571836 5.16358,3.8328106 5.0683124,3.9688245 4.9730452,4.104838 4.8224518,4.1882446 4.7336608,4.1541722 4.6231988,4.111784 4.5952759,4.1566034 4.6452308,4.2961114 4.6853854,4.40825 4.6746174,4.4604822 4.6213021,4.4121826 4.5679867,4.3638829 4.424383,4.4396455 4.3021825,4.5805438 4.1188645,4.7919112 4.08,4.8020248 4.08,4.6383612 4.08,4.5292625 4.0202226,4.44 3.9471613,4.44 3.8741,4.44 3.84435,4.51825 3.8810501,4.6138886 3.9275816,4.7351479 3.8860685,4.7689588 3.7438886,4.7256004 3.63175,4.6914029 3.675,4.7462395 3.84,4.8474594 4.072706,4.9902138 4.0928942,5.0324494 3.93,5.0357478 3.8145,5.0380866 3.72,5.097187 3.72,5.167082 3.72,5.2369771 3.774,5.2607903 3.84,5.22 3.906,5.1792097 3.96,5.2030229 3.96,5.272918 3.96,5.342813 3.9010174,5.4 3.8289275,5.4 3.6415579,5.4 3.0656476,5.872829 3.0498497,6.0396319 3.0117515,6.4418951 2.9896476,6.4877659 2.8696454,6.4136005 2.7875726,6.3628768 2.7497347,6.4380349 2.7674878,6.6165185 2.8106764,7.050722 2.6575864,7.3021302 2.39225,7.2327432 2.2645126,7.1993392 2.16,7.2323065 2.16,7.3060043 2.16,7.3797019 2.241,7.44 2.34,7.44 c 0.099,0 0.18,0.052305 0.18,0.1162338 0,0.063929 -0.089858,0.081752 -0.1996854,0.039607 C 2.1931511,7.547044 2.1498812,7.5665454 2.2011731,7.6495374 2.2454722,7.721215 2.2286672,7.9193916 2.1638286,8.0899301 2.0768629,8.3186671 2.0845069,8.400482 2.1929701,8.4018376 2.4258116,8.4047476 2.0118371,8.6360464 1.77,8.6381624 1.6545,8.6391731 1.56,8.5802226 1.56,8.5071613 Z M 5.3251073,3.5080493 C 5.2385794,3.4515695 5.2264367,3.3231932 5.2912404,3.15 5.4209076,2.8034536 5.518748,2.7988672 5.4286086,3.1435608 c -0.061196,0.2340154 -0.047897,0.2441045 0.1186391,0.09 C 5.6504066,3.1381022 5.7102905,3.0195 5.6803228,2.97 5.6503549,2.9205 5.7100229,2.88 5.812918,2.88 5.915813,2.88 6,2.826 6,2.76 6,2.694 6.0405,2.6463947 6.09,2.6542105 6.3161274,2.6899148 6.3789043,2.6273695 6.2603358,2.4845032 6.1599379,2.363531 6.2033015,2.3304392 6.4556425,2.3354599 6.6579464,2.3394847 6.8025776,2.2668476 6.84,2.142426 6.8902752,1.9752715 6.9373597,1.9929052 7.1305018,2.2512222 7.2572778,2.4207781 7.3076142,2.5265092 7.2423604,2.4861802 7.1771066,2.445851 7.0500444,2.51507 6.96,2.64 6.8699556,2.76493 6.7521192,2.8398508 6.6981414,2.8064906 6.6441636,2.7731305 6.6,2.7967248 6.6,2.8589222 6.6,2.9211197 6.4919255,3.0002706 6.3598344,3.0348132 6.2033298,3.07574 6.1437272,3.0492642 6.1887334,2.9588089 6.2267188,2.8824641 6.1689818,2.928 6.060429,3.06 5.9518763,3.192 5.8128718,3.2865 5.7515302,3.27 5.6901886,3.2535 5.6535,3.30075 5.67,3.375 5.7078216,3.545197 5.5030432,3.6241944 5.3251073,3.5080493 Z M 7.2586156,2.2143571 C 7.0601132,2.0530121 7.0553027,2.0315077 7.23,2.0864376 c 0.1155,0.036317 0.21,0.00472 0.21,-0.070204 0,-0.074929 0.035018,-0.1012161 0.077817,-0.058417 0.0428,0.0428 0.1725594,-0.031421 0.2883551,-0.1649345 0.1534453,-0.1769239 0.227397,-0.2007378 0.2727088,-0.087817 0.049837,0.1241965 0.064051,0.1234749 0.071645,-0.00364 C 8.1578736,1.57845 8.2004027,1.5832598 8.34,1.7228572 8.5456588,1.9285159 8.5774312,2.16 8.4,2.16 8.334,2.16 8.28,2.095679 8.28,2.0170644 8.28,1.9384499 8.2068088,1.9742238 8.117353,2.096562 8.0214175,2.2277615 7.8769391,2.2891532 7.7651058,2.2462388 7.6608258,2.2062228 7.557894,2.2263179 7.5363685,2.2908946 7.5148429,2.3554712 7.3898542,2.3210293 7.2586156,2.2143571 Z M 8.5357345,1.7589589 C 8.4622258,1.6703863 8.433893,1.5661069 8.472773,1.527227 8.5887235,1.4112764 8.88,1.5726493 8.88,1.7528387 c 0,0.2120774 -0.1708159,0.2151141 -0.3442655,0.00612 z m 0.654979,0.023706 C 9.2256113,1.7261993 9.1937903,1.68 9.12,1.68 8.9385185,1.68 9.0801626,1.4697644 9.3639826,1.3178686 9.5540532,1.2161459 9.5814504,1.2287105 9.5198132,1.3893343 9.4786813,1.4965225 9.511862,1.6255277 9.593548,1.6760124 9.692057,1.7368944 9.6385567,1.7875903 9.4346656,1.8265667 9.2655941,1.8588866 9.1558157,1.839131 9.1907135,1.7826649 Z m 0.6194787,-0.00726 C 9.7221013,1.5458471 9.7125734,1.44 9.78,1.44 c 0.033,0 0.1703238,-0.091472 0.305164,-0.203272 0.233438,-0.1935497 0.241094,-0.1921148 0.160061,0.03 C 10.088168,1.6972248 9.875579,1.9458035 9.8101922,1.7754082 Z M 11.702391,1.6838695 C 11.658955,1.6135882 11.576879,1.5848468 11.52,1.62 11.46312,1.655153 11.381045,1.62641 11.337609,1.55613 11.290849,1.480472 11.201802,1.47101 11.119317,1.532934 c -0.07662,0.057523 -0.314023,0.1149429 -0.527552,0.1275987 -0.373379,0.02213 -0.382973,0.011464 -0.250738,-0.2787612 0.125264,-0.274923 0.358776,-0.42719247 0.324762,-0.2117716 -0.04107,0.2601298 0.03442,0.2909545 0.20311,0.082936 0.103894,-0.1281146 0.157013,-0.1691669 0.118043,-0.091227 -0.08367,0.1673229 0.125908,0.331664 0.222873,0.1747713 0.07668,-0.1240705 0.689036,-0.093157 0.914463,0.046165 0.09976,0.061657 0.123083,0.046348 0.06718,-0.044103 -0.119843,-0.1939108 0.03127,-0.1729507 0.237113,0.032887 0.238315,0.2383159 0.214555,0.3030967 -0.08968,0.2445064 -0.14361,-0.027657 -0.327803,0.00507 -0.409317,0.072717 -0.101623,0.084339 -0.173032,0.082836 -0.227184,-0.00478 z"
     id="path1003" /><path
     style="fill:#f9e5d9;stroke-width:0.12"
     d="M 10.681838,21.032344 C 10.680674,20.939224 10.547034,20.900168 10.32,20.926603 10.053388,20.957645 9.957812,20.918119 9.9515658,20.77426 9.9451319,20.626073 9.9186714,20.636922 9.84,20.82 9.7832777,20.952 9.733073,20.986723 9.7284342,20.897161 9.7235586,20.803021 9.6440614,20.763463 9.54,20.803396 c -0.099,0.03799 -0.18,0.0078 -0.18,-0.06716 0,-0.07493 -0.035531,-0.100703 -0.078959,-0.05728 -0.043427,0.04343 -0.1555431,0.0154 -0.2491458,-0.06228 C 8.9008812,20.507944 8.8406596,20.50949 8.7702616,20.623396 8.7007789,20.73582 8.6404964,20.725188 8.5192768,20.579128 8.4315308,20.4734 8.2620127,20.334594 8.14257,20.27067 7.973453,20.180162 7.9401769,20.19295 7.9921795,20.328467 8.0413489,20.4566 7.9931755,20.485284 7.8094788,20.437248 7.6722655,20.401367 7.56,20.321119 7.56,20.258922 c 0,-0.0622 0.0675,-0.07424 0.15,-0.02676 0.0825,0.04748 0.1081085,0.04027 0.056908,-0.01601 -0.051201,-0.05628 -0.2132008,-0.119568 -0.36,-0.140635 C 6.9843,20.014862 6.8194097,19.930398 6.8925598,19.812038 6.929834,19.751728 6.8568802,19.729435 6.73044,19.7625 6.5784386,19.802249 6.4543704,19.736333 6.3642536,19.567948 6.2892912,19.42788 6.1766677,19.344977 6.1139792,19.383721 6.0512906,19.422464 6,19.39379 6,19.32 6,19.24621 5.9516584,19.215713 5.8925742,19.252229 5.8334899,19.288745 5.7528714,19.23451 5.7134218,19.131704 5.6739721,19.0289 5.5873136,18.978398 5.5208476,19.019476 5.4543814,19.060554 5.4,19.009978 5.4,18.907082 5.4,18.686497 5.1612644,18.650022 5.1572897,18.87 5.1557993,18.9525 4.980299,18.744253 4.7672897,18.407228 4.5468584,18.05846 4.3137589,17.817731 4.22625,17.848478 4.1416874,17.87819 4.0876874,17.834352 4.10625,17.75106 4.1248124,17.667769 4.032,17.541206 3.9,17.46981 3.768,17.398415 3.6422773,17.23742 3.6206164,17.112044 3.5989554,16.98667 3.5179554,16.817786 3.4406164,16.736748 3.3632773,16.655711 3.220579,16.47479 3.1235089,16.334704 3.0264388,16.194617 2.8854271,16.08 2.8101496,16.08 2.7290462,16.08 2.6965309,15.958378 2.7303445,15.781493 2.7689545,15.579518 2.7247669,15.458947 2.593704,15.408654 2.4680962,15.360454 2.4,15.191186 2.4,14.927161 2.4,14.703223 2.3423611,14.52 2.2719134,14.52 c -0.077421,0 -0.095258,0.1068 -0.045093,0.27 0.045647,0.1485 0.040259,0.229474 -0.011972,0.179941 C 2.1298046,14.889293 2.0797571,14.650355 2.0499996,14.182918 2.0445,14.096522 1.986,14.05921 1.92,14.1 1.854,14.14079 1.8,14.116978 1.8,14.047082 1.8,13.977187 1.84725,13.92 1.905,13.92 c 0.05775,0 0.1039342,-0.1485 0.1026316,-0.33 -0.0013,-0.1815 -0.026053,-0.2625 -0.055,-0.18 C 1.8649813,13.659803 1.74,13.578371 1.74,13.271459 c 0,-0.160078 0.053426,-0.256674 0.12,-0.216965 0.066,0.03937 0.051339,-0.01322 -0.03258,-0.116863 C 1.743501,12.833989 1.656567,12.405124 1.6342333,11.984596 1.6118993,11.564068 1.5523893,11.123171 1.5019886,11.004825 1.4515876,10.886478 1.4440216,10.755978 1.4851756,10.714825 1.526329,10.673671 1.56,10.703 1.56,10.78 c 0,0.077 0.055056,0.14 0.1223468,0.14 0.110131,0 0.1050266,-0.178478 -0.020592,-0.72 -0.022965,-0.099 0.014173,-0.170357 0.082531,-0.158571 0.068357,0.01178 0.1242858,-0.079723 0.1242858,-0.2033528 0,-0.1843592 -0.03314,-0.1990023 -0.1842858,-0.081429 -0.1645512,0.1280013 -0.1651666,0.1190777 -0.00575,-0.083331 0.098197,-0.1246757 0.161832,-0.3541757 0.1414122,-0.51 C 1.7995314,9.0074927 1.8438757,8.88 1.9184941,8.88 1.9931126,8.88 2.0228414,8.8293188 1.9845582,8.7673752 1.9462748,8.7054317 2.010588,8.5990738 2.1274762,8.5310243 2.2443642,8.4629749 2.2738366,8.405656 2.1929701,8.4036491 2.0845636,8.4009587 2.0769083,8.3185477 2.1638286,8.0899301 2.2286672,7.9193916 2.2454722,7.721215 2.2011731,7.6495374 2.1498812,7.5665454 2.1931511,7.547044 2.3203146,7.5958411 2.5564532,7.686456 2.5809335,7.5536706 2.37,7.3263385 2.2478604,7.1947034 2.2571599,7.1776943 2.4200689,7.2347615 2.653064,7.31638 2.809424,7.0381321 2.7674878,6.6165185 2.7515074,6.4558566 2.7903198,6.3645746 2.8570714,6.4058293 2.9940329,6.4904762 3.1532346,6.1508568 3.0527834,5.9883234 3.0153862,5.9278133 3.0689008,5.8460279 3.1717049,5.8065782 3.2745091,5.7671286 3.3279179,5.6851721 3.2903912,5.6244527 3.2528645,5.5637332 3.2666747,5.5212317 3.3210804,5.530005 3.5121383,5.560814 3.96,5.3707939 3.96,5.2589222 3.96,5.1967248 3.906,5.1792097 3.84,5.22 3.774,5.2607903 3.72,5.2369771 3.72,5.167082 3.72,5.097187 3.7993052,5.04 3.8962338,5.04 4.0113066,5.04 4.0458748,4.9707 3.9958408,4.8403146 3.9508232,4.7229996 3.9681101,4.6708482 4.0377488,4.7138873 4.1029426,4.7541792 4.2299556,4.68493 4.32,4.56 4.4100444,4.43507 4.5370574,4.3658208 4.6022512,4.4061127 c 0.068888,0.042575 0.087423,-0.00782 0.044253,-0.1203161 -0.054671,-0.1424697 -0.023177,-0.1739635 0.1192927,-0.1192927 0.1393269,0.053465 0.1660472,0.029742 0.095348,-0.084652 -0.065569,-0.1060932 -0.051884,-0.1302925 0.041162,-0.072787 0.077954,0.048178 0.1710014,0.00377 0.2111153,-0.1007698 C 5.1528714,3.8054909 5.2334899,3.7512552 5.2925742,3.7877713 5.3516584,3.8242873 5.4,3.8014771 5.4,3.737082 5.4,3.6726869 5.3325,3.5919222 5.25,3.557605 5.1675,3.5232877 5.235,3.5052877 5.4,3.517605 5.5936566,3.5320614 5.6883118,3.4836665 5.6670268,3.3810804 5.6488915,3.2936747 5.6866822,3.2546872 5.751006,3.2944414 5.8153298,3.3341957 5.923961,3.2620801 5.9924087,3.1341846 6.0751028,2.979669 6.1979114,2.922843 6.3584294,2.9648194 6.4993603,3.0016736 6.6,2.9692177 6.6,2.8869137 6.6,2.809321 6.6441636,2.7731305 6.6981414,2.8064906 6.7521192,2.8398508 6.8699556,2.76493 6.96,2.64 7.0500444,2.51507 7.1678808,2.4401492 7.2218586,2.4735094 7.2758364,2.5068695 7.32,2.4737903 7.32,2.4 7.32,2.32621 7.374,2.2992097 7.44,2.34 7.506,2.38079 7.56,2.358672 7.56,2.290848 7.56,2.223024 7.648809,2.201611 7.757353,2.243264 7.8781816,2.28963 8.0177729,2.232746 8.117353,2.0965622 8.2068088,1.9742238 8.28,1.9384499 8.28,2.0170644 8.28,2.095679 8.334,2.16 8.4,2.16 c 0.066,0 0.12,-0.084187 0.12,-0.187082 0,-0.1028951 0.056365,-0.1522463 0.1252566,-0.1096692 0.068891,0.042577 0.2038912,0.012152 0.3,-0.067611 C 9.0415531,1.7157185 9.12,1.7036102 9.12,1.768666 c 0,0.064929 0.1343706,0.092366 0.2986014,0.060971 0.1668288,-0.031891 0.2707669,-0.1172207 0.2355275,-0.1933594 -0.034691,-0.074953 0.00249,-0.047595 0.082631,0.060795 0.1329126,0.179771 0.1657145,0.1745032 0.3736151,-0.06 0.12535,-0.1413904 0.193777,-0.1898457 0.152059,-0.1076783 -0.05764,0.1135325 0.09851,0.1377447 0.650489,0.1008626 0.399487,-0.026693 0.757237,0.00146 0.795,0.062562 0.03776,0.061102 0.132429,0.070506 0.210369,0.020897 0.07794,-0.049609 0.371208,-0.096333 0.651708,-0.1038318 0.392353,-0.010489 0.510424,0.030628 0.511837,0.1782405 0.0016,0.1677083 0.01649,0.1692039 0.118163,0.011874 0.10194,-0.1577408 0.116552,-0.1565109 0.118163,0.00995 0.0012,0.1237985 0.09586,0.1814262 0.271837,0.1654815 0.156524,-0.014182 0.256661,-0.094013 0.238262,-0.1899457 -0.01797,-0.09372 0.04707,-0.064468 0.15,0.067454 C 14.078218,1.9810496 14.16,2.042339 14.16,1.9891339 c 0,-0.053205 0.136525,-0.00728 0.30339,0.1020516 0.166864,0.1093337 0.355864,0.1663573 0.42,0.1267192 C 14.947525,2.1782671 15,2.2332097 15,2.34 15,2.4467903 15.052414,2.5017703 15.116476,2.462178 15.249833,2.3797586 15.96,2.716884 15.96,2.8626097 c 0,0.053046 0.118781,0.092159 0.263959,0.086918 0.159264,-0.00575 0.318198,0.09728 0.40071,0.2597608 0.07522,0.1481089 0.172433,0.2336089 0.216042,0.1899999 C 16.88432,3.35568 16.92,3.3861869 16.92,3.467082 c 0,0.080895 0.054,0.1137083 0.12,0.072918 0.066,-0.04079 0.12,-0.0112 0.12,0.065757 0,0.079698 0.0837,0.1078028 0.194462,0.065299 0.14773,-0.056689 0.179867,-0.018808 0.133727,0.1576276 -0.04727,0.1807537 -0.0081,0.2221176 0.176547,0.1865536 0.168692,-0.032487 0.217844,0.00496 0.170038,0.1295337 -0.06365,0.1658711 -0.01175,0.195094 0.397708,0.2239341 0.09487,0.00668 0.214638,0.1739568 0.266161,0.3717223 0.05152,0.1977654 0.257406,0.5384063 0.457517,0.7569797 0.200112,0.2185734 0.36384,0.4361524 0.36384,0.4835089 0,0.047356 0.105108,0.1618601 0.233573,0.2544524 0.128465,0.092592 0.208584,0.208782 0.178043,0.2581992 -0.03054,0.049417 -6e-4,0.1237679 0.06643,0.1652236 0.06708,0.041456 0.121957,0.1735748 0.121957,0.2935983 0,0.1200236 0.0823,0.2865317 0.1829,0.3700181 0.100595,0.083486 0.156364,0.1783296 0.12393,0.2107627 -0.03243,0.032433 0.04607,0.1925093 0.174459,0.3557248 0.166496,0.2116654 0.201837,0.3557833 0.123254,0.5026176 -0.08083,0.1510318 -0.04915,0.249847 0.118947,0.3710036 0.162021,0.1167786 0.20979,0.2548059 0.16311,0.471313 -0.04486,0.208079 -0.03027,0.2556479 0.04553,0.1484744 0.07218,-0.1020514 0.103326,0.1520105 0.08825,0.7200004 -0.01281,0.482733 0.02498,0.94039 0.08399,1.017014 0.06586,0.08552 0.05375,0.172399 -0.03136,0.225 -0.102229,0.06318 -0.09791,0.110857 0.01646,0.181537 0.121777,0.07526 0.123975,0.13335 0.01024,0.270404 -0.104628,0.126069 -0.110919,0.263831 -0.02265,0.496003 0.07984,0.210005 0.08074,0.295819 0.0026,0.247515 -0.0658,-0.04067 -0.119637,0.03406 -0.119637,0.16606 0,0.132 -0.05415,0.273464 -0.120324,0.314364 -0.0804,0.04969 -0.08029,0.149166 3.6e-4,0.2998 0.08257,0.15429 0.08009,0.250499 -0.0079,0.304855 -0.07068,0.04368 -0.103831,0.143721 -0.07367,0.22231 0.03016,0.07859 -0.01645,0.240375 -0.103577,0.359526 -0.08712,0.11915 -0.125941,0.301247 -0.08626,0.404658 0.04435,0.115569 0.0229,0.157581 -0.05567,0.109026 -0.15712,-0.09711 -0.290603,0.214037 -0.19675,0.458613 0.03922,0.102195 -0.01389,0.210675 -0.123767,0.252839 -0.105847,0.04062 -0.19245,0.144437 -0.19245,0.23071 0,0.08627 -0.188046,0.350495 -0.417879,0.587161 C 19.272323,16.486364 19.143935,16.68 19.21685,16.68 c 0.09107,0 0.08717,0.05471 -0.01245,0.174744 -0.07976,0.09611 -0.110187,0.231108 -0.06761,0.3 0.04258,0.06889 0.02473,0.125256 -0.03967,0.125256 -0.06439,0 -0.14883,-0.0675 -0.187633,-0.15 -0.0388,-0.0825 -0.0507,-0.0011 -0.02644,0.181049 0.03575,0.268305 0.01311,0.305322 -0.119448,0.195307 -0.170714,-0.14168 -0.20714,-0.07719 -0.167613,0.296761 0.01314,0.124297 -0.03025,0.189844 -0.09797,0.147993 -0.06686,-0.04132 -0.20625,0.04579 -0.309765,0.193584 -0.103516,0.147789 -0.188211,0.225835 -0.188211,0.173436 0,-0.0524 -0.08444,-0.01082 -0.187651,0.09238 -0.105988,0.105988 -0.148186,0.25333 -0.09697,0.338572 0.05765,0.09594 0.0058,0.08679 -0.142349,-0.02512 -0.128169,-0.09682 -0.195106,-0.130896 -0.148749,-0.07571 0.145427,0.173109 -0.246042,0.45251 -0.533917,0.381069 -0.148703,-0.0369 -0.205902,-0.03711 -0.12711,-4.8e-4 0.201193,0.0936 0.05445,0.410402 -0.15319,0.330723 -0.09354,-0.03589 -0.170069,-0.0023 -0.170069,0.07466 0,0.07696 -0.06318,0.100875 -0.140393,0.05315 -0.0966,-0.0597 -0.114462,-0.01919 -0.05725,0.129892 0.06505,0.169524 0.04883,0.188188 -0.07455,0.08579 -0.11881,-0.0986 -0.194892,-0.07131 -0.30856,0.110707 -0.08298,0.132867 -0.242752,0.223067 -0.355056,0.200441 -0.112303,-0.02263 -0.312187,0.05863 -0.444187,0.180558 -0.162957,0.150529 -0.345933,0.200754 -0.57,0.156458 -0.189299,-0.03742 -0.33,-0.01233 -0.33,0.05884 0,0.06825 0.06234,0.08555 0.138541,0.03846 0.08146,-0.05035 0.106132,-0.03318 0.05988,0.04165 -0.04326,0.07 -0.186606,0.09905 -0.318541,0.06455 -0.139385,-0.03645 -0.23988,-0.0036 -0.23988,0.07835 0,0.07759 -0.05637,0.106236 -0.125277,0.06365 -0.0689,-0.04258 -0.248825,0.0035 -0.399828,0.102467 -0.171532,0.112393 -0.337376,0.141065 -0.441982,0.07641 -0.107762,-0.0666 -0.245088,-0.0332 -0.385336,0.09372 -0.182492,0.165154 -0.206478,0.167422 -0.147588,0.01396 0.05594,-0.145777 -0.0043,-0.172286 -0.294835,-0.129651 -0.200872,0.02951 -0.365191,0.104681 -0.365191,0.167085 0,0.0624 -0.06743,0.07178 -0.149856,0.02085 -0.214474,-0.132552 -0.614923,-0.122265 -0.718306,0.01845 -0.05487,0.07468 -0.08886,0.06423 -0.09,-0.02766 z m 3.05407,-0.857218 c 0.459749,-0.130496 0.872591,-0.214595 0.917425,-0.186886 0.04484,0.02771 0.109816,-0.02336 0.144401,-0.113488 0.03458,-0.09013 0.19854,-0.197918 0.364344,-0.239531 0.968126,-0.242985 2.984981,-1.932165 3.833748,-3.210886 C 20.81137,13.689103 21.043291,10.115121 19.594409,7.2 19.348382,6.705 19.118357,6.273 19.083241,6.24 19.048124,6.207 18.793584,5.8826189 18.517595,5.5191532 17.885822,4.6871358 16.641631,3.6494965 15.707413,3.1754975 15.312289,2.975021 15.013979,2.786021 15.044502,2.7554975 15.075026,2.7249738 14.983,2.691811 14.84,2.6818021 14.697,2.6717932 14.202,2.549763 13.74,2.410624 12.106493,1.9186656 10.209258,1.9607068 8.4769942,2.527248 7.5220063,2.8395792 7.3231744,2.9370012 6.2080086,3.6389861 4.1528117,4.9327104 2.5458948,7.43498 2.1872872,9.9 c -0.1305095,0.897105 -0.091263,2.553157 0.078206,3.3 0.6087071,2.682545 2.6437006,5.272128 4.9945068,6.35564 0.9614218,0.44313 2.2479347,0.859556 2.6696657,0.864132 0.2143163,0.0023 0.3679023,0.03944 0.3413023,0.08248 -0.09979,0.161464 2.662313,-0.09931 3.46494,-0.327128 z M 9.1439215,17.526622 C 8.0175067,17.134555 7.427151,16.769615 6.6523846,15.986429 5.8514299,15.176768 5.2936694,14.211533 4.9589183,13.055788 4.596959,11.806105 4.596959,10.753895 4.9589183,9.5042123 5.8018566,6.5939264 8.1705991,4.7501794 11.143922,4.6900196 14.120303,4.6297979 16.614016,6.3427589 17.593045,9.12 c 0.265737,0.7538202 0.317267,1.104652 0.317267,2.16 0,1.055348 -0.05153,1.40618 -0.317267,2.16 C 16.85095,15.545125 15.117112,17.144681 12.98,17.695774 11.826286,17.99328 10.290014,17.925538 9.1439215,17.526622 Z M 13.34061,16.937531 C 14.874572,16.400803 16.012741,15.373877 16.751518,13.86 L 17.22,12.9 V 11.28 9.66 L 16.751773,8.7 C 16.213812,7.5970236 15.465893,6.7547264 14.52,6.1866042 13.432742,5.5335756 12.702396,5.3435347 11.28,5.3435347 c -1.4599238,0 -2.128153,0.1848737 -3.202423,0.8859891 C 6.7975598,7.0649186 6.233242,7.7611616 5.6861616,9.18 5.408206,9.9008702 5.3622715,10.198695 5.3622715,11.28 c 0,1.081306 0.045934,1.37913 0.3238901,2.1 0.5553109,1.440184 1.2489856,2.270591 2.5609136,3.065702 1.3969653,0.84665 3.4992918,1.049649 5.0935348,0.491829 z M 18.755959,11.28 c 0,-0.363 0.0225,-0.5115 0.04999,-0.33 0.0275,0.1815 0.0275,0.4785 0,0.66 -0.02749,0.1815 -0.04999,0.033 -0.04999,-0.33 z"
     id="path1001" /><path
     style="fill:#f3cdb7;stroke-width:0.12"
     d="m 9.42,20.333771 -0.48,-0.154649 0.54,0.06714 c 0.588863,0.07321 0.666102,0.100938 0.5179837,0.185933 C 9.9440927,20.463119 9.684,20.418828 9.42,20.333771 Z m 1.413621,0.09788 c 0.315491,-0.0248 0.801491,-0.0245 1.08,7.2e-4 0.278509,0.02517 0.02038,0.04546 -0.573621,0.04509 -0.594,-3.6e-4 -0.821871,-0.02096 -0.506379,-0.04576 z M 6.0362492,18.864016 C 5.6931864,18.619807 5.3844274,18.35262 5.3501183,18.270268 c -0.034309,-0.08235 0.1986645,0.05265 0.5177193,0.3 0.319055,0.247352 0.6818139,0.514057 0.8061311,0.592675 C 6.798286,19.241562 6.846,19.306369 6.78,19.306958 c -0.066,6e-4 -0.4006878,-0.198734 -0.7437508,-0.442942 z m 10.0406968,0.252922 c 0.16332,-0.119316 0.54132,-0.39845 0.84,-0.620299 0.514942,-0.382479 0.524418,-0.384949 0.183054,-0.04769 -0.198,0.195616 -0.576,0.47475 -0.84,0.620299 -0.293177,0.161634 -0.364424,0.180198 -0.183054,0.0477 z M 11.07165,18.75389 c 0.182407,-0.02758 0.452407,-0.02684 0.6,0.0016 0.147592,0.02848 -0.0016,0.05105 -0.33165,0.05015 -0.33,-9.6e-4 -0.450758,-0.02421 -0.26835,-0.05179 z M 9.7701196,18.062101 C 7.9844044,17.673535 5.9762714,16.145686 5.1934111,14.58 4.5487466,13.2907 4.3936366,12.65069 4.3936366,11.28 c 0,-1.9993781 0.6057696,-3.4658854 2.0130729,-4.8734471 C 8.5671977,4.245668 11.607583,3.7217507 14.34,5.0394932 c 1.618082,0.7803405 2.797109,2.0417037 3.514296,3.7597119 0.284051,0.6804392 0.309246,0.8825599 0.309246,2.4807949 0,1.598234 -0.0252,1.800355 -0.309246,2.480795 -0.717187,1.718009 -1.896214,2.979372 -3.514296,3.759711 -1.475257,0.711462 -2.973312,0.889002 -4.5698804,0.541595 z M 12.98,17.695774 c 2.137112,-0.551093 3.87095,-2.150649 4.613045,-4.255774 0.265737,-0.75382 0.317267,-1.104652 0.317267,-2.16 0,-1.055348 -0.05153,-1.4061798 -0.317267,-2.16 C 16.614016,6.3427589 14.120303,4.6297979 11.143922,4.6900196 9.3586585,4.7261412 7.8569904,5.3558743 6.6523846,6.5735717 5.8514299,7.3832311 5.2936694,8.3484677 4.9589183,9.5042123 c -0.3619593,1.2496827 -0.3619593,2.3018927 0,3.5515757 0.8429383,2.910285 3.2116808,4.754032 6.1850037,4.814192 0.673866,0.01363 1.36015,-0.05148 1.836078,-0.174206 z M 17.985941,17.58 c 0.355074,-0.514637 1.013197,-1.245575 0.864365,-0.96 -0.06879,0.132 -0.347304,0.483 -0.618914,0.78 -0.27341,0.29897 -0.382968,0.379314 -0.245451,0.18 z m 1.442033,-2.096666 c 0.23582,-0.454629 0.446533,-0.808827 0.468252,-0.787108 0.05615,0.05615 -0.66969,1.47321 -0.793935,1.549998 -0.05669,0.03504 0.08986,-0.308262 0.325683,-0.76289 z M 2.240625,13.093126 C 2.1962813,12.871406 2.1659166,12.57525 2.1731479,12.435 c 0.00723,-0.14025 0.060966,-0.012 0.1194102,0.285 0.058444,0.297 0.088809,0.593156 0.067477,0.658126 -0.021332,0.06497 -0.075067,-0.06328 -0.1194101,-0.285 z M 20.302632,13.02 c 0.0032,-0.132 0.04699,-0.402 0.09737,-0.6 l 0.0916,-0.36 0.0058,0.36 c 0.0032,0.198 -0.04065,0.468 -0.09737,0.6 l -0.103131,0.24 0.0058,-0.24 z M 2.0793768,11.34 c 5.28e-4,-0.462 0.022222,-0.636296 0.048199,-0.387324 0.025977,0.248973 0.025542,0.626973 -9.72e-4,0.84 C 2.1000984,12.005705 2.0788445,11.802 2.0793768,11.34 Z M 20.345454,9.8945454 c -0.0459,-0.3060978 -0.05891,-0.5810868 -0.02891,-0.6110868 0.03,-0.03 0.0921,0.1958982 0.138005,0.501996 0.0459,0.3060974 0.05891,0.5810864 0.02891,0.6110864 -0.03,0.03 -0.0921,-0.195898 -0.138005,-0.5019956 z M 19.584192,7.3773672 C 19.440602,7.0818152 19.34832,6.84 19.37912,6.84 c 0.08129,0 0.56617,0.9747095 0.511884,1.0289959 -0.02516,0.025156 -0.163221,-0.1960767 -0.306812,-0.4916287 z M 3.7027128,6.06 C 3.9256416,5.599815 5.196183,4.3044079 5.865623,3.8547595 6.5907125,3.3677327 7.0903295,3.0901776 6.6042199,3.4444426 5.3622613,4.3495522 4.8526338,4.7759922 4.4998782,5.2052887 3.6636106,6.2230097 3.5806618,6.3119464 3.7027128,6.06 Z M 18.346574,5.4716074 C 17.72857,4.7365696 16.913329,4.0037795 16.274024,3.6086675 15.76417,3.2935602 15.693665,3.1569802 16.17,3.4071557 16.857152,3.7680539 18.121625,4.941842 18.736938,5.79 19.125931,6.3261961 18.93233,6.1682887 18.346574,5.4716074 Z M 11.07165,3.7538903 c 0.182407,-0.027583 0.452407,-0.026846 0.6,0.00164 0.147592,0.028483 -0.0016,0.051051 -0.33165,0.05015 -0.33,-9e-4 -0.450758,-0.024205 -0.26835,-0.051788 z M 10.893172,2.0719804 c 0.282245,-0.025349 0.714245,-0.024993 0.96,7.92e-4 0.245755,0.025786 0.01483,0.046526 -0.513172,0.04609 -0.528,-4.32e-4 -0.729073,-0.021533 -0.446828,-0.046882 z"
     id="path999" /><path
     style="fill:#d6b09b;stroke-width:0.12"
     d="m 16.62,16.56 c 0.325038,-0.33 0.617978,-0.6 0.650978,-0.6 0.033,0 -0.20594,0.27 -0.530978,0.6 -0.325038,0.33 -0.617978,0.6 -0.650978,0.6 -0.033,0 0.20594,-0.27 0.530978,-0.6 z m 2.349308,-0.458146 C 19.18192,15.759835 19.378258,15.48 19.405615,15.48 c 0.08621,0 -0.48975,0.967242 -0.660181,1.108687 -0.08948,0.07426 0.01127,-0.144812 0.223874,-0.486833 z M 20.373652,11.64 c 0.0326,-0.627 0.07886,-1.1625 0.10281,-1.19 0.07977,-0.09161 0.01652,1.604396 -0.07347,1.97 -0.04874,0.198 -0.06194,-0.153 -0.02934,-0.78 z M 2.2019297,11.28 c 0,-0.561 0.020671,-0.7905 0.045935,-0.51 0.025264,0.2805 0.025264,0.7395 0,1.02 -0.025264,0.2805 -0.045935,0.051 -0.045935,-0.51 z m 1.56,0 c 0,-0.561 0.020671,-0.7905 0.045935,-0.51 0.025264,0.2805 0.025264,0.7395 0,1.02 -0.025264,0.2805 -0.045935,0.051 -0.045935,-0.51 z M 3.0032999,7.5 C 3.0016943,7.3160813 3.6950046,6.1492727 3.8675004,6.045592 3.9907849,5.9714902 3.9908129,5.989978 3.8676444,6.1420962 3.78385,6.2455877 3.5553282,6.6204534 3.3598182,6.9751312 3.1643105,7.329809 3.0038762,7.566 3.0032999,7.5 Z M 16.615489,5.97 16.02,5.34 16.65,5.935489 C 17.235407,6.4888279 17.335032,6.6 17.245489,6.6 c -0.01898,0 -0.302481,-0.2835 -0.63,-0.63 z M 15.36,3.18 C 15.063,3.0209647 14.862652,2.8884049 14.914781,2.8854224 15.042215,2.8781324 15.96,3.3496744 15.96,3.4224389 c 0,0.079499 0.005,0.08151 -0.6,-0.2424389 z"
     id="path997" /><path
     style="fill:#c28c6f;stroke-width:0.12"
     d="M 7.89,18.111829 C 7.6425,17.98117 7.44,17.84746 7.44,17.814695 c 0,-0.05346 0.9478364,0.389498 1.07,0.500055 0.1380908,0.124972 -0.2223702,0.007 -0.62,-0.202921 z M 4.855489,17.61 4.26,16.98 4.89,17.575489 c 0.3465,0.327519 0.63,0.611019 0.63,0.63 0,0.08954 -0.1111721,-0.01008 -0.664511,-0.595489 z M 5.8759008,16.59 5.22,15.9 5.91,16.555901 c 0.3795,0.360745 0.69,0.671245 0.69,0.69 0,0.08907 -0.1147466,-0.01487 -0.7240992,-0.655901 z M 20.321137,11.22 c 4.8e-4,-0.528 0.02153,-0.729073 0.04688,-0.446828 0.02535,0.282245 0.02499,0.714245 -8.4e-4,0.96 -0.02574,0.245755 -0.04648,0.01483 -0.04604,-0.513172 z M 4.86,4.92 c 0.3250379,-0.33 0.6179779,-0.6 0.6509779,-0.6 0.033,0 -0.20594,0.27 -0.5309779,0.6 -0.3250379,0.33 -0.6179779,0.6 -0.6509779,0.6 -0.033,0 0.20594,-0.27 0.5309779,-0.6 z M 7.44,4.7408792 C 7.44,4.6595875 8.4147095,4.1747094 8.4689959,4.2289958 8.4941521,4.254152 8.2729192,4.3922173 7.9773672,4.5358076 7.6818152,4.6793978 7.44,4.7716801 7.44,4.7408792 Z M 14.64,4.5 C 14.343,4.3409647 14.142652,4.2084049 14.194781,4.2054224 14.322215,4.1981312 15.24,4.6696744 15.24,4.7424389 c 0,0.079499 0.005,0.08151 -0.6,-0.2424389 z"
     id="path995" /><path
     style="fill:#9d5934;stroke-width:0.12"
     d="m 11.127437,19.664162 c -0.11409,-0.06385 -0.208264,-0.0729 -0.209275,-0.02013 -0.001,0.05278 -0.05418,0.01496 -0.118162,-0.08404 -0.06937,-0.107341 -0.117067,-0.122496 -0.118162,-0.03754 -0.0019,0.150358 -0.7905944,0.08576 -1.021838,-0.0837 -0.066,-0.04837 -0.2145,-0.07265 -0.33,-0.05397 -0.1155,0.01868 -0.21,-0.0037 -0.21,-0.0497 0,-0.04602 -0.0945,-0.08959 -0.21,-0.09684 C 8.5523593,19.215832 8.1423488,19.094737 7.9867154,18.965573 7.9048768,18.897653 7.8023863,18.877614 7.7589589,18.921041 7.7155315,18.964469 7.68,18.93419 7.68,18.853758 c 0,-0.08043 -0.162,-0.202716 -0.36,-0.271739 -0.198,-0.06902 -0.36,-0.177402 -0.36,-0.24084 0,-0.06344 -0.04655,-0.08657 -0.1034448,-0.05141 C 6.7996604,18.324931 6.5206754,18.139118 6.2365884,17.87685 5.9525014,17.614583 5.6841764,17.4 5.6403108,17.4 5.5964452,17.4 5.4892916,17.266843 5.4021919,17.104096 5.3150921,16.941348 5.1979672,16.836535 5.1419143,16.871178 5.0858615,16.90582 5.04,16.871642 5.04,16.795228 5.04,16.718812 4.8645,16.489901 4.65,16.286537 4.4355,16.083172 4.3275,15.956693 4.41,16.005473 c 0.0825,0.04878 0.15,0.03151 0.15,-0.03839 0,-0.06989 -0.06872,-0.127082 -0.1527115,-0.127082 -0.1549259,0 -0.4879173,-0.55752 -0.6271356,-1.05 -0.041979,-0.1485 -0.131187,-0.27 -0.1982394,-0.27 -0.067052,0 -0.099802,-0.06633 -0.072776,-0.147412 0.027025,-0.08108 -0.047607,-0.251253 -0.1658503,-0.378172 -0.1182431,-0.12692 -0.185206,-0.27895 -0.1488064,-0.337846 0.0364,-0.0589 1.68e-4,-0.186623 -0.080513,-0.28384 -0.080682,-0.09722 -0.1466943,-0.39185 -0.1466943,-0.654742 0,-0.262894 -0.041237,-0.477988 -0.091636,-0.477988 -0.0504,0 -0.09874,-0.1755 -0.1074233,-0.39 -0.00868,-0.2145 -0.031472,-0.6195 -0.050643,-0.9 -0.019171,-0.2805 0.00953,-0.51 0.063787,-0.51 0.054254,0 0.098643,-0.05719 0.098643,-0.127082 0,-0.06989 -0.050732,-0.09573 -0.1127375,-0.05741 C 2.7052568,10.293833 2.6627483,10.21602 2.672799,10.082594 2.6828497,9.9491671 2.739359,9.84 2.7983752,9.84 2.8573914,9.84 2.8730935,9.7550881 2.833269,9.651307 2.7934444,9.5475258 2.8120961,9.3668796 2.8747171,9.2498711 3.0733577,8.878708 3.1173169,8.3615182 2.9661132,8.1745772 2.8712798,8.0573298 2.867872,8.0226082 2.9564028,8.0756437 3.099634,8.1614478 3.3215616,7.9495922 3.541394,7.5172018 3.6438842,7.3156128 3.631924,7.2254485 3.4860791,7.1002038 3.3203378,6.957873 3.3229523,6.9476245 3.5099996,7.0064376 c 0.1155,0.036317 0.21,0.010538 0.21,-0.057286 0,-0.067824 0.062506,-0.084685 0.1389029,-0.037469 0.09517,0.058818 0.1175977,0.00438 0.071234,-0.172918 C 3.8929195,6.596444 3.9177114,6.48 3.9852301,6.48 4.0527488,6.48 4.0802316,6.3738461 4.0463029,6.2441024 4.0123741,6.1143587 4.019576,6.0127535 4.0623072,6.018313 4.1050382,6.0238726 4.2364,6.022027 4.3542221,6.0142102 4.5345918,6.002245 4.5469222,5.9597855 4.4322499,5.7455184 4.3538425,5.5990128 4.3473607,5.5227454 4.4169733,5.5657684 4.5370816,5.6399994 5.5662958,4.6507919 5.595,4.4335328 5.6311806,4.1596861 5.6572925,4.1527709 5.8238164,4.3729352 5.982886,4.5832444 6,4.5854706 6,4.3958536 6,4.259777 6.0528107,4.2175636 6.15,4.2759529 6.2519227,4.3371862 6.2472133,4.3009943 6.1353066,4.163035 6.0447253,4.0513657 5.9907253,3.9555 6.0153066,3.95 6.1032752,3.9303173 6.6627559,3.8373823 6.8047213,3.8188709 6.8843182,3.8084921 6.9258221,3.761781 6.8969524,3.7150688 6.8413048,3.6250291 8.4179189,2.8812854 8.6710561,2.8781624 8.7705138,2.8769354 8.7601955,2.834454 8.64,2.7503017 8.49921,2.6517305 8.5189898,2.6408778 8.7308023,2.7004804 c 0.1489414,0.041911 0.5539414,0.019961 0.9,-0.048777 C 10.379323,2.5030235 11.650996,2.4366091 11.82,2.5373706 c 0.066,0.03935 0.2145,0.056317 0.33,0.037705 0.1155,-0.018612 0.21,0.021994 0.21,0.090236 0,0.080326 0.05711,0.076681 0.16196,-0.010339 0.123282,-0.1023155 0.228675,-0.076553 0.441328,0.1078795 0.214922,0.186401 0.301705,0.2070983 0.376202,0.089722 0.07403,-0.1166328 0.0977,-0.110172 0.10051,0.027427 0.0033,0.1599999 0.01706,0.1599999 0.124118,0 0.105298,-0.1573659 0.140681,-0.1535936 0.281392,0.03 0.08852,0.1155 0.222496,0.21 0.297719,0.21 0.07522,0 0.136771,0.057187 0.136771,0.127082 0,0.069895 0.054,0.093708 0.12,0.052918 0.066,-0.04079 0.12,-0.021732 0.12,0.042351 0,0.064083 0.138378,0.1013252 0.307506,0.08276 0.215552,-0.023662 0.363948,0.052385 0.496255,0.2543117 0.103812,0.158437 0.214863,0.2619535 0.24678,0.2300366 0.03192,-0.031917 0.126259,0.0069 0.20965,0.086255 0.08339,0.079357 0.380783,0.3304635 0.660871,0.5580141 0.280088,0.2275505 0.577002,0.4814791 0.659809,0.5642857 0.08281,0.082807 0.18684,0.1142748 0.231186,0.069929 0.04434,-0.044346 0.0416,0.021084 -0.0061,0.1453997 -0.05642,0.147027 -0.04206,0.1984171 0.04108,0.1470314 0.124336,-0.076844 0.333229,0.2400925 0.289044,0.4385451 -0.01211,0.054406 0.03331,0.064719 0.100948,0.022918 C 17.824662,5.9000366 17.88,5.9532097 17.88,6.06 c 0,0.1067903 0.04168,0.1684073 0.09261,0.1369266 0.05094,-0.031481 0.191286,0.1813325 0.311886,0.472918 C 18.4051,6.96143 18.545189,7.2 18.595807,7.2 c 0.124314,0 0.941399,2.346735 1.023648,2.94 0.17893,1.29063 0.186558,1.430859 0.06855,1.26 -0.154216,-0.223274 -0.1662,-0.0062 -0.01303,0.235975 0.07055,0.111557 0.0645,0.232359 -0.01653,0.33 C 19.56604,12.077314 19.572014,12.12 19.68,12.12 c 0.111366,0 0.11537,0.04099 0.01573,0.161041 -0.07351,0.08857 -0.09943,0.195268 -0.05759,0.2371 0.04183,0.04183 0.01108,0.154358 -0.06835,0.250057 -0.07942,0.0957 -0.134721,0.245503 -0.122883,0.332899 0.05016,0.370344 -0.01266,0.589515 -0.145454,0.507444 -0.08388,-0.05184 -0.106044,-0.03304 -0.05618,0.04763 0.0453,0.07329 0.0024,0.324636 -0.09534,0.558542 -0.09773,0.233905 -0.145187,0.425282 -0.105456,0.425282 0.03973,0 -0.03053,0.0945 -0.156124,0.21 -0.125599,0.1155 -0.242619,0.279774 -0.260045,0.365052 -0.04716,0.230791 -0.554642,0.998138 -0.913404,1.38113 C 17.54171,16.781083 17.4,16.992583 17.4,17.066183 c 0,0.0736 -0.03146,0.102354 -0.06992,0.0639 -0.03845,-0.03845 -0.275136,0.141545 -0.525958,0.399999 C 16.553303,17.788537 16.293433,18 16.226638,18 c -0.0668,0 -0.248615,0.134068 -0.404043,0.297926 -0.155427,0.16386 -0.350095,0.29886 -0.432595,0.3 -0.0825,0.0012 -0.15,0.04631 -0.15,0.100382 0,0.05407 -0.27,0.17183 -0.6,0.261692 -0.33,0.08986 -0.6,0.204268 -0.6,0.254234 0,0.04997 -0.0945,0.0935 -0.21,0.09673 -0.424396,0.01188 -0.63,0.05073 -0.63,0.119035 0,0.0385 -0.1755,0.08119 -0.39,0.09487 -0.796199,0.05076 -1.240429,0.110333 -1.356148,0.181852 -0.06544,0.04044 -0.212324,0.02129 -0.326415,-0.04256 z m 2.084443,-1.01274 c 2.572744,-0.645608 4.509262,-2.481921 5.427396,-5.146552 0.363176,-1.054019 0.358388,-3.409064 -0.0091,-4.477463 C 18.220922,7.8375954 17.66779,6.9065195 16.874568,6.0722344 15.940249,5.0895476 14.859722,4.4013898 13.629409,4.0054813 12.312889,3.5818319 10.431195,3.5608986 9.18,3.955983 5.8579456,5.0049737 3.72,7.8728032 3.72,11.28 c 0,3.804347 2.7416294,6.9821 6.526464,7.56466 0.757157,0.116541 2.072525,0.03083 2.965416,-0.193238 z"
     id="path993" /><path
     style="fill:#72462e;stroke-width:0.12"
     d="M 9.78,20.099612 C 6.1798007,19.419314 3.4616425,16.85225 2.5932304,13.312333 2.3269856,12.227038 2.3416442,10.258636 2.6240036,9.18 2.9390598,7.97646 3.3467178,7.0824355 3.5456453,7.1587711 3.7189607,7.2252785 3.6197888,7.4913412 3.250249,7.9512736 3.1568858,8.067474 3.0684268,8.3432365 3.0536732,8.564079 3.0389197,8.7849216 2.9670013,9.0774366 2.8938546,9.2141124 2.820708,9.3507882 2.7934444,9.5475258 2.833269,9.651307 2.8730935,9.7550881 2.8573914,9.84 2.7983752,9.84 2.739359,9.84 2.6828497,9.9491671 2.672799,10.082594 2.6627478,10.21602 2.7052568,10.293833 2.7672625,10.255512 2.8292681,10.21719 2.88,10.243023 2.88,10.312918 2.88,10.382818 2.835611,10.44 2.781357,10.44 c -0.054254,0 -0.082958,0.2295 -0.063787,0.51 0.019171,0.2805 0.041961,0.6855 0.050643,0.9 0.00868,0.2145 0.057023,0.39 0.1074233,0.39 0.0504,0 0.091636,0.215094 0.091636,0.477988 0,0.262892 0.066012,0.557527 0.1466943,0.654742 0.080682,0.09722 0.116913,0.224944 0.080513,0.28384 -0.0364,0.0589 0.030563,0.210926 0.1488064,0.337846 0.118243,0.126919 0.1928757,0.297097 0.1658503,0.378172 -0.027025,0.08108 0.00572,0.147412 0.072776,0.147412 0.067052,0 0.1562601,0.1215 0.1982394,0.27 0.1392183,0.49248 0.4722097,1.05 0.6271356,1.05 0.083991,0 0.1527115,0.05719 0.1527115,0.127082 0,0.0699 -0.0675,0.08717 -0.15,0.03839 -0.0825,-0.04878 0.0255,0.0777 0.24,0.281064 0.2145,0.203364 0.39,0.432275 0.39,0.508691 0,0.07641 0.045861,0.110592 0.1019143,0.07595 0.056053,-0.03464 0.1731778,0.07017 0.2602776,0.232918 0.0871,0.162747 0.1942533,0.295904 0.2381189,0.295904 0.043866,0 0.3121906,0.214583 0.5962776,0.47685 0.284087,0.262268 0.563072,0.448081 0.6199668,0.412919 C 6.91345,18.254608 6.96,18.277738 6.96,18.341178 c 0,0.06344 0.162,0.171816 0.36,0.24084 0.198,0.06902 0.36,0.191305 0.36,0.271739 0,0.08043 0.035532,0.110711 0.078959,0.06728 0.043427,-0.04343 0.1459179,-0.02339 0.2277565,0.04453 0.1556334,0.129164 0.5656439,0.250259 0.9232846,0.272687 0.1155,0.0072 0.21,0.05082 0.21,0.09684 0,0.04602 0.0945,0.06838 0.21,0.0497 0.1155,-0.01868 0.264,0.0056 0.33,0.05397 0.2312436,0.169459 1.0198979,0.234055 1.0218379,0.0837 0.0011,-0.08495 0.04879,-0.0698 0.118162,0.03754 0.06398,0.099 0.117152,0.1376 0.118162,0.08578 10e-4,-0.05182 0.102738,-0.04022 0.22606,0.02578 0.123322,0.066 0.259584,0.08464 0.302803,0.04142 0.07465,-0.07465 0.496405,-0.132858 1.362975,-0.188109 0.2145,-0.01368 0.39,-0.05637 0.39,-0.09487 0,-0.0683 0.205604,-0.10715 0.63,-0.119035 0.1155,-0.0032 0.21,-0.04676 0.21,-0.09673 0,-0.04997 0.27,-0.164372 0.6,-0.254234 0.33,-0.08986 0.6,-0.207623 0.6,-0.261692 0,-0.05407 0.0675,-0.09924 0.15,-0.100382 0.0825,-0.0012 0.277168,-0.13614 0.432595,-0.3 C 15.978023,18.134068 16.159842,18 16.226638,18 c 0.06679,0 0.326665,-0.211463 0.577486,-0.469918 0.250822,-0.258454 0.487504,-0.438454 0.525958,-0.399999 0.03845,0.03845 0.06992,0.0097 0.06992,-0.0639 0,-0.0736 0.14171,-0.2851 0.314912,-0.470001 0.358762,-0.382992 0.866243,-1.150339 0.913404,-1.38113 0.01743,-0.08528 0.134446,-0.249552 0.260045,-0.365052 0.125599,-0.1155 0.195855,-0.21 0.156124,-0.21 -0.03973,0 0.0077,-0.191377 0.105456,-0.425282 0.09773,-0.233906 0.140633,-0.485249 0.09534,-0.558542 -0.04665,-0.07548 -0.02821,-0.09979 0.04254,-0.05607 0.06869,0.04246 0.153001,-0.03027 0.18735,-0.161625 0.03435,-0.131348 0.01411,-0.208936 -0.04498,-0.172417 -0.126008,0.07788 -0.0064,-0.297036 0.165545,-0.518967 0.06516,-0.08409 0.08425,-0.187126 0.04241,-0.228959 -0.04183,-0.04183 -0.01592,-0.148528 0.05759,-0.2371 C 19.79537,12.160987 19.791366,12.12 19.68,12.12 c -0.107986,0 -0.11396,-0.04269 -0.02156,-0.154025 0.08103,-0.09764 0.08709,-0.218443 0.01653,-0.33 C 19.521799,11.393793 19.533783,11.176726 19.688,11.4 19.806011,11.570859 19.798383,11.43063 19.61945,10.14 19.537206,9.546735 18.720121,7.2 18.595807,7.2 18.545189,7.2 18.4051,6.96143 18.284498,6.6698446 18.163898,6.3782591 18.023549,6.165446 17.972612,6.1969266 17.921676,6.2284073 17.88,6.1667903 17.88,6.06 c 0,-0.1067903 -0.05534,-0.1599634 -0.122974,-0.1181624 -0.06763,0.041801 -0.113061,0.031488 -0.100948,-0.022918 0.04418,-0.1984525 -0.164708,-0.5153893 -0.289044,-0.438545 -0.08315,0.051386 -0.0975,-4.5e-6 -0.04108,-0.1470315 0.0477,-0.1243153 0.05045,-0.1897452 0.0061,-0.1453997 -0.04435,0.044345 -0.14838,0.012877 -0.231186,-0.069929 -0.0828,-0.082807 -0.379718,-0.3367356 -0.659806,-0.5642861 -0.280088,-0.2275506 -0.57748,-0.4786568 -0.660871,-0.558014 -0.08339,-0.079357 -0.177733,-0.1181719 -0.20965,-0.086255 -0.03192,0.031917 -0.142968,-0.0716 -0.24678,-0.2300366 C 15.191454,3.4774962 15.043058,3.4014492 14.827506,3.4251109 14.658378,3.4436765 14.52,3.4064346 14.52,3.3423512 14.52,3.2782678 14.466,3.2592097 14.4,3.3 14.334,3.3407903 14.28,3.3169771 14.28,3.247082 14.28,3.177187 14.199,3.12 14.1,3.12 14.001,3.12 13.92,3.062813 13.92,2.992918 13.92,2.923023 13.85766,2.904366 13.781459,2.951459 13.695619,3.004509 13.675492,2.984377 13.728539,2.898541 13.775639,2.822344 13.756979,2.76 13.687079,2.76 13.617179,2.76 13.55917,2.8275 13.55816,2.91 13.55686,3.0198433 13.52858,3.0162082 13.452686,2.896422 13.373159,2.7708976 13.337448,2.7676574 13.299169,2.882493 13.262859,2.9914091 13.193834,2.976691 13.045564,2.82842 12.933516,2.7163727 12.779083,2.663484 12.702379,2.7108896 c -0.095,0.058715 -0.107079,0.032463 -0.03789,-0.082349 0.08651,-0.1435428 0.07146,-0.1441136 -0.101459,-0.00385 C 12.449422,2.7168516 12.36,2.7347408 12.36,2.6653115 12.36,2.59707 12.2655,2.556464 12.15,2.5750759 12.0345,2.5936877 11.886,2.5769095 11.82,2.5377902 11.630724,2.4256039 10.218024,2.5208496 9.3389641,2.7050641 8.330525,2.9163912 6.816092,3.5804286 6.92147,3.7650689 6.9638245,3.839281 6.9559741,3.8616536 6.9040249,3.8147858 6.7612582,3.6859841 6.098424,4.0680073 6.1946174,4.2236515 6.2445829,4.3044973 6.2224832,4.3233382 6.138541,4.271459 6.053477,4.2188866 5.9992907,4.2696302 5.9981624,4.402918 5.996882,4.5542396 5.9677885,4.5750718 5.902123,4.4716868 5.8364562,4.3683001 5.5975763,4.5393158 5.1135202,5.0362531 4.7315998,5.4283367 4.4540045,5.8055777 4.4966417,5.8745662 4.539279,5.9435548 4.4867903,6 4.38,6 4.2637912,6 4.2202129,6.055623 4.271459,6.138541 4.3245085,6.224377 4.304377,6.2445085 4.218541,6.191459 4.1364485,6.1407229 4.08,6.1820623 4.08,6.292918 4.08,6.395813 4.0310555,6.48 3.9712344,6.48 c -0.059821,0 -0.078315,0.116444 -0.041097,0.2587646 0.043629,0.1668359 0.021963,0.2305172 -0.060985,0.1792523 -0.07076,-0.043732 -0.1503795,-0.014335 -0.176933,0.065325 C 3.659458,7.081626 3.6185304,7.0870649 3.5648842,7.0002635 3.3703391,6.6854828 4.7955499,4.9728959 5.9872619,4.0894432 9.892108,1.1946609 15.297464,1.9234582 18.377474,5.76 c 0.617573,0.7692646 1.117828,1.7123948 1.495782,2.82 0.297584,0.8720732 0.327587,1.1193673 0.327587,2.7 0,1.580633 -0.03,1.827926 -0.327587,2.7 -0.718239,2.104818 -1.891045,3.63174 -3.701643,4.819318 C 14.284634,20.036993 11.955829,20.51076 9.78,20.099612 Z"
     id="path991" /></g>
</svg>
