<?xml version="1.0" encoding="UTF-8" standalone="no"?>
<!-- Generator: Adobe Illustrator 26.0.3, SVG Export Plug-In . SVG Version: 6.00 Build 0)  -->

<svg
   version="1.1"
   id="Ebene_1"
   x="0px"
   y="0px"
   viewBox="0 0 19 19"
   xml:space="preserve"
   sodipodi:docname="round_light_off.svg"
   inkscape:version="1.1.1 (3bf5ae0d25, 2021-09-20)"
   width="19"
   height="19"
   xmlns:inkscape="http://www.inkscape.org/namespaces/inkscape"
   xmlns:sodipodi="http://sodipodi.sourceforge.net/DTD/sodipodi-0.dtd"
   xmlns="http://www.w3.org/2000/svg"
   xmlns:svg="http://www.w3.org/2000/svg"><defs
   id="defs1170"><linearGradient
     id="SVGID_1_"
     gradientUnits="userSpaceOnUse"
     x1="9.2125998"
     y1="18.2789"
     x2="9.2125998"
     y2="0.1462"><stop
       offset="0"
       style="stop-color:#1F1F1F"
       id="stop6" /><stop
       offset="1"
       style="stop-color:#434343"
       id="stop8" /></linearGradient><linearGradient
     id="SVGID_00000076561982391363347080000010698682558547426461_"
     gradientUnits="userSpaceOnUse"
     x1="9.2125998"
     y1="17.3111"
     x2="9.2125998"
     y2="1.1141"><stop
       offset="0"
       style="stop-color:#333333"
       id="stop13" /><stop
       offset="1"
       style="stop-color:#4F4F4F"
       id="stop15" /></linearGradient><linearGradient
     id="SVGID_00000073681410118590434390000014491759832616563105_"
     gradientUnits="userSpaceOnUse"
     x1="9.2125998"
     y1="16.6532"
     x2="9.2125998"
     y2="1.7614"><stop
       offset="0"
       style="stop-color:#68676C"
       id="stop22" /><stop
       offset="1"
       style="stop-color:#A2A1AD"
       id="stop24" /></linearGradient><linearGradient
     id="SVGID_00000009552088119173929380000001827315392015218087_"
     gradientUnits="userSpaceOnUse"
     x1="9.2125998"
     y1="16.658501"
     x2="9.2125998"
     y2="1.9588"><stop
       offset="0"
       style="stop-color:#68676C"
       id="stop29" /><stop
       offset="1"
       style="stop-color:#5D5C62"
       id="stop31" /></linearGradient><linearGradient
     id="SVGID_00000025413829365727383590000016209808957998608817_"
     gradientUnits="userSpaceOnUse"
     x1="4.0651999"
     y1="14.5615"
     x2="4.0651999"
     y2="6.7412"><stop
       offset="0"
       style="stop-color:#747276"
       id="stop44" /><stop
       offset="0.0186"
       style="stop-color:#6C6A6E"
       id="stop46" /><stop
       offset="1"
       style="stop-color:#69686E"
       id="stop48" /></linearGradient><linearGradient
     id="SVGID_00000033346724319953813960000013722251021328364170_"
     gradientUnits="userSpaceOnUse"
     x1="12.6991"
     y1="14.9041"
     x2="12.6991"
     y2="5.9626002"><stop
       offset="0"
       style="stop-color:#6C6A6E"
       id="stop53" /><stop
       offset="1"
       style="stop-color:#69686E"
       id="stop55" /></linearGradient><linearGradient
     id="SVGID_1_-7"
     gradientUnits="userSpaceOnUse"
     x1="9.2125998"
     y1="18.2789"
     x2="9.2125998"
     y2="0.1462"><stop
       offset="0"
       style="stop-color:#1F1F1F"
       id="stop6-0" /><stop
       offset="1"
       style="stop-color:#434343"
       id="stop8-1" /></linearGradient><linearGradient
     id="SVGID_00000076561982391363347080000010698682558547426461_-0"
     gradientUnits="userSpaceOnUse"
     x1="9.2125998"
     y1="17.3111"
     x2="9.2125998"
     y2="1.1141"><stop
       offset="0"
       style="stop-color:#333333"
       id="stop13-6" /><stop
       offset="1"
       style="stop-color:#4F4F4F"
       id="stop15-1" /></linearGradient><linearGradient
     id="SVGID_00000073681410118590434390000014491759832616563105_-3"
     gradientUnits="userSpaceOnUse"
     x1="9.2125998"
     y1="16.6532"
     x2="9.2125998"
     y2="1.7614"><stop
       offset="0"
       style="stop-color:#68676C"
       id="stop22-5" /><stop
       offset="1"
       style="stop-color:#A2A1AD"
       id="stop24-0" /></linearGradient><linearGradient
     id="SVGID_00000009552088119173929380000001827315392015218087_-6"
     gradientUnits="userSpaceOnUse"
     x1="9.2125998"
     y1="16.658501"
     x2="9.2125998"
     y2="1.9588"><stop
       offset="0"
       style="stop-color:#68676C"
       id="stop29-7" /><stop
       offset="1"
       style="stop-color:#5D5C62"
       id="stop31-6" /></linearGradient><linearGradient
     id="SVGID_00000025413829365727383590000016209808957998608817_-3"
     gradientUnits="userSpaceOnUse"
     x1="4.0651999"
     y1="14.5615"
     x2="4.0651999"
     y2="6.7412"><stop
       offset="0"
       style="stop-color:#747276"
       id="stop44-3" /><stop
       offset="0.0186"
       style="stop-color:#6C6A6E"
       id="stop46-4" /><stop
       offset="1"
       style="stop-color:#69686E"
       id="stop48-4" /></linearGradient><linearGradient
     id="SVGID_00000033346724319953813960000013722251021328364170_-2"
     gradientUnits="userSpaceOnUse"
     x1="12.6991"
     y1="14.9041"
     x2="12.6991"
     y2="5.9626002"><stop
       offset="0"
       style="stop-color:#6C6A6E"
       id="stop53-9" /><stop
       offset="1"
       style="stop-color:#69686E"
       id="stop55-8" /></linearGradient></defs><sodipodi:namedview
   id="namedview1168"
   pagecolor="#ffffff"
   bordercolor="#666666"
   borderopacity="1.0"
   inkscape:pageshadow="2"
   inkscape:pageopacity="0.0"
   inkscape:pagecheckerboard="0"
   showgrid="false"
   inkscape:zoom="45.254834"
   inkscape:cx="18.594699"
   inkscape:cy="15.048116"
   inkscape:window-width="3840"
   inkscape:window-height="2066"
   inkscape:window-x="2869"
   inkscape:window-y="-11"
   inkscape:window-maximized="1"
   inkscape:current-layer="Ebene_1"
   showguides="true"
   inkscape:guide-bbox="true"
   width="14.51054px"><sodipodi:guide
     position="-7.2504592,0.15769786"
     orientation="1,0"
     id="guide8468" /></sodipodi:namedview>

<g
   id="g1374"
   transform="scale(1.0311516)"
   style="stroke-width:0.96979"><circle
     cx="9.2130003"
     cy="9.2130003"
     r="9.2130003"
     id="circle4"
     style="stroke-width:0.96979" /><circle
     class="st0"
     cx="9.2130003"
     cy="9.2130003"
     r="9.066"
     id="circle11"
     style="fill:url(#SVGID_1_-7);stroke-width:0.96979" /><circle
     style="fill:url(#SVGID_00000076561982391363347080000010698682558547426461_-0);stroke-width:0.96979"
     cx="9.2130003"
     cy="9.2130003"
     r="8.0979996"
     id="circle18" /><circle
     cx="9.2130003"
     cy="9.2130003"
     r="7.9759998"
     id="circle20"
     style="stroke-width:0.96979" /><circle
     style="fill:url(#SVGID_00000073681410118590434390000014491759832616563105_-3);stroke-width:0.96979"
     cx="9.2130003"
     cy="9.2069998"
     r="7.4460001"
     id="circle27" /><ellipse
     style="fill:url(#SVGID_00000009552088119173929380000001827315392015218087_-6);stroke-width:0.96979"
     cx="9.2130003"
     cy="9.309"
     rx="7.4460001"
     ry="7.3499999"
     id="ellipse34" /><path
     class="st4"
     d="m 15.573,5.4220002 c -1.461,-2.062 -3.832,-3.288 -6.36,-3.288 -2.528,0 -4.899,1.226 -6.36,3.288 1.351,-2.219 3.762,-3.574 6.36,-3.574 2.598,0 5.008,1.355 6.36,3.574 z"
     id="path36"
     style="fill:#76767c;stroke-width:0.96979" /><path
     class="st5"
     d="m 15.467,5.6140002 c -1.437,-2.062 -3.769,-3.288 -6.255,-3.288 -2.486,0 -4.817,1.226 -6.254,3.288 1.329,-2.219 3.699,-3.574 6.255,-3.574 2.556,0 4.926,1.355 6.254,3.574 z"
     id="path38"
     style="fill:#6d6d73;stroke-width:0.96979" /><path
     class="st4"
     d="m 2.853,13.084 c 1.461,2.062 3.832,3.288 6.36,3.288 2.528,0 4.899,-1.226 6.36,-3.288 -1.351,2.219 -3.762,3.574 -6.36,3.574 -2.598,0 -5.009,-1.354 -6.36,-3.574 z"
     id="path40"
     style="fill:#76767c;stroke-width:0.96979" /><path
     class="st6"
     d="m 2.659,12.713 c 1.506,2.112 3.949,3.367 6.553,3.367 2.604,0 5.048,-1.255 6.553,-3.367 -1.392,2.272 -3.876,3.659 -6.553,3.659 -2.677,0 -5.161,-1.386 -6.553,-3.659 z"
     id="path42"
     style="fill:#626163;stroke-width:0.96979" /><path
     style="fill:url(#SVGID_00000025413829365727383590000016209808957998608817_-3);stroke-width:0.96979"
     d="m 2.998,6.7860002 c 0.55,-0.04 1.352,-0.075 2.001,-0.005 0.491,0.054 0.868,0.453 0.889,0.947 0.055,1.314 0.156,3.9699998 0.158,5.8279998 10e-4,0.859 -1.02,1.327 -1.659,0.752 -1.265,-1.139 -2.781,-3.277 -2.16,-6.8389998 0.066,-0.374 0.391,-0.655 0.771,-0.683 z"
     id="path51" /><path
     style="fill:url(#SVGID_00000033346724319953813960000013722251021328364170_-2);stroke-width:0.96979"
     d="M 10.123,14.66 C 9.538,14.484 9.134,13.955 9.12,13.344 9.094,12.263 9.286,10.087 9.434,8.5990002 c 0.1,-1.003 0.769,-1.861 1.726,-2.176 1.597,-0.524 3.96,-0.943 4.808,0.752 0.08,0.161 1.361,3.7679998 -1.909,7.2739998 -0.243,0.261 -0.586,0.41 -0.943,0.43 -0.74,0.042 -2.057,0.063 -2.993,-0.219 z"
     id="path58" /></g></svg>
