<?xml version="1.0" encoding="UTF-8" standalone="no"?>
<!-- Generator: Adobe Illustrator 25.2.3, SVG Export Plug-In . SVG Version: 6.00 Build 0)  -->

<svg
   version="1.0"
   id="svg15246"
   x="0px"
   y="0px"
   width="44.800789"
   height="44.797001"
   viewBox="0 0 44.80079 44.797"
   enable-background="new 0 0 44.80079 44.79687"
   xml:space="preserve"
   sodipodi:docname="skirted_ventura.svg"
   inkscape:version="1.4 (86a8ad7, 2024-10-11)"
   xmlns:inkscape="http://www.inkscape.org/namespaces/inkscape"
   xmlns:sodipodi="http://sodipodi.sourceforge.net/DTD/sodipodi-0.dtd"
   xmlns="http://www.w3.org/2000/svg"
   xmlns:svg="http://www.w3.org/2000/svg"><defs
   id="defs5"><linearGradient
     id="SVGID_5_"
     gradientUnits="userSpaceOnUse"
     x1="22.40033"
     y1="36.317429"
     x2="22.40033"
     y2="8.4833899">
		<stop
   offset="0.00559"
   style="stop-color:#F2F2F2"
   id="stop9" />
		<stop
   offset="1"
   style="stop-color:#D6D6D6"
   id="stop10" />
	</linearGradient></defs>
<sodipodi:namedview
   bordercolor="#666666"
   borderopacity="1.0"
   fit-margin-bottom="0"
   fit-margin-left="0"
   fit-margin-right="0"
   fit-margin-top="0"
   id="base"
   inkscape:current-layer="g5"
   inkscape:cx="7.2499997"
   inkscape:cy="17.796874"
   inkscape:document-units="mm"
   inkscape:pageopacity="0.0"
   inkscape:pageshadow="2"
   inkscape:window-height="2054"
   inkscape:window-maximized="1"
   inkscape:window-width="3840"
   inkscape:window-x="2869"
   inkscape:window-y="-11"
   inkscape:zoom="32.000001"
   pagecolor="#ffffff"
   showgrid="false"
   units="px"
   inkscape:showpageshadow="2"
   inkscape:pagecheckerboard="0"
   inkscape:deskcolor="#d1d1d1"
   showguides="true">
	</sodipodi:namedview>
<g
   id="g5">
	
	
	
	
	
<rect
   style="fill:#393939;fill-opacity:1;stroke-width:0.377953;-inkscape-stroke:none"
   id="rect1-2"
   width="5.5455923"
   height="5.435883"
   x="19.627598"
   y="4.012027e-08"
   ry="0.34802911"
   rx="0.34802905" /><path
   id="path1"
   style="fill:#0e0e0e;fill-opacity:1;stroke-width:0.377954;-inkscape-stroke:none"
   inkscape:transform-center-x="2.8858445"
   inkscape:transform-center-y="-2.2225369"
   d="M 23.994141 3.796875 C 23.185718 3.7289716 23.178454 4.4776553 22.367188 4.4804688 C 21.555923 4.4832816 21.546215 3.7370374 20.738281 3.8105469 C 19.930349 3.8840561 20.050404 4.6200266 19.251953 4.7636719 C 18.4535 4.9073174 18.314143 4.1740304 17.53125 4.3867188 C 16.748356 4.599407 16.995752 5.3038716 16.234375 5.5839844 C 15.472997 5.8640971 15.206723 5.1643604 14.472656 5.5097656 C 13.73859 5.8551709 14.10742 6.5059935 13.40625 6.9140625 C 12.705081 7.3221316 12.321138 6.6827634 11.658203 7.1503906 C 10.995267 7.6180181 11.471219 8.1951238 10.851563 8.71875 C 10.231905 9.2423766 9.7396309 8.6763165 9.1679688 9.2519531 C 8.596307 9.8275928 9.1658031 10.314227 8.6464844 10.9375 C 8.1271685 11.560773 7.5470024 11.087744 7.0839844 11.753906 C 6.6209666 12.420071 7.2664773 12.799922 6.8632813 13.503906 C 6.4600854 14.207889 5.8051495 13.845588 5.4648438 14.582031 C 5.1245385 15.318476 5.8256067 15.580447 5.5507813 16.34375 C 5.2759561 17.107051 4.5685813 16.862134 4.3613281 17.646484 C 4.1540752 18.430834 4.888104 18.567759 4.75 19.367188 C 4.6118962 20.166618 3.8745439 20.047046 3.8066406 20.855469 C 3.7387356 21.663892 4.4874211 21.671156 4.4902344 22.482422 C 4.4930444 23.293687 3.7468034 23.305349 3.8203125 24.113281 C 3.8938215 24.921215 4.629792 24.799205 4.7734375 25.597656 C 4.9170828 26.396109 4.1818429 26.537421 4.3945313 27.320313 C 4.6072198 28.103207 5.3116842 27.853855 5.5917969 28.615234 C 5.8719097 29.37661 5.1741269 29.642886 5.5195313 30.376953 C 5.8649363 31.111019 6.515759 30.744143 6.9238281 31.445313 C 7.331897 32.146482 6.6905764 32.528468 7.1582031 33.191406 C 7.6258301 33.854341 8.2029356 33.380343 8.7265625 34 C 9.2501892 34.619657 8.6860721 35.108026 9.2617188 35.679688 C 9.8373597 36.25135 10.32204 35.685786 10.945313 36.205078 C 11.568587 36.724393 11.097509 37.302608 11.763672 37.765625 C 12.429836 38.228644 12.809689 37.585084 13.513672 37.988281 C 14.217655 38.391476 13.855353 39.04446 14.591797 39.384766 C 15.328241 39.725071 15.590214 39.025955 16.353516 39.300781 C 17.116818 39.575607 16.871901 40.281028 17.65625 40.488281 C 18.440601 40.695536 18.577525 39.961506 19.376953 40.099609 C 20.176383 40.237721 20.05681 40.977018 20.865234 41.044922 C 21.673655 41.112832 21.680923 40.364143 22.492188 40.361328 C 23.303453 40.358528 23.315116 41.104758 24.123047 41.03125 C 24.93098 40.95774 24.807018 40.221772 25.605469 40.078125 C 26.403921 39.93448 26.547186 40.667768 27.330078 40.455078 C 28.112973 40.242391 27.861669 39.537924 28.623047 39.257813 C 29.384424 38.9777 29.65265 39.677426 30.386719 39.332031 C 31.120785 38.986626 30.751956 38.335803 31.453125 37.927734 C 32.154296 37.519664 32.538237 38.159033 33.201172 37.691406 C 33.864108 37.22378 33.390108 36.646672 34.009766 36.123047 C 34.629423 35.599421 35.117792 36.163524 35.689453 35.587891 C 36.261114 35.01225 35.693617 34.527571 36.212891 33.904297 C 36.732207 33.281023 37.312371 33.754054 37.775391 33.087891 C 38.238409 32.421728 37.594851 32.041872 37.998047 31.337891 C 38.401244 30.633907 39.054224 30.996211 39.394531 30.259766 C 39.734836 29.523321 39.03572 29.261347 39.310547 28.498047 C 39.585372 27.734744 40.290794 27.979664 40.498047 27.195313 C 40.705299 26.410964 39.971272 26.274037 40.109375 25.474609 C 40.247476 24.675181 40.982877 24.79475 41.050781 23.986328 C 41.118691 23.177904 40.371956 23.170639 40.369141 22.359375 C 40.366341 21.548109 41.114525 21.536449 41.041016 20.728516 C 40.967506 19.920583 40.229585 20.042593 40.085938 19.244141 C 39.942293 18.445689 40.675578 18.304378 40.462891 17.521484 C 40.250203 16.738589 39.547691 16.98794 39.267578 16.226563 C 38.987466 15.465185 39.683299 15.19891 39.337891 14.464844 C 38.992486 13.730776 38.343617 14.097654 37.935547 13.396484 C 37.527479 12.695314 38.1688 12.313326 37.701172 11.650391 C 37.233546 10.987455 36.656439 11.461454 36.132813 10.841797 C 35.609184 10.222134 36.173304 9.7337705 35.597656 9.1621094 C 35.022015 8.5904428 34.537336 9.1560342 33.914063 8.6367188 C 33.29079 8.117403 33.761867 7.5372366 33.095703 7.0742188 C 32.42954 6.6112009 32.049686 7.2567115 31.345703 6.8535156 C 30.641719 6.4503196 31.005977 5.7953835 30.269531 5.4550781 C 29.533087 5.1147727 29.271115 5.815841 28.507813 5.5410156 C 27.744512 5.2661905 27.987475 4.560769 27.203125 4.3535156 C 26.418774 4.1462622 26.283804 4.8802916 25.484375 4.7421875 C 24.684945 4.6040835 24.802566 3.8647792 23.994141 3.796875 z M 22.400391 8.1484375 A 14.249999 14.249999 0 0 1 36.650391 22.398438 A 14.249999 14.249999 0 0 1 22.400391 36.648438 A 14.249999 14.249999 0 0 1 8.1503906 22.398438 A 14.249999 14.249999 0 0 1 22.400391 8.1484375 z " /><path
   id="path1-0"
   style="fill:#5e5e5e;fill-opacity:1;stroke-width:0.377954;-inkscape-stroke:none"
   inkscape:transform-center-x="2.8858292"
   inkscape:transform-center-y="-2.2225249"
   d="M 23.993415,3.7985289 C 23.184996,3.7306262 23.179947,4.4765144 22.368686,4.4793279 21.557424,4.482141 21.545914,3.7373956 20.737984,3.8109048 19.930056,3.8844135 20.051965,4.6195452 19.253517,4.7631897 18.455069,4.9068344 18.313595,4.175472 17.530705,4.3881593 16.747816,4.6008465 16.997318,5.3046385 16.235945,5.5847498 15.474572,5.864861 15.208347,5.165873 14.474284,5.5112765 13.740222,5.8566799 14.107372,6.5070617 13.406206,6.9151285 12.705041,7.3231954 12.320132,6.6818146 11.657201,7.1494394 10.994269,7.6170642 11.470856,8.194257 10.851203,8.7178803 10.231548,9.2415041 9.7405878,8.6758931 9.1689297,9.2515264 8.5972704,9.8271631 9.1669936,10.314288 8.6476736,10.937558 8.1283603,11.560828 7.5477391,11.088456 7.0847238,11.754615 6.6217085,12.420776 7.2670403,12.799513 6.8638469,13.503494 6.4606527,14.207473 5.8060037,13.8457 5.4657005,14.58214 c -0.3403042,0.73644 0.3605534,0.996919 0.08573,1.760218 -0.2748237,0.763297 -0.9817329,0.519206 -1.1889845,1.303551 -0.2072526,0.784347 0.5273476,0.922024 0.3892448,1.721448 -0.1381031,0.799426 -0.8767002,0.681057 -0.9446036,1.489477 -0.067903,0.808419 0.6797411,0.815404 0.6825549,1.626666 0.00281,0.811261 -0.7437774,0.822684 -0.6702693,1.630611 0.073509,0.80793 0.8105764,0.684263 0.9542212,1.482711 0.1436447,0.798449 -0.591499,0.941588 -0.378812,1.724476 0.2126877,0.782891 0.918325,0.533475 1.1984362,1.29485 0.2801114,0.761373 -0.4169411,1.025843 -0.071532,1.759906 0.3454034,0.734063 0.9956939,0.368759 1.4037611,1.069925 0.4080664,0.701166 -0.2331317,1.082379 0.2344924,1.745314 0.4676245,0.662931 1.04288,0.1881 1.5665041,0.807753 0.5236241,0.619654 -0.040056,1.108859 0.5355828,1.680517 0.5756375,0.571659 1.0625814,0.0056 1.6858514,0.524949 0.62327,0.519313 0.150989,1.098089 0.817148,1.561104 0.66616,0.463016 1.044808,-0.180472 1.748787,0.222723 0.70398,0.403193 0.342296,1.055996 1.078735,1.3963 0.736441,0.340304 0.996832,-0.358708 1.760129,-0.08389 0.763299,0.274825 0.519206,0.981733 1.303552,1.188985 0.784347,0.207254 0.922115,-0.529194 1.721539,-0.39109 0.799425,0.13811 0.679211,0.876609 1.48763,0.944513 0.808418,0.06791 0.81716,-0.677803 1.62842,-0.680618 0.811262,-0.0028 0.822775,0.741931 1.630703,0.668424 0.807928,-0.07351 0.684173,-0.808731 1.482621,-0.952376 0.798447,-0.143645 0.939922,0.587718 1.722811,0.37503 0.78289,-0.212686 0.533386,-0.916481 1.29476,-1.196591 0.761373,-0.280111 1.027596,0.418872 1.761661,0.07348 0.734062,-0.345404 0.366914,-0.995785 1.068079,-1.403852 0.701167,-0.408068 1.084228,0.233223 1.747158,-0.234402 0.662932,-0.467623 0.188189,-1.044728 0.807844,-1.568351 0.619653,-0.523622 1.10886,0.04005 1.680518,-0.535581 0.571658,-0.575639 0.0037,-1.060825 0.523012,-1.684096 0.519314,-0.623272 1.099933,-0.150898 1.56295,-0.817057 0.463015,-0.666159 -0.180471,-1.044811 0.222723,-1.748788 0.403195,-0.70398 1.056002,-0.342295 1.396302,-1.078736 0.340301,-0.736442 -0.358622,-0.998678 -0.0838,-1.761974 0.274818,-0.763299 0.979803,-0.51745 1.187052,-1.301796 0.207258,-0.784345 -0.527354,-0.922025 -0.389246,-1.721448 0.1381,-0.799424 0.874856,-0.681149 0.942759,-1.489568 0.06789,-0.80842 -0.679734,-0.815405 -0.682556,-1.626666 -0.0028,-0.811262 0.745626,-0.822591 0.672114,-1.630519 -0.07351,-0.80793 -0.810588,-0.684266 -0.954226,-1.482712 -0.143648,-0.798448 0.589653,-0.941678 0.376972,-1.724567 -0.212689,-0.782891 -0.916481,-0.533386 -1.196592,-1.294759 -0.280111,-0.761374 0.416942,-1.025843 0.07153,-1.759906 -0.345404,-0.734063 -0.995696,-0.368759 -1.403763,-1.069925 -0.408066,-0.701169 0.23498,-1.082293 -0.232645,-1.745225 -0.467624,-0.662933 -1.044637,-0.190036 -1.56826,-0.80969 -0.52362,-0.619652 0.04007,-1.1088585 -0.535578,-1.6805165 C 35.023085,8.588708 34.537897,9.1566721 33.914627,8.6373595 33.291358,8.1180466 33.761884,7.5373345 33.095723,7.0743193 32.429564,6.6113038 32.050824,7.256636 31.346845,6.8534422 30.642865,6.4502484 31.006487,5.7956901 30.270046,5.4553866 29.533606,5.115083 29.271279,5.81585 28.507981,5.5410261 27.744684,5.2662023 27.988776,4.5592939 27.204429,4.3520416 26.420082,4.1447893 26.284161,4.8813261 25.484736,4.7432228 24.685311,4.6051196 24.801835,3.8664328 23.993415,3.7985289 Z m 0.02302,0.4359692 c 0.791461,0.06648 0.676256,0.7912446 1.45891,0.9264503 0.782653,0.1352061 0.916185,-0.5847304 1.684077,-0.3818261 0.767891,0.2029041 0.529755,0.8945707 1.277039,1.1636288 0.747285,0.2690582 1.002128,-0.4170137 1.723119,-0.083849 0.720991,0.3331641 0.365042,0.9726086 1.054252,1.3673434 0.68921,0.3947349 1.061712,-0.2359912 1.713895,0.2173104 0.652186,0.4533013 0.191882,1.0204897 0.802074,1.5289077 0.610194,0.5084176 1.08398,-0.045853 1.64754,0.5138171 0.563568,0.5596653 0.01174,1.0381583 0.52438,1.6448113 0.512637,0.606655 1.078043,0.142425 1.535849,0.791447 0.457814,0.649023 -0.172523,1.023332 0.226982,1.709787 0.399507,0.686456 1.037157,0.327662 1.375313,1.046325 0.338162,0.718662 -0.34405,0.979433 -0.06981,1.724832 0.274239,0.7454 0.961948,0.501092 1.170166,1.267557 0.208219,0.766465 -0.510255,0.906225 -0.369613,1.687921 0.140623,0.781696 0.863391,0.661202 0.935365,1.45218 0.07196,0.790979 -0.66029,0.801836 -0.657475,1.596082 0.0028,0.794239 0.734064,0.801164 0.667572,1.592623 -0.06647,0.791457 -0.787469,0.674593 -0.922671,1.457246 -0.13521,0.782651 0.584649,0.918032 0.381741,1.685922 -0.202908,0.767891 -0.894491,0.527907 -1.163538,1.275194 -0.269072,0.74728 0.415168,1.002037 0.082,1.723028 -0.333158,0.720991 -0.972699,0.366886 -1.367435,1.056097 -0.394735,0.689208 0.235991,1.061713 -0.217311,1.713898 -0.453303,0.652183 -1.022244,0.18994 -1.530663,0.800137 -0.508409,0.610194 0.04954,1.084158 -0.510125,1.647719 -0.559665,0.56355 -1.040004,0.01166 -1.646657,0.524292 -0.606655,0.512637 -0.140574,1.078126 -0.7896,1.535938 -0.649022,0.457814 -1.025267,-0.17077 -1.711723,0.228738 -0.686455,0.399504 -0.325817,1.037247 -1.04448,1.375405 -0.718664,0.338156 -0.981188,-0.345989 -1.726588,-0.07176 -0.7454,0.274233 -0.499246,0.962036 -1.265712,1.170261 -0.766465,0.208226 -0.906314,-0.508404 -1.68801,-0.367774 -0.781697,0.140633 -0.661112,0.861552 -1.452089,0.93352 -0.790979,0.07197 -0.801932,-0.658385 -1.596173,-0.655627 -0.794242,0.0028 -0.801167,0.734055 -1.592623,0.667572 -0.791459,-0.06648 -0.676348,-0.789392 -1.459002,-0.924605 -0.782651,-0.135205 -0.916185,0.584733 -1.684076,0.381826 -0.767891,-0.202904 -0.527909,-0.894479 -1.275194,-1.163538 -0.747283,-0.269057 -1.003885,0.415077 -1.724875,0.08191 -0.72099,-0.333165 -0.365041,-0.972609 -1.05425,-1.367343 -0.68921,-0.394737 -1.061712,0.235992 -1.713896,-0.217312 -0.652183,-0.453299 -0.190033,-1.020399 -0.800228,-1.528816 -0.610195,-0.508412 -1.085915,0.0476 -1.6494751,-0.512062 C 9.0298537,34.890054 9.5817562,34.409716 9.0691226,33.803063 8.5564834,33.196409 7.9928435,33.662579 7.5350303,33.013553 7.0772161,32.364526 7.7038602,31.990039 7.3043546,31.303584 6.9048491,30.617129 6.2690447,30.976013 5.9308876,30.25735 5.5927343,29.538688 6.2749388,29.277916 6.0006993,28.532517 5.7264646,27.787116 5.0369095,28.031333 4.8286843,27.264869 4.6204591,26.498406 5.3389324,26.358646 5.1983019,25.576948 5.0576704,24.795252 4.3385948,24.915929 4.2666284,24.124949 4.1946619,23.333972 4.9250136,23.323018 4.9222553,22.528777 4.919497,21.734535 4.1863652,21.727522 4.2528388,20.936063 4.3193218,20.144605 5.0421468,20.261562 5.1773521,19.478908 5.3125584,18.696255 4.5945578,18.560967 4.7974626,17.793076 5.0003665,17.025187 5.6919438,17.265167 5.9610015,16.517883 6.2300592,15.770599 5.5440773,15.513909 5.8772419,14.792918 6.2104065,14.071929 6.8498502,14.427877 7.2445855,13.738667 7.6393206,13.049456 7.0085949,12.676956 7.4618959,12.024771 7.9151977,11.372588 8.4822953,11.834735 8.9907134,11.224543 9.4991326,10.614348 8.9431082,10.138627 9.5027749,9.5750673 10.06244,9.0115102 10.542686,9.5652601 11.149341,9.0526222 11.755994,8.5399843 11.289915,7.9744979 11.938942,7.5166837 12.587966,7.0588696 12.9643,7.685605 13.650756,7.2860993 c 0.686455,-0.3995058 0.325726,-1.0354008 1.044388,-1.3735579 0.718662,-0.3381571 0.981187,0.3459875 1.726588,0.071753 0.745399,-0.2742346 0.501184,-0.9637902 1.267649,-1.1720153 0.766464,-0.2082251 0.904467,0.5083126 1.686165,0.3676815 0.781695,-0.1406309 0.662867,-0.8596162 1.453844,-0.9315828 0.790979,-0.071967 0.801932,0.6583808 1.596172,0.6556269 0.794242,-0.00275 0.799411,-0.735986 1.590869,-0.6695074 z" /><rect
   style="fill:#0e0e0e;fill-opacity:1;stroke-width:0.377953;-inkscape-stroke:none"
   id="rect1"
   width="4.7942915"
   height="5.435883"
   x="20.003248"
   y="4.012027e-08"
   ry="0.34802911"
   rx="0.34802908" /><rect
   style="fill:#ffffff;fill-opacity:1;stroke-width:0.377954;-inkscape-stroke:none"
   id="rect2"
   width="1.6697655"
   height="4.5126076"
   x="21.565512"
   y="0"
   ry="0"
   rx="0" /><rect
   style="fill:#e6e6e6;fill-opacity:1;stroke-width:0.377954;-inkscape-stroke:none"
   id="rect2-4"
   width="1.6697655"
   height="2.0219185"
   x="21.565512"
   y="0"
   ry="0"
   rx="0" /></g>
</svg>
