<?xml version="1.0" encoding="UTF-8" standalone="no"?>
<!-- Created with Inkscape (http://www.inkscape.org/) -->

<svg
   width="7.6999998mm"
   height="7.6999998mm"
   viewBox="0 0 7.6999995 7.6999997"
   version="1.1"
   id="svg1110"
   inkscape:version="1.1.1 (3bf5ae0d25, 2021-09-20)"
   sodipodi:docname="square_light_off.svg"
   xmlns:inkscape="http://www.inkscape.org/namespaces/inkscape"
   xmlns:sodipodi="http://sodipodi.sourceforge.net/DTD/sodipodi-0.dtd"
   xmlns:xlink="http://www.w3.org/1999/xlink"
   xmlns="http://www.w3.org/2000/svg"
   xmlns:svg="http://www.w3.org/2000/svg">
  <sodipodi:namedview
     id="namedview1112"
     pagecolor="#ffffff"
     bordercolor="#666666"
     borderopacity="1.0"
     inkscape:pageshadow="2"
     inkscape:pageopacity="0.0"
     inkscape:pagecheckerboard="0"
     inkscape:document-units="mm"
     showgrid="false"
     units="mm"
     inkscape:zoom="32"
     inkscape:cx="11.265625"
     inkscape:cy="18.09375"
     inkscape:window-width="3840"
     inkscape:window-height="2066"
     inkscape:window-x="2869"
     inkscape:window-y="-11"
     inkscape:window-maximized="1"
     inkscape:current-layer="layer1"
     width="19.276px"
     showguides="true"
     inkscape:guide-bbox="true" />
  <defs
     id="defs1107">
    <linearGradient
       inkscape:collect="always"
       id="linearGradient25341">
      <stop
         style="stop-color:#4a4a4a;stop-opacity:1"
         offset="0"
         id="stop25337" />
      <stop
         style="stop-color:#343434;stop-opacity:1"
         offset="1"
         id="stop25339" />
    </linearGradient>
    <linearGradient
       inkscape:collect="always"
       id="linearGradient24870">
      <stop
         style="stop-color:#7c7c7c;stop-opacity:1"
         offset="0"
         id="stop24866" />
      <stop
         style="stop-color:#343434;stop-opacity:1"
         offset="1"
         id="stop24868" />
    </linearGradient>
    <linearGradient
       inkscape:collect="always"
       id="linearGradient23059">
      <stop
         style="stop-color:#a2a2a2;stop-opacity:1;"
         offset="0"
         id="stop23055" />
      <stop
         style="stop-color:#343434;stop-opacity:1"
         offset="1"
         id="stop23057" />
    </linearGradient>
    <linearGradient
       inkscape:collect="always"
       id="linearGradient22511">
      <stop
         style="stop-color:#686868;stop-opacity:1;"
         offset="0"
         id="stop22507" />
      <stop
         style="stop-color:#343434;stop-opacity:1"
         offset="1"
         id="stop22509" />
    </linearGradient>
    <linearGradient
       inkscape:collect="always"
       xlink:href="#linearGradient22511"
       id="linearGradient22513"
       x1="5.4699264"
       y1="0.35675177"
       x2="5.5897965"
       y2="0.22674249"
       gradientUnits="userSpaceOnUse"
       gradientTransform="matrix(0.74676383,0,0,0.74689804,0.0250001,0.0250001)" />
    <linearGradient
       inkscape:collect="always"
       xlink:href="#linearGradient23059"
       id="linearGradient23061"
       x1="0.30520061"
       y1="0.31017932"
       x2="0.13326685"
       y2="0.17607637"
       gradientUnits="userSpaceOnUse"
       gradientTransform="matrix(0.74676383,0,0,0.74689804,0.0250001,0.0250001)" />
    <linearGradient
       inkscape:collect="always"
       xlink:href="#linearGradient24870"
       id="linearGradient22513-6"
       x1="5.4450278"
       y1="5.5250001"
       x2="5.5732589"
       y2="5.6397982"
       gradientUnits="userSpaceOnUse"
       gradientTransform="matrix(0.74676383,0,0,0.74689804,0.0250001,0.0250001)" />
    <linearGradient
       inkscape:collect="always"
       xlink:href="#linearGradient25341"
       id="linearGradient22513-6-3"
       x1="0.32500005"
       y1="5.5250001"
       x2="0.19071271"
       y2="5.6541905"
       gradientUnits="userSpaceOnUse"
       gradientTransform="matrix(0.74676383,0,0,0.74689804,0.0250001,0.0250001)" />
  </defs>
  <g
     inkscape:label="Layer 1"
     inkscape:groupmode="layer"
     id="layer1">
    <g
       id="g964"
       transform="matrix(1.3391115,0,0,1.3388709,-0.03347792,-0.0334719)"
       style="stroke-width:0.746831">
      <rect
         style="fill:#343434;fill-opacity:1;fill-rule:evenodd;stroke-width:0.399555;stroke-linejoin:round"
         id="rect1898"
         width="5.75"
         height="5.75"
         x="0.025000095"
         y="0.025000095"
         rx="0.14935276"
         ry="0.14937961" />
      <path
         id="rect1898-5"
         style="fill:#272727;fill-opacity:1;fill-rule:evenodd;stroke-width:0.399555;stroke-linejoin:round"
         d="M 3.3324675,2.5874655 5.671312,0.14481448 c 0.07613,-0.07950904 0.1037908,0.014147 0.1037694,0.12415343 L 5.7740514,5.5775474 C 5.77403,5.6875538 5.6791614,5.7761149 5.5689962,5.7761149 H 0.2496475 c -0.11016513,0 -0.18419009,-0.035526 -0.10376938,-0.1107176 L 2.9445342,3.0487209 C 3.0249554,2.973529 3.2563398,2.6669721 3.3324675,2.5874655 Z"
         sodipodi:nodetypes="sssssssss" />
      <rect
         style="fill:#4b4b4b;fill-opacity:1;fill-rule:evenodd;stroke-width:0.399555;stroke-linejoin:round"
         id="rect1898-9-78-3"
         width="5.1500001"
         height="5.1999998"
         x="0.32500005"
         y="0.32500029"
         rx="0.14935277"
         ry="0.14937961"
         inkscape:label="inner shadow" />
      <rect
         style="fill:#242424;fill-opacity:1;fill-rule:evenodd;stroke-width:0.399555;stroke-linejoin:round"
         id="rect1898-9-78"
         width="5.0480199"
         height="5.098"
         x="0.37599015"
         y="0.37599039"
         rx="0.14935276"
         ry="0.1493796"
         inkscape:label="inner shadow" />
      <rect
         style="fill:#767676;fill-opacity:1;fill-rule:evenodd;stroke-width:0.399555;stroke-linejoin:round"
         id="rect1898-9-78-7"
         width="4.8239999"
         height="4.8940001"
         x="0.48800015"
         y="0.45300007"
         rx="0.097079284"
         ry="0.097096734" />
      <rect
         style="fill:#565656;fill-opacity:1;fill-rule:evenodd;stroke-width:0.399556;stroke-linejoin:round"
         id="rect7626"
         width="4.5911489"
         height="4.6409998"
         x="0.60442567"
         y="0.58999997" />
      <rect
         style="fill:#686868;fill-opacity:1;fill-rule:evenodd;stroke-width:0.399556;stroke-linejoin:round"
         id="rect7626-1"
         width="4.4499998"
         height="4.5"
         x="0.67500019"
         y="0.66057384" />
      <rect
         style="fill:#767676;fill-opacity:1;fill-rule:evenodd;stroke-width:0.399555;stroke-linejoin:round"
         id="rect1898-9-78-7-3"
         width="4.390667"
         height="4.440659"
         x="0.70466661"
         y="0.69024432" />
      <ellipse
         style="fill:#787878;fill-opacity:1;fill-rule:evenodd;stroke-width:0.399555;stroke-linejoin:round"
         id="path9179-9"
         cx="2.9000001"
         cy="2.9000001"
         rx="1.9156981"
         ry="1.9156978" />
      <ellipse
         style="fill:#797979;fill-opacity:1;fill-rule:evenodd;stroke-width:0.399555;stroke-linejoin:round"
         id="path9179"
         cx="2.9496095"
         cy="2.8669271"
         rx="1.9156981"
         ry="1.9156978" />
      <path
         id="path9179-22"
         style="fill:#7c7c7c;fill-rule:evenodd;stroke-width:0.399555;stroke-linejoin:round"
         d="m 4.6325734,2.6367675 c 0,0.8740655 -0.8139697,1.8693221 -1.6880352,1.8693221 -0.8740656,0 -1.3734029,-0.7339824 -1.5826358,-1.5826356 -0.40051786,-1.6245095 0.8139697,-1.869322 1.6880353,-1.869322 0.8740656,0 1.5826357,0.7085701 1.5826357,1.5826355 z"
         sodipodi:nodetypes="sssss" />
      <path
         id="path9179-2"
         style="fill:#7e7e7e;fill-rule:evenodd;stroke-width:0.399555;stroke-linejoin:round"
         d="M 4.3392765,2.437278 C 4.3832035,3.2784586 3.5847639,3.8106705 2.8141087,3.9624457 1.9876569,4.1252096 1.2512117,3.4324274 1.4870918,2.4246301 1.6709611,1.6390487 1.8031236,1.2989278 2.7677329,1.2114447 3.5576643,1.1398036 4.2886847,1.4684718 4.3392765,2.437278 Z"
         sodipodi:nodetypes="sssss" />
      <path
         id="path9179-2-4"
         style="fill:#808080;fill-rule:evenodd;stroke-width:0.399555;stroke-linejoin:round"
         d="m 3.7940017,2.3123247 c 0,0.511392 -0.4019173,0.7320222 -0.9259573,0.9259572 C 2.3884413,3.4157719 1.8493356,2.8532286 1.9420871,2.3123247 2.0285167,1.8082893 2.3619886,1.3126823 2.8680444,1.3863675 3.678771,1.5044148 3.7940017,1.8009326 3.7940017,2.3123247 Z"
         sodipodi:nodetypes="sssss" />
      <path
         id="path9179-2-9"
         style="fill:#848383;fill-rule:evenodd;stroke-width:0.399555;stroke-linejoin:round"
         d="m 3.5722613,2.1713783 c 0,0.3533336 -0.4047254,0.5765275 -0.6685634,0.6397671 C 2.544631,2.8972107 2.3447499,2.5289279 2.2351344,2.1713783 2.1315692,1.8335634 2.5628013,1.3897458 2.9036979,1.5316112 3.521678,1.7887859 3.5722613,1.8180447 3.5722613,2.1713783 Z"
         sodipodi:nodetypes="sssss" />
      <rect
         style="fill:#606060;fill-opacity:0.712069;fill-rule:evenodd;stroke-width:0.399555;stroke-linejoin:round"
         id="rect12579"
         width="1.6530458"
         height="0.47999999"
         x="2.114403"
         y="4.8639998" />
      <rect
         style="fill:#606060;fill-opacity:0.667797;fill-rule:evenodd;stroke-width:0.399555;stroke-linejoin:round"
         id="rect12579-4"
         width="1.6530458"
         height="0.43971914"
         x="2.0734773"
         y="0.50599998" />
      <path
         id="path18438"
         style="fill:url(#linearGradient23061);fill-opacity:1;fill-rule:evenodd;stroke-width:0.399554;stroke-linejoin:round"
         d="m 0.13357406,0.17799927 c -0.007192,-0.00513 -0.007712,-0.0309334 0.005005,-0.0205665 0.0414388,0.0337897 0.0760092,0.0483934 0.10966265,0.0886591 0.0223449,0.0267342 0.0533804,0.0402786 0.0788715,0.0893215 0.009246,0.0177851 -0.0297303,0.0262252 -0.0444437,0.0134282 -0.0382768,-0.0255249 -0.0356365,-0.0373049 -0.0698348,-0.0674277 -0.0214368,-0.0222249 -0.0620845,-0.0782094 -0.0792607,-0.1034146 z"
         sodipodi:nodetypes="sssssss" />
      <path
         id="path18438-9"
         style="fill:url(#linearGradient22513);fill-opacity:1;fill-rule:evenodd;stroke-width:0.399555;stroke-linejoin:round"
         d="m 5.5897944,0.22297457 c 0.0036,-0.004894 0.019707,-0.004005 0.012536,0.004582 -0.023373,0.027977 -0.034407,0.0519785 -0.06138,0.0740738 -0.017909,0.0146707 -0.028084,0.0361966 -0.06007,0.0520288 -0.011599,0.005743 -0.014679,-0.0225326 -0.00588,-0.0324266 0.018046,-0.0261189 0.025239,-0.0236573 0.045922,-0.046637 0.015048,-0.0142416 0.052207,-0.0405702 0.068874,-0.0516208 z"
         sodipodi:nodetypes="sssssss" />
      <path
         id="path18438-9-8"
         style="fill:url(#linearGradient22513-6);fill-opacity:1;fill-rule:evenodd;stroke-width:0.399555;stroke-linejoin:round"
         d="m 5.5787146,5.6449544 c 0.00509,0.00375 0.00418,0.020555 -0.00477,0.013075 -0.029139,-0.024379 -0.054136,-0.035889 -0.07715,-0.064022 -0.01528,-0.01868 -0.0377,-0.029294 -0.054189,-0.062656 -0.00598,-0.012098 0.023469,-0.015311 0.033773,-0.00613 0.027203,0.018822 0.024639,0.026326 0.048573,0.047899 0.014833,0.015695 0.042255,0.054454 0.053764,0.071839 z"
         sodipodi:nodetypes="sssssss" />
      <path
         id="path18438-9-8-6"
         style="fill:url(#linearGradient22513-6-3);fill-opacity:1;fill-rule:evenodd;stroke-width:0.399555;stroke-linejoin:round"
         d="m 0.21149525,5.6247481 c -0.003536,0.00494 -0.019653,0.00427 -0.0125946,-0.00442 0.0230062,-0.028279 0.0337273,-0.052422 0.0604099,-0.074868 0.0177162,-0.014903 0.0276106,-0.03656 0.0593875,-0.052808 0.0115232,-0.00589 0.0149716,0.02234 0.006302,0.032348 -0.0177039,0.026352 -0.0249294,0.023984 -0.045311,0.047232 -0.014861,0.014437 -0.0516746,0.041247 -0.0681961,0.052515 z"
         sodipodi:nodetypes="sssssss" />
    </g>
  </g>
</svg>
