<?xml version="1.0" encoding="UTF-8" standalone="no"?>
<!-- Created with Inkscape (http://www.inkscape.org/) -->

<svg
   width="19.275999"
   height="19.275999"
   viewBox="0 0 5.100108 5.1001081"
   version="1.1"
   id="svg1110"
   inkscape:version="1.1.1 (3bf5ae0d25, 2021-09-20)"
   sodipodi:docname="square_light_overlay3.svg"
   xmlns:inkscape="http://www.inkscape.org/namespaces/inkscape"
   xmlns:sodipodi="http://sodipodi.sourceforge.net/DTD/sodipodi-0.dtd"
   xmlns="http://www.w3.org/2000/svg"
   xmlns:svg="http://www.w3.org/2000/svg">
  <sodipodi:namedview
     id="namedview1112"
     pagecolor="#ffffff"
     bordercolor="#666666"
     borderopacity="1.0"
     inkscape:pageshadow="2"
     inkscape:pageopacity="0.0"
     inkscape:pagecheckerboard="0"
     inkscape:document-units="mm"
     showgrid="false"
     units="px"
     inkscape:zoom="24.886869"
     inkscape:cx="14.184187"
     inkscape:cy="9.9048218"
     inkscape:window-width="1682"
     inkscape:window-height="1111"
     inkscape:window-x="4440"
     inkscape:window-y="692"
     inkscape:window-maximized="0"
     inkscape:current-layer="layer1"
     width="19.276px" />
  <defs
     id="defs1107" />
  <g
     inkscape:label="Layer 1"
     inkscape:groupmode="layer"
     id="layer1">
    <path
       class="st0"
       d="M 4.883679,5.1001082 H 0.21642909 C 0.09683739,5.1001082 -1.0646858e-7,5.0030062 -1.0646858e-7,4.883679 V 0.21642909 C -1.0646858e-7,0.09683739 0.09683689,-1.0646858e-7 0.21642909,-1.0646858e-7 H 4.883679 c 0.1195917,0 0.2164292,0.0968379964686 0.2164292,0.21642919646858 V 4.883679 c 0,0.1193271 -0.097102,0.2164292 -0.2164292,0.2164292 z"
       id="path4"
       style="fill:#e8aa8c;stroke-width:0.264583" />
    <path
       class="st1"
       d="M 4.8802394,5.0418998 H 0.21986864 c -0.089429,0 -0.1616604,-0.072496 -0.1616604,-0.1616604 V 0.21986864 c 0,-0.089429 0.072496,-0.1616604 0.1616604,-0.1616604 H 4.8802394 c 0.089429,0 0.1616604,0.072496 0.1616604,0.1616604 V 4.8802394 c 0,0.089165 -0.072496,0.1616604 -0.1616604,0.1616604 z"
       id="path6"
       style="fill:#ffffff;stroke-width:0.264583" />
    <path
       class="st2"
       d="M 4.8654228,4.9125188 H 0.23468529 c -0.026194,0 -0.047096,-0.021167 -0.047096,-0.047096 V 0.23468529 c 0,-0.026194 0.021167,-0.047096 0.047096,-0.047096 H 4.8654228 c 0.026194,0 0.047096,0.021167 0.047096,0.047096 V 4.8654228 c 0,0.025929 -0.021167,0.047096 -0.047096,0.047096 z"
       id="path8"
       style="fill:#ffb88f;stroke-width:0.264583" />
    <path
       class="st3"
       d="M 4.7927946,4.8754769 H 0.30704884 c -0.045508,0 -0.08255,-0.037042 -0.08255,-0.08255 V 0.30718114 c 0,-0.045508 0.037042,-0.08255 0.08255,-0.08255 H 4.7930592 c 0.045508,0 0.08255,0.037042 0.08255,0.08255 V 4.7931915 c -2.646e-4,0.045244 -0.037306,0.082285 -0.082815,0.082285 z"
       id="path10"
       style="fill:#ffc09b;stroke-width:0.264583" />
    <path
       class="st4"
       d="M 4.7205634,4.838303 H 0.37954469 c -0.065087,0 -0.1177396,-0.052652 -0.1177396,-0.1177396 V 0.37954469 c 0,-0.0650875 0.052652,-0.1177396 0.1177396,-0.1177396 H 4.7205634 c 0.065087,0 0.1177396,0.052652 0.1177396,0.1177396 V 4.7205634 c 0,0.065088 -0.052652,0.1177396 -0.1177396,0.1177396 z"
       id="path12"
       style="fill:#ffc8a8;stroke-width:0.264583" />
    <path
       class="st5"
       d="M 4.6481998,4.801129 H 0.45190819 c -0.084402,0 -0.1529291,-0.068527 -0.1529291,-0.1529292 V 0.45190822 c 0,-0.0844021 0.068527,-0.15292913 0.1529291,-0.15292913 H 4.6481998 c 0.084402,0 0.1529292,0.0685271 0.1529292,0.15292913 V 4.6481998 c 0,0.084402 -0.068527,0.1529292 -0.1529292,0.1529292 z"
       id="path14"
       style="fill:#ffcfb4;stroke-width:0.264583" />
    <path
       class="st6"
       d="M 4.575704,4.7638228 H 0.52440409 c -0.1039813,0 -0.1881188,-0.084138 -0.1881188,-0.1881188 V 0.52440405 c 0,-0.10398125 0.084137,-0.18811875 0.1881188,-0.18811875 H 4.575704 c 0.1039813,0 0.1881188,0.0841375 0.1881188,0.18811875 V 4.575704 c 0,0.1039813 -0.084137,0.1881188 -0.1881188,0.1881188 z"
       id="path16"
       style="fill:#ffd7c0;stroke-width:0.264583" />
    <path
       class="st7"
       d="M 4.5033405,4.7269134 H 0.59676759 c -0.1232958,0 -0.2235729,-0.1000125 -0.2235729,-0.2235729 V 0.5967676 c 0,-0.12329583 0.1000125,-0.22357291 0.2235729,-0.22357291 H 4.5033405 c 0.1232958,0 0.2235729,0.10001249 0.2235729,0.22357291 v 3.9065729 c 0,0.1235604 -0.1000125,0.2235729 -0.2235729,0.2235729 z"
       id="path18"
       style="fill:#fedfcd;stroke-width:0.264583" />
    <path
       class="st8"
       d="M 4.4309769,4.6896071 H 0.66913114 c -0.142875,0 -0.2587625,-0.1158875 -0.2587625,-0.2587625 V 0.66926346 c 0,-0.142875 0.1158875,-0.2587625 0.2587625,-0.2587625 H 4.4309769 c 0.142875,0 0.2587625,0.1158875 0.2587625,0.2587625 V 4.4311092 C 4.6894748,4.5739842 4.5738519,4.6896071 4.4309769,4.6896071 Z"
       id="path20"
       style="fill:#fee7d9;stroke-width:0.264583" />
    <path
       class="st9"
       d="M 4.3584811,4.6524332 H 0.74162699 c -0.1624542,0 -0.2939521,-0.1314979 -0.2939521,-0.2939521 V 0.74162697 c 0,-0.16245416 0.1314979,-0.29395208 0.2939521,-0.29395208 H 4.3584811 c 0.1624542,0 0.2939521,0.13149792 0.2939521,0.29395208 V 4.3584811 c 0,0.1624542 -0.1314979,0.2939521 -0.2939521,0.2939521 z"
       id="path22"
       style="fill:#feeee5;stroke-width:0.264583" />
    <path
       class="st10"
       d="M 4.2861176,4.6152592 H 0.81399049 c -0.1817687,0 -0.3291416,-0.1473729 -0.3291416,-0.3291416 V 0.81399053 c 0,-0.18176874 0.1473729,-0.32914166 0.3291416,-0.32914166 H 4.2861176 c 0.1817687,0 0.3291416,0.14737292 0.3291416,0.32914166 V 4.2861176 c 0,0.1817687 -0.1473729,0.3291416 -0.3291416,0.3291416 z"
       id="path24"
       style="fill:#fef6f2;stroke-width:0.264583" />
    <path
       class="st11"
       d="M 4.213754,4.5780853 H 0.88635409 c -0.201348,0 -0.3643313,-0.163248 -0.3643313,-0.3643313 V 0.88635405 c 0,-0.20134792 0.1632479,-0.36433125 0.3643313,-0.36433125 H 4.213754 c 0.2013479,0 0.3643313,0.16324791 0.3643313,0.36433125 V 4.213754 c 0,0.2010833 -0.163248,0.3643313 -0.3643313,0.3643313 z"
       id="path26"
       style="fill:#fefefe;stroke-width:0.264583" />
  </g>
</svg>
