<?xml version="1.0" encoding="UTF-8" standalone="no"?>
<!-- Generator: Adobe Illustrator 26.0.3, SVG Export Plug-In . SVG Version: 6.00 Build 0)  -->

<svg
   version="1.1"
   id="Ebene_1"
   x="0px"
   y="0px"
   viewBox="0 0 19.276 19.276"
   style="enable-background:new 0 0 19.276 19.276;"
   xml:space="preserve"
   sodipodi:docname="square_light_overlay2.svg"
   inkscape:version="1.1.1 (3bf5ae0d25, 2021-09-20)"
   xmlns:inkscape="http://www.inkscape.org/namespaces/inkscape"
   xmlns:sodipodi="http://sodipodi.sourceforge.net/DTD/sodipodi-0.dtd"
   xmlns="http://www.w3.org/2000/svg"
   xmlns:svg="http://www.w3.org/2000/svg"><defs
   id="defs35" /><sodipodi:namedview
   id="namedview33"
   pagecolor="#ffffff"
   bordercolor="#666666"
   borderopacity="1.0"
   inkscape:pageshadow="2"
   inkscape:pageopacity="0.0"
   inkscape:pagecheckerboard="0"
   showgrid="false"
   inkscape:zoom="45.289481"
   inkscape:cx="9.6269594"
   inkscape:cy="9.6269594"
   inkscape:window-width="3840"
   inkscape:window-height="2066"
   inkscape:window-x="2869"
   inkscape:window-y="-11"
   inkscape:window-maximized="1"
   inkscape:current-layer="Ebene_1" />
<style
   type="text/css"
   id="style2">
	.st0{fill:#E8AA8C;}
	.st1{fill:#FFFFFF;}
	.st2{fill:#FFB88F;}
	.st3{fill:#FFC09B;}
	.st4{fill:#FFC8A8;}
	.st5{fill:#FFCFB4;}
	.st6{fill:#FFD7C0;}
	.st7{fill:#FEDFCD;}
	.st8{fill:#FEE7D9;}
	.st9{fill:#FEEEE5;}
	.st10{fill:#FEF6F2;}
	.st11{fill:#FEFEFE;}
</style>
<g
   id="g30">
	<path
   class="st0"
   d="M18.458,19.276H0.818C0.366,19.276,0,18.909,0,18.458V0.818C0,0.366,0.366,0,0.818,0h17.64   c0.452,0,0.818,0.366,0.818,0.818v17.64C19.276,18.909,18.909,19.276,18.458,19.276z"
   id="path4" />
	<path
   class="st1"
   d="M18.445,19.056H0.831c-0.338,0-0.611-0.274-0.611-0.611V0.831c0-0.338,0.274-0.611,0.611-0.611h17.614   c0.338,0,0.611,0.274,0.611,0.611v17.614C19.056,18.782,18.782,19.056,18.445,19.056z"
   id="path6" />
	<g
   id="g28">
		<path
   class="st2"
   d="M18.389,18.567H0.887c-0.099,0-0.178-0.08-0.178-0.178V0.887c0-0.099,0.08-0.178,0.178-0.178h17.502    c0.099,0,0.178,0.08,0.178,0.178v17.502C18.567,18.487,18.487,18.567,18.389,18.567z"
   id="path8" />
		<path
   class="st3"
   d="M18.115,18.427H1.161c-0.172,0-0.312-0.14-0.312-0.312V1.161c0-0.172,0.14-0.312,0.312-0.312h16.955    c0.172,0,0.312,0.14,0.312,0.312v16.955C18.427,18.287,18.287,18.427,18.115,18.427z"
   id="path10" />
		<path
   class="st4"
   d="M17.841,18.286H1.434c-0.246,0-0.445-0.199-0.445-0.445V1.434c0-0.246,0.199-0.445,0.445-0.445h16.407    c0.246,0,0.445,0.199,0.445,0.445v16.407C18.286,18.087,18.087,18.286,17.841,18.286z"
   id="path12" />
		<path
   class="st5"
   d="M17.568,18.146H1.708c-0.319,0-0.578-0.259-0.578-0.578V1.708c0-0.319,0.259-0.578,0.578-0.578h15.86    c0.319,0,0.578,0.259,0.578,0.578v15.86C18.146,17.887,17.887,18.146,17.568,18.146z"
   id="path14" />
		<path
   class="st6"
   d="M17.294,18.005H1.982c-0.393,0-0.711-0.318-0.711-0.711V1.982c0-0.393,0.318-0.711,0.711-0.711h15.312    c0.393,0,0.711,0.318,0.711,0.711v15.312C18.005,17.687,17.687,18.005,17.294,18.005z"
   id="path16" />
		<path
   class="st7"
   d="M17.02,17.865H2.255c-0.466,0-0.845-0.378-0.845-0.845V2.255c0-0.466,0.378-0.845,0.845-0.845H17.02    c0.466,0,0.845,0.378,0.845,0.845V17.02C17.865,17.487,17.487,17.865,17.02,17.865z"
   id="path18" />
		<path
   class="st8"
   d="M16.747,17.724H2.529c-0.54,0-0.978-0.438-0.978-0.978V2.529c0-0.54,0.438-0.978,0.978-0.978h14.218    c0.54,0,0.978,0.438,0.978,0.978v14.218C17.724,17.287,17.287,17.724,16.747,17.724z"
   id="path20" />
		<path
   class="st9"
   d="M16.473,17.584H2.803c-0.614,0-1.111-0.497-1.111-1.111V2.803c0-0.614,0.497-1.111,1.111-1.111h13.67    c0.614,0,1.111,0.497,1.111,1.111v13.67C17.584,17.087,17.087,17.584,16.473,17.584z"
   id="path22" />
		<path
   class="st10"
   d="M16.199,17.443H3.076c-0.687,0-1.244-0.557-1.244-1.244V3.076c0-0.687,0.557-1.244,1.244-1.244h13.123    c0.687,0,1.244,0.557,1.244,1.244v13.123C17.443,16.886,16.886,17.443,16.199,17.443z"
   id="path24" />
		<path
   class="st11"
   d="M15.926,17.303H3.35c-0.761,0-1.377-0.617-1.377-1.377V3.35c0-0.761,0.617-1.377,1.377-1.377h12.576    c0.761,0,1.377,0.617,1.377,1.377v12.576C17.303,16.686,16.686,17.303,15.926,17.303z"
   id="path26" />
	</g>
</g>
</svg>
