<?xml version="1.0" encoding="UTF-8" standalone="no"?>
<!-- Created with Inkscape (http://www.inkscape.org/) -->

<svg
   width="23.528"
   height="23.528"
   viewBox="0 0 6.2251167 6.2251169"
   version="1.1"
   id="svg5"
   inkscape:version="1.3.2 (091e20e, 2023-11-25, custom)"
   sodipodi:docname="voxglitch_input_port.svg"
   xmlns:inkscape="http://www.inkscape.org/namespaces/inkscape"
   xmlns:sodipodi="http://sodipodi.sourceforge.net/DTD/sodipodi-0.dtd"
   xmlns="http://www.w3.org/2000/svg"
   xmlns:svg="http://www.w3.org/2000/svg">
  <sodipodi:namedview
     id="namedview7"
     pagecolor="#ffffff"
     bordercolor="#666666"
     borderopacity="1.0"
     inkscape:pageshadow="2"
     inkscape:pageopacity="0.0"
     inkscape:pagecheckerboard="0"
     inkscape:document-units="mm"
     showgrid="false"
     units="px"
     width="23.528px"
     inkscape:zoom="6.2217171"
     inkscape:cx="-114.51822"
     inkscape:cy="-12.617096"
     inkscape:window-width="3840"
     inkscape:window-height="2054"
     inkscape:window-x="2869"
     inkscape:window-y="-11"
     inkscape:window-maximized="1"
     inkscape:current-layer="layer1"
     inkscape:showpageshadow="2"
     inkscape:deskcolor="#d1d1d1" />
  <defs
     id="defs2">
    <linearGradient
       id="SVGID_1_"
       gradientUnits="userSpaceOnUse"
       x1="11.7638"
       y1="4.1553001"
       x2="11.7638"
       y2="19.372299"
       gradientTransform="scale(0.26458333)">
      <stop
         offset="0.0082"
         style="stop-color:#CECAC4"
         id="stop16" />
      <stop
         offset="0.2878"
         style="stop-color:#D0CCC6"
         id="stop18" />
      <stop
         offset="0.3884"
         style="stop-color:#D6D3CC"
         id="stop20" />
      <stop
         offset="0.46"
         style="stop-color:#E1DED6"
         id="stop22" />
      <stop
         offset="0.4895"
         style="stop-color:#E8E6DD"
         id="stop24" />
      <stop
         offset="0.5229"
         style="stop-color:#DCDAD1"
         id="stop26" />
      <stop
         offset="0.5893"
         style="stop-color:#C9C8C0"
         id="stop28" />
      <stop
         offset="0.6686"
         style="stop-color:#BDBBB3"
         id="stop30" />
      <stop
         offset="0.7726"
         style="stop-color:#B5B4AC"
         id="stop32" />
      <stop
         offset="0.9956"
         style="stop-color:#B3B2AA"
         id="stop34" />
    </linearGradient>
    <linearGradient
       id="SVGID_00000047038915787705968990000011259669905003418006_"
       gradientUnits="userSpaceOnUse"
       x1="11.7638"
       y1="19.372299"
       x2="11.7638"
       y2="4.1553001"
       gradientTransform="scale(0.26458333)">
      <stop
         offset="0.0082"
         style="stop-color:#79736F"
         id="stop39" />
      <stop
         offset="1"
         style="stop-color:#FFFEF5"
         id="stop41" />
    </linearGradient>
    <linearGradient
       id="SVGID_00000068645528931996822400000017284500329001388976_"
       gradientUnits="userSpaceOnUse"
       x1="11.7638"
       y1="18.0977"
       x2="11.7638"
       y2="5.4298"
       gradientTransform="scale(0.26458333)">
      <stop
         offset="0.0042"
         style="stop-color:#AEAA9F"
         id="stop46" />
      <stop
         offset="1"
         style="stop-color:#B6AFA5"
         id="stop48" />
    </linearGradient>
    <linearGradient
       id="SVGID_00000120526625684598641970000015204641712266882721_"
       gradientUnits="userSpaceOnUse"
       x1="11.7638"
       y1="17.2932"
       x2="11.7638"
       y2="6.2343998"
       gradientTransform="scale(0.26458333)">
      <stop
         offset="0"
         style="stop-color:#8C8478"
         id="stop55" />
      <stop
         offset="1"
         style="stop-color:#716B5E"
         id="stop57" />
    </linearGradient>
  </defs>
  <g
     inkscape:label="Layer 1"
     inkscape:groupmode="layer"
     id="layer1">
    <circle
       cx="3.1125584"
       cy="3.1125584"
       r="3.1125584"
       id="circle4"
       style="fill:#000000;fill-opacity:1;stroke-width:0.264583" />
    <circle
       class="st0"
       cx="3.1125584"
       cy="3.1125584"
       r="2.9368751"
       id="circle6"
       style="fill:#4d4d4d;fill-opacity:1;stroke-width:0.264583;stroke:none" />
    <path
       class="st1"
       d="M 0.87973979,1.2295188 C 0.0097898,2.4021521 0.12991064,4.035425 1.1625794,5.0680937 2.1952482,6.1007625 3.8282565,6.2208833 5.0011544,5.3509333 3.8406919,6.3388875 2.1161378,6.2698312 1.0387544,5.1921833 -0.03862895,4.1145354 -0.10821436,2.3897167 0.87973979,1.2295188 Z"
       id="path8"
       style="fill:#353433;stroke-width:0.264583" />
    <path
       class="st2"
       d="M 5.8099857,2.1926021 C 5.3686607,1.0961688 4.3053003,0.37782504 3.1234065,0.37782504 c -1.1818937,0 -2.24525421,0.71807916 -2.6865792,1.81477706 0.38920208,-1.152525 1.4700251,-1.92828331 2.6865792,-1.92828331 1.2165542,0 2.2973771,0.77575831 2.6865792,1.92828331 z"
       id="path10"
       style="fill:#807f7d;stroke-width:0.264583" />
    <path
       class="st3"
       d="M 0.98874816,3.381375 C 1.1165419,4.4574354 2.0288253,5.2678541 3.112294,5.2678541 c 1.0834688,0 1.9960167,-0.8104187 2.1235458,-1.8864791 -0.0889,1.1070166 -1.0130895,1.9600333 -2.1235458,1.9600333 -1.1104562,0 -2.0346458,-0.8530167 -2.12354584,-1.9600333 z"
       id="path12"
       style="fill:#757573;stroke-width:0.264583" />
    <circle
       cx="3.1125584"
       cy="3.1125584"
       r="2.1071417"
       id="circle14"
       style="fill:#000000;fill-opacity:1;stroke-width:0.264583" />
    <circle
       class="st4"
       cx="3.1125584"
       cy="3.1125584"
       r="2.0129499"
       id="circle37"
       style="fill:url(#SVGID_1_);stroke-width:0.264583" />
    <path
       style="fill:url(#SVGID_00000047038915787705968990000011259669905003418006_);stroke-width:0.264583"
       d="m 5.1255086,3.1125583 c 0,1.1117792 -0.9011708,2.01295 -2.01295,2.01295 -1.1117791,0 -2.01295,-0.9011708 -2.01295,-2.01295 0,-1.1117791 0.9011709,-2.01295 2.01295,-2.01295 1.1117792,0 2.01295,0.9011709 2.01295,2.01295 z m -2.01295,-1.9126729 c -1.0562166,0 -1.9124084,0.8561917 -1.9124084,1.9124083 0,1.0562167 0.8561918,1.9124084 1.9124084,1.9124084 1.0562167,0 1.9124083,-0.8561917 1.9124083,-1.9124084 0,-1.0562166 -0.8561916,-1.9124083 -1.9124083,-1.9124083 z"
       id="path44" />
    <circle
       style="fill:url(#SVGID_00000068645528931996822400000017284500329001388976_);stroke-width:0.264583"
       cx="3.1125584"
       cy="3.1125584"
       r="1.6758709"
       id="circle51" />
    <circle
       style="fill:url(#SVGID_00000120526625684598641970000015204641712266882721_);stroke-width:0.264583"
       cx="3.1125584"
       cy="3.1125584"
       r="1.4628812"
       id="circle60" />
    <circle
       cx="3.1125584"
       cy="3.1125584"
       r="1.3509625"
       id="circle66"
       style="fill:#000000;fill-opacity:1;stroke-width:0.264583" />
    <path
       class="st13"
       d="M 0.40481271,2.2632458 C 0.37544401,2.413 0.35295441,2.5648708 0.33760851,2.7175354 0.32199811,2.8702 0.31353141,3.0236583 0.31220851,3.1760583 0.27146271,3.0345062 0.25849811,2.8731104 0.27490231,2.7111854 c 0.0164042,-0.161925 0.0613833,-0.3175 0.1299104,-0.4479396 z"
       id="path72"
       style="fill:#787775;stroke-width:0.264583" />
    <path
       class="st14"
       d="m 5.8496732,2.3661688 c 0.029369,0.1497541 0.051858,0.3016249 0.067204,0.4542895 0.01561,0.1526646 0.024077,0.3061229 0.0254,0.4585229 0.040746,-0.141552 0.05371,-0.3029479 0.037306,-0.4648729 -0.016404,-0.161925 -0.061383,-0.3175 -0.12991,-0.4479395 z"
       id="path76"
       style="fill:#82817f;stroke-width:0.264583" />
  </g>
</svg>
