<?xml version="1.0" encoding="UTF-8" standalone="no"?>
<!-- Created with Inkscape (http://www.inkscape.org/) -->

<svg
   width="23.528"
   height="23.528"
   viewBox="0 0 6.2251167 6.2251169"
   version="1.1"
   id="svg5"
   inkscape:version="1.1.1 (3bf5ae0d25, 2021-09-20)"
   sodipodi:docname="voxglitch_poly_port.svg"
   xmlns:inkscape="http://www.inkscape.org/namespaces/inkscape"
   xmlns:sodipodi="http://sodipodi.sourceforge.net/DTD/sodipodi-0.dtd"
   xmlns="http://www.w3.org/2000/svg"
   xmlns:svg="http://www.w3.org/2000/svg">
  <sodipodi:namedview
     id="namedview7"
     pagecolor="#ffffff"
     bordercolor="#666666"
     borderopacity="1.0"
     inkscape:pageshadow="2"
     inkscape:pageopacity="0.0"
     inkscape:pagecheckerboard="0"
     inkscape:document-units="mm"
     showgrid="false"
     units="px"
     width="23.528px"
     inkscape:zoom="35.195347"
     inkscape:cx="11.734506"
     inkscape:cy="18.894543"
     inkscape:window-width="3840"
     inkscape:window-height="2066"
     inkscape:window-x="2869"
     inkscape:window-y="-11"
     inkscape:window-maximized="1"
     inkscape:current-layer="layer1" />
  <defs
     id="defs2">
    <linearGradient
       id="SVGID_1_"
       gradientUnits="userSpaceOnUse"
       x1="11.7638"
       y1="4.1553001"
       x2="11.7638"
       y2="19.372299"
       gradientTransform="scale(0.26458333)">
      <stop
         offset="0.0082"
         style="stop-color:#CECAC4"
         id="stop16" />
      <stop
         offset="0.2878"
         style="stop-color:#D0CCC6"
         id="stop18" />
      <stop
         offset="0.3884"
         style="stop-color:#D6D3CC"
         id="stop20" />
      <stop
         offset="0.46"
         style="stop-color:#E1DED6"
         id="stop22" />
      <stop
         offset="0.4895"
         style="stop-color:#E8E6DD"
         id="stop24" />
      <stop
         offset="0.5229"
         style="stop-color:#DCDAD1"
         id="stop26" />
      <stop
         offset="0.5893"
         style="stop-color:#C9C8C0"
         id="stop28" />
      <stop
         offset="0.6686"
         style="stop-color:#BDBBB3"
         id="stop30" />
      <stop
         offset="0.7726"
         style="stop-color:#B5B4AC"
         id="stop32" />
      <stop
         offset="0.9956"
         style="stop-color:#B3B2AA"
         id="stop34" />
    </linearGradient>
    <linearGradient
       id="SVGID_00000047038915787705968990000011259669905003418006_"
       gradientUnits="userSpaceOnUse"
       x1="11.7638"
       y1="19.372299"
       x2="11.7638"
       y2="4.1553001"
       gradientTransform="scale(0.26458333)">
      <stop
         offset="0.0082"
         style="stop-color:#79736F"
         id="stop39" />
      <stop
         offset="1"
         style="stop-color:#FFFEF5"
         id="stop41" />
    </linearGradient>
    <linearGradient
       id="SVGID_00000068645528931996822400000017284500329001388976_"
       gradientUnits="userSpaceOnUse"
       x1="11.7638"
       y1="18.0977"
       x2="11.7638"
       y2="5.4298"
       gradientTransform="scale(0.26458333)">
      <stop
         offset="0.0042"
         style="stop-color:#AEAA9F"
         id="stop46" />
      <stop
         offset="1"
         style="stop-color:#B6AFA5"
         id="stop48" />
    </linearGradient>
    <linearGradient
       id="SVGID_00000120526625684598641970000015204641712266882721_"
       gradientUnits="userSpaceOnUse"
       x1="11.7638"
       y1="17.2932"
       x2="11.7638"
       y2="6.2343998"
       gradientTransform="scale(0.26458333)">
      <stop
         offset="0"
         style="stop-color:#8C8478"
         id="stop55" />
      <stop
         offset="1"
         style="stop-color:#716B5E"
         id="stop57" />
    </linearGradient>
  </defs>
  <g
     inkscape:label="Layer 1"
     inkscape:groupmode="layer"
     id="layer1">
    <circle
       cx="3.1125584"
       cy="3.1125584"
       r="3.1125584"
       id="circle4"
       style="fill:#000000;fill-opacity:1;stroke-width:0.264583" />
    <circle
       class="st0"
       cx="3.1125584"
       cy="3.1125584"
       r="2.9368751"
       id="circle6"
       style="opacity:1;fill:#5769a6;fill-opacity:1;stroke:none;stroke-width:0.264583" />
    <path
       class="st1"
       d="M 0.87973979,1.2295188 C 0.0097898,2.4021521 0.12991064,4.035425 1.1625794,5.0680937 2.1952482,6.1007625 3.8282565,6.2208833 5.0011544,5.3509333 3.8406919,6.3388875 2.1161378,6.2698312 1.0387544,5.1921833 -0.03862895,4.1145354 -0.10821436,2.3897167 0.87973979,1.2295188 Z"
       id="path8"
       style="fill:#353433;stroke-width:0.264583" />
    <path
       class="st2"
       d="M 5.8099857,2.1926021 C 5.3686607,1.0961688 4.3053003,0.37782504 3.1234065,0.37782504 c -1.1818937,0 -2.24525421,0.71807916 -2.6865792,1.81477706 0.38920208,-1.152525 1.4700251,-1.92828331 2.6865792,-1.92828331 1.2165542,0 2.2973771,0.77575831 2.6865792,1.92828331 z"
       id="path10"
       style="fill:#807f7d;stroke-width:0.264583" />
    <path
       class="st3"
       d="M 0.98874816,3.381375 C 1.1165419,4.4574354 2.0288253,5.2678541 3.112294,5.2678541 c 1.0834688,0 1.9960167,-0.8104187 2.1235458,-1.8864791 -0.0889,1.1070166 -1.0130895,1.9600333 -2.1235458,1.9600333 -1.1104562,0 -2.0346458,-0.8530167 -2.12354584,-1.9600333 z"
       id="path12"
       style="fill:#757573;stroke-width:0.264583" />
    <circle
       cx="3.1125584"
       cy="3.1125584"
       r="2.1071417"
       id="circle14"
       style="fill:#000000;fill-opacity:1;stroke-width:0.264583" />
    <circle
       class="st4"
       cx="3.1125584"
       cy="3.1125584"
       r="2.0129499"
       id="circle37"
       style="fill:url(#SVGID_1_);stroke-width:0.264583" />
    <path
       style="fill:url(#SVGID_00000047038915787705968990000011259669905003418006_);stroke-width:0.264583"
       d="m 5.1255086,3.1125583 c 0,1.1117792 -0.9011708,2.01295 -2.01295,2.01295 -1.1117791,0 -2.01295,-0.9011708 -2.01295,-2.01295 0,-1.1117791 0.9011709,-2.01295 2.01295,-2.01295 1.1117792,0 2.01295,0.9011709 2.01295,2.01295 z m -2.01295,-1.9126729 c -1.0562166,0 -1.9124084,0.8561917 -1.9124084,1.9124083 0,1.0562167 0.8561918,1.9124084 1.9124084,1.9124084 1.0562167,0 1.9124083,-0.8561917 1.9124083,-1.9124084 0,-1.0562166 -0.8561916,-1.9124083 -1.9124083,-1.9124083 z"
       id="path44" />
    <circle
       style="fill:url(#SVGID_00000068645528931996822400000017284500329001388976_);stroke-width:0.264583"
       cx="3.1125584"
       cy="3.1125584"
       r="1.6758709"
       id="circle51" />
    <circle
       class="st7"
       cx="4.7093186"
       cy="3.2604604"
       r="0.063499995"
       id="circle53"
       style="fill:#c4c1b9;stroke-width:0.264583" />
    <circle
       style="fill:url(#SVGID_00000120526625684598641970000015204641712266882721_);stroke-width:0.264583"
       cx="3.1125584"
       cy="3.1125584"
       r="1.4628812"
       id="circle60" />
    <path
       class="st9"
       d="M 4.8278523,3.3057042 C 4.8881773,2.6503312 4.5762336,2.0166542 4.0198148,1.6650229 3.4633961,1.3133917 2.7569586,1.3033375 2.1910149,1.6390938 2.7484919,1.2432771 3.4898544,1.2234333 4.067969,1.5885583 4.6460836,1.9536833 4.9461211,2.632075 4.8278523,3.3057042 Z"
       id="path62"
       style="fill:#787870;stroke-width:0.264583" />
    <path
       class="st10"
       d="M 1.3967357,2.9614812 C 1.3554607,3.7938604 1.9142607,4.537075 2.7254732,4.7286333 3.5366857,4.9201916 4.3688003,4.505325 4.7042919,3.7422666 4.4315065,4.587875 3.5549419,5.0823812 2.690019,4.8781229 1.8253607,4.6741291 1.2623273,3.8398979 1.3967357,2.9614812 Z"
       id="path64"
       style="fill:#eceae4;stroke-width:0.264583" />
    <circle
       cx="3.1125584"
       cy="3.1125584"
       r="1.3509625"
       id="circle66"
       style="fill:#000000;fill-opacity:1;stroke-width:0.264583" />
    <path
       class="st11"
       d="M 3.5689648,4.6487291 C 3.6919961,4.5981937 3.810794,4.5386625 3.925094,4.4706646 4.039394,4.4026666 4.1481378,4.3262021 4.2513253,4.2423291 4.1888836,4.3685354 4.0912523,4.4741041 3.9700732,4.5460708 3.848894,4.6183018 3.7097232,4.6540208 3.5689648,4.6487291 Z"
       id="path68"
       style="fill:#606060;stroke-width:0.264583" />
    <path
       class="st12"
       d="M 1.7922878,4.1346437 C 1.8833048,4.2314817 1.9814649,4.3214396 2.0857107,4.403725 2.1899565,4.48601 2.3000232,4.5606229 2.4153815,4.6270333 2.2751524,4.6135396 2.1418024,4.5600937 2.0312065,4.4727812 1.9208753,4.3854687 1.8377961,4.2679937 1.7922878,4.1346437 Z"
       id="path70"
       style="fill:#7d7d7d;stroke-width:0.264583" />
    <path
       class="st13"
       d="M 0.40481271,2.2632458 C 0.37544401,2.413 0.35295441,2.5648708 0.33760851,2.7175354 0.32199811,2.8702 0.31353141,3.0236583 0.31220851,3.1760583 0.27146271,3.0345062 0.25849811,2.8731104 0.27490231,2.7111854 c 0.0164042,-0.161925 0.0613833,-0.3175 0.1299104,-0.4479396 z"
       id="path72"
       style="fill:#787775;stroke-width:0.264583" />
    <path
       class="st10"
       d="m 1.3393211,2.4508354 c -0.029369,0.1497542 -0.051858,0.301625 -0.067204,0.4542896 -0.01561,0.1526646 -0.024077,0.3061229 -0.0254,0.4585229 C 1.2059711,3.2220958 1.1930071,3.0607 1.2094111,2.898775 1.2258151,2.73685 1.2707941,2.5815396 1.3393211,2.4508354 Z"
       id="path74"
       style="fill:#eceae4;stroke-width:0.264583" />
    <path
       class="st14"
       d="m 5.8496732,2.3661688 c 0.029369,0.1497541 0.051858,0.3016249 0.067204,0.4542895 0.01561,0.1526646 0.024077,0.3061229 0.0254,0.4585229 0.040746,-0.141552 0.05371,-0.3029479 0.037306,-0.4648729 -0.016404,-0.161925 -0.061383,-0.3175 -0.12991,-0.4479395 z"
       id="path76"
       style="fill:#82817f;stroke-width:0.264583" />
    <circle
       class="st15"
       cx="1.5049503"
       cy="5.123127"
       r="0.12699999"
       id="circle78"
       style="fill:#919dc5;fill-opacity:1;stroke-width:0.264583" />
    <circle
       class="st16"
       cx="5.7303462"
       cy="3.8301082"
       r="0.12699999"
       id="circle80"
       style="fill:#919dc5;fill-opacity:1;stroke-width:0.264583" />
    <circle
       class="st16"
       cx="3.9515524"
       cy="0.97816461"
       r="0.12699999"
       id="circle82"
       style="fill:#919dc5;fill-opacity:1;stroke-width:0.264583" />
    <circle
       class="st17"
       cx="5.2628274"
       cy="4.1359663"
       r="0.063499995"
       id="circle84"
       style="fill:#919dc5;fill-opacity:1;stroke-width:0.264583" />
    <circle
       class="st18"
       cx="0.83925855"
       cy="2.4238479"
       r="0.063499995"
       id="circle86"
       style="fill:#919dc5;fill-opacity:1;stroke-width:0.264583" />
    <path
       class="st19"
       d="M 1.1800419,3.1136167 C 1.2162898,3.7629041 1.564217,4.3545125 2.1137565,4.7019104 2.6632961,5.0493083 3.3469794,5.1096333 3.9491711,4.8638354 3.3496253,5.161227 2.6384253,5.12445 2.0727461,4.7667333 1.5073315,4.4092812 1.1689294,3.7827479 1.1800419,3.1136167 Z"
       id="path88"
       style="fill:#5c5c5c;stroke-width:0.264583" />
    <circle
       class="st20"
       cx="1.6650232"
       cy="2.159529"
       r="0.096572921"
       id="circle90"
       style="fill:#dbd9d2;stroke-width:0.264583" />
    <circle
       class="st20"
       cx="1.9211398"
       cy="1.8258897"
       r="0.12885208"
       id="circle92"
       style="fill:#dbd9d2;stroke-width:0.264583" />
  </g>
</svg>
