<?xml version="1.0" encoding="UTF-8" standalone="no"?>
<!-- Generator: Adobe Illustrator 26.1.0, SVG Export Plug-In . SVG Version: 6.00 Build 0)  -->

<svg
   version="1.1"
   id="Ebene_2"
   x="0px"
   y="0px"
   viewBox="0 0 619.20001 364.252"
   xml:space="preserve"
   sodipodi:docname="resomat_panel.svg"
   inkscape:version="1.4 (86a8ad7, 2024-10-11)"
   width="218.44mm"
   height="128.5mm"
   xmlns:inkscape="http://www.inkscape.org/namespaces/inkscape"
   xmlns:sodipodi="http://sodipodi.sourceforge.net/DTD/sodipodi-0.dtd"
   xmlns:xlink="http://www.w3.org/1999/xlink"
   xmlns="http://www.w3.org/2000/svg"
   xmlns:svg="http://www.w3.org/2000/svg"><sodipodi:namedview
   id="namedview87"
   pagecolor="#ffffff"
   bordercolor="#666666"
   borderopacity="1.0"
   inkscape:pageshadow="2"
   inkscape:pageopacity="0.0"
   inkscape:pagecheckerboard="0"
   showgrid="false"
   inkscape:zoom="1.9999999"
   inkscape:cx="228.75001"
   inkscape:cy="203.75001"
   inkscape:window-width="3840"
   inkscape:window-height="2054"
   inkscape:window-x="2869"
   inkscape:window-y="-11"
   inkscape:window-maximized="1"
   inkscape:current-layer="Ebene_2"
   units="mm"
   inkscape:document-units="mm"
   inkscape:showpageshadow="2"
   inkscape:deskcolor="#d1d1d1"
   showguides="true"><sodipodi:guide
     position="-34.519032,-24.750942"
     orientation="0,-1"
     id="guide1"
     inkscape:locked="false" /><sodipodi:guide
     position="-32.857787,408.37532"
     orientation="1,0"
     id="guide2"
     inkscape:locked="false" /><sodipodi:guide
     position="426.38544,387.85169"
     orientation="0,-1"
     id="guide3"
     inkscape:locked="false" /><sodipodi:guide
     position="1137.8003,346.1074"
     orientation="1,0"
     id="guide4"
     inkscape:locked="false" /><sodipodi:guide
     position="129.00001,-29.123051"
     orientation="0,-1"
     id="guide5"
     inkscape:locked="false" /><sodipodi:guide
     position="477.00004,414.31449"
     orientation="0,-1"
     id="guide6"
     inkscape:locked="false" /><sodipodi:guide
     position="40.435648,210.04995"
     orientation="1,0"
     id="guide7"
     inkscape:locked="false" /></sodipodi:namedview><defs
   id="defs89"><rect
     x="437.34556"
     y="219.91022"
     width="320.67294"
     height="87.327691"
     id="rect10" /><rect
     x="669.00003"
     y="325.50002"
     width="105.00001"
     height="48.500002"
     id="rect9" /><rect
     x="292.50001"
     y="118.50001"
     width="143.00001"
     height="30.000002"
     id="rect8" /><rect
     x="145.50001"
     y="163.50001"
     width="114.00001"
     height="49.000002"
     id="rect7" /><rect
     x="488.50002"
     y="183.50001"
     width="124.50001"
     height="20.500001"
     id="rect6" /><rect
     x="41.500002"
     y="34.500002"
     width="137.00001"
     height="45.000002"
     id="rect5" /><inkscape:path-effect
     effect="fillet_chamfer"
     id="path-effect7"
     is_visible="true"
     lpeversion="1"
     nodesatellites_param="F,0,0,1,0,0,0,1 @ F,0,0,1,0,0,0,1 @ F,0,1,1,0,4.2333333,0,1 @ F,0,1,1,0,4.2333333,0,1"
     radius="16"
     unit="px"
     method="auto"
     mode="F"
     chamfer_steps="1"
     flexible="false"
     use_knot_distance="true"
     apply_no_radius="true"
     apply_with_radius="true"
     only_selected="true"
     hide_knots="false" /><inkscape:path-effect
     effect="fillet_chamfer"
     id="path-effect6"
     is_visible="true"
     lpeversion="1"
     nodesatellites_param="F,0,1,1,0,4.2333333,0,1 @ F,0,1,1,0,4.2333333,0,1 @ F,0,0,1,0,0,0,1 @ F,0,0,1,0,0,0,1"
     radius="16"
     unit="px"
     method="auto"
     mode="F"
     chamfer_steps="1"
     flexible="false"
     use_knot_distance="true"
     apply_no_radius="true"
     apply_with_radius="true"
     only_selected="true"
     hide_knots="false" /><inkscape:path-effect
     effect="fillet_chamfer"
     id="path-effect5"
     is_visible="true"
     lpeversion="1"
     nodesatellites_param="F,0,0,1,0,0,0,1 @ F,0,0,1,0,0,0,1 @ F,0,0,1,0,0,0,1 @ F,0,0,1,0,0,0,1"
     radius="0"
     unit="px"
     method="auto"
     mode="F"
     chamfer_steps="1"
     flexible="false"
     use_knot_distance="true"
     apply_no_radius="true"
     apply_with_radius="true"
     only_selected="false"
     hide_knots="false" /><inkscape:path-effect
     effect="fillet_chamfer"
     id="path-effect4"
     is_visible="true"
     lpeversion="1"
     nodesatellites_param="F,0,0,1,0,0,0,1 @ F,0,0,1,0,0,0,1 @ F,0,1,1,0,4.2333333,0,1 @ F,0,1,1,0,4.2333333,0,1"
     radius="16"
     unit="px"
     method="auto"
     mode="F"
     chamfer_steps="1"
     flexible="false"
     use_knot_distance="true"
     apply_no_radius="true"
     apply_with_radius="true"
     only_selected="true"
     hide_knots="false" /><inkscape:path-effect
     effect="fillet_chamfer"
     id="path-effect3"
     is_visible="true"
     lpeversion="1"
     nodesatellites_param="F,0,1,1,0,4.2333333,0,1 @ F,0,1,1,0,4.2333333,0,1 @ F,0,0,1,0,0,0,1 @ F,0,0,1,0,0,0,1"
     radius="16"
     unit="px"
     method="auto"
     mode="F"
     chamfer_steps="1"
     flexible="false"
     use_knot_distance="true"
     apply_no_radius="true"
     apply_with_radius="true"
     only_selected="true"
     hide_knots="false" /><inkscape:path-effect
     effect="fillet_chamfer"
     id="path-effect2"
     is_visible="true"
     lpeversion="1"
     nodesatellites_param="F,0,0,1,0,0,0,1 @ F,0,0,1,0,0,0,1 @ F,0,1,1,0,4.2333333,0,1 @ F,0,1,1,0,4.2333333,0,1"
     radius="16"
     unit="px"
     method="auto"
     mode="F"
     chamfer_steps="1"
     flexible="false"
     use_knot_distance="true"
     apply_no_radius="true"
     apply_with_radius="true"
     only_selected="true"
     hide_knots="false" /><inkscape:path-effect
     effect="fillet_chamfer"
     id="path-effect1"
     is_visible="true"
     lpeversion="1"
     nodesatellites_param="F,0,1,1,0,3.175,0,1 @ F,0,1,1,0,3.175,0,1 @ F,0,0,1,0,0,0,1 @ F,0,0,1,0,0,0,1"
     radius="12"
     unit="px"
     method="auto"
     mode="F"
     chamfer_steps="1"
     flexible="false"
     use_knot_distance="true"
     apply_no_radius="true"
     apply_with_radius="true"
     only_selected="true"
     hide_knots="false" /><rect
     x="164.10426"
     y="271.88257"
     width="131.63225"
     height="66.46804"
     id="rect29" /><rect
     x="167.50002"
     y="29.000002"
     width="96.000008"
     height="155.50002"
     id="rect2" /><rect
     x="50.303368"
     y="110.19535"
     width="46.3204"
     height="29.208406"
     id="rect4" /><rect
     x="1023.622"
     y="-19.914824"
     width="65.350128"
     height="15.34179"
     id="rect3" /><rect
     x="352.27112"
     y="-38.944546"
     width="166.39943"
     height="27.143167"
     id="rect1" /><linearGradient
     inkscape:collect="always"
     id="linearGradient1167"><stop
       style="stop-color:#f3ede7;stop-opacity:1;"
       offset="0"
       id="stop1163" /><stop
       style="stop-color:#f3ede7;stop-opacity:0;"
       offset="1"
       id="stop1165" /></linearGradient><linearGradient
     inkscape:collect="always"
     xlink:href="#linearGradient1167"
     id="linearGradient1201"
     x1="143.12399"
     y1="8.4440002"
     x2="183.271"
     y2="8.4440002"
     gradientUnits="userSpaceOnUse" /><linearGradient
     id="swatch1"
     inkscape:swatch="solid"
     inkscape:label="LIght Panel Background"><stop
       style="stop-color:#e7e7e7;stop-opacity:1;"
       offset="0"
       id="stop1" /></linearGradient><rect
     x="31.77519"
     y="71.188644"
     width="255.1181"
     height="85.548592"
     id="rect2-5-9-1" /><rect
     x="31.77519"
     y="71.188644"
     width="255.1181"
     height="85.548592"
     id="rect2-5-9-1-5" /><rect
     x="31.77519"
     y="71.188644"
     width="255.1181"
     height="85.548592"
     id="rect2-5-9-1-5-5" /><rect
     x="31.77519"
     y="71.188644"
     width="255.1181"
     height="85.548592"
     id="rect2-5-9-1-5-5-5" /><rect
     x="31.77519"
     y="71.188644"
     width="255.1181"
     height="85.548592"
     id="rect2-5-9-1-5-5-5-3" /><rect
     x="31.77519"
     y="71.188644"
     width="255.1181"
     height="85.548592"
     id="rect2-5-9-1-5-5-5-3-6" /><rect
     x="31.77519"
     y="71.188644"
     width="255.1181"
     height="85.548592"
     id="rect2-5-9-1-5-5-5-3-6-2" /><rect
     x="31.77519"
     y="71.188644"
     width="255.1181"
     height="85.548592"
     id="rect2-5-9-1-5-5-5-3-6-2-5" /><rect
     x="31.77519"
     y="71.188644"
     width="255.1181"
     height="85.548592"
     id="rect2-5-9-1-5-5-5-3-6-2-5-2" /><rect
     x="31.77519"
     y="71.188644"
     width="255.1181"
     height="85.548592"
     id="rect2-5-9-1-5-5-5-3-6-2-5-2-8" /><rect
     x="31.77519"
     y="71.188644"
     width="255.1181"
     height="85.548592"
     id="rect2-5-9-1-5-5-5-3-6-2-8" /><rect
     x="31.77519"
     y="71.188644"
     width="255.1181"
     height="85.548592"
     id="rect2-5-9-1-5-5-5-3-6-2-8-6" /><rect
     x="31.77519"
     y="71.188644"
     width="255.1181"
     height="85.548592"
     id="rect2-5-9-1-5-5-5-3-6-2-8-6-1" /><rect
     x="31.77519"
     y="71.188644"
     width="255.1181"
     height="85.548592"
     id="rect2-5-9-1-5-5-5-3-6-2-8-6-1-0" /><rect
     x="31.77519"
     y="71.188644"
     width="255.1181"
     height="85.548592"
     id="rect2-5-9-1-5-5-5-3-6-2-8-6-1-0-1" /><rect
     x="31.77519"
     y="71.188644"
     width="255.1181"
     height="85.548592"
     id="rect2-5-9-1-5-5-5-3-6-2-8-6-1-0-1-6" /><rect
     x="31.77519"
     y="71.188644"
     width="255.1181"
     height="85.548592"
     id="rect2-5-9-1-5-5-5-3-6-2-8-6-1-0-1-6-5" /><rect
     x="31.77519"
     y="71.188644"
     width="255.1181"
     height="85.548592"
     id="rect2-5-9-1-5-5-5-3-6-2-8-6-1-0-1-6-5-1" /><rect
     x="31.77519"
     y="71.188644"
     width="255.1181"
     height="85.548592"
     id="rect2-5-9-1-5-5-5-3-6-2-8-6-1-0-1-6-5-1-2" /><rect
     x="31.77519"
     y="71.188644"
     width="255.1181"
     height="85.548592"
     id="rect2-5-9-1-5-5-5-3-6-2-8-6-1-0-1-6-5-1-2-9" /><rect
     x="31.77519"
     y="71.188644"
     width="255.1181"
     height="85.548592"
     id="rect2-5-9-1-5-5-5-3-6-2-8-6-1-0-1-6-5-1-2-9-6" /><rect
     x="31.77519"
     y="71.188644"
     width="255.1181"
     height="85.548592"
     id="rect2-5-9-1-5-5-5-3-6-2-0" /><rect
     x="31.77519"
     y="71.188644"
     width="255.1181"
     height="85.548592"
     id="rect2-5-9-1-5-5-5-3-6-2-0-7" /><rect
     x="31.77519"
     y="71.188644"
     width="255.1181"
     height="85.548592"
     id="rect2-5-9-1-5-5-5-3-6-2-0-7-9" /><rect
     x="31.77519"
     y="71.188644"
     width="255.1181"
     height="85.548592"
     id="rect2-5-9-1-5-5-5-3-6-2-0-7-9-1" /><rect
     x="31.77519"
     y="71.188644"
     width="255.1181"
     height="85.548592"
     id="rect2-5-9-1-5-5-5-3-6-2-0-7-9-1-6" /><rect
     x="31.77519"
     y="71.188644"
     width="255.1181"
     height="85.548592"
     id="rect2-5-9-1-5-5-5-3-6-2-0-7-9-1-6-6" /><rect
     x="31.77519"
     y="71.188644"
     width="255.1181"
     height="85.548592"
     id="rect2-5-9-1-5-5-5-3-6-2-0-7-9-1-6-6-1" /><rect
     x="31.77519"
     y="71.188644"
     width="255.1181"
     height="85.548592"
     id="rect2-5-9-1-5-5-5-3-6-2-0-7-9-1-6-6-1-9" /><rect
     x="31.77519"
     y="71.188644"
     width="255.1181"
     height="85.548592"
     id="rect2-5-9-1-5-5-5-3-6-2-0-7-9-1-6-6-1-9-3" /><rect
     x="31.77519"
     y="71.188644"
     width="255.1181"
     height="85.548592"
     id="rect2-5-9-1-5-5-5-3-6-2-0-7-9-1-6-6-5" /><rect
     x="31.77519"
     y="71.188644"
     width="50.485676"
     height="12.775916"
     id="rect2-5-9-1-5-5-5-3-6-2-9" /><rect
     x="31.77519"
     y="71.188644"
     width="50.485676"
     height="12.775916"
     id="rect2-5-9-1-5-5-5-3-6-2-9-0" /><rect
     x="31.77519"
     y="71.188644"
     width="50.485676"
     height="12.775916"
     id="rect2-5-9-1-5-5-5-3-6-2-9-0-7" /><rect
     x="31.77519"
     y="71.188644"
     width="50.485676"
     height="12.775916"
     id="rect2-5-9-1-5-5-5-3-6-2-9-0-7-6" /><rect
     x="31.77519"
     y="71.188644"
     width="50.485676"
     height="12.775916"
     id="rect2-5-9-1-5-5-5-3-6-2-9-0-7-6-8" /><rect
     x="31.77519"
     y="71.188644"
     width="50.485676"
     height="12.775916"
     id="rect2-5-9-1-5-5-5-3-6-2-9-0-7-6-8-4" /><rect
     x="31.77519"
     y="71.188644"
     width="50.485676"
     height="12.775916"
     id="rect2-5-9-1-5-5-5-3-6-2-9-0-7-6-8-4-0" /><rect
     x="31.77519"
     y="71.188644"
     width="50.485676"
     height="12.775916"
     id="rect2-5-9-1-5-5-5-3-6-2-9-0-7-6-8-4-0-1" /><rect
     x="31.77519"
     y="71.188644"
     width="255.1181"
     height="85.548592"
     id="rect2-5-9-1-8" /><rect
     x="31.77519"
     y="71.188644"
     width="255.1181"
     height="85.548592"
     id="rect2-5-9-1-4" /><rect
     x="31.77519"
     y="71.188644"
     width="255.1181"
     height="85.548592"
     id="rect2-5-9-1-4-9" /><rect
     x="31.77519"
     y="71.188644"
     width="255.1181"
     height="85.548592"
     id="rect2-5-9-1-4-9-3" /><rect
     x="31.77519"
     y="71.188644"
     width="255.1181"
     height="85.548592"
     id="rect2-5-9-1-5-5-8" /><rect
     x="31.77519"
     y="71.188644"
     width="50.485676"
     height="12.775916"
     id="rect2-5-9-1-5-5-5-3-6-2-9-0-7-6-8-8" /><rect
     x="31.77519"
     y="71.188644"
     width="255.1181"
     height="85.548592"
     id="rect2-5-9-1-4-9-3-8" /><rect
     x="31.77519"
     y="71.188644"
     width="255.1181"
     height="85.548592"
     id="rect2-5-9-1-4-9-3-5" /><rect
     x="31.77519"
     y="71.188644"
     width="255.1181"
     height="85.548592"
     id="rect2-5-9-1-4-9-3-5-2" /><rect
     x="31.77519"
     y="71.188644"
     width="255.1181"
     height="85.548592"
     id="rect2-5-9-1-4-9-3-5-2-9" /><rect
     x="31.77519"
     y="71.188644"
     width="255.1181"
     height="85.548592"
     id="rect2-5-9-1-4-9-3-5-2-9-6" /><rect
     x="31.77519"
     y="71.188644"
     width="255.1181"
     height="85.548592"
     id="rect2-5-9-1-4-9-3-5-2-9-2" /><rect
     x="31.77519"
     y="71.188644"
     width="255.1181"
     height="85.548592"
     id="rect2-5-9-1-4-9-3-5-2-9-2-9" /><rect
     x="31.77519"
     y="71.188644"
     width="255.1181"
     height="85.548592"
     id="rect2-5-9-1-4-9-3-5-2-9-2-6" /><rect
     x="31.77519"
     y="71.188644"
     width="255.1181"
     height="85.548592"
     id="rect2-5-9-1-4-9-3-5-2-9-2-6-4" /><rect
     x="31.77519"
     y="71.188644"
     width="255.1181"
     height="85.548592"
     id="rect2-5-9-1-4-9-3-5-2-9-2-6-4-3" /><rect
     x="31.77519"
     y="71.188644"
     width="255.1181"
     height="85.548592"
     id="rect2-5-9-1-4-9-3-8-6" /><rect
     x="31.77519"
     y="71.188644"
     width="255.1181"
     height="85.548592"
     id="rect2-5-9-1-4-9-3-7" /><rect
     x="31.77519"
     y="71.188644"
     width="255.1181"
     height="85.548592"
     id="rect2-5-9-1-4-9-3-7-5" /><rect
     x="31.77519"
     y="71.188644"
     width="255.1181"
     height="85.548592"
     id="rect2-5-9-1-4-9-3-7-5-2" /><rect
     x="31.77519"
     y="71.188644"
     width="255.1181"
     height="85.548592"
     id="rect2-5-9-1-4-9-3-7-5-2-3" /><rect
     x="31.77519"
     y="71.188644"
     width="255.1181"
     height="85.548592"
     id="rect2-5-9-1-4-9-3-0" /><rect
     x="31.77519"
     y="71.188644"
     width="255.1181"
     height="85.548592"
     id="rect2-5-9-1-4-9-3-0-2" /><rect
     x="31.77519"
     y="71.188644"
     width="255.1181"
     height="85.548592"
     id="rect2-5-9-1-4-9-3-7-0" /><rect
     x="31.77519"
     y="71.188644"
     width="255.1181"
     height="85.548592"
     id="rect2-5-9-1-4-9-3-7-5-6" /><rect
     x="31.77519"
     y="71.188644"
     width="255.1181"
     height="85.548592"
     id="rect2-5-9-1-4-9-3-7-5-2-1" /><rect
     x="31.77519"
     y="71.188644"
     width="255.1181"
     height="85.548592"
     id="rect2-5-9-1-4-9-3-7-5-2-3-7" /><rect
     x="31.77519"
     y="71.188644"
     width="255.1181"
     height="85.548592"
     id="rect2-5-9-1-4-9-3-5-2-9-2-7" /><rect
     x="31.77519"
     y="71.188644"
     width="255.1181"
     height="85.548592"
     id="rect2-5-9-1-4-9-3-6" /><rect
     x="31.77519"
     y="71.188644"
     width="255.1181"
     height="85.548592"
     id="rect2-5-9-1-4-9-3-6-2" /><rect
     x="31.77519"
     y="71.188644"
     width="255.1181"
     height="85.548592"
     id="rect2-5-9-1-4-9-3-9" /><rect
     x="31.77519"
     y="71.188644"
     width="255.1181"
     height="85.548592"
     id="rect2-5-9-1-4-9-3-9-5" /><rect
     x="31.77519"
     y="71.188644"
     width="255.1181"
     height="85.548592"
     id="rect2-5-9-1-4-9-3-9-2" /><rect
     x="31.77519"
     y="71.188644"
     width="255.1181"
     height="85.548592"
     id="rect2-5-9-1-4-9-3-9-5-3" /><rect
     x="31.77519"
     y="71.188644"
     width="255.1181"
     height="85.548592"
     id="rect2-5-9-1-4-9-3-8-5" /><rect
     x="31.77519"
     y="71.188644"
     width="255.1181"
     height="85.548592"
     id="rect2-5-9-1-4-9-3-6-3" /><rect
     x="31.77519"
     y="71.188644"
     width="255.1181"
     height="85.548592"
     id="rect2-5-9-1-4-9-3-6-4" /><rect
     x="31.77519"
     y="71.188644"
     width="255.1181"
     height="85.548592"
     id="rect2-5-9-1-4-9-3-6-2-5" /><rect
     x="31.77519"
     y="71.188644"
     width="255.1181"
     height="85.548592"
     id="rect2-5-9-1-4-7" /><rect
     x="31.77519"
     y="71.188644"
     width="255.1181"
     height="85.548592"
     id="rect2-5-9-1-4-7-0" /><rect
     x="31.77519"
     y="71.188644"
     width="255.1181"
     height="85.548592"
     id="rect2-5-9-1-4-7-0-9" /><rect
     x="31.77519"
     y="71.188644"
     width="255.1181"
     height="85.548592"
     id="rect2-5-9-1-4-7-0-9-2" /><rect
     x="31.77519"
     y="71.188644"
     width="255.1181"
     height="85.548592"
     id="rect2-5-9-1-4-7-0-9-2-7" /><rect
     x="31.77519"
     y="71.188644"
     width="255.1181"
     height="85.548592"
     id="rect2-5-9-1-4-7-0-9-2-7-5" /><rect
     x="31.77519"
     y="71.188644"
     width="255.1181"
     height="85.548592"
     id="rect2-5-9-1-4-7-0-9-2-7-5-2" /><rect
     x="31.77519"
     y="71.188644"
     width="255.1181"
     height="85.548592"
     id="rect2-5-9-1-4-7-0-9-2-7-5-3" /><rect
     x="31.77519"
     y="71.188644"
     width="255.1181"
     height="85.548592"
     id="rect2-5-9-1-4-7-0-9-2-7-5-3-3" /><rect
     x="31.77519"
     y="71.188644"
     width="255.1181"
     height="85.548592"
     id="rect2-5-9-1-4-6" /><rect
     x="31.77519"
     y="71.188644"
     width="255.1181"
     height="85.548592"
     id="rect2-5-9-1-4-6-0" /><rect
     x="31.77519"
     y="71.188644"
     width="255.1181"
     height="85.548592"
     id="rect2-5-9-1-4-6-0-3" /><rect
     x="31.77519"
     y="71.188644"
     width="255.1181"
     height="85.548592"
     id="rect2-5-9-1-4-6-0-1" /><rect
     x="31.77519"
     y="71.188644"
     width="255.1181"
     height="85.548592"
     id="rect2-5-9-1-4-6-0-1-0" /><rect
     x="31.77519"
     y="71.188644"
     width="255.1181"
     height="85.548592"
     id="rect2-5-9-1-4-6-0-1-0-7" /><rect
     x="31.77519"
     y="71.188644"
     width="255.1181"
     height="85.548592"
     id="rect2-5-9-1-4-6-0-1-0-7-7" /><rect
     x="31.77519"
     y="71.188644"
     width="255.1181"
     height="85.548592"
     id="rect2-5-9-1-4-7-0-93" /><rect
     x="31.77519"
     y="71.188644"
     width="255.1181"
     height="85.548592"
     id="rect2-5-9-1-4-7-0-93-8" /><rect
     x="31.77519"
     y="71.188644"
     width="255.1181"
     height="85.548592"
     id="rect2-5-9-0" /><rect
     x="8"
     y="109.4375"
     width="80.1875"
     height="24"
     id="rect1-9-1" /><rect
     x="31.77519"
     y="71.188644"
     width="255.1181"
     height="85.548592"
     id="rect2-5-9-1-4-7-0-9-2-7-5-3-3-5" /><rect
     x="31.77519"
     y="71.188644"
     width="255.1181"
     height="85.548592"
     id="rect2-5-9-1-4-7-0-9-2-7-5-3-3-5-7" /><rect
     x="31.77519"
     y="71.188644"
     width="255.1181"
     height="85.548592"
     id="rect2-5-9-1-4-6-0-1-0-7-7-0" /><rect
     x="31.77519"
     y="71.188644"
     width="255.1181"
     height="85.548592"
     id="rect2-5-9-1-4-6-0-1-0-7-7-0-7" /><rect
     x="31.77519"
     y="71.188644"
     width="255.1181"
     height="85.548592"
     id="rect2-5-9-1-4-6-0-1-0-7-7-0-7-1" /><rect
     x="31.77519"
     y="71.188644"
     width="255.1181"
     height="85.548592"
     id="rect2-5-9-1-4-6-0-1-0-7-7-0-7-1-8" /><rect
     x="31.77519"
     y="71.188644"
     width="255.1181"
     height="85.548592"
     id="rect2-5-9-1-4-6-0-1-0-7-7-0-7-1-8-9" /><rect
     x="31.77519"
     y="71.188644"
     width="255.1181"
     height="85.548592"
     id="rect2-5-9-1-4-6-0-1-0-7-7-0-7-1-8-9-8" /><rect
     x="31.77519"
     y="71.188644"
     width="255.1181"
     height="85.548592"
     id="rect2-5-9-1-4-68" /><rect
     x="31.77519"
     y="71.188644"
     width="255.1181"
     height="85.548592"
     id="rect2-5-9-1-4-0" /><rect
     x="31.77519"
     y="71.188644"
     width="255.1181"
     height="85.548592"
     id="rect2-5-9-1-0" /><rect
     x="31.77519"
     y="71.188644"
     width="255.1181"
     height="85.548592"
     id="rect2-5-9-1-0-6" /><rect
     x="31.77519"
     y="71.188644"
     width="255.1181"
     height="85.548592"
     id="rect2-5-9-1-0-0" /><rect
     x="31.77519"
     y="71.188644"
     width="255.1181"
     height="85.548592"
     id="rect2-5-9-1-5-3" /><rect
     x="31.77519"
     y="71.188644"
     width="255.1181"
     height="85.548592"
     id="rect2-5-9-1-5-3-2" /><rect
     x="31.77519"
     y="71.188644"
     width="255.1181"
     height="85.548592"
     id="rect2-5-9-1-0-1" /><rect
     x="31.77519"
     y="71.188644"
     width="255.1181"
     height="85.548592"
     id="rect2-5-9-1-0-0-5" /><rect
     x="31.77519"
     y="71.188644"
     width="255.1181"
     height="85.548592"
     id="rect2-5-9" /><rect
     x="31.77519"
     y="71.188644"
     width="255.1181"
     height="85.548592"
     id="rect2-5-9-2" /><rect
     x="31.77519"
     y="71.188644"
     width="255.1181"
     height="85.548592"
     id="rect2-5-9-1-4-90" /><rect
     x="31.77519"
     y="71.188644"
     width="255.1181"
     height="85.548592"
     id="rect2-5-9-1-42" /><rect
     x="31.77519"
     y="71.188644"
     width="255.1181"
     height="85.548592"
     id="rect2-5-9-1-42-7" /><rect
     x="31.77519"
     y="71.188644"
     width="255.1181"
     height="85.548592"
     id="rect2-5-9-1-42-8" /><rect
     x="31.77519"
     y="71.188644"
     width="255.1181"
     height="85.548592"
     id="rect2-5-9-1-42-0" /><rect
     x="31.77519"
     y="71.188644"
     width="255.1181"
     height="85.548592"
     id="rect2-5-9-1-42-7-5" /><rect
     x="31.77519"
     y="71.188644"
     width="255.1181"
     height="85.548592"
     id="rect2-5-9-1-42-7-5-6" /><rect
     x="31.77519"
     y="71.188644"
     width="255.1181"
     height="85.548592"
     id="rect2-5-9-1-42-7-5-6-0" /><rect
     x="31.77519"
     y="71.188644"
     width="255.1181"
     height="85.548592"
     id="rect2-5-9-1-42-7-5-6-0-6" /><rect
     x="31.77519"
     y="71.188644"
     width="255.1181"
     height="85.548592"
     id="rect2-5-9-1-42-7-5-6-0-5" /><rect
     x="31.77519"
     y="71.188644"
     width="255.1181"
     height="85.548592"
     id="rect2-5-9-1-4-0-0" /><rect
     x="31.77519"
     y="71.188644"
     width="255.1181"
     height="85.548592"
     id="rect2-5-9-1-4-0-0-9" /><rect
     x="31.77519"
     y="71.188644"
     width="255.1181"
     height="85.548592"
     id="rect2-5-9-1-4-0-6" /><rect
     x="31.77519"
     y="71.188644"
     width="255.1181"
     height="85.548592"
     id="rect2-5-9-1-55" /><rect
     x="31.77519"
     y="71.188644"
     width="255.1181"
     height="85.548592"
     id="rect2-5-9-1-4-8" /><rect
     x="31.77519"
     y="71.188644"
     width="255.1181"
     height="85.548592"
     id="rect2-5-9-1-4-8-5" /><rect
     x="31.77519"
     y="71.188644"
     width="255.1181"
     height="85.548592"
     id="rect2-5-9-1-4-82" /><rect
     x="31.77519"
     y="71.188644"
     width="255.1181"
     height="85.548592"
     id="rect2-5-9-1-4-82-6" /><rect
     x="31.77519"
     y="71.188644"
     width="255.1181"
     height="85.548592"
     id="rect2-5-9-1-4-4" /><rect
     x="31.77519"
     y="71.188644"
     width="255.1181"
     height="85.548592"
     id="rect2-5-9-1-4-4-9" /><rect
     x="31.77519"
     y="71.188644"
     width="255.1181"
     height="85.548592"
     id="rect2-5-9-1-4-0-6-7" /><rect
     x="31.77519"
     y="71.188644"
     width="255.1181"
     height="85.548592"
     id="rect2-5-9-1-4-4-7" /><rect
     x="31.77519"
     y="71.188644"
     width="255.1181"
     height="85.548592"
     id="rect2-5-9-1-2" /><rect
     x="50.303368"
     y="110.19535"
     width="46.3204"
     height="29.208406"
     id="rect4-1" /><rect
     x="50.303368"
     y="110.19535"
     width="46.3204"
     height="29.208406"
     id="rect4-4" /><rect
     x="50.303368"
     y="110.19535"
     width="83.052185"
     height="28.618338"
     id="rect4-0" /><rect
     x="50.303368"
     y="110.19535"
     width="84.857719"
     height="27.970968"
     id="rect4-6" /><rect
     x="50.303368"
     y="110.19535"
     width="64.395821"
     height="28.501299"
     id="rect4-7" /><rect
     x="50.303368"
     y="110.19535"
     width="64.395821"
     height="28.501299"
     id="rect4-7-0" /><rect
     x="50.303368"
     y="110.19535"
     width="46.3204"
     height="29.208406"
     id="rect4-64" /><rect
     x="50.303368"
     y="110.19535"
     width="46.3204"
     height="29.208406"
     id="rect4-64-4" /><rect
     x="50.303368"
     y="110.19535"
     width="46.3204"
     height="29.208406"
     id="rect4-64-4-4" /><rect
     x="50.303368"
     y="110.19535"
     width="64.395821"
     height="28.501299"
     id="rect4-7-0-3" /><rect
     x="50.303368"
     y="110.19535"
     width="64.395821"
     height="28.501299"
     id="rect4-7-0-3-8" /><rect
     x="167.50002"
     y="29.000002"
     width="96.000008"
     height="155.50002"
     id="rect2-7" /><rect
     x="164.10426"
     y="271.88257"
     width="131.63225"
     height="66.46804"
     id="rect29-3" /><rect
     x="164.10426"
     y="271.88257"
     width="131.63225"
     height="66.46804"
     id="rect29-3-8" /><rect
     x="164.10426"
     y="271.88257"
     width="131.63225"
     height="66.46804"
     id="rect29-3-8-0" /><rect
     x="164.10426"
     y="271.88257"
     width="131.63225"
     height="66.46804"
     id="rect29-3-8-0-1" /><rect
     x="164.10426"
     y="271.88257"
     width="131.63225"
     height="66.46804"
     id="rect29-3-8-0-1-1" /><rect
     x="164.10426"
     y="271.88257"
     width="131.63225"
     height="66.46804"
     id="rect29-3-8-0-1-1-8" /><rect
     x="164.10426"
     y="271.88257"
     width="131.63225"
     height="66.46804"
     id="rect29-3-8-0-1-1-8-0" /><rect
     x="164.10426"
     y="271.88257"
     width="131.63225"
     height="66.46804"
     id="rect29-3-8-0-1-1-8-0-2" /><rect
     x="164.10426"
     y="271.88257"
     width="131.63225"
     height="66.46804"
     id="rect29-3-8-0-1-1-8-0-2-1" /><rect
     x="164.10426"
     y="271.88257"
     width="131.63225"
     height="66.46804"
     id="rect29-3-8-0-1-1-8-0-2-1-0" /><rect
     x="164.10426"
     y="271.88257"
     width="131.63225"
     height="66.46804"
     id="rect29-3-8-0-1-1-8-0-2-1-0-7" /><rect
     x="164.10426"
     y="271.88257"
     width="131.63225"
     height="66.46804"
     id="rect29-3-8-0-1-1-8-0-2-1-0-7-6" /><rect
     x="164.10426"
     y="271.88257"
     width="131.63225"
     height="66.46804"
     id="rect29-3-8-0-1-1-8-0-4" /><rect
     x="164.10426"
     y="271.88257"
     width="131.63225"
     height="66.46804"
     id="rect29-3-8-0-1-1-8-0-4-2" /><rect
     x="164.10426"
     y="271.88257"
     width="131.63225"
     height="66.46804"
     id="rect29-3-8-0-1-1-8-0-8" /><rect
     x="164.10426"
     y="271.88257"
     width="131.63225"
     height="66.46804"
     id="rect29-3-8-0-1-1-8-0-8-8" /><rect
     x="164.10426"
     y="271.88257"
     width="131.63225"
     height="66.46804"
     id="rect29-3-8-0-1-1-8-0-4-5" /><rect
     x="164.10426"
     y="271.88257"
     width="131.63225"
     height="66.46804"
     id="rect29-3-8-0-1-1-8-0-4-5-0" /><rect
     x="164.10426"
     y="271.88257"
     width="131.63225"
     height="66.46804"
     id="rect29-3-8-0-1-1-8-0-4-5-0-2" /><rect
     x="164.10426"
     y="271.88257"
     width="131.63225"
     height="66.46804"
     id="rect29-3-8-0-1-1-8-0-6" /><rect
     x="164.10426"
     y="271.88257"
     width="131.63225"
     height="66.46804"
     id="rect29-3-8-0-1-1-8-0-6-1" /><rect
     x="164.10426"
     y="271.88257"
     width="131.63225"
     height="66.46804"
     id="rect29-3-8-0-1-1-8-0-6-0" /><rect
     x="164.10426"
     y="271.88257"
     width="131.63225"
     height="66.46804"
     id="rect29-3-8-0-1-1-8-0-66" /><rect
     x="164.10426"
     y="271.88257"
     width="131.63225"
     height="66.46804"
     id="rect29-3-8-0-1-1-8-0-66-2" /><rect
     x="164.10426"
     y="271.88257"
     width="131.63225"
     height="66.46804"
     id="rect29-3-8-0-1-1-8-0-66-2-9" /><rect
     x="164.10426"
     y="271.88257"
     width="131.63225"
     height="66.46804"
     id="rect29-3-8-0-1-1-8-0-66-2-9-4" /><rect
     x="164.10426"
     y="271.88257"
     width="131.63225"
     height="66.46804"
     id="rect29-3-8-0-1-1-8-0-66-2-9-4-4" /><rect
     x="164.10426"
     y="271.88257"
     width="131.63225"
     height="66.46804"
     id="rect29-3-8-0-1-1-8-0-66-2-9-4-4-3" /><rect
     x="164.10426"
     y="271.88257"
     width="131.63225"
     height="66.46804"
     id="rect29-3-8-0-1-1-8-0-66-2-9-4-4-3-5" /><rect
     x="164.10426"
     y="271.88257"
     width="131.63225"
     height="66.46804"
     id="rect29-3-8-0-1-1-8-0-4-5-0-2-4" /><rect
     x="164.10426"
     y="271.88257"
     width="131.63225"
     height="66.46804"
     id="rect29-3-8-0-1-1-8-0-3" /><rect
     x="164.10426"
     y="271.88257"
     width="131.63225"
     height="66.46804"
     id="rect29-3-8-0-1-1-8-0-4-5-0-2-0" /><rect
     x="164.10426"
     y="271.88257"
     width="131.63225"
     height="66.46804"
     id="rect29-3-8-0-1-1-8-0-1" /><rect
     x="164.10426"
     y="271.88257"
     width="131.63225"
     height="66.46804"
     id="rect29-3-8-0-1-1-8-0-27" /><rect
     x="164.10426"
     y="271.88257"
     width="131.63225"
     height="66.46804"
     id="rect29-3-8-0-1-1-8-0-16" /><rect
     x="164.10426"
     y="271.88257"
     width="131.63225"
     height="66.46804"
     id="rect29-3-8-0-1-1-8-0-9" /><rect
     x="164.10426"
     y="271.88257"
     width="131.63225"
     height="66.46804"
     id="rect29-3-8-0-1-1-8-0-9-3" /><linearGradient
     inkscape:collect="always"
     xlink:href="#swatch1"
     id="linearGradient1"
     x1="5.6843419e-14"
     y1="182.12599"
     x2="288.00003"
     y2="182.12599"
     gradientUnits="userSpaceOnUse"
     gradientTransform="translate(9.3807907e-6)" /><rect
     x="41.500004"
     y="34.500004"
     width="137.00002"
     height="45.000004"
     id="rect5-5" /><rect
     x="41.500004"
     y="34.500004"
     width="137.00002"
     height="45.000004"
     id="rect5-5-7" /><rect
     x="41.500004"
     y="34.500004"
     width="137.00002"
     height="45.000004"
     id="rect5-5-7-1" /><rect
     x="41.500004"
     y="34.500004"
     width="137.00002"
     height="45.000004"
     id="rect5-5-7-1-3" /><rect
     x="41.500004"
     y="34.500004"
     width="137.00002"
     height="45.000004"
     id="rect5-5-7-1-6" /><rect
     x="31.77519"
     y="71.188644"
     width="255.1181"
     height="85.548592"
     id="rect2-5-9-09" /><rect
     x="31.77519"
     y="71.188644"
     width="255.1181"
     height="85.548592"
     id="rect2-5-9-09-8" /><rect
     x="31.77519"
     y="71.188644"
     width="255.1181"
     height="85.548592"
     id="rect2-5-9-09-8-7" /><rect
     x="31.77519"
     y="71.188644"
     width="255.1181"
     height="85.548592"
     id="rect2-5-9-09-8-4" /><rect
     x="31.77519"
     y="71.188644"
     width="255.1181"
     height="85.548592"
     id="rect2-5-9-09-8-4-5" /><rect
     x="31.77519"
     y="71.188644"
     width="255.1181"
     height="85.548592"
     id="rect2-5-9-09-8-3" /><rect
     x="31.77519"
     y="71.188644"
     width="255.1181"
     height="85.548592"
     id="rect2-5-9-09-8-4-8" /><rect
     x="31.77519"
     y="71.188644"
     width="255.1181"
     height="85.548592"
     id="rect2-5-9-09-8-4-8-0" /><rect
     x="31.77519"
     y="71.188644"
     width="255.1181"
     height="85.548592"
     id="rect2-5-9-09-8-4-8-0-0" /><rect
     x="31.77519"
     y="71.188644"
     width="255.1181"
     height="85.548592"
     id="rect2-5-9-09-8-4-5-4" /><rect
     x="31.77519"
     y="71.188644"
     width="255.1181"
     height="85.548592"
     id="rect2-5-9-1-4-09" /><rect
     x="31.77519"
     y="71.188644"
     width="255.1181"
     height="85.548592"
     id="rect2-8" /><rect
     x="31.77519"
     y="71.188644"
     width="255.1181"
     height="85.548592"
     id="rect2-5-9-1-4-5" /><rect
     x="31.77519"
     y="71.188644"
     width="255.1181"
     height="85.548592"
     id="rect2-5-9-1-4-5-1" /><rect
     x="31.77519"
     y="71.188644"
     width="255.1181"
     height="85.548592"
     id="rect2-5-9-1-4-5-1-1" /><rect
     x="31.77519"
     y="71.188644"
     width="255.1181"
     height="85.548592"
     id="rect2-5-9-1-4-2" /><rect
     x="31.77519"
     y="71.188644"
     width="255.1181"
     height="85.548592"
     id="rect2-5-9-1-4-2-6" /><rect
     x="31.77519"
     y="71.188644"
     width="255.1181"
     height="85.548592"
     id="rect2-5-9-1-4-2-6-7" /><rect
     x="31.77519"
     y="71.188644"
     width="255.1181"
     height="85.548592"
     id="rect2-5-9-1-4-2-6-7-9" /><rect
     x="31.77519"
     y="71.188644"
     width="255.1181"
     height="85.548592"
     id="rect2-5-9-1-4-43" /><rect
     x="31.77519"
     y="71.188644"
     width="255.1181"
     height="85.548592"
     id="rect2-5-9-1-4-41" /><rect
     x="31.77519"
     y="71.188644"
     width="255.1181"
     height="85.548592"
     id="rect2-5-9-1-4-27" /><rect
     x="31.77519"
     y="71.188644"
     width="255.1181"
     height="85.548592"
     id="rect2-5-9-1-4-86" /><rect
     x="31.77519"
     y="71.188644"
     width="255.1181"
     height="85.548592"
     id="rect2-5-9-1-9" /></defs>
<style
   type="text/css"
   id="style2">
	.st0{fill:#F3EDE7;}
	.st1{opacity:0.15;fill:#FFFFFF;}
	.st2{fill:#1C2729;}
</style>








<text
   xml:space="preserve"
   transform="scale(0.75000004)"
   id="text1"
   style="font-style:normal;font-variant:normal;font-weight:normal;font-stretch:normal;font-size:12px;font-family:'Pilat Condensed';-inkscape-font-specification:'Pilat Condensed, ';text-align:end;word-spacing:0.6px;white-space:pre;shape-inside:url(#rect3);display:inline;fill:#f9f9f9;fill-opacity:0.375635;stroke-width:0.377951;-inkscape-stroke:none" /><rect
   style="fill:url(#linearGradient1);fill-opacity:1;stroke-width:0.725675"
   id="rect350"
   width="619.20007"
   height="364.25198"
   x="0"
   y="0"
   sodipodi:insensitive="true" /><ellipse
   style="fill:#213d42;stroke:none;stroke-width:0.283464"
   id="pitch_knob"
   cx="270.31766"
   cy="101.59405"
   inkscape:label=""
   rx="11.316981"
   ry="11.338583" /><ellipse
   style="fill:#213d42;stroke:none;stroke-width:0.283464"
   id="p1_knob"
   cx="444.3757"
   cy="168.04457"
   inkscape:label=""
   rx="11.316981"
   ry="11.338583" /><ellipse
   style="fill:#213d42;stroke:none;stroke-width:0.283464"
   id="equation_input"
   cx="156.75262"
   cy="332.44659"
   inkscape:label=""
   rx="11.316981"
   ry="11.338583" /><ellipse
   style="fill:#213d42;stroke:none;stroke-width:0.283464"
   id="decay_input"
   cx="96.752632"
   cy="332.44659"
   inkscape:label=""
   rx="11.316981"
   ry="11.338583" /><ellipse
   style="fill:#213d42;stroke:none;stroke-width:0.283464"
   id="equation_atten_knob"
   cx="156.75262"
   cy="286.10516"
   inkscape:label=""
   rx="11.316981"
   ry="11.338583" /><ellipse
   style="fill:#213d42;stroke:none;stroke-width:0.283464"
   id="decay_atten_knob"
   cx="96.752632"
   cy="285.18234"
   inkscape:label=""
   rx="11.316981"
   ry="11.338583" /><ellipse
   style="fill:#213d42;stroke:none;stroke-width:0.283464"
   id="offset_input"
   cx="202.00262"
   cy="332.44659"
   inkscape:label=""
   rx="11.316981"
   ry="11.338583" /><ellipse
   style="fill:#213d42;stroke:none;stroke-width:0.283464"
   id="offset_atten_knob"
   cx="202.00262"
   cy="286.10516"
   inkscape:label=""
   rx="11.316981"
   ry="11.338583" /><ellipse
   style="fill:#213d42;stroke:none;stroke-width:0.283464"
   id="p2_knob"
   cx="495.3757"
   cy="168.04457"
   inkscape:label=""
   rx="11.316981"
   ry="11.338583" /><ellipse
   style="fill:#213d42;stroke:none;stroke-width:0.283464"
   id="p3_knob"
   cx="546.37567"
   cy="168.04457"
   inkscape:label=""
   rx="11.316981"
   ry="11.338583" /><ellipse
   style="fill:#213d42;stroke:none;stroke-width:0.283464"
   id="source_button"
   cx="186.16879"
   cy="101.32888"
   inkscape:label=""
   rx="11.316981"
   ry="11.338583" /><ellipse
   style="fill:#213d42;stroke:none;stroke-width:0.283464"
   id="equation_knob"
   cx="358.56531"
   cy="100.66032"
   inkscape:label=""
   rx="11.316981"
   ry="11.338583" /><ellipse
   style="fill:#213d42;stroke:none;stroke-width:0.283464"
   id="equation_offset_knob"
   cx="422.55286"
   cy="101.03532"
   inkscape:label=""
   rx="11.316981"
   ry="11.338583" /><ellipse
   style="fill:#213d42;stroke:none;stroke-width:0.283464"
   id="decay_knob"
   cx="270.31766"
   cy="216.63019"
   inkscape:label=""
   rx="11.316981"
   ry="11.338583" /><ellipse
   style="fill:#213d42;stroke:none;stroke-width:0.283464"
   id="damping_knob"
   cx="270.31766"
   cy="160.72586"
   inkscape:label=""
   rx="11.316981"
   ry="11.338583" /><ellipse
   style="fill:#213d42;stroke:none;stroke-width:0.283464"
   id="trigger_button"
   cx="51.752632"
   cy="142.86346"
   inkscape:label=""
   rx="11.316981"
   ry="11.338583" /><ellipse
   style="fill:#213d42;stroke:none;stroke-width:0.283464"
   id="trigger_light"
   cx="51.752632"
   cy="180.09474"
   inkscape:label=""
   rx="4.0249419"
   ry="4.0326247" /><ellipse
   style="fill:#213d42;stroke:none;stroke-width:0.283464"
   id="rate_sync_light"
   cx="579.92297"
   cy="101.11133"
   inkscape:label=""
   rx="4.0249419"
   ry="4.0326247" /><ellipse
   style="fill:#213d42;stroke:none;stroke-width:0.283464"
   id="noise_light"
   cx="185.8923"
   cy="132.89977"
   inkscape:label=""
   rx="4.0249419"
   ry="4.0326247" /><ellipse
   style="fill:#213d42;stroke:none;stroke-width:0.283464"
   id="trigger_input"
   cx="51.752632"
   cy="101.32888"
   inkscape:label=""
   rx="11.316981"
   ry="11.338583" /><ellipse
   style="fill:#213d42;stroke:none;stroke-width:0.283464"
   id="voct_input"
   cx="100.50263"
   cy="101.32888"
   inkscape:label=""
   rx="11.316981"
   ry="11.338583" /><ellipse
   style="fill:#213d42;stroke:none;stroke-width:0.283464"
   id="audio_output"
   cx="573.06702"
   cy="330.46359"
   inkscape:label=""
   rx="11.316981"
   ry="11.338583" /><path
   d="m 261.22765,78.042472 h 0.783 c 1.179,0 1.701,-0.306 1.701,-1.926 v -0.36 c 0,-1.656 -0.504,-1.926 -1.701,-1.926 h -1.935 v 6.3 h 1.152 z m 0.684,-3.249 c 0.468,0 0.648,0.117 0.648,0.936 v 0.432 c 0,0.81 -0.171,0.936 -0.648,0.936 h -0.684 v -2.304 z m 4.22099,-0.963 h -1.152 v 6.3 h 1.152 z m 3.41999,1.026 h 1.17 v -1.026 h -3.474 v 1.026 h 1.143 v 5.274 h 1.161 z m 4.095,5.364 c 1.224,0 1.71901,-0.477 1.80901,-2.115 h -1.16101 c -0.054,0.936 -0.243,1.134 -0.684,1.134 h -0.054 c -0.297,0 -0.486,-0.09 -0.576,-0.279 -0.09,-0.189 -0.135,-0.522 -0.135,-0.999 v -1.953 c 0,-0.972 0.126,-1.278 0.711,-1.278 h 0.054 c 0.441,0 0.63,0.189 0.684,1.125 h 1.16101 c -0.09,-1.638 -0.58501,-2.115001 -1.80901,-2.115001 h -0.135 c -1.323,0 -1.827,0.540001 -1.827,2.340001 v 1.8 c 0,1.8 0.504,2.34 1.827,2.34 z m 6.91201,-6.39 h -1.152 v 2.637 h -1.467 v -2.637 h -1.152 v 6.3 h 1.152 v -2.646 h 1.467 v 2.646 h 1.152 z"
   id="text2"
   style="font-size:12px;font-family:'Pilat Condensed';-inkscape-font-specification:'Pilat Condensed, ';letter-spacing:0.9px;word-spacing:0.77px;white-space:pre;fill:#0b1116;fill-opacity:0.952941;stroke-width:0.850395;stroke-linejoin:round;stroke-miterlimit:1.41421"
   aria-label="PITCH" /><path
   d="m 262.72614,190.10562 c 0,-1.809 -0.558,-2.349 -1.881,-2.349 h -1.836 v 6.3 h 1.836 c 1.323,0 1.881,-0.54 1.881,-2.34 z m -1.899,-1.377 c 0.576,0 0.738,0.324 0.738,1.296 v 1.773 c 0,0.963 -0.171,1.287 -0.738,1.287 h -0.666 v -4.356 z m 6.192,4.32 h -1.773 v -1.638 h 1.773 v -1.017 h -1.773 v -1.629 h 1.773 v -1.008 h -2.925 v 6.3 h 2.925 z m 3.22199,1.098 c 1.224,0 1.71901,-0.477 1.80901,-2.115 h -1.16101 c -0.054,0.936 -0.243,1.134 -0.684,1.134 h -0.054 c -0.297,0 -0.486,-0.09 -0.576,-0.279 -0.09,-0.189 -0.135,-0.522 -0.135,-0.999 v -1.953 c 0,-0.972 0.126,-1.278 0.711,-1.278 h 0.054 c 0.441,0 0.63,0.189 0.684,1.125 h 1.16101 c -0.09,-1.638 -0.58501,-2.115 -1.80901,-2.115 h -0.135 c -1.323,0 -1.827,0.54 -1.827,2.34 v 1.8 c 0,1.8 0.504,2.34 1.827,2.34 z m 5.82302,-6.39 h -1.701 l -1.341,6.3 h 1.197 l 0.252,-1.35 h 1.449 l 0.261,1.35 h 1.224 z m -0.846,1.206 0.504,2.745 h -1.053 l 0.504,-2.745 z m 4.93199,2.583 1.476,-3.789 h -1.152 l -0.837,2.583 h -0.045 l -0.828,-2.583 h -1.242 l 1.467,3.807 v 2.493 h 1.161 z"
   id="text2-2"
   style="font-size:12px;font-family:'Pilat Condensed';-inkscape-font-specification:'Pilat Condensed, ';letter-spacing:0.9px;word-spacing:0.77px;white-space:pre;fill:#0b1116;fill-opacity:0.952941;stroke-width:0.850395;stroke-linejoin:round;stroke-miterlimit:1.41421"
   aria-label="DECAY" /><path
   d="m 90.219451,256.78276 c 0,-1.809 -0.558,-2.349 -1.881,-2.349 h -1.836 v 6.3 h 1.836 c 1.323,0 1.881,-0.54 1.881,-2.34 z m -1.899,-1.377 c 0.576,0 0.738,0.324 0.738,1.296 v 1.773 c 0,0.963 -0.171,1.287 -0.738,1.287 h -0.666 v -4.356 z m 6.192,4.32 h -1.773 v -1.638 h 1.773 v -1.017 h -1.773 v -1.629 h 1.773 v -1.008 h -2.925 v 6.3 h 2.925 z m 3.22199,1.098 c 1.224,0 1.71901,-0.477 1.80901,-2.115 h -1.16101 c -0.054,0.936 -0.243,1.134 -0.684,1.134 h -0.054 c -0.297,0 -0.486,-0.09 -0.576,-0.279 -0.09,-0.189 -0.135,-0.522 -0.135,-0.999 v -1.953 c 0,-0.972 0.126,-1.278 0.711,-1.278 h 0.054 c 0.441,0 0.63,0.189 0.684,1.125 h 1.16101 c -0.09,-1.638 -0.58501,-2.115 -1.80901,-2.115 h -0.135 c -1.323,0 -1.827,0.54 -1.827,2.34 v 1.8 c 0,1.8 0.504,2.34 1.827,2.34 z m 5.823019,-6.39 h -1.701 l -1.341,6.3 h 1.197 l 0.252,-1.35 h 1.449 l 0.261,1.35 h 1.224 z m -0.846,1.206 0.504,2.745 h -1.053 l 0.504,-2.745 z m 4.93199,2.583 1.476,-3.789 h -1.152 l -0.837,2.583 h -0.045 l -0.828,-2.583 h -1.242 l 1.467,3.807 v 2.493 h 1.161 z"
   id="text2-2-5"
   style="font-size:12px;font-family:'Pilat Condensed';-inkscape-font-specification:'Pilat Condensed, ';letter-spacing:0.9px;word-spacing:0.77px;white-space:pre;fill:#0b1116;fill-opacity:0.952941;stroke-width:0.850395;stroke-linejoin:round;stroke-miterlimit:1.41421"
   aria-label="DECAY" /><ellipse
   style="fill:#213d42;stroke:none;stroke-width:0.283464"
   id="damping_input"
   cx="51.752628"
   cy="332.44659"
   inkscape:label=""
   rx="11.316981"
   ry="11.338583" /><ellipse
   style="fill:#213d42;stroke:none;stroke-width:0.283464"
   id="damping_atten_knob"
   cx="51.752628"
   cy="285.18234"
   inkscape:label=""
   rx="11.316981"
   ry="11.338583" /><path
   d="m 257.21365,134.95128 c 0,-1.809 -0.558,-2.349 -1.881,-2.349 h -1.836 v 6.3 h 1.836 c 1.323,0 1.881,-0.54 1.881,-2.34 z m -1.899,-1.377 c 0.576,0 0.738,0.324 0.738,1.296 v 1.773 c 0,0.963 -0.171,1.287 -0.738,1.287 h -0.666 v -4.356 z m 5.89499,-0.972 h -1.701 l -1.341,6.3 h 1.197 l 0.252,-1.35 h 1.449 l 0.261,1.35 h 1.224 z m -0.846,1.206 0.504,2.745 h -1.053 l 0.504,-2.745 z m 8.712,-1.206 h -1.791 l -0.828,3.978 h -0.054 l -0.819,-3.978 h -1.881 v 6.3 h 1.107 v -4.941 h 0.045 l 1.062,4.941 h 0.945 l 1.053,-4.941 h 0.054 v 4.941 h 1.107 z m 2.56501,4.212 h 0.783 c 1.179,0 1.701,-0.306 1.701,-1.926 v -0.36 c 0,-1.656 -0.504,-1.926 -1.701,-1.926 h -1.935 v 6.3 h 1.152 z m 0.684,-3.249 c 0.468,0 0.648,0.117 0.648,0.936 v 0.432 c 0,0.81 -0.171,0.936 -0.648,0.936 h -0.684 v -2.304 z m 4.22099,-0.963 h -1.152 v 6.3 h 1.152 z m 5.42699,0 h -1.062 v 4.257 h -0.045 l -1.386,-4.257 h -1.521 v 6.3 h 1.062 v -4.257 h 0.045 l 1.386,4.257 h 1.521 z m 3.312,6.39 c 1.323,0 1.854,-0.522 1.854,-2.34 v -1.386 h -1.971 v 1.008 h 0.819 v 0.585 c 0,0.927 -0.162,1.152 -0.702,1.152 h -0.081 c -0.297,0 -0.486,-0.09 -0.585,-0.27 -0.09,-0.189 -0.135,-0.522 -0.135,-0.999 v -1.962 c 0,-0.486 0.045,-0.819 0.135,-0.999 0.099,-0.189 0.288,-0.279 0.585,-0.279 h 0.063 c 0.441,0 0.63,0.198 0.675,0.918 h 1.179 c -0.072,-1.449 -0.657,-1.908 -1.836,-1.908 h -0.099 c -1.323,0 -1.863,0.522 -1.863,2.349 v 1.791 c 0,1.818 0.54,2.34 1.863,2.34 z"
   id="text2-2-6"
   style="font-size:12px;font-family:'Pilat Condensed';-inkscape-font-specification:'Pilat Condensed, ';letter-spacing:0.9px;word-spacing:0.77px;white-space:pre;fill:#0b1116;fill-opacity:0.952941;stroke-width:0.850395;stroke-linejoin:round;stroke-miterlimit:1.41421"
   aria-label="DAMPING" /><path
   d="m 38.648639,256.78276 c 0,-1.809 -0.558,-2.349 -1.881,-2.349 h -1.836 v 6.3 h 1.836 c 1.323,0 1.881,-0.54 1.881,-2.34 z m -1.899,-1.377 c 0.576,0 0.738,0.324 0.738,1.296 v 1.773 c 0,0.963 -0.171,1.287 -0.738,1.287 h -0.666 v -4.356 z m 5.89499,-0.972 h -1.701 l -1.341,6.3 h 1.197 l 0.252,-1.35 h 1.449 l 0.261,1.35 h 1.224 z m -0.846,1.206 0.504,2.745 h -1.053 l 0.504,-2.745 z m 8.712,-1.206 h -1.791 l -0.828,3.978 h -0.054 l -0.819,-3.978 h -1.881 v 6.3 h 1.107 v -4.941 h 0.045 l 1.062,4.941 h 0.945 l 1.053,-4.941 h 0.054 v 4.941 h 1.107 z m 2.56501,4.212 h 0.783 c 1.179,0 1.701,-0.306 1.701,-1.926 v -0.36 c 0,-1.656 -0.504,-1.926 -1.701,-1.926 h -1.935 v 6.3 h 1.152 z m 0.684,-3.249 c 0.468,0 0.648,0.117 0.648,0.936 v 0.432 c 0,0.81 -0.171,0.936 -0.648,0.936 h -0.684 v -2.304 z m 4.22099,-0.963 h -1.152 v 6.3 h 1.152 z m 5.42699,0 h -1.062 v 4.257 h -0.045 l -1.386,-4.257 h -1.521 v 6.3 h 1.062 v -4.257 h 0.045 l 1.386,4.257 h 1.521 z m 3.312,6.39 c 1.323,0 1.854,-0.522 1.854,-2.34 v -1.386 h -1.971 v 1.008 h 0.819 v 0.585 c 0,0.927 -0.162,1.152 -0.702,1.152 h -0.081 c -0.297,0 -0.486,-0.09 -0.585,-0.27 -0.09,-0.189 -0.135,-0.522 -0.135,-0.999 v -1.962 c 0,-0.486 0.045,-0.819 0.135,-0.999 0.099,-0.189 0.288,-0.279 0.585,-0.279 h 0.063 c 0.441,0 0.63,0.198 0.675,0.918 h 1.179 c -0.072,-1.449 -0.657,-1.908 -1.836,-1.908 h -0.099 c -1.323,0 -1.863,0.522 -1.863,2.349 v 1.791 c 0,1.818 0.54,2.34 1.863,2.34 z"
   id="text2-2-6-1"
   style="font-size:12px;font-family:'Pilat Condensed';-inkscape-font-specification:'Pilat Condensed, ';letter-spacing:0.9px;word-spacing:0.77px;white-space:pre;fill:#0b1116;fill-opacity:0.952941;stroke-width:0.850395;stroke-linejoin:round;stroke-miterlimit:1.41421"
   aria-label="DAMPING" /><path
   d="m 38.692643,74.591306 h 1.17 v -1.026 h -3.474 v 1.026 h 1.143 v 5.274 h 1.161 z m 3.447,2.736 h 0.675 c 0.486,0 0.657,0.09 0.657,0.864 v 1.674001 h 1.152 v -1.602001 c 0,-1.134 -0.243,-1.331999 -0.729,-1.44 v -0.045 c 0.486,-0.126 0.729,-0.405 0.729,-1.421999 v -0.117001 c 0,-1.403999 -0.504,-1.674 -1.701,-1.674 h -1.935 v 6.3 h 1.152 z m 0.666,-2.79 c 0.477,0 0.666,0.09 0.666,0.846 v 0.18 c 0,0.747 -0.18,0.837 -0.621,0.837 h -0.711 v -1.863 z m 4.338,-0.972 h -1.152 v 6.3 h 1.152 z m 3.312,6.39 c 1.323,0 1.854,-0.522 1.854,-2.34 v -1.386 h -1.971 v 1.008 h 0.819 v 0.585 c 0,0.927 -0.162,1.152 -0.702,1.152 h -0.081 c -0.297,0 -0.486,-0.09 -0.585,-0.27 -0.09,-0.189 -0.135,-0.522 -0.135,-0.999 v -1.962 c 0,-0.486 0.045,-0.819 0.135,-0.999 0.099,-0.189 0.288,-0.279 0.585,-0.279 h 0.063 c 0.441,0 0.63,0.198 0.675,0.918001 h 1.179 c -0.072,-1.449 -0.657,-1.908 -1.836,-1.908 h -0.099 c -1.323,0 -1.863,0.522 -1.863,2.349 v 1.791 c 0,1.817999 0.54,2.34 1.863,2.34 z m 5.103,0 c 1.323,0 1.854,-0.522 1.854,-2.34 v -1.386 h -1.971 v 1.008 h 0.819 v 0.585 c 0,0.927 -0.162,1.152 -0.702,1.152 h -0.081 c -0.297,0 -0.486,-0.09 -0.585,-0.27 -0.09,-0.189 -0.135,-0.522 -0.135,-0.999 v -1.962 c 0,-0.486 0.045,-0.819 0.135,-0.999 0.099,-0.189 0.288,-0.279 0.585,-0.279 h 0.063 c 0.441,0 0.63,0.198 0.675,0.918001 h 1.179 c -0.072,-1.449 -0.657,-1.908 -1.836,-1.908 h -0.099 c -1.323,0 -1.863,0.522 -1.863,2.349 v 1.791 c 0,1.817999 0.54,2.34 1.863,2.34 z m 6.12901,-1.098 h -1.773 v -1.638 h 1.773 v -1.017 h -1.773 v -1.629 h 1.773 v -1.008 h -2.925 v 6.3 h 2.925 z m 2.47499,-1.53 h 0.675 c 0.486,0 0.657,0.09 0.657,0.864 v 1.674001 h 1.152 v -1.602001 c 0,-1.134 -0.243,-1.331999 -0.729,-1.44 v -0.045 c 0.486,-0.126 0.729,-0.405 0.729,-1.421999 v -0.117001 c 0,-1.403999 -0.504,-1.674 -1.701,-1.674 h -1.935 v 6.3 h 1.152 z m 0.666,-2.79 c 0.477,0 0.666,0.09 0.666,0.846 v 0.18 c 0,0.747 -0.18,0.837 -0.621,0.837 h -0.711 v -1.863 z"
   id="text2-2-6-4"
   style="font-size:12px;font-family:'Pilat Condensed';-inkscape-font-specification:'Pilat Condensed, ';letter-spacing:0.9px;word-spacing:0.77px;white-space:pre;fill:#0b1116;fill-opacity:0.952941;stroke-width:0.850395;stroke-linejoin:round;stroke-miterlimit:1.41421"
   aria-label="TRIGGER" /><path
   d="m 94.657663,73.043307 h -1.197 l -0.918,4.986 h -0.045 l -0.918,-4.986 h -1.233 l 1.341,6.3 h 1.629 z m 4.473,7.434 v -0.603 h -3.69 v 0.603 z m 2.942997,-1.044 c 1.332,0 1.863,-0.522 1.863,-2.34 v -1.791 c 0,-1.827 -0.531,-2.349 -1.863,-2.349 h -0.099 c -1.323,0 -1.863,0.522 -1.863,2.349 v 1.791 c 0,1.818 0.54,2.34 1.863,2.34 z m -0.081,-0.981 c -0.297,0 -0.486,-0.09 -0.585,-0.279 -0.09,-0.189 -0.135,-0.522 -0.135,-0.999 v -1.953 c 0,-0.486 0.045,-0.819 0.135,-0.999 0.099,-0.189 0.288,-0.279 0.585,-0.279 h 0.063 c 0.297,0 0.486,0.09 0.576,0.279 0.099,0.18 0.144,0.513 0.144,0.999 v 1.953 c 0,0.477 -0.045,0.81 -0.144,0.999 -0.09,0.189 -0.279,0.279 -0.576,0.279 z m 5.193,0.981 c 1.224,0 1.719,-0.477 1.809,-2.115 h -1.161 c -0.054,0.936 -0.243,1.134 -0.684,1.134 h -0.054 c -0.297,0 -0.486,-0.09 -0.576,-0.279 -0.09,-0.189 -0.135,-0.522 -0.135,-0.999 v -1.953 c 0,-0.972 0.126,-1.278 0.711,-1.278 h 0.054 c 0.441,0 0.63,0.189 0.684,1.125 h 1.161 c -0.09,-1.638 -0.585,-2.115 -1.809,-2.115 h -0.135 c -1.323,0 -1.827,0.54 -1.827,2.34 v 1.8 c 0,1.8 0.504,2.34 1.827,2.34 z m 5.085,-5.364 h 1.17 v -1.026 h -3.474 v 1.026 h 1.143 v 5.274 h 1.161 z"
   id="text2-2-6-4-2"
   style="font-size:12px;font-family:'Pilat Condensed';-inkscape-font-specification:'Pilat Condensed, ';letter-spacing:0.9px;word-spacing:0.77px;white-space:pre;fill:#0b1116;fill-opacity:0.952941;stroke-width:0.850395;stroke-linejoin:round;stroke-miterlimit:1.41421"
   aria-label="V_OCT&#10;" /><path
   d="m 672.024,336.12 c 1.776,0 2.484,-0.696 2.484,-3.12 v -2.388 c 0,-2.436 -0.708,-3.132 -2.484,-3.132 h -0.132 c -1.764,0 -2.484,0.696 -2.484,3.132 V 333 c 0,2.424 0.72,3.12 2.484,3.12 z m -0.108,-1.308 c -0.396,0 -0.648,-0.12 -0.78,-0.372 -0.12,-0.252 -0.18,-0.696 -0.18,-1.332 v -2.604 c 0,-0.648 0.06,-1.092 0.18,-1.332 0.132,-0.252 0.384,-0.372 0.78,-0.372 H 672 c 0.396,0 0.648,0.12 0.768,0.372 0.132,0.24 0.192,0.684 0.192,1.332 v 2.604 c 0,0.636 -0.06,1.08 -0.192,1.332 -0.12,0.252 -0.372,0.372 -0.768,0.372 z m 4.26,-0.372 c 0,1.236 0.528,1.68 1.5,1.68 0.72,0 1.104,-0.324 1.26,-1.032 h 0.06 V 336 h 1.392 v -6.36 h -1.392 v 4.188 c 0,0.756 -0.276,1.044 -0.768,1.044 -0.444,0 -0.66,-0.144 -0.66,-0.852 v -4.38 h -1.392 z m 8.58001,0.348 h -0.252 c -0.564,0 -0.696,-0.12 -0.696,-0.84 v -3.132 h 0.948 v -1.176 h -0.948 v -2.04 h -1.404 v 2.04 h -0.708 v 1.176 h 0.708 v 3.336 c 0,1.392 0.252,1.848 1.716,1.848 h 0.636 z m 1.5,3.252 h 1.404 v -2.7 h 0.048 c 0.156,0.492 0.432,0.78 1.152,0.78 h 0.048 c 0.984,0 1.668,-0.456 1.668,-2.508 v -1.596 c 0,-2.052 -0.708,-2.496 -1.668,-2.496 h -0.048 c -0.72,0 -0.996,0.288 -1.152,0.78 h -0.048 v -0.66 h -1.404 z m 2.16,-7.332 c 0.552,0 0.756,0.144 0.756,1.428 v 1.368 c 0,1.272 -0.204,1.416 -0.756,1.416 -0.564,0 -0.756,-0.144 -0.756,-1.416 v -1.368 c 0,-1.284 0.192,-1.428 0.756,-1.428 z m 3.74399,3.732 c 0,1.236 0.528,1.68 1.5,1.68 0.72,0 1.104,-0.324 1.26,-1.032 h 0.06 V 336 h 1.392 v -6.36 h -1.392 v 4.188 c 0,0.756 -0.276,1.044 -0.768,1.044 -0.444,0 -0.66,-0.144 -0.66,-0.852 v -4.38 h -1.392 z m 8.58001,0.348 h -0.252 c -0.564,0 -0.696,-0.12 -0.696,-0.84 v -3.132 h 0.948 v -1.176 h -0.948 v -2.04 h -1.404 v 2.04 h -0.708 v 1.176 h 0.708 v 3.336 c 0,1.392 0.252,1.848 1.716,1.848 h 0.636 z"
   id="text8"
   style="font-size:12px;font-family:'Pilat Condensed';-inkscape-font-specification:'Pilat Condensed, ';letter-spacing:0.9px;word-spacing:0.77px;white-space:pre;fill:#213d42;stroke-width:0.377952"
   transform="matrix(0.75000003,0,0,0.75000003,60.750005,49.125004)"
   aria-label="Output" /><text
   xml:space="preserve"
   style="font-size:9px;font-family:'Rubik Dirt';-inkscape-font-specification:'Rubik Dirt';text-align:start;letter-spacing:0.675px;word-spacing:0.5775px;writing-mode:lr-tb;direction:ltr;text-anchor:start;opacity:0.496955;fill:#e90000;stroke-width:0.283465;-inkscape-stroke:none"
   x="279.48398"
   y="38.846684"
   id="text4"><tspan
     sodipodi:role="line"
     id="tspan1"
     style="stroke-width:0.283465"
     x="279.48398"
     y="38.846684" /></text><path
   d="m 175.76028,79.955307 c 1.152,0 1.746,-0.423 1.746,-1.863 v -0.126 c 0,-1.197001 -0.36,-1.611001 -1.35,-1.737 l -0.45,-0.054 c -0.513,-0.063 -0.63,-0.261 -0.63,-0.81 v -0.126001 c 0,-0.620999 0.162,-0.801 0.594,-0.801 0.423,0 0.603,0.144001 0.639,0.891001 h 1.17 c -0.036,-1.404 -0.612,-1.854 -1.746,-1.854 h -0.108 c -1.188,0 -1.71,0.45 -1.71,1.854 v 0.099 c 0,1.197 0.369,1.611 1.359,1.736999 l 0.45,0.054 c 0.513,0.072 0.63,0.251999 0.63,0.819 v 0.153 c 0,0.639 -0.18,0.81 -0.639,0.81 -0.387,0 -0.621,-0.135 -0.657,-0.846 h -1.179 c 0.027,0.675 0.189,1.152 0.486,1.413 0.297,0.261 0.738,0.387 1.305,0.387 z m 4.23,0 c 1.332,0 1.863,-0.522001 1.863,-2.34 v -1.791 c 0,-1.827 -0.531,-2.349 -1.863,-2.349 h -0.099 c -1.323,0 -1.863,0.522 -1.863,2.349 v 1.791 c 0,1.817999 0.54,2.34 1.863,2.34 z m -0.081,-0.981 c -0.297,0 -0.486,-0.09 -0.585,-0.279 -0.09,-0.189 -0.135,-0.522 -0.135,-0.999 v -1.953 c 0,-0.486 0.045,-0.819 0.135,-0.999 0.099,-0.189 0.288,-0.279 0.585,-0.279 h 0.063 c 0.297,0 0.486,0.09 0.576,0.279 0.099,0.18 0.144,0.513 0.144,0.999 v 1.953 c 0,0.477 -0.045,0.81 -0.144,0.999 -0.09,0.189 -0.279,0.279 -0.576,0.279 z m 4.464,0.981 c 1.296,0 1.782,-0.441 1.782,-2.232 v -4.158 h -1.161 v 4.167 c 0,0.944999 -0.144,1.161 -0.639,1.161 h -0.072 c -0.495,0 -0.639,-0.216 -0.639,-1.161 v -4.167 h -1.161 v 4.158 c 0,1.791 0.486,2.232 1.782,2.232 z m 3.61801,-2.628 h 0.675 c 0.486,0 0.657,0.09 0.657,0.864 v 1.674 h 1.152 v -1.602 c 0,-1.134 -0.243,-1.332 -0.729,-1.44 v -0.045 c 0.486,-0.126 0.729,-0.405 0.729,-1.422 v -0.117 c 0,-1.404 -0.504,-1.674 -1.701,-1.674 h -1.935 v 6.3 h 1.152 z m 0.666,-2.790001 c 0.477,0 0.666,0.09 0.666,0.846001 v 0.18 c 0,0.747 -0.18,0.837 -0.621,0.837 h -0.711 v -1.863 z m 4.41,5.418001 c 1.224,0 1.719,-0.477 1.809,-2.115 h -1.161 c -0.054,0.936 -0.243,1.134 -0.684,1.134 h -0.054 c -0.297,0 -0.486,-0.09 -0.576,-0.279 -0.09,-0.189 -0.135,-0.522 -0.135,-0.999 v -1.953 c 0,-0.972 0.126,-1.278 0.711,-1.278 h 0.054 c 0.441,0 0.63,0.189 0.684,1.125 h 1.161 c -0.09,-1.638 -0.585,-2.115 -1.809,-2.115 h -0.135 c -1.323,0 -1.827,0.54 -1.827,2.34 v 1.8 c 0,1.8 0.504,2.34 1.827,2.34 z m 5.39101,-1.098 h -1.773 v -1.638 h 1.773 v -1.017 h -1.773 v -1.629001 h 1.773 v -1.007999 h -2.925 v 6.3 h 2.925 z"
   id="text2-8"
   style="font-size:12px;font-family:'Pilat Condensed';-inkscape-font-specification:'Pilat Condensed, ';text-align:center;white-space:pre;fill-opacity:0.952941;stroke-width:0.283465"
   aria-label="SOURCE" /><path
   style="font-size:9.33333px;font-family:Pilat;-inkscape-font-specification:Pilat;text-align:center;letter-spacing:0.88px;white-space:pre;fill:#0b1116;fill-opacity:0.952941;stroke-width:0.283465"
   d="m 441.9148,139.11153 h 1.91381 c 1.60423,0 2.25154,-0.66608 2.25154,-2.09206 v -0.28144 c 0,-1.54793 -0.64731,-2.11082 -2.25154,-2.11082 h -3.36793 v 6.56699 h 1.45412 z m 1.67928,-3.29288 c 0.78804,0 1.03195,0.26268 1.03195,1.00381 v 0.0938 c 0,0.72237 -0.22515,1.00381 -1.02257,1.00381 h -1.68866 v -2.10143 z m 7.2076,-1.19144 h -1.8669 l -1.42597,0.84433 v 1.58546 l 1.83875,-1.24773 h 0.0563 v 5.38493 h 1.39783 z"
   id="text2-5-5-9-5"
   aria-label="P1" /><path
   style="font-size:9.33333px;font-family:Pilat;-inkscape-font-specification:Pilat;text-align:center;letter-spacing:0.88px;white-space:pre;fill:#0b1116;fill-opacity:0.952941;stroke-width:0.283465"
   d="m 394.03626,258.78458 h 1.91381 c 1.60423,0 2.25154,-0.66608 2.25154,-2.09206 v -0.28143 c 0,-1.54794 -0.64731,-2.11082 -2.25154,-2.11082 h -3.36793 v 6.56698 h 1.45412 z m 1.67928,-3.29288 c 0.78804,0 1.03195,0.26269 1.03195,1.00381 v 0.0938 c 0,0.72237 -0.22515,1.00381 -1.02257,1.00381 h -1.68866 v -2.10143 z m 7.2076,-1.19144 h -1.8669 l -1.42597,0.84433 v 1.58546 l 1.83875,-1.24773 h 0.0563 v 5.38493 h 1.39783 z"
   id="text2-5-5-9-5-9"
   aria-label="P1" /><path
   style="font-size:9.33333px;font-family:Pilat;-inkscape-font-specification:Pilat;text-align:center;letter-spacing:0.88px;white-space:pre;fill:#0b1116;fill-opacity:0.952941;stroke-width:0.283465"
   d="m 491.56378,138.69033 h 1.91381 c 1.60423,0 2.25154,-0.66608 2.25154,-2.09206 v -0.28144 c 0,-1.54793 -0.64731,-2.11082 -2.25154,-2.11082 h -3.36792 v 6.56699 h 1.45411 z m 1.67928,-3.29288 c 0.78804,0 1.03196,0.26268 1.03196,1.00381 v 0.0938 c 0,0.72237 -0.22515,1.00381 -1.02258,1.00381 h -1.68866 v -2.10143 z m 9.14956,4.15597 h -3.81823 v -0.13134 c 0,-0.72237 0.17824,-0.89124 0.90999,-1.0601 l 1.26649,-0.29083 c 0.62856,-0.14072 1.05072,-0.36587 1.28526,-0.69422 0.23453,-0.32835 0.34711,-0.75051 0.34711,-1.28526 v -0.0751 c 0,-1.23835 -0.83495,-1.90443 -2.49546,-1.90443 h -0.12195 c -1.30402,0 -2.3266,0.48784 -2.51422,1.95134 h 1.39782 c 0.0844,-0.55351 0.51599,-0.75052 1.22897,-0.75052 0.74113,0 1.10701,0.2533 1.10701,0.76928 v 0.0469 c 0,0.47845 -0.16887,0.68484 -0.77865,0.82556 l -1.14454,0.26268 c -1.51979,0.3565 -1.88567,0.91 -1.88567,2.44855 v 1.10701 h 5.21607 z"
   id="text2-5-5-9-5-7"
   aria-label="P2" /><path
   style="font-size:9.33333px;font-family:Pilat;-inkscape-font-specification:Pilat;text-align:center;letter-spacing:0.88px;white-space:pre;fill:#0b1116;fill-opacity:0.952941;stroke-width:0.283465"
   d="m 438.31528,258.83152 h 1.91381 c 1.60423,0 2.25154,-0.66608 2.25154,-2.09206 v -0.28144 c 0,-1.54793 -0.64731,-2.11082 -2.25154,-2.11082 h -3.36792 v 6.56699 h 1.45411 z m 1.67928,-3.29288 c 0.78804,0 1.03196,0.26268 1.03196,1.00381 v 0.0938 c 0,0.72237 -0.22515,1.00381 -1.02258,1.00381 h -1.68866 v -2.10143 z m 9.14956,4.15597 h -3.81823 v -0.13134 c 0,-0.72237 0.17824,-0.89124 0.90999,-1.0601 l 1.26649,-0.29083 c 0.62856,-0.14072 1.05072,-0.36587 1.28526,-0.69422 0.23453,-0.32835 0.34711,-0.75051 0.34711,-1.28526 v -0.0751 c 0,-1.23835 -0.83495,-1.90443 -2.49546,-1.90443 h -0.12195 c -1.30402,0 -2.3266,0.48784 -2.51422,1.95134 h 1.39782 c 0.0844,-0.55351 0.51599,-0.75052 1.22897,-0.75052 0.74113,0 1.10701,0.2533 1.10701,0.76928 v 0.0469 c 0,0.47845 -0.16887,0.68484 -0.77865,0.82556 l -1.14454,0.26268 c -1.51979,0.3565 -1.88567,0.91 -1.88567,2.44855 v 1.10701 h 5.21607 z"
   id="text2-5-5-9-5-7-6"
   aria-label="P2" /><path
   style="font-size:9.33333px;font-family:Pilat;-inkscape-font-specification:Pilat;text-align:center;letter-spacing:0.88px;white-space:pre;fill:#0b1116;fill-opacity:0.952941;stroke-width:0.283465"
   d="m 542.70033,138.78415 h 1.91381 c 1.60422,0 2.25154,-0.66608 2.25154,-2.09206 v -0.28144 c 0,-1.54793 -0.64732,-2.11082 -2.25154,-2.11082 h -3.36793 v 6.56699 h 1.45412 z m 1.67927,-3.29288 c 0.78804,0 1.03196,0.26268 1.03196,1.00381 v 0.0938 c 0,0.72237 -0.22515,1.00381 -1.02258,1.00381 h -1.68865 v -2.10143 z m 6.69163,5.46936 c 1.60422,0 2.49546,-0.71298 2.49546,-2.06391 v -0.0657 c 0,-0.91 -0.41278,-1.36969 -1.07887,-1.51979 v -0.0563 c 0.63794,-0.1501 0.95691,-0.57227 0.95691,-1.35092 v -0.0563 c 0,-1.04134 -0.93814,-1.64175 -2.41102,-1.64175 h -0.1032 c -1.29464,0 -2.26092,0.51598 -2.48607,1.92319 h 1.39782 c 0.11258,-0.59103 0.60042,-0.72237 1.13516,-0.72237 0.66607,0 1.06948,0.19701 1.06948,0.75051 v 0.0563 c 0,0.45031 -0.26268,0.67547 -0.94753,0.67547 h -1.04133 v 1.21958 h 1.107 c 0.77866,0 1.00382,0.20639 1.00382,0.74113 v 0.0657 c 0,0.56288 -0.38464,0.84432 -1.1633,0.84432 -0.62856,0 -1.18205,-0.1501 -1.29463,-0.81618 h -1.40721 c 0.1501,1.48226 1.33215,2.01701 2.62679,2.01701 z"
   id="text2-5-5-9-5-7-5"
   aria-label="P3" /><path
   style="font-size:9.33333px;font-family:Pilat;-inkscape-font-specification:Pilat;text-align:center;letter-spacing:0.88px;white-space:pre;fill:#0b1116;fill-opacity:0.952941;stroke-width:0.283465"
   d="m 483.54652,258.78461 h 1.91381 c 1.60422,0 2.25154,-0.66608 2.25154,-2.09206 v -0.28144 c 0,-1.54792 -0.64732,-2.11081 -2.25154,-2.11081 h -3.36793 v 6.56698 h 1.45412 z m 1.67927,-3.29288 c 0.78804,0 1.03196,0.26269 1.03196,1.00381 v 0.0938 c 0,0.72237 -0.22515,1.00381 -1.02258,1.00381 h -1.68865 v -2.10143 z m 6.69163,5.46936 c 1.60422,0 2.49546,-0.71298 2.49546,-2.06391 v -0.0657 c 0,-0.91 -0.41278,-1.36969 -1.07887,-1.51979 v -0.0563 c 0.63794,-0.1501 0.95691,-0.57227 0.95691,-1.35091 v -0.0563 c 0,-1.04134 -0.93814,-1.64175 -2.41102,-1.64175 h -0.1032 c -1.29464,0 -2.26092,0.51598 -2.48607,1.92319 h 1.39782 c 0.11258,-0.59103 0.60042,-0.72237 1.13516,-0.72237 0.66607,0 1.06948,0.19701 1.06948,0.75051 v 0.0563 c 0,0.45031 -0.26268,0.67547 -0.94753,0.67547 h -1.04133 v 1.21958 h 1.107 c 0.77866,0 1.00382,0.20639 1.00382,0.74113 v 0.0657 c 0,0.56288 -0.38464,0.84432 -1.1633,0.84432 -0.62856,0 -1.18205,-0.1501 -1.29463,-0.81618 h -1.40721 c 0.1501,1.48226 1.33215,2.01702 2.62679,2.01702 z"
   id="text2-5-5-9-5-7-5-1"
   aria-label="P3" /><path
   style="font-size:10.6667px;font-family:Pilat;-inkscape-font-specification:Pilat;text-align:center;letter-spacing:0.88px;white-space:pre;fill:#0b1116;fill-opacity:0.952941;stroke-width:0.283465"
   d="m 340.32727,77.814285 h -2.92801 v -1.24801 h 2.92801 v -1.032 h -2.92801 v -1.24001 h 2.92801 v -1.04 h -4.16802 v 5.60002 h 4.16802 z m 6.82002,-0.032 h -0.95201 v -0.056 c 0.52001,-0.184 0.8,-0.792 0.8,-1.68001 v -0.264 c 0,-1.816 -0.73599,-2.608 -2.55201,-2.608 h -0.22399 c -1.81601,0 -2.55201,0.792 -2.55201,2.64 v 0.40801 c 0,1.848 0.736,2.632 2.55201,2.632 h 2.92801 z m -2.88001,-0.008 c -1.112,0 -1.34401,-0.616 -1.34401,-1.632 v -0.256 c 0,-1.016 0.23201,-1.63201 1.34401,-1.63201 h 0.136 c 1.104,0 1.336,0.61601 1.336,1.63201 v 0.256 c 0,1.032 -0.2,1.616 -1.312,1.632 z m 6.60402,1.16 c 1.728,0 2.392,-0.592 2.392,-2.32 v -3.36001 h -1.264 v 3.28801 c 0,0.968 -0.272,1.28 -1.09601,1.28 h -0.17599 c -0.824,0 -1.09601,-0.304 -1.09601,-1.28 v -3.28801 h -1.264 v 3.36001 c 0,1.728 0.656,2.32 2.392,2.32 z m 7.23601,-5.68001 h -1.872 l -2.04801,5.60001 h 1.32801 l 0.456,-1.28 h 2.36001 l 0.456,1.28 h 1.376 z m -0.928,1.04 0.79201,2.24001 h -1.64001 l 0.792,-2.24001 z m 5.99602,0.032 h 1.72801 v -1.072 h -4.68001 v 1.072 h 1.704 v 4.52802 h 1.248 z m 4.18801,-1.072 h -1.24 v 5.60002 h 1.24 z m 4.16401,5.68002 c 1.80001,0 2.608,-0.78401 2.608,-2.63201 v -0.488 c 0,-1.84801 -0.80799,-2.64001 -2.608,-2.64001 h -0.104 c -1.81601,0 -2.61601,0.792 -2.61601,2.64001 v 0.488 c 0,1.84801 0.8,2.63201 2.61601,2.63201 z m -0.12,-1.08001 c -1.112,0 -1.34401,-0.616 -1.34401,-1.632 v -0.336 c 0,-1.016 0.23201,-1.63201 1.34401,-1.63201 h 0.136 c 1.104,0 1.336,0.61601 1.336,1.63201 v 0.336 c 0,1.032 -0.232,1.61601 -1.336,1.632 z m 9.56403,-4.60001 h -1.224 v 4.25601 h -0.048 l -2.19201,-4.25601 h -1.92001 v 5.60002 h 1.22401 v -4.24802 h 0.048 l 2.2,4.24802 h 1.91201 z"
   id="text2-5-5-9-5-2"
   aria-label="EQUATION" /><path
   style="font-size:10.6667px;font-family:Pilat;-inkscape-font-specification:Pilat;text-align:center;letter-spacing:0.88px;white-space:pre;fill:#0b1116;fill-opacity:0.952941;stroke-width:0.283465"
   d="m 152.36862,259.34376 h -2.92801 v -1.24801 h 2.92801 v -1.032 h -2.92801 v -1.24001 h 2.92801 v -1.04 h -4.16802 v 5.60002 h 4.16802 z m 6.82002,-0.032 h -0.95201 v -0.056 c 0.52001,-0.184 0.8,-0.792 0.8,-1.68001 v -0.264 c 0,-1.816 -0.73599,-2.608 -2.55201,-2.608 h -0.22399 c -1.81601,0 -2.55201,0.792 -2.55201,2.64 v 0.40801 c 0,1.848 0.736,2.632 2.55201,2.632 h 2.92801 z m -2.88001,-0.008 c -1.112,0 -1.34401,-0.616 -1.34401,-1.632 v -0.256 c 0,-1.016 0.23201,-1.63201 1.34401,-1.63201 h 0.136 c 1.104,0 1.336,0.61601 1.336,1.63201 v 0.256 c 0,1.032 -0.2,1.616 -1.312,1.632 z m 6.60402,1.16 c 1.728,0 2.392,-0.592 2.392,-2.32 v -3.36001 h -1.264 v 3.28801 c 0,0.968 -0.272,1.28 -1.09601,1.28 h -0.17599 c -0.824,0 -1.09601,-0.304 -1.09601,-1.28 v -3.28801 h -1.264 v 3.36001 c 0,1.728 0.656,2.32 2.392,2.32 z"
   id="text2-5-5-9-5-2-86"
   aria-label="EQUATION"
   sodipodi:nodetypes="ccccccccccccccccsssssssccssssssscsssccssssccsss" /><path
   d="m 203.4084,130.82214 h -0.944 v 3.78401 h -0.04 l -1.23201,-3.78401 h -1.352 v 5.60002 h 0.944 v -3.78402 h 0.04 l 1.232,3.78402 h 1.352 z m 3.004,5.68002 c 1.18401,0 1.65601,-0.46401 1.65601,-2.08001 v -1.59201 c 0,-1.624 -0.472,-2.088 -1.65601,-2.088 h -0.088 c -1.17601,0 -1.65601,0.464 -1.65601,2.088 v 1.59201 c 0,1.616 0.48,2.08001 1.65601,2.08001 z m -0.072,-0.87201 c -0.264,0 -0.432,-0.08 -0.51999,-0.248 -0.08,-0.168 -0.12,-0.464 -0.12,-0.888 v -1.73601 c 0,-0.432 0.04,-0.728 0.12,-0.888 0.088,-0.168 0.25599,-0.248 0.51999,-0.248 h 0.056 c 0.264,0 0.432,0.08 0.512,0.248 0.088,0.16 0.128,0.456 0.128,0.888 v 1.73601 c 0,0.424 -0.04,0.72 -0.128,0.888 -0.08,0.168 -0.248,0.248 -0.512,0.248 z m 4.01202,-4.80801 h -1.02401 v 5.60002 h 1.02401 z m 2.852,5.68002 c 1.024,0 1.55201,-0.376 1.55201,-1.65601 v -0.112 c 0,-1.064 -0.32001,-1.432 -1.20001,-1.544 l -0.4,-0.048 c -0.45601,-0.056 -0.56,-0.23201 -0.56,-0.72001 v -0.112 c 0,-0.552 0.144,-0.712 0.528,-0.712 0.376,0 0.536,0.128 0.568,0.792 h 1.04001 c -0.032,-1.248 -0.54401,-1.648 -1.55201,-1.648 h -0.096 c -1.05601,0 -1.52001,0.4 -1.52001,1.648 v 0.088 c 0,1.06401 0.32801,1.43201 1.208,1.54401 l 0.40001,0.048 c 0.456,0.064 0.56,0.224 0.56,0.728 v 0.136 c 0,0.568 -0.16,0.72 -0.568,0.72 -0.34401,0 -0.552,-0.12 -0.58401,-0.752 h -1.04799 c 0.024,0.6 0.168,1.024 0.432,1.25601 0.264,0.232 0.656,0.344 1.16,0.344 z m 5.33201,-0.97601 h -1.576 v -1.456 h 1.576 v -0.904 h -1.576 v -1.44801 h 1.576 v -0.896 h -2.60001 v 5.60002 h 2.60001 z"
   id="text2-5-5-9-5-2-8"
   style="font-size:10.6667px;font-family:'Pilat Condensed';-inkscape-font-specification:'Pilat Condensed, ';text-align:center;letter-spacing:0.88px;white-space:pre;fill:#0b1116;fill-opacity:0.952941;stroke-width:0.283465"
   aria-label="NOISE" /><ellipse
   style="fill:#213d42;stroke:none;stroke-width:0.283464"
   id="equation_light"
   cx="185.8923"
   cy="154.08728"
   inkscape:label=""
   rx="4.0249419"
   ry="4.0326247" /><path
   d="m 202.01837,156.71366 h -1.57601 v -1.456 h 1.57601 v -0.904 h -1.57601 v -1.44801 h 1.57601 v -0.896 h -2.60001 v 5.60002 h 2.60001 z m 4.67601,-0.008 h -0.704 v -0.04 c 0.39999,-0.16 0.608,-0.432 0.608,-1.56 v -1.104 c 0,-1.60801 -0.464,-2.07201 -1.63201,-2.07201 h -0.136 c -1.176,0 -1.632,0.464 -1.632,2.08801 v 1.512 c 0,1.61601 0.456,2.08001 1.632,2.08001 h 1.86401 z m -1.82401,0.032 c -0.264,0 -0.432,-0.08 -0.52,-0.248 -0.08,-0.168 -0.12,-0.464 -0.12,-0.888 v -1.65601 c 0,-0.432 0.04,-0.728 0.12,-0.888 0.088,-0.168 0.256,-0.248 0.52,-0.248 h 0.056 c 0.264,0 0.432,0.08 0.512,0.248 0.088,0.16 0.12799,0.456 0.12799,0.888 v 1.65601 c 0,0.424 -0.04,0.72 -0.12,0.888 -0.08,0.168 -0.248,0.248 -0.512,0.248 z m 4.62801,0.95201 c 1.15201,0 1.58401,-0.392 1.58401,-1.98401 v -3.69601 h -1.032 v 3.70401 c 0,0.84 -0.128,1.032 -0.56801,1.032 h -0.064 c -0.44,0 -0.56801,-0.192 -0.56801,-1.032 v -3.70401 h -1.032 v 3.69601 c 0,1.59201 0.432,1.98401 1.584,1.98401 z m 5.21202,-5.68002 h -1.512 l -1.19201,5.60002 h 1.064 l 0.22401,-1.20001 h 1.288 l 0.23201,1.20001 h 1.088 z m -0.752,1.072 0.448,2.44001 h -0.936 l 0.448,-2.44001 z m 4.30801,-0.16 h 1.04 v -0.912 h -3.088 v 0.912 h 1.016 v 4.68802 h 1.032 z m 3.12401,-0.912 h -1.024 v 5.60002 h 1.024 z m 3.004,5.68002 c 1.184,0 1.65601,-0.46401 1.65601,-2.08001 v -1.59201 c 0,-1.624 -0.47201,-2.088 -1.65601,-2.088 h -0.088 c -1.176,0 -1.656,0.464 -1.656,2.088 v 1.59201 c 0,1.616 0.48,2.08001 1.656,2.08001 z m -0.072,-0.87201 c -0.264,0 -0.432,-0.08 -0.52001,-0.248 -0.08,-0.168 -0.12,-0.464 -0.12,-0.888 v -1.73601 c 0,-0.432 0.04,-0.728 0.12,-0.888 0.088,-0.168 0.25601,-0.248 0.52001,-0.248 h 0.056 c 0.264,0 0.432,0.08 0.512,0.248 0.088,0.16 0.128,0.456 0.128,0.888 v 1.73601 c 0,0.424 -0.04,0.72 -0.128,0.888 -0.08,0.168 -0.248,0.248 -0.512,0.248 z m 6.55602,-4.80801 h -0.944 v 3.78401 h -0.04 l -1.232,-3.78401 h -1.352 v 5.60002 h 0.944 v -3.78402 h 0.04 l 1.23201,3.78402 h 1.35201 z"
   id="text2-5-5-9-5-2-8-1"
   style="font-size:10.6667px;font-family:'Pilat Condensed';-inkscape-font-specification:'Pilat Condensed, ';text-align:center;letter-spacing:0.88px;white-space:pre;fill:#0b1116;fill-opacity:0.952941;stroke-width:0.283465"
   aria-label="EQUATION" /><ellipse
   style="fill:#213d42;stroke:none;stroke-width:0.283464"
   id="equation_continuous_light"
   cx="186.0798"
   cy="173.96225"
   inkscape:label=""
   rx="4.0249419"
   ry="4.0326247" /><path
   d="m 201.57135,176.58865 h -1.576 v -1.456 h 1.576 v -0.904 h -1.576 v -1.44801 h 1.576 v -0.896 h -2.60001 v 5.60002 h 2.60001 z m 4.676,-0.008 h -0.704 v -0.04 c 0.40001,-0.16 0.608,-0.432 0.608,-1.56 v -1.104 c 0,-1.60801 -0.464,-2.07201 -1.632,-2.07201 h -0.136 c -1.176,0 -1.632,0.464 -1.632,2.08801 v 1.512 c 0,1.61601 0.456,2.08001 1.632,2.08001 h 1.864 z m -1.824,0.032 c -0.264,0 -0.432,-0.08 -0.52,-0.248 -0.08,-0.168 -0.12,-0.464 -0.12,-0.888 v -1.65601 c 0,-0.432 0.04,-0.728 0.12,-0.888 0.088,-0.168 0.256,-0.248 0.52,-0.248 h 0.056 c 0.264,0 0.43201,0.08 0.512,0.248 0.088,0.16 0.128,0.456 0.128,0.888 v 1.65601 c 0,0.424 -0.04,0.72 -0.12,0.888 -0.08,0.168 -0.248,0.248 -0.512,0.248 z m 4.62801,0.95201 c 1.15201,0 1.58401,-0.392 1.58401,-1.98401 v -3.69601 h -1.03201 v 3.70401 c 0,0.84 -0.12799,1.032 -0.56799,1.032 h -0.064 c -0.44,0 -0.568,-0.192 -0.568,-1.032 v -3.70401 h -1.032 v 3.69601 c 0,1.59201 0.432,1.98401 1.584,1.98401 z m 5.21202,-5.68002 h -1.512 l -1.19201,5.60002 h 1.064 l 0.22401,-1.20001 h 1.288 l 0.232,1.20001 h 1.088 z m -0.75201,1.072 0.44801,2.44001 h -0.936 l 0.448,-2.44001 z m 4.30802,-0.16 h 1.04 v -0.912 h -3.08801 v 0.912 h 1.01601 v 4.68802 h 1.032 z m 3.12401,-0.912 h -1.02401 v 5.60002 h 1.02401 z m 3.004,5.68002 c 1.184,0 1.656,-0.46401 1.656,-2.08001 v -1.59201 c 0,-1.624 -0.472,-2.088 -1.656,-2.088 h -0.088 c -1.176,0 -1.65601,0.464 -1.65601,2.088 v 1.59201 c 0,1.616 0.48001,2.08001 1.65601,2.08001 z m -0.072,-0.87201 c -0.264,0 -0.432,-0.08 -0.52,-0.248 -0.08,-0.168 -0.12,-0.464 -0.12,-0.888 v -1.73601 c 0,-0.432 0.04,-0.728 0.12,-0.888 0.088,-0.168 0.256,-0.248 0.52,-0.248 h 0.056 c 0.264,0 0.432,0.08 0.512,0.248 0.088,0.16 0.128,0.456 0.128,0.888 v 1.73601 c 0,0.424 -0.04,0.72 -0.128,0.888 -0.08,0.168 -0.248,0.248 -0.512,0.248 z m 6.55602,-4.80801 h -0.944 v 3.78401 h -0.04 l -1.232,-3.78401 h -1.35204 v 5.60002 h 0.94401 v -3.78402 h 0.04 l 1.232,3.78402 h 1.352 z m 4.28001,3.33601 v 1.624 h 0.736 v -1.624 h 1.20801 v -0.736 h -1.20801 v -1.62401 h -0.736 v 1.62401 h -1.216 v 0.736 z"
   id="text2-5-5-9-5-2-8-1-7"
   style="font-size:10.6667px;font-family:'Pilat Condensed';-inkscape-font-specification:'Pilat Condensed, ';text-align:center;letter-spacing:0.88px;white-space:pre;fill:#0b1116;fill-opacity:0.952941;stroke-width:0.283465"
   aria-label="EQUATION +" /><path
   style="font-size:9.33333px;font-family:Pilat;-inkscape-font-specification:Pilat;text-align:center;letter-spacing:0.88px;white-space:pre;fill:#0b1116;fill-opacity:0.952941;stroke-width:0.283465"
   d="m 406.54941,79.546025 c 1.94795,0 2.82237,-0.84845 2.82237,-2.84835 v -0.52811 c 0,-1.9999 -0.87442,-2.857 -2.82237,-2.857 h -0.11255 c -1.96526,0 -2.83103,0.8571 -2.83103,2.857 v 0.52811 c 0,1.9999 0.86577,2.84835 2.83103,2.84835 z m -0.12987,-1.16878 c -1.2034,0 -1.45446,-0.66663 -1.45446,-1.76614 v -0.36362 c 0,-1.09951 0.25106,-1.76615 1.45446,-1.76615 h 0.14718 c 1.19475,0 1.44583,0.66664 1.44583,1.76615 v 0.36362 c 0,1.11682 -0.25108,1.74883 -1.44583,1.76614 z m 5.96756,-1.39387 h 3.16868 v -1.11683 h -3.16868 v -1.34192 h 3.16868 v -1.12549 h -4.51061 v 6.06031 h 1.34193 z m 6.13204,0 h 3.16867 v -1.11683 h -3.16867 v -1.34192 h 3.16867 v -1.12549 h -4.51059 v 6.06031 h 1.34192 z m 7.32678,2.56265 c 1.53241,0 2.52803,-0.52812 2.52803,-1.95662 v -0.0779 c 0,-1.09952 -0.64066,-1.60166 -1.98259,-1.66226 l -0.82247,-0.026 c -0.78785,-0.0346 -0.98696,-0.2251 -0.98696,-0.66664 v -0.0433 c 0,-0.51078 0.32897,-0.7099 1.08218,-0.7099 0.65799,0 1.09953,0.14717 1.22939,0.72723 h 1.41119 c -0.10389,-1.22072 -1.12549,-1.81809 -2.56266,-1.81809 h -0.10389 c -1.61896,0 -2.42411,0.64066 -2.42411,1.91333 v 0.0606 c 0,1.0822 0.65796,1.59299 1.98257,1.6536 l 0.83114,0.0346 c 0.77053,0.0346 0.98697,0.22509 0.98697,0.66663 v 0.0779 c 0,0.54543 -0.40691,0.73589 -1.21206,0.73589 -0.57141,0 -1.16012,-0.0779 -1.28134,-0.66663 h -1.41117 c 0.13851,1.28132 1.16877,1.75749 2.65786,1.75749 z m 8.59945,-1.21206 h -3.16867 v -1.35059 h 3.16867 v -1.11683 h -3.16867 v -1.34192 h 3.16867 v -1.12549 h -4.51058 v 6.06031 h 4.51058 z m 4.50442,-3.77471 h 1.87004 v -1.16012 h -5.06469 v 1.16012 h 1.84407 v 4.90019 h 1.35058 z"
   id="text2-5-5-9-5-1"
   aria-label="OFFSET" /><path
   style="font-size:9.33333px;font-family:Pilat;-inkscape-font-specification:Pilat;text-align:center;letter-spacing:0.88px;white-space:pre;fill:#0b1116;fill-opacity:0.952941;stroke-width:0.283465"
   d="m 186.3392,260.7005 c 1.94795,0 2.82237,-0.84845 2.82237,-2.84835 v -0.52811 c 0,-1.9999 -0.87442,-2.857 -2.82237,-2.857 h -0.11255 c -1.96526,0 -2.83103,0.8571 -2.83103,2.857 v 0.52811 c 0,1.9999 0.86577,2.84835 2.83103,2.84835 z m -0.12987,-1.16878 c -1.2034,0 -1.45446,-0.66663 -1.45446,-1.76614 v -0.36362 c 0,-1.09951 0.25106,-1.76615 1.45446,-1.76615 h 0.14718 c 1.19475,0 1.44583,0.66664 1.44583,1.76615 v 0.36362 c 0,1.11682 -0.25108,1.74883 -1.44583,1.76614 z m 5.96757,-1.39387 h 3.16868 v -1.11683 h -3.16868 v -1.34192 h 3.16868 v -1.12549 h -4.51061 v 6.06031 h 1.34193 z m 6.13204,0 h 3.16867 v -1.11683 h -3.16867 v -1.34192 h 3.16867 v -1.12549 h -4.51059 v 6.06031 h 1.34192 z m 7.32678,2.56265 c 1.53241,0 2.52803,-0.52812 2.52803,-1.95662 v -0.0779 c 0,-1.09952 -0.64066,-1.60166 -1.98259,-1.66226 l -0.82247,-0.026 c -0.78785,-0.0346 -0.98696,-0.2251 -0.98696,-0.66664 v -0.0433 c 0,-0.51078 0.32897,-0.7099 1.08218,-0.7099 0.65799,0 1.09953,0.14717 1.22939,0.72724 h 1.41119 c -0.10389,-1.22072 -1.12549,-1.8181 -2.56266,-1.8181 h -0.10389 c -1.61896,0 -2.42411,0.64066 -2.42411,1.91333 v 0.0606 c 0,1.0822 0.65796,1.59298 1.98257,1.65359 l 0.83114,0.0346 c 0.77053,0.0346 0.98697,0.22509 0.98697,0.66663 v 0.0779 c 0,0.54543 -0.40691,0.73588 -1.21206,0.73588 -0.57141,0 -1.16012,-0.0779 -1.28134,-0.66663 h -1.41117 c 0.13851,1.28132 1.16877,1.7575 2.65786,1.7575 z m 8.59945,-1.21206 h -3.16867 v -1.35059 h 3.16867 v -1.11683 h -3.16867 v -1.34192 h 3.16867 v -1.12549 h -4.51058 v 6.06031 h 4.51058 z m 4.50442,-3.77471 h 1.87004 v -1.16012 h -5.06469 v 1.16012 h 1.84407 v 4.90019 h 1.35058 z"
   id="text2-5-5-9-5-1-8"
   aria-label="OFFSET" /><ellipse
   style="fill:#213d42;stroke:none;stroke-width:0.283464"
   id="rate_input"
   cx="247.25262"
   cy="332.44659"
   inkscape:label=""
   rx="11.316981"
   ry="11.338583" /><ellipse
   style="fill:#213d42;stroke:none;stroke-width:0.283464"
   id="rate_atten_knob"
   cx="247.25262"
   cy="286.10516"
   inkscape:label=""
   rx="11.316981"
   ry="11.338583" /><ellipse
   style="fill:#213d42;stroke:none;stroke-width:0.283464"
   id="equation_rate_knob"
   cx="485.30786"
   cy="101.03532"
   inkscape:label=""
   rx="11.316981"
   ry="11.338583" /><ellipse
   style="fill:#213d42;stroke:none;stroke-width:0.283464"
   id="rate_sync_button"
   cx="545.59003"
   cy="99.792297"
   inkscape:label=""
   rx="11.316981"
   ry="11.338583" /><path
   style="font-size:9.33333px;font-family:Pilat;-inkscape-font-specification:Pilat;text-align:center;letter-spacing:0.88px;white-space:pre;fill:#0b1116;fill-opacity:0.952941;stroke-width:0.283465"
   d="m 473.83866,77.311465 h 1.59717 c 0.8543,0 1.08645,0.15786 1.08645,0.89145 v 1.47645 h 1.43931 v -1.56931 c 0,-1.13288 -0.30643,-1.36503 -0.99359,-1.47646 v -0.065 c 0.69644,-0.11143 0.99359,-0.53858 0.99359,-1.50431 v -0.16714 c 0,-1.26288 -0.59429,-1.71789 -2.21003,-1.71789 h -3.3522 v 6.50011 h 1.4393 z m 1.60646,-2.93434 c 0.81716,0 1.07716,0.20429 1.07716,0.86359 v 0.0557 c 0,0.62216 -0.26,0.82645 -0.92859,0.82645 h -1.75503 v -1.74575 z m 8.48995,-1.19788 h -2.1729 l -2.37718,6.50012 h 1.54145 l 0.5293,-1.48574 h 2.73933 l 0.5293,1.48574 h 1.59717 z m -1.07717,1.20717 0.91931,2.60004 h -1.90361 l 0.91931,-2.60004 z m 7.06922,0.0371 h 2.00575 v -1.24431 h -5.43224 v 1.24431 h 1.97789 v 5.25581 h 1.4486 z m 8.36923,4.04864 h -3.39863 v -1.44859 h 3.39863 v -1.19788 h -3.39863 v -1.43931 h 3.39863 v -1.20717 h -4.83794 v 6.50012 h 4.83794 z"
   id="text2-5-5-9-5-13"
   aria-label="RATE" /><path
   style="font-size:9.33333px;font-family:Pilat;-inkscape-font-specification:Pilat;text-align:center;letter-spacing:0.88px;white-space:pre;fill:#0b1116;fill-opacity:0.952941;stroke-width:0.283465"
   d="m 235.74343,258.46594 h 1.59717 c 0.8543,0 1.08645,0.15786 1.08645,0.89145 v 1.47645 h 1.43931 v -1.56931 c 0,-1.13288 -0.30643,-1.36503 -0.99359,-1.47646 v -0.065 c 0.69644,-0.11143 0.99359,-0.53858 0.99359,-1.5043 v -0.16715 c 0,-1.26288 -0.59429,-1.71789 -2.21003,-1.71789 h -3.3522 v 6.50011 h 1.4393 z m 1.60646,-2.93434 c 0.81716,0 1.07716,0.20429 1.07716,0.86359 v 0.0557 c 0,0.62216 -0.26,0.82645 -0.92859,0.82645 h -1.75503 v -1.74575 z m 8.48995,-1.19788 h -2.1729 l -2.37718,6.50012 h 1.54145 l 0.5293,-1.48574 h 2.73933 l 0.5293,1.48574 h 1.59717 z m -1.07717,1.20717 0.91931,2.60004 h -1.90361 l 0.91931,-2.60004 z m 7.06922,0.0371 h 2.00575 v -1.24431 h -5.43224 v 1.24431 h 1.97789 v 5.25581 h 1.4486 z m 8.36923,4.04864 h -3.39863 v -1.44859 h 3.39863 v -1.19788 h -3.39863 v -1.43931 h 3.39863 v -1.20717 h -4.83794 v 6.50012 h 4.83794 z"
   id="text2-5-5-9-5-13-9"
   aria-label="RATE" /><ellipse
   style="fill:#213d42;stroke:none;stroke-width:0.283464"
   id="bleed_input"
   cx="292.50266"
   cy="332.44659"
   inkscape:label=""
   rx="11.316981"
   ry="11.338583" /><ellipse
   style="fill:#213d42;stroke:none;stroke-width:0.283464"
   id="bleed_atten_knob"
   cx="292.50266"
   cy="286.10516"
   inkscape:label=""
   rx="11.316981"
   ry="11.338583" /><ellipse
   style="fill:#213d42;stroke:none;stroke-width:0.283464"
   id="injection_input"
   cx="337.50266"
   cy="332.44659"
   inkscape:label=""
   rx="11.316981"
   ry="11.338583" /><ellipse
   style="fill:#213d42;stroke:none;stroke-width:0.283464"
   id="injection_atten_knob"
   cx="337.50266"
   cy="286.10516"
   inkscape:label=""
   rx="11.316981"
   ry="11.338583" /><ellipse
   style="fill:#213d42;stroke:none;stroke-width:0.283464"
   id="p1_input"
   cx="397.75266"
   cy="332.44659"
   inkscape:label=""
   rx="11.316981"
   ry="11.338583" /><ellipse
   style="fill:#213d42;stroke:none;stroke-width:0.283464"
   id="p1_atten_knob"
   cx="397.75266"
   cy="286.10516"
   inkscape:label=""
   rx="11.316981"
   ry="11.338583" /><ellipse
   style="fill:#213d42;stroke:none;stroke-width:0.283464"
   id="p2_input"
   cx="443.00266"
   cy="332.44659"
   inkscape:label=""
   rx="11.316981"
   ry="11.338583" /><ellipse
   style="fill:#213d42;stroke:none;stroke-width:0.283464"
   id="p2_atten_knob"
   cx="443.00266"
   cy="286.10516"
   inkscape:label=""
   rx="11.316981"
   ry="11.338583" /><ellipse
   style="fill:#213d42;stroke:none;stroke-width:0.283464"
   id="p3_input"
   cx="488.25266"
   cy="332.44659"
   inkscape:label=""
   rx="11.316981"
   ry="11.338583" /><ellipse
   style="fill:#213d42;stroke:none;stroke-width:0.283464"
   id="p3_atten_knob"
   cx="488.25266"
   cy="286.10516"
   inkscape:label=""
   rx="11.316981"
   ry="11.338583" /><ellipse
   style="fill:#213d42;stroke:none;stroke-width:0.283464"
   id="bleed_knob"
   cx="358.56531"
   cy="160.72586"
   inkscape:label=""
   rx="11.316981"
   ry="11.338583" /><ellipse
   style="fill:#213d42;stroke:none;stroke-width:0.283464"
   id="injection_knob"
   cx="358.56531"
   cy="216.63019"
   inkscape:label=""
   rx="11.316981"
   ry="11.338583" /><path
   style="font-size:9.33333px;font-family:Pilat;-inkscape-font-specification:Pilat;text-align:center;letter-spacing:0.88px;white-space:pre;fill:#0b1116;fill-opacity:0.952941;stroke-width:0.283464"
   d="m 348.27397,137.02861 c 0,-0.84789 -0.32131,-1.26738 -1.07995,-1.3477 v -0.0536 c 0.71401,-0.0982 0.99962,-0.52659 0.99962,-1.33878 v -0.11603 c 0,-1.05317 -0.52659,-1.54406 -2.07065,-1.54406 h -3.20414 v 6.24763 h 3.2934 c 1.49943,0 2.06172,-0.52658 2.06172,-1.66901 z m -2.42766,-3.24877 c 0.7408,0 0.96393,0.16958 0.96393,0.71402 v 0.0357 c 0,0.56229 -0.22313,0.66047 -0.90145,0.66047 h -1.60654 v -1.41018 z m -0.0179,2.43658 c 0.83005,0 1.0621,0.1071 1.0621,0.71401 v 0.0625 c 0,0.56228 -0.24098,0.73186 -1.03532,0.73186 h -1.55299 v -1.50835 z m 8.50826,1.46373 h -2.96316 v -5.05166 h -1.38341 v 6.24763 h 4.34657 z m 6.17878,0.0357 h -3.26662 v -1.39233 h 3.26662 v -1.15135 h -3.26662 v -1.38341 h 3.26662 v -1.16027 h -4.65003 v 6.24763 h 4.65003 z m 6.35729,0 h -3.26662 v -1.39233 h 3.26662 v -1.15135 h -3.26662 v -1.38341 h 3.26662 v -1.16027 h -4.65003 v 6.24763 h 4.65003 z m 7.33905,-2.14205 c 0,-2.06172 -0.91037,-2.94531 -2.91854,-2.94531 H 368.58 v 6.24763 h 2.71325 c 2.00817,0 2.91854,-0.87467 2.91854,-2.93639 z m -2.93638,-1.77611 c 1.23168,0 1.52621,0.72294 1.52621,1.85644 v 0.19635 c 0,1.15135 -0.29453,1.83859 -1.52621,1.85644 h -1.312 v -3.90923 z"
   id="text2-5-5-9-5-79"
   aria-label="BLEED" /><path
   style="font-size:9.33333px;font-family:Pilat;-inkscape-font-specification:Pilat;text-align:center;letter-spacing:0.88px;white-space:pre;fill:#0b1116;fill-opacity:0.952941;stroke-width:0.283464"
   d="m 282.21129,258.86009 c 0,-0.84789 -0.32131,-1.26738 -1.07995,-1.3477 v -0.0536 c 0.71401,-0.0982 0.99962,-0.52659 0.99962,-1.33878 v -0.11603 c 0,-1.05317 -0.52659,-1.54406 -2.07065,-1.54406 h -3.20414 v 6.24763 h 3.2934 c 1.49943,0 2.06172,-0.52658 2.06172,-1.66901 z m -2.42766,-3.24877 c 0.7408,0 0.96393,0.16958 0.96393,0.71402 v 0.0357 c 0,0.56229 -0.22313,0.66047 -0.90145,0.66047 h -1.60654 v -1.41018 z m -0.0179,2.43658 c 0.83005,0 1.0621,0.1071 1.0621,0.71401 v 0.0625 c 0,0.56228 -0.24098,0.73186 -1.03532,0.73186 h -1.55299 v -1.50835 z m 8.50826,1.46373 h -2.96316 v -5.05166 h -1.38341 v 6.24763 h 4.34657 z m 6.17878,0.0357 h -3.26662 V 258.155 h 3.26662 v -1.15135 h -3.26662 v -1.38341 h 3.26662 v -1.16027 h -4.65003 v 6.24763 h 4.65003 z m 6.35729,0 h -3.26662 V 258.155 h 3.26662 v -1.15135 h -3.26662 v -1.38341 h 3.26662 v -1.16027 h -4.65003 v 6.24763 h 4.65003 z m 7.33905,-2.14205 c 0,-2.06172 -0.91037,-2.94531 -2.91854,-2.94531 h -2.71325 v 6.24763 h 2.71325 c 2.00817,0 2.91854,-0.87466 2.91854,-2.93639 z m -2.93638,-1.7761 c 1.23168,0 1.52621,0.72294 1.52621,1.85643 v 0.19635 c 0,1.15135 -0.29453,1.83859 -1.52621,1.85644 h -1.312 v -3.90922 z"
   id="text2-5-5-9-5-79-1"
   aria-label="BLEED" /><path
   style="font-size:9.33333px;font-family:Pilat;-inkscape-font-specification:Pilat;text-align:center;letter-spacing:0.88px;white-space:pre;fill:#0b1116;fill-opacity:0.952941;stroke-width:0.283465"
   d="m 536.311,78.949285 c 1.239,0 2.044,-0.427 2.044,-1.582 v -0.063 c 0,-0.889 -0.518,-1.295 -1.603,-1.344 l -0.665,-0.021 c -0.637,-0.028 -0.798,-0.182 -0.798,-0.539 v -0.035 c 0,-0.413 0.266,-0.574 0.875,-0.574 0.532,0 0.889,0.119 0.994,0.588 h 1.141 c -0.084,-0.987 -0.91,-1.47 -2.072,-1.47 h -0.084 c -1.309,0 -1.96,0.518 -1.96,1.547 v 0.049 c 0,0.875 0.532,1.288 1.603,1.337 l 0.672,0.028 c 0.623,0.028 0.798,0.182 0.798,0.539 v 0.063 c 0,0.441 -0.329,0.595 -0.98,0.595 -0.462,0 -0.938,-0.063 -1.036,-0.539 h -1.141 c 0.112,1.036 0.945,1.421 2.149,1.421 z m 5.56699,-2.156 1.841,-2.814 h -1.162 l -1.148,1.855 h -0.042 l -1.148,-1.855 h -1.26 l 1.827,2.828 v 2.072 h 1.092 z m 7.674,-2.814 h -1.071 v 3.724 h -0.042 l -1.91801,-3.724 h -1.67999 v 4.9 h 1.07099 v -3.717 h 0.042 l 1.925,3.717 h 1.67301 z m 3.719,4.97 c 1.344,0 1.939,-0.532 2.163,-1.645 h -1.113 c -0.14,0.504 -0.476,0.7 -1.085,0.7 h -0.091 c -0.973,0 -1.148,-0.539 -1.148,-1.428 v -0.294 c 0,-0.889 0.175,-1.428 1.148,-1.428 h 0.091 c 0.609,0 0.945,0.196 1.085,0.7 h 1.113 c -0.224,-1.113 -0.819,-1.645 -2.163,-1.645 h -0.161 c -1.582,0 -2.212,0.686 -2.212,2.303 v 0.434 c 0,1.617 0.63,2.303 2.212,2.303 z"
   id="text2-5-5-9-5-5"
   aria-label="SYNC" /><text
   xml:space="preserve"
   transform="scale(0.75000003)"
   id="text3"
   style="font-size:10.6667px;font-family:'Rubik Dirt';-inkscape-font-specification:'Rubik Dirt';text-align:start;letter-spacing:0.9px;word-spacing:0.77px;writing-mode:lr-tb;direction:ltr;white-space:pre;shape-inside:url(#rect10);display:inline;opacity:0.496955;fill:#000000;fill-opacity:1;stroke-width:0.377953;-inkscape-stroke:none" /><path
   style="font-size:8.00003px;font-family:'Pilat Condensed';-inkscape-font-specification:'Pilat Condensed, ';letter-spacing:0.675px;word-spacing:0.5775px;white-space:pre;inline-size:65.2842;opacity:0.285241;stroke:#000000;stroke-width:0.0555883"
   d="m 397.69755,201.75906 h -1.06401 l -0.816,4.43202 h -0.04 l -0.816,-4.43202 h -1.09601 l 1.19201,5.60003 h 1.448 z m 2.091,5.68003 c 0.992,0 1.4,-0.42401 1.4,-1.74401 v -0.904 c 0,-1.32001 -0.408,-1.75201 -1.4,-1.75201 h -0.08 c -0.99201,0 -1.40001,0.416 -1.40001,1.75201 v 0.896 c 0,1.32 0.408,1.75201 1.40001,1.75201 z m -0.04,-0.79201 c -0.35201,0 -0.50401,-0.088 -0.50401,-0.952 v -0.912 c 0,-0.86401 0.152,-0.94401 0.50401,-0.94401 0.36,0 0.504,0.08 0.504,0.94401 v 0.912 c 0,0.864 -0.144,0.952 -0.504,0.952 z m 4.42702,-1.472 0.88,-2.05601 h -0.952 l -0.536,1.448 h -0.032 l -0.52801,-1.448 h -0.992 l 0.872,2.07201 -0.928,2.16801 h 0.944 l 0.60001,-1.59201 h 0.032 l 0.584,1.59201 h 0.992 z m 3.18701,3.54401 c 0.984,0 1.384,-0.368 1.384,-1.60801 v -3.99201 h -0.936 v 0.416 h -0.032 c -0.104,-0.312 -0.32,-0.496 -0.776,-0.496 h -0.032 c -0.64,0 -1.08001,0.304 -1.08001,1.64001 v 0.944 c 0,1.328 0.43201,1.632 1.08801,1.632 h 0.032 c 0.456,0 0.672,-0.184 0.768,-0.496 h 0.032 v 0.416 c 0,0.34401 -0.04,0.56801 -0.112,0.67201 -0.072,0.104 -0.2,0.152 -0.376,0.152 -0.296,0 -0.432,-0.064 -0.488,-0.32 h -0.92001 c 0.104,0.768 0.59201,1.04 1.40001,1.04 z m -0.04,-2.25601 c -0.352,0 -0.496,-0.064 -0.496,-0.904 v -0.816 c 0,-0.84001 0.144,-0.90401 0.496,-0.90401 0.344,0 0.488,0.064 0.488,0.90401 v 0.816 c 0,0.84 -0.144,0.904 -0.488,0.904 z m 3.53901,-4.70402 h -0.92801 v 5.60003 h 0.92801 z m 1.171,0 v 0.86401 h 0.928 v -0.86401 z m 0,1.36001 v 4.24002 h 0.928 v -4.24002 z m 3.915,3.43201 h -0.168 c -0.376,0 -0.464,-0.08 -0.464,-0.56 v -2.08801 h 0.632 v -0.784 h -0.632 v -1.36001 h -0.936 v 1.36001 h -0.472 v 0.784 h 0.472 v 2.22401 c 0,0.928 0.168,1.23201 1.144,1.23201 h 0.424 z m 2.44302,0.88801 c 0.912,0 1.28,-0.36801 1.344,-1.48801 h -0.912 c -0.048,0.608 -0.168,0.696 -0.456,0.696 -0.32,0 -0.48,-0.112 -0.48,-0.944 v -0.928 c 0,-0.84001 0.136,-0.93601 0.48,-0.93601 0.28,0 0.416,0.088 0.456,0.688 h 0.912 c -0.064,-1.12 -0.432,-1.488 -1.344,-1.488 h -0.056 c -0.928,0 -1.38401,0.376 -1.38401,1.74401 v 0.92 c 0,1.36 0.45601,1.73601 1.36001,1.73601 z m 5.22701,-3.28002 c 0,-0.824 -0.352,-1.12 -1,-1.12 -0.48,0 -0.73601,0.216 -0.84001,0.688 h -0.04 v -1.96801 h -0.928 v 5.60003 h 0.928 v -2.79202 c 0,-0.504 0.184,-0.696 0.51201,-0.696 0.296,0 0.44,0.096 0.44,0.568 v 2.92002 h 0.928 z"
   id="text11"
   transform="matrix(5.037356,0,0,5.1621327,-1950.5348,-1026.1591)"
   aria-label="Voxglitch" /><path
   d="M 140.79667,72.822786 H 139.602 v 6.533331 h 1.19467 z m 5.80799,0 h -1.10134 v 4.414665 h -0.0467 l -1.43734,-4.414665 h -1.57733 v 6.533331 h 1.10133 v -4.414665 h 0.0467 l 1.43733,4.414665 h 1.57734 z m 1.98133,6.533331 c 1.44666,0 1.82,-0.336 1.82,-2.127999 v -4.405332 h -1.19467 v 4.442665 c 0,0.914666 -0.15867,1.036 -0.90533,1.036 h -0.35467 v 1.054666 z m 6.46133,-1.045333 h -1.83867 v -1.698666 h 1.83867 v -1.054666 h -1.83867 v -1.689333 h 1.83867 v -1.045333 h -3.03333 v 6.533331 h 3.03333 z m 3.52133,1.138666 c 1.26933,0 1.78266,-0.494666 1.87599,-2.193332 h -1.204 c -0.056,0.970666 -0.25199,1.175999 -0.70933,1.175999 h -0.056 c -0.308,0 -0.504,-0.09333 -0.59733,-0.289333 -0.0933,-0.196 -0.14,-0.541333 -0.14,-1.036 v -2.025332 c 0,-1.008 0.13067,-1.325333 0.73733,-1.325333 h 0.056 c 0.45734,0 0.65333,0.196 0.70933,1.166666 h 1.204 c -0.0933,-1.698666 -0.60666,-2.193332 -1.87599,-2.193332 h -0.14 c -1.372,0 -1.89467,0.559999 -1.89467,2.426665 v 1.866666 c 0,1.866667 0.52267,2.426666 1.89467,2.426666 z m 5.45333,-5.562664 h 1.21334 v -1.064 h -3.60267 v 1.064 h 1.18533 v 5.469331 h 1.204 z m 3.75467,-1.064 h -1.19467 v 6.533331 h 1.19467 z m 3.61466,6.626664 c 1.38133,0 1.93199,-0.541333 1.93199,-2.426666 v -1.857332 c 0,-1.894666 -0.55066,-2.435999 -1.93199,-2.435999 h -0.10267 c -1.372,0 -1.932,0.541333 -1.932,2.435999 v 1.857332 c 0,1.885333 0.56,2.426666 1.932,2.426666 z m -0.084,-1.017333 c -0.308,0 -0.504,-0.09333 -0.60667,-0.289333 -0.0933,-0.196 -0.14,-0.541333 -0.14,-1.036 v -2.025332 c 0,-0.504 0.0467,-0.849333 0.14,-1.036 0.10267,-0.196 0.29867,-0.289333 0.60667,-0.289333 h 0.0653 c 0.308,0 0.504,0.09333 0.59733,0.289333 0.10267,0.186667 0.14934,0.532 0.14934,1.036 v 2.025332 c 0,0.494667 -0.0467,0.84 -0.14934,1.036 -0.0933,0.196 -0.28933,0.289333 -0.59733,0.289333 z m 7.75866,-5.609331 h -1.10133 v 4.414665 h -0.0467 l -1.43733,-4.414665 h -1.57734 v 6.533331 h 1.10134 v -4.414665 h 0.0467 l 1.43734,4.414665 h 1.57733 z"
   id="text2-5-5-9"
   style="font-size:9.33333px;font-family:'Pilat Condensed';-inkscape-font-specification:'Pilat Condensed, ';text-align:center;letter-spacing:0.88px;white-space:pre;fill:#0b1116;fill-opacity:0.952941;stroke-width:0.267141"
   transform="matrix(1.0611049,0,0,1.0611049,189.36266,110.16773)"
   aria-label="INJECTION" /><path
   d="m 317.83259,254.11749 h -1.26767 v 6.93254 h 1.26767 z m 6.16288,0 h -1.16863 v 4.68442 h -0.0496 l -1.52517,-4.68442 h -1.67371 v 6.93254 h 1.16863 v -4.68442 h 0.0496 l 1.52516,4.68442 h 1.67372 z m 2.1024,6.93254 c 1.53506,0 1.93121,-0.35653 1.93121,-2.25803 v -4.67451 h -1.26767 v 4.71413 c 0,0.97056 -0.16836,1.0993 -0.96065,1.0993 h -0.37634 v 1.11911 z m 6.85615,-1.1092 H 331.003 v -1.80247 h 1.95102 v -1.11911 H 331.003 v -1.79256 h 1.95102 v -1.1092 h -3.21868 v 6.93254 h 3.21868 z m 3.7365,1.20824 c 1.34689,0 1.89159,-0.52489 1.99062,-2.32735 h -1.27757 c -0.0594,1.02997 -0.26738,1.24785 -0.75267,1.24785 h -0.0594 c -0.32682,0 -0.5348,-0.099 -0.63383,-0.30701 -0.099,-0.20798 -0.14856,-0.57441 -0.14856,-1.0993 v -2.14909 c 0,-1.0696 0.13866,-1.40632 0.78239,-1.40632 h 0.0594 c 0.48529,0 0.69325,0.20798 0.75267,1.23795 h 1.27757 c -0.099,-1.80246 -0.64373,-2.32735 -1.99062,-2.32735 h -0.14855 c -1.45584,0 -2.01045,0.59422 -2.01045,2.57495 v 1.98072 c 0,1.98073 0.55461,2.57495 2.01045,2.57495 z m 5.78656,-5.90257 h 1.28748 v -1.12901 h -3.82281 v 1.12901 h 1.25776 v 5.80353 h 1.27757 z m 3.9841,-1.12901 h -1.26767 v 6.93254 h 1.26767 z m 3.83553,7.03158 c 1.46573,0 2.05004,-0.57441 2.05004,-2.57495 v -1.97082 c 0,-2.01044 -0.58431,-2.58485 -2.05004,-2.58485 h -0.10894 c -1.45584,0 -2.05006,0.57441 -2.05006,2.58485 v 1.97082 c 0,2.00054 0.59422,2.57495 2.05006,2.57495 z m -0.0891,-1.0795 c -0.32682,0 -0.5348,-0.099 -0.64374,-0.30701 -0.099,-0.20798 -0.14856,-0.57441 -0.14856,-1.0993 v -2.14909 c 0,-0.5348 0.0496,-0.90123 0.14856,-1.09931 0.10894,-0.20797 0.31692,-0.30701 0.64374,-0.30701 h 0.0693 c 0.32682,0 0.53479,0.099 0.63383,0.30701 0.10894,0.19808 0.15846,0.56451 0.15846,1.09931 v 2.14909 c 0,0.52489 -0.0496,0.89132 -0.15846,1.0993 -0.099,0.20798 -0.30701,0.30701 -0.63383,0.30701 z m 8.23275,-5.95208 h -1.16863 v 4.68442 h -0.0496 l -1.52516,-4.68442 h -1.67372 v 6.93254 h 1.16863 v -4.68442 h 0.0496 l 1.52517,4.68442 h 1.67371 z"
   id="text2-5-5-9-2"
   style="font-size:9.33333px;font-family:'Pilat Condensed';-inkscape-font-specification:'Pilat Condensed, ';text-align:center;letter-spacing:0.88px;white-space:pre;fill:#0b1116;fill-opacity:0.952941;stroke-width:0.283465"
   aria-label="INJECTION" /></svg>
