<?xml version="1.0" encoding="utf-8"?>
<svg xmlns="http://www.w3.org/2000/svg" width="101.60mm" height="128.50mm" viewBox="0 0 101.60 128.50">
    <linearGradient id="gradient" x1="0" y1="0" x2="0" y2="1" gradientUnits="userSpaceOnUse">
        <stop offset="0" style="stop-color:#363636;stop-opacity:1;" />
        <stop offset="1" style="stop-color:#262626;stop-opacity:1;" />
    </linearGradient>
    <rect id="border_rect" width="101.6" height="128.5" x="0" y="0" style="display:inline;fill:#363636;fill-opacity:1;fill-rule:nonzero;stroke:#ffffff;stroke-width:0.7;stroke-linecap:round;stroke-linejoin:round;stroke-dasharray:none;stroke-opacity:1;image-rendering:auto" />
    <path d="M-4.66372 9.10483H-4.5085L-4.29683 10.1843L-4.06929 9.10483H-3.9176L-4.19453 10.3395H-4.40443ZM-3.30553 10.3395H-3.36374Q-3.51719 10.3395 -3.5904 10.2725Q-3.6636 10.2055 -3.6636 10.0573V9.73983Q-3.6636 9.59166 -3.5904 9.52463Q-3.51719 9.4576 -3.36374 9.4576H-3.30553Q-3.15207 9.4576 -3.07887 9.52463Q-3.00567 9.59166 -3.00567 9.73983V10.0573Q-3.00567 10.2055 -3.07887 10.2725Q-3.15207 10.3395 -3.30553 10.3395ZM-3.28789 9.5899H-3.38138Q-3.44664 9.5899 -3.48015 9.61988Q-3.51367 9.64987 -3.51367 9.70455V10.0926Q-3.51367 10.1473 -3.48015 10.1773Q-3.44664 10.2073 -3.38138 10.2073H-3.28789Q-3.22262 10.2073 -3.18911 10.1773Q-3.1556 10.1473 -3.1556 10.0926V9.70455Q-3.1556 9.64987 -3.18911 9.61988Q-3.22262 9.5899 -3.28789 9.5899ZM-2.57704 10.3395H-2.74285L-2.46768 9.88447L-2.72168 9.4576H-2.54706L-2.37949 9.75394L-2.20839 9.4576H-2.04435L-2.30187 9.87741L-2.02142 10.3395H-2.19781L-2.38301 10.0062ZM-1.40229 10.3395H-1.75507V9.10483H-1.42346Q-1.26647 9.10483 -1.19327 9.16833Q-1.12007 9.23183 -1.12007 9.37999V9.48053Q-1.12007 9.61635 -1.21708 9.68515Q-1.10243 9.74865 -1.10243 9.9021V10.0609Q-1.10243 10.2125 -1.1721 10.276Q-1.24178 10.3395 -1.40229 10.3395ZM-1.40229 9.23712H-1.60161V9.62694H-1.40229Q-1.34761 9.62694 -1.31057 9.59166Q-1.27353 9.55638 -1.27353 9.49817V9.36412Q-1.27353 9.29709 -1.3044 9.2671Q-1.33526 9.23712 -1.40229 9.23712ZM-1.38465 9.75923H-1.60161V10.2073H-1.38642Q-1.31939 10.2073 -1.28764 10.1764Q-1.25589 10.1455 -1.25589 10.0785V9.88623Q-1.25589 9.82802 -1.29117 9.79362Q-1.32644 9.75923 -1.38465 9.75923ZM-0.446264 10.3395H-0.506236Q-0.649111 10.3395 -0.718785 10.2725Q-0.788458 10.2055 -0.788458 10.0573V9.4576H-0.638528V10.0926Q-0.638528 10.1455 -0.60766 10.1764Q-0.576792 10.2073 -0.523875 10.2073H-0.428625Q-0.372181 10.2073 -0.34484 10.179Q-0.3175 10.1508 -0.313972 10.1155V9.4576H-0.164042V10.3395H-0.305153V10.299Q-0.363361 10.3395 -0.446264 10.3395ZM0.559153 9.10483V9.26358H0.391583V9.10483ZM0.141111 9.5899V9.4576H0.550333V10.2073H0.811389V10.3395H0.400403V9.5899ZM1.33526 10.1632V9.23712H1.07597V9.10483H1.48519V10.1543Q1.48519 10.1826 1.49931 10.1949Q1.51342 10.2073 1.54693 10.2073H1.78153V10.3395H1.48519Q1.42522 10.3395 1.38024 10.2972Q1.33526 10.2549 1.33526 10.1632ZM2.42535 10.3395H2.35303Q2.19781 10.3395 2.12549 10.2734Q2.05317 10.2073 2.05317 10.0573V9.73983Q2.05317 9.59166 2.12637 9.52463Q2.19957 9.4576 2.35303 9.4576H2.55764V9.10483H2.70757V10.3395H2.56646V10.299Q2.50825 10.3395 2.42535 10.3395ZM2.55764 10.1102V9.5899H2.33539Q2.27013 9.5899 2.23661 9.61988Q2.2031 9.64987 2.2031 9.70455V10.0926Q2.2031 10.1473 2.23661 10.1773Q2.27013 10.2073 2.33539 10.2073H2.44299Q2.50119 10.2073 2.52942 10.1764Q2.55764 10.1455 2.55764 10.1102ZM3.02331 10.0573V9.73983Q3.02331 9.58813 3.08857 9.52287Q3.15383 9.4576 3.30553 9.4576H3.38843Q3.51367 9.4576 3.57805 9.52728Q3.64243 9.59695 3.64243 9.73101V9.96031H3.17324V10.0926Q3.17324 10.1473 3.20675 10.1773Q3.24026 10.2073 3.30553 10.2073H3.58599V10.3395H3.32317Q3.16794 10.3395 3.09563 10.2734Q3.02331 10.2073 3.02331 10.0573ZM3.49603 9.69573Q3.49603 9.64987 3.46604 9.61988Q3.43606 9.5899 3.39019 9.5899H3.28789Q3.22439 9.5899 3.19881 9.619Q3.17324 9.6481 3.17324 9.70455V9.82802H3.49603ZM4.11515 10.2073V9.5899H3.98639V9.4576H4.25626V9.50523Q4.31447 9.4576 4.39738 9.4576H4.57906V9.59872H4.37974Q4.32329 9.59872 4.29507 9.63488Q4.26685 9.67103 4.26508 9.70808V10.2073H4.45735V10.3395H3.98639V10.2073Z" fill="#ffffff" />
    <path d="M5.49565 34.8598H5.31221V35.3395H5.15875V34.1048H5.49212Q5.64206 34.1048 5.71878 34.171Q5.79551 34.2371 5.79551 34.38V34.5811Q5.79551 34.724 5.71967 34.7919Q5.64382 34.8598 5.49565 34.8598ZM5.51329 34.2371H5.31221V34.7275H5.51329Q5.58032 34.7275 5.61119 34.6966Q5.64206 34.6657 5.64206 34.5987V34.3641Q5.64206 34.2971 5.61119 34.2671Q5.58032 34.2371 5.51329 34.2371ZM6.51165 34.1048V34.2636H6.34408V34.1048ZM6.09361 34.5899V34.4576H6.50283V35.2073H6.76389V35.3395H6.3529V34.5899ZM7.26131 35.1279V34.5899H7.09374V34.4576H7.26131V34.2459H7.41124V34.4576H7.66876V34.5899H7.41124V35.1367Q7.41124 35.1755 7.43064 35.1914Q7.45004 35.2073 7.49061 35.2073H7.66876V35.3395H7.44651Q7.35656 35.3395 7.30893 35.2813Q7.26131 35.2231 7.26131 35.1279ZM8.06917 35.0573V34.7398Q8.06917 34.5917 8.14237 34.5246Q8.21557 34.4576 8.36903 34.4576H8.59657V34.5899H8.35139Q8.28612 34.5899 8.25261 34.6199Q8.2191 34.6499 8.2191 34.7045V35.0926Q8.2191 35.1473 8.25261 35.1773Q8.28612 35.2073 8.35139 35.2073H8.59657V35.3395H8.36903Q8.21381 35.3395 8.14149 35.2734Q8.06917 35.2073 8.06917 35.0573ZM9.11339 34.1048V34.4929Q9.16631 34.4576 9.24568 34.4576H9.32682Q9.46969 34.4576 9.53937 34.5246Q9.60904 34.5917 9.60904 34.7398V35.3395H9.45911V34.7045Q9.45911 34.6516 9.42824 34.6208Q9.39737 34.5899 9.34446 34.5899H9.22804Q9.1716 34.5899 9.14337 34.619Q9.11515 34.6481 9.11339 34.6816V35.3395H8.96346V34.1048Z" fill="#ffffff" />
    <path d="M5.16581 45.0397V44.4047Q5.16581 44.2548 5.24783 44.1798Q5.32985 44.1048 5.48331 44.1048H5.73201V44.2389H5.46567Q5.4004 44.2389 5.35983 44.2777Q5.31926 44.3165 5.31926 44.3712V45.0732Q5.31926 45.1279 5.35983 45.1667Q5.4004 45.2055 5.46567 45.2055H5.63853V44.8227H5.48507V44.6904H5.78493V45.3395H5.48331Q5.32985 45.3395 5.24783 45.2646Q5.16581 45.1896 5.16581 45.0397ZM6.59103 45.2866Q6.55046 45.3395 6.48343 45.3395H6.32644Q6.19239 45.3395 6.13153 45.2858Q6.07068 45.232 6.07068 45.1014V45.0661Q6.07068 44.7927 6.32821 44.7927H6.54693V44.7045Q6.54693 44.6499 6.51342 44.6199Q6.4799 44.5899 6.41464 44.5899H6.14124V44.4576H6.397Q6.55046 44.4576 6.62366 44.5246Q6.69686 44.5917 6.69686 44.7398V45.1632Q6.69686 45.1896 6.71715 45.2028Q6.73743 45.2161 6.78506 45.2161V45.3395H6.68804Q6.66511 45.3395 6.63777 45.3254Q6.61043 45.3113 6.59103 45.2866ZM6.54693 45.1191V44.925H6.32644Q6.28058 44.925 6.2506 44.955Q6.22061 44.985 6.22061 45.0309V45.1191Q6.22061 45.1649 6.24178 45.1861Q6.26294 45.2073 6.30881 45.2073H6.46579Q6.51871 45.2073 6.53282 45.1826Q6.54693 45.1579 6.54693 45.1191ZM7.26131 45.1279V44.5899H7.09374V44.4576H7.26131V44.2459H7.41124V44.4576H7.66876V44.5899H7.41124V45.1367Q7.41124 45.1755 7.43064 45.1914Q7.45004 45.2073 7.49061 45.2073H7.66876V45.3395H7.44651Q7.35656 45.3395 7.30893 45.2813Q7.26131 45.2231 7.26131 45.1279ZM8.02331 45.0573V44.7398Q8.02331 44.5881 8.08857 44.5229Q8.15383 44.4576 8.30553 44.4576H8.38843Q8.51367 44.4576 8.57805 44.5273Q8.64243 44.597 8.64243 44.731V44.9603H8.17324V45.0926Q8.17324 45.1473 8.20675 45.1773Q8.24026 45.2073 8.30553 45.2073H8.58599V45.3395H8.32317Q8.16794 45.3395 8.09562 45.2734Q8.02331 45.2073 8.02331 45.0573ZM8.49603 44.6957Q8.49603 44.6499 8.46604 44.6199Q8.43606 44.5899 8.39019 44.5899H8.28789Q8.22439 44.5899 8.19881 44.619Q8.17324 44.6481 8.17324 44.7045V44.828H8.49603Z" fill="#ffffff" />
    <path d="M70.1452 24.8598H69.9617V25.3395H69.8083V24.1048H70.1417Q70.2916 24.1048 70.3683 24.171Q70.4451 24.2371 70.4451 24.38V24.5811Q70.4451 24.724 70.3692 24.7919Q70.2934 24.8598 70.1452 24.8598ZM70.1628 24.2371H69.9617V24.7275H70.1628Q70.2299 24.7275 70.2607 24.6966Q70.2916 24.6657 70.2916 24.5987V24.3641Q70.2916 24.2971 70.2607 24.2671Q70.2299 24.2371 70.1628 24.2371ZM71.2406 25.2866Q71.2 25.3395 71.133 25.3395H70.976Q70.8419 25.3395 70.7811 25.2858Q70.7202 25.232 70.7202 25.1014V25.0661Q70.7202 24.7927 70.9777 24.7927H71.1965V24.7045Q71.1965 24.6499 71.163 24.6199Q71.1294 24.5899 71.0642 24.5899H70.7908V24.4576H71.0465Q71.2 24.4576 71.2732 24.5246Q71.3464 24.5917 71.3464 24.7398V25.1632Q71.3464 25.1896 71.3667 25.2028Q71.387 25.2161 71.4346 25.2161V25.3395H71.3376Q71.3146 25.3395 71.2873 25.3254Q71.26 25.3113 71.2406 25.2866ZM71.1965 25.1191V24.925H70.976Q70.9301 24.925 70.9001 24.955Q70.8701 24.985 70.8701 25.0309V25.1191Q70.8701 25.1649 70.8913 25.1861Q70.9125 25.2073 70.9583 25.2073H71.1153Q71.1682 25.2073 71.1824 25.1826Q71.1965 25.1579 71.1965 25.1191ZM71.8597 25.2073V24.5899H71.7309V24.4576H72.0008V24.5052Q72.059 24.4576 72.1419 24.4576H72.3236V24.5987H72.1243Q72.0678 24.5987 72.0396 24.6349Q72.0114 24.671 72.0096 24.7081V25.2073H72.2019V25.3395H71.7309V25.2073ZM73.1456 25.2866Q73.105 25.3395 73.038 25.3395H72.881Q72.7469 25.3395 72.6861 25.2858Q72.6252 25.232 72.6252 25.1014V25.0661Q72.6252 24.7927 72.8827 24.7927H73.1015V24.7045Q73.1015 24.6499 73.068 24.6199Q73.0344 24.5899 72.9692 24.5899H72.6958V24.4576H72.9515Q73.105 24.4576 73.1782 24.5246Q73.2514 24.5917 73.2514 24.7398V25.1632Q73.2514 25.1896 73.2717 25.2028Q73.292 25.2161 73.3396 25.2161V25.3395H73.2426Q73.2196 25.3395 73.1923 25.3254Q73.165 25.3113 73.1456 25.2866ZM73.1015 25.1191V24.925H72.881Q72.8351 24.925 72.8051 24.955Q72.7751 24.985 72.7751 25.0309V25.1191Q72.7751 25.1649 72.7963 25.1861Q72.8175 25.2073 72.8633 25.2073H73.0203Q73.0732 25.2073 73.0874 25.1826Q73.1015 25.1579 73.1015 25.1191ZM73.6677 24.4576V24.4982Q73.7135 24.4576 73.777 24.4576H73.7876Q73.9111 24.4576 73.9622 24.5282Q74.0205 24.4576 74.1157 24.4576H74.1263Q74.2339 24.4576 74.285 24.5123Q74.3362 24.567 74.3362 24.7063V25.3395H74.1951V24.7045Q74.1951 24.6322 74.1801 24.604Q74.1651 24.5758 74.1122 24.5758H74.1016Q74.0487 24.5758 74.0284 24.6119Q74.0081 24.6481 74.0063 24.6922V25.3395H73.8652V24.7045Q73.8652 24.6305 73.8476 24.6031Q73.83 24.5758 73.7841 24.5758H73.7735Q73.7206 24.5758 73.6994 24.6067Q73.6783 24.6375 73.6765 24.6763V25.3395H73.5354V24.4576Z" fill="#ffffff" />
    <path d="M70.1452 34.8598H69.9617V35.3395H69.8083V34.1048H70.1417Q70.2916 34.1048 70.3683 34.171Q70.4451 34.2371 70.4451 34.38V34.5811Q70.4451 34.724 70.3692 34.7919Q70.2934 34.8598 70.1452 34.8598ZM70.1628 34.2371H69.9617V34.7275H70.1628Q70.2299 34.7275 70.2607 34.6966Q70.2916 34.6657 70.2916 34.5987V34.3641Q70.2916 34.2971 70.2607 34.2671Q70.2299 34.2371 70.1628 34.2371ZM71.2406 35.2866Q71.2 35.3395 71.133 35.3395H70.976Q70.8419 35.3395 70.7811 35.2858Q70.7202 35.232 70.7202 35.1014V35.0661Q70.7202 34.7927 70.9777 34.7927H71.1965V34.7045Q71.1965 34.6499 71.163 34.6199Q71.1294 34.5899 71.0642 34.5899H70.7908V34.4576H71.0465Q71.2 34.4576 71.2732 34.5246Q71.3464 34.5917 71.3464 34.7398V35.1632Q71.3464 35.1896 71.3667 35.2028Q71.387 35.2161 71.4346 35.2161V35.3395H71.3376Q71.3146 35.3395 71.2873 35.3254Q71.26 35.3113 71.2406 35.2866ZM71.1965 35.1191V34.925H70.976Q70.9301 34.925 70.9001 34.955Q70.8701 34.985 70.8701 35.0309V35.1191Q70.8701 35.1649 70.8913 35.1861Q70.9125 35.2073 70.9583 35.2073H71.1153Q71.1682 35.2073 71.1824 35.1826Q71.1965 35.1579 71.1965 35.1191ZM71.8597 35.2073V34.5899H71.7309V34.4576H72.0008V34.5052Q72.059 34.4576 72.1419 34.4576H72.3236V34.5987H72.1243Q72.0678 34.5987 72.0396 34.6349Q72.0114 34.671 72.0096 34.7081V35.2073H72.2019V35.3395H71.7309V35.2073ZM73.1456 35.2866Q73.105 35.3395 73.038 35.3395H72.881Q72.7469 35.3395 72.6861 35.2858Q72.6252 35.232 72.6252 35.1014V35.0661Q72.6252 34.7927 72.8827 34.7927H73.1015V34.7045Q73.1015 34.6499 73.068 34.6199Q73.0344 34.5899 72.9692 34.5899H72.6958V34.4576H72.9515Q73.105 34.4576 73.1782 34.5246Q73.2514 34.5917 73.2514 34.7398V35.1632Q73.2514 35.1896 73.2717 35.2028Q73.292 35.2161 73.3396 35.2161V35.3395H73.2426Q73.2196 35.3395 73.1923 35.3254Q73.165 35.3113 73.1456 35.2866ZM73.1015 35.1191V34.925H72.881Q72.8351 34.925 72.8051 34.955Q72.7751 34.985 72.7751 35.0309V35.1191Q72.7751 35.1649 72.7963 35.1861Q72.8175 35.2073 72.8633 35.2073H73.0203Q73.0732 35.2073 73.0874 35.1826Q73.1015 35.1579 73.1015 35.1191ZM73.6677 34.4576V34.4982Q73.7135 34.4576 73.777 34.4576H73.7876Q73.9111 34.4576 73.9622 34.5282Q74.0205 34.4576 74.1157 34.4576H74.1263Q74.2339 34.4576 74.285 34.5123Q74.3362 34.567 74.3362 34.7063V35.3395H74.1951V34.7045Q74.1951 34.6322 74.1801 34.604Q74.1651 34.5758 74.1122 34.5758H74.1016Q74.0487 34.5758 74.0284 34.6119Q74.0081 34.6481 74.0063 34.6922V35.3395H73.8652V34.7045Q73.8652 34.6305 73.8476 34.6031Q73.83 34.5758 73.7841 34.5758H73.7735Q73.7206 34.5758 73.6994 34.6067Q73.6783 34.6375 73.6765 34.6763V35.3395H73.5354V34.4576Z" fill="#ffffff" />
    <path d="M70.1452 44.8598H69.9617V45.3395H69.8083V44.1048H70.1417Q70.2916 44.1048 70.3683 44.171Q70.4451 44.2371 70.4451 44.38V44.5811Q70.4451 44.724 70.3692 44.7919Q70.2934 44.8598 70.1452 44.8598ZM70.1628 44.2371H69.9617V44.7275H70.1628Q70.2299 44.7275 70.2607 44.6966Q70.2916 44.6657 70.2916 44.5987V44.3641Q70.2916 44.2971 70.2607 44.2671Q70.2299 44.2371 70.1628 44.2371ZM71.2406 45.2866Q71.2 45.3395 71.133 45.3395H70.976Q70.8419 45.3395 70.7811 45.2858Q70.7202 45.232 70.7202 45.1014V45.0661Q70.7202 44.7927 70.9777 44.7927H71.1965V44.7045Q71.1965 44.6499 71.163 44.6199Q71.1294 44.5899 71.0642 44.5899H70.7908V44.4576H71.0465Q71.2 44.4576 71.2732 44.5246Q71.3464 44.5917 71.3464 44.7398V45.1632Q71.3464 45.1896 71.3667 45.2028Q71.387 45.2161 71.4346 45.2161V45.3395H71.3376Q71.3146 45.3395 71.2873 45.3254Q71.26 45.3113 71.2406 45.2866ZM71.1965 45.1191V44.925H70.976Q70.9301 44.925 70.9001 44.955Q70.8701 44.985 70.8701 45.0309V45.1191Q70.8701 45.1649 70.8913 45.1861Q70.9125 45.2073 70.9583 45.2073H71.1153Q71.1682 45.2073 71.1824 45.1826Q71.1965 45.1579 71.1965 45.1191ZM71.8597 45.2073V44.5899H71.7309V44.4576H72.0008V44.5052Q72.059 44.4576 72.1419 44.4576H72.3236V44.5987H72.1243Q72.0678 44.5987 72.0396 44.6349Q72.0114 44.671 72.0096 44.7081V45.2073H72.2019V45.3395H71.7309V45.2073ZM73.1456 45.2866Q73.105 45.3395 73.038 45.3395H72.881Q72.7469 45.3395 72.6861 45.2858Q72.6252 45.232 72.6252 45.1014V45.0661Q72.6252 44.7927 72.8827 44.7927H73.1015V44.7045Q73.1015 44.6499 73.068 44.6199Q73.0344 44.5899 72.9692 44.5899H72.6958V44.4576H72.9515Q73.105 44.4576 73.1782 44.5246Q73.2514 44.5917 73.2514 44.7398V45.1632Q73.2514 45.1896 73.2717 45.2028Q73.292 45.2161 73.3396 45.2161V45.3395H73.2426Q73.2196 45.3395 73.1923 45.3254Q73.165 45.3113 73.1456 45.2866ZM73.1015 45.1191V44.925H72.881Q72.8351 44.925 72.8051 44.955Q72.7751 44.985 72.7751 45.0309V45.1191Q72.7751 45.1649 72.7963 45.1861Q72.8175 45.2073 72.8633 45.2073H73.0203Q73.0732 45.2073 73.0874 45.1826Q73.1015 45.1579 73.1015 45.1191ZM73.6677 44.4576V44.4982Q73.7135 44.4576 73.777 44.4576H73.7876Q73.9111 44.4576 73.9622 44.5282Q74.0205 44.4576 74.1157 44.4576H74.1263Q74.2339 44.4576 74.285 44.5123Q74.3362 44.567 74.3362 44.7063V45.3395H74.1951V44.7045Q74.1951 44.6322 74.1801 44.604Q74.1651 44.5758 74.1122 44.5758H74.1016Q74.0487 44.5758 74.0284 44.6119Q74.0081 44.6481 74.0063 44.6922V45.3395H73.8652V44.7045Q73.8652 44.6305 73.8476 44.6031Q73.83 44.5758 73.7841 44.5758H73.7735Q73.7206 44.5758 73.6994 44.6067Q73.6783 44.6375 73.6765 44.6763V45.3395H73.5354V44.4576Z" fill="#ffffff" />
</svg>
