<?xml version="1.0" encoding="UTF-8" standalone="no"?>
<!-- Generator: Adobe Illustrator 26.0.3, SVG Export Plug-In . SVG Version: 6.00 Build 0)  -->

<svg
   version="1.1"
   id="Ebene_1"
   x="0px"
   y="0px"
   viewBox="0 0 19 19"
   xml:space="preserve"
   sodipodi:docname="round_light_n.svg"
   inkscape:version="1.1.1 (3bf5ae0d25, 2021-09-20)"
   width="19"
   height="19"
   xmlns:inkscape="http://www.inkscape.org/namespaces/inkscape"
   xmlns:sodipodi="http://sodipodi.sourceforge.net/DTD/sodipodi-0.dtd"
   xmlns:xlink="http://www.w3.org/1999/xlink"
   xmlns="http://www.w3.org/2000/svg"
   xmlns:svg="http://www.w3.org/2000/svg"><defs
   id="defs1170"><linearGradient
     inkscape:collect="always"
     id="linearGradient13471"><stop
       style="stop-color:#6f6e72;stop-opacity:1"
       offset="0"
       id="stop13467" /><stop
       style="stop-color:#68666b;stop-opacity:0"
       offset="1"
       id="stop13469" /></linearGradient><linearGradient
     inkscape:collect="always"
     id="linearGradient10541"><stop
       style="stop-color:#717173;stop-opacity:1"
       offset="0"
       id="stop10537" /><stop
       style="stop-color:#757476;stop-opacity:0;"
       offset="1"
       id="stop10539" /></linearGradient><linearGradient
     inkscape:collect="always"
     id="linearGradient10173"><stop
       style="stop-color:#6f6e72;stop-opacity:1"
       offset="0"
       id="stop10169" /><stop
       style="stop-color:#636066;stop-opacity:0"
       offset="1"
       id="stop10171" /></linearGradient><linearGradient
     inkscape:collect="always"
     id="linearGradient5856"><stop
       style="stop-color:#5e5c63;stop-opacity:1"
       offset="0"
       id="stop5852" /><stop
       style="stop-color:#69696c;stop-opacity:1"
       offset="1"
       id="stop5854" /></linearGradient><linearGradient
     inkscape:collect="always"
     id="linearGradient1277"><stop
       style="stop-color:#434343;stop-opacity:1"
       offset="0"
       id="stop1273" /><stop
       style="stop-color:#1f1f1f;stop-opacity:1"
       offset="1"
       id="stop1275" /></linearGradient><linearGradient
     inkscape:collect="always"
     xlink:href="#linearGradient1277"
     id="linearGradient1279"
     x1="3.0546875"
     y1="2.765625"
     x2="16.445312"
     y2="15.866787"
     gradientUnits="userSpaceOnUse" /><linearGradient
     inkscape:collect="always"
     xlink:href="#linearGradient5856"
     id="linearGradient5858"
     x1="18.81567"
     y1="-4.4194174"
     x2="18.859863"
     y2="13.976407"
     gradientUnits="userSpaceOnUse" /><linearGradient
     inkscape:collect="always"
     xlink:href="#linearGradient10173"
     id="linearGradient10175"
     x1="3.6094124"
     y1="13.272818"
     x2="9.594388"
     y2="9.3613224"
     gradientUnits="userSpaceOnUse" /><linearGradient
     inkscape:collect="always"
     xlink:href="#linearGradient10541"
     id="linearGradient10543"
     x1="15.334337"
     y1="11.702093"
     x2="11.334375"
     y2="8.5089626"
     gradientUnits="userSpaceOnUse" /><linearGradient
     inkscape:collect="always"
     xlink:href="#linearGradient13471"
     id="linearGradient13465"
     gradientUnits="userSpaceOnUse"
     x1="3.6094124"
     y1="13.272818"
     x2="8.047513"
     y2="7.7597599" /><linearGradient
     inkscape:collect="always"
     xlink:href="#linearGradient1277"
     id="linearGradient13551"
     gradientUnits="userSpaceOnUse"
     x1="3.0546875"
     y1="2.765625"
     x2="16.445312"
     y2="15.866787" /></defs><sodipodi:namedview
   id="namedview1168"
   pagecolor="#ffffff"
   bordercolor="#666666"
   borderopacity="1.0"
   inkscape:pageshadow="2"
   inkscape:pageopacity="0.0"
   inkscape:pagecheckerboard="0"
   showgrid="false"
   inkscape:zoom="45.254834"
   inkscape:cx="19.047689"
   inkscape:cy="15.048116"
   inkscape:window-width="3840"
   inkscape:window-height="2066"
   inkscape:window-x="2869"
   inkscape:window-y="-11"
   inkscape:window-maximized="1"
   inkscape:current-layer="Ebene_1"
   showguides="true"
   inkscape:guide-bbox="true"
   width="14.51054px"><sodipodi:guide
     position="-7.2504592,0.15769786"
     orientation="1,0"
     id="guide8468" /></sodipodi:namedview>

<circle
   style="fill:#040404;fill-rule:evenodd;stroke-width:2.02205;stroke-linejoin:round;fill-opacity:1"
   id="path1019"
   cx="9.5"
   cy="9.5"
   r="9.5"
   inkscape:label="dark-base" /><circle
   style="fill:url(#linearGradient1279);fill-opacity:1;fill-rule:evenodd;stroke-width:2.02205;stroke-linejoin:round"
   id="path1019-0"
   cx="9.5"
   cy="9.5"
   inkscape:label="gradient-rim"
   r="9.4359999" /><circle
   style="fill:#040404;fill-opacity:1;fill-rule:evenodd;stroke-width:2.02205;stroke-linejoin:round"
   id="path1019-8"
   cx="9.5"
   cy="9.5"
   inkscape:label="dark-base"
   r="9.3000002" /><circle
   style="fill:url(#linearGradient13551);fill-opacity:1;fill-rule:evenodd;stroke-width:2.02205;stroke-linejoin:round"
   id="path1019-0-5"
   cx="9.5"
   cy="9.5"
   inkscape:label="gradient-rim"
   r="9.1859999" /><circle
   style="fill:#040404;fill-opacity:1;fill-rule:evenodd;stroke-width:2.02205;stroke-linejoin:round"
   id="path1019-2"
   cx="9.5"
   cy="9.5"
   inkscape:label="inner-black"
   r="8" /><circle
   style="fill:#939393;fill-opacity:1;fill-rule:evenodd;stroke-width:2.02205;stroke-linejoin:round"
   id="path1019-04"
   cx="9.5"
   cy="9.5"
   inkscape:label="rim-highlight"
   r="7.5" /><path
   id="path1019-04-8-6"
   style="fill:#747474;fill-opacity:1;fill-rule:evenodd;stroke-width:2.02205;stroke-linejoin:round"
   inkscape:label="rim-highlight"
   d="M 16.988281,9.997672 A 7.5,7.5 0 0 0 9.5,2.655875 7.5,7.5 0 0 0 2.019531,9.882438 7.5,7.5 0 0 1 2.000001,9.609 a 7.5,7.5 0 0 1 7.5,-7.5 7.5,7.5 0 0 1 7.5,7.5 7.5,7.5 0 0 1 -0.01172,0.388672 z" /><ellipse
   style="fill:#59585a;fill-opacity:1;fill-rule:evenodd;stroke-width:2.02205;stroke-linejoin:round"
   id="path1019-04-7"
   cx="9.484375"
   cy="9.7409372"
   inkscape:label="rim-highlight"
   rx="7.34375"
   ry="7.2109375" /><ellipse
   style="fill:url(#linearGradient5858);fill-opacity:1;fill-rule:evenodd;stroke-width:2.02205;stroke-linejoin:round"
   id="path1019-1"
   cx="9.4741497"
   cy="9.5880337"
   inkscape:label="dark-base"
   rx="7.507813"
   ry="7.0703135" /><path
   id="rect8929"
   style="fill:url(#linearGradient10175);fill-opacity:1;fill-rule:evenodd;stroke-width:2.02204;stroke-linejoin:round"
   d="M 3.3042234,8.3752322 C 3.0149612,8.3931953 2.7722194,8.568257 2.5227201,8.701735 2.3106132,8.8929722 2.193763,9.1210159 2.1392815,9.5067743 l -0.053528,0.5396557 0.081623,0.770125 0.3824094,1.321499 c 0.2852425,0.603456 0.5623824,1.176275 0.9210802,1.737525 0.2001267,0.342098 0.402187,0.624874 0.7320478,0.849595 l 0.8077026,0.680284 c 0.3423876,0.202685 0.3818968,0.179234 0.6919354,0.295994 0.3207388,-0.01275 0.5299065,0.05517 0.755962,-0.207923 0.1962768,-0.14807 0.3284211,-0.403447 0.3007752,-0.661099 0.00429,-1.75304 0.00857,-3.506081 0.012859,-5.2591218 C 6.762276,9.2727428 6.7337586,8.8921875 6.4379481,8.7395121 6.2807747,8.6593211 6.1557089,8.4645142 5.9597914,8.4777703 L 3.5407303,8.3347568 Z"
   sodipodi:nodetypes="ccccccccccccccccc" /><path
   id="rect8929-1"
   style="fill:url(#linearGradient10543);fill-opacity:1;fill-rule:evenodd;stroke-width:2.02205;stroke-linejoin:round"
   d="m 14.358695,7.5731747 c 0.339039,0.020829 1.631364,-0.1004052 1.923798,0.054364 0.248607,0.2217408 0.225408,0.1306903 0.343953,0.6014168 l 0.15649,1.3093286 -0.09957,1.1898409 -0.600559,1.813537 c -0.334327,0.699711 -0.784158,1.266242 -1.438956,1.971703 -0.379096,0.326352 -0.651084,0.560484 -1.037707,0.821049 l -0.820012,0.498701 c -0.371273,0.16571 -0.125375,-0.61853 -0.488765,-0.483146 -0.35304,-0.118959 -1.20674,0.102277 -1.471696,-0.202768 -0.230053,-0.171688 -0.517749,-0.358424 -0.485346,-0.657173 -0.0051,-2.032662 -0.04133,-3.495013 -0.04632,-5.5276764 0.01157,-0.3485071 0.04499,-0.7897637 0.391708,-0.9667919 0.18422,-0.092982 0.330807,-0.3188619 0.56044,-0.3034914 L 14.08149,7.5262432 Z"
   sodipodi:nodetypes="ccccccccccccccccc" /><path
   id="path1019-1-7"
   style="fill:#757379;fill-opacity:1;fill-rule:evenodd;stroke-width:2.02205;stroke-linejoin:round"
   inkscape:label="dark-base"
   d="m 9.4339542,2.4322209 a 7.2326946,6.6887959 0 0 0 -7.2326946,6.688795 7.2326946,6.6887959 0 0 0 0.00376,0.053585 7.2326946,6.6887959 0 0 1 7.2289317,-6.6370589 7.2326946,6.6887959 0 0 1 7.2308127,6.6111904 7.2326946,6.6887959 0 0 0 0.0019,-0.027716 7.2326946,6.6887959 0 0 0 -7.2326937,-6.688795 z" /><path
   id="path12763"
   style="fill:url(#linearGradient13465);fill-opacity:1;fill-rule:evenodd;stroke-width:2.02204;stroke-linejoin:round"
   d="M 3.3042234,8.3752322 C 3.0149612,8.3931953 2.7722194,8.568257 2.5227201,8.701735 2.3106132,8.8929722 2.193763,9.1210159 2.1392815,9.5067743 l -0.053528,0.5396557 0.081623,0.770125 0.3824094,1.321499 c 0.2852425,0.603456 0.5623824,1.176275 0.9210802,1.737525 0.2001267,0.342098 0.402187,0.624874 0.7320478,0.849595 l 0.6162964,0.551378 c 0.1914062,0.128906 0.5459593,0.226109 0.8559979,0.342869 0.3207388,-0.01275 0.5572502,0.137196 0.7833057,-0.125892 0.1962768,-0.14807 0.3284211,-0.403447 0.3007752,-0.661099 0.00429,-1.75304 0.00857,-3.506081 0.012859,-5.2591218 C 6.762276,9.2727428 6.7337586,8.8921875 6.4379481,8.7395121 6.2807747,8.6593211 6.1557089,8.4645142 5.9597914,8.4777703 L 3.5407303,8.3347568 Z"
   sodipodi:nodetypes="ccccccccccccccccc" /></svg>
