<?xml version="1.0" encoding="utf-8"?>
<!-- Generator: Adobe Illustrator 26.1.0, SVG Export Plug-In . SVG Version: 6.00 Build 0)  -->
<svg version="1.1" id="Ebene_1" xmlns="http://www.w3.org/2000/svg" xmlns:xlink="http://www.w3.org/1999/xlink" x="0px" y="0px"
	 viewBox="0 0 518.4 364.252" style="enable-background:new 0 0 518.4 364.252;" xml:space="preserve">
<style type="text/css">
	.st0{opacity:0.15;fill:#FFFFFF;}
	.st1{fill:#1C2729;}
	.st2{opacity:0.3;}
	.st3{fill:#F3EDE7;}
	.st4{opacity:0.5;fill:#F3EDE7;}
</style>
<path d="M498.995,243.705H19.405c-1.331,0-2.41-1.079-2.41-2.41V19.412c0-1.331,1.079-2.41,2.41-2.41h479.59
	c1.331,0,2.41,1.079,2.41,2.41v221.883C501.405,242.626,500.326,243.705,498.995,243.705z"/>
<path class="st0" d="M498.995,243.723H19.405c-1.331,0-2.41-1.079-2.41-2.41v0.583c0,1.331,1.079,2.41,2.41,2.41h479.59
	c1.331,0,2.41-1.079,2.41-2.41v-0.583C501.405,242.644,500.326,243.723,498.995,243.723z"/>
<path class="st1" d="M498.712,242.008H19.688c-0.504,0-0.912-0.409-0.912-0.912V19.744c0-0.504,0.409-0.912,0.912-0.912h479.023
	c0.504,0,0.913,0.409,0.913,0.912v221.352C499.624,241.6,499.216,242.008,498.712,242.008z"/>
<g class="st2">
	<g>
		<path class="st3" d="M82.681,267.127v73.515c0,3.336,1.294,6.36,3.388,8.55c2.094,2.19,4.994,3.548,8.195,3.548v-0.6
			c-3.031,0-5.773-1.283-7.763-3.363c-1.99-2.08-3.222-4.955-3.222-8.135v-73.515c0-3.18,1.232-6.054,3.222-8.135
			c1.99-2.08,4.733-3.363,7.763-3.363v-0.6c-3.202,0-6.102,1.358-8.195,3.548C83.975,260.767,82.681,263.791,82.681,267.127z
			 M111.544,258.577c-2.094-2.19-4.994-3.548-8.195-3.548h0v0.6h0c3.031,0,5.773,1.283,7.763,3.363
			c1.99,2.08,3.222,4.955,3.222,8.135v73.515c0,3.18-1.232,6.054-3.222,8.135c-1.99,2.08-4.733,3.363-7.763,3.363h0v0.6h0
			c3.202,0,6.102-1.358,8.195-3.548c2.095-2.19,3.388-5.214,3.388-8.55v-73.515C114.932,263.791,113.638,260.767,111.544,258.577z"
			/>
	</g>
</g>
<g class="st2">
	<g>
		<path class="st3" d="M118.554,267.127v73.515c0,3.336,1.294,6.36,3.388,8.55c2.094,2.19,4.994,3.548,8.195,3.548v-0.6
			c-3.031,0-5.773-1.283-7.763-3.363c-1.99-2.08-3.222-4.955-3.222-8.135v-73.515c0-3.18,1.232-6.054,3.222-8.135
			c1.99-2.08,4.733-3.363,7.763-3.363v-0.6c-3.202,0-6.102,1.358-8.195,3.548C119.847,260.767,118.554,263.791,118.554,267.127z
			 M147.416,258.577c-2.094-2.19-4.994-3.548-8.195-3.548h0v0.6h0c3.031,0,5.773,1.283,7.763,3.363
			c1.99,2.08,3.222,4.955,3.222,8.135v73.515c0,3.18-1.232,6.054-3.222,8.135c-1.99,2.08-4.733,3.363-7.763,3.363h0v0.6h0
			c3.202,0,6.102-1.358,8.195-3.548c2.095-2.19,3.388-5.214,3.388-8.55v-73.515C150.804,263.791,149.51,260.767,147.416,258.577z"/>
	</g>
</g>
<g class="st2">
	<g>
		<path class="st3" d="M154.426,267.127v73.515c0,3.336,1.294,6.36,3.388,8.55c2.094,2.19,4.994,3.548,8.195,3.548v-0.6
			c-3.031,0-5.773-1.283-7.763-3.363c-1.99-2.08-3.222-4.955-3.222-8.135v-73.515c0-3.18,1.232-6.054,3.222-8.135
			c1.99-2.08,4.733-3.363,7.763-3.363v-0.6c-3.202,0-6.102,1.358-8.195,3.548C155.72,260.767,154.426,263.791,154.426,267.127z
			 M183.288,258.577c-2.094-2.19-4.994-3.548-8.195-3.548v0.6c3.031,0,5.773,1.283,7.763,3.363c1.99,2.08,3.222,4.955,3.222,8.135
			v73.515c0,3.18-1.232,6.054-3.222,8.135c-1.99,2.08-4.733,3.363-7.763,3.363v0.6c3.202,0,6.102-1.358,8.195-3.548
			c2.095-2.19,3.388-5.214,3.388-8.55v-73.515C186.677,263.791,185.383,260.767,183.288,258.577z"/>
	</g>
</g>
<g class="st2">
	<g>
		<path class="st3" d="M190.298,267.127v73.515c0,3.336,1.294,6.36,3.388,8.55c2.094,2.19,4.994,3.548,8.195,3.548v-0.6
			c-3.031,0-5.773-1.283-7.763-3.363c-1.99-2.08-3.222-4.955-3.222-8.135v-73.515c0-3.18,1.232-6.054,3.222-8.135
			c1.99-2.08,4.733-3.363,7.763-3.363v-0.6c-3.202,0-6.102,1.358-8.195,3.548C191.592,260.767,190.298,263.791,190.298,267.127z
			 M219.16,258.577c-2.094-2.19-4.994-3.548-8.195-3.548v0.6c3.031,0,5.773,1.283,7.763,3.363c1.99,2.08,3.222,4.955,3.222,8.135
			v73.515c0,3.18-1.232,6.054-3.222,8.135c-1.99,2.08-4.733,3.363-7.763,3.363v0.6c3.202,0,6.102-1.358,8.195-3.548
			c2.095-2.19,3.388-5.214,3.388-8.55v-73.515C222.549,263.791,221.255,260.767,219.16,258.577z"/>
	</g>
</g>
<g class="st2">
	<g>
		<path class="st3" d="M226.17,267.127v73.515c0,3.336,1.294,6.36,3.388,8.55c2.094,2.19,4.994,3.548,8.195,3.548v-0.6
			c-3.031,0-5.773-1.283-7.763-3.363c-1.99-2.08-3.222-4.955-3.222-8.135v-73.515c0-3.18,1.232-6.054,3.222-8.135
			c1.99-2.08,4.733-3.363,7.763-3.363v-0.6c-3.202,0-6.102,1.358-8.195,3.548C227.464,260.767,226.17,263.791,226.17,267.127z
			 M255.032,258.577c-2.094-2.19-4.994-3.548-8.195-3.548h0v0.6h0c3.031,0,5.773,1.283,7.763,3.363
			c1.99,2.08,3.222,4.955,3.222,8.135v73.515c0,3.18-1.232,6.054-3.222,8.135c-1.99,2.08-4.733,3.363-7.763,3.363h0v0.6h0
			c3.202,0,6.102-1.358,8.195-3.548c2.095-2.19,3.388-5.214,3.388-8.55v-73.515C258.421,263.791,257.127,260.767,255.032,258.577z"
			/>
	</g>
</g>
<g class="st2">
	<g>
		<path class="st3" d="M262.042,267.127v73.515c0,3.336,1.294,6.36,3.388,8.55c2.094,2.19,4.994,3.548,8.195,3.548v-0.6
			c-3.031,0-5.773-1.283-7.763-3.363c-1.99-2.08-3.222-4.955-3.222-8.135v-73.515c0-3.18,1.232-6.054,3.222-8.135
			c1.99-2.08,4.733-3.363,7.763-3.363v-0.6c-3.202,0-6.102,1.358-8.195,3.548C263.336,260.767,262.042,263.791,262.042,267.127z
			 M290.905,258.577c-2.094-2.19-4.994-3.548-8.195-3.548h0v0.6h0c3.031,0,5.773,1.283,7.763,3.363
			c1.99,2.08,3.222,4.955,3.222,8.135v73.515c0,3.18-1.232,6.054-3.222,8.135c-1.99,2.08-4.733,3.363-7.763,3.363h0v0.6h0
			c3.202,0,6.102-1.358,8.195-3.548c2.095-2.19,3.388-5.214,3.388-8.55v-73.515C294.293,263.791,292.999,260.767,290.905,258.577z"
			/>
	</g>
</g>
<g>
	<path class="st3" d="M439.047,263.483h0.384c0.112,0,0.169-0.067,0.169-0.168v-3.583c0-0.101,0.067-0.168,0.169-0.168h1.015
		c0.102,0,0.181,0.067,0.181,0.168v3.583c0,0.101,0.068,0.168,0.169,0.168h0.373c0.112,0,0.169-0.067,0.169-0.168v-8.086
		c0-0.101-0.068-0.168-0.169-0.168h-0.373c-0.112,0-0.169,0.067-0.169,0.168v3.481c0,0.101-0.079,0.168-0.181,0.168h-1.015
		c-0.102,0-0.169-0.067-0.169-0.168v-3.481c0-0.101-0.067-0.168-0.169-0.168h-0.384c-0.112,0-0.169,0.067-0.169,0.168v8.086
		C438.878,263.416,438.946,263.483,439.047,263.483z M434.028,261.843c0,1.033,0.462,1.696,1.33,1.696
		c0.88,0,1.342-0.674,1.342-1.696v-0.887c0-0.101-0.067-0.168-0.169-0.168h-0.384c-0.102,0-0.169,0.067-0.169,0.168v0.674
		c0,0.831-0.146,1.224-0.62,1.224s-0.608-0.393-0.608-1.224v-4.717c0-0.831,0.135-1.224,0.608-1.224s0.62,0.393,0.62,1.224v0.674
		c0,0.101,0.067,0.168,0.169,0.168h0.384c0.102,0,0.169-0.067,0.169-0.168V256.7c0-1.022-0.462-1.696-1.342-1.696
		c-0.868,0-1.33,0.663-1.33,1.696V261.843z M429.943,255.577c0,0.112,0.067,0.168,0.169,0.168h0.439
		c0.102,0,0.169,0.067,0.169,0.168v7.401c0,0.101,0.068,0.168,0.17,0.168h0.372c0.112,0,0.169-0.067,0.169-0.168v-7.401
		c0-0.101,0.067-0.168,0.169-0.168h0.462c0.102,0,0.17-0.067,0.17-0.168v-0.348c0-0.112-0.068-0.168-0.17-0.168h-1.95
		c-0.102,0-0.169,0.067-0.169,0.168V255.577z M427.483,263.483h0.384c0.112,0,0.169-0.067,0.169-0.168v-8.086
		c0-0.101-0.067-0.168-0.169-0.168h-0.384c-0.112,0-0.169,0.067-0.169,0.168v8.086C427.314,263.416,427.381,263.483,427.483,263.483
		z M423.421,263.314c0,0.101,0.067,0.168,0.169,0.168h1.646c0.102,0,0.169-0.067,0.169-0.168V263c0-0.101-0.067-0.168-0.169-0.168
		h-0.925c-0.102,0-0.169-0.067-0.169-0.168v-7.435c0-0.101-0.067-0.168-0.169-0.168h-0.384c-0.112,0-0.169,0.067-0.169,0.168
		V263.314z M418.547,261.843c0,1.033,0.462,1.696,1.33,1.696c0.88,0,1.319-0.674,1.319-1.696v-2.403
		c0-0.101-0.067-0.168-0.169-0.168h-0.981c-0.102,0-0.169,0.067-0.169,0.168v0.337c0,0.112,0.067,0.168,0.169,0.168h0.282
		c0.102,0,0.169,0.067,0.169,0.168v1.516c0,0.831-0.146,1.224-0.62,1.224s-0.608-0.393-0.608-1.224v-4.717
		c0-0.831,0.135-1.224,0.608-1.224s0.62,0.393,0.62,1.224v0.674c0,0.101,0.067,0.168,0.169,0.168h0.361
		c0.102,0,0.169-0.067,0.169-0.168V256.7c0-1.022-0.439-1.696-1.319-1.696c-0.868,0-1.33,0.663-1.33,1.696V261.843z
		 M414.214,263.483h0.451c0.079,0,0.146-0.067,0.169-0.168l0.598-2.684h0.091l0.586,2.684c0.022,0.101,0.102,0.168,0.181,0.168
		h0.439c0.079,0,0.136-0.067,0.113-0.168l-0.97-3.976l0.011-0.135l0.959-3.976c0.022-0.101-0.034-0.168-0.113-0.168h-0.439
		c-0.079,0-0.146,0.067-0.169,0.168l-0.598,2.695h-0.091l-0.598-2.695c-0.022-0.101-0.09-0.168-0.169-0.168h-0.451
		c-0.067,0-0.135,0.067-0.112,0.168l0.97,3.976v0.135l-0.97,3.976C414.08,263.416,414.147,263.483,414.214,263.483z M410.333,261.63
		v-4.717c0-0.831,0.135-1.224,0.609-1.224c0.485,0,0.62,0.393,0.62,1.224v4.717c0,0.831-0.135,1.224-0.62,1.224
		C410.468,262.854,410.333,262.461,410.333,261.63z M409.611,261.843c0,1.033,0.462,1.696,1.331,1.696
		c0.88,0,1.342-0.663,1.342-1.696V256.7c0-1.033-0.462-1.696-1.342-1.696c-0.868,0-1.331,0.663-1.331,1.696V261.843z
		 M406.248,263.483h0.406c0.113,0,0.169-0.056,0.191-0.213l1.128-8.007c0.022-0.168-0.068-0.202-0.169-0.202h-0.35
		c-0.124,0-0.191,0.034-0.203,0.18l-0.744,6.098h-0.113l-0.745-6.098c-0.011-0.146-0.079-0.18-0.203-0.18h-0.35
		c-0.102,0-0.192,0.034-0.169,0.202l1.128,8.007C406.079,263.427,406.135,263.483,406.248,263.483z"/>
	<path class="st3" d="M500.718,255.264v8.018h-55.054v-8.018H500.718 M500.718,254.764h-55.054c-0.276,0-0.5,0.224-0.5,0.5v8.018
		c0,0.276,0.224,0.5,0.5,0.5h55.054c0.276,0,0.5-0.224,0.5-0.5v-8.018C501.218,254.988,500.994,254.764,500.718,254.764z"/>
	<path class="st3" d="M497.266,258.033c0.318,0,0.444,0.06,0.444,0.563v0.12c0,0.498-0.12,0.558-0.414,0.558h-0.474v-1.241H497.266z
		 M496.823,259.892h0.449c0.324,0,0.438,0.06,0.438,0.576v1.115h0.768v-1.067c0-0.756-0.162-0.888-0.486-0.959v-0.03
		c0.324-0.084,0.486-0.27,0.486-0.948V258.5c0-0.935-0.336-1.115-1.134-1.115h-1.289v4.198h0.768V259.892z M495.021,260.911h-1.181
		v-1.091h1.181v-0.677h-1.181v-1.085h1.181v-0.672h-1.948v4.198h1.948V260.911z M490.828,261.643c0.816,0,1.146-0.318,1.206-1.409
		h-0.773c-0.036,0.624-0.162,0.755-0.456,0.755h-0.036c-0.198,0-0.324-0.06-0.384-0.186c-0.06-0.125-0.09-0.348-0.09-0.666v-1.301
		c0-0.647,0.084-0.852,0.474-0.852h0.036c0.294,0,0.42,0.126,0.456,0.75h0.773c-0.061-1.091-0.39-1.409-1.206-1.409h-0.09
		c-0.881,0-1.217,0.36-1.217,1.559v1.2c0,1.199,0.336,1.559,1.217,1.559H490.828z M488.469,257.385h-0.707v2.836h-0.03l-0.923-2.836
		h-1.014v4.198h0.707v-2.836h0.03l0.924,2.836h1.013V257.385z M484.761,260.911h-1.181v-1.091h1.181v-0.677h-1.181v-1.085h1.181
		v-0.672h-1.948v4.198h1.948V260.911z M480.569,261.643c0.863,0,1.187-0.294,1.187-1.487v-2.771h-0.773v2.776
		c0,0.63-0.096,0.774-0.426,0.774h-0.048c-0.33,0-0.426-0.144-0.426-0.774v-2.776h-0.773v2.771c0,1.193,0.324,1.487,1.188,1.487
		H480.569z M476.992,260.929c-0.197,0-0.323-0.06-0.39-0.186c-0.06-0.126-0.09-0.348-0.09-0.666v-1.241
		c0-0.324,0.03-0.545,0.09-0.666c0.066-0.126,0.192-0.186,0.39-0.186h0.042c0.198,0,0.324,0.06,0.384,0.186
		c0.066,0.12,0.096,0.342,0.096,0.666v1.241c0,0.318-0.029,0.54-0.09,0.666c-0.06,0.126-0.186,0.186-0.384,0.186H476.992z
		 M478.359,260.905h-0.527v-0.03c0.3-0.12,0.456-0.324,0.456-1.169v-0.828c0-1.205-0.349-1.553-1.224-1.553h-0.103
		c-0.881,0-1.223,0.348-1.223,1.565v1.133c0,1.211,0.342,1.559,1.223,1.559h1.397V260.905z M474.748,260.911h-1.181v-1.091h1.181
		v-0.677h-1.181v-1.085h1.181v-0.672h-1.948v4.198h1.948V260.911z M470.644,261.643c0.768,0,1.163-0.282,1.163-1.241v-0.084
		c0-0.798-0.24-1.074-0.899-1.158l-0.3-0.036c-0.342-0.042-0.42-0.174-0.42-0.54V258.5c0-0.414,0.108-0.534,0.396-0.534
		c0.282,0,0.402,0.096,0.426,0.594h0.78c-0.024-0.936-0.408-1.235-1.164-1.235h-0.071c-0.792,0-1.14,0.3-1.14,1.235v0.066
		c0,0.798,0.246,1.074,0.905,1.158l0.3,0.036c0.342,0.048,0.42,0.168,0.42,0.546v0.102c0,0.426-0.12,0.54-0.426,0.54
		c-0.258,0-0.414-0.09-0.438-0.563h-0.786c0.019,0.45,0.126,0.768,0.324,0.941s0.491,0.258,0.869,0.258H470.644z M467.098,260.905
		h-1.031v-3.52h-0.768v4.198h1.799V260.905z M462.922,258.188l0.336,1.829h-0.702l0.336-1.829H462.922z M463.486,257.385h-1.133
		l-0.894,4.198h0.797l0.168-0.899h0.966l0.174,0.899h0.815L463.486,257.385z M460.33,258.068h0.779v-0.684h-2.314v0.684h0.762v3.514
		h0.773V258.068z M457.901,257.385h-0.768v4.198h0.768V257.385z M454.846,261.643c0.882,0,1.235-0.348,1.235-1.559v-0.924h-1.312
		v0.672h0.545v0.39c0,0.618-0.107,0.768-0.468,0.768h-0.054c-0.197,0-0.323-0.06-0.39-0.18c-0.06-0.126-0.09-0.348-0.09-0.666
		v-1.307c0-0.324,0.03-0.545,0.09-0.666c0.066-0.126,0.192-0.186,0.39-0.186h0.042c0.294,0,0.42,0.132,0.45,0.612h0.785
		c-0.048-0.965-0.438-1.271-1.224-1.271h-0.065c-0.882,0-1.241,0.348-1.241,1.565v1.193c0,1.211,0.359,1.559,1.241,1.559H454.846z
		 M452.489,257.385h-0.768v4.198h0.768V257.385z M449.392,258.033c0.384,0,0.492,0.216,0.492,0.863v1.181
		c0,0.642-0.114,0.858-0.492,0.858h-0.443v-2.902H449.392z M450.658,258.95c0-1.206-0.372-1.565-1.254-1.565h-1.223v4.198h1.223
		c0.882,0,1.254-0.36,1.254-1.559V258.95z"/>
	<path class="st3" d="M400.505,254.321l-6.214-0.496c-0.115-0.009-0.216,0.074-0.229,0.189l-0.252,2.174l1.058,0.32l-1.834,2.955
		l-1.834-2.955l1.058-0.32l-0.254-2.176c-0.013-0.115-0.115-0.198-0.229-0.189l-6.23,0.497c-0.196,0.016-0.364,0.148-0.424,0.336
		l-1.043,3.223c-0.053,0.163-0.017,0.342,0.095,0.471l5.492,6.364c0.092,0.107,0.227,0.169,0.368,0.169h5.986
		c0.141,0,0.276-0.062,0.368-0.169l5.494-6.364c0.112-0.13,0.148-0.308,0.095-0.471l-1.046-3.222
		C400.869,254.469,400.702,254.337,400.505,254.321z M395.049,262.929h-4.045c-0.151,0-0.293-0.07-0.385-0.189l-3.828-4.953
		c-0.083-0.107-0.118-0.245-0.096-0.379l0.158-0.97c0.023-0.141,0.16-0.232,0.298-0.198l0.953,0.234
		c0.131,0.032,0.243,0.118,0.309,0.236l2.789,5.011l0.213,0.125h3.237l0.213-0.126l2.772-5.009c0.066-0.119,0.179-0.205,0.311-0.238
		l0.952-0.232c0.138-0.034,0.275,0.057,0.298,0.198l0.159,0.967c0.022,0.134-0.013,0.272-0.096,0.379l-3.829,4.953
		C395.341,262.859,395.199,262.929,395.049,262.929z"/>
	<path class="st3" d="M30.354,288.912c-2.793-2.793-4.188-6.45-4.188-10.111c0-3.66,1.395-7.318,4.188-10.111
		c0.117-0.117,0.117-0.307,0-0.424c-0.117-0.117-0.307-0.117-0.424,0c-2.909,2.908-4.364,6.723-4.364,10.535
		c0,3.812,1.455,7.626,4.364,10.535c0.117,0.117,0.307,0.117,0.424,0C30.472,289.219,30.472,289.029,30.354,288.912L30.354,288.912z
		"/>
	<path class="st3" d="M50.575,268.691c2.793,2.793,4.188,6.45,4.188,10.11c0,3.66-1.395,7.318-4.188,10.111
		c-0.117,0.117-0.117,0.307,0,0.424c0.117,0.117,0.307,0.117,0.424,0c2.909-2.908,4.364-6.723,4.364-10.535
		c0-3.812-1.455-7.626-4.364-10.535c-0.117-0.117-0.307-0.117-0.424,0C50.458,268.384,50.458,268.574,50.575,268.691L50.575,268.691
		z"/>
	<path class="st3" d="M30.354,345.998c-2.793-2.793-4.188-6.45-4.188-10.111c0-3.66,1.395-7.318,4.188-10.111
		c0.117-0.117,0.117-0.307,0-0.424c-0.117-0.117-0.307-0.117-0.424,0c-2.909,2.908-4.364,6.723-4.364,10.535
		c0,3.812,1.455,7.626,4.364,10.535c0.117,0.117,0.307,0.117,0.424,0C30.472,346.305,30.472,346.115,30.354,345.998L30.354,345.998z
		"/>
	<path class="st3" d="M50.575,325.777c2.793,2.793,4.188,6.45,4.188,10.11c0,3.66-1.395,7.318-4.188,10.111
		c-0.117,0.117-0.117,0.307,0,0.424c0.117,0.117,0.307,0.117,0.424,0c2.909-2.908,4.364-6.723,4.364-10.535
		c0-3.812-1.455-7.626-4.364-10.535c-0.117-0.117-0.307-0.117-0.424,0C50.458,325.47,50.458,325.66,50.575,325.777L50.575,325.777z"
		/>
	<path class="st3" d="M48.861,256.07c0.588,0,0.771,0.196,0.771,0.75v0.07c0,0.54-0.168,0.75-0.764,0.75h-1.261v-1.569H48.861z
		 M47.607,258.528h1.429c1.198,0,1.681-0.498,1.681-1.562v-0.21c0-1.156-0.483-1.576-1.681-1.576h-2.514v4.903h1.085V258.528z
		 M45.004,259.172h-2.563v-1.092h2.563v-0.904h-2.563v-1.085h2.563v-0.911h-3.649v4.903h3.649V259.172z M38.515,256.119h1.513
		v-0.938H35.93v0.938h1.492v3.964h1.093V256.119z M32.768,260.153c1.239,0,2.045-0.427,2.045-1.583v-0.063
		c0-0.89-0.518-1.296-1.604-1.345l-0.665-0.021c-0.638-0.028-0.799-0.182-0.799-0.54v-0.035c0-0.413,0.267-0.574,0.875-0.574
		c0.533,0,0.89,0.119,0.995,0.588h1.142c-0.084-0.987-0.91-1.471-2.073-1.471h-0.084c-1.31,0-1.961,0.518-1.961,1.548v0.049
		c0,0.875,0.532,1.289,1.604,1.338l0.672,0.028c0.623,0.028,0.798,0.182,0.798,0.54v0.063c0,0.441-0.329,0.595-0.98,0.595
		c-0.462,0-0.938-0.063-1.037-0.539h-1.142c0.112,1.037,0.945,1.421,2.15,1.421H32.768z"/>
	<path class="st3" d="M49.622,310.303H31.831c-2.372,0-4.295,1.923-4.295,4.295v0c0,2.372,1.923,4.295,4.295,4.295h17.791
		c2.372,0,4.295-1.923,4.295-4.295v0C53.917,312.226,51.994,310.303,49.622,310.303z M34.989,313.564c0,0.792-0.19,1.009-0.57,1.106
		v0.035c0.38,0.084,0.57,0.238,0.57,1.121v1.246h-0.9v-1.303c0-0.603-0.134-0.672-0.514-0.672h-0.527v1.975h-0.9v-4.902h1.512
		c0.936,0,1.33,0.21,1.33,1.303V313.564z M38.52,312.955h-1.386v1.268h1.386v0.792h-1.386v1.274h1.386v0.784h-2.286v-4.902h2.286
		V312.955z M42.444,315.693c0,1.121-0.464,1.45-1.364,1.45h-0.07c-0.443,0-0.788-0.098-1.02-0.301
		c-0.232-0.203-0.359-0.575-0.38-1.1h0.921c0.028,0.553,0.211,0.658,0.514,0.658c0.358,0,0.499-0.134,0.499-0.631v-0.119
		c0-0.44-0.091-0.581-0.492-0.637l-0.352-0.042c-0.774-0.099-1.062-0.421-1.062-1.352v-0.077c0-1.093,0.408-1.443,1.337-1.443h0.084
		c0.887,0,1.337,0.351,1.365,1.443h-0.915c-0.028-0.582-0.168-0.693-0.499-0.693c-0.338,0-0.464,0.14-0.464,0.623v0.098
		c0,0.428,0.091,0.582,0.492,0.631l0.352,0.042c0.773,0.098,1.055,0.42,1.055,1.352V315.693z M45.889,312.955h-1.386v1.268h1.386
		v0.792h-1.386v1.274h1.386v0.784h-2.286v-4.902h2.286V312.955z M49.583,312.97h-0.914v4.104H47.76v-4.104h-0.893v-0.799h2.715
		V312.97z M33.568,312.927h-0.521v1.45h0.556c0.345,0,0.485-0.07,0.485-0.651v-0.14C34.089,312.997,33.941,312.927,33.568,312.927z"
		/>
	<path class="st3" d="M78.256,265.816c0,0.232-0.069,0.38-0.217,0.458c-0.147,0.07-0.406,0.105-0.777,0.105h-1.45
		c-0.378,0-0.637-0.035-0.777-0.105c-0.146-0.078-0.217-0.225-0.217-0.458v-0.049c0-0.232,0.07-0.379,0.217-0.45
		c0.141-0.077,0.399-0.112,0.777-0.112h1.45c0.371,0,0.63,0.035,0.777,0.105s0.217,0.218,0.217,0.45V265.816z M78.229,264.213v0.619
		h-0.035c-0.141-0.352-0.379-0.534-1.366-0.534H75.86c-1.407,0-1.813,0.408-1.813,1.435v0.12c0,1.034,0.406,1.435,1.828,1.435h1.323
		c1.415,0,1.821-0.401,1.821-1.435v-1.639H78.229z M78.235,268.447v1.386H76.96v-1.386h-0.791v1.386h-1.268v-1.386h-0.784v2.286
		h4.902v-2.286H78.235z M79.09,273.257c0-0.9-0.329-1.364-1.45-1.364h-0.098c-0.932,0-1.254,0.281-1.352,1.055l-0.042,0.352
		c-0.05,0.401-0.203,0.492-0.631,0.492H75.42c-0.483,0-0.624-0.126-0.624-0.464c0-0.331,0.112-0.471,0.693-0.499v-0.915
		c-1.092,0.028-1.442,0.478-1.442,1.365v0.084c0,0.929,0.351,1.337,1.442,1.337h0.077c0.932,0,1.254-0.289,1.352-1.062l0.042-0.352
		c0.057-0.401,0.196-0.492,0.638-0.492h0.119c0.497,0,0.631,0.141,0.631,0.499c0,0.303-0.105,0.485-0.659,0.514v0.921
		c0.525-0.021,0.896-0.147,1.1-0.38c0.203-0.232,0.302-0.577,0.302-1.02V273.257z"/>
	<path class="st3" d="M74.117,294.278v0.83h3.312v0.035l-3.312,1.083v1.188h4.902v-0.83h-3.312v-0.035l3.312-1.083v-1.189H74.117z
		 M78.235,298.624v1.386H76.96v-1.386h-0.791v1.386h-1.268v-1.386h-0.784v2.286h4.902v-2.286H78.235z M78.229,301.986v1.21h-4.111
		v0.9h4.902v-2.11H78.229z"/>
	<path class="st3" d="M320.396,296.275v0.936l3.88,0.717v0.035l-3.88,0.717v0.964l4.902-1.048v-1.273L320.396,296.275z
		 M325.369,301.958c0-0.957-0.371-1.344-1.646-1.414v0.907c0.729,0.042,0.883,0.19,0.883,0.535v0.042c0,0.232-0.07,0.38-0.217,0.45
		c-0.147,0.07-0.406,0.105-0.777,0.105h-1.521c-0.756,0-0.994-0.099-0.994-0.556v-0.042c0-0.345,0.146-0.492,0.875-0.535v-0.907
		c-1.274,0.07-1.646,0.457-1.646,1.414v0.105c0,1.034,0.42,1.428,1.821,1.428h1.4c1.4,0,1.821-0.394,1.821-1.428V301.958z"/>
	<path class="st3" d="M324.514,329.728v1.386h-1.275v-1.386h-0.791v1.386h-1.268v-1.386h-0.784v2.286h4.902v-2.286H324.514z
		 M321.194,333.983v-0.915h-0.798v2.715h0.798v-0.894h4.104v-0.907H321.194z M321.334,337.894l2.136-0.394v0.823l-2.136-0.394
		V337.894z M320.396,337.232v1.33l4.902,1.048v-0.936l-1.051-0.197v-1.133l1.051-0.204v-0.957L320.396,337.232z M325.369,341.966
		c0-1.034-0.406-1.449-1.821-1.449h-1.078v1.541h0.784v-0.64h0.455c0.722,0,0.896,0.126,0.896,0.549v0.063
		c0,0.232-0.07,0.38-0.21,0.458c-0.147,0.07-0.406,0.105-0.777,0.105h-1.527c-0.378,0-0.637-0.035-0.777-0.105
		c-0.146-0.078-0.217-0.225-0.217-0.458v-0.049c0-0.344,0.154-0.492,0.714-0.527v-0.921c-1.127,0.056-1.484,0.513-1.484,1.435v0.077
		c0,1.034,0.406,1.456,1.828,1.456h1.394c1.415,0,1.821-0.422,1.821-1.456V341.966z"/>
	<path class="st3" d="M74.866,330.341c0-0.366,0.091-0.506,0.729-0.506h0.336c0.631,0,0.729,0.134,0.729,0.506v0.535h-1.793V330.341
		z M77.395,330.876v-0.612c0-0.921-0.238-1.33-1.499-1.33h-0.28c-1.288,0-1.498,0.394-1.498,1.33v1.512h4.902v-0.9H77.395z
		 M78.235,332.986v1.386H76.96v-1.386h-0.791v1.386h-1.268v-1.386h-0.784v2.286h4.902v-2.286H78.235z M74.915,337.241v-0.915h-0.798
		v2.715h0.798v-0.894h4.104v-0.907H74.915z M79.09,341.32c0-0.9-0.329-1.364-1.45-1.364h-0.098c-0.932,0-1.254,0.281-1.352,1.055
		l-0.042,0.352c-0.05,0.401-0.203,0.492-0.631,0.492H75.42c-0.483,0-0.624-0.126-0.624-0.464c0-0.331,0.112-0.471,0.693-0.499
		v-0.915c-1.092,0.028-1.442,0.478-1.442,1.365v0.084c0,0.929,0.351,1.337,1.442,1.337h0.077c0.932,0,1.254-0.289,1.352-1.062
		l0.042-0.352c0.057-0.401,0.196-0.492,0.638-0.492h0.119c0.497,0,0.631,0.141,0.631,0.499c0,0.303-0.105,0.485-0.659,0.514v0.921
		c0.525-0.021,0.896-0.147,1.1-0.38c0.203-0.232,0.302-0.577,0.302-1.02V341.32z"/>
</g>
<path class="st4" d="M344.658,313.315c-2.343,0-4.242,1.899-4.242,4.242c0,2.343,1.899,4.242,4.242,4.242
	c2.343,0,4.242-1.899,4.242-4.242C348.9,315.214,347.001,313.315,344.658,313.315z M346.091,320.016h-2.68v-0.749h0.956v-3.369
	h-0.035l-0.886,0.497v-0.903l0.767-0.378h1.02v4.153h0.858V320.016z"/>
<path class="st4" d="M373.722,313.315c-2.343,0-4.242,1.899-4.242,4.242c0,2.343,1.899,4.242,4.242,4.242
	c2.343,0,4.242-1.899,4.242-4.242C377.964,315.214,376.065,313.315,373.722,313.315z M375.173,316.311c0,0.68-0.155,0.994-0.704,1.4
	l-0.76,0.589c-0.281,0.21-0.372,0.371-0.372,0.868v0.099h1.836v0.749h-2.694v-0.799c0-0.791,0.141-1.071,0.689-1.478l0.738-0.567
	c0.338-0.252,0.408-0.392,0.408-0.798v-0.05c0-0.413-0.134-0.553-0.472-0.553c-0.323,0-0.457,0.112-0.485,0.714h-0.865
	c0.042-1.148,0.479-1.442,1.309-1.442h0.07c0.922,0,1.302,0.385,1.302,1.205V316.311z"/>
<path class="st4" d="M402.786,313.315c-2.343,0-4.242,1.899-4.242,4.242c0,2.343,1.899,4.242,4.242,4.242
	c2.343,0,4.242-1.899,4.242-4.242C407.028,315.214,405.129,313.315,402.786,313.315z M404.229,318.601
	c0,1.128-0.401,1.485-1.302,1.485h-0.07c-0.822,0-1.308-0.329-1.336-1.485h0.865c0.028,0.658,0.211,0.757,0.506,0.757
	c0.346,0,0.479-0.147,0.479-0.658v-0.189c0-0.512-0.091-0.63-0.457-0.63h-0.45v-0.778h0.437c0.358,0,0.443-0.111,0.443-0.608v-0.134
	c0-0.455-0.141-0.588-0.457-0.588c-0.289,0-0.443,0.098-0.472,0.687h-0.858c0.042-1.072,0.471-1.415,1.301-1.415h0.064
	c0.879,0,1.279,0.351,1.279,1.197v0.07c0,0.651-0.183,0.945-0.541,1.051v0.035c0.373,0.084,0.569,0.371,0.569,1.064V318.601z"/>
<path class="st4" d="M430.769,318.033v0.042h1.048v-1.954h-0.028L430.769,318.033z M431.85,313.315
	c-2.343,0-4.242,1.899-4.242,4.242c0,2.343,1.899,4.242,4.242,4.242c2.343,0,4.242-1.899,4.242-4.242
	C436.092,315.214,434.193,313.315,431.85,313.315z M433.097,318.811h-0.422v1.205h-0.858v-1.205h-1.688v-1.029l1.365-2.668h1.182
	v2.962h0.422V318.811z"/>
<path class="st4" d="M460.914,313.315c-2.343,0-4.242,1.899-4.242,4.242c0,2.343,1.899,4.242,4.242,4.242
	c2.343,0,4.242-1.899,4.242-4.242C465.157,315.214,463.257,313.315,460.914,313.315z M462.15,318.481c0,1.219-0.4,1.604-1.294,1.604
	h-0.077c-0.852,0-1.295-0.357-1.33-1.415h0.865c0.028,0.581,0.19,0.687,0.493,0.687c0.358,0,0.485-0.161,0.485-0.777v-0.406
	c0-0.616-0.141-0.771-0.5-0.771c-0.246,0-0.429,0.077-0.521,0.519h-0.78l0.161-2.809h2.42v0.749h-1.639l-0.077,1.212h0.027
	c0.134-0.245,0.31-0.386,0.739-0.386c0.668,0,1.026,0.344,1.026,1.359V318.481z"/>
<path class="st4" d="M489.982,317.516c-0.366,0-0.479,0.161-0.479,0.771v0.314c0,0.596,0.112,0.764,0.479,0.764
	c0.373,0,0.485-0.168,0.485-0.764v-0.314C490.468,317.677,490.355,317.516,489.982,317.516z M489.979,313.315
	c-2.343,0-4.242,1.899-4.242,4.242c0,2.343,1.899,4.242,4.242,4.242c2.343,0,4.242-1.899,4.242-4.242
	C494.221,315.214,492.321,313.315,489.979,313.315z M491.333,318.503c0,1.197-0.415,1.583-1.295,1.583h-0.062
	c-0.894,0-1.337-0.315-1.337-1.793v-1.45c0-1.471,0.429-1.8,1.322-1.8h0.063c0.837,0,1.245,0.364,1.302,1.323h-0.865
	c-0.035-0.476-0.162-0.595-0.465-0.595c-0.365,0-0.499,0.154-0.499,0.91v0.589h0.035c0.105-0.225,0.316-0.399,0.745-0.399
	c0.767,0,1.056,0.378,1.056,1.415V318.503z"/>
</svg>
