<?xml version="1.0" encoding="UTF-8" standalone="no"?>
<!-- Generator: Adobe Illustrator 26.1.0, SVG Export Plug-In . SVG Version: 6.00 Build 0)  -->

<svg
   version="1.1"
   id="Ebene_1"
   x="0px"
   y="0px"
   width="182.88mm"
   height="128.5mm"
   viewBox="0 0 518.4 364.252"
   style="enable-background:new 0 0 518.4 364.252;"
   xml:space="preserve"
   sodipodi:docname="digital_sequencer_panel.svg"
   inkscape:version="1.3.2 (091e20e, 2023-11-25, custom)"
   xmlns:inkscape="http://www.inkscape.org/namespaces/inkscape"
   xmlns:sodipodi="http://sodipodi.sourceforge.net/DTD/sodipodi-0.dtd"
   xmlns:xlink="http://www.w3.org/1999/xlink"
   xmlns="http://www.w3.org/2000/svg"
   xmlns:svg="http://www.w3.org/2000/svg"><sodipodi:namedview
   id="namedview91"
   pagecolor="#ffffff"
   bordercolor="#666666"
   borderopacity="1.0"
   inkscape:pageshadow="2"
   inkscape:pageopacity="0.0"
   inkscape:pagecheckerboard="0"
   showgrid="false"
   inkscape:zoom="4"
   inkscape:cx="212.625"
   inkscape:cy="331.625"
   inkscape:window-width="3840"
   inkscape:window-height="2054"
   inkscape:window-x="2869"
   inkscape:window-y="-11"
   inkscape:window-maximized="1"
   inkscape:current-layer="Ebene_1"
   inkscape:document-units="mm"
   inkscape:showpageshadow="2"
   inkscape:deskcolor="#d1d1d1"
   showguides="true"><sodipodi:guide
     position="331.58183,11.427658"
     orientation="0,-1"
     id="guide1"
     inkscape:locked="false" /><sodipodi:guide
     position="206.84757,84.491413"
     orientation="1,0"
     id="guide2"
     inkscape:locked="false" /><sodipodi:guide
     position="501.4724,65.402598"
     orientation="1,0"
     id="guide3"
     inkscape:locked="false" /><sodipodi:guide
     position="336.14689,52.445286"
     orientation="1,0"
     id="guide4"
     inkscape:locked="false" /><sodipodi:guide
     position="365.22016,56.053775"
     orientation="-1,0"
     id="guide5"
     inkscape:locked="false"
     inkscape:label=""
     inkscape:color="rgb(0,134,229)" /><sodipodi:guide
     position="452.40086,56.581847"
     orientation="1,0"
     id="guide6"
     inkscape:locked="false" /><sodipodi:guide
     position="481.47414,52.474624"
     orientation="1,0"
     id="guide7"
     inkscape:locked="false" /><sodipodi:guide
     position="394.28029,51.32619"
     orientation="1,0"
     id="guide8"
     inkscape:locked="false" /></sodipodi:namedview><rect
   x="0"
   y="0"
   width="518.4"
   height="364.25196850393706"
   style="fill:#e7e7e7;fill-opacity:1;opacity:1;stroke:none"
   inkscape:groupmode="layer"
   id="rect1" /><rect
   style="fill:#d2d2d3;fill-opacity:1;stroke:none;stroke-width:0.283465"
   id="rect2"
   width="194.44896"
   height="71.755676"
   x="307.30081"
   y="-352.67361"
   rx="4.5"
   ry="4.4999995"
   transform="scale(1,-1)" /><defs
   id="defs93"><linearGradient
     inkscape:collect="always"
     id="linearGradient959"><stop
       style="stop-color:#f3ede7;stop-opacity:1;"
       offset="0"
       id="stop955" /><stop
       style="stop-color:#f3ede7;stop-opacity:0;"
       offset="1"
       id="stop957" /></linearGradient><linearGradient
     inkscape:collect="always"
     xlink:href="#linearGradient959"
     id="linearGradient961"
     x1="82.681"
     y1="303.8845"
     x2="114.932"
     y2="303.8845"
     gradientUnits="userSpaceOnUse" /><linearGradient
     inkscape:collect="always"
     xlink:href="#linearGradient959"
     id="linearGradient963"
     x1="118.554"
     y1="303.8845"
     x2="150.804"
     y2="303.8845"
     gradientUnits="userSpaceOnUse" /><linearGradient
     inkscape:collect="always"
     xlink:href="#linearGradient959"
     id="linearGradient965"
     x1="154.426"
     y1="303.8845"
     x2="186.676"
     y2="303.8845"
     gradientUnits="userSpaceOnUse" /><linearGradient
     inkscape:collect="always"
     xlink:href="#linearGradient959"
     id="linearGradient967"
     x1="190.298"
     y1="303.8845"
     x2="222.548"
     y2="303.8845"
     gradientUnits="userSpaceOnUse" /><linearGradient
     inkscape:collect="always"
     xlink:href="#linearGradient959"
     id="linearGradient969"
     x1="226.17"
     y1="303.8845"
     x2="258.42"
     y2="303.8845"
     gradientUnits="userSpaceOnUse" /><linearGradient
     inkscape:collect="always"
     xlink:href="#linearGradient959"
     id="linearGradient971"
     x1="262.042"
     y1="303.8845"
     x2="294.293"
     y2="303.8845"
     gradientUnits="userSpaceOnUse" /></defs>
<style
   type="text/css"
   id="style2"><![CDATA[
.st0 {
  opacity:0.15;
  fill:#FFFFFF;
}
.st1 {
  fill:#1C2729;
}
.st2 {
  opacity:0.3;
}
.st3 {
  fill:#F3EDE7;
}
.st4 {
  opacity:0.5;
  fill:#F3EDE7;
}
]]></style>
<path
   d="M498.995,243.705H19.405c-1.331,0-2.41-1.079-2.41-2.41V19.412c0-1.331,1.079-2.41,2.41-2.41h479.59  c1.331,0,2.41,1.079,2.41,2.41v221.883C501.405,242.626,500.326,243.705,498.995,243.705z"
   id="path4"
   style="stroke:none;stroke-opacity:1" />
<path
   class="st0"
   d="M498.995,243.723H19.405c-1.331,0-2.41-1.079-2.41-2.41v0.583c0,1.331,1.079,2.41,2.41,2.41h479.59  c1.331,0,2.41-1.079,2.41-2.41v-0.583C501.405,242.644,500.326,243.723,498.995,243.723z"
   id="path6" />
<path
   class="st1"
   d="M498.712,242.008H19.688c-0.504,0-0.912-0.409-0.912-0.912V19.744c0-0.504,0.409-0.912,0.912-0.912h479.023  c0.504,0,0.913,0.409,0.913,0.912v221.352C499.624,241.6,499.216,242.008,498.712,242.008z"
   id="path8"
   style="stroke:none;stroke-opacity:1;fill-opacity:1;fill:#1c2729" />
<g
   id="g12"
   style="opacity:0.3;fill:#0c1218;fill-opacity:1;stroke:none">
		<path
   class="st3"
   d="m 82.681,267.127 v 73.515 c 0,3.336 1.294,6.36 3.388,8.55 2.094,2.19 4.994,3.548 8.195,3.548 v -0.6 c -3.031,0 -5.773,-1.283 -7.763,-3.363 -1.99,-2.08 -3.222,-4.955 -3.222,-8.135 v -73.515 c 0,-3.18 1.232,-6.054 3.222,-8.135 1.99,-2.08 4.733,-3.363 7.763,-3.363 v -0.6 c -3.202,0 -6.102,1.358 -8.195,3.548 -2.094,2.19 -3.388,5.214 -3.388,8.55 z m 28.863,-8.55 c -2.094,-2.19 -4.994,-3.548 -8.195,-3.548 v 0 0.6 0 c 3.031,0 5.773,1.283 7.763,3.363 1.99,2.08 3.222,4.955 3.222,8.135 v 73.515 c 0,3.18 -1.232,6.054 -3.222,8.135 -1.99,2.08 -4.733,3.363 -7.763,3.363 v 0 0.6 0 c 3.202,0 6.102,-1.358 8.195,-3.548 2.095,-2.19 3.388,-5.214 3.388,-8.55 v -73.515 c 0,-3.336 -1.294,-6.36 -3.388,-8.55 z"
   id="path10"
   style="fill:#0c1218;fill-opacity:1;stroke:none" />
	</g>
<g
   id="g18"
   style="opacity:0.3;fill:#0c1218;fill-opacity:1;stroke:none">
		<path
   class="st3"
   d="m 118.554,267.127 v 73.515 c 0,3.336 1.294,6.36 3.388,8.55 2.094,2.19 4.994,3.548 8.195,3.548 v -0.6 c -3.031,0 -5.773,-1.283 -7.763,-3.363 -1.99,-2.08 -3.222,-4.955 -3.222,-8.135 v -73.515 c 0,-3.18 1.232,-6.054 3.222,-8.135 1.99,-2.08 4.733,-3.363 7.763,-3.363 v -0.6 c -3.202,0 -6.102,1.358 -8.195,3.548 -2.095,2.19 -3.388,5.214 -3.388,8.55 z m 28.862,-8.55 c -2.094,-2.19 -4.994,-3.548 -8.195,-3.548 v 0 0.6 0 c 3.031,0 5.773,1.283 7.763,3.363 1.99,2.08 3.222,4.955 3.222,8.135 v 73.515 c 0,3.18 -1.232,6.054 -3.222,8.135 -1.99,2.08 -4.733,3.363 -7.763,3.363 v 0 0.6 0 c 3.202,0 6.102,-1.358 8.195,-3.548 2.095,-2.19 3.388,-5.214 3.388,-8.55 v -73.515 c 0,-3.336 -1.294,-6.36 -3.388,-8.55 z"
   id="path16"
   style="fill:#0c1218;fill-opacity:1;stroke:none" />
	</g>
<g
   id="g24"
   style="opacity:0.3;fill:#0c1218;fill-opacity:1;stroke:none">
		<path
   class="st3"
   d="m 154.426,267.127 v 73.515 c 0,3.336 1.294,6.36 3.388,8.55 2.094,2.19 4.994,3.548 8.195,3.548 v -0.6 c -3.031,0 -5.773,-1.283 -7.763,-3.363 -1.99,-2.08 -3.222,-4.955 -3.222,-8.135 v -73.515 c 0,-3.18 1.232,-6.054 3.222,-8.135 1.99,-2.08 4.733,-3.363 7.763,-3.363 v -0.6 c -3.202,0 -6.102,1.358 -8.195,3.548 -2.094,2.19 -3.388,5.214 -3.388,8.55 z m 28.862,-8.55 c -2.094,-2.19 -4.994,-3.548 -8.195,-3.548 v 0.6 c 3.031,0 5.773,1.283 7.763,3.363 1.99,2.08 3.222,4.955 3.222,8.135 v 73.515 c 0,3.18 -1.232,6.054 -3.222,8.135 -1.99,2.08 -4.733,3.363 -7.763,3.363 v 0.6 c 3.202,0 6.102,-1.358 8.195,-3.548 2.095,-2.19 3.388,-5.214 3.388,-8.55 v -73.515 c 0.001,-3.336 -1.293,-6.36 -3.388,-8.55 z"
   id="path22"
   style="fill:#0c1218;fill-opacity:1;stroke:none" />
	</g>
<g
   id="g30"
   style="opacity:0.3;fill:#0c1218;fill-opacity:1;stroke:none">
		<path
   class="st3"
   d="m 190.298,267.127 v 73.515 c 0,3.336 1.294,6.36 3.388,8.55 2.094,2.19 4.994,3.548 8.195,3.548 v -0.6 c -3.031,0 -5.773,-1.283 -7.763,-3.363 -1.99,-2.08 -3.222,-4.955 -3.222,-8.135 v -73.515 c 0,-3.18 1.232,-6.054 3.222,-8.135 1.99,-2.08 4.733,-3.363 7.763,-3.363 v -0.6 c -3.202,0 -6.102,1.358 -8.195,3.548 -2.094,2.19 -3.388,5.214 -3.388,8.55 z m 28.862,-8.55 c -2.094,-2.19 -4.994,-3.548 -8.195,-3.548 v 0.6 c 3.031,0 5.773,1.283 7.763,3.363 1.99,2.08 3.222,4.955 3.222,8.135 v 73.515 c 0,3.18 -1.232,6.054 -3.222,8.135 -1.99,2.08 -4.733,3.363 -7.763,3.363 v 0.6 c 3.202,0 6.102,-1.358 8.195,-3.548 2.095,-2.19 3.388,-5.214 3.388,-8.55 v -73.515 c 0.001,-3.336 -1.293,-6.36 -3.388,-8.55 z"
   id="path28"
   style="fill:#0c1218;fill-opacity:1;stroke:none" />
	</g>
<g
   id="g36"
   style="opacity:0.3;fill:#0c1218;fill-opacity:1;stroke:none">
		<path
   class="st3"
   d="m 226.17,267.127 v 73.515 c 0,3.336 1.294,6.36 3.388,8.55 2.094,2.19 4.994,3.548 8.195,3.548 v -0.6 c -3.031,0 -5.773,-1.283 -7.763,-3.363 -1.99,-2.08 -3.222,-4.955 -3.222,-8.135 v -73.515 c 0,-3.18 1.232,-6.054 3.222,-8.135 1.99,-2.08 4.733,-3.363 7.763,-3.363 v -0.6 c -3.202,0 -6.102,1.358 -8.195,3.548 -2.094,2.19 -3.388,5.214 -3.388,8.55 z m 28.862,-8.55 c -2.094,-2.19 -4.994,-3.548 -8.195,-3.548 v 0 0.6 0 c 3.031,0 5.773,1.283 7.763,3.363 1.99,2.08 3.222,4.955 3.222,8.135 v 73.515 c 0,3.18 -1.232,6.054 -3.222,8.135 -1.99,2.08 -4.733,3.363 -7.763,3.363 v 0 0.6 0 c 3.202,0 6.102,-1.358 8.195,-3.548 2.095,-2.19 3.388,-5.214 3.388,-8.55 v -73.515 c 10e-4,-3.336 -1.293,-6.36 -3.388,-8.55 z"
   id="path34"
   style="fill:#0c1218;fill-opacity:1;stroke:none" />
	</g>
<g
   id="g42"
   style="opacity:0.3;fill:#0c1218;fill-opacity:1;stroke:none">
		<path
   class="st3"
   d="m 262.042,267.127 v 73.515 c 0,3.336 1.294,6.36 3.388,8.55 2.094,2.19 4.994,3.548 8.195,3.548 v -0.6 c -3.031,0 -5.773,-1.283 -7.763,-3.363 -1.99,-2.08 -3.222,-4.955 -3.222,-8.135 v -73.515 c 0,-3.18 1.232,-6.054 3.222,-8.135 1.99,-2.08 4.733,-3.363 7.763,-3.363 v -0.6 c -3.202,0 -6.102,1.358 -8.195,3.548 -2.094,2.19 -3.388,5.214 -3.388,8.55 z m 28.863,-8.55 c -2.094,-2.19 -4.994,-3.548 -8.195,-3.548 v 0 0.6 0 c 3.031,0 5.773,1.283 7.763,3.363 1.99,2.08 3.222,4.955 3.222,8.135 v 73.515 c 0,3.18 -1.232,6.054 -3.222,8.135 -1.99,2.08 -4.733,3.363 -7.763,3.363 v 0 0.6 0 c 3.202,0 6.102,-1.358 8.195,-3.548 2.095,-2.19 3.388,-5.214 3.388,-8.55 v -73.515 c 0,-3.336 -1.294,-6.36 -3.388,-8.55 z"
   id="path40"
   style="fill:#0c1218;fill-opacity:1;stroke:none" />
	</g>
<path
   class="st3"
   d="m 439.047,263.483 h 0.384 c 0.112,0 0.169,-0.067 0.169,-0.168 v -3.583 c 0,-0.101 0.067,-0.168 0.169,-0.168 h 1.015 c 0.102,0 0.181,0.067 0.181,0.168 v 3.583 c 0,0.101 0.068,0.168 0.169,0.168 h 0.373 c 0.112,0 0.169,-0.067 0.169,-0.168 v -8.086 c 0,-0.101 -0.068,-0.168 -0.169,-0.168 h -0.373 c -0.112,0 -0.169,0.067 -0.169,0.168 v 3.481 c 0,0.101 -0.079,0.168 -0.181,0.168 h -1.015 c -0.102,0 -0.169,-0.067 -0.169,-0.168 v -3.481 c 0,-0.101 -0.067,-0.168 -0.169,-0.168 h -0.384 c -0.112,0 -0.169,0.067 -0.169,0.168 v 8.086 c 0,0.101 0.068,0.168 0.169,0.168 z m -5.019,-1.64 c 0,1.033 0.462,1.696 1.33,1.696 0.88,0 1.342,-0.674 1.342,-1.696 v -0.887 c 0,-0.101 -0.067,-0.168 -0.169,-0.168 h -0.384 c -0.102,0 -0.169,0.067 -0.169,0.168 v 0.674 c 0,0.831 -0.146,1.224 -0.62,1.224 -0.474,0 -0.608,-0.393 -0.608,-1.224 v -4.717 c 0,-0.831 0.135,-1.224 0.608,-1.224 0.473,0 0.62,0.393 0.62,1.224 v 0.674 c 0,0.101 0.067,0.168 0.169,0.168 h 0.384 c 0.102,0 0.169,-0.067 0.169,-0.168 V 256.7 c 0,-1.022 -0.462,-1.696 -1.342,-1.696 -0.868,0 -1.33,0.663 -1.33,1.696 z m -4.085,-6.266 c 0,0.112 0.067,0.168 0.169,0.168 h 0.439 c 0.102,0 0.169,0.067 0.169,0.168 v 7.401 c 0,0.101 0.068,0.168 0.17,0.168 h 0.372 c 0.112,0 0.169,-0.067 0.169,-0.168 v -7.401 c 0,-0.101 0.067,-0.168 0.169,-0.168 h 0.462 c 0.102,0 0.17,-0.067 0.17,-0.168 v -0.348 c 0,-0.112 -0.068,-0.168 -0.17,-0.168 h -1.95 c -0.102,0 -0.169,0.067 -0.169,0.168 z m -2.46,7.906 h 0.384 c 0.112,0 0.169,-0.067 0.169,-0.168 v -8.086 c 0,-0.101 -0.067,-0.168 -0.169,-0.168 h -0.384 c -0.112,0 -0.169,0.067 -0.169,0.168 v 8.086 c 0,0.101 0.067,0.168 0.169,0.168 z m -4.062,-0.169 c 0,0.101 0.067,0.168 0.169,0.168 h 1.646 c 0.102,0 0.169,-0.067 0.169,-0.168 V 263 c 0,-0.101 -0.067,-0.168 -0.169,-0.168 h -0.925 c -0.102,0 -0.169,-0.067 -0.169,-0.168 v -7.435 c 0,-0.101 -0.067,-0.168 -0.169,-0.168 h -0.384 c -0.112,0 -0.169,0.067 -0.169,0.168 v 8.085 z m -4.874,-1.471 c 0,1.033 0.462,1.696 1.33,1.696 0.88,0 1.319,-0.674 1.319,-1.696 v -2.403 c 0,-0.101 -0.067,-0.168 -0.169,-0.168 h -0.981 c -0.102,0 -0.169,0.067 -0.169,0.168 v 0.337 c 0,0.112 0.067,0.168 0.169,0.168 h 0.282 c 0.102,0 0.169,0.067 0.169,0.168 v 1.516 c 0,0.831 -0.146,1.224 -0.62,1.224 -0.474,0 -0.608,-0.393 -0.608,-1.224 v -4.717 c 0,-0.831 0.135,-1.224 0.608,-1.224 0.473,0 0.62,0.393 0.62,1.224 v 0.674 c 0,0.101 0.067,0.168 0.169,0.168 h 0.361 c 0.102,0 0.169,-0.067 0.169,-0.168 V 256.7 c 0,-1.022 -0.439,-1.696 -1.319,-1.696 -0.868,0 -1.33,0.663 -1.33,1.696 z m -4.333,1.64 h 0.451 c 0.079,0 0.146,-0.067 0.169,-0.168 l 0.598,-2.684 h 0.091 l 0.586,2.684 c 0.022,0.101 0.102,0.168 0.181,0.168 h 0.439 c 0.079,0 0.136,-0.067 0.113,-0.168 l -0.97,-3.976 0.011,-0.135 0.959,-3.976 c 0.022,-0.101 -0.034,-0.168 -0.113,-0.168 h -0.439 c -0.079,0 -0.146,0.067 -0.169,0.168 l -0.598,2.695 h -0.091 l -0.598,-2.695 c -0.022,-0.101 -0.09,-0.168 -0.169,-0.168 h -0.451 c -0.067,0 -0.135,0.067 -0.112,0.168 l 0.97,3.976 v 0.135 l -0.97,3.976 c -0.022,0.101 0.045,0.168 0.112,0.168 z m -3.881,-1.853 v -4.717 c 0,-0.831 0.135,-1.224 0.609,-1.224 0.485,0 0.62,0.393 0.62,1.224 v 4.717 c 0,0.831 -0.135,1.224 -0.62,1.224 -0.474,0 -0.609,-0.393 -0.609,-1.224 z m -0.722,0.213 c 0,1.033 0.462,1.696 1.331,1.696 0.88,0 1.342,-0.663 1.342,-1.696 V 256.7 c 0,-1.033 -0.462,-1.696 -1.342,-1.696 -0.868,0 -1.331,0.663 -1.331,1.696 z m -3.363,1.64 h 0.406 c 0.113,0 0.169,-0.056 0.191,-0.213 l 1.128,-8.007 c 0.022,-0.168 -0.068,-0.202 -0.169,-0.202 h -0.35 c -0.124,0 -0.191,0.034 -0.203,0.18 l -0.744,6.098 h -0.113 l -0.745,-6.098 c -0.011,-0.146 -0.079,-0.18 -0.203,-0.18 h -0.35 c -0.102,0 -0.192,0.034 -0.169,0.202 l 1.128,8.007 c 0.024,0.157 0.08,0.213 0.193,0.213 z"
   id="path46"
   style="fill:#0c1218;fill-opacity:1;stroke:none" /><path
   class="st3"
   d="m 500.718,255.264 v 8.018 h -55.054 v -8.018 h 55.054 m 0,-0.5 h -55.054 c -0.276,0 -0.5,0.224 -0.5,0.5 v 8.018 c 0,0.276 0.224,0.5 0.5,0.5 h 55.054 c 0.276,0 0.5,-0.224 0.5,-0.5 v -8.018 c 0,-0.276 -0.224,-0.5 -0.5,-0.5 z"
   id="path48"
   style="fill:#0c1218;fill-opacity:1;stroke:none" /><path
   class="st3"
   d="m 497.266,258.033 c 0.318,0 0.444,0.06 0.444,0.563 v 0.12 c 0,0.498 -0.12,0.558 -0.414,0.558 h -0.474 v -1.241 z m -0.443,1.859 h 0.449 c 0.324,0 0.438,0.06 0.438,0.576 v 1.115 h 0.768 v -1.067 c 0,-0.756 -0.162,-0.888 -0.486,-0.959 v -0.03 c 0.324,-0.084 0.486,-0.27 0.486,-0.948 V 258.5 c 0,-0.935 -0.336,-1.115 -1.134,-1.115 h -1.289 v 4.198 h 0.768 z m -1.802,1.019 h -1.181 v -1.091 h 1.181 v -0.677 h -1.181 v -1.085 h 1.181 v -0.672 h -1.948 v 4.198 h 1.948 z m -4.193,0.732 c 0.816,0 1.146,-0.318 1.206,-1.409 h -0.773 c -0.036,0.624 -0.162,0.755 -0.456,0.755 h -0.036 c -0.198,0 -0.324,-0.06 -0.384,-0.186 -0.06,-0.125 -0.09,-0.348 -0.09,-0.666 v -1.301 c 0,-0.647 0.084,-0.852 0.474,-0.852 h 0.036 c 0.294,0 0.42,0.126 0.456,0.75 h 0.773 c -0.061,-1.091 -0.39,-1.409 -1.206,-1.409 h -0.09 c -0.881,0 -1.217,0.36 -1.217,1.559 v 1.2 c 0,1.199 0.336,1.559 1.217,1.559 z m -2.359,-4.258 h -0.707 v 2.836 h -0.03 l -0.923,-2.836 h -1.014 v 4.198 h 0.707 v -2.836 h 0.03 l 0.924,2.836 h 1.013 z m -3.708,3.526 h -1.181 v -1.091 h 1.181 v -0.677 h -1.181 v -1.085 h 1.181 v -0.672 h -1.948 v 4.198 h 1.948 z m -4.192,0.732 c 0.863,0 1.187,-0.294 1.187,-1.487 v -2.771 h -0.773 v 2.776 c 0,0.63 -0.096,0.774 -0.426,0.774 h -0.048 c -0.33,0 -0.426,-0.144 -0.426,-0.774 v -2.776 h -0.773 v 2.771 c 0,1.193 0.324,1.487 1.188,1.487 z m -3.577,-0.714 c -0.197,0 -0.323,-0.06 -0.39,-0.186 -0.06,-0.126 -0.09,-0.348 -0.09,-0.666 v -1.241 c 0,-0.324 0.03,-0.545 0.09,-0.666 0.066,-0.126 0.192,-0.186 0.39,-0.186 h 0.042 c 0.198,0 0.324,0.06 0.384,0.186 0.066,0.12 0.096,0.342 0.096,0.666 v 1.241 c 0,0.318 -0.029,0.54 -0.09,0.666 -0.06,0.126 -0.186,0.186 -0.384,0.186 z m 1.367,-0.024 h -0.527 v -0.03 c 0.3,-0.12 0.456,-0.324 0.456,-1.169 v -0.828 c 0,-1.205 -0.349,-1.553 -1.224,-1.553 h -0.103 c -0.881,0 -1.223,0.348 -1.223,1.565 v 1.133 c 0,1.211 0.342,1.559 1.223,1.559 h 1.397 v -0.677 z m -3.611,0.006 h -1.181 v -1.091 h 1.181 v -0.677 h -1.181 v -1.085 h 1.181 v -0.672 H 472.8 v 4.198 h 1.948 z m -4.104,0.732 c 0.768,0 1.163,-0.282 1.163,-1.241 v -0.084 c 0,-0.798 -0.24,-1.074 -0.899,-1.158 l -0.3,-0.036 c -0.342,-0.042 -0.42,-0.174 -0.42,-0.54 V 258.5 c 0,-0.414 0.108,-0.534 0.396,-0.534 0.282,0 0.402,0.096 0.426,0.594 h 0.78 c -0.024,-0.936 -0.408,-1.235 -1.164,-1.235 h -0.071 c -0.792,0 -1.14,0.3 -1.14,1.235 v 0.066 c 0,0.798 0.246,1.074 0.905,1.158 l 0.3,0.036 c 0.342,0.048 0.42,0.168 0.42,0.546 v 0.102 c 0,0.426 -0.12,0.54 -0.426,0.54 -0.258,0 -0.414,-0.09 -0.438,-0.563 h -0.786 c 0.019,0.45 0.126,0.768 0.324,0.941 0.198,0.173 0.491,0.258 0.869,0.258 h 0.061 z m -3.546,-0.738 h -1.031 v -3.52 h -0.768 v 4.198 h 1.799 z m -4.176,-2.717 0.336,1.829 h -0.702 l 0.336,-1.829 z m 0.564,-0.803 h -1.133 l -0.894,4.198 h 0.797 l 0.168,-0.899 h 0.966 l 0.174,0.899 h 0.815 z m -3.156,0.683 h 0.779 v -0.684 h -2.314 v 0.684 h 0.762 v 3.514 h 0.773 z m -2.429,-0.683 h -0.768 v 4.198 h 0.768 z m -3.055,4.258 c 0.882,0 1.235,-0.348 1.235,-1.559 v -0.924 h -1.312 v 0.672 h 0.545 v 0.39 c 0,0.618 -0.107,0.768 -0.468,0.768 h -0.054 c -0.197,0 -0.323,-0.06 -0.39,-0.18 -0.06,-0.126 -0.09,-0.348 -0.09,-0.666 v -1.307 c 0,-0.324 0.03,-0.545 0.09,-0.666 0.066,-0.126 0.192,-0.186 0.39,-0.186 h 0.042 c 0.294,0 0.42,0.132 0.45,0.612 h 0.785 c -0.048,-0.965 -0.438,-1.271 -1.224,-1.271 h -0.065 c -0.882,0 -1.241,0.348 -1.241,1.565 v 1.193 c 0,1.211 0.359,1.559 1.241,1.559 z m -2.357,-4.258 h -0.768 v 4.198 h 0.768 z m -3.097,0.648 c 0.384,0 0.492,0.216 0.492,0.863 v 1.181 c 0,0.642 -0.114,0.858 -0.492,0.858 h -0.443 v -2.902 z m 1.266,0.917 c 0,-1.206 -0.372,-1.565 -1.254,-1.565 h -1.223 v 4.198 h 1.223 c 0.882,0 1.254,-0.36 1.254,-1.559 z"
   id="path50"
   style="fill:#0c1218;fill-opacity:1;stroke:none" /><g
   id="g1"><path
     class="st3"
     d="m 30.354,288.912 c -2.793,-2.793 -4.188,-6.45 -4.188,-10.111 0,-3.66 1.395,-7.318 4.188,-10.111 0.117,-0.117 0.117,-0.307 0,-0.424 -0.117,-0.117 -0.307,-0.117 -0.424,0 -2.909,2.908 -4.364,6.723 -4.364,10.535 0,3.812 1.455,7.626 4.364,10.535 0.117,0.117 0.307,0.117 0.424,0 0.118,-0.117 0.118,-0.307 0,-0.424 z"
     id="path54"
     style="fill:#0c1218;fill-opacity:1;stroke:none" /><path
     class="st3"
     d="m 50.575,268.691 c 2.793,2.793 4.188,6.45 4.188,10.11 0,3.66 -1.395,7.318 -4.188,10.111 -0.117,0.117 -0.117,0.307 0,0.424 0.117,0.117 0.307,0.117 0.424,0 2.909,-2.908 4.364,-6.723 4.364,-10.535 0,-3.812 -1.455,-7.626 -4.364,-10.535 -0.117,-0.117 -0.307,-0.117 -0.424,0 -0.117,0.118 -0.117,0.308 0,0.425 z"
     id="path56"
     style="fill:#0c1218;fill-opacity:1;stroke:none" /></g><g
   id="g2"><path
     class="st3"
     d="m 30.354,345.998 c -2.793,-2.793 -4.188,-6.45 -4.188,-10.111 0,-3.66 1.395,-7.318 4.188,-10.111 0.117,-0.117 0.117,-0.307 0,-0.424 -0.117,-0.117 -0.307,-0.117 -0.424,0 -2.909,2.908 -4.364,6.723 -4.364,10.535 0,3.812 1.455,7.626 4.364,10.535 0.117,0.117 0.307,0.117 0.424,0 0.118,-0.117 0.118,-0.307 0,-0.424 z"
     id="path58"
     style="fill:#0c1218;fill-opacity:1;stroke:none" /><path
     class="st3"
     d="m 50.575,325.777 c 2.793,2.793 4.188,6.45 4.188,10.11 0,3.66 -1.395,7.318 -4.188,10.111 -0.117,0.117 -0.117,0.307 0,0.424 0.117,0.117 0.307,0.117 0.424,0 2.909,-2.908 4.364,-6.723 4.364,-10.535 0,-3.812 -1.455,-7.626 -4.364,-10.535 -0.117,-0.117 -0.307,-0.117 -0.424,0 -0.117,0.118 -0.117,0.308 0,0.425 z"
     id="path60"
     style="fill:#0c1218;fill-opacity:1;stroke:none" /></g><path
   class="st3"
   d="m 48.861,256.07 c 0.588,0 0.771,0.196 0.771,0.75 v 0.07 c 0,0.54 -0.168,0.75 -0.764,0.75 h -1.261 v -1.569 h 1.254 z m -1.254,2.458 h 1.429 c 1.198,0 1.681,-0.498 1.681,-1.562 v -0.21 c 0,-1.156 -0.483,-1.576 -1.681,-1.576 h -2.514 v 4.903 h 1.085 z m -2.603,0.644 h -2.563 v -1.092 h 2.563 v -0.904 h -2.563 v -1.085 h 2.563 v -0.911 h -3.649 v 4.903 h 3.649 z m -6.489,-3.053 h 1.513 v -0.938 H 35.93 v 0.938 h 1.492 v 3.964 h 1.093 z m -5.747,4.034 c 1.239,0 2.045,-0.427 2.045,-1.583 v -0.063 c 0,-0.89 -0.518,-1.296 -1.604,-1.345 l -0.665,-0.021 c -0.638,-0.028 -0.799,-0.182 -0.799,-0.54 v -0.035 c 0,-0.413 0.267,-0.574 0.875,-0.574 0.533,0 0.89,0.119 0.995,0.588 h 1.142 c -0.084,-0.987 -0.91,-1.471 -2.073,-1.471 H 32.6 c -1.31,0 -1.961,0.518 -1.961,1.548 v 0.049 c 0,0.875 0.532,1.289 1.604,1.338 l 0.672,0.028 c 0.623,0.028 0.798,0.182 0.798,0.54 v 0.063 c 0,0.441 -0.329,0.595 -0.98,0.595 -0.462,0 -0.938,-0.063 -1.037,-0.539 h -1.142 c 0.112,1.037 0.945,1.421 2.15,1.421 h 0.064 z"
   id="path62"
   style="fill:#0c1218;fill-opacity:1;stroke:none" /><path
   class="st3"
   d="M 49.622,310.303 H 31.831 c -2.372,0 -4.295,1.923 -4.295,4.295 v 0 c 0,2.372 1.923,4.295 4.295,4.295 h 17.791 c 2.372,0 4.295,-1.923 4.295,-4.295 v 0 c 0,-2.372 -1.923,-4.295 -4.295,-4.295 z m -14.633,3.261 c 0,0.792 -0.19,1.009 -0.57,1.106 v 0.035 c 0.38,0.084 0.57,0.238 0.57,1.121 v 1.246 h -0.9 v -1.303 c 0,-0.603 -0.134,-0.672 -0.514,-0.672 h -0.527 v 1.975 h -0.9 v -4.902 h 1.512 c 0.936,0 1.33,0.21 1.33,1.303 v 0.091 z m 3.531,-0.609 h -1.386 v 1.268 h 1.386 v 0.792 h -1.386 v 1.274 h 1.386 v 0.784 h -2.286 v -4.902 h 2.286 z m 3.924,2.738 c 0,1.121 -0.464,1.45 -1.364,1.45 h -0.07 c -0.443,0 -0.788,-0.098 -1.02,-0.301 -0.232,-0.203 -0.359,-0.575 -0.38,-1.1 h 0.921 c 0.028,0.553 0.211,0.658 0.514,0.658 0.358,0 0.499,-0.134 0.499,-0.631 v -0.119 c 0,-0.44 -0.091,-0.581 -0.492,-0.637 L 40.7,314.971 c -0.774,-0.099 -1.062,-0.421 -1.062,-1.352 v -0.077 c 0,-1.093 0.408,-1.443 1.337,-1.443 h 0.084 c 0.887,0 1.337,0.351 1.365,1.443 h -0.915 c -0.028,-0.582 -0.168,-0.693 -0.499,-0.693 -0.338,0 -0.464,0.14 -0.464,0.623 v 0.098 c 0,0.428 0.091,0.582 0.492,0.631 l 0.352,0.042 c 0.773,0.098 1.055,0.42 1.055,1.352 v 0.098 z m 3.445,-2.738 h -1.386 v 1.268 h 1.386 v 0.792 h -1.386 v 1.274 h 1.386 v 0.784 h -2.286 v -4.902 h 2.286 z m 3.694,0.015 h -0.914 v 4.104 H 47.76 v -4.104 h -0.893 v -0.799 h 2.715 v 0.799 z m -16.015,-0.043 h -0.521 v 1.45 h 0.556 c 0.345,0 0.485,-0.07 0.485,-0.651 v -0.14 c 10e-4,-0.589 -0.147,-0.659 -0.52,-0.659 z"
   id="path64"
   style="fill:#0c1218;fill-opacity:1;stroke:none" /><path
   class="st3"
   d="m 78.256,265.816 c 0,0.232 -0.069,0.38 -0.217,0.458 -0.147,0.07 -0.406,0.105 -0.777,0.105 h -1.45 c -0.378,0 -0.637,-0.035 -0.777,-0.105 -0.146,-0.078 -0.217,-0.225 -0.217,-0.458 v -0.049 c 0,-0.232 0.07,-0.379 0.217,-0.45 0.141,-0.077 0.399,-0.112 0.777,-0.112 h 1.45 c 0.371,0 0.63,0.035 0.777,0.105 0.147,0.07 0.217,0.218 0.217,0.45 z m -0.027,-1.603 v 0.619 h -0.035 c -0.141,-0.352 -0.379,-0.534 -1.366,-0.534 H 75.86 c -1.407,0 -1.813,0.408 -1.813,1.435 v 0.12 c 0,1.034 0.406,1.435 1.828,1.435 h 1.323 c 1.415,0 1.821,-0.401 1.821,-1.435 v -1.639 h -0.79 z m 0.006,4.234 v 1.386 H 76.96 v -1.386 h -0.791 v 1.386 h -1.268 v -1.386 h -0.784 v 2.286 h 4.902 v -2.286 z m 0.855,4.81 c 0,-0.9 -0.329,-1.364 -1.45,-1.364 h -0.098 c -0.932,0 -1.254,0.281 -1.352,1.055 l -0.042,0.352 c -0.05,0.401 -0.203,0.492 -0.631,0.492 H 75.42 c -0.483,0 -0.624,-0.126 -0.624,-0.464 0,-0.331 0.112,-0.471 0.693,-0.499 v -0.915 c -1.092,0.028 -1.442,0.478 -1.442,1.365 v 0.084 c 0,0.929 0.351,1.337 1.442,1.337 h 0.077 c 0.932,0 1.254,-0.289 1.352,-1.062 l 0.042,-0.352 c 0.057,-0.401 0.196,-0.492 0.638,-0.492 h 0.119 c 0.497,0 0.631,0.141 0.631,0.499 0,0.303 -0.105,0.485 -0.659,0.514 v 0.921 c 0.525,-0.021 0.896,-0.147 1.1,-0.38 0.203,-0.232 0.302,-0.577 0.302,-1.02 v -0.071 z"
   id="path66"
   style="fill:#0c1218;fill-opacity:1;stroke:none" /><path
   class="st3"
   d="m 74.117,297.278 v 0.83 h 3.312 v 0.035 l -3.312,1.083 v 1.188 h 4.902 v -0.83 h -3.312 v -0.035 l 3.312,-1.083 v -1.189 h -4.902 z m 4.118,4.346 v 1.386 H 76.96 v -1.386 h -0.791 v 1.386 h -1.268 v -1.386 h -0.784 v 2.286 h 4.902 v -2.286 z m -0.006,3.362 v 1.21 h -4.111 v 0.9 h 4.902 v -2.11 z"
   id="path68"
   style="fill:#0c1218;fill-opacity:1;stroke:none" /><path
   class="st3"
   d="m 314.89196,296.275 v 0.936 l 3.88,0.717 v 0.035 l -3.88,0.717 v 0.964 l 4.902,-1.048 v -1.273 z m 4.973,5.683 c 0,-0.957 -0.371,-1.344 -1.646,-1.414 v 0.907 c 0.729,0.042 0.883,0.19 0.883,0.535 v 0.042 c 0,0.232 -0.07,0.38 -0.217,0.45 -0.147,0.07 -0.406,0.105 -0.777,0.105 h -1.521 c -0.756,0 -0.994,-0.099 -0.994,-0.556 v -0.042 c 0,-0.345 0.146,-0.492 0.875,-0.535 v -0.907 c -1.274,0.07 -1.646,0.457 -1.646,1.414 v 0.105 c 0,1.034 0.42,1.428 1.821,1.428 h 1.4 c 1.4,0 1.821,-0.394 1.821,-1.428 v -0.104 z"
   id="path70"
   style="fill:#0c1218;fill-opacity:1;stroke:none" /><path
   class="st3"
   d="m 319.00996,329.728 v 1.386 h -1.275 v -1.386 h -0.791 v 1.386 h -1.268 v -1.386 h -0.784 v 2.286 h 4.902 v -2.286 z m -3.32,4.255 v -0.915 h -0.798 v 2.715 h 0.798 v -0.894 h 4.104 v -0.907 h -4.104 z m 0.14,3.911 2.136,-0.394 v 0.823 l -2.136,-0.394 z m -0.938,-0.662 v 1.33 l 4.902,1.048 v -0.936 l -1.051,-0.197 v -1.133 l 1.051,-0.204 v -0.957 z m 4.973,4.734 c 0,-1.034 -0.406,-1.449 -1.821,-1.449 h -1.078 v 1.541 h 0.784 v -0.64 h 0.455 c 0.722,0 0.896,0.126 0.896,0.549 v 0.063 c 0,0.232 -0.07,0.38 -0.21,0.458 -0.147,0.07 -0.406,0.105 -0.777,0.105 h -1.527 c -0.378,0 -0.637,-0.035 -0.777,-0.105 -0.146,-0.078 -0.217,-0.225 -0.217,-0.458 v -0.049 c 0,-0.344 0.154,-0.492 0.714,-0.527 v -0.921 c -1.127,0.056 -1.484,0.513 -1.484,1.435 v 0.077 c 0,1.034 0.406,1.456 1.828,1.456 h 1.394 c 1.415,0 1.821,-0.422 1.821,-1.456 v -0.079 z"
   id="path72"
   style="fill:#0c1218;fill-opacity:1;stroke:none" /><path
   class="st3"
   d="m 74.866,330.341 c 0,-0.366 0.091,-0.506 0.729,-0.506 h 0.336 c 0.631,0 0.729,0.134 0.729,0.506 v 0.535 h -1.793 v -0.535 z m 2.529,0.535 v -0.612 c 0,-0.921 -0.238,-1.33 -1.499,-1.33 h -0.28 c -1.288,0 -1.498,0.394 -1.498,1.33 v 1.512 h 4.902 v -0.9 z m 0.84,2.11 v 1.386 H 76.96 v -1.386 h -0.791 v 1.386 h -1.268 v -1.386 h -0.784 v 2.286 h 4.902 v -2.286 z m -3.32,4.255 v -0.915 h -0.798 v 2.715 h 0.798 v -0.894 h 4.104 v -0.907 h -4.104 z m 4.175,4.079 c 0,-0.9 -0.329,-1.364 -1.45,-1.364 h -0.098 c -0.932,0 -1.254,0.281 -1.352,1.055 l -0.042,0.352 c -0.05,0.401 -0.203,0.492 -0.631,0.492 H 75.42 c -0.483,0 -0.624,-0.126 -0.624,-0.464 0,-0.331 0.112,-0.471 0.693,-0.499 v -0.915 c -1.092,0.028 -1.442,0.478 -1.442,1.365 v 0.084 c 0,0.929 0.351,1.337 1.442,1.337 h 0.077 c 0.932,0 1.254,-0.289 1.352,-1.062 l 0.042,-0.352 c 0.057,-0.401 0.196,-0.492 0.638,-0.492 h 0.119 c 0.497,0 0.631,0.141 0.631,0.499 0,0.303 -0.105,0.485 -0.659,0.514 v 0.921 c 0.525,-0.021 0.896,-0.147 1.1,-0.38 0.203,-0.232 0.302,-0.577 0.302,-1.02 v -0.071 z"
   id="path74"
   style="fill:#0c1218;fill-opacity:1;stroke:none" />
<path
   class="st4"
   d="m 336.1462,313.315 c -2.33871,0 -4.23424,1.899 -4.23424,4.242 0,2.343 1.89553,4.242 4.23424,4.242 2.33872,0 4.23425,-1.899 4.23425,-4.242 0,-2.343 -1.89553,-4.242 -4.23425,-4.242 z m 1.43038,6.701 h -2.6751 v -0.749 h 0.95426 v -3.369 h -0.0349 l -0.88438,0.497 v -0.903 l 0.7656,-0.378 h 1.01813 v 4.153 h 0.85643 z"
   id="path78"
   style="fill:#0c1218;fill-opacity:0.437159;stroke:none;stroke-width:1" />
<path
   class="st4"
   d="m 365.15706,313.315 c -2.33872,0 -4.23425,1.899 -4.23425,4.242 0,2.343 1.89553,4.242 4.23425,4.242 2.33871,0 4.23424,-1.899 4.23424,-4.242 0,-2.343 -1.89553,-4.242 -4.23424,-4.242 z m 1.44834,2.996 c 0,0.68 -0.15471,0.994 -0.70271,1.4 l -0.75861,0.589 c -0.28048,0.21 -0.37132,0.371 -0.37132,0.868 v 0.099 h 1.83264 v 0.749 h -2.68907 v -0.799 c 0,-0.791 0.14074,-1.071 0.68774,-1.478 l 0.73665,-0.567 c 0.33738,-0.252 0.40726,-0.392 0.40726,-0.798 v -0.05 c 0,-0.413 -0.13376,-0.553 -0.47114,-0.553 -0.32241,0 -0.45617,0.112 -0.48411,0.714 h -0.86342 c 0.0419,-1.148 0.47812,-1.442 1.3066,-1.442 h 0.0699 c 0.92031,0 1.29961,0.385 1.29961,1.205 z"
   id="path80"
   style="fill:#0c1218;fill-opacity:0.437159;stroke:none;stroke-width:1" />
<path
   class="st4"
   d="m 394.16791,313.315 c -2.33871,0 -4.23424,1.899 -4.23424,4.242 0,2.343 1.89553,4.242 4.23424,4.242 2.33872,0 4.23424,-1.899 4.23424,-4.242 0,-2.343 -1.89552,-4.242 -4.23424,-4.242 z m 1.44036,5.286 c 0,1.128 -0.40026,1.485 -1.29962,1.485 h -0.0699 c -0.8205,0 -1.30561,-0.329 -1.33356,-1.485 h 0.86342 c 0.0279,0.658 0.21062,0.757 0.50508,0.757 0.34536,0 0.47812,-0.147 0.47812,-0.658 v -0.189 c 0,-0.512 -0.0908,-0.63 -0.45616,-0.63 h -0.44918 v -0.778 h 0.4362 c 0.35735,0 0.44219,-0.111 0.44219,-0.608 v -0.134 c 0,-0.455 -0.14074,-0.588 -0.45616,-0.588 -0.28848,0 -0.44219,0.098 -0.47114,0.687 h -0.85643 c 0.0419,-1.072 0.47014,-1.415 1.29862,-1.415 h 0.0639 c 0.87739,0 1.27666,0.351 1.27666,1.197 v 0.07 c 0,0.651 -0.18266,0.945 -0.54001,1.051 v 0.035 c 0.37232,0.084 0.56796,0.371 0.56796,1.064 z"
   id="path82"
   style="fill:#0c1218;fill-opacity:0.437159;stroke:none;stroke-width:1" />
<path
   class="st4"
   d="m 422.09974,318.033 v 0.042 h 1.04608 v -1.954 h -0.0279 z m 1.07902,-4.718 c -2.33871,0 -4.23424,1.899 -4.23424,4.242 0,2.343 1.89553,4.242 4.23424,4.242 2.33872,0 4.23425,-1.899 4.23425,-4.242 0,-2.343 -1.89553,-4.242 -4.23425,-4.242 z m 1.24472,5.496 h -0.42122 v 1.205 h -0.85644 v -1.205 h -1.68491 v -1.029 l 1.36251,-2.668 h 1.17983 v 2.962 h 0.42123 v 0.735 z"
   id="path84"
   style="fill:#0c1218;fill-opacity:0.437159;stroke:none;stroke-width:1" />
<path
   class="st4"
   d="m 452.18962,313.315 c -2.33872,0 -4.23425,1.899 -4.23425,4.242 0,2.343 1.89553,4.242 4.23425,4.242 2.33871,0 4.23424,-1.899 4.23424,-4.242 0.001,-2.343 -1.89553,-4.242 -4.23424,-4.242 z m 1.23374,5.166 c 0,1.219 -0.39927,1.604 -1.29164,1.604 h -0.0769 c -0.85044,0 -1.29263,-0.357 -1.32756,-1.415 h 0.86341 c 0.0279,0.581 0.18966,0.687 0.4921,0.687 0.35735,0 0.48412,-0.161 0.48412,-0.777 v -0.406 c 0,-0.616 -0.14075,-0.771 -0.49909,-0.771 -0.24555,0 -0.42821,0.077 -0.52005,0.519 h -0.77857 l 0.16071,-2.809 h 2.41557 v 0.749 h -1.636 l -0.0769,1.212 h 0.0269 c 0.13375,-0.245 0.30943,-0.386 0.73765,-0.386 0.66678,0 1.02412,0.344 1.02412,1.359 v 0.434 z"
   id="path86"
   style="fill:#0c1218;fill-opacity:0.437159;stroke:none;stroke-width:1" />
<path
   class="st4"
   d="m 481.20446,317.516 c -0.36533,0 -0.47812,0.161 -0.47812,0.771 v 0.314 c 0,0.596 0.11179,0.764 0.47812,0.764 0.37232,0 0.48412,-0.168 0.48412,-0.764 v -0.314 c 9.9e-4,-0.61 -0.1118,-0.771 -0.48412,-0.771 z m -0.003,-4.201 c -2.33872,0 -4.23424,1.899 -4.23424,4.242 0,2.343 1.89552,4.242 4.23424,4.242 2.33871,0 4.23424,-1.899 4.23424,-4.242 0,-2.343 -1.89652,-4.242 -4.23424,-4.242 z m 1.35152,5.188 c 0,1.197 -0.41424,1.583 -1.29263,1.583 h -0.0619 c -0.89236,0 -1.33455,-0.315 -1.33455,-1.793 v -1.45 c 0,-1.471 0.42821,-1.8 1.31958,-1.8 h 0.0629 c 0.83547,0 1.24272,0.364 1.29962,1.323 h -0.86342 c -0.0349,-0.476 -0.16171,-0.595 -0.46415,-0.595 -0.36433,0 -0.49809,0.154 -0.49809,0.91 v 0.589 h 0.0349 c 0.1048,-0.225 0.31542,-0.399 0.74363,-0.399 0.7656,0 1.05407,0.378 1.05407,1.415 z"
   id="path88"
   style="fill:#0c1218;fill-opacity:0.437159;stroke:none;stroke-width:1" />
<circle
   style="fill:#213d42;stroke:none;stroke-width:0.283464"
   id="step_input"
   cx="40.4645"
   cy="278.80099"
   inkscape:label=""
   r="11.338583" /><circle
   style="fill:#213d42;stroke:none;stroke-width:0.283464"
   id="step_input_1"
   cx="98.806503"
   cy="336.55945"
   inkscape:label=""
   r="11.338583" /><circle
   style="fill:#213d42;stroke:none;stroke-width:0.283464"
   id="step_input_2"
   cx="134.679"
   cy="336.55945"
   inkscape:label=""
   r="11.338583" /><circle
   style="fill:#213d42;stroke:none;stroke-width:0.283464"
   id="step_input_3"
   cx="170.55099"
   cy="336.55945"
   inkscape:label=""
   r="11.338583" /><circle
   style="fill:#213d42;stroke:none;stroke-width:0.283464"
   id="step_input_4"
   cx="206.423"
   cy="336.55945"
   inkscape:label=""
   r="11.338583" /><circle
   style="fill:#213d42;stroke:none;stroke-width:0.283464"
   id="step_input_5"
   cx="242.295"
   cy="336.55945"
   inkscape:label=""
   r="11.338583" /><circle
   style="fill:#213d42;stroke:none;stroke-width:0.283464"
   id="step_input_6"
   cx="278.16751"
   cy="336.55945"
   inkscape:label=""
   r="11.338583" /><circle
   style="fill:#213d42;fill-opacity:1;stroke:none;stroke-width:0.283464"
   id="seq1_gate_output"
   cx="336.14621"
   cy="335.70428"
   inkscape:label=""
   r="11.338583" /><circle
   style="fill:#213d42;fill-opacity:1;stroke:none;stroke-width:0.283464"
   id="seq1_cv_output"
   cx="336.14621"
   cy="299.28192"
   inkscape:label=""
   r="11.338583" /><circle
   style="fill:#213d42;fill-opacity:1;stroke:none;stroke-width:0.283464"
   id="seq2_gate_output"
   cx="365.15704"
   cy="335.70428"
   inkscape:label=""
   r="11.338583" /><circle
   style="fill:#213d42;fill-opacity:1;stroke:none;stroke-width:0.283464"
   id="seq2_cv_output"
   cx="365.15704"
   cy="299.28192"
   inkscape:label=""
   r="11.338583" /><circle
   style="fill:#213d42;fill-opacity:1;stroke:none;stroke-width:0.283464"
   id="seq3_gate_output"
   cx="394.16791"
   cy="335.70428"
   inkscape:label=""
   r="11.338583" /><circle
   style="fill:#213d42;fill-opacity:1;stroke:none;stroke-width:0.283464"
   id="seq3_cv_output"
   cx="394.16791"
   cy="299.28192"
   inkscape:label=""
   r="11.338583" /><circle
   style="fill:#213d42;fill-opacity:1;stroke:none;stroke-width:0.283464"
   id="seq4_gate_output"
   cx="423.17877"
   cy="335.70428"
   inkscape:label=""
   r="11.338583" /><circle
   style="fill:#213d42;fill-opacity:1;stroke:none;stroke-width:0.283464"
   id="seq4_cv_output"
   cx="423.17877"
   cy="299.28192"
   inkscape:label=""
   r="11.338583" /><circle
   style="fill:#213d42;fill-opacity:1;stroke:none;stroke-width:0.283464"
   id="seq5_gate_output"
   cx="452.18961"
   cy="335.70428"
   inkscape:label=""
   r="11.338583" /><circle
   style="fill:#213d42;fill-opacity:1;stroke:none;stroke-width:0.283464"
   id="seq5_cv_output"
   cx="452.18961"
   cy="299.28192"
   inkscape:label=""
   r="11.338583" /><circle
   style="fill:#213d42;fill-opacity:1;stroke:none;stroke-width:0.283464"
   id="seq6_gate_output"
   cx="481.20145"
   cy="335.70428"
   inkscape:label=""
   r="11.338583" /><circle
   style="fill:#213d42;fill-opacity:1;stroke:none;stroke-width:0.283464"
   id="seq6_cv_output"
   cx="481.20145"
   cy="299.28192"
   inkscape:label=""
   r="11.338583" /><circle
   style="fill:#213d42;fill-opacity:1;stroke:none;stroke-width:0.283464"
   id="sequencer_select_1"
   cx="98.806503"
   cy="269.6145"
   inkscape:label=""
   r="10.204725" /><circle
   style="fill:#213d42;fill-opacity:1;stroke:none;stroke-width:0.283464"
   id="sequencer_select_2"
   cx="134.679"
   cy="269.6145"
   inkscape:label=""
   r="10.204725" /><circle
   style="fill:#213d42;fill-opacity:1;stroke:none;stroke-width:0.283464"
   id="sequencer_select_3"
   cx="170.55099"
   cy="269.6145"
   inkscape:label=""
   r="10.204725" /><circle
   style="fill:#213d42;fill-opacity:1;stroke:none;stroke-width:0.283464"
   id="sequencer_select_4"
   cx="206.423"
   cy="269.6145"
   inkscape:label=""
   r="10.204725" /><circle
   style="fill:#213d42;fill-opacity:1;stroke:none;stroke-width:0.283464"
   id="sequencer_select_5"
   cx="242.295"
   cy="269.6145"
   inkscape:label=""
   r="10.204725" /><circle
   style="fill:#213d42;stroke:none;stroke-width:0.283464"
   id="reset_input"
   cx="40.4645"
   cy="335.88699"
   inkscape:label=""
   r="11.338583" /><circle
   style="fill:#213d42;fill-opacity:1;stroke:none;stroke-width:0.283464"
   id="sequencer_select_6"
   cx="278.16751"
   cy="269.6145"
   inkscape:label=""
   r="10.204725" /><circle
   style="fill:#213d42;stroke:none;stroke-width:0.283464"
   id="sequencer_length_knob_1"
   cx="98.806503"
   cy="302.18649"
   r="8.7860279" /><circle
   style="fill:#213d42;stroke:none;stroke-width:0.283464"
   id="sequencer_length_knob_2"
   cx="134.679"
   cy="302.18698"
   r="8.7860279" /><circle
   style="fill:#213d42;stroke:none;stroke-width:0.283464"
   id="sequencer_length_knob_3"
   cx="170.55099"
   cy="302.18698"
   r="8.7860279" /><circle
   style="fill:#213d42;stroke:none;stroke-width:0.283464"
   id="sequencer_length_knob_4"
   cx="206.423"
   cy="302.18698"
   r="8.7860279" /><circle
   style="fill:#213d42;stroke:none;stroke-width:0.283464"
   id="sequencer_length_knob_5"
   cx="242.295"
   cy="302.18698"
   r="8.7860279" /><circle
   style="fill:#213d42;stroke:none;stroke-width:0.283464"
   id="sequencer_length_knob_6"
   cx="278.16751"
   cy="302.18698"
   r="8.7860279" /></svg>
