<?xml version="1.0" encoding="UTF-8" standalone="no"?>
<svg
   sodipodi:docname="sampler16p_panel-dark.svg"
   inkscape:version="1.3.2 (091e20e, 2023-11-25, custom)"
   id="svg11003"
   version="1.1"
   viewBox="0 0 15.239999 128.5"
   height="128.5mm"
   width="15.24mm"
   xml:space="preserve"
   xmlns:inkscape="http://www.inkscape.org/namespaces/inkscape"
   xmlns:sodipodi="http://sodipodi.sourceforge.net/DTD/sodipodi-0.dtd"
   xmlns="http://www.w3.org/2000/svg"
   xmlns:svg="http://www.w3.org/2000/svg"
   xmlns:rdf="http://www.w3.org/1999/02/22-rdf-syntax-ns#"
   xmlns:cc="http://creativecommons.org/ns#"
   xmlns:dc="http://purl.org/dc/elements/1.1/"><sodipodi:namedview
     inkscape:document-rotation="0"
     showborder="true"
     inkscape:guide-bbox="true"
     showguides="true"
     units="mm"
     inkscape:window-maximized="1"
     inkscape:window-y="-11"
     inkscape:window-x="2869"
     inkscape:window-height="2054"
     inkscape:window-width="3840"
     fit-margin-bottom="0"
     fit-margin-right="0"
     fit-margin-left="0"
     fit-margin-top="0"
     showgrid="false"
     inkscape:current-layer="layer1"
     inkscape:document-units="mm"
     inkscape:cy="264.28116"
     inkscape:cx="-64.346717"
     inkscape:zoom="2.8284271"
     inkscape:pageshadow="2"
     inkscape:pageopacity="0.0"
     borderopacity="1.0"
     bordercolor="#666666"
     pagecolor="#ffffff"
     id="base"
     inkscape:pagecheckerboard="0"
     inkscape:lockguides="false"
     inkscape:showpageshadow="2"
     inkscape:deskcolor="#d1d1d1" /><rect
     x="0"
     y="0"
     width="15.24"
     height="128.5"
     style="fill:#18181a;fill-opacity:1;opacity:1;stroke:none"
     inkscape:groupmode="layer"
     id="rect1" /><defs
     id="defs10997"><rect
       x="-36.75"
       y="45.8125"
       width="132.3125"
       height="46.125"
       id="rect1890" /><rect
       x="2.8284272"
       y="314.30897"
       width="82.554717"
       height="20.594485"
       id="rect789" /><rect
       x="-259.5"
       y="-152"
       width="166.5"
       height="69.5"
       id="rect7150" /><rect
       x="-150"
       y="342"
       width="116.25"
       height="54.5"
       id="rect7140" /><rect
       x="-4.875"
       y="115.75"
       width="157.125"
       height="68.375"
       id="rect2601" /><rect
       x="423"
       y="-6.625"
       width="43.0625"
       height="15.5625"
       id="rect2512" /><rect
       x="353.375"
       y="-25.125"
       width="102.625"
       height="20.5"
       id="rect2454" /><rect
       id="rect993"
       height="5.6126599"
       width="14.873549"
       y="53.15646"
       x="128.59019" /><rect
       x="-4.875"
       y="115.75"
       width="157.125"
       height="68.375"
       id="rect2601-5" /><rect
       x="-4.875"
       y="115.75"
       width="157.125"
       height="68.375"
       id="rect2601-5-3" /><rect
       x="-4.875"
       y="115.75"
       width="157.125"
       height="68.375"
       id="rect2601-5-3-7" /><rect
       x="-4.875"
       y="115.75"
       width="157.125"
       height="68.375"
       id="rect2601-5-3-7-7" /><rect
       x="-4.875"
       y="115.75"
       width="157.125"
       height="68.375"
       id="rect2601-5-3-7-7-5" /><rect
       x="-4.875"
       y="115.75"
       width="157.125"
       height="68.375"
       id="rect2601-5-3-7-7-5-1" /><rect
       x="-4.875"
       y="115.75"
       width="157.125"
       height="68.375"
       id="rect2601-5-4" /><rect
       x="-150"
       y="342"
       width="116.25"
       height="54.5"
       id="rect7140-4" /><rect
       x="8"
       y="109.4375"
       width="80.1875"
       height="24"
       id="rect1-9" /></defs><metadata
     id="metadata11000"><rdf:RDF><cc:Work
         rdf:about=""><dc:format>image/svg+xml</dc:format><dc:type
           rdf:resource="http://purl.org/dc/dcmitype/StillImage" /></cc:Work></rdf:RDF></metadata><g
     style="display:inline"
     transform="translate(-64.792954,-47.169623)"
     id="layer1"
     inkscape:groupmode="layer"
     inkscape:label="Panel Layer"><text
       id="text110"
       y="53.772301"
       x="75.943253"
       style="font-style:normal;font-weight:normal;font-size:4.58611px;line-height:1.25;font-family:sans-serif;letter-spacing:0px;word-spacing:0px;fill:#ffffff;fill-opacity:1;stroke:none;stroke-width:0.264583"
       xml:space="preserve" /><text
       id="text2911"
       y="98.467987"
       x="110.48083"
       style="font-style:normal;font-variant:normal;font-weight:normal;font-stretch:normal;font-size:3.88056px;line-height:1.25;font-family:'Share Tech Mono';-inkscape-font-specification:'Share Tech Mono';letter-spacing:0px;word-spacing:0px;fill:#ffffff;fill-opacity:1;stroke:none;stroke-width:0.264583"
       xml:space="preserve" /><text
       id="text2915"
       y="99.554665"
       x="101.74013"
       style="font-style:normal;font-variant:normal;font-weight:normal;font-stretch:normal;font-size:3.88056px;line-height:1.25;font-family:'Share Tech Mono';-inkscape-font-specification:'Share Tech Mono';letter-spacing:0px;word-spacing:0px;fill:#ffffff;fill-opacity:1;stroke:none;stroke-width:0.264583"
       xml:space="preserve" /><g
       transform="translate(-1.405896,4.2215415)"
       id="text2919"
       style="font-style:normal;font-variant:normal;font-weight:normal;font-stretch:normal;font-size:3.52778px;line-height:1.25;font-family:'Share Tech Mono';-inkscape-font-specification:'Share Tech Mono';letter-spacing:0px;word-spacing:0px;fill:#ffffb9;fill-opacity:1;stroke:none;stroke-width:0.264583"
       aria-label="LENGTH" /><text
       style="font-style:normal;font-variant:normal;font-weight:normal;font-stretch:normal;font-size:3.52778px;line-height:1.25;font-family:'Share Tech Mono';-inkscape-font-specification:'Share Tech Mono, Normal';font-variant-ligatures:normal;font-variant-caps:normal;font-variant-numeric:normal;font-variant-east-asian:normal;letter-spacing:0px;word-spacing:0px;white-space:pre;shape-inside:url(#rect993);display:inline"
       id="text991"
       xml:space="preserve" /><text
       xml:space="preserve"
       transform="matrix(0.26458333,0,0,0.26458333,64.792954,47.169623)"
       id="text7138"
       style="font-size:14.6667px;line-height:1.25;font-family:Pilat;-inkscape-font-specification:Pilat;letter-spacing:0px;word-spacing:0px;white-space:pre;shape-inside:url(#rect7140);display:inline" /><text
       xml:space="preserve"
       transform="matrix(0.26458333,0,0,0.26458333,64.792564,46.030141)"
       id="text7138-9"
       style="font-size:14.6667px;line-height:1.25;font-family:Pilat;-inkscape-font-specification:Pilat;letter-spacing:0px;word-spacing:0px;white-space:pre;shape-inside:url(#rect7140-4);display:inline" /><path
       class="st0"
       d="m 75.551034,55.969859 h -6.27627 c -0.83679,0 -1.51518,0.678392 -1.51518,1.515181 0,0.836789 0.67839,1.515181 1.51518,1.515181 h 6.27627 c 0.83679,0 1.51518,-0.678392 1.51518,-1.515181 0,-0.836789 -0.67804,-1.515181 -1.51518,-1.515181 z"
       id="path24"
       style="fill:#0c1117;fill-opacity:1;stroke-width:0.352778"
       sodipodi:nodetypes="sssssss" /><path
       class="st0"
       d="m 69.887894,56.941409 h -0.1838 v 0.511528 h 0.19614 c 0.12171,0 0.1711,-0.02469 0.1711,-0.229658 v -0.04939 c 0,-0.207786 -0.0519,-0.232481 -0.18344,-0.232481 z"
       id="path26"
       style="fill:#0c1117;fill-opacity:1;stroke-width:0.352778" /><path
       class="st0"
       d="m 66.518154,53.799003 h 11.78984 c 0.0487,0 0.0882,-0.03951 0.0882,-0.08819 0,-0.04868 -0.0395,-0.08819 -0.0882,-0.08819 h -11.78984 c -0.0487,0 -0.0882,0.03951 -0.0882,0.08819 0,0.04868 0.0395,0.08819 0.0882,0.08819"
       id="path30"
       style="fill:#f4eee9;fill-opacity:1;stroke-width:0.352778" /><g
       id="g2"
       style="fill:#f4eee9;fill-opacity:1"><path
         class="st0"
         d="m 68.816854,68.423268 c -0.9853,-0.985308 -1.47743,-2.275417 -1.47743,-3.566936 0,-1.291167 0.49213,-2.581628 1.47743,-3.566936 0.0413,-0.04127 0.0413,-0.108303 0,-0.149578 -0.0413,-0.04127 -0.1083,-0.04127 -0.14957,0 -1.02623,1.025878 -1.53953,2.371725 -1.53953,3.716514 0,1.344789 0.5133,2.690283 1.53953,3.716514 0.0413,0.04128 0.1083,0.04128 0.14957,0 0.0416,-0.04127 0.0416,-0.108303 0,-0.149578 z"
         id="path32"
         style="fill:#f4eee9;fill-opacity:1;stroke-width:0.352778" /><path
         class="st0"
         d="m 75.950374,61.289748 c 0.98531,0.985309 1.47744,2.275417 1.47744,3.566937 0,1.291166 -0.49213,2.581628 -1.47744,3.566936 -0.0413,0.04127 -0.0413,0.108303 0,0.149578 0.0413,0.04127 0.10831,0.04127 0.14958,0 1.02623,-1.025878 1.53952,-2.371725 1.53952,-3.716514 0,-1.344789 -0.51329,-2.690284 -1.53952,-3.716514 -0.0413,-0.04127 -0.1083,-0.04127 -0.14958,0 -0.0413,0.04128 -0.0413,0.108302 0,0.149577 z"
         id="path34"
         style="fill:#f4eee9;fill-opacity:1;stroke-width:0.352778" /></g><g
       aria-label="TRIG"
       transform="matrix(0.33866667,0,0,0.33866667,82.551732,40.673414)"
       id="text1888"
       style="font-size:7.29167px;line-height:1.25;font-family:Pilat;-inkscape-font-specification:Pilat;letter-spacing:0.75px;word-spacing:0px;white-space:pre;shape-inside:url(#rect1890)"><path
         d="m -34.824999,47.919793 h 0.947917 v -0.831251 h -2.814585 v 0.831251 h 0.926042 v 4.272918 h 0.940626 z"
         style="font-family:'Pilat Condensed';-inkscape-font-specification:'Pilat Condensed, ';fill:#ffffff"
         id="path2622" /><path
         d="m -31.829166,50.13646 h 0.546876 c 0.39375,0 0.532291,0.07292 0.532291,0.700001 v 1.35625 h 0.933334 v -1.297917 c 0,-0.918751 -0.196875,-1.079167 -0.590625,-1.166667 v -0.03646 c 0.39375,-0.102083 0.590625,-0.328125 0.590625,-1.152083 v -0.09479 c 0,-1.137501 -0.408333,-1.356251 -1.378125,-1.356251 h -1.567709 v 5.104169 h 0.933333 z m 0.539584,-2.260417 c 0.386458,0 0.539583,0.07292 0.539583,0.685417 v 0.145833 c 0,0.605209 -0.145833,0.678125 -0.503125,0.678125 h -0.576042 v -1.509375 z"
         style="font-family:'Pilat Condensed';-inkscape-font-specification:'Pilat Condensed, ';fill:#ffffff"
         id="path2624" /><path
         d="M -27.571866,47.088542 H -28.5052 v 5.104169 h 0.933334 z"
         style="font-family:'Pilat Condensed';-inkscape-font-specification:'Pilat Condensed, ';fill:#ffffff"
         id="path2626" /><path
         d="m -24.685413,52.265628 c 1.071875,0 1.502084,-0.422917 1.502084,-1.895834 v -1.122918 h -1.596876 v 0.816668 h 0.663542 v 0.473958 c 0,0.751042 -0.13125,0.933334 -0.56875,0.933334 h -0.06563 c -0.240625,0 -0.39375,-0.07292 -0.473959,-0.21875 -0.07292,-0.153125 -0.109375,-0.422917 -0.109375,-0.809376 v -1.589584 c 0,-0.39375 0.03646,-0.663542 0.109375,-0.809375 0.08021,-0.153125 0.233334,-0.226042 0.473959,-0.226042 h 0.05104 c 0.357291,0 0.510416,0.160417 0.546875,0.743751 h 0.955209 c -0.05833,-1.173959 -0.532292,-1.545834 -1.487501,-1.545834 h -0.08021 c -1.071875,0 -1.509375,0.422916 -1.509375,1.903125 v 1.451043 c 0,1.472917 0.4375,1.895834 1.509375,1.895834 z"
         style="font-family:'Pilat Condensed';-inkscape-font-specification:'Pilat Condensed, ';fill:#ffffff"
         id="path2628" /></g><path
       class="st0"
       d="m 78.134481,49.012012 v 2.828573 H 66.691427 v -2.828573 h 11.443054 m 0,-0.176389 H 66.691427 c -0.09737,0 -0.176389,0.07902 -0.176389,0.176389 v 2.828573 c 0,0.09737 0.07902,0.176389 0.176389,0.176389 h 11.443054 c 0.09737,0 0.176389,-0.07902 0.176389,-0.176389 v -2.828573 c 0,-0.09737 -0.07902,-0.176389 -0.176389,-0.176389 z"
       id="path6"
       style="fill:#f4eee9;fill-opacity:1;stroke:none;stroke-width:0.352778"
       sodipodi:nodetypes="cccccsssssssss" /><path
       d="m 40.517755,116.5175 c 1.024,0 1.552,-0.376 1.552,-1.656 v -0.112 c 0,-1.064 -0.32,-1.432 -1.2,-1.544 l -0.4,-0.048 c -0.456,-0.056 -0.56,-0.232 -0.56,-0.72 v -0.112 c 0,-0.552 0.144,-0.712 0.528,-0.712 0.376,0 0.536,0.128 0.568,0.792 h 1.04 c -0.032,-1.248 -0.544,-1.648 -1.552,-1.648 h -0.096 c -1.056,0 -1.52,0.4 -1.52,1.648 v 0.088 c 0,1.064 0.328,1.432 1.208,1.544 l 0.4,0.048 c 0.456,0.064 0.56,0.224 0.56,0.728 v 0.136 c 0,0.568 -0.16,0.72 -0.568,0.72 -0.344,0 -0.552,-0.12 -0.584,-0.752 h -1.048 c 0.024,0.6 0.168,1.024 0.432,1.256 0.264,0.232 0.656,0.344 1.16,0.344 z m 3.096002,-1.936 h 0.696 c 1.048,0 1.512,-0.272 1.512,-1.712 v -0.32 c 0,-1.472 -0.448,-1.712 -1.512,-1.712 h -1.72 v 5.6 h 1.024 z m 0.608,-2.888 c 0.416,0 0.576,0.104 0.576,0.832 v 0.384 c 0,0.72 -0.152,0.832 -0.576,0.832 h -0.608 v -2.048 z m 3.296001,2.808 v -0.808 h -1.432 v 0.808 z m 2.336,-3.664 h -1.16 l -0.872,0.432 v 1.032 l 1.008,-0.568 h 0.04 v 4.704 h 0.984 z m 2.191993,5.68 c 1,0 1.472,-0.44 1.472,-1.808 v -0.248 c 0,-1.184 -0.328,-1.616 -1.2,-1.616 -0.488,0 -0.728,0.2 -0.848,0.456 h -0.04 v -0.672 c 0,-0.864 0.152,-1.04 0.568,-1.04 0.344,0 0.488,0.136 0.528,0.68 h 0.984 c -0.064,-1.096 -0.528,-1.512 -1.48,-1.512 h -0.072 c -1.016,0 -1.504,0.376 -1.504,2.056 v 1.656 c 0,1.688 0.504,2.048 1.52,2.048 z m -0.064,-0.824 c -0.416,0 -0.544,-0.192 -0.544,-0.872 v -0.36 c 0,-0.696 0.128,-0.88 0.544,-0.88 0.424,0 0.552,0.184 0.552,0.88 v 0.36 c 0,0.68 -0.128,0.872 -0.552,0.872 z m 3.143999,-1.112 h 0.696 c 1.048,0 1.512,-0.272 1.512,-1.712 v -0.32 c 0,-1.472 -0.448,-1.712 -1.512,-1.712 h -1.72 v 5.6 h 1.024 z m 0.608,-2.888 c 0.416,0 0.576,0.104 0.576,0.832 v 0.384 c 0,0.72 -0.152,0.832 -0.576,0.832 h -0.608 v -2.048 z"
       id="text1-3"
       style="font-size:8px;font-family:'Pilat Condensed';-inkscape-font-specification:'Pilat Condensed, ';text-align:center;white-space:pre;fill-opacity:1;stroke-width:0.377953;fill:#f4eee9"
       transform="matrix(0.26458334,0,0,0.26458334,59.682858,20.359709)"
       aria-label="SP-16P" /><rect
       style="fill:#3e3e3e;fill-opacity:1;stroke:none;stroke-width:0.1"
       id="rect2"
       width="11.835896"
       height="30.521667"
       x="66.495003"
       y="-173.72229"
       rx="1.5875001"
       ry="1.5875"
       transform="scale(1,-1)" /><path
       class="st0"
       d="m 74.609527,157.9277 h 0.533752 v -0.33091 h -1.44533 v 0.33091 h 0.526344 v 1.39841 h 0.385586 v -1.39841 z m -2.042231,1.4231 c 0.533753,0 0.738717,-0.18274 0.738717,-0.71649 v -1.03787 h -0.390172 v 1.01565 c 0,0.2988 -0.08396,0.39546 -0.338667,0.39546 h -0.05433 c -0.254705,0 -0.338314,-0.0938 -0.338314,-0.39546 v -1.01565 h -0.390525 v 1.03787 c 0,0.53375 0.202847,0.71649 0.738717,0.71649 z m -2.081742,-0.33337 c -0.343252,0 -0.414866,-0.19015 -0.414866,-0.50412 v -0.10372 c 0,-0.31362 0.07161,-0.50412 0.414866,-0.50412 h 0.04198 c 0.341136,0 0.41275,0.1905 0.41275,0.50412 v 0.10372 c 0,0.31856 -0.07161,0.49918 -0.41275,0.50412 z m 0.03704,0.33337 c 0.555978,0 0.805392,-0.242 0.805392,-0.8128 v -0.15063 c 0,-0.5708 -0.249767,-0.81527 -0.805392,-0.81527 h -0.0321 c -0.560916,0 -0.807861,0.24447 -0.807861,0.81527 v 0.15063 c 0,0.5708 0.246945,0.8128 0.807861,0.8128 z"
       id="path46-6"
       style="fill:#f4eee9;fill-opacity:1;stroke:none;stroke-width:0.352778" /></g></svg>
