<?xml version="1.0" encoding="UTF-8" standalone="no"?>
<svg
   sodipodi:docname="sampler16p_panel.svg"
   inkscape:version="1.3.2 (091e20e, 2023-11-25, custom)"
   id="svg11003"
   version="1.1"
   viewBox="0 0 15.239999 128.5"
   height="128.5mm"
   width="15.24mm"
   xml:space="preserve"
   xmlns:inkscape="http://www.inkscape.org/namespaces/inkscape"
   xmlns:sodipodi="http://sodipodi.sourceforge.net/DTD/sodipodi-0.dtd"
   xmlns="http://www.w3.org/2000/svg"
   xmlns:svg="http://www.w3.org/2000/svg"
   xmlns:rdf="http://www.w3.org/1999/02/22-rdf-syntax-ns#"
   xmlns:cc="http://creativecommons.org/ns#"
   xmlns:dc="http://purl.org/dc/elements/1.1/"><sodipodi:namedview
     inkscape:document-rotation="0"
     showborder="true"
     inkscape:guide-bbox="true"
     showguides="true"
     units="mm"
     inkscape:window-maximized="1"
     inkscape:window-y="-11"
     inkscape:window-x="2869"
     inkscape:window-height="2054"
     inkscape:window-width="3840"
     fit-margin-bottom="0"
     fit-margin-right="0"
     fit-margin-left="0"
     fit-margin-top="0"
     showgrid="false"
     inkscape:current-layer="layer1"
     inkscape:document-units="mm"
     inkscape:cy="369.75"
     inkscape:cx="65.25"
     inkscape:zoom="2"
     inkscape:pageshadow="2"
     inkscape:pageopacity="0.0"
     borderopacity="1.0"
     bordercolor="#666666"
     pagecolor="#ffffff"
     id="base"
     inkscape:pagecheckerboard="0"
     inkscape:lockguides="false"
     inkscape:showpageshadow="2"
     inkscape:deskcolor="#d1d1d1" /><rect
     x="0"
     y="0"
     width="15.24"
     height="128.5"
     style="fill:#e7e7e7;fill-opacity:1;opacity:1;stroke:none"
     inkscape:groupmode="layer"
     id="rect1" /><defs
     id="defs10997"><rect
       x="-36.75"
       y="45.8125"
       width="132.3125"
       height="46.125"
       id="rect1890" /><rect
       x="2.8284272"
       y="314.30897"
       width="82.554717"
       height="20.594485"
       id="rect789" /><rect
       x="-259.5"
       y="-152"
       width="166.5"
       height="69.5"
       id="rect7150" /><rect
       x="-150"
       y="342"
       width="116.25"
       height="54.5"
       id="rect7140" /><rect
       x="-4.875"
       y="115.75"
       width="157.125"
       height="68.375"
       id="rect2601" /><rect
       x="423"
       y="-6.625"
       width="43.0625"
       height="15.5625"
       id="rect2512" /><rect
       x="353.375"
       y="-25.125"
       width="102.625"
       height="20.5"
       id="rect2454" /><rect
       id="rect993"
       height="5.6126599"
       width="14.873549"
       y="53.15646"
       x="128.59019" /><rect
       x="-4.875"
       y="115.75"
       width="157.125"
       height="68.375"
       id="rect2601-5" /><rect
       x="-4.875"
       y="115.75"
       width="157.125"
       height="68.375"
       id="rect2601-5-3" /><rect
       x="-4.875"
       y="115.75"
       width="157.125"
       height="68.375"
       id="rect2601-5-3-7" /><rect
       x="-4.875"
       y="115.75"
       width="157.125"
       height="68.375"
       id="rect2601-5-3-7-7" /><rect
       x="-4.875"
       y="115.75"
       width="157.125"
       height="68.375"
       id="rect2601-5-3-7-7-5" /><rect
       x="-4.875"
       y="115.75"
       width="157.125"
       height="68.375"
       id="rect2601-5-3-7-7-5-1" /><rect
       x="-4.875"
       y="115.75"
       width="157.125"
       height="68.375"
       id="rect2601-5-4" /><rect
       x="-150"
       y="342"
       width="116.25"
       height="54.5"
       id="rect7140-4" /></defs><metadata
     id="metadata11000"><rdf:RDF><cc:Work
         rdf:about=""><dc:format>image/svg+xml</dc:format><dc:type
           rdf:resource="http://purl.org/dc/dcmitype/StillImage" /></cc:Work></rdf:RDF></metadata><g
     style="display:inline"
     transform="translate(-64.792954,-47.169623)"
     id="layer1"
     inkscape:groupmode="layer"
     inkscape:label="Panel Layer"><text
       id="text110"
       y="53.772301"
       x="75.943253"
       style="font-style:normal;font-weight:normal;font-size:4.58611px;line-height:1.25;font-family:sans-serif;letter-spacing:0px;word-spacing:0px;fill:#ffffff;fill-opacity:1;stroke:none;stroke-width:0.264583"
       xml:space="preserve" /><text
       id="text2911"
       y="98.467987"
       x="110.48083"
       style="font-style:normal;font-variant:normal;font-weight:normal;font-stretch:normal;font-size:3.88056px;line-height:1.25;font-family:'Share Tech Mono';-inkscape-font-specification:'Share Tech Mono';letter-spacing:0px;word-spacing:0px;fill:#ffffff;fill-opacity:1;stroke:none;stroke-width:0.264583"
       xml:space="preserve" /><text
       id="text2915"
       y="99.554665"
       x="101.74013"
       style="font-style:normal;font-variant:normal;font-weight:normal;font-stretch:normal;font-size:3.88056px;line-height:1.25;font-family:'Share Tech Mono';-inkscape-font-specification:'Share Tech Mono';letter-spacing:0px;word-spacing:0px;fill:#ffffff;fill-opacity:1;stroke:none;stroke-width:0.264583"
       xml:space="preserve" /><g
       transform="translate(-1.405896,4.2215415)"
       id="text2919"
       style="font-style:normal;font-variant:normal;font-weight:normal;font-stretch:normal;font-size:3.52778px;line-height:1.25;font-family:'Share Tech Mono';-inkscape-font-specification:'Share Tech Mono';letter-spacing:0px;word-spacing:0px;fill:#ffffb9;fill-opacity:1;stroke:none;stroke-width:0.264583"
       aria-label="LENGTH" /><text
       style="font-style:normal;font-variant:normal;font-weight:normal;font-stretch:normal;font-size:3.52778px;line-height:1.25;font-family:'Share Tech Mono';-inkscape-font-specification:'Share Tech Mono, Normal';font-variant-ligatures:normal;font-variant-caps:normal;font-variant-numeric:normal;font-variant-east-asian:normal;letter-spacing:0px;word-spacing:0px;white-space:pre;shape-inside:url(#rect993);display:inline"
       id="text991"
       xml:space="preserve" /><text
       xml:space="preserve"
       transform="matrix(0.26458333,0,0,0.26458333,64.792954,47.169623)"
       id="text7138"
       style="font-size:14.6667px;line-height:1.25;font-family:Pilat;-inkscape-font-specification:Pilat;letter-spacing:0px;word-spacing:0px;white-space:pre;shape-inside:url(#rect7140);display:inline" /><text
       xml:space="preserve"
       transform="matrix(0.26458333,0,0,0.26458333,64.792564,46.030141)"
       id="text7138-9"
       style="font-size:14.6667px;line-height:1.25;font-family:Pilat;-inkscape-font-specification:Pilat;letter-spacing:0px;word-spacing:0px;white-space:pre;shape-inside:url(#rect7140-4);display:inline" /><g
       id="g22"
       style="fill:#0c1117;fill-opacity:1"
       transform="matrix(0.35277779,0,0,0.35277779,64.793074,47.219206)">
	<path
   class="st0"
   d="M 6.316,12.365 5.312,5.239 c -0.021,-0.15 0.061,-0.18 0.15,-0.18 h 0.312 c 0.11,0 0.171,0.03 0.181,0.16 l 0.663,5.427 c 0.01,0.06 0.09,0.06 0.1,0 L 7.38,5.219 c 0.01,-0.13 0.07,-0.16 0.181,-0.16 h 0.312 c 0.09,0 0.17,0.03 0.15,0.18 l -1.004,7.126 c -0.021,0.14 -0.07,0.19 -0.171,0.19 H 6.487 c -0.101,0 -0.151,-0.05 -0.171,-0.19 z"
   id="path4"
   style="fill:#0c1117;fill-opacity:1" />
	<path
   class="st0"
   d="m 9.481,6.519 c 0,-0.919 0.412,-1.509 1.186,-1.509 0.783,0 1.194,0.59 1.194,1.509 v 4.578 c 0,0.919 -0.411,1.509 -1.194,1.509 -0.773,0 -1.186,-0.589 -1.186,-1.509 z m 1.185,5.477 c 0.432,0 0.552,-0.35 0.552,-1.089 V 6.708 c 0,-0.74 -0.12,-1.089 -0.552,-1.089 -0.422,0 -0.543,0.35 -0.543,1.089 v 4.198 c 0,0.74 0.121,1.09 0.543,1.09 z"
   id="path6"
   style="fill:#0c1117;fill-opacity:1" />
	<path
   class="st0"
   d="m 13.48,12.405 0.863,-3.538 c 0.01,-0.04 0.01,-0.08 0,-0.12 L 13.48,5.209 c -0.021,-0.09 0.04,-0.15 0.101,-0.15 h 0.401 c 0.07,0 0.13,0.06 0.15,0.15 l 0.532,2.399 c 0.01,0.05 0.07,0.05 0.08,0 l 0.532,-2.399 c 0.021,-0.09 0.08,-0.15 0.15,-0.15 h 0.392 c 0.07,0 0.121,0.06 0.101,0.15 l -0.854,3.538 c -0.01,0.04 -0.02,0.08 -0.01,0.12 l 0.863,3.538 c 0.021,0.09 -0.03,0.15 -0.101,0.15 h -0.392 c -0.07,0 -0.141,-0.06 -0.16,-0.15 l -0.522,-2.389 c -0.01,-0.05 -0.07,-0.05 -0.08,0 l -0.532,2.389 c -0.021,0.09 -0.08,0.15 -0.15,0.15 H 13.58 c -0.06,0 -0.121,-0.06 -0.1,-0.15 z"
   id="path8"
   style="fill:#0c1117;fill-opacity:1" />
	<path
   class="st0"
   d="m 17.438,6.519 c 0,-0.919 0.412,-1.509 1.186,-1.509 0.783,0 1.174,0.6 1.174,1.509 v 0.79 c 0,0.09 -0.06,0.15 -0.15,0.15 h -0.321 c -0.09,0 -0.15,-0.06 -0.15,-0.15 v -0.6 c 0,-0.74 -0.131,-1.089 -0.552,-1.089 -0.422,0 -0.543,0.35 -0.543,1.089 v 4.198 c 0,0.739 0.121,1.089 0.543,1.089 0.421,0 0.552,-0.35 0.552,-1.089 v -1.35 c 0,-0.09 -0.061,-0.15 -0.15,-0.15 h -0.251 c -0.091,0 -0.15,-0.05 -0.15,-0.15 v -0.3 c 0,-0.09 0.06,-0.15 0.15,-0.15 h 0.873 c 0.091,0 0.15,0.06 0.15,0.15 v 2.139 c 0,0.909 -0.391,1.509 -1.174,1.509 -0.773,0 -1.186,-0.589 -1.186,-1.509 V 6.519 Z"
   id="path10"
   style="fill:#0c1117;fill-opacity:1" />
	<path
   class="st0"
   d="m 21.778,5.209 c 0,-0.09 0.051,-0.15 0.151,-0.15 h 0.341 c 0.091,0 0.15,0.06 0.15,0.15 v 6.617 c 0,0.09 0.061,0.15 0.151,0.15 h 0.823 c 0.09,0 0.15,0.06 0.15,0.15 v 0.28 c 0,0.09 -0.061,0.15 -0.15,0.15 h -1.466 c -0.091,0 -0.151,-0.06 -0.151,-0.15 V 5.209 Z"
   id="path12"
   style="fill:#0c1117;fill-opacity:1" />
	<path
   class="st0"
   d="M 25.243,12.405 V 5.209 c 0,-0.09 0.051,-0.15 0.151,-0.15 h 0.341 c 0.091,0 0.15,0.06 0.15,0.15 v 7.196 c 0,0.09 -0.05,0.15 -0.15,0.15 h -0.341 c -0.09,0 -0.151,-0.06 -0.151,-0.15 z"
   id="path14"
   style="fill:#0c1117;fill-opacity:1" />
	<path
   class="st0"
   d="m 27.585,5.209 c 0,-0.09 0.061,-0.15 0.15,-0.15 h 1.737 c 0.09,0 0.15,0.05 0.15,0.15 v 0.31 c 0,0.09 -0.061,0.15 -0.15,0.15 H 29.06 c -0.09,0 -0.15,0.06 -0.15,0.15 v 6.586 c 0,0.09 -0.05,0.15 -0.15,0.15 h -0.331 c -0.091,0 -0.151,-0.06 -0.151,-0.15 V 5.819 c 0,-0.09 -0.06,-0.15 -0.15,-0.15 h -0.392 c -0.09,0 -0.15,-0.05 -0.15,-0.15 v -0.31 z"
   id="path16"
   style="fill:#0c1117;fill-opacity:1" />
	<path
   class="st0"
   d="m 31.222,6.519 c 0,-0.919 0.411,-1.509 1.185,-1.509 0.783,0 1.194,0.6 1.194,1.509 v 0.79 c 0,0.09 -0.06,0.15 -0.15,0.15 H 33.11 c -0.091,0 -0.151,-0.06 -0.151,-0.15 v -0.6 c 0,-0.74 -0.13,-1.089 -0.552,-1.089 -0.422,0 -0.542,0.35 -0.542,1.089 v 4.198 c 0,0.739 0.12,1.089 0.542,1.089 0.422,0 0.552,-0.35 0.552,-1.089 v -0.6 c 0,-0.09 0.061,-0.15 0.151,-0.15 h 0.341 c 0.091,0 0.15,0.06 0.15,0.15 v 0.79 c 0,0.909 -0.411,1.509 -1.194,1.509 -0.773,0 -1.185,-0.589 -1.185,-1.509 z"
   id="path18"
   style="fill:#0c1117;fill-opacity:1" />
	<path
   class="st0"
   d="M 35.541,12.405 V 5.209 c 0,-0.09 0.051,-0.15 0.151,-0.15 h 0.341 c 0.091,0 0.15,0.06 0.15,0.15 v 3.099 c 0,0.09 0.061,0.15 0.151,0.15 h 0.903 c 0.091,0 0.16,-0.06 0.16,-0.15 V 5.209 c 0,-0.09 0.051,-0.15 0.151,-0.15 h 0.331 c 0.091,0 0.15,0.06 0.15,0.15 v 7.196 c 0,0.09 -0.05,0.15 -0.15,0.15 H 37.55 c -0.091,0 -0.151,-0.06 -0.151,-0.15 V 9.217 c 0,-0.09 -0.069,-0.15 -0.16,-0.15 h -0.903 c -0.091,0 -0.151,0.06 -0.151,0.15 v 3.188 c 0,0.09 -0.05,0.15 -0.15,0.15 h -0.341 c -0.092,0 -0.153,-0.06 -0.153,-0.15 z"
   id="path20"
   style="fill:#0c1117;fill-opacity:1" />
</g><path
       class="st0"
       d="m 75.551034,55.969859 h -6.27627 c -0.83679,0 -1.51518,0.678392 -1.51518,1.515181 0,0.836789 0.67839,1.515181 1.51518,1.515181 h 6.27627 c 0.83679,0 1.51518,-0.678392 1.51518,-1.515181 0,-0.836789 -0.67804,-1.515181 -1.51518,-1.515181 z"
       id="path24"
       style="fill:#0c1117;fill-opacity:1;stroke-width:0.352778"
       sodipodi:nodetypes="sssssss" /><path
       class="st0"
       d="m 69.887894,56.941409 h -0.1838 v 0.511528 h 0.19614 c 0.12171,0 0.1711,-0.02469 0.1711,-0.229658 v -0.04939 c 0,-0.207786 -0.0519,-0.232481 -0.18344,-0.232481 z"
       id="path26"
       style="fill:#0c1117;fill-opacity:1;stroke-width:0.352778" /><path
       class="st0"
       d="m 66.518154,53.261584 h 11.78984 c 0.0487,0 0.0882,-0.03951 0.0882,-0.08819 0,-0.04868 -0.0395,-0.08819 -0.0882,-0.08819 h -11.78984 c -0.0487,0 -0.0882,0.03951 -0.0882,0.08819 0,0.04868 0.0395,0.08819 0.0882,0.08819"
       id="path30"
       style="fill:#0c1117;fill-opacity:1;stroke-width:0.352778" /><path
       class="st0"
       d="m 68.816854,68.423268 c -0.9853,-0.985308 -1.47743,-2.275417 -1.47743,-3.566936 0,-1.291167 0.49213,-2.581628 1.47743,-3.566936 0.0413,-0.04127 0.0413,-0.108303 0,-0.149578 -0.0413,-0.04127 -0.1083,-0.04127 -0.14957,0 -1.02623,1.025878 -1.53953,2.371725 -1.53953,3.716514 0,1.344789 0.5133,2.690283 1.53953,3.716514 0.0413,0.04128 0.1083,0.04128 0.14957,0 0.0416,-0.04127 0.0416,-0.108303 0,-0.149578 z"
       id="path32"
       style="fill:#0c1117;fill-opacity:1;stroke-width:0.352778" /><path
       class="st0"
       d="m 75.950374,61.289748 c 0.98531,0.985309 1.47744,2.275417 1.47744,3.566937 0,1.291166 -0.49213,2.581628 -1.47744,3.566936 -0.0413,0.04127 -0.0413,0.108303 0,0.149578 0.0413,0.04127 0.10831,0.04127 0.14958,0 1.02623,-1.025878 1.53952,-2.371725 1.53952,-3.716514 0,-1.344789 -0.51329,-2.690284 -1.53952,-3.716514 -0.0413,-0.04127 -0.1083,-0.04127 -0.14958,0 -0.0413,0.04128 -0.0413,0.108302 0,0.149577 z"
       id="path34"
       style="fill:#0c1117;fill-opacity:1;stroke-width:0.352778" /><g
       id="g60"
       style="fill:none;fill-opacity:1;stroke:#0c1117;stroke-opacity:1"
       transform="matrix(0.35277779,0,0,0.35277779,64.793074,47.219206)">
	<g
   id="g58"
   style="fill:none;fill-opacity:1;stroke:#0c1117;stroke-opacity:1">
		
	<rect
   style="opacity:1;fill:none;fill-opacity:1;fill-rule:evenodd;stroke:#0c1117;stroke-width:0.425197;stroke-linejoin:round;stroke-dasharray:none;stroke-opacity:1"
   id="rect1574"
   width="27.809999"
   height="9.4650002"
   x="7.7246609"
   y="347.70947" /></g>
</g><g
       aria-label="SP-16P"
       transform="matrix(0.33866667,0,0,0.33866667,68.377573,63.970185)"
       id="text787"
       style="font-size:6.25px;line-height:1.25;font-family:'Pilat Condensed';-inkscape-font-specification:'Pilat Condensed, ';letter-spacing:0.64px;word-spacing:0px;white-space:pre;shape-inside:url(#rect789)"><path
         d="m 4.284375,319.83984 c 0.8,0 1.2125,-0.29375 1.2125,-1.29375 v -0.0875 c 0,-0.83125 -0.25,-1.11875 -0.9375,-1.20625 l -0.3125,-0.0375 c -0.35625,-0.0437 -0.4375,-0.18125 -0.4375,-0.5625 v -0.0875 c 0,-0.43125 0.1125,-0.55625 0.4125,-0.55625 0.29375,0 0.41875,0.1 0.44375,0.61875 h 0.8125 c -0.025,-0.975 -0.425,-1.2875 -1.2125,-1.2875 h -0.075 c -0.825,0 -1.1875,0.3125 -1.1875,1.2875 v 0.0688 c 0,0.83125 0.25625,1.11875 0.94375,1.20625 l 0.3125,0.0375 c 0.35625,0.05 0.4375,0.175 0.4375,0.56875 v 0.10625 c 0,0.44375 -0.125,0.5625 -0.44375,0.5625 -0.26875,0 -0.43125,-0.0937 -0.45625,-0.5875 h -0.81875 c 0.01875,0.46875 0.13125,0.8 0.3375,0.98125 0.20625,0.18125 0.5125,0.26875 0.90625,0.26875 z"
         id="path2631" /><path
         d="m 7.3431262,318.32734 h 0.54375 c 0.81875,0 1.18125,-0.2125 1.18125,-1.3375 v -0.25 c 0,-1.15 -0.35,-1.3375 -1.18125,-1.3375 h -1.34375 v 4.375 h 0.8 z m 0.475,-2.25625 c 0.325,0 0.45,0.0812 0.45,0.65 v 0.3 c 0,0.5625 -0.11875,0.65 -0.45,0.65 h -0.475 v -1.6 z"
         id="path2633" /><path
         d="m 11.033127,318.26484 v -0.63125 h -1.11875 v 0.63125 z"
         id="path2635" /><path
         d="m 13.498126,315.40234 h -0.90625 l -0.68125,0.3375 v 0.80625 l 0.7875,-0.44375 h 0.03125 v 3.675 h 0.76875 z"
         id="path2637" /><path
         d="m 15.850621,319.83984 c 0.78125,0 1.15,-0.34375 1.15,-1.4125 v -0.19375 c 0,-0.925 -0.25625,-1.2625 -0.9375,-1.2625 -0.38125,0 -0.56875,0.15625 -0.6625,0.35625 h -0.03125 v -0.525 c 0,-0.675 0.11875,-0.8125 0.44375,-0.8125 0.26875,0 0.38125,0.10625 0.4125,0.53125 h 0.76875 c -0.05,-0.85625 -0.4125,-1.18125 -1.15625,-1.18125 h -0.05625 c -0.79375,0 -1.175,0.29375 -1.175,1.60625 v 1.29375 c 0,1.31875 0.39375,1.6 1.1875,1.6 z m -0.05,-0.64375 c -0.325,0 -0.425,-0.15 -0.425,-0.68125 v -0.28125 c 0,-0.54375 0.1,-0.6875 0.425,-0.6875 0.33125,0 0.43125,0.14375 0.43125,0.6875 v 0.28125 c 0,0.53125 -0.1,0.68125 -0.43125,0.68125 z"
         id="path2639" /><path
         d="m 18.896871,318.32734 h 0.54375 c 0.81875,0 1.18125,-0.2125 1.18125,-1.3375 v -0.25 c 0,-1.15 -0.35,-1.3375 -1.18125,-1.3375 h -1.34375 v 4.375 h 0.8 z m 0.475,-2.25625 c 0.325,0 0.45,0.0812 0.45,0.65 v 0.3 c 0,0.5625 -0.11875,0.65 -0.45,0.65 h -0.475 v -1.6 z"
         id="path2641" /></g><g
       aria-label="TRIG"
       transform="matrix(0.33866667,0,0,0.33866667,82.551732,40.673414)"
       id="text1888"
       style="font-size:7.29167px;line-height:1.25;font-family:Pilat;-inkscape-font-specification:Pilat;letter-spacing:0.75px;word-spacing:0px;white-space:pre;shape-inside:url(#rect1890)"><path
         d="m -34.824999,47.919793 h 0.947917 v -0.831251 h -2.814585 v 0.831251 h 0.926042 v 4.272918 h 0.940626 z"
         style="font-family:'Pilat Condensed';-inkscape-font-specification:'Pilat Condensed, ';fill:#ffffff"
         id="path2622" /><path
         d="m -31.829166,50.13646 h 0.546876 c 0.39375,0 0.532291,0.07292 0.532291,0.700001 v 1.35625 h 0.933334 v -1.297917 c 0,-0.918751 -0.196875,-1.079167 -0.590625,-1.166667 v -0.03646 c 0.39375,-0.102083 0.590625,-0.328125 0.590625,-1.152083 v -0.09479 c 0,-1.137501 -0.408333,-1.356251 -1.378125,-1.356251 h -1.567709 v 5.104169 h 0.933333 z m 0.539584,-2.260417 c 0.386458,0 0.539583,0.07292 0.539583,0.685417 v 0.145833 c 0,0.605209 -0.145833,0.678125 -0.503125,0.678125 h -0.576042 v -1.509375 z"
         style="font-family:'Pilat Condensed';-inkscape-font-specification:'Pilat Condensed, ';fill:#ffffff"
         id="path2624" /><path
         d="M -27.571866,47.088542 H -28.5052 v 5.104169 h 0.933334 z"
         style="font-family:'Pilat Condensed';-inkscape-font-specification:'Pilat Condensed, ';fill:#ffffff"
         id="path2626" /><path
         d="m -24.685413,52.265628 c 1.071875,0 1.502084,-0.422917 1.502084,-1.895834 v -1.122918 h -1.596876 v 0.816668 h 0.663542 v 0.473958 c 0,0.751042 -0.13125,0.933334 -0.56875,0.933334 h -0.06563 c -0.240625,0 -0.39375,-0.07292 -0.473959,-0.21875 -0.07292,-0.153125 -0.109375,-0.422917 -0.109375,-0.809376 v -1.589584 c 0,-0.39375 0.03646,-0.663542 0.109375,-0.809375 0.08021,-0.153125 0.233334,-0.226042 0.473959,-0.226042 h 0.05104 c 0.357291,0 0.510416,0.160417 0.546875,0.743751 h 0.955209 c -0.05833,-1.173959 -0.532292,-1.545834 -1.487501,-1.545834 h -0.08021 c -1.071875,0 -1.509375,0.422916 -1.509375,1.903125 v 1.451043 c 0,1.472917 0.4375,1.895834 1.509375,1.895834 z"
         style="font-family:'Pilat Condensed';-inkscape-font-specification:'Pilat Condensed, ';fill:#ffffff"
         id="path2628" /></g></g></svg>
