<?xml version="1.0" encoding="UTF-8" standalone="no"?>
<!-- Generator: Adobe Illustrator 26.1.0, SVG Export Plug-In . SVG Version: 6.00 Build 0)  -->

<svg
   version="1.1"
   id="Ebene_2"
   x="0px"
   y="0px"
   viewBox="0 0 748.8 364.252"
   xml:space="preserve"
   sodipodi:docname="four_track_panel-dark.svg"
   inkscape:version="1.3.2 (091e20e, 2023-11-25, custom)"
   width="264.16mm"
   height="128.5mm"
   xmlns:inkscape="http://www.inkscape.org/namespaces/inkscape"
   xmlns:sodipodi="http://sodipodi.sourceforge.net/DTD/sodipodi-0.dtd"
   xmlns:xlink="http://www.w3.org/1999/xlink"
   xmlns="http://www.w3.org/2000/svg"
   xmlns:svg="http://www.w3.org/2000/svg"><defs
   id="defs89"><linearGradient
     inkscape:collect="always"
     id="linearGradient1167"><stop
       style="stop-color:#f3ede7;stop-opacity:1;"
       offset="0"
       id="stop1163" /><stop
       style="stop-color:#f3ede7;stop-opacity:0;"
       offset="1"
       id="stop1165" /></linearGradient><linearGradient
     inkscape:collect="always"
     xlink:href="#linearGradient1167"
     id="linearGradient1201"
     x1="143.12399"
     y1="8.4440002"
     x2="183.271"
     y2="8.4440002"
     gradientUnits="userSpaceOnUse" /><linearGradient
     inkscape:collect="always"
     xlink:href="#swatch1"
     id="linearGradient1"
     x1="5.6843419e-14"
     y1="182.12599"
     x2="288.00003"
     y2="182.12599"
     gradientUnits="userSpaceOnUse" /><linearGradient
     id="swatch1"
     inkscape:swatch="solid"
     inkscape:label="LIght Panel Background"><stop
       style="stop-color:#18181a;stop-opacity:1;"
       offset="0"
       id="stop1" /></linearGradient><rect
     x="31.77519"
     y="71.188644"
     width="255.1181"
     height="85.548592"
     id="rect2-5-9-1-4" /><rect
     x="31.77519"
     y="71.188644"
     width="61.427994"
     height="14.297776"
     id="rect2-5-9-1-4-6" /><rect
     x="31.77519"
     y="71.188644"
     width="61.427994"
     height="14.297776"
     id="rect2-5-9-1-4-6-5" /><rect
     x="31.77519"
     y="71.188644"
     width="61.427994"
     height="14.297776"
     id="rect2-5-9-1-4-6-5-0" /><rect
     x="31.77519"
     y="71.188644"
     width="61.427994"
     height="14.297776"
     id="rect2-5-9-1-4-6-5-0-4" /><rect
     x="31.77519"
     y="71.188644"
     width="61.427994"
     height="14.297776"
     id="rect2-5-9-1-4-6-5-03" /><rect
     x="31.77519"
     y="71.188644"
     width="61.427994"
     height="14.297776"
     id="rect2-5-9-1-4-6-5-03-5" /><rect
     x="31.77519"
     y="71.188644"
     width="61.427994"
     height="14.297776"
     id="rect2-5-9-1-4-6-5-03-5-0" /><rect
     x="31.77519"
     y="71.188644"
     width="61.427994"
     height="14.297776"
     id="rect2-5-9-1-4-6-5-03-5-0-1" /><rect
     x="31.77519"
     y="71.188644"
     width="61.427994"
     height="14.297776"
     id="rect2-5-9-1-4-6-5-03-5-0-1-3" /><rect
     x="31.77519"
     y="71.188644"
     width="61.427994"
     height="14.297776"
     id="rect2-5-9-1-4-6-5-03-5-0-1-3-3" /><rect
     x="31.77519"
     y="71.188644"
     width="255.1181"
     height="85.548592"
     id="rect2-5-9-1-4-7" /><rect
     x="31.77519"
     y="71.188644"
     width="255.1181"
     height="85.548592"
     id="rect2-5-9-1-4-7-4" /><rect
     x="271"
     y="104.25"
     width="111.5"
     height="28.75"
     id="rect59198-4" /><rect
     x="271"
     y="104.25"
     width="111.5"
     height="28.75"
     id="rect59198-4-0" /><rect
     x="31.77519"
     y="71.188644"
     width="255.1181"
     height="85.548592"
     id="rect2-5-9-1-4-1" /><rect
     x="31.77519"
     y="71.188644"
     width="255.1181"
     height="85.548592"
     id="rect2-5-9-1-4-1-4" /><rect
     x="31.77519"
     y="71.188644"
     width="255.1181"
     height="85.548592"
     id="rect2-5-9-1-4-1-4-6" /><rect
     x="31.77519"
     y="71.188644"
     width="255.1181"
     height="85.548592"
     id="rect2-5-9-1-4-1-4-6-9" /><rect
     x="8"
     y="109.4375"
     width="80.1875"
     height="24"
     id="rect1-9-1" /><rect
     x="8"
     y="109.4375"
     width="80.1875"
     height="24"
     id="rect1-9-1-3" /></defs><sodipodi:namedview
   id="namedview87"
   pagecolor="#ffffff"
   bordercolor="#666666"
   borderopacity="1.0"
   inkscape:pageshadow="2"
   inkscape:pageopacity="0.0"
   inkscape:pagecheckerboard="0"
   showgrid="false"
   inkscape:zoom="1.6947174"
   inkscape:cx="626.94819"
   inkscape:cy="7.375861"
   inkscape:window-width="3840"
   inkscape:window-height="2054"
   inkscape:window-x="2869"
   inkscape:window-y="-11"
   inkscape:window-maximized="1"
   inkscape:current-layer="Ebene_2"
   units="mm"
   inkscape:document-units="mm"
   inkscape:showpageshadow="2"
   inkscape:deskcolor="#d1d1d1"
   showguides="true"><sodipodi:guide
     position="702.68713,12.830142"
     orientation="0,-1"
     id="guide1"
     inkscape:locked="false" /><sodipodi:guide
     position="661.22374,351.89121"
     orientation="0,-1"
     id="guide2"
     inkscape:locked="false" /></sodipodi:namedview>
<style
   type="text/css"
   id="style2">
	.st0{fill:#F3EDE7;}
	.st1{opacity:0.15;fill:#FFFFFF;}
	.st2{fill:#1C2729;}
</style>
<rect
   style="fill:url(#linearGradient1);fill-opacity:1;stroke-width:0.725673"
   id="rect350"
   width="748.80005"
   height="364.25198"
   x="0.055318967"
   y="0" /><g
   id="g2873"
   transform="matrix(2.8463038,0,0,3.4248425,-128.95006,-162.8915)"
   style="display:inline;stroke-width:0.709297"><path
     d="M 237.41684,150.15468 H 73.576678 c -0.469545,0 -0.917787,-0.4404 -0.917787,-0.91017 V 52.00299 c 0,-0.469771 0.448242,-0.910128 0.917787,-0.910128 H 237.41684 c 0.46955,0 0.91779,0.440357 0.91779,0.910128 v 97.24152 c 0,0.46977 -0.44824,0.91017 -0.91779,0.91017 z"
     id="path4"
     style="stroke:none;stroke-width:0.250225;stroke-opacity:1"
     sodipodi:nodetypes="sssssssss" /></g>







<rect
   style="fill:#3e3e3e;fill-opacity:1;stroke:none;stroke-width:0.283466"
   id="rect2-2"
   width="177.03146"
   height="338.64651"
   x="561.14423"
   y="-350.99973"
   rx="4.500001"
   ry="4.5"
   transform="scale(1,-1)" /><path
   class="st0"
   d="m 16.95287,107.45429 c -2.793,-2.793 -4.188,-6.45 -4.188,-10.110996 0,-3.66 1.395,-7.318 4.188,-10.11 0.117,-0.117 0.117,-0.307 0,-0.424 -0.117,-0.117 -0.307,-0.117 -0.424,0 -2.909,2.908 -4.364,6.723 -4.364,10.535 0,3.811996 1.455,7.625996 4.364,10.534996 0.117,0.117 0.307,0.117 0.424,0 0.117,-0.118 0.117,-0.308 0,-0.425 z"
   id="path132"
   style="fill:#f3ede7;fill-opacity:1;stroke:none" /><path
   class="st0"
   d="m 37.17387,87.233294 c 2.792,2.793 4.188,6.45 4.188,10.111 0,3.659996 -1.395,7.317996 -4.188,10.110996 -0.117,0.117 -0.117,0.307 0,0.424 0.117,0.117 0.307,0.117 0.424,0 2.908,-2.908 4.364,-6.723 4.364,-10.534996 0,-3.812 -1.455,-7.626 -4.364,-10.535 -0.117,-0.117 -0.307,-0.117 -0.424,0 -0.117,0.117 -0.117,0.307 0,0.424 z"
   id="path134"
   style="fill:#f3ede7;fill-opacity:1;stroke:none" /><path
   style="font-size:9.33333px;font-family:Pilat;-inkscape-font-specification:Pilat;text-align:center;letter-spacing:0.88px;white-space:pre;fill:#f3ede7;fill-opacity:1;stroke-width:0.283465"
   d="m 16.713385,77.18268 c 1.239,0 2.043997,-0.426999 2.043997,-1.581999 v -0.063 c 0,-0.888999 -0.518002,-1.294999 -1.602997,-1.344 l -0.665003,-0.021 c -0.636997,-0.028 -0.798,-0.181999 -0.798,-0.538999 v -0.035 c 0,-0.412999 0.266003,-0.574 0.875003,-0.574 0.531997,0 0.888997,0.119001 0.993997,0.588 h 1.140998 c -0.084,-0.987 -0.909998,-1.469999 -2.071995,-1.469999 h -0.084 c -1.309005,0 -1.960005,0.518 -1.960005,1.547 v 0.049 c 0,0.875 0.532005,1.288 1.603005,1.337 l 0.672,0.028 c 0.622995,0.028 0.798,0.182001 0.798,0.539001 v 0.063 c 0,0.440999 -0.329003,0.594999 -0.980003,0.594999 -0.462,0 -0.938002,-0.063 -1.035997,-0.539 H 14.50138 c 0.112005,1.036 0.945,1.421 2.149005,1.421 z m 5.566988,-4.031998 h 1.512 v -0.938 h -4.095001 v 0.938 h 1.491001 v 3.961999 h 1.092 z m 5.077005,-0.938 h -1.638 l -1.791998,4.899999 h 1.161998 l 0.399,-1.12 h 2.064998 l 0.399,1.12 h 1.203997 z m -0.812003,0.91 0.693,1.959999 h -1.434997 l 0.693,-1.959999 z m 4.824998,2.204999 h 1.204005 c 0.643995,0 0.819,0.119 0.819,0.672 v 1.113 h 1.084995 v -1.183 c 0,-0.854 -0.231,-1.028999 -0.748995,-1.112999 v -0.049 c 0.525,-0.084 0.748995,-0.406 0.748995,-1.133999 v -0.126 c 0,-0.952 -0.447997,-1.295 -1.665997,-1.295 h -2.526998 v 4.899999 h 1.084995 z m 1.211003,-2.212 c 0.615997,0 0.812002,0.154001 0.812002,0.651 v 0.042 c 0,0.469 -0.196005,0.623001 -0.700005,0.623001 h -1.323 v -1.316001 z m 5.531993,0.035 h 1.512 v -0.938 h -4.094993 v 0.938 h 1.490993 v 3.961999 h 1.092 z"
   id="text2-5-5-9-5-3"
   aria-label="START" /><path
   class="st0"
   d="m 16.95287,159.76353 c -2.793,-2.793 -4.188,-6.45 -4.188,-10.111 0,-3.66 1.395,-7.318 4.188,-10.11 0.117,-0.117 0.117,-0.307 0,-0.424 -0.117,-0.117 -0.307,-0.117 -0.424,0 -2.909,2.908 -4.364,6.723 -4.364,10.535 0,3.812 1.455,7.626 4.364,10.535 0.117,0.117 0.307,0.117 0.424,0 0.117,-0.118 0.117,-0.308 0,-0.425 z"
   id="path132-3"
   style="fill:#f3ede7;fill-opacity:1;stroke:none" /><path
   class="st0"
   d="m 37.17387,139.54253 c 2.792,2.793 4.188,6.45 4.188,10.111 0,3.66 -1.395,7.318 -4.188,10.111 -0.117,0.117 -0.117,0.307 0,0.424 0.117,0.117 0.307,0.117 0.424,0 2.908,-2.908 4.364,-6.723 4.364,-10.535 0,-3.812 -1.455,-7.626 -4.364,-10.535 -0.117,-0.117 -0.307,-0.117 -0.424,0 -0.117,0.117 -0.117,0.307 0,0.424 z"
   id="path134-7"
   style="fill:#f3ede7;fill-opacity:1;stroke:none" /><path
   style="font-size:9.33333px;font-family:Pilat;-inkscape-font-specification:Pilat;text-align:center;letter-spacing:0.88px;white-space:pre;fill:#f3ede7;fill-opacity:1;stroke-width:0.283465"
   d="m 18.813103,129.74452 c 1.239001,0 2.044006,-0.427 2.044006,-1.582 v -0.063 c 0,-0.88899 -0.518003,-1.29499 -1.603006,-1.34399 l -0.664995,-0.021 c -0.636997,-0.028 -0.798,-0.182 -0.798,-0.539 v -0.035 c 0,-0.413 0.266003,-0.574 0.874995,-0.574 0.532005,0 0.889005,0.119 0.994005,0.588 h 1.140998 c -0.084,-0.987 -0.909997,-1.47 -2.072003,-1.47 h -0.084 c -1.308997,0 -1.959997,0.518 -1.959997,1.547 v 0.049 c 0,0.875 0.532005,1.288 1.602997,1.337 l 0.672,0.028 c 0.623003,0.028 0.798,0.182 0.798,0.539 v 0.063 c 0,0.441 -0.328995,0.595 -0.979995,0.595 -0.462,0 -0.938002,-0.063 -1.035997,-0.539 h -1.141005 c 0.112005,1.036 0.945,1.421 2.148997,1.421 z m 5.566996,-4.032 h 1.512 v -0.938 h -4.095 v 0.938 h 1.491 v 3.962 h 1.092 z m 4.832003,4.032 c 1.574992,0 2.281995,-0.686 2.281995,-2.303 v -0.427 c 0,-1.617 -0.707003,-2.31 -2.281995,-2.31 h -0.09101 c -1.588995,0 -2.289001,0.693 -2.289001,2.31 v 0.427 c 0,1.617 0.700006,2.303 2.289001,2.303 z m -0.105,-0.945 c -0.973005,0 -1.176,-0.53901 -1.176,-1.428 v -0.294 c 0,-0.889 0.202995,-1.428 1.176,-1.428 h 0.118995 c 0.966,0 1.169002,0.539 1.169002,1.428 v 0.294 c 0,0.90299 -0.203002,1.41399 -1.169002,1.428 z m 4.824997,-0.67901 H 35.3601 c 1.197,0 1.68,-0.497 1.68,-1.56099 v -0.21001 c 0,-1.15499 -0.483,-1.57499 -1.68,-1.57499 h -2.513003 v 4.9 h 1.085002 z m 1.253003,-2.45699 c 0.588,0 0.769995,0.196 0.769995,0.749 v 0.07 c 0,0.539 -0.168,0.749 -0.762997,0.749 h -1.260001 v -1.568 z"
   id="text2-5-5-9-5-3-5"
   aria-label="STOP" /><path
   class="st0"
   d="m 16.95287,212.65808 c -2.793,-2.793 -4.188,-6.45 -4.188,-10.111 0,-3.66 1.395,-7.318 4.188,-10.11 0.117,-0.117 0.117,-0.307 0,-0.424 -0.117,-0.117 -0.307,-0.117 -0.424,0 -2.909,2.908 -4.364,6.723 -4.364,10.535 0,3.812 1.455,7.626 4.364,10.535 0.117,0.117 0.307,0.117 0.424,0 0.117,-0.118 0.117,-0.308 0,-0.425 z"
   id="path132-3-3"
   style="fill:#f3ede7;fill-opacity:1;stroke:none" /><path
   class="st0"
   d="m 37.17387,192.43708 c 2.792,2.793 4.188,6.45 4.188,10.111 0,3.66 -1.395,7.318 -4.188,10.111 -0.117,0.117 -0.117,0.307 0,0.424 0.117,0.117 0.307,0.117 0.424,0 2.908,-2.908 4.364,-6.723 4.364,-10.535 0,-3.812 -1.455,-7.626 -4.364,-10.535 -0.117,-0.117 -0.307,-0.117 -0.424,0 -0.117,0.117 -0.117,0.307 0,0.424 z"
   id="path134-7-3"
   style="fill:#f3ede7;fill-opacity:1;stroke:none" /><path
   style="font-size:9.33333px;font-family:Pilat;-inkscape-font-specification:Pilat;text-align:center;letter-spacing:0.88px;white-space:pre;fill:#f3ede7;fill-opacity:1;stroke-width:0.283465"
   d="m 15.741078,180.45335 h 1.204005 c 0.643995,0 0.819,0.119 0.819,0.672 v 1.113 h 1.084995 v -1.183 c 0,-0.854 -0.231,-1.029 -0.748995,-1.113 v -0.049 c 0.525,-0.084 0.748995,-0.406 0.748995,-1.134 v -0.126 c 0,-0.952 -0.447997,-1.295 -1.665997,-1.295 h -2.526998 v 4.9 h 1.084995 z m 1.211003,-2.212 c 0.615997,0 0.812002,0.154 0.812002,0.651 v 0.042 c 0,0.469 -0.196005,0.623 -0.700005,0.623 h -1.323 v -1.316 z m 6.918,3.087 h -2.562 v -1.092 h 2.562 v -0.903 h -2.562 v -1.085 h 2.562 v -0.91 h -3.647002 v 4.9 h 3.647002 z m 3.39,0.98 c 1.239001,0 2.043998,-0.427 2.043998,-1.582 v -0.063 c 0,-0.889 -0.518002,-1.295 -1.602997,-1.344 l -0.665003,-0.021 c -0.636998,-0.028 -0.798,-0.182 -0.798,-0.539 v -0.035 c 0,-0.413 0.266002,-0.574 0.875002,-0.574 0.531998,0 0.888998,0.119 0.993998,0.588 h 1.140998 c -0.084,-0.987 -0.909998,-1.47 -2.071996,-1.47 h -0.084 c -1.308997,0 -1.959997,0.518 -1.959997,1.547 v 0.049 c 0,0.875 0.531997,1.288 1.602997,1.337 l 0.672001,0.028 c 0.622995,0.028 0.798,0.182 0.798,0.539 v 0.063 c 0,0.441 -0.329003,0.595 -0.980003,0.595 -0.462,0 -0.937995,-0.063 -1.035998,-0.539 h -1.140997 c 0.111997,1.036 0.945,1.421 2.148997,1.421 z m 6.952996,-0.98 h -2.562 v -1.092 h 2.562 v -0.903 h -2.562 v -1.085 h 2.562 v -0.91 h -3.647003 v 4.9 h 3.647003 z m 3.642,-3.052 h 1.512 v -0.938 h -4.095 v 0.938 h 1.491 v 3.962 h 1.092 z"
   id="text2-5-5-9-5-3-5-5"
   aria-label="RESET" /><g
   id="g8"
   transform="translate(2.0658924)"><rect
     style="fill:#3e3e3e;fill-opacity:1;stroke:none;stroke-width:0.283466"
     id="rect2-2-9"
     width="45.287392"
     height="114.27477"
     x="13.85634"
     y="-351.0397"
     rx="4.5000005"
     ry="4.5"
     transform="scale(1,-1)" /><path
     d="m 150.71866,72.822786 h -1.764 l -1.39067,6.533331 h 1.24134 l 0.26133,-1.4 h 1.50267 l 0.27066,1.4 h 1.26934 z m -0.87733,1.250666 0.52266,2.846666 h -1.092 l 0.52267,-2.846666 z m 5.42533,5.375998 c 1.344,0 1.848,-0.457333 1.848,-2.314666 v -4.311998 h -1.204 v 4.321332 c 0,0.979999 -0.14934,1.203999 -0.66267,1.203999 h -0.0747 c -0.51333,0 -0.66266,-0.224 -0.66266,-1.203999 v -4.321332 h -1.204 v 4.311998 c 0,1.857333 0.504,2.314666 1.848,2.314666 z m 7.29199,-4.190665 c 0,-1.875999 -0.57866,-2.435999 -1.95066,-2.435999 h -1.904 v 6.533331 h 1.904 c 1.372,0 1.95066,-0.56 1.95066,-2.426666 z m -1.96933,-1.427999 c 0.59733,0 0.76533,0.335999 0.76533,1.343999 v 1.838666 c 0,0.998666 -0.17733,1.334666 -0.76533,1.334666 h -0.69066 v -4.517331 z m 4.76267,-1.008 h -1.19467 v 6.533331 h 1.19467 z m 3.61465,6.626664 c 1.38134,0 1.932,-0.541333 1.932,-2.426666 v -1.857332 c 0,-1.894666 -0.55066,-2.435999 -1.932,-2.435999 h -0.10266 c -1.372,0 -1.932,0.541333 -1.932,2.435999 v 1.857332 c 0,1.885333 0.56,2.426666 1.932,2.426666 z m -0.084,-1.017333 c -0.308,0 -0.504,-0.09333 -0.60666,-0.289333 -0.0933,-0.196 -0.14,-0.541333 -0.14,-1.036 v -2.025332 c 0,-0.504 0.0467,-0.849333 0.14,-1.036 0.10266,-0.196 0.29866,-0.289333 0.60666,-0.289333 h 0.0653 c 0.308,0 0.504,0.09333 0.59733,0.289333 0.10267,0.186667 0.14933,0.532 0.14933,1.036 v 2.025332 c 0,0.494667 -0.0467,0.84 -0.14933,1.036 -0.0933,0.196 -0.28933,0.289333 -0.59733,0.289333 z m -22.12265,12.683997 c 1.38133,0 1.932,-0.541333 1.932,-2.426665 v -1.857333 c 0,-1.894666 -0.55067,-2.435999 -1.932,-2.435999 h -0.10267 c -1.37199,0 -1.93199,0.541333 -1.93199,2.435999 v 1.857333 c 0,1.885332 0.56,2.426665 1.93199,2.426665 z m -0.084,-1.017333 c -0.308,0 -0.504,-0.09333 -0.60667,-0.289333 -0.0933,-0.196 -0.14,-0.541333 -0.14,-1.035999 v -2.025333 c 0,-0.504 0.0467,-0.849333 0.14,-1.036 0.10267,-0.196 0.29867,-0.289333 0.60667,-0.289333 h 0.0653 c 0.308,0 0.504,0.09333 0.59734,0.289333 0.10266,0.186667 0.14933,0.532 0.14933,1.036 v 2.025333 c 0,0.494666 -0.0467,0.839999 -0.14933,1.035999 -0.0933,0.196 -0.28934,0.289333 -0.59734,0.289333 z m 5.50933,1.017333 c 1.344,0 1.848,-0.457333 1.848,-2.314665 V 84.48945 h -1.204 v 4.321332 c 0,0.98 -0.14933,1.203999 -0.66266,1.203999 h -0.0747 c -0.51333,0 -0.66267,-0.223999 -0.66267,-1.203999 V 84.48945 h -1.204 v 4.311999 c 0,1.857332 0.504,2.314665 1.848,2.314665 z m 5.51867,-5.562664 h 1.21333 v -1.064 h -3.60266 v 1.064 h 1.18533 v 5.469331 h 1.204 z m 3.75466,3.303999 h 0.812 c 1.22267,0 1.764,-0.317334 1.764,-1.997333 v -0.373333 c 0,-1.717333 -0.52266,-1.997333 -1.764,-1.997333 h -2.00666 v 6.533331 h 1.19466 z m 0.70934,-3.369333 c 0.48533,0 0.672,0.121334 0.672,0.970667 v 0.448 c 0,0.839999 -0.17734,0.970666 -0.672,0.970666 h -0.70934 v -2.389333 z m 5.27599,5.627998 c 1.344,0 1.848,-0.457333 1.848,-2.314665 V 84.48945 h -1.204 v 4.321332 c 0,0.98 -0.14933,1.203999 -0.66267,1.203999 h -0.0747 c -0.51334,0 -0.66267,-0.223999 -0.66267,-1.203999 V 84.48945 h -1.204 v 4.311999 c 0,1.857332 0.504,2.314665 1.848,2.314665 z m 5.51867,-5.562664 h 1.21333 v -1.064 h -3.60267 v 1.064 h 1.18534 v 5.469331 h 1.204 z"
     id="text2-5-5-9-5-3-5-5-0"
     style="font-size:9.33333px;font-family:'Pilat Condensed';-inkscape-font-specification:'Pilat Condensed, ';text-align:center;letter-spacing:0.88px;white-space:pre;fill:#f3ede7;fill-opacity:1;stroke-width:0.377953"
     transform="matrix(0.75000005,0,0,0.75000005,-83.093655,194.54607)"
     aria-label="AUDIO&#10;OUTPUT" /></g><path
   class="st0"
   d="m 54.600909,21.17976 h 0.391002 c 0.114043,0 0.172082,-0.06822 0.172082,-0.171063 v -3.648338 c 0,-0.102841 0.06822,-0.171063 0.172082,-0.171063 h 1.033509 c 0.10386,0 0.184301,0.06822 0.184301,0.171063 v 3.648338 c 0,0.102842 0.06924,0.171063 0.172081,0.171063 h 0.379802 c 0.114043,0 0.172082,-0.06822 0.172082,-0.171063 v -8.233452 c 0,-0.102841 -0.06924,-0.171063 -0.172082,-0.171063 h -0.379802 c -0.114042,0 -0.172081,0.06822 -0.172081,0.171063 v 3.544478 c 0,0.102841 -0.08044,0.171063 -0.184301,0.171063 h -1.033509 c -0.10386,0 -0.172082,-0.06822 -0.172082,-0.171063 v -3.544478 c 0,-0.102841 -0.06822,-0.171063 -0.172082,-0.171063 h -0.391002 c -0.114042,0 -0.172082,0.06822 -0.172082,0.171063 v 8.233452 c 0,0.102842 0.06822,0.171063 0.172082,0.171063 z m -5.111542,-1.668888 c 0,1.051838 0.470425,1.726928 1.354253,1.726928 0.896048,0 1.366472,-0.686291 1.366472,-1.726928 v -0.903174 c 0,-0.102842 -0.06822,-0.171064 -0.172081,-0.171064 h -0.391003 c -0.10386,0 -0.172082,0.06822 -0.172082,0.171064 v 0.68629 c 0,0.846154 -0.148662,1.24632 -0.631306,1.24632 -0.482643,0 -0.619087,-0.400166 -0.619087,-1.24632 v -4.804034 c 0,-0.846154 0.137462,-1.24632 0.619087,-1.24632 0.481626,0 0.631306,0.400166 0.631306,1.24632 v 0.68629 c 0,0.102842 0.06822,0.171064 0.172082,0.171064 h 0.391003 c 0.10386,0 0.172081,-0.06822 0.172081,-0.171064 V 14.27307 c 0,-1.040637 -0.470424,-1.726928 -1.366472,-1.726928 -0.883828,0 -1.354253,0.67509 -1.354253,1.726928 z m -4.159491,-6.381281 c 0,0.114043 0.06822,0.171064 0.172082,0.171064 h 0.447005 c 0.10386,0 0.172082,0.06822 0.172082,0.171063 v 7.53596 c 0,0.102842 0.06924,0.171064 0.1731,0.171064 h 0.378783 c 0.114043,0 0.172082,-0.06822 0.172082,-0.171064 v -7.534941 c 0,-0.102842 0.06822,-0.171064 0.172082,-0.171064 h 0.470425 c 0.10386,0 0.1731,-0.06822 0.1731,-0.171064 v -0.355364 c 0,-0.114042 -0.06924,-0.171063 -0.1731,-0.171063 h -1.985559 c -0.10386,0 -0.172082,0.06822 -0.172082,0.171063 z m -2.504859,8.050169 h 0.391002 c 0.114042,0 0.172082,-0.06822 0.172082,-0.171063 v -8.233452 c 0,-0.102841 -0.06822,-0.171063 -0.172082,-0.171063 h -0.391002 c -0.114043,0 -0.172082,0.06822 -0.172082,0.171063 v 8.233452 c 0,0.102842 0.06924,0.171063 0.172082,0.171063 z m -4.135054,-0.171063 c 0,0.102842 0.06822,0.171063 0.172082,0.171063 h 1.676015 c 0.10386,0 0.172082,-0.06822 0.172082,-0.171063 v -0.319726 c 0,-0.102842 -0.06822,-0.171064 -0.172082,-0.171064 h -0.941868 c -0.10386,0 -0.172082,-0.06822 -0.172082,-0.171063 v -7.571599 c 0,-0.102841 -0.06822,-0.171063 -0.172081,-0.171063 h -0.391003 c -0.114042,0 -0.172082,0.06822 -0.172082,0.171063 v 8.233452 z m -4.96288,-1.497825 c 0,1.051838 0.470425,1.726928 1.354253,1.726928 0.896048,0 1.343053,-0.686291 1.343053,-1.726928 v -2.447837 c 0,-0.102842 -0.06822,-0.171064 -0.172082,-0.171064 h -0.998889 c -0.10386,0 -0.172082,0.06822 -0.172082,0.171064 v 0.343145 c 0,0.114042 0.06822,0.171063 0.172082,0.171063 h 0.287143 c 0.10386,0 0.172081,0.06822 0.172081,0.171064 v 1.543645 c 0,0.846153 -0.148662,1.24632 -0.631306,1.24632 -0.482643,0 -0.619087,-0.400167 -0.619087,-1.24632 v -4.801998 c 0,-0.846154 0.137462,-1.24632 0.619087,-1.24632 0.481626,0 0.631306,0.400166 0.631306,1.24632 v 0.68629 c 0,0.102842 0.06822,0.171064 0.172082,0.171064 h 0.367583 c 0.10386,0 0.172082,-0.06822 0.172082,-0.171064 V 14.27307 c 0,-1.040637 -0.447005,-1.726928 -1.343053,-1.726928 -0.883828,0 -1.354253,0.67509 -1.354253,1.726928 z M 29.31507,21.17976 h 0.459224 c 0.08044,0 0.148662,-0.06822 0.172082,-0.171063 l 0.608904,-2.732944 h 0.09266 l 0.596686,2.732944 c 0.0224,0.102842 0.10386,0.171063 0.184301,0.171063 h 0.447005 c 0.08044,0 0.13848,-0.06822 0.115061,-0.171063 l -0.987688,-4.048504 0.0112,-0.137462 0.976487,-4.048504 c 0.0224,-0.102842 -0.03462,-0.171063 -0.115061,-0.171063 h -0.447005 c -0.08044,0 -0.148662,0.06822 -0.172081,0.171063 l -0.608905,2.744144 h -0.09266 l -0.608904,-2.744144 c -0.0224,-0.102842 -0.09164,-0.171063 -0.172082,-0.171063 H 29.31507 c -0.06822,0 -0.137462,0.06822 -0.114043,0.171063 l 0.987689,4.048504 v 0.137462 l -0.987689,4.048504 c -0.02342,0.102842 0.0448,0.171063 0.114043,0.171063 z m -3.95279,-1.88679 v -4.803016 c 0,-0.846154 0.137462,-1.24632 0.620105,-1.24632 0.493844,0 0.631306,0.400166 0.631306,1.24632 v 4.803016 c 0,0.846154 -0.137462,1.24632 -0.631306,1.24632 -0.482643,0 -0.620105,-0.400166 -0.620105,-1.24632 z m -0.735166,0.217902 c 0,1.051838 0.470425,1.726928 1.355271,1.726928 0.896047,0 1.366472,-0.67509 1.366472,-1.726928 V 14.27307 c 0,-1.051838 -0.470425,-1.726928 -1.366472,-1.726928 -0.883828,0 -1.355271,0.67509 -1.355271,1.726928 z m -3.424326,1.668888 h 0.413404 c 0.115061,0 0.172082,-0.05702 0.194483,-0.216884 l 1.148569,-8.153011 c 0.0224,-0.171063 -0.06924,-0.205683 -0.172081,-0.205683 H 22.43078 c -0.126261,0 -0.194483,0.03462 -0.206702,0.183282 l -0.757567,6.2092 h -0.11506 l -0.758586,-6.2092 c -0.0112,-0.148662 -0.08044,-0.183282 -0.206701,-0.183282 h -0.356383 c -0.10386,0 -0.195501,0.03462 -0.172082,0.205683 l 1.14857,8.153011 c 0.02444,0.159863 0.08248,0.216884 0.196519,0.216884 z"
   id="path50-9"
   style="opacity:0.78;fill:#f3ede7;fill-opacity:1;stroke:none;stroke-width:0.78125" /><path
   class="st0"
   d="m 57.034432,26.568352 v 8.018002 H 20.097426 v -8.018002 h 36.937006 m 0,-0.5 H 20.097426 c -0.276009,0 -0.5,0.223993 -0.5,0.5 v 8.018002 c 0,0.27601 0.223994,0.500001 0.5,0.500001 h 36.937006 c 0.276009,0 0.5,-0.223994 0.5,-0.500001 v -8.018002 c 0,-0.27601 -0.223994,-0.5 -0.5,-0.5 z"
   id="path6-5"
   style="fill:#f4eee9;fill-opacity:1;stroke:none;stroke-width:1"
   sodipodi:nodetypes="cccccsssssssss" /><path
   d="m 23.986493,32.737353 c 0.816001,0 1.146001,-0.318 1.206001,-1.41 h -0.774001 c -0.036,0.624 -0.162,0.756 -0.456,0.756 h -0.036 c -0.198,0 -0.324,-0.06 -0.384,-0.186 -0.06,-0.126 -0.09,-0.348 -0.09,-0.666 v -1.302 c 0,-0.648 0.084,-0.852 0.474,-0.852 h 0.036 c 0.294,0 0.42,0.126 0.456,0.75 h 0.774001 c -0.06,-1.092 -0.39,-1.41 -1.206001,-1.41 h -0.09 c -0.882,0 -1.218,0.36 -1.218,1.56 v 1.2 c 0,1.2 0.336,1.56 1.218,1.56 z m 2.874004,0 c 0.864,0 1.188,-0.294 1.188,-1.488 v -2.772 h -0.774 v 2.778 c 0,0.63 -0.096,0.774 -0.426,0.774 h -0.048 c -0.33,0 -0.426,-0.144 -0.426,-0.774 v -2.778 h -0.774 v 2.772 c 0,1.194 0.324,1.488 1.188,1.488 z m 3.594001,-0.732 h -1.182 v -1.092 h 1.182 v -0.678 h -1.182 v -1.086 h 1.182 v -0.672 h -1.95 v 4.2 h 1.95 z m 2.525996,-1.02 h 0.45 c 0.324,0 0.438,0.06 0.438,0.576 v 1.116 h 0.768 v -1.068 c 0,-0.756 -0.162,-0.888 -0.486,-0.96 v -0.03 c 0.324,-0.084 0.486,-0.27 0.486,-0.948 v -0.078 c 0,-0.936 -0.336,-1.116 -1.134,-1.116 h -1.29 v 4.2 h 0.768 z m 0.444,-1.86 c 0.318,0 0.444,0.06 0.444,0.564 v 0.12 c 0,0.498 -0.12,0.558 -0.414,0.558 h -0.474 v -1.242 z m 3.624006,2.88 h -1.182 v -1.092 h 1.182 v -0.678 h -1.182 v -1.086 h 1.182 v -0.672 h -1.95 v 4.2 h 1.95 z m 1.583996,0.732 c 0.768,0 1.164,-0.282 1.164,-1.242 v -0.084 c 0,-0.798 -0.24,-1.074 -0.9,-1.158 l -0.3,-0.036 c -0.342,-0.042 -0.42,-0.174 -0.42,-0.54 v -0.084 c 0,-0.414 0.108,-0.534 0.396,-0.534 0.282,0 0.402,0.096 0.426,0.594 h 0.78 c -0.024,-0.936 -0.408,-1.236 -1.164,-1.236 h -0.072 c -0.792,0 -1.14,0.3 -1.14,1.236 v 0.066 c 0,0.798 0.246,1.074 0.906,1.158 l 0.3,0.036 c 0.342,0.048 0.42,0.168 0.42,0.546 v 0.102 c 0,0.426 -0.12,0.54 -0.426,0.54 -0.258,0 -0.414,-0.09 -0.438,-0.564 h -0.786 c 0.018,0.45 0.126,0.768 0.324,0.942 0.198,0.174 0.492,0.258 0.87,0.258 z m 3.504002,-0.732 h -1.182 v -1.092 h 1.182 v -0.678 h -1.182 v -1.086 h 1.182 v -0.672 h -1.95 v 4.2 h 1.95 z m 2.285996,-3.528 h -1.134 l -0.894,4.2 h 0.798 l 0.168,-0.9 h 0.966 l 0.174,0.9 h 0.816 z m -0.564,0.804 0.336,1.83 h -0.702 l 0.336,-1.83 z m 2.543998,1.704 h 0.45 c 0.324,0 0.438,0.06 0.438,0.576 v 1.116 h 0.768 v -1.068 c 0,-0.756 -0.162,-0.888 -0.486,-0.96 v -0.03 c 0.324,-0.084 0.486,-0.27 0.486,-0.948 v -0.078 c 0,-0.936 -0.336,-1.116 -1.134,-1.116 h -1.29 v 4.2 h 0.768 z m 0.444,-1.86 c 0.318,0 0.444,0.06 0.444,0.564 v 0.12 c 0,0.498 -0.12,0.558 -0.414,0.558 h -0.474 v -1.242 z m 2.940005,3.612 c 0.816,0 1.146,-0.318 1.206,-1.41 h -0.774 c -0.036,0.624 -0.162,0.756 -0.456,0.756 h -0.036 c -0.198,0 -0.324,-0.06 -0.384,-0.186 -0.06,-0.126 -0.09,-0.348 -0.09,-0.666 v -1.302 c 0,-0.648 0.084,-0.852 0.474,-0.852 h 0.036 c 0.294,0 0.42,0.126 0.456,0.75 h 0.774 c -0.06,-1.092 -0.39,-1.41 -1.206,-1.41 h -0.09 c -0.882,0 -1.218,0.36 -1.218,1.56 v 1.2 c 0,1.2 0.336,1.56 1.218,1.56 z m 4.158004,-4.26 h -0.768 v 1.758 h -0.978 v -1.758 h -0.768 v 4.2 h 0.768 v -1.764 h 0.978 v 1.764 h 0.768 z"
   id="text1-3-8"
   style="font-size:8px;font-family:'Pilat Condensed';-inkscape-font-specification:'Pilat Condensed, ';text-align:center;word-spacing:0.6px;white-space:pre;fill:#f4eee9;stroke-width:0.283465"
   aria-label="CUE RESEARCH" /><path
   class="st0"
   d="M 3.6884253,42.027589 H 73.443432 c 0.138,0 0.25,-0.112 0.25,-0.25 0,-0.138 -0.112,-0.25 -0.25,-0.25 H 3.6884253 c -0.138,0 -0.25,0.112 -0.25,0.25 0,0.138 0.112,0.25 0.25,0.25"
   id="path52"
   style="fill:#f3ede7;fill-opacity:1;stroke:none"
   sodipodi:nodetypes="csssssc" /></svg>
