<?xml version="1.0" encoding="UTF-8" standalone="no"?>
<!-- Created with Inkscape (http://www.inkscape.org/) -->

<svg
   width="21"
   height="21"
   viewBox="0 0 7.112 7.1119999"
   version="1.1"
   id="svg5"
   inkscape:version="1.2.2 (732a01da63, 2022-12-09)"
   sodipodi:docname="10.svg"
   xmlns:inkscape="http://www.inkscape.org/namespaces/inkscape"
   xmlns:sodipodi="http://sodipodi.sourceforge.net/DTD/sodipodi-0.dtd"
   xmlns="http://www.w3.org/2000/svg"
   xmlns:svg="http://www.w3.org/2000/svg">
  <sodipodi:namedview
     id="namedview7"
     pagecolor="#ffffff"
     bordercolor="#000000"
     borderopacity="0.25"
     inkscape:showpageshadow="2"
     inkscape:pageopacity="0.0"
     inkscape:pagecheckerboard="0"
     inkscape:deskcolor="#d1d1d1"
     inkscape:document-units="mm"
     showgrid="false"
     inkscape:zoom="16"
     inkscape:cx="21.0625"
     inkscape:cy="-5.75"
     inkscape:window-width="3840"
     inkscape:window-height="2066"
     inkscape:window-x="2869"
     inkscape:window-y="-11"
     inkscape:window-maximized="1"
     inkscape:current-layer="layer1" />
  <defs
     id="defs2">
    <rect
       x="-5.4375"
       y="-29.375"
       width="31.625"
       height="21.0625"
       id="rect9376" />
    <rect
       x="-4.6875"
       y="-33"
       width="29.6875"
       height="27.0625"
       id="rect9320" />
    <rect
       x="-4"
       y="-30.9375"
       width="32.8125"
       height="23.375"
       id="rect9288" />
    <rect
       x="-2.375"
       y="-31.0625"
       width="30.3125"
       height="22.75"
       id="rect9236" />
    <rect
       x="-2.375"
       y="-27.875"
       width="31.5"
       height="24.75"
       id="rect9186" />
    <rect
       x="-1.5"
       y="-29.1875"
       width="26.125"
       height="23.9375"
       id="rect9138" />
    <rect
       x="49"
       y="-212"
       width="273"
       height="179"
       id="rect9110" />
    <rect
       x="-17.766058"
       y="-25.367456"
       width="54.31464"
       height="23.555494"
       id="rect9104" />
    <rect
       x="-25.784372"
       y="-5.163537"
       width="36.211388"
       height="29.981829"
       id="rect9098" />
    <rect
       x="2.998183"
       y="3.0648091"
       width="19.72138"
       height="16.723198"
       id="rect2327" />
    <rect
       x="8.1032467"
       y="44.756306"
       width="47.394569"
       height="63.977959"
       id="rect1466" />
  </defs>
  <g
     inkscape:label="Layer 1"
     inkscape:groupmode="layer"
     id="layer1">
    <text
       xml:space="preserve"
       transform="scale(0.26458333)"
       id="text2325"
       style="font-size:13.3333px;font-family:sans-serif;-inkscape-font-specification:sans-serif;white-space:pre;shape-inside:url(#rect2327);display:inline;fill:#000000;fill-opacity:1;stroke:none;stroke-width:0.755906" />
    <text
       xml:space="preserve"
       transform="scale(0.26458333)"
       id="text9096"
       style="font-size:18.6667px;font-family:sans-serif;-inkscape-font-specification:'sans-serif, Normal';white-space:pre;shape-inside:url(#rect9098);display:inline;fill:#000000;stroke:#a7a7a7;stroke-width:0.755906" />
    <text
       xml:space="preserve"
       transform="scale(0.26458333)"
       id="text9102"
       style="font-size:18.6667px;font-family:sans-serif;-inkscape-font-specification:'sans-serif, Normal';white-space:pre;shape-inside:url(#rect9104);display:inline;fill:#000000;stroke:#a7a7a7;stroke-width:0.755906" />
    <g
       aria-label="10"
       transform="matrix(0.26458333,0,0,0.26458333,2.0832226,8.6164381)"
       id="text9374"
       style="font-size:18.6667px;-inkscape-font-specification:'sans-serif, Normal';letter-spacing:-3.03px;white-space:pre;shape-inside:url(#rect9376);display:inline;fill:#ffd714;fill-opacity:1;stroke-width:0.755906">
      <path
         d="m 4.4427262,-12.344803 h -7.3463675 v -1.38542 h 2.82552597 v -9.09637 H -2.9036413 v -1.239586 q 0.5742198,0 1.230471,-0.09115 0.6562512,-0.10026 0.99349139,-0.282552 0.41927159,-0.227865 0.65625118,-0.57422 0.2460942,-0.355469 0.2825526,-0.947918 H 1.6718878 v 12.231792 h 2.7708384 z"
         id="path9404"
         style="fill:#ffd714;fill-opacity:1" />
      <path
         d="m 14.036447,-19.13518 q 0,3.654954 -1.14844,5.368499 -1.139325,1.70443 -3.5455792,1.70443 -2.4427127,0 -3.5729231,-1.731774 -1.1210958,-1.731774 -1.1210958,-5.322926 0,-3.618496 1.139325,-5.341155 1.139325,-1.731774 3.5546939,-1.731774 2.4427132,0 3.5638082,1.759117 1.130211,1.750003 1.130211,5.295583 z m -2.39714,4.138028 q 0.319011,-0.738282 0.428386,-1.731774 0.11849,-1.002606 0.11849,-2.406254 0,-1.385419 -0.11849,-2.406255 -0.109375,-1.020835 -0.437501,-1.731773 -0.319011,-0.701825 -0.875001,-1.057294 -0.546876,-0.355469 -1.4127632,-0.355469 -0.8567724,0 -1.4218776,0.355469 -0.5559905,0.355469 -0.8841161,1.075523 -0.3098964,0.67448 -0.4283862,1.759117 -0.1093752,1.084638 -0.1093752,2.378911 0,1.421878 0.1002606,2.378911 0.1002606,0.957033 0.4283862,1.713544 0.3007818,0.710939 0.8476577,1.084638 0.5559906,0.373698 1.4674506,0.373698 0.8567722,0 1.4218772,-0.355469 0.565106,-0.355469 0.875002,-1.075523 z"
         id="path9406"
         style="fill:#ffd714;fill-opacity:1" />
    </g>
  </g>
</svg>
