<?xml version="1.0" encoding="UTF-8" standalone="no"?>
<!-- Created with Inkscape (http://www.inkscape.org/) -->

<svg
   width="21"
   height="21"
   viewBox="0 0 7.112 7.1119999"
   version="1.1"
   id="svg5"
   inkscape:version="1.2.2 (732a01da63, 2022-12-09)"
   sodipodi:docname="12.svg"
   xmlns:inkscape="http://www.inkscape.org/namespaces/inkscape"
   xmlns:sodipodi="http://sodipodi.sourceforge.net/DTD/sodipodi-0.dtd"
   xmlns="http://www.w3.org/2000/svg"
   xmlns:svg="http://www.w3.org/2000/svg">
  <sodipodi:namedview
     id="namedview7"
     pagecolor="#ffffff"
     bordercolor="#000000"
     borderopacity="0.25"
     inkscape:showpageshadow="2"
     inkscape:pageopacity="0.0"
     inkscape:pagecheckerboard="0"
     inkscape:deskcolor="#d1d1d1"
     inkscape:document-units="mm"
     showgrid="false"
     inkscape:zoom="16"
     inkscape:cx="21.0625"
     inkscape:cy="-5.75"
     inkscape:window-width="3840"
     inkscape:window-height="2066"
     inkscape:window-x="2869"
     inkscape:window-y="-11"
     inkscape:window-maximized="1"
     inkscape:current-layer="layer1" />
  <defs
     id="defs2">
    <rect
       x="-4"
       y="-30.9375"
       width="32.8125"
       height="23.375"
       id="rect9288" />
    <rect
       x="-2.375"
       y="-31.0625"
       width="30.3125"
       height="22.75"
       id="rect9236" />
    <rect
       x="-2.375"
       y="-27.875"
       width="31.5"
       height="24.75"
       id="rect9186" />
    <rect
       x="-1.5"
       y="-29.1875"
       width="26.125"
       height="23.9375"
       id="rect9138" />
    <rect
       x="49"
       y="-212"
       width="273"
       height="179"
       id="rect9110" />
    <rect
       x="-17.766058"
       y="-25.367456"
       width="54.31464"
       height="23.555494"
       id="rect9104" />
    <rect
       x="-25.784372"
       y="-5.163537"
       width="36.211388"
       height="29.981829"
       id="rect9098" />
    <rect
       x="2.998183"
       y="3.0648091"
       width="19.72138"
       height="16.723198"
       id="rect2327" />
    <rect
       x="8.1032467"
       y="44.756306"
       width="47.394569"
       height="63.977959"
       id="rect1466" />
  </defs>
  <g
     inkscape:label="Layer 1"
     inkscape:groupmode="layer"
     id="layer1">
    <text
       xml:space="preserve"
       transform="scale(0.26458333)"
       id="text2325"
       style="font-size:13.3333px;font-family:sans-serif;-inkscape-font-specification:sans-serif;white-space:pre;shape-inside:url(#rect2327);display:inline;fill:#000000;fill-opacity:1;stroke:none;stroke-width:0.755906" />
    <text
       xml:space="preserve"
       transform="scale(0.26458333)"
       id="text9096"
       style="font-size:18.6667px;font-family:sans-serif;-inkscape-font-specification:'sans-serif, Normal';white-space:pre;shape-inside:url(#rect9098);display:inline;fill:#000000;stroke:#a7a7a7;stroke-width:0.755906" />
    <text
       xml:space="preserve"
       transform="scale(0.26458333)"
       id="text9102"
       style="font-size:18.6667px;font-family:sans-serif;-inkscape-font-specification:'sans-serif, Normal';white-space:pre;shape-inside:url(#rect9104);display:inline;fill:#000000;stroke:#a7a7a7;stroke-width:0.755906" />
    <g
       aria-label="12"
       transform="matrix(0.26458333,0,0,0.26458333,1.7004725,9.0684347)"
       id="text9286"
       style="font-size:18.6667px;-inkscape-font-specification:'sans-serif, Normal';letter-spacing:-3.03px;white-space:pre;shape-inside:url(#rect9288);fill:#ffd714;fill-opacity:1;stroke-width:0.755906">
      <path
         d="m 5.8802262,-13.907303 h -7.3463675 v -1.38542 h 2.825526 v -9.09637 h -2.825526 v -1.239586 q 0.57421983,0 1.23047101,-0.09115 0.65625119,-0.10026 0.99349138,-0.282552 0.41927161,-0.227865 0.65625121,-0.57422 0.2460942,-0.355469 0.2825526,-0.947918 h 1.4127629 v 12.231792 h 2.7708384 z"
         id="path9292"
         style="fill:#ffd714;fill-opacity:1" />
      <path
         d="M 15.492176,-13.907303 H 6.3046593 v -1.904952 q 0.957033,-0.820314 1.914066,-1.640628 0.9661475,-0.820314 1.7955757,-1.631513 1.750004,-1.695316 2.39714,-2.688807 0.647137,-1.002606 0.647137,-2.16016 0,-1.057294 -0.701824,-1.649743 -0.69271,-0.601563 -1.94141,-0.601563 -0.8294288,0 -1.7955763,0.291667 -0.9661476,0.291667 -1.8867222,0.893231 h -0.091146 v -1.914066 q 0.6471366,-0.319011 1.7226594,-0.583335 1.0846373,-0.264323 2.0963581,-0.264323 2.087243,0 3.272141,1.011721 1.184898,1.002606 1.184898,2.725265 0,0.774741 -0.200521,1.449221 -0.191407,0.665366 -0.57422,1.26693 -0.355469,0.565105 -0.838543,1.111981 -0.473959,0.546876 -1.157554,1.212242 -0.975262,0.957033 -2.014327,1.859378 -1.0390642,0.893231 -1.9414095,1.658857 h 7.3007945 z"
         id="path9294"
         style="fill:#ffd714;fill-opacity:1" />
    </g>
  </g>
</svg>
