<?xml version="1.0" encoding="UTF-8" standalone="no"?>
<!-- Created with Inkscape (http://www.inkscape.org/) -->

<svg
   width="21"
   height="21"
   viewBox="0 0 7.112 7.1119999"
   version="1.1"
   id="svg5"
   inkscape:version="1.2.2 (732a01da63, 2022-12-09)"
   sodipodi:docname="3.svg"
   xmlns:inkscape="http://www.inkscape.org/namespaces/inkscape"
   xmlns:sodipodi="http://sodipodi.sourceforge.net/DTD/sodipodi-0.dtd"
   xmlns="http://www.w3.org/2000/svg"
   xmlns:svg="http://www.w3.org/2000/svg">
  <sodipodi:namedview
     id="namedview7"
     pagecolor="#ffffff"
     bordercolor="#000000"
     borderopacity="0.25"
     inkscape:showpageshadow="2"
     inkscape:pageopacity="0.0"
     inkscape:pagecheckerboard="0"
     inkscape:deskcolor="#d1d1d1"
     inkscape:document-units="mm"
     showgrid="false"
     inkscape:zoom="16"
     inkscape:cx="21.0625"
     inkscape:cy="-5.75"
     inkscape:window-width="3840"
     inkscape:window-height="2066"
     inkscape:window-x="2869"
     inkscape:window-y="-11"
     inkscape:window-maximized="1"
     inkscape:current-layer="layer1" />
  <defs
     id="defs2">
    <rect
       x="-1.0625"
       y="-37.875"
       width="32.375"
       height="30.5"
       id="rect9692" />
    <rect
       x="0.9375"
       y="-32.3125"
       width="26.25"
       height="21.1875"
       id="rect9627" />
    <rect
       x="-6.6875"
       y="-38.5"
       width="33.8125"
       height="30.25"
       id="rect9564" />
    <rect
       x="0.6875"
       y="-32.4375"
       width="25.25"
       height="26.75"
       id="rect9530" />
    <rect
       x="0.5625"
       y="-30.3125"
       width="22.625"
       height="22.0625"
       id="rect9466" />
    <rect
       x="-2.625"
       y="-34.3125"
       width="29.875"
       height="22.25"
       id="rect9434" />
    <rect
       x="-5.4375"
       y="-29.375"
       width="31.625"
       height="21.0625"
       id="rect9376" />
    <rect
       x="-4.6875"
       y="-33"
       width="29.6875"
       height="27.0625"
       id="rect9320" />
    <rect
       x="-4"
       y="-30.9375"
       width="32.8125"
       height="23.375"
       id="rect9288" />
    <rect
       x="-2.375"
       y="-31.0625"
       width="30.3125"
       height="22.75"
       id="rect9236" />
    <rect
       x="-2.375"
       y="-27.875"
       width="31.5"
       height="24.75"
       id="rect9186" />
    <rect
       x="-1.5"
       y="-29.1875"
       width="26.125"
       height="23.9375"
       id="rect9138" />
    <rect
       x="49"
       y="-212"
       width="273"
       height="179"
       id="rect9110" />
    <rect
       x="-17.766058"
       y="-25.367456"
       width="54.31464"
       height="23.555494"
       id="rect9104" />
    <rect
       x="-25.784372"
       y="-5.163537"
       width="36.211388"
       height="29.981829"
       id="rect9098" />
    <rect
       x="2.998183"
       y="3.0648091"
       width="19.72138"
       height="16.723198"
       id="rect2327" />
    <rect
       x="8.1032467"
       y="44.756306"
       width="47.394569"
       height="63.977959"
       id="rect1466" />
  </defs>
  <g
     inkscape:label="Layer 1"
     inkscape:groupmode="layer"
     id="layer1">
    <text
       xml:space="preserve"
       transform="scale(0.26458333)"
       id="text2325"
       style="font-size:13.3333px;font-family:sans-serif;-inkscape-font-specification:sans-serif;white-space:pre;shape-inside:url(#rect2327);display:inline;fill:#000000;fill-opacity:1;stroke:none;stroke-width:0.755906" />
    <text
       xml:space="preserve"
       transform="scale(0.26458333)"
       id="text9096"
       style="font-size:18.6667px;font-family:sans-serif;-inkscape-font-specification:'sans-serif, Normal';white-space:pre;shape-inside:url(#rect9098);display:inline;fill:#000000;stroke:#a7a7a7;stroke-width:0.755906" />
    <text
       xml:space="preserve"
       transform="scale(0.26458333)"
       id="text9102"
       style="font-size:18.6667px;font-family:sans-serif;-inkscape-font-specification:'sans-serif, Normal';white-space:pre;shape-inside:url(#rect9104);display:inline;fill:#000000;stroke:#a7a7a7;stroke-width:0.755906" />
    <g
       aria-label="3"
       transform="matrix(0.26458333,0,0,0.26458333,2.2515117,10.866603)"
       id="text9690"
       style="font-size:18.6667px;-inkscape-font-specification:'sans-serif, Normal';white-space:pre;shape-inside:url(#rect9692);fill:#ffd714;fill-opacity:1;stroke-width:0.755906">
      <path
         d="m 8.3984546,-27.379971 q 0.4375008,0.391927 0.7200534,0.984376 0.2825526,0.592449 0.2825526,1.531253 0,0.929689 -0.3372402,1.70443 -0.3372402,0.774741 -0.9479184,1.348961 -0.683595,0.638022 -1.6132842,0.947918 -0.9205746,0.300782 -2.0234411,0.300782 -1.1302104,0 -2.2239624,-0.273438 -1.093752,-0.264323 -1.79557614,-0.583334 v -1.904951 h 0.136719 q 0.77474094,0.510417 1.82291994,0.847657 1.048179,0.33724 2.0234412,0.33724 0.5742198,0 1.2213563,-0.191406 0.6471366,-0.191407 1.048179,-0.565105 0.4192716,-0.401043 0.6197928,-0.884116 0.2096358,-0.483074 0.2096358,-1.221357 0,-0.729168 -0.2369796,-1.203127 -0.227865,-0.483074 -0.638022,-0.756512 -0.410157,-0.282552 -0.9934914,-0.382813 -0.5833343,-0.109375 -1.2578147,-0.109375 h -0.820314 v -1.513024 h 0.638022 q 1.3854191,0 2.2057331,-0.57422 0.8294286,-0.583334 0.8294286,-1.695315 0,-0.492188 -0.2096358,-0.856772 -0.2096358,-0.373699 -0.5833344,-0.610679 -0.3919278,-0.236979 -0.8385432,-0.328125 -0.4466153,-0.09115 -1.0117205,-0.09115 -0.865887,0 -1.8411492,0.309896 -0.9752622,0.309897 -1.84114915,0.875002 h -0.091146 v -1.904952 q 0.64713655,-0.319011 1.72265935,-0.583334 1.0846374,-0.273438 2.096358,-0.273438 0.9934913,0 1.7500031,0.182292 0.7565118,0.182292 1.36719,0.583334 0.6562512,0.437501 0.9934914,1.057294 0.3372402,0.619793 0.3372402,1.449221 0,1.130211 -0.8020848,1.977868 -0.7929702,0.838544 -1.8776076,1.057294 v 0.127604 q 0.4375008,0.07292 1.002606,0.309897 0.5651052,0.227865 0.957033,0.57422 z"
         id="path9696"
         style="fill:#ffd714;fill-opacity:1" />
    </g>
  </g>
</svg>
