<?xml version="1.0" encoding="UTF-8" standalone="no"?>
<!-- Created with Inkscape (http://www.inkscape.org/) -->

<svg
   width="21"
   height="21"
   viewBox="0 0 7.112 7.1119999"
   version="1.1"
   id="svg5"
   inkscape:version="1.2.2 (732a01da63, 2022-12-09)"
   sodipodi:docname="5.svg"
   xmlns:inkscape="http://www.inkscape.org/namespaces/inkscape"
   xmlns:sodipodi="http://sodipodi.sourceforge.net/DTD/sodipodi-0.dtd"
   xmlns="http://www.w3.org/2000/svg"
   xmlns:svg="http://www.w3.org/2000/svg">
  <sodipodi:namedview
     id="namedview7"
     pagecolor="#ffffff"
     bordercolor="#000000"
     borderopacity="0.25"
     inkscape:showpageshadow="2"
     inkscape:pageopacity="0.0"
     inkscape:pagecheckerboard="0"
     inkscape:deskcolor="#d1d1d1"
     inkscape:document-units="mm"
     showgrid="false"
     inkscape:zoom="16"
     inkscape:cx="20.90625"
     inkscape:cy="-5.875"
     inkscape:window-width="3840"
     inkscape:window-height="2066"
     inkscape:window-x="2869"
     inkscape:window-y="-11"
     inkscape:window-maximized="1"
     inkscape:current-layer="layer1" />
  <defs
     id="defs2">
    <rect
       x="-6.6875"
       y="-38.5"
       width="33.8125"
       height="30.25"
       id="rect9564" />
    <rect
       x="0.6875"
       y="-32.4375"
       width="25.25"
       height="26.75"
       id="rect9530" />
    <rect
       x="0.5625"
       y="-30.3125"
       width="22.625"
       height="22.0625"
       id="rect9466" />
    <rect
       x="-2.625"
       y="-34.3125"
       width="29.875"
       height="22.25"
       id="rect9434" />
    <rect
       x="-5.4375"
       y="-29.375"
       width="31.625"
       height="21.0625"
       id="rect9376" />
    <rect
       x="-4.6875"
       y="-33"
       width="29.6875"
       height="27.0625"
       id="rect9320" />
    <rect
       x="-4"
       y="-30.9375"
       width="32.8125"
       height="23.375"
       id="rect9288" />
    <rect
       x="-2.375"
       y="-31.0625"
       width="30.3125"
       height="22.75"
       id="rect9236" />
    <rect
       x="-2.375"
       y="-27.875"
       width="31.5"
       height="24.75"
       id="rect9186" />
    <rect
       x="-1.5"
       y="-29.1875"
       width="26.125"
       height="23.9375"
       id="rect9138" />
    <rect
       x="49"
       y="-212"
       width="273"
       height="179"
       id="rect9110" />
    <rect
       x="-17.766058"
       y="-25.367456"
       width="54.31464"
       height="23.555494"
       id="rect9104" />
    <rect
       x="-25.784372"
       y="-5.163537"
       width="36.211388"
       height="29.981829"
       id="rect9098" />
    <rect
       x="2.998183"
       y="3.0648091"
       width="19.72138"
       height="16.723198"
       id="rect2327" />
    <rect
       x="8.1032467"
       y="44.756306"
       width="47.394569"
       height="63.977959"
       id="rect1466" />
  </defs>
  <g
     inkscape:label="Layer 1"
     inkscape:groupmode="layer"
     id="layer1">
    <text
       xml:space="preserve"
       transform="scale(0.26458333)"
       id="text2325"
       style="font-size:13.3333px;font-family:sans-serif;-inkscape-font-specification:sans-serif;white-space:pre;shape-inside:url(#rect2327);display:inline;fill:#000000;fill-opacity:1;stroke:none;stroke-width:0.755906" />
    <text
       xml:space="preserve"
       transform="scale(0.26458333)"
       id="text9096"
       style="font-size:18.6667px;font-family:sans-serif;-inkscape-font-specification:'sans-serif, Normal';white-space:pre;shape-inside:url(#rect9098);display:inline;fill:#000000;stroke:#a7a7a7;stroke-width:0.755906" />
    <text
       xml:space="preserve"
       transform="scale(0.26458333)"
       id="text9102"
       style="font-size:18.6667px;font-family:sans-serif;-inkscape-font-specification:'sans-serif, Normal';white-space:pre;shape-inside:url(#rect9104);display:inline;fill:#000000;stroke:#a7a7a7;stroke-width:0.755906" />
    <g
       aria-label="5"
       transform="matrix(0.26458333,0,0,0.26458333,3.7048252,10.994587)"
       id="text9562"
       style="font-size:18.6667px;-inkscape-font-specification:'sans-serif, Normal';white-space:pre;shape-inside:url(#rect9564);display:inline;fill:#ffd714;fill-opacity:1;stroke-width:0.755906">
      <path
         d="m 3.858092,-25.781009 q 0,0.947918 -0.3463548,1.813805 -0.3463548,0.865887 -0.9479184,1.458336 -0.6562512,0.638022 -1.56771118,0.984377 -0.90234538,0.33724 -2.09635792,0.33724 -1.1119812,0 -2.141931,-0.236979 -1.0299498,-0.227865 -1.7408885,-0.555991 v -1.92318 h 0.1276044 q 0.7473971,0.473959 1.7500031,0.811199 1.002606,0.328125 1.9687536,0.328125 0.64713655,0 1.24870014,-0.182292 0.61067819,-0.182292 1.08463736,-0.638021 0.4010424,-0.391928 0.6015636,-0.938804 0.2096358,-0.546876 0.2096358,-1.26693 0,-0.701824 -0.2460942,-1.184898 -0.2369796,-0.483073 -0.6653658,-0.774741 -0.47395917,-0.346354 -1.15755416,-0.483073 -0.67448038,-0.145834 -1.51302354,-0.145834 -0.8020848,0 -1.549482,0.109375 -0.7382826,0.109375 -1.276044,0.218751 v -6.990898 H 3.766946 v 1.595055 h -6.4075637 v 3.609381 q 0.3919278,-0.03646 0.8020848,-0.05469 0.410157,-0.01823 0.7109388,-0.01823 1.10286654,0 1.93229512,0.191407 0.82942858,0.182292 1.52213818,0.656251 0.729168,0.501303 1.1302104,1.294273 0.4010424,0.79297 0.4010424,1.986983 z"
         id="path9596"
         style="fill:#ffd714;fill-opacity:1" />
    </g>
  </g>
</svg>
