<?xml version="1.0" encoding="UTF-8" standalone="no"?>
<!-- Created with Inkscape (http://www.inkscape.org/) -->

<svg
   width="21"
   height="21"
   viewBox="0 0 7.112 7.1119999"
   version="1.1"
   id="svg5"
   inkscape:version="1.2.2 (732a01da63, 2022-12-09)"
   sodipodi:docname="8.svg"
   xmlns:inkscape="http://www.inkscape.org/namespaces/inkscape"
   xmlns:sodipodi="http://sodipodi.sourceforge.net/DTD/sodipodi-0.dtd"
   xmlns="http://www.w3.org/2000/svg"
   xmlns:svg="http://www.w3.org/2000/svg">
  <sodipodi:namedview
     id="namedview7"
     pagecolor="#ffffff"
     bordercolor="#000000"
     borderopacity="0.25"
     inkscape:showpageshadow="2"
     inkscape:pageopacity="0.0"
     inkscape:pagecheckerboard="0"
     inkscape:deskcolor="#d1d1d1"
     inkscape:document-units="mm"
     showgrid="false"
     inkscape:zoom="16"
     inkscape:cx="21.0625"
     inkscape:cy="-5.75"
     inkscape:window-width="3840"
     inkscape:window-height="2066"
     inkscape:window-x="2869"
     inkscape:window-y="-11"
     inkscape:window-maximized="1"
     inkscape:current-layer="layer1" />
  <defs
     id="defs2">
    <rect
       x="0.5625"
       y="-30.3125"
       width="22.625"
       height="22.0625"
       id="rect9466" />
    <rect
       x="-2.625"
       y="-34.3125"
       width="29.875"
       height="22.25"
       id="rect9434" />
    <rect
       x="-5.4375"
       y="-29.375"
       width="31.625"
       height="21.0625"
       id="rect9376" />
    <rect
       x="-4.6875"
       y="-33"
       width="29.6875"
       height="27.0625"
       id="rect9320" />
    <rect
       x="-4"
       y="-30.9375"
       width="32.8125"
       height="23.375"
       id="rect9288" />
    <rect
       x="-2.375"
       y="-31.0625"
       width="30.3125"
       height="22.75"
       id="rect9236" />
    <rect
       x="-2.375"
       y="-27.875"
       width="31.5"
       height="24.75"
       id="rect9186" />
    <rect
       x="-1.5"
       y="-29.1875"
       width="26.125"
       height="23.9375"
       id="rect9138" />
    <rect
       x="49"
       y="-212"
       width="273"
       height="179"
       id="rect9110" />
    <rect
       x="-17.766058"
       y="-25.367456"
       width="54.31464"
       height="23.555494"
       id="rect9104" />
    <rect
       x="-25.784372"
       y="-5.163537"
       width="36.211388"
       height="29.981829"
       id="rect9098" />
    <rect
       x="2.998183"
       y="3.0648091"
       width="19.72138"
       height="16.723198"
       id="rect2327" />
    <rect
       x="8.1032467"
       y="44.756306"
       width="47.394569"
       height="63.977959"
       id="rect1466" />
  </defs>
  <g
     inkscape:label="Layer 1"
     inkscape:groupmode="layer"
     id="layer1">
    <text
       xml:space="preserve"
       transform="scale(0.26458333)"
       id="text2325"
       style="font-size:13.3333px;font-family:sans-serif;-inkscape-font-specification:sans-serif;white-space:pre;shape-inside:url(#rect2327);display:inline;fill:#000000;fill-opacity:1;stroke:none;stroke-width:0.755906" />
    <text
       xml:space="preserve"
       transform="scale(0.26458333)"
       id="text9096"
       style="font-size:18.6667px;font-family:sans-serif;-inkscape-font-specification:'sans-serif, Normal';white-space:pre;shape-inside:url(#rect9098);display:inline;fill:#000000;stroke:#a7a7a7;stroke-width:0.755906" />
    <text
       xml:space="preserve"
       transform="scale(0.26458333)"
       id="text9102"
       style="font-size:18.6667px;font-family:sans-serif;-inkscape-font-specification:'sans-serif, Normal';white-space:pre;shape-inside:url(#rect9104);display:inline;fill:#000000;stroke:#a7a7a7;stroke-width:0.755906" />
    <g
       aria-label="8"
       transform="matrix(0.26458333,0,0,0.26458333,1.837239,8.8656911)"
       id="text9464"
       style="font-size:18.6667px;-inkscape-font-specification:'sans-serif, Normal';white-space:pre;shape-inside:url(#rect9466);fill:#ffd714;fill-opacity:1;stroke-width:0.755906">
      <path
         d="m 11.317728,-17.064862 q 0,1.759118 -1.3763048,2.925786 -1.36719,1.166669 -3.4453187,1.166669 -2.2057332,0 -3.5182356,-1.139325 -1.3033877,-1.139325 -1.3033877,-2.916672 0,-1.13021 0.6562512,-2.04167 0.6562511,-0.920575 1.8502637,-1.458336 v -0.05469 q -1.093752,-0.583334 -1.6223987,-1.276044 -0.5195322,-0.692709 -0.5195322,-1.731774 0,-1.531252 1.2578147,-2.552088 1.2578148,-1.020835 3.1992246,-1.020835 2.0325557,0 3.2447975,0.975262 1.212242,0.975263 1.212242,2.479171 0,0.920575 -0.57422,1.813806 -0.5742198,0.884116 -1.686201,1.385419 v 0.05469 q 1.276044,0.546876 1.950524,1.34896 0.674481,0.802085 0.674481,2.041671 z m -2.1601604,-6.626314 q 0,-0.975262 -0.7565118,-1.549482 -0.7473972,-0.583335 -1.9140659,-0.583335 -1.1484396,0 -1.8867222,0.546876 -0.729168,0.546876 -0.729168,1.476566 0,0.656251 0.364584,1.139324 0.3736986,0.47396 1.1210958,0.847658 0.3372402,0.164063 0.9661476,0.428386 0.638022,0.264324 1.2395855,0.437501 0.9023454,-0.601563 1.2487002,-1.2487 0.3463548,-0.647137 0.3463548,-1.494794 z m 0.2825526,6.799491 q 0,-0.838543 -0.3736986,-1.339846 -0.364584,-0.510418 -1.4401068,-1.020835 -0.4283862,-0.200521 -0.9388037,-0.373699 -0.5104176,-0.173177 -1.3580754,-0.483074 -0.820314,0.446616 -1.321617,1.212242 -0.4921884,0.765627 -0.4921884,1.731774 0,1.230471 0.8476578,2.032556 0.8476578,0.802085 2.1510456,0.802085 1.3307315,0 2.1237017,-0.683595 0.8020848,-0.683595 0.8020848,-1.877608 z"
         id="path9470"
         style="fill:#ffd714;fill-opacity:1" />
    </g>
  </g>
</svg>
