<?xml version="1.0" encoding="UTF-8" standalone="no"?>
<!-- Created with Inkscape (http://www.inkscape.org/) -->

<svg
   width="21"
   height="21"
   viewBox="0 0 7.112 7.1119999"
   version="1.1"
   id="svg5"
   inkscape:version="1.2.2 (732a01da63, 2022-12-09)"
   sodipodi:docname="9.svg"
   xmlns:inkscape="http://www.inkscape.org/namespaces/inkscape"
   xmlns:sodipodi="http://sodipodi.sourceforge.net/DTD/sodipodi-0.dtd"
   xmlns="http://www.w3.org/2000/svg"
   xmlns:svg="http://www.w3.org/2000/svg">
  <sodipodi:namedview
     id="namedview7"
     pagecolor="#ffffff"
     bordercolor="#000000"
     borderopacity="0.25"
     inkscape:showpageshadow="2"
     inkscape:pageopacity="0.0"
     inkscape:pagecheckerboard="0"
     inkscape:deskcolor="#d1d1d1"
     inkscape:document-units="mm"
     showgrid="false"
     inkscape:zoom="16"
     inkscape:cx="21.0625"
     inkscape:cy="-5.75"
     inkscape:window-width="3840"
     inkscape:window-height="2066"
     inkscape:window-x="2869"
     inkscape:window-y="-11"
     inkscape:window-maximized="1"
     inkscape:current-layer="layer1" />
  <defs
     id="defs2">
    <rect
       x="-2.625"
       y="-34.3125"
       width="29.875"
       height="22.25"
       id="rect9434" />
    <rect
       x="-5.4375"
       y="-29.375"
       width="31.625"
       height="21.0625"
       id="rect9376" />
    <rect
       x="-4.6875"
       y="-33"
       width="29.6875"
       height="27.0625"
       id="rect9320" />
    <rect
       x="-4"
       y="-30.9375"
       width="32.8125"
       height="23.375"
       id="rect9288" />
    <rect
       x="-2.375"
       y="-31.0625"
       width="30.3125"
       height="22.75"
       id="rect9236" />
    <rect
       x="-2.375"
       y="-27.875"
       width="31.5"
       height="24.75"
       id="rect9186" />
    <rect
       x="-1.5"
       y="-29.1875"
       width="26.125"
       height="23.9375"
       id="rect9138" />
    <rect
       x="49"
       y="-212"
       width="273"
       height="179"
       id="rect9110" />
    <rect
       x="-17.766058"
       y="-25.367456"
       width="54.31464"
       height="23.555494"
       id="rect9104" />
    <rect
       x="-25.784372"
       y="-5.163537"
       width="36.211388"
       height="29.981829"
       id="rect9098" />
    <rect
       x="2.998183"
       y="3.0648091"
       width="19.72138"
       height="16.723198"
       id="rect2327" />
    <rect
       x="8.1032467"
       y="44.756306"
       width="47.394569"
       height="63.977959"
       id="rect1466" />
  </defs>
  <g
     inkscape:label="Layer 1"
     inkscape:groupmode="layer"
     id="layer1">
    <text
       xml:space="preserve"
       transform="scale(0.26458333)"
       id="text2325"
       style="font-size:13.3333px;font-family:sans-serif;-inkscape-font-specification:sans-serif;white-space:pre;shape-inside:url(#rect2327);display:inline;fill:#000000;fill-opacity:1;stroke:none;stroke-width:0.755906" />
    <text
       xml:space="preserve"
       transform="scale(0.26458333)"
       id="text9096"
       style="font-size:18.6667px;font-family:sans-serif;-inkscape-font-specification:'sans-serif, Normal';white-space:pre;shape-inside:url(#rect9098);display:inline;fill:#000000;stroke:#a7a7a7;stroke-width:0.755906" />
    <text
       xml:space="preserve"
       transform="scale(0.26458333)"
       id="text9102"
       style="font-size:18.6667px;font-family:sans-serif;-inkscape-font-specification:'sans-serif, Normal';white-space:pre;shape-inside:url(#rect9104);display:inline;fill:#000000;stroke:#a7a7a7;stroke-width:0.755906" />
    <g
       aria-label="9"
       transform="matrix(0.26458333,0,0,0.26458333,2.7071257,9.9252301)"
       id="text9432"
       style="font-size:18.6667px;-inkscape-font-specification:'sans-serif, Normal';white-space:pre;shape-inside:url(#rect9434);fill:#ffd714;fill-opacity:1;stroke-width:0.755906">
      <path
         d="m 8.011738,-24.88388 q 0,1.777347 -0.410157,3.226569 -0.4010424,1.449221 -1.2213564,2.470056 -0.8294286,1.039065 -2.0781288,1.60417 -1.2487001,0.565105 -2.9349011,0.565105 -0.47395918,0 -0.89323077,-0.05469 -0.41927159,-0.04557 -0.74739719,-0.154948 v -1.740888 h 0.091146 q 0.2643234,0.136719 0.74739719,0.264323 0.48307377,0.11849 1.07552277,0.11849 2.0143266,0 3.1536515,-1.203127 1.1484396,-1.212242 1.3307316,-3.335944 -0.8476578,0.510418 -1.595055,0.729168 -0.7473971,0.218751 -1.6315133,0.218751 -0.8385432,0 -1.5221382,-0.164063 -0.67448038,-0.164063 -1.35807536,-0.638022 -0.80208478,-0.555991 -1.21224174,-1.412763 -0.4010424,-0.856773 -0.4010424,-2.050785 0,-2.078129 1.36718994,-3.381517 1.36718996,-1.303387 3.33594356,-1.303387 0.9843767,0 1.8229199,0.309896 0.8385432,0.300782 1.4674506,0.91146 0.774741,0.756512 1.1940126,1.950524 0.4192716,1.184898 0.4192716,3.07162 z m -1.8411492,-0.391927 q 0,-1.412763 -0.2916672,-2.269536 -0.2916672,-0.856772 -0.8020848,-1.330731 -0.4283862,-0.410157 -0.9205746,-0.583335 -0.4921883,-0.182292 -1.0664081,-0.182292 -1.3125024,0 -2.0781288,0.820314 -0.75651177,0.820314 -0.75651177,2.305994 0,0.865887 0.2460942,1.412763 0.24609419,0.546876 0.82942857,0.957033 0.410157,0.282553 0.9023454,0.382813 0.4921884,0.09115 1.093752,0.09115 0.7109387,0 1.4401067,-0.191406 0.729168,-0.191407 1.36719,-0.555991 0.00911,-0.191407 0.018229,-0.373699 0.018229,-0.191406 0.018229,-0.483073 z"
         id="path9438"
         style="fill:#ffd714;fill-opacity:1" />
    </g>
  </g>
</svg>
