<?xml version="1.0" encoding="UTF-8" standalone="no"?>
<!-- Generator: Adobe Illustrator 26.1.0, SVG Export Plug-In . SVG Version: 6.00 Build 0)  -->

<svg
   version="1.1"
   id="Ebene_2"
   x="0px"
   y="0px"
   width="30.48mm"
   height="128.5mm"
   viewBox="0 0 86.4 364.252"
   xml:space="preserve"
   sodipodi:docname="satanonaut_panel.svg"
   inkscape:version="1.3.2 (091e20e, 2023-11-25, custom)"
   xmlns:inkscape="http://www.inkscape.org/namespaces/inkscape"
   xmlns:sodipodi="http://sodipodi.sourceforge.net/DTD/sodipodi-0.dtd"
   xmlns="http://www.w3.org/2000/svg"
   xmlns:svg="http://www.w3.org/2000/svg"><sodipodi:namedview
   id="namedview61"
   pagecolor="#ffffff"
   bordercolor="#666666"
   borderopacity="1.0"
   inkscape:pageshadow="2"
   inkscape:pageopacity="0.0"
   inkscape:pagecheckerboard="0"
   showgrid="false"
   inkscape:zoom="4"
   inkscape:cx="-69.875"
   inkscape:cy="249.375"
   inkscape:window-width="3840"
   inkscape:window-height="2054"
   inkscape:window-x="2869"
   inkscape:window-y="-11"
   inkscape:window-maximized="1"
   inkscape:current-layer="Ebene_2"
   inkscape:document-units="mm"
   inkscape:showpageshadow="2"
   inkscape:deskcolor="#d1d1d1"
   showguides="true"><sodipodi:guide
     position="24.792933,79.06697"
     orientation="1,0"
     id="guide3"
     inkscape:locked="false" /></sodipodi:namedview><defs
   id="defs63"><rect
     x="81.052116"
     y="34.736622"
     width="133.02446"
     height="44.105785"
     id="rect4" /><rect
     x="22.98097"
     y="406.23285"
     width="46.315495"
     height="26.162951"
     id="rect3" /></defs>
<style
   type="text/css"
   id="style2">
	.st0{fill:#F3EDE7;}
</style>
<rect
   style="fill:#e7e7e7;fill-opacity:1;stroke-width:0.725671;stroke-dasharray:none"
   id="rect350"
   width="86.400009"
   height="364.25198"
   x="0"
   y="-2.8421709e-14" /><path
   class="st0"
   d="M 6.1525027,18.793 H 80.342681 c 0.09964,0 0.180505,-0.112 0.180505,-0.25 0,-0.138 -0.08084,-0.25 -0.180505,-0.25 H 6.1525027 c -0.099638,0 -0.1805027,0.112 -0.1805027,0.25 0,0.138 0.080861,0.25 0.1805027,0.25"
   id="path52"
   style="fill:#0c1218;fill-opacity:1;stroke:none;stroke-width:1" /><path
   class="st0"
   d="m 38.477235,49.114176 h 11.283676 c 0.01515,0 0.02746,-0.112 0.02746,-0.25 0,-0.138 -0.0123,-0.25 -0.02746,-0.25 H 38.477235 c -0.01515,0 -0.02745,0.112 -0.02745,0.25 0,0.138 0.0123,0.25 0.02745,0.25"
   id="path52-8"
   style="fill:#0c1218;fill-opacity:1;stroke:none;stroke-width:0.999999" /><path
   class="st0"
   d="m 38.476586,97.888968 h 11.283676 c 0.01515,0 0.02746,-0.112 0.02746,-0.25 0,-0.138 -0.0123,-0.25 -0.02746,-0.25 H 38.476586 c -0.01515,0 -0.02745,0.112 -0.02745,0.25 0,0.138 0.0123,0.25 0.02745,0.25"
   id="path52-8-3"
   style="fill:#0c1218;fill-opacity:1;stroke:none;stroke-width:0.999999" /><path
   class="st0"
   d="m 38.476586,146.6345 h 11.283676 c 0.01515,0 0.02746,-0.112 0.02746,-0.25 0,-0.138 -0.0123,-0.25 -0.02746,-0.25 H 38.476586 c -0.01515,0 -0.02745,0.112 -0.02745,0.25 0,0.138 0.0123,0.25 0.02745,0.25"
   id="path52-8-4"
   style="fill:#0c1218;fill-opacity:1;stroke:none;stroke-width:0.999999" /><path
   class="st0"
   d="m 38.476586,195.42183 h 11.283676 c 0.01515,0 0.02746,-0.112 0.02746,-0.25 0,-0.138 -0.0123,-0.25 -0.02746,-0.25 H 38.476586 c -0.01515,0 -0.02745,0.112 -0.02745,0.25 0,0.138 0.0123,0.25 0.02745,0.25"
   id="path52-8-3-8"
   style="fill:#0c1218;fill-opacity:1;stroke:none;stroke-width:0.999999" /><path
   class="st0"
   d="m 38.476586,244.15127 h 11.283676 c 0.01515,0 0.02746,-0.112 0.02746,-0.25 0,-0.138 -0.0123,-0.25 -0.02746,-0.25 H 38.476586 c -0.01515,0 -0.02745,0.112 -0.02745,0.25 0,0.138 0.0123,0.25 0.02745,0.25"
   id="path52-8-3-8-1"
   style="fill:#0c1218;fill-opacity:1;stroke:none;stroke-width:0.999999" /><g
   id="g1"
   transform="translate(-27.952185)"><path
     class="st0"
     d="m 88.492687,5.293 v 8.018 h -34.681 V 5.293 h 34.681 m 0,-0.571 h -34.681 c -0.315,0 -0.57,0.255 -0.57,0.57 v 8.018 c 0,0.315 0.255,0.57 0.57,0.57 h 34.681 c 0.315,0 0.57,-0.255 0.57,-0.57 V 5.293 c 0,-0.315 -0.255,-0.571 -0.57,-0.571 z"
     id="path54"
     style="fill:#0c1218;fill-opacity:1;stroke:none" /></g>
<rect
   style="fill:#d2d2d3;fill-opacity:1;stroke:none;stroke-width:0.283465"
   id="rect2"
   width="37.107212"
   height="86.518112"
   x="43.037956"
   y="-358.73105"
   rx="4.5000005"
   ry="4.5"
   transform="scale(1,-1)" /><path
   class="st0"
   d="m 67.671619,283.959 h 1.513 v -0.938 h -4.097 v 0.938 h 1.492 v 3.964 h 1.093 v -3.964 z m -5.789,4.034 c 1.513,0 2.094,-0.518 2.094,-2.031 v -2.942 h -1.106 v 2.879 c 0,0.847 -0.238,1.121 -0.96,1.121 h -0.154 c -0.722,0 -0.959,-0.266 -0.959,-1.121 v -2.879 h -1.107 v 2.942 c 0,1.513 0.575,2.031 2.094,2.031 z m -5.901,-0.945 c -0.973,0 -1.176,-0.539 -1.176,-1.429 v -0.294 c 0,-0.889 0.203,-1.429 1.176,-1.429 h 0.119 c 0.967,0 1.17,0.54 1.17,1.429 v 0.294 c 0,0.903 -0.203,1.415 -1.17,1.429 z m 0.105,0.945 c 1.576,0 2.283,-0.686 2.283,-2.304 v -0.427 c 0,-1.618 -0.708,-2.311 -2.283,-2.311 h -0.091 c -1.59,0 -2.29,0.693 -2.29,2.311 v 0.427 c 0,1.618 0.7,2.304 2.29,2.304 z"
   id="path46"
   style="fill:#0c1218;fill-opacity:1;stroke:none" /><path
   style="font-size:9.33333px;font-family:Pilat;-inkscape-font-specification:Pilat;text-align:center;text-anchor:middle;white-space:pre;fill:#0c1218;stroke-width:0.377953"
   d="m 43.208005,407.86575 h -1.446667 v 6.53334 h 1.446667 z m 7.307991,0 h -1.427999 v 4.96534 h -0.056 l -2.557333,-4.96534 h -2.239999 v 6.53334 h 1.428 v -4.956 h 0.056 l 2.566665,4.956 h 2.230666 z"
   id="text3"
   transform="matrix(0.75000006,0,0,0.75000006,-9.9875753,-22.948765)"
   aria-label="IN" /><path
   style="font-size:8px;font-family:'Pilat Condensed';-inkscape-font-specification:'Pilat Condensed, ';text-align:center;letter-spacing:0.6px;text-anchor:middle;white-space:pre;fill:#0b1116;stroke-width:0.377953"
   d="m 128.04845,41.816328 c 1.024,0 1.552,-0.376 1.552,-1.656 v -0.112 c 0,-1.064 -0.32,-1.432 -1.2,-1.544 l -0.4,-0.048 c -0.456,-0.056 -0.56,-0.232 -0.56,-0.72 v -0.112 c 0,-0.552 0.144,-0.712 0.528,-0.712 0.376,0 0.536,0.128 0.568,0.792 h 1.04 c -0.032,-1.248 -0.544,-1.648 -1.552,-1.648 h -0.096 c -1.056,0 -1.52,0.4 -1.52,1.648 v 0.088 c 0,1.064 0.328,1.432 1.208,1.544 l 0.4,0.048 c 0.456,0.064 0.56,0.224 0.56,0.728 v 0.136 c 0,0.568 -0.16,0.72 -0.568,0.72 -0.344,0 -0.552,-0.12 -0.584,-0.752 h -1.048 c 0.024,0.6 0.168,1.024 0.432,1.256 0.264,0.232 0.656,0.344 1.16,0.344 z m 5.08001,-5.68 h -1.512 l -1.192,5.6 h 1.064 l 0.224,-1.2 h 1.288 l 0.232,1.2 h 1.088 z m -0.752,1.072 0.448,2.44 h -0.936 l 0.448,-2.44 z m 4.248,-0.16 h 1.04 v -0.912 h -3.088 v 0.912 h 1.016 v 4.688 h 1.032 z m 4.008,-0.912 h -1.512 l -1.192,5.6 h 1.064 l 0.224,-1.2 h 1.288 l 0.232,1.2 h 1.088 z m -0.752,1.072 0.448,2.44 h -0.936 l 0.448,-2.44 z m 6.536,-1.072 h -0.944 v 3.784 h -0.04 l -1.232,-3.784 h -1.352 v 5.6 h 0.944 v -3.784 h 0.04 l 1.232,3.784 h 1.352 z m 2.944,5.68 c 1.184,0 1.656,-0.464 1.656,-2.08 v -1.592 c 0,-1.624 -0.472,-2.088 -1.656,-2.088 h -0.088 c -1.176,0 -1.656,0.464 -1.656,2.088 v 1.592 c 0,1.616 0.48,2.08 1.656,2.08 z m -0.072,-0.872 c -0.264,0 -0.432,-0.08 -0.52,-0.248 -0.08,-0.168 -0.12,-0.464 -0.12,-0.888 v -1.736 c 0,-0.432 0.04,-0.728 0.12,-0.888 0.088,-0.168 0.256,-0.248 0.52,-0.248 h 0.056 c 0.264,0 0.432,0.08 0.512,0.248 0.088,0.16 0.128,0.456 0.128,0.888 v 1.736 c 0,0.424 -0.04,0.72 -0.128,0.888 -0.08,0.168 -0.248,0.248 -0.512,0.248 z m 6.496,-4.808 h -0.944 v 3.784 h -0.04 l -1.232,-3.784 h -1.352 v 5.6 h 0.944 v -3.784 h 0.04 l 1.232,3.784 h 1.352 z m 3.728,0 h -1.512 l -1.192,5.6 h 1.064 l 0.224,-1.2 h 1.288 l 0.232,1.2 h 1.088 z m -0.752,1.072 0.448,2.44 h -0.936 l 0.448,-2.44 z m 4.49599,4.608 c 1.152,0 1.584,-0.392 1.584,-1.984 v -3.696 h -1.032 v 3.704 c 0,0.84 -0.128,1.032 -0.568,1.032 h -0.064 c -0.44,0 -0.568,-0.192 -0.568,-1.032 v -3.704 h -1.032 v 3.696 c 0,1.592 0.432,1.984 1.584,1.984 z m 4.57601,-4.768 h 1.04 v -0.912 h -3.088 v 0.912 h 1.016 v 4.688 h 1.032 z"
   id="text4"
   transform="matrix(0.75000006,0,0,0.75000006,-67.518347,-19.689177)"
   aria-label="SATANONAUT" /></svg>
