<?xml version="1.0" encoding="utf-8"?>
<!-- Generator: Adobe Illustrator 26.1.0, SVG Export Plug-In . SVG Version: 6.00 Build 0)  -->
<svg version="1.1" id="Ebene_1" xmlns="http://www.w3.org/2000/svg" xmlns:xlink="http://www.w3.org/1999/xlink" x="0px" y="0px"
	 viewBox="0 0 32.598 32.598" style="enable-background:new 0 0 32.598 32.598;" xml:space="preserve">
<style type="text/css">
	.st0{display:none;fill:#494744;}
	.st1{fill:#1F1D1A;}
	.st2{fill:#2D2C28;}
	.st3{fill:#3C3A37;}
	.st4{fill:#4A4945;}
	.st5{fill:#595753;}
	.st6{fill:#6D6B68;}
	.st7{fill:#7A7876;}
	.st8{fill:#686663;}
	.st9{fill:#E6E0DA;}
	.st10{fill:#FFFFFF;}
</style>
<g>
	<g>
		<g>
			<g>
				<path d="M24.191,16.299c0,1.916,4.27,2.477,5.638,2.477c1.368,0,2.477-1.109,2.477-2.477c0-1.368-1.109-2.477-2.477-2.477
					C28.46,13.822,24.191,14.383,24.191,16.299z"/>
				<path class="st0" d="M29.529,18.509c1.701,0,2.602-0.954,2.602-2.21c0-1.256-0.999-2.21-2.602-2.21
					c-0.303,0-0.75-0.066-1.261-0.129c0.64-0.095,1.209-0.134,1.573-0.134c1.366,0,2.473,1.107,2.473,2.473
					c0,1.366-1.107,2.473-2.473,2.473c-0.352,0-0.897-0.037-1.511-0.125C28.816,18.577,29.238,18.509,29.529,18.509z"/>
				<g>
					<path class="st1" d="M24.248,16.295c0,1.763,4.15,2.28,5.48,2.28c1.33,0,2.408-1.021,2.408-2.28s-1.078-2.28-2.408-2.28
						C28.398,14.015,24.248,14.531,24.248,16.295z"/>
					<path class="st2" d="M30.138,14.368c-0.882,0-4.675,0.379-5.363,1.289c-0.108,0.142-0.206,0.309-0.206,0.511
						c0,0.001,0,0.002,0,0.002c0,0.202,0.098,0.368,0.206,0.51c0.689,0.909,4.48,1.287,5.362,1.287c1.047,0,1.895-0.806,1.895-1.8
						C32.033,15.174,31.184,14.368,30.138,14.368z"/>
					<path class="st3" d="M30.547,14.721c-0.588,0-5.018,0.202-5.401,0.859c-0.148,0.086-0.256,0.26-0.256,0.46c0,0,0,0.002,0,0.002
						c0,0.2,0.108,0.374,0.257,0.459c0.383,0.656,4.812,0.858,5.4,0.858c0.763,0,1.383-0.591,1.383-1.32
						C31.93,15.312,31.31,14.721,30.547,14.721z"/>
					<path class="st4" d="M30.956,15.074c-0.294,0-5.247,0.101-5.438,0.43c-0.172,0.043-0.307,0.21-0.307,0.409c0,0,0,0.002,0,0.002
						c0,0.198,0.135,0.366,0.307,0.408c0.192,0.328,5.144,0.429,5.438,0.429c0.48,0,0.87-0.376,0.87-0.84
						C31.827,15.45,31.436,15.074,30.956,15.074z"/>
					<path class="st5" d="M25.89,16.145h5.476c0.197,0,0.358-0.161,0.358-0.358v-0.002c0-0.197-0.161-0.358-0.358-0.358H25.89
						c-0.197,0-0.358,0.161-0.358,0.358v0.002C25.533,15.984,25.694,16.145,25.89,16.145z"/>
				</g>
				<path class="st6" d="M26.362,16.009h3.421c0.123,0,0.223-0.101,0.223-0.223v0c0-0.123-0.101-0.223-0.223-0.223h-3.421
					c-0.123,0-0.223,0.101-0.223,0.223v0C26.138,15.909,26.239,16.009,26.362,16.009z"/>
				<path class="st7" d="M26.688,15.885h1.138c0.055,0,0.099-0.044,0.099-0.099l0,0c0-0.055-0.044-0.099-0.099-0.099h-1.138
					c-0.055,0-0.099,0.044-0.099,0.099l0,0C26.589,15.841,26.633,15.885,26.688,15.885z"/>
				<path class="st8" d="M31.01,16.055h0.166c0.148,0,0.269-0.121,0.269-0.269l0,0c0-0.148-0.121-0.269-0.269-0.269H31.01
					c-0.148,0-0.269,0.121-0.269,0.269v0C30.741,15.934,30.862,16.055,31.01,16.055z"/>
			</g>
			<g>
				<path d="M8.44,16.299c0-1.916-4.27-2.477-5.638-2.477s-2.477,1.109-2.477,2.477c0,1.368,1.109,2.477,2.477,2.477
					S8.44,18.216,8.44,16.299z"/>
				<path class="st0" d="M3.101,14.089c-1.701,0-2.602,0.954-2.602,2.21c0,1.256,0.999,2.21,2.602,2.21
					c0.303,0,0.75,0.066,1.261,0.129c-0.64,0.095-1.209,0.134-1.573,0.134c-1.366,0-2.473-1.107-2.473-2.473
					c0-1.366,1.107-2.473,2.473-2.473c0.352,0,0.897,0.037,1.511,0.125C3.815,14.022,3.392,14.089,3.101,14.089z"/>
				<g>
					<path class="st1" d="M8.383,16.304c0-1.763-4.15-2.28-5.48-2.28s-2.408,1.021-2.408,2.28s1.078,2.28,2.408,2.28
						S8.383,18.067,8.383,16.304z"/>
					<path class="st2" d="M2.493,18.23c0.882,0,4.675-0.379,5.363-1.289c0.108-0.142,0.206-0.309,0.206-0.511
						c0-0.001,0-0.002,0-0.002c0-0.202-0.098-0.368-0.206-0.51c-0.689-0.909-4.48-1.287-5.362-1.287c-1.047,0-1.895,0.806-1.895,1.8
						C0.597,17.424,1.446,18.23,2.493,18.23z"/>
					<path class="st3" d="M2.084,17.877c0.588,0,5.018-0.202,5.401-0.859c0.148-0.086,0.256-0.26,0.256-0.46c0,0,0-0.002,0-0.002
						c0-0.2-0.108-0.374-0.257-0.459c-0.383-0.656-4.812-0.858-5.4-0.858c-0.763,0-1.383,0.591-1.383,1.32
						C0.701,17.286,1.32,17.877,2.084,17.877z"/>
					<path class="st4" d="M1.674,17.524c0.294,0,5.247-0.101,5.438-0.43c0.172-0.043,0.307-0.21,0.307-0.409c0,0,0-0.002,0-0.002
						c0-0.198-0.135-0.366-0.307-0.408c-0.192-0.328-5.144-0.429-5.438-0.429c-0.48,0-0.87,0.376-0.87,0.84
						C0.804,17.148,1.194,17.524,1.674,17.524z"/>
					<path class="st5" d="M6.74,16.454H1.265c-0.197,0-0.358,0.161-0.358,0.358v0.002c0,0.197,0.161,0.358,0.358,0.358H6.74
						c0.197,0,0.358-0.161,0.358-0.358v-0.002C7.098,16.615,6.937,16.454,6.74,16.454z"/>
				</g>
				<path class="st6" d="M6.269,16.589H2.848c-0.123,0-0.223,0.101-0.223,0.223l0,0c0,0.123,0.101,0.223,0.223,0.223h3.421
					c0.123,0,0.223-0.101,0.223-0.223l0,0C6.492,16.69,6.392,16.589,6.269,16.589z"/>
				<path class="st7" d="M5.943,16.714H4.804c-0.055,0-0.099,0.044-0.099,0.099l0,0c0,0.055,0.044,0.099,0.099,0.099h1.138
					c0.055,0,0.099-0.044,0.099-0.099l0,0C6.042,16.758,5.997,16.714,5.943,16.714z"/>
				<path class="st8" d="M1.621,16.544H1.455c-0.148,0-0.269,0.121-0.269,0.269l0,0c0,0.148,0.121,0.269,0.269,0.269h0.166
					c0.148,0,0.269-0.121,0.269-0.269l0,0C1.889,16.665,1.769,16.544,1.621,16.544z"/>
			</g>
		</g>
	</g>
	<g>
		<g>
			<g>
				<path d="M12.378,9.479c1.66-0.958,0.01-4.936-0.674-6.121C11.02,2.173,9.505,1.767,8.32,2.451S6.729,4.65,7.413,5.835
					S10.718,10.437,12.378,9.479z"/>
				<path class="st0" d="M11.622,3.75c-0.85-1.473-2.127-1.776-3.215-1.148C7.32,3.23,6.993,4.573,7.794,5.96
					c0.152,0.263,0.318,0.682,0.519,1.156C7.911,6.61,7.592,6.136,7.41,5.821C6.727,4.638,7.132,3.126,8.315,2.443
					c1.183-0.683,2.695-0.278,3.378,0.905c0.176,0.305,0.416,0.795,0.647,1.371C12.037,4.335,11.768,4.002,11.622,3.75z"/>
				<g>
					<path class="st1" d="M12.345,9.431c1.527-0.882-0.101-4.734-0.766-5.886C10.914,2.394,9.491,1.97,8.401,2.6
						s-1.435,2.074-0.77,3.225S10.818,10.313,12.345,9.431z"/>
					<path class="st2" d="M7.732,5.294c0.441,0.764,2.666,3.859,3.797,4c0.177,0.022,0.37,0.024,0.545-0.077
						c0,0,0.001-0.001,0.002-0.001c0.174-0.101,0.269-0.269,0.339-0.434c0.443-1.051-1.125-4.524-1.566-5.288
						c-0.523-0.906-1.645-1.239-2.506-0.742C7.482,3.25,7.209,4.388,7.732,5.294z"/>
					<path class="st3" d="M7.833,4.763c0.294,0.509,2.684,4.245,3.444,4.247c0.148,0.086,0.353,0.092,0.526-0.008
						c0,0,0.002-0.001,0.002-0.001c0.173-0.1,0.269-0.281,0.269-0.452c0.377-0.66-1.663-4.596-1.957-5.106
						C9.736,2.783,8.915,2.542,8.283,2.906C7.653,3.27,7.451,4.102,7.833,4.763z"/>
					<path class="st4" d="M7.934,4.232c0.147,0.255,2.711,4.493,3.091,4.495c0.123,0.128,0.336,0.161,0.507,0.062
						c0,0,0.002-0.001,0.002-0.001c0.172-0.099,0.249-0.299,0.2-0.47c0.188-0.33-2.2-4.669-2.347-4.924
						C9.147,2.978,8.626,2.828,8.225,3.06C7.824,3.291,7.694,3.816,7.934,4.232z"/>
					<path class="st5" d="M11.394,8.084L8.656,3.342c-0.098-0.17-0.318-0.229-0.488-0.131L8.166,3.213
						c-0.17,0.098-0.229,0.318-0.131,0.488l2.738,4.742c0.098,0.17,0.318,0.229,0.488,0.131l0.002-0.001
						C11.433,8.475,11.492,8.255,11.394,8.084z"/>
				</g>
				<path class="st6" d="M11.041,7.744L9.33,4.781C9.269,4.675,9.132,4.638,9.025,4.699l0,0C8.919,4.761,8.882,4.898,8.944,5.004
					l1.711,2.963c0.061,0.106,0.199,0.143,0.305,0.082l0,0C11.066,7.988,11.103,7.85,11.041,7.744z"/>
				<path class="st7" d="M10.77,7.523l-0.569-0.986c-0.027-0.047-0.088-0.064-0.135-0.036l0,0c-0.047,0.027-0.064,0.088-0.036,0.135
					l0.569,0.986c0.027,0.047,0.088,0.064,0.135,0.036v0C10.781,7.631,10.797,7.571,10.77,7.523z"/>
				<path class="st8" d="M8.756,3.696L8.673,3.552C8.6,3.424,8.434,3.38,8.306,3.454v0C8.178,3.528,8.134,3.693,8.208,3.821
					l0.083,0.143C8.365,4.092,8.53,4.137,8.658,4.063h0C8.786,3.989,8.83,3.824,8.756,3.696z"/>
			</g>
			<g>
				<path d="M20.253,23.119c-1.66,0.958-0.01,4.936,0.674,6.121s2.199,1.591,3.384,0.907s1.591-2.199,0.907-3.384
					C24.533,25.578,21.913,22.161,20.253,23.119z"/>
				<path class="st0" d="M21.008,28.848c0.85,1.473,2.127,1.776,3.215,1.148c1.088-0.628,1.414-1.97,0.613-3.358
					c-0.152-0.263-0.318-0.682-0.519-1.156c0.402,0.507,0.721,0.98,0.903,1.295c0.683,1.183,0.278,2.695-0.905,3.378
					c-1.183,0.683-2.695,0.278-3.378-0.905c-0.176-0.305-0.416-0.795-0.647-1.371C20.593,28.264,20.863,28.596,21.008,28.848z"/>
				<g>
					<path class="st1" d="M20.285,23.167c-1.527,0.882,0.101,4.734,0.766,5.886c0.665,1.152,2.088,1.575,3.178,0.946
						s1.435-2.074,0.77-3.225C24.335,25.622,21.813,22.285,20.285,23.167z"/>
					<path class="st2" d="M24.899,27.304c-0.441-0.764-2.666-3.859-3.797-4c-0.177-0.022-0.37-0.024-0.545,0.077
						c0,0-0.001,0.001-0.002,0.001c-0.174,0.101-0.269,0.269-0.339,0.434c-0.443,1.051,1.125,4.524,1.566,5.288
						c0.523,0.906,1.645,1.239,2.506,0.742C25.149,29.349,25.422,28.211,24.899,27.304z"/>
					<path class="st3" d="M24.798,27.835c-0.294-0.509-2.684-4.245-3.444-4.247c-0.148-0.086-0.353-0.092-0.526,0.008
						c0,0-0.002,0.001-0.002,0.001c-0.173,0.1-0.269,0.281-0.269,0.452c-0.377,0.66,1.663,4.596,1.957,5.106
						c0.382,0.661,1.203,0.902,1.834,0.538C24.978,29.328,25.179,28.496,24.798,27.835z"/>
					<path class="st4" d="M24.697,28.366c-0.147-0.255-2.711-4.493-3.091-4.495c-0.123-0.128-0.336-0.161-0.507-0.062
						c0,0-0.002,0.001-0.002,0.001c-0.172,0.099-0.249,0.299-0.2,0.47c-0.188,0.33,2.2,4.669,2.347,4.924
						c0.24,0.416,0.761,0.566,1.162,0.334C24.806,29.308,24.937,28.782,24.697,28.366z"/>
					<path class="st5" d="M21.237,24.514l2.738,4.742c0.098,0.17,0.318,0.229,0.488,0.131l0.002-0.001
						c0.17-0.098,0.229-0.318,0.131-0.488l-2.738-4.742c-0.098-0.17-0.318-0.229-0.488-0.131l-0.002,0.001
						C21.197,24.124,21.138,24.344,21.237,24.514z"/>
				</g>
				<path class="st6" d="M21.59,24.855l1.711,2.963c0.061,0.106,0.199,0.143,0.305,0.082l0,0c0.106-0.061,0.143-0.199,0.082-0.305
					l-1.711-2.963c-0.061-0.106-0.199-0.143-0.305-0.082l0,0C21.565,24.611,21.528,24.748,21.59,24.855z"/>
				<path class="st7" d="M21.861,25.075l0.569,0.986c0.027,0.047,0.088,0.064,0.135,0.036l0,0c0.047-0.027,0.064-0.088,0.036-0.135
					l-0.569-0.986c-0.027-0.047-0.088-0.064-0.135-0.036h0C21.849,24.967,21.833,25.028,21.861,25.075z"/>
				<path class="st8" d="M23.874,28.903l0.083,0.143c0.074,0.128,0.239,0.172,0.367,0.098v0c0.128-0.074,0.172-0.239,0.098-0.367
					l-0.083-0.143c-0.074-0.128-0.239-0.172-0.367-0.098h0C23.845,28.61,23.801,28.775,23.874,28.903z"/>
			</g>
		</g>
	</g>
	<g>
		<g>
			<g>
				<path d="M12.378,23.119c-1.66-0.958-4.28,2.459-4.964,3.644c-0.684,1.185-0.278,2.7,0.907,3.384s2.7,0.278,3.384-0.907
					C12.388,28.056,14.037,24.078,12.378,23.119z"/>
				<path class="st0" d="M7.794,26.638c-0.85,1.473-0.475,2.73,0.613,3.358c1.088,0.628,2.414,0.24,3.215-1.148
					c0.152-0.263,0.432-0.617,0.742-1.027c-0.238,0.601-0.488,1.115-0.67,1.43c-0.683,1.183-2.196,1.588-3.378,0.905
					c-1.183-0.683-1.588-2.196-0.905-3.378c0.176-0.305,0.481-0.758,0.864-1.246C8.093,25.986,7.94,26.386,7.794,26.638z"/>
				<g>
					<path class="st1" d="M12.353,23.171c-1.527-0.882-4.049,2.455-4.714,3.606s-0.32,2.596,0.77,3.225
						c1.09,0.63,2.513,0.206,3.178-0.946S13.88,24.053,12.353,23.171z"/>
					<path class="st2" d="M11.076,29.235c0.441-0.764,2.01-4.238,1.566-5.289c-0.07-0.164-0.165-0.333-0.339-0.433
						c0,0-0.001-0.001-0.002-0.001c-0.175-0.101-0.368-0.099-0.545-0.076c-1.131,0.142-3.355,3.236-3.796,4
						c-0.523,0.906-0.25,2.044,0.611,2.541C9.431,30.474,10.553,30.142,11.076,29.235z"/>
					<path class="st3" d="M10.566,29.413c0.294-0.509,2.334-4.447,1.956-5.106c0-0.171-0.097-0.352-0.27-0.452
						c0,0-0.002-0.001-0.002-0.001c-0.173-0.1-0.378-0.093-0.526-0.007c-0.76,0.004-3.149,3.738-3.443,4.247
						c-0.382,0.661-0.18,1.493,0.452,1.857C9.363,30.315,10.184,30.074,10.566,29.413z"/>
					<path class="st4" d="M10.056,29.591c0.147-0.255,2.536-4.594,2.347-4.924c0.049-0.171-0.029-0.371-0.2-0.47
						c0,0-0.002-0.001-0.002-0.001c-0.172-0.099-0.384-0.066-0.507,0.062c-0.38,0.002-2.944,4.24-3.091,4.495
						c-0.24,0.416-0.11,0.942,0.292,1.174C9.295,30.157,9.816,30.007,10.056,29.591z"/>
					<path class="st5" d="M11.662,24.669l-2.738,4.742c-0.098,0.17-0.039,0.39,0.131,0.488L9.057,29.9
						c0.17,0.098,0.39,0.039,0.488-0.131l2.738-4.742c0.098-0.17,0.039-0.39-0.131-0.488l-0.002-0.001
						C11.98,24.439,11.76,24.498,11.662,24.669z"/>
				</g>
				<path class="st6" d="M11.543,25.144l-1.711,2.963c-0.061,0.106-0.025,0.244,0.082,0.305l0,0
					c0.106,0.061,0.244,0.025,0.305-0.082l1.711-2.963c0.061-0.106,0.025-0.244-0.082-0.305h0
					C11.742,25.001,11.605,25.038,11.543,25.144z"/>
				<path class="st7" d="M11.488,25.489l-0.569,0.986c-0.027,0.047-0.011,0.108,0.036,0.135l0,0
					c0.047,0.027,0.108,0.011,0.135-0.036l0.569-0.986c0.027-0.047,0.011-0.108-0.036-0.135l0,0
					C11.576,25.426,11.515,25.442,11.488,25.489z"/>
				<path class="st8" d="M9.18,29.147l-0.083,0.143c-0.074,0.128-0.03,0.293,0.098,0.367h0c0.128,0.074,0.293,0.03,0.367-0.098
					l0.083-0.143c0.074-0.128,0.03-0.293-0.098-0.367l0,0C9.419,28.975,9.254,29.019,9.18,29.147z"/>
			</g>
			<g>
				<path d="M20.253,9.479c1.66,0.958,4.28-2.459,4.964-3.644c0.684-1.185,0.278-2.7-0.907-3.384s-2.7-0.278-3.384,0.907
					S18.593,8.521,20.253,9.479z"/>
				<path class="st0" d="M24.836,5.96c0.85-1.473,0.475-2.73-0.613-3.358c-1.088-0.628-2.414-0.24-3.215,1.148
					c-0.152,0.263-0.432,0.617-0.742,1.027c0.238-0.601,0.488-1.115,0.67-1.43c0.683-1.183,2.196-1.588,3.378-0.905
					c1.183,0.683,1.588,2.196,0.905,3.378c-0.176,0.305-0.481,0.758-0.864,1.246C24.538,6.612,24.691,6.212,24.836,5.96z"/>
				<g>
					<path class="st1" d="M20.278,9.427c1.527,0.882,4.049-2.455,4.714-3.606s0.32-2.596-0.77-3.225s-2.513-0.206-3.178,0.946
						S18.751,8.545,20.278,9.427z"/>
					<path class="st2" d="M21.554,3.363c-0.441,0.764-2.01,4.238-1.566,5.289c0.07,0.164,0.165,0.333,0.339,0.433
						c0,0,0.001,0.001,0.002,0.001c0.175,0.101,0.368,0.099,0.545,0.076c1.131-0.142,3.355-3.236,3.796-4
						c0.523-0.906,0.25-2.044-0.611-2.541C23.2,2.124,22.078,2.457,21.554,3.363z"/>
					<path class="st3" d="M22.065,3.185c-0.294,0.509-2.334,4.447-1.956,5.106c0,0.171,0.097,0.352,0.27,0.452
						c0,0,0.002,0.001,0.002,0.001c0.173,0.1,0.378,0.093,0.526,0.007c0.76-0.004,3.149-3.738,3.443-4.247
						c0.382-0.661,0.18-1.493-0.452-1.857C23.268,2.283,22.446,2.524,22.065,3.185z"/>
					<path class="st4" d="M22.575,3.007c-0.147,0.255-2.536,4.594-2.347,4.924c-0.049,0.171,0.029,0.371,0.2,0.47
						c0,0,0.002,0.001,0.002,0.001c0.172,0.099,0.384,0.066,0.507-0.062c0.38-0.002,2.944-4.24,3.091-4.495
						c0.24-0.416,0.11-0.942-0.292-1.174C23.336,2.441,22.815,2.591,22.575,3.007z"/>
					<path class="st5" d="M20.969,7.93l2.738-4.742c0.098-0.17,0.039-0.39-0.131-0.488l-0.002-0.001
						c-0.17-0.098-0.39-0.039-0.488,0.131l-2.738,4.742c-0.098,0.17-0.039,0.39,0.131,0.488l0.002,0.001
						C20.651,8.159,20.871,8.1,20.969,7.93z"/>
				</g>
				<path class="st6" d="M21.087,7.454l1.711-2.963c0.061-0.106,0.025-0.244-0.082-0.305l0,0c-0.106-0.061-0.244-0.025-0.305,0.082
					L20.7,7.231c-0.061,0.106-0.025,0.244,0.082,0.305l0,0C20.889,7.597,21.026,7.56,21.087,7.454z"/>
				<path class="st7" d="M21.143,7.109l0.569-0.986c0.027-0.047,0.011-0.108-0.036-0.135v0c-0.047-0.027-0.108-0.011-0.135,0.036
					L20.971,7.01c-0.027,0.047-0.011,0.108,0.036,0.135l0,0C21.055,7.173,21.116,7.156,21.143,7.109z"/>
				<path class="st8" d="M23.451,3.451l0.083-0.143c0.074-0.128,0.03-0.293-0.098-0.367v0c-0.128-0.074-0.293-0.03-0.367,0.098
					l-0.083,0.143c-0.074,0.128-0.03,0.293,0.098,0.367l0,0C23.212,3.623,23.377,3.579,23.451,3.451z"/>
			</g>
		</g>
	</g>
</g>
<path class="st9" d="M10.191,27.882l-0.933,1.616c-0.138,0.239-0.444,0.321-0.683,0.183l0,0c-0.239-0.138-0.321-0.444-0.183-0.683
	l0.933-1.616c0.138-0.239,0.444-0.321,0.683-0.183h0C10.247,27.336,10.329,27.642,10.191,27.882z"/>
<path class="st10" d="M8.645,29.558c-0.162-0.094-0.218-0.301-0.124-0.463C8.615,28.933,8.805,28.906,8.967,29
	c0.162,0.094,0.234,0.272,0.141,0.434C9.014,29.596,8.807,29.652,8.645,29.558z"/>
</svg>
