<?xml version="1.0" encoding="UTF-8" standalone="no"?>
<!-- Generator: Adobe Illustrator 26.1.0, SVG Export Plug-In . SVG Version: 6.00 Build 0)  -->

<svg
   version="1.1"
   id="Ebene_2"
   x="0px"
   y="0px"
   width="132.08mm"
   height="128.5mm"
   viewBox="0 0 374.4 364.252"
   style="enable-background:new 0 0 374.4 364.252;"
   xml:space="preserve"
   sodipodi:docname="glitch_sequencer_panel.svg"
   inkscape:version="1.3.2 (091e20e, 2023-11-25, custom)"
   xmlns:inkscape="http://www.inkscape.org/namespaces/inkscape"
   xmlns:sodipodi="http://sodipodi.sourceforge.net/DTD/sodipodi-0.dtd"
   xmlns="http://www.w3.org/2000/svg"
   xmlns:svg="http://www.w3.org/2000/svg"><defs
   id="defs55" /><sodipodi:namedview
   id="namedview53"
   pagecolor="#ffffff"
   bordercolor="#666666"
   borderopacity="1.0"
   inkscape:pageshadow="2"
   inkscape:pageopacity="0.0"
   inkscape:pagecheckerboard="0"
   showgrid="false"
   inkscape:zoom="3.3894348"
   inkscape:cx="213.3099"
   inkscape:cy="253.87714"
   inkscape:window-width="3840"
   inkscape:window-height="2054"
   inkscape:window-x="2869"
   inkscape:window-y="-11"
   inkscape:window-maximized="1"
   inkscape:current-layer="Ebene_2"
   inkscape:document-units="mm"
   inkscape:showpageshadow="2"
   inkscape:deskcolor="#d1d1d1" />
<style
   type="text/css"
   id="style2">
	.st0{fill:#F3EDE7;}
	.st1{fill:#FFFFFF;}
	.st2{fill:#1C2729;}
</style>
<rect
   style="fill:#e7e7e7;fill-opacity:1;stroke-width:0.72567"
   id="rect2188"
   width="374.39999"
   height="364.25198"
   x="-1.4210855e-14"
   y="0" /><path
   class="st0"
   d="m 61.692,357.73 h 0.384 c 0.112,0 0.169,-0.067 0.169,-0.168 v -3.583 c 0,-0.101 0.067,-0.168 0.169,-0.168 h 1.015 c 0.102,0 0.181,0.067 0.181,0.168 v 3.583 c 0,0.101 0.068,0.168 0.169,0.168 h 0.373 c 0.112,0 0.169,-0.067 0.169,-0.168 v -8.086 c 0,-0.101 -0.068,-0.168 -0.169,-0.168 h -0.373 c -0.112,0 -0.169,0.067 -0.169,0.168 v 3.481 c 0,0.101 -0.079,0.168 -0.181,0.168 h -1.015 c -0.102,0 -0.169,-0.067 -0.169,-0.168 v -3.481 c 0,-0.101 -0.067,-0.168 -0.169,-0.168 h -0.384 c -0.112,0 -0.169,0.067 -0.169,0.168 v 8.086 c 0,0.101 0.067,0.168 0.169,0.168 z m -5.02,-1.64 c 0,1.033 0.462,1.696 1.33,1.696 0.88,0 1.342,-0.674 1.342,-1.696 v -0.887 c 0,-0.101 -0.067,-0.168 -0.169,-0.168 h -0.384 c -0.102,0 -0.169,0.067 -0.169,0.168 v 0.674 c 0,0.831 -0.146,1.224 -0.62,1.224 -0.474,0 -0.608,-0.393 -0.608,-1.224 v -4.717 c 0,-0.831 0.135,-1.224 0.608,-1.224 0.473,0 0.62,0.393 0.62,1.224 v 0.674 c 0,0.101 0.067,0.168 0.169,0.168 h 0.384 c 0.102,0 0.169,-0.067 0.169,-0.168 v -0.887 c 0,-1.022 -0.462,-1.696 -1.342,-1.696 -0.868,0 -1.33,0.663 -1.33,1.696 z m -4.085,-6.266 c 0,0.112 0.067,0.168 0.169,0.168 h 0.439 c 0.102,0 0.169,0.067 0.169,0.168 v 7.401 c 0,0.101 0.068,0.168 0.17,0.168 h 0.372 c 0.112,0 0.169,-0.067 0.169,-0.168 v -7.401 c 0,-0.101 0.067,-0.168 0.169,-0.168 h 0.462 c 0.102,0 0.17,-0.067 0.17,-0.168 v -0.348 c 0,-0.112 -0.068,-0.168 -0.17,-0.168 h -1.95 c -0.102,0 -0.169,0.067 -0.169,0.168 z m -2.46,7.906 h 0.384 c 0.112,0 0.169,-0.067 0.169,-0.168 v -8.086 c 0,-0.101 -0.067,-0.168 -0.169,-0.168 h -0.384 c -0.112,0 -0.169,0.067 -0.169,0.168 v 8.086 c 0,0.101 0.068,0.168 0.169,0.168 z m -4.061,-0.168 c 0,0.101 0.067,0.168 0.169,0.168 h 1.646 c 0.102,0 0.169,-0.067 0.169,-0.168 v -0.314 c 0,-0.101 -0.067,-0.168 -0.169,-0.168 h -0.925 c -0.102,0 -0.169,-0.067 -0.169,-0.168 v -7.435 c 0,-0.101 -0.067,-0.168 -0.169,-0.168 h -0.384 c -0.112,0 -0.169,0.067 -0.169,0.168 v 8.085 z m -4.874,-1.472 c 0,1.033 0.462,1.696 1.33,1.696 0.88,0 1.319,-0.674 1.319,-1.696 v -2.403 c 0,-0.101 -0.067,-0.168 -0.169,-0.168 h -0.981 c -0.102,0 -0.169,0.067 -0.169,0.168 v 0.337 c 0,0.112 0.067,0.168 0.169,0.168 h 0.282 c 0.102,0 0.169,0.067 0.169,0.168 v 1.516 c 0,0.831 -0.146,1.224 -0.62,1.224 -0.474,0 -0.608,-0.393 -0.608,-1.224 v -4.717 c 0,-0.831 0.135,-1.224 0.608,-1.224 0.473,0 0.62,0.393 0.62,1.224 v 0.674 c 0,0.101 0.067,0.168 0.169,0.168 h 0.361 c 0.102,0 0.169,-0.067 0.169,-0.168 v -0.887 c 0,-1.022 -0.439,-1.696 -1.319,-1.696 -0.868,0 -1.33,0.663 -1.33,1.696 z m -4.333,1.64 h 0.451 c 0.079,0 0.146,-0.067 0.169,-0.168 l 0.598,-2.684 h 0.091 l 0.586,2.684 c 0.022,0.101 0.102,0.168 0.181,0.168 h 0.439 c 0.079,0 0.136,-0.067 0.113,-0.168 l -0.97,-3.976 0.011,-0.135 0.959,-3.976 c 0.022,-0.101 -0.034,-0.168 -0.113,-0.168 h -0.439 c -0.079,0 -0.146,0.067 -0.169,0.168 l -0.598,2.695 h -0.091 l -0.598,-2.695 c -0.022,-0.101 -0.09,-0.168 -0.169,-0.168 h -0.451 c -0.067,0 -0.135,0.067 -0.112,0.168 l 0.97,3.976 v 0.135 l -0.97,3.976 c -0.023,0.101 0.045,0.168 0.112,0.168 z m -3.882,-1.853 v -4.717 c 0,-0.831 0.135,-1.224 0.609,-1.224 0.485,0 0.62,0.393 0.62,1.224 v 4.717 c 0,0.831 -0.135,1.224 -0.62,1.224 -0.474,0 -0.609,-0.393 -0.609,-1.224 z m -0.722,0.213 c 0,1.033 0.462,1.696 1.331,1.696 0.88,0 1.342,-0.663 1.342,-1.696 v -5.144 c 0,-1.033 -0.462,-1.696 -1.342,-1.696 -0.868,0 -1.331,0.663 -1.331,1.696 z m -3.362,1.64 h 0.406 c 0.113,0 0.169,-0.056 0.191,-0.213 l 1.128,-8.007 c 0.022,-0.168 -0.068,-0.202 -0.169,-0.202 h -0.35 c -0.124,0 -0.191,0.034 -0.203,0.18 l -0.744,6.098 H 29.04 l -0.745,-6.098 c -0.011,-0.146 -0.079,-0.18 -0.203,-0.18 h -0.35 c -0.102,0 -0.192,0.034 -0.169,0.202 l 1.128,8.007 c 0.023,0.157 0.079,0.213 0.192,0.213 z"
   id="path4"
   style="stroke:none;fill-opacity:1;fill:#0c1218" /><path
   class="st0"
   d="m 121.174,349.511 v 8.018 H 68.378 v -8.018 h 52.796 m 0,-0.5 H 68.378 c -0.276,0 -0.5,0.224 -0.5,0.5 v 8.018 c 0,0.276 0.224,0.5 0.5,0.5 h 52.796 c 0.276,0 0.5,-0.224 0.5,-0.5 v -8.018 c 0,-0.276 -0.224,-0.5 -0.5,-0.5 z"
   id="path6"
   style="stroke:none;fill-opacity:1;fill:#0c1218" /><path
   class="st0"
   d="m 117.699,352.28 c 0.318,0 0.444,0.06 0.444,0.563 v 0.12 c 0,0.498 -0.12,0.558 -0.414,0.558 h -0.474 v -1.241 z m -0.443,1.859 h 0.449 c 0.324,0 0.438,0.06 0.438,0.576 v 1.115 h 0.768 v -1.067 c 0,-0.756 -0.162,-0.888 -0.486,-0.959 v -0.03 c 0.324,-0.084 0.486,-0.27 0.486,-0.948 v -0.078 c 0,-0.935 -0.336,-1.115 -1.134,-1.115 h -1.289 v 4.198 h 0.768 z m -1.802,1.019 h -1.181 v -1.091 h 1.181 v -0.677 h -1.181 v -1.085 h 1.181 v -0.672 h -1.948 v 4.198 h 1.948 z m -4.193,0.732 c 0.816,0 1.146,-0.318 1.206,-1.409 h -0.773 c -0.036,0.624 -0.162,0.755 -0.456,0.755 h -0.036 c -0.198,0 -0.324,-0.06 -0.384,-0.186 -0.06,-0.125 -0.09,-0.348 -0.09,-0.666 v -1.301 c 0,-0.647 0.084,-0.852 0.474,-0.852 h 0.036 c 0.294,0 0.42,0.126 0.456,0.75 h 0.773 c -0.061,-1.091 -0.39,-1.409 -1.206,-1.409 h -0.09 c -0.881,0 -1.217,0.36 -1.217,1.559 v 1.2 c 0,1.199 0.336,1.559 1.217,1.559 z m -2.36,-4.258 h -0.707 v 2.836 h -0.03 l -0.923,-2.836 h -1.014 v 4.198 h 0.707 v -2.836 h 0.03 l 0.924,2.836 h 1.013 z m -3.707,3.526 h -1.181 v -1.091 h 1.181 v -0.677 h -1.181 v -1.085 h 1.181 v -0.672 h -1.948 v 4.198 h 1.948 z m -4.193,0.732 c 0.863,0 1.187,-0.294 1.187,-1.487 v -2.771 h -0.773 v 2.776 c 0,0.63 -0.096,0.774 -0.426,0.774 h -0.048 c -0.33,0 -0.426,-0.144 -0.426,-0.774 v -2.776 h -0.773 v 2.771 c 0,1.193 0.324,1.487 1.188,1.487 z m -3.576,-0.714 c -0.197,0 -0.323,-0.06 -0.39,-0.186 -0.06,-0.126 -0.09,-0.348 -0.09,-0.666 v -1.241 c 0,-0.324 0.03,-0.545 0.09,-0.666 0.066,-0.126 0.192,-0.186 0.39,-0.186 h 0.042 c 0.198,0 0.324,0.06 0.384,0.186 0.066,0.12 0.096,0.342 0.096,0.666 v 1.241 c 0,0.318 -0.029,0.54 -0.09,0.666 -0.06,0.126 -0.186,0.186 -0.384,0.186 z m 1.367,-0.024 h -0.527 v -0.03 c 0.3,-0.12 0.456,-0.324 0.456,-1.169 v -0.828 c 0,-1.205 -0.349,-1.553 -1.224,-1.553 h -0.103 c -0.881,0 -1.223,0.348 -1.223,1.565 v 1.133 c 0,1.211 0.342,1.559 1.223,1.559 h 1.397 v -0.677 z m -3.612,0.006 h -1.181 v -1.091 h 1.181 v -0.677 h -1.181 v -1.085 h 1.181 v -0.672 h -1.948 v 4.198 h 1.948 z m -4.103,0.732 c 0.768,0 1.163,-0.282 1.163,-1.241 v -0.084 c 0,-0.798 -0.24,-1.074 -0.899,-1.158 l -0.3,-0.036 c -0.342,-0.042 -0.42,-0.174 -0.42,-0.54 v -0.084 c 0,-0.414 0.108,-0.534 0.396,-0.534 0.282,0 0.402,0.096 0.426,0.594 h 0.78 c -0.024,-0.936 -0.408,-1.235 -1.164,-1.235 h -0.071 c -0.792,0 -1.14,0.3 -1.14,1.235 v 0.066 c 0,0.798 0.246,1.074 0.905,1.158 l 0.3,0.036 c 0.342,0.048 0.42,0.168 0.42,0.546 v 0.102 c 0,0.426 -0.12,0.54 -0.426,0.54 -0.258,0 -0.414,-0.09 -0.438,-0.563 h -0.786 c 0.019,0.45 0.126,0.768 0.324,0.941 0.198,0.173 0.492,0.258 0.869,0.258 h 0.061 z m -3.721,-4.258 h -0.768 v 1.757 H 85.61 v -1.757 h -0.768 v 4.198 h 0.768 v -1.763 h 0.978 v 1.763 h 0.768 z m -4.757,4.258 c 0.816,0 1.146,-0.318 1.206,-1.409 h -0.773 c -0.036,0.624 -0.162,0.755 -0.456,0.755 H 82.54 c -0.198,0 -0.324,-0.06 -0.384,-0.186 -0.06,-0.125 -0.09,-0.348 -0.09,-0.666 v -1.301 c 0,-0.647 0.084,-0.852 0.474,-0.852 h 0.036 c 0.294,0 0.42,0.126 0.456,0.75 h 0.773 c -0.061,-1.091 -0.39,-1.409 -1.206,-1.409 h -0.09 c -0.881,0 -1.217,0.36 -1.217,1.559 v 1.2 c 0,1.199 0.336,1.559 1.217,1.559 z m -2.88,-3.575 h 0.779 v -0.684 h -2.314 v 0.684 h 0.762 v 3.514 h 0.773 z m -2.43,-0.683 h -0.768 v 4.198 h 0.768 z m -1.686,3.52 h -1.031 v -3.52 h -0.768 v 4.198 h 1.799 z m -4.086,0.738 c 0.882,0 1.235,-0.348 1.235,-1.559 v -0.924 H 71.44 v 0.672 h 0.545 v 0.39 c 0,0.618 -0.107,0.768 -0.468,0.768 h -0.054 c -0.197,0 -0.323,-0.06 -0.39,-0.18 -0.06,-0.126 -0.09,-0.348 -0.09,-0.666 v -1.307 c 0,-0.324 0.03,-0.545 0.09,-0.666 0.066,-0.126 0.192,-0.186 0.39,-0.186 h 0.042 c 0.294,0 0.42,0.132 0.45,0.612 h 0.785 c -0.048,-0.965 -0.438,-1.271 -1.224,-1.271 h -0.065 c -0.882,0 -1.241,0.348 -1.241,1.565 v 1.193 c 0,1.211 0.359,1.559 1.241,1.559 z"
   id="path8"
   style="stroke:none;fill-opacity:1;fill:#0c1218" /><path
   d="M 355.066,277.454 H 19.481 c -1.331,0 -2.41,-1.079 -2.41,-2.41 V 19.164 c 0,-1.331 1.079,-2.41 2.41,-2.41 h 335.585 c 1.331,0 2.41,1.079 2.41,2.41 v 255.88 c 0,1.331 -1.079,2.41 -2.41,2.41"
   id="path10"
   style="fill-opacity:1;fill:#000000;stroke:none" /><path
   class="st1"
   d="m 357.476,275.062 c 0,1.331 -1.079,2.41 -2.41,2.41 H 19.481 c -1.331,0 -2.41,-1.079 -2.41,-2.41 v 0.583 c 0,1.331 1.079,2.41 2.41,2.41 h 335.585 c 1.331,0 2.41,-1.079 2.41,-2.41 v -0.583"
   id="path12" /><path
   class="st2"
   d="M 354.783,275.757 H 19.764 c -0.504,0 -0.912,-0.409 -0.912,-0.913 V 19.495 c 0,-0.504 0.409,-0.912 0.912,-0.912 h 335.018 c 0.504,0 0.912,0.409 0.912,0.912 v 255.349 c 10e-4,0.504 -0.408,0.913 -0.911,0.913 z"
   id="path14"
   style="fill-opacity:1;fill:#1c2729;stroke:none" /><g
   id="g1"><path
     class="st0"
     d="m 21.536,330.278 c -2.793,-2.793 -4.188,-6.45 -4.188,-10.111 0,-3.66 1.395,-7.318 4.188,-10.11 0.117,-0.117 0.117,-0.307 0,-0.424 -0.117,-0.117 -0.307,-0.117 -0.424,0 -2.909,2.908 -4.364,6.723 -4.364,10.535 0,3.812 1.455,7.626 4.364,10.535 0.117,0.117 0.307,0.117 0.424,0 0.117,-0.118 0.117,-0.308 0,-0.425 z"
     id="path16"
     style="stroke:none;fill-opacity:1;fill:#0c1218" /><path
     class="st0"
     d="m 41.757,310.057 c 2.793,2.793 4.188,6.45 4.188,10.11 0,3.66 -1.395,7.318 -4.188,10.111 -0.117,0.117 -0.117,0.307 0,0.424 0.117,0.117 0.307,0.117 0.424,0 2.909,-2.908 4.364,-6.723 4.364,-10.535 0,-3.812 -1.455,-7.626 -4.364,-10.535 -0.117,-0.117 -0.307,-0.117 -0.424,0 -0.117,0.118 -0.117,0.307 0,0.425 z"
     id="path18"
     style="stroke:none;fill-opacity:1;fill:#0c1218" /></g><g
   id="g2"><path
     class="st0"
     d="m 60.079,330.278 c -2.793,-2.793 -4.188,-6.45 -4.188,-10.111 0,-3.66 1.395,-7.318 4.188,-10.11 0.117,-0.117 0.117,-0.307 0,-0.424 -0.117,-0.117 -0.307,-0.117 -0.424,0 -2.909,2.908 -4.364,6.723 -4.364,10.535 0,3.812 1.455,7.626 4.364,10.535 0.117,0.117 0.307,0.117 0.424,0 0.117,-0.118 0.117,-0.308 0,-0.425 z"
     id="path20"
     style="stroke:none;fill-opacity:1;fill:#0c1218" /><path
     class="st0"
     d="m 80.3,310.057 c 2.793,2.793 4.188,6.45 4.188,10.11 0,3.66 -1.395,7.318 -4.188,10.111 -0.117,0.117 -0.117,0.307 0,0.424 0.117,0.117 0.307,0.117 0.424,0 2.909,-2.908 4.364,-6.723 4.364,-10.535 0,-3.812 -1.455,-7.626 -4.364,-10.535 -0.117,-0.117 -0.307,-0.117 -0.424,0 -0.117,0.118 -0.117,0.307 0,0.425 z"
     id="path22"
     style="stroke:none;fill-opacity:1;fill:#0c1218" /></g><path
   class="st0"
   d="m 40.042,294.245 c 0.588,0 0.771,0.196 0.771,0.75 v 0.07 c 0,0.54 -0.168,0.75 -0.764,0.75 h -1.261 v -1.569 h 1.254 z m -1.253,2.458 h 1.429 c 1.198,0 1.681,-0.498 1.681,-1.562 v -0.21 c 0,-1.156 -0.483,-1.576 -1.681,-1.576 h -2.514 v 4.903 h 1.085 z m -2.603,0.644 h -2.563 v -1.092 h 2.563 v -0.904 h -2.563 v -1.085 h 2.563 v -0.911 h -3.649 v 4.903 h 3.649 z m -6.49,-3.054 h 1.513 v -0.938 h -4.097 v 0.938 h 1.492 v 3.964 h 1.093 v -3.964 z m -5.747,4.035 c 1.239,0 2.045,-0.427 2.045,-1.583 v -0.063 c 0,-0.89 -0.518,-1.296 -1.604,-1.345 l -0.665,-0.021 c -0.638,-0.028 -0.799,-0.182 -0.799,-0.54 v -0.035 c 0,-0.413 0.267,-0.574 0.875,-0.574 0.533,0 0.89,0.119 0.995,0.588 h 1.142 c -0.084,-0.987 -0.91,-1.471 -2.073,-1.471 h -0.084 c -1.31,0 -1.961,0.518 -1.961,1.548 v 0.049 c 0,0.875 0.532,1.289 1.604,1.338 l 0.672,0.028 c 0.623,0.028 0.798,0.182 0.798,0.54 v 0.063 c 0,0.441 -0.329,0.595 -0.98,0.595 -0.462,0 -0.938,-0.063 -1.037,-0.539 h -1.142 c 0.112,1.037 0.945,1.421 2.15,1.421 h 0.064 z"
   id="path24"
   style="stroke:none;fill-opacity:1;fill:#0c1218" /><path
   class="st0"
   d="m 124.196,293.355 h -1.093 v 1.975 h -2.262 v -1.975 h -1.085 v 4.903 h 1.085 v -1.989 h 2.262 v 1.989 h 1.093 z m -7.281,0.938 h 1.513 v -0.938 h -4.097 v 0.938 h 1.492 v 3.964 h 1.093 v -3.964 z m -5.964,4.035 c 1.576,0 2.262,-0.686 2.262,-2.304 v -0.637 h -2.452 v 0.903 h 1.359 c 0,0.785 -0.238,1.1 -1.121,1.1 h -0.154 c -0.974,0 -1.177,-0.525 -1.177,-1.421 v -0.309 c 0,-0.889 0.203,-1.429 1.177,-1.429 h 0.119 c 0.588,0 0.938,0.168 1.058,0.553 h 1.142 c -0.217,-1.057 -0.952,-1.499 -2.213,-1.499 h -0.091 c -1.59,0 -2.29,0.693 -2.29,2.311 v 0.427 c 0,1.618 0.7,2.304 2.29,2.304 h 0.091 z m -3.905,-4.973 h -1.071 v 3.726 h -0.042 l -1.919,-3.726 h -1.681 v 4.903 h 1.072 v -3.719 h 0.042 l 1.926,3.719 h 1.674 v -4.903 z m -6.23,3.992 h -2.563 v -1.092 h 2.563 v -0.904 h -2.563 v -1.085 h 2.563 v -0.911 h -3.649 v 4.903 h 3.649 z m -5.026,-0.028 h -2.325 v -3.964 H 92.38 v 4.903 h 3.411 v -0.939 z"
   id="path26"
   style="stroke:none;fill-opacity:1;fill:#0c1218" /><path
   class="st0"
   d="M 79.222,291.539 H 61.431 c -2.372,0 -4.295,1.923 -4.295,4.295 0,2.372 1.923,4.295 4.295,4.295 h 17.791 c 2.372,0 4.295,-1.923 4.295,-4.295 0,-2.372 -1.923,-4.295 -4.295,-4.295 z m -14.633,3.262 c 0,0.792 -0.19,1.009 -0.57,1.106 v 0.035 c 0.38,0.084 0.57,0.238 0.57,1.121 v 1.246 h -0.9 v -1.303 c 0,-0.603 -0.134,-0.672 -0.514,-0.672 h -0.527 v 1.975 h -0.9 v -4.902 h 1.512 c 0.936,0 1.33,0.21 1.33,1.303 v 0.091 z m 3.53,-0.61 h -1.386 v 1.268 h 1.386 v 0.792 h -1.386 v 1.274 h 1.386 v 0.784 h -2.286 v -4.902 h 2.286 z m 3.924,2.739 c 0,1.121 -0.464,1.45 -1.364,1.45 h -0.07 c -0.443,0 -0.788,-0.098 -1.02,-0.301 -0.232,-0.203 -0.359,-0.575 -0.38,-1.1 h 0.921 c 0.028,0.553 0.211,0.658 0.514,0.658 0.358,0 0.499,-0.134 0.499,-0.631 v -0.119 c 0,-0.44 -0.091,-0.581 -0.492,-0.637 l -0.352,-0.042 c -0.774,-0.099 -1.062,-0.421 -1.062,-1.352 v -0.077 c 0,-1.093 0.408,-1.443 1.337,-1.443 h 0.084 c 0.887,0 1.337,0.351 1.365,1.443 h -0.915 c -0.028,-0.582 -0.168,-0.693 -0.499,-0.693 -0.338,0 -0.464,0.14 -0.464,0.623 v 0.098 c 0,0.428 0.091,0.582 0.492,0.631 l 0.352,0.042 c 0.773,0.098 1.055,0.42 1.055,1.352 v 0.098 z m 3.446,-2.739 h -1.386 v 1.268 h 1.386 v 0.792 h -1.386 v 1.274 h 1.386 v 0.784 h -2.286 v -4.902 h 2.286 z m 3.693,0.015 h -0.914 v 4.104 H 77.36 v -4.104 h -0.893 v -0.799 h 2.715 z m -16.014,-0.043 h -0.521 v 1.45 h 0.556 c 0.345,0 0.485,-0.07 0.485,-0.651 v -0.14 c 0,-0.589 -0.147,-0.659 -0.52,-0.659 z"
   id="path28"
   style="stroke:none;fill-opacity:1;fill:#0c1218" /><path
   class="st0"
   d="m 121.929,322.99 c 0.059,-0.243 0.11,-0.488 0.156,-0.736 l -2.488,-0.565 c 0.113,-0.648 0.176,-1.313 0.175,-1.993 0,-1.421 -0.259,-2.781 -0.73,-4.038 l 2.38,-0.935 c -0.089,-0.235 -0.184,-0.467 -0.285,-0.696 l -2.384,0.936 c -0.84,-1.86 -2.158,-3.455 -3.8,-4.631 l 1.446,-2.117 c -0.204,-0.145 -0.412,-0.285 -0.624,-0.42 l -1.447,2.118 c -1.663,-1.035 -3.61,-1.656 -5.697,-1.723 v -2.566 c -0.125,-0.003 -0.25,-0.009 -0.376,-0.009 -0.126,0 -0.251,0.006 -0.376,0.009 v 2.566 c -2.087,0.067 -4.033,0.688 -5.697,1.723 l -1.447,-2.118 c -0.212,0.134 -0.42,0.275 -0.624,0.42 l 1.446,2.117 c -1.641,1.176 -2.96,2.772 -3.8,4.631 l -2.384,-0.936 c -0.101,0.229 -0.196,0.461 -0.285,0.696 l 2.38,0.935 c -0.471,1.257 -0.73,2.617 -0.73,4.038 0,0.68 0.062,1.345 0.175,1.993 l -2.488,0.565 c 0.046,0.248 0.098,0.493 0.156,0.736 l 2.485,-0.565 c 0.5,2.054 1.549,3.893 2.984,5.349 l -1.731,1.865 c 0.177,0.177 0.361,0.348 0.548,0.516 l 2.351,-2.532 -0.551,-0.512 -0.003,0.003 c -1.872,-1.915 -3.026,-4.529 -3.026,-7.419 0,-2.933 1.188,-5.584 3.109,-7.507 1.923,-1.922 4.574,-3.109 7.507,-3.109 2.933,0 5.584,1.188 7.507,3.109 1.922,1.922 3.109,4.574 3.109,7.507 0,2.889 -1.154,5.504 -3.026,7.419 l -0.003,-0.003 -0.551,0.512 2.351,2.532 c 0.187,-0.167 0.37,-0.339 0.548,-0.516 l -1.731,-1.865 c 1.435,-1.456 2.484,-3.295 2.984,-5.349 z"
   id="path30"
   style="stroke:none;fill-opacity:1;fill:#0c1218" /><path
   class="st0"
   d="m 17.632,343.088 h 103.852 c 0.138,0 0.249,-0.111 0.249,-0.249 0,-0.138 -0.112,-0.249 -0.249,-0.249 H 17.632 c -0.138,0 -0.249,0.111 -0.249,0.249 0,0.138 0.111,0.249 0.249,0.249"
   id="path32"
   style="stroke:none;fill-opacity:1;fill:#0c1218" /><path
   class="st0"
   d="m 159.627,326.982 v -4.26 c 0,-0.138 -0.112,-0.25 -0.25,-0.25 -0.138,0 -0.25,0.112 -0.25,0.25 v 4.26 c 0,0.138 0.112,0.25 0.25,0.25 0.138,0 0.25,-0.112 0.25,-0.25"
   id="path34"
   style="stroke:none;fill-opacity:1;fill:#0c1218" /><path
   class="st0"
   d="m 186.217,326.982 v -4.26 c 0,-0.138 -0.112,-0.25 -0.25,-0.25 -0.138,0 -0.25,0.112 -0.25,0.25 v 4.26 c 0,0.138 0.112,0.25 0.25,0.25 0.138,0 0.25,-0.112 0.25,-0.25"
   id="path36"
   style="stroke:none;fill-opacity:1;fill:#0c1218" /><path
   class="st0"
   d="m 212.807,326.982 v -4.26 c 0,-0.138 -0.112,-0.25 -0.25,-0.25 -0.138,0 -0.25,0.112 -0.25,0.25 v 4.26 c 0,0.138 0.112,0.25 0.25,0.25 0.138,0 0.25,-0.112 0.25,-0.25"
   id="path38"
   style="stroke:none;fill-opacity:1;fill:#0c1218" /><path
   class="st0"
   d="m 239.397,326.982 v -4.26 c 0,-0.138 -0.112,-0.25 -0.25,-0.25 -0.138,0 -0.25,0.112 -0.25,0.25 v 4.26 c 0,0.138 0.112,0.25 0.25,0.25 0.138,0 0.25,-0.112 0.25,-0.25"
   id="path40"
   style="stroke:none;fill-opacity:1;fill:#0c1218" /><path
   class="st0"
   d="m 265.987,326.982 v -4.26 c 0,-0.138 -0.112,-0.25 -0.25,-0.25 -0.138,0 -0.25,0.112 -0.25,0.25 v 4.26 c 0,0.138 0.112,0.25 0.25,0.25 0.138,0 0.25,-0.112 0.25,-0.25"
   id="path42"
   style="stroke:none;fill-opacity:1;fill:#0c1218" /><path
   class="st0"
   d="m 292.577,326.982 v -4.26 c 0,-0.138 -0.112,-0.25 -0.25,-0.25 -0.138,0 -0.25,0.112 -0.25,0.25 v 4.26 c 0,0.138 0.112,0.25 0.25,0.25 0.138,0 0.25,-0.112 0.25,-0.25"
   id="path44"
   style="stroke:none;fill-opacity:1;fill:#0c1218" /><path
   class="st0"
   d="m 319.167,326.982 v -4.26 c 0,-0.138 -0.112,-0.25 -0.25,-0.25 -0.138,0 -0.25,0.112 -0.25,0.25 v 4.26 c 0,0.138 0.112,0.25 0.25,0.25 0.138,0 0.25,-0.112 0.25,-0.25"
   id="path46"
   style="stroke:none;fill-opacity:1;fill:#0c1218" /><path
   class="st0"
   d="m 345.757,326.982 v -4.26 c 0,-0.138 -0.112,-0.25 -0.25,-0.25 -0.138,0 -0.25,0.112 -0.25,0.25 v 4.26 c 0,0.138 0.112,0.25 0.25,0.25 0.138,0 0.25,-0.112 0.25,-0.25"
   id="path48"
   style="stroke:none;fill-opacity:1;fill:#0c1218" />
<circle
   style="fill:#213d42;stroke:none;stroke-width:0.283464"
   id="step_input"
   cx="31.6465"
   cy="320.16751"
   inkscape:label=""
   r="11.338583" /><circle
   style="fill:#213d42;stroke:none;stroke-width:0.283464"
   id="reset_input"
   cx="70.189499"
   cy="320.16751"
   inkscape:label=""
   r="11.338583" /><circle
   style="fill:#213d42;stroke:none;stroke-width:0.283464"
   id="gate_output_1"
   cx="159.377"
   cy="339.73126"
   inkscape:label=""
   r="11.338583" /><circle
   style="fill:#213d42;stroke:none;stroke-width:0.283464"
   id="gate_output_2"
   cx="186.42868"
   cy="339.73126"
   inkscape:label=""
   r="11.338583" /><circle
   style="fill:#213d42;stroke:none;stroke-width:0.283464"
   id="gate_output_3"
   cx="212.89334"
   cy="339.73126"
   inkscape:label=""
   r="11.338583" /><circle
   style="fill:#213d42;stroke:none;stroke-width:0.283464"
   id="gate_output_4"
   cx="239.13817"
   cy="339.73126"
   inkscape:label=""
   r="11.338583" /><circle
   style="fill:#213d42;stroke:none;stroke-width:0.283464"
   id="gate_output_5"
   cx="266.0192"
   cy="339.73126"
   inkscape:label=""
   r="11.338583" /><circle
   style="fill:#213d42;stroke:none;stroke-width:0.283464"
   id="gate_output_6"
   cx="291.96146"
   cy="339.73126"
   inkscape:label=""
   r="11.338583" /><circle
   style="fill:#213d42;stroke:none;stroke-width:0.283464"
   id="gate_output_7"
   cx="319.15543"
   cy="339.73126"
   inkscape:label=""
   r="11.338583" /><circle
   style="fill:#213d42;stroke:none;stroke-width:0.283464"
   id="gate_output_8"
   cx="345.50699"
   cy="339.73126"
   inkscape:label=""
   r="11.338583" /><circle
   style="fill:#213d42;fill-opacity:1;stroke:none;stroke-width:0.283464"
   id="trigger_group_button_1"
   cx="159.377"
   cy="310.04565"
   inkscape:label=""
   r="10.204725" /><circle
   style="fill:#213d42;fill-opacity:1;stroke:none;stroke-width:0.283464"
   id="trigger_group_button_2"
   cx="185.967"
   cy="310.04565"
   inkscape:label=""
   r="10.204725" /><circle
   style="fill:#213d42;fill-opacity:1;stroke:none;stroke-width:0.283464"
   id="trigger_group_button_3"
   cx="212.55699"
   cy="310.04565"
   inkscape:label=""
   r="10.204725" /><circle
   style="fill:#213d42;fill-opacity:1;stroke:none;stroke-width:0.283464"
   id="trigger_group_button_4"
   cx="239.14699"
   cy="310.04565"
   inkscape:label=""
   r="10.204725" /><circle
   style="fill:#213d42;fill-opacity:1;stroke:none;stroke-width:0.283464"
   id="trigger_group_button_5"
   cx="265.737"
   cy="310.04565"
   inkscape:label=""
   r="10.204725" /><circle
   style="fill:#213d42;fill-opacity:1;stroke:none;stroke-width:0.283464"
   id="trigger_group_button_6"
   cx="292.327"
   cy="310.04565"
   inkscape:label=""
   r="10.204725" /><circle
   style="fill:#213d42;fill-opacity:1;stroke:none;stroke-width:0.283464"
   id="trigger_group_button_7"
   cx="318.91699"
   cy="310.04565"
   inkscape:label=""
   r="10.204725" /><circle
   style="fill:#213d42;fill-opacity:1;stroke:none;stroke-width:0.283464"
   id="trigger_group_button_8"
   cx="345.50699"
   cy="310.04565"
   inkscape:label=""
   r="10.204725" /><circle
   style="display:inline;fill:#213d42;stroke:none;stroke-width:0.283464"
   id="length_knob"
   cx="108.255"
   cy="319.72684"
   r="8.786027" /></svg>
