<?xml version="1.0" encoding="utf-8"?>
<!-- Generator: Adobe Illustrator 26.1.0, SVG Export Plug-In . SVG Version: 6.00 Build 0)  -->
<svg version="1.1" id="Ebene_2" xmlns="http://www.w3.org/2000/svg" xmlns:xlink="http://www.w3.org/1999/xlink" x="0px" y="0px"
	 viewBox="0 0 734.4 364.252" style="enable-background:new 0 0 734.4 364.252;" xml:space="preserve">
<style type="text/css">
	.st0{fill:#F3EDE7;}
	.st1{fill:#FBFAF8;}
	.st2{fill:#FFFFFF;}
	.st3{fill:#1C2729;}
</style>
<g>
	<path class="st0" d="M540.85,58.98c-2.793-2.793-4.188-6.45-4.188-10.111c0-3.66,1.395-7.318,4.188-10.111
		c0.117-0.117,0.117-0.307,0-0.424c-0.117-0.117-0.307-0.117-0.424,0c-2.909,2.908-4.364,6.723-4.364,10.535
		c0,3.812,1.455,7.626,4.364,10.535c0.117,0.117,0.307,0.117,0.424,0C540.968,59.287,540.968,59.097,540.85,58.98L540.85,58.98z"/>
	<path class="st0" d="M561.071,38.759c2.792,2.793,4.188,6.45,4.188,10.111c0,3.66-1.395,7.318-4.188,10.111
		c-0.117,0.117-0.117,0.307,0,0.424c0.117,0.117,0.307,0.117,0.424,0c2.908-2.908,4.364-6.723,4.364-10.535
		c0-3.812-1.455-7.626-4.364-10.535c-0.117-0.117-0.307-0.117-0.424,0C560.954,38.452,560.954,38.642,561.071,38.759L561.071,38.759
		z"/>
	<path class="st0" d="M587.775,58.98c-2.792-2.793-4.188-6.45-4.188-10.111c0-3.66,1.395-7.318,4.188-10.111
		c0.117-0.117,0.117-0.307,0-0.424c-0.117-0.117-0.307-0.117-0.424,0c-2.909,2.908-4.364,6.723-4.364,10.535
		c0,3.812,1.455,7.626,4.364,10.535c0.117,0.117,0.307,0.117,0.424,0C587.892,59.287,587.892,59.097,587.775,58.98L587.775,58.98z"
		/>
	<path class="st0" d="M607.996,38.759c2.792,2.793,4.188,6.45,4.188,10.111c0,3.66-1.395,7.318-4.188,10.111
		c-0.117,0.117-0.117,0.307,0,0.424c0.117,0.117,0.307,0.117,0.424,0c2.908-2.908,4.364-6.723,4.364-10.535
		c0-3.812-1.455-7.626-4.364-10.535c-0.117-0.117-0.307-0.117-0.424,0C607.879,38.452,607.879,38.642,607.996,38.759L607.996,38.759
		z"/>
	<path class="st0" d="M635.333,58.98c-2.792-2.793-4.188-6.45-4.188-10.111c0-3.66,1.395-7.318,4.188-10.111
		c0.117-0.117,0.117-0.307,0-0.424c-0.117-0.117-0.307-0.117-0.424,0c-2.909,2.908-4.364,6.723-4.364,10.535
		c0,3.812,1.455,7.626,4.364,10.535c0.117,0.117,0.307,0.117,0.424,0C635.451,59.287,635.451,59.097,635.333,58.98L635.333,58.98z"
		/>
	<path class="st0" d="M655.554,38.759c2.792,2.793,4.188,6.45,4.188,10.111c0,3.66-1.395,7.318-4.188,10.111
		c-0.117,0.117-0.117,0.307,0,0.424c0.117,0.117,0.307,0.117,0.424,0c2.908-2.908,4.364-6.723,4.364-10.535
		c0-3.812-1.455-7.626-4.364-10.535c-0.117-0.117-0.307-0.117-0.424,0C655.437,38.452,655.437,38.642,655.554,38.759L655.554,38.759
		z"/>
	<path class="st0" d="M682.773,58.98c-2.793-2.793-4.188-6.45-4.188-10.111c0-3.66,1.395-7.318,4.188-10.111
		c0.117-0.117,0.117-0.307,0-0.424c-0.117-0.117-0.307-0.117-0.424,0c-2.909,2.908-4.364,6.723-4.364,10.535
		c0,3.812,1.455,7.626,4.364,10.535c0.117,0.117,0.307,0.117,0.424,0C682.89,59.287,682.89,59.097,682.773,58.98L682.773,58.98z"/>
	<path class="st0" d="M702.994,38.759c2.792,2.793,4.188,6.45,4.188,10.111c0,3.66-1.395,7.318-4.188,10.111
		c-0.117,0.117-0.117,0.307,0,0.424c0.117,0.117,0.307,0.117,0.424,0c2.908-2.908,4.364-6.723,4.364-10.535
		c0-3.812-1.455-7.626-4.364-10.535c-0.117-0.117-0.307-0.117-0.424,0C702.877,38.452,702.877,38.642,702.994,38.759L702.994,38.759
		z"/>
	<path class="st0" d="M682.773,290.673c-2.793-2.793-4.188-6.45-4.188-10.111c0-3.66,1.395-7.318,4.188-10.111
		c0.117-0.117,0.117-0.307,0-0.424c-0.117-0.117-0.307-0.117-0.424,0c-2.909,2.908-4.364,6.723-4.364,10.535
		c0,3.812,1.455,7.626,4.364,10.535c0.117,0.117,0.307,0.117,0.424,0C682.89,290.981,682.89,290.791,682.773,290.673
		L682.773,290.673z"/>
	<path class="st0" d="M702.994,270.452c2.792,2.793,4.188,6.45,4.188,10.11c0,3.66-1.395,7.318-4.188,10.111
		c-0.117,0.117-0.117,0.307,0,0.424c0.117,0.117,0.307,0.117,0.424,0c2.908-2.908,4.364-6.723,4.364-10.535
		c0-3.812-1.455-7.626-4.364-10.535c-0.117-0.117-0.307-0.117-0.424,0C702.877,270.145,702.877,270.335,702.994,270.452
		L702.994,270.452z"/>
	<path class="st0" d="M656.503,25.414h-1.156l-1.317,3.705h-0.042l-1.303-3.705h-1.226l1.793,4.903h1.457L656.503,25.414z
		 M650.258,29.406h-2.563v-1.092h2.563V27.41h-2.563v-1.085h2.563v-0.911h-3.649v4.903h3.649V29.406z M643.16,26.318
		c0.616,0,0.812,0.154,0.812,0.651v0.042c0,0.469-0.196,0.623-0.701,0.623h-1.324v-1.316H643.16z M641.948,28.531h1.205
		c0.645,0,0.82,0.119,0.82,0.672v1.114h1.085v-1.184c0-0.854-0.231-1.03-0.75-1.114v-0.049c0.525-0.084,0.75-0.406,0.75-1.135V26.71
		c0-0.953-0.448-1.296-1.667-1.296h-2.528v4.903h1.085V28.531z M637.644,26.304c0.588,0,0.771,0.196,0.771,0.75v0.07
		c0,0.54-0.168,0.75-0.764,0.75h-1.261v-1.569H637.644z M636.39,28.762h1.429c1.198,0,1.681-0.498,1.681-1.562v-0.21
		c0-1.156-0.483-1.576-1.681-1.576h-2.514v4.903h1.085V28.762z"/>
	<path class="st0" d="M569.62,25.414h-1.155l-1.317,3.705h-0.042l-1.303-3.705h-1.226l1.793,4.903h1.457L569.62,25.414z
		 M561.457,30.387c1.345,0,1.94-0.532,2.165-1.646h-1.114c-0.14,0.504-0.477,0.7-1.085,0.7h-0.091c-0.974,0-1.148-0.539-1.148-1.429
		v-0.294c0-0.889,0.175-1.429,1.148-1.429h0.091c0.609,0,0.945,0.196,1.085,0.701h1.114c-0.224-1.114-0.82-1.646-2.165-1.646h-0.161
		c-1.583,0-2.213,0.687-2.213,2.304v0.434c0,1.618,0.63,2.304,2.213,2.304H561.457z M552.125,28.839l0.672-0.679h0.049l1.463,2.157
		h1.324l-2.01-2.949l1.954-1.954h-1.359l-2.052,2.087h-0.042v-2.087h-1.085v4.903h1.085V28.839z M549.432,25.414h-1.071v3.726
		h-0.042l-1.919-3.726h-1.681v4.903h1.071v-3.719h0.042l1.926,3.719h1.674V25.414z M540.8,26.325l0.693,1.961h-1.436l0.693-1.961
		H540.8z M541.612,25.414h-1.639l-1.793,4.903h1.163l0.399-1.121h2.066l0.399,1.121h1.205L541.612,25.414z M535.144,28.23
		c0.651,0,0.833,0.084,0.833,0.56v0.049c0,0.441-0.189,0.575-0.812,0.575h-1.219V28.23H535.144z M535.158,26.318
		c0.581,0,0.756,0.133,0.756,0.56v0.028c0,0.441-0.175,0.518-0.708,0.518h-1.261v-1.106H535.158z M537.062,28.867
		c0-0.666-0.252-0.995-0.847-1.058v-0.042c0.56-0.077,0.784-0.413,0.784-1.051v-0.091c0-0.827-0.413-1.212-1.625-1.212h-2.514v4.903
		h2.584c1.177,0,1.618-0.413,1.618-1.31V28.867z"/>
	<path class="st0" d="M701.835,26.353h1.513v-0.938h-4.097v0.938h1.492v3.964h1.093V26.353z M696.579,27.81l1.611-2.396h-1.232
		l-1.065,1.618h-0.035l-1.043-1.618h-1.317l1.597,2.375l-1.681,2.528h1.232l1.142-1.751h0.035l1.114,1.751h1.324L696.579,27.81z
		 M692.183,29.406h-2.563v-1.092h2.563V27.41h-2.563v-1.085h2.563v-0.911h-3.649v4.903h3.649V29.406z M686.927,25.414h-1.071v3.726
		h-0.042l-1.919-3.726h-1.681v4.903h1.071v-3.719h0.042l1.926,3.719h1.674V25.414z"/>
	<path class="st0" d="M560.421,260.059l1.842-2.816h-1.163l-1.149,1.856h-0.042l-1.148-1.856h-1.261l1.828,2.83v2.073h1.092V260.059
		z M554.815,258.133c0.588,0,0.771,0.196,0.771,0.75v0.07c0,0.54-0.168,0.75-0.764,0.75h-1.261v-1.569H554.815z M553.561,260.591
		h1.429c1.198,0,1.681-0.498,1.681-1.562v-0.21c0-1.156-0.483-1.576-1.681-1.576h-2.514v4.903h1.085V260.591z M548.557,261.271
		c-0.974,0-1.177-0.539-1.177-1.429v-0.294c0-0.889,0.203-1.429,1.177-1.429h0.119c0.967,0,1.17,0.54,1.17,1.429v0.294
		c0,0.903-0.203,1.415-1.17,1.429H548.557z M548.662,262.216c1.576,0,2.283-0.686,2.283-2.304v-0.427
		c0-1.618-0.708-2.311-2.283-2.311h-0.091c-1.59,0-2.29,0.693-2.29,2.311v0.427c0,1.618,0.7,2.304,2.29,2.304H548.662z
		 M542.732,262.216c1.345,0,1.94-0.532,2.165-1.646h-1.114c-0.14,0.504-0.477,0.7-1.085,0.7h-0.091
		c-0.974,0-1.148-0.539-1.148-1.429v-0.294c0-0.889,0.175-1.429,1.148-1.429h0.091c0.609,0,0.945,0.196,1.085,0.701h1.114
		c-0.224-1.114-0.82-1.646-2.165-1.646h-0.161c-1.583,0-2.213,0.687-2.213,2.304v0.434c0,1.618,0.63,2.304,2.213,2.304H542.732z"/>
	<path class="st0" d="M619.704,334.219h1.513v-0.938h-4.097v0.938h1.491v3.964h1.093V334.219z M613.915,338.253
		c1.513,0,2.094-0.518,2.094-2.031v-2.942h-1.106v2.879c0,0.847-0.238,1.121-0.96,1.121h-0.154c-0.721,0-0.959-0.266-0.959-1.121
		v-2.879h-1.106v2.942c0,1.513,0.574,2.031,2.094,2.031H613.915z M608.014,337.308c-0.974,0-1.177-0.539-1.177-1.429v-0.294
		c0-0.889,0.203-1.429,1.177-1.429h0.119c0.966,0,1.169,0.54,1.169,1.429v0.294c0,0.903-0.203,1.415-1.169,1.429H608.014z
		 M608.118,338.253c1.576,0,2.283-0.686,2.283-2.304v-0.427c0-1.618-0.707-2.311-2.283-2.311h-0.091c-1.59,0-2.29,0.693-2.29,2.311
		v0.427c0,1.618,0.7,2.304,2.29,2.304H608.118z M599.915,337.308c-0.974,0-1.177-0.539-1.177-1.429v-0.294
		c0-0.889,0.203-1.429,1.177-1.429h0.119c0.967,0,1.17,0.54,1.17,1.429v0.294c0,0.903-0.203,1.415-1.17,1.429H599.915z
		 M600.02,338.253c1.576,0,2.283-0.686,2.283-2.304v-0.427c0-1.618-0.708-2.311-2.283-2.311h-0.091c-1.59,0-2.29,0.693-2.29,2.311
		v0.427c0,1.618,0.7,2.304,2.29,2.304H600.02z M596.253,333.28h-1.085v4.903h1.085V333.28z M591.473,334.198
		c0.966,0,1.197,0.567,1.197,1.457v0.154c0,0.904-0.231,1.443-1.197,1.457h-1.03v-3.068H591.473z M593.777,335.592
		c0-1.618-0.714-2.312-2.291-2.312h-2.129v4.903h2.129c1.576,0,2.291-0.687,2.291-2.304V335.592z M585.873,338.253
		c1.513,0,2.094-0.518,2.094-2.031v-2.942h-1.106v2.879c0,0.847-0.238,1.121-0.96,1.121h-0.154c-0.722,0-0.959-0.266-0.959-1.121
		v-2.879h-1.107v2.942c0,1.513,0.575,2.031,2.094,2.031H585.873z M580.133,334.191l0.693,1.961h-1.436l0.693-1.961H580.133z
		 M580.945,333.28h-1.639l-1.793,4.903h1.163l0.399-1.121h2.066l0.399,1.121h1.205L580.945,333.28z M572.685,336.096l1.842-2.816
		h-1.163l-1.149,1.856h-0.042l-1.148-1.856h-1.261l1.828,2.83v2.073h1.092V336.096z M570.088,337.245h-2.325v-3.964h-1.085v4.903
		h3.411V337.245z M562.898,337.308c-0.973,0-1.176-0.539-1.176-1.429v-0.294c0-0.889,0.203-1.429,1.176-1.429h0.119
		c0.967,0,1.17,0.54,1.17,1.429v0.294c0,0.903-0.203,1.415-1.17,1.429H562.898z M563.004,338.253c1.576,0,2.283-0.686,2.283-2.304
		v-0.427c0-1.618-0.708-2.311-2.283-2.311h-0.091c-1.59,0-2.29,0.693-2.29,2.311v0.427c0,1.618,0.7,2.304,2.29,2.304H563.004z
		 M557.628,334.17c0.588,0,0.771,0.196,0.771,0.75v0.07c0,0.54-0.168,0.75-0.764,0.75h-1.261v-1.569H557.628z M556.374,336.628
		h1.429c1.198,0,1.681-0.498,1.681-1.562v-0.21c0-1.156-0.483-1.576-1.681-1.576h-2.514v4.903h1.085V336.628z"/>
	<path class="st0" d="M609.415,258.147c0.616,0,0.812,0.154,0.812,0.651v0.042c0,0.469-0.196,0.623-0.701,0.623h-1.324v-1.316
		H609.415z M608.203,260.36h1.205c0.645,0,0.82,0.119,0.82,0.672v1.114h1.085v-1.184c0-0.854-0.231-1.03-0.75-1.114V259.8
		c0.525-0.084,0.75-0.406,0.75-1.135v-0.126c0-0.953-0.448-1.296-1.667-1.296h-2.528v4.903h1.085V260.36z M603.199,258.154
		l0.693,1.961h-1.436l0.693-1.961H603.199z M604.011,257.243h-1.639l-1.793,4.903h1.163l0.399-1.121h2.066l0.399,1.121h1.205
		L604.011,257.243z M599.363,261.235H596.8v-1.092h2.563v-0.904H596.8v-1.085h2.563v-0.911h-3.649v4.903h3.649V261.235z
		 M594.337,261.208h-2.325v-3.964h-1.085v4.903h3.411V261.208z M587.294,262.216c1.345,0,1.94-0.532,2.165-1.646h-1.114
		c-0.14,0.504-0.477,0.7-1.085,0.7h-0.091c-0.974,0-1.148-0.539-1.148-1.429v-0.294c0-0.889,0.175-1.429,1.148-1.429h0.091
		c0.609,0,0.945,0.196,1.085,0.701h1.114c-0.224-1.114-0.82-1.646-2.165-1.646h-0.161c-1.583,0-2.213,0.687-2.213,2.304v0.434
		c0,1.618,0.63,2.304,2.213,2.304H587.294z"/>
	<path class="st0" d="M657.808,257.243h-1.751l-1.177,3.306h-0.049l-1.156-3.306h-1.856v4.903h1.064v-3.887h0.042l1.394,3.887h0.966
		l1.408-3.887h0.042v3.887h1.072V257.243z M647.985,258.161c0.966,0,1.197,0.567,1.197,1.457v0.154c0,0.904-0.231,1.443-1.197,1.457
		h-1.03v-3.068H647.985z M650.289,259.555c0-1.618-0.714-2.312-2.291-2.312h-2.129v4.903h2.129c1.576,0,2.291-0.687,2.291-2.304
		V259.555z M644.262,257.243h-1.071v3.726h-0.042l-1.919-3.726h-1.681v4.903h1.072v-3.719h0.042l1.926,3.719h1.674V257.243z
		 M636.099,258.147c0.616,0,0.812,0.154,0.812,0.651v0.042c0,0.469-0.196,0.623-0.701,0.623h-1.324v-1.316H636.099z M634.887,260.36
		h1.205c0.645,0,0.82,0.119,0.82,0.672v1.114h1.085v-1.184c0-0.854-0.231-1.03-0.75-1.114V259.8c0.525-0.084,0.75-0.406,0.75-1.135
		v-0.126c0-0.953-0.448-1.296-1.667-1.296h-2.528v4.903h1.085V260.36z"/>
	<path class="st0" d="M710.845,258.161c0.966,0,1.198,0.567,1.198,1.457v0.154c0,0.904-0.231,1.443-1.198,1.457h-1.03v-3.068
		H710.845z M713.149,259.555c0-1.618-0.715-2.312-2.291-2.312h-2.129v4.903h2.129c1.576,0,2.291-0.687,2.291-2.304V259.555z
		 M704.895,258.161c0.966,0,1.198,0.567,1.198,1.457v0.154c0,0.904-0.231,1.443-1.198,1.457h-1.03v-3.068H704.895z M707.199,259.555
		c0-1.618-0.714-2.312-2.291-2.312h-2.129v4.903h2.129c1.576,0,2.291-0.687,2.291-2.304V259.555z M698.861,258.154l0.693,1.961
		h-1.436l0.693-1.961H698.861z M699.674,257.243h-1.639l-1.793,4.903h1.163l0.399-1.121h2.066l0.399,1.121h1.205L699.674,257.243z
		 M691.133,260.059l1.842-2.816h-1.163l-1.149,1.856h-0.042l-1.148-1.856h-1.261l1.828,2.83v2.073h1.092V260.059z M688.396,261.208
		h-2.325v-3.964h-1.085v4.903h3.411V261.208z M681.067,261.271c-0.974,0-1.177-0.539-1.177-1.429v-0.294
		c0-0.889,0.203-1.429,1.177-1.429h0.119c0.967,0,1.17,0.54,1.17,1.429v0.294c0,0.903-0.203,1.415-1.17,1.429H681.067z
		 M681.172,262.216c1.576,0,2.283-0.686,2.283-2.304v-0.427c0-1.618-0.708-2.311-2.283-2.311h-0.091c-1.59,0-2.29,0.693-2.29,2.311
		v0.427c0,1.618,0.7,2.304,2.29,2.304H681.172z M675.656,258.133c0.588,0,0.771,0.196,0.771,0.75v0.07c0,0.54-0.168,0.75-0.764,0.75
		h-1.261v-1.569H675.656z M674.402,260.591h1.429c1.198,0,1.681-0.498,1.681-1.562v-0.21c0-1.156-0.483-1.576-1.681-1.576h-2.514
		v4.903h1.085V260.591z"/>
	<path class="st0" d="M590.949,26.112h-0.521v1.45h0.556c0.345,0,0.485-0.07,0.485-0.651v-0.14
		C591.47,26.182,591.321,26.112,590.949,26.112z M607.003,23.488h-17.791c-2.372,0-4.295,1.923-4.295,4.295s1.923,4.295,4.295,4.295
		h17.791c2.372,0,4.295-1.923,4.295-4.295S609.375,23.488,607.003,23.488z M592.37,26.75c0,0.792-0.19,1.008-0.57,1.106v0.035
		c0.38,0.084,0.57,0.238,0.57,1.121v1.247h-0.9v-1.303c0-0.603-0.134-0.672-0.514-0.672h-0.527v1.975h-0.9v-4.903h1.512
		c0.936,0,1.33,0.21,1.33,1.303V26.75z M595.9,26.14h-1.386v1.268h1.386v0.792h-1.386v1.275h1.386v0.784h-2.286v-4.903h2.286V26.14z
		 M599.824,28.878c0,1.121-0.464,1.45-1.364,1.45h-0.07c-0.443,0-0.788-0.098-1.02-0.301c-0.232-0.203-0.359-0.575-0.38-1.1h0.921
		c0.028,0.553,0.211,0.658,0.514,0.658c0.358,0,0.499-0.133,0.499-0.63v-0.119c0-0.441-0.091-0.581-0.492-0.637l-0.352-0.042
		c-0.773-0.098-1.062-0.42-1.062-1.352v-0.077c0-1.093,0.408-1.443,1.337-1.443h0.084c0.887,0,1.337,0.35,1.365,1.443h-0.915
		c-0.027-0.582-0.168-0.693-0.499-0.693c-0.338,0-0.464,0.14-0.464,0.623v0.098c0,0.427,0.091,0.582,0.492,0.63l0.352,0.042
		c0.773,0.098,1.055,0.42,1.055,1.352V28.878z M603.27,26.14h-1.386v1.268h1.386v0.792h-1.386v1.275h1.386v0.784h-2.286v-4.903
		h2.286V26.14z M606.963,26.154h-0.914v4.104h-0.908v-4.104h-0.893v-0.799h2.715V26.154z"/>
	<path class="st0" d="M659.657,333.261c-1.31-1.624-3.354-1.754-4.579-1.234c0.179,0.18,0.356,0.351,0.524,0.53l0.189,0.054
		c0.671-0.147,1.328-0.096,1.962,0.168c1.407,0.587,2.214,2.009,1.999,3.515c-0.103,0.718-0.415,1.335-0.93,1.843
		c-1.017,1.004-2.48,1.242-3.771,0.622l-0.119,0.019c-0.153,0.157-0.31,0.311-0.465,0.466l-0.039,0.048
		c1.199,0.781,3.296,0.921,4.833-0.498C660.836,337.34,661.014,334.943,659.657,333.261z M657.43,336.209
		c-0.379,0.375-0.745,0.737-1.107,1.094c0.196,0.193,0.378,0.372,0.562,0.553l0.037-0.035c0.646-0.645,1.291-1.292,1.939-1.935
		l0.002-0.139c-0.551-0.547-1.1-1.096-1.649-1.646c-0.113-0.113-0.225-0.227-0.321-0.325c-0.189,0.187-0.37,0.366-0.565,0.558
		c0.356,0.353,0.72,0.714,1.094,1.085l-0.11,0.005c-1.718,0-29.542,0-31.26,0c-0.108,0-0.108,0-0.108,0.104c0,0.187,0,0.375,0,0.562
		c0,0.111,0,0.111,0.108,0.111c1.713,0,29.531,0,31.244,0L657.43,336.209z M628.303,334.08c0.724-0.003,25.296-0.002,26.02-0.002
		h0.087l0.007,0.019l-0.054,0.057c-0.155,0.155-0.309,0.312-0.467,0.465l0.001,0.11c0.148,0.143,0.294,0.289,0.437,0.437l0.116,0
		c0.472-0.474,0.946-0.947,1.419-1.42l0.038-0.046c-0.512-0.511-1.019-1.016-1.512-1.508c-0.175,0.171-0.356,0.348-0.553,0.54
		c0.188,0.181,0.379,0.366,0.57,0.55l-0.006,0.022h-0.124c-0.71,0-25.27,0.001-25.98-0.003l-0.102,0.104
		c0.006,0.19,0.006,0.38,0,0.57L628.303,334.08z M654.898,337.882c-0.384-0.38-0.766-0.763-1.147-1.146l-0.166-0.192l-0.078,0.073
		c-0.133,0.132-0.266,0.264-0.398,0.397c-0.099,0.1-0.105,0.073,0.003,0.181c0.112,0.111,0.225,0.22,0.338,0.331l-0.011,0.027
		h-0.085c-0.402,0-25.942,0.002-26.344-0.002l-0.097,0.101c0.005,0.195,0.005,0.391,0,0.586l0.09,0.09
		c0.405-0.003,25.948-0.001,26.352-0.001l0.11,0.005c-0.158,0.16-0.298,0.302-0.449,0.455c0.169,0.166,0.334,0.322,0.493,0.485
		l0.121-0.002c0.421-0.423,0.843-0.845,1.266-1.266L654.898,337.882z"/>
	<polygon class="st0" points="629.585,81.89 633.542,85.215 633.542,78.565 	"/>
	<polygon class="st0" points="709.101,81.89 705.144,78.565 705.144,85.215 	"/>
	<path class="st1" d="M643.369,16.3h-10.17v0.004c-3.165,0.021-6.032,1.368-8.105,3.537c-2.09,2.185-3.382,5.203-3.382,8.532v61.4
		c0,3.329,1.291,6.347,3.382,8.532c2.085,2.181,4.971,3.534,8.159,3.54v0.001h10.116v-0.598h-10.096v-0.001
		c-3.024,0-5.761-1.28-7.748-3.356c-1.986-2.076-3.215-4.945-3.215-8.118v-61.4c0-3.173,1.23-6.042,3.215-8.118
		c1.986-2.076,4.723-3.356,7.748-3.356v-0.001h10.096V16.3 M705.174,16.3h-10.119v0.598h10.095v0.001
		c3.024,0,5.761,1.28,7.748,3.356c1.986,2.076,3.215,4.945,3.215,8.118v61.4c0,3.173-1.23,6.042-3.215,8.118
		c-1.986,2.076-4.723,3.356-7.748,3.356v0.001h-10.095v0.598h10.163v-0.004c3.168-0.019,6.037-1.367,8.112-3.537
		c2.09-2.185,3.381-5.203,3.381-8.532v-61.4c0-3.329-1.291-6.347-3.381-8.532c-2.084-2.18-4.969-3.533-8.155-3.539V16.3"/>
	<path class="st0" d="M646.12,70.337v-7.535c0-0.138-0.112-0.25-0.25-0.25c-0.138,0-0.25,0.112-0.25,0.25v7.535
		c0,0.138,0.112,0.25,0.25,0.25C646.008,70.587,646.12,70.475,646.12,70.337"/>
	<path class="st0" d="M693.656,70.337v-7.535c0-0.138-0.112-0.25-0.25-0.25c-0.138,0-0.25,0.112-0.25,0.25v7.535
		c0,0.138,0.112,0.25,0.25,0.25C693.544,70.587,693.656,70.475,693.656,70.337"/>
	<path class="st0" d="M601.61,85.833h0.402c0.118,0,0.178-0.071,0.178-0.177v-3.758c0-0.106,0.071-0.177,0.178-0.177h1.065
		c0.106,0,0.189,0.071,0.189,0.177v3.758c0,0.106,0.071,0.177,0.178,0.177h0.391c0.118,0,0.178-0.071,0.178-0.177v-8.481
		c0-0.106-0.071-0.177-0.178-0.177h-0.391c-0.118,0-0.178,0.071-0.178,0.177v3.652c0,0.106-0.083,0.177-0.189,0.177h-1.065
		c-0.106,0-0.178-0.071-0.178-0.177v-3.652c0-0.106-0.071-0.177-0.178-0.177h-0.402c-0.118,0-0.178,0.071-0.178,0.177v8.481
		C601.433,85.762,601.504,85.833,601.61,85.833z M596.342,84.113c0,1.083,0.485,1.779,1.396,1.779c0.924,0,1.409-0.707,1.409-1.779
		v-0.931c0-0.106-0.071-0.177-0.178-0.177h-0.402c-0.106,0-0.178,0.071-0.178,0.177v0.707c0,0.872-0.153,1.284-0.651,1.284
		c-0.497,0-0.639-0.412-0.639-1.284v-4.947c0-0.872,0.142-1.284,0.639-1.284c0.498,0,0.651,0.413,0.651,1.284v0.707
		c0,0.106,0.071,0.177,0.178,0.177h0.402c0.106,0,0.178-0.071,0.178-0.177v-0.93c0-1.072-0.485-1.779-1.409-1.779
		c-0.911,0-1.396,0.695-1.396,1.779V84.113z M592.056,77.54c0,0.118,0.071,0.177,0.178,0.177h0.462c0.106,0,0.177,0.071,0.177,0.177
		v7.763c0,0.106,0.071,0.177,0.178,0.177h0.391c0.119,0,0.178-0.071,0.178-0.177v-7.763c0-0.106,0.071-0.177,0.178-0.177h0.485
		c0.106,0,0.178-0.071,0.178-0.177v-0.365c0-0.118-0.071-0.177-0.178-0.177h-2.048c-0.106,0-0.178,0.071-0.178,0.177V77.54z
		 M589.475,85.833h0.402c0.118,0,0.178-0.071,0.178-0.177v-8.481c0-0.106-0.071-0.177-0.178-0.177h-0.402
		c-0.119,0-0.178,0.071-0.178,0.177v8.481C589.297,85.762,589.368,85.833,589.475,85.833z M585.212,85.656
		c0,0.106,0.071,0.177,0.178,0.177h1.729c0.106,0,0.178-0.071,0.178-0.177v-0.33c0-0.106-0.071-0.177-0.178-0.177h-0.971
		c-0.106,0-0.178-0.071-0.178-0.177v-7.798c0-0.106-0.071-0.177-0.178-0.177h-0.402c-0.118,0-0.178,0.071-0.178,0.177V85.656z
		 M580.097,84.113c0,1.083,0.485,1.779,1.396,1.779c0.924,0,1.386-0.707,1.386-1.779v-2.521c0-0.106-0.071-0.177-0.178-0.177h-1.03
		c-0.106,0-0.178,0.071-0.178,0.177v0.354c0,0.118,0.071,0.177,0.178,0.177h0.296c0.107,0,0.178,0.07,0.178,0.177v1.59
		c0,0.872-0.153,1.284-0.651,1.284c-0.497,0-0.639-0.412-0.639-1.284v-4.947c0-0.872,0.142-1.284,0.639-1.284
		c0.498,0,0.651,0.413,0.651,1.284v0.707c0,0.106,0.071,0.177,0.178,0.177h0.379c0.106,0,0.178-0.071,0.178-0.177v-0.93
		c0-1.072-0.462-1.779-1.386-1.779c-0.911,0-1.396,0.695-1.396,1.779V84.113z M575.55,85.833h0.474c0.083,0,0.154-0.071,0.178-0.177
		l0.628-2.815h0.095l0.615,2.815c0.023,0.106,0.106,0.177,0.189,0.177h0.462c0.083,0,0.143-0.071,0.118-0.177l-1.018-4.17
		l0.012-0.142l1.006-4.17c0.024-0.106-0.035-0.177-0.118-0.177h-0.462c-0.083,0-0.153,0.071-0.178,0.177l-0.627,2.827h-0.095
		l-0.628-2.827c-0.023-0.106-0.095-0.177-0.178-0.177h-0.474c-0.071,0-0.142,0.071-0.118,0.177l1.019,4.17v0.142l-1.019,4.17
		C575.408,85.762,575.479,85.833,575.55,85.833z M571.478,83.889v-4.947c0-0.872,0.142-1.284,0.639-1.284
		c0.51,0,0.651,0.413,0.651,1.284v4.947c0,0.872-0.142,1.284-0.651,1.284C571.619,85.173,571.478,84.761,571.478,83.889z
		 M570.72,84.113c0,1.083,0.485,1.779,1.396,1.779c0.924,0,1.409-0.695,1.409-1.779v-5.395c0-1.084-0.485-1.779-1.409-1.779
		c-0.911,0-1.396,0.695-1.396,1.779V84.113z M567.191,85.833h0.426c0.118,0,0.178-0.059,0.201-0.224l1.185-8.399
		c0.023-0.177-0.071-0.212-0.178-0.212h-0.367c-0.13,0-0.201,0.036-0.213,0.188l-0.782,6.396h-0.118l-0.781-6.396
		c-0.012-0.153-0.083-0.188-0.213-0.188h-0.367c-0.106,0-0.201,0.036-0.178,0.212l1.184,8.399
		C567.014,85.773,567.072,85.833,567.191,85.833z"/>
	<path class="st0" d="M561.148,76.175l-6.521-0.52c-0.12-0.01-0.227,0.078-0.241,0.198l-0.264,2.282l1.111,0.336l-1.924,3.101
		l-1.924-3.101l1.111-0.336l-0.266-2.283c-0.014-0.12-0.12-0.208-0.241-0.198l-6.538,0.521c-0.206,0.016-0.382,0.156-0.445,0.353
		l-1.095,3.382c-0.055,0.171-0.018,0.358,0.1,0.494l5.763,6.678c0.097,0.112,0.238,0.177,0.386,0.177h6.281
		c0.148,0,0.289-0.065,0.386-0.177l5.765-6.679c0.117-0.136,0.155-0.324,0.1-0.495l-1.098-3.382
		C561.529,76.33,561.353,76.191,561.148,76.175z M555.421,85.208h-4.245c-0.158,0-0.307-0.073-0.404-0.199l-4.017-5.198
		c-0.087-0.113-0.123-0.257-0.1-0.397l0.166-1.018c0.024-0.148,0.168-0.243,0.313-0.208l1,0.246
		c0.138,0.034,0.255,0.124,0.324,0.248l2.927,5.259c0.045,0.081,0.13,0.131,0.223,0.131h3.397c0.093,0,0.178-0.05,0.223-0.132
		l2.909-5.257c0.069-0.125,0.188-0.216,0.326-0.249l0.999-0.243c0.144-0.035,0.288,0.06,0.312,0.207l0.167,1.015
		c0.023,0.141-0.013,0.285-0.1,0.398l-4.018,5.198C555.728,85.135,555.579,85.208,555.421,85.208z"/>
	<path class="st0" d="M605.147,90.311v8.018h-61.667v-8.018H605.147 M605.647,89.811h-0.5h-61.667h-0.5v0.5v8.018v0.5h0.5h61.667
		h0.5v-0.5v-8.018V89.811z"/>
	<path class="st0" d="M601.539,92.828c0.318,0,0.444,0.06,0.444,0.563v0.12c0,0.498-0.12,0.558-0.414,0.558h-0.474v-1.241H601.539z
		 M601.096,94.687h0.449c0.324,0,0.438,0.06,0.438,0.576v1.115h0.768v-1.067c0-0.756-0.162-0.888-0.486-0.959v-0.03
		c0.324-0.084,0.486-0.27,0.486-0.948v-0.078c0-0.935-0.336-1.115-1.134-1.115h-1.289v4.198h0.768V94.687z M599.295,95.706h-1.181
		v-1.091h1.181v-0.677h-1.181v-1.085h1.181V92.18h-1.948v4.198h1.948V95.706z M596.253,92.18h-1.193l-0.552,2.65h-0.036l-0.546-2.65
		h-1.253v4.198h0.737v-3.292h0.03l0.707,3.292h0.63l0.702-3.292h0.035v3.292h0.738V92.18z M591.578,92.18h-1.193l-0.552,2.65h-0.036
		l-0.546-2.65h-1.253v4.198h0.737v-3.292h0.03l0.707,3.292h0.63l0.702-3.292h0.035v3.292h0.738V92.18z M585.622,92.984l0.336,1.829
		h-0.702l0.336-1.829H585.622z M586.186,92.18h-1.133l-0.894,4.198h0.797l0.168-0.899h0.966l0.174,0.899h0.815L586.186,92.18z
		 M582.058,92.828c0.318,0,0.444,0.06,0.444,0.563v0.12c0,0.498-0.12,0.558-0.414,0.558h-0.474v-1.241H582.058z M581.614,94.687
		h0.449c0.324,0,0.438,0.06,0.438,0.576v1.115h0.768v-1.067c0-0.756-0.162-0.888-0.486-0.959v-0.03
		c0.324-0.084,0.486-0.27,0.486-0.948v-0.078c0-0.935-0.336-1.115-1.134-1.115h-1.289v4.198h0.768V94.687z M578.56,96.438
		c0.882,0,1.235-0.348,1.235-1.559v-0.924h-1.312v0.672h0.545v0.39c0,0.618-0.107,0.768-0.468,0.768h-0.054
		c-0.197,0-0.323-0.06-0.39-0.18c-0.06-0.126-0.09-0.348-0.09-0.666v-1.307c0-0.324,0.03-0.545,0.09-0.666
		c0.066-0.126,0.192-0.186,0.39-0.186h0.042c0.294,0,0.42,0.132,0.45,0.612h0.785c-0.048-0.965-0.438-1.271-1.224-1.271h-0.065
		c-0.882,0-1.241,0.348-1.241,1.565v1.193c0,1.211,0.359,1.559,1.241,1.559H578.56z M574.947,95.784c-0.197,0-0.323-0.06-0.39-0.186
		c-0.06-0.125-0.09-0.348-0.09-0.666v-1.301c0-0.324,0.03-0.545,0.09-0.666c0.066-0.126,0.192-0.186,0.39-0.186h0.042
		c0.198,0,0.324,0.06,0.384,0.186c0.066,0.12,0.096,0.342,0.096,0.666v1.301c0,0.318-0.029,0.54-0.096,0.666
		c-0.06,0.126-0.186,0.186-0.384,0.186H574.947z M575.001,96.438c0.888,0,1.242-0.348,1.242-1.559v-1.193
		c0-1.217-0.354-1.565-1.242-1.565h-0.065c-0.882,0-1.241,0.348-1.241,1.565v1.193c0,1.211,0.359,1.559,1.241,1.559H575.001z
		 M571.462,92.828c0.318,0,0.444,0.06,0.444,0.563v0.12c0,0.498-0.12,0.558-0.414,0.558h-0.474v-1.241H571.462z M571.019,94.687
		h0.449c0.324,0,0.438,0.06,0.438,0.576v1.115h0.768v-1.067c0-0.756-0.162-0.888-0.486-0.959v-0.03
		c0.324-0.084,0.486-0.27,0.486-0.948v-0.078c0-0.935-0.336-1.115-1.134-1.115h-1.289v4.198h0.768V94.687z M568.053,92.822
		c0.312,0,0.433,0.078,0.433,0.624v0.288c0,0.54-0.114,0.624-0.433,0.624h-0.455v-1.535H568.053z M567.598,94.987h0.521
		c0.785,0,1.134-0.204,1.134-1.283v-0.24c0-1.103-0.336-1.283-1.134-1.283h-1.289v4.198h0.768V94.987z M564.436,95.7h-1.031v-3.52
		h-0.768v4.198h1.799V95.7z M560.26,92.984l0.336,1.829h-0.702l0.336-1.829H560.26z M560.823,92.18h-1.133l-0.894,4.198h0.797
		l0.168-0.899h0.966l0.174,0.899h0.815L560.823,92.18z M557.667,92.864h0.779V92.18h-2.314v0.684h0.762v3.514h0.773V92.864z
		 M555.238,92.18h-0.768v4.198h0.768V92.18z M552.184,96.438c0.882,0,1.235-0.348,1.235-1.559v-0.924h-1.312v0.672h0.545v0.39
		c0,0.618-0.107,0.768-0.468,0.768h-0.054c-0.197,0-0.323-0.06-0.39-0.18c-0.06-0.126-0.09-0.348-0.09-0.666v-1.307
		c0-0.324,0.03-0.545,0.09-0.666c0.066-0.126,0.192-0.186,0.39-0.186h0.042c0.294,0,0.42,0.132,0.45,0.612h0.785
		c-0.048-0.965-0.438-1.271-1.224-1.271h-0.065c-0.882,0-1.241,0.348-1.241,1.565v1.193c0,1.211,0.359,1.559,1.241,1.559H552.184z
		 M549.826,92.18h-0.768v4.198h0.768V92.18z M546.729,92.828c0.384,0,0.492,0.216,0.492,0.863v1.181
		c0,0.642-0.114,0.858-0.492,0.858h-0.443v-2.902H546.729z M547.995,93.746c0-1.206-0.372-1.565-1.254-1.565h-1.223v4.198h1.223
		c0.882,0,1.254-0.36,1.254-1.559V93.746z"/>
	<path class="st0" d="M608.038,102.169v-0.25h-67.7c-0.416-0.001-0.758-0.343-0.759-0.759V74.329
		c0.001-0.416,0.343-0.758,0.759-0.759h67.7c0.416,0.001,0.758,0.343,0.759,0.759v26.831c-0.001,0.416-0.343,0.758-0.759,0.759
		V102.169v0.25c0.694-0.001,1.258-0.565,1.259-1.259V74.329c-0.001-0.694-0.565-1.258-1.259-1.259h-67.7
		c-0.694,0.001-1.258,0.565-1.259,1.259v26.831c0.001,0.694,0.565,1.258,1.259,1.259h67.7V102.169z"/>
	<path d="M512.261,309.063H19.768c-1.331,0-2.41-1.079-2.41-2.41V19.279c0-1.331,1.079-2.41,2.41-2.41h492.494
		c1.331,0,2.41,1.079,2.41,2.41v287.374C514.671,307.983,513.592,309.063,512.261,309.063"/>
	<path class="st2" d="M514.671,306.67c0,1.331-1.079,2.41-2.41,2.41H19.768c-1.331,0-2.41-1.079-2.41-2.41v0.583
		c0,1.331,1.079,2.41,2.41,2.41h492.494c1.331,0,2.41-1.079,2.41-2.41V306.67"/>
	<path class="st3" d="M511.978,307.366H20.051c-0.504,0-0.912-0.409-0.912-0.913V19.61c0-0.504,0.409-0.912,0.912-0.912h491.927
		c0.504,0,0.912,0.409,0.912,0.912v286.843C512.89,306.957,512.482,307.366,511.978,307.366z"/>
	<path d="M714.678,241.133H533.803c-1.331,0-2.41-1.079-2.41-2.41V116.787c0-1.331,1.079-2.41,2.41-2.41h180.876
		c1.331,0,2.41,1.079,2.41,2.41v121.936C717.089,240.054,716.01,241.133,714.678,241.133"/>
	<path class="st2" d="M717.089,238.741c0,1.331-1.079,2.41-2.41,2.41H533.803c-1.331,0-2.41-1.079-2.41-2.41v0.583
		c0,1.331,1.079,2.41,2.41,2.41h180.876c1.331,0,2.41-1.079,2.41-2.41V238.741"/>
	<path class="st3" d="M714.395,239.436H534.086c-0.504,0-0.913-0.409-0.913-0.912V117.118c0-0.504,0.409-0.912,0.913-0.912h180.309
		c0.504,0,0.913,0.409,0.913,0.912v121.405C715.308,239.027,714.899,239.436,714.395,239.436z"/>
</g>
</svg>
