<?xml version="1.0" encoding="UTF-8" standalone="no"?>
<!-- Generator: Adobe Illustrator 26.1.0, SVG Export Plug-In . SVG Version: 6.00 Build 0)  -->

<svg
   version="1.1"
   id="Ebene_2"
   x="0px"
   y="0px"
   width="259.08mm"
   height="128.5mm"
   viewBox="0 0 734.4 364.252"
   style="enable-background:new 0 0 734.4 364.252;"
   xml:space="preserve"
   sodipodi:docname="digital_programmer_panel.svg"
   inkscape:version="1.3.2 (091e20e, 2023-11-25, custom)"
   xmlns:inkscape="http://www.inkscape.org/namespaces/inkscape"
   xmlns:sodipodi="http://sodipodi.sourceforge.net/DTD/sodipodi-0.dtd"
   xmlns="http://www.w3.org/2000/svg"
   xmlns:svg="http://www.w3.org/2000/svg"><defs
   id="defs81"><rect
     x="575.35387"
     y="326.57517"
     width="93.364709"
     height="16.731385"
     id="rect370" /></defs><sodipodi:namedview
   id="namedview79"
   pagecolor="#ffffff"
   bordercolor="#666666"
   borderopacity="1.0"
   inkscape:pageshadow="2"
   inkscape:pageopacity="0.0"
   inkscape:pagecheckerboard="0"
   showgrid="false"
   inkscape:zoom="2.79415"
   inkscape:cx="429.28977"
   inkscape:cy="284.70197"
   inkscape:window-width="3840"
   inkscape:window-height="2054"
   inkscape:window-x="2869"
   inkscape:window-y="-11"
   inkscape:window-maximized="1"
   inkscape:current-layer="Ebene_2"
   inkscape:document-units="mm"
   inkscape:showpageshadow="2"
   inkscape:deskcolor="#d1d1d1" />
<style
   type="text/css"
   id="style2">
	.st0{fill:#F3EDE7;}
	.st1{fill:#FBFAF8;}
	.st2{fill:#FFFFFF;}
	.st3{fill:#1C2729;}
</style>
<rect
   style="fill:#e7e7e7;fill-opacity:1;stroke-width:0.725671"
   id="rect350"
   width="734.40002"
   height="364.25198"
   x="0"
   y="0" /><path
   class="st0"
   d="m 540.85,58.98 c -2.793,-2.793 -4.188,-6.45 -4.188,-10.111 0,-3.66 1.395,-7.318 4.188,-10.111 0.117,-0.117 0.117,-0.307 0,-0.424 -0.117,-0.117 -0.307,-0.117 -0.424,0 -2.909,2.908 -4.364,6.723 -4.364,10.535 0,3.812 1.455,7.626 4.364,10.535 0.117,0.117 0.307,0.117 0.424,0 0.118,-0.117 0.118,-0.307 0,-0.424 z"
   id="path4"
   style="stroke:none;fill-opacity:1;fill:#0c1117" /><path
   class="st0"
   d="m 561.071,38.759 c 2.792,2.793 4.188,6.45 4.188,10.111 0,3.66 -1.395,7.318 -4.188,10.111 -0.117,0.117 -0.117,0.307 0,0.424 0.117,0.117 0.307,0.117 0.424,0 2.908,-2.908 4.364,-6.723 4.364,-10.535 0,-3.812 -1.455,-7.626 -4.364,-10.535 -0.117,-0.117 -0.307,-0.117 -0.424,0 -0.117,0.117 -0.117,0.307 0,0.424 z"
   id="path6"
   style="stroke:none;fill-opacity:1;fill:#0c1117" /><path
   class="st0"
   d="m 587.775,58.98 c -2.792,-2.793 -4.188,-6.45 -4.188,-10.111 0,-3.66 1.395,-7.318 4.188,-10.111 0.117,-0.117 0.117,-0.307 0,-0.424 -0.117,-0.117 -0.307,-0.117 -0.424,0 -2.909,2.908 -4.364,6.723 -4.364,10.535 0,3.812 1.455,7.626 4.364,10.535 0.117,0.117 0.307,0.117 0.424,0 0.117,-0.117 0.117,-0.307 0,-0.424 z"
   id="path8"
   style="stroke:none;fill-opacity:1;fill:#0c1117" /><path
   class="st0"
   d="m 607.996,38.759 c 2.792,2.793 4.188,6.45 4.188,10.111 0,3.66 -1.395,7.318 -4.188,10.111 -0.117,0.117 -0.117,0.307 0,0.424 0.117,0.117 0.307,0.117 0.424,0 2.908,-2.908 4.364,-6.723 4.364,-10.535 0,-3.812 -1.455,-7.626 -4.364,-10.535 -0.117,-0.117 -0.307,-0.117 -0.424,0 -0.117,0.117 -0.117,0.307 0,0.424 z"
   id="path10"
   style="stroke:none;fill-opacity:1;fill:#0c1117" /><path
   class="st0"
   d="m 635.333,58.98 c -2.792,-2.793 -4.188,-6.45 -4.188,-10.111 0,-3.66 1.395,-7.318 4.188,-10.111 0.117,-0.117 0.117,-0.307 0,-0.424 -0.117,-0.117 -0.307,-0.117 -0.424,0 -2.909,2.908 -4.364,6.723 -4.364,10.535 0,3.812 1.455,7.626 4.364,10.535 0.117,0.117 0.307,0.117 0.424,0 0.118,-0.117 0.118,-0.307 0,-0.424 z"
   id="path12"
   style="stroke:none;fill-opacity:1;fill:#0c1117" /><path
   class="st0"
   d="m 655.554,38.759 c 2.792,2.793 4.188,6.45 4.188,10.111 0,3.66 -1.395,7.318 -4.188,10.111 -0.117,0.117 -0.117,0.307 0,0.424 0.117,0.117 0.307,0.117 0.424,0 2.908,-2.908 4.364,-6.723 4.364,-10.535 0,-3.812 -1.455,-7.626 -4.364,-10.535 -0.117,-0.117 -0.307,-0.117 -0.424,0 -0.117,0.117 -0.117,0.307 0,0.424 z"
   id="path14"
   style="stroke:none;fill-opacity:1;fill:#0c1117" /><path
   class="st0"
   d="m 682.773,58.98 c -2.793,-2.793 -4.188,-6.45 -4.188,-10.111 0,-3.66 1.395,-7.318 4.188,-10.111 0.117,-0.117 0.117,-0.307 0,-0.424 -0.117,-0.117 -0.307,-0.117 -0.424,0 -2.909,2.908 -4.364,6.723 -4.364,10.535 0,3.812 1.455,7.626 4.364,10.535 0.117,0.117 0.307,0.117 0.424,0 0.117,-0.117 0.117,-0.307 0,-0.424 z"
   id="path16"
   style="stroke:none;fill-opacity:1;fill:#0c1117" /><path
   class="st0"
   d="m 702.994,38.759 c 2.792,2.793 4.188,6.45 4.188,10.111 0,3.66 -1.395,7.318 -4.188,10.111 -0.117,0.117 -0.117,0.307 0,0.424 0.117,0.117 0.307,0.117 0.424,0 2.908,-2.908 4.364,-6.723 4.364,-10.535 0,-3.812 -1.455,-7.626 -4.364,-10.535 -0.117,-0.117 -0.307,-0.117 -0.424,0 -0.117,0.117 -0.117,0.307 0,0.424 z"
   id="path18"
   style="stroke:none;fill-opacity:1;fill:#0c1117" /><path
   class="st0"
   d="m 682.773,290.673 c -2.793,-2.793 -4.188,-6.45 -4.188,-10.111 0,-3.66 1.395,-7.318 4.188,-10.111 0.117,-0.117 0.117,-0.307 0,-0.424 -0.117,-0.117 -0.307,-0.117 -0.424,0 -2.909,2.908 -4.364,6.723 -4.364,10.535 0,3.812 1.455,7.626 4.364,10.535 0.117,0.117 0.307,0.117 0.424,0 0.117,-0.116 0.117,-0.306 0,-0.424 z"
   id="path20"
   style="stroke:none;fill-opacity:1;fill:#0c1218" /><path
   class="st0"
   d="m 702.994,270.452 c 2.792,2.793 4.188,6.45 4.188,10.11 0,3.66 -1.395,7.318 -4.188,10.111 -0.117,0.117 -0.117,0.307 0,0.424 0.117,0.117 0.307,0.117 0.424,0 2.908,-2.908 4.364,-6.723 4.364,-10.535 0,-3.812 -1.455,-7.626 -4.364,-10.535 -0.117,-0.117 -0.307,-0.117 -0.424,0 -0.117,0.118 -0.117,0.308 0,0.425 z"
   id="path22"
   style="stroke:none;fill-opacity:1;fill:#0c1218" /><path
   class="st0"
   d="m 656.503,25.414 h -1.156 l -1.317,3.705 h -0.042 l -1.303,-3.705 h -1.226 l 1.793,4.903 h 1.457 z m -6.245,3.992 h -2.563 v -1.092 h 2.563 V 27.41 h -2.563 v -1.085 h 2.563 v -0.911 h -3.649 v 4.903 h 3.649 z m -7.098,-3.088 c 0.616,0 0.812,0.154 0.812,0.651 v 0.042 c 0,0.469 -0.196,0.623 -0.701,0.623 h -1.324 v -1.316 z m -1.212,2.213 h 1.205 c 0.645,0 0.82,0.119 0.82,0.672 v 1.114 h 1.085 v -1.184 c 0,-0.854 -0.231,-1.03 -0.75,-1.114 V 27.97 c 0.525,-0.084 0.75,-0.406 0.75,-1.135 V 26.71 c 0,-0.953 -0.448,-1.296 -1.667,-1.296 h -2.528 v 4.903 h 1.085 z m -4.304,-2.227 c 0.588,0 0.771,0.196 0.771,0.75 v 0.07 c 0,0.54 -0.168,0.75 -0.764,0.75 h -1.261 v -1.569 h 1.254 z m -1.254,2.458 h 1.429 c 1.198,0 1.681,-0.498 1.681,-1.562 v -0.21 c 0,-1.156 -0.483,-1.576 -1.681,-1.576 h -2.514 v 4.903 h 1.085 z"
   id="path24"
   style="stroke:none;fill-opacity:1;fill:#0c1117" /><path
   class="st0"
   d="m 569.62,25.414 h -1.155 l -1.317,3.705 h -0.042 l -1.303,-3.705 h -1.226 l 1.793,4.903 h 1.457 z m -8.163,4.973 c 1.345,0 1.94,-0.532 2.165,-1.646 h -1.114 c -0.14,0.504 -0.477,0.7 -1.085,0.7 h -0.091 c -0.974,0 -1.148,-0.539 -1.148,-1.429 v -0.294 c 0,-0.889 0.175,-1.429 1.148,-1.429 h 0.091 c 0.609,0 0.945,0.196 1.085,0.701 h 1.114 c -0.224,-1.114 -0.82,-1.646 -2.165,-1.646 h -0.161 c -1.583,0 -2.213,0.687 -2.213,2.304 v 0.434 c 0,1.618 0.63,2.304 2.213,2.304 h 0.161 z m -9.332,-1.548 0.672,-0.679 h 0.049 l 1.463,2.157 h 1.324 l -2.01,-2.949 1.954,-1.954 h -1.359 l -2.052,2.087 h -0.042 v -2.087 h -1.085 v 4.903 h 1.085 v -1.478 z m -2.693,-3.425 h -1.071 v 3.726 h -0.042 L 546.4,25.414 h -1.681 v 4.903 h 1.071 v -3.719 h 0.042 l 1.926,3.719 h 1.674 z m -8.632,0.911 0.693,1.961 h -1.436 l 0.693,-1.961 z m 0.812,-0.911 h -1.639 l -1.793,4.903 h 1.163 l 0.399,-1.121 h 2.066 l 0.399,1.121 h 1.205 z m -6.468,2.816 c 0.651,0 0.833,0.084 0.833,0.56 v 0.049 c 0,0.441 -0.189,0.575 -0.812,0.575 h -1.219 V 28.23 Z m 0.014,-1.912 c 0.581,0 0.756,0.133 0.756,0.56 v 0.028 c 0,0.441 -0.175,0.518 -0.708,0.518 h -1.261 v -1.106 z m 1.904,2.549 c 0,-0.666 -0.252,-0.995 -0.847,-1.058 v -0.042 c 0.56,-0.077 0.784,-0.413 0.784,-1.051 v -0.091 c 0,-0.827 -0.413,-1.212 -1.625,-1.212 h -2.514 v 4.903 h 2.584 c 1.177,0 1.618,-0.413 1.618,-1.31 z"
   id="path26"
   style="stroke:none;fill-opacity:1;fill:#0c1117" /><path
   class="st0"
   d="m 701.835,26.353 h 1.513 v -0.938 h -4.097 v 0.938 h 1.492 v 3.964 h 1.093 v -3.964 z m -5.256,1.457 1.611,-2.396 h -1.232 l -1.065,1.618 h -0.035 l -1.043,-1.618 h -1.317 l 1.597,2.375 -1.681,2.528 h 1.232 l 1.142,-1.751 h 0.035 l 1.114,1.751 h 1.324 z m -4.396,1.596 h -2.563 v -1.092 h 2.563 V 27.41 h -2.563 v -1.085 h 2.563 v -0.911 h -3.649 v 4.903 h 3.649 z m -5.256,-3.992 h -1.071 v 3.726 h -0.042 l -1.919,-3.726 h -1.681 v 4.903 h 1.071 v -3.719 h 0.042 l 1.926,3.719 h 1.674 z"
   id="path28"
   style="stroke:none;fill-opacity:1;fill:#0c1117" /><path
   class="st0"
   d="m 560.421,260.059 1.842,-2.816 H 561.1 l -1.149,1.856 h -0.042 l -1.148,-1.856 H 557.5 l 1.828,2.83 v 2.073 h 1.092 v -2.087 z m -5.606,-1.926 c 0.588,0 0.771,0.196 0.771,0.75 v 0.07 c 0,0.54 -0.168,0.75 -0.764,0.75 h -1.261 v -1.569 h 1.254 z m -1.254,2.458 h 1.429 c 1.198,0 1.681,-0.498 1.681,-1.562 v -0.21 c 0,-1.156 -0.483,-1.576 -1.681,-1.576 h -2.514 v 4.903 h 1.085 z m -5.004,0.68 c -0.974,0 -1.177,-0.539 -1.177,-1.429 v -0.294 c 0,-0.889 0.203,-1.429 1.177,-1.429 h 0.119 c 0.967,0 1.17,0.54 1.17,1.429 v 0.294 c 0,0.903 -0.203,1.415 -1.17,1.429 z m 0.105,0.945 c 1.576,0 2.283,-0.686 2.283,-2.304 v -0.427 c 0,-1.618 -0.708,-2.311 -2.283,-2.311 h -0.091 c -1.59,0 -2.29,0.693 -2.29,2.311 v 0.427 c 0,1.618 0.7,2.304 2.29,2.304 z m -5.93,0 c 1.345,0 1.94,-0.532 2.165,-1.646 h -1.114 c -0.14,0.504 -0.477,0.7 -1.085,0.7 h -0.091 c -0.974,0 -1.148,-0.539 -1.148,-1.429 v -0.294 c 0,-0.889 0.175,-1.429 1.148,-1.429 h 0.091 c 0.609,0 0.945,0.196 1.085,0.701 h 1.114 c -0.224,-1.114 -0.82,-1.646 -2.165,-1.646 h -0.161 c -1.583,0 -2.213,0.687 -2.213,2.304 v 0.434 c 0,1.618 0.63,2.304 2.213,2.304 h 0.161 z"
   id="path30"
   style="stroke:none;fill-opacity:1;fill:#0c1218" /><path
   class="st0"
   d="m 609.415,258.147 c 0.616,0 0.812,0.154 0.812,0.651 v 0.042 c 0,0.469 -0.196,0.623 -0.701,0.623 h -1.324 v -1.316 z m -1.212,2.213 h 1.205 c 0.645,0 0.82,0.119 0.82,0.672 v 1.114 h 1.085 v -1.184 c 0,-0.854 -0.231,-1.03 -0.75,-1.114 V 259.8 c 0.525,-0.084 0.75,-0.406 0.75,-1.135 v -0.126 c 0,-0.953 -0.448,-1.296 -1.667,-1.296 h -2.528 v 4.903 h 1.085 z m -5.004,-2.206 0.693,1.961 h -1.436 l 0.693,-1.961 z m 0.812,-0.911 h -1.639 l -1.793,4.903 h 1.163 l 0.399,-1.121 h 2.066 l 0.399,1.121 h 1.205 z m -4.648,3.992 H 596.8 v -1.092 h 2.563 v -0.904 H 596.8 v -1.085 h 2.563 v -0.911 h -3.649 v 4.903 h 3.649 z m -5.026,-0.027 h -2.325 v -3.964 h -1.085 v 4.903 h 3.411 v -0.939 z m -7.043,1.008 c 1.345,0 1.94,-0.532 2.165,-1.646 h -1.114 c -0.14,0.504 -0.477,0.7 -1.085,0.7 h -0.091 c -0.974,0 -1.148,-0.539 -1.148,-1.429 v -0.294 c 0,-0.889 0.175,-1.429 1.148,-1.429 h 0.091 c 0.609,0 0.945,0.196 1.085,0.701 h 1.114 c -0.224,-1.114 -0.82,-1.646 -2.165,-1.646 h -0.161 c -1.583,0 -2.213,0.687 -2.213,2.304 v 0.434 c 0,1.618 0.63,2.304 2.213,2.304 h 0.161 z"
   id="path34"
   style="stroke:none;fill-opacity:1;fill:#0c1218" /><path
   class="st0"
   d="m 657.808,257.243 h -1.751 l -1.177,3.306 h -0.049 l -1.156,-3.306 h -1.856 v 4.903 h 1.064 v -3.887 h 0.042 l 1.394,3.887 h 0.966 l 1.408,-3.887 h 0.042 v 3.887 h 1.072 v -4.903 z m -9.823,0.918 c 0.966,0 1.197,0.567 1.197,1.457 v 0.154 c 0,0.904 -0.231,1.443 -1.197,1.457 h -1.03 v -3.068 z m 2.304,1.394 c 0,-1.618 -0.714,-2.312 -2.291,-2.312 h -2.129 v 4.903 h 2.129 c 1.576,0 2.291,-0.687 2.291,-2.304 z m -6.027,-2.312 h -1.071 v 3.726 h -0.042 l -1.919,-3.726 h -1.681 v 4.903 h 1.072 v -3.719 h 0.042 l 1.926,3.719 h 1.674 v -4.903 z m -8.163,0.904 c 0.616,0 0.812,0.154 0.812,0.651 v 0.042 c 0,0.469 -0.196,0.623 -0.701,0.623 h -1.324 v -1.316 z m -1.212,2.213 h 1.205 c 0.645,0 0.82,0.119 0.82,0.672 v 1.114 h 1.085 v -1.184 c 0,-0.854 -0.231,-1.03 -0.75,-1.114 V 259.8 c 0.525,-0.084 0.75,-0.406 0.75,-1.135 v -0.126 c 0,-0.953 -0.448,-1.296 -1.667,-1.296 h -2.528 v 4.903 h 1.085 z"
   id="path36"
   style="stroke:none;fill-opacity:1;fill:#0c1218" /><path
   class="st0"
   d="m 710.845,258.161 c 0.966,0 1.198,0.567 1.198,1.457 v 0.154 c 0,0.904 -0.231,1.443 -1.198,1.457 h -1.03 v -3.068 z m 2.304,1.394 c 0,-1.618 -0.715,-2.312 -2.291,-2.312 h -2.129 v 4.903 h 2.129 c 1.576,0 2.291,-0.687 2.291,-2.304 z m -8.254,-1.394 c 0.966,0 1.198,0.567 1.198,1.457 v 0.154 c 0,0.904 -0.231,1.443 -1.198,1.457 h -1.03 v -3.068 z m 2.304,1.394 c 0,-1.618 -0.714,-2.312 -2.291,-2.312 h -2.129 v 4.903 h 2.129 c 1.576,0 2.291,-0.687 2.291,-2.304 z m -8.338,-1.401 0.693,1.961 h -1.436 l 0.693,-1.961 z m 0.813,-0.911 h -1.639 l -1.793,4.903 h 1.163 l 0.399,-1.121 h 2.066 l 0.399,1.121 h 1.205 z m -8.541,2.816 1.842,-2.816 h -1.163 l -1.149,1.856 h -0.042 l -1.148,-1.856 h -1.261 l 1.828,2.83 v 2.073 h 1.092 v -2.087 z m -2.737,1.149 h -2.325 v -3.964 h -1.085 v 4.903 h 3.411 v -0.939 z m -7.329,0.063 c -0.974,0 -1.177,-0.539 -1.177,-1.429 v -0.294 c 0,-0.889 0.203,-1.429 1.177,-1.429 h 0.119 c 0.967,0 1.17,0.54 1.17,1.429 v 0.294 c 0,0.903 -0.203,1.415 -1.17,1.429 z m 0.105,0.945 c 1.576,0 2.283,-0.686 2.283,-2.304 v -0.427 c 0,-1.618 -0.708,-2.311 -2.283,-2.311 h -0.091 c -1.59,0 -2.29,0.693 -2.29,2.311 v 0.427 c 0,1.618 0.7,2.304 2.29,2.304 z m -5.516,-4.083 c 0.588,0 0.771,0.196 0.771,0.75 v 0.07 c 0,0.54 -0.168,0.75 -0.764,0.75 h -1.261 v -1.569 h 1.254 z m -1.254,2.458 h 1.429 c 1.198,0 1.681,-0.498 1.681,-1.562 v -0.21 c 0,-1.156 -0.483,-1.576 -1.681,-1.576 h -2.514 v 4.903 h 1.085 z"
   id="path38"
   style="stroke:none;fill-opacity:1;fill:#0c1218" /><path
   class="st0"
   d="m 590.949,26.112 h -0.521 v 1.45 h 0.556 c 0.345,0 0.485,-0.07 0.485,-0.651 v -0.14 c 10e-4,-0.589 -0.148,-0.659 -0.52,-0.659 z m 16.054,-2.624 h -17.791 c -2.372,0 -4.295,1.923 -4.295,4.295 0,2.372 1.923,4.295 4.295,4.295 h 17.791 c 2.372,0 4.295,-1.923 4.295,-4.295 0,-2.372 -1.923,-4.295 -4.295,-4.295 z M 592.37,26.75 c 0,0.792 -0.19,1.008 -0.57,1.106 v 0.035 c 0.38,0.084 0.57,0.238 0.57,1.121 v 1.247 h -0.9 v -1.303 c 0,-0.603 -0.134,-0.672 -0.514,-0.672 h -0.527 v 1.975 h -0.9 v -4.903 h 1.512 c 0.936,0 1.33,0.21 1.33,1.303 v 0.091 z m 3.53,-0.61 h -1.386 v 1.268 H 595.9 V 28.2 h -1.386 v 1.275 h 1.386 v 0.784 h -2.286 v -4.903 h 2.286 z m 3.924,2.738 c 0,1.121 -0.464,1.45 -1.364,1.45 h -0.07 c -0.443,0 -0.788,-0.098 -1.02,-0.301 -0.232,-0.203 -0.359,-0.575 -0.38,-1.1 h 0.921 c 0.028,0.553 0.211,0.658 0.514,0.658 0.358,0 0.499,-0.133 0.499,-0.63 v -0.119 c 0,-0.441 -0.091,-0.581 -0.492,-0.637 l -0.352,-0.042 c -0.773,-0.098 -1.062,-0.42 -1.062,-1.352 v -0.077 c 0,-1.093 0.408,-1.443 1.337,-1.443 h 0.084 c 0.887,0 1.337,0.35 1.365,1.443 h -0.915 c -0.027,-0.582 -0.168,-0.693 -0.499,-0.693 -0.338,0 -0.464,0.14 -0.464,0.623 v 0.098 c 0,0.427 0.091,0.582 0.492,0.63 l 0.352,0.042 c 0.773,0.098 1.055,0.42 1.055,1.352 v 0.098 z m 3.446,-2.738 h -1.386 v 1.268 h 1.386 V 28.2 h -1.386 v 1.275 h 1.386 v 0.784 h -2.286 v -4.903 h 2.286 z m 3.693,0.014 h -0.914 v 4.104 h -0.908 v -4.104 h -0.893 v -0.799 h 2.715 z"
   id="path40"
   style="stroke:none;fill-opacity:1;fill:#0c1117" /><path
   class="st0"
   d="m 659.657,333.261 c -1.31,-1.624 -3.354,-1.754 -4.579,-1.234 0.179,0.18 0.356,0.351 0.524,0.53 l 0.189,0.054 c 0.671,-0.147 1.328,-0.096 1.962,0.168 1.407,0.587 2.214,2.009 1.999,3.515 -0.103,0.718 -0.415,1.335 -0.93,1.843 -1.017,1.004 -2.48,1.242 -3.771,0.622 l -0.119,0.019 c -0.153,0.157 -0.31,0.311 -0.465,0.466 l -0.039,0.048 c 1.199,0.781 3.296,0.921 4.833,-0.498 1.575,-1.454 1.753,-3.851 0.396,-5.533 z m -2.227,2.948 c -0.379,0.375 -0.745,0.737 -1.107,1.094 0.196,0.193 0.378,0.372 0.562,0.553 l 0.037,-0.035 c 0.646,-0.645 1.291,-1.292 1.939,-1.935 l 0.002,-0.139 c -0.551,-0.547 -1.1,-1.096 -1.649,-1.646 -0.113,-0.113 -0.225,-0.227 -0.321,-0.325 -0.189,0.187 -0.37,0.366 -0.565,0.558 0.356,0.353 0.72,0.714 1.094,1.085 l -0.11,0.005 c -1.718,0 -29.542,0 -31.26,0 -0.108,0 -0.108,0 -0.108,0.104 0,0.187 0,0.375 0,0.562 0,0.111 0,0.111 0.108,0.111 1.713,0 29.531,0 31.244,0 z m -29.127,-2.129 c 0.724,-0.003 25.296,-0.002 26.02,-0.002 h 0.087 l 0.007,0.019 -0.054,0.057 c -0.155,0.155 -0.309,0.312 -0.467,0.465 l 0.001,0.11 c 0.148,0.143 0.294,0.289 0.437,0.437 h 0.116 c 0.472,-0.474 0.946,-0.947 1.419,-1.42 l 0.038,-0.046 c -0.512,-0.511 -1.019,-1.016 -1.512,-1.508 -0.175,0.171 -0.356,0.348 -0.553,0.54 0.188,0.181 0.379,0.366 0.57,0.55 l -0.006,0.022 h -0.124 c -0.71,0 -25.27,0.001 -25.98,-0.003 l -0.102,0.104 c 0.006,0.19 0.006,0.38 0,0.57 z m 26.595,3.802 c -0.384,-0.38 -0.766,-0.763 -1.147,-1.146 l -0.166,-0.192 -0.078,0.073 c -0.133,0.132 -0.266,0.264 -0.398,0.397 -0.099,0.1 -0.105,0.073 0.003,0.181 0.112,0.111 0.225,0.22 0.338,0.331 l -0.011,0.027 h -0.085 c -0.402,0 -25.942,0.002 -26.344,-0.002 l -0.097,0.101 c 0.005,0.195 0.005,0.391 0,0.586 l 0.09,0.09 c 0.405,-0.003 25.948,-10e-4 26.352,-10e-4 l 0.11,0.005 c -0.158,0.16 -0.298,0.302 -0.449,0.455 0.169,0.166 0.334,0.322 0.493,0.485 l 0.121,-0.002 c 0.421,-0.423 0.843,-0.845 1.266,-1.266 z"
   id="path42"
   style="stroke:none;fill-opacity:1;fill:#0c1218" /><polygon
   class="st0"
   points="633.542,78.565 629.585,81.89 633.542,85.215 "
   id="polygon44"
   style="stroke:none;fill-opacity:1;fill:#0c1117" /><polygon
   class="st0"
   points="705.144,85.215 709.101,81.89 705.144,78.565 "
   id="polygon46"
   style="stroke:none;fill-opacity:1;fill:#0c1117" /><path
   class="st1"
   d="m 643.369,16.3 h -10.17 v 0.004 c -3.165,0.021 -6.032,1.368 -8.105,3.537 -2.09,2.185 -3.382,5.203 -3.382,8.532 v 61.4 c 0,3.329 1.291,6.347 3.382,8.532 2.085,2.181 4.971,3.534 8.159,3.54 v 0.001 h 10.116 v -0.598 h -10.096 v -0.001 c -3.024,0 -5.761,-1.28 -7.748,-3.356 -1.986,-2.076 -3.215,-4.945 -3.215,-8.118 v -61.4 c 0,-3.173 1.23,-6.042 3.215,-8.118 1.986,-2.076 4.723,-3.356 7.748,-3.356 v -0.001 h 10.096 V 16.3 m 61.805,0 h -10.119 v 0.598 h 10.095 v 0.001 c 3.024,0 5.761,1.28 7.748,3.356 1.986,2.076 3.215,4.945 3.215,8.118 v 61.4 c 0,3.173 -1.23,6.042 -3.215,8.118 -1.986,2.076 -4.723,3.356 -7.748,3.356 v 0.001 h -10.095 v 0.598 h 10.163 v -0.004 c 3.168,-0.019 6.037,-1.367 8.112,-3.537 2.09,-2.185 3.381,-5.203 3.381,-8.532 v -61.4 c 0,-3.329 -1.291,-6.347 -3.381,-8.532 -2.084,-2.18 -4.969,-3.533 -8.155,-3.539 V 16.3"
   id="path48"
   style="stroke:none;fill-opacity:1;fill:#0c1117" /><path
   class="st0"
   d="m 646.12,70.337 v -7.535 c 0,-0.138 -0.112,-0.25 -0.25,-0.25 -0.138,0 -0.25,0.112 -0.25,0.25 v 7.535 c 0,0.138 0.112,0.25 0.25,0.25 0.138,0 0.25,-0.112 0.25,-0.25"
   id="path50"
   style="stroke:none;fill-opacity:1;fill:#0c1117" /><path
   class="st0"
   d="m 693.656,70.337 v -7.535 c 0,-0.138 -0.112,-0.25 -0.25,-0.25 -0.138,0 -0.25,0.112 -0.25,0.25 v 7.535 c 0,0.138 0.112,0.25 0.25,0.25 0.138,0 0.25,-0.112 0.25,-0.25"
   id="path52"
   style="stroke:none;fill-opacity:1;fill:#0c1117" /><path
   class="st0"
   d="m 601.61,85.833 h 0.402 c 0.118,0 0.178,-0.071 0.178,-0.177 v -3.758 c 0,-0.106 0.071,-0.177 0.178,-0.177 h 1.065 c 0.106,0 0.189,0.071 0.189,0.177 v 3.758 c 0,0.106 0.071,0.177 0.178,0.177 h 0.391 c 0.118,0 0.178,-0.071 0.178,-0.177 v -8.481 c 0,-0.106 -0.071,-0.177 -0.178,-0.177 H 603.8 c -0.118,0 -0.178,0.071 -0.178,0.177 v 3.652 c 0,0.106 -0.083,0.177 -0.189,0.177 h -1.065 c -0.106,0 -0.178,-0.071 -0.178,-0.177 v -3.652 c 0,-0.106 -0.071,-0.177 -0.178,-0.177 h -0.402 c -0.118,0 -0.178,0.071 -0.178,0.177 v 8.481 c 10e-4,0.106 0.072,0.177 0.178,0.177 z m -5.268,-1.72 c 0,1.083 0.485,1.779 1.396,1.779 0.924,0 1.409,-0.707 1.409,-1.779 v -0.931 c 0,-0.106 -0.071,-0.177 -0.178,-0.177 h -0.402 c -0.106,0 -0.178,0.071 -0.178,0.177 v 0.707 c 0,0.872 -0.153,1.284 -0.651,1.284 -0.497,0 -0.639,-0.412 -0.639,-1.284 v -4.947 c 0,-0.872 0.142,-1.284 0.639,-1.284 0.498,0 0.651,0.413 0.651,1.284 v 0.707 c 0,0.106 0.071,0.177 0.178,0.177 h 0.402 c 0.106,0 0.178,-0.071 0.178,-0.177 v -0.93 c 0,-1.072 -0.485,-1.779 -1.409,-1.779 -0.911,0 -1.396,0.695 -1.396,1.779 z m -4.286,-6.573 c 0,0.118 0.071,0.177 0.178,0.177 h 0.462 c 0.106,0 0.177,0.071 0.177,0.177 v 7.763 c 0,0.106 0.071,0.177 0.178,0.177 h 0.391 c 0.119,0 0.178,-0.071 0.178,-0.177 v -7.763 c 0,-0.106 0.071,-0.177 0.178,-0.177 h 0.485 c 0.106,0 0.178,-0.071 0.178,-0.177 v -0.365 c 0,-0.118 -0.071,-0.177 -0.178,-0.177 h -2.048 c -0.106,0 -0.178,0.071 -0.178,0.177 v 0.365 z m -2.581,8.293 h 0.402 c 0.118,0 0.178,-0.071 0.178,-0.177 v -8.481 c 0,-0.106 -0.071,-0.177 -0.178,-0.177 h -0.402 c -0.119,0 -0.178,0.071 -0.178,0.177 v 8.481 c 0,0.106 0.071,0.177 0.178,0.177 z m -4.263,-0.177 c 0,0.106 0.071,0.177 0.178,0.177 h 1.729 c 0.106,0 0.178,-0.071 0.178,-0.177 v -0.33 c 0,-0.106 -0.071,-0.177 -0.178,-0.177 h -0.971 c -0.106,0 -0.178,-0.071 -0.178,-0.177 v -7.798 c 0,-0.106 -0.071,-0.177 -0.178,-0.177 h -0.402 c -0.118,0 -0.178,0.071 -0.178,0.177 z m -5.115,-1.543 c 0,1.083 0.485,1.779 1.396,1.779 0.924,0 1.386,-0.707 1.386,-1.779 v -2.521 c 0,-0.106 -0.071,-0.177 -0.178,-0.177 h -1.03 c -0.106,0 -0.178,0.071 -0.178,0.177 v 0.354 c 0,0.118 0.071,0.177 0.178,0.177 h 0.296 c 0.107,0 0.178,0.07 0.178,0.177 v 1.59 c 0,0.872 -0.153,1.284 -0.651,1.284 -0.497,0 -0.639,-0.412 -0.639,-1.284 v -4.947 c 0,-0.872 0.142,-1.284 0.639,-1.284 0.498,0 0.651,0.413 0.651,1.284 v 0.707 c 0,0.106 0.071,0.177 0.178,0.177 h 0.379 c 0.106,0 0.178,-0.071 0.178,-0.177 v -0.93 c 0,-1.072 -0.462,-1.779 -1.386,-1.779 -0.911,0 -1.396,0.695 -1.396,1.779 v 5.393 z m -4.547,1.72 h 0.474 c 0.083,0 0.154,-0.071 0.178,-0.177 l 0.628,-2.815 h 0.095 l 0.615,2.815 c 0.023,0.106 0.106,0.177 0.189,0.177 h 0.462 c 0.083,0 0.143,-0.071 0.118,-0.177 l -1.018,-4.17 0.012,-0.142 1.006,-4.17 c 0.024,-0.106 -0.035,-0.177 -0.118,-0.177 h -0.462 c -0.083,0 -0.153,0.071 -0.178,0.177 l -0.627,2.827 h -0.095 l -0.628,-2.827 c -0.023,-0.106 -0.095,-0.177 -0.178,-0.177 h -0.474 c -0.071,0 -0.142,0.071 -0.118,0.177 l 1.019,4.17 v 0.142 l -1.019,4.17 c -0.023,0.106 0.048,0.177 0.119,0.177 z m -4.072,-1.944 v -4.947 c 0,-0.872 0.142,-1.284 0.639,-1.284 0.51,0 0.651,0.413 0.651,1.284 v 4.947 c 0,0.872 -0.142,1.284 -0.651,1.284 -0.498,0 -0.639,-0.412 -0.639,-1.284 z m -0.758,0.224 c 0,1.083 0.485,1.779 1.396,1.779 0.924,0 1.409,-0.695 1.409,-1.779 v -5.395 c 0,-1.084 -0.485,-1.779 -1.409,-1.779 -0.911,0 -1.396,0.695 -1.396,1.779 z m -3.529,1.72 h 0.426 c 0.118,0 0.178,-0.059 0.201,-0.224 l 1.185,-8.399 c 0.023,-0.177 -0.071,-0.212 -0.178,-0.212 h -0.367 c -0.13,0 -0.201,0.036 -0.213,0.188 l -0.782,6.396 h -0.118 l -0.781,-6.396 c -0.012,-0.153 -0.083,-0.188 -0.213,-0.188 h -0.367 c -0.106,0 -0.201,0.036 -0.178,0.212 l 1.184,8.399 c 0.024,0.164 0.082,0.224 0.201,0.224 z"
   id="path54"
   style="stroke:none;fill-opacity:1;fill:#0c1117" /><path
   class="st0"
   d="m 561.148,76.175 -6.521,-0.52 c -0.12,-0.01 -0.227,0.078 -0.241,0.198 l -0.264,2.282 1.111,0.336 -1.924,3.101 -1.924,-3.101 1.111,-0.336 -0.266,-2.283 c -0.014,-0.12 -0.12,-0.208 -0.241,-0.198 l -6.538,0.521 c -0.206,0.016 -0.382,0.156 -0.445,0.353 l -1.095,3.382 c -0.055,0.171 -0.018,0.358 0.1,0.494 l 5.763,6.678 c 0.097,0.112 0.238,0.177 0.386,0.177 h 6.281 c 0.148,0 0.289,-0.065 0.386,-0.177 l 5.765,-6.679 c 0.117,-0.136 0.155,-0.324 0.1,-0.495 l -1.098,-3.382 c -0.065,-0.196 -0.241,-0.335 -0.446,-0.351 z m -5.727,9.033 h -4.245 c -0.158,0 -0.307,-0.073 -0.404,-0.199 l -4.017,-5.198 c -0.087,-0.113 -0.123,-0.257 -0.1,-0.397 l 0.166,-1.018 c 0.024,-0.148 0.168,-0.243 0.313,-0.208 l 1,0.246 c 0.138,0.034 0.255,0.124 0.324,0.248 l 2.927,5.259 c 0.045,0.081 0.13,0.131 0.223,0.131 h 3.397 c 0.093,0 0.178,-0.05 0.223,-0.132 l 2.909,-5.257 c 0.069,-0.125 0.188,-0.216 0.326,-0.249 l 0.999,-0.243 c 0.144,-0.035 0.288,0.06 0.312,0.207 l 0.167,1.015 c 0.023,0.141 -0.013,0.285 -0.1,0.398 l -4.018,5.198 c -0.095,0.126 -0.244,0.199 -0.402,0.199 z"
   id="path56"
   style="stroke:none;fill-opacity:1;fill:#0c1117" /><path
   class="st0"
   d="m 605.147,90.311 v 8.018 H 543.48 v -8.018 h 61.667 m 0.5,-0.5 h -0.5 -61.667 -0.5 v 0.5 8.018 0.5 h 0.5 61.667 0.5 v -0.5 -8.018 z"
   id="path58"
   style="stroke:none;fill-opacity:1;fill:#0c1117" /><path
   class="st0"
   d="m 601.539,92.828 c 0.318,0 0.444,0.06 0.444,0.563 v 0.12 c 0,0.498 -0.12,0.558 -0.414,0.558 h -0.474 v -1.241 z m -0.443,1.859 h 0.449 c 0.324,0 0.438,0.06 0.438,0.576 v 1.115 h 0.768 v -1.067 c 0,-0.756 -0.162,-0.888 -0.486,-0.959 v -0.03 c 0.324,-0.084 0.486,-0.27 0.486,-0.948 v -0.078 c 0,-0.935 -0.336,-1.115 -1.134,-1.115 h -1.289 v 4.198 h 0.768 z m -1.801,1.019 h -1.181 v -1.091 h 1.181 v -0.677 h -1.181 v -1.085 h 1.181 V 92.18 h -1.948 v 4.198 h 1.948 z m -3.042,-3.526 h -1.193 l -0.552,2.65 h -0.036 l -0.546,-2.65 h -1.253 v 4.198 h 0.737 v -3.292 h 0.03 l 0.707,3.292 h 0.63 l 0.702,-3.292 h 0.035 v 3.292 h 0.738 V 92.18 Z m -4.675,0 h -1.193 l -0.552,2.65 h -0.036 l -0.546,-2.65 h -1.253 v 4.198 h 0.737 v -3.292 h 0.03 l 0.707,3.292 h 0.63 l 0.702,-3.292 h 0.035 v 3.292 h 0.738 V 92.18 Z m -5.956,0.804 0.336,1.829 h -0.702 l 0.336,-1.829 z m 0.564,-0.804 h -1.133 l -0.894,4.198 h 0.797 l 0.168,-0.899 h 0.966 l 0.174,0.899 h 0.815 z m -4.128,0.648 c 0.318,0 0.444,0.06 0.444,0.563 v 0.12 c 0,0.498 -0.12,0.558 -0.414,0.558 h -0.474 v -1.241 z m -0.444,1.859 h 0.449 c 0.324,0 0.438,0.06 0.438,0.576 v 1.115 h 0.768 v -1.067 c 0,-0.756 -0.162,-0.888 -0.486,-0.959 v -0.03 c 0.324,-0.084 0.486,-0.27 0.486,-0.948 v -0.078 c 0,-0.935 -0.336,-1.115 -1.134,-1.115 h -1.289 v 4.198 h 0.768 z m -3.054,1.751 c 0.882,0 1.235,-0.348 1.235,-1.559 v -0.924 h -1.312 v 0.672 h 0.545 v 0.39 c 0,0.618 -0.107,0.768 -0.468,0.768 h -0.054 c -0.197,0 -0.323,-0.06 -0.39,-0.18 -0.06,-0.126 -0.09,-0.348 -0.09,-0.666 v -1.307 c 0,-0.324 0.03,-0.545 0.09,-0.666 0.066,-0.126 0.192,-0.186 0.39,-0.186 h 0.042 c 0.294,0 0.42,0.132 0.45,0.612 h 0.785 c -0.048,-0.965 -0.438,-1.271 -1.224,-1.271 h -0.065 c -0.882,0 -1.241,0.348 -1.241,1.565 v 1.193 c 0,1.211 0.359,1.559 1.241,1.559 z m -3.613,-0.654 c -0.197,0 -0.323,-0.06 -0.39,-0.186 -0.06,-0.125 -0.09,-0.348 -0.09,-0.666 v -1.301 c 0,-0.324 0.03,-0.545 0.09,-0.666 0.066,-0.126 0.192,-0.186 0.39,-0.186 h 0.042 c 0.198,0 0.324,0.06 0.384,0.186 0.066,0.12 0.096,0.342 0.096,0.666 v 1.301 c 0,0.318 -0.029,0.54 -0.096,0.666 -0.06,0.126 -0.186,0.186 -0.384,0.186 z m 0.054,0.654 c 0.888,0 1.242,-0.348 1.242,-1.559 v -1.193 c 0,-1.217 -0.354,-1.565 -1.242,-1.565 h -0.065 c -0.882,0 -1.241,0.348 -1.241,1.565 v 1.193 c 0,1.211 0.359,1.559 1.241,1.559 z m -3.539,-3.61 c 0.318,0 0.444,0.06 0.444,0.563 v 0.12 c 0,0.498 -0.12,0.558 -0.414,0.558 h -0.474 v -1.241 z m -0.443,1.859 h 0.449 c 0.324,0 0.438,0.06 0.438,0.576 v 1.115 h 0.768 v -1.067 c 0,-0.756 -0.162,-0.888 -0.486,-0.959 v -0.03 c 0.324,-0.084 0.486,-0.27 0.486,-0.948 v -0.078 c 0,-0.935 -0.336,-1.115 -1.134,-1.115 h -1.289 v 4.198 h 0.768 z m -2.966,-1.865 c 0.312,0 0.433,0.078 0.433,0.624 v 0.288 c 0,0.54 -0.114,0.624 -0.433,0.624 h -0.455 v -1.535 h 0.455 z m -0.455,2.165 h 0.521 c 0.785,0 1.134,-0.204 1.134,-1.283 v -0.24 c 0,-1.103 -0.336,-1.283 -1.134,-1.283 h -1.289 v 4.198 h 0.768 z m -3.162,0.713 h -1.031 v -3.52 h -0.768 v 4.198 h 1.799 z m -4.176,-2.716 0.336,1.829 h -0.702 l 0.336,-1.829 z m 0.563,-0.804 h -1.133 l -0.894,4.198 h 0.797 l 0.168,-0.899 h 0.966 l 0.174,0.899 h 0.815 z m -3.156,0.684 h 0.779 V 92.18 h -2.314 v 0.684 h 0.762 v 3.514 h 0.773 z m -2.429,-0.684 h -0.768 v 4.198 h 0.768 z m -3.054,4.258 c 0.882,0 1.235,-0.348 1.235,-1.559 v -0.924 h -1.312 v 0.672 h 0.545 v 0.39 c 0,0.618 -0.107,0.768 -0.468,0.768 h -0.054 c -0.197,0 -0.323,-0.06 -0.39,-0.18 -0.06,-0.126 -0.09,-0.348 -0.09,-0.666 v -1.307 c 0,-0.324 0.03,-0.545 0.09,-0.666 0.066,-0.126 0.192,-0.186 0.39,-0.186 h 0.042 c 0.294,0 0.42,0.132 0.45,0.612 h 0.785 c -0.048,-0.965 -0.438,-1.271 -1.224,-1.271 h -0.065 c -0.882,0 -1.241,0.348 -1.241,1.565 v 1.193 c 0,1.211 0.359,1.559 1.241,1.559 z m -2.358,-4.258 h -0.768 v 4.198 h 0.768 z m -3.097,0.648 c 0.384,0 0.492,0.216 0.492,0.863 v 1.181 c 0,0.642 -0.114,0.858 -0.492,0.858 h -0.443 v -2.902 z m 1.266,0.918 c 0,-1.206 -0.372,-1.565 -1.254,-1.565 h -1.223 v 4.198 h 1.223 c 0.882,0 1.254,-0.36 1.254,-1.559 z"
   id="path60"
   style="stroke:none;fill-opacity:1;fill:#0c1117" /><path
   class="st0"
   d="m 608.038,102.169 v -0.25 h -67.7 c -0.416,-10e-4 -0.758,-0.343 -0.759,-0.759 V 74.329 c 0.001,-0.416 0.343,-0.758 0.759,-0.759 h 67.7 c 0.416,0.001 0.758,0.343 0.759,0.759 v 26.831 c -10e-4,0.416 -0.343,0.758 -0.759,0.759 v 0.25 0.25 c 0.694,-10e-4 1.258,-0.565 1.259,-1.259 V 74.329 c -10e-4,-0.694 -0.565,-1.258 -1.259,-1.259 h -67.7 c -0.694,0.001 -1.258,0.565 -1.259,1.259 v 26.831 c 0.001,0.694 0.565,1.258 1.259,1.259 h 67.7 z"
   id="path62"
   style="stroke:none;fill-opacity:1;fill:#0c1117" /><path
   d="M 512.261,309.063 H 19.768 c -1.331,0 -2.41,-1.079 -2.41,-2.41 V 19.279 c 0,-1.331 1.079,-2.41 2.41,-2.41 h 492.494 c 1.331,0 2.41,1.079 2.41,2.41 v 287.374 c -10e-4,1.33 -1.08,2.41 -2.411,2.41"
   id="path64"
   style="stroke:#000000;stroke-opacity:1" /><path
   class="st2"
   d="m 514.671,306.67 c 0,1.331 -1.079,2.41 -2.41,2.41 H 19.768 c -1.331,0 -2.41,-1.079 -2.41,-2.41 v 0.583 c 0,1.331 1.079,2.41 2.41,2.41 h 492.494 c 1.331,0 2.41,-1.079 2.41,-2.41 v -0.583"
   id="path66" /><path
   class="st3"
   d="M 511.978,307.366 H 20.051 c -0.504,0 -0.912,-0.409 -0.912,-0.913 V 19.61 c 0,-0.504 0.409,-0.912 0.912,-0.912 h 491.927 c 0.504,0 0.912,0.409 0.912,0.912 v 286.843 c 0,0.504 -0.408,0.913 -0.912,0.913 z"
   id="path68"
   style="stroke:#000000;stroke-opacity:1;fill:#131b1e;fill-opacity:1" /><path
   d="M 714.678,241.133 H 533.803 c -1.331,0 -2.41,-1.079 -2.41,-2.41 V 116.787 c 0,-1.331 1.079,-2.41 2.41,-2.41 h 180.876 c 1.331,0 2.41,1.079 2.41,2.41 v 121.936 c 0,1.331 -1.079,2.41 -2.411,2.41"
   id="path70"
   style="stroke:none;fill-opacity:1;fill:#000000" /><path
   class="st2"
   d="m 717.089,238.741 c 0,1.331 -1.079,2.41 -2.41,2.41 H 533.803 c -1.331,0 -2.41,-1.079 -2.41,-2.41 v 0.583 c 0,1.331 1.079,2.41 2.41,2.41 h 180.876 c 1.331,0 2.41,-1.079 2.41,-2.41 v -0.583"
   id="path72"
   style="stroke:none" /><path
   class="st3"
   d="M 714.395,239.436 H 534.086 c -0.504,0 -0.913,-0.409 -0.913,-0.912 V 117.118 c 0,-0.504 0.409,-0.912 0.913,-0.912 h 180.309 c 0.504,0 0.913,0.409 0.913,0.912 v 121.405 c 0,0.504 -0.409,0.913 -0.913,0.913 z"
   id="path74"
   style="stroke:none;fill-opacity:1;fill:#131b1e" />
<text
   xml:space="preserve"
   transform="scale(0.96000007)"
   id="text368"
   style="font-size:14.6667px;line-height:1.25;font-family:Pilat;-inkscape-font-specification:Pilat;letter-spacing:0.75px;word-spacing:0px;white-space:pre;shape-inside:url(#rect370);display:inline" /><path
   d="m 584.08725,336.62578 h 1.428 c 1.197,0 1.68,-0.497 1.68,-1.561 v -0.21 c 0,-1.155 -0.483,-1.575 -1.68,-1.575 h -2.513 v 4.9 h 1.085 z m 1.253,-2.457 c 0.588,0 0.77,0.196 0.77,0.749 v 0.07 c 0,0.539 -0.168,0.749 -0.763,0.749 h -1.26 v -1.568 z m 5.396,4.081 c 1.575,0 2.282,-0.686 2.282,-2.303 v -0.427 c 0,-1.617 -0.707,-2.31 -2.282,-2.31 h -0.091 c -1.589,0 -2.289,0.693 -2.289,2.31 v 0.427 c 0,1.617 0.7,2.303 2.289,2.303 z m -0.105,-0.945 c -0.973,0 -1.176,-0.539 -1.176,-1.428 v -0.294 c 0,-0.889 0.203,-1.428 1.176,-1.428 h 0.119 c 0.966,0 1.169,0.539 1.169,1.428 v 0.294 c 0,0.903 -0.203,1.414 -1.169,1.428 z m 7.209,-0.063 h -2.324 v -3.962 h -1.085 v 4.9 h 3.409 z m 2.61699,-1.148 1.841,-2.814 h -1.162 l -1.148,1.855 h -0.042 l -1.148,-1.855 h -1.26 l 1.827,2.828 v 2.072 h 1.092 z m 7.467,2.156 c 1.575,0 2.282,-0.686 2.282,-2.303 v -0.427 c 0,-1.617 -0.707,-2.31 -2.282,-2.31 h -0.091 c -1.589,0 -2.289,0.693 -2.289,2.31 v 0.427 c 0,1.617 0.7,2.303 2.289,2.303 z m -0.105,-0.945 c -0.973,0 -1.176,-0.539 -1.176,-1.428 v -0.294 c 0,-0.889 0.203,-1.428 1.176,-1.428 h 0.119 c 0.966,0 1.169,0.539 1.169,1.428 v 0.294 c 0,0.903 -0.203,1.414 -1.169,1.428 z m 5.921,0.945 c 1.512,0 2.093,-0.518 2.093,-2.03 v -2.94 h -1.106 v 2.877 c 0,0.847 -0.238,1.12 -0.959,1.12 h -0.154 c -0.721,0 -0.959,-0.266 -0.959,-1.12 v -2.877 h -1.106 v 2.94 c 0,1.512 0.574,2.03 2.093,2.03 z m 5.809,-4.032 h 1.512 v -0.938 h -4.095 v 0.938 h 1.491 v 3.962 h 1.092 z"
   id="text426"
   style="font-size:7px;line-height:1.25;font-family:Pilat;-inkscape-font-specification:Pilat;letter-spacing:0.72px;word-spacing:0px;stroke-width:0.96"
   aria-label="POLY OUT" /></svg>
