<?xml version="1.0" encoding="utf-8"?>
<!-- Generator: Adobe Illustrator 26.1.0, SVG Export Plug-In . SVG Version: 6.00 Build 0)  -->
<svg version="1.1" id="Ebene_1" xmlns="http://www.w3.org/2000/svg" xmlns:xlink="http://www.w3.org/1999/xlink" x="0px" y="0px"
	 viewBox="0 0 230.4 364.252" style="enable-background:new 0 0 230.4 364.252;" xml:space="preserve">
<style type="text/css">
	.st0{fill:#F3EDE7;}
	.st1{fill:#FFFFFF;}
	.st2{fill:#1C2729;}
</style>
<g>
	<path class="st0" d="M93.984,120.304c0.059-0.243,0.11-0.488,0.156-0.736l-2.488-0.566c0.113-0.648,0.176-1.313,0.175-1.993
		c0-1.421-0.259-2.781-0.73-4.038l2.38-0.935c-0.089-0.235-0.184-0.467-0.285-0.696l-2.384,0.936c-0.84-1.86-2.158-3.455-3.8-4.631
		l1.446-2.117c-0.204-0.145-0.412-0.285-0.624-0.42l-1.447,2.118c-1.664-1.035-3.61-1.656-5.697-1.723v-2.566
		c-0.125-0.003-0.25-0.009-0.376-0.009c-0.126,0-0.251,0.006-0.376,0.009v2.566c-2.087,0.067-4.033,0.688-5.697,1.723l-1.447-2.118
		c-0.212,0.135-0.42,0.275-0.624,0.42l1.446,2.117c-1.641,1.176-2.96,2.772-3.8,4.631l-2.384-0.936
		c-0.101,0.229-0.196,0.461-0.285,0.696l2.38,0.935c-0.471,1.257-0.73,2.617-0.73,4.038c0,0.68,0.062,1.345,0.175,1.993
		l-2.488,0.566c0.046,0.248,0.098,0.493,0.156,0.736l2.485-0.565c0.5,2.054,1.549,3.893,2.984,5.349l-1.731,1.865
		c0.178,0.177,0.361,0.348,0.548,0.516l2.351-2.532l-0.551-0.512l-0.003,0.003c-1.872-1.915-3.026-4.529-3.026-7.419
		c0-2.933,1.188-5.584,3.109-7.507c1.923-1.922,4.574-3.109,7.507-3.109c2.933,0,5.584,1.188,7.507,3.109
		c1.922,1.923,3.109,4.574,3.109,7.507c0,2.889-1.154,5.504-3.026,7.419l-0.003-0.003l-0.551,0.512l2.35,2.532
		c0.187-0.167,0.37-0.339,0.548-0.516l-1.731-1.865c1.435-1.456,2.484-3.295,2.984-5.349L93.984,120.304z"/>
	<path class="st0" d="M65.804,126.652c-0.479,0-0.634-0.21-0.634-1.093v-1.632c0-0.883,0.155-1.1,0.634-1.1
		c0.471,0,0.626,0.217,0.626,1.1v1.632C66.43,126.442,66.282,126.652,65.804,126.652z M65.846,127.262
		c0.887,0,1.287-0.371,1.287-1.758v-1.521c0-1.4-0.394-1.765-1.287-1.765h-0.085c-0.886,0-1.287,0.364-1.287,1.765v1.521
		c0,1.387,0.401,1.758,1.287,1.758H65.846z"/>
	<polygon class="st0" points="96.933,126.575 96.039,126.575 96.039,122.289 95.174,122.289 94.386,122.688 94.386,123.431 
		95.308,122.912 95.343,122.912 95.343,126.575 94.33,126.575 94.33,127.191 96.933,127.191 	"/>
	<path class="st0" d="M93.984,187.145c0.059-0.243,0.11-0.488,0.156-0.736l-2.488-0.566c0.113-0.648,0.176-1.313,0.175-1.993
		c0-1.421-0.259-2.781-0.73-4.038l2.38-0.935c-0.089-0.235-0.184-0.467-0.285-0.696l-2.384,0.936c-0.84-1.86-2.158-3.455-3.8-4.631
		l1.446-2.117c-0.204-0.145-0.412-0.285-0.624-0.42l-1.447,2.118c-1.664-1.035-3.61-1.656-5.697-1.723v-2.566
		c-0.125-0.003-0.25-0.009-0.376-0.009c-0.126,0-0.251,0.006-0.376,0.009v2.566c-2.087,0.067-4.033,0.688-5.697,1.723l-1.447-2.118
		c-0.212,0.134-0.42,0.274-0.624,0.42l1.446,2.117c-1.641,1.176-2.96,2.772-3.8,4.631l-2.384-0.936
		c-0.101,0.229-0.196,0.461-0.285,0.696l2.38,0.935c-0.471,1.257-0.73,2.617-0.73,4.038c0,0.68,0.062,1.345,0.175,1.993
		l-2.488,0.566c0.046,0.248,0.098,0.493,0.156,0.736l2.485-0.565c0.5,2.054,1.549,3.893,2.984,5.349l-1.731,1.865
		c0.178,0.177,0.361,0.348,0.548,0.516l2.351-2.532l-0.551-0.512l-0.003,0.003c-1.872-1.915-3.026-4.529-3.026-7.419
		c0-2.933,1.188-5.584,3.109-7.507c1.923-1.922,4.574-3.109,7.507-3.109c2.933,0,5.584,1.188,7.507,3.109
		c1.922,1.923,3.109,4.574,3.109,7.507c0,2.889-1.154,5.504-3.026,7.419l-0.003-0.003l-0.551,0.512l2.35,2.532
		c0.187-0.167,0.37-0.339,0.548-0.516l-1.731-1.865c1.435-1.456,2.484-3.295,2.984-5.349L93.984,187.145z"/>
	<path class="st0" d="M65.804,193.493c-0.479,0-0.634-0.21-0.634-1.093v-1.632c0-0.883,0.155-1.1,0.634-1.1
		c0.471,0,0.626,0.217,0.626,1.1v1.632C66.43,193.283,66.282,193.493,65.804,193.493z M65.846,194.103
		c0.887,0,1.287-0.371,1.287-1.758v-1.521c0-1.4-0.394-1.765-1.287-1.765h-0.085c-0.886,0-1.287,0.364-1.287,1.765v1.521
		c0,1.387,0.401,1.758,1.287,1.758H65.846z"/>
	<polygon class="st0" points="96.933,193.416 96.039,193.416 96.039,189.13 95.174,189.13 94.386,189.528 94.386,190.271 
		95.308,189.753 95.343,189.753 95.343,193.416 94.33,193.416 94.33,194.032 96.933,194.032 	"/>
	<path class="st0" d="M93.984,254.207c0.059-0.243,0.11-0.488,0.156-0.736l-2.488-0.566c0.113-0.648,0.176-1.313,0.175-1.993
		c0-1.421-0.259-2.781-0.73-4.038l2.38-0.935c-0.089-0.235-0.184-0.467-0.285-0.696l-2.384,0.936c-0.84-1.86-2.158-3.455-3.8-4.631
		l1.446-2.117c-0.204-0.145-0.412-0.285-0.624-0.42l-1.447,2.118c-1.664-1.035-3.61-1.656-5.697-1.723v-2.566
		c-0.125-0.003-0.25-0.009-0.376-0.009c-0.126,0-0.251,0.006-0.376,0.009v2.566c-2.087,0.067-4.033,0.688-5.697,1.723l-1.447-2.118
		c-0.212,0.134-0.42,0.274-0.624,0.42l1.446,2.117c-1.641,1.176-2.96,2.772-3.8,4.631l-2.384-0.936
		c-0.101,0.229-0.196,0.461-0.285,0.696l2.38,0.935c-0.471,1.257-0.73,2.617-0.73,4.038c0,0.68,0.062,1.345,0.175,1.993
		l-2.488,0.566c0.046,0.248,0.098,0.493,0.156,0.736l2.485-0.565c0.5,2.054,1.549,3.893,2.984,5.349l-1.731,1.865
		c0.178,0.177,0.361,0.348,0.548,0.516l2.351-2.532l-0.551-0.512l-0.003,0.003c-1.872-1.915-3.026-4.529-3.026-7.419
		c0-2.933,1.188-5.584,3.109-7.507c1.923-1.922,4.574-3.109,7.507-3.109c2.933,0,5.584,1.188,7.507,3.109
		c1.922,1.923,3.109,4.574,3.109,7.507c0,2.889-1.154,5.503-3.026,7.419l-0.003-0.003l-0.551,0.512l2.35,2.532
		c0.187-0.167,0.37-0.339,0.548-0.516l-1.731-1.865c1.435-1.456,2.484-3.295,2.984-5.349L93.984,254.207z"/>
	<path class="st0" d="M65.804,260.556c-0.479,0-0.634-0.21-0.634-1.093v-1.632c0-0.883,0.155-1.1,0.634-1.1
		c0.471,0,0.626,0.217,0.626,1.1v1.632C66.43,260.346,66.282,260.556,65.804,260.556z M65.846,261.165
		c0.887,0,1.287-0.371,1.287-1.758v-1.521c0-1.4-0.394-1.765-1.287-1.765h-0.085c-0.886,0-1.287,0.364-1.287,1.765v1.521
		c0,1.387,0.401,1.758,1.287,1.758H65.846z"/>
	<polygon class="st0" points="96.933,260.479 96.039,260.479 96.039,256.192 95.174,256.192 94.386,256.591 94.386,257.334 
		95.308,256.815 95.343,256.815 95.343,260.479 94.33,260.479 94.33,261.095 96.933,261.095 	"/>
	<path class="st0" d="M93.984,321.935c0.059-0.243,0.11-0.488,0.156-0.736l-2.488-0.565c0.113-0.648,0.176-1.313,0.175-1.993
		c0-1.421-0.259-2.781-0.73-4.038l2.38-0.935c-0.089-0.235-0.184-0.467-0.285-0.696l-2.384,0.936c-0.84-1.86-2.158-3.455-3.8-4.631
		l1.446-2.117c-0.204-0.145-0.412-0.285-0.624-0.42l-1.447,2.118c-1.664-1.035-3.61-1.656-5.697-1.723v-2.566
		c-0.125-0.003-0.25-0.009-0.376-0.009c-0.126,0-0.251,0.006-0.376,0.009v2.566c-2.087,0.067-4.033,0.688-5.697,1.723l-1.447-2.118
		c-0.212,0.135-0.42,0.275-0.624,0.42l1.446,2.117c-1.641,1.176-2.96,2.772-3.8,4.631l-2.384-0.936
		c-0.101,0.229-0.196,0.461-0.285,0.696l2.38,0.935c-0.471,1.257-0.73,2.617-0.73,4.038c0,0.68,0.062,1.345,0.175,1.993
		l-2.488,0.565c0.046,0.248,0.098,0.493,0.156,0.736l2.485-0.565c0.5,2.054,1.549,3.893,2.984,5.349l-1.731,1.865
		c0.178,0.177,0.361,0.348,0.548,0.516l2.351-2.532l-0.551-0.512l-0.003,0.003c-1.872-1.915-3.026-4.529-3.026-7.419
		c0-2.933,1.188-5.584,3.109-7.507c1.923-1.922,4.574-3.109,7.507-3.109c2.933,0,5.584,1.188,7.507,3.109
		c1.922,1.923,3.109,4.574,3.109,7.507c0,2.889-1.154,5.504-3.026,7.419l-0.003-0.003l-0.551,0.512l2.35,2.532
		c0.187-0.167,0.37-0.339,0.548-0.516l-1.731-1.865c1.435-1.456,2.484-3.295,2.984-5.349L93.984,321.935z"/>
	<path class="st0" d="M65.804,328.283c-0.479,0-0.634-0.21-0.634-1.093v-1.632c0-0.883,0.155-1.1,0.634-1.1
		c0.471,0,0.626,0.217,0.626,1.1v1.632C66.43,328.073,66.282,328.283,65.804,328.283z M65.846,328.892
		c0.887,0,1.287-0.371,1.287-1.758v-1.521c0-1.4-0.394-1.765-1.287-1.765h-0.085c-0.886,0-1.287,0.364-1.287,1.765v1.521
		c0,1.387,0.401,1.758,1.287,1.758H65.846z"/>
	<polygon class="st0" points="96.933,328.206 96.039,328.206 96.039,323.919 95.174,323.919 94.386,324.318 94.386,325.061 
		95.308,324.542 95.343,324.542 95.343,328.206 94.33,328.206 94.33,328.822 96.933,328.822 	"/>
	<path class="st0" d="M30.582,127.335c-2.793-2.793-4.188-6.45-4.188-10.111c0-3.66,1.395-7.318,4.188-10.111
		c0.117-0.117,0.117-0.307,0-0.424c-0.117-0.117-0.307-0.117-0.424,0c-2.909,2.908-4.364,6.723-4.364,10.535
		c0,3.812,1.455,7.626,4.364,10.535c0.117,0.117,0.307,0.117,0.424,0C30.699,127.643,30.699,127.453,30.582,127.335L30.582,127.335z
		"/>
	<path class="st0" d="M50.803,107.114c2.793,2.793,4.188,6.45,4.188,10.111c0,3.66-1.395,7.318-4.188,10.111
		c-0.117,0.117-0.117,0.307,0,0.424c0.117,0.117,0.307,0.117,0.424,0c2.909-2.908,4.364-6.723,4.364-10.535
		c0-3.812-1.455-7.626-4.364-10.535c-0.117-0.117-0.307-0.117-0.424,0C50.685,106.807,50.685,106.997,50.803,107.114L50.803,107.114
		z"/>
	<path class="st0" d="M178.606,127.147c-2.793-2.793-4.188-6.45-4.188-10.111c0-3.66,1.395-7.318,4.188-10.11
		c0.117-0.117,0.117-0.307,0-0.424c-0.117-0.117-0.307-0.117-0.424,0c-2.909,2.908-4.364,6.723-4.364,10.535
		c0,3.812,1.455,7.626,4.364,10.535c0.117,0.117,0.307,0.117,0.424,0C178.724,127.454,178.724,127.264,178.606,127.147
		L178.606,127.147z"/>
	<path class="st0" d="M198.828,106.926c2.792,2.793,4.188,6.45,4.188,10.111c0,3.66-1.395,7.318-4.188,10.111
		c-0.117,0.117-0.117,0.307,0,0.424c0.117,0.117,0.307,0.117,0.424,0c2.908-2.908,4.364-6.723,4.364-10.535
		c0-3.812-1.455-7.626-4.364-10.535c-0.117-0.117-0.307-0.117-0.424,0C198.71,106.619,198.71,106.809,198.828,106.926
		L198.828,106.926z"/>
	<path class="st0" d="M30.582,194.113c-2.793-2.793-4.188-6.45-4.188-10.111c0-3.66,1.395-7.318,4.188-10.111
		c0.117-0.117,0.117-0.307,0-0.424c-0.117-0.117-0.307-0.117-0.424,0c-2.909,2.908-4.364,6.723-4.364,10.535
		c0,3.812,1.455,7.626,4.364,10.535c0.117,0.117,0.307,0.117,0.424,0C30.699,194.42,30.699,194.231,30.582,194.113L30.582,194.113z"
		/>
	<path class="st0" d="M50.803,173.892c2.793,2.793,4.188,6.45,4.188,10.11c0,3.66-1.395,7.318-4.188,10.111
		c-0.117,0.117-0.117,0.307,0,0.424c0.117,0.117,0.307,0.117,0.424,0c2.909-2.908,4.364-6.723,4.364-10.535
		c0-3.812-1.455-7.626-4.364-10.535c-0.117-0.117-0.307-0.117-0.424,0C50.685,173.585,50.685,173.775,50.803,173.892L50.803,173.892
		z"/>
	<path class="st0" d="M30.582,261.186c-2.793-2.793-4.188-6.45-4.188-10.111c0-3.66,1.395-7.318,4.188-10.111
		c0.117-0.117,0.117-0.307,0-0.424c-0.117-0.117-0.307-0.117-0.424,0c-2.909,2.908-4.364,6.723-4.364,10.535
		c0,3.812,1.455,7.626,4.364,10.535c0.117,0.117,0.307,0.117,0.424,0C30.699,261.493,30.699,261.303,30.582,261.186L30.582,261.186z
		"/>
	<path class="st0" d="M50.803,240.965c2.793,2.793,4.188,6.45,4.188,10.111c0,3.66-1.395,7.318-4.188,10.11
		c-0.117,0.117-0.117,0.307,0,0.424c0.117,0.117,0.307,0.117,0.424,0c2.909-2.908,4.364-6.723,4.364-10.535
		c0-3.812-1.455-7.626-4.364-10.535c-0.117-0.117-0.307-0.117-0.424,0C50.685,240.658,50.685,240.848,50.803,240.965L50.803,240.965
		z"/>
	<path class="st0" d="M30.582,328.731c-2.793-2.793-4.188-6.45-4.188-10.111c0-3.66,1.395-7.318,4.188-10.11
		c0.117-0.117,0.117-0.307,0-0.424c-0.117-0.117-0.307-0.117-0.424,0c-2.909,2.908-4.364,6.723-4.364,10.535
		c0,3.812,1.455,7.626,4.364,10.535c0.117,0.117,0.307,0.117,0.424,0C30.699,329.038,30.699,328.848,30.582,328.731L30.582,328.731z
		"/>
	<path class="st0" d="M50.803,308.51c2.793,2.793,4.188,6.45,4.188,10.11c0,3.66-1.395,7.318-4.188,10.111
		c-0.117,0.117-0.117,0.307,0,0.424c0.117,0.117,0.307,0.117,0.424,0c2.909-2.908,4.364-6.723,4.364-10.535
		c0-3.812-1.455-7.626-4.364-10.535c-0.117-0.117-0.307-0.117-0.424,0C50.685,308.203,50.685,308.393,50.803,308.51L50.803,308.51z"
		/>
	<path d="M211.125,77.926H19.203c-1.331,0-2.41-1.079-2.41-2.41V35.958c0-1.331,1.079-2.41,2.41-2.41h191.922
		c1.331,0,2.41,1.079,2.41,2.41v39.558C213.535,76.847,212.456,77.926,211.125,77.926"/>
	<path class="st1" d="M213.535,75.534c0,1.331-1.079,2.41-2.41,2.41H19.203c-1.331,0-2.41-1.079-2.41-2.41v0.583
		c0,1.331,1.079,2.41,2.41,2.41h191.922c1.331,0,2.41-1.079,2.41-2.41V75.534"/>
	<path class="st2" d="M210.841,76.229H19.487c-0.504,0-0.912-0.409-0.912-0.912V36.289c0-0.504,0.409-0.912,0.912-0.912h191.355
		c0.504,0,0.912,0.409,0.912,0.912v39.028C211.754,75.82,211.345,76.229,210.841,76.229z"/>
	<path class="st0" d="M124.47,13.417h0.384c0.112,0,0.169-0.067,0.169-0.168V9.667c0-0.101,0.067-0.168,0.169-0.168h1.015
		c0.102,0,0.181,0.067,0.181,0.168v3.583c0,0.101,0.068,0.168,0.169,0.168h0.373c0.112,0,0.169-0.067,0.169-0.168V5.163
		c0-0.101-0.068-0.168-0.169-0.168h-0.373c-0.112,0-0.169,0.067-0.169,0.168v3.481c0,0.101-0.079,0.168-0.181,0.168h-1.015
		c-0.102,0-0.169-0.067-0.169-0.168V5.163c0-0.101-0.067-0.168-0.169-0.168h-0.384c-0.112,0-0.169,0.067-0.169,0.168v8.086
		C124.301,13.35,124.369,13.417,124.47,13.417z M119.451,11.778c0,1.033,0.462,1.696,1.33,1.696c0.88,0,1.342-0.674,1.342-1.696
		v-0.887c0-0.101-0.067-0.168-0.169-0.168h-0.384c-0.102,0-0.169,0.067-0.169,0.168v0.674c0,0.831-0.146,1.224-0.62,1.224
		s-0.608-0.393-0.608-1.224V6.848c0-0.831,0.135-1.224,0.608-1.224s0.62,0.393,0.62,1.224v0.674c0,0.101,0.067,0.168,0.169,0.168
		h0.384c0.102,0,0.169-0.067,0.169-0.168V6.634c0-1.022-0.462-1.696-1.342-1.696c-0.868,0-1.33,0.663-1.33,1.696V11.778z
		 M115.366,5.511c0,0.112,0.067,0.168,0.169,0.168h0.439c0.102,0,0.169,0.067,0.169,0.168v7.401c0,0.101,0.068,0.168,0.17,0.168
		h0.372c0.112,0,0.169-0.067,0.169-0.168V5.848c0-0.101,0.067-0.168,0.169-0.168h0.462c0.102,0,0.17-0.067,0.17-0.168V5.163
		c0-0.112-0.068-0.168-0.17-0.168h-1.95c-0.102,0-0.169,0.067-0.169,0.168V5.511z M112.906,13.417h0.384
		c0.112,0,0.169-0.067,0.169-0.168V5.163c0-0.101-0.067-0.168-0.169-0.168h-0.384c-0.112,0-0.169,0.067-0.169,0.168v8.086
		C112.737,13.35,112.804,13.417,112.906,13.417z M108.844,13.249c0,0.101,0.067,0.168,0.169,0.168h1.646
		c0.102,0,0.169-0.067,0.169-0.168v-0.314c0-0.101-0.067-0.168-0.169-0.168h-0.925c-0.102,0-0.169-0.067-0.169-0.168V5.163
		c0-0.101-0.067-0.168-0.169-0.168h-0.384c-0.112,0-0.169,0.067-0.169,0.168V13.249z M103.97,11.778c0,1.033,0.462,1.696,1.33,1.696
		c0.88,0,1.319-0.674,1.319-1.696V9.375c0-0.101-0.067-0.168-0.169-0.168h-0.981c-0.102,0-0.169,0.067-0.169,0.168v0.337
		c0,0.112,0.067,0.168,0.169,0.168h0.282c0.102,0,0.169,0.067,0.169,0.168v1.516c0,0.831-0.146,1.224-0.62,1.224
		s-0.608-0.393-0.608-1.224V6.848c0-0.831,0.135-1.224,0.608-1.224s0.62,0.393,0.62,1.224v0.674c0,0.101,0.067,0.168,0.169,0.168
		h0.361c0.102,0,0.169-0.067,0.169-0.168V6.634c0-1.022-0.439-1.696-1.319-1.696c-0.868,0-1.33,0.663-1.33,1.696V11.778z
		 M99.637,13.417h0.451c0.079,0,0.146-0.067,0.169-0.168l0.598-2.684h0.091l0.586,2.684c0.022,0.101,0.102,0.168,0.181,0.168h0.439
		c0.079,0,0.136-0.067,0.113-0.168l-0.97-3.976l0.011-0.135l0.959-3.976c0.022-0.101-0.034-0.168-0.113-0.168h-0.439
		c-0.079,0-0.146,0.067-0.169,0.168l-0.598,2.695h-0.091l-0.598-2.695c-0.022-0.101-0.09-0.168-0.169-0.168h-0.451
		c-0.067,0-0.135,0.067-0.112,0.168l0.97,3.976v0.135l-0.97,3.976C99.502,13.35,99.57,13.417,99.637,13.417z M95.755,11.564V6.848
		c0-0.831,0.135-1.224,0.609-1.224c0.485,0,0.62,0.393,0.62,1.224v4.717c0,0.831-0.135,1.224-0.62,1.224
		C95.891,12.789,95.755,12.396,95.755,11.564z M95.034,11.778c0,1.033,0.462,1.696,1.331,1.696c0.88,0,1.342-0.663,1.342-1.696
		V6.634c0-1.033-0.462-1.696-1.342-1.696c-0.868,0-1.331,0.663-1.331,1.696V11.778z M91.671,13.417h0.406
		c0.113,0,0.169-0.056,0.191-0.213l1.128-8.007c0.022-0.168-0.068-0.202-0.169-0.202h-0.35c-0.124,0-0.191,0.034-0.203,0.18
		l-0.744,6.098h-0.113l-0.745-6.098c-0.011-0.146-0.079-0.18-0.203-0.18h-0.35c-0.102,0-0.192,0.034-0.169,0.202l1.128,8.007
		C91.502,13.361,91.558,13.417,91.671,13.417z"/>
	<path class="st0" d="M6.297,18.86h217.806c0.138,0,0.249-0.112,0.249-0.249c0-0.138-0.111-0.249-0.249-0.249H6.297
		c-0.138,0-0.249,0.112-0.249,0.249C6.048,18.749,6.159,18.86,6.297,18.86"/>
	<path class="st0" d="M160.612,5.199v8.018h-29.525V5.199H160.612 M161.111,4.699h-0.5h-29.525h-0.5v0.5v8.018v0.5h0.5h29.525h0.5
		v-0.5V5.199V4.699z"/>
	<path class="st0" d="M156.973,7.967c0.318,0,0.444,0.06,0.444,0.563v0.12c0,0.498-0.12,0.558-0.414,0.558h-0.474V7.967H156.973z
		 M156.53,9.826h0.449c0.324,0,0.438,0.06,0.438,0.576v1.115h0.768V10.45c0-0.756-0.162-0.888-0.486-0.959V9.46
		c0.324-0.084,0.486-0.27,0.486-0.948V8.435c0-0.935-0.336-1.115-1.134-1.115h-1.289v4.198h0.768V9.826z M154.728,10.845h-1.181
		V9.754h1.181V9.077h-1.181V7.991h1.181V7.319h-1.948v4.198h1.948V10.845z M151.099,8.003h0.779V7.319h-2.314v0.684h0.762v3.514
		h0.773V8.003z M147.763,8.123l0.336,1.829h-0.702l0.336-1.829H147.763z M148.327,7.319h-1.133l-0.894,4.198h0.797l0.168-0.899
		h0.966l0.174,0.899h0.815L148.327,7.319z M145.44,10.845h-1.181V9.754h1.181V9.077h-1.181V7.991h1.181V7.319h-1.948v4.198h1.948
		V10.845z M141.294,7.961c0.312,0,0.433,0.078,0.433,0.624v0.288c0,0.54-0.114,0.624-0.433,0.624h-0.455V7.961H141.294z
		 M140.839,10.126h0.521c0.785,0,1.134-0.204,1.134-1.283v-0.24c0-1.103-0.336-1.283-1.134-1.283h-1.289v4.198h0.768V10.126z
		 M139.039,10.845h-1.181V9.754h1.181V9.077h-1.181V7.991h1.181V7.319h-1.948v4.198h1.948V10.845z M134.815,7.967
		c0.318,0,0.444,0.06,0.444,0.563v0.12c0,0.498-0.12,0.558-0.414,0.558h-0.474V7.967H134.815z M134.372,9.826h0.449
		c0.324,0,0.438,0.06,0.438,0.576v1.115h0.768V10.45c0-0.756-0.162-0.888-0.486-0.959V9.46c0.324-0.084,0.486-0.27,0.486-0.948
		V8.435c0-0.935-0.336-1.115-1.134-1.115h-1.289v4.198h0.768V9.826z"/>
	<path class="st0" d="M85.928,4.256l-6.214-0.496C79.6,3.752,79.499,3.835,79.485,3.95l-0.252,2.174l1.058,0.32l-1.834,2.955
		l-1.834-2.955l1.058-0.32l-0.254-2.176c-0.013-0.115-0.115-0.198-0.229-0.189l-6.23,0.497c-0.196,0.016-0.364,0.148-0.425,0.336
		l-1.043,3.223c-0.053,0.163-0.017,0.342,0.095,0.471l5.492,6.364c0.092,0.107,0.227,0.169,0.368,0.169h5.986
		c0.141,0,0.276-0.062,0.368-0.169l5.494-6.364c0.112-0.13,0.148-0.308,0.095-0.471l-1.046-3.222
		C86.292,4.404,86.124,4.272,85.928,4.256z M80.472,12.864h-4.045c-0.15,0-0.293-0.07-0.385-0.189l-3.828-4.953
		c-0.083-0.107-0.118-0.245-0.096-0.379l0.158-0.97c0.023-0.141,0.16-0.232,0.298-0.198l0.953,0.234
		c0.131,0.032,0.243,0.118,0.309,0.236l2.789,5.011l0.213,0.125h3.237l0.213-0.126l2.772-5.009c0.066-0.119,0.179-0.205,0.311-0.238
		l0.952-0.232c0.138-0.034,0.275,0.057,0.298,0.198l0.159,0.967c0.022,0.134-0.013,0.272-0.096,0.379l-3.829,4.953
		C80.764,12.794,80.622,12.864,80.472,12.864z"/>
	<path class="st0" d="M131.055,85.174h-1.898l-1.94,3.425h-0.063l-1.926-3.425h-2.059l2.865,4.903h2.157L131.055,85.174z
		 M121.833,85.174h-1.737v4.903h1.737V85.174z M114.861,86.393c1.646,0,1.884,0.273,1.884,1.226v0.028
		c0,0.952-0.238,1.211-1.884,1.211h-1.499v-2.465H114.861z M118.517,87.542c0-1.793-0.819-2.368-3.257-2.368h-3.635v4.903h3.705
		c2.437,0,3.187-0.574,3.187-2.367V87.542z"/>
	<path class="st0" d="M134.094,90.145h7.304c1.498,0,2.851,0.606,3.833,1.588c0.981,0.982,1.587,2.335,1.588,3.833v43.955
		c0,1.498-0.606,2.851-1.588,3.833c-0.982,0.981-2.335,1.587-3.833,1.588H22.788c-1.498,0-2.851-0.606-3.833-1.588
		c-0.981-0.982-1.587-2.335-1.588-3.833V95.565c0-1.498,0.606-2.851,1.588-3.833c0.982-0.981,2.335-1.587,3.833-1.588h85.223
		c0.137,0,0.249-0.111,0.249-0.249c0-0.137-0.111-0.249-0.249-0.249l-85.223,0c-3.269,0-5.918,2.65-5.918,5.918v43.955
		c0,3.269,2.65,5.918,5.918,5.918h118.61c3.269,0,5.918-2.65,5.918-5.918V95.565c0-3.269-2.65-5.918-5.918-5.918h-7.304
		c-0.137,0-0.249,0.111-0.249,0.249C133.845,90.034,133.956,90.145,134.094,90.145L134.094,90.145z"/>
	<path class="st0" d="M134.415,219.001h-1.898l-1.94,3.425h-0.063l-1.926-3.425h-2.059l2.865,4.903h2.157L134.415,219.001z
		 M122.744,220.038l0.995,1.737h-2.059l1.001-1.737H122.744z M124.074,219.001h-2.661l-2.865,4.903h1.919l0.553-0.974h3.376
		l0.561,0.974h1.982L124.074,219.001z M118.54,219.001h-1.751l-1.113,3.432h-0.063l-1.345-3.432h-1.94l-1.331,3.432h-0.063
		l-1.135-3.432h-1.926l1.786,4.903h2.276l1.338-3.194l1.261,3.194h2.234L118.54,219.001z"/>
	<path class="st0" d="M136.094,223.972h5.304c1.498,0,2.851,0.606,3.833,1.588c0.981,0.982,1.587,2.335,1.588,3.833v43.955
		c0,1.498-0.606,2.851-1.588,3.833c-0.982,0.981-2.335,1.587-3.833,1.588H22.788c-1.498,0-2.851-0.606-3.833-1.588
		c-0.981-0.982-1.587-2.335-1.588-3.833v-43.955c0-1.498,0.606-2.851,1.588-3.833c0.982-0.981,2.335-1.587,3.833-1.588h84.223
		c0.137,0,0.249-0.111,0.249-0.249c0-0.137-0.111-0.249-0.249-0.249l-84.223,0c-3.269,0-5.918,2.65-5.918,5.918v43.955
		c0,3.269,2.65,5.918,5.918,5.918h118.61c3.269,0,5.918-2.65,5.918-5.918v-43.955c0-3.269-2.65-5.918-5.918-5.918h-5.304
		c-0.137,0-0.249,0.111-0.249,0.249C135.845,223.86,135.956,223.972,136.094,223.972L136.094,223.972z"/>
	<path class="st0" d="M138.628,286.679h-1.737v1.807h-3.537v-1.807h-1.737v4.903h1.737v-1.814h3.537v1.814h1.737V286.679z
		 M126.867,291.651c2.101,0,3.026-0.469,3.194-1.856h-1.779c-0.154,0.498-0.483,0.638-1.695,0.638h-0.168
		c-1.485,0-1.73-0.315-1.73-1.219v-0.161c0-0.917,0.245-1.226,1.73-1.226h0.168c1.211,0,1.541,0.14,1.695,0.637h1.779
		c-0.168-1.387-1.093-1.856-3.194-1.856h-0.728c-2.333,0-3.222,0.567-3.222,2.367v0.308c0,1.8,0.89,2.367,3.222,2.367H126.867z
		 M119.586,287.989h2.255v-1.31h-6.248v1.31h2.255v3.593h1.737V287.989z M114.188,286.679h-1.737v4.903h1.737V286.679z
		 M108.352,287.834c0.784,0,0.945,0.14,0.945,0.567v0.063c0,0.42-0.147,0.561-0.938,0.561h-2.36v-1.191H108.352z M105.999,290.188
		h2.62c1.765,0,2.416-0.519,2.416-1.688v-0.098c0-1.317-0.686-1.723-2.416-1.723h-4.356v4.903h1.737V290.188z"/>
	<path class="st0" d="M140.762,291.65h0.636c1.498,0,2.851,0.606,3.833,1.588c0.981,0.982,1.587,2.335,1.588,3.833v43.955
		c0,1.498-0.606,2.851-1.588,3.833c-0.982,0.981-2.335,1.587-3.833,1.588H22.788c-1.498,0-2.851-0.606-3.833-1.588
		c-0.981-0.982-1.587-2.335-1.588-3.833V297.07c0-1.498,0.606-2.851,1.588-3.833c0.982-0.981,2.335-1.587,3.833-1.588h79.042
		c0.137,0,0.249-0.111,0.249-0.249c0-0.137-0.111-0.249-0.249-0.249l-79.042,0c-3.269,0-5.918,2.65-5.918,5.918v43.955
		c0,3.269,2.65,5.918,5.918,5.918h118.61c3.269,0,5.918-2.65,5.918-5.918V297.07c0-3.269-2.65-5.918-5.918-5.918h-0.636
		c-0.137,0-0.249,0.111-0.249,0.249C140.513,291.538,140.625,291.65,140.762,291.65L140.762,291.65z"/>
	<path class="st0" d="M130.169,156.983c2.255,0,3.222-0.35,3.222-1.695v-0.056c0-0.903-0.462-1.239-2.143-1.31l-2.248-0.07
		c-0.498-0.021-0.609-0.126-0.609-0.35v-0.014c0-0.308,0.259-0.434,1.457-0.434c1.037,0,1.457,0.098,1.59,0.434h1.87
		c-0.259-1.338-1.59-1.548-3.201-1.548h-0.35c-2.22,0-3.138,0.364-3.138,1.597v0.07c0,0.931,0.476,1.295,2.143,1.352l2.27,0.077
		c0.483,0.021,0.609,0.119,0.609,0.343v0.035c-0.014,0.364-0.357,0.456-1.597,0.456c-1.163,0-1.59-0.07-1.73-0.371h-1.863
		c0.245,1.289,1.59,1.484,3.222,1.484H130.169z M121.251,155.765c-1.583,0-1.821-0.322-1.821-1.219v-0.161
		c0-0.911,0.238-1.226,1.821-1.226h0.231c1.583,0,1.828,0.315,1.828,1.226v0.161c0,0.896-0.245,1.219-1.828,1.219H121.251z
		 M121.741,156.983c2.416,0,3.341-0.567,3.341-2.367v-0.308c0-1.8-0.925-2.367-3.341-2.367h-0.75c-2.417,0-3.334,0.567-3.334,2.367
		v0.308c0,1.8,0.917,2.367,3.334,2.367H121.741z M113.712,153.166c0.784,0,0.945,0.14,0.945,0.567v0.063
		c0,0.42-0.147,0.561-0.938,0.561h-2.36v-1.191H113.712z M111.359,155.52h2.62c1.765,0,2.416-0.519,2.416-1.688v-0.098
		c0-1.317-0.686-1.723-2.416-1.723h-4.356v4.903h1.737V155.52z"/>
	<path class="st0" d="M136.094,156.981h5.304c1.498,0,2.851,0.606,3.833,1.588c0.981,0.982,1.587,2.335,1.588,3.833v43.955
		c0,1.498-0.606,2.851-1.588,3.833c-0.982,0.981-2.335,1.587-3.833,1.588H22.788c-1.498,0-2.851-0.606-3.833-1.588
		c-0.981-0.982-1.587-2.335-1.588-3.833v-43.955c0-1.498,0.606-2.851,1.588-3.833c0.982-0.981,2.335-1.587,3.833-1.588h84.223
		c0.137,0,0.249-0.111,0.249-0.249c0-0.137-0.111-0.249-0.249-0.249l-84.223,0c-3.269,0-5.918,2.65-5.918,5.918v43.955
		c0,3.269,2.65,5.918,5.918,5.918h118.61c3.269,0,5.918-2.65,5.918-5.918v-43.955c0-3.269-2.65-5.918-5.918-5.918h-5.304
		c-0.137,0-0.249,0.111-0.249,0.249C135.845,156.87,135.956,156.981,136.094,156.981L136.094,156.981z"/>
	<path class="st0" d="M202.076,251.68c1.576,0,2.262-0.686,2.262-2.304v-0.637h-2.452v0.903h1.359c0,0.785-0.238,1.1-1.121,1.1
		h-0.154c-0.973,0-1.176-0.525-1.176-1.421v-0.309c0-0.889,0.203-1.429,1.176-1.429h0.119c0.588,0,0.938,0.168,1.058,0.553h1.142
		c-0.217-1.057-0.952-1.499-2.213-1.499h-0.091c-1.59,0-2.29,0.693-2.29,2.311v0.427c0,1.618,0.7,2.304,2.29,2.304H202.076z
		 M196.329,247.611c0.616,0,0.812,0.154,0.812,0.651v0.042c0,0.469-0.196,0.623-0.701,0.623h-1.324v-1.316H196.329z
		 M195.117,249.824h1.205c0.645,0,0.82,0.119,0.82,0.672v1.114h1.085v-1.184c0-0.854-0.231-1.03-0.75-1.114v-0.049
		c0.525-0.084,0.75-0.406,0.75-1.135v-0.126c0-0.953-0.448-1.296-1.667-1.296h-2.528v4.903h1.085V249.824z M191.19,247.646h1.513
		v-0.938h-4.097v0.938h1.492v3.964h1.093V247.646z"/>
	<path class="st0" d="M206.588,162.296h-1.093v1.975h-2.262v-1.975h-1.085v4.903h1.085v-1.989h2.262v1.989h1.093V162.296z
		 M199.307,163.235h1.513v-0.938h-4.097v0.938h1.492v3.964h1.093V163.235z M193.209,166.324c-0.973,0-1.176-0.539-1.176-1.429
		v-0.294c0-0.889,0.203-1.429,1.176-1.429h0.119c0.967,0,1.17,0.54,1.17,1.429v0.294c0,0.903-0.203,1.415-1.17,1.429H193.209z
		 M193.315,167.269c1.576,0,2.283-0.686,2.283-2.304v-0.427c0-1.618-0.708-2.311-2.283-2.311h-0.091c-1.59,0-2.29,0.693-2.29,2.311
		v0.427c0,1.618,0.7,2.304,2.29,2.304H193.315z M187.098,166.324c-0.973,0-1.176-0.539-1.176-1.429v-0.294
		c0-0.889,0.203-1.429,1.176-1.429h0.119c0.967,0,1.17,0.54,1.17,1.429v0.294c0,0.903-0.203,1.415-1.17,1.429H187.098z
		 M187.204,167.269c1.576,0,2.283-0.686,2.283-2.304v-0.427c0-1.618-0.708-2.311-2.283-2.311h-0.091c-1.59,0-2.29,0.693-2.29,2.311
		v0.427c0,1.618,0.7,2.304,2.29,2.304H187.204z M183.3,162.296h-1.751l-1.177,3.306h-0.049l-1.156-3.306h-1.856v4.903h1.064v-3.887
		h0.042l1.394,3.887h0.966l1.408-3.887h0.042v3.887h1.072V162.296z M173.827,167.269c1.239,0,2.045-0.427,2.045-1.583v-0.063
		c0-0.89-0.518-1.296-1.604-1.345l-0.665-0.021c-0.638-0.028-0.799-0.182-0.799-0.54v-0.035c0-0.413,0.266-0.574,0.875-0.574
		c0.533,0,0.89,0.119,0.995,0.588h1.142c-0.084-0.987-0.91-1.471-2.073-1.471h-0.084c-1.31,0-1.961,0.518-1.961,1.548v0.049
		c0,0.875,0.532,1.289,1.604,1.338l0.672,0.028c0.623,0.028,0.798,0.182,0.798,0.54v0.063c0,0.441-0.329,0.595-0.98,0.595
		c-0.462,0-0.938-0.063-1.037-0.539h-1.142c0.112,1.037,0.945,1.421,2.15,1.421H173.827z"/>
	<path class="st0" d="M197.476,96.69l0.672-0.679h0.049l1.463,2.157h1.324l-2.01-2.949l1.954-1.954h-1.359l-2.052,2.087h-0.042
		v-2.087h-1.085v4.903h1.085V96.69z M192.758,98.238c1.345,0,1.94-0.532,2.165-1.646h-1.114c-0.14,0.504-0.476,0.7-1.085,0.7h-0.091
		c-0.974,0-1.148-0.539-1.148-1.429V95.57c0-0.889,0.175-1.429,1.148-1.429h0.091c0.609,0,0.945,0.196,1.085,0.701h1.114
		c-0.224-1.114-0.82-1.646-2.165-1.646h-0.161c-1.583,0-2.213,0.687-2.213,2.304v0.434c0,1.618,0.63,2.304,2.213,2.304H192.758z
		 M188.858,93.266h-1.085v4.903h1.085V93.266z M186.396,97.23h-2.325v-3.964h-1.085v4.903h3.411V97.23z M179.353,98.238
		c1.345,0,1.94-0.532,2.165-1.646h-1.114c-0.14,0.504-0.477,0.7-1.085,0.7h-0.091c-0.974,0-1.148-0.539-1.148-1.429V95.57
		c0-0.889,0.175-1.429,1.148-1.429h0.091c0.609,0,0.945,0.196,1.085,0.701h1.114c-0.224-1.114-0.82-1.646-2.165-1.646h-0.161
		c-1.583,0-2.213,0.687-2.213,2.304v0.434c0,1.618,0.63,2.304,2.213,2.304H179.353z"/>
	<path class="st0" d="M205.605,294.837h-1.156l-1.317,3.705h-0.042l-1.303-3.705h-1.226l1.793,4.903h1.457L205.605,294.837z
		 M197.757,295.748l0.693,1.961h-1.436l0.693-1.961H197.757z M198.569,294.837h-1.639l-1.793,4.903h1.163l0.399-1.121h2.066
		l0.399,1.121h1.205L198.569,294.837z M194.679,294.837h-1.093l-0.784,3.733h-0.049l-1.001-3.733h-1.198l-1.008,3.733h-0.042
		l-0.792-3.733h-1.163l1.163,4.903h1.478l0.932-3.348l0.917,3.348h1.478L194.679,294.837z"/>
</g>
</svg>
