<?xml version="1.0" encoding="UTF-8" standalone="no"?>
<!-- Created with Inkscape (http://www.inkscape.org/) -->

<svg
   width="32.598"
   height="32.598"
   viewBox="0 0 8.6248874 8.6248871"
   version="1.1"
   id="svg5"
   inkscape:version="1.1.1 (3bf5ae0d25, 2021-09-20)"
   sodipodi:docname="painful_medium_knob.svg"
   xmlns:inkscape="http://www.inkscape.org/namespaces/inkscape"
   xmlns:sodipodi="http://sodipodi.sourceforge.net/DTD/sodipodi-0.dtd"
   xmlns="http://www.w3.org/2000/svg"
   xmlns:svg="http://www.w3.org/2000/svg">
  <sodipodi:namedview
     id="namedview7"
     pagecolor="#ffffff"
     bordercolor="#666666"
     borderopacity="1.0"
     inkscape:pageshadow="2"
     inkscape:pageopacity="0.0"
     inkscape:pagecheckerboard="0"
     inkscape:document-units="mm"
     showgrid="false"
     units="px"
     inkscape:zoom="32"
     inkscape:cx="30.1875"
     inkscape:cy="26.59375"
     inkscape:window-width="3840"
     inkscape:window-height="2066"
     inkscape:window-x="2869"
     inkscape:window-y="-11"
     inkscape:window-maximized="1"
     inkscape:current-layer="layer1" />
  <defs
     id="defs2" />
  <g
     inkscape:label="Layer 1"
     inkscape:groupmode="layer"
     id="layer1"
     transform="translate(-142.73587,-129.26648)">
    <path
       class="st0"
       d="m 150.46514,133.60534 c 0.45006,0 0.68845,-0.25241 0.68845,-0.58473 0,-0.33231 -0.26432,-0.58473 -0.68845,-0.58473 -0.0802,0 -0.19844,-0.0175 -0.33364,-0.0341 0.16933,-0.0251 0.31988,-0.0354 0.41619,-0.0354 0.36142,0 0.65432,0.29289 0.65432,0.65431 0,0.36142 -0.2929,0.65432 -0.65432,0.65432 -0.0931,0 -0.23733,-0.01 -0.39978,-0.0331 0.12858,-0.0185 0.24024,-0.0365 0.31723,-0.0365 z"
       id="path6"
       style="display:none;fill:#494744;stroke-width:0.264583" />
    <path
       class="st0"
       d="m 143.47273,132.43588 c -0.45005,0 -0.68844,0.25242 -0.68844,0.58473 0,0.33232 0.26432,0.58473 0.68844,0.58473 0.0802,0 0.19844,0.0175 0.33364,0.0341 -0.16933,0.0251 -0.31988,0.0355 -0.41619,0.0355 -0.36142,0 -0.65431,-0.2929 -0.65431,-0.65432 0,-0.36142 0.29289,-0.65431 0.65431,-0.65431 0.0931,0 0.23733,0.01 0.39979,0.0331 -0.12832,0.0188 -0.24024,0.0365 -0.31724,0.0365 z"
       id="path30"
       style="display:none;fill:#494744;stroke-width:0.264583" />
    <path
       class="st0"
       d="m 145.72725,129.70036 c -0.2249,-0.38973 -0.56277,-0.4699 -0.85064,-0.30374 -0.2876,0.16615 -0.37412,0.52149 -0.16219,0.88847 0.0402,0.0696 0.0841,0.18044 0.13732,0.30585 -0.10636,-0.13387 -0.19076,-0.25929 -0.23892,-0.34263 -0.18071,-0.313 -0.0736,-0.71305 0.23945,-0.89376 0.313,-0.18071 0.71305,-0.0736 0.89376,0.23944 0.0466,0.0807 0.11007,0.21035 0.17119,0.36275 -0.0802,-0.1016 -0.15134,-0.18971 -0.18997,-0.25638 z"
       id="path58"
       style="display:none;fill:#494744;stroke-width:0.264583" />
    <path
       class="st0"
       d="m 148.21063,136.34087 c 0.22489,0.38973 0.56277,0.4699 0.85063,0.30374 0.28787,-0.16616 0.37412,-0.52123 0.16219,-0.88847 -0.0402,-0.0696 -0.0841,-0.18045 -0.13732,-0.30586 0.10637,0.13415 0.19077,0.25929 0.23892,0.34264 0.18071,0.313 0.0736,0.71305 -0.23945,0.89376 -0.313,0.18071 -0.71305,0.0736 -0.89376,-0.23945 -0.0466,-0.0807 -0.11007,-0.21034 -0.17118,-0.36274 0.0802,0.10186 0.1516,0.1897 0.18997,0.25638 z"
       id="path82"
       style="display:none;fill:#494744;stroke-width:0.264583" />
    <path
       class="st0"
       d="m 144.71442,135.75614 c -0.22489,0.38973 -0.12567,0.72231 0.16219,0.88847 0.28787,0.16616 0.63871,0.0635 0.85064,-0.30374 0.0402,-0.0696 0.1143,-0.16325 0.19632,-0.27173 -0.063,0.15902 -0.12912,0.29501 -0.17727,0.37836 -0.18071,0.313 -0.58103,0.42016 -0.89377,0.23944 -0.313,-0.18071 -0.42015,-0.58102 -0.23944,-0.89376 0.0466,-0.0807 0.12726,-0.20055 0.2286,-0.32967 -0.0482,0.12012 -0.0886,0.22596 -0.12727,0.29263 z"
       id="path110"
       style="display:none;fill:#494744;stroke-width:0.264583" />
    <path
       class="st0"
       d="m 149.22345,130.28509 c 0.2249,-0.38973 0.12568,-0.72232 -0.16219,-0.88847 -0.28786,-0.16616 -0.6387,-0.0635 -0.85063,0.30374 -0.0402,0.0696 -0.1143,0.16325 -0.19632,0.27172 0.063,-0.15901 0.12911,-0.29501 0.17727,-0.37835 0.18071,-0.313 0.58102,-0.42016 0.89376,-0.23945 0.313,0.18071 0.42016,0.58103 0.23945,0.89376 -0.0466,0.0807 -0.12727,0.20056 -0.2286,0.32968 0.0484,-0.12013 0.0889,-0.22596 0.12726,-0.29263 z"
       id="path134"
       style="display:none;fill:#494744;stroke-width:0.264583" />
    <g
       id="g1761"
       transform="translate(0.07924369,0.55831129)">
      <path
         d="m 149.0528,133.02061 c 0,0.50695 1.12977,0.65538 1.49172,0.65538 0.36195,0 0.65537,-0.29343 0.65537,-0.65538 0,-0.36195 -0.29342,-0.65537 -0.65537,-0.65537 -0.36222,0 -1.49172,0.14843 -1.49172,0.65537 z"
         id="path1347"
         style="fill:#000000;fill-opacity:1;stroke-width:0.264583" />
      <path
         class="st1"
         d="m 149.06788,133.01956 c 0,0.46646 1.09802,0.60325 1.44991,0.60325 0.3519,0 0.63712,-0.27014 0.63712,-0.60325 0,-0.33312 -0.28522,-0.60325 -0.63712,-0.60325 -0.35189,0 -1.44991,0.13652 -1.44991,0.60325 z"
         id="path1344"
         style="fill:#1f1d1a;stroke-width:0.264583" />
      <path
         class="st2"
         d="m 150.62627,132.5097 c -0.23336,0 -1.23692,0.10028 -1.41896,0.34105 -0.0286,0.0376 -0.0545,0.0818 -0.0545,0.1352 0,2.7e-4 0,5.3e-4 0,5.3e-4 0,0.0534 0.0259,0.0974 0.0545,0.13494 0.1823,0.24051 1.18534,0.34052 1.4187,0.34052 0.27702,0 0.50138,-0.21326 0.50138,-0.47625 2.7e-4,-0.26273 -0.22436,-0.47599 -0.50112,-0.47599 z"
         id="path1341"
         style="fill:#2d2c28;stroke-width:0.264583" />
      <path
         class="st3"
         d="m 150.73449,132.6031 c -0.15558,0 -1.32768,0.0534 -1.42902,0.22728 -0.0392,0.0228 -0.0677,0.0688 -0.0677,0.12171 0,0 0,5.3e-4 0,5.3e-4 0,0.0529 0.0286,0.099 0.068,0.12144 0.10133,0.17357 1.27317,0.22701 1.42875,0.22701 0.20187,0 0.36592,-0.15637 0.36592,-0.34925 0,-0.19235 -0.16405,-0.34872 -0.36592,-0.34872 z"
         id="path1338"
         style="fill:#3c3a37;stroke-width:0.264583" />
      <path
         class="st4"
         d="m 150.8427,132.6965 c -0.0778,0 -1.38827,0.0267 -1.4388,0.11377 -0.0455,0.0114 -0.0812,0.0556 -0.0812,0.10821 0,0 0,5.3e-4 0,5.3e-4 0,0.0524 0.0357,0.0968 0.0812,0.10795 0.0508,0.0868 1.36101,0.11351 1.4388,0.11351 0.127,0 0.23019,-0.0995 0.23019,-0.22225 2.6e-4,-0.12224 -0.10319,-0.22172 -0.23019,-0.22172 z"
         id="path1335"
         style="fill:#4a4945;stroke-width:0.264583" />
      <path
         class="st5"
         d="m 149.50232,132.97987 h 1.44886 c 0.0521,0 0.0947,-0.0426 0.0947,-0.0947 v -5.3e-4 c 0,-0.0521 -0.0426,-0.0947 -0.0947,-0.0947 h -1.44886 c -0.0521,0 -0.0947,0.0426 -0.0947,0.0947 v 5.3e-4 c 2.7e-4,0.0521 0.0429,0.0947 0.0947,0.0947 z"
         id="path1332"
         style="fill:#595753;stroke-width:0.264583" />
      <path
         class="st6"
         d="m 149.62721,132.94388 h 0.90514 c 0.0325,0 0.059,-0.0267 0.059,-0.059 v 0 c 0,-0.0325 -0.0267,-0.059 -0.059,-0.059 h -0.90514 c -0.0325,0 -0.059,0.0267 -0.059,0.059 v 0 c -2.6e-4,0.0325 0.0265,0.059 0.059,0.059 z"
         id="path1329"
         style="fill:#6d6b68;stroke-width:0.264583" />
      <path
         class="st7"
         d="m 149.71346,132.91108 h 0.3011 c 0.0146,0 0.0262,-0.0117 0.0262,-0.0262 v 0 c 0,-0.0146 -0.0116,-0.0262 -0.0262,-0.0262 h -0.3011 c -0.0145,0 -0.0262,0.0116 -0.0262,0.0262 v 0 c 0,0.0145 0.0116,0.0262 0.0262,0.0262 z"
         id="path1326"
         style="fill:#7a7876;stroke-width:0.264583" />
      <path
         class="st8"
         d="m 150.85699,132.95606 h 0.0439 c 0.0392,0 0.0712,-0.032 0.0712,-0.0712 v 0 c 0,-0.0392 -0.032,-0.0712 -0.0712,-0.0712 h -0.0439 c -0.0392,0 -0.0712,0.032 -0.0712,0.0712 v 0 c 0,0.0392 0.032,0.0712 0.0712,0.0712 z"
         id="path1323"
         style="fill:#686663;stroke-width:0.264583" />
      <path
         d="m 144.88534,133.02061 c 0,-0.50694 -1.12977,-0.65537 -1.49172,-0.65537 -0.36195,0 -0.65537,0.29342 -0.65537,0.65537 0,0.36195 0.29342,0.65538 0.65537,0.65538 0.36195,0 1.49172,-0.14817 1.49172,-0.65538 z"
         id="path1320"
         style="fill:#000000;fill-opacity:1;stroke-width:0.264583" />
      <path
         class="st1"
         d="m 144.87026,133.02194 c 0,-0.46646 -1.09802,-0.60325 -1.44991,-0.60325 -0.3519,0 -0.63712,0.27014 -0.63712,0.60325 0,0.33311 0.28522,0.60325 0.63712,0.60325 0.35189,0 1.44991,-0.13679 1.44991,-0.60325 z"
         id="path1317"
         style="fill:#1f1d1a;stroke-width:0.264583" />
      <path
         class="st2"
         d="m 143.31187,133.53152 c 0.23336,0 1.23692,-0.10027 1.41896,-0.34104 0.0286,-0.0376 0.0545,-0.0818 0.0545,-0.13521 0,-2.6e-4 0,-5.3e-4 0,-5.3e-4 0,-0.0534 -0.0259,-0.0974 -0.0545,-0.13493 -0.1823,-0.24051 -1.18534,-0.34052 -1.4187,-0.34052 -0.27702,0 -0.50138,0.21325 -0.50138,0.47625 -5.3e-4,0.26273 0.2241,0.47598 0.50112,0.47598 z"
         id="path1314"
         style="fill:#2d2c28;stroke-width:0.264583" />
      <path
         class="st3"
         d="m 143.20365,133.43813 c 0.15558,0 1.32768,-0.0534 1.42902,-0.22728 0.0392,-0.0228 0.0677,-0.0688 0.0677,-0.12171 0,0 0,-5.3e-4 0,-5.3e-4 0,-0.0529 -0.0286,-0.099 -0.068,-0.12144 -0.10133,-0.17357 -1.27317,-0.22701 -1.42875,-0.22701 -0.20188,0 -0.36592,0.15636 -0.36592,0.34925 0,0.19235 0.16378,0.34872 0.36592,0.34872 z"
         id="path1311"
         style="fill:#3c3a37;stroke-width:0.264583" />
      <path
         class="st4"
         d="m 143.09517,133.34473 c 0.0778,0 1.38827,-0.0267 1.43881,-0.11377 0.0455,-0.0114 0.0812,-0.0556 0.0812,-0.10822 0,0 0,-5.3e-4 0,-5.3e-4 0,-0.0524 -0.0357,-0.0968 -0.0812,-0.10795 -0.0508,-0.0868 -1.36102,-0.1135 -1.43881,-0.1135 -0.127,0 -0.23019,0.0995 -0.23019,0.22225 0,0.12223 0.10319,0.22172 0.23019,0.22172 z"
         id="path1308"
         style="fill:#4a4945;stroke-width:0.264583" />
      <path
         class="st5"
         d="m 144.43555,133.06162 h -1.44859 c -0.0521,0 -0.0947,0.0426 -0.0947,0.0947 v 5.3e-4 c 0,0.0521 0.0426,0.0947 0.0947,0.0947 h 1.44859 c 0.0521,0 0.0947,-0.0426 0.0947,-0.0947 v -5.3e-4 c 0,-0.0521 -0.0426,-0.0947 -0.0947,-0.0947 z"
         id="path1305"
         style="fill:#595753;stroke-width:0.264583" />
      <path
         class="st6"
         d="m 144.31093,133.09734 h -0.90514 c -0.0325,0 -0.059,0.0267 -0.059,0.059 v 0 c 0,0.0325 0.0267,0.059 0.059,0.059 h 0.90514 c 0.0325,0 0.059,-0.0267 0.059,-0.059 v 0 c 0,-0.0323 -0.0265,-0.059 -0.059,-0.059 z"
         id="path1302"
         style="fill:#6d6b68;stroke-width:0.264583" />
      <path
         class="st7"
         d="m 144.22468,133.13042 h -0.30136 c -0.0145,0 -0.0262,0.0116 -0.0262,0.0262 v 0 c 0,0.0145 0.0117,0.0262 0.0262,0.0262 h 0.30109 c 0.0146,0 0.0262,-0.0116 0.0262,-0.0262 v 0 c 2.6e-4,-0.0146 -0.0116,-0.0262 -0.0259,-0.0262 z"
         id="path1299"
         style="fill:#7a7876;stroke-width:0.264583" />
      <path
         class="st8"
         d="m 143.08115,133.08544 h -0.0439 c -0.0392,0 -0.0712,0.032 -0.0712,0.0712 v 0 c 0,0.0392 0.032,0.0712 0.0712,0.0712 h 0.0439 c 0.0392,0 0.0712,-0.032 0.0712,-0.0712 v 0 c -2.6e-4,-0.0392 -0.032,-0.0712 -0.0712,-0.0712 z"
         id="path1296"
         style="fill:#686663;stroke-width:0.264583" />
      <path
         style="fill:#000000;fill-opacity:1;fill-rule:evenodd;stroke:none;stroke-width:0.264583"
         d="m 145.92727,131.21616 c 0.43921,-0.25348 0.003,-1.30599 -0.17833,-1.61952 -0.18097,-0.31353 -0.58182,-0.42095 -0.89535,-0.23998 -0.31353,0.18098 -0.42095,0.58182 -0.23997,0.89535 0.18097,0.31353 0.87444,1.21762 1.31365,0.96415 z"
         id="path1293" />
      <path
         style="fill:#1f1d1a;stroke-width:0.264583"
         d="m 145.91854,131.20346 c 0.40402,-0.23337 -0.0267,-1.25254 -0.20267,-1.55734 -0.17595,-0.30454 -0.55245,-0.41672 -0.84085,-0.25003 -0.28839,0.16668 -0.37967,0.54874 -0.20372,0.85328 0.17594,0.30453 0.84322,1.18745 1.24724,0.95409 z"
         id="path1290" />
      <path
         class="st2"
         d="m 144.69802,130.10887 c 0.11668,0.20215 0.70538,1.02103 1.00462,1.05834 0.0468,0.006 0.0979,0.006 0.1442,-0.0204 0,0 2.6e-4,-2.6e-4 5.3e-4,-2.6e-4 0.046,-0.0267 0.0712,-0.0712 0.0897,-0.11483 0.11721,-0.27808 -0.29765,-1.19697 -0.41434,-1.39912 -0.13837,-0.23971 -0.43524,-0.32781 -0.66304,-0.19632 -0.22781,0.13177 -0.30004,0.43286 -0.16166,0.67257 z"
         id="path1287"
         style="fill:#2d2c28;fill-opacity:1;stroke-width:0.264583" />
      <path
         class="st3"
         d="m 144.72474,129.96838 c 0.0778,0.13467 0.71014,1.12316 0.91123,1.12369 0.0392,0.0228 0.0934,0.0243 0.13917,-0.002 0,0 5.3e-4,-2.7e-4 5.3e-4,-2.7e-4 0.0458,-0.0264 0.0712,-0.0743 0.0712,-0.11959 0.0998,-0.17462 -0.44,-1.21602 -0.51779,-1.35096 -0.10081,-0.17462 -0.31803,-0.23839 -0.48525,-0.14208 -0.16668,0.0963 -0.22013,0.31644 -0.11906,0.49133 z"
         id="path1284"
         style="fill:#3c3a37;stroke-width:0.264583" />
      <path
         class="st4"
         d="m 144.75146,129.82789 c 0.0389,0.0675 0.71729,1.18877 0.81783,1.1893 0.0325,0.0339 0.0889,0.0426 0.13414,0.0164 0,0 5.3e-4,-2.6e-4 5.3e-4,-2.6e-4 0.0455,-0.0262 0.0659,-0.0791 0.0529,-0.12436 0.0497,-0.0873 -0.58208,-1.23534 -0.62098,-1.3028 -0.0635,-0.11007 -0.20134,-0.14976 -0.30744,-0.0884 -0.1061,0.0611 -0.1405,0.20003 -0.077,0.3101 z"
         id="path1281"
         style="fill:#4a4945;stroke-width:0.264583" />
      <path
         class="st5"
         d="m 145.66692,130.84706 -0.72443,-1.25465 c -0.0259,-0.045 -0.0841,-0.0606 -0.12911,-0.0347 l -5.3e-4,5.3e-4 c -0.045,0.0259 -0.0606,0.0841 -0.0347,0.12911 l 0.72443,1.25466 c 0.0259,0.045 0.0841,0.0606 0.12911,0.0347 l 5.3e-4,-2.7e-4 c 0.045,-0.0259 0.0606,-0.0841 0.0347,-0.12938 z"
         id="path1278"
         style="fill:#595753;stroke-width:0.264583" />
      <path
         class="st6"
         d="m 145.57352,130.7571 -0.4527,-0.78396 c -0.0161,-0.028 -0.0524,-0.0378 -0.0807,-0.0217 v 0 c -0.028,0.0164 -0.0378,0.0526 -0.0214,0.0807 l 0.45271,0.78397 c 0.0161,0.028 0.0526,0.0378 0.0807,0.0217 v 0 c 0.0281,-0.0161 0.0378,-0.0526 0.0214,-0.0807 z"
         id="path1275"
         style="fill:#6d6b68;stroke-width:0.264583" />
      <path
         class="st7"
         d="m 145.50182,130.69863 -0.15055,-0.26088 c -0.007,-0.0124 -0.0233,-0.0169 -0.0357,-0.01 v 0 c -0.0124,0.007 -0.0169,0.0233 -0.01,0.0357 l 0.15055,0.26088 c 0.007,0.0124 0.0233,0.0169 0.0357,0.01 v 0 c 0.0124,-0.007 0.0167,-0.023 0.01,-0.0357 z"
         id="path1272"
         style="fill:#7a7876;stroke-width:0.264583" />
      <path
         class="st8"
         d="m 144.96895,129.68607 -0.022,-0.0381 c -0.0193,-0.0339 -0.0632,-0.0455 -0.0971,-0.0259 v 0 c -0.0339,0.0196 -0.0455,0.0632 -0.0259,0.0971 l 0.022,0.0378 c 0.0196,0.0339 0.0632,0.0458 0.0971,0.0262 v 0 c 0.0339,-0.0196 0.0455,-0.0632 0.0259,-0.0971 z"
         id="path1269"
         style="fill:#686663;stroke-width:0.264583" />
      <path
         d="m 148.01087,134.82507 c -0.43921,0.25347 -0.003,1.30599 0.17833,1.61952 0.18097,0.31353 0.58181,0.42095 0.89535,0.23997 0.31353,-0.18097 0.42095,-0.58182 0.23997,-0.89535 -0.18124,-0.31353 -0.87445,-1.21761 -1.31365,-0.96414 z"
         id="path1266"
         style="fill:#000000;fill-opacity:1;stroke-width:0.264583" />
      <path
         class="st1"
         d="m 148.01933,134.83777 c -0.40402,0.23336 0.0267,1.25254 0.20267,1.55734 0.17595,0.3048 0.55245,0.41672 0.84085,0.2503 0.2884,-0.16643 0.37968,-0.54875 0.20373,-0.85329 -0.17568,-0.3048 -0.84296,-1.18771 -1.24725,-0.95435 z"
         id="path1263"
         style="fill:#1f1d1a;stroke-width:0.264583" />
      <path
         class="st2"
         d="m 149.24012,135.93235 c -0.11668,-0.20214 -0.70538,-1.02102 -1.00462,-1.05833 -0.0468,-0.006 -0.0979,-0.006 -0.1442,0.0204 0,0 -2.7e-4,2.7e-4 -5.3e-4,2.7e-4 -0.046,0.0267 -0.0712,0.0712 -0.0897,0.11483 -0.11721,0.27807 0.29765,1.19697 0.41433,1.39911 0.13838,0.23972 0.43524,0.32782 0.66305,0.19632 0.22781,-0.13149 0.30004,-0.43259 0.16166,-0.67257 z"
         id="path1260"
         style="fill:#2d2c28;stroke-width:0.264583" />
      <path
         class="st3"
         d="m 149.2134,136.07285 c -0.0778,-0.13468 -0.71014,-1.12316 -0.91123,-1.12369 -0.0392,-0.0228 -0.0934,-0.0243 -0.13917,0.002 0,0 -5.3e-4,2.6e-4 -5.3e-4,2.6e-4 -0.0458,0.0265 -0.0712,0.0744 -0.0712,0.11959 -0.0998,0.17463 0.44,1.21603 0.51779,1.35097 0.10107,0.17489 0.31829,0.23865 0.48524,0.14234 0.16669,-0.0966 0.21987,-0.3167 0.11907,-0.49159 z"
         id="path1257"
         style="fill:#3c3a37;stroke-width:0.264583" />
      <path
         class="st4"
         d="m 149.18667,136.21334 c -0.0389,-0.0675 -0.71728,-1.18877 -0.81782,-1.1893 -0.0326,-0.0339 -0.0889,-0.0426 -0.13415,-0.0164 0,0 -5.3e-4,2.7e-4 -5.3e-4,2.7e-4 -0.0455,0.0262 -0.0659,0.0791 -0.0529,0.12435 -0.0497,0.0873 0.58208,1.23534 0.62097,1.30281 0.0635,0.11007 0.20135,0.14976 0.30745,0.0884 0.10583,-0.0608 0.14049,-0.20002 0.077,-0.31009 z"
         id="path1254"
         style="fill:#4a4945;stroke-width:0.264583" />
      <path
         class="st5"
         d="m 148.27122,135.19417 0.72443,1.25465 c 0.0259,0.045 0.0841,0.0606 0.12911,0.0347 l 5.3e-4,-2.6e-4 c 0.045,-0.0259 0.0606,-0.0841 0.0347,-0.12912 l -0.72443,-1.25466 c -0.0259,-0.045 -0.0841,-0.0606 -0.12911,-0.0347 l -5.3e-4,2.7e-4 c -0.0453,0.0259 -0.0609,0.0841 -0.0347,0.12912 z"
         id="path1251"
         style="fill:#595753;stroke-width:0.264583" />
      <path
         class="st6"
         d="m 148.36461,135.28439 0.45271,0.78396 c 0.0161,0.028 0.0526,0.0378 0.0807,0.0217 v 0 c 0.0281,-0.0161 0.0378,-0.0526 0.0217,-0.0807 l -0.4527,-0.78396 c -0.0161,-0.0281 -0.0526,-0.0378 -0.0807,-0.0217 v 0 c -0.0283,0.0161 -0.0381,0.0524 -0.0217,0.0807 z"
         id="path1248"
         style="fill:#6d6b68;stroke-width:0.264583" />
      <path
         class="st7"
         d="m 148.43632,135.3426 0.15054,0.26088 c 0.007,0.0124 0.0233,0.0169 0.0357,0.01 v 0 c 0.0124,-0.007 0.0169,-0.0233 0.01,-0.0357 l -0.15055,-0.26088 c -0.007,-0.0124 -0.0233,-0.0169 -0.0357,-0.01 v 0 c -0.0127,0.007 -0.0169,0.0233 -0.01,0.0357 z"
         id="path1245"
         style="fill:#7a7876;stroke-width:0.264583" />
      <path
         class="st8"
         d="m 148.96892,136.35542 0.022,0.0378 c 0.0196,0.0339 0.0632,0.0455 0.0971,0.0259 v 0 c 0.0339,-0.0196 0.0455,-0.0632 0.0259,-0.0971 l -0.022,-0.0378 c -0.0196,-0.0339 -0.0632,-0.0455 -0.0971,-0.0259 v 0 c -0.0336,0.0196 -0.0452,0.0632 -0.0259,0.0971 z"
         id="path1242"
         style="fill:#686663;stroke-width:0.264583" />
      <path
         d="m 145.92727,134.82507 c -0.43921,-0.25347 -1.13241,0.65061 -1.31339,0.96414 -0.18097,0.31353 -0.0735,0.71438 0.23998,0.89535 0.31353,0.18098 0.71437,0.0736 0.89535,-0.23997 0.18071,-0.31327 0.61701,-1.36578 0.17806,-1.61952 z"
         id="path1239"
         style="fill:#000000;fill-opacity:1;stroke-width:0.264583" />
      <path
         class="st1"
         d="m 145.92066,134.83883 c -0.40402,-0.23336 -1.0713,0.64955 -1.24725,0.95409 -0.17595,0.30453 -0.0847,0.68686 0.20373,0.85328 0.2884,0.16669 0.6649,0.0545 0.84085,-0.2503 0.17594,-0.3048 0.60669,-1.32371 0.20267,-1.55707 z"
         id="path1236"
         style="fill:#1f1d1a;stroke-width:0.264583" />
      <path
         class="st2"
         d="m 145.58278,136.44326 c 0.11669,-0.20214 0.53182,-1.1213 0.41434,-1.39938 -0.0185,-0.0434 -0.0436,-0.0881 -0.0897,-0.11456 0,0 -2.7e-4,-2.7e-4 -5.3e-4,-2.7e-4 -0.0463,-0.0267 -0.0974,-0.0262 -0.1442,-0.0201 -0.29924,0.0376 -0.88768,0.8562 -1.00436,1.05834 -0.13837,0.23971 -0.0661,0.54081 0.16166,0.6723 0.22755,0.1315 0.52441,0.0437 0.66278,-0.19632 z"
         id="path1233"
         style="fill:#2d2c28;stroke-width:0.264583" />
      <path
         class="st3"
         d="m 145.44785,136.49036 c 0.0778,-0.13467 0.61753,-1.1766 0.51752,-1.35096 0,-0.0452 -0.0257,-0.0931 -0.0714,-0.11959 0,0 -5.2e-4,-2.7e-4 -5.2e-4,-2.7e-4 -0.0458,-0.0265 -0.10002,-0.0246 -0.13918,-0.002 -0.20108,0.001 -0.83317,0.98901 -0.91096,1.12368 -0.10107,0.17489 -0.0476,0.39503 0.1196,0.49134 0.16668,0.0963 0.38391,0.0325 0.48498,-0.14235 z"
         id="path1230"
         style="fill:#3c3a37;stroke-width:0.264583" />
      <path
         class="st4"
         d="m 145.31291,136.53746 c 0.0389,-0.0675 0.67098,-1.2155 0.62098,-1.30281 0.013,-0.0452 -0.008,-0.0982 -0.0529,-0.12436 0,0 -5.3e-4,-2.6e-4 -5.3e-4,-2.6e-4 -0.0455,-0.0262 -0.1016,-0.0175 -0.13414,0.0164 -0.10054,5.3e-4 -0.77894,1.12184 -0.81783,1.1893 -0.0635,0.11007 -0.0291,0.24924 0.0773,0.31063 0.10583,0.0608 0.24368,0.0212 0.30718,-0.0889 z"
         id="path1227"
         style="fill:#4a4945;stroke-width:0.264583" />
      <path
         class="st5"
         d="m 145.73783,135.23518 -0.72443,1.25465 c -0.0259,0.045 -0.0103,0.10319 0.0347,0.12912 l 5.3e-4,2.6e-4 c 0.045,0.0259 0.10319,0.0103 0.12912,-0.0347 l 0.72443,-1.25465 c 0.0259,-0.045 0.0103,-0.10319 -0.0347,-0.12912 l -5.3e-4,-2.6e-4 c -0.045,-0.0262 -0.10319,-0.0106 -0.12912,0.0347 z"
         id="path1224"
         style="fill:#595753;stroke-width:0.264583" />
      <path
         class="st6"
         d="m 145.70635,135.36085 -0.45271,0.78396 c -0.0161,0.028 -0.007,0.0646 0.0217,0.0807 v 0 c 0.028,0.0161 0.0646,0.007 0.0807,-0.0217 l 0.4527,-0.78396 c 0.0161,-0.0281 0.007,-0.0646 -0.0217,-0.0807 v 0 c -0.028,-0.0161 -0.0643,-0.006 -0.0807,0.0217 z"
         id="path1221"
         style="fill:#6d6b68;stroke-width:0.264583" />
      <path
         class="st7"
         d="m 145.69179,135.45213 -0.15054,0.26088 c -0.007,0.0124 -0.003,0.0286 0.01,0.0357 v 0 c 0.0124,0.007 0.0286,0.003 0.0357,-0.01 l 0.15055,-0.26088 c 0.007,-0.0124 0.003,-0.0286 -0.01,-0.0357 v 0 c -0.0124,-0.007 -0.0286,-0.003 -0.0357,0.01 z"
         id="path1218"
         style="fill:#7a7876;stroke-width:0.264583" />
      <path
         class="st8"
         d="m 145.08113,136.41998 -0.022,0.0378 c -0.0196,0.0339 -0.008,0.0775 0.0259,0.0971 v 0 c 0.0339,0.0196 0.0775,0.008 0.0971,-0.0259 l 0.022,-0.0378 c 0.0196,-0.0339 0.008,-0.0775 -0.0259,-0.0971 v 0 c -0.0339,-0.0196 -0.0775,-0.008 -0.0971,0.0259 z"
         id="path1215"
         style="fill:#686663;stroke-width:0.264583" />
      <path
         d="m 148.01087,131.21616 c 0.4392,0.25347 1.13241,-0.65062 1.31339,-0.96415 0.18097,-0.31353 0.0735,-0.71437 -0.23998,-0.89535 -0.31353,-0.18097 -0.71437,-0.0736 -0.89535,0.23998 -0.18097,0.31353 -0.61727,1.36604 -0.17806,1.61952 z"
         id="path1212"
         style="fill:#000000;fill-opacity:1;stroke-width:0.264583" />
      <path
         class="st1"
         d="m 148.01748,131.2024 c 0.40402,0.23336 1.0713,-0.64956 1.24725,-0.95409 0.17594,-0.30454 0.0847,-0.68686 -0.20373,-0.85328 -0.2884,-0.16642 -0.6649,-0.0545 -0.84085,0.25029 -0.17595,0.3048 -0.60669,1.32371 -0.20267,1.55708 z"
         id="path1209"
         style="fill:#1f1d1a;stroke-width:0.264583" />
      <path
         class="st2"
         d="m 148.35509,129.59796 c -0.11668,0.20215 -0.53181,1.12131 -0.41434,1.39938 0.0185,0.0434 0.0437,0.0881 0.0897,0.11457 0,0 2.6e-4,2.6e-4 5.2e-4,2.6e-4 0.0463,0.0267 0.0974,0.0262 0.1442,0.0201 0.29925,-0.0376 0.88768,-0.85619 1.00436,-1.05833 0.13838,-0.23971 0.0661,-0.54081 -0.16166,-0.67231 -0.22728,-0.1315 -0.52414,-0.0434 -0.66278,0.19632 z"
         id="path1206"
         style="fill:#2d2c28;stroke-width:0.264583" />
      <path
         class="st3"
         d="m 148.49029,129.55087 c -0.0778,0.13467 -0.61754,1.1766 -0.51752,1.35096 0,0.0452 0.0257,0.0931 0.0714,0.11959 0,0 5.3e-4,2.7e-4 5.3e-4,2.7e-4 0.0458,0.0264 0.10002,0.0246 0.13917,0.002 0.20109,-10e-4 0.83318,-0.98901 0.91096,-1.12369 0.10107,-0.17489 0.0476,-0.39502 -0.11959,-0.49133 -0.16669,-0.0963 -0.38417,-0.0325 -0.48498,0.14235 z"
         id="path1203"
         style="fill:#3c3a37;stroke-width:0.264583" />
      <path
         class="st4"
         d="m 148.62523,129.50377 c -0.0389,0.0675 -0.67098,1.2155 -0.62098,1.30281 -0.013,0.0452 0.008,0.0982 0.0529,0.12435 0,0 5.3e-4,2.7e-4 5.3e-4,2.7e-4 0.0455,0.0262 0.1016,0.0175 0.13414,-0.0164 0.10054,-5.2e-4 0.77893,-1.12183 0.81783,-1.1893 0.0635,-0.11006 0.0291,-0.24923 -0.0773,-0.31062 -0.10583,-0.0609 -0.24368,-0.0212 -0.30718,0.0889 z"
         id="path1200"
         style="fill:#4a4945;stroke-width:0.264583" />
      <path
         class="st5"
         d="m 148.20031,130.80632 0.72443,-1.25466 c 0.0259,-0.045 0.0103,-0.10319 -0.0347,-0.12912 l -5.3e-4,-2.6e-4 c -0.045,-0.0259 -0.10319,-0.0103 -0.12912,0.0347 l -0.72443,1.25465 c -0.0259,0.045 -0.0103,0.10319 0.0347,0.12912 l 5.3e-4,2.7e-4 c 0.045,0.0259 0.10319,0.0103 0.12912,-0.0347 z"
         id="path1197"
         style="fill:#595753;stroke-width:0.264583" />
      <path
         class="st6"
         d="m 148.23153,130.68037 0.4527,-0.78396 c 0.0161,-0.028 0.007,-0.0645 -0.0217,-0.0807 v 0 c -0.028,-0.0161 -0.0645,-0.007 -0.0807,0.0217 l -0.45271,0.78396 c -0.0161,0.028 -0.007,0.0646 0.0217,0.0807 v 0 c 0.0283,0.0161 0.0646,0.006 0.0807,-0.0217 z"
         id="path1194"
         style="fill:#6d6b68;stroke-width:0.264583" />
      <path
         class="st7"
         d="m 148.24635,130.58909 0.15054,-0.26088 c 0.007,-0.0124 0.003,-0.0286 -0.01,-0.0357 v 0 c -0.0124,-0.007 -0.0286,-0.003 -0.0357,0.01 l -0.15081,0.26088 c -0.007,0.0124 -0.003,0.0286 0.01,0.0357 v 0 c 0.0127,0.007 0.0288,0.003 0.036,-0.01 z"
         id="path1191"
         style="fill:#7a7876;stroke-width:0.264583" />
      <path
         class="st8"
         d="m 148.857,129.62125 0.022,-0.0378 c 0.0196,-0.0339 0.008,-0.0775 -0.0259,-0.0971 v 0 c -0.0339,-0.0196 -0.0775,-0.008 -0.0971,0.0259 l -0.022,0.0378 c -0.0196,0.0339 -0.008,0.0775 0.0259,0.0971 v 0 c 0.0339,0.0196 0.0775,0.008 0.0971,-0.0259 z"
         id="path1188"
         style="fill:#686663;stroke-width:0.264583" />
      <path
         class="st9"
         d="m 145.34863,136.08528 -0.24686,0.42757 c -0.0365,0.0632 -0.11747,0.0849 -0.18071,0.0484 v 0 c -0.0632,-0.0365 -0.0849,-0.11748 -0.0484,-0.18071 l 0.24686,-0.42757 c 0.0365,-0.0632 0.11747,-0.0849 0.18071,-0.0484 v 0 c 0.0632,0.0362 0.0849,0.11721 0.0484,0.18071 z"
         id="path1185"
         style="fill:#e6e0da;stroke-width:0.264583" />
      <path
         class="st10"
         d="m 144.93958,136.52872 c -0.0429,-0.0249 -0.0577,-0.0796 -0.0328,-0.1225 0.0249,-0.0429 0.0752,-0.05 0.11801,-0.0251 0.0429,0.0249 0.0619,0.072 0.0373,0.11483 -0.0249,0.0429 -0.0796,0.0577 -0.1225,0.0328 z"
         id="path1182"
         style="fill:#ffffff;stroke-width:0.264583" />
    </g>
  </g>
</svg>
