<?xml version="1.0" encoding="UTF-8" standalone="no"?>
<!-- Generator: Adobe Illustrator 26.1.0, SVG Export Plug-In . SVG Version: 6.00 Build 0)  -->

<svg
   version="1.1"
   id="Ebene_2"
   x="0px"
   y="0px"
   width="40.64mm"
   height="128.5mm"
   viewBox="0 0 115.2 364.252"
   style="enable-background:new 0 0 115.2 364.252;"
   xml:space="preserve"
   sodipodi:docname="autobreak_panel.svg"
   inkscape:version="1.3.2 (091e20e, 2023-11-25, custom)"
   xmlns:inkscape="http://www.inkscape.org/namespaces/inkscape"
   xmlns:sodipodi="http://sodipodi.sourceforge.net/DTD/sodipodi-0.dtd"
   xmlns="http://www.w3.org/2000/svg"
   xmlns:svg="http://www.w3.org/2000/svg"><sodipodi:namedview
   id="namedview61"
   pagecolor="#ffffff"
   bordercolor="#666666"
   borderopacity="1.0"
   inkscape:pageshadow="2"
   inkscape:pageopacity="0.0"
   inkscape:pagecheckerboard="0"
   showgrid="false"
   inkscape:zoom="5.6568543"
   inkscape:cx="25.455844"
   inkscape:cy="107.03829"
   inkscape:window-width="3840"
   inkscape:window-height="2054"
   inkscape:window-x="2869"
   inkscape:window-y="-11"
   inkscape:window-maximized="1"
   inkscape:current-layer="g1"
   inkscape:document-units="mm"
   inkscape:showpageshadow="2"
   inkscape:deskcolor="#d1d1d1" /><defs
   id="defs63" />
<style
   type="text/css"
   id="style2">
	.st0{fill:#F3EDE7;}
</style>
<rect
   style="fill:#e7e7e7;fill-opacity:1;stroke-width:0.725671;stroke-dasharray:none"
   id="rect350"
   width="115.2"
   height="364.25198"
   x="0"
   y="-2.8421709e-14" /><path
   class="st0"
   d="M 82.251,36.591 H 78.119 V 35.87 h 4.132 V 34.714 H 78.119 V 34 h 4.132 v -1.156 h -5.869 v 4.903 h 5.869 z m -7.314,-0.154 h -3.824 v -3.593 h -1.737 v 4.903 h 5.561 z M 65.275,34 c 0.784,0 0.945,0.14 0.945,0.567 v 0.063 c 0,0.42 -0.147,0.561 -0.938,0.561 h -2.36 V 34 Z m -2.353,2.353 h 2.62 c 1.765,0 2.416,-0.519 2.416,-1.688 v -0.098 c 0,-1.317 -0.686,-1.723 -2.416,-1.723 h -4.356 v 4.903 h 1.737 v -1.394 z m -3.475,-3.509 h -2.878 l -1.646,3.04 H 54.86 l -1.632,-3.04 h -3.089 v 4.903 h 1.737 v -3.733 h 0.063 l 1.996,3.733 h 1.709 l 2.01,-3.733 h 0.056 v 3.733 h 1.737 z m -14.829,1.036 0.995,1.737 h -2.059 l 1.001,-1.737 z m 1.331,-1.036 h -2.661 l -2.865,4.903 h 1.919 l 0.553,-0.974 h 3.376 l 0.561,0.974 h 1.982 z m -9.556,4.972 c 2.255,0 3.222,-0.35 3.222,-1.695 v -0.056 c 0,-0.903 -0.462,-1.239 -2.143,-1.31 l -2.248,-0.07 c -0.498,-0.021 -0.609,-0.126 -0.609,-0.35 v -0.014 c 0,-0.308 0.259,-0.434 1.457,-0.434 1.037,0 1.457,0.098 1.59,0.434 h 1.87 c -0.259,-1.338 -1.59,-1.548 -3.201,-1.548 h -0.35 c -2.22,0 -3.138,0.364 -3.138,1.597 v 0.07 c 0,0.931 0.476,1.295 2.143,1.352 l 2.27,0.077 c 0.483,0.021 0.609,0.119 0.609,0.343 v 0.035 c -0.014,0.364 -0.357,0.456 -1.597,0.456 -1.163,0 -1.59,-0.07 -1.73,-0.371 h -1.863 c 0.245,1.289 1.59,1.484 3.222,1.484 z"
   id="path4"
   style="stroke:none;fill-opacity:1;fill:#0c1218" /><path
   class="st0"
   d="m 86.528,37.723 h 14.063 c 1.589,0 3.025,0.643 4.066,1.684 1.041,1.041 1.684,2.477 1.684,4.066 v 104.523 c 0,1.589 -0.643,3.025 -1.684,4.066 -1.041,1.041 -2.477,1.684 -4.066,1.684 H 15.046 c -1.589,0 -3.025,-0.643 -4.066,-1.684 -1.041,-1.041 -1.684,-2.477 -1.684,-4.066 V 43.473 c 0,-1.589 0.643,-3.025 1.684,-4.066 1.041,-1.041 2.477,-1.684 4.066,-1.684 h 13.731 v -0.5 H 15.046 c -3.452,0 -6.25,2.798 -6.25,6.25 v 104.523 c 0,3.452 2.798,6.25 6.25,6.25 h 85.545 c 3.452,0 6.25,-2.798 6.25,-6.25 V 43.473 c 0,-3.452 -2.798,-6.25 -6.25,-6.25 H 86.528 Z"
   id="path6"
   style="stroke:none;fill-opacity:1;fill:#0c1218" /><path
   class="st0"
   d="m 45.078,134.018 c 0.058,-0.243 0.11,-0.488 0.156,-0.736 l -2.488,-0.566 c 0.113,-0.648 0.176,-1.313 0.175,-1.993 0,-1.421 -0.259,-2.781 -0.73,-4.038 l 2.38,-0.935 c -0.089,-0.235 -0.184,-0.467 -0.285,-0.696 l -2.384,0.936 c -0.84,-1.86 -2.158,-3.455 -3.8,-4.631 l 1.446,-2.117 c -0.204,-0.145 -0.412,-0.285 -0.624,-0.42 l -1.447,2.118 c -1.663,-1.035 -3.61,-1.656 -5.697,-1.723 v -2.566 c -0.125,-0.003 -0.25,-0.009 -0.376,-0.009 -0.126,0 -0.251,0.006 -0.376,0.009 v 2.566 c -2.087,0.067 -4.033,0.688 -5.697,1.723 l -1.447,-2.118 c -0.212,0.135 -0.42,0.275 -0.624,0.42 l 1.446,2.117 c -1.641,1.176 -2.96,2.772 -3.8,4.631 l -2.384,-0.936 c -0.101,0.229 -0.196,0.461 -0.285,0.696 l 2.38,0.935 c -0.471,1.257 -0.73,2.617 -0.73,4.038 0,0.68 0.062,1.345 0.176,1.993 l -2.488,0.566 c 0.046,0.248 0.098,0.493 0.156,0.736 l 2.485,-0.565 c 0.5,2.054 1.549,3.893 2.984,5.349 l -1.731,1.865 c 0.178,0.177 0.361,0.348 0.548,0.516 l 2.351,-2.532 -0.551,-0.512 -0.003,0.003 c -1.872,-1.915 -3.026,-4.529 -3.026,-7.419 0,-2.933 1.188,-5.584 3.109,-7.506 1.923,-1.922 4.574,-3.109 7.507,-3.109 2.933,0 5.584,1.188 7.507,3.109 1.922,1.923 3.109,4.574 3.109,7.506 0,2.889 -1.154,5.504 -3.026,7.419 l -0.003,-0.003 -0.551,0.512 2.351,2.532 c 0.187,-0.167 0.37,-0.339 0.548,-0.516 l -1.731,-1.865 c 1.435,-1.456 2.484,-3.295 2.984,-5.349 z"
   id="path8"
   style="stroke:none;fill-opacity:1;fill:#0c1218" /><path
   class="st0"
   d="m 16.898,140.366 c -0.479,0 -0.634,-0.21 -0.634,-1.093 v -1.632 c 0,-0.883 0.155,-1.1 0.634,-1.1 0.471,0 0.626,0.217 0.626,1.1 v 1.632 c 0,0.883 -0.148,1.093 -0.626,1.093 z m 0.042,0.61 c 0.887,0 1.287,-0.371 1.287,-1.758 v -1.521 c 0,-1.4 -0.394,-1.765 -1.287,-1.765 h -0.085 c -0.886,0 -1.287,0.364 -1.287,1.765 v 1.521 c 0,1.387 0.401,1.758 1.287,1.758 z"
   id="path10"
   style="stroke:none;fill-opacity:1;fill:#0c1218" /><polygon
   class="st0"
   points="47.133,136.003 46.268,136.003 45.48,136.401 45.48,137.145 46.402,136.626 46.437,136.626 46.437,140.289 45.424,140.289 45.424,140.905 48.027,140.905 48.027,140.289 47.133,140.289 "
   id="polygon12"
   style="stroke:none;fill-opacity:1;fill:#0c1218" /><path
   class="st0"
   d="m 72.848,140.832 c -2.793,-2.793 -4.188,-6.45 -4.188,-10.111 0,-3.66 1.395,-7.318 4.188,-10.11 0.117,-0.117 0.117,-0.307 0,-0.424 -0.117,-0.117 -0.307,-0.117 -0.424,0 -2.909,2.908 -4.364,6.723 -4.364,10.535 0,3.812 1.455,7.626 4.364,10.535 0.117,0.117 0.307,0.117 0.424,0 0.117,-0.117 0.117,-0.307 0,-0.425 z"
   id="path14"
   style="stroke:none;fill-opacity:1;fill:#0c1218" /><path
   class="st0"
   d="m 93.069,120.611 c 2.793,2.793 4.188,6.45 4.188,10.111 0,3.66 -1.395,7.318 -4.188,10.111 -0.117,0.117 -0.117,0.307 0,0.424 0.117,0.117 0.307,0.117 0.424,0 2.909,-2.908 4.364,-6.723 4.364,-10.535 0,-3.812 -1.455,-7.626 -4.364,-10.535 -0.117,-0.117 -0.307,-0.117 -0.424,0 -0.118,0.117 -0.118,0.307 0,0.424 z"
   id="path16"
   style="stroke:none;fill-opacity:1;fill:#0c1218" /><path
   class="st0"
   d="m 73.32,201.133 c -2.793,-2.793 -4.188,-6.45 -4.188,-10.111 0,-3.66 1.395,-7.318 4.188,-10.111 0.117,-0.117 0.117,-0.307 0,-0.424 -0.117,-0.117 -0.307,-0.117 -0.424,0 -2.909,2.908 -4.364,6.723 -4.364,10.535 0,3.812 1.455,7.626 4.364,10.535 0.117,0.117 0.307,0.117 0.424,0 0.117,-0.117 0.117,-0.307 0,-0.424 z"
   id="path18"
   style="stroke:none;fill-opacity:1;fill:#0c1218" /><path
   class="st0"
   d="m 93.541,180.912 c 2.793,2.793 4.188,6.45 4.188,10.111 0,3.66 -1.395,7.318 -4.188,10.111 -0.117,0.117 -0.117,0.307 0,0.424 0.117,0.117 0.307,0.117 0.424,0 2.909,-2.908 4.364,-6.723 4.364,-10.535 0,-3.812 -1.455,-7.626 -4.364,-10.535 -0.117,-0.117 -0.307,-0.117 -0.424,0 -0.117,0.117 -0.117,0.307 0,0.424 z"
   id="path20"
   style="stroke:none;fill-opacity:1;fill:#0c1218" /><path
   class="st0"
   d="m 73.32,251.014 c -2.793,-2.793 -4.188,-6.45 -4.188,-10.111 0,-3.66 1.395,-7.318 4.188,-10.11 0.117,-0.117 0.117,-0.307 0,-0.424 -0.117,-0.117 -0.307,-0.117 -0.424,0 -2.909,2.908 -4.364,6.723 -4.364,10.535 0,3.812 1.455,7.626 4.364,10.535 0.117,0.117 0.307,0.117 0.424,0 0.117,-0.117 0.117,-0.307 0,-0.425 z"
   id="path22"
   style="stroke:none;fill-opacity:1;fill:#0c1218" /><path
   class="st0"
   d="m 93.541,230.793 c 2.793,2.793 4.188,6.45 4.188,10.111 0,3.66 -1.395,7.318 -4.188,10.111 -0.117,0.117 -0.117,0.307 0,0.424 0.117,0.117 0.307,0.117 0.424,0 2.909,-2.908 4.364,-6.723 4.364,-10.535 0,-3.812 -1.455,-7.626 -4.364,-10.535 -0.117,-0.117 -0.307,-0.117 -0.424,0 -0.117,0.117 -0.117,0.307 0,0.424 z"
   id="path24"
   style="stroke:none;fill-opacity:1;fill:#0c1218" /><path
   class="st0"
   d="m 21.859,201.133 c -2.793,-2.793 -4.188,-6.45 -4.188,-10.111 0,-3.66 1.395,-7.318 4.188,-10.111 0.117,-0.117 0.117,-0.307 0,-0.424 -0.117,-0.117 -0.307,-0.117 -0.424,0 -2.909,2.908 -4.364,6.723 -4.364,10.535 0,3.812 1.455,7.626 4.364,10.535 0.117,0.117 0.307,0.117 0.424,0 0.117,-0.117 0.117,-0.307 0,-0.424 z"
   id="path26"
   style="stroke:none;fill-opacity:1;fill:#0c1218" /><path
   class="st0"
   d="m 42.08,180.912 c 2.793,2.793 4.188,6.45 4.188,10.111 0,3.66 -1.395,7.318 -4.188,10.111 -0.117,0.117 -0.117,0.307 0,0.424 0.117,0.117 0.307,0.117 0.424,0 2.909,-2.908 4.364,-6.723 4.364,-10.535 0,-3.812 -1.455,-7.626 -4.364,-10.535 -0.117,-0.117 -0.307,-0.117 -0.424,0 -0.117,0.117 -0.117,0.307 0,0.424 z"
   id="path28"
   style="stroke:none;fill-opacity:1;fill:#0c1218" /><path
   class="st0"
   d="m 21.859,251.014 c -2.793,-2.793 -4.188,-6.45 -4.188,-10.111 0,-3.66 1.395,-7.318 4.188,-10.11 0.117,-0.117 0.117,-0.307 0,-0.424 -0.117,-0.117 -0.307,-0.117 -0.424,0 -2.909,2.908 -4.364,6.723 -4.364,10.535 0,3.812 1.455,7.626 4.364,10.535 0.117,0.117 0.307,0.117 0.424,0 0.117,-0.117 0.117,-0.307 0,-0.425 z"
   id="path30"
   style="stroke:none;fill-opacity:1;fill:#0c1218" /><path
   class="st0"
   d="m 42.08,230.793 c 2.793,2.793 4.188,6.45 4.188,10.111 0,3.66 -1.395,7.318 -4.188,10.111 -0.117,0.117 -0.117,0.307 0,0.424 0.117,0.117 0.307,0.117 0.424,0 2.909,-2.908 4.364,-6.723 4.364,-10.535 0,-3.812 -1.455,-7.626 -4.364,-10.535 -0.117,-0.117 -0.307,-0.117 -0.424,0 -0.117,0.117 -0.117,0.307 0,0.424 z"
   id="path32"
   style="stroke:none;fill-opacity:1;fill:#0c1218" /><path
   class="st0"
   d="m 21.859,301.561 c -2.793,-2.793 -4.188,-6.45 -4.188,-10.111 0,-3.66 1.395,-7.318 4.188,-10.111 0.117,-0.117 0.117,-0.307 0,-0.424 -0.117,-0.117 -0.307,-0.117 -0.424,0 -2.909,2.908 -4.364,6.723 -4.364,10.535 0,3.812 1.455,7.626 4.364,10.535 0.117,0.117 0.307,0.117 0.424,0 0.117,-0.117 0.117,-0.307 0,-0.424 z"
   id="path34"
   style="stroke:none;fill-opacity:1;fill:#0c1218" /><path
   class="st0"
   d="m 42.08,281.34 c 2.793,2.793 4.188,6.45 4.188,10.11 0,3.66 -1.395,7.318 -4.188,10.111 -0.117,0.117 -0.117,0.307 0,0.424 0.117,0.117 0.307,0.117 0.424,0 2.909,-2.908 4.364,-6.723 4.364,-10.535 0,-3.812 -1.455,-7.626 -4.364,-10.535 -0.117,-0.117 -0.307,-0.117 -0.424,0 -0.117,0.118 -0.117,0.307 0,0.425 z"
   id="path36"
   style="stroke:none;fill-opacity:1;fill:#0c1218" /><path
   class="st0"
   d="m 42.065,170.792 0.672,-0.679 h 0.049 l 1.463,2.157 h 1.324 l -2.01,-2.949 1.954,-1.954 H 44.16 l -2.052,2.087 h -0.042 v -2.087 H 40.98 v 4.903 h 1.085 z m -4.577,1.548 c 1.345,0 1.94,-0.532 2.165,-1.646 h -1.114 c -0.14,0.504 -0.476,0.7 -1.085,0.7 h -0.091 c -0.974,0 -1.148,-0.539 -1.148,-1.429 v -0.294 c 0,-0.889 0.175,-1.429 1.148,-1.429 h 0.091 c 0.609,0 0.945,0.196 1.085,0.701 h 1.114 c -0.224,-1.114 -0.82,-1.646 -2.165,-1.646 h -0.161 c -1.583,0 -2.213,0.687 -2.213,2.304 v 0.434 c 0,1.618 0.63,2.304 2.213,2.304 h 0.161 z m -6.069,-0.945 c -0.974,0 -1.177,-0.539 -1.177,-1.429 v -0.294 c 0,-0.889 0.203,-1.429 1.177,-1.429 h 0.119 c 0.967,0 1.17,0.54 1.17,1.429 v 0.294 c 0,0.903 -0.203,1.415 -1.17,1.429 z m 0.105,0.945 c 1.576,0 2.283,-0.686 2.283,-2.304 v -0.427 c 0,-1.618 -0.708,-2.311 -2.283,-2.311 h -0.091 c -1.59,0 -2.29,0.693 -2.29,2.311 v 0.427 c 0,1.618 0.7,2.304 2.29,2.304 z m -3.352,-1.008 h -2.325 v -3.964 h -1.085 v 4.903 h 3.411 v -0.939 z m -6.903,1.008 c 1.345,0 1.94,-0.532 2.165,-1.646 H 22.32 c -0.14,0.504 -0.477,0.7 -1.085,0.7 h -0.091 c -0.974,0 -1.148,-0.539 -1.148,-1.429 v -0.294 c 0,-0.889 0.175,-1.429 1.148,-1.429 h 0.091 c 0.609,0 0.945,0.196 1.085,0.701 h 1.114 c -0.224,-1.114 -0.82,-1.646 -2.165,-1.646 h -0.161 c -1.583,0 -2.213,0.687 -2.213,2.304 v 0.434 c 0,1.618 0.63,2.304 2.213,2.304 h 0.161 z"
   id="path38"
   style="stroke:none;fill-opacity:1;fill:#0c1218" /><path
   class="st0"
   d="m 37.257,221.539 c -0.974,0 -1.177,-0.54 -1.177,-1.429 v -0.224 c 0,-0.889 0.203,-1.429 1.177,-1.429 h 0.119 c 0.967,0 1.17,0.54 1.17,1.429 v 0.224 c 0,0.904 -0.175,1.415 -1.149,1.429 z m 2.521,0.006 h -0.833 v -0.049 c 0.456,-0.161 0.701,-0.694 0.701,-1.471 v -0.231 c 0,-1.59 -0.645,-2.283 -2.234,-2.283 h -0.196 c -1.59,0 -2.234,0.693 -2.234,2.311 v 0.357 c 0,1.618 0.644,2.304 2.234,2.304 h 2.563 v -0.938 z m -6.09,0.028 h -2.563 v -1.092 h 2.563 v -0.904 h -2.563 v -1.085 h 2.563 v -0.911 h -3.649 v 4.903 h 3.649 z m -6.994,0.981 c 1.239,0 2.045,-0.427 2.045,-1.583 v -0.063 c 0,-0.89 -0.518,-1.296 -1.604,-1.345 l -0.665,-0.021 c -0.638,-0.028 -0.799,-0.182 -0.799,-0.54 v -0.035 c 0,-0.413 0.267,-0.574 0.875,-0.574 0.533,0 0.89,0.119 0.995,0.588 h 1.142 c -0.084,-0.987 -0.91,-1.471 -2.073,-1.471 h -0.084 c -1.31,0 -1.961,0.518 -1.961,1.548 v 0.049 c 0,0.875 0.532,1.289 1.604,1.338 l 0.672,0.028 c 0.623,0.028 0.798,0.182 0.798,0.54 v 0.063 c 0,0.441 -0.329,0.595 -0.98,0.595 -0.462,0 -0.938,-0.063 -1.037,-0.539 H 24.48 c 0.112,1.037 0.945,1.421 2.15,1.421 h 0.064 z"
   id="path40"
   style="stroke:none;fill-opacity:1;fill:#0c1218" /><path
   class="st0"
   d="M 50.254,271.621 H 47.69 v -1.092 h 2.564 v -0.904 H 47.69 v -1.085 h 2.564 v -0.911 h -3.649 v 4.903 h 3.649 z m -6.994,0.98 c 1.239,0 2.045,-0.427 2.045,-1.583 v -0.063 c 0,-0.89 -0.518,-1.296 -1.604,-1.345 l -0.665,-0.021 c -0.638,-0.028 -0.799,-0.182 -0.799,-0.54 v -0.035 c 0,-0.413 0.266,-0.574 0.875,-0.574 0.533,0 0.89,0.119 0.995,0.588 h 1.142 c -0.084,-0.987 -0.91,-1.471 -2.073,-1.471 h -0.084 c -1.31,0 -1.961,0.518 -1.961,1.548 v 0.049 c 0,0.875 0.532,1.289 1.604,1.338 l 0.672,0.028 c 0.623,0.028 0.798,0.182 0.798,0.54 v 0.063 c 0,0.441 -0.329,0.595 -0.98,0.595 -0.462,0 -0.938,-0.063 -1.037,-0.539 h -1.142 c 0.112,1.037 0.945,1.421 2.15,1.421 h 0.064 z m -5.362,-4.069 c 0.616,0 0.812,0.154 0.812,0.651 v 0.042 c 0,0.469 -0.196,0.623 -0.701,0.623 h -1.324 v -1.316 z m -1.211,2.213 h 1.205 c 0.645,0 0.82,0.119 0.82,0.672 v 1.114 h 1.085 v -1.184 c 0,-0.854 -0.231,-1.03 -0.75,-1.114 v -0.049 c 0.525,-0.084 0.75,-0.406 0.75,-1.135 v -0.126 c 0,-0.953 -0.448,-1.296 -1.667,-1.296 h -2.528 v 4.903 h 1.085 z m -2.463,0.876 H 31.66 v -1.092 h 2.563 v -0.904 H 31.66 v -1.085 h 2.563 v -0.911 h -3.649 v 4.903 h 3.649 v -0.911 z m -4.815,-3.993 h -1.156 l -1.317,3.705 h -0.042 l -1.303,-3.705 h -1.226 l 1.793,4.903 h 1.457 z m -6.105,3.993 H 20.74 v -1.092 h 2.563 v -0.904 H 20.74 v -1.085 h 2.563 v -0.911 h -3.649 v 4.903 h 3.649 v -0.911 z m -6.959,-3.089 c 0.616,0 0.812,0.154 0.812,0.651 v 0.042 c 0,0.469 -0.196,0.623 -0.701,0.623 h -1.324 v -1.316 z m -1.212,2.213 h 1.205 c 0.645,0 0.82,0.119 0.82,0.672 v 1.114 h 1.085 v -1.184 c 0,-0.854 -0.231,-1.03 -0.75,-1.114 v -0.049 c 0.525,-0.084 0.75,-0.406 0.75,-1.135 v -0.126 c 0,-0.953 -0.448,-1.296 -1.667,-1.296 h -2.528 v 4.903 h 1.085 z"
   id="path42"
   style="stroke:none;fill-opacity:1;fill:#0c1218" /><path
   class="st0"
   d="m 100.311,218.52 h 1.513 v -0.938 h -4.097 v 0.938 h 1.492 v 3.964 h 1.093 v -3.964 z m -3.682,3.053 h -2.563 v -1.092 h 2.563 v -0.904 h -2.563 v -1.085 h 2.563 v -0.911 H 92.98 v 4.903 h 3.649 z m -5.116,-3.992 H 90.42 v 1.975 h -2.262 v -1.975 h -1.085 v 4.903 h 1.085 v -1.989 h 2.262 v 1.989 h 1.093 z m -7.932,4.973 c 1.345,0 1.94,-0.532 2.165,-1.646 h -1.114 c -0.14,0.504 -0.476,0.7 -1.085,0.7 h -0.091 c -0.974,0 -1.148,-0.539 -1.148,-1.429 v -0.294 c 0,-0.889 0.175,-1.429 1.148,-1.429 h 0.091 c 0.609,0 0.945,0.196 1.085,0.701 h 1.114 c -0.224,-1.114 -0.82,-1.646 -2.165,-1.646 H 83.42 c -1.583,0 -2.213,0.687 -2.213,2.304 v 0.434 c 0,1.618 0.63,2.304 2.213,2.304 h 0.161 z m -4.865,-4.034 h 1.513 v -0.938 h -4.097 v 0.938 h 1.492 v 3.964 h 1.093 v -3.964 z m -5.369,-0.028 0.693,1.961 h -1.436 l 0.693,-1.961 z m 0.812,-0.911 H 72.52 l -1.793,4.903 h 1.163 l 0.399,-1.121 h 2.066 l 0.399,1.121 h 1.205 z m -6.44,0.904 c 0.616,0 0.812,0.154 0.812,0.651 v 0.042 c 0,0.469 -0.196,0.623 -0.701,0.623 h -1.324 v -1.316 z m -1.212,2.213 h 1.205 c 0.645,0 0.82,0.119 0.82,0.672 v 1.114 h 1.085 V 221.3 c 0,-0.854 -0.231,-1.03 -0.75,-1.114 v -0.049 c 0.525,-0.084 0.75,-0.406 0.75,-1.135 v -0.126 c 0,-0.953 -0.448,-1.296 -1.667,-1.296 h -2.528 v 4.903 h 1.085 z"
   id="path44"
   style="stroke:none;fill-opacity:1;fill:#0c1218" /><path
   class="st0"
   d="m 95.128,313.959 h 1.513 v -0.938 h -4.097 v 0.938 h 1.492 v 3.964 h 1.093 v -3.964 z m -5.789,4.034 c 1.513,0 2.094,-0.518 2.094,-2.031 v -2.942 h -1.106 v 2.879 c 0,0.847 -0.238,1.121 -0.96,1.121 h -0.154 c -0.722,0 -0.959,-0.266 -0.959,-1.121 v -2.879 h -1.107 v 2.942 c 0,1.513 0.575,2.031 2.094,2.031 z m -5.901,-0.945 c -0.973,0 -1.176,-0.539 -1.176,-1.429 v -0.294 c 0,-0.889 0.203,-1.429 1.176,-1.429 h 0.119 c 0.967,0 1.17,0.54 1.17,1.429 v 0.294 c 0,0.903 -0.203,1.415 -1.17,1.429 z m 0.105,0.945 c 1.576,0 2.283,-0.686 2.283,-2.304 v -0.427 c 0,-1.618 -0.708,-2.311 -2.283,-2.311 h -0.091 c -1.59,0 -2.29,0.693 -2.29,2.311 v 0.427 c 0,1.618 0.7,2.304 2.29,2.304 z"
   id="path46"
   style="stroke:none;fill-opacity:1;fill:#0c1218" /><path
   class="st0"
   d="m 76.45,168.092 h -0.521 v 1.45 h 0.556 c 0.345,0 0.485,-0.07 0.485,-0.651 v -0.14 c 0,-0.589 -0.148,-0.659 -0.52,-0.659 z m 16.054,-2.753 H 74.713 c -2.372,0 -4.295,1.923 -4.295,4.295 0,2.372 1.923,4.295 4.295,4.295 h 17.791 c 2.372,0 4.295,-1.923 4.295,-4.295 0,-2.372 -1.923,-4.295 -4.295,-4.295 z m -14.633,3.391 c 0,0.792 -0.19,1.008 -0.57,1.106 v 0.035 c 0.38,0.084 0.57,0.238 0.57,1.121 v 1.247 h -0.9 v -1.303 c 0,-0.602 -0.134,-0.672 -0.514,-0.672 H 75.93 v 1.975 h -0.9 v -4.903 h 1.512 c 0.936,0 1.33,0.21 1.33,1.303 v 0.091 z m 3.53,-0.61 h -1.386 v 1.268 h 1.386 v 0.792 h -1.386 v 1.274 h 1.386 v 0.785 h -2.286 v -4.903 h 2.286 z m 3.924,2.739 c 0,1.121 -0.464,1.45 -1.364,1.45 h -0.07 c -0.443,0 -0.788,-0.098 -1.02,-0.301 -0.232,-0.203 -0.359,-0.575 -0.38,-1.1 h 0.921 c 0.028,0.553 0.211,0.658 0.514,0.658 0.358,0 0.499,-0.133 0.499,-0.63 v -0.119 c 0,-0.441 -0.091,-0.581 -0.492,-0.637 l -0.352,-0.042 c -0.773,-0.098 -1.062,-0.42 -1.062,-1.352 v -0.077 c 0,-1.093 0.408,-1.443 1.337,-1.443 h 0.084 c 0.887,0 1.337,0.35 1.365,1.443 H 84.39 c -0.027,-0.582 -0.168,-0.693 -0.499,-0.693 -0.338,0 -0.464,0.14 -0.464,0.623 v 0.098 c 0,0.427 0.091,0.582 0.492,0.63 l 0.352,0.042 c 0.773,0.098 1.055,0.42 1.055,1.352 v 0.098 z m 3.445,-2.739 h -1.386 v 1.268 h 1.386 v 0.792 h -1.386 v 1.274 h 1.386 v 0.785 h -2.286 v -4.903 h 2.286 z m 3.694,0.014 H 91.55 v 4.104 h -0.908 v -4.104 h -0.893 v -0.799 h 2.715 z"
   id="path48"
   style="stroke:none;fill-opacity:1;fill:#0c1218" /><path
   class="st0"
   d="m 67.281,13.511 h 0.384 c 0.112,0 0.169,-0.067 0.169,-0.168 V 9.76 c 0,-0.101 0.067,-0.168 0.169,-0.168 h 1.015 c 0.102,0 0.181,0.067 0.181,0.168 v 3.583 c 0,0.101 0.068,0.168 0.169,0.168 h 0.373 c 0.112,0 0.169,-0.067 0.169,-0.168 V 5.257 c 0,-0.101 -0.068,-0.168 -0.169,-0.168 h -0.373 c -0.112,0 -0.169,0.067 -0.169,0.168 v 3.481 c 0,0.101 -0.079,0.168 -0.181,0.168 h -1.015 c -0.102,0 -0.169,-0.067 -0.169,-0.168 V 5.257 c 0,-0.101 -0.067,-0.168 -0.169,-0.168 h -0.384 c -0.112,0 -0.169,0.067 -0.169,0.168 v 8.086 c 0,0.101 0.067,0.168 0.169,0.168 z m -5.02,-1.639 c 0,1.033 0.462,1.696 1.33,1.696 0.88,0 1.342,-0.674 1.342,-1.696 v -0.887 c 0,-0.101 -0.067,-0.168 -0.169,-0.168 H 64.38 c -0.102,0 -0.169,0.067 -0.169,0.168 v 0.674 c 0,0.831 -0.146,1.224 -0.62,1.224 -0.474,0 -0.608,-0.393 -0.608,-1.224 V 6.941 c 0,-0.831 0.135,-1.224 0.608,-1.224 0.473,0 0.62,0.393 0.62,1.224 v 0.674 c 0,0.101 0.067,0.168 0.169,0.168 h 0.384 c 0.102,0 0.169,-0.067 0.169,-0.168 V 6.728 c 0,-1.022 -0.462,-1.696 -1.342,-1.696 -0.868,0 -1.33,0.663 -1.33,1.696 z M 58.176,5.605 c 0,0.112 0.067,0.168 0.169,0.168 h 0.439 c 0.102,0 0.169,0.067 0.169,0.168 v 7.401 c 0,0.101 0.068,0.168 0.17,0.168 h 0.372 c 0.112,0 0.169,-0.067 0.169,-0.168 v -7.4 c 0,-0.101 0.067,-0.168 0.169,-0.168 h 0.462 c 0.102,0 0.17,-0.067 0.17,-0.168 V 5.257 c 0,-0.112 -0.068,-0.168 -0.17,-0.168 h -1.95 c -0.102,0 -0.169,0.067 -0.169,0.168 z m -2.46,7.906 H 56.1 c 0.112,0 0.169,-0.067 0.169,-0.168 V 5.257 c 0,-0.101 -0.067,-0.168 -0.169,-0.168 h -0.384 c -0.112,0 -0.169,0.067 -0.169,0.168 v 8.086 c 0,0.101 0.068,0.168 0.169,0.168 z m -4.061,-0.168 c 0,0.101 0.067,0.168 0.169,0.168 h 1.646 c 0.102,0 0.169,-0.067 0.169,-0.168 v -0.314 c 0,-0.101 -0.067,-0.168 -0.169,-0.168 h -0.925 c -0.102,0 -0.169,-0.067 -0.169,-0.168 V 5.257 c 0,-0.101 -0.067,-0.168 -0.169,-0.168 h -0.384 c -0.112,0 -0.169,0.067 -0.169,0.168 v 8.086 z m -4.874,-1.471 c 0,1.033 0.462,1.696 1.33,1.696 0.88,0 1.319,-0.674 1.319,-1.696 V 9.468 C 49.43,9.367 49.363,9.3 49.261,9.3 H 48.28 c -0.102,0 -0.169,0.067 -0.169,0.168 v 0.337 c 0,0.112 0.067,0.168 0.169,0.168 h 0.282 c 0.102,0 0.169,0.067 0.169,0.168 v 1.516 c 0,0.831 -0.146,1.224 -0.62,1.224 -0.474,0 -0.608,-0.393 -0.608,-1.224 V 6.941 c 0,-0.831 0.135,-1.224 0.608,-1.224 0.473,0 0.62,0.393 0.62,1.224 v 0.674 c 0,0.101 0.067,0.168 0.169,0.168 h 0.361 c 0.102,0 0.169,-0.067 0.169,-0.168 V 6.728 c 0,-1.022 -0.439,-1.696 -1.319,-1.696 -0.868,0 -1.33,0.663 -1.33,1.696 z m -4.333,1.639 h 0.451 c 0.079,0 0.146,-0.067 0.169,-0.168 l 0.598,-2.684 h 0.091 l 0.586,2.684 c 0.022,0.101 0.102,0.168 0.181,0.168 h 0.439 c 0.079,0 0.136,-0.067 0.113,-0.168 L 44.106,9.367 44.117,9.232 45.076,5.256 C 45.098,5.155 45.042,5.088 44.963,5.088 h -0.439 c -0.079,0 -0.146,0.067 -0.169,0.168 L 43.757,7.951 H 43.666 L 43.068,5.256 C 43.046,5.155 42.978,5.088 42.899,5.088 h -0.451 c -0.067,0 -0.135,0.067 -0.112,0.168 l 0.97,3.976 v 0.135 l -0.97,3.976 c -0.023,0.101 0.044,0.168 0.112,0.168 z M 38.566,11.658 V 6.941 c 0,-0.831 0.135,-1.224 0.609,-1.224 0.485,0 0.62,0.393 0.62,1.224 v 4.717 c 0,0.831 -0.135,1.224 -0.62,1.224 -0.474,0 -0.609,-0.393 -0.609,-1.224 z m -0.722,0.214 c 0,1.033 0.462,1.696 1.331,1.696 0.88,0 1.342,-0.663 1.342,-1.696 V 6.728 c 0,-1.033 -0.462,-1.696 -1.342,-1.696 -0.868,0 -1.331,0.663 -1.331,1.696 z m -3.363,1.639 h 0.406 c 0.113,0 0.169,-0.056 0.191,-0.213 L 36.206,5.291 C 36.228,5.123 36.138,5.089 36.037,5.089 h -0.35 c -0.124,0 -0.191,0.034 -0.203,0.18 L 34.74,11.367 H 34.627 L 33.882,5.269 C 33.871,5.123 33.803,5.089 33.679,5.089 h -0.35 c -0.102,0 -0.192,0.034 -0.169,0.202 l 1.128,8.007 c 0.024,0.157 0.081,0.213 0.193,0.213 z"
   id="path50"
   style="stroke:none;fill-opacity:1;fill:#0c1218" /><path
   class="st0"
   d="m 6.222,18.793 h 102.755 c 0.138,0 0.25,-0.112 0.25,-0.25 0,-0.138 -0.112,-0.25 -0.25,-0.25 H 6.222 c -0.138,0 -0.25,0.112 -0.25,0.25 0,0.138 0.112,0.25 0.25,0.25"
   id="path52"
   style="stroke:none;fill-opacity:1;fill:#0c1218" /><path
   class="st0"
   d="m 108.578,5.293 v 8.018 H 73.897 V 5.293 h 34.681 m 0,-0.571 H 73.897 c -0.315,0 -0.57,0.255 -0.57,0.57 v 8.018 c 0,0.315 0.255,0.57 0.57,0.57 h 34.681 c 0.315,0 0.57,-0.255 0.57,-0.57 V 5.293 c 0,-0.315 -0.255,-0.571 -0.57,-0.571 z"
   id="path54"
   style="stroke:none;fill-opacity:1;fill:#0c1218" /><path
   class="st0"
   d="m 104.367,10.472 0.323,-0.558 h 0.03 l 0.689,1.697 h 0.87 l -1.02,-2.489 0.989,-1.709 h -0.863 l -0.996,1.859 h -0.023 V 7.414 H 103.6 v 4.198 h 0.768 v -1.14 z m -3.144,-2.255 0.336,1.829 h -0.702 l 0.336,-1.829 z m 0.563,-0.803 h -1.133 l -0.894,4.198 h 0.797 l 0.168,-0.899 h 0.966 l 0.174,0.899 h 0.815 z M 98.9,10.939 H 97.72 V 9.848 H 98.9 V 9.171 H 97.72 V 8.085 H 98.9 V 7.414 h -1.948 v 4.198 H 98.9 Z M 94.677,8.062 c 0.318,0 0.444,0.06 0.444,0.563 v 0.12 c 0,0.498 -0.12,0.558 -0.414,0.558 H 94.233 V 8.062 Z M 94.233,9.92 h 0.449 c 0.324,0 0.438,0.06 0.438,0.576 v 1.115 h 0.768 v -1.067 c 0,-0.756 -0.162,-0.888 -0.486,-0.959 v -0.03 c 0.324,-0.084 0.486,-0.27 0.486,-0.948 V 8.529 c 0,-0.935 -0.336,-1.115 -1.134,-1.115 h -1.289 v 4.198 h 0.768 z M 91.191,9.758 c 0.324,0 0.45,0.042 0.45,0.54 v 0.12 c 0,0.492 -0.126,0.552 -0.45,0.552 H 90.748 V 9.758 Z m 0,-1.696 c 0.312,0 0.432,0.06 0.432,0.545 v 0.024 c 0,0.48 -0.12,0.528 -0.42,0.528 H 90.748 V 8.062 Z m 1.218,2.344 c 0,-0.629 -0.162,-0.887 -0.516,-0.959 V 9.417 C 92.222,9.345 92.39,9.081 92.39,8.547 V 8.505 C 92.39,7.6 92.061,7.414 91.263,7.414 H 89.98 v 4.198 h 1.307 c 0.786,0 1.122,-0.198 1.122,-1.115 z m -4.776,0.612 c -0.197,0 -0.323,-0.06 -0.39,-0.186 -0.06,-0.125 -0.09,-0.348 -0.09,-0.666 V 8.865 c 0,-0.324 0.03,-0.545 0.09,-0.666 0.066,-0.126 0.192,-0.186 0.39,-0.186 h 0.042 c 0.198,0 0.324,0.06 0.384,0.186 0.066,0.12 0.096,0.342 0.096,0.666 v 1.301 c 0,0.318 -0.029,0.54 -0.096,0.666 -0.06,0.126 -0.186,0.186 -0.384,0.186 z m 0.054,0.653 c 0.888,0 1.242,-0.348 1.242,-1.559 V 8.919 c 0,-1.217 -0.354,-1.565 -1.242,-1.565 h -0.065 c -0.882,0 -1.241,0.348 -1.241,1.565 v 1.193 c 0,1.211 0.359,1.559 1.241,1.559 z m -2.88,-3.574 h 0.779 V 7.414 h -2.314 v 0.684 h 0.762 v 3.514 h 0.773 z m -3.581,3.574 c 0.863,0 1.187,-0.294 1.187,-1.487 V 7.414 H 81.64 v 2.776 c 0,0.63 -0.096,0.774 -0.426,0.774 h -0.048 c -0.33,0 -0.426,-0.144 -0.426,-0.774 V 7.414 h -0.773 v 2.771 c 0,1.193 0.324,1.487 1.188,1.487 h 0.071 z m -3.523,-3.454 0.336,1.829 h -0.702 l 0.336,-1.829 z m 0.564,-0.803 h -1.133 l -0.894,4.198 h 0.797 l 0.168,-0.899 h 0.966 l 0.174,0.899 h 0.815 z"
   id="path56"
   style="stroke:none;fill-opacity:1;fill:#0c1218" />
<g
   id="g1"
   transform="matrix(1.1041533,0,0,1.1041615,-10.617712,-13.767755)"
   style="stroke-width:0.905668"><path
     style="fill:none;stroke:#000000;stroke-width:0.513449;stroke-dasharray:none;stroke-opacity:1"
     id="path1-0"
     sodipodi:type="arc"
     sodipodi:cx="78.701164"
     sodipodi:cy="-69.818298"
     sodipodi:rx="26.286207"
     sodipodi:ry="26.309856"
     sodipodi:start="0.64652359"
     sodipodi:end="5.442783"
     sodipodi:arc-type="arc"
     d="m 99.682364,-53.96884 a 26.286207,26.309856 0 0 1 -28.113879,9.473295 26.286207,26.309856 0 0 1 -19.030116,-22.776285 26.286207,26.309856 0 0 1 14.289293,-26.019319 26.286207,26.309856 0 0 1 29.410692,3.874334"
     transform="matrix(-0.09766685,0.99521916,-0.99523562,-0.09749901,0,0)"
     sodipodi:open="true" /><path
     style="fill:none;stroke:#000000;stroke-width:0.693157;stroke-dasharray:none;stroke-opacity:1"
     d="m 86.02976,75.116692 3.862421,-1.457598"
     id="path2-8"
     sodipodi:nodetypes="cc" /><path
     style="fill:none;stroke:#000000;stroke-width:0.693157;stroke-dasharray:none;stroke-opacity:1"
     d="M 37.535901,75.091408 33.61981,73.60396"
     id="path2-5-7"
     sodipodi:nodetypes="cc" /><path
     style="fill:none;stroke:#000000;stroke-width:0.693157;stroke-dasharray:none;stroke-opacity:1"
     d="M 76.488335,63.074343 78.86343,59.896616"
     id="path2-6-2"
     sodipodi:nodetypes="cc" /><path
     style="fill:none;stroke:#000000;stroke-width:0.693157;stroke-dasharray:none;stroke-opacity:1"
     d="M 47.105661,63.249177 44.714647,59.816732"
     id="path2-6-9-0"
     sodipodi:nodetypes="cc" /><path
     style="fill:none;stroke:#000000;stroke-width:0.693157;stroke-dasharray:none;stroke-opacity:1"
     d="m 87.46247,90.484298 3.881797,0.895105"
     id="path2-4-9"
     sodipodi:nodetypes="cc" /><path
     style="fill:none;stroke:#000000;stroke-width:0.693157;stroke-dasharray:none;stroke-opacity:1"
     d="m 36.115978,90.449751 -3.937217,0.945598"
     id="path2-4-1-9"
     sodipodi:nodetypes="cc" /><path
     style="fill:none;stroke:#000000;stroke-width:0.693157;stroke-dasharray:none;stroke-opacity:1"
     d="m 61.798577,54.581162 6.27e-4,4.257503"
     id="path2-4-1-6-9"
     sodipodi:nodetypes="cc" /><path
     style="fill:none;stroke:#000000;stroke-width:0.693157;stroke-dasharray:none;stroke-opacity:1"
     d="m 79.997212,104.42624 2.489549,2.50267"
     id="path2-4-4-1"
     sodipodi:nodetypes="cc" /><path
     style="fill:none;stroke:#000000;stroke-width:0.693157;stroke-dasharray:none;stroke-opacity:1"
     d="m 43.751834,104.21942 -2.749576,2.71229"
     id="path2-4-4-7-9"
     sodipodi:nodetypes="cc" /></g><circle
   cx="69.740631"
   cy="106.60995"
   r="28.834232"
   fill="none"
   opacity="0.69"
   style="isolation:isolate;stroke-width:0.75"
   id="circle38" /></svg>
